<?xml version="1.0" encoding="utf-8"?>
<svg xmlns="http://www.w3.org/2000/svg" viewBox="0 0 1441 230">
	<title>Diagram showing a glacier section. The top C is curved and contains deep crevasses, while the bottom part marked A, B, F, D, G is flat.</title>
	<path d="M709.368.825c-3.2 1.2-4.3 3.2-5 8.5-.6 5.3.1 6.7 4.5 9.8 4.7 3.2 13 1.1 13-3.3 0-2.7-1.6-3.3-5.4-1.9-4.5 1.6-6.8 0-6.4-4.5.3-2.9.6-3.1 4.3-3.2 3.1 0 4.1-.5 4.4-1.9.6-3.5-4.6-5.5-9.4-3.5zm24 23.6c-19.2.7-44 2.2-55 3.4-11 1.1-28 2.4-37.8 2.8-9.7.5-18 1.1-18.3 1.5-.3.3-1 3-1.4 5.9l-.8 5.3-.1-5.6c-.1-4.2-.5-5.8-1.7-6.3-4.8-1.8-39.4-.1-62.4 3.2-6.3.9-19.5 1.8-29.2 1.9-19.8.4-19.5.3-17.8 7.8.5 2.2.7 4.1.6 4.3-.4.4-2.3-4.5-3-8.1-.6-2.3-1.1-2.7-4.2-2.7-5.7 0-22.3 1.9-31.2 3.6-4.5.9-11.3 1.9-14.9 2.2-6.1.6-6.8.9-7.3 3.2l-.6 2.5-.6-2.4c-.6-2.2-1-2.3-6-1.8-2.9.3-8.9 1.2-13.3 2.1-4.4.8-11.3 1.5-15.4 1.6-4 0-10.1.4-13.5 1-3.3.5-10 1.5-14.8 2.1l-8.8 1.2-.1 11.6c-.1 11.6-.1 11.6-1.4 6.6-.7-2.8-1.9-7.6-2.5-10.9l-1.2-5.9-7.1.7c-4 .4-12.6 1.1-19.2 1.6-11.2.9-21.3 2.6-29.4 5-1.9.5-7 1.4-11.5 2-4.5.5-13.3 1.9-19.6 3-6.3 1-17.1 2.7-24 3.5-14.9 1.9-16.4 2.2-39.3 6.9-9.8 2-23 5.3-29.5 7.3-15 4.6-19.9 6-29.7 8.4-8.7 2.2-11 2.9-26 8.4-11.1 4-17.7 6.8-21.5 9.1-1.4.8-7.7 4-14 7.1-6.3 3.1-13.3 6.9-15.5 8.3-2.2 1.5-7.1 4.4-11 6.4-14 7.3-36.1 22.3-43.3 29.3-1.3 1.3-2.7 2.3-3.1 2.3-.4 0-1.9 1-3.2 2.1-9.2 8.1-10.4 8.8-15.9 9.1-4.8.3-5.5.6-5.8 2.5-.4 2.8.7 3 15.9 3.7 8.1.3 12 .1 12.8-.7.9-.9 1.4-.9 1.9-.1.4.6 2.1 1.5 3.9 1.8 2.6.6 3.4.3 4.2-1.2 1.3-2.4-29.4-2.3 772.6-2.4 473.9-.1 593.6.1 590.3.9-4.2 1-1.3 2.3 5.2 2.3 5.6 0 7.2-.3 7.7-1.6.6-1.6.7-1.5 1.9 0 1 1.5 1.9 1.5 7.5.5 3.5-.6 8.3-1.4 10.7-1.6 3.7-.4 4.3-.8 4-2.7-.3-1.9-.9-2.1-6.8-2.2-5.1 0-8.1-.8-14-3.4-4.1-1.8-8.6-4-10-5-8.9-6-26.1-17-26.5-17-.5 0-4-1.5-12-5.1-2.5-1.1-24.2-9.4-31-11.8-6.2-2.3-15.9-6.3-24.5-10.3-3.6-1.6-9.9-4.1-14-5.5-4.1-1.3-16.6-5.8-27.7-9.9-11.1-4-25.7-8.7-32.5-10.3-23.6-5.6-29.3-6.8-30-6.4-.4.2-1 1.9-1.4 3.8-.8 4.7-2.4 4.4-2.4-.4v-3.8l-15.2-6.1c-9.1-3.6-19.6-6.9-25.8-8.2-5.8-1.1-13.2-3-16.5-4-9.9-3.2-22.3-5.7-34.5-7-6.3-.7-13-1.7-14.7-2.2-4.4-1.3-5.3-.5-5.4 5 0 2.6-.4 6.5-.8 8.7l-.9 4-.1-3.6c-.2-8.1-1.5-16.1-2.5-16.4-5.6-1.5-26.1-6.1-38.6-8.5-8.5-1.7-23.4-4.8-33-6.9-9.6-2.2-19.5-4.2-22-4.5-5.1-.8-17.9-3-29-5.2-4.1-.8-16.3-2.1-27-2.9-10.7-.8-21.7-1.9-24.5-2.5-7.3-1.4-46-4.2-53-3.8l-6 .3-.4 7-.4 7-1.1-7.5-1.1-7.5-5-.7c-8.8-1.1-26.5-.8-41.9.7-9.5 1-18.4 1.3-24.3.9l-9.3-.7v4.7c0 2.9-.4 4.5-1 4.1-.5-.3-1-2.4-1-4.5 0-2.9-.5-4.2-1.9-5-1.1-.5-2.1-.9-2.3-.9-.2.1-16 .8-35.3 1.5zm117.3 2.9c2.7.5 3.2 1 3.2 3.3 0 1.5.9 7 2 12.3 1.1 5.7 1.7 11.9 1.5 15.3-.4 4.3-.2 5.7.8 5.3.8-.2 1.4-4.7 1.8-15.3.9-20.9-.1-19.5 12.2-18.9 20.5.9 42.8 2.4 43.6 3 .5.2 1.2 4.2 1.5 8.7.4 4.6 1.2 14.1 1.8 21.3.6 7.1 1.1 15.9 1.2 19.5.6 17.4.6 17.4 1.7 16.3.8-.8 1-6.8.4-21.5-.4-11.2-.8-25.3-.9-31.3l-.1-11h5c13.9.2 24.3 1 37.5 3.1 8 1.2 16.6 2.6 19.3 2.9 2.6.3 4.7 1.2 4.8 1.8.5 8.1.4 21.1-.3 33.7-1.5 30.4-1.9 58.8-.8 59.5.5.3 1 0 1-.7 0-.8.3-6.3.6-12.3.3-6.1.5-13.6.4-16.7-.1-3.2.4-11.3 1.1-18 .7-6.8 1.3-19.7 1.3-28.8l.1-16.5 3 .2c1.7.1 10.2 1.8 19 3.6 8.8 1.9 23.2 4.9 32 6.7 24.1 4.8 43.7 9.8 44.7 11.2.4.7.8 2.9.8 4.9 0 2 .7 8 1.5 13.5.8 5.4 1.5 12.4 1.5 15.4 0 5.4 1.2 9.1 2.6 7.8.3-.4.8-7.8 1-16.5.2-8.7.6-17.5 1-19.6.6-3.6.7-3.7 4.7-3.7 8.4.1 39.3 5.5 45.7 8 1.4.5 6.8 1.9 12 3 11 2.4 27.1 7.8 37.5 12.5l7.2 3.3.7 8.9c1.5 21.3 1.9 24.3 2.6 24.3.9 0 2-7.6 2-13.7 0-2.4.5-7.6 1.2-11.5l1.1-7 3.6.6c2 .3 6.6 1.1 10.3 1.6 3.7.5 11.3 2.5 17 4.4 5.7 1.9 15.2 4.8 21.1 6.5 6 1.7 12.7 4.1 15 5.2 2.2 1.2 8.4 3.6 13.7 5.4 10.6 3.7 18.9 6.9 23.6 9 7 3.2 23.2 9.8 27.8 11.2 2.7.8 10 3.9 16.2 6.9 6.1 3 11.4 5.4 11.8 5.4 1.8 0 14.8 6.8 21.2 11 7.5 5.1 20.4 12 22.3 12 .6 0 1.1.3 1.1.8 0 .4-1.9.8-4.2.8-2.4 0-7.2.1-10.8.2-3.6.2-34.2-.1-68-.5-72.1-.9-839.5-.8-1120.7.1-168 .5-194.2.4-193.7-.8.3-.8 1.2-1.7 2-2 1.4-.5 20.8-15 23.3-17.5 2.5-2.3 17-11.5 28.6-18.1 6.1-3.4 12.4-7.2 14-8.4 1.7-1.2 8.9-4.8 16-8 7.2-3.3 14.2-6.8 15.7-7.8 5.4-3.7 32.3-12.6 35.1-11.5 1 .4 1.5 3.8 2 12.9.7 13.9 1.5 18.8 3 18.8 1 0 .2-31.4-.9-33.1-.5-.9 5.9-2.9 9.1-2.9 1.1 0 3-.7 4.3-1.5 1.2-.9 5.4-2.2 9.4-3 4-.8 9.6-2.3 12.3-3.3 6.2-2.5 19.4-6.2 21.8-6.2 2 0 2 .3 1.7 8.9-.1 4.9.1 6.2 1.2 5.9 1-.4 1.2-2.3 1-7.6-.3-5.4-.1-7.3 1-7.7.7-.3 6.9-1.4 13.8-2.5s15.5-2.8 19.2-3.8c3.7-1.1 7.9-1.7 9.4-1.4 2.6.5 2.6.5 1.9 6.8-.6 6.3-.1 10.4 1.4 10.4.5 0 1.1-3.3 1.4-7.3.7-9.9 1.2-10.7 5.6-10.7 2.1 0 6-.7 8.7-1.5 2.7-.9 8.5-2 12.9-2.5 4.4-.6 9.8-1.4 12-1.9 2.2-.5 6.9-1.5 10.5-2.1 3.6-.7 7.9-1.6 9.5-2.1 1.7-.5 8.2-1.1 14.5-1.3 6.3-.3 13.9-1 16.9-1.5 2.9-.6 6.7-1.1 8.2-1.1 2.5 0 2.9.4 2.9 2.7.1 2.7 1.2 8.4 4.4 21 .8 3.4 1.8 9.8 2.2 14.3.7 8.5 2.3 9.7 2.5 2 0-2.5-.3-12.9-.7-23.1-.4-10.6-.3-18.8.2-19.2 1.1-.6 18.3-2.6 24.4-2.8 2.5-.1 8.3-.7 13-1.5 11.2-1.7 29.1-3.6 29.6-3.1 1.4 1.4 4.4 15.7 4.4 20.9 0 3.5.9 9.8 2 14.2 1.1 4.3 2 10.5 2 13.7 0 3.6.4 5.9 1.1 5.9.7 0 .9-3.1.6-9.8-.5-10.4-3.3-37.9-4.3-42.6-.8-3.5.6-4.6 6.1-4.6 2.2 0 7.6-.6 12-1.5 10.6-1.9 24-3.5 29.6-3.5h4.4l2.9 7c1.5 3.8 3.3 10.5 3.8 14.7 1.3 9.8 1.5 10.6 2.9 9.7 1.2-.7.9-10.8-.7-26.2l-.7-6.2h10.6c5.8 0 20.4-1.2 32.4-2.7 17.2-2.2 26-2.8 41.8-2.8h20v9.5c-.1 5.2-.7 14.1-1.5 19.8-1 7.6-1.1 10.5-.2 11.4.8.8 1.2.5 1.5-1.3 1.9-10.2 4.1-20 6.5-28.9 2.6-9.5 3.1-10.5 5.3-10.7 1.3-.1 10.1-.7 19.4-1.3 28.2-1.9 56.9-4.1 58.5-4.5.8-.2 14.9-.7 31.3-1.1 32.2-.7 32.7-.6 32.7 4.6 0 1.5.8 5.1 1.9 8.1 1 3 2.3 8.5 3 12.4 1.9 11.8 2.2 12.8 3.3 11.7.6-.6.6-4.3-.2-10.6-1.2-9-1-23.9.3-25.2.3-.3 7.6-.8 16.4-1 8.7-.3 17.4-.9 19.3-1.3 3.6-.9 31-.5 36.8.4zm558.2 151.9c0 1.1-1.9 1.5-2.5.6-.3-.5.1-1 .9-1 .9 0 1.6.2 1.6.4zm-1250-44c0 .8.5 1.8 1 2.1.6.3 1-.3 1-1.4 0-1.2-.4-2.1-1-2.1-.5 0-1 .6-1 1.4zm166.9 14.8c-.5 1-.9 5.4-.7 9.8.2 6.6.6 8.1 2 8.6 2.5.7 3.8-.3 3.8-3 0-1.5.9-2.7 2.5-3.4 2.9-1.3 2.4-3.9-.8-4.4-1.2-.2-2.2-1-2.2-1.8 0-1.1 1.1-1.5 4.2-1.5 9 0 7.2-4.9-2-5.7-4.9-.4-6-.2-6.8 1.4zm377.8-.5c-.7 1.1-.9 5.6-.8 13l.1 6.3h4.4c8.4 0 10.4-.9 12.7-5.6 1.8-3.8 1.9-4.9.9-7.9-1.6-4.9-4.4-6.5-11.2-6.5-3.1 0-5.9.3-6.1.7zm11.2 8c1.4 3 .2 4.9-3.4 5.5-1.7.3-2-.3-2.3-4-.3-3.9-.1-4.2 2.1-4.2 1.6 0 2.8.9 3.6 2.7zm336-6.7c-.8.5-2.4 2.7-3.4 4.9-1.5 3.5-1.6 4.5-.5 7.1 1.6 3.7 5.5 7 8.5 7 3.6 0 9-4.2 9-7 0-3.6-4.7-3.6-5.5 0-.7 3.1-3.5 3.7-6.1 1.4-2.4-2.2-2.4-5.6 0-7.8 1.4-1.3 2.8-1.5 6-1 4.6.7 5.1-.1 2.1-3.4-2.2-2.3-7.2-2.9-10.1-1.2zm378.7-2.7c-1.8 1.3-7.8 17.5-7 18.9 1.1 1.7 2.4.7 3.9-2.8 1.4-3.4 1.6-3.5 3.6-2 1.9 1.3 2.3 1.3 3.8-.1 1.4-1.5 1.6-1.3 2.8 1.5 1.4 3.5 2.9 4.7 3.8 3.2.9-1.5-4.3-17.3-6.2-18.8-2.1-1.5-2.5-1.5-4.7.1zm3.9 4.7c.3.6.4 1.9 0 3-.7 2.3-3.5 1.6-3.5-.9 0-2.9 2.2-4.2 3.5-2.1zm-1433.1-2.7c-.3.8-.4 5.4-.2 10.3l.3 8.9 4.2.3c8.2.6 14.9-4.9 11.3-9.4-1-1.1-1-1.8-.2-2.6 1.9-1.9 1.4-4.8-1-6.9-2.8-2.3-13.5-2.7-14.4-.6zm9.4 4.9c.3 1.4-.3 1.8-2.7 1.8-2.5 0-3.1-.4-3.1-2.1 0-1.6.5-2 2.7-1.7 1.7.2 2.9 1 3.1 2zm.3 5.9c1.1.5 1.7 1.4 1.4 2-.9 1.4-6.5 1.1-6.5-.4 0-2.8 1.9-3.4 5.1-1.6zm33.6 19.5c-1.3 1.3.5 2.4 3.9 2.4 1.9 0 3.4-.4 3.4-.9 0-1.7-5.9-2.9-7.3-1.5zm1349.3.3c-1.2.9-1.2 1.1.2 1.6 2.3.9 6.3.2 6.1-1-.3-1.4-4.5-1.7-6.3-.6zm-1341 .6c0 .3 1.2 1 2.7 1.6 3 1.1 7.7.4 6.8-1.1-.6-1-9.5-1.4-9.5-.5zm11.5.6c-.4.5-.4 2.1-.1 3.5l.6 2.4 3.5-2.7c1.8-1.5 3.1-3.1 2.9-3.5-.8-1.2-6.2-1-6.9.3zm9.9 0c-.8 1.3 1.3 2.9 3.8 2.9 2.3 0 3.4-2 1.7-3.1-1.9-1.2-4.7-1.1-5.5.2zm1299.3-.5c-1.3 1.3.5 2.4 3.8 2.4 3.7 0 5.4-1.4 2.9-2.4-2.1-.8-5.9-.8-6.7 0zm9.8.3c-.3.5-.1 1.2.3 1.5 1.3.8 8.2-.5 8.2-1.5 0-1.2-7.7-1.1-8.5 0zm-1299.3 1.3c.3.7 2.3 1.4 4.6 1.6 3.3.2 4.2 0 4.2-1.2s-1.1-1.6-4.6-1.6c-3.2 0-4.4.4-4.2 1.2zm11.8.4c0 1.6 6.9 2.9 8.3 1.5 1.2-1.2 0-1.7-5-2.4-2.2-.2-3.3.1-3.3.9zm1267.7-.9c-1.7 1.6-.4 2.4 3.5 2.1 5.5-.4 6.4-2.8 1.1-2.8-2.2 0-4.3.3-4.6.7zm-1256.5 1.5c.5 1.5 7.6 2.9 8.4 1.6 1.1-1.7-.8-2.8-4.7-2.8-2.8 0-3.9.4-3.7 1.2zm11.6-.7c-.4.4-.4 1.3-.1 2.1.8 2 9.3 1.9 9.3-.1 0-.9-.9-1.5-2.2-1.5-1.3 0-3.2-.3-4.3-.6-1.1-.3-2.3-.2-2.7.1zm1224.5.2c-2.9.6-2.9 1.9-.1 2.6 2.5.7 6.1-1 5.3-2.4-.6-.9-1.3-1-5.2-.2zm7.9.5c.6 1.6 3.2 2.2 6.4 1.4 4-1 2.7-2.6-2.2-2.6-3.2 0-4.4.4-4.2 1.2zm-1220.6.7c-.8 1.3 2.6 3.1 5.9 3.1 2 0 2.6-.4 2.3-1.8-.4-1.9-7.2-3-8.2-1.3zm1200.1-.2c-1.6 1.5-.5 2.3 3.3 2.3 2.9 0 4-.4 4-1.5 0-1-1-1.5-3.3-1.5-1.9 0-3.7.3-4 .7zm-1189.2 1.3c-.6 1 .6 1.8 3.5 2.1 3.3.3 5-.2 5-1.6 0-1.7-7.5-2.2-8.5-.5zm11.7-.3c-2.3.9.8 3.3 4.3 3.3s5.5-2.4 2.9-3.4c-1.8-.7-5.4-.7-7.2.1zm1155.6 0c-1.7.3-2.8 1.1-2.8 2 0 1.2.8 1.3 4.3.8 5-.9 5.9-1.3 5.2-2.6-.6-.9-1.7-.9-6.7-.2zm9.7.3c-.3.5 0 1.3.9 1.6 2.1.8 7.1.1 7.1-1.1 0-1.4-7.2-1.9-8-.5zm-1155 1c-.7 1.2.7 1.8 5 2.2 2.1.2 3-.1 3-1.2 0-1.8-6.9-2.7-8-1zm1131 0c-1 1.6.4 3 3 3 3.4 0 5.5-1 5.5-2.6 0-1.7-7.5-2-8.5-.4zm-1120.9.8c-.8 1.3 1.7 2.2 6.1 2.2 2.3 0 3.3-.4 3.1-1.3-.5-1.4-8.4-2.2-9.2-.9zm12 .1c-1.3 2 .5 3.1 4.9 3.1 4.1 0 6.6-1.2 4.7-2.4-2.1-1.2-9-1.8-9.6-.7zm1086.2-.2c-3.1.5-3.8 2.2-1 2.4 2.7.2 6.6-.2 7.6-.8.9-.6-1.4-2.3-2.9-2.1-.5 0-2.2.3-3.7.5zm9.9-.1c-1.7 1.8-.3 2.5 4.3 2.2 2.8-.2 5.1-.8 5.3-1.3.2-1.1-8.5-2-9.6-.9zm-1084.2 1.4c-.3.5-.3 1.4 0 2 .8 1.3 7.5 1.3 9.5 0 1.3-.9 1.3-1.1 0-2-2-1.3-8.7-1.3-9.5 0zm1052.5-.3c-4.5.7-5.4 1.3-4.2 2.5 1.5 1.5 8.2.1 8.2-1.7 0-.8-.3-1.4-.7-1.4-.5.1-1.9.4-3.3.6zm7.3.5c.2.8 2.1 1.3 4.7 1.3s4.5-.5 4.8-1.3c.2-.8-1.1-1.2-4.8-1.2-3.7 0-5 .4-4.7 1.2zm-1047.1 1c.3.7 2.1 1.4 4.1 1.6 2.8.2 3.7-.1 3.7-1.2 0-1.2-1.1-1.6-4.1-1.6-2.8 0-3.9.4-3.7 1.2zm11.3-.1c-1 1.5-.6 1.7 4.9 2 3 .3 5.1 0 5.3-.7.7-2.1-9-3.4-10.2-1.3zm13.2.5c-1.4 1.5.7 2.4 5.4 2.4 3.7 0 4.9-.4 4.9-1.5s-1.2-1.5-4.8-1.5c-2.7 0-5.2.3-5.5.6zm970.7.5c-1.1 1.9.9 2.6 6.4 2.1 3.6-.3 5.2-.8 5.2-1.8 0-1.7-10.5-2-11.6-.3zm14.6.5c0 1.2.6 1.5 2.3 1 1.2-.3 3.9-.6 6-.6 2 0 3.7-.5 3.7-1 0-.6-2.7-1-6-1-4.9 0-6 .3-6 1.6zm14-.6c0 .5 2 1 4.5 1s4.5-.5 4.5-1c0-.6-2-1-4.5-1s-4.5.4-4.5 1zm-986 1.5c0 1.2 1.3 1.5 5.6 1.5 4.9 0 5.5-.2 4.4-1.5-.8-.9-3-1.5-5.6-1.5-3.2 0-4.4.4-4.4 1.5zm13.5-.6c-1.2 2.1.6 3.1 5.5 3.1 4.7 0 7.1-1.2 5-2.5-2-1.2-9.8-1.6-10.5-.6zm917.9.2c-1.1 1.9 1 2.8 5.4 2.2 2.6-.3 4.2-1.1 4.2-1.9 0-1.7-8.5-2-9.6-.3zm12.6.5c0 1.2 1 1.4 4.7 1.2 6.6-.4 7-2.8.4-2.8-3.9 0-5.1.4-5.1 1.6zm-917 .8c0 1.8 7.7 3.3 9.2 1.8 1.8-1.8-.2-3.2-4.8-3.2-3.1 0-4.4.4-4.4 1.4zm12.5-.4c-1.2 2 .8 3 6 3 5 0 8.3-1.5 5.3-2.4-3.4-1.1-10.8-1.4-11.3-.6zm869-.1c-1.5 1.5.1 2.2 4.3 1.9 2.6-.2 4.6-.8 4.5-1.3-.3-1-7.9-1.6-8.8-.6zm11.7.3c.3.7 2.1 1.4 4.1 1.6 2.8.2 3.7-.1 3.7-1.2 0-1.2-1.1-1.6-4.1-1.6-2.8 0-3.9.4-3.7 1.2zm-866.5.4c-1.4 1.4.6 2.4 4.9 2.4 3.2 0 4.4-.4 4.4-1.5s-1.1-1.5-4.3-1.5c-2.4 0-4.7.3-5 .6zm12.8.4c-1.2 1.9.6 3 4.9 3 4.9 0 6.1-.7 4.5-2.7-1.3-1.5-8.5-1.8-9.4-.3zm795.8-.3c-2 .3-3.3 1-3.3 1.9 0 1.7 9.5 2 10.6.3.7-1.2-1.4-3-3.1-2.7-.5.1-2.5.3-4.2.5zm8.9 1c.3 1.5 1.3 1.8 5.3 1.5 5.3-.2 6-.5 5-2.1-.3-.6-2.9-1.1-5.6-1.1-4.3 0-5 .3-4.7 1.7zm13.8-.1c0 1.2.9 1.4 4.2 1.2 5.9-.4 6.3-2.8.4-2.8-3.5 0-4.6.4-4.6 1.6zm11.5-.6c-.4.6 1.3 1 4.5 1s4.9-.4 4.5-1c-.3-.6-2.4-1-4.5-1s-4.2.4-4.5 1zm-817.5 1.6c0 1.2 1 1.4 4.7 1.2 6.6-.4 7-2.8.4-2.8-3.9 0-5.1.4-5.1 1.6zm12.6-.8c-.8 1.4 1.8 2.2 7.1 2.2 3.1 0 4.3-.4 4.1-1.3-.5-1.4-10.4-2.2-11.2-.9zm14.1-.2c-1.6 1.7-.4 2.4 3.9 2.4 3.2 0 4.4-.4 4.2-1.3-.5-1.3-6.9-2.2-8.1-1.1zm12 .1c-1.6 1.5-.5 2.3 3.3 2.3 4.3 0 5.4-1.4 1.8-2.4-3-.8-4.3-.7-5.1.1zm709.4.7c-1.1 1.3-1.1 1.7.2 2.2 2.8 1 8.2 0 8.2-1.6 0-2.1-6.8-2.6-8.4-.6zm10.4-.4c-1.2 2 1.1 3.1 5.6 2.8 3.1-.2 4.4-.7 4.4-1.8 0-1.9-8.9-2.7-10-1zm11.9.1c-1 1.7 1.8 3 5.1 2.3 3.6-.8 3.9-1 3-2.3-.8-1.4-7.2-1.4-8.1 0zm-721.8.8c-.6 1 7.1 2.4 8.5 1.6.5-.4.9-1 .9-1.6 0-1.1-8.7-1.2-9.4 0zm12.4.6c0 1.3.9 1.6 4.8 1.3 2.6-.2 4.7-.8 4.7-1.3 0-.6-2.1-1.1-4.7-1.3-3.9-.3-4.8 0-4.8 1.3zm12.7-.9c-1.3 1.4.5 2.4 4.4 2.4 2.8 0 3.9-.4 3.7-1.3-.5-1.3-6.9-2.2-8.1-1.1zm616.1.2c-2.6.5-2.2 2.9.5 3.6 3 .7 6.7-.3 6.7-1.9 0-1.3-4.2-2.3-7.2-1.7zm10.9-.2c-.4.4-.7 1.4-.7 2.1 0 1 1.1 1.3 4.3 1.1 2.9-.2 4.2-.8 4.2-1.8 0-1.6-6.4-2.7-7.8-1.4zm10.7.5c-.8 1.4 1.4 2.9 4.2 2.9 2.3 0 4.8-2.3 3.7-3.3-1.1-1.1-7.1-.8-7.9.4zm10.8.6c.4 2 6.1 2.7 9.1 1.1 2.9-1.5.9-2.8-4.4-2.8-4.2 0-5 .3-4.7 1.7zm11.8-.2c0 1.2 1.3 1.5 5.5 1.5s5.5-.3 5.5-1.5-1.3-1.5-5.5-1.5-5.5.3-5.5 1.5zm-649 .5c0 .5 2 1 4.4 1 2.5 0 4.8-.5 5.1-1 .4-.6-1.3-1-4.4-1-2.8 0-5.1.4-5.1 1zm11.6-.1c-.8 1.2 3.2 2.4 6.3 1.9 1.2-.2 2.3-.8 2.4-1.3.3-1.3-7.9-1.9-8.7-.6zm11.6.3c.3.8 2.6 1.4 5.6 1.6 4.2.2 5.2 0 5.2-1.2 0-1.3-1.2-1.6-5.6-1.6-4 0-5.5.4-5.2 1.2zm13.8.1c0 1.6 5.6 2.9 9 2 3.7-1 1.5-2.8-3.8-3.1-4-.2-5.2 0-5.2 1.1zm13 .1c0 1.8 4.2 3.1 6.6 2.2 2.7-1 .9-3.1-2.9-3.4-2.8-.2-3.7.1-3.7 1.2zm11.7-.8c-2 2.1-.5 3.4 3.9 3.4 3.8 0 4.5-.3 4.2-1.8-.2-1.1-1.4-1.8-3.8-2-2-.2-3.9 0-4.3.4zm11.3 1.3c0 1.8.6 2.1 5.1 2.1 4.3 0 5-.3 4.7-1.8-.2-1.3-1.5-1.8-5.1-2-4.2-.3-4.7-.1-4.7 1.7zm13.8-1.1c-1 .2-1.5.9-1.1 1.8.3.9 2 1.4 4.8 1.4 4.1 0 6.5-1.3 5.1-2.8-.8-.7-6.2-1-8.8-.4zm15-.1c-2.5.3-3.8.9-3.8 1.9 0 1 1.4 1.4 5.5 1.4 4 0 5.5-.4 5.5-1.4 0-1.1-2.7-3.1-3.3-2.4-.1.1-1.9.3-3.9.5zm9.8 0c-.3.3-.6 1.2-.6 2 0 1.6 9.5 1.9 10.5.2.4-.6.5-1.2.4-1.3-.9-.7-9.7-1.5-10.3-.9zm457.2.4c-1.7 1.1-.1 3.9 2.1 3.9 2.7 0 7.1-1.8 7.1-2.9 0-1.1-7.7-1.9-9.2-1zm14-.4c-1.6.2-2.8 1.1-2.8 1.9 0 1 1.3 1.4 5 1.4 4.3 0 5-.3 5-2 0-2.1-1-2.2-7.2-1.3zm10.2 1.4c0 1.7.5 2 3.2 1.7 2.2-.2 3.4-.9 3.6-2.1.3-1.4-.4-1.7-3.2-1.7-3 0-3.6.4-3.6 2.1zm-469 .4c0 1.3 1 1.5 5 1.3 6.7-.4 6.9-2.2.3-2.6-4.3-.2-5.3 0-5.3 1.3zm13 0c0 1.2 1.3 1.5 5.5 1.5s5.5-.3 5.5-1.5-1.3-1.5-5.5-1.5-5.5.3-5.5 1.5zm12.7-.8c-1.3 2.1 1.2 3.4 5.9 3.1 3.6-.2 4.9-.7 4.9-1.8s-1.4-1.6-5.2-1.8c-2.8-.2-5.4.1-5.6.5zm83 .6c-.9.5-.6 1.2.8 2.3 2.7 2 9.9 1.5 10.3-.7.2-1.4-.7-1.8-4.8-2-2.9-.2-5.7-.1-6.3.4zm284.6-.6c-1.6.6-1.7 3-.2 3.5.5.2 2.8.2 5 0 3-.3 3.9-.8 3.9-2.3 0-1.5-.7-1.9-3.7-1.8-2.1 0-4.4.3-5 .6zm11.2.2c-1.2 2 .6 3.1 5.1 3.1 3.8 0 4.5-.3 4.2-1.8-.2-1.2-1.5-1.8-4.5-2-2.2-.2-4.4.2-4.8.7zm12 .1c-1.3 2.1.8 3 7.1 3 5.7 0 6.4-.2 6.4-2s-.7-2-6.4-2c-3.6 0-6.8.4-7.1 1zm16.7.7c.2 1.4 1.3 1.8 4.3 1.8s4.1-.4 4.3-1.8c.3-1.4-.4-1.7-4.3-1.7s-4.6.3-4.3 1.7zm-393.5-.1c-1.4 1.4.6 2.4 4.8 2.4 5 0 7.7-.8 6.9-2.1-.6-1-10.7-1.2-11.7-.3zm13.8.4c-.3.5 0 1.3.8 1.6 2.3.8 10.2 0 10.2-1.1 0-1.4-10.2-1.9-11-.5zm14 .1c-1.2 1.9.6 2.4 7.8 2.1 2.5-.2 3.7-.7 3.7-1.7 0-1.1-1.3-1.5-5.4-1.5-3 0-5.8.5-6.1 1.1zm13.5.4c0 1.2 1.3 1.5 6 1.5s6-.3 6-1.5-1.3-1.5-6-1.5-6 .3-6 1.5zm14.3-.3c.2.8 2.2 1.3 5.2 1.3s5-.5 5.3-1.3c.3-.9-1.2-1.2-5.3-1.2s-5.6.3-5.2 1.2zm26.7-.4c0 2 2.8 3.2 7.2 3.2 4.1 0 4.8-.3 4.8-2 0-1.8-.7-2-6-2-3.3 0-6 .4-6 .8zm15.7-.2c-2.1 2.1-.5 3.4 4.4 3.4 4.3 0 5-.3 4.7-1.8-.2-1.2-1.4-1.8-4.3-2-2.3-.2-4.4 0-4.8.4zm12.5.7c-1 1.1-.9 1.7.2 2.6 2 1.7 6.8.3 6.4-1.8-.4-2.1-5.1-2.6-6.6-.8zm9.7.3c-1.7 2.1-.4 2.8 4.3 2.7 4.3-.2 7.3-1.9 4.7-2.7-4.5-1.4-7.8-1.4-9 0zm151.8-1c-.4.4-.7 1.3-.7 2.1 0 .9 1.6 1.3 5.6 1.3 4.7 0 5.5-.3 5.2-1.7-.2-1.4-1.5-1.9-4.9-2.1-2.5-.1-4.8 0-5.2.4zm13.9.3c-1.3 2.1.5 3.1 5.4 3.1 4.6 0 7.1-1.2 5.1-2.4-2.1-1.3-9.9-1.8-10.5-.7zm14.1-.3c-.4.4-.7 1.4-.7 2.1 0 1.1 1.3 1.3 5.3 1.1 3.8-.2 5.2-.7 5.2-1.8s-1.3-1.6-4.5-1.8c-2.5-.2-4.9 0-5.3.4zm12.5 1.1c.3 1.5 1.4 1.8 5.8 1.8s5.5-.3 5.8-1.8c.3-1.5-.5-1.7-5.8-1.7s-6.1.2-5.8 1.7zm13.8-.3c0 1.7 3.7 2.7 7.5 2 3.5-.6 3.9-.9 3-2.3-1-1.7-10.5-1.4-10.5.3zm13.5-.5c-.7 1.2.3 1.8 4.5 2.5 3.8.7 6.7-.5 5.6-2.3-.9-1.3-9.2-1.5-10.1-.2zm-208 1.1c-.8 1.3.6 1.7 8 2.4 6.2.5 9.3-.3 8.1-2.3-.9-1.4-15.2-1.5-16.1-.1zm20 0c-1.3 2.1.8 3.2 5.2 2.7 4.9-.5 5.8-1 4.8-2.6-.8-1.4-9.2-1.4-10-.1zm13 0c-.8 1.2 1.4 2.2 5.7 2.4 2.3.1 3.3-.3 3.3-1.4 0-1.8-7.9-2.7-9-1zm12.5.4c0 2 8.5 3.3 10.5 1.6 2.4-2 .7-3-5.1-3-4 0-5.4.4-5.4 1.4zm14 0c0 2 4.2 3 7.5 1.9 4.2-1.4 3.3-2.8-2.2-3.1-4.2-.2-5.3 0-5.3 1.2zm12.7-.8c-1.4 1.5.7 2.4 5.4 2.4 3.7 0 4.9-.4 4.9-1.5s-1.2-1.5-4.8-1.5c-2.7 0-5.2.3-5.5.6zm11.9.3c-.9 1.3 1.9 2.1 7.5 2.1 3.7 0 4.9-.4 4.9-1.5 0-1.2-1.3-1.5-5.9-1.5-3.3 0-6.2.4-6.5.9zm15.1-.3c-1.4 1.4.6 2.4 4.9 2.4 3.2 0 4.4-.4 4.4-1.5s-1.1-1.5-4.3-1.5c-2.4 0-4.7.3-5 .6zm12.3.9c0 1.2 1.3 1.5 5.5 1.5s5.5-.3 5.5-1.5-1.3-1.5-5.5-1.5-5.5.3-5.5 1.5zm14 0c0 1.2 1.3 1.5 5.5 1.5s5.5-.3 5.5-1.5-1.3-1.5-5.5-1.5-5.5.3-5.5 1.5zm-130 17.9c0 11.2.5 11.8 8.7 11.4 5.1-.3 5.8-.6 6.1-2.6.3-2.3.1-2.4-5.3-2.6-2-.1-3.1-.7-3.3-1.9-.3-1.4.4-1.7 3.3-1.7s3.6-.3 3.3-1.8c-.3-1.3-1.2-1.6-4.1-1.5-3.1.2-3.7-.1-3.7-1.7 0-1.7.7-2 4-2 3.6 0 4-.3 4-2.5 0-2.4-.2-2.5-6.5-2.5h-6.5v9.4z"/>
</svg>
