<?xml version="1.0" encoding="utf-8"?>
<svg xmlns="http://www.w3.org/2000/svg" version="1.0" viewBox="0 0 468 384">
	<title>A man smokes a pipe and reads a book, his back against the rocks.</title>
	<path d="M384.5 2c-.3.5.3 1 1.4 1s2.3-.5 2.6-1c.3-.6-.3-1-1.4-1s-2.3.4-2.6 1M305.5 3c-.3.5-.1 1 .4 1 .6 0 1.1-.5 1.1-1 0-.6-.2-1-.4-1-.3 0-.8.4-1.1 1M270 3.7c0 .5 3.9.9 8.8 1 7.3.1 8 0 4.2-.7-5.8-1.1-13-1.2-13-.3M208.6 9.4c-.9 2-1.6 4.2-1.4 4.8s1.2-.5 2.2-2.6c.9-2 1.6-4.2 1.4-4.8s-1.2.5-2.2 2.6M294 12.1c-.6 2.3-.9 5.2-.6 6.4.4 1.4 0 2.8-.9 3.5-.8.7-1.2 1.7-.8 2.3 1.3 2.1 3.3-2.8 3.3-7.9 0-2.9.5-5.6 1-5.9 1.3-.8 1.3-2.5 0-2.5-.5 0-1.4 1.9-2 4.1M334.3 9.2c-2.4.5-4.3 1.3-4.3 1.9 0 .5-.6.9-1.4.9-1.6 0-8.2 7.1-9.8 10.6-.7 1.4-2 2.4-3.2 2.4-3.4 0-5.8 3.5-5.1 7.4l.7 3.3-5.1.7c-7.7 1-6.6 2.8 3.4 5.5 6.7 1.8 7.3 2.6 9 14 1.8 12.5 1.9 17.3.3 18.9-.8.8-.8 1.5.2 2.6 1.3 1.7.6 5.1-.9 4.2-.8-.5-12.8 1.8-13.6 2.6-.2.2-1.4 2.2-2.7 4.6-1.4 2.3-4.9 7-7.9 10.4-5.3 6-6.7 8.1-6.8 10.5-.1 2.1 1.6 1.5 2.2-.8.4-1.3 1-1.8 1.8-1.4.7.5 1 .3.7-.6-.3-.8 1.5-3.3 3.9-5.6 2.3-2.3 4.3-4.5 4.3-4.8 0-2 5.4-11.5 6.5-11.5.8 0 3.5-.7 6.1-1.6 2.5-.8 4.8-1.3 5.1-1 .8.7-1.7 7.6-2.8 7.6-.5 0-.9-.9-.9-2 0-1.5-.7-2-2.5-2-1.4 0-2.5.5-2.5 1 0 .6-.8 1-1.7.8-1.2-.2-1.9.5-2.1 2-.3 1.7.1 2.2 1.4 2 .9-.2 1.9.3 2.1.9.3.7 0 1.3-.6 1.3-1.8 0-1.2 3.9.7 4.7 4.1 1.9 6.5 1 8-3.2.8-2.2 1.7-4.7 2-5.5.3-1 .7-.4 1.2 1.5.3 1.6 1.1 2.9 1.8 2.8.7-.2 1.2.2 1.2.7 0 .6-.9 1-2 1s-2 .5-2 1.2c0 .6-1.8 3.4-3.9 6.2-2.2 2.8-5.1 7.3-6.5 10.1-3.4 6.4-4.6 8.3-7.3 11.8-3 3.7-2.9 1.7.2-5.8 1.4-3.3 2.5-6.6 2.5-7.3s1.8-3.1 4.1-5.3 3.8-4.3 3.4-4.7c-.3-.4-2.1 1-3.9 3-1.9 2.1-3.6 3.5-3.9 3.2-.2-.3-.1-2.2.4-4.2s.8-4.4.8-5.2c0-2.4-2.8 3.2-2.9 5.7 0 1.2-.4 2.5-1 2.8-1.2.8-1.2.8-.1-3.3.6-2 .6-3.2 0-3.2-.5 0-.9.6-.9 1.4 0 .7-.7 1.9-1.5 2.6-1.7 1.4-2.2 13.6-.6 12.5.5-.3.8-2.2.5-4.3-.2-2-.2-3.2.2-2.5.3.7 1.2.9 2 .6 2.2-.8 1.7 3.2-.8 7.2-1.3 1.9-2.6 3.5-2.9 3.5-.4 0-1-1.7-1.3-3.8-.4-2-1-4.6-1.3-5.6-.5-1.8-.6-1.8-1.9.5-1.9 3.4-1.7 5.1 1.1 10 1.6 2.8 2.5 5.9 2.4 8.4 0 2.2-.3 3.4-.6 2.7-.2-.6-.8-1-1.3-.7-.4.3-.8-.1-.7-.8.1-4.3-.4-7.7-1.3-7.7-.5 0-1 .6-1 1.4 0 .7-.6 1.9-1.3 2.5-1.4 1.1-1.4 5.4-.2 13.1.5 3.1.4 3.3-.6 1.2-1.8-3.4-3.1-2.6-2.5 1.5.4 2.1.2 5.1-.3 6.8l-.9 3-.1-3c-.1-3.1-2.1-7.4-2.1-4.6 0 1-.3 1.1-1.4.2s-1.5-.8-2 .5c-.5 1.2-1.4 1.4-3.8.9-1.8-.4-3.9-1.3-4.6-1.9-1.8-1.8 2.5-4.5 8.7-5.6 2.5-.4 3.5-.8 2.1-.9-2-.1-2.2-.3-1-1.2 1.1-.7.6-.8-1.9-.3-2.9.5-3.3.4-2.8-1.1.4-.9.7-2 .7-2.5s1.8-1.6 4-2.6c4-1.8 5.5-3.6 2.2-2.7-1.2.3-2.2-.4-3.1-2.1-1.2-2.1-1.1-2.8.8-5.4 2.5-3.5 2.7-4.6.6-3.8-2.3.9-1.8-.3 1.6-3.5 4-3.8 3.2-4.9-1-1.4-2.2 1.9-3.1 3.6-3.2 5.8-.1 6.3-1.8-.8-2.9-12-1.2-13.7-3-26.1-4.1-29.1-.8-2-1.5-2.2-7.1-2.2-4.6 0-7.1-.6-9.3-2-1.6-1.1-4.6-2-6.5-2-3.1-.1-3.3-.2-1.5-1.2 1.1-.6 2.2-1.4 2.5-1.7.8-.9 6.9-5.1 7.4-5.1.3 0 .6 1.9.8 4.2l.4 4.3.8-5.2c.5-2.9 1.5-5.8 2.2-6.4 1.6-1.3 1.7-.5 1.4 6.7-.1 2.3.4 4.5 1 4.9.7.5 1-1.9.9-8-.2-8.5-1.2-11.4-2.4-7.6-.3 1.1-1.5 2.3-2.6 2.6-1 .4-3.1 1.7-4.7 2.9-4 3.4-7.2 4.2-7.2 1.9 0-1.5-.2-1.5-1-.3-.5.9-.5 1.9 0 2.6 1 1.1-1.3 3.7-6.2 6.7-3.8 2.4-5 .5-3.9-6.2.9-5.7 2.1-7.1 6.1-7.1h2.4l-2.2 1.6c-2.8 2-5.8 7.4-4 7.4.9 0 .9.3 0 1.2-2.6 2.6-1 2.7 2.3.1 1.9-1.5 3.2-2.9 3-3.2-.3-.2-1.1.2-2 .9s-1.9 1-2.2.6c-.4-.4 1.4-2.8 4-5.4 4.2-4.2 4.7-4.4 4.7-2.4 0 2.5.5 2.2 4-2.2 1.4-1.7 1.3-1.8-.7-1.2-1.2.4-2.4.2-2.8-.4-.4-.7-1.1-.8-1.8-.2s-3.1.9-5.4.7c-3.5-.2-4.2.1-4.7 1.9-.4 1.5-.8 1.7-1.4.8-.5-.7-1.3 1.2-2.1 5.3-.7 3.6-1.6 6.5-2 6.5-1.1 0-3.3 4.2-3.7 7.3-.3 2.8 4.6 19.7 6.5 22.1 1.8 2.4 1.8 6.3-.1 7.5-2.3 1.5-2.3 3.2.2 6.1 1.1 1.3 2 2.9 2 3.6s.7 1.7 1.6 2.2c1.4.8 1.4 1.3-.5 5.2-1.2 2.4-2.1 5.2-2.1 6.2 0 3.1 2.8 7.5 6.2 9.9 1.8 1.2 3.5 2.4 3.7 2.6.2.1-.2 1-.9 1.8-2.1 2.5-4.9 11.8-4.4 14.1.3 1.1 1.5 2.7 2.6 3.5s4.1 3.1 6.7 5.2c2.5 2 5.1 3.7 5.7 3.7s1.7.7 2.4 1.6c1.2 1.3.8 1.4-3.7.8-3.7-.4-5.8-.2-8.2 1-2.6 1.4-3.9 1.5-7.1.6-3.4-.9-4.5-.8-7 .6-2.4 1.5-3.3 1.6-5.6.6-1.4-.7-3.5-1-4.6-.6-1.2.4-3.4-.4-6.1-2.2-4.3-2.9-4.5-3-19.2-2.4-2.1 0-4.5.6-5.2 1.2-.8.6-3 .8-5.7.4-3.9-.6-4.6-.4-6.7 2.1-1.3 1.6-4.1 4.1-6.2 5.7-4.4 3.4-9.1 12.8-10.1 20.2-.5 3.5-.1 7.2 1.4 12.8 1.1 4.4 2 8.5 2 9.2 0 2.7 6.3 10.4 8.5 10.4 1.2 0 3 .9 4 2s2.9 2 4.2 2 3.7 1 5.3 2.1c2 1.5 3.6 2 5.4 1.5 1.4-.3 3.7-.9 4.9-1.2 1.7-.4 4 .4 7.7 2.7l5.2 3.2-2.3 1.8c-1.3 1-3.3 1.9-4.5 1.9-1.1 0-3 1.1-4.2 2.5s-2.8 2.5-3.5 2.5c-1.4 0-4 4.3-4.1 6.9-.2 3.3-11.3 9.2-29.6 15.7-10.2 3.7-23.4 8.6-29.5 11-6 2.4-14.8 5-19.5 5.9s-9.2 2-10 2.4c-2.8 1.5-14.2.2-19.5-2.3-2.7-1.3-6.1-2.7-7.5-3.1-3-.9-6.8-3.5-13.5-9.1-3.3-2.8-6.4-4.4-9.2-4.9-3.9-.6-4.3-.5-5.8 2.5-1.7 3.3-1.8 15-.1 15 .4 0 .5.7.2 1.5-.3.9.1 1.8.9 2.1 1 .4 1.3 1.4.8 3.2q-.6 2.55.6 1.8c.7-.4 1.1 0 1.1 1.1 0 2.8 2.3 7.3 3.7 7.3.7 0 1 .7.7 1.5-.4.8.1 1.7 1 2.1.9.3 1.6 1.1 1.6 1.6 0 1.4 4 4.7 7.7 6.3 4.2 1.9 7.3 6.5 7.3 10.8 0 2 .3 3.8.8 4.1.4.2 3.7 0 7.2-.5 3.6-.5 8.7-1.2 11.4-1.4 2.7-.3 5.7-1.2 6.6-2 1.4-1.2 2.6-1.3 7.4-.4 3.1.5 6.7.8 7.9.6 1.3-.3.6-.5-1.5-.6-3.9-.1-5-1.4-2.2-2.5.9-.3 4.8-.6 8.8-.6 5.8 0 7.5-.4 8.8-1.9 1.4-1.7 2.7-1.8 9.8-1.5 5.3.3 8 .1 7.6-.5-1.1-1.7 15.5-1.9 18.2-.2 2 1.2 3.4 1.2 9.3.1 3.8-.7 7.3-1.8 7.6-2.3.4-.6-.5-.7-2.2-.3-5.8 1.5-11.6 2.4-10.8 1.7 1.4-1.3 8.9-3.1 12.6-3.1 2.6 0 3.5-.4 3.1-1.3-.4-1 .5-1.3 3.1-1.3 4.3.2 4.7 1.8.6 2.9-4.3 1.1-3.8 1.7 1.3 1.7 4 0 4.4-.2 3.8-2.2-.3-1.3-.1-1.9.6-1.5.5.4 1.2.2 1.4-.4.3-.9 1-.8 2.8.1 1.4.7 2.7 1.6 3 2 .9 1.3 5.3 2.3 4.6 1.1-.4-.6-1.4-1.1-2.2-1.1s-1.4-.5-1.4-1.1.7-.9 1.5-.5c2.8 1 1.5-1.5-1.4-2.7-2.4-1-.9-1.2 9.8-1.2 14.4 0 20.1-1.7 28.5-8.2 2.5-2 5-3.3 5.3-2.9.4.4.3 1-.2 1.4-.6.4-1.5 1.6-2.2 2.8-1.1 2-1 2 3 1 2.2-.6 3.3-1.2 2.4-1.4-2.9-.6-1.8-2.1 1.4-2 1.7.1 3.5-.5 4-1.3.7-1.1.9-1.1.9.2 0 .9-.7 2-1.6 2.3-.9.4-1.4.9-1.1 1.3.4.3 1.7-.1 2.9-.9 2.3-1.5 6.7-2.9 10.2-3.3 1.1-.1 2.2-.7 2.4-1.4.5-1.6 4.3-5.1 5.6-5.1.5 0-.1 1.1-1.4 2.5s-2 2.8-1.6 3.2c.4.5 1.6-.2 2.6-1.5 2.2-2.6 3.6-2.8 4.4-.5.5 1.2.9 1.4 1.8.5 1.5-1.5 4.8-1.6 4.8-.1 0 .6.9.8 2 .4 1.1-.3 2.7-.2 3.7.3 1.3.8 2.1.6 3.1-.6 1.2-1.5 1.3-1.5.9.6-.5 1.9-.3 2.1.9 1.1 1.5-1.2 2-4.4.6-3.5-.4.2-1.4.1-2.2-.4-1.1-.7-1-1.1.4-2.5 1.1-1.1 1.5-2.8 1.3-4.8s0-1.6.6 1c.6 2.5 1.6 4.3 2.4 4.3 1 0 1.2.9.7 3.5-.7 3.8.1 4.3 3.2 2 1-.8 3.3-1.5 4.9-1.5 5.1-.1 7.1-2.7 6.7-8.4-.3-3.3 0-5.1.9-5.7 1-.6 1-1.3.2-3.2-1.3-2.9-.6-4.2 1.4-2.6 1.6 1.4 1.8-.2.2-1.8-1.9-1.9-.3-4.5 2.3-3.7 2.1.6 2.1.5.9-1-.8-.9-2.1-1.4-2.9-1.1-1.2.4-1.3.3-.2-1s.9-1.9-.6-3.7l-1.9-2.2 2.8 1.7c3.4 2.2 3.5 1.1 0-2.5-1.4-1.5-2.3-3.1-2-3.5.4-.3 2.3 1.2 4.3 3.5 1.9 2.3 3.8 4.1 4.2 4s2.7.8 5.2 2c4.3 2.2 4 1.6-1.6-2.4-5-3.7-7.8-6.3-7.3-6.9.3-.3 1.8.4 3.3 1.6 4 3.2 4.1 1.7.1-2.3-4.4-4.4-4-6.9 1.1-6.1 3.3.6 3.4.5 2.8-2.4-.4-2.2-.2-3.2 1-3.6 1.2-.5 1.6 0 1.6 2.3 0 1.7.4 3 .8 3s.6-1.5.4-3.3c-.3-3 0-3.5 2.5-4.5 1.5-.5 4.4-1.3 6.3-1.6 6.2-1 12.4-3.1 16-5.2 3.4-2.1 13.6-3.8 14.5-2.4.2.3-.3 1.9-1.1 3.4-.7 1.6-1.4 3-1.4 3.2 0 .9 3.9.3 4.5-.6.4-.6 2.1-.8 4-.4 1.9.3 3.5.1 3.9-.5s1.8-1.1 3.2-1.1c1.9 0 2.4-.5 2.4-2.5 0-1.4.5-2.5 1-2.5 1.9 0 2.2 2.9.7 6-2.2 4.2-.3 4.7 2.2.5 2.1-3.6 4.1-4.6 4.1-2 0 2 .9 1.9 2.8-.5 1.4-1.6 3.3-2 11-2.3 5.1-.3 9.6-.7 9.9-1.1.3-.3-.3-.6-1.4-.6s-3.5-.3-5.3-.7c-2.4-.4-3.1-.3-2.6.5.4.7.2 1.2-.3 1.2-1.8 0-1.2-1.9.9-3 1.4-.7 2.6-.8 3.9 0 2.6 1.3 8.2 1.4 6.1 0-.8-.5-2.7-1-4.2-1s-3-.5-3.3-1c-.9-1.5 2.8-1.2 8.1.6 2.5.8 4.8 1.3 5.1 1 .9-.9-10.8-3.8-13.8-3.4-2.1.3-2.9 0-2.9-1 0-1.2-.3-1.2-1.5-.2-.8.7-1.5 1.9-1.5 2.6 0 .8-.4 1.4-1 1.4-1.3 0-1.3-.6 0-3 .7-1.3.7-2.1 0-2.5-.5-.3-1-1.6-1-2.8 0-2 0-2-1.5-.1-.8 1-1.4 1.4-1.5.9 0-1.6 1.3-3.1 3.5-3.9 1.2-.5 1.5-1 .8-1.3-.7-.2-2.1.1-3.3.7-1.1.6-2.5.8-3 .5-.6-.3-1 0-1 .8s-.7 1.7-1.5 2.1c-1.8.6-1.8.4-.4-2.6.6-1.3 2-2.8 3.2-3.3 1.3-.6 2.5-2.3 2.8-4 .4-1.7.7-2.4.8-1.8 0 .7.5 1.3 1.1 1.3.5 0 .9-1 .7-2.2-.1-1.7.4-2.4 2.1-2.6 1.2-.2 2.2-1 2.2-1.8 0-1.1 1.5-1.4 6.1-1.4 3.7 0 5.8-.4 5.4-1-.3-.6.1-1 .9-1 .9 0 1.6.7 1.6 1.5s.5 1.5 1.1 1.5c.5 0 .8-.4.4-.9-.3-.5.2-1.7 1.1-2.6 1.5-1.4 1.4-1.7-.6-3.5-2.8-2.4-3.1-2.5-2.4-.5.8 1.9-1 1.9-2.6 0-.7-.8-2.2-1.5-3.3-1.5-2 0-2 0-.1-1.5 1-.8 3.7-1.5 5.8-1.5 4.8 0 4.3-.9-.9-1.5-5.1-.7-5.5-1.1-4.4-4.3.5-1.5.8-3.8.7-5-.3-1.9.5-2.6 5.2-4.2 3-1.1 7.1-2 9-2 5.3-.2 1.1-1.7-7.2-2.5-6.5-.7-6.8-.9-6.8-3.4 0-1.4.9-4 2-5.6 1.1-1.7 2-4.3 2-5.9 0-2.1.4-2.7 1.5-2.3.8.4 1.7.2 2.1-.4.3-.5 1.5-.7 2.7-.4 2.1.6 2.1.6.3-.9-1.2-1-2.3-1.2-3.1-.6-.6.5-1.6.5-2.3.1-1.6-1 1.3-7.1 3.4-7.1.9 0 1.4-1 1.3-2.8 0-1.5-.3-2.1-.6-1.5-.5 1.4-3.3 1.8-3.3.5 0-1.5 3.8-8.8 5.2-9.9.7-.6 2.9-1.4 4.8-1.6q3.3-.45-1.8-.3c-4.4.1-5.2-.2-5.2-1.7 0-1-.4-1.5-1-1.2-.5.3-1 1.9-1 3.5 0 2.7-1.5 4.8-2.6 3.7-.8-.8-.7-15.7 0-16.5.4-.4 3.5-.6 6.9-.4 3.4.1 7.6-.2 9.2-.7 2.9-1 2.8-1-1.5-.9-7.2.1-9.2-.1-8.5-1.2.9-1.4-2.9-1.2-4.3.2-1 1-1.1.2-.6-3.3 1-7.5-1.6-14.4-8.1-21.2-5.9-6.3-6.7-7.8-3.5-7 3.4.9 2.2-.5-2.2-2.7-5-2.4-4.8-2.4-4.9-.3 0 1.2-.2 1.3-.6.5-.3-.7 0-1.9.6-2.6.9-1 .8-1.5-.5-2-.9-.3-2-.3-2.6 0-.5.4-2.1.1-3.4-.7-1.7-.9-2.1-1.5-1.2-2 .9-.6.7-1-.7-1.5-1.1-.4-2.5-1.4-3.1-2.3-.6-.8-1.8-1.2-2.6-.8-2 .7-1.3-2.6 1.2-6.3.9-1.4 1.5-3.1 1.3-3.8-.7-2 2.5-1.4 3.7.7 1.4 2.6 1.3 3.1-.5 2.5-.8-.4-1.5-.2-1.5.4 0 1.5 2.2 3 5.5 3.7 3 .6 3 .6.6-.7-2-1.1-2.5-2.1-2.5-5.8-.1-2.5-.4-5-.8-5.6-1.3-1.9.2-2.3 3.2-.8 2.1 1.1 3.9 1.2 6.9.5 3.3-.7 4.5-.6 5.6.6 1.8 1.7 1.9 2.8.4 5.5-1 1.9-.9 2 1.2 1.5 1.3-.4 2.7-.7 3.1-.7s.5-1.2.3-2.8c-.2-1.5-.4-3-.4-3.4-.1-.3-1.6-1.5-3.4-2.5-3.3-2-9.1-2.4-11.4-1-.8.5-1.3.4-1.3-.2s-1.2-1.1-2.6-1.1-2.3-.3-2-.8c.2-.4-.2-1.5-.9-2.5-.9-1.2-1.5-1.4-2-.7-.4.6-.1 1.8.6 2.6 2 2.4-.4 4-3.8 2.5-2.2-1-2.9-1-3.8.2-.5.7-2 1.6-3.3 1.9-1.9.5-2.1.4-1.1-.8.6-.8 1.8-1.4 2.6-1.4.9 0 1.3-.6.9-1.5-.3-.9 0-1.5.9-1.5 1.1 0 1.1-.5-.2-3-.9-1.9-1.2-4.1-.8-5.8.6-2.6.6-2.6-1.4-.7-1.6 1.4-1.8 2.1-.9 2.6.9.6.8 1.3-.6 2.8-1.1 1.2-1.6 2.9-1.3 4 .5 2.2-1.8 3.7-2.7 1.8-.4-.7-.4 0-.1 1.4.3 1.9 0 2.9-1.3 3.4-1.5.6-1.4.8.8 2 1.4.8 3.3 1.4 4.2 1.5 2.5 0 3.3 2.1 1 2.7-1.4.3-1.9 1-1.4 2.1.5 1.5.4 1.5-1.2.3-1.3-1.1-1.4-1.6-.4-2.2 2.2-1.4-.4-2.8-5.5-3.1-4.2-.3-4.7-.5-4.7-2.7 0-1.3 1-4 2.2-5.9 2.1-3.4 2.1-3.5.2-2.9-1.6.6-1.6.4.4-1.2 1.5-1.4 2.2-3 2.2-5.8 0-4.2 1.6-6.5 7.1-10.5 2-1.5 3.6-3.4 3.6-4.3 0-1.5-.9-1.6-6.6-1-4 .4-7.1 1.2-7.8 2.1-.7 1-1.3 1.2-1.8.5-.3-.6-.1-1.1.5-1.1s.9-.4.6-.8c-.7-1.2 11.9-3.5 14.9-2.8 1.4.4 2.5.2 2.5-.4 0-.5-.7-1-1.6-1-3.2 0-13-6.4-17.7-11.7-2.7-2.9-5.7-5.8-6.7-6.3-2.5-1.3-21.6-1.9-26.7-.8m25.1 2.4c.9.3 1.6 1.4 1.6 2.3 0 2.5 2.9 6.2 4.7 5.9 2.6-.5 2.4 1.6-.3 3.5-2 1.5-3 1.7-5.5.8-3-1-5.3-.7-7.7 1.2-2.3 1.8-8.6 1.7-12.3-.2-3.3-1.8-3.9-1.8-6.5-.4-1.6.8-4.9 1.6-7.4 1.6-4 .2-4.5 0-4.2-1.8.6-3.5 2.6-6.9 4.7-8 1.2-.5 3.2-2 4.5-3.3 2.2-2 3.3-2.2 14.6-2.2 6.7 0 12.9.3 13.8.6m13.3 12.2c2 1.3 2 4.6-.1 5-1.4.3-1.7 0-1.3-1.1.3-.9-.1-1.8-.9-2.1s-1.4-1-1.4-1.6c0-1.2 2-1.3 3.7-.2m-34.3 3.8c.4.9.5 1.7.4 1.8-.2.1-1.6.8-3.3 1.7-2.3 1.3-3.4 1.4-4.8.5-1.3-.8-2-.8-2.6.3-.9 1.4-5.1.7-5.1-.9 0-.4-.7-1.1-1.5-1.4-1.1-.4-1.5 0-1.3 1.2s-.4 1.8-2.2 1.9-2 0-.6-.4c1.8-.5 1.8-.6-.5-2.3-3.6-2.8-1.4-3.7 4.1-1.7 4 1.4 5.3 1.5 6.9.5 1.5-.9 2.5-.9 4.5 0 2.5 1.1 3.1.7 2.7-2.1-.2-1.4 2.7-.7 3.3.9m20.3-1c-.3.3-1.2.4-1.9.1-.8-.3-.5-.6.6-.6 1.1-.1 1.7.2 1.3.5m-15.1 4.3c-.8 1.3-3.6 1.5-3.6.3 0-.4.5-1.3 1.2-2 1.4-1.4 3.4 0 2.4 1.7m6.2-.4c-.2 1.8-.8 2.5-2.4 2.5-2 0-2.1-.2-1.1-2.5 1.5-3.2 3.7-3.2 3.5 0m5.2 1.7c0 .6-.6.5-1.5-.2-.8-.7-1.5-1.4-1.5-1.6s.7-.1 1.5.2c.8.4 1.5 1.1 1.5 1.6m5.7-1.6c-.3.3-1.2.4-1.9.1-.8-.3-.5-.6.6-.6 1.1-.1 1.7.2 1.3.5m6.2 1.8c-.2.2-4.4 1.1-9.3 2.1-6.4 1.2-9.1 1.4-9.9.6s0-1.1 2.9-1.2c2.1 0 5.7-.4 7.9-.8 4.3-.9 9.1-1.3 8.4-.7m-23.4 3.4c-.3.3-2.8.6-5.6.7-3.9.1-4.8-.1-3.6-1 1.5-1.1 10.3-.8 9.2.3M314.6 38c-4.3 2.2-6 2.6-3.6.9 1.1-.8.5-.9-2.5-.4-2.2.4-3.7.4-3.3 0 1-1 6.7-2.3 10.3-2.4 3 0 3 0-.9 1.9m16.4-1c1.1.7.1 1-3.5 1-2.9 0-6.6.8-8.7 1.8-2.6 1.4-3.5 1.5-3.1.5.3-.7 1.1-1.3 1.9-1.3s1.4-.7 1.4-1.5c0-1.1 1.2-1.5 5.3-1.5 2.8 0 5.9.5 6.7 1m36 0c0 .5-.4 1-.9 1-.6 0-1.3-.5-1.6-1-.3-.6.1-1 .9-1 .9 0 1.6.4 1.6 1m-25.2 4.2c1 .9 1.6.8 2.1-.1.6-1 1-.8 1.5.5 1.1 2.8-.8 3.8-4.7 2.5s-9.2-.7-12 1.4c-1.6 1.1-1.7 1.7-.7 3.5.7 1.4.8 2.5.3 2.9-.6.3-1.3 2.1-1.6 3.9l-.7 3.4 3.7-3.7c2.8-2.8 4.3-3.6 6.2-3.2 1.4.3 3.6 0 5-.5 2.5-1.1 2.5-1.1-1.9-2.3-2.5-.7-3.9-1.3-3.2-1.4.6-.1 1.2-.9 1.2-1.9 0-1.3.2-1.4.9-.3.5.7 1.3 1.1 1.9.7.6-.3 1.5.1 2 1.1.8 1.4 1.3 1.5 2.6.4s2.1-.7 5.1 2.3c4.1 4.2 4.8 6.2.7 2.3-3.5-3.4-4.4-3.4-3.6-.2.5 2 .3 2.4-1 1.9-2.6-1-4.2 1.8-4.2 7.1-.1 8.5-.6 15.1-1.1 13.3-.2-.9-1.3-2-2.4-2.3-1-.4-1.9-1.1-1.9-1.6 0-1.2-8.3-.7-9.2.6-.5.6-1.2.5-1.9-.2-1.7-1.7-1-2.2 4-2.7 4.8-.4 6.7-1.7 5.7-4.1-.5-1.5-.9-1.5-2.2-.4-1.2 1-2 1-3.5.1-1.6-1-1.9-.9-1.9.3 0 .8-.4 1.5-1 1.5-.5 0-1-.4-1-.9s-.8-1.1-1.8-1.3c-1.2-.3-2.2-2.1-2.9-5.1-1.1-5.2-.9-5.7 2.3-5.7 4.6 0 3-7.5-1.9-8.2-1.2-.2-2.2-1-2.2-1.8 0-3.3 19.7-4.8 23.3-1.8m19.7.9c1.1 1.7-.1 2.1-1.5.4-.8-.9-.8-1.5-.2-1.5s1.4.5 1.7 1.1M372 42c0 .5-.4 1-1 1-.5 0-1-.5-1-1 0-.6.5-1 1-1 .6 0 1 .4 1 1m-19.5 2.1c1.1 1.7-.1 2.1-1.5.4-.8-.9-.8-1.5-.2-1.5s1.4.5 1.7 1.1m16.3.7c.2.7-.2 1-1.2.6-.9-.3-1.6-1.1-1.6-1.6 0-1.3 2.3-.5 2.8 1m-3.8 4.3c0 1.6.5 2.9 1 2.9.6 0 1-.6 1-1.4s.6-1.6 1.4-1.9c2.1-.8.9 2.2-2.4 6.3-3.2 3.9-4.4 3.6-4.1-1.2.1-1.8.2-4 .2-4.8.1-4.9 2.9-4.9 2.9.1M351 47c0 .5-.7 1-1.5 1s-1.5-.5-1.5-1c0-.6.7-1 1.5-1s1.5.4 1.5 1m-28 2c0 .5-.7 1-1.6 1-.8 0-1.2-.5-.9-1 .3-.6 1-1 1.6-1 .5 0 .9.4.9 1m37.7-.4c-.3.3-1.2.4-1.9.1-.8-.3-.5-.6.6-.6 1.1-.1 1.7.2 1.3.5m-3.7 4c0 .2-.7.4-1.5.4s-1.5-.4-1.5-1c0-.5.7-.7 1.5-.4.8.4 1.5.8 1.5 1m2 5.6c0 1.9-.2 2-1 .8-1.3-1.9-1.3-3 0-3 .6 0 1 1 1 2.2m-10.5.8c.3.5.2 1-.4 1-.5 0-1.3-.5-1.6-1-.3-.6-.2-1 .4-1 .5 0 1.3.4 1.6 1m15.1 3.7c0 1.1.6 1.8 1.6 1.7 1.4-.1 1.5.2.6 2.2-1.3 2.7-2.8 3.2-2.8.9 0-.8-.4-1.5-1-1.5-.5 0-1 .5-1 1.1 0 .5-.5.7-1 .4-1.4-.9-.8-3.7 1-5.2 2.1-1.7 2.8-1.6 2.6.4m27.2-.5c-.7 1.9-3.5 2.1-4.1.3-.5-1.1 0-1.5 1.9-1.5 1.6 0 2.4.5 2.2 1.2M353 64.8c0 1.2-.3 1.2-1.7.1-1-.7-2-1.4-2.2-1.6-.2-.1.6-.1 1.8 0 1.1.1 2.1.8 2.1 1.5m41.7-1.2c-.3.3-1.2.4-1.9.1-.8-.3-.5-.6.6-.6 1.1-.1 1.7.2 1.3.5M386 65c0 .5.7 1 1.5 1s1.5.4 1.5.9-1.3.4-3-.2c-3.2-1.2-4-2.7-1.5-2.7.8 0 1.5.4 1.5 1m-35.3 2.6c-.3.3-1.2.4-1.9.1-.8-.3-.5-.6.6-.6 1.1-.1 1.7.2 1.3.5m-5.2 1.4c-.3.5-1 1-1.6 1-.5 0-.9-.5-.9-1 0-.6.7-1 1.6-1 .8 0 1.2.4.9 1m14.5 1.5c2 2.4.6 2.8-1.5.5-1-1.1-1.3-2-.8-2 .6 0 1.6.7 2.3 1.5m25.6 1c-2 2-2 2.6-.1 1.9 1.1-.5 1.3-.2.9 1-.8 2-2.8 1.6-3.2-.6-.3-1.6 2.7-5.3 3.5-4.4.3.3-.2 1.2-1.1 2.1m-17.1.5c-1 1.1-1.5 2.8-1.2 3.9.5 2.2-.8 4.9-2 3.8-.4-.5-.1-1.2.7-1.7 1.1-.7 1.1-1 .2-1-.7 0-1.7 1.2-2.3 2.7-.6 1.6-1.8 3.7-2.7 4.7-1.6 1.8-1.6 1.9.1 1.3.9-.4 1.7-.2 1.7.3 0 .6-.4 1-.9 1s-1.2.8-1.5 1.7c-.4 1-2.1 2.5-3.9 3.3-1.9.9-3.1 2.1-2.9 3.1.1.9-2.7 4.7-6.3 8.5-4.6 5-6.6 7.9-7 10.4-.3 1.9-1 5.5-1.4 8-.5 2.5-1.5 9.1-2.2 14.7-1 8.3-1 10.9 0 14.5.8 2.3 1.7 6.8 2.1 9.8s.9 6.2 1.1 7c.3 1.2-.4 1.4-3.4 1.2-2-.2-4.5.1-5.4.7-1.3.7-2.9-.1-7.1-3.5-2.9-2.4-7.8-5.8-10.8-7.6-5.8-3.5-6.9-5.8-2.9-5.8 2.9 0 3.1-1.3 1-5.3-1.7-3.3-1-8.6 1.3-10.4.9-.7 1.2-1.6.8-2s-1.1-.1-1.6.7-1.2 1.2-1.5.8c-.4-.4.5-2.4 1.9-4.5 1.4-2 2.6-4.1 2.6-4.5s1.3-2.6 2.9-5c1.5-2.4 3.3-5.8 4-7.7.6-1.9 2.3-5 3.7-6.8 2.1-2.8 2.5-4.1 2-7.1-.3-2.2-.2-2.9.2-1.8.8 1.8 1 1.7 3-.9 1.2-1.5 2.2-3.2 2.2-3.6 0-.5 1.1-.9 2.4-.9 1.9 0 2.3.4 1.9 2-.6 2.2 1.2 2.7 2.4.7 1.2-1.9 4.1-2.8 4.7-1.4.3.8 1 .5 2.1-.8.8-1.1 2.9-3.5 4.5-5.3 1.7-1.8 4.2-5.1 5.6-7.2 1.5-2.2 3.5-4.2 4.5-4.5 1.1-.4 2.4-1.6 3-2.8 1.7-3.1 3.2-4.6 4.8-4.7 1.1 0 1 .5-.4 2m-19.2-.3c-.7.2-1.9.2-2.5 0-.7-.3-.2-.5 1.2-.5s1.9.2 1.3.5m26.8 2.6c0 1.2.3 1.6.6.9 1.1-2.9 1.9-.8 1.7 4.8-.2 5.5.7 7.8 1.9 4.7.3-.6.6-.2.6 1 .1 1.6-.4 2.1-1.9 2-1.3-.1-2-.9-2.1-2.2s-.4-.9-1 1.2c-.5 1.8-1.4 3.5-1.9 3.8-.6.3-1 1.3-1 2.2 0 1.2.3 1.3 1.4.4s1.5-.8 2.1.6c.6 1.5.9 1.3 2-1.2l1.2-3 .6 2.5c.3 1.4.8 4.2 1.1 6.2.4 3.4.2 3.9-2 4.4-1.3.3-3 .4-3.8.1-.7-.3-2.4.2-3.7 1.1-1.8 1.2-2.4 1.3-2.7.3-.4-1.1-.6-1.1-1.2 0-1.3 2 1.9 3.9 4.9 2.8 3.5-1.4 4.8-.5 4.9 3 .1 3.2-2.8 6.1-7.5 7.5-2.8.9-6.1 5.4-6.9 9.5-.4 1.6-1.2 3.2-1.9 3.5-1 .3-1-.2-.3-2.7.6-1.8 1.5-4 2-5 .7-1.5.5-2-1.2-2.4-2.3-.6-2.2-2.1.2-8l1.1-2.8.7 3c.8 3.2 1 2.6 1.5-4.7.4-5.5 1.2-7.1 3.1-6.4 1.6.6 1.9-1 .4-1.9-.6-.4-.6-1.5 0-3.1.6-1.4 1-3.2 1-4.1 0-2.9-2.9.7-4.1 5-.6 2.3-3.1 9-5.5 14.9-2.4 6-4.4 11.7-4.4 12.7s-1.1 5.3-2.4 9.5c-3.3 10.3-4.1 17.6-2.6 23 .6 2.4 1 5.2.8 6.2-.3 1.2-.9.2-1.5-2.6-.9-3.8-1.1-4-1.2-1.5-.1 3.7.9 7.6 1.8 7.1.4-.3 1.2.4 1.9 1.5 1 1.6.9 1.9-.7 1.9-1.4 0-2.4-1.3-3.6-5-2-6.1-2.8-6.4-1.9-.8l.7 4.1-2.3-2.3c-4.4-4.4-6.2-12.2-6.2-26.7.1-15.1.6-16.3 7.3-19.8 4.4-2.2 6.9-4.9 5.6-6.1-.4-.4-1.6.2-2.7 1.4-4.1 4.4-5.6 1.4-1.7-3.5 1.2-1.5 2.9-3.7 3.7-4.8l1.5-2-2.5 2c-4.6 3.7-7.7 8.9-5.9 10 1.3.8.2 2.5-1.7 2.5-3.8 0 0-7.8 6.9-14.3 4.7-4.3 7.7-6.1 6.2-3.7-.3.5-.1 1 .5 1 .7 0 .9-.8.5-1.9-.5-1.5.1-2.4 2.4-3.6 1.8-.9 2.8-2.1 2.5-2.8-.3-.8.4-2.5 1.5-3.8 1.9-2.2 2-2.3 2-.4 0 1.1-.6 3.1-1.4 4.5s-1.4 3.2-1.4 4 .9-.3 2.1-2.5c2.5-4.9 4.8-7.6 5.9-6.9 1.5.9 2.9-3.3 3.5-10.5.4-3.9 1.1-6.8 1.5-6.5.5.3.9 1.5 1 2.7M344 74c-1.1.7-1.1 1.1-.1 2.4 1.1 1.3 1.1 1.6-.3 1.6-1.9 0-2.2-4.6-.3-5.3 1.8-.6 2.4.3.7 1.3m-90.6.6c2.1.8 2 3.4-.4 6.2l-1.9 2.4-5.3-2c-3.7-1.4-5.4-2.6-5.6-4-.2-1.3.3-2.2 1.5-2.5 2.8-.7 9.9-.8 11.7-.1m105.1.4c.3.5.1 1-.4 1-.6 0-1.1-.5-1.1-1 0-.6.2-1 .4-1 .3 0 .8.4 1.1 1M236 76c0 1.2-2.8 2.5-3.6 1.7-.9-.9.6-2.7 2.2-2.7.8 0 1.4.5 1.4 1m95.5 1.5c0 1.4-.6 1.9-1.8 1.7-2.2-.4-4.6 2.4-4.7 5.3-.1 1.7-.3 1.7-1.1-.5-.7-1.7-.7-2.6 0-2.8.6-.2 1.1-.9 1.1-1.5 0-1.8 3.3-4.8 4.9-4.5.9.2 1.6 1.2 1.6 2.3m20.5.6c1.7 1.7 2.8 3.4 2.5 3.7-.6.6-6.5-4.8-6.5-6 0-1.3.7-.9 4 2.3m20.2-.9c-.7.7-1.2.8-1.2.2s.3-1.4.7-1.7c.3-.4.9-.5 1.2-.2.2.3-.1 1.1-.7 1.7M239 77c0 .5-.5 1-1.1 1-.5 0-.7-.5-.4-1 .3-.6.8-1 1.1-1 .2 0 .4.4.4 1m28.1 1.1c3.2-1.1 3.6-.4 1.4 2.5-.8 1-1.4 2.6-1.4 3.4s.4.5.9-.8c1.7-4 2.8-2.3 3.5 5.5.4 4.3 1.8 14.1 3.1 21.8 2.5 14.1 2.5 18.5 0 18.5-.9 0-1.9-3-3.1-9.8-.9-5.3-2.5-12.6-3.6-16.2-1.8-6.2-1.8-6.3-1.5-2 .2 2.5 1.3 9.6 2.5 15.9 1.7 9.1 1.9 11.6.9 12.3-2.6 1.6-2.6 1.7-4.8-7.7-.7-2.8-2.2-12-3.5-20.5s-2.4-14.9-2.4-14.1c-.1.8-.8 1.1-2.1.8-1.1-.3-2.2-.1-2.5.3-.3.5.3 1.1 1.2 1.3 1.7.4 1.7.5 0 .6-1 0-2-.6-2.3-1.4-.4-.8-1.6-1.5-2.8-1.4-1.1 0-1.5.3-.8.6 2.5 1 1.1 2.2-1.5 1.2-2.3-.8-2.6-.8-1.5.3.7.7 3.2 1.8 5.5 2.3 2.3.6 3.7 1.4 3.2 1.7-.6.3-3-.1-5.5-.8-3.2-1-4.9-2.1-5.7-4-1.4-3.1-.9-4.4.9-2.6 2 2 3.2 1.3 1.3-.8-1.8-1.9-5.5-2.8-5.5-1.2 0 .4.7 1.8 1.6 3 .8 1.2 1.3 3 1.1 4-.3 1.3-.8.9-1.8-1.5-.8-1.9-2.2-3.4-3.7-3.8-3-.7-3.2-.6-2.1 2.4.7 1.7 1.5 2.2 2.9 1.8 1.1-.3 2-.1 2 .4s-1 .9-2.2.9c-3.1 0-1.4 1.2 2.9 2l3.8.8-4 .1c-3.5.2-3.7.3-1.7 1.2 1.3.5 2.1 1.3 1.7 1.9-.3.5 1.2 1.2 3.5 1.6s4.3 1.2 4.5 1.8c1.3 4.2 1.5 6.7.5 6.1-.5-.3-1-1.5-1-2.6 0-1.2-.4-1.7-1.1-1.4-1.9 1.2-5.8-.5-7.3-3.3-1.2-2-1.5-2.2-1.6-.9 0 1 .5 2.7 1 3.8.7 1.3.7 1.9.1 1.9s-1.3-1.2-1.7-2.8c-1.4-6.3-4.7-16.2-5.5-16.2-.4 0-.3 1.4.3 3.1.6 1.6.8 3.2.5 3.5-.5.5-3.7-8.1-3.7-10 0-2.1 7.1-1.6 16.2 1 5.4 1.6 10.3 2.4 12.3 2.1 3.1-.5 3.1-.5 4.4 5.4 1.1 5.4 2.2 7.1 3.4 5.1.3-.4.1-2.5-.3-4.7l-.8-4-.2 3.5c-.2 3.4-.2 3.3-1.4-1.5l-1.1-5h-4.7c-4.1 0-4.5-.2-3.7-1.7 1.5-2.8 6.1-4.8 8.2-3.6 1.2.6 2.8.6 4.8-.1m72.5 4.9c.4 2.2 1.1 4.3 1.5 4.6 1.2.7 1.1 4.4-.1 4.4-.5 0-1.5-1.9-2.2-4.3-.6-2.3-1.6-4.5-2.1-4.8-1.2-.8-.2-3.9 1.3-3.9.5 0 1.3 1.8 1.6 4m2.1.2c-.3.7-.5.2-.5-1.2s.2-1.9.5-1.3c.2.7.2 1.9 0 2.5m28.3-.7c0 1.6-.6 2.5-1.5 2.5-1.8 0-1.8-.5-.5-3.1 1.4-2.6 2-2.4 2 .6m22.5-.7c-.3.3-1.1 0-1.8-.7-.9-1-.8-1.1.6-.5 1 .3 1.5.9 1.2 1.2m-44.1.7c-.6 1.6-2.4 2.1-2.4.7 0-1.1 1.1-2.2 2.1-2.2.5 0 .6.7.3 1.5M330 85.7c0 1.3-.3 1.3-1.5.3-.8-.7-1.2-1.6-.9-2.1.8-1.3 2.4-.1 2.4 1.8m5.3.3c.3 1.1.1 2-.4 2s-.9-.4-.9-.9-.3-1.7-.7-2.7c-.4-1.1-.3-1.5.4-1.1.6.4 1.3 1.6 1.6 2.7m16.7-1.5c0 .8-.4 1.5-1 1.5-.5 0-1-.7-1-1.5s.5-1.5 1-1.5c.6 0 1 .7 1 1.5m41 2.5c0 .5-.5 1-1.1 1-.5 0-.7-.5-.4-1 .3-.6.8-1 1.1-1 .2 0 .4.4.4 1m-153.3.6c-.3.3-1.2.4-1.9.1-.8-.3-.5-.6.6-.6 1.1-.1 1.7.2 1.3.5M346 90c0 .5-.2 1-.4 1-.3 0-.8-.5-1.1-1-.3-.6-.1-1 .4-1 .6 0 1.1.4 1.1 1m54.7 1.6c4.5 3.4 8.3 7.3 8.3 8.4 0 1.4-2.4 1.2-3.8-.2-.8-.8-1.2-.9-1.2-.1 0 2.6 1.2 4.1 3.1 3.6 1-.3 1.9 0 1.9.6 0 1.5 3.7 1.4 4.3-.2.5-1.4 4.6 3 4.7 5 0 .7 0 1.6.1 2 .2 1.9-1.9 1.1-2.5-.9-.5-1.8-.8-2-1.5-.9-.5.7-1.3 1.1-1.9.8-.6-.4-.8 2.1-.6 6.6.2 6.6.2 6.8-.6 2.2-.7-4.8-.8-4.7-.6 2.3.1 6.8-.5 8.9-1.7 5.8-.3-.7-.4-5.4-.2-10.5.2-5-.1-9.3-.6-9.6-.5-.4-.9 1-.9 2.9s-.4 3.8-1 4.1c-.5.3-1 2.2-1 4.1 0 2.3-.4 3.3-1.1 2.8-.6-.3-.9-1.6-.7-2.9.3-1.4-.2-2.6-1.4-3.4-1.6-1-1.8-.8-1.8 2.1 0 2.6.3 3 1.1 1.8.7-1.1.9-.7.8 2-.2 5.5.1 6.8 1.1 4.5l.9-2 .2 2c.1 1.1.3 2.9.3 3.9.2 2.4 2.6 3.4 2.6 1.1 0-.9.5-1.3 1-1 .6.3 1 1.3 1 2.2s.7 2.4 1.6 3.4c1.2 1.4 1.6 4.8 1.9 16.1.4 15.1-.2 22.9-1.5 19.3-.4-1.1-.5-5.6-.2-10.1.3-6 .1-8.3-.8-8.9-1-.6-1.2.4-.6 4.9.6 5.4-.5 9.6-4.2 16.5-.5.8-.4 3.8.2 6.8.8 4.8.7 5.7-1.1 8.1-1.7 2.2-2.7 2.6-5.7 2.4-3.9-.3-4.8 1.2-1.9 3.4 1 .7 1.5 1.6 1 2-.4.4-1.5 0-2.5-1-.9-.9-3.9-3.1-6.6-4.9s-5.5-3.6-6.2-4.2c-2.1-1.6-2.7.2-.8 2.3 1.5 1.4 7.9 6.1 12.3 8.9.2.2.2.6-.2.9-.3.4-2.1-.3-4-1.5-1.9-1.1-4.1-2.1-4.9-2.1s-2.3-.9-3.3-2-2.5-2-3.3-2-3-1.3-4.8-3c-1.9-1.6-4-2.7-4.9-2.4-.9.4-1.6-.2-2-1.8-.4-1.7-1.4-2.4-3.5-2.5-1.7-.1-3 0-3 .2s2.5 3 5.6 6.2c3 3.2 6.3 7.1 7.1 8.8 1.3 2.3 1.7 2.6 2.2 1.4.5-1.4 1-1.4 4.1-.1 1.9.8 4.9 1.4 6.6 1.3 1.8-.1 3.5.2 3.9.8.3.6.1 1.1-.5 1.1s-.8.4-.5 1c.4.6-.1.7-1 .3-1-.3-2-.1-2.4.5-.5.8-1.7.9-4.2.2-2.8-.8-3.8-.7-5.9.8-2.4 1.8-2.5 1.8-5.7-.1-2.1-1.2-4-1.6-5.1-1.1-.9.4-2.1.6-2.7.5-1.7-.5-11.8-2.2-16-2.7-2.2-.3-5.3-1.1-7-1.9-1.6-.7-3.9-1.5-5-1.7-1.7-.3-2-1.1-1.9-5.3.1-2.8.5-7 .9-9.4.6-3.2.5-4.2-.3-3.7-1.8 1.1-1.5-2.9.3-4.4 1-.8 2.8-.9 5.7-.4 2.4.4 7 .8 10.3 1 3.3.1 7.4.5 9.2.8 2.3.3 3.3.1 3.7-1.1.4-1 1.4-1.3 2.8-.9 1.7.4 3.1-.3 5.5-2.6 1.8-1.8 3.3-3.5 3.3-3.9 0-1.3-3.8.2-5.6 2.2-1.7 1.9-4 2.7-3 1 .4-.5.2-2-.3-3.3-.7-1.7-1-1.8-1-.6-.2 3.6-1.9 1.6-2.5-2.8-1-7.9-.8-11.4.9-11.4 1.8 0 2-1.6.4-2.6-.8-.4-.7-.9.2-1.4.9-.6.9-1.2-.4-2.4-1.8-1.9-1.2-4.7.8-3.9 2 .7 2.8 3.9 2 8-.3 2-.2 3.9.3 4.2s1.3 1.7 1.7 3.1c.6 2.2.4 2.1-1.7-.7-1.2-1.8-2.6-3.3-3-3.3-1.2 0-.9 2.5.4 3.8 1 1 1 1.5-.1 2.1-1 .7-1.1 1.3-.2 2.7 1 1.8 1 1.8 1.1-.4 0-3.2 1.6-2.7 2.9 1 .8 2.2 1.4 2.9 2.2 2.1.7-.7.5-2.9-.6-7.2-.9-3.4-1.3-6.6-.9-7.2.3-.6.1-3.7-.6-7-.9-4.2-1.7-5.9-2.9-5.9-1 0-1.2-.3-.5-.8.6-.4 1.5-1.8 1.9-3.1l.7-2.4 2.5 3.2c3 3.8 4.8 3.2 2.5-.8-.9-1.6-2-2.7-2.4-2.5-.5.3-.8-.1-.8-1 0-.8 3.2-4.4 7.2-7.9 6.6-6 7.2-6.9 7-10.1-.2-2.7.1-3.6 1.3-3.6.8 0 1.5-.5 1.5-1 0-.6.4-1 .9-1s.3 1.4-.5 3c-.9 1.7-1.4 3.8-1.2 4.7.2 1 2.1-1.8 4.5-6.7 2.4-4.6 4.1-8.6 3.8-8.8-.8-.8-3.7 2.1-4.7 4.8l-1 2.5-1.5-3.4c-1.1-2.6-1.1-4-.3-6.7.7-1.9 1.6-3.4 2.1-3.4.6 0 .7.9.4 2-.9 2.7.8 2.5 4.2-.5 3.6-3.1 5.8-3.1 10 .1m-88.3.9c.3.8.1 1.5-.4 1.5-.6 0-1-.7-1-1.5s.2-1.5.4-1.5.6.7 1 1.5M254 95c2.4.8 2.4.8-.5.9-1.6 0-3.7-.4-4.5-.9-1.2-.8-1.1-1 .5-.9 1.1.1 3.1.5 4.5.9m-7.3 1.6c-.3.3-1.2.4-1.9.1-.8-.3-.5-.6.6-.6 1.1-.1 1.7.2 1.3.5m77.7 2c2.4.9 1.9 5.2-1 8.6-1.4 1.7-2.8 4.4-3.1 5.9-.3 1.6-.9 2.9-1.4 2.9-.4 0-2 2.5-3.6 5.6-4.5 8.9-4.7 9.4-5.5 9.4-.4 0-.3-1.2.3-2.6 1.3-3.5.6-4.1-1.4-1.1-4.2 6.4-8.9 21.7-6.6 21.7 2.4 0 .4 4.3-4.6 9.5-6.6 6.9-7.5 4.8-1-2.5 3.5-3.9 4.4-5.6 3.9-7.4-.6-2.5 2-17.6 3.5-20.5.6-1 1.7-2.3 2.6-3.1 1.2-1 1.3-1.6.4-2.6-.9-1.1-.8-1.4.4-1.4 1.9 0 6.9-5.8 6.1-7.1-.3-.5.2-.9 1-.9.9 0 1.6-.5 1.6-1 0-.6-.5-1-1.1-1-1.5 0-.5-2.5 3.4-8.2 3.4-5 3.6-5.2 6.1-4.2m-71 6.3c-.6.6-1.1-.1-1.8-2.9l-.7-2.5 1.5 2.5c.8 1.4 1.2 2.7 1 2.9m-7 0c.3.4-.6.6-1.9.3-1.4-.2-2.5-.6-2.5-.8 0-.8 3.9-.4 4.4.5m-3.3 1.6c1.9.8 2.7 1.4 1.9 1.4-2.6.1-6-1.1-6-2 0-1.2.2-1.2 4.1.6m15.4 1.5c-.3.5-1.2 1-1.8 1-.7 0-.6-.4.3-1 1.9-1.2 2.3-1.2 1.5 0m-12.3 3.5c.5.7 2.2 1.6 3.8 2 1.7.4 3 1.1 3 1.6 0 1.4-3.6 1.1-7.7-.6-1.9-.8-4.8-1.5-6.4-1.5-2.8 0-3.9-1.7-2.1-3.4 1.1-1.2 8.6.3 9.4 1.9m9.8 4.2c0 4.4-.5 4.1-1.4-1-.5-2.7-.4-3.7.3-3.2.6.3 1.1 2.2 1.1 4.2m158.7-1.5c-.3.8-.6.5-.6-.6-.1-1.1.2-1.7.5-1.3.3.3.4 1.2.1 1.9m-7.8 6c0 4.1-.3 5.6-.8 4.3-.7-1.9-.3-10.5.5-10.5.2 0 .4 2.8.3 6.2m-158-1.9c3.6 1.8 6.7 3.8 6.9 4.6.5 1.6 0 1.5-9.3-2-7.3-2.7-6.9-2.5-6.2-4.4.8-2 1.2-1.9 8.6 1.8m171.1 1.1c0 .5-.7.3-1.5-.4s-1.5-2-1.5-2.8c0-1.3.3-1.2 1.5.4.8 1 1.5 2.3 1.5 2.8M260.2 122c1.2 2.1 1.3 3 .5 3-.7 0-1.8-1.4-2.4-3-1.5-3.9-.3-3.9 1.9 0m-8.3 3.3c2.5 1.2 4.7 2.9 4.9 3.7.4 1.2.3 1.3-1 .3-.8-.7-1.7-1-2.1-.7-.5.5-4.8-.6-10.4-2.7-1.3-.5-2.3-1.3-2.3-1.9 0-1.7 6.3-1 10.9 1.3m107.6.6c-.3 1.1-.8 4.8-1 8.2-.5 7.2-2.5 10.7-2.5 4.3 0-4 2.6-14.4 3.6-14.4.3 0 .3.9-.1 1.9m53.2 1.3c-.3.7-.5.2-.5-1.2s.2-1.9.5-1.3c.2.7.2 1.9 0 2.5m3.9 3c.2 3.4.1 3.8-.6 1.8-1-3-1.2-7.6-.4-6.7.4.4.8 2.6 1 4.9m-166.6-.7c2.5 1.5.5 2.4-5 2.2-4.9-.2-6-.5-6-1.9s.8-1.6 5-1.3c2.8.2 5.5.7 6 1m12.4 1.2c-.4 1.6-.9 3.2-1.3 3.8-.3.5-.4 1.8-.3 2.7q.3 1.8-1.5 1.8c-1.5 0-1.6.2-.3 1 1 .6 1.1 1 .3 1-.7 0-1.3 1-1.3 2.3s-.6 2.9-1.2 3.5c-1 1-1 1.5-.1 2 2 1.2-.2 3.5-2.6 2.7-1.5-.4-2.1-1.5-2.1-3.5 0-2.2-.7-3.3-2.7-4.5-3.2-1.7-7.3-5-7.3-5.9 0-.3 1.1-.6 2.4-.6s2.6-.5 2.8-1.2c.3-.7 1.3-.2 2.6 1.2 1.6 1.8 1.9 2.7 1.1 3.7-.8.9-.8 1.3 0 1.3.6 0 1.1-.5 1.1-1 0-1.8 2-1.1 2.1.7 0 1.5.2 1.5.8-.2.6-1.4.3-2.4-.8-3.2-1.4-1.1-1.4-1.3-.1-1.4.8 0 .4-.5-1-.9-2.5-.8-2.5-.8.4-.9 3.1-.1 7.6-3.5 7.6-5.8 0-.7.5-1.3 1-1.3.6 0 .8 1.1.4 2.7m14.2 1.5c-.9.5-2.1 2.8-2.7 5.2-1.2 4.9-4 7.3-5.9 5.1-.7-.8-1.9-1.5-2.7-1.5-1 0-1.3-1-1.1-3.7.3-3.7.4-3.8 5.7-5 2.9-.6 5.8-1.6 6.5-2.3.8-.8 1.2-.8 1.5.1.2.6-.4 1.6-1.3 2.1M417 142.8c0 .7-.4 1-1 .7-.5-.3-1-1.6-1-2.8 0-1.8.2-1.9 1-.7.5.8 1 2.1 1 2.8m-60.9 1.2c.5 0 .9 1.2.9 2.7 0 2-.3 2.4-.9 1.4-1.4-2.2-2.4 4.1-1.1 7.3.5 1.5 1 3.5 1 4.4 0 3-2.9-2.2-3.6-6.5-.6-3.9 1.6-14.4 2.3-11.1.3 1 .9 1.8 1.4 1.8m-59.1 1.7c-1.1 1.7-1.1 1.7-.6 0 .3-1 .6-2.4.7-3 0-.9.2-.9.5 0 .3.7 0 2-.6 3m-30.3 2.2c-.7 6-4.5 15.2-6.5 15.9-.6.2-.4-1.4.4-3.5 1.6-4.5 1.8-8.7.4-7.8-.5.3-1 1.5-1 2.6 0 1-.4 1.9-.9 1.9s-1.3.9-1.6 2.1c-.7 2.1-1.4 2.2-11 .6-2.4-.4-3.3-6.3-1.5-9.7 1.3-2.4 3-1.8 3 1.1 0 1.8 1.3 2.3 7.2 2.3.9 0 1.4.4 1.1.9s-1.9.6-3.5.3c-3.5-.7-2.9 1 .9 2.5 3 1.1 5.2-1 5.3-4.9 0-1.9.4-2.2 2.1-1.7 2.2.7 3.9-.7 3.9-3.4 0-1.1-.3-1.1-1.5-.1-1.3 1.1-1.4 1-.8-.6 1.7-4.8 4.7-3.7 4 1.5m40.3-1.8c0 1.7-.5 2.9-1.1 2.7s-1-.7-1-1.1c.1-.4.1-1.6.1-2.7s.5-2 1-2c.6 0 1 1.4 1 3.1m108-.1c0 1.1-.4 2-.9 2s-.7-.9-.4-2 .7-2 .9-2 .4.9.4 2m3 2.2c0 .5-.4.8-1 .8-.5 0-1-1-1-2.3 0-1.8.2-1.9 1-.7.5.8 1 1.8 1 2.2m-123.8 1.6c-.9.3-1 1.5-.6 3.8.4 2.2.2 3.4-.5 3.4-1.2 0-1.5-4.8-.5-7.4.3-.9 1.1-1.3 1.7-.9.8.5.7.8-.1 1.1m-20.1 2.9c.1 1.9.3 2.2.6 1 .3-1.1 1-1.6 2-1.3.8.3 1.9.6 2.4.6s.9 2.5.9 5.5-.4 5.5-.9 5.5-1.4 1.4-2.1 3c-2 4.9-2.2 2.8-.3-4.3s1.4-9-1.5-6.4c-2.4 2.2-3.2 2.1-3.2-.3 0-1.1-.4-2-1-2-1.4 0-1.2-2.7.3-3.3 2.3-1 2.7-.7 2.8 2m141.1 2.5c.3 2.6.2 4.5-.3 4.2s-.9-2.6-.9-5.1c0-5.8.6-5.3 1.2.9m-147.5 2c-.2 1.3-.4.5-.4-1.7-.1-2.2.1-3.2.4-2.3.2 1 .2 2.8 0 4m14 3c-.2 1.3-.4.3-.4-2.2s.2-3.5.4-2.3c.2 1.3.2 3.3 0 4.5m8-3c-.3.7-.5.2-.5-1.2s.2-1.9.5-1.3c.2.7.2 1.9 0 2.5m16.1-1c-.3.7-1.3 1.5-2.4 1.7-1.6.3-1.7.1-.5-1.3 1.6-1.9 3.4-2.1 2.9-.4m5.2 2.7c0 .5-.6 1.2-1.2 1.4-.7.2-.1.3 1.5.1 2.6-.3 3.7.9 1.7 2.1-.5.3-1 1.2-.9 1.8 0 .9.2.9.6-.1.6-1.5 3.3-1.6 3.3-.1 0 .6.7.9 1.5.5.8-.3 1.5-.1 1.5.4 0 .6.5 1 1 1 .6 0 1.9.9 3 2s1.7 2 1.4 2 .1.7 1 1.5c.8.8 2.1 1.2 3 .9 1.3-.5 1.5.4 1.3 5.3-.2 7.2-1.7 8.7-6.5 6.7-1.9-.8-3.8-1.2-4.3-.9-1.2.8-6-.6-5.4-1.6.3-.4 1.3-.5 2.1-.2.9.3 2 0 2.4-.7 1.1-1.8 0-5-1.7-5-.9 0-1.3-.6-.9-1.5.3-.8.1-1.5-.4-1.5-1.7 0-1.1 2.5 1 4.8l2.1 2.2H315q-3 0-3 1.5c0 .8-.4 1.5-1 1.5-.5 0-1-.5-1-1 0-1-2.9-.8-9.7.6-4 .8-2.5-1.3 2.2-3.3 2.5-1 4.5-2.2 4.5-2.7 0-1.6-7.2.3-9.6 2.5-1.2 1.1-3 1.9-4.1 1.7-1.4-.2-.8-1 2.5-3.3 8.4-5.9 8-5.4 5.1-5.5-1.7 0-4.3 1.5-7.2 4-5 4.4-5.9 4.9-5 2.2 1.3-3.5 7.6-8.3 12.4-9.5 1.5-.4 2.9-1.4 3.3-2.2.8-2.2-2.6-1.9-5.7.5-1.4 1.1-3 2-3.5 2-.6 0-2.7 1.9-4.6 4.2-4.5 5.2-5.9 4.1-2.5-2 1.9-3.5 4.1-5.6 8.5-8.1 7.3-4.2 14.4-6.2 14.4-4.2m-22.3 3.8c-.3 1-.5.4-.5-1.2 0-1.7.2-2.4.5-1.8.2.7.2 2.1 0 3m-14-.5c-.3.8-.6.5-.6-.6-.1-1.1.2-1.7.5-1.3.3.3.4 1.2.1 1.9m-6.7-.2c0 .5-.5 1-1.1 1-.5 0-.7-.5-.4-1 .3-.6.8-1 1.1-1 .2 0 .4.4.4 1m-16.1 1.6c.2.2.2.7-.2 1-1 1-5.8-.6-5.2-1.7.6-.8 4.2-.4 5.4.7m21.2.1c.7 1 .9 1.5.5 1.1-.5-.4-1.5 0-2.3 1-1.4 1.6-1.4 1.6-.9-.1.3-1 .6-2.3.6-2.8 0-1.3.6-1.1 2.1.8M286 165c0 .5-.5 1-1.1 1-.5 0-.7-.5-.4-1 .3-.6.8-1 1.1-1 .2 0 .4.4.4 1m-4.7 2c-.3 1.2-.8 1.9-1.1 1.6-.5-.6.5-3.6 1.2-3.6.2 0 .2.9-.1 2m-24.3 1c0 2.5-2.1 2.6-5.1 0l-2.4-1.9 3.8-.1c3 0 3.7.3 3.7 2m88-1c0 .5-.2 1-.4 1-.3 0-.8-.5-1.1-1-.3-.6-.1-1 .4-1 .6 0 1.1.4 1.1 1m-72 1.5c0 .8-.4 1.5-1 1.5-.5 0-.7-.7-.4-1.5.4-.8.8-1.5 1-1.5s.4.7.4 1.5m136.7 5.7c0 6.2 0 6.2-1.3 3.1-.8-1.8-1.1-4.5-.8-6.3 1-5 2.1-3.4 2.1 3.2m-145.3-2.8c-.6 1.6-3.4 3-3.4 1.8 0-1 2.2-3.2 3.2-3.2.4 0 .5.6.2 1.4m3.6 1.6c0 .5-.5 1-1.1 1-.5 0-.7-.5-.4-1 .3-.6.8-1 1.1-1 .2 0 .4.4.4 1m-57 1.9c0 1.3 7.9 5.2 9.8 4.9 1-.2 4 .8 6.6 2.1 3.5 1.9 4.9 2.2 5.8 1.3s.8-1.2-.5-1.2c-.9 0-1.7-.4-1.7-.9s1.5-.9 3.3-.9c1.7 0 4.5-.3 6-.7 2.4-.6 2.9-.4 3.4 1.4.6 2.2 2.3 2.9 2.3 1 0-.6.7-.8 1.6-.5 1.9.7 5.7-1.2 4.8-2.5-.3-.5-1.4-.7-2.5-.4-1.1.4-1.9.2-1.9-.4 0-2 7.4-1.1 12.5 1.4 5.3 2.6 11.4 2.7 17.8.3 4.6-1.8 11.5 2.4 7.7 4.7-.5.3-1 1.2-1 2 0 .9.9.5 2.5-1 2.5-2.5 4.5-3.2 4.5-1.6 0 .5-.4 1.1-1 1.3-.5.1 3.4.3 8.8.4 5.3 0 11.8.4 14.5.8 4.3.7 4.6.9 3.6 2.7-1 1.9-.8 2 1.8 1.9 6.2-.4 7.3-.1 7.3 2.3 0 1.3.8 3.1 1.8 3.9 2.6 2.2 14.9 7.1 16.1 6.4.5-.4 2.5.3 4.3 1.4s5 2 7.1 2c2.5 0 3.7.4 3.7 1.4 0 .8-.4 1.7-.9 2-.5.4-.7 2.3-.5 4.4.4 3.6.3 3.7-4.1 5.3-3.6 1.3-4.3 1.4-3.4.3 1.8-2.1.2-3-1.9-1.1-1 1-2.4 1.7-3 1.7-.7 0-1.2.4-1.2.8 0 1.3-10.1 5.5-14 5.9-7.6.7-12 1.5-12 2.3 0 .5-1.8 1.1-4 1.5s-3.8 1.1-3.5 1.6c.3.4 1.8.3 3.3-.2 1.5-.6 6-1.5 10-2 7.5-.8 17.2-3.8 27.5-8.3 3.2-1.4 6.4-2.6 7.2-2.6 2.4 0 1.7 2.8-.7 3.6-1.3.3-3 1.2-3.8 1.9-.8.8-2.7 1.6-4.1 2-1.5.4-3.6 1.8-4.8 3.1-1.1 1.3-2.5 2.5-3.1 2.5-1.6.2-2.3.5-5 1.7-1.4.6-4.4 1.6-6.7 2.2-2.4.6-4.3 1.5-4.3 2 0 .6-.7 1-1.6 1-.8 0-1.3-.4-1-.9.3-.4-1.3-.5-3.5-.1-5.1 1-6.4 2.1-1.4 1.3 2.8-.4 3.6-.3 3.1.5-.4.7-1.9 1.2-3.4 1.2h-2.7l3.3 2.6c1.7 1.4 3.2 3.2 3.2 4 0 1.9-1.4 1.8-3.1-.2-.9-1.1-2.2-1.4-4.6-.9-2.1.4-3.3.2-3.3-.5s-.6-.8-1.9 0c-1.1.5-4 1-6.5 1s-4.8.5-5.1 1c-.4.6-1.4 1-2.3.9-3.1-.3-4.2.1-4.2 1.5 0 .8-.8 2.4-1.8 3.7-1.5 1.7-2.8 2.2-6 2.1-2.2-.1-4.4.2-4.7.8-.3.5 1.7.9 4.7.8 4.3 0 5.6-.5 8-2.8 1.5-1.6 2.8-3.3 2.8-3.9s1.3-1.1 3-1.1c2.2 0 2.8.4 2.4 1.5-.4.8-.9 1.5-1.3 1.5-1.2 0-7.3 4.1-6.8 4.6.2.3 2.3-.5 4.6-1.7s5-1.9 6.1-1.6 2.1-.1 2.4-.9.1-1.4-.4-1.4c-.6 0-1-.5-1-1 0-.6.6-1 1.4-1s1.6-.4 1.8-.8 3-.5 6.3-.2c5 .4 5.5.7 3.3 1.3-1.6.4-3.9.5-5.2.1-1.3-.3-2.7-.1-3 .4s1.1 1.3 3.2 1.7c3.1.6 3.4.9 1.7 1.5-1.1.5-3.3 2-4.9 3.4-2.7 2.4-3.2 2.5-14.8 2.2-7.8-.1-11.3.1-10.2.7.9.5 5.5 1.1 10.3 1.2 4.7.2 8.8.4 9.1.5 1.8.3-4 3-6.5 3-1.8 0-3.5.3-3.9.7-1.6 1.7-12.6 1.2-12.6-.6 0-1.5-10-11-11.2-10.6-.7.3-3.3-1.1-5.8-3s-6.1-4.6-8.1-5.9c-4.4-3-12.1-11.6-11.6-13 .2-.6 2.8-1.3 5.8-1.6 4.4-.4 5.5-.9 5.8-2.5.3-2 .3-2-1.8-.1-2.9 2.7-3.9 1.2-1.4-2.2 2.4-3.2 4.7-3.9 8-2.1 1.8 1 2.6 1 3.6 0 .9-.9.7-1.3-1.1-1.7-1.2-.4-2.2-1-2.2-1.5 0-1.6 2-2 4.2-.7 2.5 1.3 5.6 1.2 7.6-.5 1-.8 1-1.2.1-1.8-.8-.4.3-1 2.7-1.5 2.1-.3 4.5-1.1 5.1-1.6.7-.6 1.9-.8 2.6-.5.8.3 2.1-.3 3-1.4 1.4-1.6 1.4-1.9.2-1.9-.7 0-1.6.4-1.9.9s-1.5.7-2.6.4-2 0-2 .6-1.7 1.1-3.8 1.1-4.8.7-6 1.6c-3.1 2.1-3.8 1.2-1.6-2.1 1.6-2.5 1.9-2.6 2.5-.9.7 1.7.8 1.7.8.1.1-.9.8-1.7 1.7-1.7s2.4-1 3.5-2.3c1-1.2 1.8-1.6 1.9-1 0 .7-.4 1.3-1 1.3-.5 0-1 .4-1 1 0 2 3.1.9 3.9-1.4 1.2-3 1.7-23.8.7-25.5-.6-.9-1.2-.8-2.7.5-1.8 1.6-2 1.6-3.2.1-.8-1.2-1.6-1.4-2.7-.7-1.3.8-1.3 1 .1 1 .9 0 1.9.8 2.3 1.7.3 1 1 2.5 1.5 3.3 1.4 2.4 3.1 10.8 2.5 12.5-.5 1.2-1.5.7-5-2.5-2.4-2.2-5.2-4-6.2-4-1.1 0-3.9-1.5-6.3-3.3-2.5-1.7-5.2-3.7-6-4.2-.9-.6-2.8-1.8-4.2-2.8-1.5-1.1-3.2-1.7-3.9-1.4-.8.2.3 1.4 2.5 2.7 2 1.2 3.7 2.6 3.7 3.1s.7.9 1.5.9c.9 0 4.5 2.9 8.2 6.5 3.6 3.6 7.1 6.5 7.6 6.5s.4-.7-.3-1.5c-.8-1-.9-1.5-.2-1.5 1.9 0 3.6 4.1 2.2 5-.9.5-.9.9-.1 1.4 1.6 1 1.4 2.6-.4 2.6-.8 0-2.1-1.3-2.9-2.8-.8-1.6-3.2-4-5.3-5.5-2.1-1.4-4.5-3.5-5.3-4.7-.8-1.1-2.3-2-3.3-2-2.1 0-9.2-3.7-11.8-6.2-1.9-1.8-6.6-3.4-7.5-2.5-1 1 5.4 6.2 9.2 7.6 2.1.8 4.7 2.3 5.6 3.3.9 1.1 2.1 1.7 2.7 1.4.5-.4 2 .4 3.3 1.7 1.3 1.2 3.2 2.9 4.4 3.7s2.4 2.5 2.8 3.8c.7 2.2.7 2.2-1.8-.3-1.8-1.8-3.2-2.4-4.9-2-1.6.4-2.9 0-4.1-1.4-1-1.1-2.2-1.8-2.6-1.6-.4.3-1.3-.2-2-1s-2.1-1.5-3.1-1.5-2.1-.5-2.4-1c-.3-.6-1.3-1-2.2-1s-2.4-1-3.5-2.3c-1.1-1.2-2.5-2.2-3.1-2.3-1.9 0-9.5-4.2-10.4-5.6-1.2-1.9-7.2-5-8.3-4.3-.6.3-1-.3-1-1.4 0-1.8-.3-2-1.9-.9-2.1 1.3-2.1 1.3 7.2 6 2.1 1 4 2.5 4.4 3.3.3.8 1.3 1.5 2.3 1.5s2.3.7 3 1.5 2 1.5 3 1.5 2 .7 2.4 1.5c.3.8 1.2 1.5 2 1.5.7 0 1.6.6 1.9 1.4s2.1 1.9 3.9 2.5c1.9.6 4.1 2.4 5.1 4.1 1 1.6 2.8 3.5 4 4.2 3.3 1.7 9.7 7 9.7 8 0 1.5-1.7.8-4.4-1.7-1.4-1.3-2.6-1.9-2.7-1.2 0 .7-.4.2-.9-1.1-.5-1.2-1.5-2.2-2.1-2.2-.8 0-.8.5.2 1.6 1 1.3 1 1.7-.1 2.4-1.9 1.2-3.3-.1-5-4.4-.7-2-2.2-3.8-3.2-4.2-1-.3-1.6-.9-1.3-1.4.5-.8-3.7-4-5.5-4s-1.1 3 1.5 5.5c2.1 2.2 2.2 2.5.6 2.5-1.2 0-2.3-1.1-3-3.2-1.8-5.1-5.8-9.7-7.9-9.1-1.4.3-2.2-.4-3.2-2.7-1.4-3.4-9.7-8.4-12.3-7.4-.9.3-1.7-.3-2-1.7-.4-1.3-.9-2-1.3-1.7-1.1 1.2.8 4.9 2.4 4.7 3.2-.3 4.1.1 3.6 1.5-.4.9.6 1.6 2.9 2 2.8.5 3.4 1 3 2.5-.3 1.1.1 2.9.7 4.1 1 1.8 1.4 2 2.1.9.6-1.1.9-.8.9.8 0 1.2 1.4 3.8 3.1 5.8 3.8 4.3 2.7 4.5-2.1.5-3.4-3-6-3.8-6-2 0 .5.3 1 .8 1 1.3 0 10.2 8.8 10.2 10.1 0 .7-1.5-.1-3.2-1.8-1.8-1.6-5.9-5.1-9.1-7.7-3.2-2.5-5.3-4.6-4.8-4.6s1.2.4 1.5.9c.6.9 4.6.3 4.6-.6 0-1.3-4.2-7.2-5.4-7.6-2.8-1.1-2.5.8.6 4 1.7 1.8 2.7 3.3 2.2 3.3-1.8 0-8-7.2-6.6-7.7 2.1-.8 1.3-2.5-.8-1.8-1.1.3-2 .3-2-.2 0-1.1-6-3.4-7.1-2.7-1.4.8-1 2.4.6 2.4.8 0 1.5.4 1.5.9 0 .6 1.4 1.8 3 2.8 1.7.9 3 2.5 3 3.5 0 2.1-.1 2.2-3.5.6-2.2-1-2.8-.9-3.6.3-.7 1.1-1.1 1.1-1.7.2-.4-.7-1.9-1.4-3.2-1.5-2.1-.3-2.5.1-2.2 2 .1 1.6-.2 2.2-1 1.8-.7-.3-2.1-.9-3-1.2-2.4-.8-2.3-2.1.2-3.6 2.8-1.8 2.5-2.8-1-2.8-1.9 0-3-.5-3-1.4 0-2.2-1.9-3-2.7-1.1-.3 1 0 2.1.8 2.5 1 .7.7 1.1-1.2 1.9-2.7 1-4.7 4.1-2.7 4.1.6 0 2-.7 3-1.7 1.1-.9 1.8-1.1 1.8-.5 0 .7-.4 1.2-.9 1.2s-1.1.9-1.4 2.1c-.4 1.6-1.1 1.9-2.6 1.4-1.2-.4-2.1-.2-2.1.4s.5 1.1 1.1 1.1c.7 0 .4 1-.6 2.6-.9 1.4-1.5 3.5-1.2 4.5.6 2.4-1.1 2.5-2 .1-.4-.9-1.2-2.2-1.9-2.7-.6-.6-1.5-3.1-1.9-5.8-.3-2.6-1.1-4.5-1.6-4.2-.5.4-.6 2.4-.3 4.6.7 4.4-1 5.5-2.7 1.6-.7-1.7-.8-1.3-.3 1.8.3 2.2 1.7 5.6 3.2 7.5 2.1 2.9 2.2 3.2.4 1.6-3.2-2.8-2.9.4.3 3.4 1.4 1.3 2.5 2.8 2.5 3.4s-.5.3-1.1-.7c-1.4-2.4-3.2-2.2-2.4.3.3 1.1.4 2 .1 2-.6 0-4.1-11.8-5-16.7-.4-2.5.4-5 4-11.8 2.5-4.7 4.4-8.9 4.1-9.1-.5-.6-3.1 3.6-4.3 6.8-.3 1-1 1.8-1.5 1.8-2.3 0 3.9-10 7.5-11.9 1.4-.8 2.6-1.8 2.6-2.3 0-.4.7-.8 1.5-.8s1.5-.5 1.5-1.2c0-.6.7-1.9 1.5-2.9 1.3-1.3 2.4-1.5 5.2-.8 2.3.5 4.4.4 5.6-.3 1.2-.6 2.3-.6 2.9 0 .8.8 6.9-.5 8.3-1.9.7-.7 7.5.2 7.5 1m66 .2c0 1.3-3.5 2.5-9.3 3.2-3.8.5-4.9.4-5.4-.9-.8-2.2.5-3 2.7-1.6 2.3 1.4 8 .5 8-1.3 0-.8.8-1.1 2-.8 1.1.3 2 .9 2 1.4m136.9 9.9c0 1-.3.8-.9-.5-1.2-2.7-1.2-4.3 0-2.5.5.8.9 2.2.9 3m10-2.6c-1.2 1-7.9 1.6-7.9.6 0-.5 1.9-1 4.2-1s3.9.2 3.7.4m-10 9.3c-.1 2.2-.2 2.3-.6.8-.3-1.1-1-2.3-1.7-2.7-.7-.5-.5-.8.7-.8s1.7.7 1.6 2.7M206.5 194c.3.5.1 1-.4 1-.6 0-1.1-.5-1.1-1 0-.6.2-1 .4-1 .3 0 .8.4 1.1 1m205.2 4.2c-.3.7-.5.2-.5-1.2s.2-1.9.5-1.3c.2.7.2 1.9 0 2.5m-222.9 4c.7.7 1.2 1.6 1.2 2.2s-.5.5-1.2-.2c-1.5-1.5-3.2-1.6-2.3-.2.3.5.1 1-.4 1-1.2 0-1.5-2.3-.4-3.3.9-1 1.7-.9 3.1.5m44.2 4.4c0 1.2-.6 1.1-2.9-.8-3.9-3-3.9-4.3-.1-2.3 1.7.9 3 2.2 3 3.1m172.8-1.5c-.3.8-.7.3-1.1-1-.4-1.7-.3-2.1.5-1.3.5.5.8 1.6.6 2.3m-193 1.1c1.9 1.6.7 2.1-1.7.8-1.3-.7-2.1-.7-2.1-.1s1 1.6 2.3 2.2c1.2.6 3.1 2 4.3 3 2.6 2.4 13.3 8.9 14.6 8.9.6 0 .8.6.5 1.3-.2.7.9 2.6 2.5 4.2 1.7 1.7 3.8 4.7 4.9 6.7 1 2 4.3 6.2 7.3 9.2 2.9 3 5.1 5.8 4.8 6.1-.4.3-2.5 1.4-4.7 2.4-2.3 1-5.7 3.2-7.7 5-2 1.7-3.9 3.1-4.3 3.1-1.1 0-10.9-9.2-11.7-11-.5-1.2-.7-1-.7.5-.1 1.6-.3 1.7-1 .5-.6-.8-.8-1.7-.6-2.1.7-1.1-3.4-4.3-7.8-6.1-2.3-.9-3.6-1.7-2.9-1.7 2.6-.2 1-1.9-4.4-4.6-3.1-1.6-5.8-3.5-6.1-4.2-.3-.8-1.2-1.2-1.9-.9-.8.3-1.1 0-.8-.9.7-1.7-2.1-4.9-3.5-4.1-.5.3-.7-.3-.4-1.4.6-2.3-.6-2.6-2.7-.8-.7.7-.6.2.3-1.2 1-1.3 1.7-2.8 1.7-3.2 0-1.3-2.8-.9-3.3.4-.2.7-.3.4-.1-.7s.4-3 .4-4.2c0-1.7.8-2.4 3.5-2.9 1.9-.3 4.1-.2 4.8.4 2.5 2 8.7 5.1 8.7 4.4 0-.5-1.8-1.8-4-3.1-4.5-2.5-4.7-2.9-2.2-4.7 1.4-1.1 1.4-1.4.2-1.5-.8-.1.1-.5 2-.9 4.1-.9 9.9-.3 11.8 1.2m203.8-.7c1 .8 1.4 1.5.9 1.5-.6 0-1.6-.5-2.1-1-.8-.8-1.9-.8-3.8 0-3.4 1.2-4.6 1.3-4.6.1 0-2.2 7-2.6 9.6-.6m-140.9 1.2c-.9.9-1.9 1.4-2.3 1.1-1-1 .6-2.8 2.4-2.8 1.5 0 1.5.1-.1 1.7m107.3 3.7c0 .6-.9 0-2-1.4-2.6-3.3-2.5-5.2 0-2.1 1.1 1.3 2 2.8 2 3.5m5.2-1.6c2 2 4.1 5.1 4.7 6.7l1.1 3-2.3-3c-1.2-1.6-3.7-4.5-5.4-6.4-1.8-1.9-3.3-3.6-3.3-3.8 0-1.1 2 .2 5.2 3.5m-205.7.1c-.3.6-1.1 1.1-1.7 1.1s-.6-.6.2-1.5c1.4-1.7 2.6-1.3 1.5.4m78 .7c1.4 1.4 3.2 2.3 4 2 1.4-.5 1.3 0-1.2 4.3-.2.2-2.2-1.7-4.6-4.2-3.3-3.5-3.9-4.7-2.6-4.7 1 0 3 1.2 4.4 2.6m119.8 5.5c1 1.3 1.7 3.8 1.7 5.5 0 3.7.9 6.6 1.9 6 .3-.2.7 1.6.9 4 .1 2.4-.2 4.4-.7 4.4s-1.1.6-1.4 1.4c-.4 1 0 1.2 1.4.9 2.7-.8 2.3 1.2-.5 2.5-1.4.6-3.2 2.3-4.2 3.7-1.2 1.9-2.5 2.5-5.1 2.5-4.2 0-4-2.2.3-3.1 2.8-.7 2.8-.7.7-1.4-2.7-.9-2.8-1.3-.8-3.9.8-1.1 1.5-3.5 1.5-5.3s.4-3.3.9-3.3c1.4 0 2 4 1 6.7-.7 1.8-.6 2.4.2 2.1 2.2-.7 2.7-4.3 1.2-8.3-1.3-3.6-2.3-6.6-5.3-15.8-.7-2.3-.5-3.2 1.3-5l2.1-2.1.7 3c.3 1.7 1.3 4.2 2.2 5.5m14.7-6.9c0 1.9-1.8 4.3-2.5 3.6-.9-.9.4-4.8 1.6-4.8.5 0 .9.6.9 1.2m20-.8c0 .3-.4.8-1 1.1-.5.3-1 .1-1-.4 0-.6.5-1.1 1-1.1.6 0 1 .2 1 .4m-243.1 4.8c1 3 .9 3.1-.4 1.4-.8-1.1-1.5-2.6-1.5-3.3 0-2.2.8-1.4 1.9 1.9m231.1-1.3c0 1-.7 2.1-1.5 2.5-1.6.6-1.9-.3-.9-2.8.8-2.2 2.4-2 2.4.3m6.7-1.3c-.3.3-1.2.4-1.9.1-.8-.3-.5-.6.6-.6 1.1-.1 1.7.2 1.3.5m-45.7 5.5c0 1.6-.4 2.9-.9 2.9-1.2 0-2.1-2.5-2.1-5.7 0-2.1.2-2.4 1.5-1.3.8.7 1.5 2.5 1.5 4.1m-178.6-2.6c.3.8-.3 1.9-1.4 2.5-2.8 1.5-4 1.2-4-1 0-1.3.5-1.8 1.5-1.4.8.4 1.5.1 1.5-.5 0-1.6 1.7-1.3 2.4.4m201.9-.1q.6 1.5-.9.9c-1.5-.6-1.9-2.3-.5-2.3.5 0 1.1.7 1.4 1.4M243 215.3c2.7 2 4.4 4.6 3.8 5.3-.2.1-1.9-1-3.7-2.7-3.9-3.3-4.5-3.6-3.2-1.2 1.7 3.2 6 6.6 7.5 6 2.2-.9 3 1.1 1.2 2.9-.9.8-1.6 2.1-1.6 2.7s-.8 0-1.7-1.3c-4-5.7-6.8-7.7-4.3-3 .8 1.6.8 1.8-.5 1.4-.8-.4-1.5-1-1.5-1.4 0-.5-1.6-2.7-3.5-5-2-2.4-3.3-4.5-3-4.9.4-.3 2 1 3.6 2.9 1.5 1.9 2.9 3 2.9 2.3 0-.6-.4-1.5-1-1.8-.5-.3-1-1.8-1-3.2 0-2.9 1.4-2.7 6 1m147.4 3.6c2.6 2.8 1.3 3.8-1.4 1.1-1.1-1.1-2.5-1.8-2.9-1.5-.5.3-1.4-.9-2-2.5l-1-3.1 2.7 2c1.5 1 3.6 2.8 4.6 4m-18 0c-.6.6-2.4-1.9-2.4-3.4.1-.6.7-.1 1.5.9.8 1.1 1.2 2.2.9 2.5m-5.7.3c-.3.8-.6.5-.6-.6-.1-1.1.2-1.7.5-1.3.3.3.4 1.2.1 1.9m-113.3 3.7c-.7.7-3.4-2.8-3.4-4.3.1-.6 1 0 2.1 1.3s1.7 2.7 1.3 3m3.1-3.8c1.1 1.7-.1 2.1-1.5.4-.8-.9-.8-1.5-.2-1.5s1.4.5 1.7 1.1m-79.6 2.5c.6 1.5.9 2.9.6 3.3-.8.7-3.5-2.8-3.5-4.6 0-2.2 1.6-1.5 2.9 1.3m5-.8c.5 1 .6 2.4.1 3.1-.6 1.1-1 .9-1.9-.7-.6-1.1-1.1-2.5-1.1-3.1 0-1.7 1.8-1.3 2.9.7m55.6 7c-.3.3-.6.3-.7.1-.2-.2-1.4-1.8-2.8-3.4l-2.5-3 3.2 2.9c1.8 1.6 3.1 3.2 2.8 3.4m128.1-3.5c.8-.3 1.4 0 1.4.7s.7 1 1.6.6c.8-.3 2.2.1 3 .9 1.3 1.2 1.2 1.5-.6 2.5-1.1.6-2.4.8-2.9.5-1.2-.7-4.1.5-4.1 1.7 0 .6.9.8 2 .5s2-.1 2 .3c0 .5-3.6.8-8 .8-4.4-.1-8.3.2-8.7.5-.3.4.1.7 1 .7 1 0 1.7.7 1.7 1.5 0 1.1-.8 1.3-3.2.9-3.1-.6-3.2-.5-1.4.9 1.9 1.4 1.9 1.5-1 3-2.7 1.4-8.4 1.3-8.4-.2 0-.3 1.8-1.6 4-2.9 2.3-1.3 3.7-2.8 3.4-3.5-.3-.8.6-1.8 2.1-2.5 1.4-.6 2.5-1.7 2.5-2.3s.7-.8 1.5-.5c1.7.6 9.4-4 9.6-5.8.1-.6.3-.3.6.6.2 1 1 1.5 1.9 1.1m22.2 4.8c-.3.8-.7.3-1.1-1-.4-1.7-.3-2.1.5-1.3.5.5.8 1.6.6 2.3M178 227.4c0 .2-.7.6-1.5 1-.8.3-1.5.1-1.5-.4 0-.6.7-1 1.5-1s1.5.2 1.5.4m9.4 1.1c-.4.8-1 1.5-1.5 1.5s-.9-.7-.9-1.5.7-1.5 1.5-1.5c.9 0 1.2.6.9 1.5m5.6 4.5c0 .5-.4 1-1 1-.5 0-1-.5-1-1 0-.6.5-1 1-1 .6 0 1 .4 1 1m200.7 2.2c-.3.8-.6.5-.6-.6-.1-1.1.2-1.7.5-1.3.3.3.4 1.2.1 1.9M367 235c0 .5-.8 1-1.7 1-1.5 0-1.6-.2-.3-1 1.9-1.2 2-1.2 2 0m-25 1c-.8.5-1.9 1-2.5 1-.5 0-.3-.5.5-1s2-1 2.5-1c.6 0 .3.5-.5 1m55 .4c0 .3-.4.8-1 1.1-.5.3-1 .1-1-.4 0-.6.5-1.1 1-1.1.6 0 1 .2 1 .4m-205 2.1c1.6 1.9 0 1.9-2.6 0-1.6-1.2-1.6-1.4-.3-1.5.9 0 2.2.7 2.9 1.5m145.3-.1c.4 1.1-.2 1.4-2.4 1.4-3.8-.1-5.9 1.7-4 3.4 1.1 1 1.4 1 1.8 0 .3-.6 1.4-1.2 2.6-1.2l2.2.1-2.2 1.8c-1.3 1.1-2.3 2.4-2.3 3 0 1.9-1.8 1.2-2.5-1-.5-1.5-1.3-2-3-1.6-2.2.4-5.6-.8-4.5-1.5 1.7-1.1 11.7-5.7 12.6-5.7.7-.1 1.4.5 1.7 1.3m20.7 1c0 .5-7.8 4.6-8.7 4.6-.3 0 .2-.9 1.1-1.9 1.6-1.7 2.7-2.2 6.9-3 .4 0 .7.1.7.3m44 1c0 .3-.4.8-1 1.1-.5.3-1 .1-1-.4 0-.6.5-1.1 1-1.1.6 0 1 .2 1 .4M211 243c0 .5-.4 1-1 1-.5 0-1-.5-1-1 0-.6.5-1 1-1 .6 0 1 .4 1 1m4.4 1.9c1 1.1 1.6 2.4 1.5 2.9-.2.5-1.4-.4-2.7-2-2.6-3.1-1.5-3.9 1.2-.9M344 244c0 .5-.9 1-2.1 1-1.1 0-1.7-.5-1.4-1 .3-.6 1.3-1 2.1-1s1.4.4 1.4 1m-16 4.5c-.7.8-1.7 1.5-2.2 1.5-.6 0-.5-.7.2-1.5s1.7-1.5 2.2-1.5c.6 0 .5.7-.2 1.5m-111.2 2.4c1.5 1 4 2.6 5.6 3.6 2.7 1.6 2.8 2 2.4 7.1-.4 4.1-.2 5.4.8 5 .7-.3 1.5.2 1.9 1.1.4 1.1.9 1.3 1.6.6 1-1 .2-4.3-1.1-4.3-.4 0-.5-1.1-.2-2.5.4-2.5.5-2.5 2.4-.8 1.4 1.3 1.8 2.5 1.4 4.6-.4 1.9-.1 2.9.9 3.4 1.3.5 1.3.7-.2 1.8s-1.5 1.5-.4 2.9c1.8 2.1.7 4.6-2.1 4.6-2.2.1-2.2.1-.4 1.5 1.9 1.5 1.9 1.5-.1 1.5-3.3 0-5.3-1.1-5.3-2.7 0-.9.6-1.3 1.5-1 1.8.8 2.7-.6 1.9-2.8-.6-1.6-.8-1.6-1.6-.1-.5.9-1.8 1.6-2.8 1.6-2.7 0-3.4 1.7-1.9 5.1.6 1.7 1.5 2.6 1.8 2 .4-.6 1.7-.8 2.9-.4 1.8.4 2 .8 1.1 2-1 1.1-1.4 1.1-2 .1-.7-1-.9-.9-.9.4 0 1-.4 1.8-1 1.8-.5 0-.7.7-.4 1.5.4.8.1 1.5-.5 1.5s-1.1-1.7-1.1-3.9-.4-4.3-1-4.6c-1.7-1-1.2-8.2.6-8.9 1.2-.5 1.4-1.4.9-3.8-.9-4.2-3.8-10.7-4.7-10.8-1.1 0-1 .2.7 4.3 1.9 4.7 1.9 4.7-1.1 3.4-2-1-2.4-1.7-2-4 .7-3.4-1-3.6-1.8-.1-.6 2.1-1 2.3-2.1 1.4-.8-.6-1.1-1.8-.8-2.6s0-1.4-.6-1.4c-.7 0-1.5 1-2 2.2-.5 1.4-1 1.7-1.5 1-1.1-1.8-3.4-1.4-5.7.9-2.5 2.5-3.5 1.9-1.9-1 .6-1.2.8-2.6.4-3.2-.8-1.4 1.4-2.9 4.4-2.9 2.4 0 3-1.5 1-2.3-.8-.3-.6-.6.4-.6 1-.1 3.2-1 5-2.1 4-2.4 4.2-2.4 7.6-.1m35.2.1c0 .5-.5 1-1.1 1-.5 0-.7-.5-.4-1 .3-.6.8-1 1.1-1 .2 0 .4.4.4 1m-2.5 1.3c.8.9 1 1.9.4 2.8-.5.8-.6 2.2-.4 3.1.3 1 .8 2.7 1.1 3.8.4 1.4.1 2-1 2-.9 0-1.3.6-1 1.4.5 1.3-2.1 3-3.4 2.2-.4-.2-.8.7-.8 2-.1 1.5.2 2.2 1 1.7 2.2-1.3 7.6-6.8 7.6-7.8s4.5-3.7 8.5-5c1.8-.6 1.8-.4-.3 1.8-1.2 1.3-2.2 2.7-2.2 3.3 0 .5.7 0 1.5-1 1.1-1.4 1.5-1.6 1.5-.5.1.9.5.7 1.3-.6.6-1.1 1.2-2.3 1.3-2.8.4-2 .6-2 1.4-.2 1.4 3.3 1.1 5.5-.7 5.5-1.5 0-4.2 1.5-12.3 7-1.4.9-4 2.5-5.8 3.4-1.9 1-3.1 2-2.9 2.3 1 .9 7.7-1.8 13-5.3 3.8-2.5 5.3-3 5.9-2.1s1.3.6 2.7-1.1c2.6-3 3.2-2.8 2.5.8-.8 3.5.3 4 1.6.7.9-2.2.9-2.2.9-.1.1 2.8-2.3 4.7-4.8 3.9-1-.3-2.2-.1-2.6.5-1.1 1.8-2.7 1.1-2.2-1.1.3-1.3.1-1.9-.6-1.6-.7.2-1.3 1.2-1.5 2.3-.6 3.5-1.2 4.5-2.3 3.8-.8-.4-.7-.9.2-1.5 2.3-1.4 0-1-3.1.6-1.6.8-3.6 1.2-4.4.9-.9-.3-1.6-.2-1.6.3s1.4 1.4 3.2 2.1c1.7.6 2.9 1.4 2.6 1.8-.4.3-1.3.2-2-.2-2.9-1.8-4-1.1-1.5.9 2.4 2 2.5 2.4 1.1 4.2-1.3 1.7-1.6 1.8-2.4.5-.7-1-1-1.1-1-.3 0 2.1-1.7 1.4-2.5-1-.5-1.6-.8-1.8-1.2-.7-.4.8-1.7 2.3-3 3.3-3.1 2.5-4.7 5.5-2.8 5.3.7 0 1.3.3 1.3.9-.1.5-.9.9-1.8.7-1-.2-2 .4-2.3 1.1-.5 1.4-6.1 4.7-7.9 4.7-.5 0 .4-1.2 2.1-2.6s3.1-3.3 3-4.2c0-1.1-.2-1.2-.6-.4-.2.6-.9 1-1.4.6-1.5-.9.9-4.4 2.6-3.8 1.7.7 2.1-2.1.5-3.1-.5-.3-1-1.5-1-2.6 0-1 .5-1.9 1-1.9.6 0 1 .9 1 1.9 0 2.8 1.9 3.6 3.8 1.7.9-.9 1.1-1.6.5-1.6s-1.4.6-1.6 1.2c-.3.7-.6.3-.6-1-.1-1.8.4-2.2 2.2-2.1 4 .4 6.7-.1 6.7-1.1 0-.6-1.2-1-2.6-1-3.5 0-6.4-1.7-6.4-3.8.1-1.6.1-1.6 1.1 0 .5 1 2 1.8 3.2 1.7 2.2 0 2.2 0-.2-1-1.9-.8-2.1-1.2-1.1-2.4s1-1.5-.3-1.5c-.9 0-1.9-.5-2.3-1.2-.5-.8.2-.9 2.4-.5 2.9.6 3.1.5 2-1.3-.7-1-2-2.1-3-2.3-1-.3-1.8-1.4-1.8-2.6s-.4-2.1-1-2.1c-.5 0-1-.5-1-1.1 0-1.3 4.8-.3 6.8 1.4.8.6 2.4 1.2 3.5 1.4 1.5.2 1.8 0 .9-.5-.9-.7-.8-1.3.8-2.7 1.1-1 2-2.3 2-2.9 0-.8-.2-.8-.8 0-.4.6-1.6 1.4-2.6 1.8-1.8.6-1.9.5-.5-1.1 2.2-2.7 4-7.3 2.9-7.3-.6 0-1.5 1.2-2.1 2.7-.7 1.9-1.3 2.3-1.8 1.5-.4-.8-1.5-1-2.6-.6-1.3.5-1.6.4-1.1-.4.4-.7 1.3-1.2 2-1.2s2.1-.9 3.1-2c2.1-2.4 2.3-2.4 4-.7m9.9 2.2c.3.8.1 1.5-.4 1.5-.6 0-1-.7-1-1.5s.2-1.5.4-1.5.6.7 1 1.5m-4.9.5c-.3.5-1.2 1-1.8 1-.7 0-.6-.4.3-1 1.9-1.2 2.3-1.2 1.5 0m3 3c-.3.5-1.2 1-2 1-.7 0-1.5.5-1.7 1.2-.3.7-1 .8-1.7.3-1-.6-.8-1.1 1-2.1 2.9-1.6 5.3-1.8 4.4-.4m-18.1 1.6c2.3.9 2 2.3-.4 1.7-1.1-.3-2-.9-2-1.4 0-1.1.3-1.1 2.4-.3m31.6 1.3c0 .6-.4 1.3-1 1.6-.5.3-1-.1-1-.9 0-.9.5-1.6 1-1.6.6 0 1 .4 1 .9m-5 5.1c0 .5-.7 1-1.5 1s-1.5-.5-1.5-1c0-.6.7-1 1.5-1s1.5.4 1.5 1m-56.2 2.5c.9-.3 1.3-.3.9.1s-.2 1.3.4 2c.8 1 1.5 1 2.9.1 2.7-1.6 3.3-.5 1.5 2.9-2 3.8-1.9 5 .5 7.4 2.1 2.1 2.8 4.6 1 3.5-.5-.3-1-1.3-1-2.1 0-2.9-2.5-.7-3.1 2.7-.4 1.9-.7 2.8-.8 2.1 0-.6-.6-1.2-1.2-1.2s-.9.9-.6 2 .1 2-.4 2-.9-.5-.9-1c0-.6-.5-1-1.1-1-.7 0-.8 1.2-.4 3.2l.7 3.3-2.2-2-2.1-1.9.7 2.8c.5 2.1.4 2.7-.5 2.2-.6-.4-1.1-1.4-1.1-2.2s-.5-1.4-1.1-1.4c-.7 0-.9 1-.5 2.7l.6 2.8-1.6-2.9c-1.4-2.5-1.8-2.7-2.8-1.5-.6.8-1.5 1.4-2.1 1.5-.5 0-2.5.7-4.3 1.5-2.3.9-3.2 2-3.1 3.4.2 3.4-.1 4.1-1.1 2.5-.5-.8-1-2.6-1-3.9s-.3-2.1-.7-1.7-.6 2.6-.6 4.9l.2 4.2-1.1-3.5c-.8-2.4-1.3-3-1.5-1.7-.3.9-.9 1.4-1.5 1.1-.7-.5-.9.2-.6 2 .6 3-.7 3.6-1.5.6-.3-1.1-1-2-1.6-2-.7 0-.7.8-.1 2.6 1.3 3.3 1.3 3.4-.4 3.4-.9 0-1.2-.7-.9-2 .3-1.1 0-2-.6-2s-1.1.4-1.1 1c0 .5-1.5 1-3.2 1-4.3 0-10.8 1.8-10.8 3 0 .5-.6.7-1.4.4s-1.6.2-1.9 1.3c-.4 1.6-.5 1.6-.6-.2-.1-1.7-.8-2-3.7-2-1.9.1-4 .8-4.5 1.6s-.9.9-.9.3c0-1.7-11 1.2-17.2 4.6-1 .6-2.6 1-3.5 1-1 0-3.3.9-5.2 2.1-1.8 1.1-3.4 1.9-3.6 1.7-.1-.2-.8-1.3-1.4-2.6-.8-1.5-2.1-2.2-4.4-2.3-1.8-.1-2.4-.3-1.4-.6 2.1-.6 2.1-1.4-.2-8.2-1.8-5.3-1.8-8.1 0-8.1.5 0 .9.9.9 2s.4 2 1 2c.5 0 .7-.6.4-1.4-.7-1.7 4.9-4.6 8.6-4.5 3.3 0 10.2-1.8 7.5-2.1-1.7-.1-1.6-.3.5-1 1.4-.4 5.7-1.3 9.5-2 7.5-1.3 12.8-3.5 6.5-2.7-1.9.3-4.4.9-5.4 1.3-1.3.5-1.7.4-1.3-.3.7-1.1 9.1-3.5 13.7-3.8 4.7-.3 5.1-.5 4.5-1.4-.3-.5.5-1.2 1.7-1.6 7.1-1.9 10.4-3 11.5-3.8.7-.5 2.2-.6 3.3-.2 1.5.5 2.7.1 3.8-1.3.9-1 2.3-1.7 3.1-1.4.8.2 1.1 0 .8-.5s.9-1.5 2.7-2.1c1.8-.7 4.1-2.1 5.1-3.2s2.3-2 2.8-2c.6 0 .3.8-.6 1.8-1 1-1.4 2.1-1.1 2.5.9.9 5.4-2.3 5.4-3.8 0-.9 1.1-1.3 3-1.3 1.7.1 3.3-.2 3.6-.5.4-.3 2 .1 3.6.9 1.6.9 3.7 1.3 4.6.9m85.2.5c0 1.4-3.9 3.2-5.2 2.4-.7-.4-.2-1.2 1.3-2 2.9-1.6 3.9-1.7 3.9-.4m18.2 5.6c.3 5.6-.7 11.4-2 11.4-.4 0-.8-4-.8-8.9-.1-6.7.2-8.8 1.2-8.4.7.2 1.4 2.7 1.6 5.9m-28.2-2.9c-1.9.7-3.8 1.2-4.4 1-.6-.3.5-1.1 2.4-1.9s3.9-1.3 4.4-1-.6 1.1-2.4 1.9m17-1.7c0 .5-.2 1-.4 1-.3 0-.8-.5-1.1-1-.3-.6-.1-1 .4-1 .6 0 1.1.4 1.1 1m-25 2.3c0 1.6-.6 2.3-2 2.3-2.4 0-2.4-.1-.2-2.5 2.2-2.5 2.2-2.5 2.2.2m9 1.7c-1.9 1.3-3 1.3-3 0 0-.6 1-1 2.3-1 1.8 0 1.9.2.7 1m11 0c0 .5-.4 1-.9 1-.6 0-1.3-.5-1.6-1-.3-.6.1-1 .9-1 .9 0 1.6.4 1.6 1m4 .9c0 .6-.4 1.3-1 1.6-.5.3-1-.1-1-.9 0-.9.5-1.6 1-1.6.6 0 1 .4 1 .9m-23 2.1c0 .5-.6 1-1.2 1.1-.7 0-.4.4.6.8 1.9.7 1.9.8-.2 1.3-1.6.5-2.2.2-2.2-1.1 0-1 .3-2.1.7-2.4 1-1 2.3-.8 2.3.3m29.6 1.7c-1 1-1.9-.5-1-1.8.6-1.1.8-1.1 1.2 0 .2.7.1 1.5-.2 1.8m-20.6.3c0 1.2-.7 3.4-1.5 5s-1.3 3.5-1 4.2c.3.8-.6 2.4-2 3.6-1.4 1.3-2.3 2.7-2 3.2.3.6-.1 1-1 1-1.3 0-1.4.2-.3 1.4 1.6 1.7 2.8 1.1 2.8-1.4 0-1 .7-2 1.5-2.4 2-.7 1.9 1.3-.1 3.6-1.3 1.4-1.4 2.1-.5 3.2 1 1.2.6 1.4-2.2 1.4-2.9 0-3.4-.3-3-1.9.6-2.2-.7-2.5-2.6-.7-1.1 1.1-1.3 1-.8-.3.4-1.3.1-1.5-1.4-1.2-1 .3-1.9.9-1.9 1.4 0 1.6-5.6 6.5-6.8 6.1-.7-.2-2.3.4-3.4 1.4-2.1 1.9-2.1 1.9-.5-.6.9-1.4 3.4-3.7 5.6-5 2.2-1.4 4.3-3.1 4.6-3.9.4-1-.2-.9-2.1.3-1.4 1-4.4 1.9-6.6 2.1s-4.6.9-5.4 1.6c-2.3 1.9-1.6-.1 1.3-4 3.4-4.5 5.5-6.5 8.6-8.6 2.4-1.5 2.6-1.5 3.2.4 1.1 3.5 5.3 2.2 11.2-3.6 1.7-1.6 3.4-6.3 2.7-7.4-.3-.5.4-.9 1.5-.9 1.4 0 2.1.6 2.1 2m-31 0c0 .5-.4 1-1 1-.5 0-1-.5-1-1 0-.6.5-1 1-1 .6 0 1 .4 1 1m17.5 1c.3.5-.1 1-1 1s-1.3-.5-1-1c.3-.6.8-1 1-1s.7.4 1 1m-219.1 3.7c.8 5 .8 7.8-.1 6.9-.4-.3-.7-1.4-.8-2.4-.1-.9-.5-3.2-.9-5-.5-1.9-.4-3.2.2-3.2.5 0 1.2 1.7 1.6 3.7M270 282c0 1.1-.7 2-1.5 2-1.5 0-2.1-2.1-.8-3.3 1.2-1.3 2.3-.7 2.3 1.3m34.1-.5c1.6-1 2.9 1.4 2.9 5.2 0 2.3.5 3.3 1.5 3.3 1.1 0 1.5 1.1 1.5 4 0 5.4-1.8 9-4.5 9-1.3 0-2.8.7-3.5 1.5-2.1 2.6-2.8 1.7-2-2.8.5-2.3.6-4.4.4-4.6s-.4.1-.4.7c0 .7-.4 1.2-1 1.2-.5 0-1-1.4-1-3 0-1.7.4-3 .9-3 1.1 0 2.4-3.1 1.6-3.9-.3-.3-1 .1-1.5.9-.8 1.3-1 1.3-1-.1 0-.9.7-2.2 1.5-2.9s1.5-1.7 1.5-2.3-1.1 0-2.5 1.3c-3.1 2.9-3.2 1.9-.4-2.7 1.7-2.6 2.4-3.1 3.5-2.3.7.7 1.8.9 2.5.5m-242.5 3.1c2.5 3.1 2.9 4.6 3.1 10.7.2 3.9.8 7.5 1.4 8.1.8.8 1 .4.8-1.5-.2-1.4.4-3.3 1.3-4.2 2.2-2.3 3.1-2.1 1.8.2-.5 1.1-.8 4.7-.5 8 .3 3.6.1 6.1-.5 6.1s-1-1.1-1-2.4c0-1.6-.7-2.7-2-3.1-1.1-.3-2-1.5-2-2.5 0-3-2.2-7-3.8-7-1.1 0-1.2.3-.2 1.5.6.8.9 1.8.6 2.3s.1 2 .9 3.5 1 2.7.5 2.7c-1.5 0-2.7-3.1-4.4-11.6-2.9-14.6-1.7-18 4-10.8M51.3 289c.4 3.3.3 4.9-.2 4-.9-1.4-1.4-5.8-1.2-8.9.2-2.7.8-.6 1.4 4.9m203.1-.5c-.4.8-.8 1.5-1 1.5s-.4-.7-.4-1.5.4-1.5 1-1.5c.5 0 .7.7.4 1.5m36.8.7c-.7.7-1.2.8-1.2.2 0-1.4 1.2-2.6 1.9-1.9.2.3-.1 1.1-.7 1.7m-43.5-.3c.9-.8 1.3-.8 1.3-.1 0 .6-.4 1.3-.9 1.6-1.3.8-4.1-.4-4.1-1.7 0-.8.4-.7 1.2.1s1.5.9 2.5.1m-179.2 1.9c-.3.3-1.1 0-1.8-.7-.9-1-.8-1.1.6-.5 1 .3 1.5.9 1.2 1.2m159.5-1.4c0 .3-.4.8-1 1.1-.5.3-1 .1-1-.4 0-.6.5-1.1 1-1.1.6 0 1 .2 1 .4M78.8 295c2 0 8.2 3.1 8.2 4.1 0 .9-5.9-.9-7.4-2.2-1.7-1.5-2.3-1-2.9 2.1-.4 1.7-1.3 3-2.1 3s-1.6.6-1.9 1.2c-.2.7-.8 1-1.2.6-.8-.8.3-4.8 1.3-4.7 1.8.3 3.2-.2 3.2-1.1 0-.5-.7-.7-1.5-.4-.8.4-1.5.2-1.5-.4s.6-1.3 1.3-1.5q1.2-.6-.3-.6c-.8-.1-2.1-1-2.8-2.1l-1.2-2 3.7 2c2.1 1.1 4.4 2 5.1 2m170.1-1.4c-1.3 1.4-4.4 3.5-6.9 4.6s-5.3 2.4-6.2 2.9c-1 .5-2.3.9-3 .9-1.8-.1 2.2-3 4.1-3 .9 0 4.1-1.8 7.1-4 6.4-4.5 8.4-5.1 4.9-1.4m-193.2 1.6c-.3.7-.5.2-.5-1.2s.2-1.9.5-1.3c.2.7.2 1.9 0 2.5m201.3-.7c-.7.8-1.6 1.5-2.1 1.5s-.1-.9.8-2 1.9-1.7 2.1-1.5c.3.3-.1 1.1-.8 2m-29.5 4.7c-1.5 1.8-3.8 3.9-5.1 4.6s-2.4 1.9-2.4 2.7-.6 1.5-1.4 1.5-1.7.6-1.9 1.2c-.4 1-.8.9-1.6-.2-1.5-2.2-1.5-2.2 4-6 2.7-1.9 6.2-4.5 7.6-5.7 3.7-3.1 4.1-2.1.8 1.9m63-3.2c-.3.5-1.3 1-2.1 1s-1.4-.5-1.4-1c0-.6.9-1 2.1-1 1.1 0 1.7.4 1.4 1m.3 4c-.7 1.1-1.6 2-2.1 2-.4 0-.3-.9.3-2s1.5-2 2-2c.6 0 .5.9-.2 2m-182.9 5.3c.1 1-.3 1.5-.9 1.2-.5-.3-1-1.7-1-3.1 0-1.3-.4-2.4-.9-2.4-1.7 0-1.8 1.4-.4 4.8.9 2.3 1.9 3.2 2.8 2.8 1-.4 1.5.1 1.5 1.6 0 1.9-.4 2-4.2 1.4-4-.7-4.1-.6-2.6 1.1 2.3 2.6 4.1 9.3 2.3 8.7-.9-.4-1.2.1-.8 1.4.2 1.1 0 2.3-.6 2.6-.7.5-1.1-.3-1.1-1.9 0-1.5-.5-3.5-1-4.6-.7-1.3-.7-1.9 0-1.9.5 0 1 .5 1 1.2 0 .6.3.9.6.6.6-.7-1.1-4.2-3.6-7.5-1.5-1.9-1.9-2-2.4-.7-.3.8-.2 1.3.3 1s1.1.5 1.3 1.9c.3 1.4.1 2.5-.4 2.5-1.1 0 .1 4.4 1.3 4.8 1.4.6 1 2.9-.6 3.6-.8.3-1.5 1.7-1.5 3.1s-.4 2.5-1 2.5c-.5 0-1-1.8-1-4 0-2.3-.5-4-1.1-4-.7 0-.9-1.5-.6-4.3.3-2.3.2-5.1-.3-6.2-.7-1.7-.9-1.5-.9 1.2-.1 1.8-.5 3.3-1 3.3-.6 0-.9-.8-.9-1.8 0-.9 0-2.2-.2-2.7-.6-2.3.1-6.5 1-6.5.6 0 2-.9 3.2-2 2.3-2.1 4.8-2.7 4.8-1 0 .5-.9 1-2 1-1.2 0-2 .7-2 1.6 0 1.1.6 1.5 2 1.1 1.1-.3 2 0 2 .6 0 .7 1.1 1.2 2.4 1.2 2.6 0 2.5-1.6-.2-4.8-.8-.9-1.3-1.7-1.1-1.8.2 0 1.4-.2 2.6-.3 1.3-.2 2.6-.6 3-1 .8-.8 2 2.5 2.2 5.7m88.8-5.7c-.3.3-1.2.4-1.9.1-.8-.3-.5-.6.6-.6 1.1-.1 1.7.2 1.3.5m-114.6 2.2c1-.2 1.5 1 1.7 3.8.2 2.6 1.1 4.9 2.3 5.9 1 1 1.9 3 1.9 4.4v2.6l-2-2.5c-1.1-1.4-2.5-4.2-3.2-6.4-1.1-3.5-1.2-3.6-2-1.6-.5 1.3-.7 3.8-.6 5.6s-.1 3.6-.4 4c-1 1-5.5-2.9-5-4.4.5-1.7 2.2-1.5 2.2.3 0 .8.4 1.5 1 1.5.5 0 .9-1.6.8-3.5-.1-2.3-.6-3.5-1.6-3.5-1.2 0-1.2-.2-.1-1.6.8-.9 1.2-2.8 1-4.2-.2-2.2-.1-2.4 1.2-1.4.8.7 2.1 1.1 2.8 1m9.9-1.4c0 .2-.9.6-2 .9s-2 .1-2-.4.9-.9 2-.9 2 .2 2 .4m124.7 1.1c.2.6-1 1.6-2.6 2.3-3.8 1.7-5.7 6.1-4.3 10.1l1.1 3.1-3.9-.3c-5.1-.3-6.4-1.7-1.6-1.7 3.9 0 4.8-2.3 1-2.7-1.8-.3-1.8-.2.1.6 1.8.9 1.7 1-.7 1-1.6.1-2.8-.4-2.8-1s-1-.9-2.2-.7c-1.6.2-2.2.9-2 2.1.3 1.6 0 1.7-1.8.7-1.3-.7-4.4-1-7.8-.6-3.2.3-6.6.6-7.7.6-1.9.1-1.9.2-.2 1.1 1 .6 3.6.8 5.8.4 2.5-.4 3.9-.3 3.9.4 0 .6-.7.8-1.5.5-.8-.4-1.5-.1-1.5.5 0 .7-1.6.9-4.7.5-4.6-.6-4.7-.6-2.8 1.1 2 1.6 2 1.6-.5.9-3.2-.8-14.9-1.3-17.5-.6l-2 .5 2 .7c2.1.8-4.3.6-15.5-.4-3.8-.4-5.7-.3-4.6.2 3.2 1.4.1 2.5-5.2 1.7-11.6-1.5-14-1.5-14.5.6-.4 1.4-1.4 1.9-3.8 1.9h-3.2l4.4-3c2.4-1.6 5.1-3 5.9-3s4-.9 7-2c4.7-1.7 8.3-1.9 24.9-2 11.8 0 20.9-.5 23-1.1 9-2.9 24.9-9.4 28.1-11.5 3.5-2.3 7.1-2.7 7.7-.9m-24 .1c-.3.3-1.2.4-1.9.1-.8-.3-.5-.6.6-.6 1.1-.1 1.7.2 1.3.5m38.3 1.2c0 .5-1.7 1.4-3.7 2.1-2.1.7-4.5 1.5-5.3 1.8-.8.2.3-.7 2.5-2.1 4.1-2.6 6.5-3.3 6.5-1.8m-142 5.4c0 2.7-2.7 2.2-3.4-.7-.9-3.6.3-5.3 2.1-3 .7 1.1 1.3 2.7 1.3 3.7m-14.8-1c-.6.6-1.5.8-1.9.4s-.1-1.1.7-1.6c1.9-1.2 2.7-.3 1.2 1.2M60.3 310c.3 1.1.1 2-.4 2s-.9-.2-.9-.4-.3-1.1-.6-2-.2-1.6.4-1.6c.5 0 1.2.9 1.5 2m6.5 1.5c1 2.2 2.2 2.9 4.4 2.7.3-.1.9.5 1.2 1.3s.1 1.5-.5 1.5-.7.4-.4 1c.3.5.2 1-.4 1-.5 0-1.3-.5-1.6-1-.3-.6-.1-1 .6-1s1-.3.7-.6c-.4-.3-.9-.5-1.3-.4-.9.2-6.5-5.1-6.5-6.2 0-1.8 2.8-.6 3.8 1.7M232 310c0 .5-.8 1-1.7 1-1.5 0-1.6-.2-.3-1 1.9-1.2 2-1.2 2 0m-125 4.9c0 1.1.5 2.3 1 2.6 1.2.7 1.3 2.5.2 2.5-.5 0-1.3-1.6-1.9-3.5-.6-2-.7-3.5-.2-3.5s.9.9.9 1.9m-21 3.7c1.4 4.1 1 4.8-1.9 3.9-2.2-.7-3-4.5-1-4.5.6 0 .9-.7.5-1.5-.3-.8-.1-1.5.4-1.5.4 0 1.4 1.6 2 3.6m108.5-2.6c.3.6-.1.7-.9.4-1.8-.7-2.1-1.4-.7-1.4.6 0 1.3.4 1.6 1M79 320.5c0 .8-.4 1.5-1 1.5-.5 0-1-.7-1-1.5s.5-1.5 1-1.5c.6 0 1 .7 1 1.5m31.4 2.1c.9 2.2-.3 3.2-1.4 1.4-1.2-1.9-1.2-3-.1-3 .5 0 1.2.7 1.5 1.6m38.1-.6c.3.5-.1 1-.9 1s-1.8-.5-2.1-1c-.3-.6.1-1 .9-1s1.8.4 2.1 1m30.2.3c1 1.1-10 .8-11.6-.2-.9-.6.8-.8 4.7-.7 3.4.2 6.5.6 6.9.9m-87.7 4c0 1-.4 1.5-1 1.2-.5-.3-1-1.8-1-3.3 0-2.1.2-2.4 1-1.2.5.8 1 2.3 1 3.3m-7.1-.7c.3 1.6.1 1.7-1.3.5-1.9-1.6-2.1-3.4-.3-2.9.6.3 1.4 1.3 1.6 2.4m-4.9 1.6c0 .5-.7.3-1.5-.6-.8-.8-1.5-1.8-1.5-2.2 0-.3.7-.1 1.5.6s1.5 1.7 1.5 2.2m83.7-2.6c-.3.3-1.2.4-1.9.1-.8-.3-.5-.6.6-.6 1.1-.1 1.7.2 1.3.5M82 327c0 .5-.2 1-.4 1-.3 0-.8-.5-1.1-1-.3-.6-.1-1 .4-1 .6 0 1.1.4 1.1 1m18.6 1.7c-1 1-1.9-.5-1-1.8.6-1.1.8-1.1 1.2 0 .2.7.1 1.5-.2 1.8m8.9-1.7c.3.5-.1 1-1 1s-1.3-.5-1-1c.3-.6.8-1 1-1s.7.4 1 1m-3.5 1.4c0 .3-.4.8-1 1.1-.5.3-1 .1-1-.4 0-.6.5-1.1 1-1.1.6 0 1 .2 1 .4m-26 6.1c2 2.4.6 2.8-1.5.5-1-1.1-1.3-2-.8-2 .6 0 1.6.7 2.3 1.5"/>
	<path d="M336.2 118c-1.3 2.1-.6 2.5 1.8 1 1-.6 1.2-1.2.5-1.9s-1.4-.4-2.3.9M335 124.2c0 1.9.2 2 1 .8 1.3-1.9 1.3-3 0-3-.5 0-1 1-1 2.2M328 133.8c0 .5.7 1.6 1.6 2.3 1.4 1.2 1.6 1.1 1.3-.5-.4-2-2.9-3.5-2.9-1.8M324.7 137.3c-.3.8-.8 3.8-1.2 6.8-.5 4.3-.4 5.8.9 6.8.8.7 2 2.8 2.6 4.7 1 2.9.9 3.9-.4 5.9-2 3-2 3.5-.1 3.5 1.8 0 2.6-4.5 2.2-13.7-.1-4.8-.6-7.3-1.4-7.3-.6 0-1.4 1.5-1.6 3.2-.2 2.1-.4 1.1-.5-2.4-.1-3.1.3-6 .8-6.3.6-.3 1-1 1-1.6 0-1.4-1.7-1.1-2.3.4M355.7 106.4c-.4 1-.5 2.1-.2 2.4.9.9 1.7-.6 1.3-2.5-.3-1.7-.4-1.7-1.1.1M341.1 151.6c0 1.1.3 1.4.6.6.3-.7.2-1.6-.1-1.9-.3-.4-.6.2-.5 1.3M345.6 153c.8 4.3 1.4 5.1 1.4 1.9 0-1.3-.5-3.1-1-3.9-.7-1.1-.8-.5-.4 2M344.2 158c0 1.9.2 2.7.5 1.7.2-.9.2-2.5 0-3.5-.3-.9-.5-.1-.5 1.8M260.8 80.1c2.3.7 3.2 1.6 3.3 3.2.1 1.7.2 1.8.6.4.7-2.5-1.5-4.7-4.6-4.6-2.4.1-2.4.1.7 1M236 83.4c0 .2.9.6 2 .9s2 .1 2-.4-.9-.9-2-.9-2 .2-2 .4M268.2 91c0 1.4.2 1.9.5 1.2.2-.6.2-1.8 0-2.5-.3-.6-.5-.1-.5 1.3M244 101c2 1.3 4 1.3 4 0 0-.6-1.2-1-2.7-1-2.2 0-2.5.2-1.3 1M264.6 107.5c.3 3.3 1.1 8.9 1.9 12.5l1.4 6.5-.5-6c-.3-3.3-1.1-8.9-1.9-12.5l-1.4-6.5zM271.2 105c0 1.4.2 1.9.5 1.2.2-.6.2-1.8 0-2.5-.3-.6-.5-.1-.5 1.3M272.2 111.5c0 1.6.2 2.2.5 1.2.2-.9.2-2.3 0-3-.3-.6-.5.1-.5 1.8M396.6 103.2c-.9 3.4-.7 12.6.2 13.2.5.3 1.3-2.1 2-5.2 1.1-5.5.8-10.2-.8-10.2-.4 0-1 1-1.4 2.2M402 109.7c0 .5.5 1.5 1 2.3.8 1.2 1 1.1 1-.8 0-1.2-.4-2.2-1-2.2-.5 0-1 .3-1 .7M386.6 111.8c-.4 1-1.5 2.8-2.6 3.9-2.1 2.3-3.7 7.3-2.4 7.3.5 0 .9 4.5 1 10 0 8.4-.2 9.6-1.3 8.2-1.2-1.5-1.3-1.4-.7 1 .3 1.5.2 3.4-.4 4.3-.8 1.6-1 1.5-1.5-.4-.3-1.1-.1-2.1.5-2.1.5 0 .6-.5.3-1-.4-.6-1.1-.8-1.6-.5-1.3.9-1.1 4.9.3 6.3.6.6.8 1.5.4 1.9-1 1.1-2.6-1.8-2.6-4.8 0-3.2-.9-4.2-2.6-2.8-.9.8-1.6.3-2.8-1.8-.8-1.5-1.5-2.3-1.6-1.6 0 2.4 3.4 12.3 4.3 12.3.5 0 .6-.8.3-1.7-.5-1.3 0-1.1 1.8.6 2.6 2.5 2.5 3.7-.6 5.9-1.5 1.1-1.6 1.7-.8 2.7.7.8.9 1.9.5 2.5-.7 1.2 2.2 3.9 4.3 4 .6 0 1.2-.9 1.2-2.1 0-3.1 2.2-1.8 4.9 3 1.7 3.1 2.6 4 3.4 3.2.6-.6 1.9-1.1 2.9-1.1 2.3 0 2.3-.6-.1-3.1-1.1-1.2-2.4-1.8-3-1.4-.6.3-1.1-.1-1.1-.9 0-.9.5-1.6 1.2-1.6.6 0 .3-.9-.7-2s-2.1-1.7-2.4-1.2-2.3 1.2-4.3 1.5c-3.3.5-3.8.3-3.8-1.4 0-1 .9-2.4 2-3.1s2-2.3 2-3.5c0-2.6 3-9.3 4.2-9.3.4 0 .8.5.8 1.2 0 .6.3.9.6.5.3-.3.7-3.8.8-7.9.2-4 .7-8.6 1.1-10.2.6-2.3.4-3.2-1.4-4.5-2-1.5-2.1-1.9-.7-4.6 2.2-4.6 2.8-7.5 1.7-7.5-.5 0-1.2.8-1.5 1.8m-1.9 26.4c-.3.8-.6.5-.6-.6-.1-1.1.2-1.7.5-1.3.3.3.4 1.2.1 1.9M392.6 119.3c-.7 2.8.4 13.6 1.5 14.3.5.3.9-.9.9-2.7s.5-4.7 1.1-6.4c1-2.8.9-3.5-.9-5.3l-2-2zm2.4 1.6c0 .6-.4 1.3-1 1.6-.5.3-1-.1-1-.9 0-.9.5-1.6 1-1.6.6 0 1 .4 1 .9M406.9 132c-.7 3.1-.6 13.8.1 15 .7 1.1.9.7 1-1.8 0-2 .5-3.1 1.3-3 1.6.4 1-5.9-.9-8.6-.8-1.1-1.4-1.8-1.5-1.6"/>
	<path d="M376 135c0 .5.5 1 1.1 1 .5 0 .7-.5.4-1-.3-.6-.8-1-1.1-1-.2 0-.4.4-.4 1M373.2 138.1c-1.7 2.7-1.6 2.9 2.5 2.9 2 0 3.3-.3 2.9-.8-.7-.7-1.1-.8-3.8-1.1-1-.1-1-.3.1-1 .7-.5.9-1.1.4-1.4s-1.4.3-2.1 1.4M394.6 160.9c-.3.5-1.5.7-2.6.4-3.1-.8-2.4 1.1 1.8 4.9 2 1.8 3.8 3.7 3.9 4.1.7 3 1 3.2 3.7 1.9 2-.9 2.7-1.8 2.4-3.5-.2-1.5-.9-2.1-2-1.9-2 .3-2.4-1.3-.7-2.3.7-.5.4-1.4-.7-2.6-1.8-2-4.9-2.5-5.8-1M379 168.1c0 .5-.4.8-.9.5-.5-.4-1.7-.3-2.7.1-1.6.6-1.6.7.2 1.4 2.6 1.1 8.2 1.1 8.8 0 .3-.4-.6-1.3-2-2-3.1-1.4-3.4-1.4-3.4 0M366.9 175.4c1.6 1.9 6.5 2.2 5.9.3-.3-.6-2-1.3-3.8-1.5-3-.3-3.2-.2-2.1 1.2M377.5 175c-.3.5.8 1.8 2.6 2.8 1.8.9 5.1 3.4 7.4 5.4 2.3 2.1 4.8 3.8 5.6 3.8.9-.1.5-.8-1-2.1-1.8-1.5-2.1-2.3-1.3-3.1.9-.9 1.6-.7 3 .5 1.7 1.6 5.7 1.8 8 .3 1.8-1.1 1.4-4.1-.8-6.1-2.4-2.2-3.8-1.4-1.5.9 2.6 2.5-.5 2-3.2-.6-1.3-1.2-2.6-1.8-3-1.3-.5.4-.2 1 .5 1.2.6.3 1.2.9 1.2 1.5s-1.5-.1-3.4-1.6c-4.6-3.4-6.2-3.3-3.5.3 3.4 4.6 1.2 5.8-2.7 1.5-1.8-2.1-3.6-3.5-4-3.1s-1.3.2-2-.4c-.8-.7-1.4-.7-1.9.1M352 179.1c0 .7-1 .9-2.5.5-2.5-.6-3.6.8-1.2 1.7.7.3.6.6-.5.6-.9.1-2-.4-2.3-.9-.3-.6-1.6-1-2.7-1-2.1 0-2.1 0 .2 2 1.3 1.1 3.1 2 4.1 2s2.7 1 3.9 2.2c2.1 2.3 2.7 4.4 1 3.3-.5-.3-1-.1-1 .5s1 .8 2.5.4c1.3-.3 3.9-.1 5.6.5 1.8.6 3.4 1 3.5.8.2-.2-1.9-2.6-4.6-5.4-3.3-3.4-4.8-5.7-4.4-6.7.3-.9.1-1.6-.5-1.6s-1.1.5-1.1 1.1"/>
	<path d="M356 179c-1.3.8-1.3 1 .2 1 .9 0 2-.5 2.3-1 .8-1.3-.5-1.3-2.5 0M339.5 191c-.3.4 1.9 1.1 4.8 1.4 2.9.4 6.6 1.4 8.2 2.2 3.6 1.8 4.4 1.2 1.1-.9-2.7-1.8-13.4-3.8-14.1-2.7M366 190.9c0 1 1.9 2.5 2.5 2 .1-.2-.3-1-1.1-1.7s-1.4-.8-1.4-.3M362.5 196.5c3.4 1.6 7.4 2 6 .6-.6-.5-2.8-1.2-5-1.5l-4-.6zM247 138c0 .5.5 1 1 1 .6 0 1-.5 1-1 0-.6-.4-1-1-1-.5 0-1 .4-1 1M308.2 171c0 1.4.2 1.9.5 1.2.2-.6.2-1.8 0-2.5-.3-.6-.5-.1-.5 1.3M312.1 170.6c0 1.1.3 1.4.6.6.3-.7.2-1.6-.1-1.9-.3-.4-.6.2-.5 1.3M319.2 170.2c-1.6 1.6-1.5 2.5.6 7.5.9 2.4 2.3 4.3 3.1 4.3.7 0 1.1-.6.7-1.5-.3-.8.1-2.1.9-2.9s1.5-1.9 1.5-2.5c0-1.6-2-1.3-2.6.3-.5 1.2-.9 1.1-2.5-.5-2.3-2.3-2.5-3.9-.4-3.9.8 0 1.5-.5 1.5-1 0-1.4-1.3-1.3-2.8.2"/>
	<path d="M321 173c0 .5.7 1 1.5 1s1.5-.5 1.5-1c0-.6-.7-1-1.5-1s-1.5.4-1.5 1M310 178c0 .5.5 1 1 1 .6 0 1-.5 1-1 0-.6-.4-1-1-1-.5 0-1 .4-1 1M183 178c0 .5.9 1 2 1s2-.5 2-1c0-.6-.9-1-2-1s-2 .4-2 1M201 178c1.9 1.3 3 1.3 3 0 0-.6-1-1-2.2-1-1.9 0-2 .2-.8 1M253.2 182c-1.2 1.9-.9 2.3 4.3 4.5 3.1 1.4 5.9 2.5 6.4 2.5.4 0 2.7 1.4 4.9 3 2.6 1.9 4.2 2.5 4.2 1.7 0-2.4-2.4-4.4-8.2-6.7-5.3-2.2-7.5-4-4.6-4 .6 0 .9-.3.5-.6-.3-.4-2.1-.1-3.9.5-2.8.9-3.1.9-1.5-.3 2-1.6 2.2-2.6.4-2.6-.7 0-1.8.9-2.5 2M188 182.9c0 .6 1.2 1.1 2.6 1.1s2.3.4 1.9 1c-1 1.7 2.2 2.3 4.7.9 2.3-1.3 2.3-1.3-1.2-2-1.9-.4-4.5-1-5.7-1.4-1.5-.5-2.3-.3-2.3.4M184 186c0 .5.5 1 1 1 .6 0 1 .6 1 1.4 0 .7.7 1.9 1.6 2.7 1.3 1.1 1.4.9.8-1.7-.4-1.6-.9-3.2-1.1-3.7-.6-1.1-3.3-.9-3.3.3M206 187.9c0 1 2.9 3.6 3.4 3 .1-.2-.6-1.2-1.6-2.2-1-.9-1.8-1.3-1.8-.8M311 189c0 .5.4 1 .9 1 .6 0 1.3-.5 1.6-1 .3-.6-.1-1-.9-1-.9 0-1.6.4-1.6 1M293.2 192.6c-.7.8-.8 1.4-.3 1.4 1 0 2.5-1.9 2-2.5-.2-.1-1 .3-1.7 1.1M308 192.5c-.7.8-1.9 1.5-2.6 1.5-.8 0-4 2-7.1 4.4-3.2 2.5-7.7 5.2-10 6.1-2.4 1-4.3 2.4-4.3 3.2 0 1.3.3 1.3 2.5-.1 1.3-.9 2.9-1.6 3.6-1.6 1.9 0 8.3-3.3 11.3-6 1.6-1.4 4.3-3.7 6-5.2 1.7-1.4 2.8-2.9 2.5-3.2-.3-.4-1.2 0-1.9.9M286.7 193.6c-.4.4-.7 1.4-.7 2.3 0 1.1.3 1.2 1.1.4.6-.6 1-1.6.7-2.3-.2-.6-.7-.8-1.1-.4M289.3 195.8c-.6.4-1.9 2.1-2.7 3.7-1.3 2.4-1.6 2.6-1.6 1-.1-2-.1-2-1.5-.1-2.1 2.8-1.9 3.5 1 3.3 1.8-.2 3.3-1.4 5.1-4.5 2.4-4 2.3-5.1-.3-3.4M295 196.5c-1.9 2.3-.8 2.5 1.4.4 1.1-1.1 1.5-1.9.9-1.9s-1.6.7-2.3 1.5M313.3 195.7c-2.6.5-5.4 3.3-3.2 3.3.8-.1 3-.9 4.9-2 3.4-1.8 2.9-2.2-1.7-1.3M295 208c0 1.3 1.1 1.3 3 0 1.2-.8 1.1-1-.7-1-1.3 0-2.3.4-2.3 1M303.1 215.1c-1.3.5-2.1 1.2-1.8 1.5.8.9 7.7-.7 7.1-1.7-.6-1.1-2.2-1.1-5.3.2M287.1 215.9c-1.1.7-1.1.9 0 1.4 1.1.4 1 .9-.5 2.1-1.4 1.2-1.6 1.6-.5 1.6 2.4 0 3.6-1.4 3-3.7-.4-1.6-1-2-2-1.4M280 218c0 1.4.7 2 2.2 2 2 0 2.1-.1.3-2-1-1.1-2-2-2.2-2-.1 0-.3.9-.3 2M353 217c0 .5.5 1 1 1 .6 0 1-.5 1-1 0-.6-.4-1-1-1-.5 0-1 .4-1 1M257 229c0 .5.9 1 2 1s2-.5 2-1c0-.6-.9-1-2-1s-2 .4-2 1M272 229l-2.5.8 2.5.1c1.4 0 3.2-.4 4-.9 1.3-.9 1.3-1 0-.9-.8.1-2.6.5-4 .9M323.5 233.6c-1.6.2-5.2.8-8 1.4-2.7.5-10.6 1.4-17.5 2-14.3 1.3-17 1.7-17 2.8 0 .8 16.3 3.2 21.3 3.2 1.6 0 2.6-.4 2.2-1-.6-.9 1-1.5 6.5-2.3 1.5-.3.9-.5-1.6-.6-2.3 0-5.5.4-7.3 1s-3.5.9-3.8.5c-1.1-1.1 5.3-2.8 10.3-2.7 2.9 0 6.5-.6 8-1.4 1.6-.8 4.5-1.5 6.4-1.5s4.2-.5 5-1c1.7-1.1 1.7-1.1-4.5-.4M268.1 239.1c-1.3.5-2.2 1.2-1.9 1.5s2.1-.2 3.9-1c3.7-1.6 1.9-2.1-2-.5M274 243c0 .5-1.7 1-3.7 1-3.5 0-3.6.1-1.7 1.5 1 .8 3.5 1.4 5.4 1.5 2.5 0 3.1-.3 2.1-.9-1-.7 0-1.1 3.5-1.7 3.8-.5 4.4-.9 2.9-1.5-2.9-1.1-8.5-1.1-8.5.1M259.3 243.7c.9.2 2.3.2 3 0 .6-.3-.1-.5-1.8-.5-1.6 0-2.2.2-1.2.5M281 246c-2 .6-2.1.8-.5.8 1.1.1 3.8-.3 6-.7l4-.9H287c-1.9 0-4.6.4-6 .8M281.5 251.6c-.5.2-4.1.8-8 1.3l-7 .9 10.7-.1c5.9 0 10.5-.4 10.2-.8-.2-.4.6-1 1.8-1.2 1.3-.2.3-.5-2.2-.5s-4.9.1-5.5.4M274.8 256.7c.6.2 1.2 1.1 1.2 1.9s.5 1.4 1.1 1.4c.5 0 .7-.5.3-1.1-.3-.6 0-1.5.7-2 1-.6.5-.8-1.6-.8-1.6 0-2.4.3-1.7.6M281.5 266c.3.5 1.3 1 2.1 1s1.2-.5.9-1c-.3-.6-1.3-1-2.1-1s-1.2.4-.9 1M379 239c-.8.5-1.2 1.1-.9 1.4.2.3 1.1.1 1.9-.4s1.2-1.1.9-1.4c-.2-.3-1.1-.1-1.9.4M209 253.6c0 .8.5 1.2 1 .9.6-.3 1-1 1-1.6 0-.5-.4-.9-1-.9-.5 0-1 .7-1 1.6M212.7 253.5c-.4.8-.3 1.6.1 1.9.9.5 3.2-2 2.5-2.8-1-1-2.1-.7-2.6.9M221.2 260.5c0 1.6.2 2.2.5 1.2.2-.9.2-2.3 0-3-.3-.6-.5.1-.5 1.8M238 266c0 .5.7 1 1.5 1s1.5-.5 1.5-1c0-.6-.7-1-1.5-1s-1.5.4-1.5 1M246 284c0 .5.7 1 1.5 1s1.5-.5 1.5-1c0-.6-.7-1-1.5-1s-1.5.4-1.5 1M190 276c0 .5.8 1 1.9 1 1 0 3.2.7 4.7 1.5 3.7 1.9 6.7 1.9 10.5-.1 4.1-2.1 3-2.8-1.9-1.3-3.4 1-4.7.9-8.1-.5-4.7-1.8-7.1-2-7.1-.6M114 300c0 .5.7.7 1.5.4.8-.4 1.5-.8 1.5-1s-.7-.4-1.5-.4-1.5.4-1.5 1M115 308c-.9.6-1 1-.3 1 .6 0 1.5-.5 1.8-1 .8-1.2.4-1.2-1.5 0M134.5 309.5c-2.7.8-6.8 1.4-9 1.5-2.2 0-4.7.5-5.5 1.1-1.1.7.2.9 4.5.4 6.1-.6 16.5-3.2 16.5-4 0-.7-.8-.6-6.5 1M58.6 289.8c.4 5.1 1 6.2 2.9 6.2 1.2 0 1.1-.7-.4-3.4-1.1-1.8-2.1-4.2-2.4-5.2-.3-1.1-.3 0-.1 2.4M155.5 320c-.3.5.1 1 .9 1s1.8-.5 2.1-1c.3-.6-.1-1-.9-1s-1.8.4-2.1 1M136 321c.8.5 2.2 1 3 1 1.3 0 1.3-.1 0-1-.8-.5-2.2-1-3-1-1.3 0-1.3.1 0 1M158 10.1c0 .5.5.7 1 .4.6-.3 1-.8 1-1.1 0-.2-.4-.4-1-.4-.5 0-1 .5-1 1.1M167.3 9.7c1.5.2 3.7.2 5 0 1.2-.2 0-.4-2.8-.4-2.7 0-3.8.2-2.2.4M402.7 10.6c-1.2 1.2.4 2.4 3.4 2.4 1.6 0 2.9-.5 2.9-1 0-.6-.6-1-1.4-1s-2.1-.2-2.8-.5c-.8-.3-1.7-.3-2.1.1M418 10.7c-6.4.7-6.6 1.6-.5 2.4 4 .5 6.2.3 6.7-.4.8-1.4 0-2.7-1.5-2.5-.7 0-2.8.3-4.7.5M380.8 11.7c1.5.3 2.2 1 1.8 1.9-.3.8-.1 1.4.4 1.4.6 0 1-.5 1-1 0-.6 1.7-1.1 3.8-1.1 3.7-.1 3.7-.1.7-.9-1.6-.4-4.6-.8-6.5-.7-2.3 0-2.7.1-1.2.4M394.5 15.7c.6 3.3.5 3.5-.9 2.4-1.3-1.1-1.6-1.1-1.6.3 0 .9.5 1.6 1 1.6.6 0 1 1.5 1.1 3.2.1 3.1.2 3.1 1.3-1.2 1.3-4.8 1-10-.6-10-.6 0-.8 1.4-.3 3.7M299 16.6c0 2.1.1 3.5.3 3.3.1-.2 1-1.4 2-2.6 1.8-2.1 1.8-2.2-.2-3.3-2-1-2.1-.8-2.1 2.6M431 14c-1.1.7.2 1 4.3 1 3.1 0 5.7-.4 5.7-1 0-1.3-8-1.3-10 0M443.5 14c.3.5 1.6 1 2.8 1 1.8 0 1.9-.2.7-1-2-1.3-4.3-1.3-3.5 0M210 15.1c0 .5.5.7 1 .4.6-.3 1-.8 1-1.1 0-.2-.4-.4-1-.4-.5 0-1 .5-1 1.1M378 15c0 .5.9 1.4 2 2 2.2 1.2 2.7.1.8-1.8-1.4-1.4-2.8-1.6-2.8-.2M388 16.5c.7.8 1.7 1.5 2.2 1.5.6 0 .5-.7-.2-1.5s-1.7-1.5-2.2-1.5c-.6 0-.5.7.2 1.5M304 16.4c0 .2.7.7 1.6 1 .8.3 1.2.2.9-.4-.6-1-2.5-1.4-2.5-.6M373 18c0 .5.7 1 1.6 1 .8 0 1.2-.5.9-1-.3-.6-1-1-1.6-1-.5 0-.9.4-.9 1M377 18c0 .5.5 1 1 1 .6 0 1-.5 1-1 0-.6-.4-1-1-1-.5 0-1 .4-1 1M388.1 20.9c1.2 1.7 2.6 2.8 3.1 2.5 1.1-.7-.8-3.1-3.5-4.5-1.7-1-1.6-.7.4 2M278.8 19.7c.6.2 1.8.2 2.5 0 .6-.3.1-.5-1.3-.5s-1.9.2-1.2.5M177 22c-1.2.8-1.1 1 .8 1 1.2 0 2.2-.5 2.2-1 0-1.3-1.1-1.3-3 0M183.3 21.7c.9.2 2.3.2 3 0 .6-.3-.1-.5-1.8-.5-1.6 0-2.2.2-1.2.5M203.2 21.7c-1.2.2-2 .8-1.7 1.3s1.9.4 3.6 0c5.7-1.7 4.5-2.5-1.9-1.3M214.4 21.7c1 1.1 10.6 1.2 10.6.1 0-.4-2.5-.8-5.7-.8-3.1 0-5.3.3-4.9.7M236.3 22.3c-2.5 1.1-3.1 2.7-1 2.7 1.7-.1 5-2.7 4-3.3-.4-.2-1.8 0-3 .6M274.9 24c2.4 1.1 4.9 1.9 5.5 1.7 1.5-.5-2.2-2.3-6.4-3.1-3.4-.7-3.4-.6.9 1.4M243 23.8c0 2.1 4.6 3.2 9.5 2.3l5-.9-5.7-.1c-3.1 0-6-.6-6.3-1.1-.7-1.2-2.5-1.3-2.5-.2M295.6 24.9c-.4.5-.2 1.2.3 1.5.5.4 1.2.2 1.5-.3.4-.5.2-1.2-.3-1.5-.5-.4-1.2-.2-1.5.3M173.2 27c0 1.4.2 1.9.5 1.2.2-.6.2-1.8 0-2.5-.3-.6-.5-.1-.5 1.3M220 27c-2.2.7-2.1.8 1.2.9 2 .1 4-.4 4.3-.9.7-1.2-1.9-1.2-5.5 0M280 27.4c0 .2.7.6 1.5 1 .8.3 1.5.1 1.5-.4 0-.6-.7-1-1.5-1s-1.5.2-1.5.4M257 29c0 .5.7 1 1.6 1 .8 0 1.2-.5.9-1-.3-.6-1-1-1.6-1-.5 0-.9.4-.9 1M295 28.9c0 .6.5 1.3 1 1.6.6.3 1-.1 1-.9 0-.9-.4-1.6-1-1.6-.5 0-1 .4-1 .9M271 29.9c0 .6 1.2 1.1 2.8 1.1 1.5 0 3.8.3 5.2.6 1.7.5 2.2.3 1.5-.4-1.5-1.5-9.5-2.6-9.5-1.3M170 30.9c-1.4.4-2 1-1.5 1.3 1.6.9 11.5.7 12.1-.3.3-.5-.8-.9-2.5-.9-1.6 0-3.5-.2-4.3-.4-.7-.2-2.4-.1-3.8.3M217.8 31.4c-.8.8-3 1.6-4.9 1.9-2.8.3-2.5.4 1.4.5 3.5.2 4.9-.2 5.4-1.3.8-2.3-.2-2.8-1.9-1.1M148.6 31.9c1.5 1.4 8.8 2.1 10.4 1.1.8-.5 1.1-1 .5-1.1-6.8-.6-11.6-.6-10.9 0M161.5 32c.3.5.8 1 1.1 1 .2 0 .4-.5.4-1 0-.6-.5-1-1.1-1-.5 0-.7.4-.4 1M199 32.5c-1.1 1.3-.7 1.5 2.6 1.4 2.2 0 3.2-.3 2.4-.6s-2-1-2.6-1.4c-.7-.6-1.6-.3-2.4.6M206.8 31.7c.6.2 1.8.2 2.5 0 .6-.3.1-.5-1.3-.5s-1.9.2-1.2.5M143 33c-1.2.8-1.1 1 .7 1 1.2 0 2.5-.5 2.8-1 .8-1.3-1.5-1.3-3.5 0M129.1 35.1c-1.8 1.1-3.1 2.3-2.8 2.6.7.6 6.7-2.8 6.7-3.9s0-1.1-3.9 1.3M180.6 35.1c.3.6 1.5.9 2.5.6s2.1-.1 2.4.4c.7 1 3.5.1 3.5-1.2 0-.5-2.1-.9-4.6-.9-3 0-4.3.4-3.8 1.1M294.6 35.6c-.9 2.4-.7 8.2.3 8.6.5.2.6 3.2.2 7-.4 4.1-.3 6.9.3 7.1.5.2.2 1.4-.7 2.8-1.1 1.6-1.3 2.9-.7 3.9.8 1.3 1 1.2 1-.3 0-2 1.6-2.3 2.3-.5.2.7.2.1 0-1.5-.3-1.8 0-2.9 1.1-3.3s1.6-1.8 1.5-4.3c-.2-3-.3-3.1-.6-.9-.2 1.6-.9 2.8-1.4 2.8-1 0-1.1-2.6-1-15.3.1-7.2-.9-9.8-2.3-6.1M441.5 37.1c-.5 1.6-1.3 2-3.3 1.6-2.7-.5-7.2 1-7.2 2.5 0 .5.9.4 1.9-.2 1.1-.5 3.3-1 5-1 4.2 0 6.1-.9 6.1-3.1 0-2.6-1.7-2.4-2.5.2M271.5 37c-.3.5.1 1 .9 1 .9 0 1.6-.5 1.6-1 0-.6-.4-1-.9-1-.6 0-1.3.4-1.6 1M280.4 37.4c-.8 2.2.3 3.3 1.8 1.8.9-.9.9-1.5 0-2.4s-1.3-.7-1.8.6M390.6 37.5c-.3.9-.6 2.6-.7 3.8 0 1.2-.3 1.6-.6.9-1.1-2.7-2.1-.9-2.5 4.3-.1 3 0 5.5.5 5.5.4 0 .7-.5.7-1.2 0-.6.8-.4 1.9.6 1.7 1.6 1.9 1.5 2.4-2.1.3-2.1.8-4.7 1-5.8s.2-1.4 0-.8c-.5 1.6-2.3 1.7-2.3.2 0-.6.5-2 1.1-3.1.7-1.3.7-2.4.1-3s-1.2-.3-1.6.7m-.1 7.5c.3.5.3 1.5-.1 2.1-.6 1.1-2.3-.6-2.4-2.4 0-1 1.8-.9 2.5.3M121.8 39.7c.7.3 1.6.2 1.9-.1.4-.3-.2-.6-1.3-.5-1.1 0-1.4.3-.6.6M144.6 40.7c-.6 1.4-.5 1.5.5.6.7-.7 1-1.5.7-1.8s-.9.2-1.2 1.2M208.4 42.5c.4 1.5.2 2.5-.4 2.5s-.8.5-.5 1c1.1 1.7 3.5-.9 3.5-3.6 0-1.5-.6-2.4-1.6-2.4-1.2 0-1.5.6-1 2.5M424.7 40.7c-1.2 1.2-.7 2.2.8 1.7.8-.4 1.5-1 1.5-1.5 0-1.1-1.4-1.2-2.3-.2M129.2 44.4c-1.2 1.4-1.9 2.7-1.4 3 1 .6 5.2-3 5.2-4.4 0-1.6-1.4-1.1-3.8 1.4M381 43.5c-1 1.2-1 1.5.4 1.5.9 0 1.6-.7 1.6-1.5s-.2-1.5-.4-1.5-.9.7-1.6 1.5M427 44c0 .5.5 1 1 1 .6 0 1-.5 1-1 0-.6-.4-1-1-1-.5 0-1 .4-1 1M418.4 45.5c-.3.8-.3 1.9.1 2.5.8 1.3-.1 1.3-2.5-.2-2.3-1.5-3.7-.4-2.1 1.6 1.3 1.6 6.9 3.2 7.8 2.2.3-.3 0-1.2-.7-2.1-1-1.2-1-1.5.4-1.5s1.4-.3.4-2c-1.5-2.4-2.7-2.5-3.4-.5M429 47.1c-2 1.1-2.7 1.9-1.8 1.9 2.3 0 6.8-2.1 6.8-3.2 0-1.2-1.1-.9-5 1.3M407.8 47.7c.7.3 1.6.2 1.9-.1.4-.3-.2-.6-1.3-.5-1.1 0-1.4.3-.6.6M143.1 50.4c-.8.9-1.1 1.9-.7 2.3.9.9 2.9-1.3 2.4-2.7-.2-.8-.8-.7-1.7.4M401 50.5c0 1.3 4.7 1.8 6.8.6 1.1-.6.4-1-2.6-1.3-2.5-.2-4.2.1-4.2.7M187.5 51c-.3.5-.1 1 .4 1 .6 0 1.1-.5 1.1-1 0-.6-.2-1-.4-1-.3 0-.8.4-1.1 1M443.8 50.7c.7.3 1.6.2 1.9-.1.4-.3-.2-.6-1.3-.5-1.1 0-1.4.3-.6.6M412.6 51.8c-.6 1 7.2 5.7 8.1 4.9.2-.3-.6-1.1-1.9-1.8-1.2-.6-2.7-1.8-3.1-2.5-.9-1.6-2.3-1.8-3.1-.6M197.5 53c-.3.5-.1 1 .4 1 .6 0 1.1-.5 1.1-1 0-.6-.2-1-.4-1-.3 0-.8.4-1.1 1M397.2 52.8c-.9.2-.4.9 1.3 1.8 3.4 1.7 3.6 1.7 2.9 0s-2.4-2.5-4.2-1.8M402 52.6c0 .4 1.2 1.8 2.6 3.1 1.8 1.7 2.5 1.9 2 .8-.3-.9-.6-1.8-.6-2 0-.3-.9-.9-2-1.5s-2-.8-2-.4M185.5 54.2c-1 3.1-1.5 9.2-.6 8.3 1.1-1.2 2.6-9.5 1.7-9.5-.4 0-.9.6-1.1 1.2M256.1 56.4c-.9 1.1-.9 1.6 0 2.2.7.4 1.5.2 1.7-.4.2-.7 1-1.2 1.8-1.2.9 0 1.2-.5.9-1-.9-1.4-3.1-1.2-4.4.4M303.1 56.4c-.8 1-.9 1.6-.1 2.1.5.3 1 0 1-.9 0-.8.6-1.7 1.3-1.9.7-.4.8-.6.1-.6-.6-.1-1.7.5-2.3 1.3M388 55.8c0 .5.7 1.3 1.6 1.6 1 .4 1.4.1 1.2-.6-.5-1.5-2.8-2.3-2.8-1M428.8 55.7c.6.2 1.8.2 2.5 0 .6-.3.1-.5-1.3-.5s-1.9.2-1.2.5M309 58c0 .5 1 1 2.3 1 1.8 0 1.9-.2.7-1-1.9-1.3-3-1.3-3 0M138.5 59.1c-1.1 1.7.1 2.1 1.5.4.8-.9.8-1.5.2-1.5s-1.4.5-1.7 1.1M179 59.6l-2.5 1.4 3-.6c3.5-.8 3.9-1 2.8-1.7-.5-.3-1.9.1-3.3.9M414.5 59c-.4.6.7 1.3 2.5 1.6 2.2.5 2.9 1.1 2.5 2.1-.4 1.1-.1 1.3 1.2.8 1-.4 3.8-1.2 6.3-1.7 7-1.5 7.9-2 5-2.8-3.7-1.2-5.2-1.1-4.5 0 .6 1-3.8.7-10.2-.6-1.2-.2-2.5 0-2.8.6M437.4 59.2c-.3.5 1.8.8 4.5.8 2.8 0 5.1-.4 5.1-.9 0-1-9-.9-9.6.1M449.8 58.7c.7.3 1.6.2 1.9-.1.4-.3-.2-.6-1.3-.5-1.1 0-1.4.3-.6.6M373 59.9c0 .5.5 1.3 1 1.6.6.3 1 .2 1-.4 0-.5-.4-1.3-1-1.6-.5-.3-1-.2-1 .4M159.5 60.7c-2.3.6-4.5 2.3-2.8 2.3.6 0 2.6-.7 4.4-1.5 3.3-1.4 2.5-1.8-1.6-.8M171 61c0 .5.7 1 1.5 1s1.5-.5 1.5-1c0-.6-.7-1-1.5-1s-1.5.4-1.5 1M199.5 61c-.3.6.1 1.3 1 1.6 1.9.8 3 0 2-1.5-.8-1.4-2.2-1.4-3-.1M125.4 62.5c-1.9 1.4-1.9 1.4.2 1.5 1.1 0 2.9-.7 4-1.5 1.9-1.4 1.9-1.4-.2-1.5-1.1 0-2.9.7-4 1.5M134 62c0 .6 3.5 1 7.7 1s7.4-.2 7.2-.5c-1-1-14.9-1.4-14.9-.5M207 63c.8.5 2.2.9 3 .9 1 0 .8-.3-.5-.9-2.7-1.2-4.3-1.2-2.5 0M162 64c-1.2.8-1.1 1 .8 1 1.2 0 2.2-.5 2.2-1 0-1.3-1.1-1.3-3 0M430.7 64.7c-.4.3-.7 1.6-.7 2.7.1 2.1.1 2.1 1.5.2.8-1.1 1.5-2.3 1.5-2.8 0-1-1.4-1.1-2.3-.1M155 66l-2.5.8 2.5.1c1.4 0 3.2-.4 4-.9 1.3-.9 1.3-1 0-.9-.8.1-2.6.5-4 .9M435 66c0 .5 1.4 1.6 3 2.5 3.2 1.7 3.8 1.1 1.6-1.8-1.4-1.8-4.6-2.4-4.6-.7M123.5 67c-.3.5-1.7 1-3.1 1-1.3 0-2.4.5-2.4 1.1 0 .8 1.6 1 5.1.6 6.9-.8 7.8-1.7 3.2-3.1-1.2-.4-2.4-.2-2.8.4M402.7 67.9c.6 2.4-1.2 2.9-2.1.6-.6-1.6-2.6-2.1-2.6-.6 0 .4 1 1.9 2.3 3.3 1.2 1.4 3 3.5 3.9 4.7 1 1.1 2.7 2.1 3.8 2.1s2 .7 2 1.5c0 .9.7 1.8 1.6 2.2.8.3 1.3 1.2 1 1.9-.4 1 .1 1.1 2.1.3 1.9-.7 2.8-.6 3.4.3.4.7 1.1.9 1.4.6.4-.4 1.8-.3 3.1.2s2.4.6 2.4.1c0-1.1-2.5-2.1-5.1-2.1-2.3 0-2.4-1.3-.3-3.5.9-.8 1.3-2.2 1-3.1-.7-1.9-2.8-.8-2.4 1.3.2.8-.7 2.2-2 3-2 1.4-2.2 1.4-1.6 0 .3-.9.2-2.2-.2-2.8-.5-.9-.9-.7-1.5.7-.6 1.7-.8 1.6-1.4-.9-.6-2.1-1.3-2.7-3.6-2.7-3 0-3.2-.3-3.3-5.4-.1-1.6-.6-3.1-1.3-3.3-.7-.3-.9.3-.6 1.6M206.8 67.7c.7.3 1.6.2 1.9-.1.4-.3-.2-.6-1.3-.5-1.1 0-1.4.3-.6.6M209.9 69.4c-1.3 2.7-1.7 2.9-5.9 2.7-2-.2-2.2 0-1 .8 2.9 2 5.8 1.2 7.4-2.1.9-1.7 1.4-3.3 1.1-3.6-.2-.2-1 .7-1.6 2.2M169.5 69c.4.6 1.1.8 1.6.5 1.4-.9 1.1-1.5-.7-1.5-.8 0-1.2.5-.9 1M175.3 68.7c.9.2 2.3.2 3 0 .6-.3-.1-.5-1.8-.5-1.6 0-2.2.2-1.2.5M183.8 68.7c.6.2 1.8.2 2.5 0 .6-.3.1-.5-1.3-.5s-1.9.2-1.2.5M293.7 70.4c-.4 1.5-.6 3.1-.2 3.4 1 1 1.6-.6 1.3-3.5l-.3-2.8zM131.3 70.7c.9.2 2.3.2 3 0 .6-.3-.1-.5-1.8-.5-1.6 0-2.2.2-1.2.5M150 70.9c-1.7.5-2.1.9-1.3 1.4 1.2.7 5.3-.7 5.3-1.8 0-.6-.7-.5-4 .4M427.4 71.6l-2.9 1.2 2.7.1c1.5.1 3.4.8 4.2 1.7 1.4 1.3 1.6 1.3 1.6 0 0-.8.7-1.6 1.6-1.8 1.1-.2.6-.7-1.4-1.4-2.2-.9-3.6-.8-5.8.2"/>
	<path d="M409.6 72.9c.5.5 2.1 1.3 3.7 1.6 2.1.6 2.7.4 2.7-.9 0-1.2-1-1.6-3.7-1.6-2.3 0-3.3.4-2.7.9M439.6 74.5c.4.8 1 1.5 1.5 1.5s.9-.7.9-1.5-.7-1.5-1.5-1.5c-.9 0-1.2.6-.9 1.5M423.5 75c-.8 1.3.6 4 2 4 .7 0 1.5-.6 1.8-1.3.3-1 .9-1 2.6 0 2.5 1.5 10.1 1.7 10.1.3 0-.6-2.2-1-4.9-1-2.8 0-5.2-.4-5.5-.9-.8-1.2-5.5-2-6.1-1.1M444 75c0 .5.9 1 1.9 1 1.1 0 2.3-.5 2.6-1 .4-.6-.5-1-1.9-1s-2.6.4-2.6 1M213.6 76.5c-.3.8-.1 1.5.4 1.5.6 0 1-.7 1-1.5s-.2-1.5-.4-1.5-.6.7-1 1.5M132.5 77c-3 .8-3 .8.8.9 2 0 3.7-.4 3.7-.9 0-1.1-.2-1.1-4.5 0M148.5 77.1c-.4.6-.5 1.3-.2 1.6.7.7 2.7-.6 2.7-1.8s-1.7-1.2-2.5.2M141.8 78.7c.7.3 1.6.2 1.9-.1.4-.3-.2-.6-1.3-.5-1.1 0-1.4.3-.6.6M400.5 80.6c1.1.8 2.8 2.1 3.8 2.9.9.8 1.7 1.1 1.7.6s-1.3-1.9-2.9-3c-3.3-2.4-5.7-2.8-2.6-.5M294.2 81.2c-.7.7-1.2 3-1.2 5.2 0 2.1.3 3.7.6 3.3.3-.3.6-2.2.6-4.1s.5-3.4 1-3.3c.6.1 1.3-.4 1.5-1.1.6-1.5-.9-1.6-2.5 0M205.8 81.7c-1 .2-1.8.9-1.8 1.3 0 .6 1.2.5 2.7-.1 1.5-.5 3.8-.7 5.1-.4 1.5.4 2.1.2 1.7-.5-.6-1-4.5-1.2-7.7-.3M408 82c0 .5.5 1 1.1 1 .5 0 .7-.5.4-1-.3-.6-.8-1-1.1-1-.2 0-.4.4-.4 1M164 86.1c0 .8 7.9 2.4 8.5 1.7.2-.2-1.6-.8-4-1.4-2.5-.6-4.5-.7-4.5-.3M192.3 85.7c.9.2 2.3.2 3 0 .6-.3-.1-.5-1.8-.5-1.6 0-2.2.2-1.2.5M206.8 85.7c.6.2 1.8.2 2.5 0 .6-.3.1-.5-1.3-.5s-1.9.2-1.2.5M139.3 86.7c.9.2 2.5.2 3.5 0 .9-.3.1-.5-1.8-.5s-2.7.2-1.7.5M408 87.1c0 .5.5.9 1.1.9s2.3.8 3.7 1.9c2.9 2 8.2 3.3 8.2 2 0-.9-4.5-3.1-9.7-4.7-2-.7-3.3-.7-3.3-.1M148 88.4c0 1.3 1 1.6 4.9 1.6 5.2 0 8.1-.7 8.1-2 0-.4-2.3-.3-5.1.2-3.6.7-5.5.6-6.5-.3-1.1-.9-1.4-.8-1.4.5M89.7 88.6c-1.4 1.4-.7 2.5 1.3 2.2 1.2-.2 2.1-.8 2.1-1.3 0-1.2-2.4-1.8-3.4-.9M127.7 90.7c-6.8 2-5.1 2.8 2.1.9 3.2-.8 6.9-1.2 8.1-.9s2.1.1 2.1-.6c0-1.5-6.4-1.2-12.3.6M423 91c.6 1.1 1.9 2.4 3 3 2.5 1.3 4 1.3 1.7-.1-.9-.6-1.5-1.4-1.3-1.8.3-.5-.6-1.3-2-1.9-2.3-1.1-2.4-1-1.4.8M444 90c0 .5.7 1 1.5 1s1.5-.5 1.5-1c0-.6-.7-1-1.5-1s-1.5.4-1.5 1M106.5 92c-.3.5.3 1 1.4 1 1.2 0 2.1-.5 2.1-1 0-.6-.6-1-1.4-1s-1.8.4-2.1 1M431.5 92c-.8 1.3 2 2.4 4.1 1.6 2-.8.9-2.6-1.6-2.6-1 0-2.2.5-2.5 1M113.8 92.7c1.2.2 3 .2 4 0 .9-.3-.1-.5-2.3-.4-2.2 0-3 .2-1.7.4M413.5 97c.3.5 2.2 1 4.1 1 2.1 0 3.3-.4 2.9-1-.3-.6-2.2-1-4.1-1-2.1 0-3.3.4-2.9 1M432 101.1c0 .5 2.4.9 5.4.9s6.3.3 7.3.6c1.5.6 1.6.4.6-.6-1.4-1.6-13.3-2.4-13.3-.9M152 103c0 1.3 1.8 2.2 2.4 1.1.3-.5-.1-1.1-.9-1.5-.8-.3-1.5-.1-1.5.4M428 105c-1.3.8-1.2 1 .5 1.1 3.3.2 6-.2 7-1.2 1.2-1.2-5.6-1.2-7.5.1M449.5 105.1c-1.1 1.7.3 2.3 2.8 1.1 1.2-.6 2.9-1.3 3.7-1.5.8-.3-.2-.6-2.2-.6-2-.1-4 .4-4.3 1M438.5 106c-.3.6.1.7.9.4 1.8-.7 2.1-1.4.7-1.4-.6 0-1.3.4-1.6 1M443.8 105.7c.6.2 1.8.2 2.5 0 .6-.3.1-.5-1.3-.5s-1.9.2-1.2.5M139.2 108.7c1.5 1.5 3.1 2.4 3.4 2 1-1-2.6-4.7-4.5-4.7-1.1 0-.8.7 1.1 2.7M133 109c0 .5 1.2 1 2.8 1 2.1 0 2.4-.2 1.2-1-2-1.3-4-1.3-4 0M126.8 109.7c.7.3 1.6.2 1.9-.1.4-.3-.2-.6-1.3-.5-1.1 0-1.4.3-.6.6M98.8 112.7c.6.2 1.8.2 2.5 0 .6-.3.1-.5-1.3-.5s-1.9.2-1.2.5M441.5 113l-4 .7 4.2.2c2.3 0 4.5-.4 4.8-.9.3-.6.3-.9-.2-.9-.4.1-2.6.5-4.8.9M84.8 113.7c.7.3 1.6.2 1.9-.1.4-.3-.2-.6-1.3-.5-1.1 0-1.4.3-.6.6M427.5 114c.8 1.2 6.5 1.3 6.5.2 0-.5-1.6-.9-3.5-1-2.1-.1-3.3.3-3 .8M105.5 115c.3.5 1.3 1 2.1 1s1.4-.5 1.4-1c0-.6-.9-1-2.1-1-1.1 0-1.7.4-1.4 1M126 115c0 1.3 1.1 1.3 3 0 1.2-.8 1.1-1-.7-1-1.3 0-2.3.4-2.3 1M132.5 118c.3.5 1 1 1.6 1 .5 0 .9-.5.9-1 0-.6-.7-1-1.6-1-.8 0-1.2.4-.9 1M185.4 121.5c-1 .8-1.4 1.5-.8 1.5.5 0 1.9-.7 3-1.5 1-.8 1.4-1.5.8-1.5-.5 0-1.9.7-3 1.5M285 121c0 .5.7 1 1.5 1s1.5-.5 1.5-1c0-.6-.7-1-1.5-1s-1.5.4-1.5 1M172 121.9c0 .5-1.5 1.2-3.2 1.4-2.1.2-1.3.4 2.2.5 3 .1 6.2-.3 7-.9 1.2-.8 1-.9-1-.7-1.4.1-3.1-.1-3.7-.5-.7-.5-1.3-.4-1.3.2M444 123c-1.3.9-1.3 1 0 .9.8 0 2.4-.4 3.5-.9l2-.9h-2c-1.1 0-2.7.4-3.5.9M282.2 124.2c-.7.7-1.2 1.8-1.2 2.5 0 1.9 2.7.4 3.3-1.8s-.3-2.5-2.1-.7M123.8 124.7c.7.3 1.6.2 1.9-.1.4-.3-.2-.6-1.3-.5-1.1 0-1.4.3-.6.6M142.5 125c-.4.6.7 1 2.7 1 2.5 0 2.9-.3 1.8-1-1.9-1.3-3.7-1.3-4.5 0M154 125c-1.2.8-1.1 1 .7 1 1.2 0 2.5-.5 2.8-1 .8-1.3-1.5-1.3-3.5 0M162.8 125.7c.7.3 1.6.2 1.9-.1.4-.3-.2-.6-1.3-.5-1.1 0-1.4.3-.6.6M174.3 126.7c.9.2 2.5.2 3.5 0 .9-.3.1-.5-1.8-.5s-2.7.2-1.7.5M101.3 128.7c1.5.2 3.7.2 5 0 1.2-.2 0-.4-2.8-.4-2.7 0-3.8.2-2.2.4M180 129c0 .5 1 1 2.3 1 1.8 0 1.9-.2.7-1-1.9-1.3-3-1.3-3 0M122.7 129.7c-1.3 1.2-.7 2.2 1.3 2 1.1-.1 2-.7 2-1.4 0-1.4-2.2-1.8-3.3-.6M106 131.3c-2.5.6-3.8 1.2-3 1.4s3.5-.3 6-1.1c5.3-1.6 3.5-1.9-3-.3M122.6 134.9c-1.1 1.7 3.7 4.1 7.9 4l4-.2-4.4-.7c-2.4-.4-5-1.4-5.6-2.4-.8-1-1.6-1.3-1.9-.7M87.8 135.7c.7.3 1.6.2 1.9-.1.4-.3-.2-.6-1.3-.5-1.1 0-1.4.3-.6.6M136.5 138.6c-1.3 1-1.5 1.4-.4 1.4 2 0 4.3-1.6 3.2-2.3-.4-.3-1.7.1-2.8.9M162.8 138.3c-1.1.9-1.4 2.2-1.1 4.1l.6 2.9 1.1-3.3c.7-2.3 1.9-3.6 3.6-4.1l2.5-.7-2.5-.1c-1.4 0-3.2.5-4.2 1.2M103.8 138.7c.7.3 1.6.2 1.9-.1.4-.3-.2-.6-1.3-.5-1.1 0-1.4.3-.6.6M439 138.7c0 .5 1.6.9 3.5 1 2 .1 3.3-.3 3-.8-.7-1.1-6.5-1.2-6.5-.2M454.8 138.7c1.8.2 4.5.2 6 0s0-.4-3.3-.4-4.5.2-2.7.4M189.8 140.8c-1 .2-1.8.8-1.8 1.3s1.2.6 2.8.2c1.5-.4 3.9-.7 5.5-.5 8.9.6 14.4.5 15.9-.3 1.6-1-18.4-1.6-22.4-.7M180 142c0 .6.7 1 1.5 1s1.5-.2 1.5-.4-.7-.6-1.5-1c-.8-.3-1.5-.1-1.5.4M433.8 141.7c.7.3 1.6.2 1.9-.1.4-.3-.2-.6-1.3-.5-1.1 0-1.4.3-.6.6M444.7 141.7c-.4.3-.7 2.7-.7 5.2 0 3.3.3 4.2 1.1 3.4.6-.6 1.1-2.8 1.1-4.8 0-3.8-.4-4.9-1.5-3.8M170.8 143.9c-.7 1-2.2 2.1-3.3 2.4-1.5.3-1.4.5.8.6 1.6.1 2.7-.4 2.7-1.2s1-1.9 2.3-2.5c1.7-.8 1.8-1.1.5-1.1-.9-.1-2.3.7-3 1.8M134.7 145c-1.4 1.3-1.6 2.3-.9 3.6 1 1.8 1.6 1.2 2.6-2.9.7-3.2.7-3.2-1.7-.7M142.5 146c-.3.5-.2 1 .4 1 .5 0 1.3-.5 1.6-1 .3-.6.2-1-.4-1-.5 0-1.3.4-1.6 1M430.7 147.7c-1.3 1.2-.7 2.5.8 2 1.1-.5 1.2-.1.4 2s-.7 2.4.6 1.9c1.8-.7 2.1 2 .3 2.8-.7.4.5.4 2.7.1s4.9-.5 6-.5c1.6 0 1.5-.3-.8-1.5-1.6-.8-3.3-1.4-4-1.2-.6.1-1.3-.7-1.5-1.8-.7-3.5-3-5.4-4.5-3.8M450 148.7c-1.3 1.5-1.2 1.6.4 1 1-.4 2-.7 2.2-.7s.4-.5.4-1c0-1.5-1.3-1.2-3 .7M151.3 150.7c-1.6.6-1.7 3.3-.2 3.3.5 0 .7-.5.4-1-.3-.6.3-1 1.5-1s1.8-.5 1.5-1c-.7-1.1-1.3-1.1-3.2-.3M450.5 152c.3.5 2.1 1 3.8.9 2.7 0 2.9-.2 1.2-.9-2.8-1.2-5.7-1.2-5 0M130.3 154c.2.8 1.4 1.6 2.8 1.7 1.9.1 2 .1.4-.4-1.1-.3-2.4-1-2.8-1.7-.6-.7-.7-.6-.4.4M427 154.5c0 .8.9 1.5 2 1.5 1.3 0 1.8-.5 1.4-1.5-.4-.8-1.2-1.5-2-1.5s-1.4.7-1.4 1.5M463 153.7c0 .5-3.7.7-8.1.5-4.5-.2-8.5 0-9 .5s3.3.8 8.3.7c5.9-.1 9.3-.5 9.6-1.3.2-.6.1-1.1-.2-1.1s-.6.3-.6.7M152.2 155.5c-1.1 1.3-.7 1.5 3 1.5h4.3l-2.9-1.5c-3.3-1.8-2.8-1.8-4.4 0M109.5 158c-.3.5-.1 1 .4 1 .6 0 1.1-.5 1.1-1 0-.6-.2-1-.4-1-.3 0-.8.4-1.1 1M118.1 158.6c0 1.1.3 1.4.6.6.3-.7.2-1.6-.1-1.9-.3-.4-.6.2-.5 1.3M430 161c-1.3.9-1.3 1 0 1 1.2 0 1.2.2.2.9-1.1.6-1.1 1 0 1.8 1.7 1.3 4.8 2.4 4.8 1.6 0-.3-.8-1.2-1.7-1.9-3.6-2.7.5-1.3 5.1 1.7 2.6 1.7 4.9 2.9 5.2 2.7.2-.3-1-1.9-2.7-3.7-3.9-4.2-3.3-5 .9-1.1 3.1 2.8 11.4 5.1 12.9 3.6.4-.3-.5-.6-2-.6-1.4 0-2.9-.4-3.2-1-.3-.5-2-1.4-3.8-1.9l-3.2-.9 3.7-.1c2-.1 3.8.3 4 .8s1.9 1.2 3.8 1.5c2.6.5 3.1.4 2-.3-.8-.6-2.3-1.1-3.2-1.1-2.1 0-1.9-2.2.2-3.2.8-.4-.3-.7-2.5-.7-2.3-.1-4.7.5-5.3 1.1-1 1-1.7 1-3.2 0-2.3-1.4-9.9-1.6-12-.2M109.5 163c.3.5 1.6 1 2.8 1 1.8 0 1.9-.2.7-1-2-1.3-4.3-1.3-3.5 0M160 163.8c0 1-.7 2.8-1.6 4-2 2.8-.8 4.5 1.2 1.8 1.3-1.9 2-7.6.9-7.6-.3 0-.5.8-.5 1.8M98.8 163.7c.7.3 1.6.2 1.9-.1.4-.3-.2-.6-1.3-.5-1.1 0-1.4.3-.6.6M92.8 164.7c.6.2 1.8.2 2.5 0 .6-.3.1-.5-1.3-.5s-1.9.2-1.2.5M79 166c-1.3.9-1.3 1 0 1 .8 0 2.2-.5 3-1 1.3-.9 1.3-1 0-1-.8 0-2.2.5-3 1M136.8 165.7c.7.3 1.6.2 1.9-.1.4-.3-.2-.6-1.3-.5-1.1 0-1.4.3-.6.6M173.8 167.7c.7.3 1.6.2 1.9-.1.4-.3-.2-.6-1.3-.5-1.1 0-1.4.3-.6.6M67.8 168.7c.6.2 1.8.2 2.5 0 .6-.3.1-.5-1.3-.5s-1.9.2-1.2.5M150.9 170c1.3 1.1 3.1 2 4 2 1.2 0 1-.5-.9-2-3.4-2.7-6.3-2.6-3.1 0M430.8 168.7c.7.3 1.6.2 1.9-.1.4-.3-.2-.6-1.3-.5-1.1 0-1.4.3-.6.6M98 176c-1.1.8-.7.9 1.5.4 3.7-.8 4.5-1.4 1.9-1.4-1 0-2.6.5-3.4 1M135.3 178.7c.9.2 2.3.2 3 0 .6-.3-.1-.5-1.8-.5-1.6 0-2.2.2-1.2.5M142.8 178.7c.6.2 1.8.2 2.5 0 .6-.3.1-.5-1.3-.5s-1.9.2-1.2.5M107.7 181.3c-1.1 2.9-.9 4.3.4 3 .6-.6.9-1.9.7-2.9-.3-1.8-.4-1.8-1.1-.1M111.7 180.6c-1.1 1.1.3 2.4 1.8 1.8.8-.4 1.2-1 .9-1.5-.6-1.1-1.8-1.2-2.7-.3M146 182c12.2 1.2 12.4 1.2 14.5 1 4.7-.5-4.5-1.8-13-1.7h-9zM436.5 184.4c1.7.9 4.4 1.5 6.2 1.6 1.7 0 6.4.6 10.5 1.4 4.3.8 8.8 1.1 10.9.7 3-.6 2.4-.8-4.1-1.5-11.4-1.1-21.2-2.3-24-3-2.1-.5-2-.4.5.8M112.5 185c-.8 1.3 1.5 2.4 2.7 1.2q.9-.9-.6-1.5c-.8-.3-1.8-.2-2.1.3M129.5 193.3c1.7.8 3.2 1.3 3.4 1.1.7-.7-.3-1.2-3.4-1.9l-3-.6zM137 195c0 .5.9 1 2.1 1 1.1 0 1.7-.5 1.4-1-.3-.6-1.3-1-2.1-1s-1.4.4-1.4 1M428 199c0 .5.9 1 2.1 1 1.1 0 1.7-.5 1.4-1-.3-.6-1.3-1-2.1-1s-1.4.4-1.4 1M126.8 200.7c1.2.2 3 .2 4 0 .9-.3-.1-.5-2.3-.4-2.2 0-3 .2-1.7.4M116.8 201.7c.7.3 1.6.2 1.9-.1.4-.3-.2-.6-1.3-.5-1.1 0-1.4.3-.6.6M435.6 202.9c-.3.4 1.1 1.7 3.2 2.7 2 1 3.9 2.2 4 2.6.6 1.4 3.2.8 3.2-.7 0-.8-.7-1.5-1.6-1.5s-2.7-.9-4.1-2c-2.8-2.2-3.9-2.5-4.7-1.1M110 204c-1.2.8-1.1 1 .8 1 1.2 0 2.2-.5 2.2-1 0-1.3-1.1-1.3-3 0M425.8 204.9c1.2 1 2.2 2.6 2.2 3.5s.5 1.6 1.1 1.6c.7 0 1.8.8 2.5 1.7.7 1 1.6 1.5 2 1.1s.1-1.5-.7-2.5c-1.2-1.5-1.2-1.6.6-1l2 .7-2-1.6c-1.1-.8-3.8-2.4-6-3.5-4-2-4-2-1.7 0M431.5 205c.3.5 1.2 1 1.9 1s2.1.9 3.1 2c1.3 1.4 1.4 2 .5 2-.7 0-1.1.3-.7.6.3.3 1 .3 1.6 0 1.6-1 .1-3.5-3-5.1-3.3-1.8-4.3-1.9-3.4-.5M103.4 208.1c-.3.6-.1 1.6.5 2.2.8.8 1.1.5 1.1-1.1 0-2.4-.5-2.8-1.6-1.1M447.7 207.7c-.3.2.6 1.6 1.9 3s2.7 2.3 3.1 2c.3-.4-.6-1.8-2-3.1s-2.8-2.2-3-1.9M453.5 208c.4.6 1.1.8 1.6.5 1.4-.9 1.1-1.5-.7-1.5-.8 0-1.2.5-.9 1M119.8 211.7c.7.3 1.6.2 1.9-.1.4-.3-.2-.6-1.3-.5-1.1 0-1.4.3-.6.6M142 212c0 1.3 1.1 1.3 3 0 1.2-.8 1.1-1-.7-1-1.3 0-2.3.4-2.3 1M446.7 213c-.3 1.3 0 2 .9 2 1.5 0 1.9-2.6.5-3.4-.5-.3-1.1.3-1.4 1.4M108.5 213c-1.6.7-1.1.9 2 .9 2.9.1 3.6-.2 2.5-.9-1.7-1.1-1.9-1.1-4.5 0M128.5 213c1.1.5 3.1.8 4.5.8h2.5l-2.5-.8c-1.4-.4-3.4-.8-4.5-.8l-2-.1zM409.8 212.7c.6.2 1.8.2 2.5 0 .6-.3.1-.5-1.3-.5s-1.9.2-1.2.5M441 214c0 .5.5 1 1.1 1 .5 0 .7-.5.4-1-.3-.6-.8-1-1.1-1-.2 0-.4.4-.4 1M405.4 217.7c.3.4 2.8.8 5.4.9 3.3.2 4.1 0 2.7-.6-2.4-1-9.1-1.3-8.1-.3M124.8 220.7c.7.3 1.6.2 1.9-.1.4-.3-.2-.6-1.3-.5-1.1 0-1.4.3-.6.6M137 222.6c0 .8.5 1.2 1 .9.6-.4.8-1.1.5-1.6-.9-1.4-1.5-1.1-1.5.7M422.5 225.8c3.1 1.4 10.3 2.5 8.4 1.3-.9-.6-3.6-1.3-6-1.6q-4.5-.6-2.4.3M72.8 227.7c.6.2 1.8.2 2.5 0 .6-.3.1-.5-1.3-.5s-1.9.2-1.2.5M81.5 229c1.1.5 2.9.9 4 .9h2l-2-.9c-1.1-.5-2.9-.9-4-.9h-2zM433.6 228.9c1.4 1.5 6.4 2.5 6.4 1.3 0-1-3.2-2.2-5.9-2.2-1 0-1.1.3-.5.9M406 230.1c0 .5.5.7 1 .4.6-.3 1-.8 1-1.1 0-.2-.4-.4-1-.4-.5 0-1 .5-1 1.1M95.3 230.7c.9.2 2.3.2 3 0 .6-.3-.1-.5-1.8-.5-1.6 0-2.2.2-1.2.5M114 232.4c0 .2.7.6 1.5 1 .8.3 1.5.1 1.5-.4 0-.6-.7-1-1.5-1s-1.5.2-1.5.4M420.5 235c.3.5 1.1 1 1.6 1 .6 0 .7-.5.4-1-.3-.6-1.1-1-1.6-1-.6 0-.7.4-.4 1M127.5 240c.3.5.8 1 1.1 1 .2 0 .4-.5.4-1 0-.6-.5-1-1.1-1-.5 0-.7.4-.4 1M141.3 241.7c.9.2 2.3.2 3 0 .6-.3-.1-.5-1.8-.5-1.6 0-2.2.2-1.2.5M138 245c-.8.5-1 1-.5 1 .6 0 1.7-.5 2.5-1s1.1-1 .5-1c-.5 0-1.7.5-2.5 1M149.6 244.9c-1 1.5 7.5 2.4 12.5 1.3l4.4-1-6.7-.1c-3.6-.1-7.3-.4-8.1-.7s-1.8-.1-2.1.5M127.1 246.6c0 1.1.3 1.4.6.6.3-.7.2-1.6-.1-1.9-.3-.4-.6.2-.5 1.3M399.8 245.7c.6.2 1.8.2 2.5 0 .6-.3.1-.5-1.3-.5s-1.9.2-1.2.5M138.5 248c-1.9.8-1.9.9.3.9 1.2.1 2.2-.4 2.2-.9 0-.6-.1-1-.2-.9-.2 0-1.2.4-2.3.9M358.5 248c.3.5 1.1 1 1.6 1 .6 0 .7-.5.4-1-.3-.6-1.1-1-1.6-1-.6 0-.7.4-.4 1M111 251c-1.1.8-.7.9 1.5.4 3.7-.8 4.5-1.4 1.9-1.4-1 0-2.6.5-3.4 1M81.8 253.7c.7.3 1.6.2 1.9-.1.4-.3-.2-.6-1.3-.5-1.1 0-1.4.3-.6.6M343.5 253.7c-1.6.3-3.3 1-3.7 1.6-.5.8-1.4.7-3.3-.1-2.1-1-2.6-1-2.3 0 .5 1.4 5.8 3 5.8 1.7 0-.5 1.4-.9 3-.9 1.7 0 3-.5 3-1.1 0-.8.5-.7 1.6.2 1.3 1.1 1.2 1.4-1.3 2.4-2.8 1.2-2.8 1.2-.5 1.9 1.2.4 2.2 1.2 2.2 1.8 0 .5-1.5.1-3.4-1-2.1-1.3-3.6-1.6-3.8-1-.6 1.6-4.8-.1-7.6-3.1l-2.5-2.6.6 2.5c.4 1.4.7 3.3.7 4.4 0 1.5.5 1.7 3 1.2 3.5-.7 4.1 1 .8 2.4-1.8.8-1.2 1 2.9.7 2.9-.2 5.7.1 6.2.6.6.6 1.3.8 1.7.5.3-.4-.9-1.4-2.8-2.4s-2.7-1.9-2-2.2c.7-.2 1.9.1 2.7.8 1.7 1.4 5.5.4 5.5-1.6 0-1.2.4-1.2 2-.2 2.3 1.5 3.8.4 2.1-1.5-.9-1.2-.6-1.4 1.6-1 2.8.3 2.8.3.4-.7-1.3-.6-3.2-.8-4.2-.5-1.2.4-1.9-.1-2.4-1.5-.3-1.1-1.2-1.9-1.8-1.9-.7.1-2.5.4-4.2.6M32.1 254.9c-1.1.7-.9 1 .8 1.6 2.2.7 4.1 0 4.1-1.6 0-1.1-3-1.2-4.9 0M73.3 255.7c-1.3.2-2.3.8-2.3 1.3 0 1.1 6.1.1 7.5-1.1.9-.9-1.1-1-5.2-.2M105.5 256c-1.8.8-1.8.9.5.8 1.4 0 3.6-.4 5-.8 2.4-.8 2.4-.8-.5-.8-1.6 0-3.9.3-5 .8M360.2 259.1c-1.2 1.8-1 2.4 1.7 5.2 3.6 3.6 3.9 3.1 1.1-1.7l-1.9-3.5 3.2.6c1.8.3 3.7 1.1 4.3 1.9.6.7 4.2 1.8 8 2.5 3.8.6 7.7 1.8 8.7 2.7 1.1 1 1.7 1.1 1.7.3 0-1.5-6-4.1-9.5-4.1-1.4 0-4.2-.9-6.2-2-2.1-1.1-4.5-2-5.5-2-.9 0-2-.5-2.3-1-.9-1.5-1.9-1.2-3.3 1.1M62.8 258.7c.7.3 1.6.2 1.9-.1.4-.3-.2-.6-1.3-.5-1.1 0-1.4.3-.6.6M326.5 262.7c-.5 1.2-.9 1.4-1.2.5-.3-.6-1.3-1.2-2.4-1.2-1.8 0-1.8.1-.2 2 1 1.1 2.2 2 2.9 2 .6 0 1.7 1.1 2.4 2.5s2 2.5 2.8 2.5c1.1 0 1.2-.3.3-1.4s-.9-1.5.1-1.9c.9-.3.6-1-.9-2.2-1.3-.9-2.3-2.1-2.3-2.8 0-.8.3-.8 1.2.1.7.7 1.9 1.2 2.7 1.2 1.1 0 1-.4-.5-1.5-2.6-1.9-4-1.9-4.9.2M151.3 263.6c-.7.3-1.3 1.3-1.3 2.2 0 1.4.2 1.5.9.3 1-1.6 5.8-1.9 11.1-.6 2.4.5 3.2.4 2.5-.3-1.1-1.2-11.4-2.4-13.2-1.6M392.5 264c2.7 1.2 4.3 1.2 2.5 0-.8-.5-2.2-.9-3-.9-1 0-.8.3.5.9"/>
	<path d="M368 265c0 1.2 2.8 2.1 3.5 1.1.2-.5-.4-1.1-1.5-1.4s-2-.2-2 .3M416.3 266.5c-1.2.8-2.8 1.2-3.7.9s-1.6-.1-1.6.5c0 1.5 4.3 1.4 5.8-.1.9-.9 1.7-.7 3.6 1.1 1.5 1.4 3.3 2.1 4.8 1.9l2.3-.4-2.5-1.2c-1.4-.7-3.4-1.9-4.5-2.7-1.9-1.3-2.3-1.3-4.2 0M426.2 267.2c.3.7 1.3 1.5 2.2 1.6 1.2.3 1.7-.1 1.4-1-.3-.7-1.3-1.5-2.2-1.6-1.2-.3-1.7.1-1.4 1M338.8 267.7c.7.3 1.6.2 1.9-.1.4-.3-.2-.6-1.3-.5-1.1 0-1.4.3-.6.6M350 268.5c.7.9 1.5 1.3 1.7 1.1.7-.7-.7-2.6-1.9-2.6-.6 0-.6.6.2 1.5M343.6 269.8c-.3.5.3 1.7 1.4 2.7 1.7 1.5 2 1.6 2 .3 0-1.9-2.6-4.2-3.4-3M386.5 269.8c.3.4 2.9.9 5.8 1.3 2.9.3 6.9 1.4 9 2.3 2 .9 3.7 1.3 3.7.9 0-1.4-8.3-4.1-13.8-4.6-2.9-.2-5-.2-4.7.1M341.5 274.5c2.2 1.9 4.5 3.5 5 3.4.6 0-.8-1.5-3-3.4s-4.4-3.5-5-3.4c-.5 0 .8 1.5 3 3.4M348.9 272.4c.8.9.8 1.6.2 2-1.2.8-.3 3.6 1.1 3.6.6 0 .4-.8-.3-1.7-1.2-1.5-1.2-1.6.8-1.1 2.1.6 2.1.5.6-1.8-.8-1.3-2-2.4-2.5-2.4-.6 0-.6.6.1 1.4M336.1 274.7c1.3 1.6 2.8 3 3.3 3.2.4.2 1.6 1.2 2.4 2.2.9 1.1 2.2 1.9 3 1.9 1.6 0-1.7-4.9-3.4-5-.6 0-2.1-1.1-3.4-2.5-3.2-3.4-5-3.2-1.9.2M355.2 275.2c.8 1.2 2.5 2.5 3.8 3 2.4.9 2.4.9.4-1.3l-1.9-2.2 2.5.8c1.4.4 2.2.4 1.8 0-.3-.4-2.3-1-4.3-1.5-3.5-.8-3.6-.7-2.3 1.2M409.5 274c.3.5 1.3 1 2.1 1s1.4-.5 1.4-1c0-.6-.9-1-2.1-1-1.1 0-1.7.4-1.4 1M332 274.4c0 .2.8 1 1.8 1.7 1.5 1.3 1.6 1.2.3-.4s-2.1-2.1-2.1-1.3M321.4 277.9c1.7 2.2 2.3 3.6 1.7 4.1-.7.4-.2 1.5 1.4 3 1.9 1.8 2.4 2 1.9.7-.3-.9-1-1.7-1.6-1.7-.5 0-.7-.8-.4-1.8.4-1.2-.4-2.8-2.6-4.8l-3.2-2.9zM324.9 277.4c1.4 1.4 2.6 2.4 2.9 2.2.7-.8-.8-2.5-3.1-3.7-2.1-1.1-2.1-1 .2 1.5M365 275.4c0 .3 1.1 2.2 2.5 4.2 2.9 4.3 6 6.7 7.8 6.1.7-.2-.2-1.2-2-2.3-1.7-1-3.7-3.2-4.5-4.8-1.1-2.6-3.8-4.8-3.8-3.2M378 277c0 .6.7 1 1.5 1s1.5-.2 1.5-.4-.7-.6-1.5-1c-.8-.3-1.5-.1-1.5.4M373 278.6c7.8 3.6 10.2 4.1 5.7 1.1-1.2-.8-3.8-1.7-5.7-2.1l-3.5-.7zM383.5 279c.3.5 1.6 1 2.8 1 1.8 0 1.9-.2.7-1-2-1.3-4.3-1.3-3.5 0M352.3 279.6c.9.3 1.5.9 1.2 1.4-.3.4.2 1.3 1 2 1.3 1.1 1.4.9.7-1.1-.5-1.3-1.8-2.5-2.8-2.6-1.6-.2-1.7-.1-.1.3M356.7 280.6c.6 1.5 2.3 1.9 2.3.5 0-.5-.7-1.1-1.4-1.4q-1.5-.6-.9.9M318 282.9c1.2 2.2 5.1 5.3 5.9 4.6.2-.3-.5-1.6-1.7-2.8-1.2-1.3-1.9-2.7-1.5-3 .3-.4-.4-.7-1.6-.7-1.8 0-2 .3-1.1 1.9M394 281.8c0 .4 1.6 1.2 3.5 1.8 4.4 1.4 4.7 0 .4-1.5-3.8-1.3-3.9-1.3-3.9-.3M363.2 283.7c.2.9 1 1.9 1.8 2.1 1.2.4 1.3.3.3-1-.7-.8-1-1.8-.6-2.1.3-.4.1-.7-.6-.7s-1.1.8-.9 1.7M384.5 282.7c1.7.3 3.9 1.3 5 2.3 1.3 1.2 3.4 1.8 6.2 1.7 2.9-.1 3.8-.4 2.7-1-.9-.5-2.4-.7-3.4-.4-1.1.3-2.6-.3-3.6-1.4-1.2-1.3-2.9-1.9-5.8-1.8-3.4.2-3.6.3-1.1.6M329 284.5c0 1.7 3.2 2.8 4.1 1.4q.6-1.2 2.7.9c2.6 2.6 3.7 1.6 1.2-1.1-2.2-2.3-8-3.2-8-1.2M340.4 284.5c-1.9 1.5-1.9 1.6.1 1.3 1.1-.1 2.6.1 3.3.5 1.6 1.1 1.6-.8-.1-2.2-1-.8-1.9-.7-3.3.4M349.1 284.6c-1.2 1.4-1.1 1.6.4 1.2 1-.1 2-.9 2.3-1.6.5-1.7-1-1.5-2.7.4M405 286.5c-1 1.2-1 1.5.4 1.5.9 0 1.6-.7 1.6-1.5s-.2-1.5-.4-1.5-.9.7-1.6 1.5M342.2 288.2c.7.7 2.2 2 3.3 2.8 1.5 1 1.4.7-.4-1.3-1.4-1.5-2.9-2.7-3.3-2.7-.5 0-.3.6.4 1.2M354.7 288.3c-1 2.7-1 2.7 2.3 2.7 1.7 0 3-.4 3-.9s-.9-.7-1.9-.4c-1.3.3-2-.1-2.3-1.4-.3-1.7-.4-1.7-1.1 0M319.5 289c.3.5 1.1 1 1.6 1 .6 0 .7-.5.4-1-.3-.6-1.1-1-1.6-1-.6 0-.7.4-.4 1M334 290.5c.7.9 1.5 1.3 1.7 1.1.7-.7-.7-2.6-1.9-2.6-.6 0-.6.6.2 1.5M362.1 290.6c0 1.1.3 1.4.6.6.3-.7.2-1.6-.1-1.9-.3-.4-.6.2-.5 1.3M318 291c0 .5.5 1 1.1 1 .5 0 .7-.5.4-1-.3-.6-.8-1-1.1-1-.2 0-.4.4-.4 1M321.5 292c-.4.6.3 1 1.4 1 2.5 0 2.7-.6.6-1.3-.8-.4-1.7-.2-2 .3M351.2 292.4c.7.8 1.5 1.2 1.7 1.1.5-.6-1-2.5-2-2.5-.5 0-.4.6.3 1.4M314.6 293.5c-.3.8-.1 1.5.4 1.5s1.5.6 2.2 1.3c1 1 1.8 1 3.7.1l2.3-1.2-3.1-.7c-1.7-.4-3.1-1.1-3.1-1.6 0-1.5-1.7-1-2.4.6M329.3 292.7c.9.2 2.3.2 3 0 .6-.3-.1-.5-1.8-.5-1.6 0-2.2.2-1.2.5M337.5 293c.3.5 1 1 1.6 1 .5 0 .9-.5.9-1 0-.6-.7-1-1.6-1-.8 0-1.2.4-.9 1M346.6 293.6c-1.9 1.4-1.9 1.4.1 1.4 1.2 0 2.5.4 2.8 1 .3.5 1.6 1 2.8.9 2-.1 1.9-.2-.5-1.2-1.5-.6-2.9-1.6-3-2.3-.2-1-.7-.9-2.2.2M363 294c-1.3.8-1.2 1 .3 1 .9 0 1.7-.5 1.7-1 0-1.2-.1-1.2-2 0M369.7 296.6c.9 1.4 2.5 2.4 3.9 2.4 3.5 0 2.9-1.3-1.6-3.2l-3.9-1.6zM325.5 296c-1.7.7-1.5.9 1.3.9 1.7.1 3.2-.4 3.2-.9 0-1.2-1.7-1.2-4.5 0M334.3 297.7c1.5.2 3.9.2 5.5 0 1.5-.2.2-.4-2.8-.4s-4.3.2-2.7.4M315 300.5c0 2.4.3 2.7 2.7 2 2.3-.5 2.5-.4 1.4.9s-1.1 1.6.3 1.6c.9 0 1.9-.7 2.2-1.5 1-2.5 6.4.9 6.4 4.1 0 2.6-.5 2.6-5.7.7-1.8-.7-1.6 1.2.2 2.7.9.7 2.6 1 4.2.6s3.5-.8 4.4-1c.9-.1 2.4-1 3.3-1.9 2.1-2.1 4.5-2.2 5.2-.2.4 1 1.4 1.3 3.3.9l2.6-.6-3 2.6c-1.9 1.6-3.7 2.3-5 1.9-1.9-.5-1.9-.4-.4 1.2 1.6 1.6 1.8 1.6 4.5-.2 2.1-1.3 4.3-1.7 8.4-1.5 4.4.2 5.1 0 3.7-.9-1-.6-2.7-.9-3.6-.6-1 .2-2.3-.3-2.9-1.3-1-1.7-7.4-4.1-14.2-5.5-1.9-.4-5.2-1.8-7.2-3.2-2.5-1.7-4.3-2.3-5.8-1.8-1.2.4-2.7.1-3.5-.5-1.3-1-1.5-.8-1.5 1.5m18 6.4c0 .5-.7 1.1-1.5 1.5-.9.3-1.5 0-1.5-.9 0-.8.7-1.5 1.5-1.5s1.5.4 1.5.9M344 299.6c0 1.2.6 1.5 2.3 1 1.2-.3 2.9-.6 3.7-.6 1.3 0 1.3-.1 0-1-2.4-1.6-6-1.2-6 .6M356.3 298.7c1.5.2 3.9.2 5.5 0 1.5-.2.2-.4-2.8-.4s-4.3.2-2.7.4M367.5 299c-.3.5.1 1 .9 1 .9 0 1.6-.5 1.6-1 0-.6-.4-1-.9-1-.6 0-1.3.4-1.6 1M381 300.1c3.7 1 12.8 1.1 11.1 0-.8-.5-4.1-.9-7.5-.8-4.3 0-5.4.2-3.6.8M400.3 299.7c1.5.2 3.9.2 5.5 0 1.5-.2.2-.4-2.8-.4s-4.3.2-2.7.4M409.8 299.7c.7.3 1.6.2 1.9-.1.4-.3-.2-.6-1.3-.5-1.1 0-1.4.3-.6.6M355 300.7c-4.2.5-6.5 2.3-2.9 2.3 4.3 0 9.9-1.2 9.9-2.1s-.6-.9-7-.2M408.8 305.7c.7.3 1.6.2 1.9-.1.4-.3-.2-.6-1.3-.5-1.1 0-1.4.3-.6.6"/>
	<path d="M325 307c0 .5.5 1 1.1 1 .5 0 .7-.5.4-1-.3-.6-.8-1-1.1-1-.2 0-.4.4-.4 1M348 307.4c0 .9.5 1.6 1 1.6.6 0 1-.4 1-.9 0-.6-.4-1.3-1-1.6-.5-.3-1 .1-1 .9M289.4 310.5c-1.8 1.3-1.8 1.4.4.8 1.2-.3 2.5-.9 2.8-1.4.8-1.4-1-1.1-3.2.6M293.9 310.9c-1.3 1.1-2 2.3-1.6 2.7s1.7-.2 2.9-1.4c2.8-2.8 1.8-3.8-1.3-1.3M316.2 309.9c-.8.5-3.4.6-5.8.3-3-.3-4.4-.1-4.4.7 0 .9.9 1.1 2.8.6 1.6-.3 3.9-.2 5.2.3s3.4.7 4.7.4c1.9-.3 2.1-.7 1.2-1.8-1.3-1.6-1.9-1.7-3.7-.5M411 311c.8.5 2.2.9 3 .9 1 0 .8-.3-.5-.9-2.7-1.2-4.3-1.2-2.5 0M23 312.5c0 .8-.5 1.5-1.1 1.5-.5 0-.8.4-.4 1 .9 1.5 3.5 0 3.5-2.1 0-1-.4-1.9-1-1.9-.5 0-1 .7-1 1.5M18.6 313.5c-1 .8-2.3 1.6-2.8 1.7-1.5.5.3 3.8 2 3.8 1.2 0 1.3-.3.4-1.2s-.7-1.7 1-3.5c2.4-2.6 2.2-2.9-.6-.8M328.6 312.9c-.4.5-.2 1.2.3 1.5.5.4 1.2.2 1.5-.3.4-.5.2-1.2-.3-1.5-.5-.4-1.2-.2-1.5.3M358 313.9c.8.5 2.6 1.2 4 1.6 2.2.7 2.3.6 1.1-.9-.7-.9-2.5-1.6-4-1.6-1.9.1-2.2.3-1.1.9M367.2 314.2c.3.7 1.3 1.5 2.4 1.7 1.6.3 1.7.1.5-1.3-1.6-1.9-3.4-2.1-2.9-.4M283 315.5c-3.1 1.8-.7 1.8 4 0 3.1-1.2 3.2-1.4 1-1.4-1.4 0-3.6.6-5 1.4M372.3 315.6c.3.3 3.2 1.2 6.4 1.9s8.7 2.4 12.3 3.8c7.1 2.6 15 4 15 2.6 0-.5-1.4-.9-3.1-.9-3 0-15.9-3.9-16.9-5.1-.6-.7-10.2-2.9-12.7-2.9-.9 0-1.4.3-1 .6M27.4 317.9c.5.8 5.6.3 5.6-.5 0-.2-1.4-.4-3.1-.4-1.6 0-2.8.4-2.5.9M245.5 318c.3.5 1.2.7 2 .3 2.1-.7 1.9-1.3-.6-1.3-1.1 0-1.8.4-1.4 1M317.3 317.7c-2.4.2-4.3.8-4.3 1.3 0 1 8.1.1 9.5-1.1.5-.6.5-.8 0-.7-.6.1-2.9.3-5.2.5M10.8 319.2c.9.9 1.5.9 2.4 0s.7-1.2-1.2-1.2-2.1.3-1.2 1.2M402 319c2 1.3 4.3 1.3 3.5 0-.3-.6-1.6-1-2.8-1-1.8 0-1.9.2-.7 1M2 320c0 .5.6 1 1.4 1s1.8-.5 2.1-1c.3-.6-.3-1-1.4-1-1.2 0-2.1.4-2.1 1M239 320c-1.4.4-4.4.8-6.7.9-4.9.1-7.5 1-6.7 2.2.9 1.6 17.4-1.5 17.4-3.2 0-1-.5-1-4 .1M297.5 320.8c-2.7.9-4.3 1.7-3.5 1.9s4.2-.6 7.5-1.6c3.4-1.1 4.9-1.9 3.5-1.9s-4.7.7-7.5 1.6M32.5 320.6c6.5 1.1 21.1 4.2 22.8 4.9.9.4 1.7.3 1.7-.3 0-1.6-10.1-4.1-19-4.6-4.7-.2-7.1-.2-5.5 0M329.5 322.1c-1.6 1-2.6 1.9-2.1 1.9 1.9 0 7.6-2.4 7.6-3.2 0-1.3-2.3-.8-5.5 1.3M412 321c3.6 1.2 6.2 1.2 5.5 0-.3-.6-2.3-1-4.3-.9-3.3.1-3.4.2-1.2.9M206.3 322.4c.2.6 1.9 1 3.8.9 13.2-.9 15.7-2.2 4-2.1q-8.1.15-7.8 1.2M321.8 321.7c.7.3 1.6.2 1.9-.1.4-.3-.2-.6-1.3-.5-1.1 0-1.4.3-.6.6M379 322.5c-1.1 1.3-1 1.4.4.9.9-.3 1.6-1 1.6-1.5 0-1.3-.6-1.1-2 .6M311.8 322.7c.7.3 1.6.2 1.9-.1.4-.3-.2-.6-1.3-.5-1.1 0-1.4.3-.6.6M345 322.8c.8.5 3.8 1.2 6.5 1.6 13.7 1.8 13.1 1.8 11.1.5-1.1-.7-3.5-1.3-5.5-1.5-2-.1-5.8-.5-8.6-.9-3.3-.4-4.5-.3-3.5.3M366.6 323.5c.4.9 1.1 1.4 1.6 1.3 1.5-.5 1.1-2.3-.6-2.6-1.1-.2-1.4.2-1 1.3M305 324.6l-2.5 1.5 2.5-.7c1.4-.3 3.2-1 4-1.5 1.3-.7 1.3-.8 0-.8-.8 0-2.6.6-4 1.5M317.5 325c-2.9.7-2.9.8 1 .9 2.2 0 4.7-.4 5.5-.9 1.2-.8 1-.9-1-.9-1.4.1-3.8.5-5.5.9M60.5 326c-.3.5.1 1 .9 1 .9 0 1.6-.5 1.6-1 0-.6-.4-1-.9-1-.6 0-1.3.4-1.6 1M212.3 325.7c.9.2 2.3.2 3 0 .6-.3-.1-.5-1.8-.5-1.6 0-2.2.2-1.2.5M408.8 325.7c.7.3 1.6.2 1.9-.1.4-.3-.2-.6-1.3-.5-1.1 0-1.4.3-.6.6M295 327.3c-3.1 1-3.3 1.1-1.1 1.5 1.3.2 3.1-.3 3.9-1.2 1.8-1.8 1.9-1.8-2.8-.3M63 328.7c-1.9.8-3 1.7-2.4 1.9 1.6.6 6.4-1.3 6.4-2.6 0-1.2.3-1.3-4 .7M438.5 327.7c-1 .8-3.6 9.5-3 10.1.7.7 3.4-6 2.8-7.4-.3-.9.2-1.4 1.5-1.4 1.8 0 2 .5 1.5 3.5-.4 2.3-.2 3.5.6 3.5.6 0 1.2-1.4 1.3-3 0-1.7.1-3.6.2-4.3.1-1.4-3.4-2.1-4.9-1M285 330l-2.5.8 2.9.1c2.3.1 2.6.4 1.7 1.5-1 1.2-.8 1.3.9.9 1.1-.3 1.8-.8 1.5-1.1-.2-.3 0-1.1.6-1.9.9-1 .7-1.3-.7-1.2-1.1.1-3 .5-4.4.9M429.8 330.2c-1.9 1.5-3.4 8.3-2.1 9.1s5.4-.4 4.8-1.4c-.3-.4-1.2-.6-2-.2-.8.3-1.5 0-1.5-.6 0-.7 1-1.5 2.2-2 1.8-.6 1.9-.9.5-1.4-2.3-.9-2.1-2.7.2-2.7 1.1 0 2.3-.5 2.6-1 .9-1.4-2.8-1.2-4.7.2M419.6 332.6c-.9.8-1.6 2.1-1.6 2.7 0 .7-.3 2.2-.6 3.4-.4 1.3-.2 2.3.4 2.3s1.2-1 1.4-2.3c.2-1.6 1.1-2.3 3.1-2.5 2.1-.3 2.7-.9 2.7-2.8 0-2.8-2.9-3.3-5.4-.8m4.4 1.4c0 .5-.9 1-2 1s-2-.5-2-1c0-.6.9-1 2-1s2 .4 2 1M341.6 335.6c-2.3 4.8-1.4 5.4 1.3.9 2.3-4 2.5-4.5 1.3-4.5-.5 0-1.6 1.6-2.6 3.6M348.6 333.5c-.5 1.3-.2 1.4 1.7.4 3.2-1.7 3.3-1.9 1-1.9-1.2 0-2.3.7-2.7 1.5M412.2 334c-.9 1.4-.9 2-.1 2 .7 0 .9 1 .7 2.5-.3 1.4-.2 2.5.2 2.5 1 0 1.9-7.3 1.1-8.2-.4-.4-1.2.1-1.9 1.2M331.6 336.9c-2.1 2.2-3.6 4.5-3.4 5.2s2-.8 4.2-3.5c4.8-5.8 4.3-6.9-.8-1.7M262 335c.8.5 2.4.9 3.5.9h2l-2-.9c-1.1-.5-2.7-.9-3.5-.9-1.3-.1-1.3 0 0 .9M282 336c-1.3 1.1-1.8 2-1.2 2s1.9.3 2.9.6c1.4.5 1.5.4.4-.4-1.2-.9-1.2-1.3-.2-2.6 1.9-2.2.9-2-1.9.4M405.6 336.4c-.3 1.3-.9 3.2-1.3 4.2-.4 1.2-.3 1.5.5 1 .7-.4 1.2-1.5 1.2-2.6 0-1 .7-2.1 1.6-2.4.8-.3 1.2-1 .9-1.6-1-1.7-2.3-1.1-2.9 1.4M271.8 335.7c1.2.2 3.2.2 4.5 0 1.2-.2.2-.4-2.3-.4s-3.5.2-2.2.4M400.1 336.6c-1.7 1.3-2.5 1.3-3.7.3-.8-.6-1.6-1-1.8-.8-.1.2-1 1.5-1.9 2.9-1.3 1.9-1.7 2.1-1.7.7 0-2.7-1.7-2-2.8 1.3-1.2 3.4.1 5 1.8 2.3.8-1.3 1.3-1.4 1.6-.6.9 2.2 2.4 1.4 2.4-1.1 0-3.7 1.9-4.2 2.6-.7.6 3.1 2.4 4.3 2.4 1.7 0-.7 1-2.5 2.1-4 2.6-3.2 2.1-4.1-1-2M194.4 338.5c.1 1.9.5 2.3 1.9 1.9.9-.3 1.7-.1 1.7.5s.7 1.1 1.5 1.1 1.5-.5 1.5-1c0-.6-.7-1-1.5-1s-1.5-.4-1.5-1c0-.5-.9-1.4-1.9-1.9-1.6-.9-1.9-.7-1.7 1.4M346.6 337.5c-1.1.8-1.7 1.7-1.4 2 .5.5 6.8-2.3 6.8-3.1 0-1-3.6-.2-5.4 1.1M199.5 338c.4.6 1.1.8 1.6.5 1.4-.9 1.1-1.5-.7-1.5-.8 0-1.2.5-.9 1M385.6 338.5c-.3.8-.1 1.5.4 1.5.6 0 1-.7 1-1.5s-.2-1.5-.4-1.5-.6.7-1 1.5M408.7 337.7c-1 1-.8 4.3.2 4.3.9 0 2.1-2.4 2.1-4.1 0-1.1-1.4-1.2-2.3-.2M111.9 339.9l-2.4 2 4-.6c2.2-.3 5.4-.9 7-1.4 2.9-.9 2.9-.9-.6-.5-2 .2-4.1 0-4.6-.5-.6-.6-1.9-.3-3.4 1M184 339c.8.5 2.4.9 3.5.9h2l-2-.9c-1.1-.5-2.7-.9-3.5-.9-1.3-.1-1.3 0 0 .9M272.8 338.8c-2.4.2-3.8.8-3.8 1.7 0 1 1 1.2 3.8.8 4.2-.7 4.6-.8 4.1-2-.2-.4-2.1-.7-4.1-.5M377.7 338.6c-1 1-.9 7.4.2 7.4.5 0 1.1-.7 1.5-1.5.3-.8 1-1.5 1.5-1.5.6 0 .8.7.5 1.5-.9 2.2 1.4 1.8 2.6-.4 1.4-2.7 1.3-3.1-.7-2.4-1.5.5-1.6.3-.5-.8 1.6-1.7 1.5-2.9-.2-2.9-.8 0-1.8 1-2.2 2.2l-.8 2.3-.5-2.3c-.3-1.3-.9-2-1.4-1.6M134 340c0 1.4 2.6 2.3 4.1 1.5.8-.6.7-1-.2-1.6-1.9-1.2-3.9-1.1-3.9.1M287 340c-1.2.8-1.1 1 .8 1 1.2 0 2.2-.5 2.2-1 0-1.3-1.1-1.3-3 0M127.3 341.7c-2.7 1-1.1 1.8 2.8 1.5 2.8-.3 3.7-.7 2.8-1.3-1.5-.9-3.7-1-5.6-.2M209.5 342c.3.5 1.1 1 1.6 1 .6 0 .7-.5.4-1-.3-.6-1.1-1-1.6-1-.6 0-.7.4-.4 1M340 341.4c0 .8 5.1 1.3 5.6.5.3-.5-.9-.9-2.5-.9-1.7 0-3.1.2-3.1.4M264.2 343.5c-1.3.7-2.9 1.8-3.5 2.5-2 2.1 3.5.1 5.8-2.1 2.2-2.1 1.1-2.3-2.3-.4M335 343.5c-.7.8-2.2 1.5-3.4 1.6-2 0-2 .1.2 1.1 2 1 2.7.8 5-1.5 2-2 2.3-2.7 1-2.7-.8 0-2.1.7-2.8 1.5M214.3 343.7c.9.2 2.3.2 3 0 .6-.3-.1-.5-1.8-.5-1.6 0-2.2.2-1.2.5M222 344c-.8.5-3.3 1-5.5 1.1s-3.2.3-2.1.6c2.6.7 10.6-.6 10.6-1.8s-1.1-1.1-3 .1M233.8 343.7c.7.3 1.6.2 1.9-.1.4-.3-.2-.6-1.3-.5-1.1 0-1.4.3-.6.6M306.5 344c-1.7.8-1.6.9 1 .8 1.7-.1 4 .4 5.2 1 1.3.7 3.5.9 5.5.5l3.3-.7-4-.8c-2.2-.3-5.1-.9-6.5-1.2s-3.4-.1-4.5.4M348 343.7c0 .9 6.5 5.3 7.9 5.3.5 0 1.4.7 2.1 1.5 1.4 1.7 3 2 3 .6 0-.5-1.2-1.6-2.7-2.4-1.6-.7-4.5-2.4-6.5-3.6-2.1-1.3-3.8-1.9-3.8-1.4M208.3 344.7c.9.2 2.3.2 3 0 .6-.3-.1-.5-1.8-.5-1.6 0-2.2.2-1.2.5M237 345c0 1.2 1.7 1.2 4.5 0 1.7-.7 1.5-.9-1.2-.9-1.8-.1-3.3.3-3.3.9M294 345c-1.1.7-.7 1 1.7 1 1.7 0 3.5-.5 3.8-1 .8-1.3-3.5-1.3-5.5 0M324.9 345.9c-1.4 1.1-3.8 2.1-5.4 2.4-2.5.3-2.3.4 1 .6 3 .1 4.5-.4 5.8-2 2.5-2.8 1.6-3.4-1.4-1M92.6 346.5c-1 .8-1.5 1.8-1.2 2.4.4.6 0 2.4-.9 4.2-.9 1.7-1.5 3.3-1.2 3.5.2.2 1-.8 1.7-2.4.8-1.5 2.2-3.9 3.2-5.4 2.1-3 1.2-4.3-1.6-2.3M122.1 346.3c-.6.8-.8 1.7-.4 2 1.1 1.2 2.1.7 2.6-1.3.6-2.3-.5-2.6-2.2-.7M128 346c0 .5.7 1 1.5 1s1.5-.5 1.5-1c0-.6-.7-1-1.5-1s-1.5.4-1.5 1M249.8 345.7c.6.2 1.8.2 2.5 0 .6-.3.1-.5-1.3-.5s-1.9.2-1.2.5M283.5 347c-.3.5-1.7 1-3.1 1-1.3 0-2.4.4-2.4 1 0 1.4.8 1.3 6.5-1 4-1.5 4.5-1.9 2.3-2-1.5 0-3 .4-3.3 1M77.9 353.2c-2.3 3.5-4.6 6.6-5.2 6.9-.5.4-.8 1.2-.5 1.9.2.7 2.4-1.5 4.8-4.9 2.5-3.4 4.7-6.1 5.1-6.1.7 0-.7 8.5-1.6 10.1-.4.5-.2.9.4.9s1.4-.8 1.9-1.8c1.2-2.4 1.4-12 .3-12.6-.5-.4-2.8 2.2-5.2 5.6M220.6 348.5c-.7 2.1 6 2 9.4-.1l2.5-1.5-2.7.5c-1.4.3-3.4.9-4.4 1.3-1.2.4-1.5.3-1-.5s0-1.2-1.2-1.2c-1.1 0-2.2.7-2.6 1.5M234.1 347.9c-.9.6.3 1 3.9 1.2 2.8.2 5.7.1 6.3-.3.7-.4-.1-.8-1.8-.8-1.6 0-3.9-.3-5-.5-1.1-.3-2.6-.1-3.4.4M260.5 350.2c-4.1 2-13.5 4-13.5 2.9 0-.4.5-1.2 1.2-1.9 1.3-1.3.5-2.7-1.1-1.7-.6.3-1.1 1.7-1.1 3.1 0 2.3.2 2.4 4.3 1.8 2.3-.3 6.5-1.6 9.2-2.8 2.8-1.3 5.6-2.1 6.3-1.8 1.6.5 1.6-.4-.1-1.1-.7-.3-3.1.4-5.2 1.5M326.1 350.1c-1.8 1.1-3.1 2.3-2.8 2.6.6.5 7.7-3.4 7.7-4.3s-1.6-.3-4.9 1.7"/>
	<path d="M88.3 350.2c-2.4 3.2-2.4 4.1 0 1.9 1.5-1.4 2.7-2.6 2.7-2.8 0-.8-1.9-.2-2.7.9M186 350c-1.1.7-.6 1 2 1s3.1-.3 2-1c-.8-.5-1.7-1-2-1s-1.2.5-2 1M198.3 350.7c.4.3 4.6.8 9.5.9 5.7.2 7.8 0 6.2-.6-3-1-16.6-1.3-15.7-.3M120.7 351.7c-.4.3-.7 1.1-.7 1.7s.5.5 1.2-.2c.6-.6.9-1.4.7-1.7-.3-.3-.9-.2-1.2.2M311 352.1c0 .5.5.9 1 .9.6 0 1 .7 1 1.6 0 1.3.3 1.4 1.5.4.8-.7 1.3-1.6 1-2-.7-1.2-4.5-1.9-4.5-.9M407.1 352c-2 1.2 2.6 2 12.1 2 4.8 0 8.9-.4 9.2-.8.3-.5-2.8-.7-6.9-.4-4 .2-8.7 0-10.3-.6-1.6-.5-3.5-.7-4.1-.2M220.3 352.7c.9.2 2.3.2 3 0 .6-.3-.1-.5-1.8-.5-1.6 0-2.2.2-1.2.5M395.5 352.9c-.2.2-3 .3-6.2.3s-7.6.3-9.8.7c-2.8.6-1.3.7 5.5.6 5.2-.2 11.7-.3 14.4-.4 5.5-.1 5.5-1.6-.1-1.6-1.9 0-3.6.2-3.8.4M232.1 353.4c1.2 1 5.9 1.5 5.9.6 0-.5-1.4-1-3.2-1-1.7 0-2.9.2-2.7.4M365 354.5c.7.8 2.1 1.5 3 1.5 1 0 2 .4 2.2.8.3.9 17 11.2 18.1 11.2 2 0 .2-1.9-3.3-3.5-2.2-1-4.6-2.5-5.2-3.3-.7-.8-2.3-1.8-3.6-2.3s-2.6-1.9-2.9-3c-.5-1.8-1.1-2-3.9-1.4-2.1.3-3.4.2-3.4-.5 0-.5-.5-1-1.1-1-.8 0-.8.5.1 1.5M239 355c0 .5.6 1 1.4 1s1.8-.5 2.1-1c.3-.6-.3-1-1.4-1-1.2 0-2.1.4-2.1 1M220.5 356l-2 .9h2c1.1 0 2.7-.4 3.5-.9 1.3-.9 1.3-1 0-.9-.8 0-2.4.4-3.5.9M284.3 355.6c1 1 19.2 1.3 20.8.3.9-.5-2.8-.9-10-.9-6.3 0-11.2.3-10.8.6M316 356.5c-.8.9-.8 1.5-.2 1.5 1.2 0 2.6-1.9 1.9-2.6-.2-.2-1 .2-1.7 1.1M347.5 356c-.3.6.5 1 1.9 1s2.8.4 3.1 1c.3.5 1.4 1 2.3 1 1.4-.1 1.3-.4-.7-2-2.5-2.2-5.6-2.6-6.6-1M230.5 357c-.8 1.3 2.5 1.3 4.5 0 1.2-.8.9-1-1.2-1-1.5 0-3 .4-3.3 1M341.5 357c.3.5 1.3 1 2.1 1s1.4-.5 1.4-1c0-.6-.9-1-2.1-1-1.1 0-1.7.4-1.4 1M67 360.5c0 2.6.4 3.5 1.7 3.5s1.4-.3.5-1.2c-1.7-1.7-1.5-3.9.3-3.2 1.1.5 1.3.2.9-1-1.2-3-3.4-1.8-3.4 1.9M208.2 358c-1.8.4-3.6 1.1-4 1.5-.8.8 6.3-.4 9.3-1.6l2-.8-2 .1c-1.1 0-3.5.4-5.3.8M360.3 357.7c.9.2 2.3.2 3 0 .6-.3-.1-.5-1.8-.5-1.6 0-2.2.2-1.2.5M117.5 359.6c-2.7.7-7 1.4-9.5 1.5-4.1.2-4.2.3-1 .6 4.3.6 18.1-1.8 17.4-2.9-.6-1-.7-1-6.9.8M184.5 359c-1.4.6.1.9 4.8.9 3.8.1 6.7-.3 6.7-.9 0-1.2-8.7-1.2-11.5 0M92 360.5c-.8.9-.8 1.5-.2 1.5 1.2 0 2.6-1.9 1.9-2.6-.2-.2-1 .2-1.7 1.1M223.8 359.7c.7.3 1.6.2 1.9-.1.4-.3-.2-.6-1.3-.5-1.1 0-1.4.3-.6.6M264.6 359.9c-.4.5 2.8.9 7.3.8 4.4 0 7.8-.4 7.5-.9-.7-1.1-14.1-1-14.8.1M289.5 360c-.3.5-.1 1 .4 1 .6 0 1.1-.5 1.1-1 0-.6-.2-1-.4-1-.3 0-.8.4-1.1 1M308 360.5c-2.1 2.6.1 3.3 7 2.5l6.5-.7-5.9-.2c-4.7-.1-5.7-.4-5.2-1.6.7-2-.8-1.9-2.4 0M211.5 362.5c-3.2 1.2-6.1 2.8-6.3 3.5-.3.9 0 .9 1.8 0 1.3-.7 5.3-2.3 8.9-3.5 3.7-1.3 5.5-2.3 4.1-2.3s-5.2 1-8.5 2.3M341.2 362c-1.8 1-2.9 2.1-2.3 2.4 1.1.7 6.6-1.7 7.6-3.4.9-1.5-1.5-1-5.3 1M86.5 362c-.4.6-.3 1.6.3 2.2 1.3 1.3 2.3-.4 1.3-2.1-.7-1-1-1-1.6-.1M256.8 361.7c.7.3 1.6.2 1.9-.1.4-.3-.2-.6-1.3-.5-1.1 0-1.4.3-.6.6M299.5 362c-.4.6.7 1 2.4 1s3.1-.5 3.1-1c0-.6-1.1-1-2.4-1-1.4 0-2.8.4-3.1 1M322.5 362c.3.5 1.5 1 2.5 1s2.2.4 2.5 1c.3.5-.1 1-.9 1-.9 0-1.6.4-1.6 1 0 1.4 2.6 1.2 7.9-.4 4.5-1.3 4.3-3.2-.2-2-1.5.3-3.8-.1-5.5-1-3.5-1.8-5.6-2.1-4.7-.6M288.8 364.7c2.2.9 1.3 2-3.2 3.7-2.5.9-5 2.4-5.6 3.2-1.8 2.1-.6 1.8 5.7-1.6 3.1-1.7 6.3-3 7.2-3 1 0 2.6-.7 3.7-1.6 1.9-1.6 1.7-1.6-3.3 0-1.4.5-2.3.3-2.3-.3s-.8-1.1-1.7-1c-1.1 0-1.3.3-.5.6"/>
	<path d="M284.8 365.7c.7.3 1.6.2 1.9-.1.4-.3-.2-.6-1.3-.5-1.1 0-1.4.3-.6.6M319.8 365.7c.7.3 1.6.2 1.9-.1.4-.3-.2-.6-1.3-.5-1.1 0-1.4.3-.6.6M336.8 367.1c-1.9 1.1-2.4 2.9-.8 2.9.5 0 1.4-.9 2-2 1.2-2.3 1.2-2.3-1.2-.9M200 368c-1.8 1.2-.2 1.2 2.5 0 1.3-.6 1.5-.9.5-.9-.8 0-2.2.4-3 .9M188.5 371.7c-1.1.3-2.4.9-2.9 1.4-1.5 1.4 2.5 1 5.9-.6 2.2-1 2.5-1.3 1-1.3-1.1 0-2.9.2-4 .5M398.8 371.7c.7.3 1.6.2 1.9-.1.4-.3-.2-.6-1.3-.5-1.1 0-1.4.3-.6.6M272.8 376.1c-2.1 1.1-3.8 2.3-3.8 2.8 0 1.7 1.4 2 2.9.6.9-.9 2.5-2.2 3.6-3 3.2-2.2 1.3-2.5-2.7-.4"/>
</svg>
