<?xml version="1.0" encoding="utf-8"?>
<svg xmlns="http://www.w3.org/2000/svg" viewBox="0 0 907 247">
	<path d="M821.356 1.2c-2.2.5-9.8 2.8-16.8 5-16.3 5.1-17.1 6.1-16.2 18.6l.7 8.4-21.4-.6c-67.7-1.8-80.4-1.8-105.8-.2-30.9 2-60.5 4.9-76.5 7.6-32.4 5.4-89.5 20.1-89.5 23.1 0 .5.6.7 1.3.4 9.5-3.1 21.4-6.4 36.2-10 32.7-7.9 44.4-10.4 51-11l6.5-.5.1 4.7c.2 8.7 1.7 10.5 1.8 2.2l.1-7.7 3.3-.5c1.7-.3 3.5-.2 3.9.2.8.7 1.3 15.9.5 16.7-.3.3-.8-2.5-1.2-6.3-1-10.9-1.3-11.4-1.3-2.1.1 11-1.6 11.6-2 .8-.2-4.4-.6-8-1-8s-.7 3.5-.7 7.7v7.8l-3.7.1-3.8.1v-6.8c0-4.3-.4-6.9-1.1-6.9-.6 0-1 1.8-.9 4.2.4 10.2 1.1 9.4-8.7 10.1-7.6.5-30.7 2.4-52.3 4.2-3.6.3-7.2.8-8 1.1-.8.3-4.9 1-9 1.5s-9.3 1.2-11.5 1.5c-3.6.6-3.9.5-2.6-1 2.1-2.5.3-3.3-2.1-.8-1.8 1.7-1.9 2.3-.8 3.6 1.6 2 5.6 2 20.2.1 6.2-.8 19.9-2.1 30.3-3 10.5-.8 27.1-2.2 37-3 35.9-3 124.3-4.9 160-3.3 8.8.4 19.9.7 24.7.7l8.6.1 2 3.2c2.9 4.6 4.2 16.2 4.2 35.9 0 12 .3 16.9 1.1 16.9.9 0 1-5.9.7-22.3-.5-18.7-.9-23.1-2.6-28.1l-2-5.9 12.7.6c6.9.4 15.6.8 19.4 1.1 3.7.2 6.7 0 6.7-.5s-.6-.9-1.2-1c-.7 0-2.4-.2-3.8-.4s-17.3-1-35.5-1.9c-39.6-1.9-101.2-2.8-118.5-1.7-6.9.4-13 .6-13.7.3-.8-.2-1.3-3.2-1.6-8l-.3-7.7-.2 8.3-.2 8.3-2.7-.3-2.8-.3v-20l4.7-.3 4.7-.3.4 9.8.3 9.8.2-10.1.2-10.2 19.8-.8c26.6-1.2 76.8-.9 133.7.6 60.5 1.7 90.3 3.5 92.3 5.4 1.1 1.1 1.4 9.7 1.8 40.9.4 36.5.3 39.6-1.4 41.6s-2.6 2-53.2 2.5l-51.5.4-2.7-2.6c-2.4-2.2-2.8-2.3-3.4-.8-.8 2 3.9 7.4 7.2 8.2 2.1.5 2.1.9 2.9 35.7.8 39.6.9 41.9 2.5 44.4 1.1 1.8 1-10-.5-65.3l-.4-16.1 4.5.5c2.8.3 4.9 0 5.9-.8 1.2-1 1.9-1 2.7-.2.8.8 5.1 1.2 11.7 1.2h10.6v5.9c0 3.3-.4 6.3-.8 6.7-1.2 1.2-.8 7.1.6 8.3 2.1 1.7 2.7.3 2.7-6.6 0-4.6-.3-6.2-1.2-5.7-.8.5-.9 0-.5-1.7.4-1.3.7-2.8.7-3.2 0-.5.5-.5 1-.2.6.3 1-.3 1-1.4 0-2.3-1.7-2.1 21-2.4l11.5-.2.1 27c.1 14.8.1 29.7.1 33 0 3.3 0 7.1.1 8.5.8 18 1.1 22.2 1.5 22.7.3.2.4-16.5.2-37.4-.2-20.8-.1-41.4.3-45.8l.7-8 4.5.4c2.5.1 4.6.4 4.8.5.4.5 2.1 52.7 2.6 82.8.4 26.1 1.1 33.8 2.9 33.8.2 0 .2-18.9.1-42l-.2-42h3.8c7.2 0 10-1 10-3.6 0-2.7 1.2-3.1 3-.9 2.1 2.5 3 .6 3-6.5 0-6-.3-7.1-2.2-8.4-3.8-2.7-4.7-2-4.1 2.7.4 2.3 1 4.5 1.6 4.8.6.4.4 1.5-.5 2.8-2 2.8-2.8 1.7-2.8-4.1 0-2.7-.4-4.7-.9-4.4-1 .7-2.1-6.6-1.4-9.4.3-1.1 1.2-2 1.9-2 .8 0 1.4-.5 1.4-1 0-.7-.6-.7-1.9 0-2.6 1.4-2.6 1.4-2.9-1.5-.1-1.8.6-2.8 2.7-3.9 4.9-2.6 5.2-6 4.9-48.7l-.3-38.7 6-1.4c5.7-1.3 6-1.5 6-4.3 0-2.6-.7-3.3-5.7-5.9-4.8-2.4-7.3-2.9-16.1-3.3l-10.4-.6-.6-5.5c-.3-3-1.2-6.1-1.9-6.8-2-1.9-14.5-7.9-21.6-10.3-3.4-1.2-8.7-2.1-11.9-2.1-7.7 0-6.3 1.3 2.1 1.9 1.2.1 1.6.6 1.3 1.6-.4.8-.2 1.7.3 2 .6.4 1-.1 1-.9 0-.9.8-1.6 1.7-1.6 2.7 0 17.3 5.2 17.3 6.1 0 .5.6.9 1.4.9.7 0 2.5.9 3.9 2 2.4 1.9 2.6 2.6 2.9 12.9l.3 10.9-5.2-.2c-2.9-.1-5.5-.4-5.8-.8-.4-.4-.8-5-1-10.3-.5-13.3-1.5-13.3-1.5 0v10.8l-3.7-.7c-2.1-.3-5.2-.6-7-.6h-3.1l-.8-11.8c-.6-9.2-.9-10.8-1.4-7.4-.4 2.4-.2 7 .3 10.3 1.1 7.8.2 8.9-7.2 8.9-3.1 0-6.1-.4-6.8-.8-1.3-.8-2.1-23.3-.9-27.2.4-1.5 0-1.2-1.1 1-1.7 3.1-1.8 4.6-1 13.2.5 5.4.7 10.4.4 11.3-.5 1.2-2.3 1.5-8 1.5h-7.3l.4-11.3c.2-6.1.1-10.8-.4-10.4-.8.7-.9 2.3-1.2 15.4l-.2 6.3h-7.7c-4.3 0-8.3-.4-8.9-.8-1.6-1-2.5-15.4-1-16.7 4.8-4.3 7.9-6.5 8.9-6.5.9 0 1.1 3 .9 11-.3 8.4-.1 11 .8 11 1 0 1.2-2 .7-8-.4-5.9-.1-9.1 1-11.9 1.4-3.5 2-4 6.7-5 2.8-.7 6.1-1.4 7.3-1.7 1.5-.4 2.2-.1 2.6 1.3.4 1.5.5 1.4.6-.4.1-1.7 1.1-2.5 4.9-3.6 5.3-1.7 2.9-2-3.3-.5zm76.3 28.3c8.3 3.4 5.1 6-8.7 7.1-4.2.3-9.4.2-11.6-.3-3.7-.9-4-1.2-3.7-3.9.6-5.8.5-5.8 10.6-5.1 5.2.4 11.2 1.4 13.4 2.2zm-273.8 17.7c0 12.5-1.7 12.2-2.2-.5-.3-7.6 0-9 2-9.6.1-.1.2 4.5.2 10.1zm7-.7c0 5.7-.4 9.5-1 9.5-.9 0-1.3-4.5-1.5-14.8 0-1.7-.4-3.2-.8-3.2-.5 0-.7 4.1-.5 9 .2 6.7 0 9-.9 9-1 0-1.3-2.6-1.3-9.5V37h6v9.5zm-17.9-2.3c.1 3.5.5 7.6.9 9.3.6 2 .8.2.7-5.8-.1-5.4.2-8.6.8-8.4.6.2 1.1 4.3 1.3 9l.3 8.7h-2.6c-2.5 0-2.5-.1-2.5-7.9 0-4.4-.3-8.6-.6-9.5-.3-.9-.1-1.6.5-1.6.7 0 1.1 2.4 1.2 6.2zm7.1 3.3c.3 9-.2 11.5-1.6 7.9-1-2.5-.7-17.4.3-17.4.5 0 1.1 4.3 1.3 9.5zm-12.1 8c.8.7.9-1.7.4-7.8-.5-6.2-.4-8.7.4-8.7.7 0 1.1 3 1.1 8.9v8.9l-3.2.5c-1.8.2-3.4.4-3.4.3-.1 0-.4-4-.8-8.9-.5-5.8-.4-8.7.3-8.7s1.1 2.7 1.1 6.7c0 10.8 1.9 11.5 2.2.8l.2-9 .3 8c.2 4.4.9 8.4 1.4 9zm275.7 74.8c.6.7 1.4 5.1 1.8 9.8.4 4.6 1.3 10.4 2.1 12.8 1.7 5.2.9 6.3-4.7 5.9l-3.5-.3-.7-9.5c-.4-5.2-.9-11.6-1.1-14.2-.3-4.1-.1-4.7 1.7-5.1 1.2-.2 2.4-.5 2.7-.6.4 0 1.1.5 1.7 1.2zM833.156 16c0 5.8.3 11.8.7 13.5.7 2.6.8 2.3.8-2 0-2.8-.3-8.8-.7-13.5l-.8-8.5V16zm-17.4-2.3c-.4 8.2-.3 17.3.4 17.3.4 0 .7-4.3.7-9.5s-.2-9.5-.5-9.5-.5.8-.6 1.7zm34.1 7.6c0 8.3.5 11.7 1.9 11.7.8 0-.5-18.9-1.3-19.8-.3-.3-.6 3.3-.6 8.1zm-56.3-6.6c-1.2 1.1-.8 17.5.3 16.8.8-.5 1.2-17.5.5-17.5-.1 0-.5.3-.8.7zm71 7.8c.3 4.9.9 9.4 1.3 9.8.9 1 0-14.2-1.1-16.8-.4-1.1-.5 2-.2 7zm-524.7-5.5-33.5.5-4.5 2.7c-6.8 4.2-24.2 9.1-47.4 13.4-4.4.8-11.5 2.1-15.5 2.9-8.6 1.6-31.3 3.6-38.6 3.4-11-.3-37.4-2.9-44.5-4.3-4.1-.8-13.6-2.5-21-3.7-7.4-1.1-17.9-3.2-23.4-4.5l-9.8-2.4-10.7 5.3c-5.8 3-13.1 6.4-16.1 7.7-3 1.2-9.5 4.2-14.5 6.6-4.9 2.4-10.3 4.6-12 5-1.6.4-4.6 1.5-6.5 2.5-3.2 1.6-15.7 6.8-34.5 14.6-11.3 4.6-9.8 7.9 6.1 13.9 3.8 1.4 9.4 3.6 12.4 4.9 3 1.3 8.9 3.6 13 5 4.1 1.5 9.8 3.8 12.5 5 5.9 2.7 19.5 8.7 28 12.2 3.3 1.4 9.8 4.6 14.4 7l8.3 4.5 8.7-1.7c10.8-2 22.4-4.3 27.6-5.5 12.4-2.7 33.5-4.2 52.5-3.7 44 1.3 72.3 6.5 108.3 20 7.9 3 9.8 3 71.4 2.8l37.2-.1 1.2-2.3c1.2-2 1.3-15.8.9-103.2 0-3.3-.4-6.6-.9-7.4-1-1.6-20-1.9-69.1-1.1zm65.1 2.6c1.6 1.9 1.7 5.8 1.9 66.3.2 37.4.1 39.5-1.6 40.8-1.6 1.2-10.7 1.4-51.4 1.1-42.8-.3-50-.6-53.5-2-12.3-5-15.7-6.2-23-8.4-30-9.2-56.1-12.8-92.5-12.9-22.8 0-28.5.3-41 2.3-14.8 2.3-25.3 4.4-34.9 6.8-3 .8-5.6 1.3-5.7 1.1-.1-.1-.5-19.5-.8-43-.5-36.6-.3-42.9.9-43.3.8-.3 5.4.6 10.2 2 8.2 2.5 36.6 7.7 58.3 10.7 5.6.8 18.2 1.4 30.5 1.3 17.1 0 23.5-.4 34.5-2.3 29.9-5 51.8-10.8 64.5-17.1l8-4h35.4c19.5 0 35.6-.1 35.8-.3.1-.2 5.4-.4 11.6-.6 9.6-.1 11.6.1 12.8 1.5zm-305.1 51.9c0 40.4-.1 41.5-1.9 41.5-1.1 0-2.3-.5-2.6-1-.4-.6-4.6-2.9-9.3-5.1-4.8-2.2-10.5-5-12.7-6.1-10.1-5.2-38.2-16.7-53.5-22-6.3-2.2-12.6-4.6-13.9-5.5-2.3-1.5-2.4-1.6-.6-2.9 1-.8 2.5-1.4 3.2-1.4 1.1 0 25.4-9.9 36-14.6 1.7-.8 3.4-1.4 3.7-1.4.4 0 5.7-2.4 11.9-5.3 6.2-3 13.2-6.2 15.7-7.3 2.5-1 8.3-3.8 13-6.1 4.7-2.3 9.1-4.2 9.8-4.2.9-.1 1.2 8.8 1.2 41.4zm252.2-36.7-39.2.2.2 39.3.3 39.2 38.6.2c21.2 0 39.1-.2 39.8-.6.9-.6 1.2-10.3 1.1-38.6 0-20.7-.4-38.3-.8-38.9-.5-.8-11.7-1-40-.8zm38.3 6.9c.3 2.5.4 4.8 0 5.1-.4.4-2.6-1.4-4.9-4.1-4.2-4.6-5.6-5.6-5.6-3.8 0 1.2 8.8 10.1 10 10.1.6 0 1 3.8 1 9.1v9.2l-4.2-4.1c-2.4-2.2-5.9-5.5-7.8-7.4-1.9-1.8-5.3-5.6-7.5-8.3-5.9-7.4-8.5-10.1-8.5-8.8 0 1.5 11.9 17.3 13 17.3.4 0 4 3.2 7.9 7.2 6.3 6.3 7.1 7.6 7.1 10.9v3.7l-3.2-2.8c-1.8-1.5-6.6-5.5-10.5-8.9-4-3.4-9.3-9.2-11.8-12.9-2.4-3.7-5.8-8.6-7.5-11-1.6-2.3-3-4.5-3-4.7 0-.6 25.2-1.1 30.7-.7 4 .4 4.1.5 4.8 4.9zm-72.5-3.9c0 .5 1.9.6 4.2.3l4.1-.6 3.8 7.1c2 3.9 5.4 9.3 7.4 11.9 2 2.7 4.7 6.9 6 9.4 1.2 2.5 3.4 5.7 4.6 7.1 1.3 1.4 3.2 3.7 4.1 5.1 1.3 2.1 8.8 7.6 8.8 6.6 0-.2-2.6-3-5.8-6.2-3.2-3.3-7.3-8.7-9.2-12-1.9-3.3-5.5-8.9-8-12.5-4.2-5.8-10-15.3-10-16.2 0-.4 21-.3 24 0 .8.1 2.3 1.9 3.3 4 1 2 3 5.1 4.5 6.9 1.5 1.8 3.8 4.9 5.2 6.9 4.8 6.8 8.2 10.4 15.6 15.9 4.1 3.1 7.4 6 7.4 6.6 0 .5.7.9 1.5.9 1.1 0 1.5 1.2 1.5 4.6v4.5l-3.7-2.7c-2.1-1.5-5.6-4.6-7.9-6.8-2.2-2.3-5.6-5.3-7.5-6.7-1.8-1.4-4.1-3.9-4.9-5.5-1.9-3.8-5.5-8.8-10.5-14.6-2.2-2.6-5.5-6.6-7.4-8.8-3-3.6-5.8-5.4-4.9-3.1.4 1.2 5.4 7.3 11.8 14.6 3 3.4 6.6 7.9 8 10 3.8 5.6 9.1 11.5 10.4 11.5.6 0 2 1.4 3.1 3.1 2 3 10.7 9.9 12.5 9.9.6 0 1 2 1 4.5 0 5.1-1.5 5.8-4.6 2.4-1-1.2-4.6-4.2-7.9-6.7-3.2-2.5-7.8-6.6-10.1-9.1s-5.9-6.4-7.9-8.6c-2-2.2-4.6-5.6-5.6-7.7-1-2-2.5-4.1-3.3-4.5-1.7-1-8.3-10-11.6-16-1.3-2.3-2.7-4-3.2-3.7-.5.3.1 1.8 1.2 3.4 1.1 1.5 2 3.2 2 3.7 0 1.3 5.7 9.1 10.1 13.8 2 2.2 4.8 5.8 6.2 8 1.4 2.2 3.9 5.6 5.7 7.5 6.2 6.8 13.4 14 14.2 14 .4 0 3 2 5.8 4.5 4.6 4.1 6.1 5 8.3 4.6.4 0 .7 2.3.7 5.3v5.4l-3.7-3.1c-2.1-1.8-5.3-4.7-7.2-6.5-1.9-1.8-5.4-4.7-7.8-6.3-2.3-1.7-4.3-3.3-4.3-3.7 0-.4-1.4-1.6-3.1-2.6-3.1-1.8-3.1-1.8-2 .3.7 1.1 1.6 2.1 2.1 2.1s2.4 1.6 4.1 3.5c1.8 1.9 3.7 3.5 4.3 3.5.6 0 2.4 1.5 4.1 3.3 1.6 1.8 4.9 4.8 7.3 6.6 2.3 1.8 4.2 3.6 4.2 4.1 0 1.2-9.3-.2-10.8-1.7-.8-.7-3-2.2-5.1-3.2-2-1.1-4.9-3.3-6.5-5-1.7-1.7-3.6-3.1-4.4-3.1-1.9 0 3.9 5.4 10.4 9.7l4.9 3.3h-13l-10.6-10.3c-5.9-5.6-12.1-12.5-13.8-15.3-1.7-2.8-4.1-6-5.2-7-1.2-1-2.4-2.6-2.8-3.4-.3-.8-4-6.7-8.2-13-7.1-10.7-7.6-12-8.2-18.3-.5-5.5-.4-6.7.8-6.7.8 0 1.5.4 1.5.8zm6.5 28.6c1.7 2.7 5.1 7.7 7.7 11.2 2.6 3.5 5.8 8.3 7.3 10.7 2.3 4 16.7 18.5 21.2 21.4 1.5 1 1 1.2-3.5 1.2l-5.2.1-7.8-7.8c-9.3-9.5-9-9.1-14.7-20-1.5-2.9-3.1-5.5-3.6-5.8-.6-.3-2-2.2-3.3-4.2-1.3-2.1-3.3-4.6-4.3-5.7-2.1-2.2-3.5-9.1-2.6-12.6.5-1.8.9-1.5 3.2 2.4 1.4 2.4 4 6.5 5.6 9.1zm-5.5 3.7c0 .5 1.7 3.3 3.7 6.2 2 2.8 5.3 8 7.3 11.3 4.4 7.6 8.2 12.5 14.1 18.6l4.6 4.8h-15.7c-15.5 0-15.8 0-16.4-2.3-.7-2.7-.8-10.7-.1-10.7.3 0 3.2 2.8 6.4 6.2 3.3 3.5 6.3 6 6.7 5.6.4-.4-1.3-2.7-3.7-5.2-10.5-10.5-9.7-8.6-9.9-22.6-.3-16.2-.3-15.5 1.5-14 .8.7 1.5 1.6 1.5 2.1zm52-31.4c0 1.4 10.7 12.3 12 12.3 1.7 0-3.9-6.2-10.7-12-.7-.6-1.3-.7-1.3-.3zm14 14.8c.7.8 1.7 1.2 2.2.9.6-.4.5-1-.3-1.5-2.2-1.4-3.3-1-1.9.6zm-66-13c0 2.3 12.3 21.6 17.1 26.8 1 1.1 3.2 4.7 5 8 1.8 3.4 3.9 6.8 4.6 7.5.7.7 1.3 1.7 1.3 2.1 0 1.5 11.1 12.1 12.7 12.1 1 0-1.2-2.9-5.7-7.4-4-4.1-8.6-9.8-10.3-12.8-2.7-5-7.4-12.2-18.2-27.8-2.5-3.6-4.5-7-4.5-7.7 0-.7-.4-1.3-1-1.3-.5 0-1 .2-1 .5zm0 46.3c0 .5 1.2 1.9 2.6 3.3 1.5 1.3 3.4 3.6 4.4 5.1 2.7 4.4 13.1 14.9 14.1 14.2.5-.3-1.6-2.9-4.6-5.7-3.1-2.8-6.6-6.7-7.7-8.7-1.8-3-7.4-9-8.4-9-.2 0-.4.4-.4.8zm-.6 20.7c.3.9.6 1.9.6 2.1 0 .2.7.4 1.5.4 2.1 0 1.9-1.3-.6-2.9-1.9-1.1-2.1-1.1-1.5.4zm319.7-68.9c0 1.1.3 1.4.6.6.3-.7.2-1.6-.1-1.9-.3-.4-.6.2-.5 1.3zm8.6 6.5c.2 10.9 1.3 11.4 1.3.6 0-4.8-.3-8.7-.7-8.7-.5 0-.7 3.6-.6 8.1zm-12.6 2.1c0 4.6.3 7.8.9 7.8 1.2 0 1.2-4.6.1-11-.8-4.1-.9-3.9-1 3.2zm17.9-2c0 3.2.3 3.9 1 2.8 1.3-2 1.3-7 0-7-.5 0-1 1.9-1 4.2zm7.3 2.3c0 3.3.2 4.5.4 2.7.2-1.8.2-4.5 0-6s-.4 0-.4 3.3zm-70.6-3.8c-1 1-.8 8.6.3 10.3.7 1.1 1-.3 1-4.8 0-6.2-.1-6.7-1.3-5.5zm64.5 8.3c0 1.4.2 1.9.5 1.2.2-.6.2-1.8 0-2.5-.3-.6-.5-.1-.5 1.3zm130.2 14.1c.3 1.7.6 4.1.6 5.2 0 1.5.3 1.8 1.1 1 .7-.7.7-2.2-.1-5.2-1.3-4.8-2.5-5.6-1.6-1zm4.8-.1c0 1.4.2 1.9.5 1.2.2-.6.2-1.8 0-2.5-.3-.6-.5-.1-.5 1.3zm-8.9 1.1c.4 1.3.7 3.7.7 5.3 0 2.2.3 2.7 1.1 1.9 1.4-1.4.4-7.9-1.3-8.9-.8-.5-.9 0-.5 1.7zm115.9 62.5c-1.9 1.3-2.1 1.9-1.1 3 .7.8 1.2 3.1 1.1 5-.1 2.8.2 3.5 1.6 3.2 1.9-.4 2.9-6.9 1.5-10.6-.8-2.1-1-2.1-3.1-.6zm-78.8 2.6c-.9 1.5-1.2 87.2-.3 91.3.4 1.6.8-7.1.9-19.5.2-12.4.4-33.9.5-47.8.2-13.8.2-25.2 0-25.2s-.7.5-1.1 1.2zm27.6 9.5c0 5.9.4 11.5.9 12.2.6 1 .9-2.7.9-10.2 0-6.4-.4-12-.9-12.3-.5-.3-.9 4.2-.9 10.3zm-49-3.5c0 3.5.5 9 1 12.3.6 3.3 1.2 12.5 1.5 20.5.3 8 .9 18.3 1.3 23 .5 5.2.5 9.8-.1 11.7-1 3.1-.4 5.4.9 4 1.4-1.4.2-47.8-1.5-57.7-.6-3.6-1.1-9.5-1.1-13.3 0-3.8-.4-6.7-1-6.7s-1 2.7-1 6.2zm9.6-.7c-.4 3.3 0 10.5 1 17.8 1 7.2 1.4 15.7 1.1 20.7-.4 8-.4 8.3.8 4.5 1.6-4.9 1.8-13.5.4-23.5-.5-4.1-1-11.4-1-16.3 0-9.8-1.3-11.6-2.3-3.2zm31.1-4.7c-.8 1.1-1.1 16.7-.8 38.6.2 11.4.7 19.3 1.1 18.5.8-1.2 1.2-57.9.4-57.9-.1 0-.5.3-.7.8zm17.9 3.3c-.9 5.8.4 91.1 1.5 92.9.5.8.7-20.2.6-47.7-.1-27.1-.5-49.3-.8-49.3-.4 0-.9 1.9-1.3 4.1zm15.8-2.8c.3 1 .6 4.6.6 7.9 0 3.4.3 5.8.7 5.4 1.1-1.1.3-12.9-.9-14.1-.8-.7-.9-.4-.4.8zm1.4 25.8c-.4 26.9.1 62.6.9 64.6.5 1.3.8-14.5.8-36.2-.1-21.1-.4-38.7-.8-39.1-.4-.4-.8 4.4-.9 10.7zm-46.4 30.7c0 23.1.2 32.5.7 26.7 1.1-13.4 1.4-60.4.3-61.5-.6-.6-.9 13.1-1 34.8zm21.6-28.1c0 1.2.5 2.5 1 2.8 1.3.8 1.3-1.5 0-3.5-.8-1.2-1-1.1-1 .7zm-1.4 12.9c-.9 2.5-.7 6.4.4 6.4.6 0 1-1.8 1-4 0-4.3-.4-5-1.4-2.4zm-38 14.1c-.3 1.6-.2 4.1.3 5.8.8 2.6.9 2.3 1-2.8.1-6.2-.4-7.3-1.3-3zm38 1c-.3 1.6-.6 6.4-.6 10.8v14c-.1 3.3.2 5.7.5 5.3.8-.7 1.8-32.8 1.1-32.8-.2 0-.7 1.2-1 2.7zm-9.5 10c0 2.1.4 4.7.9 5.8.6 1.4.9.4.9-3.8.1-3.2-.3-5.7-.9-5.7-.5 0-1 1.7-.9 3.7zm-28.8 9c.4 2.1.9 8.9 1.3 15.1.4 6.2.9 11 1.2 10.7.6-.6.3-18.7-.5-24.8-.3-2.6-1-4.7-1.6-4.7-.6 0-.7 1.5-.4 3.7zm29.5 1.3c-.7 2.6.4 11.6 1.5 12.7.9.8.8-4.8-.2-10.7-.6-3.8-.8-4.1-1.3-2zm-44.7 4.6c0 1.1.3 1.4.6.6.3-.7.2-1.6-.1-1.9-.3-.4-.6.2-.5 1.3zm7 4.1c-.1 3.6.3 6.3.9 6.3 1.2 0 1.2-6.4 0-10-.6-1.9-.8-.9-.9 3.7zm26.4 17.2c-.3.5-.1 1.2.5 1.6.5.3 1-.1 1-.9 0-1.8-.6-2.1-1.5-.7z"/>
	<title>Diagram showing the point of an ice-axe and the connection to the handle.</title>
</svg>
