<?xml version="1.0" encoding="utf-8"?>
<svg xmlns="http://www.w3.org/2000/svg" viewBox="0 0 352 365">
	<title>Schematic closeup showing how two tent-poles are connected with a bolt. A rope extends to other poles outside the picture, supporting the fabric.</title>
	<path d="M267.245.785c-1.3.8-4.3 6.4-33.4 62.7-4.6 8.8-8.6 16.4-9 17-.4.5-4.4 7.9-8.9 16.4-5.3 9.8-7.9 15.7-7.3 16.3 1.1 1.1 3.6-3.1 22.4-39.2 41.1-78.5 37.5-72 40.4-72 1.3 0 2.4.5 2.4 1.1 0 .8.5.8 1.5-.1 1.2-1 2.1-1 4.6.1 3.7 1.5 7.9 5.1 7.9 6.8 0 .6.5 1.1 1 1.1 1.9 0 1 2.1-8 18.9-4.9 9.3-9 17.4-9 18.1 0 3.1 2.9-1.8 11-18.3 8.7-17.7 8.9-18.2 7.3-20.7-3.8-5.7-10.1-9-17.2-9-2.5 0-5.1.4-5.7.8zm.8 6.9c-1.2 2.7-4.2 8.4-6.7 12.8-2.4 4.4-4.4 8.7-4.4 9.5 0 .8.9-.4 1.9-2.7 1.1-2.3 2.5-4.5 3-4.8.6-.3 1-1.2 1-2s1.3-3.3 2.8-5.7c3.4-5.3 6.4-11.8 5.4-11.8-.4 0-1.7 2.1-3 4.7zm-133.9 1.9c-1.8.8-3.3 1.9-3.3 2.4 0 .7.7.7 2.1 0 1.1-.6 3.2-1.3 4.7-1.5 1.5-.1 3.2-.3 3.7-.4 1.3-.2-1.6-2.1-3-2-.5 0-2.5.7-4.2 1.5zm9.7 1.3c0 .6.5 1.3 1.1 1.6 1.9 1.3 3.1 5.8 1.7 6.7-.9.6-.7.8.7.6 1.5-.2 3 1.5 6.7 7.7 9.2 15.6 18.5 30.8 30.5 50.3 12.8 20.5 14.3 24.5 10.4 26.9-1.5.9-2.5.8-5.1-.9-1.8-1.1-4.2-1.7-5.2-1.5-1.1.3-2.7-.3-4-1.6l-2-2.2.7 2.2c1.1 3.7 0 2.7-4.5-4.2-4-6.1-7.2-8.3-8.2-5.4-.2.7-1 .4-1.8-.7-1.4-1.6-1.3-1.7.3-1.1 1.5.6 1.7.3 1.2-1.6-.4-1.2-1.1-2.6-1.6-3.1-.5-.6-.9-1.4-.9-1.9 0-1.4 2.7 1.8 3.4 4.1.4 1.2 1.1 2.2 1.7 2.2 1.7 0-2.5-7.1-4.6-7.6-1.1-.3-2.7-1.4-3.4-2.6-3.3-5.3-5.2-9.1-4.7-9.6.3-.2 1.3.9 2.3 2.7 1 1.7 2.1 3.1 2.6 3.1 1.1 0-1.4-4.7-12.7-23.3-5.5-9.2-12.1-20.3-14.6-24.6-2.5-4.3-5.1-8.6-5.9-9.5-1.3-1.5-1.3-1.9-.1-2.6.8-.5 1.2-1.2.8-1.5-.9-.9-6.7 5.6-7.4 8.3-.7 2.4 4 10.8 22.7 41 4.9 7.8 8.9 14.5 8.9 14.8 0 .3.9 1.7 2 3.1 2.3 3 2.6 5.8.7 7-.8.4-2.4 2.4-3.8 4.3-1.3 1.9-2.7 3.7-3 4-.3.3-2.3 2.7-4.3 5.5-7.8 10.6-16.3 21-21.6 26.4-5.1 5.2-14.3 12.1-16.3 12.1-.5 0-.7.7-.3 1.5.3.8.1 1.5-.4 1.5-.6 0-1-.5-1-1.1 0-.6-.6-.9-1.2-.6-.7.2-1.2 1-1.1 1.8.2 1.8-3.6 4.2-16 10.3-5.5 2.6-9.7 5-9.4 5.2 1.2 1.3 25.1-11.3 30.7-16.1 1.4-1.2 4.1-3.2 6.1-4.3 4.8-2.9 16.8-15.6 24.9-26.4 6.2-8.3 9-10.6 9-7.3 0 .8-.6 1.5-1.4 1.5-.9 0-1.2.7-.9 1.9.2 1-.6 4-2 6.7-2.9 5.9-4.3 10.4-5.2 16.4-.4 2.9-.3 4 .3 3.2.6-1 1.1.1 1.5 3.5.3 2.6.2 4.9-.3 5.1-1.1.4.6 7.2 4.2 16.5 3.2 8.5 9.4 16.4 15 19.3 3.3 1.7 5.2 1.8 4.2.2-.4-.7-.3-.8.5-.4.6.4.9 1.1.6 1.6-.7 1.1 3.4 3.3 10 5.3 2.8.8 6.7 2.2 8.7 3.1 4.2 1.8 7.2 2.1 6.3.6-.3-.6-1.5-1-2.6-1-2.1 0-2.6-1.6-.6-2.3.6-.2-.3-.7-2-1.1-1.8-.4-3.3-1.3-3.3-1.9 0-.8-.4-.7-1.2.1-.7.7-1.9 1.2-2.7 1.2-.8 0-1.1-.3-.8-.7.4-.3.2-1.2-.4-2-.9-.9-.8-1.9.4-3.6 1.3-2.1 3.2-5.4 13.5-24.7 4.1-7.8 5.2-9.1 5.2-6.5 0 1.1 1.1-.3 2.4-3.1 1.3-2.8 2.8-5.4 3.3-5.7.5-.3 1.5 3.2 2.1 8 1.3 9.6 2.7 11.9 7.8 12.9 1.9.3 3.4 1 3.4 1.5 0 .9-13.6 27.5-15.6 30.3-1.2 1.8-1.4 1.8-2 .2-.3-.9-2-2.4-3.7-3.2-2.8-1.5-2.9-1.5-2.3.1.3.9.6 2 .6 2.4 0 1.3 6.1 4.3 7.7 3.7 1.9-.8 7.6 5.1 12.2 12.7 1.9 3.1 3.9 5.3 4.4 5 .5-.3.6.3.3 1.5-.4 1.2-.2 4 .4 6.3 2.3 8.5 3.5 29.4 2.7 47.1-.6 14.1-.4 19 .9 26.3 2.3 12.9 3.5 16.4 2.8 8.5-.4-3.6-1.1-7.6-1.6-9-.6-1.5-.7-10-.3-21.5.7-18.7-.4-40-2.6-50.9-.9-4.5-.8-5 1.3-6.5 1.3-.8 3.8-3.2 5.7-5.3 1.9-2.1 4.2-3.8 5.1-3.8 4.1 0 12-18 12-27.5 0-2.9.3-3.6 1-2.5.5.8 1 2.6 1.1 4 .1 2 .3 1.8.9-1 .7-2.9.5-4-1.4-6.5-2.8-3.8-10.6-16.3-10.6-17 0-.3.7-.5 1.5-.5.9 0 1.9-1 2.4-2.3.5-1.3 1.6-2.8 2.4-3.5 1.2-1 1.8-.8 3.2 1.5 1 1.5 7 8.1 13.4 14.7 13.9 14.4 16.6 17.2 25.2 26.2 3.7 3.8 8.4 8.5 10.5 10.5 2.2 1.9 7.3 7.3 11.4 11.9 4.1 4.6 12.6 13.5 18.8 19.8 6.1 6.3 11.2 11.8 11.2 12.3 0 .4.9 1.1 2 1.4 1.1.3 2 1.2 2 1.9 0 1.6 8.2 9.6 9.9 9.6 1.1 0 1-.4-.2-1.8-1-1-1.7-2.6-1.7-3.6 0-.9-.4-1.5-.8-1.2-.5.3-1.8-.2-3-1-2.7-1.8-3-3.9-.4-2.6.9.5 2.3.7 3.1.4.8-.3 2.6 1 4.2 2.9 1.5 1.9 3.1 3.1 3.5 2.7.4-.4-3.9-5.5-9.6-11.3-8.9-9-11.1-10.7-15.5-12-2.9-.8-5.9-2.2-6.6-3.2-1.3-1.5-1.1-1.6 2.4-1 4.5.7 4.6.1.8-3.6-3.3-3-4.3-3.4-3.5-1.2.5 1.1 0 1.3-2.5.5-3.9-1.1-5.1-1.9-5.1-3.2 0-.6 1.3-.8 3.7-.3 3.7.7 3.8.7 1.9-1.4-1.2-1.3-3.3-2.1-6.4-2.3-2.6-.2-4.7-.8-5-1.6-.3-1 .4-1.2 3.2-.7 2 .4 3.6.4 3.6 0 0-.3-4.4-5.2-9.9-10.8-5.4-5.6-11.2-11.7-12.7-13.6-5.1-6.1-20.2-21.1-21.3-21.1-.6 0-1.1-.6-1.1-1.4 0-.8-.7-1.7-1.6-2-1.2-.4-1.5-.2-1 .9.6 1.6-1.8 2-4.8.9-2.6-1-1.9-3.6.9-3.2 1.3.2 2.4-.2 2.4-.7 0-.6-4.6-5.8-10.2-11.7-5.6-5.9-10.7-11.3-11.3-12.1-.6-.7-3-2.9-5.4-5l-4.4-3.7 9.6-18.8c9.9-19.4 20.8-40.4 22.6-43.8 3.6-6.2 7.1-14.4 6.3-14.4-.6 0-6.4 10.7-12.9 23.7-6.6 13.1-15.3 30.2-19.3 38l-7.3 14.2-2.4-1.5c-1.3-.8-7.6-4.3-14-7.6s-11.8-6.1-12-6.3c-.1-.1.7-1.3 1.8-2.7 1-1.4 2.2-4.5 2.6-6.9.4-2.4 1.1-5.3 1.7-6.3.8-1.6.6-1.8-.7-1.3-1 .4-1.6.1-1.6-.7 0-1.8-6.6-7.6-8.5-7.6-1.2 0-1.5-1.5-1.5-6.5 0-3.6-.4-6.5-1-6.5-.5 0-2.4.9-4.2 2-4.6 2.8-6.3 2.5-8.1-1.3-1.6-3.3-26.2-44.9-33.7-57-3.9-6.1-6-8.2-6-5.8zm-11.6 16.7c3.1 5.2 5.6 9.8 5.6 10.1 0 1-3.5-3.9-7.4-10.5-2.1-3.5-4-6.1-4.3-5.8-.3.3.5 2.2 1.7 4.3 1.3 2.1 3.4 5.8 4.8 8.3 1.3 2.5 4.2 7.1 6.3 10.4 2.2 3.2 3.9 6 3.9 6.3 0 .3.9 1.6 2 3 1.1 1.5 2 2 2 1.2s-.9-2.5-2-3.9-2-3-2-3.5c0-.6-.9-2.1-2-3.5s-2-3.2-2-4c0-1.5 2.4 2.2 7.4 11.2 1.6 2.9 2.1 4.8 1.4 5-1.1.4.2 3.4 3.1 7 .7.9 1.1 2.2.9 2.8-.2.6-6.5-9.1-14-21.7-8.6-14.2-13.3-23-12.6-23.4.6-.4.7-1.2.4-1.8-.4-.6-.3-1.1.2-1.1.6 0 3.5 4.3 6.6 9.6zm18.6 30.4c0 .6 1.1 2.8 2.5 5 2.8 4.5 3.2 5.8 1 4-.8-.7-1.5-1.8-1.5-2.5s-.6-1.8-1.4-2.4c-1.7-1.4-2.8-5.1-1.5-5.1.5 0 .9.5.9 1zm4.2 13c.9 1.7 1.3 3 .8 3s-1.6-1.4-2.5-3c-2-3.9-.5-3.9 1.7 0zm4.9 8.7c1.3 2.6 3 5.4 3.7 6.1.7.8 1 1.7.7 2-.8.8-1.9-.6-5.5-7.1-1.7-3.1-2.8-5.7-2.2-5.7.5 0 2 2.1 3.3 4.7zm10.6 12.8c.8.9 1.3 1.8 1.1 2.1-.3.2-1.3-.5-2.3-1.6-2.1-2.3-1.1-2.7 1.2-.5zm31.8.5c.8 1.3-.5 1.3-2.5 0-1.3-.8-1.3-1 .2-1 .9 0 2 .4 2.3 1zm-32.5 3.2c0 .6-.7.5-1.5-.2s-1.5-1.7-1.5-2.2c0-.6.7-.5 1.5.2s1.5 1.7 1.5 2.2zm4.5 2.8c.9 1.6 1.2 3 .7 3-.4 0-1.6-1.4-2.5-3-1-1.7-1.3-3-.8-3 .6 0 1.7 1.3 2.6 3zm29.6-.9c1.1 1.1 1.8 2.3 1.5 2.6-.3.3-1.8-.6-3.2-2-1.5-1.5-2.2-2.7-1.5-2.7.6 0 2 .9 3.2 2.1zm-1.7 3.8c1 1.1 1.6 2.6 1.4 3.4-.2.9-1.1.2-2.5-1.9-2.4-3.7-1.7-4.6 1.1-1.5zm-32.1 5.4c-.3.5-.9.3-1.4-.4-.4-.7-.5-1.7-.2-2.2.3-.5.9-.3 1.4.4.4.7.5 1.7.2 2.2zm12.7-2.3c0 .5-1.3 1-3 1-1.6 0-3-.5-3-1 0-.6 1.4-1 3-1 1.7 0 3 .4 3 1zm17.5 1.1c.4 1.1.4 2.3 0 2.7-.7.7-2.5-1.7-2.5-3.6 0-2 1.8-1.4 2.5.9zm-24.7 4-.3 2.4-1.8-2.7c-1.1-1.5-1.6-3.2-1.2-3.9 1.2-1.8 3.7 1.5 3.3 4.2zm10.6-2c-1.6 1-3.1 1.6-3.3 1.3-.8-.8 4.2-4.3 5.2-3.7.5.3-.4 1.4-1.9 2.4zm5.1 3.1c-2.5 1.3-4.1 1.6-4.7 1-1.4-1.4 3.9-4.1 6.5-3.4 1.7.4 1.4.8-1.8 2.4zm-10.7 2.4c.2 2.8.2 2.8-1.3 1-1.8-2.4-2-4.9-.2-4.4.6.3 1.3 1.8 1.5 3.4zm18.4-1.5c2 1.1 2 1.2-1.2 2.5-6.3 2.7-9.4 1.3-4.2-1.8 3.3-2.1 2.9-2.1 5.4-.7zm-12.2 3.6c0 1-.6 1.3-1.6.9-.9-.3-1.8-.6-2-.6-.2 0-.4-.6-.4-1.4 0-.9.7-1.2 2-.9 1.1.3 2 1.2 2 2zm-22 2.4c0 1.1-.7 1.9-1.5 1.9-.9 0-1.2-.6-.9-1.5.4-.8.1-1.5-.5-1.5s-1.1.4-1.1.9c0 1.3-4.9 6.5-5.5 5.9-1-1 2-6.6 4.4-8.1 2.9-1.8 5.1-.7 5.1 2.4zm42-3.1c1.7 1 1.6 1.1-3 2.8-4.9 1.8-5.2 1.8-5.6.7-.4-1 4.3-4.4 6.1-4.5.6 0 1.7.4 2.5 1zm-37 1.4c0 .3-.4.8-1 1.1-.5.3-1 .1-1-.4 0-.6.5-1.1 1-1.1.6 0 1 .2 1 .4zm6.5.6c-.3.5-1 1-1.6 1-.5 0-.9-.5-.9-1 0-.6.7-1 1.6-1 .8 0 1.2.4.9 1zm-23 5.9c-1.7 3.4-4.6 4.3-3.8 1.2.7-2.6 4.6-6.7 5.1-5.3.2.6-.4 2.4-1.3 4.1zm60-4.3c1.2.5.5 1.1-2.6 2.6-5.4 2.4-8.6 1.6-5-1.3 2.4-2 4.7-2.4 7.6-1.3zm5 3.1c1.4.5.9 1-2.1 2.5-5.5 2.6-7.6 2.3-4.1-.7 3-2.7 3.6-2.9 6.2-1.8zm-71.5 5.9c-.7.7-1.6 1.4-2.1 1.4-1.6 0-1-3.8.9-5.6 1.6-1.7 1.7-1.7 2 .5.2 1.2-.2 2.9-.8 3.7zm-4.3-1.4c-.3.8-.6.5-.6-.6-.1-1.1.2-1.7.5-1.3.3.3.4 1.2.1 1.9zm30.3-1.8c0 .3-.4.8-1 1.1-.5.3-1 .1-1-.4 0-.6.5-1.1 1-1.1.6 0 1 .2 1 .4zm52 .6c.8.5 1.2 1 1 1.2-4.5 2.9-9 3.7-9 1.7 0-1.5 3.1-3.8 5-3.9.8 0 2.2.4 3 1zm-44 5.9c0 2.1-1.6.2-2.4-2.9-.7-2.4-.6-2.4.8-.6.9 1.1 1.6 2.7 1.6 3.5zm-6-2.9c0 .5-.4 1-1 1-.5 0-1-.5-1-1 0-.6.5-1 1-1 .6 0 1 .4 1 1zm22 3.4c0 .5-.7.1-1.5-1-.8-1-1.4-2.4-1.4-2.9 0-.6.6-.1 1.4.9.8 1.1 1.5 2.4 1.5 3zm-56.3-.2c-.3.7-.5.2-.5-1.2s.2-1.9.5-1.3c.2.7.2 1.9 0 2.5zm89.7-2.6c2.7 1.1 1.8 2.2-2.5 2.9-4.7.8-6 .1-3.3-2 2.1-1.6 3.5-1.8 5.8-.9zm-57.9 2.4c.3.5.1 1-.4 1-.6 0-1.1-.5-1.1-1 0-.6.2-1 .4-1 .3 0 .8.4 1.1 1zm42.5 0c2.2 1.4.3 2.4-4.6 2.5-2.4 0-4.4.3-4.4.7 0 .5.3.8.8.8.4 0 .8 3.5 1 7.8.3 8.4.9 11.5 2.1 10.7.5-.2.5-2.4 0-4.7-.4-2.4-.8-6.1-.7-8.3v-4l1 5c1.7 9.2 2.7 11.5 2.1 5-1-11.2-1.2-10.5 3.6-12.2 3.5-1.2 4.9-1.2 7.2-.3 3.5 1.5 3.8 3 .7 3-4.1 0-5.1 1.6-5.6 7.9-.2 3.3-.2 6.7.1 7.6.8 2 3.7.8 3.7-1.6 0-1.7.8-1.9 6-1.9 3.3 0 6 .4 6 .9 0 .8-8.6 3.8-16 5.6-1.4.3-4.3.2-6.5-.3-3.9-.8-4-.9-4.6-5.7-.4-2.8-.9-7.8-1.2-11.1-.4-5.6-.3-6.3 1.7-7.2 2.7-1.3 5.7-1.4 7.6-.2zm-45.2 2.5c.6 1.4 1.6 2.5 2.2 2.5.5 0 1 .6 1 1.3 0 2.3 2.5 6.7 3.8 6.7.6 0 1.2.9 1.2 1.9 0 3 4.9 8.4 6.5 7.1 2.5-2.1 2.3.4-.5 5.4-3.4 5.9-5 6.9-5 3.2 0-1.8-.7-2.9-2.2-3.5-1.4-.5-1.7-1-1-1.5 1.4-.8 1.6-2.6.4-2.6-.5 0-1.8 1.8-2.9 3.9-2.1 3.9-2.1 4-.2 6 2 2.2 2.5 5.1.9 5.1-.5 0-1-.7-1-1.5s-.4-1.5-.8-1.5c-.5 0-1.4-1.1-2.2-2.4-1.1-2.1-1-2.8.9-5.4 1.3-1.9 1.7-3.3 1.1-3.7-.5-.3-.9-1.4-.9-2.3.1-1.5.2-1.5.6 0 .5 2.2 3.3 2.4 3.3.3 0-.8-.4-1.5-1-1.5-.5 0-1-.8-1-1.8 0-1.4.4-1.2 2 .8 1.1 1.4 2.5 4 3.2 5.7.7 1.8 1.4 3.3 1.8 3.3.9-.1 4.4-3 3.7-3.1-.4-.1-1.1-.2-1.7-.3-1-.1-7-9.1-7-10.5 0-1.3-2.7-2.1-4.5-1.5-1.1.5-1.3.2-.9-.9.3-.9 1.2-1.3 2-1 .8.3 1.4.2 1.4-.1 0-.7-2.2-4.8-3-5.6-1.3-1.3-2.9-5-2.2-5 .5 0 1.4 1.1 2 2.5zm10.2.5c0 1.8-1.9 1.1-3-1.1-1.1-1.9-1-2 .9-.9 1.2.6 2.1 1.5 2.1 2zm6-2.6c0 .3-.4.8-1 1.1-.5.3-1 .1-1-.4 0-.6.5-1.1 1-1.1.6 0 1 .2 1 .4zm49.8 2.2c3 2.1 2.2 3-3.2 3.3-3.6.1-4.6-.1-4.6-1.4 0-.9 1-2 2.3-2.5 3-1.2 3-1.2 5.5.6zm-58.8 3.1c0 2.1-1.4 1.5-2.6-1.1-1.1-2.3-1-2.4.7-1.3 1.1.7 1.9 1.7 1.9 2.4zm18.5-2.7c.3.5.1 1-.4 1-.6 0-1.1-.5-1.1-1 0-.6.2-1 .4-1 .3 0 .8.4 1.1 1zm-28.8 2.2c-.3.8-.6.5-.6-.6-.1-1.1.2-1.7.5-1.3.3.3.4 1.2.1 1.9zm-20.7-.5c-.1 1.8-1.8 3.5-2.4 2.4-.4-.6-.4-1.6-.1-2.1.7-1.2 2.5-1.3 2.5-.3zm4.5.3c.3.5.1 1-.4 1-.6 0-1.1-.5-1.1-1 0-.6.2-1 .4-1 .3 0 .8.4 1.1 1zm2.9 2.6c-1.8 2.6-3.7 3.3-2.8.9.4-.8 1-1.5 1.5-1.5s.9-.7.9-1.6c0-.8.4-1.2 1-.9.6.4.4 1.6-.6 3.1zm2.7 2.7c-.8.8-1.1.7-1.1-.4 0-.9.3-1.9.7-2.3.4-.4.9-.2 1.1.4.3.7-.1 1.7-.7 2.3zm4.9-1.8c0 .8-.4 1.5-1 1.5-.5 0-1-.7-1-1.5s.5-1.5 1-1.5c.6 0 1 .7 1 1.5zm82 2.1c0 .8.6 1.4 1.4 1.4.7 0 1.9.7 2.6 1.5 1.1 1.3.7 1.5-2.5 1.5-3.4 0-3.7-.2-3.1-2.4.3-1.4.2-2.8-.4-3.1-.5-.3-1-1.1-1-1.7 0-.7.6-.6 1.5.2.8.7 1.5 1.9 1.5 2.6zm-95.2-1.4c-.2.6-1 1.4-1.6 1.6-.7.2-1-.2-.6-1.2.7-1.8 2.8-2.2 2.2-.4zm30.2-.2c0 .5-.4 1-1 1-.5 0-1-.5-1-1 0-.6.5-1 1-1 .6 0 1 .4 1 1zm13-.1c0 .5.3 1.8.7 2.8.6 1.7.6 1.7-1 .1-1.9-1.8-2.2-3.8-.7-3.8.6 0 1 .4 1 .9zm31.1 2.7c-.9 2.8-.9 2.9-1 .3-.1-1.4.2-2.9.6-3.2 1.1-1.2 1.3-.2.4 2.9zm4.2.1c-.3 1.8-.9 3.3-1.3 3.3-.5 0-.4-1.5.1-3.2.5-1.8.9-3.5.9-3.7 0-.2.2-.2.4 0s.1 1.9-.1 3.6zm12.2-.7c0 3.7-3.5 4.1-3.6.3v-2.8l-1.1 2.5c-.6 1.5-1.2 2-1.5 1.2-.7-1.9 1.7-4.3 4.1-4 1.5.2 2.1 1 2.1 2.8zm-8.8 2.2c-.3.7-.5.2-.5-1.2s.2-1.9.5-1.3c.2.7.2 1.9 0 2.5zm-79.7-1.5c0 .5-.4 1.5-1 2.3-1.1 1.8-2.5.7-1.7-1.5.6-1.5 2.7-2.1 2.7-.8zm12.5.3c.3.5.1 1-.4 1-.6 0-1.1-.5-1.1-1 0-.6.2-1 .4-1 .3 0 .8.4 1.1 1zm-8.3 1.7c.3 1.5.4 1.5 2.1-.1 1.6-1.6 1.8-1.6 3.3-.1 1.3 1.2 1.4 1.9.5 2.8-.8.8-1.1.7-1.1-.6 0-.9-.4-1.7-.9-1.7-1.4 0-2.3 3.3-1 4.1.8.5.8 1.2 0 2.5-1 1.8-1 1.8-1.1-.4 0-1.2-.4-2.2-.9-2.2s-1.1-.8-1.5-1.8c-.3-.9-.9-2.3-1.2-3-.3-.6-.1-1.2.4-1.2.6 0 1.2.8 1.4 1.7zm11.8-.3c0 .3-.4.8-1 1.1-.5.3-1 .1-1-.4 0-.6.5-1.1 1-1.1.6 0 1 .2 1 .4zm3 1.6c0 .5-.4 1-1 1-.5 0-1-.5-1-1 0-.6.5-1 1-1 .6 0 1 .4 1 1zm-27.3 2.2c-.3.8-.6.5-.6-.6-.1-1.1.2-1.7.5-1.3.3.3.4 1.2.1 1.9zm10.3-.1c0 .5-.4.9-1 .9-.5 0-1-.7-1-1.6 0-.8.5-1.2 1-.9.6.3 1 1 1 1.6zm10.7.1c-.3.8-.6.5-.6-.6-.1-1.1.2-1.7.5-1.3.3.3.4 1.2.1 1.9zm-15.7-.3c0 .6-.4 1.3-1 1.6-.5.3-1-.1-1-.9 0-.9.5-1.6 1-1.6.6 0 1 .4 1 .9zm23.5 1.1c.3.5.1 1-.4 1-.6 0-1.1-.5-1.1-1 0-.6.2-1 .4-1 .3 0 .8.4 1.1 1zm82.1 1.4c1 .8 1.6 1.7 1.3 2-.8.9-6.2-.9-6.7-2.2-.5-1.7 3-1.5 5.4.2zm-90.6.5c0 .6-.4 1.3-1 1.6-.5.3-1-.1-1-.9 0-.9.5-1.6 1-1.6.6 0 1 .4 1 .9zm-13 1.5c0 .8-.4 1.8-1 2.1-.5.3-1-.3-1-1.4 0-1.2.5-2.1 1-2.1.6 0 1 .6 1 1.4zm4-.8c0 .3-1.1 2.2-2.5 4.2-2.8 4.2-3.4 2.9-.7-1.7 1.5-2.7 3.2-4.1 3.2-2.5zm16 .4c0 .5-.2 1-.4 1-.3 0-.8-.5-1.1-1-.3-.6-.1-1 .4-1 .6 0 1.1.4 1.1 1zm-9 2.4c0 .3-.4.8-1 1.1-.5.3-1 .1-1-.4 0-.6.5-1.1 1-1.1.6 0 1 .2 1 .4zm3 1.2c0 .8-.5 1.2-1 .9-.6-.4-.8-1.1-.5-1.6.9-1.4 1.5-1.1 1.5.7zm6 4c0 .2-.3.4-.7.4-1 0-3.2-4.8-2.5-5.4.4-.5 3.2 3.9 3.2 5zm70.6 11.9c-.3 1.1-.2 2.6.3 3.3 1.5 2.5-.9 12.4-4.4 18.3-1.9 3.1-3.5 6.2-3.5 6.8 0 1.9-1.9 1.2-3.3-1.2-4.7-7.8-9.7-17.1-9.3-17.5.9-.8 2.2.7 4.6 5.5 2.5 5.2 7 12.2 7 11 0-.4-2.2-4.6-4.9-9.4-2.6-4.9-5.6-10.4-6.5-12.3l-1.8-3.5 2.7 3c2.6 2.9 2.6 2.9 2 .5-.7-2.5-1.3-6.8-2.4-16.1 0-.6-.9-.8-1.8-.4-1.4.5-1.5.3-.6-.6.6-.6 4-1.9 7.4-2.9l6.3-1.7 4.4 7.6c2.6 4.7 4.1 8.4 3.8 9.6zm-84.6-16.1c0 .3-.4.8-1 1.1-.5.3-1 .1-1-.4 0-.6.5-1.1 1-1.1.6 0 1 .2 1 .4zm103.6 2.1c1.8 1.4 1.7 1.5-1.5 1.3-1.9-.2-3.6-.9-3.9-1.6-.5-1.7 3-1.5 5.4.3zm-102 2.2c-1 1-1.9-.5-1-1.8.6-1.1.8-1.1 1.2 0 .2.7.1 1.5-.2 1.8zm-5.5 2.6c-1.3 1.3-1.5-.1-.4-3 .7-1.7.8-1.7 1.1.1.2 1-.1 2.3-.7 2.9zm15-1.3c.5 0 .9.7.9 1.5s-.4 1.5-1 1.5c-.5 0-1-.7-1-1.5s-.4-1.5-1-1.5c-.5 0-1 .7-1 1.5s-.4 1.5-1 1.5c-1.5 0-1.2-1.7.8-4 1.4-1.7 1.8-1.8 2-.5.2.8.8 1.5 1.3 1.5zm-8.4 3.2c-.3.8-.6.5-.6-.6-.1-1.1.2-1.7.5-1.3.3.3.4 1.2.1 1.9zm20.9 4.7c-1.7 3.3-3.6 4.1-3.6 1.6 0-.7.8-1.8 1.8-2.4 1.4-.8 1.5-1.2.5-2.2-2.3-2.3-1.5-4.2.8-2 2 1.8 2 2.1.5 5zm-25.4-3.7c-.7.7-1.2.8-1.2.2 0-.6.3-1.4.7-1.7.3-.4.9-.5 1.2-.2.2.3-.1 1.1-.7 1.7zm7.1 1.8c-.3 1.1-.9 2-1.4 2-1.1 0-1.1-.3-.3-2.4.9-2.3 2.3-2 1.7.4zm4.7-1.1c0 .6-.4 1.3-1 1.6-.5.3-1-.1-1-.9 0-.9.5-1.6 1-1.6.6 0 1 .4 1 .9zm4 .6c0 .8-.4 1.5-1 1.5-.5 0-1-.7-1-1.5s.5-1.5 1-1.5c.6 0 1 .7 1 1.5zm-13 .4c0 .6-.4 1.3-1 1.6-.5.3-1-.1-1-.9 0-.9.5-1.6 1-1.6.6 0 1 .4 1 .9zm-4.5 1.1c.3.5.2 1-.4 1-.5 0-1.3-.5-1.6-1-.3-.6-.2-1 .4-1 .5 0 1.3.4 1.6 1zm119.6 1c2.8 1.5 2.3 3-1 3-3.5 0-6.2-2.6-3.4-3.3 1-.3 1.9-.5 2.1-.6.2 0 1.2.4 2.3.9zm-109.9 2.2c-.6.6-1.5.8-1.9.4-.4-.4-.1-1.1.7-1.6 1.9-1.2 2.7-.3 1.2 1.2zm7.3 1.6c-.6.7-3.5-1.8-3.5-3.1 0-.5.9-.2 2 .8s1.8 2 1.5 2.3zm3.5-1.8c.6 1.1 1.7 2 2.5 2 .9 0 1.2.6.9 1.5-.4.8-1 1.5-1.5 1.5s-.9-.7-.9-1.5-.3-1.5-.8-1.5c-.4 0-1.3-.9-2-2s-.8-2-.2-2c.5 0 1.4.9 2 2zm-14 2.5c.7.8.8 1.5.2 1.5-.5 0-1.5-.7-2.2-1.5-.7-.8-.8-1.5-.2-1.5.5 0 1.5.7 2.2 1.5zm6.7 0c.8.9 1.3 1.9 1 2.2-.6.5-3.7-2.1-3.7-3.1s1.1-.6 2.7.9zm6.8 2.5c1 1.1 1.3 2 .7 2-.6 0-1.6-.9-2.2-2-.6-1.1-.9-2-.7-2 .2 0 1.2.9 2.2 2zm106.2.5 2.8 2.5-3-.6c-3.9-.9-6.5-2.2-6.5-3.4 0-1.9 3.9-1 6.7 1.5zm-106 4.7c1.8.7 3.3 1.6 3.3 2 0 .4-.2.8-.4.8-.9 0-7.6-3.1-7.6-3.5 0-.8 1.1-.6 4.7.7zm110.8 1.2c1.9.8 3.5 2.2 3.5 3 0 .9-.3 1.6-.7 1.6-1.5 0-7.3-4-7.3-5 0-1.3.4-1.3 4.5.4zm-70.8 8.8c-.3.8-.6.5-.6-.6-.1-1.1.2-1.7.5-1.3.3.3.4 1.2.1 1.9zm79.4-.2c1 .6 1.9 1.5 1.9 2 0 1.8-4.7 1-6.5-1-1.8-1.9-1.7-2 .4-2 1.2 0 3.1.5 4.2 1zm-81.4 4.2c-.3.8-.6.5-.6-.6-.1-1.1.2-1.7.5-1.3.3.3.4 1.2.1 1.9zm5.3-.7c0 .8-.4 1.5-1 1.5-.5 0-1-.7-1-1.5s.5-1.5 1-1.5c.6 0 1 .7 1 1.5zm-2.5 3.5c.3.5.1 1-.4 1-.6 0-1.1-.5-1.1-1 0-.6.2-1 .4-1 .3 0 .8.4 1.1 1zm5.5.5c0 .8-.4 1.5-1 1.5-.5 0-1-.7-1-1.5s.5-1.5 1-1.5c.6 0 1 .7 1 1.5zm81 0c.7.9 1.1 1.7.8 2-.8.8-6.2-1.1-6.6-2.3-.6-1.8 4.3-1.5 5.8.3zm-75.9 5.7c1.1 2.1.1 2.3-2.3.4-1-.7-1.8-2.4-1.8-3.7.1-2.4.1-2.4 1.6-.4.9 1.1 2 2.8 2.5 3.7zm-7.1 0c0 .5-.4.8-1 .8-.5 0-1-1-1-2.3 0-1.8.2-1.9 1-.7.5.8 1 1.8 1 2.2zm91 2.3c2.1 1.3.9 2.5-1.7 1.9-3.1-.7-5.3-2.2-5.3-3.5 0-.8 5 .3 7 1.6zm-86 2.3c0 2.3-3.5.8-3.8-1.6-.3-2.1-.2-2.2 1.7-1 1.2.7 2.1 1.9 2.1 2.6zm112.2 25.9c1 .9 1.8 2 1.8 2.4 0 1.2-6.2-.9-7.9-2.6-1.4-1.3-1.2-1.5 1.4-1.5 1.5 0 3.7.7 4.7 1.7zm5.9 6.5c2 1.7 4.7 5.3 3.4 4.6-.5-.3-2.7-1.3-4.7-2.3-2.1-.9-3.5-2.1-3.2-2.6.7-1.3 2.8-1.1 4.5.3zm-114.5-60.2c.7 2.8 1.2 3.5 1.8 2.9.2-.2-.2-1.5-1-2.9l-1.5-2.5.7 2.5zm2.4 4.9c0 .6.4 1.3 1 1.6.6.3.7-.1.4-.9-.7-1.8-1.4-2.1-1.4-.7zm3.2 5.6c.6 1.4 1.5 2.5 2 2.5s.1-1.1-.8-2.5-1.8-2.5-2-2.5c-.2 0 .2 1.1.8 2.5zm49-164.6c-4.4 8.3-7.7 15.1-7.3 15.1.3 0 1.7-1.9 2.9-4.3 8.7-15.7 13.4-24.9 12.9-25.3-.3-.3-4.1 6.3-8.5 14.5zm-12.1-11.1c-.7 1.3-1 2.8-.7 3.5.2.7.5.5.5-.5.1-.9.6-1.8 1.3-2 .6-.2.9-1.1.6-1.8-.3-1.1-.8-.9-1.7.8zm-3.1 6.1c0 .5-.3 1.8-.6 2.8-.6 1.6-.5 1.6.9-.2 1.9-2.3 2.1-3.5.7-3.5-.5 0-1 .4-1 .9zm-3.7 7.8c-.7 1.5-1.1 2.8-.9 3.1.6.6 2.8-3.8 2.4-4.8-.2-.5-.9.3-1.5 1.7zm-7.1 6.5c-4 6.7-13.2 25.8-12.4 25.8.7 0 2.9-4 11.3-21.3 4-8 4.5-10.1 1.1-4.5zm3.8-.6c0 .8.5 1.2 1 .9.6-.3 1-1 1-1.6 0-.5-.4-.9-1-.9-.5 0-1 .7-1 1.6zm-110 9.2c.6 1.3 1.4 2.1 1.8 1.8.3-.4-.2-1.4-1.2-2.4-1.8-1.6-1.8-1.6-.6.6zm112.7 20.7c-2.4 5-2 5.8.4 1.2 1.1-2.2 1.9-4.1 1.7-4.3-.3-.2-1.2 1.2-2.1 3.1zm-23 2.4c-2.4 4.2-2.1 5.2.4 1.3 1.2-1.8 2-3.5 1.7-3.7-.2-.2-1.2.9-2.1 2.4zm-74.7 9.5c0 .2.7.9 1.5 1.6 1.3 1.1 1.4 1 .9-.4-.5-1.4-2.4-2.3-2.4-1.2zm64.5 10.7c-.4.6-.5 1.2-.2 1.5.2.3.7-.2 1-1.1.7-1.7.1-2-.8-.4zm-51.9 4.4c.4.8.8 1.5 1 1.5.2 0 .4-.7.4-1.5s-.4-1.5-1-1.5c-.5 0-.7.7-.4 1.5zm2.4 3.4c0 .5.5 1.3 1 1.6.6.3 1 .2 1-.4 0-.5-.4-1.3-1-1.6-.5-.3-1-.2-1 .4zm42.6 4.8c-.6 1.4-.5 1.5.5.6.7-.7 1-1.5.7-1.8-.3-.3-.9.2-1.2 1.2zm-4.3 7.9c-1.7 2.9-2.8 5.6-2.4 5.8.8.5 6.7-10.1 6-10.8-.2-.2-1.8 2-3.6 5zm5.4-2.9c-.4.3-.7 1.1-.7 1.7 0 .6.5.5 1.2-.2.6-.6.9-1.4.7-1.7-.3-.3-.9-.2-1.2.2zm-87.2 23.4c-1 1.5.1 2.3 2 1.5.9-.3 1.3-1 1-1.6-.8-1.3-2.2-1.3-3 .1zm.5 5.9c0 .5.7 1 1.5 1s1.5-.5 1.5-1c0-.6-.7-1-1.5-1s-1.5.4-1.5 1zm4.1 2.6c0 1.1.3 1.4.6.6.3-.7.2-1.6-.1-1.9-.3-.4-.6.2-.5 1.3zm-4.1 2.4c0 .5.5 1 1 1 .6 0 1-.5 1-1 0-.6-.4-1-1-1-.5 0-1 .4-1 1zm-39.5 5.2c-2.7 1.1-9.1 3.8-14.1 5.9-5 2.2-9.5 3.9-9.9 3.9-.4 0-2.1.7-3.8 1.4-7.4 3.4-46.1 14.5-57.7 16.6-7 1.3-11.2 2.9-7.5 3 1.1 0 3.6-.5 5.5-1 1.9-.6 7.6-1.8 12.5-2.6 5-.8 12.6-2.6 17-4 17.4-5.5 32.1-10.5 35-11.9 1.7-.7 7.1-3 12-5.1 12.4-5.1 17.5-7.4 17.5-7.9 0-.8-1.3-.5-6.5 1.7zm40.5-.2c0 .5.5 1 1 1 .6 0 1-.5 1-1 0-.6-.4-1-1-1-.5 0-1 .4-1 1zm-15.2 7.3c-.8 1.2-1.7 3-2.1 3.9-.3 1-1.1 1.8-1.6 1.8-1.6 0-5.3 7.2-4.2 8.3.7.7 1.4 0 2.3-1.9.7-1.6 2.1-3.8 3.1-4.9 2.9-3.2 5.7-8.4 4.8-9-.5-.2-1.5.5-2.3 1.8zm4.5 3c-.5.6-3.8 7-7.3 14.2-3.4 7.1-9.2 18.8-12.8 26-10.8 21.5-11.3 22.7-10.9 23.2.6.6 15.5-28.2 23.3-44.9 3.2-7 6.2-12.8 6.6-12.8.3 0 0 2.8-.8 6.2-2.4 10.1-4.1 20.9-3.2 20 1-1 4.6-18.4 5.2-24.8.2-2.4.9-5 1.5-5.8.7-.8.8-1.7.3-2-.6-.3-1.4 0-1.9.7zm13.2.7c.3.5 1 1 1.6 1 .5 0 .9-.5.9-1 0-.6-.7-1-1.6-1-.8 0-1.2.4-.9 1zm-36.2 2.2c-.4.7-3.3 3.4-6.3 6s-7.3 6.3-9.5 8.2c-2.3 2.1-4.3 3.2-4.8 2.7-.9-.9-9.7 4.6-18.2 11.4-4.4 3.5-13.6 8.8-17.3 9.9-1.2.4-5.5 2.3-9.5 4.2-5.6 2.8-6.4 3.4-3.7 2.9 6.3-1 27.5-12.1 37.4-19.6 5.3-3.9 10-6.9 10.4-6.5.4.4-.2 1.4-1.2 2.2-1.1.8-1.4 1.4-.7 1.4 1.1 0 9.5-7.4 21.6-19.2 2.7-2.6 4.4-4.8 3.8-4.8-.7 0-1.6.6-2 1.2zm-32.3 5.3c-3 1.9-4.8 3.5-4.1 3.5 1.7 0 10.1-5.2 10.1-6.3 0-1 .1-1-6 2.8zm70.8-2.3c.9.9 1.5.9 2.4 0 .9-.9.7-1.2-1.2-1.2s-2.1.3-1.2 1.2zm44.2 6.9c-1.2 2.3-2 4.3-1.7 4.5.2.2 1-.8 1.7-2.4.8-1.5 2.1-3.5 2.9-4.5.9-1.1 1-1.7.3-1.7-.6 0-2.1 1.8-3.2 4.1zm-41.5-1.1c-.3.5.1 1 .9 1 .9 0 1.6-.5 1.6-1 0-.6-.4-1-.9-1-.6 0-1.3.4-1.6 1zm-34.3 2.5c-1.6 1.9-.4 1.9 2.8 0 2.2-1.3 2.3-1.4.5-1.4-1.1 0-2.6.6-3.3 1.4zm-21.2 8.3c-12.3 12.8-16.2 17.3-15.7 17.9.4.3 3-2 5.9-5.2 2.9-3.1 8.2-8.8 11.7-12.6 3.5-3.8 6-6.9 5.5-6.9-.5.1-3.8 3.1-7.4 6.8zm59.5-5.8c-.3.5-.1 1 .4 1 .6 0 1.1-.5 1.1-1 0-.6-.2-1-.4-1-.3 0-.8.4-1.1 1zm38.1.7c-.6 1.4-.5 1.5.5.6.7-.7 1-1.5.7-1.8-.3-.3-.9.2-1.2 1.2zm-80 3.2c-2 3.8-2.1 6.1-.1 3.5 2.8-3.7 1.5.2-2.3 6.6-2.1 3.6-5.9 10.3-8.5 15-2.6 4.7-5.5 9.6-6.4 10.9-1.4 2-1.5 2.3-.3 1.9 2.7-.8 22.7-37 20.2-36.7-1.9.3-2.3-.2-1.2-1.6.7-.9 1-1.8.7-2.1-.3-.3-1.3.8-2.1 2.5zm4.1-2.2c-.4.3-.7 1.1-.7 1.7 0 .6.5.5 1.2-.2.6-.6.9-1.4.7-1.7-.3-.3-.9-.2-1.2.2zm70 3.8c-.9 1.9-1.5 3.5-1.3 3.5.2 0 1.3-1.6 2.5-3.5 1.1-1.9 1.7-3.5 1.3-3.5-.5 0-1.6 1.6-2.5 3.5zm-30.2-1.5c-.3.5.1 1 .9 1s1.8-.5 2.1-1c.3-.6-.1-1-.9-1s-1.8.4-2.1 1zm98.5-.3c0 .6 4 7.6 8.9 15.4 4.8 7.9 11.1 18.4 14 23.4 2.8 4.9 5.6 9.7 6.1 10.5.5.8 4.9 8.7 9.8 17.5 11.1 20 13.2 23.4 13.2 21.5 0-.8-.9-2.9-1.9-4.7-1.1-1.7-4.3-7.6-7.2-13-2.9-5.4-7-12.6-9.1-16.1-2.1-3.4-3.8-6.4-3.8-6.7 0-.2-2.5-4.3-5.5-9.1-3-4.9-5.5-9.2-5.5-9.6 0-.4-1.9-3.6-4.3-7.1-2.3-3.4-4.9-7.6-5.7-9.2-1.2-2.4-7.2-11.7-8.6-13.4-.2-.2-.4 0-.4.6zm-65 1.4c0 .5.5.7 1 .4.6-.3 1-.8 1-1.1 0-.2-.4-.4-1-.4-.5 0-1 .5-1 1.1zm-28 2.4c-1 1.2-1 1.5.3 1.5 1.9 0 3.1-1.6 1.8-2.4-.5-.3-1.4.1-2.1.9zm92.5 2.5c.3.5.8 1 1.1 1 .2 0 .4-.5.4-1 0-.6-.5-1-1.1-1-.5 0-.7.4-.4 1zm-176.8 4.7c-3 2.7-6.3 5.6-7.5 6.5-9.1 7.4-13.2 10.8-12.9 10.8 1.3 0 6.8-3.4 9.7-6.1 1.9-1.7 5.1-4.3 6.9-5.8 5.1-3.8 11.3-10.1 10.2-10.1-.6 0-3.5 2.1-6.4 4.7zm30.8-3.7c-.3.5-.1 1 .4 1 .6 0 1.1-.5 1.1-1 0-.6-.2-1-.4-1-.3 0-.8.4-1.1 1zm57.5 1c0 1.2.8 1.2 3.5 0 1.8-.8 1.7-.9-.7-.9-1.6-.1-2.8.3-2.8.9zm6 2c-1.3.8-1.3 1 .2 1 .9 0 2-.5 2.3-1 .8-1.3-.5-1.3-2.5 0zm-67 3.1c-.7 1.1-1 2.3-.7 2.5.2.2.9-.7 1.5-2.1 1.4-3 .7-3.3-.8-.4zm71-.6c-1 1.2-1 1.5.3 1.5.8 0 2-.7 2.7-1.5 1-1.2 1-1.5-.3-1.5-.8 0-2 .7-2.7 1.5zm78.5.5c.3.5.8 1 1.1 1 .2 0 .4-.5.4-1 0-.6-.5-1-1.1-1-.5 0-.7.4-.4 1zm-71.8.7c-.4.3-.7 1.1-.7 1.7 0 .6.5.5 1.2-.2.6-.6.9-1.4.7-1.7-.3-.3-.9-.2-1.2.2zm-13.9 1c-3.7.6-3.6 2.3.2 2.3 2 0 3-.5 3-1.5 0-.8-.1-1.4-.2-1.4-.2.1-1.5.4-3 .6zm17.7 1.4c-1.1 1.7-.2 1.8 2.5.4 2.4-1.4 2.4-1.4.3-1.5-1.2 0-2.5.5-2.8 1.1zm69.9 3.4c-.7 1.8.3 3.5 2.2 3.5 1.5 0 1.7-.9.8-3.4-.8-2-2.3-2.1-3-.1zm-95.9 1.6c-.3.4.8 1.2 2.4 1.7 2.8 1 4.1.7 4.1-.9 0-.9-6-1.7-6.5-.8zm37.5 0c0 .5.5.7 1 .4.6-.3 1-.8 1-1.1 0-.2-.4-.4-1-.4-.5 0-1 .5-1 1.1zm6.4 1.5c-1.8 1.5-1.8 1.5.6 1 1.4-.3 2.8-.6 3.3-.6.4 0 .7-.5.7-1 0-1.5-2.4-1.2-4.6.6zm45.6 0c0 .8.5 1.2 1 .9.6-.4.8-1.1.5-1.6-.9-1.4-1.5-1.1-1.5.7zm14 .4c1.3 2.4 3.5 2.7 2.6.4-.3-.9-.6-1.8-.6-2 0-.2-.7-.4-1.5-.4-1.3 0-1.4.4-.5 2zm-76 1.5c0 1 .7 1.5 1.8 1.3 2.1-.4 1.9-2.2-.2-2.6-1-.2-1.6.3-1.6 1.3zm-11.2 1.2c-.3.4-.8 2.1-1.2 3.6-.6 2.4-.4 2.8 1.1 2.5 2-.4 3-4.5 1.5-6-.5-.5-1.2-.6-1.4-.1zm32.7.3c-.3.5.1 1 .9 1 .9 0 1.6-.5 1.6-1 0-.6-.4-1-.9-1-.6 0-1.3.4-1.6 1zm56.6 3.7c-1.3 4.5-1.3 10.8 0 14.3.6 1.9.8 1.2.4-2.5-.2-2.8 0-7.3.5-10 1-6.1.5-7-.9-1.8zm-107.4-1c3.3 1.7 5.1 1.3 3.8-.6-.3-.6-2.1-1.1-3.8-1h-3.2l3.2 1.6zm39.3.3c0 1.4 5.8 4.2 7.8 3.8 1.2-.3.4-1.1-2.5-2.6-4.8-2.5-5.3-2.6-5.3-1.2zm38.6 1.7c-.6 1.4-.5 1.5.5.6.7-.7 1-1.5.7-1.8-.3-.3-.9.2-1.2 1.2zm8.5-.1c0 1.1.3 1.4.6.6.3-.7.2-1.6-.1-1.9-.3-.4-.6.2-.5 1.3zm-33.6.4c-.3.5.1 1 .9 1s1.8-.5 2.1-1c.3-.6-.1-1-.9-1s-1.8.4-2.1 1zm-19.8 1.8c-2.1 2.3-2.2 4.2-.2 4.2 1.8 0 3.6-3.2 2.6-4.8-.6-.9-1.2-.8-2.4.6zm-39.3.3c-.3.5.6.9 2 .9 3.1 0 3.4-.6.6-1.3-1.1-.3-2.3-.1-2.6.4zm43.6.7c0 1.3 4.5 5.2 6 5.2.8 0 0-1.3-1.8-3-3.5-3.2-4.2-3.5-4.2-2.2zm75.3 3.2c0 2.5.2 3.5.4 2.2.2-1.2.2-3.2 0-4.5-.2-1.2-.4-.2-.4 2.3zm-57.8-2c-.3.5.1 1 .9 1s1.8-.5 2.1-1c.3-.6-.1-1-.9-1s-1.8.4-2.1 1zm17.3 2.5c-2.4 3.3-2.3 4.3.2 1.5 1.1-1.3 2-2.7 2-3.2 0-1.2-.3-1-2.2 1.7zm12.7-.5c-.3.5-.2 1 .4 1 .5 0 1.3-.5 1.6-1 .3-.6.2-1-.4-1-.5 0-1.3.4-1.6 1zm-65.2 1.6c-.3.8 0 2.1.6 2.7 1 .9 1.6.8 2.6-.7.8-1 1.2-2.3.9-2.7-.9-1.5-3.4-1-4.1.7zm60.8 0c0 1.1.3 1.4.6.6.3-.7.2-1.6-.1-1.9-.3-.4-.6.2-.5 1.3zm-22.6.4c-.3.5-.1 1 .4 1 .6 0 1.1-.5 1.1-1 0-.6-.2-1-.4-1-.3 0-.8.4-1.1 1zm-66.5.9c0 1.3 3.7 2.4 5.2 1.5.8-.5.6-1-.8-1.5-2.7-1.1-4.4-1.1-4.4 0zm43.5 1.1c.3.6 2.1 1.7 3.8 2.6l3.2 1.7-2.4-2.7c-2.3-2.5-5.9-3.7-4.6-1.6zm41.5.9c0 .6.5 1.3 1 1.6.6.3 1-.1 1-.9 0-.9-.4-1.6-1-1.6-.5 0-1 .4-1 .9zm12 .2c0 .5.5.7 1 .4.6-.3 1-.8 1-1.1 0-.2-.4-.4-1-.4-.5 0-1 .5-1 1.1zm-29.5 2.9c-.3.5.1 1 .9 1 .9 0 1.6-.5 1.6-1 0-.6-.4-1-.9-1-.6 0-1.3.4-1.6 1zm-26.5.7c0 1.2 3.8 4.8 4.5 4.1.3-.2-.6-1.5-2-2.8-1.4-1.3-2.5-1.9-2.5-1.3zm37.8.4c-.3.8-.1 2.5.4 3.9s1.6 7.2 2.3 13l1.4 10.5-.4-9.1c-.3-5-.7-10-1-11-.3-1.1.4.1 1.6 2.4 1.1 2.4 2.5 7.2 3.1 10.5.5 3.4 1.1 7.1 1.3 8.2.2 1.1 1.1 2.9 2 4 1.5 1.9 1.6 1.9.4-.4-.6-1.4-1.5-5.8-2-9.8-.9-7.9-5.4-19.7-7.2-18.6-.6.3-.7.1-.3-.5.4-.7.3-1.9-.2-2.8-.8-1.4-1-1.4-1.4-.3zm47.4.5c.1.9.9 1.9 1.6 2.2.9.3 1.3-.2 1-1.4-.1-.9-.9-1.9-1.6-2.2-.9-.3-1.3.2-1 1.4zm-127.8.9c2.2 1.7 4.6 2 4.6.6 0-1-2.5-2.1-4.8-2.1-1.5.1-1.4.3.2 1.5zm101.1 1.6c-2.2 4.1-1.3 4.8 1.4 1 1.2-1.7 1.7-3.2 1.2-3.6-.6-.3-1.7.8-2.6 2.6zm18.3 2.9c.9 7.2.9 12.7-.1 17-.5 2.4-.4 3.1.3 2.4 1.8-1.8 2.2-13.5.6-19.4l-1.4-5.5.6 5.5zm-48.5-3.3c-.7.3-1.3 1.2-1.3 2.1 0 1.5.2 1.5 1.7-.1 1.8-1.8 1.6-2.7-.4-2zm53.3 2.3c.3 1.9 1.2 5.5 2.1 8 2.4 7.4.2 18.2-6.5 31.4-3.7 7.4-5.3 15.3-3.3 16.6 1.8 1.1 3 7.5 3.1 15.7 0 4.2.4 7.3 1 7.3 1.7 0 1.1-12.3-1-20.5-2.6-10.1-2.5-12.3.5-16.8 4.1-6 6.4-12.2 7.7-21.1 1-7.3.9-9-.6-14.2-2.4-8-3.8-11-3-6.4zm-86.6-1.1c0 1 6.7 7.1 7.7 7.1.6 0-1.4-2.5-4.9-6.2-2-2-2.8-2.3-2.8-.9zm-41.5 3.1c.3.5 2.1 1 3.8.9 2.7 0 2.9-.2 1.2-.9-2.8-1.2-5.7-1.2-5 0zm75 2.1c-.4.6-.5 1.3-.2 1.6.7.7 2.7-.6 2.7-1.8 0-1.2-1.7-1.2-2.5.2zm-35 2.9c1.3 2.6 4.2 5 6 5 .9 0-5.9-8-6.8-8-.4 0-.1 1.3.8 3zm68.2.7-1.7 3.8 2.5-3c2.6-3.1 3.1-4.5 1.7-4.5-.5 0-1.6 1.7-2.5 3.7zm-113.7 1.2c3 1.8 8.6 2.3 9.7.9.9-1-.1-1.3-5-1.5-4-.2-5.7.1-4.7.6zm81.6.7c-1.8 1.8-2 2.4-.6 2.4.5 0 1.4-.9 2-2 1.3-2.4.7-2.6-1.4-.4zm36.2 5.2c-3.1 6.7-3.1 7.8.1 3.2 3-4.4 3.9-7 2.4-7-.5 0-1.6 1.7-2.5 3.8zm-76.8-2.1c.1 1 5 4.6 5.6 4.1.6-.7-3.2-4.8-4.5-4.8-.6 0-1.1.3-1.1.7zm91.8 4.8c-.1 3 0 5.5.5 5.5.4 0 .7-2.5.7-5.5 0-7.1-.7-7.1-1.2 0zm-141.3-3.7c1.7 1.8 8.5 3.1 10.8 2.2 2.3-.9 2.3-1-.8-1.4-1.1-.2-4-.6-6.5-1-3-.6-4.2-.5-3.5.2zm89.5 2.2c-.6 1.1-.7 2-.2 2 1 0 3.2-2.1 3.2-3.2 0-1.6-1.9-.8-3 1.2zm-55.8.2c-1.7 1.7-1.5 4.5.5 5.3 1.9.7 5.6-2.9 5-4.9-.5-1.6-4-1.9-5.5-.4zm14.9 4.1c1 2.3 4.9 5.4 4.9 4-.1-1-4.7-6.3-5.4-6.3-.3 0-.1 1 .5 2.3zm-51.1.7c0 1.2 6.5 2.4 8.6 1.6 2.3-.9 1.6-1.2-3.8-1.9-2.8-.4-4.8-.3-4.8.3zm92.7-.3c-1.2 1.2-.7 2.2.8 1.7.8-.4 1.5-1 1.5-1.5 0-1.1-1.4-1.2-2.3-.2zm39.5 3.4c-1.3 2.2-2.2 4.3-1.9 4.5.7.7 4.9-6.4 4.5-7.6-.2-.5-1.3.9-2.6 3.1zm-27.5 3.9c.3 3 .7 5.7.9 5.9.8.9.2-7.5-.6-9.4-.6-1.3-.7-.1-.3 3.5zm-57.7-3.7c0 1.4 3.3 6.7 4.2 6.7.4 0 .8-.3.8-.8 0-1-4.9-6.9-5-5.9zm45 3.2c-.7.8-.8 1.5-.2 1.5.5 0 1.5-.7 2.2-1.5.7-.8.8-1.5.2-1.5-.5 0-1.5.7-2.2 1.5zm-94 .3c2.5 1.7 8.7 2.5 9.4 1.3.5-.7-.2-1.1-1.7-1.1-1.4 0-4-.3-5.8-.6-2.4-.4-3-.3-1.9.4zm137.3 2.5c-2.4 5.3-3.2 10.3-2.4 15.7l.9 5.5.1-7.1c0-3.9.8-8.8 1.7-10.9 1.7-4.2 1.5-7.1-.3-3.2zm-92.3 2.1c0 .9 7.5 7.6 8.5 7.6.5 0-.9-1.8-3-4-3.5-3.6-5.5-4.9-5.5-3.6zm49.2.8c-.7.7-1.2 1.9-1.2 2.7 0 1.1.4 1 2-.4 2.1-1.9 2.6-3.5 1.2-3.5-.4 0-1.3.5-2 1.2zm20.1 2.8c0 2.5.2 3.5.4 2.2.2-1.2.2-3.2 0-4.5-.2-1.2-.4-.2-.4 2.3zm-115.3-1c2 1.3 6.3 1.3 5.5 0-.3-.6-2.1-1-3.8-1-2.4 0-2.8.3-1.7 1zm42.6 2.8c-.3.5.9 2.6 2.8 4.7 1.8 2.1 3.5 3.4 3.8 2.9.3-.5-.9-2.6-2.7-4.7-1.8-2.1-3.6-3.4-3.9-2.9zm52.4 3.2c-.6 1.1-.7 2-.2 2 1 0 3.2-2.1 3.2-3.2 0-1.6-1.9-.8-3 1.2zm13.2 1c0 1.9.3 5.7.8 8.5l.7 5 .1-4.5c.1-2.5-.3-6.3-.7-8.5l-.9-4v3.5zm74.8-2.8c-.1 2.4 14.7 28.8 16.1 28.8.5 0 .9-.2.9-.5 0-.6-3.2-6.3-6.3-11.2-1.3-2.1-3.6-6.1-5-8.8-2.7-5.3-5.6-9.5-5.7-8.3zm-187 1.6c0 1.5 5.6 2.5 7.7 1.3 1.6-.9 1.6-1 .2-1.1-.9 0-3.1-.3-4.8-.6-1.9-.4-3.1-.2-3.1.4zm118.2 6.3c-.3 9.5-1.4 18.9-2.1 18.4-.4-.2-.7 2.4-.6 5.8 0 3.4-.3 10-.7 14.7-.5 5.8-.4 7 .2 4 .5-2.5.9-6.4.9-8.8.1-2.3.6-4.2 1.1-4.2.6 0 1 .8 1 1.9 0 2.2 2.1 8.4 2.6 7.8.2-.2-.5-3.8-1.6-8-1.6-6.6-1.8-8.8-.9-16.6.5-5 .8-11.8.6-15.3l-.3-6.3-.2 6.6zm35-.1c-1.2 2.2-1.9 4-1.4 4 1 0 5.2-5.6 5.2-7 0-2.1-1.6-.9-3.8 3zm-110.2-2.2c0 1.1 7 8.2 8.1 8.2 1.5 0 1-.7-3.3-4.9-4.3-4.3-4.8-4.6-4.8-3.3zm-34 1.1c0 .5-2.5 1.2-5.6 1.6-5.9.7-6.7 1.6-1.6 1.7 3.4.1 9.2-2 9.2-3.3 0-.5-.4-.9-1-.9-.5 0-1 .4-1 .9zm174.5.1c-.9 1.4 2.3 6.2 3.5 5.5 1.6-1 1.1-5.2-.6-5.9-2.1-.8-2.2-.8-2.9.4zm-84.5 1.5c-.8.9-.8 1.5-.2 1.5 1.2 0 2.6-1.9 1.9-2.6-.2-.2-1 .2-1.7 1.1zm59 4.5c-.6 1.2-.9 2.4-.7 2.7.3.2 1.1-.5 1.7-1.7.6-1.2.9-2.4.7-2.7-.3-.2-1.1.5-1.7 1.7zm-118-.1c0 1.3 7.1 7.3 7.8 6.6.6-.6-5.7-7.5-7-7.5-.4 0-.8.4-.8.9zm59.7 1.8c-.4.3-.7 1.1-.7 1.7 0 .6.5.5 1.2-.2.6-.6.9-1.4.7-1.7-.3-.3-.9-.2-1.2.2zm-105 1.5c1.5.7 3 .7 5 0 2.6-1 2.4-1-2.2-1.1-4.2 0-4.6.2-2.8 1.1zm145.2 3.8c-.2 10.3 2.7 46.9 3.7 48 .9.9.1-13.8-1.2-22.7-1.7-10.8-1.8-19-.3-23.1.9-2.5.8-3.6-.5-5.4-1.5-2.2-1.6-2.1-1.7 3.2zm21.7-1.2c-.9 1.8-1.5 3.9-1.3 4.5.2.7 1.2-.3 2.1-2.1.9-1.8 1.5-3.9 1.3-4.5-.2-.7-1.2.3-2.1 2.1zm-124.5-.2c0 1.9 4.1 5.8 7.3 7 2.8 1.1 1.6-1-3-5-3.6-3.1-4.4-3.5-4.3-2zm-46.1 3.4-4.5.7 5.7.1c3.1.1 6-.3 6.3-.8.7-1.1-.6-1.1-7.5 0zm107.7-.3c-1 .9-.9 2.3.2 2.3.5 0 1.1-.7 1.5-1.5.5-1.5-.5-2-1.7-.8zm67.9 2.6c-.9 2.2-1.5 4.4-1.3 5 .6 1.8 3.9-5.2 3.4-7.1-.3-1.2-.9-.5-2.1 2.1zm-131.9.4c-.4.3.6 1.7 2.1 2.9 2.7 2.4 4.2 3 4.1 1.6 0-1.2-5.6-5.2-6.2-4.5zm64.8 2.4c-1 1.5.3 2.5 1.6 1.2.7-.7.7-1.3.1-1.7-.6-.3-1.4-.1-1.7.5zm-109.2 1.3c-4.7 1.3-7.4 3.3-2.9 2.2 1.5-.4 4.1-1 5.7-1.3 1.6-.3 2.9-.9 2.9-1.4 0-1-.1-1-5.7.5zm181.2 1.9c-1.9 4.5-1.9 5.3-.1 3.8 1.5-1.3 3-6 2.2-6.9-.3-.3-1.3 1.1-2.1 3.1zm-154.8-1.7c-1.5 1.5-.7 4.5 1.1 4.2.9-.2 1.7-1.2 1.7-2.2 0-2-1.6-3.1-2.8-2zm15 2.1c-.7 1.2 4.7 6.7 6.1 6.2.5-.2-.5-1.9-2.3-3.8-1.8-1.8-3.5-2.9-3.8-2.4zm69.3 1.8c-.7.9-.8 1.5-.2 1.5.5 0 1.2-.7 1.6-1.5.3-.8.4-1.5.2-1.5s-.9.7-1.6 1.5zm106.1 4.2c1.7 3.2 3.9 7.1 4.8 8.8 1 1.6 3 5.2 4.5 7.8 1.5 2.7 3 4.6 3.2 4.4.3-.3-2.2-5.2-5.5-11-3.4-5.8-6.1-11.2-6.1-12.1 0-.8-.9-2-2-2.6-1.7-.9-1.6-.3 1.1 4.7zm-220.1-1.1c-1.4.7-3.5 1.4-4.7 1.4-1.3 0-2.3.4-2.3 1 0 .5.3 1 .8 1 1.1 0 11.3-3.8 12-4.5 1.1-1.1-3.4-.3-5.8 1.1zm115.7 1c-.4.4-.7 1.4-.7 2.3 0 1.1.3 1.2 1.1.4.6-.6 1-1.6.7-2.3-.2-.6-.7-.8-1.1-.4zm71.3 2.9c-.6 1.5-1.3 3.2-1.6 3.6-.3.5-.1.9.4.9 1.2 0 3.7-5.8 2.9-6.7-.4-.3-1.1.7-1.7 2.2zm-142.8 1.4c1.3 1.7 2.9 3 3.7 3 .9.1.4-1-1.4-2.9-3.7-3.9-5.4-3.9-2.3-.1zm147 5c-1.2 2.1-2.2 4.2-2.2 4.6 0 1 3.3-3.3 4.9-6.3 2.1-3.9-.4-2.4-2.7 1.7zm-200.2-.9c-2.3 1.2-2.9 1.9-1.7 2 2 0 8.7-2.6 8.7-3.4 0-1.2-3.6-.4-7 1.4zm130.8 11c-.3 7.4-.2 13.9.3 14.5.5.5.9-2.2 1-6.5 0-4.1.2-9 .5-10.7.2-1.8 0-5-.4-7-.7-2.9-1-.7-1.4 9.7zm-82.8-10.1c0 .5.5 1.3 1 1.6.6.3 1 .2 1-.4 0-.5-.4-1.3-1-1.6-.5-.3-1-.2-1 .4zm122.6 4.6c.4 2.7.8 5.2 1 5.4.9 1 .3-7.6-.7-8.9-.7-1.1-.8-.1-.3 3.5zm35.1 0c-1.9 4-2.3 6.5-.8 4.9 1.5-1.4 4.2-8.4 3.3-8.4-.5 0-1.6 1.6-2.5 3.5zm-80.2-1.5c-.3.5-.1 1 .4 1 .6 0 1.1-.5 1.1-1 0-.6-.2-1-.4-1-.3 0-.8.4-1.1 1zm-127.5 3c0 .5.7 1 1.5 1s1.5-.5 1.5-1c0-.6-.7-1-1.5-1s-1.5.4-1.5 1zm48.6 2.5c.4.8 1.1 1.5 1.6 1.5.6 0 .5-.6-.2-1.5-.7-.8-1.4-1.5-1.6-1.5-.2 0-.1.7.2 1.5zm79 .2c-.6 1.4-.5 1.5.5.6.7-.7 1-1.5.7-1.8-.3-.3-.9.2-1.2 1.2zm17.5 5c0 3.4.4 6.5.9 6.8 1.2.7 1.2-5.4 0-10-.6-2.4-.8-1.8-.9 3.2zm-5.9-1.2c0 1.6.2 2.2.5 1.2.2-.9.2-2.3 0-3-.3-.6-.5.1-.5 1.8zm71.4.1c-1.1 2.8-.6 3.9.9 2 .8-1.1 1.5-2.3 1.5-2.8 0-1.4-1.8-.9-2.4.8zm5 5.3c-.3.4-1 2.1-1.6 3.7l-1 2.9 2-2.4c1.1-1.3 2-2.9 2-3.7 0-1.6-.6-1.8-1.4-.5zm26.7 2.7c-.8 2.1 2.3 5.2 3.8 3.7 1.4-1.4.2-5.3-1.7-5.3-.8 0-1.7.7-2.1 1.6zm-201.3 1c0 .5.7 1.9 1.5 3 .8 1 1.5 1.4 1.5.8 0-.5-.7-1.9-1.5-3-.8-1-1.5-1.4-1.5-.8zm98.3 4.9c0 2.7.2 3.8.4 2.2.2-1.5.2-3.7 0-5-.2-1.2-.4 0-.4 2.8zm81.7-3.1c0 .2-.7 2-1.5 4-1.9 4.5-1.1 4.7 1.5.3 2.2-3.6 2.5-4.7 1-4.7-.5 0-1 .2-1 .4zm-54.8 3.6c0 1.4.2 1.9.5 1.2.2-.6.2-1.8 0-2.5-.3-.6-.5-.1-.5 1.3zm-33.9 6.3c.4 4.1 1.1 8.5 1.7 9.8.8 1.8.9.8.4-4.1-.4-3.6-.6-8-.5-9.8.1-1.9-.3-3.2-1-3.2-.9 0-1 2-.6 7.3zm92.8.1c-.6 1.6-1 3.1-.7 3.3.7.8 2.8-3.7 2.3-5-.3-.7-1 .1-1.6 1.7zm-78.8 7.1c0 4.4.2 6.1.4 3.7.2-2.3.2-5.9 0-8-.2-2-.4-.1-.4 4.3zm-7.7 5.1c1.1 7.5 2.3 10.2 1.7 3.9-.3-3.3-.9-6.4-1.4-6.9-.5-.5-.6.8-.3 3zm90.5-1c0 1.1.3 1.4.6.6.3-.7.2-1.6-.1-1.9-.3-.4-.6.2-.5 1.3zm-94.5 4.1c.9 3.8 1.4 4.2 1.4 1 0-1.4-.5-2.9-1-3.2-.7-.4-.8.3-.4 2.2zm-5.9 1.8c-.4.8-.2 1.7.3 2 .6.4 1 .4 1 .1 0-.2.3-1.1.6-2 .3-.9.2-1.6-.4-1.6-.5 0-1.2.7-1.5 1.5z"/>
</svg>
