<?xml version="1.0" encoding="utf-8"?>
<svg xmlns="http://www.w3.org/2000/svg" viewBox="0 0 743 413">
	<title>Schematic drawing of a braking mechanism. Two flat faces marked A, some distance apart, are connected to a shaft marked B.</title>
	<path d="M333.921 1.251c-1.7.8-5.8 1.2-10.5 1-5.4-.2-6.7-.1-4.6.5 1.7.5 5.6.9 8.8 1 3.1 0 5.7.5 5.7 1.1 0 .5-.8 1-1.8 1s-2.7.7-4 1.5c-1.7 1.3-2.6 1.3-4.3.5-1.1-.7-2.3-.9-2.6-.6-.3.3.6 1.1 2.1 1.7 1.9.9 3.3.9 4.9.2 1.2-.6 3.4-1.5 4.9-2.1 1.7-.7 2.6-1.7 2.2-2.6-.3-.9.6-1.7 2.6-2.5 2.6-.9 4.3-.7 9.3 1.1 7.1 2.4 13.1 3.7 20.2 4.2 6.7.5 3-.9-6.3-2.3-4.1-.6-9.3-2-11.7-3.1-4.9-2.2-10.6-2.5-14.9-.6zm-35.2 2.1c-1 1.4-1.1 2.1-.3 2.4.7.2 1.6-.4 2.1-1.3.6-1.1 2.3-1.6 5.1-1.6 2.3 0 4.9-.5 5.7-1 1-.6-.5-.9-4.9-.7-5.1.1-6.6.5-7.7 2.2zm40.1.5c-.3.5-.1 1 .4 1 .6 0 1.1-.5 1.1-1 0-.6-.2-1-.4-1-.3 0-.8.4-1.1 1zm-43.1 4.2c-.4.6-.7 24-.7 51.9v50.8l-4.1.5c-5.4.7-24.5 2.3-42.6 3.6-8 .6-26.6 2.2-41.5 3.6-14.8 1.3-33.3 2.9-41 3.4-16.7 1.2-19.4 1.7-10.3 1.9 3.7 0 16.3-.8 28-1.9 20.7-1.9 47.1-3.8 63.3-4.5 7.9-.4 7.9-.4 2 .5-3.3.5-9.1 1.2-13 1.6l-7 .8 6.5.9c3.6.4 7.6.8 9 .9 1.4 0 7.9.4 14.5.9 67.4 5.2 112 5 132-.6 5.4-1.5 9.7-4.5 10.6-7.4.4-1.2 35.1-.1 76.4 2.5 38.5 2.4 58.1 3.1 62.7 2.3 3.6-.5 3.1-.7-3.5-.8-4.3 0-15.5-.5-25-1.1-9.5-.5-25.5-1.5-35.7-2-10.2-.6-22.1-1.3-26.5-1.5-4.4-.3-17.2-1-28.5-1.6-11.2-.5-20.8-1.3-21.3-1.6-.5-.3-.6-8.5-.3-19.2 1.4-39.7.6-80-1.7-82.9-.5-.6-2.8-1.1-5.1-1.1-3 .2-3.3.3-1.3.6 1.5.2 2.7 1 2.7 1.6 0 2.8-1.3 5.6-2.8 6.2-1.4.5-1.5.4-.4-.6.6-.7 1.2-2.2 1.1-3.3v-2.1l-.9 2c-.4 1.2-1.5 2.7-2.4 3.4-.9.7-1.4 1.7-1.1 2.1.3.5-.4 1.1-1.5 1.5-1.9.6-2.9 2.5-1.2 2.5.4 0 .6 20.5.5 45.5-.1 26.5.2 45.5.8 45.5.5 0 .8-.8.7-1.8-.4-5.3.3-71.4.8-70.9.3.3.7 17.3.7 37.7l.2 37.1-2.4-.3-2.4-.3.2-45.7c.2-42.9.1-45.7-1.5-46.6-1.7-1-1.7-1.2.6-3.1l2.5-2-3.4.4c-1.8.2-4.2 1.2-5.4 2.2-1.4 1.2-2.1 1.4-2.4.6-.2-.7-1.1-.9-1.9-.6-.7.3-1.1 1-.7 1.6.4.6.1.7-.6.2-.9-.5-.7-1.3 1-3.1 2.5-2.6 2-3.1-1.1-1.2-1.7 1.1-2.2 1-3-.2-.9-1.2-1.6-.8-4.6 2.3-2 2.1-3.3 4.1-2.9 4.5.3.4.9.2 1.3-.4 3.6-5.3 4-5.6 5.5-4.3 1.2 1.2 1.2 1.7 0 3.6-1.4 2-1.3 2.2.9 1.9 1.3-.1 4.3-1.2 6.7-2.4 4.6-2.3 7-2 3.7.3-1 .8-2.4 1.6-3 1.9-.7.3-.6.8.3 1.4 1.2.9 1.3 8.1.9 45.9-.3 24.6-.2 42.5.2 39.8.4-2.8.8-23.4.9-45.9 0-22.5.3-41.1.5-41.3 1.3-1.3 1.6 11.2 1.2 48.8-.2 23.5 0 39.3.4 35.4.5-3.9.9-24.5.9-46 0-23.5.4-39.1 1-39.3.6-.2.9 17.4.8 46.2l-.2 46.5-3.5.6c-4.1.8-32.4 2-36.7 1.6-.6-.1-1.4-.9-1.6-1.9-.4-1.6-.5-1.6-.6 0-.1 1.3-1 1.8-3.1 1.8h-3l-.1-7.8c0-4.2 0-22.9.1-41.5.1-20.8-.3-33.7-.8-33.7-.6 0-1 10.8-.9 27.7.1 39.2-.3 56.4-1.3 53-.5-1.5-.7-19.5-.6-39.9.2-20.5 0-38.3-.5-39.7-.4-1.5-.8 16.5-.9 39.9-.1 23.4-.5 40.9-.9 39-.4-1.9-.6-20.7-.5-41.8 0-21-.3-38.2-.7-38.2-.5 0-.9 18.7-.9 41.5 0 24.8-.4 41.5-.9 41.5-.6 0-.9-16.6-.9-41.2.1-34.6-.1-41.3-1.3-41.7-1.5-.5 8.4-3.3 11.6-3.2 1.1 0 5.8.2 10.5.4 5.1.2 10.8-.2 14.4-1 3.2-.8 6-1.3 6.1-1.1.2.2.5 7.8.7 17 .2 9.6.7 16 1.1 15.2.5-.9.7-8.5.5-17-.3-12.2-.1-15.4.9-15.4 1.4 0 2 18.8 1.5 45.3-.2 7.7.1 11.6.8 11.2.6-.4.9-11 .7-29.5-.1-20.4.1-29 .9-29 .7 0 1.1 7.3 1.3 23.2.1 12.8.4 23.5.7 23.7.3.3.4-10.6.2-24.1-.2-13.6-.6-24.9-1-25.3-.3-.4-1.8.1-3.2 1-1.4 1-5.4 2.1-8.8 2.7-5.8.8-9.8.9-28 .4-5.1-.2-6.9.2-7.3 1.2-.4 1.2-2.1 1.3-8.6.8-6.8-.6-8.8-1.2-12.6-3.9-6-4.2-9.6-11.1-8.7-16.7.7-4 .2-5.1-1.2-2.8zm101.9 52.9v49.2l-2.2.8-2.1.8v-32.1c0-17.7.3-31.9.6-31.5.4.3.6 14.3.5 31.1-.1 16.9.2 30.6.6 30.6 1.1 0 1.4-80.3.4-87-.7-4.5-.9-2.7-1 9.4 0 8.2-.3 14.7-.5 14.5-.3-.2-.6-6.9-.7-14.8-.2-12.4 0-14.5 1.5-15.3.9-.5 1.6-2.1 1.6-3.5 0-1.5.3-2.4.6-2 .3.3.6 22.7.7 49.8zm-6.6-34.4c-.2 1.6-.4.5-.4-2.2 0-2.8.2-4 .4-2.8.2 1.3.2 3.5 0 5zm-2.4 3c-.3 4.9-.7 9-.9 9.2-.2.2-.4-3.7-.4-8.7 0-5.1.4-9.2.9-9.2s.6 3.9.4 8.7zm-90.1 38c.2 25.2.2 46 .1 46.2-1.1 1.8-1.5-6.2-2-46.3-.4-33-.2-45.6.6-45.6.7 0 1.1 13.2 1.3 45.7zm2.6-24.8c-.2 9.3-.6 16.4-1 15.8-1.4-2.1-.5-32.7.9-32.7.2 0 .3 7.6.1 16.9zm7.7-8c.3.5.1 1.2-.5 1.6-.5.3-1-.1-1-.9 0-1.8.6-2.1 1.5-.7zm-4.5 5.5c0 2.6-.6 1.8-1.4-1.9-.5-2.2-.4-2.6.4-1.5.5.8 1 2.4 1 3.4zm18.9 37.4c-.1 24.3-.5 39.1-1 36.7-1.2-5.9-1.1-78.8.1-78 .6.4 1 15.1.9 41.3zm-6.3-1.1c.4 26.3.3 38.7-.5 40-.7 1.3-1-9.4-1.1-38.6 0-22.2.2-40.2.5-39.9.3.2.8 17.6 1.1 38.5zm-3.9-25.5c-.2 2.4-.4.7-.4-3.7s.2-6.3.4-4.3c.2 2.1.2 5.7 0 8zm7 37.8c0 22.3-.2 26.9-.8 19-.4-5.8-.7-23.1-.6-38.5 0-19.6.3-25.3.8-19 .4 4.9.7 22.3.6 38.5zm-11.2-44c.3.5.1 1-.4 1-.6 0-1.1-.5-1.1-1 0-.6.2-1 .4-1 .3 0 .8.4 1.1 1zm-4.8 52.8c-.1 9.7-.2 1.7-.2-17.8s.1-27.5.2-17.7c.2 9.7.2 25.7 0 35.5zm87.7-17c-.3 18-.8 32.9-1 33.2-.3.2-.4-14.7-.3-33.3.1-18.5.5-33.4 1-33.1.5.3.6 15.2.3 33.2zm-78.7 7.9c-.1 6-.3 1.1-.3-10.7 0-11.8.2-16.7.3-10.8.2 6 .2 15.6 0 21.5zm-12 12.5c-.1 7.3-.3 1.6-.3-12.7 0-14.3.2-20.3.3-13.3.2 7 .2 18.7 0 26zm8.1-9.5-.2 24.8-.6-23c-.5-21.4-.4-26.5.6-26.5.2 0 .3 11.1.2 24.7zm3.9 12c-.3 1-.5.4-.5-1.2 0-1.7.2-2.4.5-1.8.2.7.2 2.1 0 3zm0 10c-.2 1.6-.4.5-.4-2.2 0-2.8.2-4 .4-2.8.2 1.3.2 3.5 0 5zm85.8.4c.9 1.4.6 1.5-3.5 2.4l-3.5.7 2.4-2.1c2.7-2.4 3.7-2.6 4.6-1zm-105.5.8c0 .4 1.5 1.3 3.3 1.9 3.2 1.2 3.2 1.2-1 .7-3-.4-4.3-.1-4.3.7 0 .9-.3.9-1.1.1-1.5-1.5-.4-4.3 1.6-4.3.8 0 1.5.4 1.5.9zm-11.6 1.6c-.7 1.7-1.6 1.9-2.9.6-.6-.6-3.2-1.2-6-1.4-4.1-.3-3.7-.4 2.2-.5 6.1-.2 7.1 0 6.7 1.3zm-17.1.2c-.7.2-1.9.2-2.5 0-.7-.3-.2-.5 1.2-.5s1.9.2 1.3.5zm-6 1c-.7.2-1.9.2-2.5 0-.7-.3-.2-.5 1.2-.5s1.9.2 1.3.5zm74 3.6c-.4.7 0 .8 1.3.3 2.2-.9 10-1.5 24.4-1.9 5.8-.2 9.4-.1 8 .4-2 .5-1.6.7 2 .7 3.5.1 4.1-.1 2.5-.9-1.9-.8-1.9-.9-.1-.6 3.7.4 2.7 2.4-1.6 3.2-5.5 1-37.9 1.6-43.6.8-4.6-.6-4.5-1.6.1-2.7 1.9-.4 2.6-.3 2.2.4-.3.5-.2 1 .3 1 .6 0 1.2-.7 1.6-1.5.3-.8 1.2-1.2 2.1-.9.8.3 1.2 1.1.8 1.7zm47-.6c-.7.2-1.9.2-2.5 0-.7-.3-.2-.5 1.2-.5s1.9.2 1.3.5zm-44.6-112.3c-6 1.6-7.5 3.1-2.2 2.2 5.8-1 7.5-1.6 7.5-2.7 0-.5-.1-.9-.2-.8-.2 0-2.4.6-5.1 1.3zm39 1.4c1.2.8 3.2 1.1 5.8.6 6.9-1.1 6.6-1.9-.6-1.9-5.9 0-6.7.2-5.2 1.3zm-66.7.2c0 .5.6 1 1.4 1 .8 0 1.8-.5 2.1-1 .3-.6-.3-1-1.4-1-1.2 0-2.1.4-2.1 1zm-7.5 1c.3.5.8 1 1.1 1 .2 0 .4-.5.4-1 0-.6-.5-1-1.1-1-.5 0-.7.4-.4 1zm35.6 1.4c1 .9 7.9 1.4 7.9.5 0-.5-1.9-.9-4.2-.9-2.3 0-3.9.2-3.7.4zm36.9.7c0 .5.5.7 1 .4.6-.3 1-.8 1-1.1 0-.2-.4-.4-1-.4-.5 0-1 .5-1 1.1zm14.2.9c-.7 1.1-.9 2-.4 2 .4 0 1.3-.9 2-2s.9-2 .4-2c-.4 0-1.3.9-2 2zm-85.7 0c.4.6 1.1.8 1.6.5 1.4-.9 1.1-1.5-.7-1.5-.8 0-1.2.5-.9 1zm14.8-.3c.9.2 2.5.2 3.5 0 .9-.3.1-.5-1.8-.5-1.9 0-2.7.2-1.7.5zm60.8 2c0 2.5.1 2.6.9.8 1.2-2.7 1.2-3.5 0-3.5-.5 0-1 1.2-.9 2.7zm-54.1-.6c0 .5.9.9 2 .9s2-.2 2-.4-.9-.6-2-.9c-1.1-.3-2-.1-2 .4zm8-.1c0 .5.5 1 1 1 .6 0 1-.5 1-1 0-.6-.4-1-1-1-.5 0-1 .4-1 1zm6 0c0 .5.5 1 1.1 1 .5 0 .7-.5.4-1-.3-.6-.8-1-1.1-1-.2 0-.4.4-.4 1zm14-.1c0 .6.5 1.3 1 1.6.6.3 1-.1 1-.9 0-.9-.4-1.6-1-1.6-.5 0-1 .4-1 .9zm10.7 1.9c-4 4.2-3.3 5.8.8 1.8 1.9-2 3.5-3.8 3.5-4.1 0-1.3-1.8-.3-4.3 2.3zm-48.2-.8c-1.6.7-1.7.9-.3.9.9.1 2-.4 2.3-.9.7-1.1.7-1.1-2 0zm6.5-.3c.5.2.8.9.4 1.4-.3.5.3 1.2 1.3 1.5 1 .3 2.6 1 3.6 1.5 1.1.6 2.1.8 2.3.6.5-.4-6.2-5-7.9-5.4-.4-.1-.3.1.3.4zm33.6 1c-.4.9-.2 2.1.4 2.7.7.7 1 .2 1-1.7 0-3.1-.5-3.4-1.4-1zm-49.8 0c.6.2 1.8.2 2.5 0 .6-.3.1-.5-1.3-.5-1.4 0-1.9.2-1.2.5zm25.2.1c0 1.2 1.9 2.6 2.6 1.9.2-.2-.2-1-1.1-1.7-.9-.8-1.5-.8-1.5-.2zm20.5 2.2c.4 1.4 1.3 3.2 2.1 4 2.3 2.4 1.7-1-.7-4l-2-2.5.6 2.5zm6.1.4c-.3 1.3-.2 3.5.3 4.8.9 2.2 1 2.1 1-.9.1-1.7.4-3.8.7-4.7.3-.9.2-1.6-.4-1.6-.5 0-1.3 1.1-1.6 2.4zm-53.8.3c.7.3 1.6.2 1.9-.1.4-.3-.2-.6-1.3-.5-1.1 0-1.4.3-.6.6zm43.2.3c0 .5.5 1 1 1 .6 0 1 .7 1 1.5s-.7 1.5-1.6 1.5c-.8 0-1.2.5-.8 1.1.4.8.9.8 1.7 0 .7-.7 1.5-.7 2.5.2 1.6 1.3 1.5 1-.7-3.6-1.4-2.7-3.1-3.6-3.1-1.7zm-28.2 1.7c1.2.2 3.2.2 4.5 0 1.2-.2.2-.4-2.3-.4s-3.5.2-2.2.4zm12.7.3c.3.5.8 1 1.1 1 .2 0 .4-.5.4-1 0-.6-.5-1-1.1-1-.5 0-.7.4-.4 1zm7.5-.6c0 1 2.8 1.3 4.1.5 1-.6.7-.9-1.3-.9-1.6 0-2.8.2-2.8.4zm-10 3.6c-.8.5-1 1-.5 1 .6 0 1.7-.5 2.5-1s1.1-1 .5-1c-.5 0-1.7.5-2.5 1zm-12.8 2.1c.7.5 3.8.8 6.8.8 6.6-.1 5.6-.6-2.3-1.2-3.2-.2-5.2 0-4.5.4zm15.3-.1c-.3.5.1 1 .9 1 .9 0 1.6-.5 1.6-1 0-.6-.4-1-.9-1-.6 0-1.3.4-1.6 1zm5.5.1c0 .5.5.7 1 .4.6-.3 1-.8 1-1.1 0-.2-.4-.4-1-.4-.5 0-1 .5-1 1.1zm28.1 14.6c0 5.9.3 10.4.9 10.8 1.2.7 1.2-5.9 0-15-.7-5.6-.7-5.3-.9 4.2zm-26.1 21.5c0 16.5.3 29.9.5 29.6.8-.8 1.1-59.8.3-59.8-.4 0-.8 13.6-.8 30.2zm4.5-18.2c.3.5.8 1 1.1 1 .2 0 .4-.5.4-1 0-.6-.5-1-1.1-1-.5 0-.7.4-.4 1zm-.5 3.9c0 .6.5 1.3 1 1.6.6.3 1-.1 1-.9 0-.9-.4-1.6-1-1.6-.5 0-1 .4-1 .9zm-76.3 9.8c-.3 4.9-.3 9.1 0 9.5.2.5 3.2.8 6.7.8 4.8 0 6.7-.4 7.9-1.8 2.2-2.4 2.2-5.8.1-7-1.3-.7-1.4-1.3-.4-3.1.9-1.8.8-2.7-.5-4.7-1.3-2.1-2.3-2.4-7.4-2.4h-5.8l-.6 8.7zm9.6-4.5c.7 2.2-.4 3.8-2.8 3.8-2.6 0-3.9-2.2-2.2-3.9 1.5-1.5 4.4-1.4 5 .1zm1 7c.8 2.4-.5 3.8-3.4 3.8-2.4 0-2.9-.4-2.9-2.5s.5-2.5 2.9-2.5c1.6 0 3.1.6 3.4 1.2zm88.2 1.8c-.3.5-.1 1 .4 1 .6 0 1.1-.5 1.1-1 0-.6-.2-1-.4-1-.3 0-.8.4-1.1 1zm3.9 22c0 6.3.1 8.9.3 5.7.2-3.1.2-8.3 0-11.5-.2-3.1-.3-.5-.3 5.8zm7.2-5.3c-.9 5.5-.7 11.3.3 11.3.5 0 .9-3.4.9-7.5s-.1-7.5-.2-7.5c-.2 0-.6 1.7-1 3.7zm-32.9-2c-.4.3-.7 1.3-.7 2.2.1 1.3.3 1.3 1.1-.2 1.1-1.9.8-3.3-.4-2zm29.6 13.8c0 2.2.2 3 .4 1.7.2-1.2.2-3 0-4-.3-.9-.5.1-.4 2.3zm2.7 13.2c0 6.4.3 11.3.7 11 1.1-1.1 1.4-22.7.3-22.7-.6 0-1 4.8-1 11.7zm-36.6.3c0 6.3.1 8.9.3 5.7.2-3.1.2-8.3 0-11.5-.2-3.1-.3-.5-.3 5.8zm34 1c0 5.8.1 8.1.3 5.2.2-2.8.2-7.6 0-10.5-.2-2.8-.3-.5-.3 5.3zm-30.3-5.4c0 1.1.3 1.4.6.6.3-.7.2-1.6-.1-1.9-.3-.4-.6.2-.5 1.3zm26.2 1.9c0 2.2.2 3 .4 1.7.2-1.2.2-3 0-4-.3-.9-.5.1-.4 2.3zm-26 7c0 2.2.2 3 .4 1.7.2-1.2.2-3 0-4-.3-.9-.5.1-.4 2.3zm21.8.1c0 1.1.3 1.4.6.6.3-.7.2-1.6-.1-1.9-.3-.4-.6.2-.5 1.3zm3.7 1.8c-.7 3.9-.4 5.5.8 4.4.3-.3.4-2.3.2-4.4l-.3-3.9-.7 3.9zm-3.6 3.1c0 1.6.2 2.2.5 1.2.2-.9.2-2.3 0-3-.3-.6-.5.1-.5 1.8zm183 6c.5.5-1.5 2.2-4.4 3.8l-5.2 3 2.2 1.7c2.4 2 9.6 3.3 18.7 3.2 7.2 0 21.5-2.2 21.5-3.2 0-.5-1.4-2-3.1-3.5-1.7-1.4-3-2.7-2.8-2.9 1.2-1 27.5 1.6 33.4 3.3 7 2 9.2 2.1 5.8.3-4.4-2.4-14.8-4.1-28.3-4.6-8-.4-19.9-.9-26.5-1.2-6.6-.4-11.7-.3-11.3.1zm13.3 1.5c-2.7.4-7.2 1.7-10 3-4.3 2-4.7 2.4-3 3.1 4.1 1.6 14.1.7 12.9-1.2-.3-.5-1.4-.9-2.5-.9-1.8 0-1.9-.2-.5-1.5 2.1-2.2 7.3-1.9 9.3.5 1 1.1 2.7 2 3.8 2 1.9 0 1.8-.2-.5-2-2-1.5-2.1-2-.8-2 3 0 6.8 2.3 6.8 4 0 2.2-4.4 3-17.7 3-14 0-18.9-2.4-11.7-5.9 3.8-1.9 8.8-2.9 14.4-2.8h4.5l-5 .7zm-427.5 4.6c-4.7 2.6-11.8 9-10.9 9.8.3.3 3.4 1.3 6.9 2.2 7.2 1.8 17.5 1.4 29.3-1.3 5.3-1.1 6.7-1.9 6.5-3.1-.5-2.6-7.8-7.1-14.1-8.7-8-2.1-12.4-1.8-17.7 1.1zm21.8 1.9c3.3.8 4.1 1.9 2 2.9-.9.4-.8.5.2.5 3.1-.2 4 .1 4 1.7 0 1.2-.3 1.4-1.3.6-1-.9-1.7-.6-3 .8-1.3 1.5-2.9 2-6.7 2-3.2 0-4.9-.4-4.5-1 .3-.6-.4-1.1-1.7-1.1l-2.3-.2 2.3-.4c2.4-.5 2.4-.5 1.6-2.7-.3-.9-1.6-1.6-2.8-1.6-2-.1-2-.1.4-1.5 2.5-1.4 5.3-1.4 11.8 0zm-20.8 1.4c-1.9 1.1-4.4 2.8-5.4 4-1.1 1.2-2.4 2.1-2.9 2.1-1.5 0 4.4-6 6.8-7 3.8-1.6 5-.9 1.5.9zm4.3 7.8c-.7.2-1.9.2-2.5 0-.7-.3-.2-.5 1.2-.5s1.9.2 1.3.5zm-19.8-11.7c-17.7 1.6-39.1 4.1-43.3 5.1-2.4.5-6 2.2-8.1 3.6-4.9 3.6-11.1 9.5-11.1 10.6 0 .4 2.1-1.2 4.7-3.7 2.5-2.5 5-4.3 5.6-3.9.5.3.3.9-.4 1.4-.9.6-1 1.2-.4 1.6.8.7 1.2 9.7.6 16.8-.2 3.2-8.7 8.3-16.1 9.7l-6.5 1.3.3 7.2.4 7.3h-6.2v-6.6c0-8.1 1.9-7.8 2.1.4l.1 5.7 1-6.4c.5-3.5.6-6.6.4-6.9-.3-.3-4.3-.7-8.8-.9-7.6-.4-27-3.7-29-4.9-1.3-.8-.9-3 .7-4.4 1.1-.9 1.8-.8 3.5.8 1.2 1.1 3.6 2.2 5.3 2.5 1.8.2 5.9 1 9.2 1.7 6.7 1.4 25.4.8 30-1 2.6-1 2.7-1.3 2.3-6.1-.5-4.5-.2-5.4 1.8-7.2 1.3-1.1 2.4-2.5 2.4-3 0-.6-.9-.2-2 .8s-2 1.3-2 .7c0-.7-.7-1.2-1.5-1.2s-1.5.6-1.5 1.4c0 2.1-2.6 2.8-13.1 3.3-11.7.7-18.9-.2-18.9-2.3 0-2.7 5.1-3.6 18.2-3.2 8.8.3 12.5.1 11.7-.7-1.7-1.7-23.8-1.1-28.1.8-3.4 1.4-3.8 2-3.8 5.3 0 2.9-.3 3.5-1.6 3-2.2-.8-10.5 1.2-12.6 3.1-2.2 2-2.4 7.1-.2 8 .9.3 1.3 1.2.9 2.1-.3.8-.1 1.9.6 2.2.8.5.7 1.3-.2 2.9-1.2 1.7-1.2 2.5-.1 4.2 1.1 1.8 1.1 2 0 1.7-.7-.3-1.6-2.6-1.9-5.4-.5-3.9-.6-4.2-.7-1.5-.5 10.3-.3 61.3.2 61.8.3.4.6-10.7.6-24.5 0-15.8.4-25.2 1-25.2s.7 8.4.3 23.7c-.5 18-.3 23.4.5 22.9.9-.5 1.1-4.2.9-12.4-.2-6.4-.1-16.7.3-22.7.4-7.1.7 3.8.9 31 .1 23.1.2 45.6.2 50 .2 14.8-.3 31-.8 29.7-.2-.6-1.1-1.2-1.9-1.2-1.2 0-1.4-5.1-1.5-31.8-.1-17.4-.4-30.4-.8-28.7-.4 1.6-.5 16.3-.3 32.5.2 22.5.6 29.8 1.6 30.8.7.8 4.6 2.4 8.7 3.7l7.4 2.3-4.7.1c-3.4.1-4.8.5-4.8 1.5 0 1.8 2.2 2.6 7.6 2.6 4.2 0 4.4.1 4.4 3 0 1.6.6 3.3 1.3 3.7 1.6.9 3.1 7.3 1.8 7.3-.5 0-1.2-.6-1.4-1.3-.4-.9-.8-.8-1.6.3-3.5 4.9 15.7 8.1 24.6 4 4.2-1.9 5.3-3.3 3.3-4.5-.6-.3-1-2.7-1-5.2v-4.6l4 .6c3.4.4 4.1.2 5.5-2 1-1.4 1.4-3.5 1.1-4.7-.5-2 .1-2.4 4.8-3.9 2.9-.9 6.5-1.7 7.9-1.7h2.7v8.2c0 6.2-.4 8.6-1.7 10-1.4 1.6-1.6 4-1.4 16.6.2 14.2.3 14.8 2.8 17.3 3 3.2 15.4 8.6 21.5 9.4 4.3.6 16.9 3.6 17.7 4.2.2.1.3 6.3.2 13.7-.2 15.2.7 18.4 5.9 20.6 3.5 1.4 5.4.5 2.7-1.4-1.2-.9-1.7-2.7-1.7-5.7 0-3.2.3-4 1-2.9.5.8 1 2.5 1 3.7 0 1.3.9 2.8 2 3.5 1.1.7 2 1.8 2 2.5 0 2.4 4.4 3.5 14.4 3.5 10.6 0 16.3-1.3 23.2-5.4l3.5-2.1-.2-14.5-.1-14.6 10.8-1.7c15.8-2.5 22.4-4.5 28.9-8.9 7.7-5.3 7.9-5.7 7.1-17-.5-6.9-.4-10 .3-10 .6 0 5.4 1.1 10.7 2.5 5.3 1.4 10.5 2.5 11.5 2.5 1.7 0 1.9.8 1.9 7.9 0 7 .3 8.2 2.2 9.5 2 1.4 11.6 3.9 19.8 5.1l3.5.5-.3 12.9-.3 12.9 5.5.7c5.2.7 14.7.1 18.9-1.1 1.2-.4 1.7-1.6 1.8-4.7 0-3.3.2-3.8.9-2.2.8 1.8.9 1.7.9-.8.1-1.5-.3-2.7-.9-2.7-.5 0-1-1.8-1-4v-4l3.9 1.6c2.2.9 5 1.4 6.3 1.2 2-.3 2.3-1 2.6-4.9.3-4.1 0-4.7-1.9-5.2-1.5-.4-2.7 0-3.5 1.1-.8.9-1.4 1.2-1.4.6 0-1.6 1.8-2.9 5.9-4.2 3.6-1.3 6.4-4 8.8-8.7 2-3.9 5.3-7.5 7-7.5 1 0 1.3-4.5 1.3-22.8 0-12.5.1-37.8.1-56.2v-34.6c-.1-.6-1-2.1-2.1-3.4l-2.1-2.4 4.4-4c2.4-2.3 5.2-5.5 6.3-7.1 3.2-5.3 10.7-14.9 13.4-17.3 4.6-4.1 8.1-5 21.8-5.8l13.2-.7.1 31.9c.1 17.5.5 34.8.9 38.4.5 3.7.7-10 .4-31.8-.3-25.8-.1-38.2.6-38.2s1.1 13.6 1.2 40.7c0 22.5.1 41.6 0 42.5-.1 1 .3 1.8 1 1.8.8 0 1-11.3.7-42.8l-.4-42.7 2.3-.3 2.2-.3v41.8c0 23 .3 42.8.6 44 .6 2.1.3 2.3-3 2.3-2.3 0-4.3-.7-5.6-2-1.9-1.9-2-3.4-2.1-31.3-.1-16-.1-34.3-.1-40.4 0-6.2-.4-11.6-.9-11.9-.7-.4-.9 14.6-.7 41.5.3 35.8.5 42.2 1.8 43.5.8.8 7.1 2.4 14 3.6 13.5 2.3 18.1 3.9 11.8 4-2.1 0-3.9.4-3.9 1-.5 3.2-.2 3.5 4.1 3.5h4.5l-.3 5.6c-.3 4 .1 6 1.2 7.1 1.5 1.5 13.8 3.3 16.7 2.4.8-.2 2.6-.7 4.2-1 2.6-.6 2.7-.8 2.7-7.7 0-6.2.2-7 1.8-6.5 3 .9 26.3 5.7 34.7 7.1 16.6 2.8 30 5.8 30.7 6.9.4.6.8 7.9.8 16.2v15.2l3.3 1.5c6.5 3 22 7.8 26.8 8.4 2.7.3 5.1.9 5.4 1.2.2.4.5 5.8.6 12.1.1 6.3.4 12.2.7 13.1.8 3.4 10.6 5.4 25.7 5.4 12.7 0 14.5-.2 18.8-2.3 2.6-1.3 4.7-2.9 4.8-3.5 0-.7 0-6.7-.1-13.4l-.1-12.2 3.8-.6c10.3-1.6 29.1-7.6 30.5-9.8.5-.6.7-2.9.4-5-.4-3.3-.2-3.8 1.2-3.2 1 .4 12 2.7 24.6 5.1 12.5 2.4 26 5.5 30 6.8 3.9 1.3 10 2.9 13.6 3.6 8.3 1.5 9.5 2.4 4.5 3-3.5.4-4 .8-4.3 3.4-.3 2.7-.2 2.8 2.5 2.2 5.2-1.4 4.7-2 5.1 6.2.2 2.8.8 3.5 3.7 4.8 4.2 1.7 13.9 1.8 20 .2l4.5-1.2v-14.5l3.8-.3c3.1-.3 3.7-.7 3.7-2.6 0-1.9 1-2.7 5.4-4.2 9.4-3.2 8.6 4.2 8.9-75.6l.2-70.4-2.9-2.9c-2.5-2.5-7.1-4.1-12.6-4.6-.5 0-.9-1.5-.7-3.2.2-1.8-.2-4.2-.9-5.5-1.2-2.2-1.2-2.2-2-.2-.7 2.2-4.9 3.4-11.6 3.4h-3.3l.2 5.7c.2 5.7.2 5.7.5 1 .3-3.8.8-4.7 2.3-4.7 1 0 2.5-.3 3.4-.6 1.3-.5 1.6.3 1.7 4.7 0 4.4.2 5 1 3.1.5-1.3.6-3.5.3-4.8-.4-1.5-.2-2.4.5-2.4s1.1 2 1.1 4.9c0 5.6-.6 6.1-8.2 6.1h-5l.4-6c.3-6.5.7-6-5.7-6.5-1.1-.1-3.2-.4-4.7-.8-1.6-.4-4-.9-5.4-1.2-1.8-.4-2.4-1-2-2.1.4-1 .1-1.4-.6-1.2-2.8 1-1.9 3.6 1.6 4.9 3.6 1.3 3.6 1.4 3.6 7.1 0 5.4.1 5.8 2.8 6.5 1.5.4 7.7.7 13.8.7 12.5.1 16.4-1.1 16.4-5.2 0-2.2.2-2.3 4.3-1.7 9.3 1.6 10.1 4.3 2.2 7.9l-5.5 2.5v6c0 3.8.4 6.1 1.1 6.1.8 0 1-2 .7-6-.3-3.8-.1-5.9.6-5.7.5.2.9 2.6.7 5.5-.1 3.3.2 5.2.9 5.2 1.8 0 2.2-2.6 1.2-7.4-.8-4.1-.7-4.5 1.2-5 2.8-.7 3.6.9 3.6 7.3 0 6.8-1.7 5.7-2.3-1.4-.3-5-.3-5-.5 1.1l-.2 6-5.3 1.7c-9.3 2.9-9.7 2.7-9.7-4.7 0-4.9.4-6.5 1.6-7 3-1.2 3.4-.6 3.5 5.1.1 4.8.2 5.3.9 3 .9-2.9.3-9.4-1-10.2-.3-.2-2.3.2-4.4.9-2.2.8-3.4 1.6-2.7 2 1.5.9 1.4 12.3-.1 13.2-.6.4-6.8.7-13.7.7-10.6 0-13.3-.3-17.1-2-5.3-2.4-12.5-9.3-19.5-18.6-2.7-3.6-5.4-6.6-5.9-6.7-.4 0-2.2-1.2-4-2.7-6.2-5.2-8.2-5.6-33.1-5.4-12.6.1-28.2.5-34.5.9l-11.5.7-.1 5c-.1 2.8 0 3.6.3 1.7.6-4.3 2.3-4.1 2.3.3v3.5h-21.9l-.4-2.8c-.4-2.4-.4-2.3-.6.7l-.1 3.4 18.1-.6c16.5-.5 18.4-.7 21.1-2.7 2.7-2 3.3-2 8.5-.9l5.6 1.3-2.6 2.1c-3 2.7-17.8 4.6-38.2 5-16.4.4-15.5.2-15.5 2s-.9 1.9-3 .4c-1.3-.9-1.2-1 .3-.5 1.1.3 1.7 0 1.7-.9 0-1.2-1.5-1.5-6.7-1.5-3.8 0-7.5-.5-8.3-1-1.2-.7-.8-1 1.4-1 5.6 0 2-.8-6.9-1.4-6.3-.5-8.6-.4-7.5.3 1.2.9 1 1.1-1.2 1.1-2 0-2.5-.4-2.1-1.8.4-1.6 1.2-1.7 7.1-1.1 10 1.1 24 1.4 24.8.6.4-.4.2-.7-.4-.7-.7 0-1.2-1.5-1.2-3.5 0-3.4.1-3.5 3.9-3.5 3.6 0 4 .3 4.4 2.7l.4 2.8.2-2.8c.2-3.9 3.1-3.6 3.1.4 0 1.6.4 2.8.9 2.5.4-.3.6-1.7.3-3.1-.3-1.8 0-2.5 1.1-2.5 1 0 1.7 1.2 2 3.2l.4 3.3.1-3.3c.2-3.9 1.9-4.3 2.5-.5l.4 2.8.2-2.8c.2-3.8 2.1-3.4 2.1.5 0 4.7 1.2 2.6 1.5-2.7l.3-4.7-4.7.6c-2.5.3-20.7 1.1-40.3 1.6-19.7.6-39.3 1.3-43.5 1.5-4.3.3-22.4.9-40.3 1.5s-34.1 1.3-36 1.5c-1.9.2-13.8.6-26.5.9-30.5.8-38.2 1.5-43.1 3.6-4.3 1.8-10.1 7.1-13.1 11.8-8.6 13.3-17.1 19.5-30.4 21.8-8.7 1.5-25.4 1.8-35.9.6l-6.5-.7-.1-6.5-.1-6.5.7 6.5.7 6.5.3-5.3c.3-6.2.3-6.4 1.3-7.8.4-.8-1.1-1.4-4.9-1.9-3-.3-7.1-1.3-8.9-2.1-1.9-.8-3.7-1.4-4-1.4-1.1 0-.5 11.9.6 12.6.9.5 1-.7.5-4.4-.4-3.5-.3-5.2.4-5.2s1 2.2.9 6c-.1 3.3-.6 6-1.1 6-.5 0-2-.7-3.3-1.6-2.2-1.4-2.5-2.4-2.5-7.3 0-3.1.4-7.3.9-9.3.7-2.9.6-3.5-.5-3.1-1.9.7-2 23.3-.2 25.1.8.8.9 1.5.2 2.2-.8.8-3.2.6-8-.4-3.8-.8-13.9-2.7-22.4-4.2-14.9-2.6-20.7-4.4-14.4-4.4 3.3 0 12.5-2.4 16.2-4.2 1.2-.6 2.2-1.7 2.2-2.5 0-1.6-1.1-1.7 11 .7 10.4 2.1 15.7 2.2 8.5.1-2.2-.6-7.5-1.6-11.7-2.3l-7.8-1.2v-4.1c0-5.1-2.8-8.1-8.5-9-3-.5-3.6-.4-2.5.4 1.3.9 1.2 1.1-.4 1.1-2 0-2 0 0 1.6 1.7 1.4 1.7 1.5.1 1-1-.3-2.1-.6-2.3-.6-.6 0-.5-5.7.3-11.9l.6-5.3 6.1.6c11.5 1.2 48.1 3.6 53.1 3.5l5-.1-4.5-.8c-2.5-.4-8.8-1-14-1.4-5.2-.4-18-1.3-28.3-2-15.7-1.1-20.7-1.1-30 0-6.2.7-14.2 1.3-17.9 1.4h-6.7l-.4-14.3-.3-14.2v14.8l.1 14.7-3-.1c-1.6 0-9.9 0-18.2.1-8.4.1-15.8-.2-16.4-.5-.7-.5-.9-5.6-.6-16.1.3-8.5.2-16.4-.1-17.6-.4-1.3-.9 5.8-1.2 15.7-.5 17.7-.5 18-2.7 18.3l-2.3.3v-37.1l6.8-.1c3.7-.1 7.8-.2 9.2-.4l12.6-.9 10-.7.2 18.2c.1 10 .4 18.4.7 18.7.3.3.5-7.8.5-18.1v-18.6l4.3-.5c9.5-1.1 26.3-2.7 44.7-4.2 10.7-.8 26.5-2.2 35-3 44.2-4.2 58.5-5.4 80.5-6.8 13.2-.9 27.8-1.9 32.5-2.2 13.6-1.1 48.1-1.2 66-.3 9.1.4 26.2 1.3 38 1.9 11.8.6 32.8 1.7 46.5 2.5 13.8.8 35.6 2 48.5 2.5 12.9.5 26.7 1.2 30.5 1.6l7 .5-.2 7.5c0 4.1.3 7.4.8 7.4s1-3.5 1.1-7.8l.2-7.7.3 7.5c.5 10.5 2.3 11.5 2.3 1.3 0-7.1.2-8.1 1.8-7.9 2 .1 3.2 5.8 2.4 12.3l-.5 4.3-8.1-.3-8.1-.2-.3-7.3c-.2-3.9-.7-7.2-1.2-7.2s-.9 3.3-.8 7.2l.1 7.3-36.4 1.2c-40.9 1.3-52.6 2-53.5 3.4-.3.6 1.3.8 4.3.4 2.6-.3 23.9-1.2 47.3-2.1 39-1.5 48.9-1.4 63.8.3 5 .5 5.2.5 5.3-1.8l.1-2.4.7 2.5c.6 2.3 1.5 2.6 13.5 4.6 7 1.2 14.2 2.4 15.9 2.8 1.9.3 2.6.2 1.7-.3-1.2-.6-10.2-2.7-20.7-4.7-2.2-.4-2.3-.7-2.3-13.5 0-12.1-.8-16.9-2.9-16.9-.5 0-.7.9-.4 2 .8 2.9-6.4 5.8-15.3 6.3-7.4.4-52.5-1.5-73.9-3.2-7.1-.5-19.5-1.2-27.5-1.6-13.7-.5-30.7-1.5-59.1-3.5-12.1-.8-40.5-1.5-55.4-1.3-18.5.2-62.2 2.6-81.5 4.3-35.7 3.3-54.1 4.9-62.5 5.5-4.4.3-13.6 1.2-20.5 2-12 1.4-46 4.3-75.6 6.5-41.5 3-75-.8-76.2-8.7-.6-4 5.8-5.4 39.8-8.8 16.4-1.7 27.2-3.4 20.5-3.2-1.6 0-6.6.3-11 .7zm499.7 20.2c.3 6.5.1 11.8-.4 11.8-.7 0-1.3-11.1-.8-16.8.1-1.2-.3-2.2-.8-2.2s-1 4.1-1 9.1c-.1 5-.3 9.4-.6 9.7-.4.3-.6-4-.6-9.6 0-8.1.3-10.6 1.7-12.2.9-1 1.8-1.8 1.9-1.7.1.1.4 5.5.6 11.9zm-6.5 3c-.2 2.4-.4.7-.4-3.7s.2-6.3.4-4.3c.2 2.1.2 5.7 0 8zm-6.9-.8-.2 9.1-.5-9c-.7-10.6-2.3-10-2 .8.1 3.9-.1 7.2-.5 7.2s-.8-3.9-.9-8.6c-.2-8.4-.1-8.7 2.1-8.7 2.1 0 2.2.3 2 9.2zm3.4-.4c0 4.5-.3 8.4-.6 8.7-.3.4-.6-3.6-.6-8.7s.3-9 .6-8.7c.4.4.7 4.3.6 8.7zm-536.2 11c0 10.7.4 17 1 17s1-6.2 1-16.7c0-9.1.2-16.4.5-16.1.7.7 1.2 34.8.6 34.8-.3 0-2-.5-3.8-1.2l-3.3-1.2-.1-7.1c-.1-8.4-1.7-6.1-1.8 2.6-.1 4.9.2 5.7 1.9 6.2 3.8 1 2 2.4-4.7 3.9-6.4 1.3-6.8 1.3-7.1-.4-.2-1-.7-1.8-1.2-1.8-.4 0-.6.9-.3 2 .5 1.8 0 2-4.6 2h-5.1v-6.5c0-8.3 1.8-8.5 2.3-.3l.3 6.3.2-6.8c.2-7.6 2.2-9.3 2.3-2 0 2.7.5 5.7 1 6.8.6 1.4.8-.1.6-5l-.2-7 3.5-.5c4.6-.7 11-4 11-5.7 0-.7.5-1.3 1-1.3.6 0 1-3.6 1-8.8 0-9 .3-10.2 2.7-10.2 1 0 1.3 3.5 1.3 17zm7.2 8.3c.2 7.3-.1 11.7-.7 11.7s-.9-2.3-.9-5.3c.6-24.7.8-28.5 1.1-23.7.1 3 .4 10.8.5 17.3zm3.5-19.1c-.3.8-.6.5-.6-.6-.1-1.1.2-1.7.5-1.3.3.3.4 1.2.1 1.9zm15.5 17.7c-.2 9.4-.6 17.1-1 17.1s-.6-7.8-.5-17.2c.2-19.8.1-18.1 1.1-17.5.4.3.6 8.2.4 17.6zm3.8.6c0 10.8-.4 17.5-1 17.5s-.9-6.7-.9-17.5c.1-9.6.5-17.5 1-17.5s.9 7.9.9 17.5zm7.2.5c.2 14.4 0 18-1 18s-1.3-1.8-1.2-6.8c.4-16.7 0-28.3-1-27.7-.6.4-.7 7-.4 17.5.5 12.2.3 17-.5 17s-1.1-5.4-1.1-18v-18h4.9l.3 18zm3.4.5c0 10.2-.4 18.5-.8 18.5s-.8-8.3-.8-18.5.3-18.5.8-18.5c.4 0 .7 8.3.8 18.5zm3.4 0c0 12.2-.3 18.5-1 18.5-.6 0-1-6.4-1-18.5 0-10.6.4-18.5.9-18.5s1 8 1.1 18.5zm-23.3-15.3c-.3.8-.6.5-.6-.6-.1-1.1.2-1.7.5-1.3.3.3.4 1.2.1 1.9zm-3.7 12.5c0 7.6-.4 13.3-.8 12.7-.7-1.2-.4-26.4.4-26.4.2 0 .4 6.2.4 13.7zm-68.3-6.5c-.2 1.3-.4.3-.4-2.2s.2-3.5.4-2.3c.2 1.3.2 3.3 0 4.5zm32.3-1.6c0 1.9-.2 3.4-.4 3.4s-1.1.3-2 .6c-1.2.5-1.6 0-1.5-2.2.1-1.7.3-2.2.6-1.2.6 2.4 2.3 2.3 2.3-.1 0-1-.8-2.2-1.7-2.5-1.5-.6-1.5-.9-.3-1.6 2.1-1.3 3-.3 3 3.6zm30 9.4c0 7.7-.3 14-.7 14-.5 0-.7-5.3-.6-11.8.2-15.9.2-16.2.8-16.2.3 0 .5 6.3.5 14zm-44.2-7.2c.2 2.3 0 4.2-.5 4.2-2.1-.1-5.3-1.3-5.3-2.2 0-.5.5-.6 1-.3.6.3 1-.4 1.1-1.7.1-2.3.1-2.3.9.2.8 2.4.8 2.3.9-.7.1-2.7-.2-3.1-1.6-2.7-1.5.5-1.6.4-.3-.5 2.4-1.7 3.5-.7 3.8 3.7zm4-.8c.1 2.8-.3 4-1.4 4-1 0-1.4-1.2-1.4-4 0-2.7.4-4 1.4-4 .9 0 1.4 1.3 1.4 4zm3.9-1.8c-.3.8-.6.5-.6-.6-.1-1.1.2-1.7.5-1.3.3.3.4 1.2.1 1.9zm.4 3.8c.6 0 .7.4.4 1-.3.5-1.3 1-2.1 1-1 0-1.4-1.1-1.3-3.8.1-3.6.1-3.7 1.1-1 .5 1.6 1.4 2.8 1.9 2.8zm46.8 10.2c0 6.5-.3 11.8-.8 11.8-.4 0-.9-6-.9-13.2-.1-8.5.2-12.8.8-11.8.5.8.9 6.8.9 13.2zm-85.2 1c-.3.8-.6.5-.6-.6-.1-1.1.2-1.7.5-1.3.3.3.4 1.2.1 1.9zm5 7.5c-.2 2.1-.4.6-.4-3.2 0-3.9.2-5.5.4-3.8.2 1.8.2 5 0 7zm7.3-2.7c0 3.8-.4 7-.8 7s-.8-3.2-.8-7c0-3.9.4-7 .8-7s.8 3.1.8 7zm4 .6c0 3.6-.4 6.4-1 6.4s-1-3-1-7.1c0-4.4.4-6.8 1-6.4.6.3 1 3.5 1 7.1zm2.9.1c-.1 5.4-.3 6.1-.8 3.3-.4-1.9-.6-4.9-.5-6.5.3-3.6.3-3.5.9-3.5.3 0 .4 3 .4 6.7zm6.1-.2c0 6.1-.1 6.5-2.2 6.5-2.2 0-2.3-.3-2-6.5.3-5.6.6-6.5 2.3-6.5 1.7 0 1.9.8 1.9 6.5zm3 0c0 3.7-.4 6.5-1 6.5s-1-2.8-1-6.5.4-6.5 1-6.5 1 2.8 1 6.5zm-19.2-1.9c.1 1.9-.2 4.3-.8 5.2-.7 1.3-.9.3-1-3.6 0-5.8 1.4-7.2 1.8-1.6zm-8.3 4.3c.3.5.1 1.2-.5 1.6-.5.3-1-.1-1-.9 0-1.8.6-2.1 1.5-.7zm79.8 1.5c.4 1 .1 1.3-.8.9-.8-.3-1.2-.9-.9-1.4.7-1.2 1.1-1.1 1.7.5zm636.8 6.5c.3 4.8 0 5.5-1.9 6.2-2.1.8-2.2.6-2.2-5.1 0-3.3.4-6 .9-6s.7 2.2.5 5c-.3 3.1-.1 5 .6 5 .6 0 1-2.4 1-5.7 0-7 .7-6.7 1.1.6zm-651.1-3.5c0 1.4-1.3 2.1-6.2 3.6-4.4 1.3-3.5-1.5 1-3.3 4.7-2 5.2-2 5.2-.3zm5.6-.5c1.6.5 4.1 1.2 5.7 1.5 2.6.6 2.7.8 2.7 7.6 0 3.9-.2 7-.4 7s-4.8-.9-10.1-2c-5.4-1.1-10-1.9-10.1-1.7-.2.2-.4 25.4-.4 56-.1 30.6-.5 55.7-.9 55.7s-.7-25.3-.7-56.2l.1-56.1-2.4-.4c-1.3-.2-3.1-.8-4-1.4-2-1.2 4.8-.3 13.2 1.8 3.2.8 6.1 1.2 6.5.9.3-.3 0-.6-.6-.6-.7 0-1.2-.8-1.2-1.8 0-1.2-.3-1.3-.8-.4-.7.9-2.1 1-6.8.1-6.4-1.3-9.4-2.9-5.3-2.9 3.9 0 12.9-4.8 12.2-6.6-.6-1.7-.5-1.7 3.3-.5zm618.4 5.7c0 3.4-.4 5.3-1 4.9-1.8-1.1-1.2-10.5.7-10.5.2 0 .3 2.5.3 5.6zm-68.5-1.5c3.6 1.7 6.5 3.5 6.5 4s.6.9 1.4.9c.8 0 2.4 1.6 3.6 3.5 1.2 1.9 3.2 4.3 4.4 5.2 1.2 1 2.1 2.4 1.8 3.1-.2.6.6 2.4 1.7 3.8 1.2 1.5 2 2.8 1.8 3-.3.3-29.9-4.1-34.5-5.1-2.1-.5-2.2-.9-1.6-6.9l.7-6.4-3.2-1.7c-1.8-.9-5.5-1.9-8.4-2.2-2.9-.3-5.5-1.1-5.9-1.7-.5-.8 3.1-1.3 12-1.6 7-.3 12.8-.7 12.9-.8.1-.1 3.2 1.2 6.8 2.9zm8-2.1c.3.5.1 1-.4 1-.6 0-1.1-.5-1.1-1 0-.6.2-1 .4-1 .3 0 .8.4 1.1 1zm62.8 3.2c.3 2.1.2 3.8-.4 3.8-.5 0-.9-1.9-.9-4.2 0-4.9.5-4.7 1.3.4zm3.9 4.3c.3-.6.5-2.7.3-4.8-.2-2 .1-3.7.6-3.7s.9 2.2.9 5c0 4.3-.3 5-2 5-1.8 0-2-.6-1.8-5.3l.1-5.2.6 5c.3 2.7.9 4.5 1.3 4zm-640.7-6.5c.3.5.3 1.5-.1 2.1-.4.8-.9.7-1.5-.2-.7-1.1-.9-1-.9.3 0 1.2-.8 1.8-2.4 1.8-2.6 0-4.3-1.6-3.1-2.8.4-.4 1-.2 1.2.5.3.9 1.1.6 2.6-.7 2.3-2.2 3.3-2.5 4.2-1zm130.8 1.1c-.4 1.3-.9 1.7-1.5 1.1-1.1-1.1-.3-3.2 1.2-3.2.4 0 .6.9.3 2.1zm389.7 2c0 1.6-.4 2.9-1 2.9-.5 0-1-1.6-1-3.6 0-2.1.4-3.3 1-2.9.6.3 1 1.9 1 3.6zm2.2.1c-1 2.2-1.1 2.1-1.1-1.2-.1-2.6.2-3.1 1.1-2.2.8.8.8 1.7 0 3.4zm4.1-.4c.4 2.1.3 3.1-.3 2.7-.6-.3-1-2-1-3.7 0-3.8.5-3.4 1.3 1zm6-1.8c.3 1.1.1 2.3-.4 2.6-.5.3-.9-.6-.9-2 0-3.1.6-3.4 1.3-.6zm-586.6 33.7c-.1 6.5-.3 1.2-.3-11.7 0-12.9.2-18.2.3-11.8.2 6.5.2 17.1 0 23.5zm584.2-30.5c.1.5-.3.8-.9.8-.5 0-1-1.2-.9-2.8 0-2.4.1-2.5.9-.7.5 1.1.9 2.3.9 2.7zm-578.6 23.7c-.3 13.5-.7 24.8-.9 25-.2.2-.4-11.5-.4-26 0-15.2.4-25.8.9-25 .5.7.6 12.4.4 26zm2.8 72.6c-.6 19.5-.7 11.3-.5-37 .1-34.1.4-62.2.6-62.5.7-1.2.7 77-.1 99.5zm4.8-71c.2-12.7.7-24.1 1.1-25.5 1-3.1 1 87.1 0 107.5-.6 12.1-.7 8.2-.8-20.9-.1-19.7-.3-36-.5-36.2-.7-.8-1.9 67-1.2 68.8.4 1.1.3 1.8-.4 1.8-.8 0-1-16.8-1-58.3.1-62.3 1.1-82.8 1.9-40.2l.6 26 .3-23zm520.1-26c0 1.4-.2 2.5-.4 2.5s-.6-1.1-.8-2.5c-.3-1.4-.1-2.5.3-2.5.5 0 .9 1.1.9 2.5zm4.2 1.5c.6 0 .8-.9.5-2-.4-1.6 0-2 1.9-2s2.4.5 2.4 2.5c0 2.2-.4 2.5-3.9 2.5-3.6 0-3.8-.1-3.2-2.8.5-2.5.6-2.5.9-.5.2 1.3.8 2.3 1.4 2.3zm-516.2 59.6c0 38.2-.4 61.4-1 61.4-.5 0-.9-22.8-.8-60.6 0-33.3-.3-60.8-.6-61.1-.3-.4-.7 24.5-.8 55.3-.1 30.7-.3 58-.3 60.6 0 2.6-.4 5-.8 5.4-.4.4-.7-27-.6-60.8 0-33.9.2-61.8.5-62.1.3-.3 1.4-.3 2.5 0 1.9.5 1.9 2 1.9 61.9zm20-40.1c.3 12.1.7 21.1.9 20 .1-1.1.2-11.1.1-22.3-.1-13.7.2-20.2.9-20.2.8 0 1.1 9.1 1.2 28.7 0 49.9-.2 93.7-.5 94.1-.2.2-3.7.5-7.7.8-4.1.2-8.3.6-9.4.9-1.1.2-2.5.1-3-.3-.7-.5-1.1-21.4-1.2-62 0-51.2.2-61.2 1.3-61.2s1.4 4 1.6 20.7l.3 20.8.2-20.7.3-20.7 3.8-.4c2-.2 5.3-.3 7.2-.3l3.5.1.5 22zm462.9-20c.8.8 1.1 1.8.7 2.2-.5.5-1.1.2-1.3-.5-.3-.6-.9-1.2-1.4-1.2-.6 0-.7.4-.4 1 .8 1.3-1.1 1.3-3.6 0-1-.6-1.9-1.8-1.9-2.7 0-1.2.7-1.4 3.2-.9 1.8.4 3.9 1.3 4.7 2.1zm7.1-.9c0 .8-.4 1.2-1 .9-.5-.3-1-1-1-1.6 0-.5.5-.9 1-.9.6 0 1 .7 1 1.6zm18.7 1.6c-.3.7-.5.2-.5-1.2s.2-1.9.5-1.3c.2.7.2 1.9 0 2.5zm-1.7-1.2c0 .5-.4 1-1 1-.5 0-1-.5-1-1 0-.6.5-1 1-1 .6 0 1 .4 1 1zm-342.6 8.9-.8 4.6-.7-6-.6-6-.1 6.5c-.3 7.5-2.2 6.6-2.2-1.1 0-3.8.4-4.8 2.3-5.6 1.8-.9 2.3-.7 2.5 1 .2 1.1 0 4.1-.4 6.6zm255.7-7.1c-1.3.2-2.7 0-3.2-.5-.6-.6.3-.7 2.3-.4 2.8.4 2.9.6.9.9zm17.7-.3c3.2.5 5.2 1.3 5.2 2.1 0 1.5 1.8 2.1 8.5 2.8l5 .5-6-1.5c-5.4-1.4-8.2-3.1-6.9-4.3.3-.3.8 0 1.2.6.4.7 3.9 1.7 7.7 2.3 3.9.5 8.1 1.3 9.3 1.5 1.4.4 2.1.2 1.8-.4-.4-.5-.2-1.2.3-1.6.5-.3 1.4.2 1.9 1.1.6 1.1 2.6 1.7 5.8 2 3.9.2 4.2.1 1.5-.4-1.9-.4-3.6-1.3-3.9-2-.5-1.5.2-1.5 5.8.2 2.6.8 4.4 1.9 4.2 2.6-.2.9.6 1.1 2.6.7 1.6-.3 3.3-.3 3.7.1.3.4 4.1 1.2 8.3 1.9 41.5 6.2 43.7 6.5 52.2 5.8 12.3-1 18.2-.7 38.4 2.2 10 1.4 19.6 2.5 21.4 2.6 1.7 0 3.2.4 3.2.8s2 1 4.5 1.3c6.6 1 6.4 2.4-.3 1.5-10.6-1.3-15.3-1.7-14.7-1.1.3.4 4.3 1.2 8.8 1.8l8.2 1.2-6.5.2-6.5.3 6.4.8c3.4.4 6.8 1 7.5 1.3 2.8 1.4-32-1.7-49.4-4.4-3.6-.6-13-1.9-21-3.1-8-1.1-18.6-2.7-23.7-3.5-10.7-1.7-22.7-3.3-29.8-4-2.7-.3-5.8-.6-6.7-.8-1.1-.3-1.8.4-2.1 1.8-.4 1.7-.5 1.6-.6-.6-.1-1.8.5-2.8 1.7-3.1 1-.3.6-.5-1.1-.6-1.8-.1-2.6.3-2.1 1 .4.8-.5.9-3.2.5-2.2-.3-5.9-.8-8.4-1.1-6.3-.8-7.7-1.1-24.3-3.9-8.1-1.4-15.1-2.6-15.5-2.6-.4 0 0-.5.8-1 1.2-.8 1.2-1-.5-1-1.1 0-2.7-.5-3.5-1-1.6-1 1.2-.9 10.8.5zm3.9-.9c-.3.3-1.2.4-1.9.1-.8-.3-.5-.6.6-.6 1.1-.1 1.7.2 1.3.5zm185.8 1.2c-.3.3-1.1 0-1.8-.7-.9-1-.8-1.1.6-.5 1 .3 1.5.9 1.2 1.2zm-468.6 4c-.1 2-.5 4.8-.9 6.2-.6 1.8-.8.6-.9-4.3-.1-4.3.3-6.6.9-6.2.6.3 1 2.3.9 4.3zm236.6 44.7c.4 26.9.5 48.8.2 48.5-.3-.3-.8-15.6-1.2-34-.3-18.4-.8-40-1-48-.3-12.6-.1-16.9 1-15.8.2.2.6 22.3 1 49.3zm6.5-30-.7 19-.1-18.6c-.2-15.4.2-21.3 1.3-19.7.1.2-.1 8.8-.5 19.3zm62.3-18.8c-.7.2-2.1.2-3 0-1-.3-.4-.5 1.2-.5 1.7 0 2.4.2 1.8.5zm3.7 2.1c0 1.5-.2 1.5-1 .2-1.3-2-1.3-3.3 0-2.5.6.3 1 1.4 1 2.3zm-408 3.8c0 3.4-.4 5.3-1 4.9-.5-.3-1-2.8-1-5.6 0-2.7.5-4.9 1-4.9.6 0 1 2.5 1 5.6zm86 2c0 3.6-.4 6.4-1 6.4s-1-3-1-7.1c0-4.4.4-6.8 1-6.4.6.3 1 3.5 1 7.1zm3.2 1.2c.2 2.8 0 5.2-.4 5.2-.5 0-.7-3.3-.7-7.3.2-7.6.6-6.8 1.1 2.1zm3 0c.2 2.8 0 5.2-.4 5.2-.5 0-.7-3.3-.7-7.3.2-7.6.6-6.8 1.1 2.1zm202.6 35.7c.3 31.4 0 44.5-.7 44.5-.8 0-1.1-10.8-1.2-35.3-.1-19.3-.3-39.4-.5-44.5-.3-6.8 0-9.2.9-9.2s1.3 10.1 1.5 44.5zm3.2.4c.1 23.8-.1 43.6-.4 43.9-.3.3-.6-2.6-.6-6.4.1-3.8-.2-24-.5-44.9-.3-24.9-.2-37.6.5-36.9.6.6 1 17.2 1 44.3zm3.2.4c.2 24.6.1 44.7-.3 44.7s-.8-20.3-.9-45.2c0-24.9.1-45 .4-44.7.3.2.6 20.6.8 45.2zm3.8.2c0 25-.3 45.5-.8 45.5-.4 0-.8-20.5-.9-45.5-.2-28.4.1-45.5.7-45.5s.9 17.3 1 45.5zm3.8.5c0 28.1-.3 45.8-.9 45.4-.6-.3-.9-18.6-.8-44.9 0-24.4-.2-44.9-.6-45.4-.3-.6 0-1.1.9-1.1 1.2 0 1.4 6.1 1.4 46zm3.2-30.8c0 8.4.1 28.7.3 45.1.1 16.4-.1 30.3-.5 31-.4.7-.9-19.6-1-45.1-.2-25.4 0-46.2.5-46.2.4 0 .7 6.9.7 15.2zm4 31.3c0 25.6-.3 46.5-.7 46.5-.5 0-.9-20.9-.9-46.5-.1-26.5.2-46.5.7-46.5.5 0 .9 20.1.9 46.5zm2.7-11.8c-.1 6.5-.3 1.2-.3-11.7 0-12.9.2-18.2.3-11.8.2 6.5.2 17.1 0 23.5zm4-27c-.1 4.3.2 25.6.6 47.3.5 21.7.6 39.2.2 38.8-.4-.4-.9-7.6-1.1-16-1.6-72.7-1.5-77.8.3-77.8.1 0 .2 3.5 0 7.7zm4.2 15c0 12.6.3 33.9.7 47.5.4 14.8.3 24.8-.3 24.8-.5 0-.9-3.3-1-7.3 0-3.9-.4-24.8-.8-46.4-.6-34.8-.5-41.3 1-41.3.2 0 .4 10.2.4 22.7zm4.1 1.5c0 13.4.3 35 .7 48 .4 15.9.3 23.8-.4 23.8s-1.1-7.8-1.2-21.8c0-11.9-.4-33.5-.7-48-.5-19.3-.4-26.2.5-26.2.8 0 1.1 6.8 1.1 24.2zm7.8 3.5c-.1 24.3-.2 26.1-.9 14.3-1.1-21.1-1-42 .1-42 .6 0 .9 9.8.8 27.7zm7.3 9.5c.1 20.5.3 42.8.4 49.5.1 6.8-.2 12.3-.6 12.3-.5 0-.9-21.3-.9-47.3 0-25.9-.3-48.2-.6-49.5-.4-1.3-.2-2.2.5-2.2.8 0 1.1 10.6 1.2 37.2zm50.9-36.2c1 .6.2.7-2.5.3-4.9-.7-5.8-1.3-1.9-1.3 1.6 0 3.6.5 4.4 1zm32.7.5c0 1-.8 1.5-2 1.3-3-.4-3.4-2.8-.4-2.8 1.5 0 2.4.6 2.4 1.5zm145.8 4.3c-.5.6-5.5-4.5-5.5-5.5 0-.4 1.3.6 3 2.2 1.6 1.6 2.8 3.1 2.5 3.3zm-572.5.8c0 3.4-.4 5.3-1 4.9-1.6-1-1-10.5.6-10.5.2 0 .4 2.5.4 5.6zm74.2 7.8c.4-.6.5-3.9.3-7.2-.4-5.1-.2-6.2 1.1-6.2 1.2 0 1.4 1.3 1.2 7.2l-.3 7.3-3.2.3-3.3.3v-5c0-2.7.6-6.2 1.2-7.8 1.2-2.6 1.3-2.3 1.8 4.7.3 4.1.8 7 1.2 6.4zm5.8-6.4c0 4-.4 7-1 7s-1-3-1-7 .4-7 1-7 1 3 1 7zm11.7 2.2c-.2 1.8-.4.4-.4-3.2s.2-5 .4-3.3c.2 1.8.2 4.8 0 6.5zm255.2 49.8c.1 21.1 0 38.2-.2 38-.2-.3-.6-22.3-.9-49-.2-26.7-.2-43.8.2-38 .4 5.8.7 27.8.9 49zm2.9-27.8c0 17.2-.2 30.4-.4 29.3-.7-4.3-1-60.5-.3-60.5.4 0 .7 14.1.7 31.2zm48.9-30.6c-.3.3-1.2.4-1.9.1-.8-.3-.5-.6.6-.6 1.1-.1 1.7.2 1.3.5zm-373.7 6.1c0 3.2-.5 6.5-1 7.3-.7 1-1-.7-1-5.8 0-4.1.4-7.2 1-7.2s1 2.6 1 5.7zm3.2 1.8c-.2 4.1-.7 6.4-1.3 5.8-1-1 0-13.5 1-12.9.3.2.4 3.4.3 7.1zm3.3 0c.1 3.6-.2 6.5-.7 6.5-.4 0-.8-3.2-.8-7.2 0-8.8 1.3-8.2 1.5.7zm3.5.1c0 4.7-.4 7.3-1 6.9-.5-.3-1-3.7-1-7.6 0-3.9.4-6.9 1-6.9s1 3.2 1 7.6zm3.2-.9.2 6.8.3-6.9c.4-6.5.5-6.8 2.6-6.2 1.2.3 3 .6 4 .6 1.4 0 1.7 1 1.9 6.2l.2 6.3.3-6.3.4-6.2h5.7c3.1 0 6.7-.3 8-.6 2.1-.6 2.2-.4 2.2 5.4 0 3.4.4 6.3.9 6.6.4.3.7-2.4.6-5.9-.2-5.8 0-6.5 1.6-6.5 1.7 0 1.9.8 1.9 7v7l-4.7.1c-9 .3-13.8.3-21 .1l-7.3-.2v-7c0-9 1.9-9.2 2.2-.3zm314.8 20.8c-.5 6.9-.7 4.6-.7-9.5 0-14.7.1-16.5.7-9 .3 5.2.3 13.5 0 18.5zm3.7 19.2c-.1 8.7-.3 1.6-.3-15.7s.2-24.4.3-15.8c.2 8.7.2 22.9 0 31.5zm162.3-42.5c0 4.4-1.9 9.4-2 5.3 0-1.7-.2-1.7-1-.5-.7 1.1-.9.2-.9-3 .1-4.1.2-4.2.9-1.5.8 3 .8 3 .9-.8.1-5.2 2.1-4.7 2.1.5zm-555.8 55.2c-.1 31.1-.6 56.6-1 56.6s-.6-23.7-.5-52.7c.2-65.1.2-63 1.1-61.6.4.6.6 26.6.4 57.7zm39.5-50.7c-.2 1.6-.4.3-.4-2.7s.2-4.3.4-2.8c.2 1.6.2 4 0 5.5zm357.7 7.9c-.2 7.5-.5 13.8-.8 14.1-.3.3-.5-6.4-.5-14.8-.1-8.5.3-14.8.7-14.2.4.7.7 7.4.6 14.9zm3.5 34.6c-.1 27.7-.4 48.9-.9 47.2-.4-1.8-.6-5.6-.5-8.5.1-3 .3-24.2.4-47.2 0-22.9.3-41.7.6-41.7s.5 22.6.4 50.2zm-398 7.3c-.1 31.1-.4 56.5-.8 56.5-.5 0-.6-60.5-.1-108.3 0-2.6.2-4.7.6-4.7.3 0 .4 25.4.3 56.5zm3.7-37.5c-.3 7.4-.5 31.5-.6 53.4 0 22-.3 39.6-.6 39.3-.4-.3-.6-19.4-.5-42.4.2-70.7.2-70.1 1.2-66.8.5 1.6.7 9.1.5 16.5zm38.4-14.5c0 2.5-.3 4.5-.8 4.5-.4 0-.6-2-.4-4.5.2-2.5.6-4.5.8-4.5.2 0 .4 2 .4 4.5zm13 1c0 3-.4 5.5-1 5.5-.5 0-1-2.5-1-5.5s.5-5.5 1-5.5c.6 0 1 2.5 1 5.5zm420.3-4.8c-1.3.2-3.3.2-4.5 0-1.3-.2-.3-.4 2.2-.4s3.5.2 2.3.4zm72 3.5c.3 2.1.2 3.8-.4 3.8-.5 0-.9-1.9-.9-4.2 0-4.9.5-4.7 1.3.4zm58.7 1.1c0 .6-1.1 0-2.5-1.3s-2.5-2.8-2.5-3.3c0-.6 1.1 0 2.5 1.3s2.5 2.8 2.5 3.3zm-595.8 50.9c-.2 29.8-.5 54.4-.7 54.7-.3.2-.5-24.5-.5-54.9s.3-55 .7-54.7c.3.4.6 25.1.5 54.9zm391.5-37c-.2 3.5-.3.7-.3-6.2s.1-9.7.3-6.3c.2 3.5.2 9.1 0 12.5zm4.3-7c0 6.1-.3 10.8-.7 10.4-1.1-1.1-1.2-21.6-.1-21.6.4 0 .8 5 .8 11.2zm7.5 15.8c0 14.2-.3 25.6-.7 25.3-.5-.2-.8-12.1-.7-26.4 0-14.3.4-25.8.7-25.4.4.4.7 12.3.7 26.5zm130.5-22.9c0 2.4-.4 3.8-1 3.4-.5-.3-1-2.2-1-4.1 0-1.9.5-3.4 1-3.4.6 0 1 1.8 1 4.1zm136.8 2.2c.2 3.2-.1 5.7-.7 5.7-.5 0-1.1-2.7-1.3-6-.2-3.7.1-5.9.7-5.7.6.2 1.1 2.9 1.3 6zm-629.8-1.2c0 2.2-.4 3.8-.8 3.5-.8-.5-.4-7.6.4-7.6.2 0 .4 1.8.4 4.1zm357.7 17.1c-.1 4-.3.8-.3-7.2s.2-11.2.3-7.3c.2 4 .2 10.6 0 14.5zm8.5 13.1c.2 12.5 0 22.7-.4 22.7-.5 0-.7-12.9-.6-28.8.2-31.6.6-29.1 1 6.1zm120.2-32.8c-.4.8-1 1.2-1.5.9-1.1-.6-.2-2.4 1.1-2.4.5 0 .7.7.4 1.5zm2.3 2.2c-.3 1-.5.4-.5-1.2 0-1.7.2-2.4.5-1.8.2.7.2 2.1 0 3zm-525.9 25c-.1 26-.2 26.8-.8 12.3-1.1-24.5-1.1-40 0-40 .6 0 .9 9.8.8 27.7zm407.6 22.3c-.1 27.6-.4 50.4-.8 50.7-.3.3-.6-20.8-.6-46.9 0-26.2-.3-49-.6-50.7-.5-2.3-.3-3.1.7-3.1 1.2 0 1.4 8.2 1.3 50zm3.5-34.8c-.1 8.7-.5 14.4-1 13.3-1.6-4-1-28.5.7-28.5.2 0 .3 6.9.3 15.2zm101.1-14.1c0-.6 1.7-1.1 3.9-1.1 3 0 4 .4 4.4 2 .4 1.6 0 2-1.9 2-1.3 0-2.4-.5-2.4-1 0-.7-.6-.7-1.7-.2-1 .6-3.6 1.3-5.8 1.6-3.7.6-4.1.5-4.1-1.3 0-2.5 2.6-2.8 2.7-.4 0 1.3.3 1.2 1-.6.8-1.9 1.2-2.1 2.4-1.1 1 .9 1.5.9 1.5.1zm-502.7 1.3c.8 2 6.4 4.6 10.1 4.7 2.6 0 2.8.2 1.1.8-1.6.6-.8 1.1 3.5 2 3 .6 8.2 1.4 11.5 1.6 5.8.4 5.7.4-1.8-.9-8.5-1.5-12.1-3.3-4.7-2.2 16.4 2.3 56.1 3.8 58.7 2.3.5-.3 4.6-.8 9.3-1.1 14.5-1.2 32-5.3 32-7.7 0-1.4 2.2-1.1 4.2.8 2.6 2.3 2.2 4.1-1.4 6.3-3.7 2.2-9.7 4.1-20.8 6.3-37.2 7.6-108 1.3-108-9.6 0-4 5-6.6 6.3-3.3zm404.9 8.3c-.5 18.1-.8 19.9-1 5-.1-8.1.1-14.7.6-14.7.4 0 .6 4.4.4 9.7zm74.9-8.8c.4-.7 1-1.1 1.3-.8 1.1 1-1.3 3.2-2.9 2.6-.9-.4-1.3-1.2-.9-1.9.6-.9.9-.9 1.2.1.4 1.1.6 1.1 1.3 0zm4 2.4c-.8.8-1.1.7-1.1-.4 0-2 1.3-3.4 1.8-1.9.3.7-.1 1.7-.7 2.3zm6.2-1.5c-.2.6.2 1.2.7 1.2.6 0 1-.7 1-1.5s.5-1.5 1-1.5c.6 0 1 1 1 2.3 0 1.8-.5 2.2-2.7 2.1-2-.1-2.7-.6-2.5-1.8.3-1.9-1.4-2.2-2.1-.4-.3.8-.6.5-.6-.5-.1-1.4.5-1.7 2.2-1.5 1.2.2 2.1.9 2 1.6zm-466.6 3.9c-.3 1-.5.2-.5-1.7s.2-2.7.5-1.8c.2 1 .2 2.6 0 3.5zm385.2 2.2c0 3.9-.4 7.3-.9 7.6-1.1.7-1.4-12.7-.3-13.8 1.1-1.1 1.1-1 1.2 6.2zm2.8 23.8c-.1 5.9-.3 1.3-.3-10.2 0-11.6.2-16.4.3-10.8.2 5.6.2 15.1 0 21zm3.3-18.7-.7 11.5-.1-11.1c-.1-6.1.1-11.4.5-11.7.9-1 .9-1.1.3 11.3zm3.9-5.3c-.1 6.5-.5 6.1-1.2-1-.2-2.6-.1-4.7.4-4.7s.9 2.6.8 5.7zm157.1-3.2c-.9 1.1-1.5 1.2-2.5.2-1.1-1-1-1.3.4-1.8 2.3-.9 3.4 0 2.1 1.6zm-154.3 25.7c-.1 5.1-.3 1-.3-9.2s.2-14.3.3-9.3c.2 5.1.2 13.5 0 18.5zm4.3-25.5c0 1-.5 2.5-1 3.3-.7 1.1-1 .7-1-1.8 0-1.7.5-3.2 1-3.2.6 0 1 .8 1 1.7zm3.9 68.6c0 18.6-.3 33.6-.7 33.3-.5-.3-.8-23.8-.8-52.3.1-34.3.3-45.5.7-33.3.4 10.2.7 33.7.8 52.3zm145.1-62.4c0 1.9-1.1.7-3.9-4.4l-2.3-4 3.1 3.5c1.7 1.9 3.1 4.2 3.1 4.9zm-138.7-3.9c-.3 1.1-.7 2-.9 2-.2 0-.4-.9-.4-2s.4-2 .9-2 .7.9.4 2zm4.5 49.8c.2 28.4.1 51.4-.3 51-.8-.8-1.4-102.8-.6-102.8.4 0 .8 23.3.9 51.8zm3.9 11.9c-.1 21.6-.5 39.3-.9 39.3s-.7-23.3-.6-51.8c.2-35.7.5-47.8 1-39.2.4 6.9.6 30.2.5 51.7zm139.5-61.1c1.1 1.4 2.6 2.3 3.4 2 .8-.3 1.1 0 .7 1-.3.7-.1 1.4.5 1.4s1.2-.5 1.4-1.1c.2-.5 1.5.2 2.8 1.7l2.5 2.8-2.6-1.6c-1.6-1-3-1.3-3.6-.7-.5.5-2.3-.8-4.6-3.6-2.1-2.5-3.5-4.5-3.1-4.5.3 0 1.5 1.2 2.6 2.6zm2.6-.1c-.3.3-.9-.2-1.2-1.2-.6-1.4-.5-1.5.5-.6.7.7 1 1.5.7 1.8zm-138.3 63.8c-.1 20.8-.5 38-.9 38.4-.3.4-.6-22.1-.6-49.9 0-27.9 0-51-.1-51.5-.1-.4 0-1.3.1-1.8.9-3.1 1.7 32.1 1.5 64.8zm148-58.4c-.7.6-6.5-5-6.5-6.3 0-.5 1.6.5 3.5 2.4 1.9 1.8 3.2 3.6 3 3.9zm-144.5-2.8c0 1.7-.4 2.8-1 2.4-.5-.3-1-1.7-1-3.1 0-1.3.5-2.4 1-2.4.6 0 1 1.4 1 3.1zm3.5.4c-.3 5.1-1.5 5.6-1.5.7 0-2.3.4-4.2.8-4.2.5 0 .8 1.6.7 3.5zm4 36.8c0 47.8-.4 65.1-1.4 61.7-.4-1.4-.6-3.9-.5-5.5.1-1.7.3-23.8.3-49.3.1-25.4.4-46.2.9-46.2.4 0 .7 17.7.7 39.3zm4.3 12.7c0 32-.3 52-.9 52-.5 0-.9-20-.9-52 0-28.6.4-52 .8-52 .5 0 .9 23.4 1 52zm117-46.4c-.8.8-4.8-3.2-4.8-4.8 0-.7 1.2 0 2.7 1.4 1.5 1.5 2.4 3 2.1 3.4zm4.2-.2c0 .6-1.1-.1-2.5-1.6s-2.5-3-2.5-3.4c0-.4 1.1.3 2.5 1.6s2.5 2.8 2.5 3.4zm-458.5-3.3c.7 1-2.1 4.9-3.5 4.9-.4 0-1-.9-1.3-2-.7-2.8 3.4-5.3 4.8-2.9zm340.6.6c.6 13.3.4 102.3-.2 102.3-1 0-1 1.6-1.2-57.7-.1-25.5.1-46.3.6-46.3.4 0 .7.8.8 1.7zm4.4 47.6c0 32.5.3 49 1 48.7.6-.3 1-17.4 1-48.2 0-26.2.3-47.9.6-48.2.6-.7 1.9 55.8 1.9 85.1 0 15.1-.2 18.3-1.4 18.3-.9 0-1.2-.7-.9-2 .4-1.4 0-2-1.1-2-.9 0-1.6.7-1.6 1.5s-.3 1.5-.7 1.5c-.6 0-.9-102-.4-103.8.1-.1.4-.2.9-.2.4 0 .7 22.2.7 49.3zm99-48.3c.3.5.1 1-.4 1-.6 0-1.1-.5-1.1-1 0-.6.2-1 .4-1 .3 0 .8.4 1.1 1zm-574 .6c1.4.6 1.6 5 1.3 47.3-.1 25.6-.4 52.4-.6 59.4l-.3 12.9-2-2.3c-1.9-2.2-2-3.9-1.8-60.1.1-31.8.5-57.8 1-57.8.4 0 1.5.3 2.4.6zm482.5 14.6c0 8.4.3 32.1.7 52.5.5 28 .3 37.3-.5 37.3-.9 0-1.2-4.3-1.2-14.8 0-8.2-.3-31.8-.7-52.5-.5-28.4-.3-37.7.5-37.7.9 0 1.2 4.3 1.2 15.2zm-359.9-9c-2.8 1.2-4.1.8-4.1-1.2 0-2.5 2-2.7 2.1-.3 0 1.4.2 1.5.6.3 1.4-4.3 1.6-4.5 2.3-2 .4 1.8.2 2.7-.9 3.2zm367.4-4c.3.7.6 24.4.8 52.5.2 28.2.6 51.6 1 51.9.4.4.7-23.1.7-52.1 0-34.2.3-52.6 1-51.9.8.8 1.2 37.6 1 95.1 0 10.6-.4 11.6-4 9.3-1.6-1-1.6.6-1.9-69.3-.1-24.4-.4-35.7-1.2-35.7-.7 0-1 11-.9 35.2.3 56.1.1 69-1 68.3-.6-.3-1-20.3-1-52.5v-52h2.5c1.4 0 2.8.6 3 1.2zm-485.7 48.5c-.1 26.9-.5 54-.9 60.3-.3 6.3-.5-15.6-.5-48.7.1-33.2.5-60.3.9-60.3s.7 21.9.5 48.7zm162.9-39c-.2 2.1-.4.6-.4-3.2 0-3.9.2-5.5.4-3.8.2 1.8.2 5 0 7zm272-4.5c-.2 1.3-.4.5-.4-1.7-.1-2.2.1-3.2.4-2.3.2 1 .2 2.8 0 4zm-264.8 2.5c-.2 7-.6 6.3-1.1-2-.2-2.6 0-4.7.4-4.7.5 0 .7 3 .7 6.7zm324.1 45.8c0 34.3-.3 52.5-1 52.5s-1-18.2-1-52.5.3-52.5 1-52.5 1 18.2 1 52.5zm-485.6-46.4c-.3 7-1.4 7.5-1.4.6 0-3.2.4-5.7.8-5.7.5 0 .8 2.3.6 5.1zm104.6-3.1c0 1.4-.9 2.1-3.5 2.6-1.9.3-3.8 1-4.1 1.5-.8 1.3-2.1 1.1-3.9-.8-1.6-1.6-1.7-1.5-1.3.3.3 1.5 2.1 2.3 9.5 3.9l9.1 1.9.4 6.6c.2 3.6.3 27.1.2 52.3-.2 25.2 0 45.6.4 45.3.4-.2.9-23.5 1-51.8.2-28.2.5-51.4.6-51.5.1-.1 1.1 0 2.2.3 2 .5 2.1 1.3 2.2 19.7.1 10.6-.1 34.4-.5 52.9l-.6 33.8-4.6-.2c-2.5-.1-5.6.2-6.8.7l-2.3.7v-37.3c0-20.5-.2-37-.4-36.8-.3.3-.6 17.4-.8 38.1l-.3 37.6-8 2.5c-4.4 1.5-9.8 2.9-12 3.2-10.8 1.5-33.1 2.1-43.5 1.3-6.3-.6-12.3-1-13.4-.9-1.8 0-1.8-1.8-1.2-60.9.4-40.8.3-61.1-.4-61.5-.7-.4-1.1 13-1.2 40.7 0 22.7-.2 41.7-.3 42.3-.2.5-.3 9.4-.4 19.7 0 10.4-.4 18.8-.8 18.8-.5 0-.7-3.9-.6-8.7.6-27.1.5-112.4 0-113-.4-.3-.7 2.3-.6 5.8 0 3.5-.2 24.4-.5 46.4s-.6 46.5-.6 54.4c0 7.9-.3 14.1-.6 13.8-.4-.4-.6-27.7-.5-60.7.1-38.5-.2-60-.8-60-.6 0-1 19.7-1.1 54.2-.1 61.5-.2 64.3-1.4 65.5-.5.5-.6-13.4-.2-33.2.3-18.7.6-46 .6-60.8v-26.7h11.5l-.1 31.8c0 17.4-.4 44.6-.8 60.3-.6 18.7-.5 28.9.2 29.3.6.4 1.2-20.4 1.7-59.9.4-33.3 1.1-60.5 1.6-60.5s.9 12.9.9 28.6c0 15.8.2 28.9.5 29.2.3.3.5-12.6.5-28.6v-29.1l11.3.5c9.9.6 32.2-.9 48.9-3.2 4-.6 4.7-.4 5.1 1.2.4 1.6.5 1.6.6-.3.1-2.1 1.6-2.8 6.9-3.2 1.6-.1 2.2.5 2.2 1.9zm304.9 1.7c0 2.9-.2 3.3-.8 1.8-.7-1.8-.4-5.5.5-5.5.2 0 .4 1.7.3 3.7zm79.4-.5c1.1 6.5.8 101.8-.3 101.8-.6 0-1-3.2-1-8.3-.1-4.5-.2-28.1-.3-52.4-.1-24.4.1-44.3.4-44.3.4 0 .9 1.5 1.2 3.2zm3.8 15c.4 67.8.4 86-.2 87-.4.6-.9.3-1.2-.8-1-3.6-.7-104.4.3-104.4.6 0 1 7.2 1.1 18.2zm3.9 34.8c0 32.1.4 53 .9 53 .6 0 .9-20.8.8-53-.1-35 .1-52.9.8-52.7.6.2 1.1 6.6 1.3 15.8.1 8.4.7 15.8 1.2 16.3.7.7.9-4.6.7-15.2-.1-10.6.1-16.1.8-15.9.6.2 1.1 18.9 1.2 53.5.2 46.1.1 53.2-1.2 53.2s-1.4-5-1.1-37c.1-20.3-.1-36.7-.6-36.4-.4.3-.8 16.9-.8 37 0 20-.2 36.4-.4 36.4-.3 0-1.6-.4-3-1l-2.5-.9-.1-53.1c0-35.2.3-53 1-53s1 17.8 1 53zm-501-46.8c0 3.6-.3 4.9-1 4.2-1-1-.4-9.4.6-9.4.2 0 .4 2.3.4 5.2zm428-1.9c0 .5-.4.5-1 .2-.5-.3-1-1.4-1-2.3 0-1.5.2-1.5 1-.2.5.8 1 1.9 1 2.3zm224.4-1c.3 1.2.4 28.3.3 60-.2 50.1-.4 57.9-1.7 58.7-.8.5-1.9 1-2.3 1-.4 0-.7-26.7-.6-59.3.1-32.7-.1-59.9-.5-60.5-.4-.7-.2-1.2.3-1.2.7 0 1.2 2.6 1.3 6.2.1 3.5.2 7 .4 7.8.1.8.3 7.1.4 14 .2 9.3.4 11.6 1.1 9 .8-3.3.4-24.1-.6-33.8-.5-4.4.9-5.8 1.9-1.9zm-640.2 44.9c-.1 25.5-.7 52.8-1.2 60.8-.7 11.5-.8 7.6-.4-19.5.2-18.7.4-46 .4-60.8 0-14.7.3-26.7.8-26.7.4 0 .6 20.8.4 46.2zm3.8-8.5c0 39.2-1 84.7-1.8 83.8-.2-.2-.3-16.7-.1-36.7.1-20 .3-47.2.3-60.5.1-13.4.4-24.3.9-24.3.4 0 .7 17 .7 37.7zm146.7-34.5c-.3.7-.5.2-.5-1.2s.2-1.9.5-1.3c.2.7.2 1.9 0 2.5zm284.3 24.5c0 15.3.1 28.5.2 29.3.4 6-.4 37-.9 37s-.7-20.4-.6-45.3c.2-52.3.2-48.7.7-48.7.3 0 .5 12.5.6 27.7zm67.8-27.1 2.2.6v53.4c-.1 45.3-.3 53.4-1.5 53.4s-1.4-8-1.4-53.1c.1-29.2-.2-53.3-.5-53.6-.6-.6-1.1 60.3-.7 89.4.2 13.9 0 16.3-1.3 16.3s-1.5-6.6-1.5-53.5c0-40.9.3-53.5 1.2-53.5.7 0 2.2.3 3.5.6zm-111.1 2.6c-.3.8-.6.5-.6-.6-.1-1.1.2-1.7.5-1.3.3.3.4 1.2.1 1.9zm117.3 51.3c0 29.4.3 53.5.8 53.5.4 0 .7-24.1.7-53.5v-53.5l3.5.6c1.9.4 3.6.7 3.7.9.2.1.3 24.1.3 53.3 0 35 .4 53.2 1.1 53.2.6 0 .9-18.1.8-53.3l-.2-53.2 3.4.3c1.9.1 4.6.5 6.2.8l2.7.6v54c0 29.8.2 53.9.5 53.6.3-.3.6-24.6.6-54.2l.1-53.6h7.8l.2 7.7c0 4.3 0 8.8-.1 9.9-.1 1.2.3 3.2.9 4.5.7 1.8.9-.8.7-9.5l-.2-11.8 9.5.6c5.2.4 14.9 1.2 21.5 1.7 12 1.1 24.2.6 43.1-1.7l5.1-.6-.4 58.3c-.2 32.1-.1 58 .2 57.7.4-.4.9-26.2 1.2-57.5.2-31.2.7-57.5 1.1-58.3 1.2-2.9 1.7 18.7 1.2 57.5-.3 21.4-.2 43.7.1 49.5.8 14.8.9 7.7 1.2-55.2.1-34.8.5-53.3 1.2-52.7.6.6.9 22.6.7 59.5-.1 39 .1 58.3.8 57.9.7-.4.9-21.1.8-60.1-.2-32.7 0-59.4.5-59.4.7 0 .8 6.9 1.1 80.7l.1 40.1-4.3.7c-3.8.6-5.4.1-13-3.7-8-4-9.3-4.3-16.9-4.4-5.3 0-10.2.6-14 1.7-8.2 2.6-17.4 2.3-35.3-1-8.5-1.7-16.3-3.1-17.3-3.3-1.8-.3-1.8-2.8-1.7-54.1 0-29.5-.3-53.7-.7-53.7-.5 0-.8 23.8-.9 53 0 29.1-.3 53.2-.5 53.5-.5.4-15.8-2-19.7-3.1-1.9-.6-1.5-107.4.5-107.4 1.1 0 1.3 9.9 1.3 53.5zm111.3-51.8c-.7.2-1.9.2-2.5 0-.7-.3-.2-.5 1.2-.5s1.9.2 1.3.5zm14 3c.8 5.9.3 116.3-.5 116.3-.5 0-.8-26.3-.8-58.4 0-32.1-.3-59.1-.6-60-.3-.9-.2-1.6.4-1.6.5 0 1.2 1.7 1.5 3.7zm-24-2c-.7.2-2.1.2-3 0-1-.3-.4-.5 1.2-.5 1.7 0 2.4.2 1.8.5zm-614.1 11.3-1 5.5-.1-7.6c0-4.2.2-7.9.7-8.3 1.1-1.2 1.4 4.4.4 10.4zm423.6 35.5c0 22.5-.1 40.5-.4 40-.2-.6-.5-20.3-.6-44-.2-23.6 0-41.6.3-40 .4 1.7.7 21.4.7 44zm19-1.5c-.3 24.7-.8 45.3-1.2 45.7-.7.8-.6-88.5.1-90 .2-.4.7-.7 1-.7.3 0 .3 20.2.1 45zm-22.2 1.7c.3 26.4.1 40.3-.5 40.3-.7 0-1-13.5-1.1-37.8 0-20.7-.3-40.2-.5-43.2-.4-4.7-.3-5.1.5-2.5.7 1.8 1.3 19.3 1.6 43.2zm-265.9-42.5c-.3.8-.6.5-.6-.6-.1-1.1.2-1.7.5-1.3.3.3.4 1.2.1 1.9zm215.3 7c0 9.1-.8 10-1.5 1.7-.4-5 .2-9.9 1.1-9.9.2 0 .4 3.7.4 8.2zm25.7-3.5c-.3 1-.5.4-.5-1.2 0-1.7.2-2.4.5-1.8.2.7.2 2.1 0 3zm6 5c-.2 1.6-.4.3-.4-2.7s.2-4.3.4-2.8c.2 1.6.2 4 0 5.5zm4-4.5c-.3.7-.5.2-.5-1.2s.2-1.9.5-1.3c.2.7.2 1.9 0 2.5zm-413.8 4-.1 5.3-.9-4.4c-.8-4-.5-6.1.7-6.1.2 0 .4 2.4.3 5.2zm419.8-2c-.3.7-.5.2-.5-1.2s.2-1.9.5-1.3c.2.7.2 1.9 0 2.5zm-295.2 49.9c-.4 36-.3 51.9.5 51.4.7-.4 1-17.5 1-52.2 0-28.4.2-51.4.4-51.2 1 1.1 1.6 40.4 1 71.2-.7 33.3-.8 34.8-2.6 34.5-2.2-.4-2.1 2.9-1.9-63.1.1-28.2.4-42.7 1.1-42.7.7 0 .8 17.1.5 52.1zm5.6-48.4c-.9 1.6-1 1.4-1.1-1.2 0-2.1.3-2.6 1.1-1.8s.8 1.6 0 3zm23.3 39.6c0 8.1.3 14.4.8 13.9.4-.4.9-7.7 1.1-16.2l.3-15.5.2 17.6c.2 14.2-.1 17.9-1.2 18.8-1.1.9-1.4 4.3-1.5 14.1 0 7.4.4 13.2.9 13.5.6.3 1 1.2 1 1.8 0 .7-.4.6-1-.3-.7-1.1-1-.4-1 2.5 0 2.3.6 4.7 1.2 5.3 1 1 1 1.5-.1 2.1-1.1.7-1.3 3.6-.7 15.8.4 10.1.3 14.3-.4 13.1-.8-1.3-1.6-125.4-.8-129.3.4-2.1 1.3 28.7 1.2 42.8zm-19.4-22.5c0 10.9-.3 34.8-.7 53-.6 31.4-.7 33.2-2.5 33.2-1.7 0-1.8-2-1.7-50.8 0-33.7.4-49.9 1-48.2.6 1.5.8 20.4.4 50.2-.4 32.5-.2 47.8.5 47.8 1 0 1.4-22.8 1.5-82.8 0-12.2.3-22.2.8-22.2.4 0 .7 8.9.7 19.8zm92.4-17.9c1.4 1.5 1.5 2.4.7 3.9-2.2 4.1-8.8 3.4-10.8-1.2-.9-1.8-.6-2.2 2.1-3.2 4.6-1.7 6.1-1.6 8 .5zm154.3 4.3c-.2 1.3-.4.3-.4-2.2s.2-3.5.4-2.3c.2 1.3.2 3.3 0 4.5zm-243.8 47.8c-.3 30.8-.8 53-1.3 53s-.6-15.8-.3-38.8c.4-21.3.7-45.1.7-53 0-7.8.3-14.2.6-14.2s.5 23.8.3 53zm207.8-50.8c-.3.8-.6.5-.6-.6-.1-1.1.2-1.7.5-1.3.3.3.4 1.2.1 1.9zm-200.5 2.5c-.5 5.9-1 6.3-1.1 1-.1-2.6.3-4.7.7-4.7.4 0 .6 1.7.4 3.7zm269.5-.5c-.3.7-.5.2-.5-1.2s.2-1.9.5-1.3c.2.7.2 1.9 0 2.5zm-246.1-1.3c-.3.4-.6 21-.6 45.6-.1 24.7-.5 44.3-.9 43.7-.4-.7-.6-8.7-.5-18 .2-9.2.3-29.2.4-44.5 0-18.8.3-27.7 1.1-27.7.5 0 .8.4.5.9zm3.3 54.3c-.2 30.4-.6 54.1-1 52.6-1.1-4.1-.8-107.8.3-107.8.6 0 .8 21.3.7 55.2zm44.4-51.7c2.3 2.9 3.4 3.5 6.5 3.5 2.1 0 4.3-.5 5-1.2.7-.7 1.2-1 1.2-.8 0 .3.3 5.9.6 12.5s.3 31-.1 54.2l-.7 42.1-2.4.6c-1.4.4-3.3 2.3-4.6 4.9l-2.3 4.2-.6-15.5-.6-15.5.1 16.7c.1 12.6-.2 16.9-1.1 17.3-.9.3-1.3-.9-1.4-4.3-.1-4.5-.1-4.6-.9-1.4-.4 1.8-.5 4.3-.2 5.4.3 1.1-.1 2.4-.9 2.9-1.1.7-1.5-.1-2-3.4l-.6-4.2-.1 4.1c-.2 5.2-.7 5.4-14.4 6.1l-10.8.6-.2-12.4-.2-12.4-.3 12.2c-.2 7.1-.8 12.3-1.3 12.3-1 0-1.5-17-1.5-53.7 0-11-.4-20.5-.8-21-.5-.4-.7 16.2-.5 37 .3 37.3.3 37.8-1.7 37.5-2-.3-2-1.1-2-65.2v-65l11.5.2c6.3.1 13.5-.3 16-.7 7.6-1.4 8.4-1.3 11.3 2.4zm-40.7 43.5c-.3 6.3-.7 27.9-.8 48l-.3 36.5-.5-32c-.3-17.6-.3-47.1-.1-65.5l.4-33.5.9 17.5c.5 9.6.6 22.7.4 29zm191.1-43.8c-.3.8-.6.5-.6-.6-.1-1.1.2-1.7.5-1.3.3.3.4 1.2.1 1.9zm55.3 34.5c0 19.6-.3 35.3-.7 34.9-1-.9-1.1-71.6-.1-71 .4.2.7 16.5.8 36.1zm-47.3-2c-.1 6.5-.3 1.4-.3-11.2 0-12.7.2-18 .3-11.8.2 6.2.2 16.5 0 23zm26-30c-.3 1-.5.4-.5-1.2 0-1.7.2-2.4.5-1.8.2.7.2 2.1 0 3zm-240.9 44.5c0 26-.4 42.1-.7 35.7-.3-6.4-.6-15.4-.5-20 0-4.6.1-20.7.2-35.7.1-14.9.4-27.2.7-27.2.3 0 .4 21.3.3 47.2zm-237.1-44c-.3.8-.6.5-.6-.6-.1-1.1.2-1.7.5-1.3.3.3.4 1.2.1 1.9zm424 4c-.2 1.3-.4.3-.4-2.2s.2-3.5.4-2.3c.2 1.3.2 3.3 0 4.5zm65.3-3.3c0 4.4 1.8 4.7 2.3.4.2-2.1.4-.3.5 3.9.1 4.3 0 7.8-.2 7.8-.4 0-4.6-13.2-4.6-14.4 0-.3.5-.6 1-.6.6 0 1 1.3 1 2.9zm-248.3 4.8c-.2 1.6-.4.5-.4-2.2 0-2.8.2-4 .4-2.8.2 1.3.2 3.5 0 5zm234 1c-.2 1.6-.4.3-.4-2.7s.2-4.3.4-2.8c.2 1.6.2 4 0 5.5zm-387.7.9c0 3.6-.4 6.3-.9 6-1.1-.7-1.1-12.6.1-12.6.4 0 .8 3 .8 6.6zm393.7-4.4c-.3.8-.6.5-.6-.6-.1-1.1.2-1.7.5-1.3.3.3.4 1.2.1 1.9zm-79.9 22.8c0 11.8-.2 20.4-.4 19-.7-5.8-.9-42.8-.2-41.7.4.7.7 10.9.6 22.7zm37.2-21.8c0 1.9-.2 2-1 .8-1.3-1.9-1.3-3 0-3 .6 0 1 1 1 2.2zm17 45.9c-.7 1.8-.9-.1-.5-7.1.2-5.2.5-16.7.7-25.5.2-13.9.3-13 .5 7.1.2 14.1-.1 24.1-.7 25.5zm22.9-34.1c-.5.9-.8-1.6-.7-6.5l.1-8 .7 6.5c.4 3.6.4 7.2-.1 8zm17.2-.3c-.5 5.5-.8 6.3-1.4 4-.4-1.5-.5-3.2-.1-3.8.3-.5.6-4 .6-7.7.1-5.5.2-6 .8-3 .4 2 .4 6.8.1 10.5zm-277.4-9.5c-.3.7-.5.2-.5-1.2s.2-1.9.5-1.3c.2.7.2 1.9 0 2.5zm226 8c-.2 2.4-.4.7-.4-3.7s.2-6.3.4-4.3c.2 2.1.2 5.7 0 8zm15-6.5c-.3 1-.5.2-.5-1.7s.2-2.7.5-1.8c.2 1 .2 2.6 0 3.5zm-454-.5c-.3.7-.5.2-.5-1.2s.2-1.9.5-1.3c.2.7.2 1.9 0 2.5zm73.3-1.6c0 .8-.5 1.2-1 .9-.6-.4-.8-1.1-.5-1.6.9-1.4 1.5-1.1 1.5.7zm4.9 10.6c-.1 7.4-.4 10.7-.8 8.3-.6-4.2-.3-20.5.5-20.5.2 0 .3 5.5.3 12.2zm-83.2-8c-.3.7-.5.2-.5-1.2s.2-1.9.5-1.3c.2.7.2 1.9 0 2.5zm222 0c-.3.7-.5.2-.5-1.2s.2-1.9.5-1.3c.2.7.2 1.9 0 2.5zm12 .5c-.3 1-.5.4-.5-1.2 0-1.7.2-2.4.5-1.8.2.7.2 2.1 0 3zm248.4-1.4c-.1 1.2-1.5.9-1.9-.4-.3-.6.1-1 .8-.8.6.3 1.1.8 1.1 1.2zm-44.4 2.9c-.3.7-.5.2-.5-1.2s.2-1.9.5-1.3c.2.7.2 1.9 0 2.5zm49.7 1.4c.4 1.5.5 2.9.1 3.2-.3.3-.5-.2-.5-1.1 0-1-.4-1.7-1-1.7-.5 0-1 .7-1 1.5s-.4 1.5-1 1.5c-1.2 0-1.2-.2 0-3.4 1.2-3.3 2.6-3.3 3.4 0zm-409.9 3.4c-.1 2.7-.4 5.2-.8 5.6-.4.4-.7-1.8-.7-4.9 0-3.2.3-5.7.8-5.7.4 0 .7 2.2.7 5zm346.5 16c0 20.3-.1 21-2 21s-2-.7-2.1-11.8c-.1-6.4-.2-15.2-.4-19.4-.1-4.2.2-8.3.7-9 .7-1 .9-1 .7.2-.6 6.1.3 39 1.1 39 .6 0 1-7.5 1-20.5 0-11.3.2-20.5.5-20.5s.5 9.4.5 21zm50.7-18.8c-.3.8-.6.5-.6-.6-.1-1.1.2-1.7.5-1.3.3.3.4 1.2.1 1.9zm-257 2.5c-.3 1-.5.4-.5-1.2 0-1.7.2-2.4.5-1.8.2.7.2 2.1 0 3zm4 40c-.1 8.2-.3 1.5-.3-14.7s.2-22.9.3-14.8c.2 8.2.2 21.4 0 29.5zm-217-40.5c-.3.8-.6.5-.6-.6-.1-1.1.2-1.7.5-1.3.3.3.4 1.2.1 1.9zm433.3 1.9c0 1.1-.4 1.7-1 1.4-.5-.3-1-1.5-1-2.6s.5-1.7 1-1.4c.6.3 1 1.5 1 2.6zm20.7 3.1c-.2 1.3-.4.3-.4-2.2s.2-3.5.4-2.3c.2 1.3.2 3.3 0 4.5zm-459-3c-.3.8-.6.5-.6-.6-.1-1.1.2-1.7.5-1.3.3.3.4 1.2.1 1.9zm464.1 18.2c0 10-.3 19.9-.8 22.1-.5 2.5-.8-4.9-.8-19.3 0-12.9.4-22.8.8-22.1.5.7.8 9.4.8 19.3zm10.6-18c-.3.8-.1 1.7.4 2 1 .6.4 14.3-.8 16.4-.4.8-.6-3.3-.4-9 .3-11.4.2-10.8.9-10.8.2 0 .2.6-.1 1.4zm-469.7 1.8c-.3.8-.6.5-.6-.6-.1-1.1.2-1.7.5-1.3.3.3.4 1.2.1 1.9zm236 30.9c-.3 18.1-.8 33.3-1.2 33.7-.3.4-.4-10.8-.1-24.8.3-14 .5-29.2.5-33.8.1-4.5.4-8.2.7-8.2.3 0 .4 14.9.1 33.1zm-154.2-1.4c-.4 17-.9 31-1.1 31.2-.2.2-.4-11.2-.4-25.5 0-24 .6-36.4 1.7-36.4.3 0 .2 13.8-.2 30.7zm403.3-28.8c.3.9 0 1.1-.7.6-.9-.5-1.1 4.8-.9 22.4.2 12.7 0 23.1-.4 23.1-.5 0-.8-10.6-.8-23.5v-23.6l-2.7.4c-2.2.3-2.9 1-3.3 3.2-.3 1.6-.9 2.7-1.5 2.4-.6-.2-1.1 6.5-1.3 19-.1 10.7-.4 19.7-.7 19.9-.3.3-.5-8.8-.5-20.1 0-11.4.4-20.7.8-20.7.5 0 1.5-1.1 2.2-2.5 1.2-2.2 2-2.6 5.4-2.3 2.3.2 4.1.9 4.4 1.7zm-425.8 24.6c-.1 16-.4 25.3-1 25-.6-.4-1-4.8-1-9.8 0-11.6 1.2-40.7 1.7-40.7.2 0 .3 11.5.3 25.5zm370.6-18.9c.1 2.9-.2 5.4-.7 5.4-.5 0-.9-2.8-.9-6.2 0-7.5 1.4-6.9 1.6.8zm-434.8 16.6c-.1 13.3-.4 19.4-.7 15-.6-7.6-.3-37.2.5-37.2.2 0 .3 10 .2 22.2zm467.7-5.6c.2 8.7.1 18.1-.4 20.9-.5 3.5-.8-1.5-1-16.4 0-11.8.1-21.2.4-20.9.3.2.7 7.6 1 16.4zm-26.8 11.6c-.1 5.1-.3 1-.3-9.2s.2-14.3.3-9.3c.2 5.1.2 13.5 0 18.5zm3-24c-.3.7-.5.2-.5-1.2s.2-1.9.5-1.3c.2.7.2 1.9 0 2.5zm-7 22c-.1 4.6-.3.9-.3-8.2s.2-12.8.3-8.3c.2 4.6.2 12 0 16.5zm48.2-2c-.1 17.5-.3 21-1.1 16.3-.5-3.3-.7-12.1-.4-19.5.3-7.4.5-14.7.6-16.3 0-1.5.2-2.7.5-2.7s.4 10 .4 22.2zm7 1.3c0 14.3-.4 20-1 18-1.2-4-1.1-42.4.1-40.5.6.8.9 10.9.9 22.5zm-486.9 3.5-.6 23.5-.2-25c-.1-13.8.2-24.3.6-23.5.4.8.5 12.1.2 25zm213.2-19.3-1 4.8-.1-6c-.1-4.3.2-5.6 1-4.8.8.8.9 2.5.1 6zm240.5 20.5c-.1 5.1-.3 1-.3-9.2s.2-14.3.3-9.3c.2 5.1.2 13.5 0 18.5zm-382 14c-.1 7.3-.3 1.4-.3-13.2s.2-20.5.3-13.3c.2 7.3.2 19.3 0 26.5zm418.8-17.7c0 11.7-.3 21.1-.8 20.6-1.1-1.1-1.4-42.1-.2-42.1.6 0 1 7.8 1 21.5zm-13.5.2c0 12-.3 18.3-1 18.3-.6 0-1-6.8-1-19.8 0-12.2.4-19.2.9-18.3.5.8 1 9.7 1.1 19.8zm-399.8 12c-.2 15.3-.5 27.9-.7 28.2-.3.2-.5-12.5-.5-28.4 0-15.9.3-28.5.7-28.1.4.3.6 13.1.5 28.3zm135.5-19c-.3 1-.5.2-.5-1.7s.2-2.7.5-1.8c.2 1 .2 2.6 0 3.5zm216.4 4.8-.8 8-.2-9c0-5.4.3-8.5.8-8 .5.6.6 4.3.2 9zm9.8 1.5-.5 9.5-.2-8.2c-.2-6.6.5-12.5 1.2-11.1.1.2-.1 4.6-.5 9.8zm31.1 5.5c0 6.9-.3 12.5-.7 12.5-.9 0-1.6-22.7-.8-24.1 1.3-2 1.5-.4 1.5 11.6zm-257.3 19.2c-.1 5.4-.3 1.2-.3-9.2 0-10.5.2-14.9.3-9.8.2 5.1.2 13.6 0 19zm233.3-22.2-.7 5-.2-4.6c0-2.5.2-4.9.6-5.2 1-1.1 1.1-.5.3 4.8zm-45 11c.2-1.1.3-2.7.4-3.7.1-.9.5-2 1-2.5.5-.4.6.8.3 3-.5 3.1-.3 3.8.8 3.3 1.2-.4 1.5.4 1.5 3.4s-.4 4-2.1 4.5c-3.7 1.2-4.6-1.2-3.9-10.5l.3-4.5.7 4.5c.4 2.5.8 3.6 1 2.5zm-9.3-2.3c-.3.7-.5.2-.5-1.2s.2-1.9.5-1.3c.2.7.2 1.9 0 2.5zm5 6c-.2 1.8-.4.4-.4-3.2s.2-5 .4-3.3c.2 1.8.2 4.8 0 6.5zm14.2-1c0 1.6-.3 2.8-.9 2.8-.6 0-.9-2.5-.9-5.8.1-4.7.3-5.2.9-2.7.4 1.6.8 4.2.9 5.7zm-182.2-3c-.3.8-.6.5-.6-.6-.1-1.1.2-1.7.5-1.3.3.3.4 1.2.1 1.9zm221.9.5c-1 1-1.9-.5-1-1.8.6-1.1.8-1.1 1.2 0 .2.7.1 1.5-.2 1.8zm-60.7 2c0 3.3-.1 3.5-.9 1.5s-.4-5.2.6-5.2c.2 0 .4 1.7.3 3.7zm17 .7c-.9.8-1 .7-.5-.7.3-1 .7-2.4.7-3 .1-.7.3-.4.6.7.3 1-.1 2.3-.8 3zm-178.2 2.8c-.3.8-.6.5-.6-.6-.1-1.1.2-1.7.5-1.3.3.3.4 1.2.1 1.9zm-234 4c-.3.8-.6.5-.6-.6-.1-1.1.2-1.7.5-1.3.3.3.4 1.2.1 1.9zm497.3 2.8c0 .5-.2 1-.4 1-.3 0-.8-.5-1.1-1-.3-.6-.1-1 .4-1 .6 0 1.1.4 1.1 1zm4 0c0 .5-.2 1-.4 1-.3 0-.8-.5-1.1-1-.3-.6-.1-1 .4-1 .6 0 1.1.4 1.1 1zm-13 12.7c0 6.9-.2 12.4-.5 12.2-.2-.3-.7-6-1.1-12.7-.5-8.8-.4-12.2.5-12.2.8 0 1.1 3.9 1.1 12.7zm19.7-9.5c-.3.7-.5.2-.5-1.2s.2-1.9.5-1.3c.2.7.2 1.9 0 2.5zm-17.2 10.6c.3 6.7.2 12.2-.3 12.2-.4 0-.9-5.7-1.1-12.7-.1-7 0-12.5.3-12.3.3.3.8 6.1 1.1 12.8zm21.5-11.4c0 .8-.4 1.8-1 2.1-.5.3-1-.3-1-1.4 0-1.2.5-2.1 1-2.1.6 0 1 .6 1 1.4zm2.6 2.3c-1.1 1.1-1.9-.6-1.1-2.4.8-1.7.8-1.7 1.2 0 .3 1 .2 2.1-.1 2.4zm3.1.5c-.3.7-.5.2-.5-1.2s.2-1.9.5-1.3c.2.7.2 1.9 0 2.5zm-23.7 11c0 7.2-.2 12.9-.5 12.6-.7-.6-1.5-24-.9-25 1.2-1.9 1.4 0 1.4 12.4zm28-11.1c0 1.1-.4 1.7-1 1.4-.5-.3-1-1.3-1-2.1s.5-1.4 1-1.4c.6 0 1 .9 1 2.1zm2.6 1.6c-1.1 1.1-1.9-.6-1.1-2.4.8-1.7.8-1.7 1.2 0 .3 1 .2 2.1-.1 2.4zm-27.3 11.2c.1 7.3 0 12.5-.4 11.4-.8-2-1.2-25.9-.4-25.2.2.3.6 6.5.8 13.8zm34.5-10.9c.3 2.4.2 2.5-1.3.5-1.4-1.7-1.7-1.8-2.5-.5-.5.8-1 1.2-1 .8 0-.3-.3-1.4-.6-2.3-.6-1.3-.1-1.6 2.2-1.3 2.2.2 3 .9 3.2 2.8zm-493.8-1c-3.6 1.2-7 1.2-7 0 0-.6 2.1-1 4.8-.9 3.8.1 4.2.2 2.2.9zm9 .2c0 .7-.5 2-1 2.8-.8 1.3-1.2 1.2-2.9-.7l-2.1-2.2 2.3-.4c1.2-.2 2.5-.5 3-.6.4 0 .7.5.7 1.1zm487.6 1.5c-1 1-1.9-.5-1-1.8.6-1.1.8-1.1 1.2 0 .2.7.1 1.5-.2 1.8zm-33.9 14c-.2 3.2-.3.8-.3-5.2 0-6.1.1-8.7.3-5.8.2 2.9.2 7.8 0 11zm4-13.5c-.3.8-.6.5-.6-.6-.1-1.1.2-1.7.5-1.3.3.3.4 1.2.1 1.9zm41.6-.6c9.1 1 9.7 2.2 1.2 2.2-9.5 0-11.5-.4-11.5-2.5 0-1.1.6-1.4 2.6-.9 1.5.4 4.9.9 7.7 1.2zm-37.8 26.2c-.2.2-1.3-.1-2.4-.8-1.9-1-2.1-1.8-1.9-11.3l.2-10.2.3 10.2c.5 14.8 2.3 12.9 2.5-2.5l.1-12.7.7 13.5c.4 7.4.6 13.6.5 13.8zm3.3-7.3c-.1 8-.2 8.4-.8 4-.5-2.8-.8-9.1-.8-14 .1-8 .2-8.4.8-4 .5 2.7.8 9 .8 14zm-476.1-16.9c-.3.3-1.2.4-1.9.1-.8-.3-.5-.6.6-.6 1.1-.1 1.7.2 1.3.5zm479.5 12.1c.3 12.4.2 14.1-.6 13.2-.8-.9-1.4-25.9-.6-25.9.5 0 1 5.7 1.2 12.7zm-488.1-3.7c.5 0 1-.8 1-1.8.1-1.6.2-1.6.6 0 .2 1 .5 1.8.6 1.8.1 0 1.7-.4 3.5-.9 3.1-.9 3.2-.9 3.2 2.4 0 2.7-.5 3.5-3.4 4.9-3.7 1.7-8.9 2-12.1.6-1.7-.7-1.7-.9-.2-.9 1.3-.1 1.7-1 1.7-3.6 0-5 1.8-4.4 2.3.7.2 2.9.5 1.7.7-3.7.2-5.4.5-6.6.7-3.8.2 2.4.8 4.3 1.4 4.3zm58.6-4.3c-.3 1-.5.4-.5-1.2 0-1.7.2-2.4.5-1.8.2.7.2 2.1 0 3zm432.5 9c.3 12.4.2 14.1-.6 13.2-.7-.8-1.3-25.9-.5-25.9.4 0 .9 5.7 1.1 12.7zm3.3.9c0 6.8-.3 12.4-.7 12.4-.5 0-.8-5.9-.8-13.2 0-7.2.3-12.8.8-12.4.4.4.7 6.4.7 13.2zm3.5.1c0 6.9.3 12.4.6 12.1.3-.3.5-5.8.6-12.2 0-6.4.4-11.6.9-11.6s.9 5.4.9 12c0 7.3.4 12 1 12s1-4.7 1-12.2c0-6.7.3-11.9.6-11.5.4.3.6 4.3.5 8.9 0 4.6.3 9.9.8 11.8.7 2.6.9.4 1-8.8.1-11.4.2-12.2 2-12.2 1.1 0 2.3.4 2.6 1 .3.5.8 6.1 1 12.4.5 13.3.6 13.1-9.2 12l-6.3-.6.1-12.9c0-7.1.5-12.9 1-12.9s.9 5.7.9 12.7zm54.9-9.6 14.7 3.2-.1 6.3c-.1 3.5-.4 6.7-.8 7-.4.4-.7-2.3-.7-5.9 0-4.3-.4-6.7-1.1-6.7-.8 0-1 2.1-.7 6.5.2 3.6 0 6.5-.4 6.5s-.8-3.2-.8-7c0-4.3-.4-7-1.1-7-.6 0-1 2.4-.9 6.2.2 8.7.3 8.4-2.7 9.7-2.7 1-17.5 4.1-20 4.1-.7 0-.9-1.3-.6-3.9.5-3.6.3-4.1-2.5-5.5-3.9-2-10.6-2.1-12.2-.1-.7.8-1.7 1.5-2.2 1.5-.5 0-2.2 1.4-3.7 3-1.5 1.7-3 2.7-3.4 2.4-.4-.4-.7-5.5-.7-11.4v-10.7l10.2-.2c5.6-.1 10.4-.4 10.7-.6.9-1 4.7-.4 19 2.6zm-340.2 2.1c-.3.7-.5.2-.5-1.2s.2-1.9.5-1.3c.2.7.2 1.9 0 2.5zm-222 4.5c-.3 1-.5.4-.5-1.2 0-1.7.2-2.4.5-1.8.2.7.2 2.1 0 3zm200-1.5c-.3.8-.6.5-.6-.6-.1-1.1.2-1.7.5-1.3.3.3.4 1.2.1 1.9zm384.7-.6c1 .4 1.6 1.8 1.6 4 0 3.8-1.6 4.6-2.3 1.1-.3-1.6-.4-1.4-.3.6.1 2.4-1.6 4.6-3.6 4.7-.3 0-.8-2.5-1-5.5-.3-5.1-.1-5.5 1.9-5.5 1.2 0 2.8.3 3.7.6zm-362.7 4.1c-.3 1-.5.4-.5-1.2 0-1.7.2-2.4.5-1.8.2.7.2 2.1 0 3zm-220-.5c-.3.8-.6.5-.6-.6-.1-1.1.2-1.7.5-1.3.3.3.4 1.2.1 1.9zm62 1c-.3.7-.5.2-.5-1.2s.2-1.9.5-1.3c.2.7.2 1.9 0 2.5zm4-1c-.3.8-.6.5-.6-.6-.1-1.1.2-1.7.5-1.3.3.3.4 1.2.1 1.9zm-17.7.9c0 .4-.7.6-1.5.3-.8-.4-1.5-1-1.5-1.5 0-.4.7-.6 1.5-.3.8.4 1.5 1 1.5 1.5zm149.7 3.1c-.3.7-.5.2-.5-1.2s.2-1.9.5-1.3c.2.7.2 1.9 0 2.5zm19 6c-.2 1.8-.4.4-.4-3.2s.2-5 .4-3.3c.2 1.8.2 4.8 0 6.5zm8-5.5c-.3 1-.5.4-.5-1.2 0-1.7.2-2.4.5-1.8.2.7.2 2.1 0 3zm-178.8 2.2c0 1.2-.3 1-.9-.4-.6-1.3-.9 2.1-.9 9.4-.1 6.3-.3 11.2-.5 11-.4-.4-1-22.2-.7-24.4.2-1.6 3.1 2.7 3 4.4zm3.1 11.1c0 7.1-.3 13-.7 13-.5 0-.7-5.8-.5-13 .2-7.1.5-13 .8-13 .2 0 .4 5.8.4 13zm131.7-11.6c.7.5.9 19.7.2 20.2-.5.3-.9-3.8-.9-9 0-8.5-.2-9.6-2-10.6-1.9-1-2-.8-2 9.9 0 6.9-.4 11.2-1.1 11.7-.8.4-.9-1.1-.5-5.2.3-3.3.5-8.7.6-12.2v-6.2l2.8.6c1.5.4 2.8.7 2.9.8zm358.7.1c.8.8 1.8 1.5 2.3 1.5 1.4 0 .9 16.8-.5 18.2-.9.9-1.2-.7-1.2-8v-9.1l-3-1.6c-1.6-.9-3-1.8-3-2 0-1.1 4-.4 5.4 1zm-370.4 14v14.5l-3.4 1.4c-1.9.8-4.7 1.6-6.3 1.7-1.5.2-3.3.7-3.9 1.1-.7.5-2.5.8-4 .7-1.6 0-5.6.4-8.9.9-6.1 1.1-17.4 1.6-29.7 1.3l-6.8-.1v-12h-6v-13.1l5.3.3c13.4.6 41.5-2.3 48.9-5.1 2.6-1 2.8-.8 3.7 2.2.5 1.8 1 2.6 1 1.9.1-.6.8-1.2 1.6-1.2s1.5-.5 1.5-1.1c0-.6-.7-.9-1.5-.5-1 .3-1.5-.1-1.5-1.3 0-1 .8-2.1 1.8-2.4.9-.2 2.5-.8 3.5-1.2 1.6-.7 1.7.3 1.7 12.9 0 9.2.4 13.6 1.1 13.6.8 0 1-4.5.7-14.5-.1-8 0-14.5.5-14.5.4 0 .7 6.5.7 14.5zm3.5-4.8c.1 4.9-.1 11-.5 13.8-.5 3.5-.8.8-.9-9.4 0-7.9.2-14.1.6-13.8.3.4.7 4.6.8 9.4zm-115.5-6.2c0 .8-.4 1.5-1 1.5-.5 0-.7-.7-.4-1.5.4-.8.8-1.5 1-1.5.2 0 .4.7.4 1.5zm121.9 12.8c0 4.2-.5 7.5-.9 7.2-.5-.3-.9-5.4-.8-11.3.1-7.6.4-9.7.9-7.2.5 1.9.8 7 .8 11.3zm355.7-7.2c.1 3.2-.3 5.9-.7 5.9-.5 0-.9-3-.9-6.7 0-8.1 1.5-7.5 1.6.8zm-309.9 9.6c-.2 3.2-.3.8-.3-5.2 0-6.1.1-8.7.3-5.8.2 2.9.2 7.8 0 11zm312 .9c-.2.2-1.7.2-3.3-.2-2.5-.5-2.9-1-2.9-4 0-1.9.3-3.4.8-3.4.4 0 .7.9.7 2.1 0 2.2 2.4 5.2 3.4 4.2.3-.4.7-4 .8-8.2l.2-7.6.3 8.4c.2 4.6.2 8.5 0 8.7zm-323-4.9c-.2 2.1-.4.4-.4-3.7 0-4.1.2-5.8.4-3.8.2 2.1.2 5.5 0 7.5zm-168-.5c-.2 1.8-.4.4-.4-3.2s.2-5 .4-3.3c.2 1.8.2 4.8 0 6.5zm621.3-7.6c0 .2-1.1.4-2.5.4s-2.5-.4-2.5-.9c0-.4 1.1-.6 2.5-.3 1.4.2 2.5.6 2.5.8zm10.6-.3c.4.4-1.1.7-3.4.7s-4.2-.3-4.2-.8c0-.9 6.6-.9 7.6.1zm-611.6.1c0 .3-.4.8-1 1.1-.5.3-1 .1-1-.4 0-.6.5-1.1 1-1.1.6 0 1 .2 1 .4zm2.7 18.3c-.2 3.7-.3.9-.3-6.2 0-7.2.1-10.2.3-6.8.2 3.4.2 9.3 0 13zm4.1-5.8c0 6.6-.5 12.5-.9 13.3-.5.7-.9-2.9-.9-8.8 0-9.2.7-16.4 1.6-16.4.2 0 .3 5.4.2 11.9zm3.2 1.1c0 7.1-.4 13-.9 13s-.9-5.9-.9-13c0-7.4.3-13 .9-13 .5 0 .9 5.6.9 13zm2.5 13.8c-1.4 1.5-1.7-1.8-.9-13.5l.9-12.8.3 12.9c.1 7.1 0 13.1-.3 13.4zm9.8-14.8c-.2 17.9.2 16.2-4 15.8-4.3-.3-3.9 1.6-3.5-17.1l.2-9.4 3.8.6 3.7.6-.2 9.5zm140.4-7.8c-.3.7-.5.2-.5-1.2s.2-1.9.5-1.3c.2.7.2 1.9 0 2.5zm460.3-.2c0 1.6-.2 3-.4 3s-.6-1.4-.8-3c-.3-1.7-.1-3 .4-3 .4 0 .8 1.3.8 3zm-636.3 1.2c-.3.7-.5.2-.5-1.2s.2-1.9.5-1.3c.2.7.2 1.9 0 2.5zm13-1c-.3.8-.6.5-.6-.6-.1-1.1.2-1.7.5-1.3.3.3.4 1.2.1 1.9zm618.2-1.9c-.2.1-1.2.9-2.1 1.6-1.5 1.2-1.8 1.1-1.8-.3 0-1 .8-1.6 2.2-1.6 1.2 0 1.9.1 1.7.3zm-592.6 6.4c-.5 4.1-.3 5.4.5 4.9.7-.4 1.2-2.9 1.2-5.7 0-6.9 2-6.2 2.2.8l.2 5.8.3-5.7c.3-4.1.7-5.6 1.7-5.2.8.3 1.3 2.5 1.3 6.4.1 5.9.1 6-2.7 6-1.6 0-3.2.4-3.5 1-1.6 2.6-2.5.3-2.5-6.5 0-4.1.4-7.5.9-7.5.6 0 .7 2.4.4 5.7zm412.6.5c-.1 5.5-.5 5-1.1-1.5-.2-2 0-3.7.4-3.7s.7 2.4.7 5.2zm42.6-4.2c.3.5.1 1-.4 1-.6 0-1.1-.5-1.1-1 0-.6.2-1 .4-1 .3 0 .8.4 1.1 1zm129.2 4.2c-.2 1.3-.4.5-.4-1.7-.1-2.2.1-3.2.4-2.3.2 1 .2 2.8 0 4zm-146.7-.7c0 1.3-.5 2.7-1.1 3-1.5 1-1.7.4-1.2-3.2.6-3.7 2.3-3.5 2.3.2zm-312.3 5.7c-.2 1.8-.4.6-.4-2.7 0-3.3.2-4.8.4-3.3s.2 4.2 0 6zm4 1c-.2 1.8-.4.4-.4-3.2s.2-5 .4-3.3c.2 1.8.2 4.8 0 6.5zm461.3-8.2c0 .5-.5 1-1.1 1-.5 0-.7-.5-.4-1 .3-.6.8-1 1.1-1 .2 0 .4.4.4 1zm-621.3 10.7c-.2 2.1-.4.4-.4-3.7 0-4.1.2-5.8.4-3.8.2 2.1.2 5.5 0 7.5zm605.2-3.4c0 1-.3 1.5-.9 1.2-.5-.3-.9-2.5-.9-4.8.1-4 .2-4 .9-1.2.4 1.6.8 3.8.9 4.8zm-600.2-4.1c-.3.8-.6.5-.6-.6-.1-1.1.2-1.7.5-1.3.3.3.4 1.2.1 1.9zm481.2 1c0 3.1-.1 3.1-1 1-.5-1.3-.7-2.8-.3-3.3 1-1.6 1.4-.9 1.3 2.3zm141.3 5c-.6.6-1.2.6-1.6-.1-.4-.6-.2-1.1.3-1.1.6 0 1.2-1.7 1.3-3.8l.1-3.7.4 3.9c.3 2.1 0 4.3-.5 4.8zm-459.5-.5c-.2 1.6-.4.5-.4-2.2 0-2.8.2-4 .4-2.8.2 1.3.2 3.5 0 5zm-176-2.5c-.3.7-.5.2-.5-1.2s.2-1.9.5-1.3c.2.7.2 1.9 0 2.5zm4-1c-.3.8-.6.5-.6-.6-.1-1.1.2-1.7.5-1.3.3.3.4 1.2.1 1.9zm611 4c-.2 1.3-.4.5-.4-1.7-.1-2.2.1-3.2.4-2.3.2 1 .2 2.8 0 4zm14.3-3.5c0 1 .3 2.8.6 4 .5 2 .2 2.3-1.9 2.3-1.4 0-2.9-.5-3.3-1.1-.4-.8-.9-.7-1.5.2-.6.9-.8 0-.8-2.6 0-2.2.3-3.4.6-2.6.4 1.1.7 1.1 1.3 0 .6-.9 1.2-.2 1.8 2.2l1 3.4.1-3.8c.1-3.6 2.1-5.5 2.1-2zm3 1.8c0 1.9-.2 3.5-.4 3.5s-.6-1.6-.8-3.5c-.2-1.9 0-3.5.4-3.5s.8 1.6.8 3.5zm-178.1 9.2c0 3.5-.1 6.3-.3 6.3-2.9 0-3.6-1.6-3.6-7.8 0-7.8.9-7.5 2.1.5.7 5.2.8 5 .4-2.7-.2-5.3 0-7.4.5-5.5.4 1.6.8 5.8.9 9.2zm164.8-7c-.3 1-.5.2-.5-1.7s.2-2.7.5-1.8c.2 1 .2 2.6 0 3.5zm-626-1.5c-.3.8-.6.5-.6-.6-.1-1.1.2-1.7.5-1.3.3.3.4 1.2.1 1.9zm471.5 8.3c-.3 6-.1 8.5.7 8.5.7 0 1.2-2.3 1.3-6.3l.2-6.2.3 6.2c.5 7.6 2.2 8.4 2.5 1l.1-5.2.7 5.5.7 5.5.1-5.3c.2-3.7.6-5.2 1.6-5.2.8 0 1.7-.6 1.9-1.3 1.1-2.7 2.5 1.8 2 6.4-.4 3-.1 4.9.7 5.4.8.5 1.1-.8 1-5.1-.1-3.3-.1-7 0-8.4l.2-2.5.8 2.5c.4 1.4.8 4.9.9 7.7.1 3 .6 5.3 1.2 5.3.7 0 .8-2.7.4-8.3-.6-7.7-.6-8 .9-5.4.8 1.5 1.7 5.1 1.9 8 .3 4.1.4 3.4.7-3.3.1-4.7.5-7.3.7-5.8.2 1.6.9 2.8 1.4 2.8.5 0 .9 2.3.9 5.2 0 8 .9 5.1 1.1-3.5.1-4.2.5-7.7.9-7.7s.8 3.3.9 7.2c.3 8.9 1.1 10.4 1.1 2 0-5.4.2-6.2 1.9-6.2 1.4 0 2 1 2.5 4.7.5 4.1.3 5-1.8 7.1-1.4 1.5-4.6 2.9-8.2 3.6-5.7 1.2-7.7 1.3-18.7.8l-4.8-.2.2-9.5c.1-5.2.6-9.2 1-9 .4.3.4 4.3.1 9zm3-5.3c-.9.9-1.2.7-1.2-1.2s.3-2.1 1.2-1.2c.9.9.9 1.5 0 2.4zm-454.6 1.8c.1 1.7-.2 3-.7 3-.5 0-.9-1.7-.9-3.7 0-4.2 1.3-3.7 1.6.7zm34.2-2c.7 0 1 .4.7 1-.7 1.2-7.5 1.4-7.5.2 0-1.6 1.4-2.3 3.5-1.8 1.1.3 2.6.6 3.3.6zm413.5 13.8c-2.9.8-3.8-1.2-3.2-7.3l.6-6 .1 5.7c.3 8.6 2.2 8.3 2.4-.4l.2-7.3.5 7.5c.4 5.5.3 7.6-.6 7.8zm-456.6-11.6c-.3.8-.6.5-.6-.6-.1-1.1.2-1.7.5-1.3.3.3.4 1.2.1 1.9zm47.3 9.4c0 10-.9 14.4-3 14.4-1.3 0-1.3-20.6 0-23.1 2.2-4 3-1.7 3 8.7zm-7.6-8c1.3.5 1.6 2.5 1.6 11.6v10.9l-3.7-.3-3.8-.3-.3-9.9c-.1-5.5 0-10.6.2-11.3.6-1.4 3.4-1.7 6-.7zm174 4c.8 2-.1 3.4-2 3.4-.8 0-1.4-.8-1.4-1.8 0-3.3 2.3-4.4 3.4-1.6zm-34.7 6.1c-.3 1-.5.2-.5-1.7s.2-2.7.5-1.8c.2 1 .2 2.6 0 3.5zm28-4.1c-.3.3-1.2.4-1.9.1-.8-.3-.5-.6.6-.6 1.1-.1 1.7.2 1.3.5zm-7.6 10.9.5-6 .2 6.2c.2 7.3-.8 8.3-8.2 8.3h-4.6l.1-7.8c.1-6.5.2-7.2 1-4.5 1.3 4.4 2.9 4.2 3.1-.5.1-3.6.1-3.6.5-.5.6 4.5 2.1 4.2 2.6-.5.2-2 .4-.2.5 4 .3 10.5 2.1 10.1 2.4-.5l.2-8.2.6 8 .6 8 .5-6zm-121.4 12.7c-.1 4-.3 1-.3-6.7s.1-11 .3-7.3c.2 3.7.2 10 0 14zm-49-16c-.3.7-.5.2-.5-1.2s.2-1.9.5-1.3c.2.7.2 1.9 0 2.5zm31.2 22.1c.1 5 .5 7.6 1.1 7.2.6-.4.8-6 .4-15.6-.3-8.8-.2-14.9.4-14.9.5 0 1.4 6.6 1.9 14.7l1 14.8.3-15.5.3-15.5.8 11.5c1.3 18.8 1.5 19.2 1.9 4 .3-12.8.4-13.7 1-7.5 1.1 10 1.1 21.8.1 23.3-.4.7-3.3 1.6-6.4 1.9l-5.7.6-.2-7.4-.2-7.4-.3 7.2c-.2 4-.8 7.3-1.3 7.3-1.1 0-1.1-14.9 0-25.5l.7-7 .1 8.3c.2 10.9 2.1 10 2.4-1.1l.1-8.2.8 8.5c.4 4.7.7 12 .8 16.3zm11.8-16.1c-.2 1.8-.4.6-.4-2.7 0-3.3.2-4.8.4-3.3s.2 4.2 0 6zm3.7 6.5c.3 8.2.1 13.3-.4 13.3-.6 0-1-5.6-1-13.7 0-7.5.2-13.4.4-13.2.2.2.7 6.4 1 13.6zm104.2-7.2.8 5 .7-4 .6-4 .2 4.1c.1 4.5-.4 5.5-2.5 4.7-1-.4-1.4-2.3-1.3-6.7.1-6.7.4-6.6 1.5.9zm6.4 1c0 3-.4 5.5-.9 5.5-.6 0-.9-9.7-.2-10.8.7-1.2 1.1.7 1.1 5.3zm-157.3 2.2c-.3 1-.5.2-.5-1.7s.2-2.7.5-1.8c.2 1 .2 2.6 0 3.5zm4 6.5c-.2 1.3-.4.5-.4-1.7-.1-2.2.1-3.2.4-2.3.2 1 .2 2.8 0 4zm-3.8 3c-.1 7.1-.1 7.2-1 2.8-.8-4-.4-10 .7-10 .2 0 .4 3.3.3 7.2zm43.3 3.1c.2 3.1 0 5.7-.4 5.7-.5 0-.7-3.7-.7-8.3.2-8.5.6-7.5 1.1 2.6zm-19.2 1.8c0 5.6-.4 7.9-1.2 7.9-1 0-1.2-2.2-1-8.5.4-10.7 2.2-10.3 2.2.6zm-7.3 3.1c-.2 2.4-.4.7-.4-3.7s.2-6.3.4-4.3c.2 2.1.2 5.7 0 8zm3.2-3c-.1 5.6-.4 7.2-.8 4.8-.6-3.5-.3-13 .5-13 .2 0 .3 3.7.3 8.2zm-17.7-1.2c-.2 2.2-.6 4-.8 4-.2 0-.4-1.8-.4-4s.3-4 .8-4c.4 0 .6 1.8.4 4zm11.5 2.7c-.2 1.6-.4.5-.4-2.2 0-2.8.2-4 .4-2.8.2 1.3.2 3.5 0 5zm-61.5-245.7c0 7.2.3 14 .8 15.3.6 1.4.9-2.9.9-13.1.1-8.3-.3-15.2-.7-15.2-.4 0-.9 5.9-1 13zm-11.2 16.5c0 3.2.3 5.5.7 5.2.7-.8.5-9.8-.2-10.5-.3-.3-.5 2.1-.5 5.3zm-4-1.5c0 1.6.4 3 .8 3 .5 0 .7-1.4.4-3-.2-1.7-.6-3-.8-3-.2 0-.4 1.3-.4 3zm-22.7 3.5c0 3.3.2 4.5.4 2.7.2-1.8.2-4.5 0-6s-.4 0-.4 3.3zm48.7 8.6c0 .5 1.1.9 2.4.9 1.3 0 3.3.3 4.3.7 1 .3 1.5.3 1.1-.1-1-1.2-7.8-2.5-7.8-1.5zm-.5 2.9c1.7.4 4.1.8 5.5.8h2.5l-2.5-.8c-1.4-.4-3.8-.8-5.5-.8h-3l3 .8zm-4.7 1.7c.7.3 1.6.2 1.9-.1.4-.3-.2-.6-1.3-.5-1.1 0-1.4.3-.6.6zm5 1c.7.3 1.6.2 1.9-.1.4-.3-.2-.6-1.3-.5-1.1 0-1.4.3-.6.6zm-.7 2.7c.2.2 2 .6 3.9 1 2.5.4 3.1.3 2-.4-1.4-.9-6.9-1.5-5.9-.6zm2.9 2.6c.8.5 2.6.9 4 .9l2.5-.1-2.5-.8c-1.4-.4-3.2-.8-4-.9-1.3-.1-1.3 0 0 .9zm468.1-6.4c0 1.1.3 1.4.6.6.3-.7.2-1.6-.1-1.9-.3-.4-.6.2-.5 1.3zm-510.1 24.9c0 13.1.3 23.6.6 23.3.8-.9.9-45.7.1-46.5-.4-.3-.7 10.1-.7 23.2zm5.3-16.5c0 4.1.2 5.8.4 3.7.2-2 .2-5.4 0-7.5-.2-2-.4-.3-.4 3.8zm3.6-6.3c-.3 4.2.3 117.8.6 118.2.3.2.5-26.4.5-59.2 0-32.9-.2-59.7-.5-59.7s-.5.3-.6.7zm-4.1 65.5c-.2 27.7 0 51 .4 51.8.4.8.8-21.8.8-50.3 0-28.4-.2-51.7-.5-51.7-.2 0-.6 22.6-.7 50.2zm7.9-22.8c-.7 1.8 0 21.7.8 22.4.3.3.5-4.9.5-11.6 0-6.7-.2-12.2-.4-12.2s-.6.7-.9 1.4zm-16.4 8.1c0 4.4.2 6.1.4 3.7.2-2.3.2-5.9 0-8-.2-2-.4-.1-.4 4.3zm4.8-2.5c-.2.8-.4 17-.6 36-.1 23.4.1 32.1.6 27 .8-6.8.8-66.5 0-63zm-4.7 42.5c0 15.4.2 21.6.3 13.7.2-7.9.2-20.5 0-28-.1-7.5-.3-1.1-.3 14.3zm15.7 3.6c-.1 13.4.1 24.1.3 23.8.8-.7 1.1-46.7.4-47.4-.3-.4-.7 10.3-.7 23.6zm416.9-92.1c3.6 1.1 5.2 1.1 4.5 0-.3-.6-2.1-1-3.8-.9-3.1.1-3.1.1-.7.9zm20.3 2.7c.7 1.1 21.4 3.9 22.2 3.1.3-.2-3.9-1-9.3-1.7-5.3-.7-10.5-1.5-11.6-1.8-1-.3-1.6-.1-1.3.4zm30.2 4.3c.3.5 1.1 1 1.6 1 .6 0 .7-.5.4-1-.3-.6-1.1-1-1.6-1-.6 0-.7.4-.4 1zm80.8 8.7c.9.2 2.3.2 3 0 .6-.3-.1-.5-1.8-.5-1.6 0-2.2.2-1.2.5zm7 1c.9.2 2.5.2 3.5 0 .9-.3.1-.5-1.8-.5-1.9 0-2.7.2-1.7.5zm-11.5 1c1.2.2 3 .2 4 0 .9-.3-.1-.5-2.3-.4-2.2 0-3 .2-1.7.4zm21.2.3c1.4.4 4.3.8 6.5.8 3.4 0 3.6-.1 1.5-.8-1.4-.4-4.3-.8-6.5-.8-3.4 0-3.6.1-1.5.8zm-5.2 1.7c.7.3 1.6.2 1.9-.1.4-.3-.2-.6-1.3-.5-1.1 0-1.4.3-.6.6zm6 1c.7.3 1.6.2 1.9-.1.4-.3-.2-.6-1.3-.5-1.1 0-1.4.3-.6.6zm12.5 1c.9.2 2.3.2 3 0 .6-.3-.1-.5-1.8-.5-1.6 0-2.2.2-1.2.5zm-493-14.2c0 3.3.2 4.5.4 2.7.2-1.8.2-4.5 0-6s-.4 0-.4 3.3zm9.4-.3c.5 5.8 1.3 6.1 1.3.5 0-2.6-.4-4.7-.8-4.7-.5 0-.7 1.9-.5 4.2zm7.9-2.6c-.9 2.3-.7 8.4.2 8.4.5 0 .9-2.3 1.1-5 .2-5.1-.2-6.2-1.3-3.4zm437.9 2.4c.3.5.8 1 1.1 1 .2 0 .4-.5.4-1 0-.6-.5-1-1.1-1-.5 0-.7.4-.4 1zm-497.5 9.8c1.8 1.1 11.9 2.9 21 3.6 5.6.4 5.9.4 2-.4-2.5-.5-7.9-1.3-12-1.9-4.1-.6-8.6-1.3-10-1.7-1.8-.4-2.1-.3-1 .4zm25.8.9c.7.3 1.6.2 1.9-.1.4-.3-.2-.6-1.3-.5-1.1 0-1.4.3-.6.6zm5 3c1.2.2 3 .2 4 0 .9-.3-.1-.5-2.3-.4-2.2 0-3 .2-1.7.4zm-46.5 5.3c0 4.7.2 6.6.4 4.2.2-2.3.2-6.1 0-8.5-.2-2.3-.4-.4-.4 4.3zm-.3 14.5c0 1.5.4 2.4 1 2 .6-.3 1-1.2 1-2s-.4-1.7-1-2c-.6-.4-1 .5-1 2zm0 48.6c0 23.8.2 43 .4 42.8.9-1 1.5-84.9.6-85.4-.7-.4-1 14.9-1 42.6zm46.3-44.1v19.5l.9-13.9c.5-8.2.5-16.3-.1-19.5-.6-4.3-.9-1.1-.8 13.9zm3.8-17.3c0 .4.4 1.7.9 2.8.8 1.9.9 1.9.9-.2.1-1.2-.3-2.5-.9-2.8-.5-.3-1-.3-.9.2zm56 3.5c-.1 1.6.4 2.8.9 2.8 1.2 0 1.2-.8 0-3.5-.8-1.8-.9-1.7-.9.7zm7 .4c0 1.1.3 1.4.6.6.3-.7.2-1.6-.1-1.9-.3-.4-.6.2-.5 1.3zm3.1 2.4c0 1.9.2 2.7.5 1.7.2-.9.2-2.5 0-3.5-.3-.9-.5-.1-.5 1.8zm3.1 51 .1 53.5.6-50.5c.3-27.8.2-51.9-.1-53.5-.4-1.7-.7 21.1-.6 50.5zm2.7 0c0 28.6.3 52 .8 52 .4 0 .8-23.4 1-52 .1-34.3-.1-52-.8-52-.7 0-1 17.8-1 52zm7-47.3c0 2.1-.2 25.6-.5 52.3-.2 26.7-.1 47.9.4 47.2.9-1.5 1.5-103.2.7-103.2-.4 0-.6 1.7-.6 3.7zm-79 2.2c0 1.2.5 2.1 1 2.1.6 0 1-.6 1-1.4 0-.8-.4-1.8-1-2.1-.5-.3-1 .3-1 1.4zm66.1-.3c0 1.1.3 1.4.6.6.3-.7.2-1.6-.1-1.9-.3-.4-.6.2-.5 1.3zm.1 5.4c0 1.9.2 2.7.5 1.7.2-.9.2-2.5 0-3.5-.3-.9-.5-.1-.5 1.8zm-3.1-.4c0 1.1.3 1.4.6.6.3-.7.2-1.6-.1-1.9-.3-.4-.6.2-.5 1.3zm3.1 8.9c0 1.6.2 2.2.5 1.2.2-.9.2-2.3 0-3-.3-.6-.5.1-.5 1.8zm-66 2c0 1.6.2 2.2.5 1.2.2-.9.2-2.3 0-3-.3-.6-.5.1-.5 1.8zm62.9 4.1c0 1.1.3 1.4.6.6.3-.7.2-1.6-.1-1.9-.3-.4-.6.2-.5 1.3zm0 4c0 1.1.3 1.4.6.6.3-.7.2-1.6-.1-1.9-.3-.4-.6.2-.5 1.3zm-3 4c0 1.1.3 1.4.6.6.3-.7.2-1.6-.1-1.9-.3-.4-.6.2-.5 1.3zm3 0c0 1.1.3 1.4.6.6.3-.7.2-1.6-.1-1.9-.3-.4-.6.2-.5 1.3zm-.2 13.9c-.4 6.6-.5 12.2-.3 12.4 1.2 1.2 1.4-1.8 1.2-12.5l-.3-11.9-.6 12zm-66.6-2c0 4.4.2 6.1.4 3.7.2-2.3.2-5.9 0-8-.2-2-.4-.1-.4 4.3zm63.5-3.5c-.2 2.2 0 4.7.4 5.7s.7-.6.7-4c.1-6.6-.5-7.6-1.1-1.7zm-3.6 1c0 1.9.2 2.7.5 1.7.2-.9.2-2.5 0-3.5-.3-.9-.5-.1-.5 1.8zm-50.9 5.5c0 2.2.2 3 .4 1.7.2-1.2.2-3 0-4-.3-.9-.5.1-.4 2.3zm-5.2 3.1c0 1.1.3 1.4.6.6.3-.7.2-1.6-.1-1.9-.3-.4-.6.2-.5 1.3zm56.3 13.4c0 8 .2 11.2.3 7.2.2-3.9.2-10.5 0-14.5-.1-3.9-.3-.7-.3 7.3zm-63.7-12.3c-.6.9-1.2 52.4-.6 56.8.2 1.6.6-10.5.9-27 .3-16.5.4-30.1.4-30.3-.1-.2-.4 0-.7.5zm7.4 2.9c0 1.1.3 1.4.6.6.3-.7.2-1.6-.1-1.9-.3-.4-.6.2-.5 1.3zm59.3 10.9c0 5.5.1 7.6.3 4.7.2-2.9.2-7.4 0-10-.2-2.6-.3-.2-.3 5.3zm-59.6-5.2c-.2 1.8-.1 4.4.3 5.8.5 1.6.7.5.8-3.4.1-6.3-.5-7.6-1.1-2.4zm-4 1.6c-1.1 4.9-1 6.7.3 5.4.6-.6.9-2.8.7-4.9l-.3-3.9-.7 3.4zm66.3 10.8c.2 7.6.2 7.6.9 2.8 1.2-7.2 1.1-10.5 0-10.5-.6 0-.9 3.2-.9 7.7zm-10.1-4.7c0 .5.5 1 1.1 1 .5 0 .7-.5.4-1-.3-.6-.8-1-1.1-1-.2 0-.4.4-.4 1zm-56.7 5.5c0 2.2.2 3 .4 1.7.2-1.2.2-3 0-4-.3-.9-.5.1-.4 2.3zm3.7-2.5c0 .5.5 1 1.1 1 .5 0 .7-.5.4-1-.3-.6-.8-1-1.1-1-.2 0-.4.4-.4 1zm57.3 14.5c0 3.8.2 5.3.4 3.2.2-2 .2-5.2 0-7-.2-1.7-.4-.1-.4 3.8zm5.8 4c-.1 5.6.2 8.4.9 8 1.2-.7 1.3-13.4.1-15.3-.4-.8-.9 2.3-1 7.3zm-2.9-4.5c0 1.9.2 2.7.5 1.7.2-.9.2-2.5 0-3.5-.3-.9-.5-.1-.5 1.8zm-63.9 2c0 2.5.2 3.5.4 2.2.2-1.2.2-3.2 0-4.5-.2-1.2-.4-.2-.4 2.3zm56.8-.4c0 1.1.3 1.4.6.6.3-.7.2-1.6-.1-1.9-.3-.4-.6.2-.5 1.3zm6.9 10.2c0 3.9.4 7.4 1 7.7.9.6.4-13.5-.6-14.4-.2-.2-.4 2.8-.4 6.7zm-6.8-.3c0 1.6.2 2.2.5 1.2.2-.9.2-2.3 0-3-.3-.6-.5.1-.5 1.8zm-56.9 7c0 4.4.2 6.1.4 3.7.2-2.3.2-5.9 0-8-.2-2-.4-.1-.4 4.3zm3.9-5.5c0 1.4.2 1.9.5 1.2.2-.6.2-1.8 0-2.5-.3-.6-.5-.1-.5 1.3zm57 1.5c0 1.6.2 2.2.5 1.2.2-.9.2-2.3 0-3-.3-.6-.5.1-.5 1.8zm5.8 1.5c0 1.1.5 2 1 2 .6 0 1-.9 1-2s-.4-2-1-2c-.5 0-1 .9-1 2zm-62.9 5.6c0 1.1.3 1.4.6.6.3-.7.2-1.6-.1-1.9-.3-.4-.6.2-.5 1.3zm57 0c0 1.1.3 1.4.6.6.3-.7.2-1.6-.1-1.9-.3-.4-.6.2-.5 1.3zm553.8-59.9c-.3 36.8-.1 57.4.5 58 .3.4.6-16.5.6-37.5s-.2-38.2-.5-38.2-.6 8-.6 17.7zm-124-12v51.6c-.1 4.3.2 8.1.5 8.4.3.4.6-22.8.6-51.5s-.2-52.2-.5-52.2-.5 19.7-.6 43.7zm9.1-43.2c-.3.5-.3 24.6 0 53.5s.7 50.2.9 47.5c1.1-18.5.3-103.4-.9-101zm13.3 54c-.2 29.4 0 53.5.5 53.5.4 0 .9-24.1 1-53.5.2-29.4 0-53.5-.5-53.5-.4 0-.9 24.1-1 53.5zm81.1-40.8c.1 6.1.4 11.5.9 11.9.9.9.7-17.3-.2-20.6-.4-1.4-.7 2.5-.7 8.7zm-71.4-7c0 1.6.5 3.5 1 4.3.7 1.1 1 .4 1-2.8 0-2.3-.4-4.2-1-4.2-.5 0-1 1.2-1 2.7zm10 4.3c0 .5.5 1 1 1 .6 0 1-.5 1-1 0-.6-.4-1-1-1-.5 0-1 .4-1 1zm-9.4 5.2c-.3 1.8-.2 4.9.3 6.8.8 3.1.9 2.8 1-3.3.1-7.2-.5-8.7-1.3-3.5zm5.1-.9c-1.1 2.9-.9 5.3.4 4 .6-.6.9-2.1.7-3.4-.3-2.1-.4-2.2-1.1-.6zm61.6 5.2c0 3.8.2 5.3.4 3.2.2-2 .2-5.2 0-7-.2-1.7-.4-.1-.4 3.8zm-61.2 2.1c0 1.1.3 1.4.6.6.3-.7.2-1.6-.1-1.9-.3-.4-.6.2-.5 1.3zm-10.4 7.1c-.3 1.5-.6 15.6-.7 31.3 0 15.7-.3 30.2-.6 32.2-.4 2-.2 6.3.2 9.5.6 4.1 1.1-6.2 1.4-34.7.3-22.3.5-40.6.4-40.8-.1-.2-.4 1-.7 2.5zm10.4-1.1c0 1.1.3 1.4.6.6.3-.7.2-1.6-.1-1.9-.3-.4-.6.2-.5 1.3zm3.9.3c0 .6.5 1.3 1 1.6.6.3 1-.1 1-.9 0-.9-.4-1.6-1-1.6-.5 0-1 .4-1 .9zm61.7 1.5c-.3.8-.6 15.8-.5 33.3 0 17.5.2 31.1.4 30.3.3-1.6 1.2-65 .8-65-.1 0-.4.7-.7 1.4zm-4.5 1.6c0 1.4.2 1.9.5 1.2.2-.6.2-1.8 0-2.5-.3-.6-.5-.1-.5 1.3zm-61.7 3.9c-.3.5-.1 1.2.5 1.6.5.3 1-.1 1-.9 0-1.8-.6-2.1-1.5-.7zm-4.9 1.7c-.8 2-.8 8.9 0 8.1.7-.6 1.6-9.7 1-9.7-.2 0-.7.7-1 1.6zm9.4-.5c0 .5.5.7 1 .4.6-.3 1-.8 1-1.1 0-.2-.4-.4-1-.4-.5 0-1 .5-1 1.1zm57.4 14.4c0 8.2.2 11.5.3 7.2.2-4.3.2-11 0-15-.1-4-.3-.5-.3 7.8zm-57.4-11.3c0 .9.5 2 1 2.3 1.3.8 1.3-.5 0-2.5-.8-1.3-1-1.3-1 .2zm-4.9 1.4c0 1.1.3 1.4.6.6.3-.7.2-1.6-.1-1.9-.3-.4-.6.2-.5 1.3zm16 0c0 1.1.3 1.4.6.6.3-.7.2-1.6-.1-1.9-.3-.4-.6.2-.5 1.3zm4.9.4c0 .5.5 1 1.1 1 .5 0 .7-.5.4-1-.3-.6-.8-1-1.1-1-.2 0-.4.4-.4 1zm-20.9 3.6c0 1.1.3 1.4.6.6.3-.7.2-1.6-.1-1.9-.3-.4-.6.2-.5 1.3zm4.9.4c0 .5.5 1 1 1 .6 0 1-.5 1-1 0-.6-.4-1-1-1-.5 0-1 .4-1 1zm-9.6 32.5c0 17.6.2 24.7.3 15.7.2-9 .2-23.4 0-32-.1-8.6-.3-1.3-.3 16.3zm62.7-28.9c0 1.1.3 1.4.6.6.3-.7.2-1.6-.1-1.9-.3-.4-.6.2-.5 1.3zm.1 4.9c0 1.6.2 2.2.5 1.2.2-.9.2-2.3 0-3-.3-.6-.5.1-.5 1.8zm-53.2-.5c0 .5.5 1 1 1 .6 0 1-.5 1-1 0-.6-.4-1-1-1-.5 0-1 .4-1 1zm-4.8 5c0 1.9.2 2.7.5 1.7.2-.9.2-2.5 0-3.5-.3-.9-.5-.1-.5 1.8zm5.4-2.1c-.4.7-.5 1.5-.2 1.8.9.9 1.9-.4 1.4-1.8-.4-1.1-.6-1.1-1.2 0zm4.9 3.6c0 1.3.3 2.1.8 1.8.4-.2.7-1 .7-1.8s-.3-1.6-.7-1.8c-.5-.3-.8.5-.8 1.8zm-5.4 1.1c0 1.1.3 1.4.6.6.3-.7.2-1.6-.1-1.9-.3-.4-.6.2-.5 1.3zm48 6c0 1.1.3 1.4.6.6.3-.7.2-1.6-.1-1.9-.3-.4-.6.2-.5 1.3zm-48.1 1c0 .8.5 1.2 1 .9.6-.4.8-1.1.5-1.6-.9-1.4-1.5-1.1-1.5.7zm56.5 1.4c-.4 1.2-.5 2.4-.2 2.7.3.2.8-.5 1.2-1.7.4-1.2.5-2.4.2-2.7-.3-.2-.8.5-1.2 1.7zm-56.4 2.6c0 1.1.3 1.4.6.6.3-.7.2-1.6-.1-1.9-.3-.4-.6.2-.5 1.3zm.1 4.9c0 1.6.2 2.2.5 1.2.2-.9.2-2.3 0-3-.3-.6-.5.1-.5 1.8zm47.9 8.1c0 1.1.3 1.4.6.6.3-.7.2-1.6-.1-1.9-.3-.4-.6.2-.5 1.3zm8 1c0 1.1.3 1.4.6.6.3-.7.2-1.6-.1-1.9-.3-.4-.6.2-.5 1.3zm-4.1.6c0 .9.5 2 1 2.3 1.3.8 1.3-.5 0-2.5-.8-1.3-1-1.3-1 .2zm-56.8 5.3c0 1.6.2 2.2.5 1.2.2-.9.2-2.3 0-3-.3-.6-.5.1-.5 1.8zm60.8 2c0 2.7.3 4.5.7 4.2.7-.8.6-7.7-.2-8.5-.3-.3-.5 1.6-.5 4.3zm-4 3.4c0 1.2.5 2.1 1 2.1.6 0 1-.6 1-1.4 0-.8-.4-1.8-1-2.1-.5-.3-1 .3-1 1.4zm-57 3.9c0 1.7.4 3.4 1 3.7.6.4.7-.6.3-2.7-.8-4.4-1.3-4.8-1.3-1zm61.2 1.7c0 1.6.2 2.2.5 1.2.2-.9.2-2.3 0-3-.3-.6-.5.1-.5 1.8zm4.9 1.1c0 1.1.3 1.4.6.6.3-.7.2-1.6-.1-1.9-.3-.4-.6.2-.5 1.3zm-.5 8.1c-.4.9-.2 2.1.4 2.7.7.7 1 .2 1-1.7 0-3.1-.5-3.4-1.4-1zm-450.6-98.5c-.1.2-.3 28.6-.6 63.1-.3 40.5-.2 62.7.5 62.3.9-.6 1.6-125.6.6-125.6-.3 0-.5.1-.5.2zm3.4 26.8c0 14.6.2 20.5.3 13.2.2-7.2.2-19.2 0-26.5-.1-7.2-.3-1.3-.3 13.3zm3-9.1c0 8.2.4 14.4.8 13.7 1.1-1.6 1-28.6-.1-28.6-.5 0-.8 6.7-.7 14.9zm29.8-11.4c0 1.6.2 2.2.5 1.2.2-.9.2-2.3 0-3-.3-.6-.5.1-.5 1.8zm-26.2.1c0 .8.5 1.2 1 .9.6-.4.8-1.1.5-1.6-.9-1.4-1.5-1.1-1.5.7zm32.1 53.8c-.1 30.2.1 54.7.3 54.5.7-.9 1.3-104.5.6-106.9-.4-1.4-.8 22.2-.9 52.4zm5.3-53.1c-.2.7 0 2.4.5 3.8.9 2.2 1 2.1 1-1.4.1-3.7-.5-4.8-1.5-2.4zm-8.1 18c0 10.3.2 18.9.6 19.1 1 .6 1.2-30.4.3-34.4-.6-2.2-.9 3.2-.9 15.3zm5.7 23.7c-.3 51.4-.2 62.1.5 62.8.3.3.6-15.4.6-34.9.1-19.5.3-41.3.5-48.6.2-7.3-.1-15.1-.5-17.5-.6-2.7-1 11.6-1.1 38.2zm-30-37c0 .5.5 1 1.1 1 .5 0 .7-.5.4-1-.3-.6-.8-1-1.1-1-.2 0-.4.4-.4 1zm18.2 3c0 1.4.2 1.9.5 1.2.2-.6.2-1.8 0-2.5-.3-.6-.5-.1-.5 1.3zm-18.7 1c-.3.5-.1 1 .4 1 .6 0 1.1-.5 1.1-1 0-.6-.2-1-.4-1-.3 0-.8.4-1.1 1zm-4.5 1.1c0 .5.5.7 1 .4.6-.3 1-.8 1-1.1 0-.2-.4-.4-1-.4-.5 0-1 .5-1 1.1zm37.8 30.9c-.2 17.5 0 32.9.4 34.2.3 1.3.6-13.1.7-32 .1-18.8-.1-34.2-.4-34.2-.2 0-.6 14.4-.7 32zm-10.5-25c0 3 .2 4.3.4 2.7.2-1.5.2-3.9 0-5.5-.2-1.5-.4-.2-.4 2.8zm-26.7 6.9c-.4.7-.5 1.5-.2 1.8.9.9 1.9-.4 1.4-1.8-.4-1.1-.6-1.1-1.2 0zm22.7 5.6c0 3.8.2 5.3.4 3.2.2-2 .2-5.2 0-7-.2-1.7-.4-.1-.4 3.8zm2.7-4.1c0 1.4.5 2.6 1 2.6.6 0 1-.9 1-1.9 0-1.1-.4-2.3-1-2.6-.6-.4-1 .5-1 1.9zm-30 38.1c0 19.7.2 35.6.5 35.3.7-.6.7-69.9 0-70.6-.3-.3-.5 15.6-.5 35.3zm30.4-12c0 12.1.2 16.9.3 10.7.2-6.2.2-16.1 0-22-.1-5.9-.3-.8-.3 11.3zm-26.2-16.5c0 1.9.2 2.7.5 1.7.2-.9.2-2.5 0-3.5-.3-.9-.5-.1-.5 1.8zm18.9 4.6c0 1.1.3 1.4.6.6.3-.7.2-1.6-.1-1.9-.3-.4-.6.2-.5 1.3zm-18.8 6.4c0 3 .2 4.3.4 2.7.2-1.5.2-3.9 0-5.5-.2-1.5-.4-.2-.4 2.8zm29.1 14.5c0 11 .2 15.6.3 10.3.2-5.3.2-14.3 0-20-.1-5.7-.3-1.3-.3 9.7zm-24.9-15.5c-.3.5-.1 1 .4 1 .6 0 1.1-.5 1.1-1 0-.6-.2-1-.4-1-.3 0-.8.4-1.1 1zm14.8 5c0 3 .2 4.3.4 2.7.2-1.5.2-3.9 0-5.5-.2-1.5-.4-.2-.4 2.8zm3.8-.4c0 1.1.3 1.4.6.6.3-.7.2-1.6-.1-1.9-.3-.4-.6.2-.5 1.3zm-22.8 5.9c0 2.2.2 3 .4 1.7.2-1.2.2-3 0-4-.3-.9-.5.1-.4 2.3zm3.9-.5c0 1.4.2 1.9.5 1.2.2-.6.2-1.8 0-2.5-.3-.6-.5-.1-.5 1.3zm18.4 3.7c-.6 1.4-.5 1.5.5.6.7-.7 1-1.5.7-1.8-.3-.3-.9.2-1.2 1.2zm-22.4 4.8c0 1.6.2 2.2.5 1.2.2-.9.2-2.3 0-3-.3-.6-.5.1-.5 1.8zm21.9 7.1c0 1.1.3 1.4.6.6.3-.7.2-1.6-.1-1.9-.3-.4-.6.2-.5 1.3zm.2 9.4c0 2.5.2 3.5.4 2.2.2-1.2.2-3.2 0-4.5-.2-1.2-.4-.2-.4 2.3zm3.5 1.1c-.1 2.8 0 5.3.5 5.6.4.2.7-2.1.7-5.1 0-7-.7-7.3-1.2-.5zm-26.8-3.1c0 .5.5 1 1 1 .6 0 1-.5 1-1 0-.6-.4-1-1-1-.5 0-1 .4-1 1zm38 13.4c0 7.7.4 12.6 1 12.6s1-4.6 1-11.9c0-6.9-.4-12.2-1-12.6-.6-.4-1 3.8-1 11.9zm-14.9-1.8c0 1.1.3 1.4.6.6.3-.7.2-1.6-.1-1.9-.3-.4-.6.2-.5 1.3zm-22.4 2.4c.3 1.1.7 2 .9 2 .2 0 .4-.9.4-2s-.4-2-.9-2-.7.9-.4 2zm25.3-.5c0 .8.5 1.5 1 1.5.6 0 1-.7 1-1.5s-.4-1.5-1-1.5c-.5 0-1 .7-1 1.5zm-2.8 5c0 1.6.2 2.2.5 1.2.2-.9.2-2.3 0-3-.3-.6-.5.1-.5 1.8zm2.8 1.4c0 1.1.5 2.3 1 2.6.6.4 1-.5 1-1.9s-.4-2.6-1-2.6c-.5 0-1 .9-1 1.9zm-24.8 1.1c0 1.4.2 1.9.5 1.2.2-.6.2-1.8 0-2.5-.3-.6-.5-.1-.5 1.3zm.1 7.5c0 2.7.2 3.8.4 2.2.2-1.5.2-3.7 0-5-.2-1.2-.4 0-.4 2.8zm25.9-.5c0 1.9.2 2.7.5 1.7.2-.9.2-2.5 0-3.5-.3-.9-.5-.1-.5 1.8zm-7.9 3c0 3 .2 4.3.4 2.7.2-1.5.2-3.9 0-5.5-.2-1.5-.4-.2-.4 2.8zm4-1.5c0 2.2.2 3 .4 1.7.2-1.2.2-3 0-4-.3-.9-.5.1-.4 2.3zm-22.2 7.1c0 1.1.3 1.4.6.6.3-.7.2-1.6-.1-1.9-.3-.4-.6.2-.5 1.3zm18.1 3.9c0 1.6.2 2.2.5 1.2.2-.9.2-2.3 0-3-.3-.6-.5.1-.5 1.8zm-18 2c0 1.6.2 2.2.5 1.2.2-.9.2-2.3 0-3-.3-.6-.5.1-.5 1.8zm12.9.1c0 1.1.3 1.4.6.6.3-.7.2-1.6-.1-1.9-.3-.4-.6.2-.5 1.3zm129.1-59.6c0 1.4.2 1.9.5 1.2.2-.6.2-1.8 0-2.5-.3-.6-.5-.1-.5 1.3zm-377.5 27.7c-.4.3-.7 1.4-.7 2.4 0 1.3.5 1.7 1.8 1.2 2-.8 3.3-2.4 2.6-3.5-.6-1-2.8-1-3.7-.1zm504.4 4.5c0 6.3.5 10.8 1 10.8 1.2 0 .9-18.5-.3-20.3-.4-.7-.7 3.6-.7 9.5zm7-2.7.2 8 .8-7c.5-4.2.4-7.4-.2-8-.5-.5-.9 2.1-.8 7zm4-.4c0 5.2.3 6.6.9 4.8.8-2.7.5-10.7-.4-11.7-.3-.3-.6 2.8-.5 6.9zm17.1-4.1c0 1.9.2 2.7.5 1.7.2-.9.2-2.5 0-3.5-.3-.9-.5-.1-.5 1.8zm-13.2 2.4c0 2.5.5 4.6 1 4.6.6 0 1-1.8 1-3.9 0-2.2-.4-4.3-1-4.6-.6-.4-1 1.2-1 3.9zm4-1.7c0 1 .5 2.5 1 3.3.7 1.1 1 .7 1-1.8 0-1.7-.4-3.2-1-3.2-.5 0-1 .8-1 1.7zm5.2.8c0 1.6.2 2.2.5 1.2.2-.9.2-2.3 0-3-.3-.6-.5.1-.5 1.8zm22.8-.8c0 .5.5 1.5 1 2.3.8 1.2 1 1.1 1-.8 0-1.2-.4-2.2-1-2.2-.5 0-1 .3-1 .7zm3.9-.5c-.6 2-.4 13.8.2 13.8.5 0 .9-3.2.9-7 0-3.9-.2-7-.5-7s-.5.1-.6.2zm-22.8 5.4c0 1.1.3 1.4.6.6.3-.7.2-1.6-.1-1.9-.3-.4-.6.2-.5 1.3zm15.9 1.6c0 .9.5 2 1 2.3 1.3.8 1.3-.5 0-2.5-.8-1.3-1-1.3-1 .2zm4.3 2.8c0 2.5.2 3.5.4 2.2.2-1.2.2-3.2 0-4.5-.2-1.2-.4-.2-.4 2.3zm15-3.5c0 2.2.2 3 .4 1.7.2-1.2.2-3 0-4-.3-.9-.5.1-.4 2.3zm-415.3 21.5c0 8 .4 13 1 13s1-5 1-13-.4-13-1-13-1 5-1 13zm-8-8.1c0 1.2.5 2.1 1 2.1.6 0 1-.6 1-1.4 0-.8-.4-1.8-1-2.1-.5-.3-1 .3-1 1.4zm6 1.3c-.5 10.7-.5 19.8.2 19.8.4 0 .8-4.5.8-10s-.2-10-.5-10-.5.1-.5.2zm-14.9 2.4c0 1.1.3 1.4.6.6.3-.7.2-1.6-.1-1.9-.3-.4-.6.2-.5 1.3zm12.3 8.9c0 5.5.1 7.6.3 4.7.2-2.9.2-7.4 0-10-.2-2.6-.3-.2-.3 5.3zm-9.1 1.5c0 4.7.2 6.6.4 4.2.2-2.3.2-6.1 0-8.5-.2-2.3-.4-.4-.4 4.3zm3 0c0 4.7.2 6.6.4 4.2.2-2.3.2-6.1 0-8.5-.2-2.3-.4-.4-.4 4.3zm-43.4-.8c0 2.9-.1 7-.2 9.1-.1 2 .1 3.7.6 3.7.4 0 .7-4.1.7-9 0-5-.2-9-.5-9s-.5 2.4-.6 5.2zm-5.3-2.7c-.3.8-.1 1.5.4 1.5.6 0 1-.7 1-1.5s-.2-1.5-.4-1.5-.6.7-1 1.5zm42.6 1.5c0 1.4.2 1.9.5 1.2.2-.6.2-1.8 0-2.5-.3-.6-.5-.1-.5 1.3zm9.1 5.5c0 2.7.2 3.8.4 2.2.2-1.5.2-3.7 0-5-.2-1.2-.4 0-.4 2.8zm-9.2.1c0 1.1.3 1.4.6.6.3-.7.2-1.6-.1-1.9-.3-.4-.6.2-.5 1.3zm-4.6.4c-.3.5-.1 1 .4 1 .6 0 1.1-.5 1.1-1 0-.6-.2-1-.4-1-.3 0-.8.4-1.1 1zm0 3.9c-.3.5-.1 1.2.5 1.6.5.3 1-.1 1-.9 0-1.8-.6-2.1-1.5-.7zm-59.5-8.7c0 6.7.2 11.9.5 11.6.3-.3.8-5.8 1.2-12.2.4-8.2.2-11.6-.6-11.6-.7 0-1.1 3.9-1.1 12.2zm3.8-11.6c-.5.4-.7 5.7-.7 11.8.1 9.8.2 10.6 1.1 6.2 1-5.5.7-19.2-.4-18zm460.7 16.6c-.2.7 0 2.9.4 4.8l.9 3.5.1-4.8c.1-4.5-.5-6-1.4-3.5zm-20.2 7.8c0 3 .2 4.3.4 2.7.2-1.5.2-3.9 0-5.5-.2-1.5-.4-.2-.4 2.8zm-434.3 5c0 5.7.2 10.1.4 9.9.8-.7.9-18.9.2-19.6-.3-.3-.6 4-.6 9.7zm3.4-.5c0 5.5.1 7.6.3 4.7.2-2.9.2-7.4 0-10-.2-2.6-.3-.2-.3 5.3zm154.9 9c0 2.2.2 3 .4 1.7.2-1.2.2-3 0-4-.3-.9-.5.1-.4 2.3zm-3.2 1.1c0 1.1.3 1.4.6.6.3-.7.2-1.6-.1-1.9-.3-.4-.6.2-.5 1.3zm296.2-239.6c0 4.7.2 6.6.4 4.2.2-2.3.2-6.1 0-8.5-.2-2.3-.4-.4-.4 4.3zm2.7 0c0 4.6.2 8.1.4 7.9.7-.7 1-14.9.3-15.6-.4-.3-.7 3.1-.7 7.7zm-21-5c0 1.9.3 2.1 1.2 1.2.9-.9.9-1.5 0-2.4-.9-.9-1.2-.7-1.2 1.2zm4.1-.4c0 1.1.3 1.4.6.6.3-.7.2-1.6-.1-1.9-.3-.4-.6.2-.5 1.3zm4 0c0 1.1.3 1.4.6.6.3-.7.2-1.6-.1-1.9-.3-.4-.6.2-.5 1.3zm3.6-.9c-1 1-.8 4.6.3 6.3.7 1.1.9.3.8-2.7-.2-2.4-.3-4.3-.4-4.3 0 0-.4.3-.7.7zm2.8.2c-.3.5-.1 1.2.5 1.6.5.3 1-.1 1-.9 0-1.8-.6-2.1-1.5-.7zm13.8 5.6c0 3.8.2 5.3.4 3.2.2-2 .2-5.2 0-7-.2-1.7-.4-.1-.4 3.8zm-522.8-3.5c-1.8 1.9-1.8 2.2-.2 3.7 1.1 1.1 1.7 1.3 1.7.5 0-.7-.5-1.2-1.2-1.2-.6 0-.1-1.1 1.2-2.5s1.9-2.5 1.3-2.5c-.5 0-1.8.9-2.8 2zm525.5 4.3c0 3.9.4 6.7 1 6.7.7 0 .8-2.3.5-6.2-.8-8.4-1.5-8.6-1.5-.5zm9 .2c0 3.7.4 6.5 1 6.5s1-2.8 1-6.5-.4-6.5-1-6.5-1 2.8-1 6.5zm-39.6-1c-.3.8-.1 2.7.4 4.2 1 2.7 1 2.6 1.1-1.5.1-4.3-.5-5.4-1.5-2.7zm7.7.1c0 1.1.3 1.4.6.6.3-.7.2-1.6-.1-1.9-.3-.4-.6.2-.5 1.3zm7.2 2.9c0 2.2.2 3 .4 1.7.2-1.2.2-3 0-4-.3-.9-.5.1-.4 2.3zm-11.3-1.4c0 .5.5.7 1 .4.6-.3 1-.8 1-1.1 0-.2-.4-.4-1-.4-.5 0-1 .5-1 1.1zm-501.1 1.9c-2.7 2.9-2.8 3.5-.4 3.6 1.6.1 2.2-.2 1.8-1.2-.4-1 0-1.2 1.1-.8 1.9.7 2.1-.9.4-2.3-.9-.7-1.8-.4-2.9.7zm80.1 3c0 2.2.2 4 .4 4s.6-1.8.8-4c.2-2.2 0-4-.4-4-.5 0-.8 1.8-.8 4zm3.8.7c-.3 2.7-.2 10.9.2 18.3l.7 13.5.1-18.3c.1-10 0-18.2-.2-18.2s-.5 2.1-.8 4.7zm8.1-1c-.3 9.9.1 30.6.6 31.1.3.3.5-7.4.5-17.1 0-9.8-.2-17.7-.5-17.7s-.5 1.7-.6 3.7zm15.5 11.3c0 8.5.2 12 .3 7.7.2-4.2.2-11.2 0-15.5-.1-4.2-.3-.7-.3 7.8zm401.3-12.9c.4 1.3.8 1.8 1.1 1 .2-.7-.1-1.8-.6-2.3-.8-.8-.9-.4-.5 1.3zm-448.3 16.4c0 9.9.2 13.8.3 8.7.2-5.1.2-13.2 0-18-.1-4.8-.3-.6-.3 9.3zm5.6.1c0 9.6.4 17.3.8 17 1.2-.7 1.4-34.6.2-34.6-.6 0-1 6.6-1 17.6zm4-14.4c-.1 1.8-.3 9.4-.6 16.9-.4 9.3-.2 13.9.5 14.3.8.5 1.1-4.5 1.1-16.8 0-9.7-.2-17.6-.5-17.6s-.5 1.5-.5 3.2zm7.1-.2c-.7 7.7-.6 23.8.2 23.1.4-.4.6-6.6.4-13.7-.1-7.1-.4-11.3-.6-9.4zm10.6-2.3c-.7 1.3-.1 32.2.6 32.9.4.4.7-7 .7-16.4 0-15.9-.2-18.5-1.3-16.5zm14.5 1.3c0 1.4.2 1.9.5 1.2.2-.6.2-1.8 0-2.5-.3-.6-.5-.1-.5 1.3zm392 0c0 1.4.2 1.9.5 1.2.2-.6.2-1.8 0-2.5-.3-.6-.5-.1-.5 1.3zm-420.8 15.5c0 9.3.2 13.3.3 8.8.2-4.5.2-12.2 0-17-.1-4.8-.3-1.2-.3 8.2zm-75.1-11c-1.6 1.8-1.6 2.5 0 2.5.7 0 1.3-.9 1.4-2 .2-2.3.2-2.4-1.4-.5zm118.7-.4c0 .5.5.7 1 .4.6-.3 1-.8 1-1.1 0-.2-.4-.4-1-.4-.5 0-1 .5-1 1.1zm-4.8 1.9c0 1.4.2 1.9.5 1.2.2-.6.2-1.8 0-2.5-.3-.6-.5-.1-.5 1.3zm-31.8 13.5c0 7.7.2 10.7.3 6.7.2-4 .2-10.3 0-14-.2-3.7-.3-.4-.3 7.3zm342.5-12.1c-.3.3-9.7.6-20.9.7-11.3.1-28.8.6-39 1-10.2.5-34.9 1.5-55 2.4-39.9 1.7-49.6 2.6-55.2 4.9-4.8 2-13 10.2-15.4 15.2-2 4.2-3.3 5.6-4.7 4.7-.5-.3-6.5-.5-13.4-.4-15.2.1-19.3 1.5-19.3 6.5 0 2.9-.2 3.2-3 3-1.6-.1-3 .2-3 .7 0 .5-1.1.7-2.5.3-2.9-.7-8.4.4-6.9 1.4.6.4 1.3 1.5 1.7 2.4.3 1 1.6 1.8 2.8 1.8 1.1 0 5.2.9 9 2.1 6.1 1.9 8.9 2.1 22.7 1.7 17.4-.4 20.8-1.3 19.8-5.3-.5-1.8-.1-2.5 1.4-3 2.5-.8 5.8-5.2 9.9-13 1.7-3.3 3.1-5.4 3.1-4.7 0 1.3-7.6 16-9.1 17.7-1.4 1.4-1.1 2.3 1 3 1.1.3 2.2 1.2 2.5 2 .8 2.2-.6 1.8-3.5-.9l-2.6-2.4v2.2c0 1.9.4 2.2 1.9 1.8 2-.5 2-.4.3 2.1-2.5 3.9-7.2 4.9-25.9 5.6l-17.1.6-.3 6.5c-.2 3.5 0 6.1.4 5.7.4-.4.6-3.2.5-6.3-.2-5.3-.1-5.5 2.1-5.2 2 .3 2.4 1 2.9 6.3l.5 6 .5-6 .4-6 7-.2c13.4-.4 22.6-1.3 26.7-2.5 5.4-1.6 11.8-7.5 17.5-16.1 5.9-8.8 7.5-10.3 15-13.9 9.5-4.5 10.8-4.6 126.3-7.9 23.4-.6 42.9-1.5 43.3-1.9.9-.8-16-.6-68.3 1.1-87 2.7-91.7 2.9-97.5 4.6-1.7.5-1.8.4-.6-1.1 1.2-1.4 1.1-1.6-.8-1.6-1.5 0-2.1.6-2.1 2.2 0 1.8-.2 2-1 .8s-1-1.2-1.5.2c-.4.9-1.2 1.5-2 1.2-1.2-.5-7.5 7.1-13.1 16-1.6 2.5-3.2 4.5-3.6 4.6-1 0 8.4-14.7 11.2-17.7 2.2-2.4 4.4-7.3 3.6-8.1-.3-.3-.8.2-1.2 1.1-.8 2.1-7.4 9.4-7.4 8.2 0-.5 1.4-2.4 3.2-4.2 1.7-1.8 2.9-3.5 2.6-3.8-.7-.7-6.6 4.9-9.1 8.5-1.3 1.9-1.2 1.4.3-1.7 2.3-4.9 5.3-7.1 12.4-9.4 3.6-1.2 4.4-1.7 2.6-1.8-4.1-.1-9.7 1.8-12.9 4.4-3.8 3.3-4.4 3.1-2.3-.4 1.3-2.3 2.8-3.1 7.2-4.2 3-.6 6-1.7 6.5-2.2.6-.6.3-.7-1-.4-4.9 1.3-10.7 1.9-10.1.9 1-1.6 26.5-3.8 55.6-4.7 21.1-.7 47.6-1.6 58-2 5.2-.2 19.8-.7 32.3-1.1 12.5-.4 23-1.1 23.3-1.5.5-.9-5.9-1.3-6.7-.5zm-165.1 10.3c-1 .2-1.8.8-1.8 1.1 0 .4-.9 1.3-1.9 1.9-1.6 1-1.8.9-1.4-.7.5-1.8 2.3-2.8 5.3-2.8 1 0 .9.2-.2.5zm-10 6.3c-2.3 3.2-7.8 7.4-6.2 4.9 1.5-2.5 6.7-7.9 7.6-7.9.5 0-.1 1.4-1.4 3zm8.2-.6c-1.4 1.3-2.7 2.2-2.9 2-.7-.6 3.1-4.4 4.3-4.4.6 0-.1 1.1-1.4 2.4zm-9.1 8.5c-5 9.1-6.4 13.3-3 9 1-1.3 3.3-5 5.1-8.2 1.7-3.1 3.3-5.7 3.5-5.7.8 0-4 9.9-7.2 14.7-3.4 5.2-6 7-4.9 3.5.3-.9.1-3.3-.4-5.2-.8-2.8-.7-3.7.6-5 1.5-1.4 1.5-1.3.9 1-1.4 4.4 1.9.6 5.6-6.5 1.8-3.6 3.6-6.5 4-6.5.4 0-1.5 4-4.2 8.9zm10.7 6.3c-1.8 2.6-2.2 1.7-.5-1.4.6-1.1 1.3-1.7 1.6-1.5.3.3-.2 1.6-1.1 2.9zm-19.8.2c1.4 1.5-4 4.5-9.5 5.2-5.4.6-17 0-22.5-1.2-2.7-.6-2.8-.5-2.8 4 0 2.8-.4 4.5-1 4.1-1.1-.7-.9-8.5.3-8.5.4 0 .7-.7.7-1.5s1-1.7 2.3-1.9c1.2-.3 3.1-.7 4.2-1 3-.7 27.4 0 28.3.8zm1 8.8c-.2 3.1-.8 4.4-2 4.6-1.5.3-1.8-.4-1.8-3.8 0-2.5.4-3.9 1-3.5.6.3 1 .1 1-.4 0-.6.5-1.1 1.1-1.1.6 0 .9 1.7.7 4.2zm12.2-1.6c-.7 1.9-.7 3.1.1 4 1.8 2.2.4 2.8-1.9.8-1.9-1.6-1.9-1.8-.3-4.5 2-3.6 3.4-3.8 2.1-.3zm-45-.7c0 .6-.4 1.3-1 1.6-.5.3-1-.1-1-.9 0-.9.5-1.6 1-1.6.6 0 1 .4 1 .9zm27.6 3.9.3 4-5.9.7c-3.3.4-7.7.4-9.9 0-3.2-.5-4-1.1-4.4-3.3-.3-1.5-.1-3.1.4-3.7.5-.5 1 .4 1 2.5l.2 3.5.6-3.5c.6-3.3.9-3.5 4.9-3.8 4.1-.3 4.2-.2 4.2 2.7 0 1.6.5 3.3 1 3.6.6.4 1-.8 1-2.8 0-3.1.2-3.4 2.5-2.9 1.6.3 2.5 0 2.5-.9 0-2.8 1.2.2 1.6 3.9zm-25.9 2.4c-.2 1.3-.4.3-.4-2.2s.2-3.5.4-2.3c.2 1.3.2 3.3 0 4.5zm4 .5c-.2 1.6-.4.5-.4-2.2 0-2.8.2-4 .4-2.8.2 1.3.2 3.5 0 5zm41-5.3c-.3.7 0 1.9.6 2.5.8.8.8 1.1 0 1.1-.7 0-1.4-.4-1.7-.9-.6-1 .3-4.1 1.1-4.1.3 0 .3.6 0 1.4zm-46.7 4.7c0 1.1-.4 1.8-1 1.4-.5-.3-.7-1.2-.3-2 .7-2.1 1.3-1.9 1.3.6zm30.2-2.6c0 1.6.2 2.2.5 1.2.2-.9.2-2.3 0-3-.3-.6-.5.1-.5 1.8zm-19.2.4c0 1.2.5 2.1 1 2.1.6 0 1-.6 1-1.4 0-.8-.4-1.8-1-2.1-.5-.3-1 .3-1 1.4zm4.2 1.1c0 1.9.2 2.7.5 1.7.2-.9.2-2.5 0-3.5-.3-.9-.5-.1-.5 1.8zm7.4-1.5c.4.8.8 1.5 1 1.5.2 0 .4-.7.4-1.5s-.4-1.5-1-1.5c-.5 0-.7.7-.4 1.5zm2.2 1c-.3 1.4-.1 2.5.3 2.5.5 0 .9-1.1.9-2.5s-.2-2.5-.4-2.5-.6 1.1-.8 2.5zm-230.8-40c-1.1 1.3-1 1.4.4.9.9-.3 1.6-1 1.6-1.5 0-1.3-.6-1.1-2 .6zm112.6.3c-.7 1.1-.1 6 .7 6.9.4.3.7-1.2.7-3.5 0-4.1-.4-5-1.4-3.4zm420.4 5.2c-14.7.9-77.1 3.3-80.7 3.1-1.2 0-2.5.4-2.9 1.1-.5.8 2.5.9 11.2.5 36.1-1.9 70.5-3 99.1-3.1 20.8-.1 32.3-.5 32.3-1.1 0-1.3-40.6-1.6-59-.5zm62 1.4c0 .7 2.3 1.8 5.1 2.4 6.6 1.6 12.8 6.1 17.8 13.1 6.5 9 10 12.9 10.1 10.9 0-.9-.8-2.2-1.7-2.7-1.7-1-1.7-1.2.2-2.7 2-1.6 2-1.6-.2-1-1.8.6-2.9-.2-6.1-4.7-4.9-6.6-9.4-10.4-15.1-13-6.9-3-10.1-3.8-10.1-2.3zm-311.2 1.3c.7.3 1.6.2 1.9-.1.4-.3-.2-.6-1.3-.5-1.1 0-1.4.3-.6.6zm-5 3c.6.2 1.8.2 2.5 0 .6-.3.1-.5-1.3-.5-1.4 0-1.9.2-1.2.5zm365.4 2.3c-5 .4-9.5.9-9.8 1.2-.5.6 19.8-.2 20.4-.7 1-.9-2.3-1-10.6-.5zm-567.5 5.4c-.4 1.5-.6 3.1-.2 3.4 1 1 1.6-.6 1.3-3.5l-.3-2.8-.8 2.9zm552.2 2c-.3.3-.3 2.7.1 5.4.5 2.6.6 5 .3 5.4-.2.5.7.8 2.1.8 1.7 0 2.4.4 2 1.3-.6 1.6 4.5 3.5 11.1 4.2l5 .5-5.6-1.3c-7.6-1.8-8.9-2.4-8.9-4 0-.7-1.1-2-2.5-2.7-1.9-1-2.5-2.2-2.7-5.7-.2-2.5-.6-4.2-.9-3.9zm5.4 5.1c0 2.2.2 3 .4 1.7.2-1.2.2-3 0-4-.3-.9-.5.1-.4 2.3zm-3.3-1.6c0 .6.5 1.3 1 1.6.6.3 1-.1 1-.9 0-.9-.4-1.6-1-1.6-.5 0-1 .4-1 .9zm25.3 3.6c0 2.2.2 3 .4 1.7.2-1.2.2-3 0-4-.3-.9-.5.1-.4 2.3zm-159.7-.6c-.4.7-.5 1.5-.2 1.8.9.9 1.9-.4 1.4-1.8-.4-1.1-.6-1.1-1.2 0zm-175.5 42.2c.1 21.1.5 40.6.9 43.4.5 2.8.7-13.9.4-38-.3-23.6-.7-43.1-1-43.4-.2-.3-.4 16.8-.3 38zm307.9-34.3c0 .4 1.6 1.7 3.6 3 2.7 1.8 5.3 2.4 11.7 2.7l8.2.4-7.2-.8c-4.6-.6-8.9-1.8-11.8-3.4-2.5-1.4-4.5-2.3-4.5-1.9zm25.5 4.2c-.3.5.1 1 .9 1 1.1 0 1.6 1.4 1.9 5.2l.3 5.3.2-5.1c.1-3.4-.3-5.6-1.2-6.3-1-.8-1.6-.9-2.1-.1zm9.8 6.5c0 2.7.2 3.8.4 2.2.2-1.5.2-3.7 0-5-.2-1.2-.4 0-.4 2.8zm-15 1.5c0 3 .2 4.3.4 2.7.2-1.5.2-3.9 0-5.5-.2-1.5-.4-.2-.4 2.8zm3.7-.2c0 2.9.4 5.2.9 5.2.8 0 .3-9-.5-9.9-.2-.2-.4 1.9-.4 4.7zm-12.9-2.2c0 1.1.3 1.4.6.6.3-.7.2-1.6-.1-1.9-.3-.4-.6.2-.5 1.3zm-458.8 6.9c0 3.8.2 5.3.4 3.2.2-2 .2-5.2 0-7-.2-1.7-.4-.1-.4 3.8zm453.9-3.5c0 1.4.2 1.9.5 1.2.2-.6.2-1.8 0-2.5-.3-.6-.5-.1-.5 1.3zm9.9.6c0 1.1.3 1.4.6.6.3-.7.2-1.6-.1-1.9-.3-.4-.6.2-.5 1.3zm-439.8 9.9c0 3.3.2 4.5.4 2.7.2-1.8.2-4.5 0-6s-.4 0-.4 3.3zm6 1c0 3.3.2 4.5.4 2.7.2-1.8.2-4.5 0-6s-.4 0-.4 3.3zm6.9-2.5c0 1.4.2 1.9.5 1.2.2-.6.2-1.8 0-2.5-.3-.6-.5-.1-.5 1.3zm-3 1c0 1.4.2 1.9.5 1.2.2-.6.2-1.8 0-2.5-.3-.6-.5-.1-.5 1.3zm6.8 0c0 .5.5 1 1.1 1 .5 0 .7-.5.4-1-.3-.6-.8-1-1.1-1-.2 0-.4.4-.4 1zm-277 49.5c0 21.4.4 34.5 1 34.5s.9-13 .8-34.5c0-19-.5-34.5-.9-34.5-.5 0-.9 15.5-.9 34.5zm-1.9-29.9c0 1.1.3 1.4.6.6.3-.7.2-1.6-.1-1.9-.3-.4-.6.2-.5 1.3zm373.1 34.9c0 1.6.2 2.2.5 1.2.2-.9.2-2.3 0-3-.3-.6-.5.1-.5 1.8zm-353.7 53.5c.3.5.8 1 1.1 1 .2 0 .4-.5.4-1 0-.6-.5-1-1.1-1-.5 0-.7.4-.4 1z"/>
</svg>
