<?xml version="1.0" encoding="utf-8"?>
<svg xmlns="http://www.w3.org/2000/svg" viewBox="0 0 773 136">
	<path d="M378.328.9c.4.5 2.4 1.2 4.6 1.6 2.2.4 4 1 4 1.4 0 .4-12 1.3-26.7 1.9-14.7.7-27.2 1.7-27.7 2.2-1.8 1.8.3 2.2 7.1 1.1 3.7-.5 16-1.3 27.3-1.6 20.1-.5 21.3-.3 13.8 2.5-5.5 1.9-2.7 2.8 3.2.9 6.9-2.1 12-4.6 12-5.8 0-.8-13.7-5.1-16.5-5.1-.9 0-1.4.4-1.1.9zm31.6 41.6v9.6l6.7-.3c6.1-.3 6.9-.5 8.2-3 1.4-2.4 1.4-2.8-.3-4.7-1.7-1.9-1.7-2.1-.2-2.7 2.1-.8 2-2-.5-5.5-1.9-2.6-2.6-2.9-8-2.9h-5.9v9.5zm9.4-5.9c1.7.6 2.2 3 .9 3.7-.5.2-2 .7-3.5 1.1-2.5.6-2.8.4-2.8-1.8 0-3 2.2-4.2 5.4-3zm1.4 10.1c.3 2-.1 2.3-3.2 2.3-2.9 0-3.6-.4-3.6-1.9 0-3.7 6.3-4 6.8-.4zm-123.8-10.4c0 2.7-3.8 14.7-5.1 16.1-1.6 1.7-1 3.6 1.1 3.6 1.3 0 2.4-1 3.1-2.8 1-2.6 1.1-2.7 2.5-.7 1.5 2 1.5 2 3.4-.5 2-2.6 1.8-2.8 3.5 2.5.5 1.6 3 2 3.9.7.3-.5-.6-4.1-1.9-8.1-1.4-4-2.5-8.1-2.5-9 0-2.5-2-4.1-5.2-4.1-2.3 0-2.8.4-2.8 2.3zm3.8 9.9-1.3 2.3-.3-2.3c-.2-1.3-.1-3.1.3-4 .6-1.6.7-1.6 1.6 0 .7 1.2.6 2.5-.3 4zm142.8 11.7c-.4.6-1.3.8-2.1.5-2.3-.9-21.7 2.4-29.5 5-5.6 1.9-7.6 2.2-8.2 1.3-.5-.8-1.6-.3-3.5 1.8-1.5 1.7-5.9 4.8-9.8 6.9-3.8 2.2-8.1 4.7-9.5 5.6-3.4 2.3-17.9 4.3-26.5 3.7-3.8-.3-7.4-.6-8-.6-.5-.1-7 .4-14.3 1l-13.3 1.2-2.7-2.7c-2-1.8-3.9-2.6-6.5-2.6h-3.7v-5.8c0-8.6-.8-9-14.5-8.1-22.3 1.5-72.5 6.1-98 8.9-22 2.4-27.8 3-40 4-7.1.6-16.8 1.5-21.5 2-4.7.5-15.7 1.7-24.5 2.5s-24.1 2.6-34 4c-9.9 1.4-25 3.4-33.5 4.5s-18.6 2.7-22.5 3.6c-3.8.9-8.6 2.1-10.5 2.5-2 .5-4.4 1.5-5.5 2.3-2 1.5-1.9 1.5.3 1.6 1.3 0 7-.9 12.5-2.1 5.6-1.1 11.2-1.8 12.5-1.6 1.2.2 2.5 0 2.8-.4 1.3-2.1 4.1-.5 7.1 3.9 3.5 5 13 15.7 11.7 13.2-1.2-2.3-9.6-13.3-11.6-15.1-2.4-2.2-2.3-2.9.5-2.9 1.5.1 3.5 1.9 6.5 5.8 4.9 6.7 13.2 15.9 13.2 14.9 0-1.2-7.9-11.7-12.2-16.2-3.5-3.7-3.6-4.1-2-5.3 1.9-1.5 1.9-1.4 10.4 10 5.5 7.3 11.8 14.2 12.4 13.5.3-.3-.1-1.1-.9-1.8-.7-.8-3.5-4.3-6.1-7.9-2.6-3.6-6.3-8.2-8.2-10.2-4-4.4-4.1-4.8-1.1-4.8 1.5 0 3.5 1.8 6.6 6.1 5.8 7.9 11 13.7 11.1 12.2 0-.6-3.2-5-7-9.7-3.9-4.6-7-8.7-7-9 0-1.5 4.6-.4 5.5 1.3 3.2 5.9 16.5 21.7 16.5 19.4 0-.9-4.6-6.9-10.7-14-2.9-3.3-5.3-6.6-5.3-7.2 0-1.9 5-1.3 5.1.6 0 1.5.2 1.4.9-.3.7-1.8 2.2-2.2 11.2-3.3 5.6-.6 13.4-1.7 17.2-2.3 6.3-.9 7.1-.9 8.4.8 1.3 1.7 1.4 1.7.9.1-.5-1.2-.1-1.7 1.1-1.8.9 0 5.5-.4 10.2-.9 5.5-.5 8.9-.4 9.8.2.8.7 1.2.7 1.2-.1 0-1.5 4.7-1.4 5.3.1.4.9.6.7.6-.3.1-1.7 3.5-2.5 15.6-3.5 3.3-.3 8.3-.9 11-1.3 5.5-.8 7.5-.5 7.5 1.1 0 1 3.4 5.4 15 19.8 2 2.5 4.4 5.7 5.4 7.2.9 1.4 2.4 2.9 3.3 3.2.8.3-.1-1.5-2.1-4.1-2-2.7-6.2-8.2-9.3-12.3-3-4.1-6.7-8.7-8.1-10.2-1.4-1.6-2.2-3.3-1.9-4.2.8-2.1 3.7-2.1 3.7 0 0 .8.5 1.2 1 .9.6-.4.8-1.1.5-1.6-1.1-1.6 2.8-1 4.8.9 1.9 1.6 2 1.6 1.4-.1-1.1-2.8 2-3.2 4.4-.6 1.9 2.3 2 2.3 1.4.2-.5-1.9-.1-2.2 4.2-2.7 12.8-1.5 22.1-1.8 22.8-.6.5.8 1 .7 1.8-.4.8-1 3.4-1.6 8.5-1.8 4.1-.1 7.5-.6 7.8-.9.2-.4 2.5-.7 5.1-.7 4.5 0 5 .2 7.5 4.1 4.2 6.3 9.2 12.6 10.1 12.6.5.1-.7-2-2.7-4.7-6.4-8.5-8.9-12.2-8.5-12.7.3-.2 3.8-.7 7.9-1 4.1-.3 11.3-1 16-1.5 4.7-.5 14.7-1.2 22.3-1.6 13.5-.6 13.7-.6 13.7 1.5 0 2.3-1.6 2.9-2.3.8-.2-.6-.8-.9-1.2-.4-.5.4.1 1.7 1.3 3 1.1 1.2 2.5 3.4 3.1 5 .6 1.5 2.2 3.2 3.6 3.7s2.5 1.6 2.5 2.4c0 .7.7 1.9 1.5 2.6 1.4 1.1 1.4 1 .6-1.3-1.4-3.7.2-4.2 3.9-1.1 2.9 2.5 3.6 2.6 11.1 2.2 7.1-.4 8.2-.2 9.2 1.4 1.6 2.5 3 2.3 1.6-.3-1-2-.9-2.1 2-1.7 1.7.2 3.1.1 3.1-.4 0-.4 1.1-.8 2.5-.8 1.6 0 2.5.6 2.5 1.5 0 .8.5 1.5 1 1.5.6 0 1-.3 1-.8 0-.4 2.2-.5 5-.4 4.8.4 5.1.6 9.4 6.6 7.8 10.9 14.9 18.8 9.9 10.8-2.9-4.5-10-14-11.7-15.8-1-.9-1.6-1.8-1.4-2 .2-.1 4.7-.7 10.1-1.3 6.7-.7 10.6-1.6 12.5-2.9 1.5-1.1 5.4-3.4 8.7-5.2 3.3-1.8 6.8-3.8 7.8-4.4 1.3-.8 2-.8 2.7.4.8 1.3 1 1.3 1-.1 0-.9 1.7-2.3 3.8-3.2 2-.8 6.5-2.7 9.9-4.1 5.4-2.3 8.1-2.7 20.8-3.2 14.3-.6 14.6-.6 16.5 1.8 1.8 2.2 1.9 2.2 1.4.2-.6-2.1-.3-2.2 10.2-2.3 7.7-.1 11 .2 11.6 1.1.6 1 .8 1 .8 0 0-.9 2.6-1.2 9.5-1.2 5.9 0 9.5.4 9.5 1s.9 2.1 2.1 3.3c1.2 1.2 3.1 3.8 4.4 5.7 2.7 4.2 6.5 7.8 6.5 6.2 0-.7-.4-1.2-1-1.2-.5 0-1-.6-1-1.3-.1-.6-2.3-3.6-5-6.6-2.8-3-5-5.8-5-6.2 0-.5 3.7-.7 8.1-.5 6.6.2 8.4.6 9.5 2.1 1.2 1.6 1.4 1.6 1.4.3 0-2.7 1.8-3.1 3.7-.8 2 2.3 3.5 2.7 2.7.6-.8-2.1 1.7-3.2 3.1-1.2 1.1 1.5 1.4 1.5 2.5.1.7-.9 1.6-1.4 2-1.3.5.2 3.2 3.5 6.1 7.4 6.6 8.6 12.9 16 12.9 15 0-.9-7.5-11.2-11.7-15.9-1.8-2-3.3-4.4-3.3-5.3 0-2.6 3.2-1.1 6 2.7 4.8 6.9 20.4 25.9 21.3 25.9.8 0-4-7.2-7.2-10.7-.9-1-3.2-3.8-5.1-6.3-1.9-2.4-4.7-5.8-6.3-7.4-1.5-1.7-2.6-3.5-2.4-4.1.5-1.2 10.1-.7 10.5.6.2.5.9 1.5 1.6 2.2.7.6 3 3.7 5.3 6.7 5 6.8 13.8 16.3 12.4 13.3-.6-1.2-1.7-2.7-2.3-3.5-.7-.7-2.5-2.9-4-5-1.5-2-3.3-4.2-4-5-.8-.7-2.8-3.2-4.6-5.6l-3.4-4.2h8.9c8.2 0 8.9.2 10.3 2.4 2.2 3.6 12.7 17 16 20.6 1.6 1.7 3.9 4.7 5 6.6 1.2 1.8 2.6 3.4 3.2 3.4 1 0-.7-3.2-3.7-6.8-.7-.9-5.3-6.7-10.1-12.7-4.8-6.1-9.1-11.1-9.6-11.3-1.8-.8-.7-2.2 1.7-2.2 1.5 0 2.9.9 3.7 2.4 1.4 2.5 6.4 8.8 11.1 14l2.8 3.1-1.5-3c-.8-1.7-3.7-5.5-6.4-8.5-4.5-5.1-5.6-8-2.9-8 .6 0 1.9.7 2.9 1.7 1.1.9 1.8 1.1 1.8.5 0-.7 1.1-1.2 2.5-1.2s2.5.4 2.5 1c0 .5.5 1 1.1 1 .5 0 .7-.4.4-1-.3-.5 0-1.1.7-1.1 1.1-.1 13.7-.1 16.1.1.4 0 .7.6.7 1.4 0 .8.3 1.6.8 1.8.4.1 3.6 4.2 7.2 8.9 3.6 4.8 7.3 9.2 8.4 9.9 1.4.9 1.7.9 1-.2-1.2-2.1-5.4-7.7-11.2-15.1l-5.3-6.7h12.9c17.6 0 25.2.9 25.2 2.8 0 1.4.1 1.4 1.3 0 1-1.4 2.5-1.5 11.2-.8 5.5.5 14.7 1.1 20.4 1.3 7.2.4 10.6.9 11.2 1.8.6 1 .9 1.1.9.1 0-.6 1.1-1.2 2.5-1.2s2.5.6 2.5 1.2c0 1 .2 1 .8.1.9-1.4 20.7-1.3 23 .1.6.4 1.6.4 2.2.1 1.4-.9 44 1.7 44 2.7 0 .4 1.1.2 2.5-.4 3.3-1.5 2.7-3.3-1.1-3.4-1.6 0-8.7-.4-15.9-.9-7.1-.5-15.9-1-19.5-1.1-3.6-.2-18-1-32-1.8s-34.5-1.9-45.5-2.5c-11-.6-21.3-1.3-23-1.6-1.6-.2-14.7-.7-29-1-14.3-.3-34.8-.8-45.5-1-10.7-.3-40.4-.5-65.9-.5-30.7 0-46.8-.4-47.7-1.1-.8-.6-1.4-.7-1.8 0zm4.5 7.7c0 1.1.3 1.4.6.6.3-.7.2-1.6-.1-1.9-.3-.4-.6.2-.5 1.3zm35.9-1.2c0 1.3 5 8.3 8.6 12.2 2.2 2.3 5.7 6.7 7.9 9.7 2.2 3.1 4.6 5.8 5.3 6.1 1.8.8-1.3-4.3-5.5-8.9-1.8-2-3.3-3.8-3.3-4 0-.6-3.8-5.2-7.2-8.8-1.6-1.6-2.8-3.1-2.8-3.3 0-.3-.7-1.2-1.5-2-.8-.9-1.5-1.3-1.5-1zm6 0c0 .4.7 1.4 1.5 2.2.8.9 1.5 1.1 1.5.6 0-.5-.7-1.5-1.5-2.2-.8-.7-1.5-.9-1.5-.6zm-59.4 2.1c.4.8.9 1.5 1.3 1.5.3 0 1.7 1.8 3.1 4 1.4 2.2 2.8 4 3.2 4 1.4 0 .9-1.1-2.8-6.1-3.4-4.7-6-6.5-4.8-3.4zm34.9-.5c.3.5.8 1 1.1 1 .2 0 .4-.5.4-1 0-.6-.5-1-1.1-1-.5 0-.7.4-.4 1zm80.7 1c.7 1.1 1.6 2 2 2 .5 0 .8.6.8 1.4 0 .8.3 1.6.8 1.8.6.2 3.4 3.7 9.9 11.8 3.3 4.1 12.8 16 15.6 19.4 1.8 2.1 3.6 4.6 4.1 5.5.8 1.4 6.2 8.4 8.8 11.5.5.6.8.6.8 0 0-1.2-12-17.7-16-21.9-1.5-1.7-5.8-7.1-9.6-12-9.9-13-16.8-21.4-17.7-21.4-.4-.1-.2.8.5 1.9zm11.8-1.3c0 .7.4 1.5 1 1.8.5.3 3.5 4.1 6.7 8.3 3.1 4.2 6.7 8.8 8 10.1 1.3 1.3 2.3 2.7 2.3 3.1 0 .4.7 1.1 1.5 1.4.9.3-1.3-3.1-4.7-7.5-3.5-4.4-7.2-9.2-8.3-10.7-3.8-5-6.5-7.7-6.5-6.5zm6-.3c0 .4 1.2 2.3 2.8 4.1 1.5 1.8 4.5 5.6 6.7 8.5 2.2 2.9 6.1 7.8 8.6 10.9 2.5 3.1 7.4 9.4 10.7 14.1 7.6 10.5 11 14.6 11.6 13.9.5-.4-1.8-3.5-15.4-21.1-4.1-5.3-9.6-12.5-12.3-16-6-8.1-12.6-15.6-12.7-14.4zm-139 1.1c0 .3 3.6 5.1 8 10.7 4.4 5.5 8 10.5 8 10.9 0 .5.4.9 1 .9.5 0 0-1.6-1.1-3.5-1.2-1.9-2.5-3.5-3-3.5s-.9-.4-.9-1c0-1.4-10.1-15-11.1-15-.5 0-.9.2-.9.5zm54.8 2c3.2 4.6 7.2 8.9 7.2 7.8 0-.6-2.1-3.3-4.6-5.9-2.6-2.8-3.7-3.6-2.6-1.9zm24.2-1.9c0 .5.8 1.9 1.8 3 .9 1 4.1 4.9 7.1 8.6 3 3.8 5.6 6.6 5.9 6.3.2-.2-.7-1.8-2.2-3.5-1.4-1.7-2.6-3.5-2.6-3.8-.1-1.2-9.9-11.7-10-10.6zm6 .1c0 .5 1 2 2.3 3.5 3.9 4.7 5.1 6.2 9.9 12.3 5.8 7.6 8.8 11 8.8 10.1 0-1.2-19.6-26.6-20.5-26.6-.3 0-.5.3-.5.7zm18 .3c0 1.2 4.4 7 9.8 12.9 3.9 4.1 3.3 2.5-1.2-3.4-5.2-6.8-8.6-10.6-8.6-9.5zm69-.4c0 .9 8.2 12 11.7 15.9 1 1.1 3.9 4.9 6.5 8.6 4.3 6 7.8 9.9 7.8 8.6 0-.8-18.1-24.8-22.6-30.1-1.9-2.2-3.4-3.5-3.4-3zm19-.4c0 .2 1.1 1.9 2.5 3.8s2.5 2.7 2.5 1.9c0-.8-1.2-2.5-2.5-3.8-1.4-1.3-2.5-2.1-2.5-1.9zm-196 1.5c0 .7 4.4 6.8 6.7 9.3.8.8 5.3 6.6 10 12.8 4.7 6.2 8.7 11.1 9 10.8.3-.2-1-2.5-2.9-4.9-1.8-2.5-4.2-5.8-5.3-7.3-1.1-1.6-3.4-4.4-5.1-6.4-1.7-1.9-4.1-5.1-5.4-7-1.4-1.9-3-4.1-3.7-4.8-.7-.7-1.3-1.8-1.3-2.3 0-.5-.4-.9-1-.9-.5 0-1 .3-1 .7zm53 .8c.7.9 1.5 1.3 1.7 1.1.7-.7-.7-2.6-1.9-2.6-.6 0-.6.6.2 1.5zm132 .5c.6 1.1 1.3 2 1.6 2 .2 0 0-.9-.6-2s-1.3-2-1.6-2c-.2 0 0 .9.6 2zm18.1-.3c3.8 4.9 5.3 5.3 2.3.8-.9-1.4-2.1-2.5-2.6-2.5-.6 0-.4.8.3 1.7zm5.9-.6c0 .9.6 1.9 1.4 2.2.8.3 3.1 3.1 5.1 6.3 2 3.1 5 7.1 6.6 8.8 1.6 1.7 2.9 3.4 2.9 3.7 0 .3 1.4 2.3 3 4.4 1.7 2.1 3 3.2 3 2.4 0-.8-1-2.7-2.3-4.2-3.2-4.1-7.7-9.9-11.7-15.3-6.3-8.4-7.9-10.1-8-8.3zm7.1 1.1c1.2 1.3 2.9 3.4 3.8 4.9 2.9 4.6 11.4 14.9 11.9 14.5.2-.3-1.8-3.3-4.4-6.7-2.7-3.4-6.4-8.1-8.2-10.5-1.8-2.4-3.7-4.4-4.2-4.4-.6 0-.1 1 1.1 2.2zm5.5-1.3c-.3.5.4 1.7 1.6 2.7 1.1 1.1 3.1 3.5 4.4 5.4 2.6 4 9.9 12.3 8.8 10-2.7-5.6-14-19.4-14.8-18.1zm-191.6.9c0 .5.7 1.5 1.5 2.2.8.7 1.5.8 1.5.2 0-.5-.7-1.5-1.5-2.2-.8-.7-1.5-.8-1.5-.2zm6-.6c0 1.1 7 10.2 8.3 10.7 1.1.4-1.4-3.3-5.7-8.4-1.4-1.7-2.5-2.7-2.6-2.3zm7.6 3.2c1.6 2 3.3 3.6 3.8 3.6 1.2 0-3.8-6.3-5.4-6.8-.7-.3 0 1.2 1.6 3.2zm4.4-2.6c0 .5.7 1.5 1.5 2.2.8.7 1.5.8 1.5.2 0-.5-.7-1.5-1.5-2.2-.8-.7-1.5-.8-1.5-.2zm55-.4c0 .4 4.6 6.4 10.2 13.4 11.9 14.9 12.6 14.2 1-.9-7.6-10-11.2-14-11.2-12.5zm69.2.8c.9 2.2 16 21 16.5 20.4.6-.6-2-4.6-2.9-4.6-.5 0-.8-.5-.8-1.1 0-.5-2.5-4.1-5.5-7.9-5.6-7.1-8.3-9.6-7.3-6.8zm-174.7 3.9c.9 1.6 2.3 3.3 3.1 3.6.7.3 1.4 1 1.4 1.7 0 .6 1.6 2.9 3.6 5.1 5.5 6.2 3.2 1.6-3.2-6.4-3.1-3.9-5.8-7.1-6.1-7.1-.2 0 .4 1.4 1.2 3.1zm22.5-2.2c0 .5.7 1.5 1.7 2.2 1.5 1.3 1.5 1.2.4-.9-1.2-2.3-2.1-2.8-2.1-1.3zm6-.3c0 .9 8.6 12.1 11.7 15.2 2.8 2.9 1.1-.2-2.9-5.2-2.4-2.9-5.3-6.6-6.5-8.2-1.3-1.5-2.3-2.4-2.3-1.8zm73 .4c0 .5.5 1 1.1 1 .5 0 .7-.5.4-1-.3-.6-.8-1-1.1-1-.2 0-.4.4-.4 1zm68.8.6c1.1 2.2 13.7 18.1 19.3 24.4 4.7 5.3 1.4.4-8.3-12.3-8.8-11.4-13.4-16.5-11-12.1zm62.2-.8c0 .5.7 1.5 1.5 2.2.8.7 1.5.8 1.5.2 0-.5-.7-1.5-1.5-2.2-.8-.7-1.5-.8-1.5-.2zm5.5.2c.3.5 1.1 1 1.6 1 .6 0 .7-.5.4-1-.3-.6-1.1-1-1.6-1-.6 0-.7.4-.4 1zm18.7-.3c.2.6 1.5 2.6 3 4.5 1.6 1.8 3.9 4.8 5.3 6.7 1.4 1.9 2.5 2.8 2.5 2 0-1.4-3.1-5.6-8.3-11.3-1.6-1.7-2.7-2.6-2.5-1.9zm-382.2 1.8c0 .4 1.1 2 2.5 3.7 1.4 1.6 2.5 2.6 2.5 2.1 0-.4-1.1-2.1-2.5-3.7s-2.5-2.6-2.5-2.1zm180.2.7c.4 2.1 17.7 24.2 18.5 23.5.5-.6-11.9-17.3-14.7-19.7-1-.8-2.3-2.4-2.9-3.5-.9-1.5-1.1-1.6-.9-.3zm5.8-.3c0 .7.7 1.9 1.5 2.7 1.9 2 1.9.5 0-2-.9-1.1-1.5-1.4-1.5-.7zm131.5 1.7c2.8 4.3 6.2 8.4 7 8.4.3 0-.8-2-2.6-4.5-4-5.5-7.3-8.5-4.4-3.9zm73.5-.1c1.3 1.4 2.5 2.5 2.7 2.5.2 0-.4-1.1-1.3-2.5s-2.1-2.5-2.7-2.5c-.6 0 0 1.1 1.3 2.5zm6.2.4c1.2 1.6 3.1 4 4.1 5.2 2.9 3.9 1.9 1-1.3-3.7-1.7-2.4-3.6-4.4-4.1-4.4-.6 0 0 1.3 1.3 2.9zm21.8-2.1c0 .5.7 1.5 1.5 2.2.8.7 1.5.8 1.5.2 0-.5-.7-1.5-1.5-2.2-.8-.7-1.5-.8-1.5-.2zm6-.2c0 .7 5.7 8.1 8.3 10.6.9 1 1.7 1.6 1.7 1.3 0-.9-3.5-6.1-6.2-9.3-2.6-3.1-3.8-3.9-3.8-2.6zm6.1-.1c0 .5 1.3 2.6 2.9 4.5 1.6 1.9 3 3 3 2.5 0-.6-1.3-2.6-3-4.5-1.6-1.9-2.9-3.1-2.9-2.5zm13.2 2c1.6 3.2 7.7 9.5 7.7 7.9-.1-.5-2.2-3.2-4.7-5.9-3.6-3.9-4.2-4.3-3-2zm4.7-1.7c0 1.1 9.2 10.2 10.3 10.2.5 0-1-2.2-3.4-4.9-4.3-4.8-6.9-6.8-6.9-5.3zm-490 .9c0 .6 7.7 11.2 8.9 12.3.3.3 2.6 3.2 5 6.5 2.5 3.3 5 6.4 5.6 7 .7.5 1.9 2.5 2.9 4.2.9 1.8 2.1 3.3 2.7 3.3 1.3 0 .7-.9-5.4-9-6.3-8.4-7.3-9.7-13.2-18-4.5-6.2-6.5-8.2-6.5-6.3zm6-.3c0 .4.7 1.4 1.5 2.2.8.9 1.5 1.1 1.5.6 0-.5-.7-1.5-1.5-2.2-.8-.7-1.5-.9-1.5-.6zm9.6 5.6c9.4 12 11.9 15.3 12.9 16.9 3.2 5.3 9.5 12.7 9.5 11.3 0-.7-7.2-10.9-13.2-18.7-.4-.6-3.2-4.1-6-7.9-2.9-3.8-5.9-7.2-6.7-7.4-.8-.3.8 2.3 3.5 5.8zm2.4-5.6c0 .4.9 1.6 2 2.8 1.1 1.2 2 1.7 2 1.1 0-.5-.9-1.8-2-2.8-1.1-1-2-1.5-2-1.1zm185 .6c0 .6 1.7 2.9 3.7 5.2 2.1 2.4 3.9 4.5 4 4.7.2.2.6.1 1-.2.3-.4-1.5-2.9-4-5.6-2.6-2.8-4.7-4.6-4.7-4.1zm44 .1c0 .8 1.1 2.6 2.5 3.9 3.2 3 3.2 1.4 0-2.5-1.7-2-2.5-2.5-2.5-1.4zm208-.2c0 .5.7 1.5 1.7 2.2 1.5 1.3 1.5 1.2.4-.9-1.2-2.3-2.1-2.8-2.1-1.3zm24-.4c0 .5.9 2.1 2 3.5s2 2 2 1.5c0-.6-.9-2.1-2-3.5s-2-2.1-2-1.5zm26 .2c0 .5 1.1 2 2.5 3.3 1.4 1.3 2.5 1.9 2.5 1.3 0-.5-1.1-2-2.5-3.3-1.4-1.3-2.5-1.9-2.5-1.3zm-510 1.1c0 1 4.7 7.6 7.6 10.7 1.1 1.1 3 3.7 4.4 5.7 1.3 2 2.6 3.5 2.8 3.3.4-.4-5.6-9.5-6.8-10.5-.3-.3-2.1-2.6-3.9-5.3-3.1-4.6-4.1-5.5-4.1-3.9zm31.1 1.9c1.3 1.6 2.7 3.2 3.1 3.7.5.6.8.5.8-.1 0-1.4-4.4-6.3-5.5-6.3-.5 0 .2 1.2 1.6 2.7zm5.1-.7c.7 1.1 1.5 2 1.8 2 .3 0 2.8 3.1 5.5 7 2.8 3.8 5.6 7.2 6.3 7.5 1.5.5 1.1-.2-2.9-5.7-4.3-6.1-10.2-12.8-11.1-12.8-.4 0-.3.9.4 2zm6.5.4c1 1.3 1.9 2.3 2.1 2.1.7-.6-1.9-4.5-2.9-4.5-.5 0-.2 1.1.8 2.4zm119.3-1.9c0 .4 3.1 4.9 6.8 9.9 3.7 5 8.6 11.6 10.7 14.6 2.2 3 4.5 6.1 5.2 6.8.7.7 1.3 1.6 1.3 2 0 .4 1.1 2 2.5 3.6s3.8 4.9 5.3 7.3c1.5 2.3 3.3 4.5 4 4.8 1.4.5-2.6-5.7-4-6.3-.4-.2-.8-.8-.8-1.3s-.7-1.7-1.4-2.6c-.8-1-6-8.1-11.6-15.8-14.5-20-18-24.5-18-23zm6 .8c0 .7 1.2 2.4 2.6 3.8l2.7 2.4-1.7-3.2c-1.8-3.6-3.6-5.1-3.6-3zm108.7 0c2.4 4 6.9 9.7 7.7 9.7.5 0 .1-1-.8-2.3-.9-1.2-2.6-3.7-3.9-5.4-2.1-3.1-4.7-4.8-3-2zm105.3-.8c0 1.3 19.2 26.6 19.8 26.1.3-.3-5.1-8.5-8.1-12.1-.4-.6-3-4-5.8-7.8-4.6-6.2-5.9-7.5-5.9-6.2zm67-.1c0 1 9.4 12.5 9.8 12.1.3-.2-1.2-2.6-3.2-5.3-3.6-4.9-6.6-8-6.6-6.8zm-250.9 2.2c0 1.1.3 1.4.6.6.3-.7.2-1.6-.1-1.9-.3-.4-.6.2-.5 1.3zm-46.5.6c2 3.3 5.6 8.3 6.2 8.8.4.3 4.6 5.8 9.2 12.2 4.7 6.5 9.1 12 9.9 12.3 1 .4.9 0-.3-1.7-.9-1.3-2.7-3.9-4-5.8-1.3-1.9-5.7-7.9-9.9-13.2-4.2-5.3-8.1-10.6-8.7-11.8-.6-1.1-1.5-2-2.1-2-.6 0-.7.6-.3 1.2zm6 0c.9 1.5 7.3 9.8 8.7 11.3.7.6.8.4.4-.7-.9-2.5-8-11.8-9-11.8-.4 0-.5.6-.1 1.2zm220.4-.9c0 1.3 5.2 8.7 6.2 8.7.5 0-.3-1.7-1.8-3.8-3.7-4.9-4.4-5.7-4.4-4.9zm31 1c0 .7 1.4 2.6 3.1 4.3l3.2 2.9-2.8-4.3c-3-4.5-3.5-5-3.5-2.9zm-425 .5c0 .7 8.8 12.6 12.7 17.2 4.5 5.3 8.4 10.5 10.4 13.7 2.9 4.8 7.9 10.7 7.9 9.3 0-.6-.5-1.6-1-2.3-.6-.7-3.5-4.6-6.6-8.7-3-4.1-6-8.2-6.7-9-.6-.9-3.2-4.2-5.7-7.5-5.6-7.5-11-13.8-11-12.7zm431.7-.1c-.4.6.2 1.8 1.3 2.8 2.3 2.1 2.7.8.7-2-.8-1.1-1.6-1.4-2-.8zm6.3-.1c0 .6.7 1.9 1.5 3 .8 1 1.4 1.4 1.4.9 0-.6-.6-1.9-1.4-2.9-.8-1.1-1.5-1.5-1.5-1zm47 .1c0 .5 1.7 2.9 3.7 5.4 4 4.6 4.1 4.8 7.4 9.1 1.1 1.6 2.5 2.8 3 2.8.6 0-1.7-3.6-5.1-7.9-6.4-8.3-9-11-9-9.4zm-441 1.7c0 .9 1.5 3.3 3.3 5.3 1.8 2.1 4.6 5.8 6.2 8.3 3.5 5.5 21.3 29.1 23 30.5.7.5 1.8 1.9 2.5 3 .7 1.3 1 1.4.6.3-.5-1.6-5.7-9-17.5-24.8-3.1-4.1-6.3-8.4-7.1-9.6-4.6-6.8-11-14.4-11-13zm172-1c0 .4 1.2 2.3 2.8 4.1 1.5 1.8 4.5 5.6 6.7 8.5 6.4 8.4 7.4 9.6 7.5 8.5 0-.6-1-2.2-2.3-3.7-1.2-1.4-4-5-6.2-7.9-5.9-7.6-8.4-10.5-8.5-9.5zm24 .4c0 .5.7 1.5 1.5 2.2.8.7 1.5.8 1.5.2 0-.5-.7-1.5-1.5-2.2-.8-.7-1.5-.8-1.5-.2zm13.4 2c1.8 3.6 9.5 12 9.6 10.5 0-1.1-9.7-13.3-10.6-13.3-.3 0 .2 1.2 1 2.8zm190.6-2.2c0 .6.7 1.7 1.5 2.4s3.6 4.2 6.2 7.9c7.5 10.4 13.7 17.8 12.7 14.8-.3-.9-.9-1.7-1.3-1.7s-1.5-1.5-2.6-3.3c-1-1.7-3-4.6-4.4-6.2-1.4-1.7-3.5-4.4-4.6-6-3.3-4.7-7.4-9.1-7.5-7.9zm12.9 1.1c.5 1 1.6 2.7 2.5 3.8 2.1 2.7 2.1.1 0-3-1.9-2.9-4-3.5-2.5-.8zm23.1-1.1c0 .3 1.5 2.5 3.2 4.8 1.8 2.2 3.6 4.5 4 5.1 2.7 3.5 7.8 8.9 7.8 8.2 0-.8-14-18.7-14.7-18.7-.1 0-.3.3-.3.6zm-515.3 9.8c3.7 4.7 6.9 8.3 7.2 8.1.4-.5-1.8-4-4.8-7.4-1.1-1.3-2.1-2.7-2.1-3 0-1.1-5-6.1-6.1-6.1-.5 0 2.1 3.8 5.8 8.4zm8.4-4.5c1.9 2.1 4.2 5.1 5.2 6.5 1 1.4 2.3 2.6 2.9 2.6.9 0-1.9-4.3-5.7-8.7-.5-.7-1.6-1.9-2.3-2.8-.7-.8-1.8-1.5-2.4-1.5-.5 0 .5 1.8 2.3 3.9zm11.1-2.1c1.8 2.5 6.7 8.7 9.8 12.1 1.4 1.6 3.6 4.7 5 6.9 1.4 2.3 2.9 4.2 3.3 4.2 1.2 0-5.9-10.1-14.8-21.2-3-3.8-5.7-5.4-3.3-2zm5.8-1.4c0 .7 9.4 13.1 11.7 15.4.7.7 1.3 1.7 1.3 2.2 0 .5 3.3 5.1 7.3 10.2 3.9 5.1 9.2 12 11.7 15.3 2.4 3.3 5 6.6 5.7 7.3 2.4 2.4 1.3-.5-1.4-4.1-1.6-1.9-3.7-4.7-4.8-6.3-1.1-1.5-2.5-3.2-3-3.8-.6-.6-2.2-2.7-3.5-4.6-1.3-1.9-2.7-3.7-3-4-.3-.3-4.8-6.2-10-13.3-8.8-12-12-15.8-12-14.3zm42.6.8c.3 1 1 1.8 1.5 1.8s.9.7.9 1.5c0 .7.6 1.8 1.3 2.2.6.4 1.7 1.5 2.2 2.4 3.4 5.5 10.5 14 10.5 12.7 0-.9-.5-2-1.1-2.4-.6-.3-1.8-1.8-2.7-3.3-3.7-6.1-13.6-17.7-12.6-14.9zm179.4.4c.8 1 1.7 2.1 2 2.4.3.3 2.5 2.9 4.8 5.9 2.3 2.9 4.2 4.8 4.2 4.2 0-.6-1.1-2.4-2.4-3.9-1.4-1.5-3.5-4.2-4.8-6.1-1.3-1.9-3-3.7-3.8-3.9-1.3-.5-1.3-.3 0 1.4zm26.5 3.1c5 6.8 10.5 13 10.5 11.8 0-1.1-2.8-4.7-8.2-10.8-2.1-2.2-3.8-4.5-3.8-4.9 0-.4-.4-.8-1-.8-.5 0 .6 2.1 2.5 4.7zm21.5-4.4c0 1.2 8.3 11.5 9.8 12.1 1.8.8.5-1.2-5-7.5-2.7-2.9-4.8-5-4.8-4.6zm245.6 1.2c.4.8 1.1 1.5 1.6 1.5.6 0 .5-.6-.2-1.5-.7-.8-1.4-1.5-1.6-1.5-.2 0-.1.7.2 1.5zm-527.6 0c0 .4 2.9 4.3 6.5 8.8 3.5 4.5 8.3 10.7 10.7 13.7 2.4 3 6.9 9.3 10.1 14 6.1 8.8 9.8 13.3 10.4 12.6.5-.4-8.1-12.4-18.7-26.1-3.8-5-9.3-12.3-12.2-16.2-4.7-6.4-6.8-8.5-6.8-6.8zm522 .2c0 .5 1.2 2 2.6 3.4 2.4 2.1 2.6 2.2 1.6.3-1.3-2.5-4.2-5-4.2-3.7zm-533 1.1c0 .5 2.3 3.7 5 7.1 5.9 7.4 6.7 6.3 1-1.4-4-5.4-6-7.3-6-5.7zm43 .4c0 .9.7 1.9 1.6 2.2 1.5.6 1.5.4.3-1.1-.7-1-1.5-2-1.6-2.2-.2-.2-.3.3-.3 1.1zm54-.7c0 .4.9 1.9 2.1 3.3 1.1 1.5 6.6 8.8 12.1 16.2 5.6 7.4 10.4 13.7 10.8 14 .3.3 2.2 2.7 4 5.5 1.9 2.7 3.9 5.6 4.6 6.2.7.7 1.4 1.8 1.7 2.5.2.7.7 1 1.1.7.7-.6-.5-2.3-20.1-28.6-13.2-17.8-16.3-21.5-16.3-19.8zm95.6.7c1.6 2.7 6.8 8.8 7.1 8.4.6-.6-5.9-9.6-7-9.6-.4 0-.5.6-.1 1.2zm6.4-.6c0 1.5 16 22.7 16.7 22 .3-.3-.8-2.2-2.4-4.3-1.6-2.1-4.1-5.6-5.5-7.8-3.9-5.7-8.7-11.2-8.8-9.9zm24 0c0 1.1 5.2 8.7 7.7 11.2 2.2 2.3 1.5-.7-.9-3.9-5-6.4-6.7-8.4-6.8-7.3zm84-.2c0 .2.7.9 1.5 1.6 1.3 1.1 1.4 1 .9-.4-.5-1.4-2.4-2.3-2.4-1.2zm-350.3 1.2c-.3.4.6 2.1 2.1 3.9 1.5 1.8 6.2 7.8 10.5 13.4 4.3 5.5 8.1 10.1 8.3 10.1.7 0-.2-1.4-7.8-12-8.9-12.4-12.2-16.3-13.1-15.4zm6.3.2c0 .5.7 1.5 1.5 2.2.8.7 1.5.8 1.5.2 0-.5-.7-1.5-1.5-2.2-.8-.7-1.5-.8-1.5-.2zm314 0c0 .5.7 1.5 1.5 2.2.8.7 1.5.8 1.5.2 0-.5-.7-1.5-1.5-2.2-.8-.7-1.5-.8-1.5-.2zm192-.2c0 1.4 12.4 17.6 12.7 16.7.2-.6-2.4-4.8-5.8-9.2-5.8-7.7-6.9-8.9-6.9-7.5zm-513.4 8.4c6.2 7.6 9.8 11.1 7.9 7.9-4.4-7.5-11.5-15.9-13.4-15.9-.7 0 1.8 3.6 5.5 8zm20.4-7.2c0 .5 1.4 2.1 3 3.7 3.6 3.5 4.1 1.6.5-2-2.7-2.6-3.5-3-3.5-1.7zm7 0c0 .7 2.6 4.5 5.8 8.5 3.1 3.9 6.2 7.8 6.9 8.7.7.8 1.2 1 1.3.4 0-1.2-4.6-7.6-10.7-15-1.8-2.1-3.3-3.3-3.3-2.6zm7.4 1.7c1.5 3.1 5.6 7.5 5.6 5.9 0-.5-1.6-2.7-3.6-4.9-3.2-3.6-3.4-3.7-2-1zm203.8 7c3.9 5.2 7.4 9.3 7.6 9 1-.9-12.3-18.5-13.9-18.5-.5 0 2.3 4.3 6.3 9.5zm152-6.8c1.4 1.6 3.2 3.9 4.1 5.3 1 1.3 1.7 2 1.7 1.4 0-1.5-6.2-9.4-7.4-9.4-.5 0 .2 1.2 1.6 2.7zm48.8-2.3c0 1.1 6.5 9.9 8.7 11.7 1.5 1.2 1.5 1.1-.1-1.7-2.3-3.9-8.5-11.2-8.6-10zm30.5 7.3c3.1 4.3 6.6 9.3 7.7 11.2 1.3 2 2.4 2.9 2.6 2.1.3-.7 0-1.5-.5-1.9-.5-.3-3.7-4.5-7.1-9.3-3.5-4.8-6.7-9-7.3-9.4-.6-.3 1.5 2.9 4.6 7.3zm86.5-7c0 1 3.3 5.4 7.4 9.7 3 3.2 2.9 3-2.9-5.6-2.5-3.7-4.5-5.6-4.5-4.1zm-573 .7c0 .7 10.7 14.6 14.5 19 5.1 5.9 2.3 1.1-5.1-8.5-7.1-9.3-9.4-11.8-9.4-10.5zm5.5.6c.3.5.8 1 1.1 1 .2 0 .4-.5.4-1 0-.6-.5-1-1.1-1-.5 0-.7.4-.4 1zm556.5-.4c0 .5.7 1.8 1.5 2.8.8 1.1 1.5 1.6 1.5 1 0-.5-.7-1.8-1.5-2.8-.8-1.1-1.5-1.6-1.5-1zm-412.4 1.9c.4.8.8 1.5 1 1.5.2 0 .4-.7.4-1.5s-.4-1.5-1-1.5c-.5 0-.7.7-.4 1.5zm95.4-.6c0 .5.5 1.3 1 1.6.6.3 1 .2 1-.4 0-.5-.4-1.3-1-1.6-.5-.3-1-.2-1 .4zm133-.2c0 1.1 6.9 9.1 7 8.1 0-.3-1.6-2.5-3.5-4.8s-3.5-3.8-3.5-3.3zm17.6.8c.4.8 1.1 1.5 1.6 1.5.6 0 .5-.6-.2-1.5-.7-.8-1.4-1.5-1.6-1.5-.2 0-.1.7.2 1.5zm18.4-.4c0 .8 1.1 2.6 2.5 3.9 3.2 3 3.2 1.4 0-2.5-1.7-2-2.5-2.5-2.5-1.4zm112.6.2c.3 1 .9 1.5 1.2 1.2.3-.3 0-1.1-.7-1.8-1-.9-1.1-.8-.5.6zm24.6.7c.7 1 1.4 1.8 1.5 1.6.6-.6-.9-3.6-1.8-3.6-.5 0-.4.9.3 2zm42 0c.7 1 1.4 1.8 1.5 1.6.6-.6-.9-3.6-1.8-3.6-.5 0-.4.9.3 2zm-485.2-.3c0 .5 1.1 2.4 2.5 4.3s2.5 2.8 2.5 2.1c0-.7-1.1-2.6-2.5-4.3-1.4-1.6-2.5-2.6-2.5-2.1zm132-.1c0 1.3 1.8 3.9 2.4 3.4.2-.3-.2-1.4-1-2.4-.8-1.1-1.4-1.6-1.4-1zm90 .1c0 .5 1.1 2.4 2.5 4.3s2.5 2.8 2.5 2.1c0-.7-1.1-2.6-2.5-4.3-1.4-1.6-2.5-2.6-2.5-2.1zm-334 .8c0 .4 2 3.2 4.5 6.1 2.5 2.8 4.5 5.5 4.5 5.9 0 .3 1.4 2 3.1 3.8 4 4 2.9 2.1-3.7-6.8-5.1-6.9-8.4-10.5-8.4-9zm101 1.3c.6 1.3 1.4 2.1 1.8 1.8.3-.4-.2-1.4-1.2-2.4-1.8-1.6-1.8-1.6-.6.6zm73.9 2.5c3.4 5 6.5 8 5.5 5.3-.3-.9-.9-1.6-1.3-1.6-.3 0-1.7-1.8-3.1-4-1.4-2.2-2.8-4-3.3-4-.4 0 .5 1.9 2.2 4.3zm123.1-4c0 .4 4.1 6.3 9 13 5 6.7 11 15.1 13.4 18.7 4.6 6.8 10.3 12.9 9 9.7-.3-.9-1-1.7-1.5-1.7s-.9-.5-.9-1.1c0-.6-2.6-4.6-5.8-8.8-3.1-4.2-6.6-9-7.6-10.6-1.9-3-2.7-4-6.6-8.3-1.1-1.2-2-2.5-2-3-.1-1-7-8.9-7-7.9zm30.6.7c1.6 3.2 9.6 13.1 10.1 12.6.3-.3 0-1.3-.8-2.3-.8-1-2.1-2.6-2.9-3.6-3.2-4-7.2-8.1-6.4-6.7zm61.4.2c0 .8 1.2 2.5 2.7 3.9l2.7 2.4-2.4-3.5c-1.3-1.9-2.5-3.7-2.7-3.9-.2-.2-.3.2-.3 1.1zm135-.8c0 .2.7.9 1.5 1.6 1.3 1.1 1.4 1 .9-.4-.5-1.4-2.4-2.3-2.4-1.2zm37-.1c0 1.1 5 8.3 8.9 12.7 4.6 5.2 3.7 2.5-1.1-3.6-2.4-2.9-5.1-6.4-6-7.6-.9-1.3-1.7-1.9-1.8-1.5zm42 .4c0 1.5 1.9 3.7 2.6 3.1.3-.4-.1-1.4-1-2.3-.9-.9-1.6-1.3-1.6-.8zm-448 1.7c0 .9.4 1.6.9 1.6s1.2.8 1.5 1.7c.4 1 2.2 3.6 4.1 5.8 1.9 2.2 3.5 4.4 3.5 4.9s.3.7.6.3c.3-.3-1.9-4-5-8.3-3.1-4.2-5.6-6.9-5.6-6zm35-.7c0 1.1 11.7 16.3 12.5 16.3 1.4 0 0-2.4-5.1-8.6-7.1-8.7-7.4-9.1-7.4-7.7zm45.3 4c1.9 2.7 6.2 8.6 9.5 13.3 3.4 4.7 6.6 9.1 7.2 9.7.6.7 2.3 3.2 4 5.5 3.7 5.5 9.9 12.5 7.7 8.7-1.5-2.6-13-18.5-16.4-22.6-1-1.3-4.5-6.1-7.8-10.7-3.3-4.7-6.4-8.5-6.8-8.6-.5 0 .7 2.1 2.6 4.7zm259.8-3.1c0 1.1.3 1.4.6.6.3-.7.2-1.6-.1-1.9-.3-.4-.6.2-.5 1.3zm-500.1.8c0 .8.3 1.6.8 1.8.7.3 1.6 1.4 14.5 18.3 4.2 5.5 8.8 11.3 10.2 13l2.6 3-1.5-3.2c-.9-1.7-2.9-4.6-4.6-6.5-1.7-1.8-4.3-5.1-5.8-7.3-6.6-9.9-16.2-21.1-16.2-19.1zm18-.5c0 .5.7 1.5 1.7 2.2 1.5 1.3 1.5 1.2.4-.9-1.2-2.3-2.1-2.8-2.1-1.3zm19.6.6c.4.8 1.1 1.5 1.6 1.5.6 0 .5-.6-.2-1.5-.7-.8-1.4-1.5-1.6-1.5-.2 0-.1.7.2 1.5zm164.4-.9c0 .9 7.1 10.4 12.1 16.2 2 2.3 6.2 8 9.4 12.7 5.5 8 9.5 12.7 9.5 11 0-.7-6.7-10.3-8-11.5-1-.9-7.2-9-9.6-12.6-3-4.3-13.4-16.6-13.4-15.8zm12 .1c0 .6 1.6 3.1 3.5 5.5 4.3 5.3 4.4 5.4 8 10.3 1.6 2.2 4.3 5.6 6 7.5 1.7 1.9 4.6 5.9 6.4 8.7 1.9 2.9 3.6 5.1 3.9 4.9.8-.9-15-23.4-22.1-31.2-1.5-1.8-3.4-4-4.2-5-.8-1.1-1.5-1.4-1.5-.7zm73 1.3c2.5 4.7 8 11.3 8 9.6 0-.9-.4-1.6-.8-1.6-.5 0-1.8-1.7-3-3.9-1.2-2.1-2.9-4.5-3.9-5.2-1.5-1.3-1.5-1.2-.3 1.1zm28.5-1c.3.5.8 1 1.1 1 .2 0 .4-.5.4-1 0-.6-.5-1-1.1-1-.5 0-.7.4-.4 1zm67.5-.1c0 .6.4 1.3 1 1.6.6.3.7-.1.4-.9-.7-1.8-1.4-2.1-1.4-.7zm61 0c0 .7 1.5 3 3.3 5.1 6.1 7.1 9.7 11.9 9.7 12.8 0 .6.7 1.2 1.5 1.6 2.3.9 1.9-.1-4-7.7-8.1-10.8-10.4-13.3-10.5-11.8zm62-.1c0 .5.7 1.5 1.5 2.2.8.7 1.5.8 1.5.2 0-.5-.7-1.5-1.5-2.2-.8-.7-1.5-.8-1.5-.2zm68 0c0 .6 1.6 3 3.6 5.4 4.9 5.9 5.4 6.4 5.4 5.2 0-.6-2-3.4-4.5-6.3s-4.5-4.8-4.5-4.3zm-627.4 1c.6.4 2.4 2.7 4.1 5.2 1.7 2.5 4.1 5.5 5.2 6.7 1.2 1.2 2.1 2.5 2.1 2.8 0 1.1 8.4 11.3 9.8 11.9 1.8.8.5-1.4-3.5-5.8-1.8-1.9-4.9-6-6.8-9-1.9-3-4.1-5.9-4.8-6.3-.8-.4-2.2-2-3.2-3.6-.9-1.5-2.2-2.7-2.9-2.7-.7 0-.8.3 0 .8zm29.4.1c0 .5 2.4 3.8 5.3 7.3 3 3.5 6.8 8.3 8.5 10.7 1.8 2.4 3.2 3.9 3.2 3.3 0-1.2-14.4-20.7-16-21.7-.5-.3-1-.2-1 .4zm6-.3c0 .5 1.1 2.2 2.5 3.9 1.6 2 2.4 2.5 2.5 1.4 0-.8-1.1-2.6-2.5-3.9-1.4-1.3-2.5-1.9-2.5-1.4zm6 .1c0 .5 1.1 2 2.5 3.3 1.4 1.3 2.5 1.9 2.5 1.3 0-.5-1.1-2-2.5-3.3-1.4-1.3-2.5-1.9-2.5-1.3zm6-.3c0 .4 1.2 1.9 2.6 3.4 2 2.1 2.4 2.2 1.6.6-1.1-2.2-4.2-5.1-4.2-4zm488 .3c.1 1.2 3.8 5.8 4.3 5.3.3-.3-.6-1.8-1.9-3.3-1.3-1.5-2.4-2.4-2.4-2zm44 .1c0 1.2 3.9 6 4 4.9 0-.5-.9-2-2-3.4s-2-2.1-2-1.5zm-584 .8c0 1.2 2.4 4.8 6.2 9.2 1.5 1.8 2.8 2.8 2.8 2.2 0-.9-1.6-3.2-4.5-6.4-.6-.6-1.9-2.2-2.8-3.6-.9-1.3-1.7-2-1.7-1.4zm110.1.1c-.1 1.7 14.3 20.7 14.7 19.4.2-.5-2.3-4.3-5.5-8.4-3.3-4.1-6.6-8.5-7.5-9.8-1-1.3-1.7-1.9-1.7-1.2zm75.9 3.7c3.2 4.8 5 6.4 5 4.7 0-.6-.4-1.1-.8-1.1-.5 0-1.8-1.8-3.1-4-1.2-2.2-2.7-4-3.2-4-.6 0 .4 2 2.1 4.4zm57.1-3.9c-.1.5 1.3 2.5 2.9 4.4 1.7 1.8 3 3 3 2.4 0-1.2-5.9-8-5.9-6.8zm23.9.4c0 .5.7 1.4 1.5 2.1.8.7 3.8 4.4 6.7 8.4 2.9 3.9 6.4 8.5 7.8 10.2 1.4 1.7 3.8 4.7 5.4 6.8 1.6 2 3.1 3.4 3.4 3.2.2-.3-.2-1.2-.9-2-.8-.8-2.5-3.1-3.9-5.1-3.8-5.4-19-24.5-19.5-24.5-.3 0-.5.4-.5.9zm13 .4c0 .9.9 2.2 2 2.9 1.1.7 2 1.7 2 2.3.1 1.5 5.9 8.2 6 6.8 0-.6-1.9-3.5-4.1-6.5-5.7-7.3-5.9-7.5-5.9-5.5zm6-.4c0 .6 1.9 3.7 4.3 6.8 2.3 3 4.9 6.5 5.7 7.7.8 1.1 2.6 3.5 4 5.2 2.6 3.2 5.9 7.4 8.5 10.9 1.5 2 1.5 2 .8 0-.5-1.4-18.8-26.5-22.9-31.4-.2-.2-.4.1-.4.8zm18 0c0 .6.4 1.3 1 1.6.6.3.7-.1.4-.9-.7-1.8-1.4-2.1-1.4-.7zm11-.3c0 .3 2.3 3.3 5 6.6 5.9 7.1 6.7 6.8 1-.4-2.2-2.8-4-5.5-4-5.9 0-.5-.4-.9-1-.9-.5 0-1 .3-1 .6zm194.6.9c.4.8 1 1.5 1.5 1.5.4 0 .6-.7.3-1.5-.4-.8-1-1.5-1.5-1.5-.4 0-.6.7-.3 1.5zm129.5-1c0 .5 1.5 2.8 3.4 4.9 1.9 2.2 3.5 3.5 3.5 3s-1.6-2.7-3.5-4.9-3.4-3.6-3.4-3zm-609.1 1.3c0 1.3 4.1 6.4 4.7 5.8.3-.3-.6-1.9-2.1-3.6-1.4-1.7-2.6-2.7-2.6-2.2zm136.7 1.2c.3 1.1.9 2 1.5 2 .5 0 .4-.9-.2-2-.6-1.1-1.2-2-1.4-2-.2 0-.2.9.1 2zm245.3-1c0 1.5 11.8 15 13.2 15 .5 0-.1-1-1.3-2.3-1.1-1.2-4.1-4.8-6.6-8-4.4-5.7-5.3-6.5-5.3-4.7zm-288 1.1c0 .9.9 2.4 2 3.4 1.2 1 3 3.4 4.1 5.2 1.2 1.9 2.4 3.2 2.7 2.9.5-.5-2.4-5.1-6.8-10.6-1.4-1.8-2-2.1-2-.9zm104.1.9c1.6 3.3 8.9 12.4 8.9 11.2 0-.9-3.4-5.5-8.1-11.2l-2.1-2.5 1.3 2.5zm203.9-1c0 .7 1.1 2.5 2.5 4.2 1.4 1.6 2.5 2.4 2.5 1.8 0-.7-1.1-2.5-2.5-4.2-1.4-1.6-2.5-2.4-2.5-1.8zm12-.5c0 .9 8.6 13.3 12.9 18.4 2 2.4 4.8 5.9 6.4 7.9 1.5 2 2.7 3.1 2.7 2.5 0-.5-3-5-6.8-9.9-9.8-13-15.2-19.7-15.2-18.9zm30 0c0 1.2 4.2 6.6 4.7 6.1.3-.3-.6-1.9-2.1-3.6-1.4-1.7-2.6-2.9-2.6-2.5zm6 .1c0 .6 1.6 2.8 3.5 5 2 2.1 3.1 3 2.6 1.9-1.6-3-6.1-8.1-6.1-6.9zm6 .3c0 .4 1.7 2.8 3.8 5.2 2 2.4 5.6 7 8 10.1 8.5 11.7 12.5 16.8 12.8 16.8 1.5 0-.4-2.8-12.9-19.4-3.8-5.1-10.9-13.6-11.3-13.6-.2 0-.4.4-.4.9zm-466 .8c0 1.1 9.8 14.3 10.5 14.3 1.3 0 0-2.1-5-8.4-3-3.8-5.5-6.4-5.5-5.9zm160-.1c0 .5.7 1.9 1.5 3 .8 1 1.5 1.4 1.5.8 0-.5-.7-1.9-1.5-3-.8-1-1.5-1.4-1.5-.8zm247 1.4c.7 1.3 1.9 3.1 2.7 3.8 1.1 1.1 1.3 1.1 1.3-.1 0-.7-1.2-2.4-2.6-3.8l-2.7-2.4 1.3 2.5zm-425 7.6c3.8 4.8 7 9 7 9.5s.9 1.3 2 1.9c2.8 1.5 2.5.8-1.6-4.2-1.9-2.3-4.2-5.1-5-6.1-.8-.9-1.4-2-1.4-2.2 0-1-6.3-7.5-7.2-7.5-.4 0 2.3 3.9 6.2 8.6zm81.2-4.2c1.8 2.4 5 6.7 7.2 9.5 2.1 2.9 4 5 4.3 4.7.4-.4-6.4-10.1-11.1-15.7-3.8-4.5-4.2-3.4-.4 1.5zm54.9-3.7c-.1.8 15 22 21.6 30.2.2.2.5.2.7 0 .3-.3-.9-2.3-2.7-4.6-1.8-2.2-5-6.6-7.2-9.8-2.2-3.1-5.3-7.4-7-9.5-1.6-2.1-3.5-4.6-4.2-5.6-.6-1.1-1.2-1.4-1.2-.7zm54.5.3c1.4 2.5 4.7 7.2 9.3 13 2.4 3 5.5 7.3 6.9 9.5 3.2 5.1 8.2 10.9 8.2 9.5 0-.6-2.1-3.9-4.8-7.3-2.6-3.4-5.9-8-7.3-10.2-2.4-3.6-4.1-5.7-10.9-13.5-1.2-1.4-1.8-1.8-1.4-1zm137.4-.3c0 .7 1.3 2.7 2.8 4.5 1.6 1.8 6.7 8.6 11.5 15 8.4 11.3 12.3 15.6 9.7 10.8-1.4-2.6-19.4-26.5-22.1-29.5-1.1-1.1-1.9-1.4-1.9-.8zm30 0c0 .5 2.2 3.6 4.8 7 2.6 3.4 5.8 7.8 7.2 9.7 1.4 1.9 2.6 3.3 2.8 3.1.4-.4-1.6-4.3-3-5.9-.5-.6-3.1-4.1-5.9-7.9-4.8-6.4-5.9-7.6-5.9-6zm18 .2c0 .6.8 1.9 1.8 2.9.9.9 2.8 3.3 4.2 5.2 3.2 4.6 3.4 4.9 6.7 9 1.6 1.9 4.8 6.1 7.2 9.3 2.4 3.2 4.6 5.5 4.9 5.3.5-.5-22.3-31.2-23.9-32.2-.5-.3-.9 0-.9.5zm6.8.7c1.3 2.5 4.2 5 4.2 3.7 0-.5-1.2-2-2.6-3.4-2.4-2.1-2.6-2.2-1.6-.3zm67.2-.7c0 .7 1.1 2.6 2.5 4.3 1.4 1.6 2.5 2.5 2.5 1.9 0-.5-.6-1.6-1.3-2.3-.7-.7-1.8-2.2-2.5-3.3-.7-1.2-1.2-1.4-1.2-.6zm6-.2c0 1.6 4 6.3 5.3 6.3.8 0 .8-.3.2-.8-.6-.4-2.1-2-3.3-3.6-1.2-1.6-2.2-2.4-2.2-1.9zm-442 .9c0 .6.7 1.9 1.5 3 .8 1 1.4 1.4 1.4.9 0-.6-.6-1.9-1.4-2.9-.8-1.1-1.5-1.5-1.5-1zm85 .5c0 .8 1.6 3.1 3.5 5.2 4.3 4.7 4.6 3.4.4-1.9-4-5-3.9-5-3.9-3.3zm363-.7c0 .4 1.4 2.4 3 4.3 1.7 1.8 3 2.9 3 2.4 0-1.3-5.9-7.9-6-6.7zm118 .2c0 .6.7 1.9 1.5 3 .8 1 1.4 1.4 1.4.9 0-.6-.6-1.9-1.4-2.9-.8-1.1-1.5-1.5-1.5-1zm-621.9 2c0 1.1.3 1.4.6.6.3-.7.2-1.6-.1-1.9-.3-.4-.6.2-.5 1.3zm97.9-.9c0 1.1 6.9 9.1 7 8.1 0-.3-1.6-2.5-3.5-4.8s-3.5-3.8-3.5-3.3zm112 .5c0 .9.3 1.8.8 2 .4.1 4.5 5.5 9.1 11.8 9.2 12.5 11.1 14.8 11.1 13.1 0-.6-3.9-6.2-8.6-12.4-12.9-17-12.4-16.4-12.4-14.5zm84-.6c0 .6.7 1.9 1.5 3 .8 1 1.4 1.4 1.4.9 0-.6-.6-1.9-1.4-2.9-.8-1.1-1.5-1.5-1.5-1zm59-.1c0 .2.8 1.1 1.8 2.1.9 1 3.2 3.8 5 6.3 1.7 2.5 3.2 4 3.2 3.3 0-1.7-7-10.9-8.7-11.6-.7-.3-1.3-.4-1.3-.1zm97-.1c0 .8 5.4 8.3 9.5 13.3.6.7 2.4 3 4 5.2 1.7 2.2 3.3 4 3.8 4.1 1.1 0-2-4.7-7.7-11.6-2.8-3.4-6.1-7.4-7.3-9-1.3-1.5-2.3-2.4-2.3-2zm104.1-.1c-.1.7 3.2 5.5 6.4 9.4 2.4 2.9 3.2 3.9 4.8 6.3.9 1.3 1.7 1.9 1.7 1.2 0-.8-1.9-3.7-4.2-6.6-2.4-2.9-5.3-6.6-6.5-8.2-1.2-1.6-2.2-2.5-2.2-2.1zm18.9 1.2c0 .8.4 1.5.8 1.5s1.6 1.4 2.7 3.2c1 1.8 2 2.7 2.3 2 .2-.7-1-2.8-2.7-4.8-1.9-2.1-3.1-2.9-3.1-1.9zm30.5-.5c.3.5.8 1 1.1 1 .2 0 .4-.5.4-1 0-.6-.5-1-1.1-1-.5 0-.7.4-.4 1zm6.5-.1c0 .6.4 1.3 1 1.6.6.3.7-.1.4-.9-.7-1.8-1.4-2.1-1.4-.7zm-616 .6c0 1.4 8 11.5 9.1 11.5.6 0-.4-2-2.2-4.5-3.5-4.8-6.9-8.3-6.9-7zm356.4 1.7c.5 1.8 7.5 11.8 8.3 11.8.8 0-3.8-7.6-6.4-10.6-1.4-1.6-2.2-2.2-1.9-1.2zm95.6-.3c0 .6.4 1.3 1 1.6.6.3.7-.1.4-.9-.7-1.8-1.4-2.1-1.4-.7zm18-.5c0 .8 3.8 6.6 5 7.6.3.3 2.7 3.5 5.3 7.2 4.7 6.6 6.7 8.7 6.7 7.1 0-.9-.2-1.2-8-11.3-8.7-11.1-9-11.5-9-10.6zm104 .2c0 .3 1.1 1.9 2.5 3.6 1.4 1.6 2.5 2.4 2.5 1.8 0-.6-1.1-2.2-2.5-3.6s-2.5-2.2-2.5-1.8zm69 .1c0 .4.5 1.5 1 2.3.8 1.3 1 1.3 1-.2 0-.9-.4-2-1-2.3-.5-.3-1-.3-1 .2zm18.1-.2c0 1.4 2.8 5 3.4 4.3.3-.3-.3-1.6-1.4-2.9-1.1-1.3-2-2-2-1.4zm-665.1 1.6c0 .8 2.1 3.8 4.5 6.7 4.7 5.6 5.9 5.9 2.6.7-3-4.6-7.1-9-7.1-7.4zm80-.2c0 .6.9 2 2 3.1s3.9 4.7 6.2 8.1c2.3 3.4 4.4 5.7 4.6 5.1.2-.7-1.1-3.1-3-5.5-1.8-2.3-3.6-4.7-4-5.2-2.5-3.4-5.8-6.6-5.8-5.6zm6 .5c0 .8.4 1.6.8 1.8.4.1 1.8 1.8 3.1 3.5 1.2 1.8 2.7 3.3 3.2 3.3 1 0-4.7-8.7-6.3-9.6-.5-.3-.8.1-.8 1zm12-.7c0 .6.9 2.2 2 3.5 6.3 7.5 7 8.2 6.3 6.3-.4-1-1.5-2.8-2.4-4-1-1.1-2.7-3.1-3.8-4.5-1.1-1.4-2-2-2.1-1.3zm202-.1c0 .6 1.1 2.1 2.5 3.4 3.2 3 3.2 2.1 0-1.6-1.4-1.6-2.5-2.4-2.5-1.8zm304 0c0 .5 1.1 2.5 2.5 4.4 1.7 2.3 2.5 2.8 2.5 1.7 0-.9-.3-1.7-.8-1.7-.4 0-1.5-1.2-2.4-2.8-1-1.5-1.8-2.2-1.8-1.6zm12-.1c0 .5 1.6 3 3.5 5.4 1.9 2.4 3.5 4.8 3.5 5.2 0 .5.5.9 1.1.9.9 0-1.2-3.7-4.4-7.5-.4-.6-1.4-1.9-2.2-3-.8-1.1-1.4-1.6-1.5-1zm-546 1.5c0 1.8 10 14.4 10.7 13.6.3-.3-1.2-2.7-3.4-5.3-2.2-2.6-4.7-5.9-5.6-7.3-1.1-1.5-1.7-1.9-1.7-1zm72-.2c0 .6 1.1 2.4 2.5 3.9 1.9 2.1 2.3 2.3 1.8.8-.9-2.5-4.3-6.3-4.3-4.7zm56.9.7c1.4 3 4 6.1 4.1 5 0-.6-1.2-2.4-2.6-4-1.4-1.7-2.1-2.1-1.5-1zm228.1-.5c0 .7 1.2 2.7 2.8 4.5 1.5 1.8 4.9 6.4 7.5 10.1 5.9 8.6 8.6 11.8 9.2 11.2.3-.3-3.8-6.3-9.1-13.4-11.1-14.9-10.4-14.1-10.4-12.4zm55-.2c0 .5 1.5 2.8 3.3 5.1 1.7 2.2 4 5.2 5 6.6 1.1 1.5 2.1 2.4 2.4 2.1.3-.3-.6-2-2.1-3.8-1.4-1.8-3-3.8-3.4-4.3-3.7-5-5.2-6.6-5.2-5.7zm6-.2c0 .5.7 1.8 1.5 2.8.8 1.1 1.5 1.6 1.5 1 0-.5-.7-1.8-1.5-2.8-.8-1.1-1.5-1.6-1.5-1zm6 .1c0 .4 1.1 2.1 2.5 3.7s2.5 2.6 2.5 2.1c0-.4-1.1-2-2.5-3.7-1.4-1.6-2.5-2.6-2.5-2.1zm36-.2c0 .6 1.6 2.8 3.6 5 1.9 2.2 3.1 3.1 2.5 2-1.5-3-6-8.2-6.1-7zm62.5 1.5c1 1.1 2 1.8 2.3 1.5.7-.6-1.8-3.5-3.1-3.5-.5 0-.2.9.8 2zm5.5-1.1c0 .5.5 1.3 1 1.6.6.3 1 .2 1-.4 0-.5-.4-1.3-1-1.6-.5-.3-1-.2-1 .4zm38.1.7c0 1.1.3 1.4.6.6.3-.7.2-1.6-.1-1.9-.3-.4-.6.2-.5 1.3zm41.9-1.2c0 .2.7.9 1.5 1.6 1.3 1.1 1.4 1 .9-.4-.5-1.4-2.4-2.3-2.4-1.2zm-570.3 4.3c1.5 2.1 3.9 5.2 5.3 6.9 1.4 1.7 3.1 3.9 3.8 5 1 1.5 1.2 1.5.8.2-.7-2.5-10.6-15.8-11.7-15.8-.6 0 .2 1.7 1.8 3.7zm128.3-2.9c0 1.7 15 21.5 15.8 20.8.5-.6-4-7.5-8.7-13.2-1.4-1.7-3.6-4.4-4.8-5.9-1.3-1.6-2.3-2.4-2.3-1.7zm24 .1c0 .7 2.8 4.9 6.2 9.4 7.5 10 7.6 10.2 8.3 9.5.3-.3-2.4-4.5-6.1-9.4-7.8-10.5-8.4-11.2-8.4-9.5zm48 .1c0 .7 1.4 2.9 3 4.9 3.5 4.1 3 3.5 9.2 12.1 5.5 7.8 10.8 13.8 10.8 12.3 0-.6-5.2-7.7-11.5-15.8-6.3-8.1-11.5-14.2-11.5-13.5zm72 0c0 1.3 11.9 18 15.1 21.2.9.9 1.9 2.3 2.2 3 .2.7.7 1 1 .7.4-.3-2.1-4.3-5.6-8.8-3.4-4.6-6.9-9.3-7.7-10.5-3.5-5.1-5-6.8-5-5.6zm24-.1c0 1.2 10.4 15.9 14.4 20.4 1.4 1.6 2.7 3.4 2.9 4 .2.7.7.9 1.1.6.4-.4-.4-1.9-1.7-3.5-1.4-1.6-4.6-6.1-7.2-9.9-5.8-8.5-9.5-13-9.5-11.6zm36-.1c0 .5.7 1.5 1.5 2.2.8.7 1.5.9 1.5.6 0-.4-.7-1.4-1.5-2.2-.8-.9-1.5-1.1-1.5-.6zm6 0c0 .5 1.1 2.2 2.5 3.8 1.4 1.6 3.5 4.4 4.7 6.2 1.1 1.8 2.2 3.1 2.5 2.8.5-.5-1.2-3.9-2.9-5.8-.7-.7-2.5-2.8-4.1-4.6-1.5-1.9-2.7-2.9-2.7-2.4zm-450 1.9c1.9 3.3 5.9 7.7 6.5 7.2.3-.4-.9-2.5-2.7-4.7-3.3-4.1-5.7-5.7-3.8-2.5zm18-1c0 1.2 9.2 12.5 9.7 11.9.3-.2-1.4-2.9-3.6-5.9-4-5.5-6.1-7.6-6.1-6zm162.5 2c2.7 4.3 9.7 13.3 10.8 14 1.4.9.2-1.1-6.1-9.5-5.3-7.2-8-9.7-4.7-4.5zm11.4-.9c.6 1.2 1.6 2.4 2.2 2.8.8.4.8.1 0-1.4-.6-1.2-1.6-2.4-2.2-2.8-.8-.4-.8-.1 0 1.4zm54.7-.3c.4.8 1 1.5 1.5 1.5.4 0 .6-.7.3-1.5-.4-.8-1-1.5-1.5-1.5-.4 0-.6.7-.3 1.5zm53.4-1.1c0 .2.7.9 1.5 1.6 1.3 1.1 1.4 1 .9-.4-.5-1.4-2.4-2.3-2.4-1.2zm212 .3c0 .9 3.3 5.7 5 7.3 1.4 1.3 7 9 7 9.6 0 1 4.4 5.4 5.5 5.4.7 0 .7-.3 0-.8-.5-.4-2.6-2.9-4.5-5.7-1.9-2.7-4.2-5.7-5.2-6.7s-1.8-2.1-1.8-2.6c-.1-1.2-6-7.7-6-6.5zm18 1.1c.6 1.3 1.4 2.1 1.8 1.8.3-.4-.2-1.4-1.2-2.4-1.8-1.6-1.8-1.6-.6.6zm12-1.1c0 .7 1.2 2.5 2.6 4 1.6 1.8 2.2 2.1 1.5.8-1.5-3.2-4-6.1-4.1-4.8zm-478 1.1c0 .6.7 2 1.4 2.9.8 1 2.4 2.9 3.5 4.3s2 2 2.1 1.4c0-.5-.8-1.9-1.8-3-1-1-2.5-3-3.5-4.4-.9-1.3-1.7-1.9-1.7-1.2zm578-.5c0 .4 1.6 3 3.5 5.8s3.5 4.6 3.5 3.9c0-.6-1.2-2.8-2.7-4.8-3.6-4.9-4.3-5.7-4.3-4.9zm-646.4 2c.3 1 .9 1.5 1.2 1.2.3-.3 0-1.1-.7-1.8-1-.9-1.1-.8-.5.6zm221.4-.9c0 .2.7.9 1.5 1.6 1.3 1.1 1.4 1 .9-.4-.5-1.4-2.4-2.3-2.4-1.2zm163 .3c0 .5.7 1.8 1.5 2.9 1.3 1.8 1.4 1.8.8-.4-.5-2.2-2.3-4.1-2.3-2.5zm18-.1c0 .5.7 1.8 1.5 2.8 1.2 1.6 1.5 1.7 1.5.4 0-.8-.7-2.1-1.5-2.8-.8-.7-1.5-.9-1.5-.4zm61.2 1.4c.7 1 1.4 1.8 1.5 1.6.6-.6-.9-3.6-1.8-3.6-.5 0-.4.9.3 2zm97.4-.7c.3 1 .9 1.5 1.2 1.2.3-.3 0-1.1-.7-1.8-1-.9-1.1-.8-.5.6zm61.4-1c0 .4.6 2 1.4 3.6 1.7 3.2 4.6 5.9 4.6 4.3 0-.6-.5-1.4-1.1-1.8-.6-.3-1.9-2-3-3.8-1-1.7-1.9-2.7-1.9-2.3zm55.6 1.2c.4.8 1.1 1.5 1.6 1.5.6 0 .5-.6-.2-1.5-.7-.8-1.4-1.5-1.6-1.5-.2 0-.1.7.2 1.5zm-510.6 1c0 .9.7 1.8 1.5 2.1.8.4 1.5 1.1 1.5 1.6 0 1.4 6.2 9.9 6.8 9.3.5-.5-8.6-14.5-9.4-14.5-.2 0-.4.7-.4 1.5zm-43 .4c0 .6.4 1.3 1 1.6.6.3.7-.1.4-.9-.7-1.8-1.4-2.1-1.4-.7zm12-.1c0 .4 1.1 2.3 2.5 4.2 3 4.1 3.3 3 .4-1.6-2.1-3.4-2.9-4.1-2.9-2.6zm6 0c0 .6 1.5 2.8 3.3 5 1.7 2.2 4.9 6.1 7 8.7 2 2.6 3.7 4.4 3.7 3.9 0-.5-3.1-4.9-7-9.8-3.8-4.8-7-8.3-7-7.8zm50 .1c0 .5 1.5 2.7 3.3 4.8 1.7 2.2 4.1 5.2 5.2 6.7 3.7 5.3 6.7 8.7 7.2 8.2.3-.3 0-1.1-.6-1.8s-4.1-5.2-7.6-10.1c-6.4-8.5-7.5-9.7-7.5-7.8zm62-.4c0 1.6 8.4 13.4 9.9 14 1.6.6-.8-3.5-4.4-7.5-1.2-1.4-2.9-3.6-3.8-5-1-1.3-1.7-2-1.7-1.5zm36 .2c0 1 5.1 8.2 9.1 13 1.5 1.7 2.9 3.7 3.1 4.5.3.7.8 1 1.1.7.4-.3-1.4-3.4-4-7-6-8.3-9.3-12.3-9.3-11.2zm6 .1c0 .5.7 1.5 1.5 2.2.8.7 1.5.9 1.5.6 0-.4-.7-1.4-1.5-2.2-.8-.9-1.5-1.1-1.5-.6zm12 .3c.1 1.9 4.9 7.3 5.8 6.5.3-.4.2-1-.4-1.4-.5-.4-2-2-3.2-3.6-1.2-1.6-2.2-2.2-2.2-1.5zm18-.2c0 .6.4 1.3 1 1.6.6.3.7-.1.4-.9-.7-1.8-1.4-2.1-1.4-.7zm211 .3c0 .8.7 2.1 1.5 2.8 1.9 1.6 1.9.1 0-2.4-1.2-1.6-1.5-1.7-1.5-.4zm61.9.3c1.6 3.1 4 5.9 4.6 5.4.2-.3-.9-2.1-2.6-4-1.6-1.9-2.5-2.5-2-1.4zm68.1-.6c0 .6.4 1.3 1 1.6.6.3.7-.1.4-.9-.7-1.8-1.4-2.1-1.4-.7zm-400.9.6c.8 2.3 8.5 12.5 9.7 13 .8.3-.3-1.9-2.4-4.7-3.9-5.5-7.9-10-7.3-8.3zm11.9-.3c0 .9 14.8 20.5 16.1 21.3.5.4.6-.1.3-.9-.3-.9-.9-1.6-1.3-1.6s-1.5-1.5-2.6-3.3c-1-1.7-2.4-3.8-2.9-4.4-.6-.7-1.9-2.3-2.8-3.5-3.4-4.5-6.7-8.3-6.8-7.6zm75.1 4.5c3.9 6.1 6.4 9.6 11.4 15.8 2.1 2.8 4.1 5.2 4.2 5.4.2.2.5.2.8-.1.3-.2-.6-1.8-2-3.4-1.4-1.6-2.5-3.2-2.5-3.5 0-.3-.8-1.5-1.7-2.6-1-1.1-4-5.2-6.8-9.1-5.6-8-8.1-9.8-3.4-2.5zm9.9-3.4c0 .8 1 2.2 2.1 3.3l2.2 1.9-1.7-3.3c-1.8-3.4-2.6-4-2.6-1.9zm-207 .4c0 1.5 4.6 7 5.3 6.3.3-.3-.8-2.1-2.4-4-1.5-1.9-2.9-3-2.9-2.3zm159-.4c0 .8 5.3 8.5 10.7 15.6 1.8 2.4 3.3 3.7 3.3 2.9 0-.8-2.5-4.8-5.6-8.9-6.3-8.3-8.4-10.7-8.4-9.6zm193 .2c0 .8 7.2 10.5 7.7 10.5s-1.8-4.4-2.6-5c-.4-.3-1.7-1.8-2.9-3.4-1.2-1.6-2.2-2.5-2.2-2.1zm24 .1c0 .6 4.8 7.1 6.8 9.2 2.4 2.7 1.1-.1-2.4-4.9-3.4-4.6-4.4-5.6-4.4-4.3zm62 .1c0 1.4 7.1 10.6 7.7 9.9.3-.3-.9-2.4-2.8-4.8-4.6-6-4.9-6.4-4.9-5.1zm-504 1.1c0 .5.7 1.5 1.5 2.2.8.7 1.5.8 1.5.2 0-.5-.7-1.5-1.5-2.2-.8-.7-1.5-.8-1.5-.2zm316-.3c0 1 8.9 14.3 10.1 15.1 1.9 1.1.8-1.3-2.1-4.6-1.6-1.9-3-3.8-3-4.1 0-.3-1.1-2-2.5-3.9s-2.5-3-2.5-2.5zm-278.8 2.5c.7 1 1.4 1.8 1.5 1.6.6-.6-.9-3.6-1.8-3.6-.5 0-.4.9.3 2zm74.8-1.3c0 1.4 8.1 12.5 8.7 11.9.3-.3-1.5-3.3-4.1-6.7-2.5-3.3-4.6-5.7-4.6-5.2zm24-.1c0 .5.7 1.8 1.5 2.8 1.2 1.6 1.5 1.7 1.5.4 0-.8-.7-2.1-1.5-2.8-.8-.7-1.5-.9-1.5-.4zm103.9 1.8c1.4 1.4 2.7 2.6 2.9 2.6 1 0-2.6-4.4-3.9-4.8-.8-.3-.3.7 1 2.2zm53-.6c.6 1.2 1.6 2.4 2.2 2.8.8.4.8.1 0-1.4-.6-1.2-1.6-2.4-2.2-2.8-.8-.4-.8-.1 0 1.4zm6 0c.6 1.2 1.6 2.4 2.2 2.8.8.4.8.1 0-1.4-.6-1.2-1.6-2.4-2.2-2.8-.8-.4-.8-.1 0 1.4zm23.1-1c0 1.2 1.9 2.6 2.6 1.9.2-.2-.2-1-1.1-1.7-.9-.8-1.5-.8-1.5-.2zm73-.5c0 .5.9 2 2 3.4s2 2.1 2 1.5c0-1.2-3.9-6-4-4.9zm18.5.8c3.6 6 8.4 11.9 9.7 11.9 1 0-7.6-11.5-9.4-12.6-.7-.5-.8-.2-.3.7zm24.5-.4c0 .5.9 1.8 2 2.8 1.1 1 2 1.6 2 1.3 0-.3-.9-1.5-2-2.8-1.1-1.3-2-1.9-2-1.3zm18-.1c0 .5 1.1 2.2 2.5 3.9 2 2.5 2.3 2.7 1.8.8-.5-2.2-4.3-6.3-4.3-4.7zm31.9 2.2c3.1 4.4 5 5.3 2.4 1.2-1.2-1.9-2.7-3.6-3.4-3.9-.7-.2-.2 1 1 2.7zm30.1-2.2c0 .5.7 1.9 1.5 3 .8 1 1.5 1.4 1.5.8 0-.5-.7-1.9-1.5-3-.8-1-1.5-1.4-1.5-.8zm6.1-.1c0 .5.6 1.9 1.4 2.9.8 1.1 1.5 1.5 1.5 1 0-.6-.7-1.9-1.5-3-.8-1-1.4-1.5-1.4-.9zm-449.1 2c0 .8.4 1.5 1 1.5.5 0 .7-.7.4-1.5-.4-.8-.8-1.5-1-1.5-.2 0-.4.7-.4 1.5zm135-.3c0 .9.3 1.8.8 2 .4.1 2.5 2.9 4.6 6 2.2 3.2 4.8 6.6 5.9 7.5 1.9 1.6 1.8 1.4-.3-2.2-2-3.3-6.8-9.9-10.2-14-.5-.5-.8-.2-.8.7zm253-.5c0 1.3 3.9 5.7 4.5 5.1.2-.2-.8-1.7-2.1-3.3-1.3-1.7-2.4-2.4-2.4-1.8zm13 .4c.1.8 1.4 3 3 4.9 3.9 4.5 3.8 2.7 0-2.4-1.7-2.2-3-3.3-3-2.5zm-542.5.9c.3.5.8 1 1.1 1 .2 0 .4-.5.4-1 0-.6-.5-1-1.1-1-.5 0-.7.4-.4 1zm32.5-.2c0 .5.7 1.5 1.5 2.2.8.7 1.5.8 1.5.2 0-.5-.7-1.5-1.5-2.2-.8-.7-1.5-.8-1.5-.2zm322 .2c0 .9 1.7 3.2 4.5 6.4.6.6 1.9 2.2 2.9 3.6s1.6 1.8 1.3.8c-.6-1.8-7.6-11.8-8.3-11.8-.2 0-.4.4-.4 1zm90-.6c0 .2.7.9 1.5 1.6 1.3 1.1 1.4 1 .9-.4-.5-1.4-2.4-2.3-2.4-1.2zm9.9 5.3c5.6 8 7 9.7 7.6 9.2.2-.3-.6-1.6-1.8-3-2.2-2.5-3.2-3.9-6.5-9.1-.9-1.6-2.1-2.8-2.5-2.8-.4 0 1 2.6 3.2 5.7zm64.8-2.7c2.3 4 6.3 8.6 6.3 7.3 0-1.1-6.8-10.3-7.6-10.3-.3 0 .3 1.3 1.3 3zm-412.7-.3c0 1.2 4.9 7.3 5 6.2 0-.3-1.1-2-2.5-3.9s-2.5-2.9-2.5-2.3zm12 .2c0 .6.4 1.3 1 1.6.6.3.7-.1.4-.9-.7-1.8-1.4-2.1-1.4-.7zm12-.2c0 .6 1.6 2.8 3.5 4.9 1.9 2.1 3.5 4.2 3.5 4.6 0 .4.5.8 1.1.8.7 0 .5-.9-.4-2.4-2.5-3.7-7.7-9.2-7.7-7.9zm31-.3c0 .2.8 1 1.8 1.7 1.5 1.3 1.6 1.2.3-.4s-2.1-2.1-2.1-1.3zm185 3.8c1.9 2.6 3.6 4.6 3.8 4.3.5-.5-3.2-5.7-5.4-7.6-.9-.8-.2.7 1.6 3.3zm45.6-2.9c.3 1 .9 1.5 1.2 1.2.3-.3 0-1.1-.7-1.8-1-.9-1.1-.8-.5.6zm189 .2c.4.8 1.1 1.5 1.6 1.5.6 0 .5-.6-.2-1.5-.7-.8-1.4-1.5-1.6-1.5-.2 0-.1.7.2 1.5zm-492.6.5c0 .5.5 1 1.1 1 .5 0 .7-.5.4-1-.3-.6-.8-1-1.1-1-.2 0-.4.4-.4 1zm6-.2c0 .5.7 1.5 1.5 2.2.8.7 1.5.8 1.5.2 0-.5-.7-1.5-1.5-2.2-.8-.7-1.5-.8-1.5-.2zm63 .4c0 .9.5 2 1 2.3 1.3.8 1.3-.5 0-2.5-.8-1.3-1-1.3-1 .2zm37-.2c0 1.8 5 9 6.2 9 1 0 .6-.9-3.4-6.4-1.5-2.1-2.8-3.3-2.8-2.6zm12-.2c0 1.4 4.9 7 5 5.7 0-.6-1.1-2.3-2.5-3.9s-2.5-2.4-2.5-1.8zm400.1.8c0 1.1.3 1.4.6.6.3-.7.2-1.6-.1-1.9-.3-.4-.6.2-.5 1.3zm-314.6.5c3.2 5.5 7.9 11.9 8.6 11.9 1.1 0-6.5-11.5-8.2-12.6-.8-.5-.9-.3-.4.7zm71.5-.4c0 1.2 4.9 7.3 5 6.2 0-.3-1.1-2-2.5-3.9s-2.5-2.9-2.5-2.3zm5-.6c0 .3 1.1 2 2.5 3.9s2.5 2.9 2.5 2.3c0-1.2-4.9-7.3-5-6.2zm74 .6c0 1.2 4.9 7.3 5 6.2 0-.3-1.1-2-2.5-3.9s-2.5-2.9-2.5-2.3zm5.9 1c1.1 2.2 3 3.8 3.5 3.2.2-.2-.8-1.5-2.1-2.9-2.3-2.3-2.4-2.3-1.4-.3zm61 .1c.6 1.2 1.6 2.4 2.2 2.8.8.4.8.1 0-1.4-.6-1.2-1.6-2.4-2.2-2.8-.8-.4-.8-.1 0 1.4zm-97.9.1c0 .5.5 1.3 1 1.6.6.3 1 .2 1-.4 0-.5-.4-1.3-1-1.6-.5-.3-1-.2-1 .4zm-308 .7c0 .5.7 1.8 1.5 2.8.8 1.1 1.5 1.6 1.5 1 0-.5-.7-1.8-1.5-2.8-.8-1.1-1.5-1.6-1.5-1zm18 .2c0 .8 4.8 6.2 5.6 6.2.3 0-.7-1.6-2.2-3.5-2.7-3.5-3.4-4.1-3.4-2.7zm19 .2c0 .6 1.2 2.3 2.6 3.8l2.6 2.7-1.6-3.2c-1.7-3.4-3.6-5.1-3.6-3.3zm88.6 3c1.5 2.2 2.9 3.8 3.1 3.6.6-.6-4-7.6-5-7.6-.4 0 .5 1.8 1.9 4zm207.4-3.6c0 .2.7.9 1.5 1.6 1.3 1.1 1.4 1 .9-.4-.5-1.4-2.4-2.3-2.4-1.2zm44 1.4c.6 1.3 1.4 2.1 1.8 1.8.3-.4-.2-1.4-1.2-2.4-1.8-1.6-1.8-1.6-.6.6zm47-1.4c0 .2.7.9 1.5 1.6 1.3 1.1 1.4 1 .9-.4-.5-1.4-2.4-2.3-2.4-1.2zm7 .4c0 .5.7 1.5 1.5 2.2.8.7 1.5.8 1.5.2 0-.5-.7-1.5-1.5-2.2-.8-.7-1.5-.8-1.5-.2zm25 1c.6 1.3 1.4 2.1 1.8 1.8.3-.4-.2-1.4-1.2-2.4-1.8-1.6-1.8-1.6-.6.6zm-399 1.1c0 .5.5 1.3 1 1.6.6.3 1 .2 1-.4 0-.5-.4-1.3-1-1.6-.5-.3-1-.2-1 .4zm6.6.4c.3 1 .9 1.5 1.2 1.2.3-.3 0-1.1-.7-1.8-1-.9-1.1-.8-.5.6zm147.4 1.7c3 4.3 4.4 4.7 1.7.6-1.2-1.9-2.6-3.5-3-3.6-.5 0 .1 1.3 1.3 3zm-158.8 0c1.4 2.2 2.4 1.9 1.5-.5-.4-.8-1.1-1.5-1.7-1.5-.6 0-.6.7.2 2zm258.8-1.3c.1 1.4 3 4.7 3.6 4.1.3-.4-.4-1.6-1.5-2.7-1.2-1.2-2.1-1.8-2.1-1.4zm49 .2c0 .6 1.4 2.5 3.1 4.3l3.1 3.3-1.9-3.3c-2.1-3.8-4.3-6.1-4.3-4.3zm-351 1c0 .6.4 1.3 1 1.6.6.3.7-.1.4-.9-.7-1.8-1.4-2.1-1.4-.7zm141.6.6c.4.8 1.1 1.5 1.6 1.5.6 0 .5-.6-.2-1.5-.7-.8-1.4-1.5-1.6-1.5-.2 0-.1.7.2 1.5zm229.4-1.2c0 1.6 2.4 5.7 3.7 6.1.9.4.6-.6-.8-2.7-2.9-4.2-2.9-4.1-2.9-3.4zm-136.9 3.7c1.4 3.1 1.9 3.6 1.9 2.4 0-.6-.7-1.9-1.6-3-1.4-1.8-1.4-1.8-.3.6zm65.1 0c.7 1 1.4 1.8 1.5 1.6.6-.6-.9-3.6-1.8-3.6-.5 0-.4.9.3 2zm36.4-.7c.3 1 .9 1.5 1.2 1.2.3-.3 0-1.1-.7-1.8-1-.9-1.1-.8-.5.6zm24 .2c.4.8 1 1.5 1.5 1.5.4 0 .6-.7.3-1.5-.4-.8-1-1.5-1.5-1.5-.4 0-.6.7-.3 1.5zm6 0c.4.8 1.1 1.5 1.6 1.5.6 0 .5-.6-.2-1.5-.7-.8-1.4-1.5-1.6-1.5-.2 0-.1.7.2 1.5zm-251.6 0c0 1.5 1.8 4 2.4 3.4.3-.3-.1-1.4-.9-2.5-.8-1-1.4-1.5-1.5-.9zm12.4 2c.8.8 1.8 1.5 2.2 1.5.3 0 .1-.7-.6-1.5s-1.7-1.5-2.2-1.5c-.5 0-.3.7.6 1.5zm42.6-.6c0 .6.4 1.3 1 1.6.6.3.7-.1.4-.9-.7-1.8-1.4-2.1-1.4-.7zm89.6.4c.3 1 .9 1.5 1.2 1.2.3-.3 0-1.1-.7-1.8-1-.9-1.1-.8-.5.6zm23.4-.4c0 .5.5 1.3 1 1.6.6.3 1 .2 1-.4 0-.5-.4-1.3-1-1.6-.5-.3-1-.2-1 .4zm-92.5 4.1c.3.5.8 1 1.1 1 .2 0 .4-.5.4-1 0-.6-.5-1-1.1-1-.5 0-.7.4-.4 1z"/>
	<title>Diagram of a smooth rock bed. Between points A and B, there is a small depression below the level of the main rock bed.</title>
</svg>
