<?xml version="1.0" encoding="utf-8"?>
<svg xmlns="http://www.w3.org/2000/svg" viewBox="0 0 1434 388">
	<path d="M1127.121.65c-.3.4.2.8 1 .8 2.4 0 2.3 17.5 0 18.8-1.2.7-.4 1.1 3.2 1.5 5.5.6 6.5.2 4.1-1.6-.8-.6-1.7-2.8-1.9-4.7-.2-2.9.1-3.6 1.8-3.8 1.3-.2 2.4.5 3.2 2 .9 2 1.1 1.6 1.1-3 .1-3.3-.3-5.1-.9-4.7-.5.3-1 1.3-1 2.1 0 1.7-3.7 1.9-4.2.2-.2-.6-.2-2.4 0-4 .4-2.5.8-2.8 4-2.8 2.7 0 4.2.7 5.9 2.7l2.2 2.8.1-2.7c0-1.5-.5-3-1.2-3.4-1.6-1-16.8-1.2-17.4-.2zm-710.4 3.5c0 .3.7 1.1 1.5 1.7 2 1.5 2.4 15.8.6 18-1.2 1.4-.8 1.6 3.3 1.6h4.6l-2.1-2.1c-2.7-2.7-2.3-7.3.7-7.7 1.6-.2 2.5.4 3.2 2.5.9 2.5 1 2.1 1.1-3.2 0-5-.2-5.7-1.1-4-2.7 4.7-4.8 4-4.8-1.6 0-3.9 0-3.9 4-3.9 2.9 0 4.3.5 5.2 2 .7 1.1 1.6 2 2 2 1.3 0 .9-3.7-.4-4.7-1.4-1-17.8-1.6-17.8-.6zm747.7 3c-2 .5-4.7 5.2-4.7 8.1 0 1.1.9 3.1 2.1 4.6 1.7 2.2 2.8 2.6 7 2.6 3.9 0 5.1-.4 5.5-1.8.3-.9 1-2.5 1.5-3.5.8-1.4.5-1.7-2-1.7s-2.8.3-2.4 2.5c.4 2 0 2.5-2.3 3.1-4.8 1.2-8.2-5.4-5.4-10.7 1.2-2.1 5.9-2.6 9.1-.9 1.5.8 1.9.7 1.9-.5 0-.8-.6-1.5-1.4-1.5-.7 0-2.6-.2-4.2-.4s-3.7-.2-4.7.1zm-13.7 2.2c1.3 2.5 1.3 11.1 0 11.1-.5 0-1 .4-1 1 0 .5 1.4 1 3.1 1 2.6 0 3-.3 2.4-1.8-1.2-2.5-1.3-9.4-.3-11.5.7-1.4.4-1.7-2.2-1.7-2.7 0-3 .2-2 1.9zm52 .8c2.3.9 3 2.4 3 6.5 0 3.2-.3 3.8-2.1 3.8-1.1 0-1.7.4-1.4 1 .8 1.2 8.5 1.3 8.5.1 0-.5-.7-1.1-1.5-1.5-2-.7-1.9-6.5.2-8.8 1.5-1.7 1.4-1.8-3.3-1.7-2.7 0-4.2.3-3.4.6zm-761.1 1c0 .5 0 3.3.1 6.4.1 3.2-.3 6-.9 6.4-1.7 1-.3 2.5 2.2 2.5 2.1 0 2.2-.4 2.2-8 0-6.9-.2-8-1.7-8-1 0-1.8.3-1.9.7zm10.6 1.8c-3.3 3.3-3.3 7.8.1 11.2 2.2 2.1 3.2 2.5 6.6 2 4.7-.6 5.5-1.3 6-4.7.2-1.9-.2-2.6-1.7-2.8-1.7-.2-2.1.3-2 2.5 0 2.3-.5 2.9-2.6 3.1-3.5.4-5.9-2.2-5.9-6.3 0-4.7 3.3-7 7.9-5.4 3.3 1.2 4.8.8 3.6-1-.3-.6-2.6-1.1-5.1-1.1-3.4 0-5.1.6-6.9 2.5zm40.7-.5c-2.3 1-3.9 3.6-2.8 4.7.4.4 1.3-.3 2.2-1.5 1.8-2.6 5.2-2.9 6.1-.5.4 1.1-.6 2.7-3.5 5.2-2.3 2-4.2 3.9-4.2 4.3 0 1.4 8.7.8 9.9-.6 1.5-1.7.1-2.8-1.9-1.5-3.7 2.3-4.1.6-.7-2.7 3-3 3.5-3.9 2.6-5.5-.5-1-1.4-1.9-1.9-1.9-.4 0-1.4-.2-2.2-.4-.7-.3-2.3-.1-3.6.4zm724.5 5.7c-1.3 1.2-.7 3.3.8 3.3.8 0 1.5-.9 1.5-2 0-2-1.1-2.6-2.3-1.3zm-37.2 1.3c-.7 1.2.2 3 1.6 3 1.2 0 1.2-2.7 0-3.5-.5-.3-1.2-.1-1.6.5zm-674.5 3c0 1.5.5 2 1.8 1.8.9-.2 1.7-1 1.7-1.8s-.8-1.6-1.7-1.8c-1.3-.2-1.8.3-1.8 1.8zm-35.6.1c-.3.6-.2 1.5.4 2.1 1.3 1.3 3.2.2 3.2-1.8 0-1.6-2.6-1.9-3.6-.3zm-437.5 24.6c-3.3.5-3.7 2-3.1 10l.4 6.3h5.3c6.3 0 9.1-2 10-7 1-6.3-4.9-10.6-12.6-9.3zm5.2 3.3c.5 0 1.6 1.1 2.5 2.5 1.5 2.3 1.5 2.7 0 5.1-1.3 1.8-2.4 2.4-4.4 2.2-2.3-.3-2.7-.8-3-4.2-.4-4.9.4-7 2.4-6.2.9.3 2 .6 2.5.6zm866.9-1.8c-5.5 2-6.8 9.2-2.4 13.3 3.6 3.4 6.1 3.9 8.9 2.1 3.7-2.4 3.2-3.9-1.1-3.1-6.2 1.1-9.7-4.1-5.3-8 1.7-1.6 2.4-1.7 5.1-.7 3.3 1.2 4.8.9 4.8-1.2 0-1.8-7-3.5-10-2.4zm-21.7 20.9c-1.8 1.2-3.3 2.3-3.3 2.5 0 .2 1.9 1.7 4.2 3.4 4.5 3.3 7.7 4.1 4.1 1.1-2.9-2.4-2.9-2.7.2-3.5 1.4-.4 2.5-1.1 2.5-1.7 0-.7-1-.9-2.5-.5-2.7.7-3.2-.3-1.3-2.2 1.9-1.9-.4-1.4-3.9.9zm22.4.6c-.2.4-.3 46.9-.1 103.3.1 56.4.3 119.9.3 141.1l.1 38.7 2.3.6c4.9 1.5 518 2.3 518.5.8.4-1.3-15.5-10.4-17.5-10-1.2.3.8 1.7 5.5 4.1 3.9 2.1 7.2 3.9 7.2 4.1 0 .5-513.1-.2-513.6-.7-.8-.8-1.2-279.7-.4-279.7.4 0 3.1 1.3 6.1 3 5.8 3.2 6.9 3.5 6.9 2.1 0-.7-8-5.2-14.1-7.9-.4-.2-.9.1-1.2.5zm-10.2 1.3c-.4.6.7 1 2.4 1s3.1-.5 3.1-1c0-.6-1.1-1-2.4-1-1.4 0-2.8.4-3.1 1zm-881.8 4.5c-2 1.4-3.7 2.9-3.7 3.3.1.9 9 5.4 9 4.6 0-.4-.8-1.3-1.7-2-1.1-.8-1.3-1.3-.5-1.4.6 0 1.2-.5 1.2-1.1 0-.6-.9-.8-2-.4-1.4.5-2 .2-2-.9 0-.9.6-1.6 1.4-1.6.7 0 1.9-.7 2.6-1.5 1.9-2.3-.1-1.8-4.3 1zm867.3.5c0 1.5 4.2 7 5.3 7 .4 0-.2-1.8-1.4-4-2.2-3.8-3.9-5.2-3.9-3zm-845.9 138 .2 138 17.6.1c73.5.3 785.1 1.2 792.9 1 1.9-.1 3.2-.6 3-1.1-.3-1-17.7-7.7-22.8-8.7-5.3-1.1-.3 1.5 8 4.2 4.7 1.5 9 3.2 9.5 3.7.6.6-18.1.7-52.5.3-29.4-.4-210.7-.8-402.8-1-192.1-.1-349.4-.4-349.6-.6-1.5-1.6-1.8-52.5-1.6-251.2 0-13.2.4-20.7 1-20.7s5.1 1.6 10.1 3.6c7.8 3.1 11.6 3.8 9.7 1.8-.7-.7-20.5-7.4-21.9-7.4-.6 0-.9 44.4-.8 138zm-11.5-135.1c.5.6 2.4.6 4.4.1l3.5-.8-4.4-.1c-2.8-.1-4.1.3-3.5.8zm853.4 1.2c-1.5 2.8-.4 3.8 1.5 1.3 1.4-1.8 1.4-1.8 1.5.3 0 1.3.5 2.3 1 2.3 1.6 0 1.1-4.7-.6-5.4-2.2-.8-2.2-.8-3.4 1.5zm46.4-.3c.9 1.5 9.4 5.4 10.7 5 .7-.2-.9-1.6-3.5-3.1-4.7-2.6-8.2-3.5-7.2-1.9zm-913.6 2.8c-.4.3.1 1.3 1 2.3 1 .9 2.5 2.8 3.4 4.1 1.6 2.3 1.7 2.4 1.7.4.1-2.1-5.1-7.9-6.1-6.8zm-2.7 4.3c-1.5 2.8-1.4 3.6.4 2.1 1.3-1.1 1.5-.8 1.5 1.3 0 1.4.5 2.9 1 3.2 1.6 1 1.2-6.1-.4-7.4-1.2-1-1.7-.8-2.5.8zm55.9-1.1c0 1 7.7 4.2 10 4.2.8-.1-.1-.9-2-1.9-4.7-2.5-8-3.4-8-2.3zm817 2.6c0 1.4.5 2.6 1 2.6.6 0 1-.9 1-1.9 0-1.1-.4-2.3-1-2.6-.6-.4-1 .5-1 1.9zm59.5.2c3.2 2.5 11.3 6.3 11.9 5.6.8-.7-10.4-7.1-12.4-7.1-1.1 0-1 .4.5 1.5zm-863 2.4c-.3.5.3 1 1.5 1s1.8-.5 1.5-1c-.3-.6-1-1-1.5-1s-1.2.4-1.5 1zm8.5 2.7c.1 1.1 15.7 6.3 16.5 5.5.3-.3-2.9-1.8-7.2-3.4-8.5-3-9.3-3.2-9.3-2.1zm795 6.3c0 2.5.4 3.9 1 3.5.6-.3 1-1.9 1-3.5s-.4-3.2-1-3.5c-.6-.4-1 1-1 3.5zm75-3.3c0 1.4 13.8 8.4 14.4 7.4.4-.5.3-1.2-.1-1.4-4-2.4-12.5-6.7-13.3-6.7-.6 0-1 .3-1 .7zm-946 2.8c0 1.4.5 2.5 1 2.5.6 0 1-1.1 1-2.5s-.4-2.5-1-2.5c-.5 0-1 1.1-1 2.5zm98 2.4c2.1 1.5 14.9 5.5 15.6 4.8.6-.6-9.8-4.6-14.1-5.4-2.3-.4-2.7-.2-1.5.6zm-98 7.1c0 1.6.5 3 1 3 .6 0 1-1.4 1-3 0-1.7-.4-3-1-3-.5 0-1 1.3-1 3zm964-2.3c0 .5 3.2 2.5 7 4.6 4.7 2.5 7 3.3 7 2.4 0-.8-2.7-2.8-6-4.5-6.1-3.2-8-3.8-8-2.5zm-846 2.1c0 .4 3.1 1.8 6.8 3 7.6 2.4 8.2 2.5 8.2 1.4 0-.4-3.1-1.8-6.8-3-7.6-2.4-8.2-2.5-8.2-1.4zm753 3.3c0 1.7.4 2.8 1 2.4.6-.3 1-1.7 1-3.1 0-1.3-.4-2.4-1-2.4-.5 0-1 1.4-1 3.1zm-734 2.9c0 .9 14.2 6.2 14.8 5.5.3-.3.1-.9-.4-1.4-1.3-1.2-14.4-5-14.4-4.1zm-137 3.5c0 1.4.5 2.5 1 2.5.6 0 1-1.1 1-2.5s-.4-2.5-1-2.5c-.5 0-1 1.1-1 2.5zm982-2c0 .6 11.9 7.5 13.1 7.5 2.4 0 .4-1.9-5.2-4.8-5.7-3-7.9-3.8-7.9-2.7zm-111 6.6c0 2.4.4 3.8 1 3.4.6-.3 1-2.2 1-4.1 0-1.9-.4-3.4-1-3.4-.5 0-1 1.8-1 4.1zm-714.4-1.3c1.9 1.8 15.7 6.3 16.6 5.4.5-.5-2.7-2-7.5-3.5-8.8-2.9-10.7-3.2-9.1-1.9zm-156.6 6.3c0 1.7.4 2.8 1 2.4.6-.3 1-1.7 1-3.1 0-1.3-.4-2.4-1-2.4-.5 0-1 1.4-1 3.1zm1002-.7c0 .9 11.1 6.6 12.7 6.6 1 0-.9-1.6-4.2-3.5-5.4-3.1-8.5-4.2-8.5-3.1zm-824 1.3c0 .5 3.6 2.1 8 3.5s8 2.2 8 1.8c0-.5-3-1.8-6.7-3.1-3.8-1.2-7.4-2.4-8-2.7-.7-.2-1.3 0-1.3.5zm693.6 4.9c.8 4.7 1.1 5.1 2.6 3.6 1.4-1.4 0-6.3-2-7-1-.3-1.2.5-.6 3.4zm-871.6 4.3c0 1.7.5 3.1 1 3.1.6 0 1-1.1 1-2.4 0-1.4-.4-2.8-1-3.1-.6-.4-1 .7-1 2.4zm198.3-2.2c.4.3 3.7 1.7 7.5 3.1 9.4 3.4 10.6 3.7 9.9 2.5-.4-.6-4-2.2-8.1-3.7-7.3-2.6-10.6-3.3-9.3-1.9zm822.2 1.9c3.3 2.6 11.2 6.4 11.9 5.7.7-.8-10.3-7.2-12.4-7.2-1.1 0-1 .4.5 1.5zm-149.5 8.5c0 2.4.4 3.8 1 3.4.6-.3 1-2.2 1-4.1 0-1.9-.4-3.4-1-3.4-.5 0-1 1.8-1 4.1zm-647.2-1.4c.7.3 1.6.2 1.9-.1.4-.3-.2-.6-1.3-.5-1.1 0-1.4.3-.6.6zm-223.8 3.4c0 1.7.4 2.8 1 2.4.6-.3 1-1.7 1-3.1 0-1.3-.4-2.4-1-2.4-.5 0-1 1.4-1 3.1zm227.1-2.7c1.2 1.2 11 4.3 11.4 3.6.2-.4-1.8-1.5-4.6-2.4-5-1.5-7.7-2-6.8-1.2zm809.4.6c.4.6 3 2.3 5.8 3.8 6.9 3.6 6.7 3.5 6.7 2.4 0-.6-2.5-2.4-5.5-4.1-5.6-3.2-8.1-3.9-7-2.1zm-792.9 4.9c1.2 1.1 10.3 4.1 12.3 4.1 2.4-.1-.8-1.8-6.6-3.5-5.6-1.7-7.1-1.9-5.7-.6zm-243.6 6c0 1.7.5 3.1 1 3.1.6 0 1-1.1 1-2.4 0-1.4-.4-2.8-1-3.1-.6-.4-1 .7-1 2.4zm870.8-1.2c-.6 2.6.2 5.4 1.3 4.8 1.2-.8 1.2-6.5 0-6.5-.5 0-1.1.8-1.3 1.7zm184.6.6c1 .7 3.4 2.2 5.3 3.4 3.9 2.6 6.2 3.1 4.4.9-1.5-1.8-8.7-5.6-10.4-5.5-.7 0-.4.6.7 1.2zm-792.8.6c1.4 1.5 13.4 5 13.4 4 0-.5-1.2-1.1-2.7-1.4-1.6-.4-4.3-1.3-6.1-2.1-3.8-1.6-6.1-1.9-4.6-.5zm18.4 5.9c0 .6 2.4 1.8 5.3 2.8 2.8.9 5.8 1.9 6.5 2.2.6.2 1.2 0 1.2-.5s-2.4-1.7-5.2-2.8c-2.9-1-5.9-2-6.5-2.3-.7-.2-1.3 0-1.3.6zm789 1c0 1.5 10.9 7.4 12.8 6.9 1.1-.2-.8-1.6-4.8-3.7-8.4-4.5-8-4.3-8-3.2zm-1070 2.7c0 1.4.5 2.5 1 2.5.6 0 1-1.1 1-2.5s-.4-2.5-1-2.5c-.5 0-1 1.1-1 2.5zm871 2.4c0 2.3.5 4.1 1 4.1.6 0 1-1.5 1-3.4s-.4-3.8-1-4.1c-.6-.4-1 1-1 3.4zm-572-.1c0 .6 3 2 6.8 3.3 3.7 1.2 7.3 2.4 8 2.7.6.2 1.2-.1 1.2-.7 0-.5-3-2-6.7-3.1-3.8-1.2-7.4-2.4-8-2.6-.7-.3-1.3-.1-1.3.4zm-299 6.1c0 1.1.5 2.3 1 2.6.6.4 1-.5 1-1.9s-.4-2.6-1-2.6c-.5 0-1 .9-1 1.9zm1088.6-1.2c-.3.3 2.1 2.1 5.4 4 6.5 3.6 7 3.7 7 2.4 0-1.2-11.6-7.2-12.4-6.4zm-768.2 2.8c1.1.8 2.5 1.5 3.2 1.5.6 0 3.1.9 5.5 2 4.9 2.2 6.9 2.5 6.9 1 0-.6-.6-1-1.3-1-.8 0-4.1-1.1-7.5-2.5-6.9-2.8-9.7-3.2-6.8-1zm553.1 2.5c-.4.6-2 .8-3.9.5-4-.8-5.9 1.1-5.4 5.6.4 3.9 3 5.9 5.5 4.3 1.2-.8 2.3-.8 3.4-.1 2.2 1.4 4.7.3 6.1-2.8 1-2.2.8-3-.8-5.2-2.3-3.1-3.9-3.9-4.9-2.3zm-3.7 3.2c1 1 1.7 1 3.4-.1s2.2-1.1 2.9.1c2.3 3.5-.1 7.2-2.9 4.4-1.4-1.4-1.7-1.4-3.3 0-2.2 2-3.9 1.1-3.9-2 0-3.6 1.6-4.6 3.8-2.4zm-878.3-.2c-1 1.7 1.4 7.8 3.8 9.5 2.8 2 8.7 1.9 11.6-.1 1.7-1.3 2.1-2.2 1.6-4.3-1.6-6.8-10.7-6.6-10.7.3 0 2.5-.2 2.6-2.2 1.3-1.2-.9-2.1-2.6-2.1-4-.1-3-1-4.3-2-2.7zm14.3 4.2c1.7 1.7 1.5 2.6-.9 3.8-1.6.9-2.4.8-3.9-.5-1-.9-1.6-2.3-1.3-3.1.6-1.7 4.5-1.8 6.1-.2zm335.4-2.7c.8.8 13.8 5.5 15.1 5.5 2.6 0-1.7-2.5-7-4.2-5.8-1.8-9.1-2.3-8.1-1.3zm765.9 1.3c4 3 13.1 7.3 12.6 5.9-.5-1.5-11.3-7.7-13.4-7.7-1.1 0-.8.6.8 1.8zm-744.6 5.2c-.5.8 1.9 1.9 9.8 4.5 2.7.9 5.1 1.4 5.5 1.1.8-.8.5-1-7.6-3.8-4-1.4-7.5-2.2-7.7-1.8zm761.5 3.7c0 .7 12.2 7.3 13.5 7.3.3 0 .5-.4.5-.9 0-.9-11.5-7.1-13.2-7.1-.4 0-.8.3-.8.7zm-257.4 3.4c-1.4 1.1-2.6 2.9-2.6 4 0 3.2 4.4 6.9 8.3 6.9 6.3 0 8.9-6.5 4.4-10.8-2.9-2.8-6.7-2.8-10.1-.1zm8.5 1.8c2.3 1.9 2.4 1.9.5 4-3.2 3.5-8.6 2.2-8.6-2.1 0-1.7 2.5-3.7 4.6-3.8.7 0 2.2.9 3.5 1.9zm-493.1-2c0 .4 3.3 1.8 7.3 3 3.9 1.3 7.8 2.5 8.5 2.8.6.2 1.2 0 1.2-.5s-3.5-2.2-7.9-3.6c-8.7-2.9-9.1-3-9.1-1.7zm-384.5 3.3c-.2.7-.5 2.4-.7 3.8-.2 1.7-.9 2.5-2.2 2.5-1.1 0-2.1.6-2.4 1.3-.2.7.6 1.2 2.2 1.2 2.1 0 2.6.5 2.6 2.6 0 1.5.4 2.3 1.1 1.8.6-.3.9-1.5.6-2.5-.5-1.7.1-1.9 4.3-1.9 6.1 0 7.2-1.6 3.4-4.7-4.8-4-8.4-5.6-8.9-4.1zm5.3 4.9 2.7 2.1-3-.4c-1.9-.2-3.1-.9-3.3-2.1-.4-2.2.4-2.2 3.6.4zm400.2-1.3c0 1 14.9 5.7 15.6 4.9.3-.3-1.6-1.3-4.3-2.2-2.6-.9-5.8-2.1-7.1-2.6-2.8-1.1-4.2-1.1-4.2-.1zm740 .1c0 1 11.3 7.1 13 7.1 2.2 0 .8-1.9-2-2.9-1.7-.6-4.3-1.9-5.7-3.1-2.7-2.1-5.3-2.6-5.3-1.1zm-719.4 7c.9.9 15.9 6.1 17.6 6.1 2.8 0-1.2-2.1-8.6-4.4-9.1-2.8-10.5-3.1-9-1.7zm738.1 2.8c-.8.7 6.1 5.2 8.1 5.3 2.3 0 1.2-1.6-2.7-3.8-4.3-2.4-4.5-2.5-5.4-1.5zm-296 2.1c-2.1 2.3-2.2 6.5-.2 8.2.9.7 2.7 1 4.4.7 1.5-.3 3.3-.1 3.9.5 1.7 1.7 5.2-1.9 5.2-5.2 0-3.4-1.8-5-5.6-4.8-1.6.1-3.6-.2-4.5-.6-.9-.4-2.2 0-3.2 1.2zm4.7 2.9c.6 1.5.8 1.4 2-.2 1.8-2.5 4.8-1.3 4.4 1.7-.3 2-.9 2.3-5.1 2.4-5 .2-6.5-1-5.3-4.1.7-2 3.2-1.9 4 .2zm-875.1.4c-2.6.9-4.1 5.5-2.6 7.8.6.9 2.2 2 3.7 2.5 3.3 1.2 5.9-.9 5.9-4.8 0-2.9.9-3.3 2.7-1.1.7.8 1.9 1.5 2.7 1.5 1.1 0 1.1-.4.3-2-1.8-3.4-8.6-5.5-12.7-3.9zm4.1 3.5c1 2.7.7 3.4-1.9 3.4-1.8 0-2.5-.5-2.5-1.8 0-3.4 3.3-4.5 4.4-1.6zm447.6-3.7c2.7 1.6 15.1 5.3 15.7 4.7.3-.3 0-.8-.8-1-12.1-4.2-18.5-5.8-14.9-3.7zm726 1.1c0 1.3 4.9 4.4 5.7 3.6.7-.6-3.5-4.6-4.9-4.6-.4 0-.8.4-.8 1zm-705.7 5.7c1.2 1.1 14.7 5.1 14.7 4.3 0-.4-2.8-1.7-6.3-2.9-6.4-2.1-9.6-2.7-8.4-1.4zm716.4 0c-.8.7 13 9.2 15.1 9.3 2.7.1.8-1.7-5.9-5.5-8.5-4.8-8.3-4.7-9.2-3.8zm-696.7 6c0 .5 3.7 2.1 8.3 3.7 4.5 1.6 8.8 3.1 9.5 3.3.6.3 1.2.1 1.2-.5 0-.5-3.7-2.2-8.2-3.7-4.6-1.5-8.9-3-9.5-3.3-.7-.2-1.3 0-1.3.5zm378.6.9c-2 1.9-2 5.3 0 7.9 1.1 1.5 2.7 2 5.8 2 7.3 0 10.1-5.4 5-9.4-3.2-2.5-8.6-2.7-10.8-.5zm9.2 2c2.9 2 2.8 4.2-.3 5-5.7 1.4-10.8-2.4-7-5.2 2.5-1.8 4.5-1.8 7.3.2zm-881.2 1.6c-2.3 3.3-2 6.5.8 8.4 3.9 2.5 7 1.5 7.4-2.4.2-2.4.8-3.2 2.3-3.2 1.6 0 1.9.7 1.9 3.9 0 2.2.4 4.2.9 4.6 1.5.9 1.9-.7 1.2-5.5-.6-4.4-.7-4.5-4.7-4.8-4-.3-4.1-.3-3.6 2.8.4 2.7.2 3-2.3 3-2.4 0-2.7-.3-2.3-2.8.3-1.5.9-3.5 1.3-4.5 1-2.5-1.1-2.1-2.9.5zm1209.4.8c0 1.1 14.1 8.2 14.8 7.5.7-.6.9-.5-6.4-4.8-6.3-3.8-8.4-4.5-8.4-2.7zm-692.5 2.8c1.1 1.2 17.5 7.2 19.6 7.2 2.7 0-.8-1.9-8.1-4.5-9.6-3.3-12.8-4.1-11.5-2.7zm360.5 5.6c0 .7 7.2 5.6 8.2 5.6 1.6 0 .7-1.8-1.4-3.2-2.6-1.7-6.8-3.2-6.8-2.4zm350.5 1.6c-.3.5 2.1 2.3 5.4 4 6.2 3.1 8.7 3.8 7.6 2-1.1-1.8-12.4-7-13-6zm-686.2 1.3c.3.9 5.5 3 15.6 6.2 1.2.4 2.1.2 2.1-.4 0-.6-.6-1.1-1.2-1.1-.7 0-4.8-1.3-9.1-2.9-4.3-1.6-7.6-2.4-7.4-1.8zm335.3 3.9c-1 4.5-.1 7.7 1.6 6 .8-.8.8-2.4.1-5.4l-1-4.3-.7 3.7zm-869.6-1.2c0 1.2 5.3 4 7.7 4 2.4 0 .6-1.5-3.9-3.5-2.1-.8-3.8-1.1-3.8-.5zm1238.5 4.8c-1.2 1.2-.3 2.1 4.9 4.7 7.7 3.9 9 2.6 1.8-1.7-3.4-1.9-6.3-3.3-6.7-3zm-1240.5 2.7c0 1.4.5 2.5 1 2.5.6 0 1-1.1 1-2.5s-.4-2.5-1-2.5c-.5 0-1 1.1-1 2.5zm559.1-2.1c.6.6 17.1 6.6 18.1 6.6.4 0 .8-.4.8-.8s-3.7-2-8.3-3.5c-7.6-2.5-11.7-3.3-10.6-2.3zm312.4 6.8c-.9 2.2-.2 6.8 1 7.1 1.4.3 1.9-6.3.6-7.6-.7-.7-1.2-.5-1.6.5zm-288.3.8c.2.7 3.9 2.5 8.3 4.1 8.4 3.1 9.5 3.3 9.5 2.1 0-.4-3.3-1.9-7.3-3.3-3.9-1.4-8-3-9.1-3.4-1.3-.6-1.8-.5-1.4.5zm-582.5 1.7c-1.1 1-.8 4.3.3 4.3.6 0 1-1.1 1-2.5 0-2.6-.2-2.9-1.3-1.8zm1258.3 1.1c0 .5 3.2 2.5 7 4.6 8.7 4.6 9.3 3 .7-1.9-6.7-3.7-7.7-4-7.7-2.7zm-653.6 5c.7 1.2 15.6 6.5 16.3 5.8.3-.3-.5-1-1.8-1.5s-4-1.5-5.9-2.3c-4.9-2.1-9.3-3.1-8.6-2zm-604.9 3.4c-.4 1-.4 2.6 0 3.5.8 1.7.8 1.7 1.2 0 .3-.9.3-2.5 0-3.5-.4-1.6-.4-1.6-1.2 0zm871.2.4c-1 1.1-.9 6.4.2 6.4s2.2-5.3 1.2-6.3c-.4-.4-1-.4-1.4-.1zm405.8 1.4c-.3.5 1.8 2.2 4.7 3.7 7.4 3.9 8.7 4.3 9.3 3.4.2-.5-2.7-2.5-6.5-4.4-3.8-1.9-7.2-3.1-7.5-2.7zm-651.5 1.7c0 .9 9 4.3 11.1 4.2.8 0-.4-.8-2.6-1.8-5.8-2.6-8.5-3.4-8.5-2.4zm15 5.2c0 1.1 9.9 4.5 10.7 3.7.3-.3-.3-.9-1.3-1.2-1-.4-3.4-1.3-5.3-2-4-1.7-4.1-1.7-4.1-.5zm-640.3.8c-1 .9-.9 4.1.2 4.7 1.1.7 2.1-2.8 1.2-4.3-.4-.6-1-.8-1.4-.4zm870.3 5.2c0 2.3.5 4.1 1 4.1.6 0 1-1.5 1-3.4s-.4-3.8-1-4.1c-.6-.4-1 1-1 3.4zm424.6-3.2c-.6.6 12 8.2 13.7 8.3 2.2.1.1-2-4.5-4.6-6.8-3.7-8.5-4.4-9.2-3.7zm-639.5 2.7c1.2 1.2 11 4.3 11.4 3.6.3-.4-1.6-1.5-4.2-2.4-4.4-1.5-8.2-2.1-7.2-1.2zm-656.1 6.5c0 1.1.4 2.2.9 2.5 1.1.7 2.3-2.2 1.5-3.5-.9-1.6-2.4-1-2.4 1zm672.3-1.2c.7.6 9.5 4 13.2 5 4 1.1 0-1.5-5.5-3.6-5.4-2.1-9-2.7-7.7-1.4zm641.8 2.8c.7.7 11.8 6.5 12.4 6.5.3 0 .5-.5.5-1 0-.6-.5-1-1-1-.6 0-2.8-1.1-5-2.5-3.3-2.1-8.4-3.6-6.9-2zm-442.9 4.2c.2 2.1.8 3.8 1.3 3.8.6 0 1.1-1.7 1.3-3.8.3-2.9 0-3.7-1.3-3.7s-1.6.8-1.3 3.7zm-180.2-.8c0 1.4 11.4 5.4 12.4 4.3.4-.3-2.2-1.6-5.6-2.9-7.3-2.7-6.8-2.5-6.8-1.4zm-691 4c0 2.6 1.6 3.5 2.4 1.5 1-2.5.7-3.4-.9-3.4-.8 0-1.5.9-1.5 1.9zm708 1.9c0 1.1 11.8 4.8 12.6 3.9.7-.7-4.9-3.2-9.5-4.2-1.7-.4-3.1-.3-3.1.3zm624.5.8c3.3 2.5 9.6 5.5 10.8 5.1 1.3-.4-9.4-6.7-11.4-6.7-.9.1-.7.6.6 1.6zm-460.8 2c-1 1-.9 6.2.2 6.8.5.3 1.1-.9 1.4-2.7.5-3.2-.3-5.3-1.6-4.1zm-871.5 4.5c.1 1.3.8 2.3 1.3 2.1 1.5-.3 1.2-3.5-.3-4-.9-.3-1.3.3-1 1.9zm724.8-1.6c0 .7 6.2 3.2 10.1 4 4.5 1 3-.5-2.9-2.7-4.7-1.8-7.2-2.2-7.2-1.3zm622.5 3.5c.8 1.3 7.6 4.2 8.3 3.6.6-.7-6-4.6-7.6-4.6-.7 0-1 .5-.7 1zm-605.3 2.2c.5 1.3 9.1 4.8 12.1 4.8 2.7 0 1.1-1.7-2-2.2-1.6-.3-4.5-1.3-6.7-2.2-2.8-1.3-3.7-1.4-3.4-.4zm128.8 4.7c0 3.4 1.5 4.9 2.4 2.5 1.1-2.8.6-5.4-.9-5.4-1 0-1.5 1-1.5 2.9zm486.2-1.7c.3.7 1.3 1.5 2.4 1.7 1.6.3 1.7.1.5-1.3-1.6-1.9-3.4-2.1-2.9-.4zm-526.2.9c-2 .8-2.2 1.2-1 1.9 1 .6 1.7 3.2 2 7.7l.5 6.8 5.2.3c4.2.2 5.6-.1 7.3-1.8 1.6-1.6 1.8-2.4 1-4-.6-1.1-.8-3.6-.4-5.4.5-2.7.2-3.6-1.3-4.4-2.9-1.5-10.6-2.1-13.3-1.1zm9.8 5.2c.3 1.5-.2 1.8-2.5 1.5-1.7-.2-2.9-1-3.1-2.1-.3-1.5.2-1.8 2.5-1.5 1.7.2 2.9 1 3.1 2.1zm.9 6.3c.2.6-.3 1.4-1.1 1.7-2.2.9-5.6-.4-5.6-2 0-1.7 6.1-1.4 6.7.3zm-840.5-8.6c0 1.9.2 2.7.5 1.7.2-.9.2-2.5 0-3.5-.3-.9-.5-.1-.5 1.8zm758.2-.3c1.1 1.2 9.9 4.3 12.1 4.3 3.1 0 .5-1.7-5.4-3.4-6-1.7-7.8-2-6.7-.9zm605.1.2c.7 1.3 10.9 7.1 12.4 7.1 2.6 0 .7-1.7-5.1-4.8-6.5-3.3-8.4-3.9-7.3-2.3zm51.8 1.3c-1.2 1.6-6.3 13.6-6.3 14.9 0 2 2 .7 3.6-2.3 1.6-3.2 1.6-3.2 2.8-.9 1.1 2 1.4 2.1 2.5.7 1.9-2.3 3-2 3.7.9.6 2.5 3.5 3.6 3.3 1.2 0-.6-1.3-4.3-2.8-8.2-2.6-6.9-4.8-8.9-6.8-6.3zm3.5 5.6c.2 1.3-.3 2.5-1.3 2.8-2.2.9-2.9-.1-2.1-3.1.8-3.1 3-2.8 3.4.3zm-548.1-2.2c-1 1.1-.9 7.4.2 7.4 1.2 0 2.3-6.2 1.3-7.2-.5-.5-1.1-.5-1.5-.2zm-94.2 1.1c.9 1 13 5.3 14.7 5.3.4 0 .8-.4.8-.8 0-.5-2.8-1.7-6.2-2.7-10.1-2.8-10.4-2.9-9.3-1.8zm-776.4 3.3c0 2.9.1 3.2 1 1.7.7-1.1.7-2.3 0-3.5-.9-1.4-1-1.1-1 1.8zm1379.9-.1c0 .5 3.6 2.8 8.1 5.1 9.1 4.6 10.4 3.3 1.6-1.7-6.7-3.7-9.7-4.8-9.7-3.4zm-583.5 3.2c-.3.4 2.3 1.7 5.7 2.8 6.3 2.1 9.7 2.7 8.4 1.4-1.3-1.3-13.7-5-14.1-4.2zm77.2 4.2c-1.3 1.8-1.6 1.9-1.6.4-.1-.9-.6-1.7-1.2-1.7-.8 0-1 1.3-.6 3.7.5 3.2.4 3.5-.6 1.9-2.5-3.8-4.5-6.1-5.2-5.5-.5.6 5.3 10.9 6.2 10.9.2 0 1.1-1.5 1.9-3.3.8-1.7 2.1-4.2 3-5.4.9-1.2 1.1-2.4.6-2.7-.5-.3-1.7.4-2.5 1.7zm-879.7-.7c0 .3 1.3 1.9 3 3.7l3 3.2 3-3.5c1.6-1.9 2.7-3.7 2.4-4-.3-.3-1.4.5-2.4 1.7-2.2 2.8-3.2 2.9-5.5.3-1.7-1.9-3.5-2.6-3.5-1.4zm9.8 7.2c-3.2 1.5-5.8 3.1-5.8 3.7 0 1.3 10.8 7 11.7 6.2.3-.4-.9-1.4-2.6-2.4-6.9-3.8-6.9-3.9-2.4-6.2 2.3-1.1 4.4-2.5 4.8-3.1.9-1.4.7-1.3-5.7 1.8zm873.2.3c-2.5 1.6-4.6 3.4-4.8 3.9-.2.6 1.3 1.9 3.2 3.1 2 1.1 3.6 2.5 3.6 3s.7.9 1.5.9c2.5 0 1.7-2.6-1.2-4.1l-2.8-1.4 3.8-.3c2-.2 3.7-.8 3.7-1.4 0-1-3.6-.7-7.4.8-3.4 1.3-1.2-2 2.7-4.1 2-1.1 3.7-2.3 3.7-2.8 0-1.3-1.4-.7-6 2.4zm-871.2 3.6c.6.2 1.8.2 2.5 0 .6-.3.1-.5-1.3-.5-1.4 0-1.9.2-1.2.5zm7.2.3c0 .5 2 1 4.5 1s4.5-.5 4.5-1c0-.6-2-1-4.5-1s-4.5.4-4.5 1zm873.5 0c-.4.6.8 1 2.9 1 2 0 3.6-.5 3.6-1 0-.6-1.3-1-2.9-1-1.7 0-3.3.4-3.6 1zm-859.7 4.6c-.5.4-.8 2.5-.8 4.8 0 2.8.3 3.7 1.1 2.9.6-.6.9-2.7.7-4.8-.2-2-.6-3.3-1-2.9zm809.9.1c-1 1-.9 7.3.2 7.3 1.2 0 2.3-6.2 1.3-7.2-.5-.5-1.1-.5-1.5-.1zm61.1 3.3c-.5 3.3.6 5 1.6 2.4.9-2.3.7-5.4-.3-5.4-.5 0-1.1 1.4-1.3 3zm515.2 1.5c0 1.4.5 2.5 1 2.5.6 0 1-1.1 1-2.5s-.4-2.5-1-2.5c-.5 0-1 1.1-1 2.5zm-931.9 7c-3.7 6.2-2.2 7.9 1.7 1.9 1.5-2.3 2-4 1.4-4.6-.6-.6-1.7.4-3.1 2.7zm355.5-.8c-.3.3-.6 1.8-.6 3.2v2.6l-1.9-2.4c-1-1.3-2.1-2-2.4-1.5-.3.5.7 2.6 2.2 4.6l2.8 3.7 3.3-3.4c1.9-2 2.9-3.8 2.5-4.5-.6-.9-1-.8-1.7.4-1.3 2.3-3.1 2-2.5-.4.5-2-.5-3.5-1.7-2.3zm577.1 0c-1.1 1-.8 6.3.3 6.3.6 0 1-1.6 1-3.5 0-3.6-.2-4-1.3-2.8zm-1387.7 1.5c0 .7.5 2 1 2.8.8 1.2 1 .9 1-1.3 0-1.5-.4-2.7-1-2.7-.5 0-1 .6-1 1.2zm370.6.7c-2.3 2.5-1.6 3.7 1.2 2 1.1-.7 2.7-.9 3.6-.6 1.4.5 1.5 1.1.6 2.7-.6 1.1-1.6 2-2.3 2-.7 0-2.5 1.1-4.2 2.4-4.1 3.4-2.4 4.8 5.1 4.4 4.4-.2 5.9-.7 5.9-1.8 0-1.5-3.6-1.6-9-.4-1.1.2 0-.6 2.4-1.8 7.9-4.1 8.6-9 1.6-10.4-2.3-.4-3.5-.1-4.9 1.5zm21.9-1.2c-2.7.2-5.4.8-5.9 1.3-1.5 1.5 2.1 2.3 5.4 1.2 4-1.4 3.9-.2-.5 5.5-4 5.2-4.3 6.3-1.7 6.3 1.2 0 3-2.3 5.5-6.9 3.8-7 4.2-8.2 3-7.9-.5.1-3 .3-5.8.5zm11.1 1.2c-1.3 1.4-1.6 2.8-1.1 4.9.3 1.8.2 3.3-.4 3.7-1.6.9.4 4.2 2.9 5 1.2.4 3.1 0 4.4-.8 2-1.3 2.3-2.4 2.3-7.4 0-3.2-.5-6.1-1.1-6.5-2-1.4-5.3-.8-7 1.1zm5.3 1c1.9 1.2.6 4.1-1.8 4.1-2.3 0-3.4-2.3-1.8-3.9 1.3-1.3 1.8-1.3 3.6-.2zm.1 8.1c0 1.5-.7 2-2.5 2-2.4 0-3.4-1.8-1.8-3.3 1.5-1.5 4.3-.7 4.3 1.3zm31.7-9.9c-.9.5-2.4 2.4-3.3 4-1.4 2.8-1.4 3.3.3 6.2 2.6 4.4 7.2 4.9 10.2 1.1 2.7-3.4 2.7-6.4 0-9.8-2.2-2.7-4.3-3.2-7.2-1.5zm5.5 4.4c.9 2 .8 3.1-.2 5-3 5.6-7.8.3-5.4-5.9.9-2.5 4.3-1.9 5.6.9zm426-1.1.6 4.6-2.4-2.7c-1.3-1.6-2.4-3.2-2.4-3.6 0-.5-.4-.5-1-.2-.5.3-1 .9-1 1.3.1.9 7 8.6 7.3 8.1.2-.2 1.3-2.1 2.6-4.3 2.3-4.1 2.1-6.3-.4-3-1.4 1.8-1.4 1.8-1.5-.8 0-1.5-.5-3-1.1-3.4-.9-.5-1 .6-.7 4zm-451.4-1c-1.9 2.6-2.3 7.2-1 9.3.4.6 1.9 1.6 3.3 2.2 3.3 1.2 6.1-.5 7.9-4.9 1.1-2.8 1.1-3.4-.7-5.8-2.7-3.7-7.2-4-9.5-.8zm6.8 3.1c.7 3.7-.7 6.5-3.1 6.5-2.5 0-3.5-6.6-1.3-8.8 2.1-2.1 3.7-1.3 4.4 2.3zm678.9-2.8c-1 1.5-2.9 3.9-4.2 5.3-3.3 3.5-2.9 4.2 2 3.8 3.9-.3 4.2-.1 4.5 2.4.4 3.4 2.9 3.7 3.4.5.2-1.6.9-2.1 2.6-1.9 1.7.2 2.2-.2 2.2-1.7 0-1.6-.6-2-2.2-1.8-2.1.2-2.3-.2-2.4-4.3 0-3.7-.4-4.6-2.1-4.8-1.3-.2-2.6.7-3.8 2.5zm2.5 4.2c0 1.7-2.7 3.7-3.7 2.7-.6-.6 2-4.6 2.9-4.6.5 0 .8.9.8 1.9zm12.5-5.9c-1.2 1.9.6 2.9 5.9 3.2l4.8.3-4.2 5.2c-3.5 4.5-3.9 5.5-3 7.3 1.5 2.7 2.5 1.9 5.7-4.3 1.4-2.9 3.7-6.7 5.1-8.5l2.4-3.2h-3.4c-2 0-5.5-.3-8-.6-3.1-.4-4.8-.2-5.3.6zm42.7-.1c-1.8 1.1-4.2 5.9-4.2 8.3 0 4.6 4.3 8.5 8.1 7.3 1.2-.4 2.7-2.2 3.5-4 2.7-6.6-2.5-14.8-7.4-11.6zm4.8 5.3c1.1 2.1 1.2 3.1.2 5.2-2.6 5.8-7.7.5-5.2-5.4 1.5-3.5 2.9-3.5 5 .2zm9.7-2.4c-.9 2.1-1.7 4.1-1.7 4.4 0 1.1 5.3 1.9 6.3.9.7-.7.1-1.2-1.7-1.7-3.1-.7-3.2-1.5-.6-3.9 2.3-2.1 2.6-3.5.7-3.5-.7 0-2.1 1.7-3 3.8zm212.8-1.9c-.3 1.1-1.3 2.5-2.2 3.2-1.3 1.1-1.9.9-3.9-1.6-1.7-2.2-2.4-2.5-2.4-1.3 0 .9.5 2 1.1 2.3.5.4 1.4 1.8 1.9 3.1s1.4 2.4 1.8 2.4c1.2 0 6.2-7.2 6.2-8.8 0-1.9-1.8-1.4-2.5.7zm-1394.3 1.8c.6 1.6 1.9 3.6 2.8 4.6 1.6 1.8 1.8 1.7 4.9-2.5 2-2.6 2.7-4.4 2-4.7-.6-.2-1.5.3-2 1-.4.8-1.4 2.3-2.2 3.3-1.4 1.9-1.5 1.9-3.1-1.2-2-3.9-4-4.3-2.4-.5zm1095.4 2.4c-.4 2.9-1 6.5-1.3 8-.5 2.4-.2 2.9 1.4 2.9 1.6 0 2.1-.9 2.7-4.6 1-7.6.8-11.4-.8-11.4-.9 0-1.6 1.8-2 5.1zm50.4-.1c0 4.7.1 4.9 1.9 3.8 1.5-.9 2.3-.9 3.5.1 3.4 2.8-1.1 5.4-5.4 3.1-2.9-1.6-3.8 1-1 3.2 3.2 2.6 7.2 2.3 10-.7 2-2.1 2.2-3 1.4-5.3-.7-2.1-1.7-2.8-4.2-3-4.4-.4-3.6-2.6 1.2-3.2 5.5-.7 4.4-2.5-1.9-2.8l-5.5-.3v5.1zm-1132.9-.9c-5.6 3-5.6 3.4-.3 6.7 4.6 2.8 6.2 3.1 6.2 1.1 0-.4-1.8-1.4-4-2.3-3.8-1.5-5.4-3.6-2.7-3.6 1.4-.1 5.2-2.8 4.6-3.4-.2-.2-1.9.5-3.8 1.5zm1366.9-.1 2.5 2h-2.7c-1.6 0-2.8.5-2.8 1.1 0 .8 1.4 1 4.1.6l4.1-.5-2.8 2.9c-3.5 3.6-1.2 4 2.9.5 3.3-2.9 3-3.9-2.3-6.6-5-2.5-6.2-2.5-3 0zm-575.9 1 2.4 1.9-4.2.1c-2.4 0-4.3.5-4.3 1 0 1.1 6.5.8 7.7-.3.9-1 2.3-.9 2.3.1 0 .4-1.7 1.8-3.7 3-2.1 1.2-3.2 2.2-2.4 2.2 2.3 0 9.1-3.3 9.1-4.4 0-1.3-6.1-5.6-7.9-5.6-.7 0-.3.9 1 2zm81.7-.6c-4 3-1.7 4.5 5.2 3.5l4.5-.6-4.9-.1c-4.8-.2-4.9-.2-3.1-2.2 2-2.2.9-2.6-1.7-.6zm-870.8 2.6c-1.2.8-1.2 1 .5 1 1.1 0 3 .3 4.3.6 1.6.5 2.2.2 2.2-1 0-1.8-4.5-2.2-7-.6zm10.7-.3c-1.5 1.5-.5 2.3 2.7 2.3 4.1 0 5.6-1.5 2.3-2.4-2.9-.8-4.2-.7-5 .1zm11-.1c-1.6 1.7-.5 2.5 3.1 2.2 2-.2 3.7-.8 3.7-1.3 0-1.2-5.7-1.9-6.8-.9zm11 0c-1.3 1.3.5 2.4 3.9 2.4 1.9 0 3.4-.4 3.4-.9 0-1.7-5.9-2.9-7.3-1.5zm11 0c-1.5 1.6-.5 2.4 2.9 2.4 2.4 0 3.4-.4 3.2-1.3-.5-1.3-5-2.2-6.1-1.1zm11 0c-1.2 1.3.4 2.4 3.4 2.4 2 0 2.9-.4 2.7-1.3-.5-1.3-5-2.2-6.1-1.1zm9.8.3c-.7 1.3 1.7 2.4 4 1.9.9-.1 1.6-.8 1.6-1.3 0-1.4-4.8-1.9-5.6-.6zm10 .1c-.3.6.1 1.3.9 1.6 2.2.8 6.8-.4 6.1-1.6-.8-1.3-6.2-1.3-7 0zm10.7.2c.5 1.5 5.7 1.8 6.1.3.1-.6-1.3-1.1-3.2-1.3-2.4-.3-3.2 0-2.9 1zm10.4-.3c-.7 1 1.7 2.1 4.5 2.1 1 0 1.9-.7 1.9-1.5 0-1.7-5.5-2.2-6.4-.6zm10.4 0c0 .6.5 1.3 1.1 1.6 1.5 1 6.1-.4 5.4-1.5-.8-1.3-6.5-1.3-6.5-.1zm10 .1c0 1.6 2.7 2.3 5.5 1.6 3.9-1 2.9-2.6-1.5-2.6-2.2 0-4 .5-4 1zm11-.1c0 1 5.8 2.3 7.1 1.5 2.1-1.3.6-2.4-3.1-2.4-2.2 0-4 .4-4 .9zm12 .1c0 .5 1.6 1 3.5 1s3.5-.5 3.5-1c0-.6-1.6-1-3.5-1s-3.5.4-3.5 1zm11 0c0 .5.9 1.1 2 1.1 1.1.1 2.5.2 3.2.3.6.1 1.3-.5 1.6-1.2.2-.8-.8-1.2-3.2-1.2-2 0-3.6.4-3.6 1zm10.2.2c.5 1.5 5.7 1.8 6.1.3.1-.6-1.3-1.1-3.2-1.3-2.4-.3-3.2 0-2.9 1zm10.8-.3c0 1.1 4 2.2 5.2 1.5.5-.3.6-1 .3-1.5-.8-1.2-5.5-1.2-5.5 0zm9.7-.3c-1.1 1.2.3 2.4 2.8 2.4 1.3 0 2.6-.4 2.9-.9 1-1.5-4.3-2.9-5.7-1.5zm9.8.3c-.7 1.3 1.7 2.4 4 1.9.9-.1 1.6-.8 1.6-1.3 0-1.4-4.8-1.9-5.6-.6zm22.8-.3c-2.5 1.1-1.2 2.4 2.3 2.4 2.4 0 3.4-.4 3.2-1.3-.5-1.3-3.5-1.9-5.5-1.1zm9.7.8c0 1.8 5.4 2.3 6.5.6.3-.6-.3-1-1.4-1-1 0-2.6-.3-3.5-.6-1.1-.4-1.6-.1-1.6 1zm11.2-.7c-2.1.8-.3 2.3 2.9 2.3 3.1 0 3.9-1.4 1.3-2.4-1.8-.7-2.3-.7-4.2.1zm10.3.1c-1.3 1.4-.2 2.2 3 2.2 1.9 0 3.5-.4 3.5-.9 0-1-5.7-2.1-6.5-1.3zm21.7 0c-.7.2-1 .8-.6 1.3.7 1.2 7.4 1.2 7.4 0 0-1-5-1.9-6.8-1.3zm12.1-.1c-3.5.7-2.7 2.5 1 2.1 1.7-.2 3.1-.7 3-1.3-.2-1.2-1.1-1.3-4-.8zm8.2.2c-.9 1.5 1.4 2.4 4.2 1.6 2.9-.7 2.8-1-.9-1.9-1.5-.3-2.9-.2-3.3.3zm10.5.8c0 .8 1.3 1.3 3.5 1.3 1.9 0 3.5-.4 3.5-.9s-1.6-1.1-3.5-1.3c-2.4-.3-3.5 0-3.5.9zm466.8-.9c-2.1.2-3.8.7-3.8 1.3 0 1.2 7.7 1.2 8.5 0 .8-1.3-.4-1.7-4.7-1.3zm8.9-.2c-1.5 1.6-.5 2.4 2.7 2.4 1.9 0 3.8-.5 4.1-1 .3-.6-.3-1-1.4-1-1 0-2.6-.2-3.3-.5-.8-.3-1.7-.2-2.1.1zm120.8.4c-.3.5 0 1.3.9 1.6 2.1.8 6.1.1 6.1-1.1 0-1.4-6.2-1.9-7-.5zm11.2-.4c-1.2 1.3.4 2.4 3.4 2.4 2 0 2.9-.4 2.7-1.3-.5-1.3-5-2.2-6.1-1.1zm10.3 1.1c0 .8 1.2 1.3 2.9 1.3 4.3 0 4.7-1.7.6-2.2-2.4-.3-3.5 0-3.5.9zm11.2-.9c-2.3.7-.1 2.2 3.4 2.2 1.9 0 3.3-.4 3-.9-.7-1-4.7-1.9-6.4-1.3zm249.3.2c-.8 1.2 2 2.4 3.5 1.5.5-.3 1-1 1-1.6 0-1.2-3.7-1.2-4.5.1zm7.7.2c.5 1.5 5.7 1.8 6.1.3.1-.6-1.3-1.1-3.2-1.3-2.4-.3-3.2 0-2.9 1zm11.1-.5c-.7.2-1.3.9-1.3 1.4 0 1.5 5.3.6 5.8-.9.4-1.2-2.1-1.5-4.5-.5zm9.2.3c-.4.6.8 1 2.9 1 2 0 3.6-.5 3.6-1 0-.6-1.3-1-2.9-1-1.7 0-3.3.4-3.6 1zm11-.1c-.3.5-.1 1.2.5 1.6 1.4.9 5.2-.4 4.5-1.6-.8-1.2-4.2-1.2-5 0zm9.1 0c-.3.5.1 1.2 1 1.5 2.1.8 5.6-.3 4.9-1.5-.8-1.2-5.2-1.2-5.9 0zm9.9.1c.3.5 2 1 3.6 1 1.8 0 2.8-.4 2.4-1-.3-.6-2-1-3.6-1-1.8 0-2.8.4-2.4 1zm11 0c-.4.6.7 1 2.5 1s2.9-.4 2.5-1c-.3-.6-1.5-1-2.5-1s-2.2.4-2.5 1zm10 0c-.4.6.7 1 2.5 1s2.9-.4 2.5-1c-.3-.6-1.5-1-2.5-1s-2.2.4-2.5 1zm9.5 0c0 .5 1.6 1 3.6 1 2.1 0 3.3-.4 2.9-1-.3-.6-1.9-1-3.6-1-1.6 0-2.9.4-2.9 1zm11 0c0 .5 1.4 1 3.1 1 1.7 0 2.8-.4 2.4-1-.3-.6-1.7-1-3.1-1-1.3 0-2.4.4-2.4 1zm9.5 0c-.4.6.8 1 3 1s3.4-.4 3-1c-.3-.6-1.7-1-3-1s-2.7.4-3 1zm10.5 0c0 .5 1.6 1 3.5 1s3.5-.5 3.5-1c0-.6-1.6-1-3.5-1s-3.5.4-3.5 1zm10 0c0 .5 2 1 4.5 1s4.5-.5 4.5-1c0-.6-2-1-4.5-1s-4.5.4-4.5 1zm13 0c0 .5 1.5 1 3.4 1s3.8-.5 4.1-1c.4-.6-1-1-3.4-1-2.3 0-4.1.4-4.1 1zm11 0c0 .5 1.6 1 3.6 1 2.1 0 3.3-.4 2.9-1-.3-.6-1.9-1-3.6-1-1.6 0-2.9.4-2.9 1zm10.5 0c-.4.6.8 1 2.9 1 1.9 0 3.8-.5 4.1-1 .4-.6-.8-1-2.9-1-1.9 0-3.8.4-4.1 1zm10.5 0c0 .5 1.8 1 3.9 1 2.2 0 4.3-.5 4.6-1 .4-.6-1.2-1-3.9-1-2.5 0-4.6.4-4.6 1zm-1150 1c0 .5 1.8 1 4 1s4-.5 4-1c0-.6-1.8-1-4-1s-4 .4-4 1zm54.5 0c.3.5 1.7 1 3 1s2.7-.5 3-1c.4-.6-.8-1-3-1s-3.4.4-3 1zm53 0c.3.5 1.7 1 3 1s2.7-.5 3-1c.4-.6-.8-1-3-1s-3.4.4-3 1zm9.5 0c0 .5 1.1 1 2.4 1 1.4 0 2.8-.5 3.1-1 .4-.6-.7-1-2.4-1s-3.1.4-3.1 1zm10 0c0 .5 1.1 1 2.5 1s2.5-.5 2.5-1c0-.6-1.1-1-2.5-1s-2.5.4-2.5 1zm10 0c0 1.2 1.7 1.2 4.5 0 1.7-.7 1.5-.9-1.2-.9-1.8-.1-3.3.3-3.3.9zm10.8-.3c.6.2 1.8.2 2.5 0 .6-.3.1-.5-1.3-.5-1.4 0-1.9.2-1.2.5zm94.7.3c-.4.6 0 1.3.8 1.6 2.3.8 8.2 0 8-1.1-.3-1.3-8-1.7-8.8-.5zm14 0c-.4.6.8 1 3 1s3.4-.4 3-1c-.3-.6-1.7-1-3-1s-2.7.4-3 1zm11 0c-.8 1.2 2 2.4 3.5 1.5.6-.3.8-1.1.5-1.6-.8-1.2-3.2-1.2-4 .1zm10 .1c-1 1.5-.4 1.7 3.2 1.2 1.8-.3 3-.9 2.7-1.4-.7-1.3-5.1-1.1-5.9.2zm11.8-.4c-2.5 1-1.2 2.4 1.9 2.1 3.7-.4 5.2-2.8 1.6-2.7-1.2 0-2.9.3-3.5.6zm11.2.2c-.7 1.3 1.7 2.4 4 1.9.9-.1 1.6-.8 1.6-1.3 0-1.4-4.8-1.9-5.6-.6zm11 .1c-.3.5 0 1.3.9 1.6 2.1.8 6.1.1 6.1-1.1 0-1.4-6.2-1.9-7-.5zm11 0c-.4.6 1 1 3.4 1 2.3 0 4.1-.5 4.1-1 0-.6-1.5-1-3.4-1s-3.8.4-4.1 1zm10.5 0c0 .5 1.8 1 4 1s4-.5 4-1c0-.6-1.8-1-4-1s-4 .4-4 1zm12.5 0c-.4.6 1 1 3.4 1 2.2 0 4.3-.5 4.6-1 .4-.6-1-1-3.4-1-2.2 0-4.3.4-4.6 1zm11.5 0c0 .5 1.6 1 3.5 1s3.5-.5 3.5-1c0-.6-1.6-1-3.5-1s-3.5.4-3.5 1zm11 0c0 .5 1.8 1 4 1s4-.5 4-1c0-.6-1.8-1-4-1s-4 .4-4 1zm11.5 0c.3.5 1.9 1 3.5 1s3.2-.5 3.5-1c.4-.6-1-1-3.5-1s-3.9.4-3.5 1zm11.5 0c0 .5 1.6 1 3.5 1s3.5-.5 3.5-1c0-.6-1.6-1-3.5-1s-3.5.4-3.5 1zm11 0c0 .5 1.8 1 4 1s4-.5 4-1c0-.6-1.8-1-4-1s-4 .4-4 1zm12 0c0 .5 2 1 4.5 1s4.5-.5 4.5-1c0-.6-2-1-4.5-1s-4.5.4-4.5 1zm13 0c0 .5.7 1 1.6 1 .8 0 1.2-.5.9-1-.3-.6-1-1-1.6-1-.5 0-.9.4-.9 1zm5.5 0c.3.5 1 1 1.6 1 .5 0 .9-.5.9-1 0-.6-.7-1-1.6-1-.8 0-1.2.4-.9 1zm6.5 0c0 .5 1.8 1 3.9 1 2.2 0 4.3-.5 4.6-1 .4-.6-1.2-1-3.9-1-2.5 0-4.6.4-4.6 1zm12.5 0c-.4.6 1.2 1 3.9 1 2.5 0 4.6-.5 4.6-1 0-.6-1.8-1-3.9-1-2.2 0-4.3.4-4.6 1zm12.5 0c0 .5 1.8 1 4 1s4-.5 4-1c0-.6-1.8-1-4-1s-4 .4-4 1zm11 0c0 .5 2 1 4.5 1s4.5-.5 4.5-1c0-.6-2-1-4.5-1s-4.5.4-4.5 1zm13 0c0 .5 1.8 1 4 1s4-.5 4-1c0-.6-1.8-1-4-1s-4 .4-4 1zm12 0c0 .5 1.8 1 4 1s4-.5 4-1c0-.6-1.8-1-4-1s-4 .4-4 1zm12.5 0c.3.5 2.2 1 4.1 1 1.9 0 3.4-.5 3.4-1 0-.6-1.8-1-4.1-1-2.4 0-3.8.4-3.4 1zm11.5 0c0 .5 1.9 1 4.3.9 3.2 0 3.7-.2 2.2-.9-2.8-1.2-6.5-1.2-6.5 0zm12 0c0 .5 1.9 1 4.3 1 3.1 0 3.8-.3 2.7-1-2-1.3-7-1.3-7 0zm12.5 0c-.4.6 1 1 3.4 1 2.3 0 4.1-.5 4.1-1 0-.6-1.5-1-3.4-1s-3.8.4-4.1 1zm116.5.4c0 1.7 7.5 6.9 9.2 6.4.7-.3-.5-1.6-3-3.1-2.3-1.5-4.2-3.2-4.2-3.7 0-.6-.4-1-1-1-.5 0-1 .6-1 1.4zm18.4-.6c.7 1.2 6.6 1.3 6.6.1 0-.5-1.6-.9-3.6-.9-1.9 0-3.3.4-3 .8zm53.1.2c.3.5 2.2 1 4.1 1 1.9 0 3.4-.5 3.4-1 0-.6-1.8-1-4.1-1-2.4 0-3.8.4-3.4 1zm11.5 0c0 .5 1.8 1 4 1s4-.5 4-1c0-.6-1.8-1-4-1s-4 .4-4 1zm11.5 0c-.4.6 1.2 1 3.9 1 2.5 0 4.6-.5 4.6-1 0-.6-1.8-1-3.9-1-2.2 0-4.3.4-4.6 1zm12.5 0c0 .5 1.8 1 4 1s4-.5 4-1c0-.6-1.8-1-4-1s-4 .4-4 1zm12 0c0 .5 1.8 1 4 1s4-.5 4-1c0-.6-1.8-1-4-1s-4 .4-4 1zm12.5 0c.3.5 2.2 1 4.1 1 1.9 0 3.4-.5 3.4-1 0-.6-1.8-1-4.1-1-2.4 0-3.8.4-3.4 1zm11.5 0c0 .5 1.6 1 3.5 1s3.5-.5 3.5-1c0-.6-1.6-1-3.5-1s-3.5.4-3.5 1zm11 0c0 .5 2 1 4.5 1s4.5-.5 4.5-1c0-.6-2-1-4.5-1s-4.5.4-4.5 1zm12.5 0c.3.5 2.2 1 4.1 1 1.9 0 3.4-.5 3.4-1 0-.6-1.8-1-4.1-1-2.4 0-3.8.4-3.4 1zm11.5 0c0 .5 1.6 1 3.6 1 2.1 0 3.3-.4 2.9-1-.3-.6-1.9-1-3.6-1-1.6 0-2.9.4-2.9 1zm10.5 0c.3.5 1.9 1 3.6 1 1.6 0 2.9-.5 2.9-1 0-.6-1.6-1-3.6-1-2.1 0-3.3.4-2.9 1zm10 0c.3.5 1.9 1 3.5 1s3.2-.5 3.5-1c.4-.6-1-1-3.5-1s-3.9.4-3.5 1z"/>
	<title>Diagram with two figures, showing the same vertical height. Figure 1 shows a small horizontal distance and a steep gradient, while Figure 2 shows a larger horizontal distance and a lower steepness.</title>
</svg>
