<?xml version="1.0" encoding="utf-8"?>
<svg xmlns="http://www.w3.org/2000/svg" viewBox="0 0 884 578">
	<path d="M710.037 2.065c-1.4 1.1-4.5 3.3-6.8 4.8-2.4 1.5-6 5-8.1 7.7-3.7 4.9-3.7 4.9-10.7 5.5-10.2.9-13.4 3.2-14.7 10.5-.5 2.5-5.1 13.6-6.4 15.3-.1.2-2-.8-4.1-2.3-2.1-1.4-4.2-2.6-4.8-2.6-2 .2-9 10.2-11.1 16.2-1.2 3.4-3.3 7.1-4.5 8.1-10.2 7.8-11.8 10.4-11.8 18.4 0 1.8-1.2 6.3-2.6 10-3.6 9.3-5.4 16.1-5.4 20.5 0 2-1.1 6-2.5 9-1.4 2.9-2.5 6.6-2.6 8.3 0 1.6-.8 5.9-1.7 9.5-1.7 6.2-1.9 6.4-5.6 7.2-5.4 1.1-10.1 4.2-12.4 8.2-1.3 2.3-3.3 3.8-5.9 4.6-4 1.4-8.3 3.8-9.4 5.4-.4.4-1 6.5-1.4 13.5-.5 8.4-1.4 14.3-2.6 17.6-3.1 8.3-3 8.2-9 4.3-3.5-2.3-7.2-3.8-10.3-4.2-2.8-.3-5.9-1.4-7-2.5-1.2-1-5.6-3.5-9.8-5.6-4.3-2.1-7.8-4.2-7.8-4.6 0-.3 2.2-1.6 5-2.8l4.9-2.1 7.9 2.7c5.3 1.8 8.4 2.4 9.8 1.8 1.6-.7 1.2-.9-2.1-1.5-2.2-.3-6.2-1.6-8.9-2.8-6.1-2.7-6-2.7-12.3.4-4.3 2.2-5.5 2.5-6.8 1.4-.8-.7-1.5-1.8-1.5-2.5 0-1.9-11.4-11.5-13.6-11.5-2.6 0-13.2 6.9-13.9 9-.5 1.5-10 6.5-16.2 8.4-1.3.4-3.7 3.5-6.2 7.9-3.9 7-13 17.3-18.4 21-1.8 1.2-2.7 2.7-2.7 4.5 0 1.5-.3 4.4-.6 6.4-.6 3.3-1 3.8-3.4 3.8-1.5 0-5.7 1.3-9.3 3l-6.6 3-5.2 10.5c-5.7 11.7-10.3 17-18.3 21.2-4.3 2.2-5.4 2.4-8.4 1.5-5.3-1.6-6.6-.3-9.7 9.5-4.5 14.5-5.3 15.7-10.5 16.3-4.4.5-4.5.6-6.2 5.5-.9 2.7-1.7 6.2-1.7 7.7-.1 3.8-2.6 5.8-7.3 5.8-3.4 0-4.6-.6-7.7-3.8-2-2.1-4.8-4.6-6.4-5.6-4-2.4-8.7-13-8.7-19.4 0-4.9-.1-5.1-3.4-6.2-1.9-.6-4.7-2-6.1-3.2-3.2-2.5-4-1.8-5.9 4.5-1.6 5.4-9.4 16.6-11.6 16.7-.8 0-3.7 1.3-6.5 2.8-3.8 2-6.1 4.4-9.7 9.9-3.6 5.4-5.4 7.3-7.6 7.8-2.6.5-3.1 1.2-3.7 5-.3 2.5-1 4.7-1.5 5-.4.3-1.1 2.4-1.5 4.8-.3 2.3-1.3 5.9-2.3 8.1l-1.6 3.8-4.8-.5-4.8-.6-3.2 6.2c-3.8 7.7-5.8 14.7-5.8 21.2 0 5.6-.6 7-3.5 7.9-2.7.8-9.3 15.2-10.1 22.1-.4 2.7-1.3 5.7-2 6.5-.7.9-1.8 3.7-2.4 6.4-.6 2.6-1.7 6.4-2.5 8.3-1 2.2-1.5 6.9-1.5 12.5 0 7.1-.4 9.6-1.8 11.6-2.5 3.6-3.9 7.8-4.7 13.4-.8 5.8-2.7 7.8-5.4 5.4-2.2-2-2.7-4.2-4.5-18l-1.3-9.9-4.7-4.4c-2.6-2.3-5.1-4.3-5.5-4.3-1.4 0-3.1 2.4-3.1 4.5 0 1.1-1.3 3.2-3 4.7-2.4 2.1-3 3.4-3 6.8 0 5.5-2.3 10.3-6.6 13.5-1.9 1.4-3.4 3.5-3.4 4.5s-.9 2.5-2 3.3c-1 .7-2.3 2.5-2.9 3.9-.8 2-1.8 2.6-5.3 3-6.2.7-11.9 3.8-14.5 7.8-1.3 1.9-3.2 4.6-4.3 5.8-1.1 1.4-2 3.8-2 5.8 0 2.3-.9 4.4-3.2 7-1.8 2-4.2 5.5-5.3 7.8-1.7 3.5-2.5 4.1-5.5 4.4-1.9.2-4.4 1.2-5.5 2.2-1.1 1-3.4 2.5-5.1 3.3-4.4 2.3-8.4 9.4-8.4 15.1 0 11.2-5.3 23.7-11.3 26.6-2.1 1-4.4 1.7-5.2 1.4-1.5-.6-4.5-6.4-4.5-8.6 0-.8-.3-1.8-.7-2.1-.4-.4-1.4-2.9-2.3-5.5-1.6-4.7-1.7-4.7-6.7-5.2-3.1-.3-6-1.3-7.3-2.5-2.3-2.1-5-7.7-5-10.4 0-2-9.1-21.1-10.1-21.1-.4 0-1.9 2-3.3 4.5-4 6.8-5 5.7-10.5-10.5-1-3.2-2.4-5.5-3.2-5.5-.8 0-2.5 2.8-3.9 6.2-1.7 4.2-3.1 6.3-4.2 6.3-.9 0-1.8-.5-2-1.2-.8-2.3-5.8.2-9 4.7-1.8 2.4-4.5 4.8-6 5.4-1.6.5-2.8 1.7-2.8 2.5 0 2.7-2.2 6.4-4.1 6.9-1 .3-2.3 1.7-2.9 3.1-1.1 2.9-4.9 4.3-7.6 2.8-2.5-1.4-10.3 4.1-11 7.7-.2 1.4-.9 3.9-1.5 5.6-1.6 4.4-3 10.3-3.8 16.5-.4 3-1.5 6.8-2.4 8.5-1.8 3.2-2.5 13.2-.7 10.5.5-.8 1-2.6 1-4s1-4.1 2.1-5.9c1.2-2 2.2-5.5 2.3-8.1.1-2.5.6-5.2 1.1-6 .5-.8 1.2-3.2 1.6-5.5 2-10.5 3.1-13.1 6.7-15.4 2.9-1.9 3.8-2.1 5.6-1.1 2.9 1.5 7.4-.2 8.6-3.4.5-1.3 1.8-2.7 2.9-3.1 1.3-.4 2.5-2.1 3.3-4.6.7-2.6 2.1-4.5 3.7-5.4 1.5-.7 4.1-3.4 5.9-5.9 3.7-5.1 4-5.2 6.8-3.1 3.6 2.7 5 1.8 7.4-4.5 1.2-3.3 2.5-6 2.9-6 .4 0 1.9 3.8 3.5 8.5 2.4 7.7 5.1 11.5 7.8 11.5.4 0 1.7-1.8 2.8-4 1.1-2.2 2.4-4 2.8-4 1.1.1 6.9 12.9 9.4 21 1.9 6.2 2.9 7.9 5.8 9.8 2.7 1.8 4.3 2.2 7.1 1.7 3.5-.6 3.7-.5 4.7 3.2.5 2.1 1.5 5.1 2.1 6.8.6 1.6 1.3 4.2 1.6 5.6.2 1.5 1.7 3.4 3.1 4.4 2.4 1.5 3.4 1.6 7.8.6 4.7-1.1 5.4-1.7 8.8-7.1 3.2-5.1 3.7-6.8 4.3-14.6.9-12.5 3.3-18.1 9.5-22.2 2.7-1.7 5.9-3.2 6.9-3.2 4 0 6.9-1.9 8-5.3.6-1.8 2.9-5 5-7.1 3-2.9 4.1-4.9 4.6-8.4.4-2.8 1.4-5.2 2.5-5.9 1-.7 2.1-2.6 2.5-4.2.9-4 3.1-5.7 9.5-7.1 9.3-2 10.4-2.5 11.6-4.8.6-1.3 2-3.3 3.1-4.5 1.1-1.2 2.6-3.7 3.3-5.5.7-1.7 1.6-3.2 2.1-3.2 1.9 0 5.7-7.8 6.3-12.9.5-4 1.3-5.9 3.2-7.3 1.3-1.1 2.4-2.6 2.4-3.4 0-2.8 3-2.7 5.9.2 2.4 2.5 3 4.4 4.5 13.4 2.3 14.3 3.4 17.6 6.3 18.9 1.3.6 3 1.1 3.7 1.1 1.7 0 4.1-5.8 5.1-12 .4-2.5 1.9-6.3 3.3-8.5 2.4-3.6 2.7-5.1 2.9-13.7.2-6 .8-11.2 1.8-13.4.8-2 1.5-5.1 1.5-6.9 0-2.4.6-3.4 2.5-4.3 2.2-1 2.5-1.7 2.5-6.8 0-8.1 5.3-21.4 8.5-21.4 2.8 0 3.1-.8 4.6-11.7 1.4-9.9 6.7-23.9 9-23.7.8.1 3.3.4 5.6.8l4.1.7 2.1-5.6c1.2-3.1 2.1-6.8 2.1-8.3 0-5.2 3.6-12.6 6.6-13.8 1.6-.7 4.1-3.1 5.7-5.5 1.5-2.4 3.5-5.6 4.4-7 1.7-2.7 7.8-6.3 12.3-7.4 3.3-.7 11.1-11.7 12.3-17.3.5-2.3 1.1-4.2 1.5-4.2.3 0 2.5.7 4.8 1.6 4.5 1.7 5.4 3.3 5.4 9.6 0 2 .4 3.9.9 4.3.5.3 1.7 2.7 2.5 5.3 1.3 3.7 2.5 5.3 6.2 7.6 2.5 1.6 5.5 4.4 6.7 6.2 2.1 3.3 2.4 3.4 8.9 3.4 7.2 0 8.8-1.1 8.8-6.1 0-1.1.8-4.3 1.7-6.9 1.6-4.5 2-4.9 5.9-5.5 2.3-.3 4.7-1.1 5.2-1.8.6-.7 2.8-6.4 4.9-12.7l3.9-11.5 4.5.2c5.5.3 11.5-2.4 18-8 3.8-3.3 6-6.5 10-14.8 5-10.3 5.3-10.7 10.5-13.2 3.1-1.6 7.1-2.7 9.4-2.7 4.4 0 4.4 0 5.4-9.5.5-4.1 1.1-5.4 3.8-7.5 7.6-5.9 14.2-13.9 18.8-22.9 1.7-3.2 3.2-4.2 10.2-7.1 5.4-2.2 9.3-4.6 11.3-6.8 3-3.4 9.7-8.2 11.3-8.2 2.4 0 10.4 7.6 12.9 12.1 2.5 4.7 3.5 5.5 11 9 4.6 2.1 9.6 4.7 11.1 5.8 1.5 1 4.8 2.2 7.4 2.5 4.4.5 15.8 6.6 15.8 8.4 0 2.1-3 11.2-4.7 14.7-1.4 2.9-2.2 7-2.7 14.5l-.6 10.5-4.5 4.2c-6.5 5.9-7.2 8.4-7.4 25.8-.4 28.9-3.3 44.4-9.4 49.8-5 4.5-6 8.1-6.7 25.2-.6 12.6-1.2 17.2-2.8 21.5-1.2 3-2.1 7.2-2.2 9.3 0 2-.9 5.7-2 8.1-1.8 3.7-3.2 4.9-9.8 8.4-4.3 2.2-9.9 4.3-12.7 4.7-10.3 1.4-12.2 2.3-15.8 7.3-1.9 2.6-3.7 5.7-4.1 6.9-1 3.2-2.4 4-11.1 6.3-4.4 1.2-9 2.7-10.1 3.5-3.2 2.1-11 14.3-12.4 19.3-1.9 7.2-3.1 9.1-7.9 12.1-5.2 3.2-13 13.8-15.8 21.5-1.9 5.1-11.5 15.8-18.4 20.5-2.3 1.6-4.2 4.1-5.3 7-1 2.5-3.1 7.4-4.7 10.8-3.2 6.9-5.4 20-2.5 15.3.8-1.4 1.5-3.6 1.6-5 0-1.4 1.2-5 2.7-8 1.5-3 3.4-7.3 4.3-9.6 1.1-2.9 4.6-6.9 13-14.5 9.5-8.7 11.8-11.3 13.1-15.1 2.4-7.2 6.7-14.5 10-17 8.5-6.5 9.8-8.1 11.5-13.1 1.9-5.7 5.7-13.1 8-15.4.8-.8 2.6-2.9 3.9-4.8 2.1-2.7 3.6-3.4 8.8-4.5 9.4-1.8 11.2-2.8 13.1-6.8 1-2 3.1-5.2 4.6-7.2 2.6-3.3 3.8-3.9 14.2-6.4 6.2-1.5 13-3.7 15.1-4.7 8.1-4.2 12.7-12.4 12.7-22.6 0-3.4.7-6.8 2-9.3 1.7-3.3 2-5.9 2-16.8 0-12.5 1.8-22.2 4-22.2.5 0 2.3-2.1 4-4.6 5.4-8.1 7.5-19.9 8.5-49.3.5-13.7 1-18.1 2.3-20.3.9-1.5 1.9-2.8 2.3-2.8.4 0 2.1-1.1 3.7-2.5 2.8-2.3 2.9-2.8 3.6-13.7.5-8.8 1.2-12.4 3-16.3 1.3-2.8 2.9-7 3.6-9.5.7-2.5 2.6-8.6 4.3-13.5 2.7-7.8 3.1-10.3 3-19 0-5.5.3-10.8.8-11.7 1-1.9 6.8-5.1 11-6.1 1.7-.5 3.1-1.9 4.3-4.6 1.8-4 4.8-5.8 12.5-7.8 3.4-.8 3.5-.9 5.8-11.2 1.3-5.7 3.4-12.9 4.7-16 1.3-3.1 2.6-8.4 3-11.8.3-3.5 2.1-10.2 3.9-15 1.9-4.9 3.7-10.7 4.1-13.1 1.2-7.8 3.4-11.7 7.2-13.3 2-.7 4.4-2.5 5.3-3.9 2-2.8 5.1-10.8 5.1-13 .1-1.5 5.4-8 6.6-8 .4 0 2.2 1.1 4 2.5 1.8 1.4 3.6 2.5 4.1 2.5 1.1 0 9.3-15.6 9.3-17.7 0-1 .9-3.2 1.9-4.9 2-3.2 5.5-4.5 12.4-4.4 4.5.1 9.4-2.8 11.1-6.5 1.3-2.7 9.3-9.5 11.2-9.5 1.2 0 .2 3-1.4 4.2-1 .7-2.2 2.2-2.6 3.2-1.4 3.8 3.2-1.3 5.5-6 1.1-2.4 2.4-4.4 2.9-4.4.4 0 3.9 3 7.6 6.7 3.8 3.8 8.3 7.5 10.1 8.5 2.6 1.3 3.3 2.5 4.3 7.2 1.1 5.4 3.1 7.8 5.6 6.9 1.2-.4 2.3 2.6 2.4 6.2 0 1.1.9 3.1 2 4.5s2 4.1 2 6.2c0 2 .5 4 1 4.3.6.4 1-.6 1-2.4 0-1.6.2-3.6.6-4.4.3-.8-.6-2.8-2.1-4.5-1.9-2.3-4.5-10.1-4.5-13.9 0-.2-1.1-.1-2.4.3-2.6.6-2.9.1-4.2-7-.5-3.2-1.3-4.1-4.3-5.5-2-.9-6.1-4.3-9-7.6-5.7-6.5-8.9-9.5-10-9.5-.3.1-1.7 1-3.1 2.1zm73.1 10.6c-1.7 2.5-3.1 5.2-3.1 5.9 0 .7-1.7 1.6-3.7 2-7.1 1.3-9 3-12.8 11.1-2.7 5.9-3.5 8.9-3.5 13.3 0 11.4-2.4 15.2-6.4 10.2-1.4-1.7-2.1-2.1-3-1.2-1.4 1.4 4.5 7 7.4 7 2.8 0 3.7-2.5 4.3-12.5.5-9 3.2-17.8 6.5-21.8.9-.9 4.2-2.6 7.5-3.6 5.4-1.6 6.1-2.1 7.3-5.6.7-2.1 2-4.5 2.8-5.4 1.5-1.4 1.9-1.4 4.9.3 1.7 1.1 5.1 3.4 7.4 5.3 2.3 1.8 4.6 3.3 5.1 3.3s2.6-1.1 4.6-2.5c3.5-2.4 3.8-2.4 6.4-.8 1.5.9 3.9 2.8 5.4 4.1 2.2 2 3.4 2.4 6.2 1.9 2.6-.4 3.8-.2 4.5 1 1.3 2.4 3.4.7 2-1.8-.8-1.6-1.7-1.8-4.4-1.3-2.9.5-4.2 0-9.1-3.5-6.4-4.6-9.2-5.1-11.9-2.1-2.3 2.6-3.7 2.5-7.2-.4-2.4-2-12.4-7.6-13.7-7.6-.2 0-1.8 2.1-3.5 4.7zm51.4 17.3c.4 1.4 1 3.8 1.4 5.5.4 1.7 1.3 3 2.3 3 .8 0 2.2.6 3.1 1.3.8.7 1.9 1.2 2.3 1.1 1.6-.4 6.4 1.3 6.4 2.2 0 .7 2.7 4.1 6.5 8 .9 1 3.5 2.2 5.8 2.7 5.2 1.3 20.4 2.7 19.6 1.8-.5-.6-7.7-2.2-18.3-4.3-1.7-.3-5.4-3-8.9-6.4-4.1-4-7.4-6.3-10.1-7-2.3-.6-4.7-1.3-5.3-1.5-.7-.2-1.3-1.2-1.3-2.3 0-1-.9-2.9-2.1-4.2l-2.1-2.4.7 2.5zm-108.5 24.4c0 .7.8 2.4 1.8 3.7 2.3 3.1 8.4 13.2 11.3 18.9 1.6 3.2 2.4 4 2.7 2.7.4-1.9-3.6-9.4-10.6-20-4.7-7-5.2-7.6-5.2-5.3zm17 27c0 .8 1.3 1.7 2.8 2.1 1.8.3 3.4 1.8 4.5 3.8 1.3 2.4 3.1 3.7 6.6 5 5.3 1.9 6.3 3.3 8.5 13 1.4 5.9 1.1 11.5-.8 14.5-.3.5.1 2.3.9 3.8.8 1.6 1.5 3.7 1.5 4.7s1.5 2.4 3.5 3.4c1.9.9 4.4 3.2 5.5 5.1 1.1 1.8 2.4 3.1 3 2.7 1.5-.9-3.1-7.6-6.3-9-2.2-.9-3.5-2.5-4.8-6.1-1.7-4.3-1.7-5.2-.5-7.9 1.2-2.5 1.2-4.1.2-9.5-2-10.3-3.3-13.3-6.7-15.3-1.7-.9-3.9-1.7-5-1.7-1.2 0-2.6-1.4-3.8-3.9-1.4-2.6-3.1-4.2-5.2-5-4-1.4-3.9-1.4-3.9.3zm-.2 3.2c-.8 1.2 2.3 15.8 5.3 25.2 2 6 2 6.5.3 10.7-1 2.7-1.4 5.3-.9 6.7.4 1.3 1 8 1.4 15 .8 15 2.2 18.1 8.5 18.6 2.1.2 4 1 4.3 1.8.8 2.2 2.5 1.6 2.1-.9-.2-1.8-1.1-2.3-4.7-2.7-7-.8-7.8-2.8-8.6-19.6-.4-9.3-.2-15.6.5-18.6 1-4 .9-5.5-1.3-12.4-1.4-4.4-3.4-11.7-4.4-16.4-1-4.7-2.2-8-2.5-7.4zm11.4 36.9c0 1.6.2 2.2.5 1.2.2-.9.2-2.3 0-3-.3-.6-.5.1-.5 1.8zm10 5.5c0 1.4.2 1.9.5 1.2.2-.6.2-1.8 0-2.5-.3-.6-.5-.1-.5 1.3zm-7.7 6.5c.6 5 2.5 11.8 3.1 11.3.2-.3-.5-3.8-1.6-7.9-1.2-4.1-1.8-5.6-1.5-3.4zm7.7.5c0 1.4.2 1.9.5 1.2.2-.6.2-1.8 0-2.5-.3-.6-.5-.1-.5 1.3zm17.4 2.8c-.3.6 1.3 1.8 3.7 2.7 2.4.9 5.7 2.8 7.3 4.2 1.6 1.4 4.2 3.5 5.7 4.7 2.8 2.2 2.8 2.3 1.2 6.2-1.1 2.8-2.6 4.4-5.4 5.8l-3.9 1.8-.6 7.8c-.5 5.3-.3 8.6.4 10.1.7 1.2 1 3.5.7 5.3-.3 1.7.2 4.6.9 6.5 1.5 3.5.6 8.7-1.9 11.9-1.2 1.5-.3 2.6 1.6 1.9 2-.7 4.1-11.1 2.8-13.6-.6-1.1-1.1-4.2-1.1-7 0-2.7-.5-5.3-1.1-5.7-.7-.4-.8-2-.4-4.3.3-2 .6-5.5.6-7.8-.1-4 .1-4.3 4.4-6.2 3.2-1.4 4.6-2.7 5-4.5.3-1.4.7-3.6 1-4.9.3-1.7-.8-3.3-5.1-7.2-3.1-2.7-7-5.4-8.7-6.1-1.8-.6-3.9-1.4-4.8-1.8-1-.4-2-.3-2.3.2zm-10.4 5.2c0 1.9.5 5.3 1.3 7.5l1.3 4-.6-5c-.3-2.8-.9-6.1-1.3-7.5-.6-2.2-.7-2.1-.7 1zm-5 2c0 1.4.2 1.9.5 1.2.2-.6.2-1.8 0-2.5-.3-.6-.5-.1-.5 1.3zm14.4 7.2c-1.1 3.7 1.1 19.9 3 21.8 1.3 1.3 1.4 1.2.3-1.5-.6-1.7-1.5-7.5-1.8-13-.5-7.4-.9-9.3-1.5-7.3zm-14.3 12.2c.7 1.4 1.3 2.3 1.5 2.1.7-.6-.9-4.5-1.8-4.5-.4 0-.3 1.1.3 2.4zm18.4-1.7c-.4.3-.7 1.3-.7 2.2.1 1.3.3 1.3 1.1-.2 1.1-1.9.8-3.3-.4-2zm-7.6 3.3c0 .8.6 2.6 1.5 4l1.5 2.5-.7-2.5c-.3-1.4-1-3.2-1.5-4-.7-1.3-.8-1.3-.8 0zm-14.7 5.2c1 5.1 6.2 17.4 9.5 22.2 2.5 3.5 2.9 5 2.4 7.9-.3 2-1.4 4.4-2.4 5.3-1.1.9-1.9 2.5-1.9 3.5s-1.4 3.9-3.1 6.4c-2.6 3.9-3.2 5.7-3.5 12.3-.4 7.3-.2 8 3.3 14.7 2.3 4.1 5.1 7.8 6.9 9 4.1 2.7 5.8 6.5 5 11.9-.5 3.3-.3 4.8 1.3 6.7 1.3 1.7 2.1 4.9 2.6 10.3.6 6.4 1.6 9.6 5.1 16.6 4 8.2 4.8 13 2.3 13-.5 0-.9 1.5-.9 3.4 0 2.7-1 4.5-4.2 8-7.8 8.4-10.8 12.3-10.8 14.3 0 5-6 8.3-15.1 8.3h-7.2l-4.8 5.2c-2.8 3-4.9 6.2-4.9 7.5 0 4.2-2.2 7-7.1 9.4-2.7 1.2-5.5 2.9-6.1 3.6-.6.7-2.1 1.3-3.3 1.3-1.3 0-4.6 1.6-7.5 3.5-2.9 1.9-5.5 3.5-5.9 3.5-.5 0-1.6-1.8-2.6-4s-2.5-4.6-3.5-5.5c-1.5-1.4-2-1.4-4.9.1-2.4 1.2-4.6 1.4-9.1.9l-5.9-.7-2.7 4.4c-1.5 2.3-4.2 5.8-6 7.7-2.9 2.9-4.9 7.4-4.4 9.8.3 1.6 6.3 1.2 10.1-.6 2.1-1.1 3.9-1.5 3.9-1s1 1.9 2.2 3.1l2.1 2.1-2.9 2.5c-1.6 1.3-4.3 3.7-6 5.2-1.7 1.6-5.3 3.4-8 4.1-6.3 1.5-12 4.4-12.7 6.4-.4.8-1.7 2-3 2.6-1.3.6-3.8 3.5-5.6 6.5-2.5 4.3-4.3 5.9-8.4 7.9-3.1 1.5-6.9 4.4-9.5 7.5-5 5.8-7.2 6.4-7.2 1.9 0-2.6-.3-3-1.7-2.4-1 .4-3.4 1.1-5.3 1.5-2.8.5-3.1.9-1.7 1.5.9.4 2.6.5 3.8.2 1.5-.4 2.3.1 2.9 1.9 1.6 4 5.1 3.1 10.6-2.9 2.7-2.8 7.3-6.6 10.4-8.2 3.6-1.9 6.1-4.1 7.1-6.2.9-1.8 4-5.5 6.8-8.2 4.8-4.6 7.5-6 14.2-7.5 3.4-.7 17.9-12.2 17.9-14.2 0-.8-.5-2-1-2.7-.6-.7-1.9-2.3-2.9-3.7l-2-2.5-4 2.2c-4.2 2.4-8.1 3-8.1 1.2 0-1.7 2.2-5.3 4.1-6.7 1-.7 3.1-3.4 4.6-6 3.5-6 4.1-6.4 7.6-4.6 2.5 1.4 3.4 1.3 7.8-.1 2.8-1 5.1-1.5 5.3-1.4.1.2 1.3 2.2 2.6 4.4 4.3 7.1 4.4 7.2 10.5 3.1 3.1-2.1 6.7-3.6 8.4-3.6 1.6 0 3.4-.7 4.1-1.5.7-.8 3.9-3.1 7.1-5.1 4.7-2.8 6-4.2 6.9-7.2.5-2 1-4.2 1-4.7 0-.6 1.8-2.8 3.9-4.9 3.8-3.7 4.2-3.8 8.9-3.2 4.2.5 5.7.2 11.3-2.6 5.7-2.9 6.5-3.7 7.3-7.1.4-2.1 1.8-4.9 3-6.2 1.1-1.3 3.7-4 5.6-6.2 2-2.1 4.4-5.8 5.4-8.3 1-2.5 2.2-5.3 2.7-6.2 1.5-2.9 1-6.8-1.1-10.3-4.2-6.8-7.7-16.9-7.2-21.1.3-2.8-.3-5.6-1.8-8.9-1.6-3.5-2-5.9-1.6-8.5.7-4.8-1.4-9.2-5.7-11.8-2.2-1.2-4.5-4.3-7-8.9-4.6-8.7-5.1-16.5-1.5-22.3 1.2-1.9 3.2-5.6 4.5-8.3 2.3-4.6 4-5.9 4.7-3.5.7 2.5 3.9 24.4 4.2 29.3.5 6.2 3.3 15 4.5 13.8.7-.7.1-3.9-3.2-16.3-.5-1.9-1.6-8.7-2.5-15-.9-6.3-2-12.2-2.4-13.1-.5-.8-.6-3.3-.3-5.5.4-3.5.1-4.6-2.4-7.5-1.6-1.9-3.5-5.2-4.2-7.4-.7-2.2-2.2-5.9-3.2-8.3-1.1-2.3-2.2-5.6-2.6-7.2-.3-1.7-1-3-1.5-3-.6 0-.8 1.4-.4 3.2zm12.6 7.2c0 .8.4 1.7.9 2 .5.4.7-.3.4-1.4-.6-2.3-1.3-2.6-1.3-.6zm7.2 2.6c0 1.4.2 1.9.5 1.2.2-.6.2-1.8 0-2.5-.3-.6-.5-.1-.5 1.3zm-221.2 3.4c0 .2 1.8 1.3 4 2.5 2.2 1.1 4 1.6 4 1.1s-1.6-1.7-3.6-2.5c-3.9-1.6-4.4-1.7-4.4-1.1zm217.1 5.2c0 1.1.3 1.4.6.6.3-.7.2-1.6-.1-1.9-.3-.4-.6.2-.5 1.3zm1 3.4c0 .8.6 4 1.4 7l1.5 5.5-.6-4.9c-.6-4.9-2.3-10.5-2.3-7.6zm3 15.6c0 1.1.3 1.4.6.6.3-.7.2-1.6-.1-1.9-.3-.4-.6.2-.5 1.3zm6.9 1.7c0 1.9 5.9 12.6 9.3 16.9 2.8 3.5 2.9 3.9 2.2 10.7-.6 6.2-.4 7.5 1.5 10.6 1.7 2.7 2.8 3.5 5.1 3.5 2.4 0 3.3.6 4.3 3.2 2.8 6.8 2.8 7.7.4 10.1-2.5 2.5-4.5 8.6-5.8 18.1-.8 5.2-.6 6.2 1.1 8.4 1 1.4 1.9 3.8 1.9 5.4 0 1.7.9 4.1 2 5.5 1.1 1.4 2 4.1 2 5.9 0 1.9.5 3.4 1 3.4 1.7 0 1.1-6.8-1-10.2-1.1-1.8-2-4.5-2-5.9 0-1.5-.8-3.7-1.8-4.9-1.5-1.9-1.6-3.1-.9-8.3 1.1-7.1 4.2-15.7 6.4-17.4 1.3-1 1.3-1.8-.2-7-1.7-6.2-3.5-8.3-7.1-8.3-3.9 0-5.5-4-5.2-13.5.3-8.2.2-8.5-2.8-11.7-1.7-1.8-4.4-6.1-6-9.6-2.8-5.9-4.4-7.7-4.4-4.9zm-3.8 1.7c0 1.4.2 1.9.5 1.2.2-.6.2-1.8 0-2.5-.3-.6-.5-.1-.5 1.3zm3 6c0 1.9.2 2.7.5 1.7.2-.9.2-2.5 0-3.5-.3-.9-.5-.1-.5 1.8zm-13 0c0 1.4.2 1.9.5 1.2.2-.6.2-1.8 0-2.5-.3-.6-.5-.1-.5 1.3zm10.8.8c0 3.7 3 23.6 4 26.7.9 2.8 1 2.8.6-1-.3-2.2-1.2-9.2-2.1-15.5-1.6-11.1-2.5-14.7-2.5-10.2zm-9.8 4.7c0 1.6.3 3.9.8 5l.9 2-.1-2c0-1.1-.4-3.4-.8-5l-.8-3v3zm16.4 20.5c.4 2.4 1.2 6.2 1.9 8.5l1.4 4-.6-4.4c-.3-2.4-1.2-6.3-2-8.5l-1.3-4.1.6 4.5zm-.5 8.8c-.1 1.9 3.2 14.8 3.6 13.7.1-.6-.6-4.2-1.6-8-1.1-3.9-2-6.4-2-5.7zm-4.8 6.2c1 6.3 3 13 4 13 .5 0 .6-.8.2-1.8-.3-.9-1.3-4.4-2.2-7.7-1.7-6.8-2.8-8.7-2-3.5zm7.7-1.1c0 .5.5 1.3 1 1.6.6.3 1 .2 1-.4 0-.5-.4-1.3-1-1.6-.5-.3-1-.2-1 .4zm83.4 5.1c-3.8 3.8-5.6 5-8 5-3.8 0-8.4 3.4-8.4 6.2 0 1.8.3 1.7 2.9-1.1 1.9-2 3.9-3.1 5.8-3.1 2.1 0 4.2-1.4 8.2-5.5 3-3 5.2-5.7 4.9-6-.3-.3-2.7 1.7-5.4 4.5zm-81.3 10.5c0 1.1.9 4.5 1.9 7.5 1.7 4.9 1.8 5.1 1.3 1.5-.7-4.9-3.2-11.8-3.2-9zm61.1 5c-.7 1.1-2.5 4.5-4 7.5l-2.8 5.5-6.1.7c-9.4 1-15.5 5-16.8 10.8-.4 1.7-1.3 3.4-2.1 3.7-.8.3-1.4 1.8-1.4 3.4 0 1.6-.4 2.9-1 2.9-.5 0-1 .4-1 1 0 .5.7 1 1.5 1 1 0 1.5-1 1.5-2.9 0-2 .6-3.2 1.9-3.6 1.2-.3 2.1-1.9 2.6-4.2 1.1-5.9 7.8-10.1 16.7-10.2 5.2-.1 6.4-1.3 10.7-10.3 2.3-4.9 2.5-9.1.3-5.3zm-56.6 11c.3 1.6 1.1 5.6 1.8 8.7.6 3.1 1.4 6 1.8 6.3.9.9-1.8-12.5-3.1-15.5-1.1-2.4-1.1-2.4-.5.5zm79.2 4.3c-.1.5-3 2.9-6.3 5.5-5.6 4.3-6.5 4.6-13.5 5.1-4.1.3-9.3.5-11.5.5-5.9 0-11.1 4.8-13 12-.7 2.9-2.1 6.1-3.1 7.2-1.1 1.2-1.4 2.7-1 4.4.5 2.1.1 3.1-1.9 4.7-1.4 1.1-3.2 3.5-4 5.4-.8 1.9-2.9 4.3-4.9 5.5-1.9 1.1-3.8 2.9-4.1 3.9-.3 1-2.4 3-4.6 4.4-4.2 2.8-5.4 4.9-7.1 13.1-.6 2.7-2.1 7.1-3.4 9.6-1.7 3.4-2.2 5.6-1.7 8.2.4 2.6 0 4.6-1.5 7.1-1.2 2-2.4 5.2-2.8 7.3-.4 2.1-2.1 5.5-3.7 7.5l-3 3.8.9 8.7c.9 8.4 2.5 11.6 3.9 7.4.3-1.1 1.5-2.3 2.5-2.6 1.1-.3 4-2.6 6.5-5.1 2.5-2.4 5.2-4.4 5.9-4.4.7 0 2.5-1.2 4-2.7 1.5-1.5 3.6-3.1 4.8-3.7 1.2-.6 4.2-4.2 6.9-8 2.6-3.7 6.4-8.6 8.6-10.8 3.3-3.4 4.2-3.8 6.8-3.3 9.4 1.9 9.7 1.9 15.1-2.7 2.8-2.4 7.6-6.3 10.8-8.8 3.1-2.5 5.9-5.4 6.1-6.5 1.1-5.8 1.3-10.2.5-11.5-.5-.8-1-1.1-1-.5-.8 11.6-1.1 12.4-7 16.9-2.7 2-6.6 5.3-8.6 7.1-5.1 4.7-8.6 6-12.5 4.6-4.8-1.7-7.8-1.3-10.2 1.2-4.1 4.1-10.7 12.5-10.7 13.4 0 1.5-4.2 5.9-7 7.3-1.3.7-3.3 2.4-4.3 3.7-1 1.2-2.5 2.3-3.4 2.3-.8 0-3.2 1.7-5.2 3.7-2 2.1-4.9 4.5-6.4 5.3-2.5 1.2-2.9 1.2-3.7 0-1.8-2.7-1.1-9.4 1.3-12.9 4-6.1 4.7-7.6 4.7-9.6 0-1.2.9-3.8 2-6s2-5.7 2-8 1.1-6.1 2.5-8.9c1.4-2.7 2.5-5.9 2.5-7.1 0-3 3-11.5 4.1-11.5.5 0 3.6-2.7 7-6 3.3-3.3 6.5-6 6.9-6 .5 0 1.3-1.5 2-3.4.6-1.8 2.4-4.5 4-6 1.9-1.6 3-3.6 3-5.2 0-1.4.6-3.7 1.4-5.2.7-1.5 1.6-4.3 2-6.4.5-2.5 1.8-4.5 4.2-6.5 3.1-2.5 4.9-2.9 14.3-3.9 9.6-1 11.3-1.4 15.7-4.4 8-5.4 12.4-10 9.5-10-.5 0-1.1.4-1.3.8zm-64.3 19.2c.3.5 1.8 1 3.3 1 2.1 0 2.4-.2 1.2-1-2-1.3-5.3-1.3-4.5 0zm.7 5.5c0 1.6.2 2.2.5 1.2.2-.9.2-2.3 0-3-.3-.6-.5.1-.5 1.8zm-2 7.5c0 1.4.2 1.9.5 1.2.2-.6.2-1.8 0-2.5-.3-.6-.5-.1-.5 1.3zm-11.2 3.5c0 .8.2 1.5.4 1.5s.6-.7 1-1.5c.3-.8.1-1.5-.4-1.5-.6 0-1 .7-1 1.5zm-10.8 7.1c-1.8 3.7-3.1 6.8-2.8 7.1.2.2 1.9-2.5 3.7-6.2 1.7-3.6 3-6.7 2.7-7-.2-.2-1.9 2.5-3.6 6.1zm12.5-3c-1 1.9-1.2 3.2-.7 2.9 1.2-.7 3.3-5.5 2.7-6.1-.2-.2-1.1 1.2-2 3.2zm-6.4 3.1c-1 4.2-1 4.6.3 2.9 1.2-1.7 2-7.6 1.1-7.6-.2 0-.9 2.1-1.4 4.7zm13.8-3.1c0 1.1.3 1.4.6.6.3-.7.2-1.6-.1-1.9-.3-.4-.6.2-.5 1.3zm-5.1 11.9c-.7.9-1.1 1.8-.8 2 .3.3 1.1-.1 1.8-1s1.1-1.8.8-2c-.3-.3-1.1.1-1.8 1zm-14 2c-.7.9-1.1 1.8-.8 2 .3.3 1.1-.1 1.8-1s1.1-1.8.8-2c-.3-.3-1.1.1-1.8 1zm-4 6.6c0 .5.5.7 1 .4.6-.3 1-.8 1-1.1 0-.2-.4-.4-1-.4-.5 0-1 .5-1 1.1zm-6.1 9.5c-2.8 4.2-4.8 7.8-4.6 8.1.3.3 1.8-1.5 3.2-3.9 1.5-2.3 3.5-5.4 4.4-6.8 2.6-3.8 3.3-5 2.7-5-.3 0-2.8 3.4-5.7 7.6zm-23.4 14.4c-1.6 1.7-1.6 2-.3 1.5.9-.4 1.9-1.3 2.2-2.1.7-1.9.2-1.8-1.9.6zm-23.5 9.5c-1.9 1.9-3.1 3.5-2.7 3.5.4 0 2.3-1.6 4.3-3.5 1.9-1.9 3.1-3.5 2.6-3.5-.4 0-2.3 1.6-4.2 3.5zm9 7c-2.4 2.5-4 4.5-3.5 4.5.4 0 2.8-2 5.2-4.5 2.3-2.5 3.9-4.5 3.5-4.5-.4 0-2.8 2-5.2 4.5zm10.7 3c-3.1 3-6 5.5-6.5 5.5-.4.1-2.5 1.9-4.7 4.1-2.2 2.3-3.5 3.9-2.8 3.7 3.2-.9 22.5-19 20.1-18.8-.2 0-2.9 2.5-6.1 5.5zm-20.2 5c-2.1 1.9-3.7 3.6-3.5 3.9.3.2 2.3-1.1 4.5-2.9 2.2-1.9 3.7-3.6 3.5-3.9-.3-.2-2.3 1.1-4.5 2.9zm112.8.9c-4.8 5.3-5 6.5-.2 1.9 2.4-2.3 4.1-4.5 3.8-4.7-.3-.3-1.9 1-3.6 2.8zm-130.8 1.6c-.3.5-.1 1 .4 1 .6 0 1.1-.5 1.1-1 0-.6-.2-1-.4-1-.3 0-.8.4-1.1 1zm5.7 7.2c-3.5 2.8-6 5.3-5.7 5.7.4.3 1.1-.2 1.6-1.2.6-.9 1.5-1.7 2.2-1.7 1.3 0 9.2-6.9 8.6-7.5-.2-.2-3.2 1.9-6.7 4.7zm-10.3-2.5c-1.3 1.6-1.2 1.7.4.4 1.6-1.3 2.1-2.1 1.3-2.1-.2 0-1 .8-1.7 1.7zm128.1 1.8c-1.1 1.3-1 1.4.4.9.9-.3 1.6-1 1.6-1.5 0-1.3-.6-1.1-2 .6zm-103.5 1.5c-.3.5-.1 1 .4 1 .6 0 1.1-.5 1.1-1 0-.6-.2-1-.4-1-.3 0-.8.4-1.1 1zm-48 9.8c-4.9 5.3-8.1 9-7 8.2 2.4-1.7 17.5-16.9 17.5-17.5 0-1.4-2.4.7-10.5 9.3zm41-4.2-4 3.6 4.8-3.1c2.6-1.8 4.7-3.4 4.7-3.6 0-1.2-1.8-.1-5.5 3.1zm102 1.4c-.3.5-.1 1 .4 1 .6 0 1.1-.5 1.1-1 0-.6-.2-1-.4-1-.3 0-.8.4-1.1 1zm-135.1 3.1c-2.2 2.4-2.4 2.9-.8 2.1 2.4-1.3 4.9-4 4.2-4.7-.2-.3-1.8.9-3.4 2.6zm142.5-.3c-2.9 3.4-3.1 4.7-.3 2 1.5-1.5 2.6-3 2.3-3.2-.3-.3-1.2.3-2 1.2zm-86 1.9c-1.3 1.5-1.2 1.5.9.4 2.3-1.2 2.8-2.1 1.3-2.1-.5 0-1.5.7-2.2 1.7zm33.6 1.3c-.3.5-.1 1 .4 1 .6 0 1.1-.5 1.1-1 0-.6-.2-1-.4-1-.3 0-.8.4-1.1 1zm14.5 1.6c0 .8.5 1.2 1 .9.6-.3 1-1 1-1.6 0-.5-.4-.9-1-.9-.5 0-1 .7-1 1.6zm23.5.5c-1.1 1.6-.1 1.9 1.3.3.7-.8.8-1.4.3-1.4s-1.3.5-1.6 1.1zm-47.9 8.2c-3.1 3.5-10.8 11.6-17.3 18-6.4 6.5-11.4 11.9-11.2 12.2.5.4 28.6-27.3 32.9-32.4 1.8-2.2 2.6-4.1 1.6-4.1-.2 0-2.9 2.8-6 6.3zm18.3-3.4c-1.8 1.7-3.1 3.2-2.8 3.5.5.5 6.9-5 6.9-6 0-.8-.8-.4-4.1 2.5zm-104.7 8.3c-10.1 9.9-12 12.7-3.1 4.5 5.4-5.1 13.5-13.7 12.8-13.7-.2 0-4.6 4.1-9.7 9.2zm51.8-5.2c-1.3 1.1-2.1 2.2-1.8 2.5.2.3 1.5-.6 2.8-2 2.8-3 2.2-3.3-1-.5zm73 2.5c-.7.9-1.1 1.8-.8 2 .3.3 1.1-.1 1.8-1s1.1-1.8.8-2c-.3-.3-1.1.1-1.8 1zm-101.9 3.7c-1.8 2.1-2.9 3.8-2.3 3.8 1 0 6.7-6.9 6.1-7.4-.2-.1-1.9 1.5-3.8 3.6zm75.4-3.2c-.3.5-.2 1 .4 1 .5 0 1.3-.5 1.6-1 .3-.6.2-1-.4-1-.5 0-1.3.4-1.6 1zm-176 5.6c-1.1 2.5-3.7 6.4-5.7 8.6-2.1 2.3-4 4.8-4.3 5.7-.3.9-1.8 2.3-3.4 3.2-1.8 1.1-3.1 2.8-3.6 4.8-.5 2.4-1.2 3.1-3 3.1-1.3 0-3.2 1.1-4.3 2.5-1.1 1.4-3.5 3.2-5.4 3.9-2.4 1-4 2.7-5.2 5.5-1.8 3.8-5 5.8-8.4 5.2-.7-.1-2.9 1.2-5 2.8-4.5 3.8-6.8 3.9-11.7.5-5.3-3.6-10.5-3.1-12.4 1.2-.8 1.8-2.9 4-5 5.1-2.6 1.4-4 3-5.1 6.1-1.1 3.3-2.3 4.6-5.5 6.2-5.1 2.5-6.4 3.6-9.5 8.2-1.4 2.1-3.9 4.5-5.7 5.3-1.8.9-5.2 3.1-7.5 5.1-2.4 1.9-7.8 5.8-12.2 8.7-4.3 2.8-7.4 5.3-6.8 5.5.6.2 3.4-1.2 6.4-3.1 2.9-1.9 7.7-4.9 10.6-6.7 2.8-1.7 5.2-3.5 5.2-3.9 0-.5 2.2-2 4.8-3.4 3.1-1.7 6.1-4.4 8.3-7.7 2.7-3.9 4-5 6.1-5 2.9 0 5.5-2.9 8.1-9.3.9-2 2.3-3.7 3.1-3.7 1.7 0 7.6-5.4 7.6-6.9 0-.6 1.1-1.4 2.6-1.7 1.8-.5 3.1 0 4.9 1.6 3.7 3.5 9.5 3.8 14.9.6 2.6-1.5 4.6-2.4 4.6-2.1 0 .3 1.7-.3 3.9-1.4 2.4-1.3 4.3-3.2 5.2-5.3 1.5-3.8 2.6-4.8 5.6-4.8 1.4 0 2.9-1.1 3.9-3 1-1.6 3.1-3.5 4.7-4.1 1.6-.7 3.3-2.4 3.8-3.8s2.3-3.4 3.9-4.3c1.7-.9 3.5-2.9 4-4.4.6-1.4 2.2-3.5 3.6-4.7 2.8-2.2 7.9-12.6 6.7-13.8-.5-.4-1.7 1.3-2.8 3.7zm171.6-1c-1.4 1.3-2.3 2.6-2 2.9.3.3 1.6-.6 2.9-2 3-3.2 2.3-4-.9-.9zm14.3 12.6c-15.6 15.9-14.9 15.2-22.4 23.2-3.6 3.8-5.6 6.4-4.5 5.8 1.1-.6 7.9-7.2 15-14.7 7.2-7.6 15.2-15.8 17.8-18.4 4.3-4.1 7.5-8.1 6.4-8.1-.2 0-5.7 5.5-12.3 12.2zm-94.9-4.2c-2.7 2.7-4.5 5-3.9 5 .5 0 3.2-2.3 5.9-5 2.7-2.8 4.5-5 3.9-5-.5 0-3.2 2.2-5.9 5zm67.5 3.7c-4 3.8-10.8 10.2-15 14.3-4.3 4.1-10.5 10.1-13.9 13.3-3.3 3.2-6.1 6.3-6.1 6.9 0 .6 3.9-2.8 8.8-7.5 4.8-4.7 10.3-9.9 12.2-11.7 8.6-7.9 22.1-21.3 21.7-21.6-.2-.3-3.7 2.6-7.7 6.3zm-25-1.2c-1.8 1.9-3.1 3.7-2.9 4 .3.2 2.1-1.1 3.9-3 1.8-1.9 3.1-3.7 2.9-4-.3-.2-2.1 1.1-3.9 3zm-74.7 3.8c-19.1 17.8-36.3 33.5-39.8 36.2-1.5 1.2-1.6 1.5-.4 1.3.9-.2 4-2.3 6.9-4.8 24.1-20.8 43.3-39 41.3-39-.7 0-4.3 2.8-8 6.3zm54.2-5.2c-1.1 1.6-.1 1.9 1.3.3.7-.8.8-1.4.3-1.4s-1.3.5-1.6 1.1zm-41.5 18.4c-7.4 7.4-12.9 13.5-12.4 13.5.8 0 20.6-19.3 27.3-26.5.2-.3 0-.5-.5-.5s-7 6.1-14.4 13.5zm118.1-8.9c-2.3 2.5-4.1 4.7-3.9 4.9.2.3 2.6-1.8 5.3-4.5 2.7-2.8 4.5-5 4-5-.6 0-3 2.1-5.4 4.6zm-75.2 12.1c-8 8.2-15.1 15.7-15.8 16.8-1.8 2.5 26.8-25.9 29.2-29.1 1-1.3 1.6-2.4 1.5-2.4-.2 0-6.9 6.6-14.9 14.7zm6.6 5.5c-3.9 4-6.1 6.6-5 5.8 2.4-1.7 12.5-11.8 12.5-12.5 0-1-.7-.4-7.5 6.7zm-3.7 14.6c-5.9 4.7-13.3 12.2-11.9 12.2.6 0 4.7-3.6 9.3-8 4.6-4.4 8.1-7.9 7.8-7.9-.3 0-2.6 1.7-5.2 3.7zm-106.5 7.1c-2.9 2.7-5.3 5.3-5.3 5.6 0 .8 9-6.6 11-9 2.8-3.3-.8-1.2-5.7 3.4zm27.7 1.7c-3 3-8 7.6-11 10.2-7.5 6.4-12.4 11.2-11.3 11.2.4 0 3-2 5.7-4.5 2.6-2.5 5.1-4.5 5.5-4.5.3 0 4.7-4.1 9.6-9 4.9-5 8.5-9 8-8.9-.6 0-3.5 2.5-6.5 5.5zm61.9-3.8c-5.4 3.7-30.6 27.8-29.9 28.6.5.4 11.5-9.4 26.9-24.2 6.7-6.4 7.4-7.4 3-4.4zm-74.9 3.7c-1.1 1.3-1 1.4.4.9.9-.3 1.6-1 1.6-1.5 0-1.3-.6-1.1-2 .6zm77 5.6c0 .5.5.7 1 .4.6-.3 1-.8 1-1.1 0-.2-.4-.4-1-.4-.5 0-1 .5-1 1.1zm-108.5 7.9c-1.6 1.6-2.6 3-2.2 3 .4 0 2.1-1.4 3.9-3 1.7-1.7 2.7-3 2.1-3-.5 0-2.2 1.3-3.8 3zm18.1-1.4c-.6 1.5-.4 1.5 1.1.3 1-.7 2-1.5 2.2-1.6.2-.2-.3-.3-1.1-.3-.9 0-1.9.7-2.2 1.6zm-8.8 8c-2.1 1.9-3.4 3.4-3 3.4 1.1 0 7.6-5.9 7.1-6.4-.2-.2-2.1 1.1-4.1 3zm-25.8 7.9c-1.9 1.9-3.1 3.5-2.7 3.5.4 0 2.3-1.6 4.3-3.5 1.9-1.9 3.1-3.5 2.6-3.5-.4 0-2.3 1.6-4.2 3.5zm14.2 2c-.7.8-.9 1.5-.4 1.5s1.5-.7 2.2-1.5c1.6-1.9-.1-1.9-1.8 0zm-7.1 6.1c-4.4 4.4-2.8 4.3 2.4-.1 2.2-1.9 3.3-3.4 2.5-3.4-.8 0-3 1.6-4.9 3.5zm-8.6 7.4c-4 4.2-2.8 4.5 1.5.4 1.9-1.9 3-3.4 2.4-3.4-.5 0-2.3 1.3-3.9 3z"/>
	<title>Outline of the crest of a mountain, with some lower peaks on the way to the summit.</title>
</svg>
