<?xml version="1.0" encoding="utf-8"?>
<svg xmlns="http://www.w3.org/2000/svg" version="1.0" viewBox="0 0 476 264">
	<title>The man lies face-down on the ground, the book, hat, and pipe lying next to him.</title>
	<path d="M458.5 3.4c-3 1.5-3.5 2.1-2.2 2.4 1 .2 2.6-.3 3.6-1.2s2.3-1.6 2.9-1.6 1.4-.5 1.7-1c.9-1.5-1.6-1-6 1.4M452.5 7c-.3.5-.1 1 .4 1 .6 0 1.1-.5 1.1-1 0-.6-.2-1-.4-1-.3 0-.8.4-1.1 1M447 12.1c0 .5.5.7 1 .4.6-.3 1-.8 1-1.1 0-.2-.4-.4-1-.4-.5 0-1 .5-1 1.1M445.3 22.4c-1 1.1-.9 1.5.1 1.9.8.3 1.6-.3 1.9-1.4.6-2.2-.3-2.4-2-.5M443.1 28.4c-1.6 1.9-1.1 2.9.8 1.7.7-.5 1.2-1.4.9-2.1-.3-.9-.8-.7-1.7.4M215.5 33c-1.3.6-1.5.9-.5.9.8 0 2.2-.4 3-.9 1.8-1.2.2-1.2-2.5 0M186.1 34.5c-1.8.8-4.7 1.5-6.5 1.6-1.7 0-4.7.7-6.6 1.5-3.3 1.3-3.3 1.4-.5.8 1.7-.3 5.7-1 8.9-1.5 3.3-.6 6.4-1.3 6.9-1.6.6-.3 2.4-1 4.1-1.4l3.1-.7-3-.1c-1.6 0-4.5.6-6.4 1.4M201.7 34.8c-1 1-1.7 2.1-1.7 2.5 0 .9 5.1-1.3 7-3 1.2-1.1 1.1-1.3-1.1-1.3-1.4 0-3.3.8-4.2 1.8M226.6 36.4c.3.8 1.2 1.2 2 .9 1.7-.6.9-2.3-1.1-2.3-.8 0-1.2.6-.9 1.4M226.5 40c-1.1.5-1.4.9-.7.9 1.5.1 1.6 3.1 0 3.1-.6 0-.9.2-.6.5s1.6.2 2.8-.3c1.5-.6 1.9-1.1 1.2-1.6-1.4-.9-1.6-2.6-.3-2.6.5 0 1.6.6 2.4 1.4 1 1 2.3 1.2 4.8.6 3.1-.7 3.1-.8.7-.9-1.5-.1-3-.6-3.3-1.1-.7-1.2-4.2-1.2-7 0M246.5 40c-.3.6.5 1 1.9 1s2.8-.5 3.1-1c.3-.6-.5-1-1.9-1s-2.8.4-3.1 1M166 44.4c2.6 2.5 3.6 3 3.9 1.8.3-1.7-3.6-5.1-5.9-5.2-.9 0-.2 1.3 2 3.4M264.1 42.4c-.8.9-.8 1.6-.2 2 .5.4 1.2.2 1.6-.4.3-.5 1.5-1 2.6-1s1.7-.5 1.4-1c-.9-1.5-4.1-1.2-5.4.4M281.7 42.2c-1.5 1.1-1.2 1.3 2.3 1.3 4.1 0 5.2-.8 2.4-1.9-2.2-.8-2.8-.8-4.7.6M274.8 42.7c.7.3 1.6.2 1.9-.1.4-.3-.2-.6-1.3-.5-1.1 0-1.4.3-.6.6M290 42.9c0 .3.9 1.2 2 1.9 1.6 1 2 1 2-.2 0-.7-.9-1.6-2-1.9s-2-.2-2 .2M214.5 44c-.3.5-.1 1 .4 1 .6 0 1.1-.5 1.1-1 0-.6-.2-1-.4-1-.3 0-.8.4-1.1 1M222 45c-1.3.8-1.2 1 .3 1 .9 0 1.7-.5 1.7-1 0-1.2-.1-1.2-2 0M178 46.1c0 .6.5 2 1.1 3.1.8 1.4.8 2.3 0 3.1-.7.7-1.1.7-1.1.1s-1.1-1.6-2.5-2.2c-2-.9-2.3-.9-1.8.3.3.8 1.1 1.5 1.8 1.5.8 0 1.7.9 2 2 .8 2.6 2.5 2.6 2.5-.1 0-1.8.4-2 2.5-1.5s2.4.3 2.2-1.6c-.3-2.8 2.9-3.7 4.7-1.2 1.2 1.6 1.3 1.6 1.9 0 .4-1 .5-2.2.1-2.7-1-1.6-6.1-.9-7.9 1.1-2.4 2.7-3.5 2.5-3.5-.5 0-1.4-.4-2.5-1-2.5-.5 0-1 .5-1 1.1M256 46c0 .5.7 1 1.5 1s1.5-.5 1.5-1c0-.6-.7-1-1.5-1s-1.5.4-1.5 1M272.8 46.7c.6.2 1.8.2 2.5 0 .6-.3.1-.5-1.3-.5s-1.9.2-1.2.5M282.8 46.7c.7.3 1.6.2 1.9-.1.4-.3-.2-.6-1.3-.5-1.1 0-1.4.3-.6.6M233.8 47.7c.7.3 1.6.2 1.9-.1.4-.3-.2-.6-1.3-.5-1.1 0-1.4.3-.6.6M298.3 47.7c-1.3.2-2.3.8-2.3 1.3 0 1.5 2.6 1.8 4.5.4 2.3-1.7 6.7-1.8 8.3-.2 1.7 1.7 7.1 1.7 6.4 0-.3-.9-1.4-1.2-3.3-.8-1.6.3-2.9.1-2.9-.4 0-1-6.3-1.1-10.7-.3M239 49c1.4.4 3.6.8 5 .8 2.3.1 2.3 0 .5-.8-1.1-.5-3.3-.8-5-.8-2.9 0-2.9 0-.5.8M256.1 49.6c0 1.1.3 1.4.6.6.3-.7.2-1.6-.1-1.9-.3-.4-.6.2-.5 1.3M153.1 52.2c-.5 1.3-.5 2.5.1 2.9.8.5.1 3.9-1.2 4.9-.9.8-3.2 9.1-2.6 9.7 1.2 1.2 6.9-1.2 13.5-5.7 7.2-5.1 9.1-5.9 9.1-3.9 0 .5.5.7 1.1.3.8-.5.8-.9-.1-1.4-.8-.5-.5-1.2 1.1-2.3 1.2-.9 1.9-2 1.5-2.4s-1.5-.2-2.4.5-3 1.9-4.7 2.6c-2.9 1.4-3.1 1.3-6.1-2.2-1.8-2.1-3.6-3.3-4.1-2.8-.4.5-.2 1.1.5 1.3.6.3 1.2 1.1 1.2 1.8s.7 1.5 1.5 1.9c.8.3 1.5 1 1.5 1.6 0 1.6-2.6 4-4.3 4-.8 0-1.7.8-2 1.8-.6 2.7-4.7 3.6-4.7 1.2 0-1.1.5-2.2 1.1-2.5.6-.4.8-1.3.5-2-.2-.7.3-2.1 1.3-3.2 1.2-1.3 1.7-2.9 1.3-5.1-.5-3.7-1.9-4.2-3.1-1M210.5 51c.3.5-1.5.7-4.7.5-4.8-.5-4.6-.3 2.7 1.4 7.6 1.9 22.3 2.9 16.5 1.2-1.4-.5-4-.6-5.8-.3-2.4.4-3.7 0-5.1-1.7-1.8-2.1-4.8-3-3.6-1.1M319.2 51.1c.2.7 1 1.5 1.7 1.7.8.3 1.2-.1.9-.9-.2-.7-1-1.5-1.7-1.7-.8-.3-1.2.1-.9.9M428.6 52.6c-.5 1.4-.4 1.5.9.4 1.7-1.4 1.9-2 .6-2-.5 0-1.2.7-1.5 1.6"/>
	<path d="M185.8 53.9c-.6 1-1.8 1.7-2.6 1.4-1.3-.5-3.1 1.2-3.2 2.9 0 1.1 8.4-.4 10.8-2 1.2-.8 2.1-1.7 1.8-1.9-.2-.3-1.7.4-3.2 1.3l-2.7 1.8.7-2.7c.8-3.2.1-3.5-1.6-.8M197.6 54.8c1.1 1 8.5 3.2 10.5 3.2.8-.1-1.1-.9-4.1-2-6.1-2.1-7.9-2.5-6.4-1.2M323 54.9c0 .5.5 1.3 1 1.6.6.3 1 .2 1-.4 0-.5-.4-1.3-1-1.6-.5-.3-1-.2-1 .4M330 55c0 1.2 2.6 1.9 3.9 1 .9-.5.4-.9-1.3-1.2-1.4-.3-2.6-.2-2.6.2M424.3 56.2c-2.2 3.5-3.1 5.8-2.2 5.8.5 0 1.4-1.2 2-2.7s1.6-3.1 2.2-3.5c.9-.6.9-.8 0-.8-.6 0-1.5.6-2 1.2M218.5 57c-.3.5.1 1 .9 1s1.8-.5 2.1-1c.3-.6-.1-1-.9-1s-1.8.4-2.1 1M230.4 57.1c-.5.8.8.9 4.5.4 4.1-.5 5.2-.4 5.7.8.3 1 2.5 1.8 5.7 2.2 6.8 1 14.8 4.1 17 6.7 1.1 1.3 1.7 1.5 1.7.6 0-2.8-11.7-8.7-17.5-8.8-1.1 0-2.9-.7-3.9-1.5-2.3-1.8-12.2-2-13.2-.4M274 56.4c0 .9 6.1 3.8 6.7 3.2.3-.3-.7-1-2.2-1.6s-3.2-1.3-3.6-1.6c-.5-.3-.9-.3-.9 0M302.3 56.7c.9.2 2.3.2 3 0 .6-.3-.1-.5-1.8-.5-1.6 0-2.2.2-1.2.5M310.3 57.4c0 .9 1 1.8 2.1 2.1 6.6 1.3 8.7 1.4 8.1.5-.3-.6-1.5-1-2.6-1-1 0-1.9-.7-1.9-1.5s-.4-1.5-1-1.5c-.5 0-.7.7-.4 1.5.8 2-1.6 1.9-3.1-.1-1.1-1.5-1.2-1.5-1.2 0M337.5 59c1 1.1 2.5 2 3.4 1.9 1.1 0 .9-.4-.6-1.1-1.3-.6-2.3-1.5-2.3-2 0-.4-.5-.8-1.2-.8-.6 0-.3.9.7 2M176.7 60.1c-1.8 1.1-2.4 6.4-.8 7.3.5.4 2 .2 3.3-.3l2.3-.9-2.7-1.1c-3.3-1.2-3.3-1.4-1.2-3.6 2-1.9 1.5-2.7-.9-1.4M332.7 59.7c1.2.2 2.4 1.1 2.6 1.9.3.9.4.8.3-.3-.1-1.2-1-1.8-2.6-1.9-2.1-.1-2.1 0-.3.3M344.5 61c.3.5 1.1 1 1.6 1 .6 0 .7-.5.4-1-.3-.6-1.1-1-1.6-1-.6 0-.7.4-.4 1M302.7 62.1c.7.7 1.5 1 1.8.7s-.2-.9-1.2-1.2c-1.4-.6-1.5-.5-.6.5M291.9 65c6.1 3.4 6.1 3.4 6.1 2 0-1.2-7.6-5-10-5-.8 0 .9 1.4 3.9 3M348.3 63.4c.2.6 1.7 1.5 3.3 2s4.1 1.5 5.6 2.2c3.1 1.6 10.2 2 7.8.4-.8-.5-2.5-1-3.8-1s-3.3-.5-4.5-1.2c-4.2-2.4-8.8-3.7-8.4-2.4M168.4 66.2l-2.9 3.1 3.8-2.8c3.8-2.8 4.4-3.5 2.9-3.5-.5 0-2.1 1.4-3.8 3.2M182 64.6c0 .8.5 1.2 1 .9.6-.4.8-1.1.5-1.6-.9-1.4-1.5-1.1-1.5.7M200 63.4c0 .3 1.9 1 4.3 1.7 5.1 1.3 7.3 3.2 9.9 8.3 2 3.9 4.1 6.6 5.2 6.6 1.2 0-6.4-12.6-8.6-14.2S200 62.3 200 63.4M282 64.6c0 2.2 9.5 9.3 10.8 8 .3-.3.3-.7.1-.9-.2-.1-2.4-1.6-4.9-3.2-2.5-1.7-4.8-3.4-5.2-4-.5-.6-.8-.6-.8.1M307.4 66.4c1.1.9 2.4 1.6 3 1.6 1.2 0 .7-.5-2.4-1.9-2.4-1.1-2.4-1.1-.6.3M325 66c0 .8-.3 3.3-.7 5.5-.3 2.2-.3 3.7.1 3.3 1.3-1.2 2.4-7.6 1.5-8.9-.7-1.1-.9-1.1-.9.1M333 66c0 .5.7 1 1.5 1s1.5.4 1.5 1c0 .5-.4 1-1 1-.5 0 0 1.6 1.2 3.6s2.2 5.2 2.3 7.2c.2 2 .8 3.8 1.4 4 2.2.7 2.2-2.7.1-7.6-1.2-2.8-1.9-5.6-1.5-6.2s-.1-2-1.1-3.1c-1.8-2-4.4-2.6-4.4-.9M452.6 66.5c-.3.8-.1 1.5.4 1.5.6 0 1-.7 1-1.5s-.2-1.5-.4-1.5-.6.7-1 1.5M216.7 66.6c-.8.8.1 2.4 1.4 2.4.5 0 .9-.7.9-1.5 0-1.5-1.2-2-2.3-.9M330.2 69.7c-1.8 3.5-2.3 8.3-.8 8.3.9 0 1.5-1.7 1.9-4.8.6-5.3.3-6.2-1.1-3.5M223.1 70.4c-1 1.2-.8 1.3.9.9 2.5-.7 3.7-2.3 1.7-2.3-.8 0-2 .6-2.6 1.4M283 69.7c0 .4.5 1.5 1 2.3.8 1.3 1 1.3 1-.2 0-.9-.4-2-1-2.3-.5-.3-1-.3-1 .2M302.5 70.1c-1.1 1.7.1 2.1 1.5.4.8-.9.8-1.5.2-1.5s-1.4.5-1.7 1.1M367.8 70.2c1.7 1.7 1.5 2.8-.5 2.1-1.1-.4-1.4-.3-.9.5 1 1.6 3.5 1.5 6.6-.3l2.5-1.4-3.2-.1c-1.8 0-3.3-.5-3.3-1 0-.6-.5-1-1.2-1-.9 0-.9.3 0 1.2M168.9 70.2c-.5 1.5-.3 5.6.2 5 1.3-1.4 2-5.2 1-5.2-.6 0-1.1.1-1.2.2"/>
	<path d="M175.3 76.8c-3.1 9.8-3.7 12-2.4 10.2.9-1.2 1.1-1 1.1 1.1 0 1.4.3 2.9.7 3.3s1.3 3.1 1.9 5.9c.7 2.9 1.5 6.2 1.9 7.4.6 1.9.4 2.1-2.1 1.8-1.6-.2-3.6-.4-4.5-.4-3.4-.2-3.8-16.6-.5-22 .4-.6.2-1.1-.3-1.1-.6 0-1.1.5-1.1 1.1s-.7.8-1.6.5c-1.3-.5-1.5.1-1.3 3.1.3 6 0 8.5-1.1 7.8-.6-.4-.8 1.6-.6 5.3.3 6.2 1.2 8.6 2.6 7.7.4-.3 1.3.2 2 1s1.9 1.5 2.8 1.5c.8 0 1.3.3 1 .6s-2.1.2-4-.1c-2.3-.5-3.9-1.6-5.2-3.8-2.3-4.1-3.2-12.7-1.6-15.6.6-1.3.9-2.5.6-2.8-.3-.4-1.1.8-1.7 2.6-.9 2.7-1.3 2.9-2.3 1.7-.7-1-1.6-1.3-2.5-.7-1.8 1.2-2.8 11.6-1.2 12.5.6.4 1.1.1 1.1-.6s.5-.5 1.1.6c1.1 1.8-.1 3.5-2.3 3.6-1.8 0-2.9-4.5-2.4-9.4.3-2.8.6-5.9.6-6.9.1-1 .7-1.6 1.3-1.4.7.2 2.2-1.6 3.5-4 2.4-4.9 3-8.5.6-4.1-1 1.9-2.3 2.8-3.9 2.8-1.5 0-2.9.9-3.6 2.2-1.2 2.2-1.1 2.2.8.5 3.6-3.2 4.6-1.8 1.3 2-3.1 3.5-3.2 3.9-2.7 10.6.3 4.4.1 6.4-.4 5.4-.5-.8-1-4.3-1.1-7.6-.1-4.9-.5-6.1-1.8-6.1-.9 0-2.1.5-2.8 1.2s-1.2.8-1.2.2 1.2-1.6 2.6-2.3c1.5-.6 2.4-1.4 2.1-1.7s-1.5 0-2.7.6c-2.8 1.5-3.6.7-1.5-1.4 1.8-1.7.9-2.1-1.4-.7-1.8 1.1-2.9 12.1-1.2 12.1.6 0 1.1 1.1 1.1 2.5 0 2.3-.2 2.4-2 1.3-1.8-1.2-1.8-1.3-.3-1.9 1.4-.5 1.3-.7-.6-1.2-2.1-.5-2.3-.3-1.7 2.9.4 2.1.3 3.4-.4 3.4-1.3 0-1.3-9.5.1-12.1.6-1.1.8-2.5.5-3.2-.2-.7-.8-.2-1.1 1-.4 1.3-1.1 2.3-1.5 2.3-.5 0-.5-1.3 0-2.9.6-2.1.4-3.3-.8-4.5-1.5-1.5-1.5-1.6.1-1.6.9 0 1.7-.5 1.7-1 0-.6-.7-1-1.6-1-1 0-1.4-.5-1-1.6.3-.8.2-1.2-.4-.9s-1 1.3-1 2c0 .8-1 2-2.2 2.6-3 1.5-6.8 5-6.8 6.1 0 .5 1.2 0 2.6-1.1 1.5-1.2 3.2-2.1 4-2.1.7 0 1.4-.5 1.6-1.2.2-.6 1-.8 1.6-.4 2.2 1.4 1.2 2.6-2.7 3.2-2.2.4-4.2 1.3-4.5 2-.7 1.8-3 1.8-4.5.1-.8-1-.7-1.7.1-2.5.9-.9.9-1.2.1-1.2-1.5 0-2.3 2.5-2.5 7.8-.2 4.8.2 5.5 2.2 4.1 1.3-.7 1.3-1 .1-1.8-.7-.5-1-1.4-.7-2 1.1-1.7 2.6-1.3 2.6.6.1 1.4.4 1.2 1.4-.6l1.4-2.5.7 3.2c.6 2.8 1 3.1 3.1 2.6s2.4-.3 2.4 1.9c0 1.5.5 3.8 1.2 5.2 1 2.2 1.7 2.6 4.8 2.4 4.1-.3 6 .6 6 2.9 0 1.2-.3 1.3-1.2.4-2-2-2.4-1.4-2 2.7.3 3.2 0 4-1.5 4.3-1 .2-.1.6 2 .9 3.5.5 3.9.3 5.4-2.8.8-1.8 1.9-3 2.4-2.7s2.1-.4 3.6-1.6 3.4-1.8 4.5-1.4c1 .3 3.3.1 5.1-.5 2.6-.9 4.1-.8 6.8.3 1.9.7 4.5 1.7 5.9 2.1 2.2.7 2.3.6 1.1-.9-1.2-1.4-1.1-1.6.3-1.6.9 0 1.6.7 1.6 1.5 0 1.5 2.5 2 7.7 1.5 1.2 0 3.3.6 4.8 1.6 1.8 1.2 3.6 1.5 6.6 1 5.3-.9 16.9 1.2 16.9 3 0 .7.8 1.8 1.8 2.4 1.6.9 1.6 1.1-.3 2.7-1.1 1-2.1 2.9-2.2 4.2-.2 3.1-1.2 3.9-2.4 2.1-.8-1.3-1-1.3-1.8-.1-.7 1.1-1.8.6-5.3-2.7-3.7-3.6-4.7-4.1-7.5-3.6-2.5.5-3.4.2-4.5-1.5-1.6-2.6-2.5-2.7-3.3-.1-.8 2.5-2.7 2.5-5 0-1.6-1.7-5.5-2.8-5.5-1.5 0 .2.9 2 2 4l2 3.6-3.4-.6c-2-.4-3.6-.2-4 .4-1.2 1.8 7 1.3 8.9-.5 1.2-1.3 1.9-1.4 3-.4.8.7 1.5 2 1.5 3s.7 2.1 1.6 2.4c2.2.8 3.2-.3 1.4-1.4-1.2-.7-1.2-1.2-.3-2.1 1-1 1.4-.9 1.9.4 1.1 2.9 2.7 1.9 2-1.3-.5-2.8-.4-3 1.4-2 1 .5 2.2 1.5 2.5 2 .4.6 1.4.8 2.4.5 1.1-.3 2.6.4 4.1 2 2.2 2.4 1.6 3.7-.7 1.4-1.6-1.6-8.1-1.9-9.3-.4-.8.9-.8 1.5 0 2 .5.3 1 1.3 1 2.2 0 1.2-.3 1.3-1.4.4-.8-.7-1.7-.8-2-.3-.3.6-2.3 1.3-4.3 1.6-2.1.4-5.2 1.2-7 1.8-2.3.9-3.5.9-4.5 0-1.1-.8-1.7-.6-2.7.9-.7 1.2-1.8 1.8-2.6 1.5-.7-.2-1.6.2-1.9 1-.4 1.1.2 1.3 3.3.8 3.6-.6 4-.4 5.5 2.5 2.5 4.8 3.6 4.3 5.1-2.2.4-1.9 1.6-3.3 3.8-4.2 1.7-.7 3.6-1.1 4-.8.5.3 2.6.5 4.6.5s4.3.3 5.1.9c1.2.7 1 .9-.7.9-1.3 0-2.3.5-2.3 1.1 0 .7 1.4.8 4 .4 3.1-.5 4.7-.2 7.5 1.5 1.9 1.2 4.3 1.9 5.2 1.7 1.7-.4 1.7-.5.1-.6-2.5-.1-2.3-2.1.2-2.1 1.6 0 2 .7 2 3.8 0 2.1-.5 4.3-1.2 5s-.8 1.2-.2 1.2 1.5-.5 2.2-1.2c.9-.9 1.2-.9 1.2.2 0 .9.5.8 2-.5q4.35-3.9 1.8 4.2c-.9 2.7-1.4 5.1-1.1 5.5 1 1.8 2.1.5 3.3-3.7.7-2.5 1.6-4.5 2.1-4.5s.6-.6.3-1.4c-.9-2.3 1.4-2.8 2.6-.5 1 1.7.8 2.3-.7 3.5-1 .8-1.3 1.3-.5 1.4.6 0 1.2.7 1.2 1.6 0 .8.4 1.3.9.9.5-.3 1.2-.1 1.6.5.3.5-.3 1-1.4 1-1.9 0-3.8 1.7-2.9 2.6.3.2 2.2-.3 4.2-1.1 3.4-1.4 3.7-1.8 3.1-4.5-.6-2.6-.4-3 1.4-3 2.2 0 2.5 1.1 1.2 4.5-.7 1.8.5 7.5 1.6 7.5.2 0 1.1-.7 1.9-1.5 2-2 4.5-2 3.8 0-.4.8-1.7 1.8-3.1 2.1-1.7.5-2.1 1-1.4 1.7s1.7.5 3.3-.5c2.2-1.5 2.6-1.4 5.1.8 1.6 1.3 3.6 2.4 4.6 2.4s2.4.7 3.1 1.5 1.9 1.5 2.7 1.5c2.2 0 13.5 5.8 14.8 7.7.7.9 1.7 1.3 2.3.9.7-.4 1.2-.1 1.2.8 0 1 1.5 1.7 4.8 2.2 8.8 1.4 11.3 1.1 25.3-2.8 2.9-.8 4.4-.7 6.9.6 4.1 2 4 2 4-.1 0-.9.3-1.4.6-1 .3.3 1.7.2 3-.3 1.5-.6 2.4-.6 2.4 0 0 1.6 8.6 1.2 10-.5.7-.8 2.5-1.5 4-1.5s4.7-.6 7.3-1.4c2.5-.7 5.6-1.1 7-.9 1.3.3 5.3-.2 8.8-1.1 5.6-1.5 11.2-1.8 41.2-2.6 1.8 0 .4-3.1-2.8-5.9s-3.5-3.5-3.5-8.3c.1-4.6.2-5.1 1.4-3.6.7 1 2.1 1.8 3.1 1.8 1.4 0 1.6-.6 1.2-3-.4-1.7-.2-3 .3-3 .6 0 1 1.1 1 2.5s.5 2.5 1.1 2.5.8-.9.4-2c-1-3 .2-2.4 2 1 1.3 2.5 1.9 2.9 3.5 2 1-.5 2.1-2 2.3-3.2l.4-2.3.2 2.2c.1 2.6 3.1 3.2 3.1.7 0-.8.5-1.2 1-.9.6.3 1-.1 1-1.1 0-1.3.3-1.4 1.5-.4s1.5 1 1.5-.1c.1-1 .4-.9 1.4.4.8 1 2 1.5 3 1.1.9-.3 2.3-.3 3.2 0 1.4.5 1.4.9.3 2.3-1.2 1.5-1.2 1.6.4 1 1-.4 3.1-.7 4.5-.7h2.6l-2.4-1.7c-1.4-.9-2.8-2.1-3.1-2.6-.4-.5-1.9-.7-3.3-.3-2.5.6-2.5.6-1-1.3.9-1.1 2.3-1.7 3-1.4.8.3 2.1-.2 2.9-1.1.9-.9 3-1.6 4.6-1.6s2.9-.5 2.9-1c0-1.4-7.4-1.2-8.8.2-1.9 1.9-1.5-3.4.4-5.8 1.5-1.9 1.5-1.8 1.1.3-.7 3 .1 2.9 3.4-.3 2.4-2.3 3-2.5 6.5-1.5 2.2.6 5.1 1.1 6.7 1.1 1.5 0 2.7.5 2.7 1.1 0 .8-2 1-6.5.7-3.6-.3-6.8-.2-7 .3-.6.9-.4.9 14.3.9 8.3 0 12-.4 14-1.5l2.7-1.5-4 .6c-6.5.9-11.1 1.3-9 .8 1.1-.3 2.4-1 2.9-1.5.6-.5 2-.9 3.2-.9 2.7 0 4-1.5 5.8-6.8 1.3-3.7 1.3-4.5-.4-8.9-1.5-3.8-1.9-4.3-2-2.3-.1 2.3-.2 2.3-1.3.7-1-1.5-1.5-.9-3.4 4.5-2.2 6.2-2.3 6.2-1.7 1.8.3-2.5.8-5.3 1-6.3.6-2-1.1-2.3-2.2-.5-.5.7-1 4-1.2 7.3-.3 6.7-1.8 8.9-5.3 8.3-2.3-.4-2.3-.5.8-2.4 3.8-2.2 4.2-3.4 1.1-3.4-1.4 0-1.8-.3-1.2-.8.6-.4 1.4-3.4 1.7-6.7l.6-6-1.4 4-1.5 4 .3-5.3c.1-3.1-.2-5.1-.8-4.9-.5.2-1 1.9-1 3.8s-.8 5-1.7 6.9-1.9 5-2.3 6.7c-.6 3.2-1.5 4-2.8 2.6-.4-.3-.2-1.2.4-2 .9-1 .7-1.3-.9-1.3-1.5 0-1.9-.5-1.5-2 .5-1.9.6-1.9 1.8-.3 1.1 1.5 1.3 1.5 2.4-.5 1-2 .9-2.2-1.1-2.3-2.2-.1-2.2-.1.2-.9 1.4-.4 1.9-.8 1.2-.9-1-.1-1-.5.2-1.7.9-.8 1.3-2.1.9-2.7-.5-.8-.9-.6-1.1.6-.2.9-.8 1.5-1.3 1.2-.5-.4-.9.2-.9 1.1 0 1.6-.1 1.6-1.4-.1-1.2-1.7-1.4-1.2-2.1 5.2-.6 5.8-1 7.2-2.6 7.6-2.2.6-2.5-.6-.5-2.2.9-.8 1.4-3.1 1.4-6.5 0-2.8.3-6.3.7-7.5.4-1.5.3-2.1-.3-1.7-.5.3-1.2 2.9-1.6 5.8-.5 3.6-1 4.8-1.6 3.8-.7-1.2-1-1.2-1.6.3-.3.9-.1 2.4.6 3.2 1.1 1.3.8 1.5-2.1 1.5-2.8 0-3-.2-1.7-1.3 1.2-.9 1.3-1.9.6-4.5-.8-3-1.2-3.3-4.1-3.1-3.7.3-8.6-2.4-6.7-3.6.7-.4 1.6-.2 2 .6 1.4 2.1 4-.8 4-4.4 0-3.3-1.5-2.7-2.3.8-.4 1.8-.5 1.8-1.5-.5-.6-1.4-1.1-2.1-1.2-1.5 0 .5-.5.3-1-.5-.7-1.1-1.1-.4-1.6 2.8-.6 4-.8 4.2-4.3 4.3-2 .1-2.8.3-1.8.6 2.3.6 2.2 1.9-.3 2.6-1.1.3-2 1.2-2 2.1 0 2.3 1.3 2 4-.9 2.5-2.6 5.4-3.3 6.5-1.4 1 1.4-2.7 4-4.1 2.8-.7-.5-1.9-.1-3.2 1.1-1.2 1.1-2.6 2-3.2 2s-.8.4-.5 1c.7 1.1-.6 1.3-2.9.4-1-.4-1.6-1.9-1.7-4.3l-.1-3.6-1 2.8c-.8 2.2-1.4 2.6-3 2.1-1.7-.5-1.9-.3-1.3 1.5.5 1.6.3 2-.9 1.5s-1.5-.2-1 1.1c.4 1 .7 2.8.8 4.1.1 3.5 2 3.4 2.7-.1s1.4-2.1 2.3 4.2c.6 4.3 0 7.3-1.5 7.3-1.3 0-1.1-2.8.2-3.2.6-.2.7-1.2.1-2.7-.8-2.2-.9-2.2-2.5-.6-1.3 1.2-1.4 2.1-.7 3.5.6 1 1 2.5.9 3.2 0 .7-.5.1-1.1-1.5-.5-1.5-1.3-2.5-1.6-2.3-.4.2-.7-3.1-.8-7.4-.1-6.1.2-8 1.4-8.5 1.2-.4 1.3-2 .7-9-.6-7.5-.5-8.4.9-7.9 1.2.5 1.6 0 1.5-2.2 0-2.5-.1-2.6-.9-.9-.7 1.6-.9 1.7-.9.3-.1-.9.4-2 .9-2.3.6-.3 1-1.5 1-2.6s-.4-1.8-.9-1.5-.8-3.3-.8-8.2c.1-9.8-1.2-14.8-4.8-18.2s-4.3-1.6-.7 1.9c3.6 3.6 5 11.7 2.1 11.5-2.3-.2-3.4 6.4-1.4 8.6 1.6 1.8 3.2 8 2.1 8-.4 0-1.2-1.5-1.9-3.3l-1.1-3.2-.6 3c-.4 2.3-.1 3.2 1.2 3.7 1.3.6 1.8 1.9 1.8 5.1 0 2.4-.2 4.6-.5 4.9s-2.5-1.4-5-3.8c-2.4-2.4-5-4.4-5.7-4.4-3.8.1-9.7 3.2-12.9 7-3.7 4.2-5.9 4.6-5.9 1 0-4.6 2.5-6.7 3.3-2.8.3 1.7.5 1.5.6-.9 0-1.7.6-3.5 1.1-3.8.6-.3 1-1.1 1-1.8 0-.8-.3-.8-1.2.1-2.1 2.1-3.1 1.3-2.3-2.1.4-1.7.7-5 .6-7.1-.1-3 .4-4.5 2.5-6.7 1.5-1.6 2.6-3.1 2.3-3.3-1-.9-5.1 1.6-5.6 3.4-.6 2.2-1.8 2.6-2.8 1-.5-.8-1.1-.7-2.1.1-1.5 1.3-1.9 3.9-.5 3.9 2.1 0 3.4 6.2 2.7 12.8-.8 7.6-.8 7.3-.6 16.4.1 3.8.6 6.8 1.1 6.8 1.3 0 1.1 7.8-.2 8.6-.6.3-1.9 2.5-2.9 4.8-2 4.6-6 9.7-6 7.6 0-.7-.7-2.1-1.6-3.1-1.3-1.4-2.6-1.6-7-1.2-3 .3-5.4.3-5.4-.1s1-2.8 2.2-5.4c1.8-3.9 4.2-18.8 3.2-20.1-.5-.6-2.9 2.2-3.7 4.1-.4 1.1-1.2 1.5-2.2 1.1-1.2-.4-1.3-.8-.5-1.3.7-.4.9-1.8.5-3.6-.6-2.6-.5-2.7.8-1.2.8 1 1.7 1.5 2 1.1 1.4-1.3.6-3.4-1.8-5.5-1.9-1.6-2.5-3-2.3-5.2.2-2.4-.1-3.1-1.7-3.4-1.5-.3-1.7-.1-.9.9 1.3 1.8 1.6 5.9.3 5.9-.5 0-.9-1.1-.9-2.5s-.4-2.5-.9-2.5-.8-.8-.7-1.7c.1-1.8-6.9-7.2-9.5-7.3-1.5 0-4.9-3-4.9-4.3 0-.4 1-.7 2.3-.7s4.2-.9 6.5-2c4.4-2.1 6.4-1.8 9.2 1.4.7.9 1.9 1.6 2.7 1.6s2.1.7 2.9 1.5c1.7 1.6 8.9 2.1 9.9.6.3-.6 1.8-.9 3.3-.7 2.7.2 2.7.3 2.5 6.6-.2 6.9.9 5.9 2.1-1.8.6-3.9.4-4.5-2.3-7l-3-2.7L363 96c2.6-3.4 2.5-4.1-.5-3-1.6.6-2.5.6-2.5 0s.4-1 .9-1c.8 0 1.9-2.3 3.5-7.3.3-1.1 0-1.7-1-1.7-.8 0-1.2.5-.9 1 .8 1.4-3.3 7-5.1 7-.8 0-1.4.7-1.4 1.6 0 .8-.4 1.3-.9.9-.6-.3-1.5.4-2.1 1.5s-1.5 2-1.9 2c-1.3 0-.1-4.1 2.1-7.2 1-1.4 1.8-3.4 1.7-4.5 0-1.5-.2-1.4-.9.4-.5 1.3-1.3 2.3-1.8 2.3s-2.1 2.2-3.6 5c-1.5 2.7-3.3 5-4 5-1.7 0-3.6-2.1-3.6-4 .1-1.2.3-1.2 1.1.3.6.9 1.4 1.5 2 1.2 1.5-1 1-4.5-.6-4.5-.9 0-1.5-.9-1.5-2.1 0-1.7.3-1.9 1.4-1 1 .9 1.7.6 3-1.3 2-3.1 2-5.2.1-6-.8-.3-1.5-1.3-1.5-2.1 0-2.1-2.7-4.8-3.5-3.6-.3.6.1 1.3.9 1.8 1.9 1.1 1 9.3-1 9.3-.8 0-1.4.4-1.4 1 0 .5-.4 1-1 1-.5 0-1-.7-1-1.5s-.4-1.5-1-1.5c-.5 0-2-1-3.2-2.2-1.5-1.5-2.3-1.8-2.6-.9-.3.8-.8.9-1.6.2-1.9-1.6-5.9 2.5-5.3 5.5.6 3.5-1.8 3-3.3-.6-.7-1.7-1.5-2.9-1.7-2.6-.5.5-1.7-.4-5.3-3.5-1.4-1.4-3.6-1.6-10.6-1.4-11.4.4-12.8.6-19.1 3.8-5.1 2.6-5.2 2.8-6.4 8.7-1.2 6.3-2.9 8.1-2.9 3.1 0-1.7-.4-3.2-.9-3.5-.4-.3-.5 1.3 0 3.7 1.2 6.4 1.1 8.7-.6 8.7-1 0-1.5-1-1.5-3.3 0-1.8-.6-4.2-1.4-5.2-.8-1.1-1.1-2.6-.8-3.4.5-1.4.4-1.4-1-.1-.9.8-1.3 1.9-1 2.4s.5 2.4.4 4.3c-.1 1.8.3 4.4.8 5.8 1.4 3.6-.5 3.1-2-.5-1.5-3.7-2.6-3.8-3.3-.4-.3 1.8-.1 2.4.9 2 .8-.3 1.4-.1 1.4.4 0 .6-1.2 1-2.6 1-2.2 0-2.5.2-1.4 1.5 1.8 2.1 0 1.8-3-.5l-2.5-1.9 2.2-1.6c2.7-1.9 4.9-5.5 3.4-5.5-.6 0-2.2 1.1-3.7 2.5s-3 2.5-3.4 2.5c-2 0 0 3.5 4.8 8.6 2.8 3.1 5 6 4.6 6.5-.9 1.5-2.2 1-2.9-1.1-.6-1.9-6.3-6-8.4-6-2 0-1.2 1.8 1.2 2.4 1.2.3 3 1.7 4 3.1 1.6 2.3 1.7 2.7.3 4-1.4 1.4-2.1 1.3-6.6-1-2.9-1.4-5.6-2.5-6.2-2.3s1.4 1.7 4.6 3.2c6.1 3 9 6.3 8 9.1-.4 1-.1 2.1.7 2.6 1.1.7.9.9-.7.9-5.1 0-17.7-5.8-16.9-7.8.2-.6-.2-1.2-1-1.2-2.8 0-1.5 3 2.5 5.5 2.2 1.4 6.1 3 8.7 3.7 2.7.7 5.5 1.8 6.4 2.5.8.7 3.7 1.3 6.2 1.3 2.6 0 4.7.3 4.7.7 0 .5 1.2 1.6 2.6 2.6 2.3 1.7 2.7 1.8 4.3.3s1.9-1.4 2.9.9c.6 1.4 1.7 2.5 2.4 2.5s1.9.9 2.6 2.1c1.1 1.7 1 2.5-.8 5.3-1.1 1.8-2 4.6-1.9 6.2l.1 2.9.9-3.1c.5-1.7 1.6-3.7 2.4-4.4 2-1.6 1.9-1.2-.5 3.5-1.5 2.9-1.7 4.1-.8 4.6 1.6 1 4.1-6.6 3.3-9.9-.6-2.3.1-2.7 2.4-1.3.8.5 1.1 1.6.6 3-.7 2.4-.3 2.6 2.5.9 1.5-1 2.2-.9 3.9.6 1.1 1 2 3 1.9 4.5 0 4.3.8 6.6 2.5 6.6 2.7 0 3.1 1.4.6 2.4-1.3.5-3.7 2.1-5.3 3.5-3.4 3-5.1 3.4-4.1.9.4-1 1-2.6 1.2-3.6.3-.9.9-1.7 1.4-1.7s.6.7.3 1.5c-.9 2.2.3 1.8 1.6-.4.5-1.1.7-2.7.4-3.5-1-2.6-3.5-1.8-4.7 1.4-1.5 4-2.8 3.8-1.5-.3 2-6.4 2-7.4.2-8.1-2.1-.8-3.6 1.1-2.9 4 .3 1.3-.6 3.1-2.5 5.3-1.7 1.8-3 3.6-3 4.2 0 .5-.6.9-1.2 1-.7 0-.4.4.7.8 2.6 1.1 3.2.7 4-2.9.4-1.7 1.1-3 1.6-3 .6 0 .7.4.4 1-.3.5-.1 1.8.4 2.9.9 1.6.5 2.4-2.6 4.9-3.6 2.9-3.7 2.9-1.5 4.1 2.5 1.3 4.4.7 3.6-1.3-.3-.7.2-1.8 1-2.5 1.2-1 1.7-.9 2.5.7.8 1.5.6 2.3-.7 3.4-4.5 3.9-9.6 4.2-10.7.7-.7-2-2.7-2.7-2.2-.8.1.6-.4 1.4-1 1.6-.8.3-1.3-.4-1.3-1.5 0-1.2-.9-2.3-2-2.7-1.1-.3-2-1.2-2-2 0-1.4-9.2-8.5-11-8.5-.6 0-1.6-1.1-2.2-2.5s-1.8-2.5-2.7-2.5c-1.9-.1-7.1-4.4-7.1-6 0-.5-.4-1-1-1-.5 0-.7-.8-.4-1.8.5-1.4.4-1.5-.5-.2-1 1.3-1.4 1.2-2.9-.9-.9-1.3-3.2-3.9-4.9-5.9-1.8-1.9-3.3-4.1-3.3-4.8s-.6-1.7-1.3-2.1c-1.4-.8-7.7-10.8-7.7-12.1 0-2.2-5.2-12.9-6.9-14.4-1.2-.9-2.1-2.2-2.1-3 0-1-.2-1-1 .2s-1.3 1.1-3.4-.9c-1.3-1.3-3-3.6-3.6-5.2-.7-1.6-1.6-2.9-2.1-2.9-1.3 0-1.1 1.2.6 3.4 1.9 2.5 1.9 4.2 0 2.6-2.2-1.8-6.5-9.9-6.6-12.4 0-2.1 0-2.1-.9.1-.5 1.3-1.4 2.3-2 2.3-.5 0-1 1.2-1 2.7-.1 2.4-.2 2.6-1.1 1s-1.2-1.6-2.6-.2c-1.4 1.5-1.4 1.9.3 5 1 1.9 1.5 3.7 1.2 4-.7.8-5.4-8.9-6.3-13-1.8-8.4-2.5-13.7-2-14.6.9-1.4 2.5-1.1 2.5.6 0 .8.5 1.4 1.2 1.2.6-.1 1.3.7 1.5 1.8.6 3.1 2.5 7.6 3 7.1.6-.6-3.7-14.8-4.9-16.1-.5-.5-.8-.4-.8.4 0 .7-1 2.1-2.2 3.1-2.1 1.7-2.2 2.1-1.2 8.6.6 3.8 1.3 7.6 1.6 8.4.2.8.3 1.2.1.7-.3-.4-1.3-.7-2.2-.7-1.3 0-2.1-1.4-2.9-5.1-1.5-6.6-1.6-13-.1-10.9.8 1.2.9 1 .4-.7-.3-1.2.1-3.5.9-5.2.9-1.7 1.6-3.4 1.6-3.8-.1-1.4-4 4.1-4 5.7-.1 1-.4.8-.9-.5-.7-1.6-1.1-.9-2.5 3.9-1 3.2-2 5.6-2.2 5.3-.8-.7 1.7-11.7 2.8-12.3.4-.3.8-1.4.8-2.5 0-3.8-1.5-1.8-3.7 4.9m134.1 4.1c.3.4 1.8 1.1 3.4 1.4 2.5.5 3.6 1.8 6.1 7.1.2.6-.8 0-2.3-1.2-3.9-3-9.5-4.7-10.9-3.3-.6.6-2.9 1.1-5.2 1.1-3 0-3.6.3-2.5 1 .8.6 3.2.8 5.3.4 2.9-.4 3.7-.2 3.7.9s-1.1 1.5-4.2 1.5c-2.4 0-4.9.1-5.6.1-.6.1-3.3 2.1-6 4.6-5.6 5.3-7 5.9-5.6 2.1.3-.9 1.2-1.6 1.9-1.6s1.8-.6 2.4-1.4c1-1.2.8-1.3-.8-.9-3.4.9-2.4-.5 1.9-2.7 5.8-3 4.9-3.3-2.2-.7-6.1 2.1-6.4 2.4-8 7.2l-1.6 5-.1-3.8c-.1-3.9 1.9-8.8 4.8-11.7 1.5-1.5 4.5-2.6 13.1-4.9 4.6-1.2 11.7-1.3 12.4-.2m-129.4 3c0 .6-.4 1.3-1 1.6-.5.3-1-.1-1-.9 0-.9.5-1.6 1-1.6.6 0 1 .4 1 .9m166 .7c0 .8-.4 1.2-1 .9-.5-.3-1-1-1-1.6 0-.5.5-.9 1-.9.6 0 1 .7 1 1.6m-11.5.4c.8 1.3-1.6 8-2.8 8-.5 0-.7-1.1-.5-2.5.3-1.4.1-2.8-.3-3.1-.5-.3-.3-1.1.4-1.9 1.4-1.7 2.4-1.8 3.2-.5m-6.1 3.1c.3 1.7.6 3.9.5 4.8-.1 2-2.8-3.8-2.9-6.2 0-2.9 1.7-1.9 2.4 1.4M184 104.4c0 3.1-1.3 1-3.2-5.2-2.7-8.7-2.1-11.8.7-3.7 1.3 3.8 2.4 7.9 2.5 8.9m131.3-10.2c.7 2 3.7 2.5 3.7.6 0-.8.3-.9 1.1-.1 1.1 1.1.2 6.3-1.1 6.3-.5 0-1.2-.9-1.5-2s-1-2-1.5-2c-.9 0-4-5.1-4-6.5 0-1.1 2.6 1.9 3.3 3.7m-8-2.3c2.9 1.1 9.3 9.4 7.6 10-.6.2-1.6-.2-2.2-.8s-2.1-1.1-3.4-1.1c-1.2 0-2.7-.8-3.2-1.8-.9-1.5-1-1.5-1.1.5 0 1.2-.4 2.5-1 2.8-.5.3-1-.1-1-.9 0-.9-.5-1.6-1.1-1.6-.8 0-.9 1.5-.4 4.6.6 4.3.5 4.6-1.3 4.2-1.6-.5-2-.1-1.7 1.3.6 2.8-.4 2.3-1.7-.9-.9-2.1-1.2-2.3-1.5-1-.5 2.2-3.3 2.4-3.3.3 0-.8.5-1.5 1.1-1.5.5 0 .7-.5.4-1-.4-.6-1.5-.1-2.6 1.2-1.2 1.3-1.8 1.7-1.4 1.1.3-.7.1-2.2-.5-3.3-.9-1.7-.6-2.7 2.1-6.2 4.7-5.9 10.5-8 16.2-5.9M338 93c0 .5-.7 1-1.6 1-.8 0-1.2-.5-.9-1 .3-.6 1-1 1.6-1 .5 0 .9.4.9 1m-207.4 4.7c-1.1 1.1-1.9-.6-1.1-2.4.8-1.7.8-1.7 1.2 0 .3 1 .2 2.1-.1 2.4m29.8.6c-.2.7.2 3.5 1 6.2 1.8 5.8 1.4 6.9-.8 2.6-1.7-3.3-2.2-11.6-.6-10.6.5.3.7 1.1.4 1.8m-15.7 1.9c-.3.7-.5.2-.5-1.2s.2-1.9.5-1.3c.2.7.2 1.9 0 2.5M357 99c0 1.7-2.1 2.2-6.1 1.5-4.6-.8-4.5-1.4.3-2.4 3.5-.8 5.8-.4 5.8.9m-73.9 10.2c-.8 3.6-.8 6.1 0 9 .5 2.2.8 4.3.5 4.6-3 2.9-4.2-16.1-1.5-22.3l1.3-3 .4 3.3c.2 1.8-.1 5.6-.7 8.4m115.6-9c-.3.8-.6.5-.6-.6-.1-1.1.2-1.7.5-1.3.3.3.4 1.2.1 1.9m-217.9 3c.6 1.6.8 2.8.3 2.8-.4 0-1.3-1.6-1.9-3.7-1.2-4-.3-3.4 1.6.9m-31.4 4.8c.4 2.8.3 3.9-.3 3-.5-.8-1.2-3.5-1.5-6-.4-2.9-.4-4 .2-3 .5.8 1.2 3.5 1.6 6m19.5-2.7c.1.5-.3.5-.9.2-.5-.3-1-1.6-.9-2.8 0-2.1.1-2.1.9-.2.5 1.1.9 2.4.9 2.8m142.6-2.3c.3.5.1 1-.4 1-.6 0-1.1-.5-1.1-1 0-.6.2-1 .4-1 .3 0 .8.4 1.1 1m-121.9 4.2c.8 1.6 1.3 3.2 1.1 3.4-.7.7-4.7-4.7-4.7-6.3 0-2.1 1.8-.6 3.6 2.9m10.8-1.9c-.2.7.5 2.4 1.6 3.8 1.2 1.3 3 3.4 4.1 4.7 2.3 2.7 2.5 4.4.3 3.5-2.2-.8-8.3-10.3-7.7-11.9.3-.8.9-1.4 1.4-1.4.4 0 .6.6.3 1.3m-2.3 3.4c1.3 2.1 2.9 4.4 3.6 5.1 1.6 1.7 1.6 2.2 0 2.2-1.3 0-3.9-3.8-5.6-8.3-1.5-3.8-.7-3.3 2 1m17.4 8.9c2.7 2.6 3.6 3.9 2.6 4.2-.8.2-1.8-.3-2.3-1.2s-1.3-1.6-1.9-1.6c-1.7 0-11.9-11.5-11.9-13.5 0-.3 2.1 1.5 4.8 4 2.6 2.4 6.5 6.1 8.7 8.1m72.1-8.1c-.4 1.9-1.1 3.5-1.7 3.5-.8 0-.6-2.9.7-6.9.9-2.7 1.6-.1 1 3.4m-141.2-1.3c.9 3.4.7 4.5-.5 2.5-.5-.9-1.7-1.7-2.4-1.7-.8 0-1.5-.4-1.5-1 0-.5.7-.6 1.7-.3 1.1.4 1.4.3.9-.5-.4-.7-.3-1.2.2-1.2s1.2 1 1.6 2.2M279 107c0 .5-.4 1-1 1-.5 0-1-.5-1-1 0-.6.5-1 1-1 .6 0 1 .4 1 1m46.8 1c1.5 2.4 0 2.7-2.2.4-1.9-1.9-2-2.4-.3-2.4.7 0 1.8.9 2.5 2m-56.8 3.2c0 .5-.4.8-1 .8-.5 0-1-1-1-2.3 0-1.8.2-1.9 1-.7.5.8 1 1.8 1 2.2m-112.6-.8c.9-.3 1.6-.1 1.6.5s-1.3 1.1-3 1.1c-2.1 0-3-.5-3-1.6 0-1.3.3-1.4 1.4-.5.7.6 2.1.9 3 .5m25 .7c3.9 2.3 5 4.7 1.4 2.8-1.3-.7-2.5-1.5-2.8-1.9s-1.4-1.2-2.5-1.8-1.5-1.2-.8-1.2c.6 0 2.8.9 4.7 2.1m91.5 4.1c.1 1.6-.3 2.8-.8 2.8-1 0-1.9-6.1-1.2-8.1.6-1.8 1.9 1.7 2 5.3m39.5-4.6c1.7 1.7 1.8 2.6.6 6.4l-.8 2.5-.1-2.7c-.1-3.3-1.1-5.8-2.2-5.8-.5 0-.6 2-.2 4.5.4 3.1.2 4.5-.6 4.5-.6 0-1.1-1.2-1.2-2.8-.1-2.6-.1-2.6-1 .5-1.2 4.1-2.3 4.3-1.7.4.3-2.2 0-3.1-1.3-3.4-1-.3-2 0-2.3.7-.2.6-.5-.2-.5-1.7-.1-2.6 0-2.7 1.5-1.3 1.8 1.8 3 2 3.9.6.3-.6 0-1-.7-1-.7-.1-.2-.7 1.2-1.5 3.2-1.8 3.5-1.8 5.4.1m-35.4 2c0 .8-.4 1.2-1 .9-.5-.3-1-1.3-1-2.1s.5-1.2 1-.9c.6.3 1 1.3 1 2.1m59-.6c2.1 1.6 2.2 2 .7 2-2.6 0-5.9-1.9-5.2-3.1.9-1.3 1.7-1.1 4.5 1.1m-38.9 1.2c1.1 1.1 1.9 2.5 1.9 3s1.1 1.3 2.5 1.8c2.1.8 2.5 1.6 2.5 5s-.3 4-2.1 4c-4.9 0-7.7-3.9-4.3-5.8 1.1-.6 1.3-1.1.5-1.6-.6-.4-1.1-1.7-1.1-2.9 0-1.6-.3-1.8-1.2-.9-1.6 1.6-2.8 1.5-2.8-.3 0-.8.5-1.5 1.1-1.5s.9-.7.5-1.5c-.8-2.2.4-1.8 2.5.7m-28.1 2.5c0 .7-.4 1.3-1 1.3-.5 0-1-.5-1-1 0-.6-.7-1-1.5-1s-1.5-.6-1.5-1.4c0-1.1.5-1.2 2.5-.3 1.4.7 2.5 1.8 2.5 2.4m23.1 2.2c2.2 2.7 2.5 5.7.7 6.4-1 .3-1 .8.1 2.1 1.2 1.4 1.2 1.6-.3 1-1.3-.5-1.5-1.4-1-3.7.4-2 .3-2.7-.5-2.3-.7.5-1.1-.4-1.1-2.6-.1-2.9-.2-3.1-1.4-1.6-.9 1.2-1.6 1.4-2.3.7s-.4-1.8 1.1-3.4c1.8-2.1 2.2-2.2 2.5-.7.2.9 1.2 2.8 2.2 4.1m26.9-5c0 .6-.4 1.3-1 1.6-.5.3-1-.1-1-.9 0-.9.5-1.6 1-1.6.6 0 1 .4 1 .9m7 0c0 .5.3 1.7.6 2.5.5 1.2.2 1.5-1 1-1.7-.7-2.2-4.4-.6-4.4.6 0 1 .4 1 .9m6 2.3c0 1.7-2 1.7-2.9-.1-1.6-2.9-1.4-3.3.9-1.9 1.1.7 2 1.6 2 2m-138.3-.5c.3.7-.3.9-1.7.6-2.9-.8-3.7-2.5-.9-2.1 1.2.1 2.4.8 2.6 1.5m3.8-.6c1.1 1.7-.1 2.1-1.5.4-.8-.9-.8-1.5-.2-1.5s1.4.5 1.7 1.1m125.1 1.2c1.1 4.5 0 10.2-1.9 10.5-1.6.3-1.7.1-.7-1.9.8-1.3 1-3.9.6-6.5-.6-4.6.9-6.2 2-2.1m63.7 2c2.1-1 2.8-.9 4.1.6 4 4.4 7.8 24.7 6.9 37.1-.7 9.4-.8 10.5-1.6 11.7-1.5 2.3-2.9 1.4-2.3-1.5 1.5-7.1 1.6-10.4.1-9.9-.7.3-1.6.1-1.9-.6-.2-.7-.5-.1-.5 1.3-.2 3.2-3.7 11-5 11-1.7 0-2.1-1.7-1-4.8.6-1.7.9-3.9.6-4.9-.3-1.3-.9-.6-2.3 2.4-1.2 2.7-2.6 4.3-3.6 4.3-2.2 0-2.2-.4 0-6.8 1.1-3 1.6-6.5 1.3-8.4-.5-3.3-.5-3.3-1.5 1.4-.6 2.5-1.4 5-1.8 5.4-.5.4-.8 2-.8 3.6 0 1.5-.3 2.7-.7 2.7-.5-.1-1.4-.1-2.2 0-2.1.2 2.8 4.1 5 4.1 1 0 3.3.9 5.1 2s5.1 2 7.3 2c4 0 10.5 3.1 10.5 5 0 1.3.2 1.3-5.3-.6-3.4-1.2-5.5-1.3-7.5-.6-1.5.5-3.7.6-5 .1-1.6-.6-2.1-.5-1.6.3.7 1.1-1.3.9-8.1-.8-2.2-.5-2.6-.4-2 .6s.4 1.2-.9.7c-1-.4-2.9-1-4.2-1.3-1.8-.5-2.4-1.3-2.4-3.3 0-1.4-.7-4.7-1.5-7.4-1.6-5.2-.4-6.4 2.9-2.8 1 1.1 2.5 1.6 4 1.4 2.1-.4 2.5-1.4 3.5-7.1.6-3.7 1.5-8.8 1.9-11.4.7-3.7.6-4.5-.5-4.1-.7.3-1.3 2-1.3 3.7 0 1.8-.3 3.6-.7 3.9-.3.4-1.4 2.9-2.2 5.5-1.2 3.5-2.2 4.8-3.9 5l-2.2.3 2.1-5.3c1.1-2.9 2.4-5.5 2.9-5.8.4-.3 1.3-2.2 1.8-4.4.6-2.1 1.7-4.6 2.5-5.5 1.4-1.5 3.8-8.4 5.1-14.4q.6-2.7-.6-2.7c-.7-.1-.2-.7 1.2-1.5 1.8-.9 2.7-1 3.2-.2s1.3.8 3.1 0m-105.5 5.9c.5 2.7.6 4.8.1 4.8-.9 0-2.9-6.4-2.9-9.5 0-3.3 1.7-.3 2.8 4.7m38.5-4.5c-.7.3-1.3 1.3-1.3 2.2 0 1-1 2.6-2.2 3.7-2 1.8-2.1 1.8-1.5.1.4-1 .7-2.3.7-2.7 0-1.4 4.3-5.1 4.9-4.4.3.4 0 .9-.6 1.1m11.5.5c1.5 2 1 9.2-.8 9.6-1.1.2-1.5-.6-1.5-3 0-1.8.4-3.6.9-4 .6-.4.4-1.3-.3-2.2-.8-.9-.9-1.6-.3-1.6.5 0 1.4.6 2 1.2m7.7-.2c.3.5.1 1-.4 1-.6 0-1.1-.5-1.1-1 0-.6.2-1 .4-1 .3 0 .8.4 1.1 1m-70.5 1.6c0 .8-.4 1.2-1 .9-.5-.3-1-1-1-1.6 0-.5.5-.9 1-.9.6 0 1 .7 1 1.6m58 1.6c0 1.8-.5 4-1 4.8-.7 1.1-1 .2-1-3.3 0-2.6.5-4.7 1-4.7.6 0 1 1.5 1 3.2m10.8 1.4c-1 1-2.8-.6-2.8-2.4 0-1.5.1-1.5 1.7.1.9.9 1.4 1.9 1.1 2.3m-24-.9c-.4 2.3-5.8 3.1-5.8.9 0-1.3 1.6-2.2 4.8-2.5.8 0 1.2.7 1 1.6m-91.2 2.8c-.8 2.3-2.5.9-1.9-1.6.4-1.3.9-1.7 1.6-1 .5.5.7 1.7.3 2.6m40.9-1.5c.4.6-.5 1-1.9 1s-2.6-.5-2.6-1c0-.6.9-1 1.9-1 1.1 0 2.3.4 2.6 1m79.6 2c1.5 0 1 2.7-.7 3.4-3.6 1.4-4.5-.5-2.2-4.7 1.1-1.9 1.3-2 1.6-.5.2 1 .8 1.8 1.3 1.8m-157.5 2.7c-.4.4-1.1.1-1.6-.7-1.6-2.5-1.1-3.5.7-1.7.9.9 1.3 2 .9 2.4m188.6-1.5c-.7.7-1.2.8-1.2.2 0-1.4 1.2-2.6 1.9-1.9.2.3-.1 1.1-.7 1.7m-61.2-.3c0 1.9-3 3.3-5.6 2.7-2.8-.7-2.3-2.1 1.1-2.9 3.3-.8 4.5-.7 4.5.2m-118.2 2c.3.9 0 1.1-.8.6-.7-.4-1.6-.2-2.1.6-.6 1-.9.8-.9-.9s.5-2.3 1.7-2c.9.2 1.8.9 2.1 1.7m206.2-.5c0 .8-.4 1.8-1 2.1-.5.3-1-.3-1-1.4 0-1.2.5-2.1 1-2.1.6 0 1 .6 1 1.4m65.7 4c-.4 3.7-.2 5.6.6 5.9.7.2.9.8.5 1.2s-1.4 0-2.3-.8c-1.2-1.2-1.3-2.2-.5-4.2.5-1.4 1-3.7 1-5.1 0-1.3.3-2.4.6-2.4.4 0 .4 2.4.1 5.4m-240.4.5c-.6.8-3.1-3.4-2.6-4.2.3-.5 1.1.2 1.7 1.5.7 1.2 1.1 2.5.9 2.7m-6.4-3.2c0 .5-.4 1.7-.9 2.8-.8 1.8-.9 1.7-.9-.8-.1-1.5.4-2.7.9-2.7.6 0 1 .3.9.7m45.9 1.5c.2 1.2-.3 1.4-2.3 1-2.1-.3-2.3-.7-1.4-1.9 1.4-1.7 3.3-1.2 3.7.9m32.2 0c0 .9.8 2.1 1.7 2.7 1 .5 1.5 1.3 1 1.7-.8.8-4.4-2.1-5.8-4.8-.7-1.3-.5-1.6 1.1-1.5 1.2.1 2 .8 2 1.9m17.2 0c-.5 2.1-.4 2.2 1.2.9s1.7-1.1 1.4 3.5c-.2 3-.7 4.8-1.4 4.7s-1.9.6-2.9 1.7c-1.7 1.9-1.8 1.9-4.7-.1-3.2-2.4-4.9-1.9-2.4.6.9.9 1.6 2.1 1.6 2.6 0 1.2-1.7 1.2-2.5-.1-.3-.6-1.7-.7-3-.4-3.9 1-6.3-.3-5.7-3.1.4-2.5 1.6-3 6-2.6 1.2.1 2.2-.3 2.2-.9 0-.5 1.1-1 2.4-1s2.9-.7 3.6-1.5c1.1-1.3.7-1.5-2.4-1.5-2.5 0-3.5-.4-3-1.1.3-.6 2-.9 3.6-.7 2.1.3 3.2 0 3.9-1.4 1.4-2.5 2.8-2.3 2.1.4m115.4-.8c1.8 1.9 1.8 3.6-.1 3.6-.9 0-1.2.6-.9 1.5.5 1.1.2 1.3-1 .9-.9-.3-1.3-1-1-1.6.3-.5-.2-1.5-1.2-2.2-1.9-1.4-1.2-3.6 1.2-3.6.9 0 2.2.6 3 1.4m-144 3.3c-.6 1.4-.9 1.5-1.6.4-1.1-1.9-.1-4.6 1.3-3.2.5.5.7 1.8.3 2.8m39-.9c-.9.9-3.7-.8-3.1-1.8.5-.8 1.1-.7 2.1.1.8.6 1.2 1.4 1 1.7M343 131c0 .5-.4 1-1 1-.5 0-1-.5-1-1 0-.6.5-1 1-1 .6 0 1 .4 1 1m125.7 1.2c-.3.8-.6.5-.6-.6-.1-1.1.2-1.7.5-1.3.3.3.4 1.2.1 1.9M292 133c0 1.1-.4 2-1 2-.5 0-1-.9-1-2s.5-2 1-2c.6 0 1 .9 1 2m40 .5c-.7.8-1 2.1-.7 2.9.4.9-.3 1.6-2.1 1.9-2.8.5-6.2-.7-6.2-2.3 0-1.4 1.8-1.2 2.2.1.5 1.6 4.4-.5 5.9-3.2.6-1.1 1.3-1.8 1.6-1.5s0 1.2-.7 2.1m7-.5c0 1.6-4 5.1-5.1 4.5-.9-.6-.6-1.7 1.4-4.3 1.1-1.4 3.7-1.6 3.7-.2m-66 1.9c0 .5-.7 1.1-1.4 1.4q-1.5.6-.9-.9c.6-1.5 2.3-1.9 2.3-.5m145 .5c0 .8-.5 1.8-1 2.1-.6.4-.8 1.5-.5 2.6.9 2.7-.4 2.4-1.4-.3-.5-1.4-.4-3 .3-4 1.3-2.2 2.6-2.3 2.6-.4m4.4-.8c.9.3 1.6 1.4 1.6 2.4 0 1.3.6 1.6 2.3 1.3 1.4-.3 2.9.3 4.1 1.6 1.6 1.7 1.6 2.4.5 5.8-1.7 4.8-2.9 6.4-4.1 5.7-.7-.4-.7-.9 0-1.3.5-.3 1.3-2.1 1.7-4 .5-2.3.4-3.1-.4-2.7-.6.4-1.1.2-1.1-.3 0-.6-1.1-1.1-2.5-1.1-1.8 0-2.5-.5-2.5-1.9 0-1-.7-2.4-1.5-3.1-2.8-2.3-1.6-3.7 1.9-2.4m-221.8 3.2c-.9.9-3.7-.8-3.1-1.8.5-.8 1.1-.7 2.1.1.8.6 1.2 1.4 1 1.7m14.9-1.7c1.2 1.9-.5 2.3-2.2.6-1.6-1.6-1.6-1.7-.1-1.7.9 0 2 .5 2.3 1.1m133.5 1.1c0 1.7-.3 1.9-.9.9-.5-.7-1.4-1-2-.7-.6.4-1.1.3-1.1-.3 0-.5.8-1.2 1.8-1.4.9-.3 1.8-.5 2-.6.1 0 .2.9.2 2.1m57.7 0c-.3.8-.6.5-.6-.6-.1-1.1.2-1.7.5-1.3.3.3.4 1.2.1 1.9m-200.5.8c2.6 2.4 4.2 2.6 3.4.5-.5-1.3-.2-1.4 1.7-.4 1.7 1 1.9 1.3.7 1.7-.8.3-1.8 1-2.2 1.5-.4.7-1.2.6-2.2-.3-1.4-1.1-1.6-1-1 .4.8 2 .4 2-3.2.1-2.2-1.1-2.4-1.5-1-1.5 1.3 0 1.7-.5 1.3-2-.3-1.1-.3-2-.1-2 .3 0 1.4.9 2.6 2m134.8-1.6c0 .3-.4.8-1 1.1-.5.3-1 .1-1-.4 0-.6.5-1.1 1-1.1.6 0 1 .2 1 .4m69.5 4.4c-.1.1-1 0-1.9-.4-1.3-.5-1.4-.9-.4-2.1 1-1.3 1.3-1.3 1.9.4.3 1 .5 1.9.4 2.1m-188 3.1c-1 .9-2.5-1.4-2.4-3.7l.1-2.7 1.3 3c.7 1.6 1.2 3.2 1 3.4m-4.5-2.8c0 .5-.4.9-1 .9-.5 0-1-.7-1-1.6 0-.8.5-1.2 1-.9.6.3 1 1 1 1.6m74.8-.4c-.5 2.5-2.8 2.8-2.8.4 0-1.2.6-2.1 1.6-2.1.9 0 1.4.7 1.2 1.7m121.2.4c0 .5-.4.9-1 .9-.5 0-1-.7-1-1.6 0-.8.5-1.2 1-.9.6.3 1 1 1 1.6m-80-.3c0 .5-1.5 1.6-3.4 2.5-3.2 1.5-3.4 1.5-3.9-.3-.3-1.3.1-2 1.7-2.3 3.8-.8 5.6-.7 5.6.1m85.9 1.8c-1 1.3-1 1.7 0 2.4.8.4 1.2 1.3 1 1.9-.3.6-.9.7-1.8.2-1.6-1-.7-6.1 1-6.1.8 0 .7.6-.2 1.6m-103.3 1c-.3.9-.6 1.9-.6 2.4 0 .4-1 1-2.2 1.4-2.2.5-2.2.6-.3 2.1 2 1.5 2 1.5-.4 3.5-2.9 2.5-7.1 2.9-5.1.5.7-.8 1.9-1.5 2.7-1.5s1.2-.4.9-.9c-.3-.4-2.2-.7-4.2-.5-3.5.2-3.5.2-1.8-1.7.9-1 2.3-1.9 3-1.9s1.4-.3 1.6-.8c.4-.9 5.1-4.1 6.2-4.1.4-.1.5.6.2 1.5m20.7 2.4c-1 1.2-2.9 2.7-4.3 3.4-2.7 1.3-7 1-7-.5 0-.5 1-1 2.3-1 1.2-.1 2.7-.2 3.2-.4.6-.1 1.6-.3 2.3-.3.6-.1 1.2-.9 1.2-1.7 0-1.6 3.3-3.8 3.8-2.5.2.5-.5 1.8-1.5 3m7.7-3c0 1.2-2.8 2.5-3.6 1.7-.9-.9.6-2.7 2.2-2.7.8 0 1.4.5 1.4 1m-130.6.8c-.6.4-1.3 1.3-1.5 2-.3 1-1 .8-2.3-.7-1.9-2.1-1.9-2.1 1.5-2.1 1.9 0 2.9.4 2.3.8M410 147c0 1.3-.1 1.3-1 0-.5-.8-1-2.2-1-3 0-1.3.1-1.3 1 0 .5.8 1 2.2 1 3m16-2.3c0 1-.4 1.4-.8.8s-1.1-1.3-1.6-1.8c-.5-.4-.2-.7.7-.7 1 0 1.7.8 1.7 1.7m-243.2 2.6c.2 1.5-.1 2.7-.7 2.7s-1.1-.6-1.1-1.4-.3-2.2-.7-3.2c-.4-1.2-.2-1.5.8-1.2.8.2 1.5 1.7 1.7 3.1m45.7 2.5c-.8.8-1.3 0-2-3.3l-.7-3 1.6 2.9c.9 1.6 1.4 3.1 1.1 3.4m118.5-4.4c0 1.5-4.9 5.1-5.7 4.2-.6-.6 3.6-5.3 5-5.5.4-.1.7.5.7 1.3m69.4.2c.4 1 .1 1.4-.6 1.2-1.5-.5-2.3-2.8-1-2.8.5 0 1.3.7 1.6 1.6m6.6 5.4-1.1 2.5.6-2.5c.2-1.4.5-3.4.6-4.5.2-1.9.2-1.9.6 0 .2 1.2-.1 3.2-.7 4.5m-119-4.2c0 1.2-4 3.3-5 2.7-1.5-1-1.2-2.3.8-2.8 2.8-.8 4.2-.7 4.2.1m-82.3 4.9c-1.6 1.6-1.7 1.5-1.7-1.7s.1-3.3 1.7-1.7 1.6 1.8 0 3.4m117.5-2.5c-1.6 1.6-1.5 2.8.3 2.8.8 0 1.5.4 1.5 1 0 .5-.9 1-2 1-1.4 0-2-.7-2-2.3 0-2.3 1.9-5.1 2.9-4.2.2.3-.1 1.1-.7 1.7m75.2 1c.8 3.2.7 4-.3 3.4-1.1-.7-2.1-5.6-1.1-5.6.4 0 1 1 1.4 2.2m3.6.9c0 1.1-.4 1.7-1 1.4-.5-.3-1-1.5-1-2.6s.5-1.7 1-1.4c.6.3 1 1.5 1 2.6m-6 1.7c0 1.5-.2 1.5-1 .2-1.3-2-1.3-3.3 0-2.5.6.3 1 1.4 1 2.3m-172 .4c0 1.2-.1 1.9-.3 1.7-.1-.2-.9-1.2-1.6-2.2-1.2-1.4-1.1-1.7.3-1.7 1 0 1.6.8 1.6 2.2m92.9.3c-1.7 1.7-8.3 1-7.3-.7.4-.6 1.7-.8 3-.5 1.2.2 2.8 0 3.6-.4 1.9-1.2 2.4-.1.7 1.6m75.8.7c-.3.7-.5.2-.5-1.2s.2-1.9.5-1.3c.2.7.2 1.9 0 2.5m-7.7.9c0 .5-.4.9-1 .9-.5 0-1-.7-1-1.6 0-.8.5-1.2 1-.9.6.3 1 1 1 1.6m-165-.1c0 .5-.4 1-1 1-.5 0-1-.5-1-1 0-.6.5-1 1-1 .6 0 1 .4 1 1m122 2.4c.6 1.6 1.7 3.7 2.6 4.7 1.9 2.1 3.3 15.9 1.5 15.9-.7 0-1.1-2-1.1-5.4 0-6.8-1.6-11.4-3.2-9.8-.7.7-1.6 1.2-2 1.2-1.1 0-1-2.8.2-3.2.5-.2.7-1.3.3-2.6l-.6-2.3-1.2 2.4c-1.9 3.6-2.4 9.9-.8 9.3.8-.3 1.5.7 1.9 2.8.8 4.3.3 6.8-1.5 7.4q-1.35.45-.9-.9c2-5.3 2-6.1.1-5.5-1.7.5-1.9 0-2.1-4.8-.1-3 .2-5.7.8-6.1.5-.3 1-1.6.9-2.8-.1-2-.2-2-.9.3-.8 2.6-.9 2.6-1.5-.3-.2-1.1.5-2.1 1.7-2.6 3.6-1.3 4.7-.9 5.8 2.3m-42.9-.2c-1 2.8-3.1 3.5-3.1 1 0-2.2.8-3.2 2.6-3.2 1 0 1.1.6.5 2.2m23.7.7c.4 1.1-.2 1.3-2.7.8-3.2-.7-3.9.1-1.9 2.1.9.9.6 1.2-1.3 1.2-1.4 0-3.1-.6-3.7-1.2-1-1-.5-1.6 2.5-3 4.4-1.9 6.4-1.9 7.1.1m73.2.2c0 .6-.4.7-1 .4-.5-.3-1-1.1-1-1.6 0-.6.5-.7 1-.4.6.3 1 1.1 1 1.6m-167.3 1.1c-.3.8-.6.5-.6-.6-.1-1.1.2-1.7.5-1.3.3.3.4 1.2.1 1.9m81.6-1.5c-.7.2-1.9.2-2.5 0-.7-.3-.2-.5 1.2-.5s1.9.2 1.3.5m22.8 0c.6 3.4.5 12.3-.1 12.3-.5 0-1-2.9-1.2-6.5-.1-3.6 0-6.5.5-6.5.4 0 .8.3.8.7M344 162q-1.35.75-.6 4.8c.6 4.1-.1 10.2-1.3 10.2-1.1 0-.3-13.3 1-16.5 1-2.5 1.3-2.7 1.7-1.1.2 1-.2 2.2-.8 2.6m-94 1.5c0 .8-.4 1.5-.8 1.5-1.3 0-3.2-2.3-3.2-3.7 0-1.1.5-1.1 2-.3 1.1.6 2 1.7 2 2.5m-6 .5c0 .5-.7 1-1.5 1s-1.5-.5-1.5-1c0-.6.7-1 1.5-1s1.5.4 1.5 1m96 .6c0 .8-.4 1.2-1 .9-.5-.3-1-1-1-1.6 0-.5.5-.9 1-.9.6 0 1 .7 1 1.6m6.9 6.1c.1 1.8-.3 3.3-.7 3.3s-.8-2.6-.9-5.8c0-4 .2-5 .7-3.2.5 1.4.8 4 .9 5.7m-31.5-5.8c.3.5 1.6.7 2.7.4 1.6-.4 2-.2 1.7.8-.3.8-1.7 1.3-3.2 1.2-1.9-.1-2.6.3-2.6 1.6 0 1.8-1.8 4.1-3.3 4.1-.4 0-.1-1 .7-2.2 1.8-2.6 2.1-4.8.6-4.8-.5 0-1 .6-1 1.4 0 .7-.7 2-1.6 2.7-1.5 1.2-1.6 1.1-.9-1.1 1.1-4 5.5-6.5 6.9-4.1M337 166c0 .5.9 1 2.1 1 1.8 0 2 .4 1.5 2.6-1.1 4.4-3.4 9.1-3.5 7.1-.1-.9-.5-1.7-1-1.7-1.4 0-2.1 2.8-.8 3.3 1.5.5-2 4.7-4 4.7-1.8 0-1.7-1.5.2-3 .9-.7 1.4-1.9 1.1-2.7-.3-.7.7-1.9 2.3-2.8 2.8-1.4 5.2-5.9 2.6-4.9-.6.3-1.8-.2-2.5-1.1-.7-.8-1.9-1.5-2.7-1.5s-1.1-.5-.8-1c.3-.6 1.7-1 3.1-1 1.3 0 2.4.4 2.4 1m-84 2.6c0 .8-.4 1.4-.9 1.4-1.1 0-2.2-2.6-1.4-3.4.9-.9 2.3.3 2.3 2m53 .2c0 2.1-.7 3.2-2.5 4l-2.4 1.1 2-3.9c1.2-2.2 2.3-4 2.5-4s.4 1.3.4 2.8m53.2 6.1c-.7 4.9-1.7 3.6-1.6-2.2.2-7 .5-7.8 1.3-4.1.5 1.7.6 4.5.3 6.3m-36.2-4.5c0 1.7-3.8 6.6-5.1 6.6-.6 0 0-1.8 1.2-4 2.3-4 3.9-5.1 3.9-2.6m10.5 0c1.2 1.2 1.1 1.5-1.1 2-1.8.5-2.4 1.2-2 2.2.3.8-.1 1.7-1 2.1-1.3.5-1.3.7-.2 1.4 1.7 1.1.2 2.5-3.4 3.4-1.8.5-2.8.3-2.8-.4 0-.6.7-1.1 1.5-1.1 1.4 0 3.8-3.9 3-4.8-.2-.2-1.5.8-3 2.1-5.7 5.1-6.6 5.7-8.7 5.7-2 0-2.1-.1-.3-2 1-1.1 2.6-2 3.6-2 1.9 0 5.9-4.4 5.9-6.6 0-1.9 2.1-2.8 3.1-1.3.6 1.1.9 1 1.5-.4q1.2-3.15 3.9-.3m-37 5.2c-4.2 3.4-5.2 3-1.3-.5 1.8-1.6 3.5-2.7 3.8-2.4s-.8 1.6-2.5 2.9m52.5-.1c-.7 1.4-1.9 2.5-2.7 2.5-1.8 0-1.6-.6 1-3.3 2.7-2.8 3.5-2.5 1.7.8m-80.4.2c-.7.7-2.6-.7-2.6-1.9 0-.6.6-.6 1.5.2.9.7 1.3 1.5 1.1 1.7m39.9-1.7c.3.5-.2 1-1.2 1-1.7.1-1.7.1 0 1.1 1.8 1 1.8 1.2.1 3-1.7 1.9-1.7 2 0 1.3 1.4-.5 1.7-.3 1.4.7-.3.9-1.6 1.3-3.3 1.1-1.8-.2-3.6.5-5.1 1.9-3.5 3.3-2.9.6.6-2.9 1.7-1.7 3-3.7 3-4.4 0-1.5 1.9-3.8 3.1-3.8.4 0 1.1.4 1.4 1m-9.5 6.4-3.2 3.1 2.8-4.1c1.6-2.3 3.1-3.7 3.3-3.2.2.6-1.1 2.4-2.9 4.2m15.7-2.9c.2 1.1 0 1.4-.3.7-.9-1.9-3.4.5-2.7 2.5.4 1.1.2 1.4-.5.9-1.3-.8-1.6-4.8-.5-6 1.3-1.3 3.8-.1 4 1.9m37.3-1c-.7.9-1.5 1.3-1.7 1.1-.7-.7.7-2.6 1.9-2.6.6 0 .6.6-.2 1.5m-57.4 5.2c-1.4 1.5-2.6 2.4-2.6 1.9 0-1.2 4.2-5.7 4.8-5.2.2.3-.8 1.7-2.2 3.3m47-1.2c-2.5 1.9-3.7 1.9-3 0 .4-.8 1.6-1.5 2.8-1.5 2.1.1 2.1.1.2 1.5m-45.9 6.1c-.3.3-1.2.4-1.9.1-.8-.3-.5-.6.6-.6 1.1-.1 1.7.2 1.3.5"/>
	<path d="M299.6 121.8c-.2.4-.1 1.4.3 2.1.6 1 1 .9 1.4-.3.6-1.6-.8-3.2-1.7-1.8M389.1 136.6c0 1.1.3 1.4.6.6.3-.7.2-1.6-.1-1.9-.3-.4-.6.2-.5 1.3M391.2 138.3c-1.4 4-1.6 6.5-.3 5.1 1-.9 2.6-8.4 1.9-8.4-.2 0-.9 1.5-1.6 3.3M387.7 155.3c-1.1 2.9-.9 4.3.4 3 .6-.6.9-1.9.7-2.9-.3-1.8-.4-1.8-1.1-.1M369.4 166.3c.2 2.1.6 4 1 4.4 1 1 .7-5-.3-6.7-.7-.9-.9-.2-.7 2.3M312.1 136.6c-1.3 3-1.1 3.7 1.2 2.8.9-.3 1.4-1.4 1.2-2.6-.6-3.1-1-3.1-2.4-.2M268.3 72.5c1.5 1.4 3.3 2.5 3.8 2.5.6 0-.3-1.1-1.9-2.5-3.9-3.2-5.6-3.2-1.9 0M377.5 71.1c-1.1 1.6 0 2.1 3.1 1.3 2.5-.6 2.6-.8.9-1.5-2.8-1.1-3.3-1-4 .2M187.5 74.5c-1.5 1.9-2.5 3.8-2.1 4.2.3.3.7.4.9.2.1-.2 1.3-1.9 2.5-3.7 3.2-4.6 2.1-5.2-1.3-.7M198.9 73.1c-1.9 3.5-1.2 11.7 1.3 15.7s3.7 2.8 1.5-1.5-2.7-8.9-1.5-12.3c1.3-3.8.4-5.1-1.3-1.9M135.4 74.2c-3.9 1.9-10.4 10.2-9 11.5.3.3.9-.2 1.3-1.2.3-1 1.4-2.6 2.4-3.6.9-.9 2.1-2.3 2.5-3.1.5-.8 2.9-2.4 5.4-3.6s3.8-2.2 3-2.1c-.8 0-3.3.9-5.6 2.1M247.5 73c.3.5 1.6 1 2.8.9 2.1 0 2.1-.1.2-.9-2.8-1.2-3.7-1.2-3 0M257.4 73.5c-1.7 1.3-1.6 1.4 1.5.5 4.1-1.1 5.1-2 2.5-2-1.1 0-2.9.7-4 1.5M306 73.5c0 .8.7 1.5 1.6 1.5 1.4 0 1.4-.3.4-1.5-.7-.8-1.4-1.5-1.6-1.5s-.4.7-.4 1.5M157.2 73.9c-1.1.7-1.1.9.1 1.4.9.3 2.1-.1 2.7-.9 1-1.1 1-1.4-.1-1.4-.8 0-2 .4-2.7.9M162.1 76c-.5 1.6-.8 3-.6 3 .3 0 1.1-1.4 2-3 .9-1.7 1.1-3 .6-3s-1.4 1.3-2 3M170.8 77c-.3 1.6-.1 3 .4 3 .4 0 .8-.6.8-1.4s.3-2.1.6-3 .2-1.6-.4-1.6c-.5 0-1.2 1.3-1.4 3M390 74.7c0 .5.4 1.5 1 2.3 1.1 1.8 2.5.7 1.7-1.5-.6-1.5-2.7-2.1-2.7-.8M453 76.5c0 .9-.6 1.2-1.5.9-.9-.4-1.5 0-1.5.9 0 1 .7 1.3 2 1 1.7-.4 3-4.3 1.5-4.3-.3 0-.5.7-.5 1.5M323.6 79.1c-1 4.9-.7 5.6.9 2.5 1.7-3.2 1.9-5.6.6-5.6-.5 0-1.1 1.4-1.5 3.1M348.6 78.7c1 4 1.4 4.1 1.4.5 0-1.8-.5-3.2-1-3.2-.6 0-.8 1.1-.4 2.7M444.2 78.5c0 1.6.2 2.2.5 1.2.2-.9.2-2.3 0-3-.3-.6-.5.1-.5 1.8M151.3 78.2c-2.3 3-2.4 4.1-.2 2.1 1.2-1.2 2-2.5 1.7-2.8s-1 0-1.5.7M208.8 77.7c.6.2 1.8.2 2.5 0 .6-.3.1-.5-1.3-.5s-1.9.2-1.2.5M447 78c0 .5.5 1 1 1 .6 0 1-.5 1-1 0-.6-.4-1-1-1-.5 0-1 .4-1 1M204.8 78.7c.7.3 1.6.2 1.9-.1.4-.3-.2-.6-1.3-.5-1.1 0-1.4.3-.6.6M335 80c0 1.1.4 2 .9 2s.7-.9.4-2-.7-2-.9-2-.4.9-.4 2M353.1 79.6c0 1.1.3 1.4.6.6.3-.7.2-1.6-.1-1.9-.3-.4-.6.2-.5 1.3M439 80.3c0 1.5.6 2.7 1.3 2.7.9 0 .8.3-.2.9-.9.6-1 1.1-.2 1.5 1.1.7 1.5-.4 1.1-3.9-.3-3.2-2-4.2-2-1.2M156 80c-1.1.7-1.2 1-.2 1 .9 0 1.1.7.7 2.2-.5 1.5-.4 2 .3 1.3 1.4-1.4 2.5-5.5 1.5-5.5-.4 0-1.5.5-2.3 1M225.5 80.1c-1.1 1.7 0 2 2.1.4 1.7-1.3 1.7-1.4.2-1.5-.9 0-2 .5-2.3 1.1M436.2 81.5c0 1.6.2 2.2.5 1.2.2-.9.2-2.3 0-3-.3-.6-.5.1-.5 1.8M143.7 80.7c-.2.4-.7 2-1.1 3.4-.3 1.5-1.5 2.9-2.7 3.2s-1.8 1-1.4 1.7c.8 1.3 5-2.9 6-6 .7-2.2.1-3.9-.8-2.3M413.1 81.6c0 1.1.3 1.4.6.6.3-.7.2-1.6-.1-1.9-.3-.4-.6.2-.5 1.3M111.1 82.6c0 1.1.3 1.4.6.6.3-.7.2-1.6-.1-1.9-.3-.4-.6.2-.5 1.3M136 82c0 .5.5 1 1 1 .6 0 1-.5 1-1 0-.6-.4-1-1-1-.5 0-1 .4-1 1M220.5 83.7c.4 1.6.8 5 .8 7.8 0 2.7.2 3.7.4 2.2.4-2.3.7-2.6 1.8-1.7.8.7 2 1 2.7.7.9-.4.7-.6-.4-.6-1.1-.1-2.2-1.9-3.3-5.6-1.8-5.6-3.3-7.8-2-2.8M139.6 84.7c-.6 1.4-.5 1.5.5.6.7-.7 1-1.5.7-1.8s-.9.2-1.2 1.2M145.9 84.7c-1.3 1.6-1.2 1.7.4.4.9-.7 1.7-1.5 1.7-1.7 0-.8-.8-.3-2.1 1.3M150 84.9c-1.2 2.4-1.3 3.4-.1 2.7.9-.6 2.2-4.6 1.5-4.6-.2 0-.8.9-1.4 1.9M274.8 83.7c.6.2 1.8.2 2.5 0 .6-.3.1-.5-1.3-.5s-1.9.2-1.2.5M366.5 86.1c-2.3 4.3-1.2 4.7 3.1 1.4 3.4-2.6 3.5-2.9 1.8-3.6-3-1.2-3.3-1.1-4.9 2.2M268.2 87.5c0 1.6.2 2.2.5 1.2.2-.9.2-2.3 0-3-.3-.6-.5.1-.5 1.8M435.2 86.6c-.7.8-1.2 2.2-1 3.2.3 1.4.6 1.3 1.7-.6 1.5-2.8 1.1-4.5-.7-2.6M183 88.3c0 1.4.5 2.9 1 3.2.7.4.8-.3.4-2.2-.9-3.8-1.4-4.2-1.4-1M426.6 88.7c-.6 1.4-.5 1.5.5.6.7-.7 1-1.5.7-1.8s-.9.2-1.2 1.2M188.1 89.6c0 1.1.3 1.4.6.6.3-.7.2-1.6-.1-1.9-.3-.4-.6.2-.5 1.3M373 89.6c-2.2.8-2.8 1.3-1.5 1.3 1.1 0 3.1-.6 4.5-1.4 3.1-1.7 1.7-1.7-3 .1M380 89c1.2.8 1.1 1.2-.8 3-3.3 3.1-2.8 3.7 3.1 3.7 3.8 0 4.2-.1 1.5-.4-2.1-.2-3.8-.9-3.8-1.4 0-.6 1-.8 2.3-.4 1.5.4 1.8.4.8-.3-.7-.5-1-1.5-.7-2.1 1-1.6 2.6-1.3 2.6.5 0 .8.5 1.2 1 .9 1.8-1.1 1.1-2.3-2.1-3.4-3.9-1.3-5.9-1.4-3.9-.1M232.6 90.5c-.3.9 0 1.5.9 1.5.8 0 1.5-.7 1.5-1.5s-.4-1.5-.9-1.5-1.1.7-1.5 1.5M190.7 93.9c-.4 1.7-.3 2.1.5 1.3.5-.5.8-1.6.6-2.3-.3-.8-.7-.3-1.1 1M428.8 94.7c.7.3 1.6.2 1.9-.1.4-.3-.2-.6-1.3-.5-1.1 0-1.4.3-.6.6M224 98.1c0 .5.5.7 1 .4.6-.3 1-.8 1-1.1 0-.2-.4-.4-1-.4-.5 0-1 .5-1 1.1M252 98.4c0 .9.5 1.6 1 1.6.6 0 1-.4 1-.9 0-.6-.4-1.3-1-1.6-.5-.3-1 .1-1 .9M255.2 98.2c.5 1.5 2.8 2.3 2.8 1 0-.5-.7-1.3-1.6-1.6-1-.4-1.4-.1-1.2.6M221 99c0 .5.5 1 1.1 1 .5 0 .7-.5.4-1-.3-.6-.8-1-1.1-1-.2 0-.4.4-.4 1M109.7 100.7c-.2.5-.7 2.1-1.1 3.8-.6 2.8-.5 2.9.9 1.1.8-1.1 1.5-2.8 1.5-3.8 0-1.9-.6-2.3-1.3-1.1M171 101.4c0 .8.5 1.8 1 2.1.6.3 1-.1 1-.9s-.4-1.8-1-2.1c-.5-.3-1 .1-1 .9M223.6 100.9c-.3.5.1 1.4.9 2.1 1.3 1 1.5.9 1.5-.9 0-2.1-1.4-2.8-2.4-1.2M333.2 101.2c-2 2-1.4 2.8 1.3 1.8 1.5-.6 2.7-.6 3 0 .3.5 1.2.7 1.9.4 1.1-.4 1.3.2.6 3.1-.5 2.1-.5 3.4-.1 2.9.5-.5 1.1-2.3 1.4-4.1.6-2.8.3-3.2-2.5-4.2-3.9-1.4-4.1-1.4-5.6.1M215.2 104.5c0 1.6.2 2.2.5 1.2.2-.9.2-2.3 0-3-.3-.6-.5.1-.5 1.8M241 104c-1.1.7-.7 1 1.8 1 1.7 0 3.2.4 3.2 1 0 .5.7 1 1.5 1s1.5-.5 1.5-1c0-.6-.7-1-1.5-1s-1.5-.5-1.5-1c0-1.3-3-1.3-5 0M236.8 105.7c.7.3 1.6.2 1.9-.1.4-.3-.2-.6-1.3-.5-1.1 0-1.4.3-.6.6"/>
	<path d="M337.1 106.6c0 1.1.3 1.4.6.6.3-.7.2-1.6-.1-1.9-.3-.4-.6.2-.5 1.3M343.6 106.5c-.3.9-.6 2.4-.5 3.3 0 .9.5.4 1-1.2.9-3.2.6-4.8-.5-2.1M346.7 107.2c-.9 3.1-.2 3.3 1.1.3.6-1.4.8-2.5.3-2.5s-1.1 1-1.4 2.2M360.1 111c-.7 3.6-1.7 8.4-2.2 10.8-1.2 5.3-2.1 18.8-1.3 17.9.4-.3 1-4.8 1.5-9.8.5-5.1 1.1-9.4 1.4-9.7 1.3-1.4 1.6 1.1.6 6-1 4.8-1.3 12.3-.8 18.9.2 2.3 2.7 3.9 2.7 1.7 0-.4.9-.8 2-.8 1.4 0 2-.7 2-2.1 0-1.1.4-1.8.9-1.5s1.1-.3 1.4-1.3c.3-1.4.1-1.8-1-1.4-1.3.5-1.4-.4-1.2-5.5.2-3.3.1-6.4-.4-6.8-.4-.4-.7 3.2-.7 7.9 0 7.6-.2 8.8-2 9.7-2 1.1-2.7.2-1.1-1.5.5-.6 1.1-5.1 1.4-10 .3-5.4.2-8-.3-6.5-.4 1.4-.9 5.2-.9 8.5-.1 3.3-.6 6.7-1.2 7.5-1 1.4-.9-1.5.7-21.5.2-2.8.9-7.4 1.5-10.3.6-3 .8-5.6.5-5.9-.3-.4-.6.5-.7 1.8l-.1 2.4-.7-2.5c-.6-2-.9-1.3-2 4m.6 6.7c-.3 1-.5.4-.5-1.2 0-1.7.2-2.4.5-1.8.2.7.2 2.1 0 3M55 107.4c-2.7.7-4 1.5-3.3 1.9.7.5 2.2.3 3.3-.3 2.8-1.5 11.6-.9 11.3.7-.2.8.8 1.3 2.7 1.3q3 0 3 1.5c0 .8.6 1.5 1.3 1.5.8 0 1.9 1.1 2.7 2.4 1.1 2.1 1 2.7-.4 4.2-1.6 1.5-1.7 1.5-1.1-1.2l.7-2.9-2.1 2.5c-1.4 1.8-1.7 2.8-.9 3.7 1.3 1.6 3.8 1.7 3.8.2 0-1.1 2.4-3.9 3.4-3.9.3 0 .6.7.6 1.5s-.4 1.5-1 1.5c-.5 0-1.2 1.1-1.6 2.5-.7 2.9-1 3-3.1 1-1.9-2-3-1.1-1.3 1 .8.9.8 1.5.2 1.5s-1.4-.5-1.7-1c-.5-.8-1.1-.7-2.1.1-2 1.6-4.7-.8-4-3.6.4-1.5.1-2.1-1.2-2.1-3 0-2.2 4.8 1.1 6.4 3.1 1.5 3.7 3.3.7 2.5-1.1-.3-2-.9-2-1.3s-.9-1-2.1-1.3c-1.6-.4-1.8-.3-.8.9 1.7 2-1.5 1.9-3.5-.2-1.5-1.4-1.6-1.4-1.6.4 0 2.1 2.5 3.2 7.7 3.2 3.7 0 11 1.6 16.6 3.7 2.1.7 6.6 1.6 9.9 2 3.6.4 6.2 1.1 6.5 2 .8 2.1 2.5 1.5 1.8-.6-.4-1.5 0-2.1 1.7-2.4 1.3-.2-1.1-.4-5.2-.3l-7.4.1-.8-4c-1-4.9-1-5.3-.2-8.7.8-3.7-2-9.6-5.2-10.9-3.6-1.3-3.6-1.2-.9 1.6 1.4 1.3 2.5 3.1 2.5 3.9s.6 1.6 1.3 1.9c.6.2.9.8.5 1.2-1.1 1.2-3.8-.3-3.8-2 0-.9-1.3-2.9-3-4.5-1.6-1.6-3-3.3-3-3.8 0-.9-7.9-3.8-12.5-4.5-1.6-.3-5 0-7.5.7m31 27.3c0 .2-.3.3-.8.3-1.4 0-3.1-5.5-2.5-7.9.5-2.1.8-1.7 1.9 2.5.7 2.7 1.3 5 1.4 5.1M74 131c0 .5-.4 1-1 1-.5 0-1-.5-1-1 0-.6.5-1 1-1 .6 0 1 .4 1 1M221.5 107c.3.4-.2 1.1-1.1 1.4-.8.3-1.2 1.1-.9 1.7.5.7 1.2.6 2.3-.4 1-.8 3.1-1.9 4.7-2.4 2.9-1 2.9-1-1.2-1-2.3 0-4 .3-3.8.7M33.1 110.5c-1.7 1.9-4.2 3.6-5.4 3.6-1.7.1-1.8.2-.4.6.9.2 1.7.8 1.7 1.3 0 1.3-3.8 1.8-4.9.7-.6-.6-1.1-.7-1.1-.2 0 .6 3.3 2.8 7.3 4.9 3.9 2.2 7.8 4.6 8.5 5.3s1.9 1.3 2.5 1.3c1.8 0-5.4-6.1-9-7.6-4-1.7-4.1-2.5-.8-5 1.4-1 2.5-2.4 2.5-3 0-1.7 2.6-3.6 6.3-4.4l3.2-.8-3.6-.1c-2.9-.1-4.2.6-6.8 3.4M233.5 107.9c-.3.5-.1 1.2.5 1.6.5.3 1-.1 1-.9 0-1.8-.6-2.1-1.5-.7M352.1 108.6c0 1.1.3 1.4.6.6.3-.7.2-1.6-.1-1.9-.3-.4-.6.2-.5 1.3M357.2 110.2c-1.7 5.1-3.5 15.5-3 16.9.2.7 1.3-3.5 2.5-9.2 2.1-10.8 2.3-13.5.5-7.7M348.7 109.7c-.3 1-1 3.3-1.6 5.2s-.7 3-.2 2.5c1.2-1.2 3.4-8.4 2.8-9-.2-.3-.7.3-1 1.3M419.4 109.1c-.3.6-1.6.8-2.8.5-2-.5-2-.5-.2.9 2.3 1.7 3.6 1.9 3.6.5 0-1.5 3.3-1.2 5.6.5 1 .8 2.6 1.5 3.4 1.5s-.2-1.1-2.2-2.5c-4-2.7-6.3-3.1-7.4-1.4M246.3 109.7c.9.2 2.5.2 3.5 0 .9-.3.1-.5-1.8-.5s-2.7.2-1.7.5M353.5 113c-.4 2.3-.5 4.4-.2 4.6.3.3.8-1.3 1.2-3.6s.5-4.4.2-4.6c-.3-.3-.8 1.3-1.2 3.6M405.7 111c-.4 1.4-.6 3.6-.6 5 .1 2.2.2 2 1-.8.6-1.9.9-4.1.7-5-.3-1.2-.6-1-1.1.8M440 110c-1.3.8-1.2 1 .3 1 .9 0 1.7-.5 1.7-1 0-1.2-.1-1.2-2 0M449 110.4c6.5 2.4 8.5 2.7 4.6.6-2.2-1.1-4.9-2-6-1.9-1.5 0-1 .4 1.4 1.3M12 111c0 .5.7 1 1.6 1 .8 0 1.2-.5.9-1-.3-.6-1-1-1.6-1-.5 0-.9.4-.9 1M117.5 112c-.8 1.3 1.5 1.3 3.5 0 1.2-.8 1.1-1-.7-1-1.2 0-2.5.4-2.8 1M128.8 111.7c.7.3 1.6.2 1.9-.1.4-.3-.2-.6-1.3-.5-1.1 0-1.4.3-.6.6M223.5 112c-.3.5.1 1 .9 1 .9 0 1.6-.5 1.6-1 0-.6-.4-1-.9-1-.6 0-1.3.4-1.6 1M227.4 112.7c.5 1.6.2 2.3-1.1 2.6-1.4.4-1.4.5.4.6 3 .1 3.9-1.7 1.8-3.7-1.6-1.6-1.7-1.6-1.1.5M393.7 112.5c-.4.8-.2 1.7.3 2 .6.4 1-.3 1-1.4 0-2.5-.6-2.7-1.3-.6M432 112c2 1.3 4 1.3 4 0 0-.6-1.2-1-2.7-1-2.2 0-2.5.2-1.3 1"/>
	<path d="M366.3 114.7c-.3 1-.8 2.2-1 2.8-.3.5.3.1 1.1-.9 1.6-2 2.1-3.6 1.1-3.6-.3 0-.8.8-1.2 1.7M350.1 114.7c0 .6-.4 2-.7 3-.5 1.4-.4 1.5.5.7.7-.7 1.1-2 .8-3-.3-1.1-.5-1.4-.6-.7M408.1 114.7c0 .6-.4 2-.7 3-.5 1.4-.4 1.5.5.7.7-.7 1.1-2 .8-3-.3-1.1-.5-1.4-.6-.7M413 117.7c-.3 2.3-.2 3.9.3 3.4s.7-2.4.5-4.2c-.3-3.3-.4-3.3-.8.8M410 117c0 1.1.2 2 .4 2s.6-.9.9-2 .1-2-.4-2-.9.9-.9 2M416.1 116.5c-.1 1.1-.4 3.1-.7 4.5-.5 2.2-.4 2.3.6.7.6-1 .9-3 .7-4.5-.3-1.8-.5-2-.6-.7M68.9 118.7c-.5 1.4-.8 3.2-.5 3.9s0 1.5-.7 1.7-.9.8-.5 1.2c1.3 1.3 3.3-1.9 3.6-5.8.4-4.3-.4-4.8-1.9-1M124.6 118c-1.1 1.1-1.4 2-.8 2s1.4-.4 1.7-1c.3-.5 3.3-.8 6.8-.5 5.1.4 5.6.3 2.7-.5-7.8-2-8.5-2-10.4 0M157.5 117.7c1.1.2 3.9 1.3 6.2 2.3 2.3 1.1 5.9 2.2 8.1 2.6 3.1.5 3.9.3 3.9-1 0-1.1-1-1.6-3.2-1.6-1.8 0-4.9-.7-6.8-1.5-2-.8-5.1-1.4-6.9-1.4-2 .1-2.5.3-1.3.6M363.1 119.7c-.1 1.7.4 3.5.9 3.8 1.2.7 1.2-2.2 0-5-.7-1.7-.9-1.5-.9 1.2M432.8 119c-1.2 3.8-1 6.6.3 5.3.6-.6.9-2.6.7-4.4-.3-3.2-.3-3.3-1-.9M465 118c0 .5.7 1 1.6 1 .8 0 1.2-.5.9-1-.3-.6-1-1-1.6-1-.5 0-.9.4-.9 1M228 119c0 2.1 1.6 4.4 2.3 3.3.4-.6 0-1.9-.8-2.9-1.1-1.5-1.4-1.6-1.5-.4M418.7 118.6c-.4.4-.7 1.9-.6 3.3v2.6l1-2.4c1-2.6.8-4.7-.4-3.5M42 120.5c.7.9 1.5 1.3 1.7 1.1.7-.7-.7-2.6-1.9-2.6-.6 0-.6.6.2 1.5M39.9 122.3c2.6 2.8 3.1 3.2 3.1 1.9 0-.4-1.3-1.6-2.8-2.6l-2.7-1.9zM46.6 121.2c.5 1.5 7.4 6.1 8 5.5.3-.2-.8-1.2-2.3-2.2s-3.2-2.4-3.6-3.2c-1-1.7-2.8-1.7-2.1-.1M243.8 124.2c2.3 2.3 4.4 4 4.7 3.7.7-.8-6-7.9-7.5-7.9-.7 0 .6 1.9 2.8 4.2M52.1 121.3c.2.1 1.3.9 2.4 1.7 1.9 1.4 1.9 1.4.6-.3-.7-.9-1.8-1.7-2.4-1.7q-.9 0-.6.3M58 121.9c0 1 1.9 2.5 2.5 2 .1-.2-.3-1-1.1-1.7s-1.4-.8-1.4-.3M119.6 122.6c-.5 1.4-.4 1.5.9.4 1.7-1.4 1.9-2 .6-2-.5 0-1.2.7-1.5 1.6M128.4 123.5c-2.5 3.8-1.1 4.1 2.8.6 3.1-2.8 3.1-3 1.1-3.1-1.3 0-2.9 1.1-3.9 2.5M187 122c0 .5.5 1 1 1 .6 0 1-.5 1-1 0-.6-.4-1-1-1-.5 0-1 .4-1 1M404.4 126.3c-.1 2.9.1 4 .3 2.4.4-2.2 1-2.7 3.2-2.7 1.5 0 3.2.5 3.8 1.1.7.7 1.1.3 1.1-1.5 0-2.1-.3-2.4-1.3-1.6-1.3 1.1-5-.2-6.5-2.2-.3-.4-.6 1.6-.6 4.5M408.8 121.7c.7.3 1.6.2 1.9-.1.4-.3-.2-.6-1.3-.5-1.1 0-1.4.3-.6.6M435.2 123c0 1.4.2 1.9.5 1.2.2-.6.2-1.8 0-2.5-.3-.6-.5-.1-.5 1.3M232.9 126.3c-.4 2.6.1 4.8 1.3 6.9 2.1 3.4 3.8 3 2-.5-.7-1.2-1.6-4-2-6.2l-.9-4zM105.4 125.5c-1.8 1.4-1.8 1.4.9 1.5 1.6 0 3.5-.7 4.3-1.5 1.4-1.3 1.3-1.5-.8-1.5-1.3 0-3.3.7-4.4 1.5M18 125.8c0 .4 1.7 1.8 3.7 3.2 2.5 1.7 3.8 2.1 4.1 1.2.4-1.4 3.2-1.6 3.2-.2 0 .5-.7 1-1.6 1-1.4 0-1.4.3-.4 1.5 1.7 2.1.8 1.9-4.6-1-2.5-1.4-5.1-2.2-5.6-1.9-1.6 1 1.1 3.1 5.7 4.4 3.4 1 4.6 1.9 5.4 4.1 1 2.8 4.7 5.2 6.5 4.2.7-.5 4.8-1 11.6-1.6 1.4-.1 2.6.2 2.7.8.1.5-.5.9-1.3.7s-1.4.2-1.4.8c0 .5 1.7 1 3.8 1.1 2 0 3.1.3 2.5.6-.7.2-1.3.9-1.3 1.4 0 1.3 11.4 1.1 12.7-.2.7-.7 1.3-.7 1.7-.1.3.6-.7 1.6-2.4 2.4-1.6.7-3 1.6-3 2 0 1.1.2 1 5.1-1.2 2.4-1.1 5.1-1.9 5.9-1.9 1 0 .8.3-.5.9l-2 .8 2 .7c1.1.3 2.9 1.1 3.9 1.7 1.5.8 2.2.7 3.1-.6 1.6-2.1 3.2-2 4.4.1.8 1.5 1.2 1.6 2.2.5 2.1-2 7.7-1.5 8.9.8.6 1.1 1.8 2 2.8 2 1.6-.1 1.6-.2 0-1.4-2.2-1.6-2.4-4.6-.3-4.6.8 0 1.5-.4 1.5-1 0-1.5 8-5.2 9.7-4.6.9.4.5-.4-.8-1.9-2.7-2.8-3.9-3.1-3.9-1.2 0 2.1-3.2 4.5-6 4.5-1.4-.1-6.2.2-10.7.6-6.7.6-8.6.5-10.6-.9-2.2-1.4-2.5-1.4-3 0-.9 2.1-1.8 1.9-6.1-1-2-1.3-3.6-2-3.6-1.5 0 .6-1.1 1-2.5 1-1.6 0-2.5.6-2.5 1.6 0 .8-.4 1.3-.9 1-1.4-.9 1.1-5.5 2.6-4.9.7.3 2 0 2.8-.7 1.2-1 2.2-.8 5.1 1 2.7 1.7 3.8 2 4.4 1.1.5-1 1.6-.9 4.6.4 2.1.8 5 1.3 6.4 1s4.4-.6 6.8-.7c5.6-.2 5.3-1.5-.5-2.2-2.7-.3-6-.7-7.5-.9-1.6-.2-4.4-.4-6.3-.5s-4-.8-4.7-1.5c-.7-.8-2-1.2-3-.9-1 .2-2.5-.1-3.3-.8s-3.4-1.2-5.7-1.2c-2.5.1-5-.6-6-1.5-1.1-1-2.8-1.4-5-1-3.3.4-8.6-1.5-10-3.6-.4-.8-1.3-.5-2.6.6-1.9 1.8-3 1.5-8.1-1.7-1.7-1.1-8.1-1.8-8.1-.8m17.8 6.9c1.2.3 2.2.1 2.2-.6 0-1.5 3.1-.2 6.2 2.7 4.8 4.4 1.2 5.5-7.7 2.4-2.7-1-5.5-2.1-6.2-2.5-1.8-1.1-.4-4 1.6-3.1.9.3 2.6.9 3.9 1.1m16.6 1.9c.6 1.6-1 1.9-1.9.4-.3-.5-1.2-.7-2-.3-1.5.5-2.1-.8-.9-1.9.9-1 4.2.3 4.8 1.8M61 137c0 .5-.8 1-1.7 1-1.5 0-1.6-.2-.3-1 1.9-1.2 2-1.2 2 0m-26.4 2.7c-1 1-1.9-.5-1-1.8.6-1.1.8-1.1 1.2 0 .2.7.1 1.5-.2 1.8m20.7-2.1c-.7.3-.9 1.2-.6 2 .5 1.5-.5 1.8-3.1.8-2.1-.8-2-2.1.2-2.7 2.3-.6 5-.7 3.5-.1m5.8 6.7c-.1 1.2-1.5.9-1.9-.4-.3-.6.1-1 .8-.8.6.3 1.1.8 1.1 1.2M202 125.4c0 .3 1.4 1.5 3.2 2.7 2.6 1.9 3 2 2.5.6-.4-1-.1-1.7.6-1.8s.1-.5-1.3-.9c-2.9-.9-5-1.2-5-.6"/>
	<path d="M45 128.2c0 .9.5 1 5 1.2 2.9.1 4.4-1.2 1.8-1.6-3.9-.4-6.8-.3-6.8.4M251.5 127.9c-.6 1.1 4.2 2.7 5.2 1.7.8-.8.3-1.2-2.4-2-1.2-.4-2.4-.2-2.8.3M4 131.1c-3.4 4.1-3.9 6.1-.6 2.4 2.4-2.6 3-2.8 5.6-1.8 3.3 1.2 3.7.7 1.6-2-1.9-2.4-3.7-2.1-6.6 1.4M103.1 129.6c0 1.1.3 1.4.6.6.3-.7.2-1.6-.1-1.9-.3-.4-.6.2-.5 1.3M211 130c0 .5.5 1 1.1 1 .5 0 .7-.5.4-1-.3-.6-.8-1-1.1-1-.2 0-.4.4-.4 1M409.7 130.4c-.4 1-.5 2.1-.2 2.4.9.9 1.7-.6 1.3-2.5-.3-1.7-.4-1.7-1.1.1M353 136.7c0 4.2-.4 7.3-1 7.3-.5 0-1 .5-1 1.2 0 .6.9.3 2-.7 1.5-1.4 2-3.1 2-6.9 0-2.8-.5-5.8-1-6.6-.7-1-1 .7-1 5.7M155.2 134c2.6 2.4 4.2 3 7.6 3 2.6 0 4.1-.4 3.7-1-.3-.6-2.4-1-4.6-1-2.1 0-3.9-.5-3.9-1 0-.6-.7-1-1.5-1s-1.5-.5-1.5-1c0-.6-.7-1-1.6-1q-1.5 0 1.8 3M165.5 132c.3.5 1.1 1 1.6 1 .6 0 .7-.5.4-1-.3-.6-1.1-1-1.6-1-.6 0-.7.4-.4 1M170 131.9c0 .5.7 1.2 1.6 1.5 1.4.5 1.5.4.4-.9-1.4-1.7-2-1.9-2-.6M170 136c2.8 2.2 4 2.5 4 1 0-.6-1.2-1.5-2.6-2-3.8-1.5-4.2-1.2-1.4 1M149.7 136.1c-.9.6-1.5 1.5-1.1 2 .8 1.3-1.5 4.1-2.8 3.3-1.3-.9-6.9 1.7-6.2 2.8.4.6 1 .6 1.7-.1.6-.6 1.9-1.1 2.9-1.1 2.3 0 8.9-3.5 8.1-4.3-.3-.4 0-1.3.7-2.2 1-1.2 1-1.5-.1-1.5-.8 0-2.2.5-3.2 1.1M178 135.9c0 .5.7 1.2 1.6 1.5 1.4.5 1.5.4.4-.9-1.4-1.7-2-1.9-2-.6M136.5 137c-1.6.7-1.3.9 1.5.9 1.9 0 4.4-.4 5.5-.9 1.6-.7 1.3-.9-1.5-.9-1.9 0-4.4.4-5.5.9M252.8 137.7c.6.2 1.8.2 2.5 0 .6-.3.1-.5-1.3-.5s-1.9.2-1.2.5M171.5 140c2.7 1.2 4.3 1.2 2.5 0-.8-.5-2.2-.9-3-.9-1 0-.8.3.5.9M133 140.9c0 1.5 3.8 2.3 5.7 1.2 1-.6 1.6-1.1 1.3-1.1-3.8-.8-7-.8-7-.1M238.5 141c.3.5.8 1 1.1 1 .2 0 .4-.5.4-1 0-.6-.5-1-1.1-1-.5 0-.7.4-.4 1M255 142c1.4 1.3 2.4 2.7 2.3 3.1-.4 1.4 5.5 1 6-.4.3-.9 1-.7 2.3.6 1.1 1 1.5 1.7.9 1.5-1.5-.5-1.9.5-1 3 .5 1.9.1 3-2.1 5.3-2.9 3.1-2.3 4.1.8 1.2 2.8-2.5 3.3-.7.5 2.1-2.3 2.3-2.5 3.6-.6 3.6.5 0 1.7-1.7 2.8-3.8 1.7-3 2-3.3 2.1-1.5 0 1.3.6 2.3 1.3 2.3 1.7 0 3.7 4.6 2.5 5.8-.6.6-.6 1.2.2 1.7.7.5.4 1.3-1.1 2.6-1.3 1.1-1.7 1.9-.9 1.9.7 0 2.2.8 3.3 1.7 1.8 1.7 2 1.7 3.9-1 1.1-1.5 2.7-2.7 3.6-2.7 1.3 0 1.4-.2.3-.9-.8-.5-.9-1.1-.3-1.5 1.2-.7.4-4.6-1-4.6-1.1 0-.6-7.4.7-10.5.8-1.8.7-1.9-.9-.6s-1.7 1.2-1.1-1.5l.7-2.9-2 3.2c-1.2 1.7-2.4 4.8-2.8 6.7-.3 2-1.1 3.6-1.6 3.6-1.4 0-.1-6.7 1.9-9.6.8-1.3 1.1-2.4.5-2.4-.5 0-1.8 2.1-2.9 4.6-1.2 2.6-2.3 4.1-2.7 3.5s-.2-2 .4-3.1c1-1.9.9-2-1.4-1.4-3.8.9-3.2-1 .6-2.1 1.7-.6 3.3-1.7 3.6-2.5.2-1 .1-1.1-.5-.3-.4.6-2.2 1.4-3.8 1.8-2.1.5-2.6.4-1.6-.3.8-.6 1.1-1.7.8-2.6-.4-.9-.1-1.6.6-1.7 2-.2-5.5-2.1-9.3-2.4-1.9-.1-4.4-.6-5.5-1-1.7-.5-1.6-.3.5 1.5m23 19c0 .5-.4 1-1 1-.5 0-1-.5-1-1 0-.6.5-1 1-1 .6 0 1 .4 1 1m-1.4 8.6c-.3.8-1.3 1.4-2.3 1.4-1.7-.1-1.7-.1 0-1.1.9-.5 1.8-2.2 1.8-3.7.2-2.5.2-2.5.6-.4.3 1.3.2 3-.1 3.8m3.4-4.1c0 .8-.4 1.5-1 1.5-.5 0-.7-.7-.4-1.5.4-.8.8-1.5 1-1.5s.4.7.4 1.5M19.5 142.9c-1 1.7 1.1 2.1 3.1.6 1.8-1.4 1.8-1.4-.3-1.5-1.2 0-2.4.4-2.8.9M158.5 143c-.3.5.1 1 .9 1 .9 0 1.6-.5 1.6-1 0-.6-.4-1-.9-1-.6 0-1.3.4-1.6 1M27 144c0 .5.7 1 1.5 1s1.5-.5 1.5-1c0-.6-.7-1-1.5-1s-1.5.4-1.5 1M188.5 144.1c-.4.6-.5 1.2-.2 1.5.2.3.7-.2 1-1.1.7-1.7.1-2-.8-.4M153 144.9c0 .5-.6 1.1-1.2 1.4-.7.2-.2.2 1.2 0 3.4-.6 5-2.3 2.2-2.3-1.2 0-2.2.4-2.2.9M354.1 146.2l-1.4 2.3 2.4-2c1.3-1.1 2.6-2.1 2.8-2.2.2-.2-.2-.3-1-.3s-2 1-2.8 2.2M32.6 147.5c-2.4 2.2-2.5 2.5-.8 2.5 1 0 2.6-.8 3.5-1.8 3.5-3.9 1.3-4.4-2.7-.7M45.6 146.7c-.3.4-.6 1.2-.6 2 0 1.4 3.6 1.8 4.4.5.6-1-3-3.3-3.8-2.5M134.5 147c-.3.5.1 1 .9 1 .9 0 1.6-.5 1.6-1 0-.6-.4-1-.9-1-.6 0-1.3.4-1.6 1M21.5 148c-.3.5-1.3.7-2.3.4-1.3-.5-1.4-.4-.3.4 1.4 1 4.8.5 5.7-.9.3-.5-.2-.9-1-.9s-1.7.4-2.1 1M202.3 148.5c-1.8.8-3.3 1.9-3.3 2.4 0 .8 5.4-1.7 7.9-3.6 1.1-.8-1.7-.1-4.6 1.2M362.5 150.3c-2.8 4.6-3 5.4-1.2 3.8 1.9-1.5 4.9-7.1 3.9-7.1-.4 0-1.6 1.5-2.7 3.3M98 149c-1.2.8-1.1 1 .8 1 1.2 0 2.2-.5 2.2-1 0-1.3-1.1-1.3-3 0M243.6 150.5c.4.8 1 1.5 1.5 1.5.4 0 .6-.7.3-1.5-.4-.8-1-1.5-1.5-1.5-.4 0-.6.7-.3 1.5M359.7 149.7c-.4.3-.7 1.1-.7 1.7s.5.5 1.2-.2c.6-.6.9-1.4.7-1.7-.3-.3-.9-.2-1.2.2M202.5 153c-3.1 1.6-6.5 3-7.5 3-1.1 0-2.2.5-2.6 1.1-1 1.7 5.4.1 9.3-2.3 4.7-2.8 9.2-3.9 11.4-2.8 1 .6 2 .6 2.3.1.5-.7-3.7-2.1-6.4-2.1-.4 0-3.4 1.3-6.5 3M444 150.9c0 .5.6 1.2 1.3 1.4.9.4.8.8-.3 1.6-2 1.4-.7 1.4 2.5-.1l2.6-1.2-2.3-1.3c-2.8-1.5-3.8-1.6-3.8-.4M192 153c-1.1.7-.7 1 1.8 1 1.7 0 3.2-.5 3.2-1 0-1.3-3-1.3-5 0M436.8 152.7c.6.2 1.2 1.1 1.2 1.9 0 1.2.4 1.3 2.1.3 1.7-.9 1.9-1.3.8-2-.8-.5-2.3-.8-3.4-.8s-1.4.3-.7.6M183.3 155.7c.9.2 2.3.2 3 0 .6-.3-.1-.5-1.8-.5-1.6 0-2.2.2-1.2.5M73.7 160.1c-2.1 3.1-3.1 3.9-4 3-1.4-1.4-9.7-1.5-9.7-.1 0 .5 2.3 1 5 1 4.9 0 5 .1 5 3 0 1.9-.5 3-1.4 3-.8 0-1.8.5-2.2 1.2-.5.7-.2.9.9.5 2.1-.8 4.1 4.7 2.7 7.4-.8 1.4-2.4 1.9-7.3 2.2-6 .3-5.9.3 1.7.5l7.9.2-.6-7.4c-.6-7-.5-7.5 2.4-12 2.9-4.3 5.3-5.8 6.1-3.7.2.5 2.1.5 4.3.1 4.5-.9 4.5-1-.5-1.4-1.9-.2-4.4-.6-5.5-1-1.6-.5-2.6.3-4.8 3.5M254.1 157.6c0 1.1.3 1.4.6.6.3-.7.2-1.6-.1-1.9-.3-.4-.6.2-.5 1.3M257 158c0 1.1-.1 2.3-.2 2.7-.1.5.5.9 1.4 1.1 1.1.2 1.4-.4 1-2.8-.5-3.3-2.2-4.1-2.2-1M90.9 158.4c1.2.5 4 .4 6.8-.1l4.8-1-6.8.1c-4.7.1-6.1.4-4.8 1M105 158c0 .5 1.8.9 4 .8 2.1-.1 3.7-.5 3.4-1-.7-1.1-7.4-1-7.4.2M118.6 157.9c-1 1.5 2.2 2 3.4.5 1-1.1.9-1.4-.8-1.4-1.2 0-2.3.4-2.6.9M125 159c0 1.1.2 2 .5 2 .2 0 .9-.9 1.5-2 .9-1.6.8-2-.5-2-.8 0-1.5.9-1.5 2M294 161.1c0 1.1.5 1.7 1 1.4.6-.3 1-1.3 1-2.1s-.4-1.4-1-1.4c-.5 0-1 .9-1 2.1M25.8 160.7c.7.3 1.6.2 1.9-.1.4-.3-.2-.6-1.3-.5-1.1 0-1.4.3-.6.6M151 161c-1.2.8-.9 1 1.3 1 1.5 0 2.7-.5 2.7-1 0-1.3-2-1.3-4 0"/>
	<path d="M267 162.6c-.8 1.9-.7 3.1.2 4.1 1 1.2 1.3 1.1 2.4-.9 1.8-3.2 1.7-4.7-.3-2.3-1.5 1.9-1.5 1.9-.9-.8.8-3.4-.1-3.5-1.4-.1M75.6 162.9c-1 1.1-1.6 2.5-1.4 3.1s1.4-.3 2.6-1.9c2.5-3.4 1.5-4.2-1.2-1.2M173.6 161.9c-.3.5.2 1.2 1.2 1.6 1.4.5 1 1-2.1 2.7-2.2 1-3.7 2.1-3.5 2.4.7.6 6.4-2.4 7.8-4.1.9-1.1.7-1.6-.9-2.4-1.1-.6-2.2-.7-2.5-.2M125.8 162.7c-1.4.2-2.9 1.1-3.2 1.8-.9 2.5.8 2.4 3.9-.1 1.7-1.3 2.8-2.3 2.5-2.2-.3 0-1.7.3-3.2.5M48.5 164.4c-.6 1.3-.3 2.3 1.1 3.3 1 .8 1.8 2.1 1.6 3-.2.8.2 1.3.9 1.1 2-.7 2.1-2.2.1-4.4-1.1-1.1-2.1-2.6-2.4-3.4-.5-1.2-.7-1.1-1.3.4M130.7 164.7c.3.8 1.4 1.1 2.7.8 1.6-.5 1.2.2-1.6 2.9-2.1 2-3.4 3.6-2.9 3.6 1.4 0 7.4-6.6 7-7.6-.7-1.5-5.7-1.1-5.2.3M196.8 164.7c.7.3 1.6.2 1.9-.1.4-.3-.2-.6-1.3-.5-1.1 0-1.4.3-.6.6M202.3 164.7c1.5.2 3.7.2 5 0 1.2-.2 0-.4-2.8-.4-2.7 0-3.8.2-2.2.4M419 166c-.8.5-1.2 1.2-.9 1.5.8.8 3.9-.5 3.9-1.6s-1.1-1.1-3 .1M120.3 168.4c.4.9.3 1.6-.1 1.6s-1.3 1.3-1.9 3c-1.3 3.3-.7 3.9 1.3 1.3.7-1 1.5-1.5 1.8-1.2s-.8 2.1-2.4 3.9c-1.7 1.9-3.5 5.1-4 7.2-1.5 5.2-2.9 5.7-1.8.5.5-2.3 1.2-6.8 1.7-10.1.6-5 .6-5.6-.6-4-.7 1-1.3 2.8-1.3 4 0 1.3-.4 3.4-1 4.8-.5 1.4-1 4.3-1.2 6.6-.2 4.5-1.7 5.1-5.7 2.3-1.4-.9-2.1-1.2-1.8-.6.4.6-.3 1.4-1.6 1.8l-2.2.7 2.5.8c1.4.4 1.9.8 1.1.9-2.6.2 1 3.1 3.8 3.1 2.2-.1 2.4-.2.9-1.1-1-.5-1.8-1.4-1.8-1.9 0-1 4.3 0 5.1 1.3.6.9 5.9-7.6 5.9-9.5 0-.5 1.1-2.4 2.4-4.1 1.3-1.8 2.8-4.8 3.4-6.8.8-3.1.7-3.7-1.1-4.8-1.7-1.1-1.9-1.1-1.4.3M210.8 168.7c.7.3 1.6.2 1.9-.1.4-.3-.2-.6-1.3-.5-1.1 0-1.4.3-.6.6M30.8 169.7c.7.3 1.6.2 1.9-.1.4-.3-.2-.6-1.3-.5-1.1 0-1.4.3-.6.6M225.4 170.5c-1.8 1.3-1.8 1.4.5.8 2-.5 2.3-.3 1.8 1.1-.6 1.4-.3 1.5 1.3.6 2.4-1.3 2.6-2.6.4-3.4-2-.8-1.7-.8-4 .9M168.7 170.7c-.4.3-.7 1.1-.7 1.7s.5.5 1.2-.2c.6-.6.9-1.4.7-1.7-.3-.3-.9-.2-1.2.2M77.8 171.7c.7.3 1.6.2 1.9-.1.4-.3-.2-.6-1.3-.5-1.1 0-1.4.3-.6.6M81.8 171.7c.7.3 1.6.2 1.9-.1.4-.3-.2-.6-1.3-.5-1.1 0-1.4.3-.6.6M430.5 173c-.4 1.2-.5 2.4-.2 2.7.3.2.8-.5 1.2-1.7s.5-2.4.2-2.7c-.3-.2-.8.5-1.2 1.7"/>
	<path d="M132.3 173.1c-.7.7-1.3 1.9-1.3 2.6s-1.2 1.9-2.7 2.7c-1.6.8-2.4 1.5-2 1.6 1.9 0 6.7-3.5 6.7-5 0-1.3.1-1.3 1 0 2.1 3.3 1.9 3.5-10.7 9.3-3.4 1.5-6.8 5-5.5 5.5.7.2 1 .8.7 1.2-.3.5-1.3.6-2.2.3-1.3-.5-1.5-.2-.9 2.1.5 2 .3 2.6-.5 2.1-.6-.4-1.6-.1-2.1.6-.8 1.1-1.1 1.1-1.5.1s-.8-.9-1.8.5c-1.2 1.6-1.8 1.6-6.5.4-4.3-1.1-6.5-1.1-12.6 0-4.1.7-7.4 1.6-7.4 2.1 0 .4-.8 1.2-1.8 1.7-1.3.7-4.3.4-10.1-1-4.6-1.1-9-1.8-9.9-1.6-1 .2.7.7 3.6 1.1 6.1.9 6.8 2.2 1.5 2.9-2.1.3-4.9.8-6.3 1.3-2.3.7-2.4.6-1.1-1 1.3-1.5 1.3-1.9 0-2.7-1.9-1.2-4.9-1.1-4.9.1 0 .5.8 1 1.7 1 3.6 0-.4 1.8-5.1 2.3-3 .3-4.3.1-3.5-.4s2.2-.9 3.2-.9c.9 0 1.7-.4 1.7-.9 0-.6-2.4-.7-5.5-.4-3.8.4-5.5.2-5.5-.6 0-.6.4-1.1.9-1.1s1.4-3.1 2.1-6.9c.7-4.2 1.9-7.7 3.1-9 1.3-1.4 1.5-2.1.7-2.1-1.7 0-4.8 5.5-4.8 8.6 0 3-2.6 9.5-3.7 9.3-.4-.1-1.5-.1-2.3 0-1.2.1-1.1.4.4 1.2 1.5.9 1.6 1.3.5 2-1 .6-.8.9.9.9 3.4 0 2.2 2.3-1.9 3.7l-3.4 1.2h5.1c2.7.1 5.8-.5 6.7-1.2 1.2-.8 5.2-1.1 13.3-.9l11.6.3-2.6 2.4c-3.1 2.9-3.2 3.5-.6 3.5 1.1 0 2-.5 2-1 0-.6 1.6-1.8 3.5-2.7 3.3-1.6 3.6-1.6 5.2 0 1.3 1.3 1.5 1.9.5 2.9-1.9 1.9-1.4 2.8 1.6 2.8 3.6 0 5.4-1.3 4.7-3.2q-1.2-3 8.7-3c4.3 0 4.8-.2 4.3-1.9-.4-1.1-.2-1.9.5-1.9s.9-.8.5-2c-.8-2.4-.5-2.4 4.2-.5 3.9 1.6 9.8 2.1 7.4.6-2-1.3-.6-2.8 3.2-3.6 4-.9 5.4-2 8.2-6.6 1.6-2.4 4.2-4.5 8.2-6.3 3.2-1.6 6.1-3.3 6.5-4 1.3-1.9.9-5.3-.9-7.5-1.5-1.8-2-2-3-1m-33.9 24.7c.4.8-2.5 1.7-11.7 3.7-2.1.4-2.8.2-2.5-.7.3-.7 2.4-1.6 4.8-2 2.3-.4 4.5-1 4.8-1.3.8-.8 4-.6 4.6.3m-22 4.8c2.7 1 1.8 2-1.9 2.1-3 .1-3.4-.1-2.4-1.3 1.3-1.6 2-1.7 4.3-.8m18.1.4c-.4.6-.1 1.8.7 2.7 1.1 1.4 1 1.5-1.1.8-1.3-.4-4.3-.1-6.8.5-3.3 1-4.7 1-5.6.1-.8-.8-.1-1.1 2.9-1.1 2.8 0 4.7-.6 5.9-2 1.9-2 5.1-2.8 4-1M44 205.5c-.7.9-1.5 1.3-1.9 1-.3-.3.1-1 .9-1.5 2.1-1.4 2.4-1.2 1 .5"/>
	<path d="M127 175.1c0 .5-.4.7-1 .4-.5-.3-1.9.9-3 2.7-2.2 3.7-2.5 4.8-1 4.8.6 0 1-.9 1-1.9 0-1.1 1.3-2.8 3-3.8 3-1.7 3.9-3.3 2-3.3-.5 0-1 .5-1 1.1M407 176.5c0 .2 1.5 1.2 3.3 2l3.2 1.6-2.4-2.1c-2.2-1.9-4.1-2.6-4.1-1.5M425.6 179.2c-1.7 2.6-1.7 2.7.4 4.8 1.2 1.2 2.4 2 2.6 1.7.3-.3-.2-1.2-1.2-2.1-1.3-1.3-1.3-2-.4-3.1.7-.8 1-2 .8-2.7-.3-.8-1.1-.2-2.2 1.4M432 178.9c0 1.2.5 2.1 1 2.1.6 0 1-.6 1-1.4s-.4-1.8-1-2.1c-.5-.3-1 .3-1 1.4M138.4 178.9c.3.5 1.5.7 2.6.4 2.8-.7 2.5-1.3-.6-1.3-1.4 0-2.3.4-2 .9M367.1 181.2c-.9 2.6-.5 4.5 1.7 7 1.5 1.8 3.2 1.6 3.2-.4 0-.5-.7-.8-1.5-.4-1.9.7-3.3-4-1.6-5.7 1.4-1.4 1.4-2.7.1-2.7-.6 0-1.4 1-1.9 2.2M74.5 182c.3.5 1.6 1 2.8 1 1.8 0 1.9-.2.7-1-2-1.3-4.3-1.3-3.5 0M141.3 181.7c.9.2 2.3.2 3 0 .6-.3-.1-.5-1.8-.5-1.6 0-2.2.2-1.2.5M176 183c0 .5.5 1 1.1 1 .5 0 .7-.5.4-1-.3-.6-.8-1-1.1-1-.2 0-.4.4-.4 1M418.8 182.7c.7.3 1.6.2 1.9-.1.4-.3-.2-.6-1.3-.5-1.1 0-1.4.3-.6.6M430.1 183.6c0 1.1.3 1.4.6.6.3-.7.2-1.6-.1-1.9-.3-.4-.6.2-.5 1.3M82.8 183.7c1.2.2 3 .2 4 0 .9-.3-.1-.5-2.3-.4-2.2 0-3 .2-1.7.4M434.7 183.6c-.4.4-.7 1.4-.7 2.3 0 1.1.3 1.2 1.1.4.6-.6 1-1.6.7-2.3-.2-.6-.7-.8-1.1-.4M52.5 184.7c-1.1.3-2.4 1-3 1.5-.7.7-.2.8 1.5.3 5.2-1.5 6.4-3 1.5-1.8M64.8 185.7c1.2.2 3.2.2 4.5 0 1.2-.2.2-.4-2.3-.4s-3.5.2-2.2.4M96 186c.8.5 2.6 1 3.9 1 3.2 0 2.4-.6-1.9-1.4-2.5-.4-3.1-.3-2 .4M346.8 185.7c.6.2 1.8.2 2.5 0 .6-.3.1-.5-1.3-.5s-1.9.2-1.2.5M86 187c3.6 1.2 6.2 1.2 5.5 0-.3-.6-2.3-1-4.3-.9-3.3.1-3.4.2-1.2.9M63.3 188.7c.9.2 2.5.2 3.5 0 .9-.3.1-.5-1.8-.5s-2.7.2-1.7.5M70.5 189c-.3.5.1 1 .9 1 .9 0 1.6-.5 1.6-1 0-.6-.4-1-.9-1-.6 0-1.3.4-1.6 1M78.3 190.1c1.4.8 2.2.8 3 0s.3-1.1-1.8-1.1c-2.6.1-2.8.2-1.2 1.1M227.5 190c.3.5.8 1 1.1 1 .2 0 .4-.5.4-1 0-.6-.5-1-1.1-1-.5 0-.7.4-.4 1M71.3 190.7c-2 .3-3.3 1-3.3 1.9 0 1.4-1.1 1.8-4.4 1.4-1.1-.1-1.5.3-1.2.9 1 1.6 5.2 1.3 6.6-.4.7-.8 1.8-1.5 2.5-1.5s1.8-.7 2.5-1.5 1.1-1.4.9-1.3c-.2 0-1.9.3-3.6.5M90.8 190.7c.7.3 1.6.2 1.9-.1.4-.3-.2-.6-1.3-.5-1.1 0-1.4.3-.6.6M47.5 192.9c-.3.5-.1 1.2.5 1.6.5.3 1-.1 1-.9 0-1.8-.6-2.1-1.5-.7M233.3 193.5c0 .8.4 1.5.9 1.5.4 0 .8-.5.8-1 0-.6 1.1-.8 2.6-.4 1.9.5 2.5.4 2-.5-1.1-1.7-6.3-1.4-6.3.4M365.2 194.5c-.7 1.5-1.1 3-.8 3.2.7.7 2.8-3.6 2.4-4.9-.2-.6-.9.2-1.6 1.7M426.3 194.2c-1.9.9-3.2 2.8-1.9 2.8.9 0 7.6-3.1 7.6-3.5 0-.8-3.4-.4-5.7.7M52 194.4c0 .2 1.1.6 2.5.8 1.4.3 2.5.1 2.5-.3 0-.5-1.1-.9-2.5-.9s-2.5.2-2.5.4M204.5 196c-.3.6.1.7.9.4 1.8-.7 2.1-1.4.7-1.4-.6 0-1.3.4-1.6 1M433 196.1c0 .5.5.7 1 .4.6-.3 1-.8 1-1.1 0-.2-.4-.4-1-.4-.5 0-1 .5-1 1.1M73.8 196.7c.7.3 1.6.2 1.9-.1.4-.3-.2-.6-1.3-.5-1.1 0-1.4.3-.6.6M77.8 196.7c.7.3 1.6.2 1.9-.1.4-.3-.2-.6-1.3-.5-1.1 0-1.4.3-.6.6M266 198c0 .5.5 1 1.1 1 .5 0 .7-.5.4-1-.3-.6-.8-1-1.1-1-.2 0-.4.4-.4 1M450.7 199.4c-1 1.4-1.3 2.6-.8 2.6 1.3 0 3.3-2.8 2.9-4.1-.2-.6-1.2 0-2.1 1.5M140 199.7c1.6 1.1 2.5 1.3 2.8.5.5-1.5 3.2-.3 3.2 1.4 0 .8.5 1.4 1 1.4 1.3 0 1.3-.6 0-3.1-.8-1.4-2.1-1.9-5.3-1.9h-4.1zM281.1 199.1c-1.3.5-2.2 1.2-1.9 1.4.6.6 5.8-1.2 5.8-2 0-.7-1.1-.5-3.9.6M114.5 199.9c-.8 1.4.7 2 3.7 1.4 1.5-.3 2.5-.9 2.2-1.4-.7-1.2-5.1-1.2-5.9 0M391.6 199.7c-1.7 1.7.1 2.3 7.2 2.3 7.7 0 7.9.1 11.5 3.7 2.7 2.7 3.4 3.9 2.5 4.5-1 .5-1 1.2-.2 2.5.9 1.4 2.5 1.8 7.5 1.8h6.4l-.1-4.3c0-2.3-.3-4.4-.5-4.6-.2-.3-2-.1-3.9.4-3.1.7-3.2.8-.8.9 2.8.1 5.7 3.7 4.1 5.1-1.4 1.3-8.7 2-10.3 1-1.2-.8-1.2-1.1.2-2.7 1.6-1.8 1.6-1.9-.4-3.2-1.6-1-1.8-1.5-.8-2.1.7-.4.9-1.3.5-1.9-.5-.9-1-.9-2-.1s-1.7.6-2.7-.7c-.7-1-2.2-1.9-3.3-2-9.9-.9-14.4-1-14.9-.6M303 202.5c-3.5 2-4.1 2.2-7.4 3-2.1.4-2.6.9-1.8 1.7s2.6.3 6.6-1.6c3.1-1.5 5.6-3.2 5.6-3.7 0-1.2 0-1.1-3 .6M113.5 204c-.3.5-.2 1 .4 1 .5 0 1.3-.5 1.6-1 .3-.6.2-1-.4-1-.5 0-1.3.4-1.6 1M363.5 204.9c-.3.5-.1 1.2.5 1.6.5.3 1-.1 1-.9 0-1.8-.6-2.1-1.5-.7M158 207c2 1.3 4.3 1.3 3.5 0-.3-.6-1.6-1-2.8-1-1.8 0-1.9.2-.7 1M162 210.4c0 .8.5 1.8 1 2.1.6.3 1-.1 1-.9s-.4-1.8-1-2.1c-.5-.3-1 .1-1 .9M166 211c0 1.2 2.8 2.1 3.5 1.1.2-.5-.4-1.1-1.5-1.4s-2-.2-2 .3M205.6 211.5c-.3.9 0 1.5.9 1.5 1.6 0 2-1.6.6-2.4-.5-.3-1.1.1-1.5.9M209 214c-.8.5-1.1 1.2-.7 1.6s1.3.2 1.9-.4c1.5-1.5.7-2.4-1.2-1.2M256 215c0 .5.7 1 1.6 1 .8 0 1.2-.5.9-1-.3-.6-1-1-1.6-1-.5 0-.9.4-.9 1M211.7 216.7c-.9.9-.9 4.3.1 4.3.4 0 .7-1.1.7-2.5s0-2.5-.1-2.5c0 0-.4.3-.7.7M275.8 217.3c2.2 1 2.7 2.7 2.3 7.7-.1 2 .1 2.2.9 1 .8-1.3 1-1.3 1-.1 0 1.1.3 1.2 1.1.4.9-.9.8-1.6-.5-2.8-2.3-2.3-2-5.4.7-6.4 1.7-.7 1.1-.9-2.8-.9-4.2 0-4.7.2-2.7 1.1M204.5 218c-.3.5-.3 1.4 0 2 .3.5 0 1-.7 1-1.5 0-4 3.5-3.1 4.4 2.1 2 8.3-.5 8.3-3.4 0-.7-.8-.2-1.8 1-1.2 1.4-2.4 2-3.1 1.6-.9-.6-.7-1.3.8-2.7 1.1-1.1 1.8-2.6 1.5-3.4-.7-1.8-1.1-1.9-1.9-.5M230 218.9c-1.4.4-2 1-1.5 1.3.6.3 2.1 0 3.5-.8 2.7-1.4 2-1.6-2-.5M345 220.1c0 1.8.2 1.9 1.5.9 1.5-1.2 1.2-3-.6-3-.5 0-.9 1-.9 2.1M236 219.9c0 .5 1.1 1.1 2.5 1.3 2 .4 2.3.3 1.4-.8-1.3-1.6-3.9-1.9-3.9-.5M254.5 220.1c-.4.6.1 1.7 1.1 2.4 2.4 1.8 3.4 1.9 3.4 0s-3.6-3.9-4.5-2.4"/>
	<path d="M287 221.9c0 1.7-.4 3.3-1 3.6-1 .6-1.4-.7-1.1-3.4.2-.7-.2-1-.8-.6-.6.3-1.1 1.9-1.1 3.6 0 1.6-.4 3-1 3-.5.1-1.5.2-2 .3-.6 0-1.4.7-1.9 1.4-.4.7-2.1 1.6-3.8 2.1-2.8.8-3 .7-2.5-1.2.3-1.4.1-1.8-.6-1.3-.7.4-1.2 1.4-1.2 2.2s-.5 1.4-1.1 1.4q-1.2 0-.6-3.6c.7-4.4 1.5-5.3 2.7-3.4.5.8 1.1 1.2 1.5.9.3-.3-.4-1.6-1.5-2.9-2.4-2.8-3-2.4-3.7 2.8-.4 3-1.1 4.2-2.7 4.6-3.8 1-4.1.6-1.3-1.9 2.1-2 2.7-3.4 2.6-6.3-.1-2-.3-2.9-.6-1.9-.5 1.9-4.8 4.2-7 3.8-.7-.1-1.3.3-1.3.9s-.5.8-1.1.5c-.6-.4-.8-1.3-.5-2.1.4-1.2.2-1.2-1.4-.4-2.1 1.1-2.8 4-1 4 .6 0 1 .5 1 1 0 1.2-3.6-.5-6-2.8-1.3-1.4-1.3-1.5.8-1 1.5.4 2.2.2 2.2-.8 0-2-4-1.7-5.6.3-1.2 1.7-1.4 1.7-2.9-.2-1.5-1.8-1.6-1.8-1.1-.2.5 1.5.1 1.8-2.2 1.6-1.5-.2-4.2.3-6.1 1-2.8 1.2-3.4 1.2-4.3 0-.8-1.1-.9-1.1-.5.3.8 2.3-.3 3-2 1.3-1.9-2-4.5-1.9-7.4.3-1.3 1-3.6 2.6-5.1 3.5-2.6 1.6-2.7 1.6-2.2 0 .4-1.5.3-1.5-.8.1-2.8 4.1-5 5.9-5.8 4.6-.6-.9-.9-.9-1.5 0-.4.6-1.3.9-2.1.6s-1.1 0-.8.9c.3.7-.3 1.6-1.4 1.9-1.1.4-2.3 1.8-2.6 3.1-.4 1.4-1.1 2.5-1.6 2.5s-.7-.7-.4-1.5c.4-.8.1-1.5-.5-1.5s-1.1.4-1.1.9-1 1.2-2.2 1.6c-2 .6-2 .8-.5 1.2.9.2 1.7.9 1.7 1.4 0 .9-1.7.7-5.7-.8-.7-.3-1.3 0-1.3.7 0 .9-1.4 1-5 .5s-5-.4-5 .5c0 .7.7 1 1.5.6.8-.3 1.5-.1 1.5.4s-.8 1.1-1.7 1.4c-1 .3.1.3 2.5 0 2.7-.4 4.2-.2 4.2.5 0 .8.6.9 1.9.1 1.1-.5 3.1-1 4.5-1s2.8-.5 3.1-1c.5-.8 1.1-.7 2.1.1 1.1.9 1.6.6 2.3-1.4.6-1.6 2-2.7 3.9-3.2 2-.4 3.2-1.4 3.6-2.8.5-2.3 4.6-5.5 4.6-3.7 0 2.1 1.6.9 4-2.9 2.6-4.4 4.8-4.6 2.6-.3-2.1 4-5.5 6.9-6.5 5.4-.5-.9-1.2-.7-2.6.8-1 1.1-1.5 2.3-1.1 2.7.4.5 1.2-.1 1.8-1.1.8-1.5 1.2-1.6 1.9-.5.6 1.1 1.5.7 3.9-1.6l3.1-3-1 2.7c-.8 2.2-.7 2.6.4 2.2.7-.3 1.6-1.6 1.9-2.9s1.7-3.6 3.1-5.1c2.5-2.7 3.2-4.4 1.7-4.4-.5 0-1.4 1.1-2 2.5s-1.6 2.5-2.2 2.5c-1.2 0 .3-3.4 2.8-6.3 2.7-3.1 4.5-2.2 3.8 2-.6 3.7-.6 3.8.8 1.3 1.3-2.1 1.5-2.2 1.6-.7 0 1.1-.8 3.2-1.7 4.8-3.5 6 1.8 8.1 9.2 3.8 2.8-1.7 3.8-1.9 4.9-1 1.1 1 1.6.8 2.1-.9.9-2.7 0-3.6-2-2-1.2 1-1.5 1-1.6-.1-.1-.8-.3-2.4-.4-3.7-.2-1.9.1-2.1 1.9-1.6 2.5.8 4.9 3.1 5.9 5.8.4 1 1.3 1.6 2.2 1.2.8-.3 1.7-.1 2 .4.5.9-.6 1.3-6 2.3-1.8.3-1.7.5.6 1.6 2 1 3.2 1 4.8.2 1.5-.8 2.7-.9 4-.1 1.4.7 2.2.7 2.7-.2.4-.6.2-1.4-.4-1.6-.7-.2-1.2-.7-1.2-1.2 0-1.4-7.3-9-8.6-9-.7 0-1.8-1-2.5-2.2-1-1.8-.9-2 .6-1.4.9.3 2.8.9 4.1 1.2s2.4 1 2.4 1.5c0 .4 1.2 2 2.7 3.5 2.5 2.5 2.7 2.5 3.9.9.7-1 1.5-2.3 1.7-2.9s.8-.8 1.2-.4c.5.5.3 1.9-.3 3.3-1.1 2.4-1 2.5 1.7 2.5 1.6 0 3.1-.6 3.5-1.5.8-2.3 2.6-1.8 2.6.7.1 2.1.2 2.1 1.1.5 1.5-2.6 3-2.1 2.3.8-.5 2.2-.3 2.5 1.9 2.5 2.7 0 5.7-3.2 5.7-6 0-1.7 5.1-6 7-6 .5 0 1 .5 1 1.2 0 .6.3.8.7.4.9-.8 1.7-10.6.9-10.6-.3 0-.6 1.3-.6 2.9m-24 5.1c0 .5-.4 1-1 1-.5 0-1-.5-1-1 0-.6.5-1 1-1 .6 0 1 .4 1 1m-26.7 3c-.9 1.9-1.2 4.1-.8 6s.3 3-.4 3c-1.2 0-1.6-10.2-.4-11.3.3-.4 1.2-.7 1.9-.7.9 0 .9.7-.3 3m5.7.1c0 .5-.7.9-1.5.9-1.5 0-2-1.2-.9-2.3.8-.8 2.4.1 2.4 1.4m-9 .6c-.1 2.2-1.4 5.3-2.2 5.3-.6 0-.7-.7-.4-1.6.3-.8.2-1.2-.4-.9s-1 1.5-1 2.5c0 2-1.7 3.6-2.7 2.6-.4-.4-.1-1.2.5-1.8.7-.7 1.2-2.5 1.2-4 0-2.3.4-2.8 2.5-2.8 1.4 0 2.5.3 2.5.7m13.8 3.3c.7 1.1.9 2 .4 2-1 0-3.2-2.2-3.2-3.2 0-1.5 1.5-.8 2.8 1.2m27.9 3.5c-.4.8-1.1 1.5-1.7 1.5-.7 0-.7-.6 0-2.1 1.3-2.3 2.6-1.9 1.7.6m-69.7 1.3c0 .5-.9 1.7-2 2.7-2.3 2.1-2.6 1.4-.8-1.5 1.3-2 2.8-2.7 2.8-1.2m25 2.3c0 .5-.7.9-1.5.9-1.5 0-2-1.2-.9-2.3.8-.8 2.4.1 2.4 1.4M334.6 221.1c-1.1 1-2.7 1.9-3.7 1.9s-1.9 1-2.2 2.6l-.4 2.5 2.1-2c1.2-1.2 2.6-2.1 3-2.1s2.4-1.1 4.4-2.5c3.4-2.3 3.5-2.5 1.2-2.4-1.4 0-3.4.9-4.4 2M128.5 222.1c.6 1.8.4 2-1.3 1.5-1.1-.4-2.3-.2-2.7.4s.7 1 2.9 1c3.6 0 4.1-.5 3-3.4-.9-2.4-2.6-1.9-1.9.5"/>
	<path d="M274.3 222.6c0 1.3.3 2.4.8 2.4.4 0 1 1 1.2 2.2.3 1.6.5 1.3.6-1 0-1.8-.5-4-1.3-4.7-1.1-1.2-1.3-1-1.3 1.1M360.1 221.6c0 1.1.3 1.4.6.6.3-.7.2-1.6-.1-1.9-.3-.4-.6.2-.5 1.3M117.5 222.3c-1.1.6-4.5 1.5-7.5 1.8-4.5.6-3.9.7 3.7.6 8.9-.1 9.2-.1 7.6-1.9-.9-1-1.7-1.8-1.7-1.8-.1 0-1 .6-2.1 1.3M338.5 222.9c-.3.5-.1 1.2.5 1.6.5.3 1-.1 1-.9 0-1.8-.6-2.1-1.5-.7M346.8 223.2c-.4 1-1.4 1.8-2.3 1.8-1.3 0-1.4.2-.3 1.4s1.5 1.2 2.6.1c.8-.7 1.2-2.1 1-3.1-.3-1.8-.4-1.8-1-.2M355 224.6c0 .9-.8 2.3-1.7 3-1 .7-1.5 1.5-1.2 1.8.8.9 4.9-3.2 4.9-4.9 0-.8-.4-1.5-1-1.5-.5 0-1 .7-1 1.6M383 225c-.8 1.4-.8 2 0 2 .6 0 .8.4.5 1-1 1.6 3.1 1.1 4.5-.5 1-1.2 1-1.8 0-3-1.7-2.1-3.7-1.9-5 .5m4 1c0 .5-.7 1-1.5 1s-1.5-.5-1.5-1c0-.6.7-1 1.5-1s1.5.4 1.5 1M437.3 224.5c-.3.9-.3 1.8-.1 2.1.3.3.8-.4 1.1-1.6.6-2.3-.1-2.7-1-.5M455 224l-2.5.8h2.5c1.4 0 3.4-.3 4.5-.8l2-.9-2 .1c-1.1 0-3.1.4-4.5.8M84.8 225.8c-.7 1-2.1 2.1-3 2.5-1.8.6-2.5 2.7-1 2.7 1.8 0 7.2-4.1 7.2-5.5 0-2-1.6-1.9-3.2.3M318 225.3c0 .8-1 2.2-2.2 3-2.3 1.6-2.3 1.6-.2 1.6 2.3.1 5.1-4.4 3.4-5.4-.6-.4-1 0-1 .8M446.8 226.2c-1.6.5-2.8 1.4-2.8 1.9 0 .8 5.4-1.4 6.9-2.7.7-.7-1.3-.3-4.1.8M130 227c0 .5.5 1 1.1 1 .5 0 .7-.5.4-1-.3-.6-.8-1-1.1-1-.2 0-.4.4-.4 1M192.5 228c-1.6.7-1.7.9-.3.9.9.1 2-.4 2.3-.9.7-1.1.7-1.1-2 0M216 228.1c0 .5.5.7 1 .4.6-.3 1-.8 1-1.1 0-.2-.4-.4-1-.4-.5 0-1 .5-1 1.1M321 229c-.8.5-1.2 1.1-.9 1.4s1.4-.1 2.5-.9c2.1-1.6.8-2-1.6-.5M337 230c0 1.8.2 1.9 2 .8 1.1-.7 2-1.6 2-2 0-.5-.9-.8-2-.8-1.3 0-2 .7-2 2M199.5 231c-.3.5.1 1 1 1s1.3-.5 1-1c-.3-.6-.8-1-1-1s-.7.4-1 1M282 232c-.8.5-1.1 1.2-.7 1.6s1.3.2 1.9-.4c1.5-1.5.7-2.4-1.2-1.2M152 233.1c0 .5.5.7 1 .4.6-.3 1-.8 1-1.1 0-.2-.4-.4-1-.4-.5 0-1 .5-1 1.1M174 233c-.8.5-1 1-.5 1 .6 0 1.7-.5 2.5-1s1.1-1 .5-1c-.5 0-1.7.5-2.5 1M193.9 233.6c-.7.9-1.8 2.5-2.4 3.7-.5 1.1-1.7 2.3-2.5 2.5-1.3.5-1.3.3-.1-1.2.8-.9 1-2 .6-2.4s-1-.1-1.2.5c-.3.7-1.1 1.3-2 1.3-.8 0-1.3.5-1.1 1.2.3.7-.8 2.3-2.4 3.6-3.6 3.1-2.9 4.2.8 1.3 1.5-1.1 3.7-2.1 4.9-2.1 2.5 0 5.5-2.9 5.5-5.3 0-.8.7-2.3 1.6-3.1.8-.9 1.1-1.6.6-1.6s-1.6.7-2.3 1.6M453 233.5c-1.6 1.9-.1 1.9 2.4 0 1.6-1.2 1.7-1.5.4-1.5-.8 0-2.1.7-2.8 1.5M131.2 238c-.7 1.1-.8 2-.3 2 .9 0 2.4-3 1.8-3.6-.1-.2-.8.6-1.5 1.6M148.5 237c-3 .8-3 .8.8.9 2 0 3.7-.4 3.7-.9 0-1.1-.2-1.1-4.5 0M167.6 237.9c-.4.7-.5 1.5-.2 1.8.9.9 1.9-.4 1.4-1.8-.4-1.1-.6-1.1-1.2 0M219.9 240.5c-.7 1.6-3.3 5-5.6 7.4-5.5 5.5-4.7 6.9.8 1.5 4.4-4.3 7.3-8.9 6.6-10.7-.2-.7-1 .1-1.8 1.8M421 239c0 .5.5 1 1 1 .6 0 1-.5 1-1 0-.6-.4-1-1-1-.5 0-1 .4-1 1M178 242.4c0 .7-1.5 1.8-3.2 2.4l-3.3 1 3.8.1c2 .1 3.7-.3 3.7-.8s.3-1.6.6-2.5.1-1.6-.5-1.6-1.1.6-1.1 1.4M449.4 245.6c-1.8 1.4-1.8 1.5.4.4 1.2-.6 2.2-1.3 2.2-1.5 0-.8-.5-.6-2.6 1.1M160 249c0 2.2.2 4 .4 4s.6-1.8.8-4 0-4-.4-4c-.5 0-.8 1.8-.8 4M210.5 246c-.3.5-.2 1 .4 1 .5 0 1.3-.5 1.6-1 .3-.6.2-1-.4-1-.5 0-1.3.4-1.6 1M359 246c-1.2.8-1.1 1 .7 1 1.2 0 2.5-.5 2.8-1 .8-1.3-1.5-1.3-3.5 0M444 248c0 .5.5 1 1 1 .6 0 1-.5 1-1 0-.6-.4-1-1-1-.5 0-1 .4-1 1M168 250.2c-1.4.6-2 1.2-1.4 1.4 1.5.6 6-1.1 4.8-1.8-.5-.3-2-.1-3.4.4M200 255.6c-4.4 1.2-4.5 1.2-1 1.2 4.7 0 9-1.2 7-1.9-.8-.3-3.5 0-6 .7M410.5 258c2.8 1.2 3.7 1.2 3 0-.3-.6-1.6-1-2.8-.9-2.1 0-2.1.1-.2.9M399.5 260.7c-1.1.3-2.4 1-3 1.5-.7.7 0 .8 2 .3 1.7-.4 4.6-.7 6.5-.7 3.2 0 3.3-.1 1-.8-2.9-.9-3.7-1-6.5-.3"/>
</svg>
