<?xml version="1.0" encoding="utf-8"?>
<svg xmlns="http://www.w3.org/2000/svg" viewBox="0 0 754 372">
	<path d="M380.83 1c0 .5.7 1 1.5 1s1.5-.5 1.5-1c0-.6-.7-1-1.5-1s-1.5.4-1.5 1zm5.4.5c-.4.9-1.9 1.5-3.5 1.5-1.7 0-3.6.9-4.6 2-1 1.1-2.5 2-3.3 2-.9 0-3.5 1.6-5.7 3.5-2.5 2.1-5.2 3.5-6.8 3.5-1.5 0-4.2.9-5.9 1.9-1.7 1-5.1 2.2-7.6 2.6-2.5.4-5.5 1.3-6.7 2.1-1.2.8-4.4 1.4-7.1 1.4-5.8 0-7.2 1.2-7.9 7.2-.4 2.9-1.8 5.8-4.2 8.8-2 2.4-4.3 5.4-5.1 6.5-.8 1.1-3.8 4.3-6.7 7.2-2.8 2.8-5.4 6.2-5.8 7.4-.8 2.3-8.2 9.9-9.7 9.9-.5 0-2.7 1.7-5.1 3.9-2.5 2.3-5.6 4.1-7.7 4.4-11.2 1.8-11.3 1.9-12.5 6.7-1.1 4.2-1.3 4.5-4.6 4.5-1.9.1-5 .8-7 1.8-3.6 1.6-3.6 1.6-3.1 6.9.6 6.3.7 6.5 2.9 4.7 2.4-1.9 6.1-3.9 7.1-3.9.9 0 3.2 4.4 3.2 6 0 .6-1.1 1-2.5 1-1.6 0-2.5.6-2.5 1.5 0 1.6 2.5 2.1 3.4.6.7-1.1 4.6-.2 4.6 1 0 .5-1.1.9-2.5.9-2.7 0-3.2.9-1.3 2.8.9.9.9 1.2 0 1.2-.7 0-1.2-.5-1.2-1 0-.6-.5-1-1.1-1-.6 0-.9.7-.5 1.5.3.9 0 1.5-.8 1.5-.7 0-1.8-2.3-2.5-5.5-.8-3.5-1.8-5.5-2.7-5.5-.8 0-1.4.5-1.4 1.1 0 .6-.6.9-1.4.6-.8-.3-1.6.2-1.9 1.3-.3 1-1.8 2.1-3.6 2.5-1.8.4-4.9 2.3-6.9 4.3-3.6 3.6-3.7 4-3.8 10.9 0 4.9-.5 7.8-1.6 9-.8 1-3 5.6-4.9 10.1-3.1 7.9-3.6 8.5-8.2 10.9-4.7 2.3-4.9 2.6-4.4 5.9.5 3.1.2 3.6-3.9 6.5-3.7 2.5-4.5 3.5-4 5.3.5 2 0 2.4-4.3 3.5-4.9 1.2-13 6-16.9 9.9-1.1 1.1-3.8 2.6-6 3.1-2.6.7-4.3 1.9-5 3.6-.7 1.4-2.4 3-3.8 3.5-1.5.6-3.8 1.9-5.2 3-1.3 1.1-3.3 2-4.3 2-1.1 0-2.7.9-3.7 2-2.2 2.7-10.4 5.1-17.5 5.1-3.5.1-6.1.6-6.8 1.5-.6.8-3 1.4-5.3 1.4-2.2.1-5.4.7-7.1 1.5-2.9 1.4-2.9 1.5 2.1.9 5.5-.6 11.3 1.5 15.5 5.7 2.7 2.7 4.4 1.9 4.4-2.1 0-2.6.7-3.7 3.5-5.6 1.9-1.3 3.9-2.4 4.5-2.4 1.1 0 4.3-1.6 12.5-6.2 8.9-5 10.5-5.7 13.3-6.3 1.6-.3 3.5-1.7 4.4-3.3 3.7-6.3 19.7-16 31.8-19.2 2.8-.7 5.3-1.9 5.8-2.6.9-1.5 7.5-6 14-9.4 4.6-2.4 6-4 3.5-4-.7.1-2.4.7-3.8 1.5-2.9 1.7-9.6 2-10.5.5-.4-.6-1.6-.8-2.7-.4-3.5 1.1-1.5-1.9 2.9-4.3 3.5-2 4.4-3.3 7.4-10.9 3.8-9.6 9.1-16.5 14.1-18.4 1.8-.7 4.7-1.8 6.3-2.5 1.7-.7 3.7-1.5 4.5-1.8.8-.3-.2-.6-2.2-.6-2.4-.1-4.1-.7-4.7-1.9-.6-.9-1.1-1.1-1.1-.5 0 2.2-3.7 1.4-4.3-.8-.3-1.2-1-1.8-1.6-1.4-.6.3-1.1-.1-1.1-1.1 0-1.5.2-1.5 2.6.1 1.9 1.2 2.9 1.4 3.7.6.9-.9.6-1.3-1.1-1.7-2.9-.8-2.8-1.8.3-3.2 3.5-1.6 3.5-1.6 3.5 1.6 0 2.3.6 3 3.5 4 2.9 1.1 3.8 1.1 6-.4 1.4-.9 3.4-1.4 4.5-1.1 1 .3 2 .1 2.2-.3.2-.4 2.3-1.7 4.8-2.9 3.8-1.8 4.5-1.9 5.3-.6.4.8 1.3 1.5 2 1.5.6 0 0-1.2-1.4-2.6-2.3-2.2-3-2.4-4.8-1.5-1.2.7-2.6.9-3.1.6-1.4-.9-1.2-3.5.3-3.5.7-.1.4-.6-.6-1.5-1.3-.9-1.7-2-1.2-3.4.8-2.7 3.8-2.7 5 .1.6 1.2 1.7 2.4 2.5 2.6 1.1.4 1-.1-.4-1.7-1.1-1.1-1.6-2.4-1.2-2.8.4-.4 1.6.3 2.6 1.7 1.1 1.4 2 2.1 2 1.5 0-.5-1.4-2.3-3.1-4.1-1.8-1.9-2.8-3.7-2.4-4.4.6-.9 1-.9 1.6.1.7 1.1.9 1.1.9.1 0-.7-1.2-2.8-2.6-4.7-2.1-2.8-2.3-3.6-1.3-5.3 1.3-2.1 6.9-5.2 9.4-5.2 1.8 0 5.5 3.9 5.5 5.8 0 .9-1 .4-2.5-1.4-1.9-2.2-2.5-2.5-2.5-1.2 0 1.8 2.8 5.6 6.8 9.2 1.5 1.3 2.1 2.8 1.8 4.1-.3 1.1-.1 2.7.4 3.5.8 1.3 1.3 1.3 3 .2 1.9-1.2 2.2-1.1 2.7.7.9 3.4 2.3 2.4 1.6-1.2-.9-5.2-6.3-14.2-9.9-16.7-3.8-2.5-4.1-3.2-1.9-5 1-.9 1.5-.9 1.5-.1 0 .6.9 1.1 1.9 1.1 1 0 2.1.6 2.4 1.4.3.8 1.5 2 2.7 2.6 2 1.1 2.1 1 .9-1.1-.9-1.9-.9-2.4.5-3.4 1.7-1.3 6.3-.9 7.2.6.3.5 2.2.9 4.4.9 2.5 0 4 .5 4.4 1.6.3.8.9 1.3 1.4 1 1.3-.8 2.7.6 5.5 5.4 4.5 7.6 3 3.2-1.9-5.4-2.5-4.5-5.5-9.6-6.6-11.5-3.1-4.9-4.2-13-2.1-15.3 2.5-2.8 3.3-2.2 3.3 2.6 0 3.3.7 5.2 2.5 7.4 1.4 1.7 2.5 3.4 2.5 4 0 .5.8 1.6 1.7 2.3 1.5 1.2 1.6 1.2.9-.6-2.5-6.3-2.2-6.5 5.1-3.4 8.1 3.5 12.3 4.7 12.9 3.8.3-.5-.2-.9-1.1-.9-.9 0-4-.9-6.8-2.1-11.6-4.7-12.3-5.3-10.3-8.4.8-1.2 1-2.8.5-4-.4-1.1-.8-4.5-.8-7.5-.1-4.4.4-6.1 2.3-8.5l2.4-3 1.2 6.3c.7 3.5 1.9 6.6 2.6 6.9.9.3 1.4 2.2 1.4 5.4 0 4.7.1 4.9 5.5 8.4 5.8 3.9 7 5.7 3.3 4.8-1.3-.3-1.9-.2-1.5.3.4.4 2.4.8 4.4.9 3.6 0 3.6 0 6.6 8.3 1.6 4.5 3.1 8.1 3.3 7.9.2-.2-1.4-5.7-3.7-12.1-4-11.5-4.7-15.9-1.4-9.6 1.9 3.7 3 3.5 1.6-.4-.6-1.4-.7-2.6-.2-2.6.7 0 3.6 7.2 5.6 13.8.4 1.3.9 2.2 1.1 1.9.7-.7-3.9-17.1-5.3-18.8-1.6-1.9-1.7-2.9-.3-2.9.6 0 1 .6 1 1.4 0 .8.4 1.6 1 1.8.5.1 2 4.1 3.4 8.8 3.9 13.6 4.1 14 7.5 14 1.6 0 3.2-.4 3.5-.8.2-.4-1-.6-2.8-.4l-3.3.4-2.7-10.6c-1.4-5.8-2.6-11.8-2.5-13.3.1-3.4.4-2.5 1.9 5 .8 3.8 1.8 6 3.1 6.7 1.3.7 1.9.7 1.9 0 0-.5-.7-1-1.5-1s-1.5-.9-1.5-2 .4-2 1-2c.5 0 .7.7.4 1.5-.4 1 0 1.5 1.1 1.5 1.4 0 1.6.6 1 2.7-.3 1.5-1.2 3.1-1.8 3.5-.8.5-.6.8.5.8.9 0 1.9-.8 2.1-1.8.4-1.3.5-1.1.6.5.1 1.7.7 2.3 2.4 2.2 1.6-.1 1.8-.2.5-.6-2.3-.6-2.5-6.5-.3-8.3.8-.7 1.5-2.5 1.5-4.1 0-2.4-.5-3-3.2-3.7l-3.3-.8 2.8-.6c1.6-.3 2.7-.1 2.7.6 0 .6.5.3 1.1-.8.7-1.1.8-2.1.2-2.5-1.4-.9-2.4-4.1-1.4-4.1.5 0 1.1.6 1.4 1.2.5 1.7 3.6-.7 4.7-3.7.7-1.7.9-1.4 1.5 1.8.9 4.4 2.7 5.6 5 3.3 1.5-1.5 1.5-1.6-.1-1.6-1 0-1.5-.3-1.1-.6.3-.3-.3-1.4-1.4-2.5-2-2-2-2 .1-4.6 2.1-2.7 2.1-6.3-.1-8.9-1-1.2-.9-1.8.5-3.2 1.5-1.5 1.8-1.5 2.6-.2.5.8 1 2.3 1 3.2 0 1 .7 1.8 1.6 1.8.8 0 1.2.5.8 1.1-.4.7 0 .9 1.3.5 1.5-.5 2.3.2 3.8 3.6 1 2.4 2 3.7 2.3 3 .5-1.7 5.7-1.5 7.5.2.8.8 2.7 1.6 4.3 1.8 2.5.2 2.9.8 3.2 3.5.3 2.8 0 3.3-1.7 3.3-1.6 0-2.1-.6-2.1-2.5 0-2.9-1-3.2-3.1-.7-1.4 1.6-1.3 2 .7 4.1 1.5 1.6 2.9 2.2 4.3 1.8 1.2-.3 2.1-.1 2.1.4s.8.9 1.8.9c1.3 0 1.4-.2.3-.9-1.1-.7-1.1-.9 0-1.4 1-.4 1-.6.2-.6-.8-.1-1.3-1.4-1.3-3.4 0-2.3.3-2.8.9-1.7.7 1 1.1.1 1.4-3l.4-4.5.1 4.8c.2 4 .6 5 2.2 5.4 2.5.7 2.6 2 .3 2.6-1.6.3-1.6.5.2 1.2 3.4 1.5 5.3 3.9 5.7 7 .3 3.2 3.8 5 3.8 2.1 0-.9-.4-1.6-.9-1.6-1.5 0-2.2-3.3-.9-4.2 1-.6 1-.8.1-.8-2.2 0-1.4-2.8.9-3.5 1.1-.4 3.9-.7 6-.7 3.2.1 3.8-.2 3.4-1.4-.3-.9-.6-1.7-.6-2 0-.2-.6-.1-1.4.2-.7.3-2.1-.6-3-2.1-1.3-2-1.4-2.6-.4-3 2-.7 5.1 0 5.6 1.3.7 2.3 2.3 1.2 2-1.4-.2-2.2-.9-2.7-3.5-3-1.8-.2-3.3 0-3.3.5s-.9 1.1-2 1.4c-2.4.6-2.6 2-.5 4.1.8.8 1.5 1.9 1.5 2.4 0 1.6-3.2 2.3-4.7 1-1.2-1-1.8-.9-2.9.7-.8 1.1-1.4 1.3-1.4.6 0-.7.9-2.6 2.1-4.2 2.4-3.4 1.9-5.9-1-5.9-2.5 0-3.3-1.3-2.4-3.6.6-1.6.7-1.6 1.4.2.6 1.5.8 1.2.8-1.4.1-2-.3-3.1-.9-2.7-.5.3-1 .1-1-.4 0-.6 1.1-1.1 2.5-1.1 1.7 0 2.5.5 2.5 1.7 0 1.5-.2 1.6-1 .3s-1-1.2-1 .3c0 2.4 1.8 5.7 3.2 5.7.5 0 .8-.9.5-2-.6-2.3.3-2.6 2.2-.8.8.7 1.2.8.9.3-.3-.6.3-1.9 1.3-2.9 1.6-1.6 1.9-1.7 1.9-.4 0 .9.6 2.1 1.4 2.7 1.2 1 1.5.8 1.8-1.1.4-1.8.7-1.2 1.7 2.4 1.7 6 3.6 7.8 5.8 5.5 1.5-1.5 1.4-1.6-.9-2.2-2.6-.7-4.8-5.4-4.8-10.6-.1-2.1-.2-2.2-1.1-.7-1.1 1.9-3.9 2.5-3.9.8 0-.6.5-1 1-1 .6 0 1-1.1 1-2.4 0-1.9.4-2.2 2.5-1.8 1.5.2 2.5 0 2.5-.7 0-.6.6-1 1.3-.9 2.1.5 3.9 3.8 3.4 6.4-.3 1.8.1 2.8 1.6 3.5 1.8 1 1.9.9 1.4-1.9-.5-2.2-.1-3.4 1.3-4.7 1.8-1.6 2-1.7 2-.2 0 1-.5 1.7-1.1 1.7-.7 0-1 1.2-.7 2.8.2 1.8-.3 3.5-1.4 4.7-2.8 2.9-1.9 5.1 2 4.7 3.8-.3 4.2 1.4 1.2 4.8-1.1 1.3-2 1.8-2 1.1 0-.8-1.7-1-5.7-.6-6.2.6-6.8.9-5.8 2.4.8 1.3 3.5 1.5 3.5.2 0-.5 1.5-.8 3.3-.6 2.7.2 3.3.7 3.5 3 .2 1.7 0 2.5-.7 2-.6-.3-1.1-.1-1.1.4 0 .6.7 1.1 1.6 1.1 1 0 1.4.5 1 1.5-.4 1.2.1 1.5 2.9 1.3l3.4-.2-.5-4.5c-.3-2.5-.8-4.9-1-5.3-.7-1.1.7-5.8 1.7-5.8.5 0 .9.9.9 1.9 0 2.3 1.9 3.8 2.9 2.3.3-.5 2.2-1.2 4.1-1.3 3-.3 3.5-.1 3.8 1.8.3 1.9-.1 2.3-2.2 2.3-1.4 0-2.6.4-2.6.9s-.8 1.1-1.7 1.3c-1.6.3-1.6.4 0 2 2.7 2.6 2.1 4.3-.8 2.4-2.9-1.9-3.3-.5-.6 2.1 1 1 2.3 2.7 2.9 3.8.6 1.1 1.2 1.4 1.2.7s.4-1.1.9-.7c.5.3 1.3 3.1 1.7 6.3.4 3.1.9 5.1 1.1 4.4.3-.6 1.1-1.2 1.9-1.2.9 0 1.3-.4.9-1-.3-.5-.1-1.7.6-2.7.9-1.5.7-2.7-.5-5.7-.9-2.1-1.6-4.7-1.6-5.7 0-1.7 5-10.8 6-10.9.3 0 2.1 1 3.9 2.1l3.5 2.1-3.2 1.4c-3.1 1.3-3.2 1.5-2.6 5.6.4 2.4 1.1 4.4 1.6 4.6 1 .5 1.1 4.2 0 4.2-.8 0-2.5-2.9-3.5-6-.3-.8-.6-.3-.6 1.2-.1 1.5.3 2.9.9 3.3.5.3.6 1.5.1 2.8-.5 1.2-.4 3.3.1 4.7.5 1.4 1.1 4.4 1.3 6.6.4 3.5.1 4.3-1.6 4.7-1.2.3-2.7-.2-3.9-1.6-1.5-1.5-2.3-1.8-3.1-1-1.6 1.6-.2 3.3 2.7 3.3 1.7 0 2.4.5 2.4 2 0 1.6.7 2 3.5 2 1.9 0 3.5.4 3.5.9s.9.7 2.1.4c1.6-.5 1.8-.8.7-1.5-.8-.6.8-.8 4.5-.4 3.8.4 5.6.3 5.2-.4-.8-1.3 5.8 0 6.6 1.3.4.5.9.3 1.2-.4.3-.8.6-.2.6 1.3.1 2-.5 2.8-2.1 3.1-1.3.2.1.4 2.9.3 3.2-.1 5.3-.5 5.3-1.2 0-1.3 2.2-2 10-3l5.5-.7-3 2.5c-5.7 4.7-8 5.8-12 5.9-3.4.2-3.5.3-1 .6 1.6.3 3.3 1 3.7 1.6.7 1.2 24.5-3 25.4-4.5.3-.5-.5-.6-1.8-.3-14 3.2-20.5 3.9-18.6 2 .3-.3 4.8-1.4 9.9-2.4 6.1-1.1 9.4-2.2 9.4-3.1 0-.7 1-1.9 2.3-2.8 1.4-.9 2.2-1 2.2-.3 0 2 1.7 1.2 2.3-1.1.4-1.2.9-1.9 1.3-1.5.4.4 1.3.2 2-.4.8-.6 4.4-1.1 8.1-1 6.1.1 7-.2 8.2-2.2 1.3-1.9 1.3-2.1-.1-.9-1 .8-4.1 1.2-8.5 1-3.8-.1-7.5.2-8.2.7-.9.5-1.2.3-.9-.5.5-1.5 2.1-2.6 6.1-4 2.6-.9 2.7-1.1 1.3-2.6-.9-.8-1.6-2.1-1.5-2.7 0-.9.2-.8.6 0 .2.7.9 1.3 1.4 1.3.4 0 .6-.6.3-1.3-.3-.8 1.4-2.2 4.3-3.6 2.7-1.3 4.2-2.6 3.5-2.8-2.2-.8-16.2 7.7-16.2 9.8 0 .5.8.5 1.8.2 1.5-.6 1.5-.5.3 1-.9 1.2-1.8 1.4-2.5.8-1.2-1-9.7 4-10.5 6-.4 1.3 5.5-1.6 6.4-3.1.3-.5 1.1-1 1.8-1 .6 0 .3.8-.8 1.9-2.3 2.1-9.6 5.1-12.5 5.1-1.1 0-2 .5-2 1.1 0 .7-1 .5-2.5-.5-2.8-1.8-5.6-2.1-7.1-.6-.6.6-2.2.6-4.4 0-5.1-1.5-7-1.2-7 .7-.1 1.6-.2 1.5-1.2-.2-1.6-2.9-1.6-2.9-3.3-1.5-1.2 1-2.1 1-4.4 0-1.7-.6-3.5-.9-4.1-.5-.6.4-3.7.9-6.8 1.1-3.1.3-6.3.7-7 .9-.9.3-.8-.5.3-3.2.8-1.9 1.5-5.1 1.5-6.9 0-1.9.5-3.4 1-3.4.6 0 1 1.3 1 3 0 2.5.4 3 2.5 3 1.4 0 2.5-.4 2.5-1 0-.5-.8-.6-1.7-.3-1.3.5-1.5.2-1-1.1.4-1 .1-2.4-.8-3.2-1.7-1.8-3-6.2-2.1-7.1.8-.8 1.7.1 2 1.9.1.7.9 2.4 1.7 3.8.9 1.4 2.6 4.1 3.8 6l2.1 3.5-.6-4.1c-.5-3.1-.2-4.5 1.1-5.7 1.5-1.5 1.5-1.8.1-2.3-.9-.3-1.6-1.6-1.6-2.9 0-1.7.6-2.3 2.5-2.3 3 0 3.4 3.1.9 6.6-.8 1.2-1.4 3.7-1.2 5.5.3 2.8.7 3.2 3.4 3.5 2.9.3 3 .1 2.6-2.7-.5-3.7-.9-3.8-3.3-.9-1.5 1.7-1.9 1.8-1.9.5 0-.9.9-2.5 2-3.5 2.4-2.3 7-1.8 7 .7 0 1.3.2 1.3.9.2 1.2-1.9 2.4.3 1.6 2.9-.5 1.6-.3 1.9 1.1 1.3 1-.4 2 0 2.6 1 .6 1.1 2.2 1.7 4.8 1.7 4.1 0 7.5-2.3 6.3-4.3-.5-.8-.8-.8-1.1.1-.2.7-.8 1.2-1.3 1.2-.6 0-.8-.4-.4-.9.3-.5-1.1-1.5-3-2.1-1.9-.6-3.5-1.6-3.5-2.1 0-1.4 2.4-1.1 4.6.6 1 .8 2.7 1.5 3.6 1.5 2.3 0 7.8 3.3 7.8 4.6 0 .9 1.2.9 4.1.3 5.3-1.2 7-2.1 15.1-8.1 19.7-14.5 45-17.4 71.1-8.1 10.2 3.7 16 7 29.5 17 6.7 5 8.6 7.3 6.2 7.3-.5 0-1.6 1.2-2.3 2.6-.9 1.7-1.7 2.3-2.1 1.5-1.3-2-3.6-1.2-3.6 1.3 0 2.9 3.9 8.2 4 5.3 0-1.6.2-1.6 3.8-.1 2 .9 4.3 1.8 5 2.1.8.4 1.2-.7 1.3-3.3l.1-3.9.9 4c1.2 5.8 1.1 16.8-.1 16-.5-.3-1-1.7-1-3.1 0-1.4-.4-2.3-.8-2-.4.3-.6 2-.4 3.9.3 2.9.8 3.4 2.8 3.4 2.4 0 2.4 0 2-8.1-.2-4.4-.7-10.5-1.1-13.4-.4-2.8-.4-5.2.1-5.2s1 1.2 1 2.7c.8 17.8 3.2 29.3 3.6 17l.1-5.2.4 4.5c.5 5.6 2.5 8.2 2.1 2.8-.1-2.1.1-4 .5-4.4.4-.4.7.2.7 1.4s.5 2.2 1 2.2c1.4 0 .1 5.2-1.6 6.6-.8.6-1 1.5-.6 1.9.4.5-.1.5-1 .2-1.6-.6-1.8.1-1.8 5.8 0 5-.3 6.5-1.4 6.5-.8 0-2.3 1.1-3.4 2.5s-2.9 2.5-4.1 2.5c-1.2 0-2.1.4-2.1.9 0 1.7 2 2.3 3.4 1.1 1.1-.8 1.5-.8 1.8.1.7 2 4.8-.9 4.9-3.4.1-2.1.1-2 .8.3.5 1.7.9 2.1 1.5 1.2.4-.7 1.2-1 1.7-.7.5.4.9-.1.9-.9 0-.9.5-1.5 1.2-1.4.7.2 1.2-.2 1.3-.7 0-.6.3-1.5.7-2 .3-.6.9-3.1 1.3-5.6.4-2.9 1.2-4.6 2.1-4.6.8 0 1.4.4 1.4.9 0 .4 1.6.8 3.5.8 3.2 0 3.5.3 3.5 2.9 0 2.3-.5 3-2.7 3.4-1.6.4-3.3 1-3.9 1.4-1.4 1-2.7 10.3-1.4 10.3.6 0 1-.6 1-1.3 0-1.6 11.1-1.7 12.2-.2 2.3 3-1 5.6-8.2 6.5-4.4.5-4.5.6-4.6 4.3-.1 2.1.3 4 .7 4.3.5.3.9-.9.9-2.5 0-1.7.5-3.1 1-3.1.6 0 .9.3.9.7-.4 2.7.3 5.3 1.5 5.3.7 0 4-1.6 7.2-3.5s6.6-3.5 7.6-3.5c1.8 0 1.8.1.1 2.4-1 1.4-2.8 2.9-3.9 3.5-1.2.5-2.4 2.1-2.8 3.4-.3 1.4-1.5 3.6-2.6 4.9-1.1 1.2-2.8 3.4-3.9 4.8-1.9 2.5-1.9 2.5-5.5.7-5-2.4-5.4-2.2-6.8 2.4-.9 3.3-2.4 5.1-7.2 8.6-3.8 2.7-6.8 4.2-7.8 3.8-1-.3-2.6-.7-3.5-1-1.2-.4-3.4.8-6.3 3.5-4.3 3.9-4.7 4.1-9.3 3.5-3.7-.5-5.4-.3-7.5 1.1-3.1 2-14 2.8-16 1.2-1.6-1.4-5.9.7-6.8 3.4-.3 1-.9 1.8-1.4 1.8-1.6 0-6-2.3-6-3.1 0-.5-1-1.7-2.2-2.8-1.5-1.5-2.5-1.8-3.4-1-.7.6-2.1 1-3.1.9-3.5-.4-4 0-5.2 4.2-1.8 5.7-5.4 10.2-10.9 13.4-2.6 1.5-5.7 3.6-6.9 4.7-1.3 1.2-5.2 2.6-9.5 3.4-7 1.3-7.4 1.3-9-.7-.9-1.1-2-2-2.5-2-3.1 0-11.1-12.1-12.7-19.2-.3-1.5-1.6-3.3-2.9-3.9-3.9-2-6.6-5.1-7.7-8.8-1.9-6.2-3.2-9.1-4-9.1-.5 0-1.8 2.1-3 4.6-2.6 5.3-5.6 8.4-8.2 8.4-2 0-6.6 5.9-10 12.7l-2.2 4.4-5.2-.7-5.1-.6-3.1 5.1c-4 6.4-6.8 6.9-7.7 1.3-.4-2-1-4.8-1.5-6.2-.5-1.4-1.1-3.7-1.4-5.1-.6-2.7-7.1-8-9-7.3-.6.2-1.6 1.4-2.1 2.7-1.5 3.4-4.1 3.3-6-.3-1.2-2.2-2.1-2.9-3.4-2.5-1.1.3-2.5-.3-3.6-1.5-1-1.1-2.2-2-2.7-2s-3.1 2.2-5.9 5c-5.4 5.4-6.3 5.8-8.5 3.5-1.3-1.2-1.9-1.1-5 1l-3.6 2.4-3.9-2.4-3.9-2.5-2.7 3c-1.4 1.6-3 3-3.5 3s-2.2-1.3-3.8-3c-1.6-1.6-5.3-4.5-8.3-6.4-3.3-2.1-6-4.8-7-6.9-2.7-5.6-4.1-6.2-10-4.9-5 1-5.3 1-7.2-1.5-4.2-5.5-10.9-12.3-12.1-12.3-2.3 0-9.4 4.2-9.4 5.5 0 .7-1.5 2.4-3.4 3.9-1.9 1.4-4.5 4.4-5.7 6.6-1.2 2.2-3.1 4.2-4 4.5-1 .4-2.7 2.1-3.9 4-1.2 1.9-4.5 4.7-7.8 6.6-3.1 1.7-5.9 3.4-6.2 3.8-.3.3-2.4 1.9-4.7 3.5-2.4 1.6-4.1 3.2-3.8 3.6.7 1.2-2.1 14.1-4.1 18.7-1.8 3.9-2.4 4.4-8.6 6.3-3.6 1.1-7.4 2-8.3 2-.9 0-4.6 2.9-8.3 6.5-6 5.9-6.9 6.5-9.7 5.9-2.7-.5-3.6-.1-5.8 2.6-1.5 1.7-2.7 3.6-2.7 4 0 1.9-10.6 7.7-15.1 8.3-4.1.5-4.9.3-6.9-1.8-1.3-1.4-2.9-2.5-3.6-2.5-1.8 0-3.4 3.2-3.4 6.7 0 1.6-1 4.4-2.3 6.3-1.3 1.9-2.9 5-3.6 6.8-.8 1.8-2.6 4.3-4.1 5.6-1.5 1.2-3 3.1-3.4 4.2-.3 1-2.6 4.1-5 6.8-4.8 5.2-3.8 5-13.5 3-3.2-.7-3.1-.8-6.1 11.1-1.6 6.6-12 13.2-21 13.4-1.9.1-4-4.3-4-8.2 0-2.9-4.7-11.7-6.2-11.7-.5 0-.8-1-.8-2.3 0-1.2-.6-3.3-1.3-4.7-.8-1.5-1.6-4.6-2-7.1-.7-4.9-4.3-13.9-5.6-13.9-.5 0-1.4-1.3-2.1-3-.7-1.6-2.8-4.1-4.7-5.6-1.9-1.5-4.2-4.3-5-6.3-.8-2-2.3-4.4-3.3-5.3-2.2-2-4.1-9.9-4.5-18.5-.3-4.4-1.1-7.5-2.8-10.5-1.4-2.4-3.3-6.3-4.2-8.8-3.2-8.5-4.9-12.5-6.6-15-.9-1.4-2.3-4.5-3.1-7-.8-2.5-2.1-4.5-2.8-4.5-2.5 0-12.7 9-13.9 12.2-.7 1.8-1.5 3.3-1.9 3.3-2-.1-5.6-4.8-9.6-12.8-1.5-2.9-3.4-5.6-4.2-5.9-.9-.3-3.2.8-5.5 2.7-3.2 2.6-4.3 2.9-5.4 2-2-1.7-3.7-.2-7.3 6.1-1.5 2.7-2.9 4.9-3.2 4.9-.3 0-2-2.1-3.9-4.6-4.2-5.6-6.3-5.4-7.4.6-.7 3.6-1.5 4.9-3.8 6.3-3.9 2.2-5.6 2.2-6.4-.2-.9-2.9-3.2-3.3-7-1.1-2 1.1-3.9 2-4.3 2-.4 0-1.5-1.9-2.5-4.2l-1.7-4.1-2.5 2.3c-1.7 1.6-2.5 3.4-2.5 5.9-.1 4.3-1.5 11.9-2.4 12.8-.3.4-1.3-.2-2.1-1.3-1.4-1.8-1.7-1.6-7.5 4.5-6.3 6.7-7 7.7-4.5 6.7.9-.3 1.5 0 1.5.9 0 .8.5 1.5 1 1.5.6 0 1-1.1 1-2.5s.5-2.5 1.1-2.5c.6 0 .9.7.5 1.5-.3 1 .3 1.7 1.9 2.1 1.5.4 2.2 1.1 1.8 2-.7 1.9.5 1.8 2.4-.2.9-.9 1.6-2.9 1.6-4.5s.4-2.9.9-2.9c.4 0 .8.7.8 1.5s.4 1.5.8 1.5c1.2 0 5.2-4.4 5.2-5.8 0-.7.5-1.2 1-1.2.6 0 1-.9 1-2.1 0-1.5.5-1.9 1.5-1.5.8.3 1.5.1 1.5-.5s1.2-.9 2.7-.7c2.1.2 2.9 1 3.5 3.5 1.6 6.2 2.8 4.6 2.9-3.9.1-4.6.4-7.1.6-5.7.3 2 .9 2.6 2.2 2.2 1-.3 2.1.2 2.4 1 .4 1-.1 1.3-1.9.9-2.2-.4-2.4-.1-2.4 3.2 0 3 .4 3.7 2.7 4.2 1.7.5 2.8.3 3.1-.4.2-.7.9-1.2 1.6-1.2.9 0 1-1.5.6-5.5-.8-7 .5-7.2 1.6-.3l.8 5.3.6-4.5c.5-2.9.8-3.5.8-1.8.1 1.6.7 2.8 1.2 2.8.6 0 1 .9 1 2.1 0 1.1.3 1.8.8 1.6.9-.6.8-16.4-.1-17.4-.4-.3-.7-1.3-.7-2.2 0-1.1.7-.8 2.5 1.2 2.4 2.5 2.6 3.3 2.2 10.5l-.3 7.7-.2-7.8c-.1-4.2-.6-7.7-1.2-7.7-1 0-1.1 3.2-.3 11.7.3 4 .8 5.1 1.9 4.6 1-.4 1.4-2.3 1.4-7.4 0-6.9.5-8 2.8-5.7 1 1 1.5 1 2.1 0 .6-1 1-.8 1.4.7.4 1.8.1 2-1.9 1.7-2.2-.4-2.4-.2-2.4 3.8 0 4.5.2 4.6 5.3 3.7.4 0 .8-2.2.9-4.9.1-4.3.2-4.4.5-1l.4 3.7 3-3c2.2-2.3 2.9-4 3-7.2l.2-4.2.7 3.5c.4 1.9.8 2.9.9 2.2 0-.6 1.2-1.2 2.5-1.2 2.3 0 2.5-.4 2.9-5.3.3-5.1.3-5.1.5 1.2.1 3.5.5 6.1.9 5.7.4-.4.6-3.6.4-7.2-.2-4.2.1-6.4.8-6.4.6 0 1.1.9 1.1 2s.5 2 1 2c.6 0 1 3.2 1 7.5 0 4.5.4 7.5 1 7.5.7 0 .8-1.8.4-5.2-.5-3.7-.4-4.9.5-4.4.6.4 1.1 3.1 1.1 6.2s.4 5.4 1 5.4c.7 0 .8-1.3.4-3.5-.3-1.9-.2-3.5.2-3.5 1.7 0 8.9 6.8 8.1 7.6-.4.5-1.2.2-1.7-.5-.6-1.1-.9-1-1.3.5-.3 1.3-.5 1.1-.6-.9-.1-3.3-1.6-3.6-2.5-.5-.9 3.4-.7 4.5.4 2.8.7-1.1 1-.7 1 1.7 0 2.3.5 3.3 1.5 3.3.8 0 1.5.9 1.5 2 0 1.3.7 2 2 2 1.1 0 2 .4 2 1 0 .5.6.9 1.3.7.7-.1 1.4 1.5 1.9 4.3.6 4.3.6 4.2.5-1.3-.2-4.1.2-5.7 1.1-5.7.9 0 1.1-.7.7-1.9-.3-1.1-.2-2.2.3-2.5.6-.3 1.2.4 1.6 1.7.9 3.3.8 3.7-.9 3.7-1.1 0-1.5 1.2-1.5 4.7 0 2.7-.5 5.5-1 6.3-.8 1.3-1.2 1.2-2.5-.8-1.6-2.2-4.5-3-4.5-1.2 0 .5-.6.9-1.2.7-.8-.1-1.3.8-1.3 2.3 0 1.9.6 2.6 2.4 2.8 1.3.2 2.8-.2 3.2-1 .6-.9.9-.5.9 1.4 0 1.8.7 2.9 2 3.3 2.4.8 4-.1 4-2.1 0-.8-.5-1.2-1-.9-.6.3-1 .1-1-.5 0-.7.8-.9 2-.5 1.4.5 2 .2 2-.9 0-.9.5-1.6 1-1.6 1.3 0 1.3-5.7.1-6.2-1.2-.4-1.8-12.9-.7-14.6.6-1 .1-1-2.1.1-2.7 1.4-3 1.4-4.1-.4-.7-1-1.3-4.5-1.3-7.6-.1-3.2-.4-4.8-.6-3.6-.4 2.3-2.3 3.3-2.3 1.2 0-1.7 2-4.9 3-4.9.6 0 1 2.7 1 6.1 0 4 .5 6.5 1.5 7.5 1.6 1.7 3.5 1.1 3.5-1.1 0-.9.6-1.2 1.5-.9 1.2.5 1.5-.5 1.6-5.2.2-5.6.2-5.7.9-1.9.6 3.2.7 3.4.9 1.2 0-1.6.5-2.5 1.1-2.2.5.3.7 1.8.4 3.3-.3 1.5-.1 4.5.4 6.7l1 4 .1-6c.1-4.1.4-5.5 1.1-4.5.5.8.6 4.3.3 7.7-.4 4.4-.2 6.3.6 6.3.6 0 1.1.7 1.1 1.5s-.4 1.5-1 1.5c-1.4 0-1.3 2.7.2 3.2.7.3 1.3 4.9 1.6 14.1.3 7.5.9 13.7 1.4 13.7.5 0 .5.6 0 1.6-1.9 3.4 4.9 11.1 8.8 10.1 1.1-.3 1.9-.2 1.8.2-.2 2.2.4 4.1 1.2 3.6.6-.4 1 .7 1 2.4s.5 3.1 1 3.1c.6 0 1 1.3 1 3 0 2 .5 3 1.5 3 .8 0 1.5.7 1.5 1.6 0 .8.5 1.2 1 .9.6-.3 1 .3 1 1.4 0 1.2.4 2.1.9 2.1s1.1.8 1.3 1.7c.2 1.2 1.2 1.8 2.8 1.8 2.4 0 2.5.3 2.6 6 .1 9.1.7 10.7 1.4 4l.7-6 .1 8c.3 9.8 1.2 15.6 2.3 14.9.5-.3.9 1.4.9 3.7 0 3.2.6 4.7 2.5 6.5 1.4 1.3 2.5 3.2 2.5 4.4 0 1.1.6 2 1.4 2 .8 0 1.6 1 1.8 2.1.2 1.4 2.4 3.3 6.7 5.6 3.5 1.9 7 4.1 7.8 4.9.8.8 1.9 1.4 2.5 1.4.6 0 2 .7 3 1.7 1.7 1.5 1.8 1.5 1.8-.3 0-1.2-1.6-2.7-4.2-4-2.3-1.2-4.4-2.7-4.6-3.5-.4-1 .1-.9 1.5.3 1.1 1 2.6 1.8 3.4 1.8.8 0 2 .5 2.7 1.2.6.6 1.4.9 1.8.6 1.2-1.3 2.2-8.3 2.3-15.9.1-8.6-1.6-10.9-2.2-3.2l-.3 4.8-.2-5c-.2-4.1.2-5.3 1.8-6.3 1.9-1.2 2-1 2 7.3 0 8.1.1 8.4 1.8 6.7 2.2-2.4 5.2-8 5.2-9.7 0-.8 1-2.3 2.1-3.4 1.6-1.4 2-2.7 1.5-4.5-.3-1.4-.2-2.8.4-3.1.5-.3 1-3 .9-5.8-.1-6.2-.5-5.4-2.4 4.4l-1.4 7.4.5-6.5c.8-10.3.8-10.5 2.6-11.2 2.4-1 5.8.2 5.7 2.1-.1.9-.5 2.7-.9 4.1-.7 2.2-.8 2.1-.9-1.3-.1-5.1-2.1-3.8-2.1 1.4 0 3.5.3 3.9 2.5 3.9 2.3 0 2.5-.3 2.5-4.9 0-2.8.5-5.3 1.1-5.7.8-.5.9.6.4 3.5-.4 2.7-.3 4.1.4 4.1.6 0 1.1-1.9 1.1-4.5 0-2.5.5-4.5 1-4.5.6 0 1 1.4 1 3.1 0 1.7.4 2.8 1 2.4.6-.3 1-2.8 1-5.5s.5-5.2 1.1-5.6c.7-.4.9 1 .4 5-.5 3.9-.4 5.6.4 5.6.6 0 1.2-2 1.2-4.8.3-8.2.4-8.5 1.8-9 1-.3 1.2.2.8 2-.8 3.2-1.9 17.6-1.2 16.3.2-.6.9-3.5 1.4-6.5.8-4.3.9-2.9.4 6.4-.4 8.7-.3 11.7.6 11.2.6-.4 1.1-2.8 1.2-5.4.1-3.7.3-4.2.8-2.2.4 1.4.6 4.2.3 6.2-.3 2.4-.1 3.8.7 3.8.6 0 1.1-1.4 1.1-3.2 0-1.7.3-2.8.7-2.4.4.4.6 2.6.4 5-.1 2.4.2 4.7.8 5.1.7.4 1.1-.7 1.1-2.9 0-2 .5-3.6 1-3.6.6 0 1 2.2 1 4.8 0 2.7.6 5.7 1.4 6.8 1.4 1.8 1.5 1.8 2.5-.9.6-1.6 1.1-3.7 1.1-4.7s.5-2.2 1-2.5c.6-.3 1-1.5 1-2.7 0-1.7-.2-1.8-1.5-.8-1.3 1.1-1.4.7-.9-3.3.4-2.6.2-5.2-.5-6.3-.8-1.6-1-.9-1.1 3.3 0 2.9-.3 5.3-.8 5.3-.4 0-.6-3.4-.4-7.5.3-4.8 0-7.5-.6-7.5s-1.3 1.9-1.5 4.2c-.2 2.4-.4-4.8-.5-16-.1-12.9.2-20.2.8-20.2.6 0 1 3.9 1 9.7 0 14.8 1 10.4 1.4-6.1.3-12.9.8-17 1.9-15.5.2.2.1 7.4-.2 15.9-.4 8.5-.4 16.5-.2 17.7.6 4 2.1 1.3 2.1-3.8 0-2.8.4-4.8.9-4.5 1.3.8 2.2-7.9 1.5-14-.7-5.3-.6-5.4 2-5.4 1.4 0 2.5.3 2.5.7-.1.5 0 2.4.1 4.3.3 3.1.4 3 1-1.5l.7-5 .1 6.3c.2 5 .6 6.4 2 6.9.9.4 2 1.1 2.5 1.7.4.7 2-.2 4.1-2.5 3.3-3.5 3.4-3.9 3-10.5l-.3-6.9.9 6.4c.5 3.5 1 6.5 1.2 6.6.2.2 2-.4 4.1-1.3 2.7-1.3 3.7-2.3 3.7-4 0-1.3.4-2.1.9-1.8 1.5 1 2-2.2 1.4-8.9-.4-4-.2-6.5.4-6.5.5 0 .9 1.7.8 3.7-.1 2.1.2 4.7.6 5.8.6 1.6.8 1.3.9-1.5.1-3.4.2-3.5 1.3-1 1.5 3.5 1.5 3.4 3.2 2 .8-.7 1.5-2 1.5-3s.7-2.1 1.6-2.4c1.3-.5 1.5-1.6.9-6.1-.5-4.6-.4-5.5.9-5.5.9 0 1.6-.5 1.6-1 0-.6.5-1 1-1 .6 0 1 2.8 1 6.4 0 6.2 1.2 9.2 2.4 6.1.3-.8 1.2-1.5 2.1-1.5 1.1 0 1.4-.7 1.1-2.3-1.1-5-1.4-13.7-.5-13.7.5 0 .9 2.9.9 6.5 0 4.5.4 6.5 1.3 6.5.8 0 1.2-1.9 1.1-6.7l-.2-6.8.7 5.5c.4 3.5 1.1 5.5 1.9 5.4 4-.3 4-.4 3.5-4.7-.3-2.3-1-4.7-1.5-5.3-.5-.8-.1-1.4 1.4-1.8 3.6-.9 3.8-.8 3.7 2.6-.1 2.4-.3 2.7-.6 1-.7-3.7-2.3-2.5-2.3 1.8 0 7.4 3.9 3.1 4.1-4.5.1-4.7.2-4.8.9-1.7 1.4 5.8 2.2 4.9 1.9-2.1-.1-3.7.1-7 .4-7.4.4-.3.7 1.9.7 5 0 3.2.5 5.7 1 5.7.6 0 1-.7 1-1.6 0-.8.5-1.2 1.1-.8.8.5 1-3 .7-12.2-.3-11.8-.2-13.1 1.6-14.7 2.8-2.5 3.5-2.1 3 2-.3 2.1-.1 5.8.5 8.3.9 4.1.9 3.7.9-4.3-.1-5.9.3-9.2 1.2-10 1-1 1.1-.7.5 1.1-.4 1.3-.3 4 .1 6 .8 3.5.9 3.4 1.4-2.8.4-5 .9-6.6 2.2-6.8 1.3-.3 1.8.6 2.1 4l.4 4.3.1-4.7c.2-3.5.7-5 2.1-5.8 2.8-1.4 2.9-1.3 2.4 1.7-.4 2.5-.3 2.6.7 1 .7-1 1-2.7.7-3.8-.3-1-.1-2.1.3-2.4.8-.5 1.9 27.7 1.2 30.2-.2.7-1.2 1.5-2.2 1.8-.9.3-2.2 2-2.8 3.8l-1 3.2-.3-3.5c-.1-1.9-.3-4.7-.4-6.3-.1-1.5-.6-3.1-1-3.5-.4-.4-.5 4.1-.2 10 .3 6.3.2 11-.4 11.3-.5.4-.9-2.1-.9-5.9 0-3.7-.4-6.6-1-6.6-1.4 0-1.3 13.3.1 14.7.9.9.9 2-.1 4.3-.7 1.6-1.3 5.8-1.4 9.3-.1 5.1-.9 7.8-4.3 14.8-2.8 5.5-4 9.3-3.6 10.7.7 2.7 2.3 2.9 2.3.2 0-2.8 3-10 4.2-10 .5 0 .8 3.7.7 9-.2 4.9.1 9.3.5 9.7.4.4.6-4.5.5-10.9-.1-6.5.1-12.1.4-12.5.4-.3.7 2.4.7 6 0 4.4.4 6.7 1.1 6.7.9 0 1-3.8.6-13.8-.3-7.5-.2-14.6.3-15.7.6-1.3.9 2.4.9 10.7.1 8.7.5 12.8 1.2 12.8.8 0 1-4.6.8-15.5-.2-8.5-.1-15.5.3-15.5.7 0 1.3 19.3.9 24.2-.1.9.3 1.9 1 2.3.8.6 1-3.2.5-15.1-.8-20.1-.8-20.8.3-23.6.7-1.6 1 2.7 1 13.4.1 9.8.5 15.8 1.1 15.8.6 0 1-.5 1-1.1 0-.5.4-.8.9-.4 1.8 1 2.3-6.3 1.7-22-.5-10.5-.3-15.5.4-15.5.6 0 1 4.8 1 13.5 0 8.6.4 13.5 1 13.5.7 0 .9-5.4.6-16.3-.3-9.6-.2-16.8.4-17.7.7-1 1 1.9 1.1 9 0 8.2.3 9.8 1 7.5.5-1.7.9-8.6.8-15.5-.1-15.2-.1-15 1.1-15 .6 0 1 5 1 13 0 7.1.3 13 .8 13 .4 0 .6-6.5.5-14.5-.2-8.6.1-14.6.7-15 .6-.4 1 4.9 1 14.6 0 8.4.3 14.9.6 14.6 1-1 1.4-28.5.5-31-1-2.6-.3-8.7 1-8.7.5 0 .9 4.8.9 10.7 0 6 .5 11.5 1.1 12.3.7 1.1.9-2.6.6-12.8-.2-7.8 0-14.2.5-14.2.4 0 .8 3.7.9 8.2.1 4.6.5 10.8.9 13.8.6 3.9.7 1.4.5-8.5-.2-7.7-.6-15.3-.9-16.9-.5-3.1.1-5.6 1.5-5.6.5 0 .9 3.5 1 7.7 0 4.3.4 9.8.9 12.3.6 3 .7 0 .3-9-.4-11.5-.3-13.2.9-12.2 1.1.8 1.3 2.8 1 7.2-.3 3.9-.1 6 .6 6s.9-1.8.5-5.1c-.5-4.2-.3-5.1.8-4.7 1 .3 1.3 1.8 1.1 4.9-.1 2.4.2 5.7.8 7.4.8 2.5.9 1.9.6-3.5-.4-5.8-.3-6.3 1-4.6.8 1.1 1.4 2.6 1.4 3.3 0 1.5.5 1.6 4.7.4 1.8-.5 3.5-.6 3.7-.3.2.4.7 4.3 1.1 8.7.3 4.3 1 8.6 1.5 9.5 1.2 1.9 1.2-1.8.1-11.5-.7-6.5-.3-8.4 1.9-8.5 1.8 0 3 5.4 3.5 15.1.3 8.8.8 11.6 2.1 12.8 1.5 1.5 1.6 1.4 1-.9-.3-1.4-.9-6-1.3-10.3l-.6-7.8 3.7 2.5c2 1.3 4 2.6 4.5 2.8.5.2 1.1 4.9 1.3 10.5.4 8.6.3 10-.8 8.5-1.2-1.5-1.3-1.2-1.4 2.5 0 4.1 1.3 5.7 2.3 3 .3-.6.6.5.6 2.5.1 2.1.6 3.8 1.2 3.8.7 0 .9-1.6.5-4.8-1.4-11.5-1.8-22.2-.9-22.2.6 0 1.3 7 1.7 16.2.4 9.6 1.1 16.6 1.7 17.3.8.7 1-1.1.5-6.5-.3-4.1-.8-11.4-1.2-16.3l-.6-8.7 2.7 1.4c2.7 1.4 2.7 1.6 3.1 13.3.2 6.5.8 13.1 1.3 14.8.7 2.1.8-.6.5-9-.3-6.6-.7-12.6-.9-13.3-.3-.6.1-1.2.7-1.2s1.7-.8 2.4-1.8c1.2-1.5 1.4-.7 1.4 5.3.1 3.8.6 7.9 1.1 9 .9 2 .3-14.1-.7-17.6-.7-2.4 2.4-3.1 5.4-1.3 1.9 1.1 2.7 2.4 2.9 4.7.9 17.5 1.7 24.8 2.6 25.4.7.4.8-1.4.3-5.8-1.6-15.3-1.9-22.9-.7-22.9.7 0 1.1 2.3 1.1 6.7 0 9.3 1.1 17.3 2.3 17.3.6 0 .7-1.5.3-3.7-1.2-6.9-1.9-22.3-1-22.3.5 0 1 3.9 1.2 8.7.2 4.8.7 9.4 1.2 10.3.5.9.6-3 .3-9.3-.4-7.7-.3-10.7.5-10.7s1.2 3.1 1.2 10c0 5.9.4 10 1 10s.7-2.8.3-7.7c-.5-5.6-.3-7.4.5-6.9s1.2 4.2 1.2 10.6c0 5.5.4 10.2 1 10.5.6.4.8-3.7.5-11.7-.5-13.3 0-14 1-1.4.5 5.2 1 7.4 1.6 6.5.5-.8.7-3.2.4-5.4-1.5-13.3-1.6-15.5-.6-15.5.7 0 1.1 2.5 1.2 6.2 0 3.5.5 7.2 1 8.3.6 1.4.8-.8.5-6.8-.3-4.8-.1-8.7.4-8.7s1 2.6 1.2 5.7c.3 4.4.6 5.3 1.2 3.9.6-1.2.5-3.9-.1-6.8-.8-4.2-.7-5.3.8-7.1 2.6-3.2 3.8-1.3 4.4 7.2.3 4.1 1 8.1 1.5 9 .6 1 .7-1 .3-5.5-.4-4.9-.2-7.3.6-7.8 2.7-1.7 3.8 1.5 4.5 12.7.4 6.1 1.1 11.6 1.7 12.1 1.2 1.3 1.2-2.2-.1-9.9-.5-3.4-.6-6.3-.1-6.8s1.2 2.3 1.6 6.5c.4 4 1.2 8.2 1.6 9.3 1.3 2.8.1-11-1.3-15.3-.7-2.4-.7-3.7 0-4.4 1.3-1.3 1.7.1 3.3 14.4.6 6 1.6 10.8 2.1 10.8s.7-1.5.4-3.3c-1.3-7.5-2.6-19-2.5-21.5.1-2.5.2-2.5.9.5.4 1.8 1.5 9.6 2.5 17.3 1 7.7 2.2 14 2.7 14s.7-.8.4-1.8c-1.1-3.7-4.7-35.3-4.1-36 .1-.1 1.6 1 3.4 2.5 2 1.8 3.1 3.7 3.1 5.4 0 1.4.4 3.9.9 5.5s1.2 4.6 1.6 6.7c.3 2 1.9 5.2 3.4 7 2.5 2.9 2.9 4.2 3.5 13.2.8 12.5 2.5 23.7 3.7 24.9 1.3 1.4 1.1-1.4-.7-13.5-2.3-15.4-2.6-20.9-1-20.9.8 0 1.7.7 2 1.6.9 2.2.8 2.6-.6 1.8-.8-.5-1 .7-.5 4.7 2.5 23.4 3.2 27.9 4.2 27.9.8 0 .7-2.4-.2-8.3-2.2-13.7-2.7-23.4-1.4-22.1.7.7 1.4 5 1.6 10.5.4 8.9 2.9 25.6 4 26.7.8.8.6-2.2-1.1-15-.8-6.5-1.3-12.9-1.1-14.1.3-1.4.5-.9.6 1.3.2 6.1 2 10.5 5.1 12.8 2 1.5 3 3.1 3 4.8 0 1.4.5 3.4 1 4.4.6 1.2.7 2.1 0 2.5-.5.3-1.2-1.6-1.6-4.5-.8-6.4-2.5-6.6-1.8-.3.5 4.5.8 6.8 3.3 21.8.5 3.3 1.3 8.6 1.7 11.8.3 3.1 1.1 5.7 1.6 5.7s.7-1.2.4-2.8c-.3-1.5-1.2-7.9-2.1-14.2-.9-6.3-1.9-12.3-2.2-13.4-.3-1.1-.1-1.6.5-1.2.5.3 1.2 2.5 1.5 4.8.4 2.4.9 5.9 1.1 7.8 2 13.7 3 19.6 3.8 20.4 1.1 1.4 1.1 1.1-1.7-16.8-1.4-8.8-2.5-16.7-2.5-17.5 0-3.1 2 1.2 2 4.4 0 1.6.7 3.8 1.5 4.8.8 1.2 1.1 3.1.8 5.3-.3 1.9 0 6.7.7 10.7l1.2 7.3h3.4c3.3 0 3.4-.1 3.5-4l.1-4.1.8 4.5c.4 2.5 1.3 8.5 1.9 13.5 1.8 14.2 2.2 16 3 14.7.4-.7.2-4.5-.5-8.5-.6-3.9-1.4-10.6-1.7-14.7-.6-7.3-.5-7.4.8-3.5.7 2.2 1.4 5.8 1.4 8 .2 6.4 3 23.8 4.1 24.9.7.7 1.7.7 3-.1 1.6-1.1 2-.9 2.5.8 1.1 3.3 1.2 1.8.6-4.8-.4-3.5-.3-6.3.1-6.3s.8 1.5.8 3.2c0 1.8.5 4 1 4.8.8 1.2 1 .9 1-1.3 0-1.5.2-2.7.4-2.7 1.3 0 6.6 5.9 5.8 6.4-1.2.7-.3 9.7 1 11.1.7.7.9-.9.5-4.7-.3-3.2-.2-6 .3-6.3 2.5-1.5 5.1 7.8 5.5 19.5.4 10.1 1.3 16 2.7 16 .6 0 .8-1 .5-2.3-.3-1.2-.9-5.8-1.3-10.2-.5-6-.4-7.7.5-6.9.7.6 1.4 5.2 1.6 10.4.3 5.2 1 9.9 1.6 10.4.8.8 1-.5.5-4.9-.4-3.3-1-6.9-1.3-8-.5-1.9-.5-1.9 1.5-.2 1.5 1.4 1.9 2.7 1.6 5.5-.3 2 .2 6.2 1 9.2l1.5 5.5-.5-6c-.3-3.3-.7-7-1-8.3-.6-3 1-2.8 3.5.4 1.7 2.1 2.1 4.1 2.1 9.5 0 4 .5 7.1 1.2 7.5.8.5.9-.5.5-3.4-.3-2.4-.1-4 .4-3.6.5.3.9 1.2.9 2s.5 1.4 1 1.4c1.4 0 1.2-2.5-.5-6.7-.8-1.9-1.5-4.3-1.5-5.3s-2-3.9-4.4-6.5c-2.4-2.5-4.7-5.8-5.1-7.2-.3-1.5-1.4-3.8-2.4-5.2-1.8-2.6-3.6-7.3-4.6-12.4-.3-1.7-1.7-3.5-3.5-4.5-1.9-1.1-3.5-3.1-4.3-5.7-.8-2.3-2.4-4.5-3.7-5.2-1.3-.6-3.2-2.8-4.2-4.7-1-2-2.4-3.6-3.1-3.6-1.9 0-5.7-7.6-5.7-11.5 0-2.9-.5-3.9-2.9-5.3-1.7-.9-3.2-2.5-3.4-3.4-.3-1-1.9-2.6-3.6-3.5-2.4-1.4-3-2.4-2.9-4.9.1-1.7-.6-4.2-1.5-5.5-1-1.3-1.7-3.3-1.7-4.4 0-1.1-.8-3.7-1.9-5.7-1-2-2.1-5.1-2.5-6.9-.7-3.6-3.2-6.9-5.3-6.9-.7 0-1.3-.8-1.3-1.8 0-1.5-1.9-7.4-6.3-20-.7-1.7-1.8-3.2-2.4-3.2-.9 0-1.3-2-1.3-6.8.1-5.2.3-6.3 1.1-4.9.6 1 .9 3.8.7 6.3-.2 2.4 0 4.4.4 4.4.5 0 .8-3.4.8-7.5V202h3.4c1.9 0 4.1.3 5 .6 1.8.7 2.2 5.4.5 5.4-.6 0-.9-.9-.6-2 .3-1.1.1-2-.4-2s-.9 4.1-.9 9.1c0 5.1.4 8.8.9 8.5.5-.3.8-3.2.6-6.4-.1-3.1-.1-4.5.2-2.9.8 5 2.3 1.7 2.5-5.6.1-6.1.2-6.4.5-2 .4 4.4.7 5.2 2.8 5.7 1.4.4 2.5 1.1 2.5 1.7 0 .6.4.8.9.4 1.2-.7 1.2-21.5 0-21.5-.4 0-1 4.4-1.2 9.7l-.3 9.8-.2-9.5c-.2-8.5 0-9.8 2.1-12.2 1.2-1.6 3.6-3.1 5.4-3.4 3.1-.6 3.3-.5 3.9 3.4.4 2.9 1 3.9 2 3.5.9-.3 1.4.2 1.5 1.3.2 5.5 1.2 12.1 2 13.4.7 1.1.9.5.5-2-.3-1.9-1-7.8-1.7-13-1.3-10.3-3.2-14.8-2.4-5.9l.5 5.4-1.3-4.5c-1.1-3.8-1-4.9.1-6.7.8-1.3 1.8-2.1 2.2-1.8.4.2.5-.7.2-2-.2-1.4 0-2.5.6-2.5 1.1 0 1.3.5 3.2 7.7.6 2.4 2.2 5.2 3.8 6.5 2.5 2.1 2.8 3.2 4 14.3.7 6.6 1.5 13.6 1.8 15.5.4 2.6.3 3.1-.5 2-.9-1.2-1.1-1.1-1.1.7 0 1.4.6 2.3 1.5 2.3.8 0 1.5.9 1.5 2s.5 2 1.1 2c.6 0 .8-.7.5-1.5-1-2.7-4.6-26.9-4.6-30.7.1-4.6 2 .8 2.5 6.9.6 8.8 3.7 25.3 4.7 25.3.4 0 .6-1 .4-2.3-.3-1.2-1.2-6.3-2.1-11.2-.9-5-1.8-9.6-2-10.3-.3-.6-.1-1.2.4-1.2 1.1 0 2.7 6.6 4.1 17.5.6 4.9 1.3 9.2 1.6 9.4 1.1 1.1 1-1-.1-9.4-1.2-8.2-1.2-10.6-.1-9.4.8.8 3.6 29 3 30-.9 1.5.6 12 1.6 11.4.4-.3 1.1.7 1.4 2.1.5 1.9.2 3-1.1 3.9-1.7 1.3-1.7 1.4 0 2.1 1.5.5 1.8 1.6 1.5 5.2-.2 3.6 0 4.5 1.5 4.8 1.4.2 1.7-.6 1.7-4.9 0-2.7.3-4.7.8-4.3.4.4.9 7.1 1.3 14.9.5 13.8.5 13.7.7-7.1.1-13.3.6-21.2 1.2-21.2s1 1 1 2.1c0 1.2.9 3.6 1.9 5.3 1.4 2.2 1.7 3.6 1.1 4.6-.6.8-.9 7.1-.8 14 .2 11.5.2 11.9.7 4.5.4-5.4.9-7.5 1.5-6.6.5.8.9 3.4.7 5.8-.1 3.1.4 5.1 2.1 7.4 2.1 2.8 2.3 4 2 11.9-.3 6 0 9 .8 9.5.9.5 1.1-.5.9-3.6-.4-6.6 0-12.3.8-11.5.4.4.6 8.1.4 17.3-.2 11.7 0 16.3.8 15.9.7-.5 1-5.3.9-14.2-.2-7.4 0-13.4.5-13.4.8 0 .8-1.4.9 18l.1 15.5.6-14.2c.3-7.8.9-14.4 1.2-14.8 1.1-1 1.9 6.7.8 8.6-.5 1-.7 5.3-.5 9.6.3 4.3.5 9.5.5 11.5.1 2.1.6 3.8 1.1 3.8.7 0 .9-3.8.5-11.3-.4-8-.2-10.5.5-8.8.6 1.3 1.9 3.6 3 5.1 1.1 1.5 2 3.6 2 4.6 0 .9.6 2.5 1.4 3.3 1 1.2 1.1 3 .6 6.6-.6 3.8-.8 4.3-1 2-.1-1.7-.2-3.7-.1-4.7.1-.9-.3-1.9-.9-2.3-.6-.4-1 1.8-1 6.4 0 4.4.4 7.1 1.1 7.1 1.7 0 3.9 2.7 3.9 4.9 0 1.1.5 2.3 1 2.6.6.4 1-1.8 1-5.9 0-3.6.4-6.6.8-6.6.5 0 1.9 1.1 3.1 2.4 2 2.2 2.1 2.8 1.1 6.6-.6 2.3-.9 4.8-.6 5.6.3.8.1 1.4-.4 1.4-.6 0-1-3-1-6.7 0-4.8-.3-6.4-1.1-5.6-1.2 1.2-.1 15.3 1.2 15.3.5 0 .9 1.1.9 2.5 0 3.9 1.8 2.9 2.2-1.2l.4-3.8 1.7 5.7c1.2 3.8 2.4 5.8 3.4 5.8s1.3-.5.8-1.8c-3.4-8.4-4.4-12.6-3.8-17.2.5-4.3.2-5.3-2.1-8-1.4-1.7-2.6-4.1-2.6-5.2 0-1.1-1.6-3.8-3.5-6.1-1.9-2.2-3.5-4.7-3.5-5.6 0-.8-.7-2.3-1.6-3.2-.9-1-2.7-5.9-3.9-10.9-1.3-4.9-3.3-10.2-4.4-11.6-1.2-1.5-2.1-3.4-2.1-4.4 0-.9-1.5-3.4-3.4-5.6-3.5-4.2-3.9-5.9-4.9-22.4-.2-3.2-1.2-7.3-2.6-9.9-2.1-3.9-2.1-4.5-.7-5.3.9-.5 1.6-1.7 1.6-2.6 0-1 .6-2.4 1.3-3 .8-.9 1.3-5.5 1.6-13.2.3-12.8 2.1-16.8 2.1-4.8 0 9.4.9 8.3 1.2-1.5.1-4.2.6-7.7 1.1-7.7.6 0 .8 2.8.5 6.9-.3 3.8-.1 7.5.3 8.3.6.9.9.3 1-1.7.2-7.8 1-15 1.7-15.7.4-.4.6 4 .4 9.7-.3 5.8 0 10.5.4 10.5.5 0 1-5.1 1.2-11.3.2-6.1.8-11.7 1.4-12.2.7-.7.8.7.4 4.5-.5 4.6-.9 18.4-.7 21.4.1.5.7.3 1.5-.3 1.1-.9 1.2-.7.9 1.3-.3 1.3-.1 2.6.5 3 .6.3 1.2-5 1.7-14 .4-8 1.1-15.8 1.6-17.2.5-1.6.5 1.5.1 7.3-1 14.4-.9 25.5.3 25.2.6-.1 1-3.5 1-7.7 0-18.9.6-29 1.5-29 .7 0 .9 2.1.4 6.2-.4 4.4-.3 6 .4 5.3.6-.6 1.3-4.4 1.6-8.5.9-13.7 1.6-17.1 3.5-16.8 1.4.3 1.6 1.7 1.2 10.3-.1 5.5-.7 10.7-1.1 11.5-.9 1.6-.3-16.3.6-19 .4-1 .2-1.2-.5-.5-1.2 1.2-3.5 21.1-2.6 22.5.4.7 1.3.7 2.5 0 1.9-1 2.6-4.6 3.4-18 .3-5.1.7-6.6 2.1-6.8 1.3-.3 1.5 0 .7 1.5-1.3 2.5-2.2 15.2-1.1 15.9.5.3.9-1.4.9-3.8 0-6 1.1-11.9 2.1-11.3.4.3.6 2 .4 3.8-1.3 10.7-1.4 12.8-.5 12.2.6-.3 1-3.6 1-7.1 0-4.8.3-6.4 1.3-6.1.6.2 1 1.1.7 1.8-.2.8-.5 4.5-.6 8.4-.2 6.1-.1 6.5.6 3 .5-2.2.9-5.5.9-7.3.1-1.7.5-3.2 1.1-3.2.6 0 .8 2.5.5 6.2l-.5 6.3 1.4-4 1.4-4 .1 4.5c.2 7 2.1 2.7 2.1-4.7 0-3.4.4-6.4.9-6.8.6-.3.7 3 .4 8.5-.3 5.1-.2 9 .3 9s1-3.5 1.2-7.8c.2-8.6 1-13.2 2.1-13.2.4 0 .4 2.6 0 5.7-.4 3.2-.7 8.7-.7 12.3 0 6.4.1 6.4.9 2 .4-2.5.8-7.5.8-11.2.1-3.7.5-7 1.1-7.3.6-.4.7 3.9.3 12.1-.5 9.5-.3 12.5.5 12 .8-.4 1.2-3.8 1.2-8.9 0-8.8.9-15.7 1.9-15.7.4 0 .3 3.5-.1 7.7-1 11.2-.9 13.5.2 12.8.6-.3 1-2.7 1-5.3 0-2.6.3-7.1.6-10 .6-4.2 1-5.2 2.5-5.2 1.7 0 1.9.9 2 7.2l.1 7.3.9-6c1.2-8.2 1.7-9 1.8-2.8.1 2.9.6 5.3 1.1 5.3.6 0 1-2.6 1-5.9 0-3.3.5-6.3 1-6.6.8-.5.9 2.2.4 8.4-.4 6.4-.3 9.1.5 9.1.7 0 1.1-3 1.1-8.8 0-4.8.5-9.4 1.1-10.2.7-1 .8 2.1.3 10.5-.4 8.3-.3 11.7.4 11 .6-.6 1.2-5.8 1.4-11.7.3-9.7.8-12.3 2.1-10.1.2.5.1 4.4-.4 8.8-.5 4.8-.4 8.4.2 8.9.5.6.9-.9.9-4.1 0-5.7.9-11.3 1.9-11.3.3 0 .5 2.8.4 6.2l-.1 6.3 1.1-7.5 1.2-7.5.6 6 .6 6 .2-5c.1-2.8.7-5.9 1.2-7 .6-1.3.7.8.4 6.5-.3 6.3-.2 7.6.5 5 .5-1.9 1-6.1 1.1-9.3.1-3.2.6-6 1.1-6.3.5-.3.7 4.1.4 10.3l-.5 10.8 1.6-12.3c.9-6.7 2.1-12.2 2.6-12.2s.6.8.3 1.7c-.4.9-.9 6.9-1.1 13.3-.4 11.3-.4 11.4.6 3.5 1.8-14.9 2-16.5 2.7-16.5.4 0 .4 3.5 0 7.7-.3 4.3-.6 10.3-.6 13.3v5.5l.8-5c.4-2.8 1-8.5 1.4-12.8.4-4.2 1.2-7.7 1.8-7.7.6 0 .8 1 .4 2.2-.3 1.3-.8 7.2-1.1 13.3l-.4 11 1.4-10c.8-5.5 1.4-11.9 1.4-14.3.1-2.4.6-4.2 1.2-4.2 1.2 0 .9 5.9-.7 15.4-.5 2.6-.4 3.7.3 3.3.6-.4 1.4-4 1.8-8.2 1-11 2.6-15 2-5-.6 9.8 1 7.2 2.1-3.4.3-3.9 1.1-7.4 1.6-7.7.9-.6.3 10.8-.8 14.8-.3.9-.1 1.9.4 2.2.5.3 1.4-4.4 2.2-10.5.7-6 1.7-11.2 2.3-11.6.6-.4.8.7.4 2.8-.3 1.9-.9 6.1-1.2 9.4-1.1 11.8-1.6 14.5-2.6 14-1.5-1-1 1.1.5 2.4 2 1.7 2.3.8 3.1-9.8.4-5.2 1-11.6 1.4-14.2.5-3.1.4-5.2-.3-5.9-.8-.8-.7-1.3.4-2 1.9-1.3 3-1.2 3 0 0 .5.7 1 1.6 1 1 0 1.4.6 1.1 1.5-.4.8-.9 4.9-1.2 9.2-.7 9.4.9 7 1.9-2.9.4-3.7 1.2-7.1 1.8-7.4.6-.4.7 1.4.3 5.2-.5 4.3-.4 5.6.4 4.9.6-.6 1.2-3.6 1.3-6.8.1-3.1.6-5.7 1.2-5.7.5 0 .6 2.7.3 6.5-.4 3.6-.2 6.5.2 6.5.5 0 1.2-4.3 1.6-9.5.4-5.3 1.2-9.5 1.8-9.5.9 0 .8 2.9-.9 16.2-.4 2.9-.3 4.8.3 4.8 1.1 0 1.8-5 2.9-19.3.4-4.8 1.1-8.7 1.6-8.7.9 0 .2 13.3-1.2 22.5-1.2 7.4-1.2 9.5-.2 9.5.7 0 4.2-27.6 4.2-32.8 0-.7.4-1.1.9-.7.5.3.8 2 .6 3.8-.2 1.7-.9 7.7-1.5 13.2-.6 5.5-1.3 11.5-1.6 13.2-.3 1.8-.1 3.3.4 3.3 1.2 0 2-4.7 3.3-21.2 1.2-15.4 3.2-24.8 2.4-11.3-1.3 21.9-1.4 26-.6 22 .5-2.2 1.2-8.1 1.6-13 .4-5 1.1-9.9 1.6-11 .6-1.4.8-.4.4 3-1.5 16.9-1.7 20-.7 19 .6-.6 1.7-7.9 2.3-16.3.7-8.3 1.7-15.2 2.2-15.2.5 0 .7 1.7.4 3.7-.3 2.1-.9 8.3-1.2 13.8-.7 11.9.9 11.1 1.9-1 1.5-17.7 1.3-17.3 5.8-17.7l4.1-.4-.7 9.6c-.4 6-.2 8.9.4 7.9.5-.8 1.1-5.4 1.3-10.2.2-4.8.7-9.1 1.2-9.5.4-.4.5 5.8.2 13.8-.6 16.2.6 13.2 1.8-4.3.4-5.9 1.2-11 1.8-11.4.7-.4.8.7.4 3.3-.4 2.1-.9 9.7-1.2 16.9-.7 15.6.9 14.1 1.9-1.9.9-14.4 1.7-19.6 2.9-19.6.5 0 .7 1.2.3 2.7-1.2 5.9-2.7 30.6-1.8 31.5.6.6 1.2-3.9 1.7-11.5 1-18.3 2.3-21.6 1.7-4.3-.4 11.1-.2 14.7.7 14.2.6-.4 1.1-3.2 1.1-6.5 0-7 1-15.1 1.9-15.1.4 0 .5 1.7.4 3.7-.7 10.6-.8 22.3-.3 22.3.4 0 1-5.3 1.3-11.7.4-6.4 1.1-12.1 1.7-12.7.7-.7.8 1.1.5 5.5-.2 3.5-.7 10.2-1.1 14.9-.4 6.2-.3 8.2.5 7.4.6-.6 1.4-5.4 1.8-10.7.7-11.8 2.4-11.9 1.9-.1-.2 4.6 0 8.7.5 9 .5.3.9-2.3 1-5.8 0-3.5.4-7.2.9-8.3 1.1-2.5 1.1-2.1 1.2 9 0 9.7 1.5 7.7 1.7-2.3 0-2.9.6-5.2 1.1-5.2.8 0 .9 3.3.4 10.1-.5 7.4-.3 10 .5 9.5.6-.4 1.1-3.8 1.1-8.4 0-7.2 1.1-11.5 2.3-9.5.3.4.1 4.2-.3 8.3-1.2 10.2-1.2 14.2 0 13.5.6-.3 1-3.9 1-8s.4-7.6.9-8c1.4-.8 1.8 2.5.9 6.5-1.1 5.2-1 14.9.2 13 .5-.8 1-4.5 1-8.2 0-4.1.4-6.8 1.2-7 .8-.3.7-1.8-.5-5.3-1-2.7-1.7-5.7-1.7-6.7 0-1.1-1.9-2.7-5.7-4.6-4.9-2.4-5.8-3.3-7-6.9-.8-2.3-2.2-4.5-3.1-4.8-.9-.3-3.5-3.5-5.7-7.2s-4.5-6.8-5.1-7c-.5-.2-1.9.5-2.9 1.4-4.1 3.7-7.4 5.2-13.1 5.8-6.4.6-7.6.1-10.7-4.7-.9-1.5-2.3-2.5-3-2.2-.8.3-2.1-1.4-3.4-4.6-1.8-4.2-2.8-5.3-6.6-6.9-3.4-1.5-5.4-3.4-9.1-8.8-2.5-3.7-5.7-8.2-7.1-9.9-1.4-1.7-3.6-5.7-4.9-9-2.4-5.9-2.9-6.3-9.8-7.8-1.5-.3-3.3-1.2-4-1.9-2.7-2.6-13.5-10.5-19.3-14-18.3-11.1-42.9-15.6-63.1-11.3-7.6 1.5-23.1 8.3-25.3 10.9-2.2 2.8-4.6 2-7-2.3-1.2-2.2-2.6-4-3-4-.4 0-2.2 1.8-4 4-1.7 2.2-3.6 4-4.1 4-.6 0-1-1.6-1-3.5 0-3.6-2-5.5-5.8-5.5-1.1 0-3.1-1-4.6-2.1l-2.7-2.1-4.5 3.2c-3.5 2.5-5 3-7.4 2.5-1.7-.4-3-1.1-3-1.6s-1.6-1.7-3.5-2.6c-2-1-3.5-2.4-3.5-3.4 0-3-1.2-4.9-3.1-4.9-1 0-2.9-1-4.1-2.3-1.3-1.3-3.7-2.8-5.3-3.4-3.1-1.1-10.9-8.2-11.9-10.8-.3-.8-1.6-1.5-2.9-1.5-1.7 0-3.9-1.7-7.3-5.7-2.7-3.1-5.4-6.2-6.1-6.9-.7-.6-4.6-1.5-8.7-1.9-4.2-.4-7.8-1.1-8.2-1.6-.3-.5-1.4-.9-2.5-.9-2.1 0-2.5-1-.8-2.7 1.4-1.4.3-3.3-1.8-3.3-1.2 0-1.4.7-1 2.9.8 3.8-1.6 4.5-6.9 1.9-5.2-2.5-6-3.4-4.4-5.3.9-1.1 1-1.9.2-2.7-1.5-1.5-3.5.1-2.9 2.3.9 3.4-2.3 2.1-7.3-2.9-4.2-4.2-5.3-4.8-9.4-5-3.3-.1-4.8.3-5.2 1.3zm2.6 2c0 .8-.7 1.5-1.6 1.5-1.4 0-1.4-.3-.4-1.5.7-.8 1.4-1.5 1.6-1.5.2 0 .4.7.4 1.5zm2.9 4.2c-.1 6.2-.6 5.6-1.1-1.5-.2-2.3 0-4.2.4-4.2.5 0 .7 2.6.7 5.7zm3.3 7.8c.3 4.9.2 8.1-.2 7-.4-1.1-.9-6-1.2-10.9-.3-4.9-.1-8.1.2-7 .4 1 1 5.9 1.2 10.9zm9.8-2.2c0 1-.4 1.5-1 1.2-.5-.3-1-.1-1 .5s-.4.8-1 .5c-.5-.3-1-1.7-1-3s-1.1-3.2-2.5-4.3c-1.4-1.1-2.5-2.5-2.5-3.2 0-1.9 8.9 6.3 9 8.3zm-20-7.3c0 1.3-1.1 1.3-3 0-1.2-.8-1.1-1 .8-1 1.2 0 2.2.4 2.2 1zm-5.2 3.2c-1.9 1.9-2 2.2-.5 3.3 1 .7 1.7 2.5 1.6 4.1 0 1.6-.3 2.3-.6 1.6-.2-.6-.9-1-1.4-.6-.5.3-.9-.4-.9-1.5 0-1.2-.7-2.1-1.5-2.1s-1.5-.7-1.5-1.6c0-.8-.4-1.3-.9-.9-.5.3-1.2.1-1.5-.4-.3-.5 1.1-1.6 3.2-2.4 5.2-2.2 6.6-2.1 4 .5zm6.5 4.6c.9 2.1 1.7 4.4 1.7 5 0 1.9-2.8.2-3.3-2-.3-1.1-1-1.7-1.6-1.3-.7.4-1.1-.5-1.1-2.4 0-4.3 2.3-3.9 4.3.7zm3.4-.6c-.3.7-.5.2-.5-1.2s.2-1.9.5-1.3c.2.7.2 1.9 0 2.5zm10 1c-.3.7-.5.2-.5-1.2s.2-1.9.5-1.3c.2.7.2 1.9 0 2.5zm-29.2-.2c-1 1.1-2 1.8-2.3 1.5-.7-.6 1.8-3.5 3.1-3.5.5 0 .2.9-.8 2zm41.5 1.1c0 1.2-1.7 1.1-2.5-.2-.4-.6-1.3-.8-2.1-.5-.8.3-1.4-.1-1.4-.9 0-1.1.6-1.2 3-.4 1.7.6 3 1.5 3 2zm-14 1.9c0 .5-.2 1-.4 1-.3 0-.8-.5-1.1-1-.3-.6-.1-1 .4-1 .6 0 1.1.4 1.1 1zm6.7 3.7c-.3 1-.5.2-.5-1.7s.2-2.7.5-1.8c.2 1 .2 2.6 0 3.5zm13.4-3.7c2.4 1.3 2.5 3.9.2 5.6-2.7 2-3.3 1.7-3.3-1.6 0-1.7-.4-3-1-3-.5 0-1-.5-1-1 0-1.3 2.6-1.3 5.1 0zm-59.2 4.5c0 .5-.4.3-.9-.5s-.9-2.2-.9-3c0-1.6 1.7 1.6 1.8 3.5zm12.8-3.9c-.3.3-1.2.4-1.9.1-.8-.3-.5-.6.6-.6 1.1-.1 1.7.2 1.3.5zm21 2.6c-.3.7-.5.2-.5-1.2s.2-1.9.5-1.3c.2.7.2 1.9 0 2.5zm37.2-.5c.2.2-.5.3-1.7.3-1.4 0-2.2-.6-2.2-1.6 0-1.4.3-1.5 1.8-.3.9.7 1.9 1.5 2.1 1.6zm-55 3.3-.1 2.5-.8-2.5c-.4-1.4-.8-3.2-.9-4-.1-1.3 0-1.3.9 0 .5.8.9 2.6.9 4zm1.8-1.3c-.3 1-.5.4-.5-1.2 0-1.7.2-2.4.5-1.8.2.7.2 2.1 0 3zm26.1 1.4c-.3 3.3-.4 3.3-.8-.8-.3-2.3-.2-3.9.3-3.4s.7 2.4.5 4.2zm-31.8-2.4c1.1 1 2 2.8 2 4 0 1.8-.6 2.3-2.7 2.3-1.9 0-2.4-.3-1.5-.9 1.1-.7 1.1-.9-.2-1.4-1.7-.7-2.2-5.7-.6-5.7.5 0 1.9.8 3 1.7zm53-1.3c0 .2-.7.6-1.5 1-.8.3-1.5.1-1.5-.4 0-.6.7-1 1.5-1s1.5.2 1.5.4zm11 1.5c0 1-.7 2.2-1.6 2.5-.8.3-1.3.2-.9-.3.3-.5 0-1.1-.7-1.3-1.5-.5-.1-2.8 1.8-2.8.8 0 1.4.9 1.4 1.9zm-69.3 3.8c-.3 1-.5.2-.5-1.7s.2-2.7.5-1.8c.2 1 .2 2.6 0 3.5zm42.3-2c0 2.1-.3 2.4-.9 1.4-.5-.8-.7-2-.4-2.8.8-2.1 1.3-1.5 1.3 1.4zm3.7 1c-.3 1-.5.4-.5-1.2 0-1.7.2-2.4.5-1.8.2.7.2 2.1 0 3zm33.1-2.5c1.7 1.7 1.5 3.8-.3 3.8-.8 0-1.5-.9-1.5-2.1 0-1.1-.4-1.7-1-1.4-.5.3-1 .1-1-.4 0-1.5 2.3-1.4 3.8.1zm-88 3.4c-.3 1.4-.5 1.2-1-.9-.3-1.9-.2-2.5.4-1.9.6.6.8 1.8.6 2.8zm6.9-1c-.9.9-2.8-.6-2.1-1.8.4-.6 1-.6 1.7.1.6.6.8 1.3.4 1.7zm22-2c-.3.3-1.2.4-1.9.1-.8-.3-.5-.6.6-.6 1.1-.1 1.7.2 1.3.5zm53 0c-.3.3-1.2.4-1.9.1-.8-.3-.5-.6.6-.6 1.1-.1 1.7.2 1.3.5zm-44.7 2.3c0 1.1-.4 2.3-1 2.6-.6.4-1-.5-1-1.9s.5-2.6 1-2.6c.6 0 1 .9 1 1.9zm-55.4-.1c.6.4 1.7 2.5 2.5 4.7.7 2.2 1.7 4.6 2.2 5.2.7.9.3 1.3-1.2 1.3-1.2 0-1.9-.4-1.6-1 .3-.5.1-1.9-.5-3.1-.9-1.5-1.5-1.8-2.3-1-.6.6-1.4 1.1-1.8 1.1-1.2 0-3.9-3-3.9-4.3 0-.8.4-.7 1.2.1 1.9 1.9 2.8 1.4 2.8-1.3 0-2.6.7-3 2.6-1.7zm62.1.7c.9 2.4-.1 2.7-2 .5-1.4-1.7-1.5-2-.2-2 .9 0 1.8.7 2.2 1.5zm29.8-.6c.3.5-.2 1.7-1.2 2.6-1.6 1.6-1.7 1.6-2.4-.1-.3-1.1-.5-2.2-.2-2.7.6-1 3.1-.9 3.8.2zm-39.8 2.3c-.3.8-.6.5-.6-.6-.1-1.1.2-1.7.5-1.3.3.3.4 1.2.1 1.9zm1.4 1.4 3.9-.6-.2 4.2c-.1 3.9-.2 4-.5.9l-.4-3.3-2.5 2.3c-2.1 2-2.4 2-2.4.5 0-1.3-.5-1.6-1.6-1.2-1 .4-2.4-.2-3.5-1.5-2.7-3.2-2.3-4.4.7-2.4 1.9 1.2 3.7 1.5 6.5 1.1zm17.9 3.4c0 4.7-.3 6-1.5 6s-1.3-.4-.5-1.9c.5-1.1 1-3.8 1-6 0-2.3.2-4.1.5-4.1s.5 2.7.5 6zm-55.3-2.8c-.3.8-.6.5-.6-.6-.1-1.1.2-1.7.5-1.3.3.3.4 1.2.1 1.9zm66.1.3c-.3.3-.9-.2-1.2-1.2-.6-1.4-.5-1.5.5-.6.7.7 1 1.5.7 1.8zm3.4 1.5c.3 1.6.1 3-.4 3-.4 0-.8-.9-.8-1.9 0-1.1-.3-2.7-.7-3.7-.4-1.1-.3-1.5.4-1.1.6.4 1.3 2 1.5 3.7zm-68 6.2c.6 1.6 1.4 2.8 1.9 2.8 1.2 0 1.1-1.1-.6-5.9-.8-2.2-1-4.1-.5-4.1s1.2 1.7 1.7 3.7l.7 3.8.6-3c.6-2.9.6-2.9 1.3 1.3.8 4.6 3.3 6.6 4.9 3.9.5-1 1.6-1.7 2.3-1.7.8 0 1.5-.4 1.5-.9s.8-1.1 1.8-1.3c1.1-.3 2.1.6 2.9 2.7l1.1 3 .1-2.9c.1-1.6.4-2.7.7-2.3.9.9-.5 7.7-1.6 7.7-.6 0-1.1-.8-1.1-1.8-.1-1.6-.2-1.6-.6.1-.4 1.4-1.1 1.6-3.8 1.1-3.7-.7-5.4.8-3.5 3.1 1 1.2.9 1.5-.4 1.5-.9 0-1.6-.6-1.6-1.3 0-.9-.3-.8-.9.2-.7 1.1-1.3 1-3.5-.5-1.4-1.1-2.6-2.8-2.6-4 0-3.2-3-5.3-6.8-4.8-2 .2-3.1 0-2.7-.6.3-.6-.6-1.5-2.2-2.2-2.2-.9-2.4-1.2-1-1.5.9-.3 1.7-.9 1.7-1.5s1-.3 2.2.8l2.1 1.9-.7-3.4-.6-3.5 3.1 3.5c1.7 1.8 3.6 4.6 4.1 6.1zm8.7-6c-.1 2-.2 2-.6.4-.4-1.5-.7-1.6-1.4-.5s-.9 1.1-.9-.4c0-.9.7-1.7 1.5-1.7.9 0 1.5.9 1.4 2.2zm8.1-.6c0 2.2-2.5 4.4-5.1 4.4-2.1 0-2.1-.1-.5-1.9 1-1.1 1.5-2.5 1.1-3-.4-.7.4-1.1 1.9-1.1 1.7 0 2.6.6 2.6 1.6zm34.7.6c-.3.8-.6.5-.6-.6-.1-1.1.2-1.7.5-1.3.3.3.4 1.2.1 1.9zm42.8-1.3c-.3.6.4 1.5 1.5 2.1 1.1.6 2 1.8 2 2.8 0 1.3-.6 1-2.5-1.2-2.7-3.1-3.1-4.6-1.4-4.6.5 0 .8.4.4.9zm-74.8 2.3c-.3.8-.6.5-.6-.6-.1-1.1.2-1.7.5-1.3.3.3.4 1.2.1 1.9zm27.3-.1c0 .5.5.7 1 .4.6-.3 1 0 1 .7 0 1-1 1.3-3.7.9s-3.1-.6-1.5-.9c1.2-.2 2-.8 1.7-1.3-.4-.5-.1-.9.4-.9.6 0 1.1.5 1.1 1.1zm11.7 1.1c-.3.8-.6.5-.6-.6-.1-1.1.2-1.7.5-1.3.3.3.4 1.2.1 1.9zm-21 5.5c-.3 1-.5.4-.5-1.2 0-1.7.2-2.4.5-1.8.2.7.2 2.1 0 3zm67.1-1.2c.8 1.7.8 2.5.1 2.5-.6 0-1.3-.9-1.6-2-.4-1.6-.8-1.8-1.9-.9-1.1.9-1.4.8-1.4-.5 0-2.5 3.6-1.9 4.8.9zm-121.8-.1c0 .7.7 1.9 1.6 2.7 1.3 1 1.7 1 2.4-.1 1.3-2.1 5 2.1 5.7 6.4.5 3 .3 3.5-1 3.1-.8-.4-1.8-.2-2.2.4-1 1.8-2.5 1.3-2.5-.9 0-1.3.5-1.8 1.5-1.4 1.9.8 3.2-2.3 1.7-3.8-.9-.9-1.7-.6-3.3.8-2 1.8-2.1 1.8-3.5-.1-.8-1-1.4-2.9-1.4-4.2 0-1.5-.5-2.1-1.4-1.7-.7.3-1.6-.2-1.9-1-.5-1.2 0-1.6 1.8-1.6 1.5 0 2.5.6 2.5 1.4zm27.7-.8c-.3.3-1.2.4-1.9.1-.8-.3-.5-.6.6-.6 1.1-.1 1.7.2 1.3.5zm39.5 3.4c.3 3 0 4-1.1 4-.8 0-1.2-.3-.8-.6.5-.6 0-1.5-3-4.9-1.1-1.1-1-1.4.5-1.8 3.5-1 4-.6 4.4 3.3zm48.7.1c-1.6 1-3.9 0-3.9-1.7 0-1.1.5-1.1 2.5-.2 1.7.8 2.2 1.4 1.4 1.9zm5.1 1.9c1.2.8 1.1 1-.7 1-1.2 0-2.3.6-2.5 1.2-.3.7-.7.2-1-1-.7-2.4 1.4-3 4.2-1.2zm-121 6.2c0 .7 1 2.3 2.3 3.6 1.2 1.4 1.6 2.2.8 1.7-1.1-.6-1.3-.3-.9 1.3.4 1.5.2 2.2-.8 2.2-.8 0-1.4-1-1.4-2.5 0-1.3-.6-3-1.3-3.7-1.5-1.3-1.1-5.1.4-4.2.5.3.9 1 .9 1.6zm-18-.8c0 .3-.4.8-1 1.1-.5.3-1 .1-1-.4 0-.6.5-1.1 1-1.1.6 0 1 .2 1 .4zm39 1.1c1 1.2 1 1.5-.4 1.5-.9 0-1.6-.7-1.6-1.5s.2-1.5.4-1.5.9.7 1.6 1.5zm107 .5c0 .5-.4 1-1 1-.5 0-1-.5-1-1 0-.6.5-1 1-1 .6 0 1 .4 1 1zm-3.3 4.2c-.3.8-.6.5-.6-.6-.1-1.1.2-1.7.5-1.3.3.3.4 1.2.1 1.9zm-103 2c-.3.8-.6.5-.6-.6-.1-1.1.2-1.7.5-1.3.3.3.4 1.2.1 1.9zm-13.6 3.1c-1.3 1.3-1.5-.1-.4-3 .7-1.7.8-1.7 1.1.1.2 1-.1 2.3-.7 2.9zm-37.4 1.9c-.3.8-.6.5-.6-.6-.1-1.1.2-1.7.5-1.3.3.3.4 1.2.1 1.9zm32.3 2c0 .5-.4.8-1 .8-.5 0-1-1-1-2.3 0-1.8.2-1.9 1-.7.5.8 1 1.8 1 2.2zm24.8-1.5c1.2 1.2 1.3 1.8.4 2.1-.7.2-1 .8-.6 1.3.3.5.1.9-.4.9s-1.2-1.4-1.4-3c-.5-3.5-.3-3.6 2-1.3zm112.2-.3c0 .3-.4.8-1 1.1-.5.3-1 .1-1-.4 0-.6.5-1.1 1-1.1.6 0 1 .2 1 .4zm9 1.1c0 .8-.7 1.5-1.5 1.5s-1.5-.7-1.5-1.5.7-1.5 1.5-1.5 1.5.7 1.5 1.5zm19.4 2.1c.8 2.1.8 2.4-.5 2.4-.5 0-.7-.5-.4-1 .3-.6.1-1-.4-1-.6 0-1.1.4-1.1.9s-1.2 1.1-2.7 1.3c-1.6.3-3.6.9-4.6 1.3-1.3.6-1.6.4-1.1-.9.3-.9 1.6-1.6 2.8-1.6 1.2 0 3.1-.7 4.2-1.5 2.5-1.9 3.1-1.8 3.8.1zm-41.4 3.2c0 .7-.4 1-1 .7-.5-.3-1-1.6-1-2.8 0-1.8.2-1.9 1-.7.5.8 1 2.1 1 2.8zm15-1.6c0 1.3-2.3.5-2.8-1-.2-.7.2-1 1.2-.6.9.3 1.6 1.1 1.6 1.6zm37.7.1c0 .1.5 2 .9 4.2.6 3.6.6 3.9-.9 2.6-1-.7-1.7-1.9-1.7-2.7 0-.7-1-2.3-2.2-3.5l-2.3-2.2 3 .8c1.6.3 3.1.7 3.2.8zm-211.8 3.4c.2.2-.5.3-1.7.3-1.4 0-2.2-.6-2.2-1.6 0-1.4.3-1.5 1.8-.3.9.7 1.9 1.5 2.1 1.6zm188.1.6c0 .5-.4.5-1 .2-.5-.3-1-1.4-1-2.3 0-1.5.2-1.5 1-.2.5.8 1 1.9 1 2.3zm-12.5.5c-.8.8-2.5-1-1.9-2 .4-.6.9-.5 1.5.3.4.7.6 1.5.4 1.7zm25.1-1.8c1.5 0 2.4.6 2.4 1.6 0 1.2-.3 1.4-1.2.6-2.1-1.6-6.7-1.2-7 .8-.3 1.6-.5 1.6-3.3-.2l-3-1.8h2.7c1.5 0 3-.5 3.3-1.1.4-.6 1.4-.8 2.2-.5.8.3 2.6.6 3.9.6zm8.9 4.4c1.9 1.1 3.2 2.3 2.9 2.7-.3.5-1.2.3-2-.5s-2.3-1.8-3.4-2.1c-1.4-.4-2-1.4-1.9-3.3.1-2.1.3-2.2.6-.7.2 1.2 1.9 2.9 3.8 3.9zm-203.6.6c.1 1.3 0 1.3-.9 0-.5-.8-.9-2.4-.9-3.5v-2l.9 2c.5 1.1.9 2.7.9 3.5zm214.1-1c-.6 1.1-1.8 2-2.7 2-1.2 0-1.1-.4.7-2 1.3-1.1 2.5-2 2.7-2 .2 0-.1.9-.7 2zm5.7-1.4c-.3.3-1.2.4-1.9.1-.8-.3-.5-.6.6-.6 1.1-.1 1.7.2 1.3.5zm1.3 3.3c0 1.1-4.1 2.8-8.3 3.6-2.6.5-3.6.3-4-.9-.7-1.8.4-2.1 1.9-.6 1.2 1.2 8.4-1.4 8.4-3.1 0-.5.5-.7 1-.4.6.3 1 1 1 1.4zm-238.9 14.2c.9 1.8.9 1.9-1 .7-1.2-.7-2.1-1.9-2.1-2.6 0-1.7 1.7-.7 3.1 1.9zm228.9 1.3c0 .3-.4.8-1 1.1-.5.3-1 .1-1-.4 0-.6.5-1.1 1-1.1.6 0 1 .2 1 .4zm-248 2.6c0 .5-.7 1-1.6 1-.8 0-1.2-.5-.9-1 .3-.6 1-1 1.6-1 .5 0 .9.4.9 1zm383.9 6c-.1 5.3-.6 4.4-1.2-2.4-.3-3-.1-4.3.4-3.5.5.8.8 3.4.8 5.9zm-391.6-5.4c1.3 1.3-1.4 4.4-3.8 4.4-1.4 0-2.5.6-2.6 1.2 0 1-.2 1-.6.1-.6-1.6 2.1-4.4 3.9-4.1.7.2 1.2-.3 1.1-1-.3-1.3.9-1.6 2-.6zm-8.6 4.5c-.8 2.2-1.6 2.9-2.1 2.1-.4-.7-.2-1.2.3-1.2.6 0 1.1-.8 1.1-1.8s.3-2.2.7-2.5c1.3-1.4 1.4.2 0 3.4zm39-1.9c-.3.8-.6.5-.6-.6-.1-1.1.2-1.7.5-1.3.3.3.4 1.2.1 1.9zm-23.7.7c0 .5-.7 1.1-1.4 1.4-1 .4-1.3.1-.9-.9.6-1.5 2.3-1.9 2.3-.5zm389 6.6c0 .8-.4 1.5-1 1.5-.5 0-1-.7-1-1.5s.5-1.5 1-1.5c.6 0 1 .7 1 1.5zm-402.8 8.5c.2 2.2 0 4-.4 4-.5 0-.8-1.5-.8-3.4s-.6-3.7-1.2-3.9c-.8-.4-.7-.6.3-.6 1.3-.1 1.8 1 2.1 3.9zm409.4 2c.9 0 1.4 1 1.3 3.2l-.1 3.3-1.1-2.8c-.6-1.5-1.4-2.7-1.9-2.7-.4 0-.7-1.2-.7-2.8.2-2.3.2-2.4.6-.5.2 1.3 1.1 2.3 1.9 2.3zm-425.9 6.2c-.3.8-.6.5-.6-.6-.1-1.1.2-1.7.5-1.3.3.3.4 1.2.1 1.9zm-.3 7.2c-.6 1.5-2.4 2.3-2.4 1.1 0-.8 2.4-3.4 2.8-3 .1.1 0 1-.4 1.9zm420.9-.4c.3 1.1.1 2.3-.4 2.6-.5.3-.9-.6-.9-2 0-3.1.6-3.4 1.3-.6zm-2.6 6.2c-.3.7-.5.2-.5-1.2s.2-1.9.5-1.3c.2.7.2 1.9 0 2.5zm20 2c-.3.7-.5.2-.5-1.2s.2-1.9.5-1.3c.2.7.2 1.9 0 2.5zm16.3 14c0 1.8-.2 2-.9.8-.6-.8-.7-1.8-.5-2.2.9-1.4 1.4-.9 1.4 1.4zm-16-.8c0 .3-.4.8-1 1.1-.5.3-1 .1-1-.4 0-.6.5-1.1 1-1.1.6 0 1 .2 1 .4zm-332 21c0 .8-.6 1.6-1.3 1.9-.9.3-1.2 1.6-.9 3.6.2 1.7 0 3.1-.6 3.1-1.8 0-2.1-6.4-.3-8.2 2-2.1 3.1-2.2 3.1-.4zm-5.1 8.8-.2 5.3-.7-4c-.9-4.9-1.2-3.1-1 5.5.2 8.6-1.7 6.8-2.2-2-.3-5.4 0-6.8 1.6-8.3 1-.9 2.1-1.7 2.3-1.7.1 0 .2 2.4.2 5.2zm-4.9 15.3c-.3.5-.8-2.4-1.1-6.5-.3-4.1-.3-8 0-8.5.7-1.2 1.8 13.6 1.1 15zm-2.6-2.1c.2 4.2 0 7.9-.5 8.2-.4.2-1-3-1.2-7.3-.2-6.4-.3-5.7-.6 4.2-.2 9.4-.5 11.3-1.2 9-.6-1.7-.7-6.1-.4-9.9.4-4.4.3-6.6-.4-6.2-.5.4-.9 5.8-.9 13.1.1 6.9-.2 12.8-.5 13.2-.4.3-.7-5.8-.7-13.7v-14.4l2.8-2.2c1.5-1.2 2.8-2.1 3-1.9.2.1.5 3.7.6 7.9zm-261-1c-.3.9-1 1.6-1.5 1.6s-1 1.7-1 3.7c-.2 3.2-.3 3.3-.6 1-.5-3.5-3.4-3.3-4.4.3-.5 1.9-.7 1.3-.8-2.4-.1-4.7 0-4.8 1.7-3.3 1.7 1.6 2 1.5 4.2-.8 2.5-2.7 3.4-2.7 2.4-.1zm34 1.2c.9 2.4.7 4.6-.4 3.9-.5-.3-1-1.6-1.1-2.8 0-2.1-.1-2.1-.9-.2-.8 1.9-.9 1.9-.9-.3-.1-2.5 2.4-3 3.3-.6zm-43.6 6.6-.1 6.3-.7-5-.7-5-.2 4c-.3 3.5-.4 3.7-1 1.5-.7-2.2 1.1-8 2.4-8 .3 0 .4 2.8.3 6.2zm10.2-2.2c0 1.6-.4 3-1 3-1.1 0-1.4-4.3-.3-5.3 1.1-1.2 1.3-.8 1.3 2.3zm29-1.5c0 .8-.7 1.5-1.5 1.5s-1.5-.5-1.5-1.1c0-.5.5-.7 1-.4.6.3 1 .1 1-.4 0-.6.2-1.1.5-1.1s.5.7.5 1.5zm79-1.1c0 .3-.4.8-1 1.1-.5.3-1 .1-1-.4 0-.6.5-1.1 1-1.1.6 0 1 .2 1 .4zm-76.8 6.2c.2 1.9 0 3.7-.4 4-.4.3-.8-1.3-.8-3.5 0-5.1.6-5.3 1.2-.5zm-84.7 4.6c.1 2.3.1 3.2-.2 1.8-.8-5.1-1.3-5.7-2.9-3.6-1.7 2.3-1.8 1.7-.4-2s3.1-1.9 3.5 3.8zm472.5.3c0 3-.4 5.5-1 5.5s-.8-2.2-.6-5.3c.5-5.9.4-5.7 1.1-5.7.3 0 .5 2.5.5 5.5zm-446.1.7c-.1 4-.2 4.1-.9 1.3-.4-1.7-.8-2.6-.9-2.2 0 .5-.6.5-1.3.1-.7-.5-.5-1.1.7-2.1 2.6-1.8 2.5-1.8 2.4 2.9zm53.8-.5c-.3 1-.5.4-.5-1.2 0-1.7.2-2.4.5-1.8.2.7.2 2.1 0 3zm-69.7-1.7c0 .5-.4 1-1 1-.5 0-1-.5-1-1 0-.6.5-1 1-1 .6 0 1 .4 1 1zm-3 1.4c0 .7.7 1.9 1.5 2.6.8.7 1.5 2.2 1.4 3.4-.1 1.8-.2 1.8-1.2-.6-1.1-2.7-3.7-4.6-3.7-2.7 0 .6-.4.7-1 .4-.5-.3-1 .2-1.1 1.2 0 1-.3 1.3-.5.6-.6-1.3 2.4-6.3 3.7-6.3.5 0 .9.6.9 1.4zm69 .6c0 1.1-.4 2-1 2-.5 0-1-.2-1-.4s-.3-1.1-.6-2c-.4-1.1-.1-1.6 1-1.6.9 0 1.6.8 1.6 2zm-78.3 5.2c-.2 1.3-.4.3-.4-2.2s.2-3.5.4-2.3c.2 1.3.2 3.3 0 4.5zm21 2c-.2 1.3-.4.3-.4-2.2s.2-3.5.4-2.3c.2 1.3.2 3.3 0 4.5zm17-3c-.3.7-.5.2-.5-1.2s.2-1.9.5-1.3c.2.7.2 1.9 0 2.5zm-39.9 5.3c.1 2.5-.1 2.7-.8 1-.5-1.1-.8-3.6-.8-5.5 0-3.2.1-3.3.8-1 .4 1.4.8 3.8.8 5.5zm43.2-6.5c0 .5-.5 1-1.1 1-.5 0-.7-.5-.4-1 .3-.6.8-1 1.1-1 .2 0 .4.4.4 1zm42.7-.4c-.3.3-1.2.4-1.9.1-.8-.3-.5-.6.6-.6 1.1-.1 1.7.2 1.3.5zm-7 4.6c-.3.8-.6.5-.6-.6-.1-1.1.2-1.7.5-1.3.3.3.4 1.2.1 1.9zm22.2 4.2c1.7 3.6 3.6 6.8 4.1 7.1 1.2.8 1.3 3.5.1 3.5-.5 0-1.1-1-1.5-2.3-.3-1.2-1.4-3.2-2.6-4.4-1.1-1.2-2-2.9-2-3.8 0-.8-.4-1.5-1-1.5-.5 0-1-1.1-1-2.5s.2-2.5.4-2.5 1.8 2.9 3.5 6.4zm450.5 4.8c-.4 6.2-1.1 12-1.6 12.8-.6 1-.7 0-.4-3 .3-2.5.7-8.2.8-12.8.1-4.5.6-8.2 1-8.2.5 0 .5 5.1.2 11.2zm-422.6-9c-.2.6-1 1.4-1.6 1.6-.7.2-1-.2-.6-1.2.7-1.8 2.8-2.2 2.2-.4zm-46.8 2.8c0 1.1-.4 2-1 2-.5 0-1-.9-1-2s.5-2 1-2c.6 0 1 .9 1 2zm206 4.6c0 4.1-.4 6.3-1 5.9-.5-.3-1-3.3-1-6.6s.4-5.9 1-5.9 1 2.9 1 6.6zm169-4.4c0 1.2-.1 1.9-.3 1.7-.1-.2-.9-1.2-1.6-2.2-1.2-1.4-1.1-1.7.3-1.7 1 0 1.6.8 1.6 2.2zm-378.3 2.5c-.3 1-.5.4-.5-1.2 0-1.7.2-2.4.5-1.8.2.7.2 2.1 0 3zm374.7-2.1c.9.8 1.6 2 1.6 2.5 0 1.2-3.8-1.2-4.4-2.8-.7-1.8.9-1.6 2.8.3zm-456.2 3.6c-.9.9-1.2.7-1.2-1.2s.3-2.1 1.2-1.2c.9.9.9 1.5 0 2.4zm521.4 11.4c.5 8 .6 15 .3 15.6-.3.5-.9-3.5-1.3-8.9-.3-5.4-.9-12.4-1.2-15.6-.4-3.4-.3-5.7.3-5.7s1.4 6.4 1.9 14.6zm-528.6-11.7c0 2.4-1.8 3.7-3.2 2.3-.8-.8-.7-1.6.2-2.7 1.7-2.1 3-1.9 3 .4zm2.4 1.8c-.9 5.2-1.4 5.4-1.4.5 0-2.3.5-4.2 1-4.2.7 0 .8 1.4.4 3.7zm529.3 7.3c.4 4.1.6 12.7.3 19l-.5 11.5-.7-17.5c-.4-9.6-1-18.6-1.4-20-.5-1.7-.3-2.2.4-1.5.5.5 1.4 4.4 1.9 8.5zm10.9-5.9c-.3 1.7-.6 8.2-.7 14.3-.1 7.4-.4 10-.9 7.9-.4-1.7-1.6-4.6-2.7-6.3-1.7-2.7-1.9-3.9-1.1-7.4.5-2.2.8-5.5.6-7.3-.4-3.2.3-3.9 4.1-4.2 1-.1 1.2.7.7 3zm2.7 7.1c-.3 5.7-.7 10.5-.9 10.7-.2.2-.4-4.4-.4-10.2 0-5.9.4-10.7.9-10.7s.7 4.4.4 10.2zm-9.6-2c-.2 1.3-.4.3-.4-2.2s.2-3.5.4-2.3c.2 1.3.2 3.3 0 4.5zm-213.7 11c0 8.3-.2 14.9-.5 14.6-.3-.3-.6-6.8-.6-14.4 0-16.1-.1-15.4.6-15.4.3 0 .5 6.8.5 15.2zm-209-10.5c0 2-2.4 1.1-2.8-1-.2-1.2.1-1.5 1.2-1.1.9.3 1.6 1.3 1.6 2.1zm3 2.3c0 .5-.5 1-1.1 1-.5 0-.7-.5-.4-1 .3-.6.8-1 1.1-1 .2 0 .4.4.4 1zm159 11.2c0 3.9-.2 6.9-.4 6.7-.9-1-1.4-13.9-.6-13.9.6 0 1 3.2 1 7.2zm8.7-1c-.2 1.3-.4.3-.4-2.2s.2-3.5.4-2.3c.2 1.3.2 3.3 0 4.5zm-168.2-4.2c.3.5.1 1-.4 1-.6 0-1.1-.5-1.1-1 0-.6.2-1 .4-1 .3 0 .8.4 1.1 1zm418.6 18c-1 5.5-1 5.5-.9-3 .1-9.9 1.2-15 1.6-7.5.1 2.7-.2 7.5-.7 10.5zm-268.4-5.8c-.2 1.3-.4.3-.4-2.2s.2-3.5.4-2.3c.2 1.3.2 3.3 0 4.5zm-147.7 0c0 2.3-.3 3.8-.6 3.5-1-1-1.2-7.7-.2-7.7.4 0 .8 1.9.8 4.2zm144.8 2-.1 5.3-.6-4.5c-.6-4.3-.5-6 .5-6 .2 0 .3 2.4.2 5.2zm-148.1-2c-.3.8-.6.5-.6-.6-.1-1.1.2-1.7.5-1.3.3.3.4 1.2.1 1.9zm139.3 11.3c-.7 1.4-1.7-8.6-1-10.5.3-.8.7 1 1 4 .3 3 .3 5.9 0 6.5zm5.7-8.3c-.3.7-.5.2-.5-1.2s.2-1.9.5-1.3c.2.7.2 1.9 0 2.5zm270 0c-.3.7-.5.2-.5-1.2s.2-1.9.5-1.3c.2.7.2 1.9 0 2.5zm-404.8 7.3c0 2 0 2-1.4.1-.8-1.1-1.5-2.4-1.5-2.9 0-.4-.7-1.5-1.5-2.3-.8-.9-1.5-2.1-1.5-2.7 0-.6 1.3.4 3 2.3 1.6 1.9 2.9 4.4 2.9 5.5zm126.3 2.2c.2 2.4 0 4.3-.3 4.3-.9 0-1.7-9.2-1-10.5.6-1.1.8-.1 1.3 6.2zm-3.5 4c-.2 1.6-.4.3-.4-2.7s.2-4.3.4-2.8c.2 1.6.2 4 0 5.5zm284-3.5c-.3.8-.6.5-.6-.6-.1-1.1.2-1.7.5-1.3.3.3.4 1.2.1 1.9zm-289.8 5-.2 6.3-.7-5.5c-.6-5.1-.5-7 .6-7 .2 0 .3 2.8.3 6.2zm-107.9 2.4c0 .7 1.4 2.9 3 4.7 2.5 2.9 3 4.3 2.9 8.3 0 3.7-.3 4.4-.9 2.9-.5-1.1-.9-3.7-.9-5.8-.1-2.3-.5-3.6-1.1-3.2-.5.3-1 .1-1-.4 0-.6-.7-1.1-1.5-1.1-.9 0-1.5-.9-1.5-2.5s-1.1-3.5-2.7-5l-2.8-2.4-.6 2.7c-.5 2.2-.7 1.9-.8-1.6l-.1-4.3 4 3.2c2.2 1.8 4 3.8 4 4.5zm91 2.6c-.1 6.1-.4 8.8-1 7.8-.5-.9-.7-4-.5-7 .2-3 .4-6.5.4-7.8.1-1.2.3-2.2.6-2.2s.5 4.2.5 9.2zm13.6-1.7.1 6-.4-5.8c-.4-5.7-1.8-7.6-2.6-3.5-.4 1.9-.5 1.8-.6-.5-.1-2.2.3-2.8 1.7-2.5 1.4.3 1.7 1.4 1.8 6.3zm293.1-1.8c-.3 1-.5.4-.5-1.2 0-1.7.2-2.4.5-1.8.2.7.2 2.1 0 3zm-402 5c-.3 1-.5.4-.5-1.2 0-1.7.2-2.4.5-1.8.2.7.2 2.1 0 3zm106-.5c-.3.7-.5.2-.5-1.2s.2-1.9.5-1.3c.2.7.2 1.9 0 2.5zm-20 16.5c-.4 5.8-.7 13.1-.7 16.2 0 3-.3 5.1-.8 4.6-1.2-1.6-.2-31.5 1-31.5.8 0 .9 3.3.5 10.7zm-79-6c-.3 1-.5.4-.5-1.2 0-1.7.2-2.4.5-1.8.2.7.2 2.1 0 3zm6.3 1c0 .7-.4 1.3-1 1.3-.5 0-1-1.2-1-2.8 0-2.1.2-2.4 1-1.2.5.8 1 2.1 1 2.7zm349.2 3.6c.2 3.4.2 6.4.1 6.6-.7 1-1.2-.8-2-7.1-.7-5.1-.7-6.5.3-6.1.7.3 1.4 3 1.6 6.6zm-279.4 2.2c-.4 9.7-1.8 9.7-1.8 0 0-4.7.4-7.5 1.1-7.5.7 0 .9 2.6.7 7.5zm-2.8-4.9c0 .8-.5 1.2-1 .9-.6-.4-.8-1.1-.5-1.6.9-1.4 1.5-1.1 1.5.7zm285.4 1.2c-.1.7-.2 2.9-.4 4.9l-.2 3.8-.8-3c-1.2-4.9-1.1-7.7.3-7.3.6.3 1.2 1 1.1 1.6zm-350.4 8.8c0 1.3-.4 2.4-1 2.4-.5 0-1-1.4-1-3.1 0-1.7.4-2.8 1-2.4.6.3 1 1.7 1 3.1zm4.1 11c-1 1.8-1 1.8-1.1.1 0-1-.9-2.7-2-3.9-3.3-3.5-2.3-4.5 1.1-1.1 2.6 2.5 2.9 3.4 2 4.9zm34.9 2.8c-.7 4.8-1.8 8.6-2.3 8.6-.5 0-.6-1.2-.3-2.8.7-2.6 1-4.5 2.2-12.1.3-1.8.8-3.1 1.1-2.8.3.3 0 4.4-.7 9.1zm323.3 3.3c.4 3.7.9 8.6 1.3 10.8.4 2.2.4 3.7 0 3.4-.7-.7-3.6-16.2-3.6-19.7 0-5 1.7-.9 2.3 5.5zm-353.4 5.6c.6.6 1 2 1 3.1-.1 1.7-.2 1.8-.6.3-.5-2-1.9-2.2-2.6-.5-.3.7-.5-2.3-.5-6.7 0-7.8.1-7.9.8-2.6.5 2.9 1.3 5.8 1.9 6.4zm356.5-8.1c.9 4 1.3 14.9.6 14.1-.8-.9-3-11.6-3-14.5 0-2.6 1.9-2.2 2.4.4zm-360.7 10.5c-.2 2.1-.4.4-.4-3.7 0-4.1.2-5.8.4-3.8.2 2.1.2 5.5 0 7.5zm68.3-7.1c0 .8-.5 1.2-1 .9-.6-.4-.8-1.1-.5-1.6.9-1.4 1.5-1.1 1.5.7zm-71.3 3.6c-.3.8-.6.5-.6-.6-.1-1.1.2-1.7.5-1.3.3.3.4 1.2.1 1.9zm33.3.8c0 1.1-.2 2-.4 2s-.6-.9-.9-2c-.3-1.1-.1-2 .4-2s.9.9.9 2zm338 1c0 .5-.2 1-.4 1-.3 0-.8-.5-1.1-1-.3-.6-.1-1 .4-1 .6 0 1.1.4 1.1 1zm-336.3 4.2c-.3.7-.5.2-.5-1.2s.2-1.9.5-1.3c.2.7.2 1.9 0 2.5zm-10.7 2.8-.8 3.5-.1-4.5c-.1-2.7.3-4 .8-3.5.6.6.6 2.5.1 4.5zm-2-3.1c0 1.6-1.8 2.2-2.3.9-.3-.7-.6-.3-.6.9-.1 1.2-.4 3-.8 4-.6 1.4-.9 1.1-1.4-1.7l-.6-3.5-.2 3.7c-.1 2.8.3 3.8 1.4 3.8.9 0 1.5.9 1.5 2.5 0 1.4.5 2.5 1 2.5.6 0 1 .4 1 1 0 2.2-2.1.8-5-3.4-1.8-2.6-2.6-4.7-2-5.1.5-.3 1-1.3 1-2.2 0-1.3-.3-1.3-1.5-.3s-1.5 1-1.5-.3c0-1.6 4-3.5 7.8-3.6 1.2-.1 2.2.3 2.2.8zm10.6 4.9c-1.1 1-1.5-.4-.8-2.8l.7-2.5.3 2.3c.2 1.3.1 2.6-.2 3zm-23.5 3.8-.9 3.9-.1-5c-.1-3.3.2-4.6.9-3.9.7.7.7 2.4.1 5zm12.8-1c.1 3-.2 4.4-.8 3.9-1.3-.7-1.5-8.5-.3-8.5.5 0 .9 2.1 1.1 4.6zm4.8 4.1c-.3 1-.5.2-.5-1.7s.2-2.7.5-1.8c.2 1 .2 2.6 0 3.5zm-3-.5c-.3.8-.6.5-.6-.6-.1-1.1.2-1.7.5-1.3.3.3.4 1.2.1 1.9zm397.7.5c.3 1-.1 3.6-.8 5.8l-1.4 4 .1-5.7c.2-5.7 1.1-7.4 2.1-4.1zm-28.7-112c-1 .9-.9 16.5.1 16 .7-.5 1.7-16.7.9-16.7-.2 0-.7.3-1 .7zM374.33 2.1c-.4.6-.4 1.3-.1 1.6.8.8 3.6-.5 3.6-1.7 0-1.3-2.7-1.3-3.5.1zm27.5-.2c0 1.3 2.6 3.2 3.3 2.4 1.4-1.3.6-3.3-1.3-3.3-1.1 0-2 .4-2 .9zm-33 3.2c0 2.4 2.3 2.1 2.8-.4.2-1-.3-1.7-1.2-1.7-1 0-1.6.9-1.6 2.1zm-4.8 3.6c.5 2.5 2.8 2.8 2.8.4 0-1.2-.6-2.1-1.6-2.1-.9 0-1.4.7-1.2 1.7zm49.8 1.3c0 1.3.7 2 2 2 2.3 0 2.6-1 .8-2.8-1.8-1.8-2.8-1.5-2.8.8zm-101.6.4c-.3.7-.4 4-.2 7.2l.3 5.9 4.2-.1c6-.1 7.4-1.6 6.6-7.2-.3-2.6-1.2-5.3-2.1-6-2.1-1.6-8.1-1.6-8.8.2zm7.6 3.1c0 .9-.9 1.5-2.5 1.5s-2.5-.6-2.5-1.5.9-1.5 2.5-1.5 2.5.6 2.5 1.5zm.3 6.1c-.6 1.7-4.4 1.5-5.1-.4-.2-.8.7-1.2 2.7-1.2 2.3 0 2.9.4 2.4 1.6zm37.2-9.6c-.3.6.1 1.3 1 1.6 1.9.8 3 0 2-1.5-.8-1.4-2.2-1.4-3-.1zm-6 1.9c-.8 1.5.3 3.1 2.1 3.1.9 0 1.4-.7 1.2-1.7-.4-2-2.4-2.8-3.3-1.4zm77.5.6c0 1.6 2.7 3.2 3.7 2.1.7-.7-1.6-3.6-2.8-3.6-.5 0-.9.7-.9 1.5zm31.2.5c-3.1 2.9-3 8.3.3 11.6 1.5 1.5 3.2 2.3 4.1 2 .9-.3 2.2-.6 2.9-.6.8 0 1.9-1 2.6-2.1 1.1-2.1 1-2.1-2.6-1.5-4.3.8-6.5-.5-6.5-4.1 0-2.9 2.6-4.1 5.3-2.4 2.6 1.7 4.8-.2 2.7-2.3-2.7-2.6-6.3-2.9-8.8-.6zm-114.7 0c-.8 1.3.3 3 2.1 3s1.8-1.4 0-2.9c-1-.8-1.6-.9-2.1-.1zm90.5.4c0 2.1 2.1 3.1 3 1.5.5-.7.6-1.7.4-2.1-.9-1.4-3.4-.9-3.4.6zm6.6.5c-.3.5.1 1.4.8 2 1.6 1.3 3.2-.2 2.1-1.9-.8-1.2-2.2-1.3-2.9-.1zm-103.6 2c0 .5.6 1.4 1.4 2 1 .9 1.5.8 1.9-.3.3-.8.3-1.7 0-2-.9-.9-3.3-.7-3.3.3zm-5.6 1.2c-1 1.7 1.3 3.6 2.7 2.2 1.2-1.2.4-3.3-1.1-3.3-.5 0-1.2.5-1.6 1.1zm114.6 1.9c0 1.5.5 2 1.8 1.8.9-.2 1.7-1 1.7-1.8s-.8-1.6-1.7-1.8c-1.3-.2-1.8.3-1.8 1.8zm-8.8 12.5c0 1.6.2 2.2.5 1.2.2-.9.2-2.3 0-3-.3-.6-.5.1-.5 1.8zm-1.7 3.7c.7 1.8 1.8 3.3 2.4 3.2.6-.1 1.7-.2 2.3-.3 1.1-.1-4.6-6.1-5.7-6.1-.2 0 .2 1.5 1 3.2zm-53.3 2.7c-1.9 1.1-.2 7.1 2.3 8.5 1.1.6 2.2 1.2 2.4 1.3.7.4-2.8 3.3-4 3.3-.7 0-.9.3-.6.7.4.3.2 1.2-.4 2-.9 1-.6 1.3 1.5 1.3 1.4 0 2.6-.5 2.6-1.1 0-.6.7-1.7 1.5-2.5s1.2-2.1.9-2.9c-.4-.9 0-1.5 1-1.5 1.2 0 1.6 1 1.6 4.6 0 3.9.2 4.5 1.4 3.5 1-.8 1.6-.9 2.1-.1 1.2 1.9 2.6 1.1 1.5-.9-1.3-2.5-1.3-6.1 0-6.1.6 0 1-.7 1-1.5s-.7-1.5-1.5-1.5-1.5-.5-1.5-1c0-.7-1.3-.8-3.6-.4-2.4.4-3.5.3-3.1-.3.4-.6 0-1.6-.8-2.3-.8-.7-1.5-1.9-1.5-2.6 0-1.6-.9-1.7-2.8-.5zm51.1 14.8c-.7.2-1.3.9-1.3 1.5 0 1.4 4.3.6 4.8-1 .4-1.2-1.2-1.5-3.5-.5zm4.7.8c0 .8.5 1.5 1 1.5.6 0 1-.7 1-1.5s-.4-1.5-1-1.5c-.5 0-1 .7-1 1.5zm-9 .5c-.9.6-1 1-.3 1 .6 0 1.5-.5 1.8-1 .8-1.2.4-1.2-1.5 0zm-105 1.2c0 .4.9.8 2 .8s2-.4 2-.8-.9-.8-2-.8-2 .4-2 .8zm74.3.9c-.6.6-2.6 1.2-4.4 1.4-1.8.1-3.5.7-3.7 1.4-.2.6-1.7 1.1-3.3 1.1-1.8 0-2.8.4-2.4 1 .3.5.2 1-.4 1-.5 0-1.3-.5-1.6-1-1.1-1.8-2.3-1.1-1.8 1 .6 2.4 6 2.8 6.9.5.4-.8 1.5-1.5 2.6-1.5 1 0 1.7.4 1.4.8-.3.5.1 2.8.9 5.3l1.4 4.4V67c.2-6.4 1-9 3.2-9 1 0 2.1-.5 2.4-1.1 1-1.5.1-2.1-1.2-.8zm-75.3 1.9c0 .5.5 1 1 1 .6 0 1-.5 1-1 0-.6-.4-1-1-1-.5 0-1 .4-1 1zm46.8-.3c.7.3 1.6.2 1.9-.1.4-.3-.2-.6-1.3-.5-1.1 0-1.4.3-.6.6zm64.2.8c0 1 .7 1.5 1.8 1.3 2.1-.4 1.9-2.2-.2-2.6-1-.2-1.6.3-1.6 1.3zM330.33 60c.3.5.8 1 1.1 1 .2 0 .4-.5.4-1 0-.6-.5-1-1.1-1-.5 0-.7.4-.4 1zm48.2-.3c-.4.6-.3 2.1.1 3.4.5 1.3 1.1 1.8 1.5 1.2.4-.6.3-2.1-.1-3.4-.5-1.3-1.1-1.8-1.5-1.2zm30.7.8c-.4.8-1.2 1.5-1.9 1.5s-2.5.6-3.9 1.4c-2.3 1.2-2.4 1.5-1.1 2.6 1.2 1 1.5 1 1.5-.3 0-1.1 1.1-1.7 3.8-1.9 3-.2 3.8-.7 4-2.6.4-2.5-1.5-3-2.4-.7zm31.6-.5c-1.3.9-1.3 1 0 1 .8 0 2.2-.5 3-1 1.3-.9 1.3-1 0-1-.8 0-2.2.5-3 1zm128.5-.3c-6.4 1.5-9.6 2.5-9.2 2.9.2.3 2.4 0 4.8-.6 2.5-.6 7.6-1.5 11.4-1.9l7-.8-6-.1c-3.3 0-6.9.2-8 .5zm-246 1.3c.3.5 1.1 1 1.6 1 .6 0 .7-.5.4-1-.3-.6-1.1-1-1.6-1-.6 0-.7.4-.4 1zm131.5.2c0 .9.5 2 1 2.3 1.3.8 1.3-.5 0-2.5-.8-1.3-1-1.3-1 .2zm-128 .8c0 .5.5 1 1 1 .6 0 1-.5 1-1 0-.6-.4-1-1-1-.5 0-1 .4-1 1zm88 0c0 .5.5 1 1.1 1 .5 0 .7-.5.4-1-.3-.6-.8-1-1.1-1-.2 0-.4.4-.4 1zm19 .3c0 2.1 2.7 4 4.6 3.3 1.9-.7 1.4-3.1-.7-3.1-.8 0-2-.4-2.6-.8-.8-.5-1.3-.3-1.3.6zm130.9 1.1c-5.6 1.4-15.9 5.8-15.9 6.8 0 .4 2.4-.3 5.3-1.5 5-2.3 16.1-5.3 22.2-6 1.7-.2.8-.4-2-.4-2.7 0-7 .4-9.6 1.1zm15.9-.7c.6.2 1.8.2 2.5 0 .6-.3.1-.5-1.3-.5-1.4 0-1.9.2-1.2.5zm7 0c.7.3 1.6.2 1.9-.1.4-.3-.2-.6-1.3-.5-1.1 0-1.4.3-.6.6zm-256 1c.7.3 1.6.2 1.9-.1.4-.3-.2-.6-1.3-.5-1.1 0-1.4.3-.6.6zm50.5 2c.9.2 2.5.2 3.5 0 .9-.3.1-.5-1.8-.5-1.9 0-2.7.2-1.7.5zm182.2.8c-4.6 1.1-9.5 3.1-9.5 3.9 0 .4 16.3-4.3 16.9-4.9.7-.7-1.9-.4-7.4 1zm-240 .5c.3.5.8 1 1.1 1 .2 0 .4-.5.4-1 0-.6-.5-1-1.1-1-.5 0-.7.4-.4 1zm135.1 1.7c1 4 1.4 4.1 1.4.5 0-1.8-.5-3.2-1-3.2-.6 0-.8 1.1-.4 2.7zm-107.5-.8c-.1 2.1 2.1 9.1 2.9 9.1.7 0-.2-3.2-2.3-9-.4-1.2-.6-1.2-.6-.1zm44.9.7c0 .8.5 1.2 1 .9.6-.4.8-1.1.5-1.6-.9-1.4-1.5-1.1-1.5.7zm172-.1c-8.7 1.6-14.9 3.7-15.4 5.2-.5 1.2 1.9.8 3.9-.8 1.5-1.1 12.9-3.9 15.9-3.9 1.4 0 2.6-.5 2.6-1 0-.6-.1-.9-.2-.9-.2.1-3.2.7-6.8 1.4zm-129.9.9c-1 1.2-.6 2.6 1 2.6 1.1 0 1.9-2.9 1-3.5-.5-.2-1.4.1-2 .9zm-109.5.4c1.4 1.2 9.3 3.6 9.9 3 .3-.3-1.7-1.3-4.4-2.2-5.6-1.8-7-2-5.5-.8zm79-.1c-.7.7 1.3 3.3 2.5 3.3.5 0 .9-.6.9-1.4 0-1.5-2.4-2.8-3.4-1.9zm44.4.2c0 .6.5 1.3 1 1.6.6.3 1-.1 1-.9 0-.9-.4-1.6-1-1.6-.5 0-1 .4-1 .9zm-125.8 1.7c1 1 2 1.6 2.2 1.3.3-.3-.5-1.1-1.7-1.8-2.1-1.3-2.1-1.2-.5.5zm15.3-.7c-.9 1.6.3 3.1 2.6 3.1 1.4 0 1.9-.6 1.7-1.7-.4-2-3.3-2.9-4.3-1.4zm100.8.6c-.7 2 .2 2.9 2.1 2.2.9-.4 1.3-1.3 1-2.2-.8-1.9-2.3-1.9-3.1 0zm132.4-.3c-.7.4.5.8 2.6.8 2 0 3.7-.3 3.7-.8 0-.9-4.8-.9-6.3 0zm-8.2.8c-2.3.5-5.6 1.5-7.5 2.4-1.9.9-2.6 1.4-1.5 1 1.1-.3 4.6-1.1 7.8-1.7 3.1-.6 5.7-1.4 5.7-1.9 0-.4-.1-.8-.2-.7-.2.1-2.1.5-4.3.9zm-117.9.7c-1.2 1.2-.6 3.3.9 3.3.8 0 1.5-.6 1.5-1.4 0-1.7-1.4-2.8-2.4-1.9zm100.1 1.2c.3 1.1-.2 2.1-1.1 2.4-.9.4-1.6 1.1-1.6 1.7 0 .6 1.1.3 2.4-.7 2.5-1.8 3.1-5.3 1-5.3-.7 0-1 .8-.7 1.9zm-222.9 1c1.2 1.1 2.2 2.4 2.2 3 0 .6.8 2.4 1.8 4.1 1.4 2.3 2.1 2.7 3 1.8 1.3-1.3 1.6-3.2.5-2.5-.5.3-1.7-.5-2.8-1.6-1.7-1.7-1.7-1.9-.2-1.4 3.3 1.2 1.6-.8-2.6-3-3.4-1.9-3.8-1.9-1.9-.4zm7.2 0c3.8 2.2 6 2.6 6 1.2 0-.5-1.2-1.1-2.7-1.3-1.6-.3-3.7-.8-4.8-1.2-1.1-.4-.4.2 1.5 1.3zm160.4.7c.3.9.6 1.8.6 2 0 .2.7.4 1.5.4s1.5-.5 1.5-1.1c0-.5-.4-.7-1-.4-.5.3-1-.1-1-.9 0-.9-.5-1.6-1.1-1.6-.6 0-.8.7-.5 1.6zm72.4-.2c-3.7.6-7.1 1.6-7.5 2-.4.5.3.6 1.7.3 1.4-.4 4.9-1 7.8-1.3 2.8-.4 5.2-1.1 5.2-1.5 0-.5-.1-.9-.2-.8-.2 0-3.3.6-7 1.3zm11-.7c.7.3 1.6.2 1.9-.1.4-.3-.2-.6-1.3-.5-1.1 0-1.4.3-.6.6zm-230.8.7c0 .2 1.1 2.8 2.5 5.8 1.4 2.9 2.5 4.8 2.5 4.3 0-1.9-3.4-10.5-4.2-10.5-.4 0-.8.2-.8.4zm55.5.6c-.3.5-1.6 1-2.8 1-1.8 0-1.9.2-.7 1 1 .6 1.1 1 .3 1-.7 0-1.3.7-1.3 1.5s-.7 1.5-1.6 1.5c-1.2 0-1.5-.7-1.2-2.5.3-1.4.1-2.5-.3-2.5-.5 0-.9.9-.9 1.9 0 2.1-2.6 3.6-3.5 2.1-.4-.6-1.6-1-2.8-.9-2.1 0-2.1.1-.2.9 1.5.6.6.9-3.2.9-4.4.1-5.3.4-5.3 1.8 0 1.5.2 1.6 1 .3s1-1.2 1 .2c0 1-.7 1.8-1.5 1.8s-1.5-.8-1.6-1.8c0-1.3-.2-1.4-.6-.2-1 2.5-3 4-6.2 4.6-2.4.5-3.1 1.2-3.1 3 0 2.1-.3 2.2-2.5 1.4-2-.8-2.5-.6-2.5.6 0 .9-.5 1.3-1.2.9s-.4.1.7 1c1.9 1.5 1.7 1.6-3.4.9-4-.5-5.2-.4-4.7.5.4.6.2 1.1-.3 1.1-.6 0-1.1-.8-1.1-1.8 0-1.1-.3-1.3-.8-.5-.4.6-2.8 1.4-5.4 1.8-4.8.7-6.9 2.9-4.7 4.9.9.8 1 .7.6-.7-.4-1.1-.1-1.7.9-1.7.8 0 1.2.4.9 1-.3.5.1 1 1 1s1.3-.5 1-1c-.3-.6-.1-1 .4-1 .6 0 1.1.6 1.1 1.4 0 1.1 1.6 1.4 7.5 1.2 8.9-.2 11.6-1.9 9.7-6.1-.6-1.4-.8-2.5-.3-2.5s1.2 1 1.5 2.2c.7 2.2.7 2.2 1.6.3.5-1.1.9-1.6.9-1.1.1.5.8.3 1.6-.4 1-.8 1.3-2 .9-3.4-.6-1.8-.5-1.9.9-.8.9.8 1.8.9 2.1.3.3-.5 0-1.2-.6-1.5-.7-.3-.3-.3 1 0 1.5.4 2.4 0 2.8-1 .3-.9 1.1-1.3 1.6-1 .6.4 2.1-.6 3.4-2.1 2.3-2.7 2.4-2.7 8.6-1.6 4.1.7 6.4.7 6.6.1.2-.6 1-1 1.8-1s1.7-.7 2-1.5c.5-1.2 1-1.3 2-.4.8.6 2.6.8 4.4.4 2.3-.5 3-.3 3 .9 0 1.1.9 1.6 3 1.6 1.7 0 3-.5 3-1.1 0-.8 1.6-1 5-.6 4.8.6 7.6-.5 4.5-1.7-.8-.3-1.5-1.2-1.5-2.1 0-.8-.4-1.5-1-1.5-.5 0-1 .4-1 1 0 .5-.4 1-1 1-.5 0-1-.6-1-1.4 0-1.1-.8-1.2-4.2-.4-2.4.5-5.1.7-6 .5-1-.3-1.8-.1-1.8.3 0 .5 1 1.1 2.3 1.3 1.9.4 1.8.4-.5.6-1.9.1-2.8-.4-2.8-1.5 0-.8-.4-1.3-.9-1-.5.3-1.1-.1-1.5-.9-.6-1.7-2.2-2-3.1-.5zm16.8 2.7c-.7.2-1.9.2-2.5 0-.7-.3-.2-.5 1.2-.5s1.9.2 1.3.5zm-3.3 2.8c0 .8-.6 1.2-1.4.9-.8-.3-1.2-1.2-.9-2 .6-1.7 2.3-.9 2.3 1.1zM360.33 98l2 .9h-2c-1.1 0-2.7-.4-3.5-.9-1.3-.9-1.3-1 0-.9.8 0 2.4.4 3.5.9zm-8 1c.3.5.1 1-.4 1-.6 0-1.1-.5-1.1-1 0-.6.2-1 .4-1 .3 0 .8.4 1.1 1zm4.5 1.6c0 .2-.7.4-1.5.4s-1.5-.4-1.5-1c0-.5.7-.7 1.5-.4.8.4 1.5.8 1.5 1zm98.5-23.6c-.8 1.3.3 3 2.1 3s1.8-1.4 0-2.9c-1-.8-1.6-.9-2.1-.1zm96.9.5c-1.8 1.3-1.8 1.4.4.8 1.2-.3 2.5-.9 2.8-1.4.8-1.4-1-1.1-3.2.6zm32.6-.5c0 .5.4 1 .9 1 .6 0 1.3-.5 1.6-1 .3-.6-.1-1-.9-1-.9 0-1.6.4-1.6 1zm5.5 0c-.3.5-.1 1 .4 1 .6 0 1.1-.5 1.1-1 0-.6-.2-1-.4-1-.3 0-.8.4-1.1 1zm-249 1c-.4.7-.3 1.6.3 2.2 1.4 1.4 4.5.2 4-1.5-.6-1.6-3.4-2.1-4.3-.7zm226.2-.1c-2.7.4-5.1 1.2-5.5 1.8-.4.6-1.8 1.3-3.2 1.6-1.4.2.7.5 4.5.5 3.9 0 9-.3 11.5-.8 3.3-.6 2.2-.7-3.9-.3-6.2.4-8.2.3-7.7-.6.4-.6 2.6-1.1 4.9-1.2 2.3-.1 5.3-.5 6.7-.9l2.5-.8h-2.5c-1.4.1-4.7.4-7.3.7zm-230.7 1.6c.7.9 1.5 1.3 1.7 1.1.7-.7-.7-2.6-1.9-2.6-.6 0-.6.6.2 1.5zm45.5.5c-.3.5.1 1 1 1s1.3-.5 1-1c-.3-.6-.8-1-1-1-.2 0-.7.4-1 1zm199 0c-.3.5.1 1 .9 1 .9 0 1.6-.5 1.6-1 0-.6-.4-1-.9-1-.6 0-1.3.4-1.6 1zm5.5 0c0 .5.5 1 1 1 .6 0 1-.5 1-1 0-.6-.4-1-1-1-.5 0-1 .4-1 1zm5.5 0c.3.5.8 1 1.1 1 .2 0 .4-.5.4-1 0-.6-.5-1-1.1-1-.5 0-.7.4-.4 1zm-265.5 1.5c.7.9 1.5 1.3 1.7 1.1.7-.7-.7-2.6-1.9-2.6-.6 0-.6.6.2 1.5zm32.1.1c0 1.1.3 1.4.6.6.3-.7.2-1.6-.1-1.9-.3-.4-.6.2-.5 1.3zm-41.1.1c0 .4.5 1.5 1 2.3.8 1.3 1 1.3 1-.2 0-.9-.4-2-1-2.3-.5-.3-1-.3-1 .2zm114 .7c0 2.1 2.3 3.4 4.5 2.5 3.8-1.5 7.3-1 8.9 1.3 1.2 1.6 3.3 2.4 9.1 3.3 4.2.7 7.8.8 8.1.4.3-.5 1.4-.9 2.5-.9 1.2 0 1.9-.5 1.7-1.2-.5-1.3-4.8-1.3-11.3-.2-1.8.3-2.5.2-1.8-.3 1.3-.9-4.2-3.5-8.1-3.8-1.1-.1-2.2-.7-2.4-1.3-.6-1.8-11.2-1.6-11.2.2zm26-.5c0 .6.5 1.3 1 1.6.6.3 1-.1 1-.9 0-.9-.4-1.6-1-1.6-.5 0-1 .4-1 .9zm-150 .6c0 1 5.3 8.5 5.7 8.1.3-.2-.7-2.3-2.1-4.5-2.4-3.7-3.6-4.9-3.6-3.6zm39.6 1.5c.3 1.4 1 2.9 1.5 3.4 1.4 1.6 1-.6-.7-3.4l-1.5-2.5.7 2.5zm18.1-1.3c-1.2 1.2-.7 2.2.8 1.7.8-.4 1.5-1 1.5-1.5 0-1.1-1.4-1.2-2.3-.2zm157.3.3c0 .5.7 1 1.5 1s1.5-.5 1.5-1c0-.6-.7-1-1.5-1s-1.5.4-1.5 1zm51.5-.3c-2.7.2-5.3.8-5.8 1.2-1.1 1 11.6.1 12.8-1 .5-.6.3-.8-.5-.7-.8.1-3.7.3-6.5.5zm15.3 0c.7.3 1.6.2 1.9-.1.4-.3-.2-.6-1.3-.5-1.1 0-1.4.3-.6.6zm5.2.4c0 .5.5.7 1 .4.6-.3 1-.8 1-1.1 0-.2-.4-.4-1-.4-.5 0-1 .5-1 1.1zm6-.1c0 .5.5 1 1.1 1 .5 0 .7-.5.4-1-.3-.6-.8-1-1.1-1-.2 0-.4.4-.4 1zm-261.5 1c-.8 1.3 1.4 5.2 2.6 4.5.5-.4.9-1.3.9-2.2 0-1.3.2-1.3 1.6-.2 1.4 1.2 1.6 1.1 1.3-.5-.4-2-5.4-3.2-6.4-1.6zm-36.9 1.5c.4.8 1.1 1.5 1.6 1.5.6 0 .5-.6-.2-1.5-.7-.8-1.4-1.5-1.6-1.5-.2 0-.1.7.2 1.5zm10.4-.6c0 .6.4 1.3 1 1.6.6.3.7-.1.4-.9-.7-1.8-1.4-2.1-1.4-.7zm16 0c0 .5.5 1.3 1 1.6.6.3 1 .2 1-.4 0-.5-.4-1.3-1-1.6-.5-.3-1-.2-1 .4zm31 .6c0 .8.4 1.5 1 1.5.5 0 .7-.7.4-1.5-.4-.8-.8-1.5-1-1.5-.2 0-.4.7-.4 1.5zm373.8-.3c-1 .8-1.8 3.2-2 5.8-.3 4.3-.2 4.5 2.7 5 4.4.9 6.4.1 7.1-2.6.9-3.7-.3-6.9-3.1-8.2-3.2-1.5-2.8-1.5-4.7 0zm5.8 4.4c.4 1.7.2 2.9-.7 3.5-2.5 1.6-4.4.5-4.7-2.9-.3-2.8 0-3.2 2.2-3.2 1.9 0 2.7.7 3.2 2.6zm-164.3-3.8c-3.5.2-6.3.6-6.3 1s4.3.6 9.5.4c5.2-.2 9.5-.7 9.5-1.1 0-.7-2.4-.8-12.7-.3zm-257.3 2.1c.5 1.1 1.5 2.3 2.1 2.7.6.3.3-.5-.6-2-2-3-3-3.5-1.5-.7zm9-1c0 .6.4 1.3 1 1.6.6.3.7-.1.4-.9-.7-1.8-1.4-2.1-1.4-.7zm270.8-.2c.7.3 1.6.2 1.9-.1.4-.3-.2-.6-1.3-.5-1.1 0-1.4.3-.6.6zM280.03 89c.7 1.1 1.7 2 2.2 2 .5 0 .1-.9-.9-2s-2-2-2.2-2c-.2 0 .2.9.9 2zm257.3-1c-.3.5-.1 1 .4 1 .6 0 1.1-.5 1.1-1 0-.6-.2-1-.4-1-.3 0-.8.4-1.1 1zm-49.5 1c0 .5.7.7 1.5.4.8-.4 1.5-.8 1.5-1 0-.2-.7-.4-1.5-.4s-1.5.4-1.5 1zm-180.8 3.5c1.1 2 2.3 3.4 2.5 3.1.7-.7-2.6-6.6-3.7-6.6-.5 0 0 1.6 1.2 3.5zm28.5-2.9c-1.6 1.6-.7 4.4 1.4 4.4 1.5 0 2-.5 1.7-2.2-.3-2.2-1.9-3.3-3.1-2.2zm136 .1c-1.3 1.2-.7 2.3 1.3 2.3 1.1 0 2-.7 2-1.5 0-1.5-2.1-2.1-3.3-.8zm60.3.4c0 .5.5.7 1 .4.6-.3 1-.8 1-1.1 0-.2-.4-.4-1-.4-.5 0-1 .5-1 1.1zm12.5-.1c-.3.5-.1 1 .4 1 .6 0 1.1-.5 1.1-1 0-.6-.2-1-.4-1-.3 0-.8.4-1.1 1zm50.3-.3c.7.3 1.6.2 1.9-.1.4-.3-.2-.6-1.3-.5-1.1 0-1.4.3-.6.6zm-278.8.7c0 .2.7.9 1.5 1.6 1.3 1.1 1.4 1 .9-.4-.5-1.4-2.4-2.3-2.4-1.2zm-29 3.1c1.3 1.4 2.6 2.5 2.8 2.5.3 0-.5-1.1-1.8-2.5s-2.6-2.5-2.8-2.5c-.3 0 .5 1.1 1.8 2.5zm2-2.1c0 .2.7.9 1.5 1.6.9.7 1.5.8 1.5.2 0-.5-.7-1.2-1.5-1.6-.8-.3-1.5-.4-1.5-.2zm36.7 3.9c1.8 3.1 2.9 4.2 3.1 3.1.3-1.1 1.1-1.5 2.8-1.1 2.8.5 2.8.6 1.2-2.8-1.5-3.3-4.4-2.9-4.1.5.3 2.4.1 2.3-2.7-1l-3.1-3.5 2.8 4.8zm139.9-2.7c-.9 2.2-.8 2.4.9 2.4.8 0 1.5-.9 1.5-2 0-2.4-1.5-2.7-2.4-.4zm69.9-.6c.3.5.8 1 1.1 1 .2 0 .4-.5.4-1 0-.6-.5-1-1.1-1-.5 0-.7.4-.4 1zm35.1-.1c-.6.8 11.3.3 12.3-.5.2-.2-2.3-.4-5.7-.4-3.3 0-6.3.4-6.6.9zm-255.3 2.5c1.7 2.6 1.3 3.8-.9 2.9-.8-.3-1.4.1-1.4 1.1 0 2.3 2.7 3.1 4.4 1.3 1.3-1.2 1.2-1.8-.5-4.6-1-1.7-2.2-3.1-2.5-3.1-.3 0 .1 1.1.9 2.4zm227.2-1.4c.3.5.8 1 1.1 1 .2 0 .4-.5.4-1 0-.6-.5-1-1.1-1-.5 0-.7.4-.4 1zm-45.2.7c.9.2 2.5.2 3.5 0 .9-.3.1-.5-1.8-.5-1.9 0-2.7.2-1.7.5zm-211.6 2.8c1 1.3 2.2 2.5 2.7 2.5s-.1-1.1-1.4-2.5c-3-3.2-3.6-3.2-1.3 0zm36.6-1.8c-1.9.7-1.6 3.7.5 6.4 2 2.3 6.1 2.1 4.6-.3-.6-.9-.9-.9-1.2 0-.9 2.8-2.4 1-1.9-2.3.6-3.6.1-4.5-2-3.8zm125.5 0c.7.3 1.6.2 1.9-.1.4-.3-.2-.6-1.3-.5-1.1 0-1.4.3-.6.6zm-164.6 3.2c1.3 1.7 2.7 3 3.1 3 .5.1-.2-1.2-1.5-2.8-1.3-1.7-2.7-3-3.1-3-.5-.1.2 1.2 1.5 2.8zm157.1-1.7c-1.8.6-3.3 1.5-3.3 1.9 0 .4 1.7.1 3.8-.8 6-2.4 5.7-3.1-.5-1.1zm18.9.4c.4 2.1 2.2 2.3 2.6.1.2-1-.3-1.7-1.3-1.7s-1.5.6-1.3 1.6zm85.6-.9c.7.3 1.6.2 1.9-.1.4-.3-.2-.6-1.3-.5-1.1 0-1.4.3-.6.6zm-91.5 1.8c-.3.9-.3 1.8 0 2.1.9.9 2.7-.6 2.7-2.2 0-1.9-1.9-1.8-2.7.1zm83.2-.8c-3.3.7-4.8 1.3-4.4 1.8.3.2 2.7-.2 5.4-1 4.6-1.2 3.7-1.9-1-.8zm-89.2 2.8c-.3.9-.3 1.8 0 2.1.9.9 2.7-.6 2.7-2.2 0-1.9-1.9-1.8-2.7.1zm17.2-.5c-.3.5-.1 1 .4 1 .6 0 1.1-.5 1.1-1 0-.6-.2-1-.4-1-.3 0-.8.4-1.1 1zm45.9.2c-.3.4.4.8 1.5.8s2.2-.4 2.6-.9c.3-.6-.4-.9-1.6-.8-1.1.1-2.3.5-2.5.9zm14.7-.1c-2.4.5-4.7 1.1-5 1.5-.9 1.1 8.3-.6 9.4-1.7.5-.5.7-.9.5-.8-.3.1-2.5.5-4.9 1zm-274.4.6c-1.3 1.2-.7 2.3 1.3 2.3 1.1 0 2-.7 2-1.5 0-1.5-2.1-2.1-3.3-.8zm54 0c-1.6 1.5-.6 3.3 1.8 3.3 1.8 0 2.5-.5 2.5-2 0-2-2.8-2.8-4.3-1.3zm33.9 2c.4 1.6 1.1 3.2 1.7 3.8.6.7.8.2.3-1.5-.3-1.4-.6-3.1-.6-3.8 0-.6-.5-1.2-1-1.2-.6 0-.8 1.1-.4 2.7zm380.4-1.8c0 .5 3.7 3.4 8.3 6.5 9.9 6.8 13.9 10 11.5 9.2-1-.3-1.8-.2-1.8.3 0 .4 1.8 1.3 4.1 2s4.7 1.5 5.5 1.8c2.2.8 1.6-1.6-1.1-4.9-1.4-1.6-2.5-3.6-2.5-4.4 0-.8-.5-1.4-1-1.4-.6 0-.8 1.1-.4 2.7.6 2.4-.3 2-10.4-5-11.2-7.8-12.2-8.4-12.2-6.8zm-422.4 1.8c-.4.9-.1 2.3.7 3 1.2 1.2 1.6 1.2 2.6-.1 1.6-1.9.8-4.6-1.3-4.6-.7 0-1.7.8-2 1.7zm117.9-.5c-1.6.6-4.6 2-6.5 3.1-1.9 1-4.5 2.3-5.7 2.8-2.1.8-2.2.6-1.6-2.3.6-3 .2-2.8-6.1 3.7-3.6 3.7-6.5 7-6.2 7.2.2.2 2.8-.3 5.7-1.1 2.9-.9 6.6-1.6 8.3-1.6 2.3 0 2.7-.3 1.8-1.2-.7-.7-1.2-1.5-1.2-1.9 0-.3 3.6-2.3 8-4.3 4.5-2 7.8-4.1 7.5-4.6-.3-.6-.7-1-.8-.9-.1 0-1.5.5-3.2 1.1zm26.2-.5c-1.1 1-.8 2 .8 2.7 1 .4 1.5-.1 1.5-1.4 0-2-1.1-2.6-2.3-1.3zm95.1 0c.7.3 1.6.2 1.9-.1.4-.3-.2-.6-1.3-.5-1.1 0-1.4.3-.6.6zm-200.8 1.6c0 1 .8 1.7 1.8 1.7.9 0 1.3-.4.7-.8-.5-.4-1.3-1.1-1.7-1.6-.5-.5-.8-.2-.8.7zm209.5-.3c-1.6.7-1.7.9-.3.9.9.1 2-.4 2.3-.9.7-1.1.7-1.1-2 0zm-109.8.7c-1.3 1.2-.7 3.3.8 3.3.8 0 1.5-.9 1.5-2 0-2-1.1-2.6-2.3-1.3zm16.3.3c0 .5.5 1 1 1 .6 0 1-.5 1-1 0-.6-.4-1-1-1-.5 0-1 .4-1 1zm13.5 0c.4.6 1.1.8 1.6.5 1.4-.9 1.1-1.5-.7-1.5-.8 0-1.2.5-.9 1zm-218.3 1.6c.4 2.1 2.2 2.3 2.6.1.2-1-.3-1.7-1.3-1.7s-1.5.6-1.3 1.6zm43.2-.5c-.9 1.5 1.1 3.2 4 3.4l2.4.1-2.2-2.3c-2.4-2.5-3.2-2.8-4.2-1.2zm40.1-.1c-.3.5.1 1 1 1s1.3-.5 1-1c-.3-.6-.8-1-1-1-.2 0-.7.4-1 1zm3.5.4c0 .8.4 1.7.9 2 .5.4.7-.3.4-1.4-.6-2.3-1.3-2.6-1.3-.6zm124.5-.4c-1.3.5-1.4.9-.5.9.8 0 2.4-.4 3.5-.9 1.3-.5 1.4-.9.5-.9-.8 0-2.4.4-3.5.9zm55.2.2c-1.6 1 3 .9 6.3-.2 2.2-.7 2-.8-1.3-.7-2.1.1-4.3.5-5 .9zm20.3-.3c-1.9.3-3 .9-2.5 1.2.6.3 3 0 5.5-.7 4.7-1.3 3-1.6-3-.5zm-251 1.9c0 1.3 3 5.2 4 5.2.5 0 .7-.7.4-1.5-.5-1.1-.2-1.3 1-.9 2.3.9 2-1.3-.3-2.6-2.3-1.2-5.1-1.3-5.1-.2zm39 .2c0 .8.5 2.2 1 3 .9 1.3 1 1.3 1 0 0-.8-.5-2.2-1-3-.9-1.3-1-1.3-1 0zm4.9 0c-1.9 1.3-.8 1.8 2.1 1 1.9-.4 2.1-.7.9-1.2-.9-.3-2.2-.2-3 .2zm101.2.4c-.9 1-.9 1.6-.1 2.1 1.3.8 4.2-1.4 3.4-2.6-.8-1.3-2-1.1-3.3.5zm95.7-.7c.6.2 1.8.2 2.5 0 .6-.3.1-.5-1.3-.5-1.4 0-1.9.2-1.2.5zm-298.6 1.6c-1.1 1.2-5.2 11.6-5.2 12.9 0 1.4 2.7.9 4-.7 1.6-1.9 5-2 5-.1s1.7 2.9 3.6 2.2c1.3-.5 1.3-.9.1-2.8-.8-1.3-2-4.4-2.8-7-1.4-4.9-3.1-6.5-4.7-4.5zm3.2 6.2c.3.9 0 1.5-.9 1.5-.8 0-1.5-.7-1.5-1.5s.4-1.5.9-1.5 1.1.7 1.5 1.5zm13.3-5.8c-1.1 1.1-.8 2.1 1 2.7 1.7.7 3.6-1.2 2.7-2.6-.6-1-2.8-1-3.7-.1zm66.3.5c0 .7.4 1.9.9 2.6.7 1.1 1.1 1.1 2.4-.2 1.8-1.8 3.4-2.1 3.9-.6.2.6 1.5.6 3.3.1l3-.8-3-.6c-8.7-1.7-10.5-1.8-10.5-.5zm3 .8c0 .5-.2 1-.4 1-.3 0-.8-.5-1.1-1-.3-.6-.1-1 .4-1 .6 0 1.1.4 1.1 1zm110.6-1.1c-.9 1.4.5 4.2 1.8 3.8 1.5-.5 1.4-3.9-.1-4.4-.6-.2-1.4 0-1.7.6zm23.4.1c-.8.5-1 1-.5 1 .6 0 1.7-.5 2.5-1s1.1-1 .5-1c-.5 0-1.7.5-2.5 1zm23.5 0c.3.5 1 1 1.6 1 .5 0 .9-.5.9-1 0-.6-.7-1-1.6-1-.8 0-1.2.4-.9 1zm15.5 0c0 1.2.8 1.2 3.5 0 1.8-.8 1.7-.9-.7-.9-1.6-.1-2.8.3-2.8.9zm-182.9.7c-.1.7-.8 1-1.8.6-1.2-.5-1.5-.2-1.1.9.5 1.1.1 1.4-1.8 1-1.4-.2-2.4 0-2.4.7 0 .6-.9 1.1-2 1.1s-2 .4-2 .9c0 .6-1.7.8-3.7.6l-3.8-.4 4.3 1.1c5.2 1.3 5.6 2.9.5 1.7-2.1-.5-4.9-.8-6.3-.8-1.4.1.2.8 3.5 1.6 6 1.4 10.5 1.1 10.5-.8 0-.5-1-1.4-2.2-1.9-1.3-.5-1.7-.9-1-.9.7-.1 2.1.4 3.2 1.1 1.4.9 2.4.9 4.2.1 1.3-.6 2.8-1.3 3.5-1.5.8-.2.8-1.1-.2-3.3-.7-1.7-1.4-2.5-1.4-1.8zm-3.1 4.3c1.2.8 1.1 1-.7 1-1.3 0-2.3-.5-2.3-1 0-1.3 1.1-1.3 3 0zm6-3.1c0 1 .7 2.1 1.5 2.5 1 .3 1.5-.1 1.5-1.3 0-1-.7-2.1-1.5-2.5-1-.3-1.5.1-1.5 1.3zm174.5-.9c-.3.5-.1 1 .4 1 .6 0 1.1-.5 1.1-1 0-.6-.2-1-.4-1-.3 0-.8.4-1.1 1zm45.5-.1c0 .4 1.1.6 2.5.3 1.4-.2 2.5-.6 2.5-.8 0-.2-1.1-.4-2.5-.4s-2.5.4-2.5.9zm-65.5 1.1-2 .9h2c1.1 0 2.7-.4 3.5-.9 1.3-.9 1.3-1 0-.9-.8 0-2.4.4-3.5.9zm14.5 0c0 .5.5 1 1 1 .6 0 1-.5 1-1 0-.6-.4-1-1-1-.5 0-1 .4-1 1zm16 0c0 .5.5 1 1 1 .6 0 1-.5 1-1 0-.6-.4-1-1-1-.5 0-1 .4-1 1zm6 .1c0 .5.5.7 1 .4.6-.3 1-.8 1-1.1 0-.2-.4-.4-1-.4-.5 0-1 .5-1 1.1zm155 .8c0 1.2.5 2.1 1 2.1.6 0 1-.6 1-1.4 0-.8-.4-1.8-1-2.1-.5-.3-1 .3-1 1.4zm-234.3.5c-.6 1.5.1 2.6 1.5 2.6.4 0 .8-.9.8-2 0-2.3-1.5-2.7-2.3-.6zm29.8-.4c-1.3.6-1.5.9-.5.9.8 0 2.2-.4 3-.9 1.8-1.2.2-1.2-2.5 0zm36 0c-.3.5-.1 1 .4 1 .6 0 1.1-.5 1.1-1 0-.6-.2-1-.4-1-.3 0-.8.4-1.1 1zm-31 1c-1.3.5-1.4.9-.5.9.8 0 2.4-.4 3.5-.9 1.3-.5 1.4-.9.5-.9-.8 0-2.4.4-3.5.9zm16.3-.3c.7.3 1.6.2 1.9-.1.4-.3-.2-.6-1.3-.5-1.1 0-1.4.3-.6.6zm8.7.3c-.3.5-.1 1 .4 1 .6 0 1.1-.5 1.1-1 0-.6-.2-1-.4-1-.3 0-.8.4-1.1 1zm-18.5 1.4c-11.3 3.2-16.1 4.8-15.7 5.3.5.4 7.4-1.5 19.2-5.3 5.2-1.6 2.4-1.6-3.5 0zm34.8-.7c.7.3 1.6.2 1.9-.1.4-.3-.2-.6-1.3-.5-1.1 0-1.4.3-.6.6zm6 0c.7.3 1.6.2 1.9-.1.4-.3-.2-.6-1.3-.5-1.1 0-1.4.3-.6.6zm-260.1 1c-1.3 1.2-.7 3.3.8 3.3.8 0 1.5-.9 1.5-2 0-2-1.1-2.6-2.3-1.3zm171.8 1.3c-.8 1.3.4 3.2 1.6 2.5 1.2-.8 1.2-3.5 0-3.5-.6 0-1.3.4-1.6 1zm30 .5-3 1.4 3-.6c1.7-.3 3.7-.9 4.5-1.4 2.7-1.5-1.1-1-4.5.6zm18.7.6c-3.5 1.1-6.2 2.2-6 2.4.5.6 11.1-2.6 12.3-3.6 1.2-1.2 1.1-1.1-6.3 1.2zm19.6-1.4c.6.2 1.8.2 2.5 0 .6-.3.1-.5-1.3-.5-1.4 0-1.9.2-1.2.5zm-133.8 1.3c0 .5.5 1 1.1 1 .5 0 .7-.5.4-1-.3-.6-.8-1-1.1-1-.2 0-.4.4-.4 1zm126.5-.3c-5.6 1.3-15.6 4.6-15.2 5 .3.2 3.6-.5 7.3-1.5 3.8-1.1 8.5-2.5 10.4-3 3.5-1 1.4-1.4-2.5-.5zm-132 1.3c-.3.5.1 1 .9 1 .9 0 1.6-.5 1.6-1 0-.6-.4-1-.9-1-.6 0-1.3.4-1.6 1zm65.1.6c-.8 2.1-.1 2.8 1.9 2 .9-.3 1.5-1.1 1.3-1.8-.7-1.9-2.5-2-3.2-.2zm27.9.4c-1.3.5-1.4.9-.5.9.8 0 2.4-.4 3.5-.9 1.3-.5 1.4-.9.5-.9-.8 0-2.4.4-3.5.9zm-154 1.8c.4 1-.4 1.1-3.1.6-2.8-.5-3.6-.4-3.2.6.6 1.9 5.7 2.3 8.2.7 1.2-.8 3.1-1.7 4.1-1.9 1.1-.2.1-.6-2.3-.9-3.2-.3-4.1-.1-3.7.9zm39.5-.8c-.9.6-1 1-.3 1 .6 0 1.5-.5 1.8-1 .8-1.2.4-1.2-1.5 0zm173.5 0c-.3.5.9.8 3 .6 4.8-.4 5.7-1.6 1.2-1.6-2 0-3.8.4-4.2 1zm-150 1c-.3.5-.2 1 .4 1 .5 0 1.3-.5 1.6-1 .3-.6.2-1-.4-1-.5 0-1.3.4-1.6 1zm19.5.1c0 .5.5.7 1 .4.6-.3 1-.8 1-1.1 0-.2-.4-.4-1-.4-.5 0-1 .5-1 1.1zm38.1.8c-.6 1-.7 2.1-.4 2.5.9.8 3.3-1.4 3.3-3 0-2-1.8-1.7-2.9.5zm28.4-.9c-.3.6.1.7.9.4 1.8-.7 2.1-1.4.7-1.4-.6 0-1.3.4-1.6 1zm8.5 0c-.8.5-1 1-.5 1 .6 0 1.7-.5 2.5-1s1.1-1 .5-1c-.5 0-1.7.5-2.5 1zm7.1 1.2c-3.4 1-6.1 2.2-5.8 2.5.7.6 10.8-2.6 12.2-3.8 1.1-1.1 1.4-1.2-6.4 1.3zm22.9-.5c-3 .8-5.9 1.8-6.3 2.3-.5.4 2.4-.1 6.4-1.2 7.2-1.9 9.7-2.9 6.8-2.7-.8 0-3.9.7-6.9 1.6zm19-.7c-1.3.8-1.3 1 .2 1 .9 0 2-.5 2.3-1 .8-1.3-.5-1.3-2.5 0zm86.8-.3c.7.3 1.6.2 1.9-.1.4-.3-.2-.6-1.3-.5-1.1 0-1.4.3-.6.6zm-249.8 1.3c-1.3.8-1.2 1 .3 1 .9 0 1.7-.5 1.7-1 0-1.2-.1-1.2-2 0zm-56 1c0 .5 1.1 1 2.5 1s2.5-.5 2.5-1c0-.6-1.1-1-2.5-1s-2.5.4-2.5 1zm68.8-.3c.7.3 1.6.2 1.9-.1.4-.3-.2-.6-1.3-.5-1.1 0-1.4.3-.6.6zm95.7.3c-1.3.6-1.5.9-.5.9.8 0 2.2-.4 3-.9 1.8-1.2.2-1.2-2.5 0zm19.5 0c-1.3.8-1.2 1 .3 1 .9 0 1.7-.5 1.7-1 0-1.2-.1-1.2-2 0zm27.8-.3c.6.2 1.8.2 2.5 0 .6-.3.1-.5-1.3-.5-1.4 0-1.9.2-1.2.5zm16 0c.7.3 1.6.2 1.9-.1.4-.3-.2-.6-1.3-.5-1.1 0-1.4.3-.6.6zm-165.3 1.3c-.3.5-.1 1 .4 1 .6 0 1.1-.5 1.1-1 0-.6-.2-1-.4-1-.3 0-.8.4-1.1 1zm142 0-2 .9h2c1.1 0 2.7-.4 3.5-.9 1.3-.9 1.3-1 0-.9-.8 0-2.4.4-3.5.9zm17.3-.3c.7.3 1.6.2 1.9-.1.4-.3-.2-.6-1.3-.5-1.1 0-1.4.3-.6.6zm72 0c.7.3 1.6.2 1.9-.1.4-.3-.2-.6-1.3-.5-1.1 0-1.4.3-.6.6zm-297.8 1.3c-1.2.7-1.2 1.2-.2 2.2.9.9 1.5.9 2.4 0 1.6-1.6-.2-3.4-2.2-2.2zm94 0c-1.3.8-1.2 1 .3 1 .9 0 1.7-.5 1.7-1 0-1.2-.1-1.2-2 0zm35 1.5c-1 1.2-.9 1.6.3 2.1 2 .7 3.7-.3 3.7-2.2 0-1.8-2.4-1.8-4 .1zm61-.5c-.8.5-1.2 1.1-.9 1.4.3.3 1.4-.1 2.5-.9 2.1-1.6.8-2-1.6-.5zm20.1.6c-5.8 1.5-8.7 3.2-3.6 2 6.7-1.6 10.5-2.7 10.5-3.1 0-.7-.8-.6-6.9 1.1zm-141.1.4c0 .5.7.7 1.5.4.8-.4 1.5-.8 1.5-1 0-.2-.7-.4-1.5-.4s-1.5.4-1.5 1zm35 0c-1.3.8-1.2 1 .3 1 .9 0 1.7-.5 1.7-1 0-1.2-.1-1.2-2 0zm5 0c0 .5.5 1 1 1 .6 0 1-.5 1-1 0-.6-.4-1-1-1-.5 0-1 .4-1 1zm90.8-.3c.7.3 1.6.2 1.9-.1.4-.3-.2-.6-1.3-.5-1.1 0-1.4.3-.6.6zm102 0c.7.3 1.6.2 1.9-.1.4-.3-.2-.6-1.3-.5-1.1 0-1.4.3-.6.6zm-204.8 1.3c0 .5.7.7 1.5.4.8-.4 1.5-.8 1.5-1 0-.2-.7-.4-1.5-.4s-1.5.4-1.5 1zm-91.5 1c-.7 1.2.2 3 1.6 3 .5 0 .9-.9.9-2 0-2.1-1.5-2.7-2.5-1zm212.3-.3c.6.2 1.8.2 2.5 0 .6-.3.1-.5-1.3-.5-1.4 0-1.9.2-1.2.5zm86.5.1c-.6.4 1.4.8 4.5.8 4.1.2 5 0 3.2-.6-3.3-1.1-6.2-1.1-7.7-.2zm-219.3 1.2c0 1.3 1.1 1.3 3 0 1.2-.8 1.1-1-.7-1-1.3 0-2.3.4-2.3 1zm21.5 0c-.3.5-.1 1 .4 1 .6 0 1.1-.5 1.1-1 0-.6-.2-1-.4-1-.3 0-.8.4-1.1 1zm5.8-.3c.9.2 2.5.2 3.5 0 .9-.3.1-.5-1.8-.5-1.9 0-2.7.2-1.7.5zm11.4.7c-.6 1.6 1.9 3 2.8 1.6.7-1.1-.2-3-1.5-3-.4 0-1 .6-1.3 1.4zm81 .8c-4.3 1.1-7.6 2.2-7.4 2.5.5.5 18.7-3.7 18.7-4.3 0-.8-3.5-.2-11.3 1.8zm-9.7-.2c-1.3.9-1.3 1 0 1 .8 0 2.2-.5 3-1 1.3-.9 1.3-1 0-1-.8 0-2.2.5-3 1zm23.5.5c-3.3.8-6.6 1.4-7.4 1.4-.8.1-1.2.3-.9.6.7.8 14-1.6 15.3-2.7 1.2-1 .5-1-7 .7zm-206 .5c-.7 1.2.2 3 1.6 3 1.2 0 1.2-2.7 0-3.5-.5-.3-1.2-.1-1.6.5zm105.6.4c-.9 1-.9 1.6-.1 2.1 1.7 1 3.7-1.2 2.4-2.5-.8-.8-1.5-.6-2.3.4zm55.9-.4c-.8.5-1 1-.5 1 .6 0 1.7-.5 2.5-1s1.1-1 .5-1c-.5 0-1.7.5-2.5 1zm141.3-.3c.9.2 2.5.2 3.5 0 .9-.3.1-.5-1.8-.5-1.9 0-2.7.2-1.7.5zm-126.8 1.3c-1.3.5-1.4.9-.5.9.8 0 2.4-.4 3.5-.9 1.3-.5 1.4-.9.5-.9-.8 0-2.4.4-3.5.9zm-168.8.7c-.4.3-.7 1.2-.7 2 0 1.5 2.6 1.8 3.4.4.7-1.1-1.8-3.3-2.7-2.4zm59.8.3c-1.8.8-1.8.9.5.9 1.4 0 3.4-.4 4.5-.9 1.8-.8 1.8-.9-.5-.9-1.4 0-3.4.4-4.5.9zm32.6.4c-.9 1-.9 1.6-.1 2.1 1.7 1 3.7-1.2 2.4-2.5-.8-.8-1.5-.6-2.3.4zm-330.4.3c-.4.3-.7 3.2-.7 6.3 0 6.9 1.2 8.2 7.1 7.8 5.6-.4 6.5-2.8 1-2.8-5 0-6.1-1.5-2-2.9 3.2-1.1 3.1-3.1-.2-3.1-1 0-1.9-.5-1.9-1 0-.6 1.6-1 3.5-1 4 0 4.9-2.4 1.3-3.4-3.1-.8-7.3-.8-8.1.1zm311.6 0c.9.2 2.5.2 3.5 0 .9-.3.1-.5-1.8-.5-1.9 0-2.7.2-1.7.5zm113.5 0c.7.3 1.6.2 1.9-.1.4-.3-.2-.6-1.3-.5-1.1 0-1.4.3-.6.6zm7.7.5c-8.1 1.9-17.7 4.9-17.3 5.4.3.2 2.7-.3 5.4-1.1s8.5-2.4 12.9-3.4 6.9-1.9 5.5-1.9c-1.4 0-4.3.4-6.5 1zm-108 .8c-.4.6-2.1 1-3.8.8-2.4-.2-3.3.1-3.5 1.4-.4 1.9 2.2 2.5 3.3.8.3-.6 1.9-1 3.6-1 1.6 0 2.9-.4 2.9-.9 0-1.5-1.8-2.2-2.5-1.1zm83 .5c-2.5 1.2-2.6 1.4-.5.9 2.8-.7 6-2.3 4.5-2.3-.5 0-2.3.6-4 1.4zm13.3-.8c.7.3 1.6.2 1.9-.1.4-.3-.2-.6-1.3-.5-1.1 0-1.4.3-.6.6zm116.7.2c-.3.6 1.6 1 4.5.9 2.7 0 5-.4 5-.9 0-1.2-8.7-1.2-9.5 0zm-293.5 2c0 1.2.6 2.1 1.6 2.1.9 0 1.4-.7 1.2-1.7-.5-2.5-2.8-2.8-2.8-.4zm165.7.8c-3.7 1.4-6.6 2.8-6.3 3 .4.5 15.6-4.7 15.6-5.3 0-.9-2.9-.2-9.3 2.3zm-192.7-.9c0 .6 1 1.6 2.3 2.3 1.2.6 4.6 3.4 7.5 6.2 5 4.9 6.8 5.4 3.7 1.1-2.2-3.2-.8-3.5 4.9-1.2 2.8 1.1 6.2 2.4 7.6 2.8 1.4.4 3.3 1.1 4.3 1.5 1.1.5 1.7.2 1.7-.7 0-.8-1.5-2-3.2-2.6-10.6-3.5-15.8-5.6-15.8-6.3 0-.5.9-.9 1.9-.9 1.1 0 2.3-.5 2.6-1 .4-.6-1.6-1-5.3-1-3.3 0-7.4-.3-9.1-.6-1.9-.4-3.1-.2-3.1.4zm34 2.1c0 2.2 1.5 3.5 3 2.6.7-.4.7-1.3 0-2.6-1.4-2.5-3-2.5-3 0zm39-.9c-.9.6-1 1-.3 1 .6 0 1.5-.5 1.8-1 .8-1.2.4-1.2-1.5 0zm20 .4c0 1.1.9 1.6 2.6 1.6 3.1 0 2.8-2.3-.4-2.8-1.5-.2-2.2.2-2.2 1.2zm-5.6.9c-.8 2.2 1.1 4.6 2.6 3.1.7-.7.5-1.7-.4-3-1.4-1.8-1.5-1.8-2.2-.1zm-46.2 1.8c.1 1.2.9 2.4 1.6 2.7.9.3 1.3-.3 1-1.9-.1-1.2-.9-2.4-1.6-2.7-.9-.3-1.3.3-1 1.9zm36.3-1.1c.4.6 1.1.8 1.6.5 1.4-.9 1.1-1.5-.7-1.5-.8 0-1.2.5-.9 1zm32.3-.3c.6.2 1.8.2 2.5 0 .6-.3.1-.5-1.3-.5-1.4 0-1.9.2-1.2.5zm-61.3 2.3c-.7 1.2.2 3 1.6 3 1.2 0 1.2-2.7 0-3.5-.5-.3-1.2-.1-1.6.5zm31.5 1.7c0 2.5.1 2.6 2 .8 2.1-1.9 1.8-3.5-.6-3.5-.9 0-1.4 1-1.4 2.7zm24.8-2c.6.2 1.8.2 2.5 0 .6-.3.1-.5-1.3-.5-1.4 0-1.9.2-1.2.5zm94.7.3c-.3.6.1.7.9.4 1.8-.7 2.1-1.4.7-1.4-.6 0-1.3.4-1.6 1zm-124 1c-.3.5-.2 1 .4 1 .5 0 1.3-.5 1.6-1 .3-.6.2-1-.4-1-.5 0-1.3.4-1.6 1zm19.5 0-2.5.8h2.5c1.4 0 3.9-.4 5.5-.8l3-.8h-3c-1.6 0-4.1.4-5.5.8zm22.5 0c-.3.5-.1 1 .4 1 .6 0 1.1-.5 1.1-1 0-.6-.2-1-.4-1-.3 0-.8.4-1.1 1zm4.5 0c0 .5.5 1 1.1 1 .5 0 .7-.5.4-1-.3-.6-.8-1-1.1-1-.2 0-.4.4-.4 1zm-66.8 1.2c.3.7 1.3 1.5 2.2 1.6 1.2.3 1.7-.1 1.4-1-.3-.7-1.3-1.5-2.2-1.6-1.2-.3-1.7.1-1.4 1zm54.6-.5c1.2.2 3 .2 4 0 .9-.3-.1-.5-2.3-.4-2.2 0-3 .2-1.7.4zm76.7.3c-.3.6.1.7.9.4 1.8-.7 2.1-1.4.7-1.4-.6 0-1.3.4-1.6 1zm5.2.6c-1.6.9-2.7 1.8-2.4 2.1.6.5 6.7-2.4 6.7-3.2 0-.8-1.4-.5-4.3 1.1zm10.3 0-2.5 1.5 2.5-.7c2.8-.7 3.5-1.2 2.9-1.8-.2-.2-1.5.2-2.9 1zm9.5-.6c-1.3.5-1.4.9-.5.9.8 0 2.4-.4 3.5-.9 1.3-.5 1.4-.9.5-.9-.8 0-2.4.4-3.5.9zm236 .2c-.9 2.7-2.1 18.9-1.4 19.4 1.2.7 1.9-2.6 2.6-11.7.5-7.9 0-11.2-1.2-7.7zm-228.7.5c.6.2 1.8.2 2.5 0 .6-.3.1-.5-1.3-.5-1.4 0-1.9.2-1.2.5zm183.7.9c.9.9 1.8 1.4 2.1 1.1.9-.9-.6-2.7-2.2-2.7-1.3 0-1.3.2.1 1.6zm3.5.9c0 1.4.5 2.5 1 2.5.6 0 1-1.1 1-2.5s-.4-2.5-1-2.5c-.5 0-1 1.1-1 2.5zm3 .4c0 1.7.5 3.3 1 3.6.6.4 1-.8 1-2.9 0-2-.4-3.6-1-3.6-.5 0-1 1.3-1 2.9zm41.8.6c-1.2 6.1-1 11.1.3 9.8.5-.5.9-3.8.7-7.4-.3-6.1-.3-6.2-1-2.4zm-341.8-1.8c-4.2.7-10.2 2.4-9.9 2.8.2.1 4.5-.5 9.4-1.5 7.6-1.5 8-2.6.5-1.3zm103.5.8c-1.6.7-2.3 1.4-1.5 1.4.8 0 2.6-.6 4-1.4 3.2-1.8 1.4-1.8-2.5 0zm-149.2 1.2c.9.9 1.9 1.4 2.3 1.1 1-1-.6-2.8-2.4-2.8-1.5 0-1.5.1.1 1.7zm20-.2c-.3.9-.3 1.9.1 2.2.8.9 3.7-1.8 3-2.8-.8-1.4-2.4-1.1-3.1.6zm39.5.2c1.2.2 3.2.2 4.5 0 1.2-.2.2-.4-2.3-.4s-3.5.2-2.2.4zm78.2.3c-.8.5-1 1-.5 1 .6 0 1.7-.5 2.5-1s1.1-1 .5-1c-.5 0-1.7.5-2.5 1zm16 0c-.8.5-1 1-.5 1 .6 0 1.7-.5 2.5-1s1.1-1 .5-1c-.5 0-1.7.5-2.5 1zm28 0c0 .5.4 1 .9 1 .6 0 1.3-.5 1.6-1 .3-.6-.1-1-.9-1-.9 0-1.6.4-1.6 1zm-175.5.9c-.6 1.1 2.9 3.3 3.9 2.4.7-.7-1.2-3.3-2.5-3.3-.4 0-1 .4-1.4.9zm73 .1c-.3.6.1.7.9.4 1.8-.7 2.1-1.4.7-1.4-.6 0-1.3.4-1.6 1zm7 0c.3.5.8 1 1.1 1 .2 0 .4-.5.4-1 0-.6-.5-1-1.1-1-.5 0-.7.4-.4 1zm106 0c.3.5.8 1 1.1 1 .2 0 .4-.5.4-1 0-.6-.5-1-1.1-1-.5 0-.7.4-.4 1zm104.5 0c-1.3.8-1.3 1 .2 1 .9 0 2-.5 2.3-1 .8-1.3-.5-1.3-2.5 0zm-271.3.6c-1.4 1.4-.7 3.5 1.1 3.2.9-.2 1.7-1 1.7-1.7 0-1.6-1.8-2.5-2.8-1.5zm42.1.1c1.7.2 4.7.2 6.5 0 1.7-.2.3-.4-3.3-.4-3.6 0-5 .2-3.2.4zm-54.6 1.9c.2 1.1 1.1 2 2.2 2.2 1.3.3 1.7-.1 1.4-1.4-.2-1.1-1.1-2-2.2-2.2-1.3-.3-1.7.1-1.4 1.4zm40.6-.9c1.2.2 3.2.2 4.5 0 1.2-.2.2-.4-2.3-.4s-3.5.2-2.2.4zm90.7.3c-1.6.7-1.3.9 1.8.9 2 .1 3.7-.4 3.7-.9 0-1.2-2.7-1.2-5.5 0zm120.8-.3c.9.2 2.3.2 3 0 .6-.3-.1-.5-1.8-.5-1.6 0-2.2.2-1.2.5zm28.3.7c.3.9 1.1 1.6 1.6 1.6 1.3 0 .5-2.3-1-2.8-.7-.2-1 .2-.6 1.2zm-222.8.3c1.2.2 3 .2 4 0 .9-.3-.1-.5-2.3-.4-2.2 0-3 .2-1.7.4zm12 0c.7.3 1.6.2 1.9-.1.4-.3-.2-.6-1.3-.5-1.1 0-1.4.3-.6.6zm72.2.3c-1.3.9-1.3 1 0 .9.8 0 2.4-.4 3.5-.9l2-.9h-2c-1.1 0-2.7.4-3.5.9zm95.5 0c.3.5 1.2.7 2 .3 2.1-.7 1.9-1.3-.6-1.3-1.1 0-1.8.4-1.4 1zm6.3-.3c.6.2 1.8.2 2.5 0 .6-.3.1-.5-1.3-.5-1.4 0-1.9.2-1.2.5zm-544.3 3.7c-3.7 3.1-3.8 3.4-1.9 4.4 1.1.5 3.7 1.3 5.9 1.7 3.7.6 3.8.5 2.1-.9-1.7-1.4-1.6-1.5 2-2.1 2.2-.3 6.1-1.1 8.7-1.6 2.6-.5 6.3-.9 8.2-.9 1.9 0 3.7-.5 4.1-1.1 1.3-2.2-1.2-2.7-6.6-1.5-3.1.7-8.7 1.7-12.5 2.1l-7 .7 1.9-2.1c3.1-3.5-.3-2.5-4.9 1.3zm318.7-1.7c.4 2.1 3.3 2.5 3.3.3 0-.8-.8-1.6-1.8-1.8-1.4-.3-1.8.1-1.5 1.5zm135.8-.7c-1.1.8-.7.9 1.5.4 3.7-.8 4.5-1.4 1.9-1.4-1 0-2.6.5-3.4 1zm29.8-.3c.6.2 1.8.2 2.5 0 .6-.3.1-.5-1.3-.5-1.4 0-1.9.2-1.2.5zm-222.8 1.3c-1.2.8-1.1 1 .7 1 1.2 0 2.5-.5 2.8-1 .8-1.3-1.5-1.3-3.5 0zm46.5 0c-.4.6-.3 1.6.3 2.2.6.6 1.2.6 1.7-.2.4-.6.3-1.6-.3-2.2-.6-.6-1.2-.6-1.7.2zm-39 1c-.3.5-.2 1 .4 1 .5 0 1.3-.5 1.6-1 .3-.6.2-1-.4-1-.5 0-1.3.4-1.6 1zm190.8-.3c.9.2 2.3.2 3 0 .6-.3-.1-.5-1.8-.5-1.6 0-2.2.2-1.2.5zm99.2.3c-1.9.8-1.9.9.3.9 1.2.1 2.2-.4 2.2-.9 0-.6-.1-1-.2-.9-.2 0-1.2.4-2.3.9zm8.3-.3c.7.3 1.6.2 1.9-.1.4-.3-.2-.6-1.3-.5-1.1 0-1.4.3-.6.6zm-312.8 1c-1.4.3-2.9.9-3.5 1.5-1.3 1.3 5.6 0 7-1.3 1-.9.8-1-3.5-.2zm59.2.7c.1 1 .8 1.7 1.3 1.7 1.5-.1 1.2-2.4-.3-2.9-.9-.3-1.3.2-1 1.2zm214.6.3c.6.2 1.8.2 2.5 0 .6-.3.1-.5-1.3-.5-1.4 0-1.9.2-1.2.5zm-283 1c-1 .2-1.8.8-1.8 1.3 0 .4.9.6 2 .3s2-.9 2-1.4c0-.5-.1-.8-.2-.8-.2.1-1.1.3-2 .6zm18 0c.7.3 1.6.2 1.9-.1.4-.3-.2-.6-1.3-.5-1.1 0-1.4.3-.6.6zm62.3.2c-1.5 1-.8 4.1.9 4.1 1.5 0 2.5-2.9 1.4-4-.5-.5-1.5-.5-2.3-.1zm-74.9 2.1c-4.5.9-8.6 2.1-9 2.5-.4.4.2.5 1.3.2s4.8-1.1 8.3-1.7c6.2-1.1 12.1-2.9 9.2-2.8-.8 0-5.2.8-9.8 1.8zm16.3-1c-.3.5-.1 1 .4 1 .6 0 1.1-.5 1.1-1 0-.6-.2-1-.4-1-.3 0-.8.4-1.1 1zm53 0c-.3.5-.1 1 .4 1 .6 0 1.1-.5 1.1-1 0-.6-.2-1-.4-1-.3 0-.8.4-1.1 1zm-34.5 1c0 .5.5 1 1 1 .6 0 1-.5 1-1 0-.6-.4-1-1-1-.5 0-1 .4-1 1zm-5 1c0 .5.5 1 1 1 .6 0 1-.5 1-1 0-.6-.4-1-1-1-.5 0-1 .4-1 1zm143.5 0-2 .9h2c1.1 0 2.7-.4 3.5-.9 1.3-.9 1.3-1 0-.9-.8 0-2.4.4-3.5.9zm-92.5 1.5c0 .8.9 1.5 2 1.5 1.3 0 1.8-.5 1.4-1.5-.4-.8-1.2-1.5-2-1.5s-1.4.7-1.4 1.5zm12-.8c0 .6.9 1.8 2.1 2.9 1.2 1 2.7 3.1 3.5 4.6.8 1.6 2.2 2.8 3 2.8 1.4 0 1.4-.3.4-1.5-2.4-2.9-.4-2.4 7 1.8 7.3 4 7.4 4.1 4.5 4.7-2.7.6-2.4.8 2.9 1.9 3.3.7 6.8 1.8 7.7 2.4 3.8 2.4 2.6-.2-2.8-5.9-4.1-4.3-5.4-5.3-5-3.6.7 2.9.1 2.7-9.5-2.9-7.1-4.2-7.6-5.4-2.3-6.2 2-.3 1.4-.5-2-.6-2.7-.1-6-.4-7.2-.7-1.3-.4-2.3-.2-2.3.3zm-93 1.8c-3 .7-6.8 1.4-8.4 1.4-1.6.1-2.6.4-2.3.7.7.8 14.9-1.3 18.1-2.6 2-.9 2-.9.1-.8-1.1 0-4.5.6-7.5 1.3zm14.5-.5c-.3.5-.1 1 .4 1 .6 0 1.1-.5 1.1-1 0-.6-.2-1-.4-1-.3 0-.8.4-1.1 1zm175.3.7c.6.2 1.8.2 2.5 0 .6-.3.1-.5-1.3-.5-1.4 0-1.9.2-1.2.5zm-185.6 2c-3.5.8-6.1 1.7-5.8 2 .7.7 11.6-1.9 12.2-2.9.3-.4.4-.7.2-.7-.2.1-3.1.8-6.6 1.6zm24.3-.7c-.3.5-.1 1 .4 1 .6 0 1.1-.5 1.1-1 0-.6-.2-1-.4-1-.3 0-.8.4-1.1 1zm58 0c-.8 1.4.3 3 2.1 3 .8 0 1.4-.9 1.4-2 0-2.1-2.4-2.8-3.5-1zm36.8-.3c.9.2 2.5.2 3.5 0 .9-.3.1-.5-1.8-.5-1.9 0-2.7.2-1.7.5zm6.5 0c.6.2 1.8.2 2.5 0 .6-.3.1-.5-1.3-.5-1.4 0-1.9.2-1.2.5zm-107.3 2.3c-.3.5-.2 1 .4 1 .5 0 1.3-.5 1.6-1 .3-.6.2-1-.4-1-.5 0-1.3.4-1.6 1zm264.3-.3c.6.2 1.8.2 2.5 0 .6-.3.1-.5-1.3-.5-1.4 0-1.9.2-1.2.5zm-136.3 1.3c.3.5 1 1 1.6 1 .5 0 .9-.5.9-1 0-.6-.7-1-1.6-1-.8 0-1.2.4-.9 1zm-156.7.7c.6.2 1.8.2 2.5 0 .6-.3.1-.5-1.3-.5-1.4 0-1.9.2-1.2.5zm209 0c.7.3 1.6.2 1.9-.1.4-.3-.2-.6-1.3-.5-1.1 0-1.4.3-.6.6zm11.5.3c-3 1.2-2.9 1.8.2 1.2 1.4-.2 2.5-.8 2.5-1.3s-.1-.9-.2-.8c-.2 0-1.3.4-2.5.9zm11.5-.3c.7.3 1.6.2 1.9-.1.4-.3-.2-.6-1.3-.5-1.1 0-1.4.3-.6.6zm46.5 0c.9.2 2.3.2 3 0 .6-.3-.1-.5-1.8-.5-1.6 0-2.2.2-1.2.5zm-292.3 1.4c-2.3.5-1 .5 3.5.2 3.9-.3 7.2-.7 7.4-.9.7-.7-7.2-.2-10.9.7zm19.5.4c-2.7.7-4.1 1.3-3 1.4 1.1 0 4.3-.6 7-1.3 6.3-1.8 2.8-1.9-4-.1zm207-.5c-.3.5.1 1 .9 1 .9 0 1.6-.5 1.6-1 0-.6-.4-1-.9-1-.6 0-1.3.4-1.6 1zm14.1-.1c-.4.5.3.7 1.4.4 2.3-.6 2.6-1.3.6-1.3-.8 0-1.7.4-2 .9zm-126.4 1.8c.2 1 1 1.8 1.8 1.8 2.2 0 1.8-2.9-.3-3.3-1.4-.3-1.8.1-1.5 1.5zm98.8-.7c-1.8 1.2-.2 1.2 2.5 0 1.3-.6 1.5-.9.5-.9-.8 0-2.2.4-3 .9zm118.8-.3c.6.2 1.8.2 2.5 0 .6-.3.1-.5-1.3-.5-1.4 0-1.9.2-1.2.5zm-304.3 1.3-2 .9h2c1.1 0 2.7-.4 3.5-.9 1.3-.9 1.3-1 0-.9-.8 0-2.4.4-3.5.9zm166.3-.3c1.2.2 3 .2 4 0 .9-.3-.1-.5-2.3-.4-2.2 0-3 .2-1.7.4zm211.9 4c-1.4 10.4-1.7 18.8-.8 16.7.5-1.1 1.2-5.2 1.6-9 .3-3.8.9-8.1 1.1-9.7.3-1.5.1-2.7-.4-2.7s-1.2 2.1-1.5 4.7zm-395.9-3c.7.3 1.6.2 1.9-.1.4-.3-.2-.6-1.3-.5-1.1 0-1.4.3-.6.6zm33.7.3c-.3.5-.1 1 .4 1 .6 0 1.1-.5 1.1-1 0-.6-.2-1-.4-1-.3 0-.8.4-1.1 1zm160.8-.3c.9.2 2.5.2 3.5 0 .9-.3.1-.5-1.8-.5-1.9 0-2.7.2-1.7.5zm13.5 0c.7.3 1.6.2 1.9-.1.4-.3-.2-.6-1.3-.5-1.1 0-1.4.3-.6.6zm11.9 1c-2.6.9-4.5 1.8-4.3 2.1.6.5 7.8-1.8 9.1-2.9 1.2-1.1 1-1.1-4.8.8zm-228.4 0c.9.2 2.3.2 3 0 .6-.3-.1-.5-1.8-.5-1.6 0-2.2.2-1.2.5zm212.5 0c.7.3 1.6.2 1.9-.1.4-.3-.2-.6-1.3-.5-1.1 0-1.4.3-.6.6zm96.8.4c-2.2.5-4.2 1.2-4.5 1.6-.9.9 7.3-.8 8.4-1.8.5-.5.7-.9.5-.8-.3.1-2.3.5-4.4 1zm-292.8.6c.6.2 1.8.2 2.5 0 .6-.3.1-.5-1.3-.5-1.4 0-1.9.2-1.2.5zm9.2.9c-3.1.8-3.7 1.3-2 1.3 1.4 0 3.9-.6 5.5-1.4 3.7-1.7 2.4-1.6-3.5.1zm95.1-.7c-.8.5-1 1.4-.7 2 .9 1.3 3.3 1.5 4 .2.9-1.4-1.8-3.1-3.3-2.2zm84.7-.2c.6.2 1.8.2 2.5 0 .6-.3.1-.5-1.3-.5-1.4 0-1.9.2-1.2.5zm110.2.3c-2.3.7-2.3.8-.3.9 1.2.1 3 .4 4 .7 1.3.4 1.5.3.4-.4-1.1-.8-1.1-1 0-1.5 2.3-.9-1.2-.6-4.1.3zm-308.5 1c-1.3.6-.5.7 2.5.3 2.5-.3 4.7-.7 4.9-.9.9-.8-5.5-.2-7.4.6zm315.8-.3c.9.2 2.5.2 3.5 0 .9-.3.1-.5-1.8-.5-1.9 0-2.7.2-1.7.5zm162.9 4.8c-.1 4.6.1 5.5.8 3.7.6-1.3.6-3.8.1-6-.8-3.5-.9-3.3-.9 2.3zm-456.7-2.5c-2.2 1-3.4 1.9-2.7 1.9 1.4.1 7.2-2.7 7.2-3.4 0-.6.3-.7-4.5 1.5zm180.3-1.3c.6.2 1.8.2 2.5 0 .6-.3.1-.5-1.3-.5-1.4 0-1.9.2-1.2.5zm8.7.3c-1.3.5-1.4.9-.5.9.8 0 2.4-.4 3.5-.9 1.3-.5 1.4-.9.5-.9-.8 0-2.4.4-3.5.9zm116.3-.3c.7.3 1.6.2 1.9-.1.4-.3-.2-.6-1.3-.5-1.1 0-1.4.3-.6.6zm-316 1c.7.3 1.6.2 1.9-.1.4-.3-.2-.6-1.3-.5-1.1 0-1.4.3-.6.6zm310 0c.7.3 1.6.2 1.9-.1.4-.3-.2-.6-1.3-.5-1.1 0-1.4.3-.6.6zm-340 1c.6.2 1.8.2 2.5 0 .6-.3.1-.5-1.3-.5-1.4 0-1.9.2-1.2.5zm122.8 5c.4 3.2 1 8.3 1.5 11.3.8 5.3.8 5.2.4-1.5-.3-3.9-.5-8.9-.5-11.3 0-2.3-.5-4.2-1-4.2-.6 0-.8 2.1-.4 5.7zm-9.1 2.8c.4 4.4 1.1 8.7 1.6 9.5.6.9.7-1.7.3-7-.3-4.7-1.1-9-1.6-9.5-.7-.7-.8 1.7-.3 7zm3-.5c1.2 13.2 2.4 16.5 1.8 5-.3-5.8-1-11-1.5-11.5-.7-.7-.8 1.5-.3 6.5zm21-6c-.8 1.2 2 2.4 3.5 1.5.6-.3.8-1.1.5-1.6-.8-1.2-3.2-1.2-4 .1zm175.3-.3c.7.3 1.6.2 1.9-.1.4-.3-.2-.6-1.3-.5-1.1 0-1.4.3-.6.6zm-305.3 1.3c-4.2 1.1-.1 1.1 5 .1 3.4-.7 3.5-.9 1-.9-1.6 0-4.3.4-6 .8zm24.3-.3c.6.2 1.8.2 2.5 0 .6-.3.1-.5-1.3-.5-1.4 0-1.9.2-1.2.5zm78.3 2.8c.1 4.1 1.5 10.8 1.9 9 .5-2.3-.2-10.1-1.1-11.5-.6-1-.8-.2-.8 2.5zm148.9-1.9c.1 4.1 2.8 23.5 3.4 24.1.3.4.6.2.6-.3 0-2.8-3-24.8-3.5-25.2-.3-.3-.5.3-.5 1.4zm-257.2.1c.7.3 1.6.2 1.9-.1.4-.3-.2-.6-1.3-.5-1.1 0-1.4.3-.6.6zm19.2.3c-1.6.6-.6.7 3 .3 3-.3 5.7-.7 5.9-.9.8-.7-6.4-.2-8.9.6zm15 .5c-3.1.9-3.7 1.3-2 1.4 1.4 0 3.9-.6 5.5-1.4 3.8-1.7 2.4-1.7-3.5 0zm109 1c0 1.8 2.4 3 4 2 .8-.5.8-1.1-.1-2.1-1.5-1.9-3.9-1.8-3.9.1zm155.5-.5c-.7 1.2.2 1.2 3 0 1.9-.8 1.9-.9-.2-.9-1.2-.1-2.5.3-2.8.9zm-288.7.7c.6.2 1.8.2 2.5 0 .6-.3.1-.5-1.3-.5-1.4 0-1.9.2-1.2.5zm14.5 1c.9.2 2.5.2 3.5 0 .9-.3.1-.5-1.8-.5-1.9 0-2.7.2-1.7.5zm279.5 0c.7.3 1.6.2 1.9-.1.4-.3-.2-.6-1.3-.5-1.1 0-1.4.3-.6.6zm-285 1c.7.3 1.6.2 1.9-.1.4-.3-.2-.6-1.3-.5-1.1 0-1.4.3-.6.6zm132.2 1.3c0 1.5.5 2 1.8 1.8.9-.2 1.7-1 1.7-1.8s-.8-1.6-1.7-1.8c-1.3-.2-1.8.3-1.8 1.8zm-140.2-.3c.7.3 1.6.2 1.9-.1.4-.3-.2-.6-1.3-.5-1.1 0-1.4.3-.6.6zm21 0c.7.3 1.6.2 1.9-.1.4-.3-.2-.6-1.3-.5-1.1 0-1.4.3-.6.6zm4.7 1.4c-2.2 1-2.9 1.6-1.5 1.3 3.8-1 8.7-3.2 7-3.2-.8 0-3.3.8-5.5 1.9zm69.7-.1c0 1.4.2 1.9.5 1.2.2-.6.2-1.8 0-2.5-.3-.6-.5-.1-.5 1.3zm154.4 2.1c.9 8.3 2.7 17.4 3.2 16 .6-1.8-1.8-18.3-2.9-19.5-.4-.5-.5 1.1-.3 3.5zm30.7-3.4c.9.2 2.5.2 3.5 0 .9-.3.1-.5-1.8-.5-1.9 0-2.7.2-1.7.5zm-265.5 1c.7.3 1.6.2 1.9-.1.4-.3-.2-.6-1.3-.5-1.1 0-1.4.3-.6.6zm132.2.7c0 .8.6 1.6 1.3 1.9 1.9.7 4.1-.8 3.3-2.2-1-1.6-4.6-1.4-4.6.3zm89.6 5.3c.9 8.9 1.7 9.7 1.2 1-.2-3.7 0-6.7.4-6.7s.8 1.9.8 4.2c0 2.4.4 3.8.9 3.2.4-.5.6-2.6.4-4.7-.4-2.8-1-3.7-2.4-3.7-1.8 0-1.9.5-1.3 6.7zm39.2-6c.7.3 1.6.2 1.9-.1.4-.3-.2-.6-1.3-.5-1.1 0-1.4.3-.6.6zm-277.8 1.3-3.5.7 3.5.1c1.9 0 5.5-.3 8-.7l4.5-.8h-4.5c-2.5 0-6.1.3-8 .7zm118.6 5.6c.4 3.8 1.1 7.3 1.7 7.9.6.7.8-1.3.3-5.9-.3-3.8-1-7.4-1.6-8-.6-.6-.8 1.4-.4 6zm54.5-1.6c0 3 .4 6.2.9 7 1.2 1.8 1.2-4.9 0-9.5-.6-2.5-.8-2.1-.9 2.5zm62.9 9.3c0 8.8.5 15.6 1.1 17.1 1.5 3.2 3.2 2.4 1.9-.8-.5-1.3-1.2-8.6-1.5-16.3-.4-7.6-.9-14-1.1-14.2-.2-.2-.4 6.1-.4 14.2zm35-13.3c0 1.2.8 1.2 3.5 0 1.8-.8 1.7-.9-.7-.9-1.6-.1-2.8.3-2.8.9zm9.8.7c.7.3 1.6.2 1.9-.1.4-.3-.2-.6-1.3-.5-1.1 0-1.4.3-.6.6zm-320.8 1.3c-1.2.8-1 1 .8 1 1.3 0 2-.4 1.7-1-.7-1.2-.6-1.2-2.5 0zm49 0-4.5.7 4 .1c2.2 0 6-.3 8.5-.7l4.5-.8h-4c-2.2 0-6 .3-8.5.7zm-192.3.7c-.2.5-.1 3.3.3 6.3l.7 5.5.2-6.3c.1-5.8-.2-7.3-1.2-5.5zm305.4 1c0 1 .4 3.6.8 5.8.9 4 .9 3.9 1-1.8 0-3.2-.3-5.7-.9-5.7-.5 0-1 .8-.9 1.7zm57.8-.7c-.9 2 1.1 21 2.3 23 .6 1 .6-.7.2-4.5-.4-3.3-1-9.2-1.3-13-.3-3.9-.9-6.3-1.2-5.5zm75.7 6c.4 4.1 1 9.4 1.4 11.7.8 4.7.4 5.5-1 2-.8-1.9-.9-1.7-.9 1.5-.1 2 .4 4.9 1 6.5l1.2 2.8.8-3.5c.8-3.5-.5-18.2-2.1-25-.7-2.5-.8-1.3-.4 4zm28-6.1c-.3.4.6.6 1.9.3 1.4-.2 2.5-.6 2.5-.8 0-.8-3.9-.4-4.4.5zm-335.1 1.1-5 .7 5 .3 5 .3-4.5.7-4.5.7 4.7.1c4.1.2 4.7 0 4.5-1.8-.1-1.1-.1-1.9-.2-1.8 0 0-2.2.4-5 .8zm72.8.7c.9.2 2.3.2 3 0 .6-.3-.1-.5-1.8-.5-1.6 0-2.2.2-1.2.5zm19.7.6c0 .7-1.4 1.8-3.2 2.5-1.7.6-2.9 1.4-2.6 1.7.3.3 2.1-.2 4.1-1 2.5-1 3.5-2 3.1-3-.7-1.8-1.4-1.9-1.4-.2zm4-.2c0 .5.5.7 1 .4.6-.3 1-.8 1-1.1 0-.2-.4-.4-1-.4-.5 0-1 .5-1 1.1zm15.3 2.4c0 2.2.2 3 .4 1.7.2-1.2.2-3 0-4-.3-.9-.5.1-.4 2.3zm134.2 2c1.4 13.9 3.7 28.1 4.6 29 1.3 1.3 1.1-1.9-.7-10-.8-3.9-1.6-10.5-1.8-14.8-.2-4.5-.8-8.3-1.5-9-1-1-1.1 0-.6 4.8zm-170-2.8c-2.1.7-4.2 1.6-4.5 2-.9.9 6-.8 8.8-2.3 3.4-1.8.9-1.6-4.3.3zm326.1-.6c-1 3.2-1.7 15.9-.8 15.9.5 0 1.2-3.7 1.4-8.3.5-8 .3-10.5-.6-7.6zm-206.9 7.1c.3 4 1 8 1.5 8.8.6 1 .7-.2.4-3.4-.3-2.7-.6-6.6-.6-8.7 0-2.2-.4-3.9-.9-3.9-.6 0-.7 3-.4 7.2zm-218.2-4.6c-6.7 1.5-7.1 1.5 10.5-.6l6.5-.7h-5.5c-3-.1-8.2.5-11.5 1.3zm104-.1c-1.6.7-2.3 1.4-1.4 1.4.8.1 2.4-.6 3.5-1.4 2.4-1.8 1.8-1.8-2.1 0zm24.5 2.4c0 2.2.4 4.2.9 4.5.5.4.9-1.4.9-3.9s-.4-4.5-.9-4.5-.9 1.8-.9 3.9zm-45.2-2.2c1.2.2 3.2.2 4.5 0 1.2-.2.2-.4-2.3-.4s-3.5.2-2.2.4zm138.1-.1c-.5 4 .5 17.1 1.3 17.9.6.7.7-2.2.3-8.5-.7-8.4-1.3-12.2-1.6-9.4zm-203.1 1.1c1.2.2 3 .2 4 0 .9-.3-.1-.5-2.3-.4-2.2 0-3 .2-1.7.4zm54.2.1c0 .4 1.6.6 3.5.4 1.9-.2 3.5-.6 3.5-.8 0-.2-1.6-.4-3.5-.4s-3.5.4-3.5.8zm-75.5 1.4c-3.3.5-6.4 1.4-7 2-.7.7-.2.9 1.5.5 1.4-.3 5.6-1.1 9.5-1.7 3.8-.6 7.1-1.3 7.4-1.6.7-.6-4.7-.3-11.4.8zm101.3-.5c.7.3 1.6.2 1.9-.1.4-.3-.2-.6-1.3-.5-1.1 0-1.4.3-.6.6zm108.8 11.8c.4 7.1.8 14.1.9 15.5.2 1.4.4 2.9.4 3.5.1.5.5.5 1.1-.1.8-.8.8-3 .1-7.5-.6-3.5-1.1-9.6-1.2-13.4 0-3.9-.5-7.9-1-9-.6-1.3-.7 2.6-.3 11zM176.33 201c-.8 1.3 1.5 1.3 3.5 0 1.2-.8 1.1-1-.7-1-1.2 0-2.5.4-2.8 1zm92 0c-.4.7.8.8 3.7.4 5.7-.9 6.1-1.4 1-1.4-2.2 0-4.4.5-4.7 1zm194.5.7c0 1 .9 5.4 1.9 9.8 1 4.4 2.4 11.8 3.1 16.5 1.4 9.5 1.8 11.5 2.5 10.8.7-.7-2.2-22.1-3.4-24.9-.6-1.3-1.5-5-2.1-8.2-1.1-5.6-2-7.4-2-4zm-267.2.2c-3.1.3-6 .9-6.4 1.4-.7.7 4.1.3 14.1-1.3 6.2-1 1-1-7.7-.1zm82.7.1-3 .8h3c1.7 0 3.9-.3 5-.8l2-.9-2 .1c-1.1 0-3.3.4-5 .8zm12.8 1c-2.9 1.3-4.3 2.5-4.3 3.8 0 1-1 2.4-2.2 3.1-1.3.6-1.5.9-.5.7 1.1-.4 1.7 0 1.7 1 0 1.3.4 1.2 3.1-.1 1.7-.9 2.8-1.9 2.5-2.3-.4-.3-1.2 0-1.8.6-1.9 1.9-3 1.4-2.2-1 .7-2.4 4.2-5.7 6.1-5.8.6 0 1.5-.5 1.8-1 .8-1.3.7-1.3-4.2 1zm21.1 8c0 5.8.1 8.1.3 5.2.2-2.8.2-7.6 0-10.5-.2-2.8-.3-.5-.3 5.3zm-14.8-7.5c-1.1.8-1.5 1.5-1 1.5.6 0 1.9-.7 3-1.5 1-.8 1.5-1.4.9-1.4-.5 0-1.9.6-2.9 1.4zm-17.1 1.1c-2.7.7-6.3 1.4-8 1.5-1.6 0-2.4.3-1.6.6 1.9.8 15.1-1.7 15.1-2.8 0-.5-.1-.9-.2-.8-.2 0-2.5.7-5.3 1.5zm123.6 3.1c.1 6.4 1.3 14.2 1.9 12.3.9-2.5-.1-17-1.1-17-.5 0-.9 2.1-.8 4.7zm79.5-2.5c-.3 1.3-.5 5.4-.4 9.3l.1 7 .7-9c.8-9.3.7-11.2-.4-7.3zm2.2 5c-.2 4 .1 9.5.7 12.3 1.1 4.6 1.2 3.9.9-6.9-.3-6.6-.6-12.1-.8-12.3-.2-.2-.6 2.9-.8 6.9zm-285-5.5c.7.3 1.6.2 1.9-.1.4-.3-.2-.6-1.3-.5-1.1 0-1.4.3-.6.6zm92.8 1.9c-.4.9-.4 1.9-.1 2.2.2.3.7-.3 1.1-1.2.4-.9.4-1.9.1-2.2-.2-.3-.7.3-1.1 1.2zm-48.8 1.1c.7.3 1.6.2 1.9-.1.4-.3-.2-.6-1.3-.5-1.1 0-1.4.3-.6.6zm30.7 2.3c-2.7 1-4.6 1.9-4.1 1.9 1.4.2 9-2.2 10.1-3.1 1.4-1.2-.4-.9-6 1.2zm-10 0c-2.5 1.1.1 1.1 3.5 0 2-.6 2.1-.8.5-.8-1.1 0-2.9.3-4 .8zm62.6 3.2c-.1 2.6.4 5 .9 5.3 1.2.7 1.2-3.8 0-7.5-.7-2-.8-1.6-.9 2.2zm-72.3-2.5c.6.2 1.8.2 2.5 0 .6-.3.1-.5-1.3-.5-1.4 0-1.9.2-1.2.5zm-11 1.3c1.3.6 3.1.6 4.5 0 1.8-.7 1.4-.9-2.3-.9-3.7 0-4.1.2-2.2.9zm346.3 1.7c0 2.5.1 2.6.9.8 1.2-2.7 1.2-3.5 0-3.5-.5 0-1 1.2-.9 2.7zm-264.8 2.3c0 2.5.2 3.5.4 2.2.2-1.2.2-3.2 0-4.5-.2-1.2-.4-.2-.4 2.3zm-33.5-.3c.6.2 1.8.2 2.5 0 .6-.3.1-.5-1.3-.5-1.4 0-1.9.2-1.2.5zm-8 1c1.2.2 3 .2 4 0 .9-.3-.1-.5-2.3-.4-2.2 0-3 .2-1.7.4zm-43 1c.7.3 1.6.2 1.9-.1.4-.3-.2-.6-1.3-.5-1.1 0-1.4.3-.6.6zm29.5 0c.9.2 2.5.2 3.5 0 .9-.3.1-.5-1.8-.5-1.9 0-2.7.2-1.7.5zm17.7.4c-3 .5-9 1.1-13.3 1.5-4.3.3-7.6.8-7.4 1 .8.8 27.2-1.7 28.1-2.6 1.1-1.1.6-1.1-7.4.1zm-43.2.6c.7.3 1.6.2 1.9-.1.4-.3-.2-.6-1.3-.5-1.1 0-1.4.3-.6.6zm5.7.2c1.1.4 5.6.4 10 .1l8-.7-10-.1c-5.5 0-9.1.3-8 .7zm219 5.3c1.5 14.2 2.9 22.9 3.7 23.4.9.6.4-5.6-1.3-15.5-.5-3-.9-7.2-.9-9.3 0-2.1-.5-3.8-1-3.8-.7 0-.9 1.9-.5 5.2zm-152.4-.2c-.3 6.2 0 17.4.5 17.9 1 1.1 1.1-1.1.4-11.4-.4-6.1-.8-9-.9-6.5zm-54.8-2.3c.9.2 2.3.2 3 0 .6-.3-.1-.5-1.8-.5-1.6 0-2.2.2-1.2.5zm-37.5 4c.7.3 1.6.2 1.9-.1.4-.3-.2-.6-1.3-.5-1.1 0-1.4.3-.6.6zm35 1c.6.2 1.8.2 2.5 0 .6-.3.1-.5-1.3-.5-1.4 0-1.9.2-1.2.5zm-43.3 2.8-4 1.4 4.5-.6c2.5-.3 5.4-.9 6.5-1.4 3.6-1.4-2.5-.9-7 .6zm39.3-.8c.6.2 1.8.2 2.5 0 .6-.3.1-.5-1.3-.5-1.4 0-1.9.2-1.2.5zm-60 1c1.2.2 3.2.2 4.5 0 1.2-.2.2-.4-2.3-.4s-3.5.2-2.2.4zm8 0c.6.2 1.8.2 2.5 0 .6-.3.1-.5-1.3-.5-1.4 0-1.9.2-1.2.5zm-36 1c.7.3 1.6.2 1.9-.1.4-.3-.2-.6-1.3-.5-1.1 0-1.4.3-.6.6zm146.2 6c0 11.2 1.2 23.3 2.2 22.7.6-.4.7-5.5.2-13.3-.4-6.9-.7-13.4-.6-14.4 0-.9-.3-1.7-.9-1.7-.5 0-.9 3-.9 6.7zm211.6-5.2c.4.8 1 1.5 1.5 1.5s.9-.7.9-1.5-.7-1.5-1.5-1.5c-.9 0-1.2.6-.9 1.5zm-362.8.2c.6.2 1.8.2 2.5 0 .6-.3.1-.5-1.3-.5-1.4 0-1.9.2-1.2.5zm42.7.3c-.7 1.2 1.2 1.2 4 0 1.8-.8 1.7-.9-.7-.9-1.5-.1-3 .3-3.3.9zm19.3-.3c.7.3 1.6.2 1.9-.1.4-.3-.2-.6-1.3-.5-1.1 0-1.4.3-.6.6zm-52.8 1.3c0 .5.7.7 1.5.4.8-.4 1.5-.8 1.5-1 0-.2-.7-.4-1.5-.4s-1.5.4-1.5 1zm4 0c0 .5.5 1 1 1 .6 0 1-.5 1-1 0-.6-.4-1-1-1-.5 0-1 .4-1 1zm4.5 0c-.3.5-.1 1 .4 1 .6 0 1.1-.5 1.1-1 0-.6-.2-1-.4-1-.3 0-.8.4-1.1 1zm12.3-.3c2.3.2 5.9.2 8 0 2-.2.1-.4-4.3-.4-4.4 0-6.1.2-3.7.4zm25.5 0c.9.2 2.3.2 3 0 .6-.3-.1-.5-1.8-.5-1.6 0-2.2.2-1.2.5zm-24 3c.9.2 2.5.2 3.5 0 .9-.3.1-.5-1.8-.5-1.9 0-2.7.2-1.7.5zm2.7 2.3c-1.2.8-1.1 1 .8 1 1.2 0 2.2-.5 2.2-1 0-1.3-1.1-1.3-3 0zm82 5.5c0 2.5.5 4.5 1 4.5.7 0 1-1.9.9-4.5-.2-2.5-.6-4.5-1.1-4.5-.4 0-.8 2-.8 4.5zm-82-2.5c-1.3.8-1.2 1 .3 1 .9 0 1.7-.5 1.7-1 0-1.2-.1-1.2-2 0zm114.8 3.3c-.5 1-.8 2.8-.8 3.8 0 1.1-.4 1.7-1 1.4-.6-.4-1 1.3-1 4.4 0 2.7-.4 5.3-1 5.6-1.5.9-1.2 4.8.8 9.1l1.7 3.9.6-9.5c.4-7 .6-8 .7-3.8.1 3.2.7 5.8 1.2 5.8 1.1 0 1.2-7 .1-16.5-.4-4.1-.8-5.4-1.3-4.2zm-112.5.4c.9.2 2.5.2 3.5 0 .9-.3.1-.5-1.8-.5-1.9 0-2.7.2-1.7.5zm27.2.3c-.3.5-.1 1 .4 1 .6 0 1.1-.5 1.1-1 0-.6-.2-1-.4-1-.3 0-.8.4-1.1 1zm-14.9.7c-.4.5-5.3 1.1-10.9 1.4l-10.2.6 9.6.1c7 .2 10-.2 11.5-1.3 1-.8 1.6-1.5 1.3-1.5-.3 0-.9.3-1.3.7zm-25.8 1c.6.2 1.8.2 2.5 0 .6-.3.1-.5-1.3-.5-1.4 0-1.9.2-1.2.5zm29 1c.7.3 1.6.2 1.9-.1.4-.3-.2-.6-1.3-.5-1.1 0-1.4.3-.6.6zm-65 1c.7.3 1.6.2 1.9-.1.4-.3-.2-.6-1.3-.5-1.1 0-1.4.3-.6.6zm11 0c.7.3 1.6.2 1.9-.1.4-.3-.2-.6-1.3-.5-1.1 0-1.4.3-.6.6zm22.7.3c1.7.4 4.4.8 6 .8h3l-3-.8c-1.6-.4-4.3-.8-6-.8h-3l3 .8zm301.5.6c0 1.1.4 4.5.9 7.5.6 3 1.2 7.2 1.5 9.4 1.5 11.9 2.7 18.4 3.6 20.6.8 1.9.9 1.4.5-2.6-1.3-11.6-5.1-35.4-5.8-36.1-.4-.4-.7.2-.7 1.2zm-277.2.1c.6.2 1.8.2 2.5 0 .6-.3.1-.5-1.3-.5-1.4 0-1.9.2-1.2.5zm-8 1c1.2.2 3 .2 4 0 .9-.3-.1-.5-2.3-.4-2.2 0-3 .2-1.7.4zm-10.3 1.4c1.9.7 13.2 1.3 12.4.5-.2-.2-3.5-.6-7.4-.8-4-.3-6.1-.2-5 .3zm-32.7 1.6c.7.3 1.6.2 1.9-.1.4-.3-.2-.6-1.3-.5-1.1 0-1.4.3-.6.6zm390.9.9c-1 1-.8 41.4.2 41.4.5 0 1.2 1.5 1.4 3.2.3 2.5.4 2.2.5-1.5.1-2.6-.2-4.7-.6-4.7-.4 0-.6-8.8-.4-19.5.2-10.7.2-19.5 0-19.5-.3 0-.7.3-1.1.6zm-344.9 1.1c.7.3 1.6.2 1.9-.1.4-.3-.2-.6-1.3-.5-1.1 0-1.4.3-.6.6zm-4 2c.6.2 1.8.2 2.5 0 .6-.3.1-.5-1.3-.5-1.4 0-1.9.2-1.2.5zm-29.8 1.3c.8.5 2.4 1 3.4 1 2.6 0 1.8-.6-1.9-1.4-2.2-.5-2.6-.4-1.5.4zm6.3 4.6c-.9.9-.9 1.4.3 1.8 2.4.9 3.6.7 2.8-.5-.4-.8.4-.9 2.7-.4 4.3.9 3.5 0-1.1-1.3-2.6-.7-3.9-.6-4.7.4zm63 3.4c0 2.5.2 3.5.4 2.2.2-1.2.2-3.2 0-4.5-.2-1.2-.4-.2-.4 2.3zm-46.8-1c1.1.5 2.7.9 3.5.9 1.3.1 1.3 0 0-.9-.8-.5-2.4-.9-3.5-.9h-2l2 .9zm23.5 0c-2.2.7-2.1.8 1.3.9 2 .1 3.7-.4 3.7-.9 0-1.1-1.4-1.1-5 0zm-32.8 1c1 .6 4.2 1.3 7 1.5l5.3.4-4.5-.9c-2.5-.5-5.6-1.2-7-1.5-2.1-.4-2.2-.4-.8.5zm17.3 0c.3.5.8 1 1.1 1 .2 0 .4-.5.4-1 0-.6-.5-1-1.1-1-.5 0-.7.4-.4 1zm285.2 1c.3 1.1.7 2 .9 2 .2 0 .4-.9.4-2s-.4-2-.9-2-.7.9-.4 2zm-274.9-.3c.7.3 1.6.2 1.9-.1.4-.3-.2-.6-1.3-.5-1.1 0-1.4.3-.6.6zm0 2c.6.2 1.8.2 2.5 0 .6-.3.1-.5-1.3-.5-1.4 0-1.9.2-1.2.5zm-23.8 2c0 1.2.3 1.4.8.7.4-.7 1.6-1.4 2.7-1.7 1.5-.4 1.4-.5-.7-.6-2.1-.1-2.8.4-2.8 1.6zm16-.7c-1.3.9-1.3 1 0 .9.8-.1 2.6-.5 4-.9l2.5-.8-2.5-.1c-1.4 0-3.2.4-4 .9zm6.8 1.7c.7.3 1.6.2 1.9-.1.4-.3-.2-.6-1.3-.5-1.1 0-1.4.3-.6.6zm106.4 9.8c0 6 .4 11.9.9 13 .6 1.3.7.4.2-2.9-.4-3.8-.3-4.7.7-4.1.9.6 1.1.4.5-.5-.4-.7-1.1-4.7-1.5-8.9l-.7-7.6-.1 11zm170.8-5.5c0 1.1.4 2 .9 2s.7-.9.4-2c-.3-1.1-.7-2-.9-2-.2 0-.4.9-.4 2zm-299.2-.3c.7.3 1.6.2 1.9-.1.4-.3-.2-.6-1.3-.5-1.1 0-1.4.3-.6.6zm-3.3 2.3c-.3.5.1 1 1 1s1.3-.5 1-1c-.3-.6-.8-1-1-1-.2 0-.7.4-1 1zm11.5 0-6.5.7 7.3.1c4.7.1 7.1-.2 6.7-.8-.3-.6-.7-.9-.8-.8-.1.1-3.1.4-6.7.8zm-17.2 2.7c.7.3 1.6.2 1.9-.1.4-.3-.2-.6-1.3-.5-1.1 0-1.4.3-.6.6zm-12.9 1.6c.5.5 1.9.7 3.2.5 2-.3 1.9-.5-.9-.9-2-.3-2.9-.2-2.3.4zm23.8-.6c1.8.2 5 .2 7 0 2.1-.2.7-.4-3.2-.4-3.8 0-5.5.2-3.8.4zm123.7.4c-.3.6-.1 1.6.5 2.2.8.8 1.1.5 1.1-1.1 0-2.4-.5-2.8-1.6-1.1zm-133.4 1.9c3 .5 7.3.8 9.5.8 3.5-.1 3.3-.2-1.5-.8-3-.5-7.3-.8-9.5-.8-3.5.1-3.3.2 1.5.8zm373.3 9.5c.1 10.3.1 10.4.4 2.2.2-4.8.8-8.7 1.2-8.7.5 0 .6 3.8.3 8.5-.2 4.7-.1 8.5.4 8.5s1-4.1 1.1-9c.2-7.1-.1-9-1.2-9-.7 0-1.6-.8-1.8-1.8-.3-.9-.4 3.2-.4 9.3zm-379.2-7.1c1.1 1 8.9 1.5 8.9.6 0-.5-2.1-1-4.7-1-2.5 0-4.4.2-4.2.4zm376.4.6c-.3.5-.1 1 .4 1 .6 0 1.1-.5 1.1-1 0-.6-.2-1-.4-1-.3 0-.8.4-1.1 1zm-365.7.7c.6.2 1.8.2 2.5 0 .6-.3.1-.5-1.3-.5-1.4 0-1.9.2-1.2.5zm6 0c.6.2 1.8.2 2.5 0 .6-.3.1-.5-1.3-.5-1.4 0-1.9.2-1.2.5zm-19.7 1.7c1 .8 8.9 1.3 8.3.5-.3-.5-2.4-.9-4.6-.9-2.3 0-3.9.2-3.7.4zm17.7 1.3c.7.3 1.6.2 1.9-.1.4-.3-.2-.6-1.3-.5-1.1 0-1.4.3-.6.6zm-15.8 1.7c0 .2 1.1.6 2.5.8 1.4.3 2.5.1 2.5-.3 0-.5-1.1-.9-2.5-.9s-2.5.2-2.5.4zm-2.2 3.3c.7.3 1.6.2 1.9-.1.4-.3-.2-.6-1.3-.5-1.1 0-1.4.3-.6.6zm337 .9c-.9 1.3 1.1 15.6 2.3 16.8 1.1 1.2 1.1.3-.4-9.9-.7-4.4-1.5-7.5-1.9-6.9zm-334 2.1c.7.3 1.6.2 1.9-.1.4-.3-.2-.6-1.3-.5-1.1 0-1.4.3-.6.6zm-4 6c.6.2 1.8.2 2.5 0 .6-.3.1-.5-1.3-.5-1.4 0-1.9.2-1.2.5zm1.5 3c.9.2 2.5.2 3.5 0 .9-.3.1-.5-1.8-.5-1.9 0-2.7.2-1.7.5zm45.2.6c-.4 1-.5 2.1-.1 2.4 1 1 1.8-.4 1.3-2.4-.4-1.7-.4-1.7-1.2 0zm353.5 20.1c0 6.1.4 9.6 1.1 9.6 1.2 0 1-17.8-.3-18.6-.4-.3-.8 3.8-.8 9zm-41.6-5.7c1.7 8.7 1.8 10.6.7 9.9-.6-.4-1.1-.1-1.1.9 0 .9.4 1.4.9 1.1.5-.3 1.2.6 1.5 2.1 1.3 4.8 2.5 1 1.5-4.7-.5-3-1.2-7-1.5-8.8-.3-1.7-1-3.2-1.5-3.2-.6 0-.8 1.2-.5 2.7zm-1.2 5.8c0 1.6.2 2.2.5 1.2.2-.9.2-2.3 0-3-.3-.6-.5.1-.5 1.8zm9.5 7.6c.6 9.3 3 21.9 3.2 16.9.1-3.4-2.6-25-3.3-25.7-.2-.3-.2 3.7.1 8.8zm-2.7 1.8c0 1.1.5 2.3 1 2.6.6.3 1-.3 1-1.4 0-1.1-.4-2.3-1-2.6-.5-.3-1 .3-1 1.4zm17.7 21.1c.3 3 .9 6.2 1.4 7 1.4 2.5.9-4-.6-8.5l-1.4-4 .6 5.5z"/>
	<title>Schematic drawing of the summit, showing the circular route across the glacier and along the ridge labeled with A, B, and C. Arrows D and E point to either side out of the figure.</title>
</svg>
