<?xml version="1.0" encoding="utf-8"?>
<svg xmlns="http://www.w3.org/2000/svg" viewBox="0 0 1154 1002">
	<title>Diagram showing the Mont Pelvoux and nearby peaks, towns, and valleys. A dotted line labelled “our track” indicates the route towards the summit.</title>
	<path d="M432.7.902c-4.8.2-6.7.7-6.4 1.5.2.7 1.7 1.4 3.3 1.7 2.9.5 2.9.6 2.9 7 0 5.1.3 6.5 1.5 6.5s1.6-1.5 1.8-6.8c.3-6.7.3-6.7 3.2-6.7 1.6 0 3.1-.4 3.5-.9 1-1.7-2.8-2.6-9.8-2.3zm67.4.1-5.4.6v8l.1 8h6.6c7.8 0 9-1.9 1.6-2.3-4.6-.3-5.1-.5-4.8-2.5.2-1.7 1.1-2.3 3.6-2.5 4.4-.4 4.1-2.2-.4-2.2-3.1 0-3.5-.3-3.2-2.3.3-1.9 1-2.2 5.1-2.5 3-.2 4.7-.7 4.5-1.4-.5-1.5-1.2-1.6-7.7-.9zm17.3.4c-.3.8-.4 4.7-.2 8.8l.3 7.4 4.9.3c6.6.4 9.7-.4 8.9-2.4-.4-1.2-1.7-1.5-5.2-1.2l-4.6.3-.3-5c-.1-2.8-.5-6-.7-7.3-.6-2.4-2.3-2.9-3.1-.9zm20 .3c6.8 18.3 8.1 19.1 12.7 7.4 3.4-8.7 3.4-9.3 1.2-8.8-.9.2-2.3 2.3-3.3 5.2-.9 2.8-2.1 5.1-2.7 5.3-.6.2-1.9-2-2.9-4.9-1.3-3.5-2.6-5.4-3.8-5.6-1.5-.3-1.7 0-1.2 1.4zm25.2.5c-2.1 1.6-2.6 2.9-2.6 6.4 0 6.1 2.6 9 8 9 7.3 0 11-6.7 7.5-13.4-2.4-4.7-8.3-5.6-12.9-2zm10 2.6c3 4 .7 10.3-3.7 10.3-5.3 0-7.6-4.9-4.9-10.1 1.4-2.5 6.8-2.6 8.6-.2zm13.3-3.5c-.5 6.9.1 13.3 1.5 14.7 2.6 2.5 9.4 2.1 11.7-.8 2.1-2.6 2.7-13.5.8-14.6-1.6-1.1-2-.2-2.3 6.5-.3 6.5-1.3 8-5.3 8-2.5 0-3.1-1.6-3.5-9.4-.2-2.9-.8-5.1-1.5-5.4-.7-.2-1.3.2-1.4 1zm24.1.2c0 .8 1.1 2.3 2.5 3.4 3.2 2.5 3.1 3.9-.5 8.1-2.2 2.6-2.6 3.7-1.7 4.3.8.5 2.2-.3 3.9-2.2 3.4-3.6 4.1-3.7 6.2-.5.9 1.4 2.5 2.5 3.6 2.5 2.8 0 2.5-1.1-1-4.5-3.7-3.5-3.8-5.4-.5-8.5 1.4-1.3 2.5-2.7 2.5-3.2 0-1.6-2.4-.7-5.2 1.9l-2.8 2.6-2-2.6c-2.3-2.9-5-3.6-5-1.3zm-258.4 1.2c-.3.9-.6 4.7-.6 8.5 0 5.5.3 6.9 1.5 6.9s1.5-1.3 1.5-5.8c.1-5.3.2-5.6 1.6-3.7.8 1.1 2 3.7 2.6 5.8 1.4 4.7 2.7 4.3 4.7-1.5 2.3-6.8 3.1-6.9 3.1-.5 0 4.4.3 5.7 1.5 5.7s1.5-1.6 1.5-8.6v-8.5l-2.7.3c-2.4.3-3 1-4.2 5-.8 2.7-1.8 4.8-2.1 4.8-.4 0-1.3-1.9-2-4.3-1.6-5.5-5-7.7-6.4-4.1zm28 1.5c-3 3.5-3.2 5.8-1.1 9.8 3.7 7.2 15.1 4.7 15.7-3.4.6-8.7-9.1-12.9-14.6-6.4zm9.2.6c1.1 1 2.3 2.7 2.6 3.9.8 2.7-2.8 7.4-5.6 7.4-5.3 0-7.7-7.1-3.8-11 2.5-2.5 4.2-2.5 6.8-.3zm13.8-2.9c-.3.4-.2 4.3.1 8.5.7 9.1 2.5 9.9 3.3 1.6l.5-5.4 3.3 4.5c1.9 2.5 3.7 5.1 4.2 5.9.4.8 1.4 1.1 2.3.8 2.2-.8 1.9-16.2-.3-16.2-1.2 0-1.5 1.2-1.4 5.2.1 2.9-.1 5.3-.5 5.3-.3 0-1.7-1.7-3.1-3.7-4.3-6.4-7.1-8.6-8.4-6.5zm67.3-.4c-.3.3-.4 4-.2 8.3.1 6.1.5 7.9 1.7 8.1 1.2.3 1.6-.5 1.6-2.7 0-2.9.1-3 5.2-3.3 4.7-.3 5.4-.6 6.6-3.1 1.2-2.4 1.1-3.1-.2-5.3-1.5-2.1-2.4-2.4-8-2.4-3.4 0-6.5.2-6.7.4zm11.7 4.1c1 2.5-1.6 4.6-5 4.3-2.5-.2-3.2-.8-3.4-3.1-.3-2.6-.1-2.7 3.8-2.7 2.7 0 4.3.5 4.6 1.5zm3.1 43-2.8 3.5h-27.4c-19 0-27.6.3-28.1 1.1-.3.6 0 1.5.7 2 .8.4 13.6.7 28.6.6 26.6-.2 27.2-.2 29.5-2.4l2.4-2.3 2.2 2.3c2.2 2.1 2.9 2.2 22 2.2 10.8-.1 34.4-.4 52.5-.9l32.7-.7 3 2.9c1.7 1.7 3 3.9 3 5s.7 2.3 1.6 2.6c2.7 1 1.1-7.1-1.9-10.1-2.1-2.1-3.8-2.6-12.8-3.4-5.7-.5-15.1-.7-20.9-.4-5.8.3-25.5.7-43.8.8-28.7.2-33.5 0-34.2-1.3-3-5.1-3.3-5.2-6.3-1.5zm-108.4 7c-3.2 2-4.4 3.4-4.9 5.9-1.1 6.3.1 7.5 2.4 2.3 1.4-3 3-5.1 4.7-5.7 1.4-.5 12.3-1.3 24.2-1.7 15.9-.6 21.7-1.1 22.1-2.1.3-.9-4.5-1.2-22-1.2-22.1 0-22.3 0-26.5 2.5zm309.4 39.2c-2.8.4-2.8.5-2.5 7.1l.3 6.7 3.7.3c4.8.4 7.8-2.4 7.8-7.3 0-3.6-2.9-7.6-5.2-7.4-.7.1-2.6.4-4.1.6zm6.6 4.4c1.5 2.3.1 6.6-2.4 7.2-3.7 1-4.9-.2-4.9-5 0-4.4 0-4.4 3.1-4.1 1.8.2 3.6 1 4.2 1.9zm-93-3.4c-2 .7-1.8 13.3.2 13.3.9 0 1.5-.9 1.5-2.5 0-2.2.4-2.5 3.3-2.5 5 0 7.7-4.2 4.5-6.7-1.5-1.2-7.8-2.2-9.5-1.6zm6.8 2.4c1.6.8 1.8 1.3.8 2.5-.6.8-2.2 1.4-3.5 1.4-3.6 0-3.2-4 .4-4.9.2-.1 1.2.4 2.3 1zm5.9-1.5c0 .8 1.1 3 2.5 4.8 1.4 1.8 2.5 4.3 2.5 5.4 0 1.2.6 2.2 1.4 2.2.8 0 1.4-1 1.4-2.5 0-1.4 1.1-4.3 2.6-6.5 1.7-2.6 2.2-4.1 1.4-4.6-1-.6-4.7 3.1-4.8 4.8 0 1.6-1.7.7-3-1.6-1.5-3-4-4.2-4-2zm16.6-.4c-.3.7-.7 3.9-1 7.1-.6 5.2-.4 5.8 1.1 5.5 1-.2 1.9-1.4 2.1-2.6.5-3.1 4.6-2.7 5 .5.2 1.3 1 2.3 1.8 2.3 1.6 0 1.8-2.7.5-4.9-.6-1-.5-2.2.4-3.4 2.4-3.4.2-5.7-5.1-5.7-2.7 0-4.6.5-4.8 1.2zm6.9 3.3c0 2.2-3.1 3.3-4.7 1.7-1.7-1.7-.1-4.4 2.4-4 1.5.2 2.3 1 2.3 2.3zm10.5-1.3c-.7 1.8-2 4.8-2.8 6.6-1.8 4-.9 5.3 1.8 2.4 2.7-2.8 5.4-2.8 7.3 0 2.7 4.1 2.9 1 .4-5.4-3-7.3-4.9-8.3-6.7-3.6zm4 2.8c0 1.1-.7 2-1.5 2-1.5 0-2.1-2.1-.8-3.3 1.2-1.3 2.3-.7 2.3 1.3zm8.7-5.4c-.4.4-.7 3.6-.7 7.1 0 5.1.3 6.3 1.6 6.3 1.2 0 1.5-.8 1.3-3.4-.5-5.1.6-5.3 2.5-.5 1.3 3.3 1.9 3.9 3 3 .8-.7 1.7-2.7 2-4.6.9-4.8 2.7-4.4 2.4.5-.1 2.2.1 4.3.6 4.7 1.4 1.4 2.1-1.5 1.8-7.6-.3-5.1-.7-6.1-2.2-6.1-1.3 0-2.2 1.2-3 3.7-1.8 5.7-2.6 5.9-4.2 1.1-1.4-4-3.5-5.8-5.1-4.2zm18.1.6c-.4 1.1-.3 8.8.1 12 .1.5.8.8 1.6.8 1.1 0 1.4-1.4 1.2-6.7-.1-3.8-.7-6.8-1.3-7-.6-.2-1.4.2-1.6.9zm21.4 5.5.3 6.8h4.5c5.5 0 6.9-1.9 1.8-2.3-4.1-.3-5.3-2.8-1.8-3.4 2.8-.4 2.7-2.2-.1-2.8-4.1-1-3.4-3 1-3 2.3 0 4.1-.5 4.1-1 0-.6-2.3-1-5-1h-5.1l.3 6.7zm-123.7-.3c-1.4 3.1-2.5 6.1-2.5 6.6 0 .8-5.5.5-8.7-.6-.8-.2-1.3-2.2-1.3-5.5 0-3.6-.4-4.9-1.2-4.7-1.7.6-1.9 10.2-.4 12.4 1.8 2.4 13.2 1.1 14.7-1.7 1.3-2.5 4.6-2.4 6.1.1 1.4 2.2 3.8 2.7 3.7.7-.1-2.2-5.4-12.1-6.7-12.5-.7-.2-2.2 1.9-3.7 5.2zm4.5 2c-1.5 1.5-3.3-.4-1.9-2 1-1.2 1.4-1.2 2-.2.5.7.4 1.7-.1 2.2zm-81.4-4.3c-6.8 5.3.7 17.2 7.9 12.5 1.4-.9 2.5-2.5 2.5-3.6 0-2.4-1.3-2.6-3-.5-3.3 3.9-8.9.1-7.1-4.8 1.3-3.4 3.5-3.9 6.4-1.6 3 2.3 3.7 2.4 3.7.5 0-1.1-5.5-4.6-7.3-4.6-.2 0-1.6.9-3.1 2.1zm23.4 4.9v7h4.3c2.3 0 4.7-.4 5.3-.8 3.6-2.4 3.9-9.3.5-11.9-.9-.7-3.5-1.3-5.8-1.3H521v7zm8.1-4c3.7 2.1 1.4 9-3.1 9-1.3 0-2-1-2.5-4-1-5.8.9-7.5 5.6-5zm7.6-2.3c-.4.3-.7 3.2-.7 6.4 0 6.3.6 6.9 6.8 6.6 3.4-.2 4-2.1.7-2.4-1.1 0-2.6-.1-3.2-.2-2.2-.2-1.4-2.9 1-3.3 2.7-.4 2.5-2.2-.3-2.6-3.4-.6-1.7-2.7 2.3-3 2.1-.2 3.5-.7 3.2-1.3-.7-1-8.8-1.3-9.8-.2zm-62.2 2.6c-1.1 4.3-.1 11.2 1.5 11.2 1 0 1.4-.8 1.2-2.3-.3-1.8.1-2.2 2.5-2.2 3.2 0 5.7-1.6 6.6-4.2 1-2.8-2-4.8-6.9-4.8-3.7 0-4.4.3-4.9 2.3zm9.3 1.9c.3 1.5-.4 1.8-3.2 1.8-3 0-3.6-.4-3.6-2.1 0-1.7.5-2 3.2-1.7 2.2.2 3.4.9 3.6 2zm5.7-3.1c-.9 2.5-.1 12.4 1 12.2 1.4-.4 1.8-9.9.6-12-.9-1.6-1-1.6-1.6-.2zm124.3 27.6c-2.5.6-3.3 4.2-1.3 6.2 1.5 1.5 1.6 1.4 1-1-.7-2.8 1.2-4.3 4-3.3 2.4 1 1.8 2.5-2.7 7.1l-4.2 4.3h5.8c4.2 0 5.7-.3 5.4-1.3-.3-.6-1.7-1.3-3.2-1.5-2.8-.4-2.8-.4-.7-1.8 3.7-2.6 4.4-5.1 2.1-7.4-2-2-2.9-2.2-6.2-1.3zm12.9 1.1c-1.9 2.1-2.2 7.3-.7 10.3 1.4 2.5 7.1 2.6 9.3.1 1.7-1.9 2.2-6.8.9-8.8-.9-1.4-4.7-3.4-6.5-3.4-.8 0-2.1.8-3 1.8zm6.5 2.7c.8 1.9.8 3.1 0 5-2.7 5.9-8 .3-5.6-5.9.9-2.5 4.3-1.9 5.6.9zm-62.3-2.3c-.4 10.2-.3 12.2.9 12.5.9.4 1.2-1.4 1.2-6.6 0-4.1-.4-7.1-1-7.1-.5 0-1 .6-1.1 1.2zm7.1.3c-.6.8-1 2.2-.7 3.2.4 1.6.6 1.5 1.2-.5.5-1.5 1.5-2.2 3.1-2.2 3.6 0 3 3.2-1.2 7-4.2 3.6-3.5 4.8 2.6 4.2 4.4-.5 5.5-2.2 1.3-2.2h-2.7l2.7-2.8c2.9-3.1 3.4-5.1 1.5-7-1.7-1.7-6.3-1.5-7.8.3zm20 .5c-1.7 3.2.4 6 4.5 6 2.4 0 3.5.5 3.5 1.4 0 2.3-4.1 3.1-5.5 1.2-1.6-2.1-2.5-2-2.5.3 0 3.4 6.6 4.3 9.3 1.3 1.9-2.1 2.2-7.3.7-10.3-1.5-2.7-8.5-2.7-10 .1zm8 2c0 2.4-1.5 3.3-4 2.5-2.5-.8-2.6-4.2-.2-4.7 2.6-.6 4.2.2 4.2 2.2zm-262-2.3c-3.3 1.2-5 3.7-5 7.4 0 5.1 2 6.9 8.1 6.9h4.9v-3.4c0-2.8-.4-3.4-2.5-3.8-3.2-.7-3.9.1-1.7 1.8 1.5 1.2 1.5 1.5.2 2.4-2.6 1.7-5 1.1-6.2-1.5-2.6-5.7 4-10.4 7.5-5.4 1.1 1.5 1.7 1.7 2.3.8.4-.8-.3-2.1-2-3.6-2.8-2.4-3.1-2.5-5.6-1.6zm42.4.1c-3.5 2.3-1.7 6 3.9 8.1 1.6.6 2.7 1.7 2.5 2.4-.7 1.8-4.3 2-5.8.2-1.6-1.9-3-1.9-3 0 0 .8 1.6 1.8 3.7 2.4 3 .8 4.2.7 6.1-.5 3.3-2.2 2.4-4.6-2.6-6.9-2.3-1.1-4.1-2.4-3.9-3 .6-1.7 3.8-1.8 5.7 0 2.3 2.1 3.6.3 1.4-1.9-1.6-1.7-6.1-2.1-8-.8zm54.2 1.3c-3.5 2.7-3.7 9-.4 11.3 7.4 5.2 14.8-4.5 8.3-10.9-2.9-3-4.5-3.1-7.9-.4zm6.4 1.9c1.1 1.1 2 2.6 2 3.3 0 1.9-2.9 5.7-4.5 5.7-1.7 0-4.5-3.8-4.5-6.2 0-1.8 2.5-4.8 4.1-4.8.5 0 1.8.9 2.9 2zm33.2-3.3c-3 .3-5 .8-4.7 1.4.4.5 1.5.9 2.6.9 2 0 2.2.8 1.9 7.3-.1 3.3.1 3.8 1.7 3.5 1.5-.3 1.7-1.2 1.5-5.6-.4-5.1-.3-5.2 2.3-5.2 1.6 0 2.5-.5 2.3-1.2-.5-1.4-1-1.5-7.6-1.1zm-162.5.9c-.4.4-.7 3.6-.7 7.1 0 4.9.3 6.3 1.5 6.3.9 0 1.5-1 1.5-2.6 0-2.3.3-2.5 3.3-2.2 2.4.2 3.3.8 3.5 2.5.6 4.2 2.2 2.3 2.4-2.7.1-2.8.2-5.7.2-6.5.2-2.8-1.9-2-2.2.8-.3 2.5-.7 2.8-3.5 2.5-2.3-.2-3.3-.9-3.5-2.3-.5-2.5-1.6-3.8-2.5-2.9zm38.5 6.1c.2 3.9.7 6.7 1.3 6.5.6-.1 1-1.2 1-2.5 0-1.8.7-2.3 3.8-2.5 3.4-.3 3.7-.1 3.7 2.2 0 1.4.5 2.6 1 2.6.9 0 1.2-2 1.4-10.2.1-3.2-2.2-3.4-2.6-.1-.3 2.4-.8 2.8-3.3 2.8s-3-.4-3.3-2.8c-.2-1.6-.9-2.7-1.8-2.7-1.2 0-1.4 1.3-1.2 6.7zm16.3-6.1c-.5.2-1 2.9-.9 6 0 6.6 1.2 7.7 7 6.6l3.9-.7-3.9-.5c-4.7-.6-5.8-2.6-2.1-4 1.4-.5 2.4-1.4 2-2-.3-.5-1.2-.7-1.9-.4-1.5.6-3.2-1.3-2.2-2.3.3-.3 1.8-.6 3.2-.7 1.5-.1 2.9-.7 3.2-1.4.2-.8-.8-1.2-3.5-1.1-2.1 0-4.2.2-4.8.5zm25.5.2c0 .6 1.1 1.3 2.4 1.6 2.2.5 2.5 1.3 2.8 5.6.4 6.7 2.2 6.9 2.6.3.2-4.3.6-5.2 2.3-5.5 4.4-.7 2-2.3-3.8-2.6-3.5-.2-6.3.1-6.3.6zm26.2 5.9c.3 6.7 1.8 8.8 2.8 4.1.4-1.7 1.4-2.4 3.7-2.6 4.3-.4 5.9-2.5 4.5-5.7-1-2.2-1.8-2.5-6.2-2.5h-5.1l.3 6.7zm7.9-4.7c1.9 0 .8 3.9-1.2 4.5-3 1-5.7-1.8-3.9-4 .7-.9 2-1.3 2.7-1 .8.3 1.9.5 2.4.5zm22.9 4.5c0 3.7.4 6.5 1 6.5s1-2.8 1-6.5-.4-6.5-1-6.5-1 2.8-1 6.5zm6-.1c0 3.6.5 6.8 1 7.1 1.2.7 1.4-.5 1-6l-.2-4 2.2 2c1.2 1.1 2.9 3.2 3.8 4.7 2.8 4.9 4.3 3.6 4-3.5-.2-3.7-.7-6-1.3-5.7-.5.3-1 1.5-1 2.7-.1 3.7-1.2 3.6-4-.1-4.2-5.5-5.5-4.8-5.5 2.8zm-128 1.1c0 5.1.3 6.5 1.5 6.5s1.5-1.4 1.5-6.5-.3-6.5-1.5-6.5-1.5 1.4-1.5 6.5zm169.6-4.6c-.4.5-.2 1.2.3 1.5.5.4 1.2.2 1.5-.3.4-.5.2-1.2-.3-1.5-.5-.4-1.2-.2-1.5.3zm88.7 8.8c0 4.5.1 4.6 1.7 2.5 1.9-2.3 1.6-7.2-.5-7.2-.9 0-1.3 1.5-1.2 4.7zm-88.7 3.8c-.3.9 0 1.5.9 1.5 1.6 0 2-1.6.6-2.4-.5-.3-1.1.1-1.5.9zm-.1 12.4c-.7 1.2 1.2 2.4 2.5 1.6 1.1-.7.4-2.5-1-2.5-.5 0-1.1.4-1.5.9zm-127.9 3.8c-1 1-.7 12.1.4 12.8 1.2.8 1.1 1.3 1.6-6.2.4-5.6-.4-8.2-2-6.6zm6.6.2c-.8.5-1.2 1.9-.9 3.2l.4 2.4.8-2.3c.9-2.6 4.3-3 5.2-.5.5 1.2-.6 2.8-3.5 5.4-4.3 3.8-4.1 4.9.8 4.3 1.4-.1 3.3-.3 4.3-.3 2.5-.1 1.1-2.1-1.5-2.1-2.1 0-2.1-.1.5-2.8 1.5-1.5 2.7-3.6 2.7-4.5 0-2.9-5.8-4.8-8.8-2.8zm20.5.9c-2.2 2.4-2.1 3.5.3 5.7 1.2 1.1 2.9 1.6 4.5 1.3 2.9-.6 3.5 1.6.8 3.1-1.3.7-2.3.5-3.6-.6-2-1.9-3-1.3-2.1 1.1.9 2.2 6.6 2.1 8.7-.2 2.3-2.5 2.2-8.5-.1-10.5-2.4-2.2-6.5-2.1-8.5.1zm6.8 2.7c0 2.3-3.4 3.3-4.6 1.4-1-1.7.9-4.1 3-3.7.9.2 1.6 1.2 1.6 2.3zm6.2-3.9c-1.1 1.2.3 2.4 2.9 2.4 2.9 0 2.9.1.3 5.2-1.4 2.7-1.7 4.4-1.1 5 1.6 1.6 3.2 0 3.2-3.1 0-1.5.7-3.6 1.5-4.7 2.7-3.6 1.9-5.4-2.3-5.4-2.1 0-4.2.3-4.5.6zm11.4.8c-.9 1.1-.9 1.6 0 2.2.7.4 1.5.2 1.7-.4.2-.7 1.5-1.2 2.8-1.2 3.7 0 3.4 4-.3 4.1-2.1.1-2.3.2-.8.6 3 .7 4.5 2.3 3.8 3.9-.7 2-5 1.8-6.2-.3-1.1-2.1-2.6-1.1-1.8 1.1 1.3 3.2 10.1 3.2 11.4 0 .3-.9-.1-2.3-1-3.1-1.2-1.3-1.3-2.1-.4-4s.8-2.6-.4-3.4c-2.2-1.4-7.5-1.1-8.8.5zm77.4 7.6c-.4.6-.3 1.6.3 2.2.6.6 1.2.6 1.7-.2.4-.6.3-1.6-.3-2.2-.6-.6-1.2-.6-1.7.2zm-108.6.2c-.1.2-.3 2.2-.4 4.6-.3 3.6-.1 4.1 1.1 3.1 1.6-1.3 1.9-6.5.4-7.4-.5-.3-1.1-.5-1.1-.3zm108.1 13.2c0 .9.7 1.6 1.6 1.6.9 0 1.4-.5 1.2-1.2-.6-1.8-2.8-2.1-2.8-.4zm-97 2.2c0 .9.5 1.4 1.2 1.2 1.8-.6 2.1-2.8.4-2.8-.9 0-1.6.7-1.6 1.6zm-279.8 5.6c-1.4 1.4-1.6 4.4-.3 5.2.5.3 1.1-.3 1.4-1.4.3-1.2 1.4-2 2.6-2 3.3 0 2.6 3.5-1.4 6.7-1.9 1.5-3.5 3.1-3.5 3.5 0 .5 2.3.8 5.1.8 3.6 0 4.9-.4 4.6-1.3-.2-.6-1.1-1.1-2.1-.9-2.3.4-2-1.1.9-3.8 1.4-1.3 2.5-3.2 2.5-4.1 0-3.4-7.2-5.3-9.8-2.7zm22.3.4c-1.1 1.1-1.4 2.5-1 4.4.3 1.6.2 3.1-.4 3.5-2.9 1.7.8 5.5 5.3 5.5s6.3-2.2 4.7-5.6c-.9-2-.9-3 0-4 .9-1.1.8-1.9-.6-3.4-2.2-2.4-5.8-2.6-8-.4zm5.8 3.4c-.7 2.5-3.6 2.3-4.1-.3-.3-1.2.3-1.7 2.1-1.7 2 0 2.4.4 2 2zm-.3 4.5c1.5 1.8.5 3.5-2 3.5-1 0-2.2-.5-2.5-1-.7-1.1 1.2-4 2.5-4 .4 0 1.3.7 2 1.5zm11.8-8.2c-1.8 1.4-6.8 8.1-6.8 9 0 .4 1.3.7 2.9.7 1.8 0 3.4.8 4.4 2.2l1.6 2.3.7-2.3c.8-2.7 2.8-2.8 6.1-.2 3.1 2.4 6.1 2.5 9.1.4 4.2-2.9 1.7-8.4-3.9-8.4-1.6 0-2.9-.5-2.9-1 0-.6 1.3-1 2.9-1 3.2 0 4.9-1.4 3.1-2.5-2-1.2-7.9.5-8.5 2.4-.9 2.8.4 5.4 2.1 4 2-1.7 5.4-.1 5.4 2.6 0 1.2-.7 2.5-1.5 2.9-1.7.6-4.5-.2-4.5-1.4 0-.4-1.6-1.1-3.5-1.4-3.3-.7-3.5-.9-3.5-4.6 0-4.4-1-5.5-3.2-3.7zm.2 5.7c0 1.3-.7 2-2 2-1.8 0-1.9-.3-1-2 .6-1.1 1.5-2 2-2 .6 0 1 .9 1 2zm-47.5-1.7c-.9 5.6-.4 8.2 1.5 8.2 1.2 0 1.5-1.3 1.4-5.9-.1-7.2-2-8.7-2.9-2.3zm551 .2c-3.1 3-3.2 7.3-.5 10.3 5.6 6 14.4-1.3 10.6-8.6-2.5-4.9-6.4-5.5-10.1-1.7zm7.4 1.9c3.1 3.7-.9 10.3-4.6 8-2.2-1.4-3-7.4-1.1-8.5 2-1.3 4.4-1.1 5.7.5zm-88.2-2.7c-.4.3-.7 3.5-.7 7v6.3h4.9c4 0 5.3-.4 6.5-2.2 3.7-5.3.1-11.8-6.5-11.8-2 0-3.9.3-4.2.7zm8.1 3.5c.7.7 1.2 2.1 1.2 3.3 0 2.9-1.9 4.5-5.2 4.5-2.7 0-2.8-.2-2.8-4.5s.1-4.5 2.8-4.5c1.5 0 3.3.5 4 1.2zm17 .8c-.1 2.7-.2 5.8-.2 6.7-.1 1 .7 1.9 1.8 2.1 1.6.3 1.8 0 1.2-2.2-.6-2.4-.4-2.6 2.8-2.6 3.5 0 6.6-2.1 6.6-4.4 0-2.5-3.6-4.6-7.8-4.6H614l-.2 5zm8.7-.5c0 1.3-.8 2.1-2.4 2.3-2.8.4-4.6-1.1-3.7-3.3.9-2.5 6.1-1.6 6.1 1zm6.2-3.9c-.4.4-.7 3.6-.7 7.1v6.3h5c5.8 0 6.8-1.7 1.3-2.2-4.3-.3-5.4-3.1-1.5-3.6 3-.5 2.8-2.2-.3-2.2-3.8 0-3.2-2.8.8-3.2 1.7-.2 3.2-.8 3.2-1.3 0-1.2-6.7-1.9-7.8-.9zm12.8.6c-.3.8-.5 4-.3 6.9l.3 5.4h3.9c2.4 0 4.1-.5 4.4-1.3.3-1-.4-1.3-2.4-1-2.8.3-2.9.2-3.2-4.7-.3-5.3-1.7-7.9-2.7-5.3zm11.3-.7c-.6.7 4.8 12.1 6.2 13 .6.4 2.1-1.7 3.6-5 3-7 3.2-7.6 1.8-8.2-.6-.2-1.8 1.5-2.7 3.7-.8 2.2-2 4-2.5 4s-1.6-1.8-2.5-4c-1.4-3.7-2.6-4.8-3.9-3.5zm30.4 5.5c.5 6.7 1.4 8 6.4 8 4.6 0 6.6-2.8 6.2-8.6-.4-6.6-2.8-7.2-2.8-.7 0 5.9-1 7.6-4.1 7.1-2.1-.3-2.5-.9-2.9-5.7-.3-3.4-1-5.6-1.9-5.9-1.1-.4-1.3.8-.9 5.8zm15.8-5.2c0 .5.9 1.7 2 2.7 1.1 1 2 2.3 2 3 0 .7-.9 2-2 3s-2 2.2-2 2.7c0 1.6 2.9.8 4.4-1.4l1.5-2.1 2.7 2.6c2.8 2.9 3.9 3.3 4.8 1.8.4-.5-.7-2.1-2.4-3.4-1.6-1.4-3-2.9-3-3.3 0-.4 1.2-2.1 2.7-3.6 2.5-2.6 2.5-2.8.6-2.8-1.1 0-2.8 1-3.6 2.2l-1.6 2.3-1.6-2.3c-1.6-2.1-4.5-3.1-4.5-1.4zm-195.3.8c-.8.8.1 2.4 1.4 2.4.5 0 .9-.7.9-1.5 0-1.5-1.2-2-2.3-.9zm24 .9c-1 .7-2.1 3.1-2.4 5.3-.5 3.4-.2 4.2 2.3 6.1 1.9 1.5 3.5 2 4.9 1.6 1.1-.4 3-.6 4.3-.6 1.5.1 2.2-.5 2.2-1.8 0-3.6-1.2-5.1-3.9-5.1-2.4.1-2.4.2-.8 1.4 2.6 2 2 3.6-1.3 3.6-3.8 0-5.6-3.2-4.1-7.3.8-2 1.7-2.7 3.6-2.7 1.4 0 2.8.7 3.1 1.5.8 1.9 2.4 1.9 2.4 0 0-3.2-7-4.6-10.3-2zm14-.1c-.8 2 .4 12.6 1.4 12.6.4 0 .9-1.2 1.1-2.8.3-3.1 4.4-4.5 5.3-1.8.3.9.7 2.4 1 3.3.4 1.1.9 1.3 1.6.6.6-.6.6-1.9-.1-3.7-.7-1.9-.6-3.2.2-4.5 2.1-3.4.3-5.1-5.1-5.1-3.3 0-5.1.5-5.4 1.4zm8.3 2.6c0 1.6-.7 2-3 2s-3-.4-3-2 .7-2 3-2 3 .4 3 2zm8.4 1.7c-2.6 8.1-2.7 8.3-1.5 8.3.5 0 1.3-.9 1.6-2 .9-2.8 5.8-2.7 7.7.2 2.6 3.9 2.6.4 0-6-3.3-8-5.2-8.2-7.8-.5zm5.3 0c.2.6-.3 1.3-1.2 1.6-1 .5-1.5 0-1.5-1.4 0-2.1 2.1-2.2 2.7-.2zm8.5.5c.3 6.2 2.3 8.6 2.3 2.9 0-4.5 1-4.5 4-.1 4.1 6 5.5 5.3 5.5-2.6 0-4.8-.3-6.4-1.2-6.1-.8.2-1.2 1.7-1 3.6.3 4-1.1 3.9-4.4-.4-4.1-5.4-5.6-4.7-5.2 2.7zm-165.2-2.6c0 .8.5 1.2 1 .9.6-.3 1-1 1-1.6 0-.5-.4-.9-1-.9-.5 0-1 .7-1 1.6zm-267.1 2.1c-.6 3.8-.2 7.3.8 7.3 1.5 0 2.8-4.3 1.9-6.5-.6-1.5-2.5-2.1-2.7-.8zm363.8 7.9c-.8.8.1 2.4 1.4 2.4.5 0 .9-.7.9-1.5 0-1.5-1.2-2-2.3-.9zm-96.5 2.5c.2.6.8 1 1.3 1s1.1-.4 1.3-1c.2-.6-.4-1.1-1.3-1.1s-1.5.5-1.3 1.1zm96.8 10.8c0 1.2.5 2.1 1 2.1.6 0 1-.6 1-1.4 0-.8-.4-1.8-1-2.1-.5-.3-1 .3-1 1.4zm-348 1.6c0 .8.5 1.5 1 1.5.6 0 1-.7 1-1.5s-.4-1.5-1-1.5c-.5 0-1 .7-1 1.5zm251.7-.8c-1.2 1.1-.8 2.3.8 2.3.8 0 1.5-.7 1.5-1.5 0-1.6-1.2-2-2.3-.8zm238.4 3.4c-2.5 1.5-3.1 2.6-3.1 5.2 0 4.8 2.4 7.7 6.4 7.7s6.7-2.7 6.8-6.9c.2-6-5-9.1-10.1-6zm6.9 2.8c1.4 2.7 1.3 4.7-.6 6.5-2.2 2.3-4.1 2-6-.9-1.4-2.1-1.5-3.1-.6-5 1.4-3.1 5.7-3.4 7.2-.6zm30.8-3.8c-2.1 1.2-2.4 4.2-.5 5.6.6.6 2.5 1.5 4.1 2 1.7.5 3.2 1.5 3.4 2.1.5 1.6-5 1.6-6.6 0-1.4-1.4-2.7-.4-1.9 1.6 1.7 4.3 10.7 2.6 10.7-2 0-2.1-.8-2.9-4-4.1-2.2-.9-4-2.2-4-3 0-1.6 2.4-1.7 5.2-.2 2.7 1.4 3.8.1 1.4-1.7-2.3-1.6-5.4-1.8-7.8-.3zm16.2-.3c-1.9.2-3.7.8-4 1.2-.5.7-.5 8-.1 11.2.1 1.2 10.1.9 10.1-.2 0-.6-1.8-1-4.1-1-3.3 0-4-.3-3.7-1.8.2-1 1.4-1.8 3.1-2 3.3-.4 2.6-2.2-.9-2.2-4 0-2.3-2.5 1.9-2.8 2-.2 3.7-.7 3.7-1.2 0-1.2-2-1.6-6-1.2zm-158 1.1-3.5.6-.3 6.2-.3 6.3h5.2c3.8 0 5.5-.5 6.5-1.8 1.9-2.5 1.7-7.6-.3-9.4-2.7-2.3-3.5-2.5-7.3-1.9zm5 3.1c2.3 2.3 2.4 3.3 1 6.1-.7 1.2-2.1 1.9-4 1.9-2.9 0-3-.2-3-4.4 0-4 .7-5.3 3.3-5.5.4-.1 1.6.8 2.7 1.9zm9.6-3.3-3.9.4.7 4.6c.3 2.5.6 5.4.6 6.4 0 1.6.8 1.9 5.1 1.9 3.6 0 4.9-.4 4.6-1.3-.2-.7-1.8-1.1-4-.9-3.2.3-3.7.1-3.7-1.7 0-1.6.6-2.1 2.4-2.1 3.5 0 4.2-1.8.9-2.2-4.2-.5-4.1-2.8.1-2.8 2.5 0 3.6-.4 3.6-1.5 0-.8-.6-1.4-1.2-1.3-.7.1-3 .3-5.2.5zm19.4.1c0 2.4 5.3 12.2 6.6 12.2 2.1 0 6.9-10.9 5.5-12.3-.8-.8-1.6.2-2.8 3.1-1 2.3-2.1 4.2-2.5 4.2-.3 0-1.5-1.7-2.5-3.7-1.7-3.5-4.3-5.6-4.3-3.5zm17.1 5.8c-3.6 7.7-3.5 7.4-1.6 7.4.8 0 1.9-.9 2.5-2 1.4-2.6 5.2-2.6 6.8 0 2.4 3.8 3 1 1-4.2-2.1-5.5-3.5-7.8-4.8-7.8-.5 0-2.2 3-3.9 6.6zm5.4.4c-.5.8-1.1.8-1.7.2-.6-.6-.7-1.6-.3-2.2.5-.8 1.1-.8 1.7-.2.6.6.7 1.6.3 2.2zm9.2-6.3c-1.3 1.3-.7 11 .7 12.2 1.7 1.4 10.2 1.1 9.9-.4-.1-.6-1.9-1.2-4-1.5-3.7-.5-3.8-.6-4.1-5-.3-4.6-1.3-6.6-2.5-5.3zm22.8.2c-.7 1.2.5 12.1 1.4 12.2 8.1 1 9.1.9 9.1-.5 0-1.1-.9-1.6-2.9-1.6-2.7 0-5.3-1.9-5-3.6.8-4.7-.9-9.1-2.6-6.5zm29.1-.1c-.9 1.6 1.1 11.4 2.5 12.3 2.1 1.3 5.2 1.1 7.7-.7 1.8-1.2 2.2-2.5 2.2-7 0-4-.4-5.4-1.4-5.4-1 0-1.4 1.2-1.4 4.3.1 5.3-.6 6.7-3.7 6.7-2.7 0-3.5-1.7-3.5-7.1 0-3.6-1.2-5.1-2.4-3.1zm16.4 5.7c0 4.9.3 6.6 1.3 6.2.8-.2 1.2-2.4 1.2-6.2 0-3.8-.4-6-1.2-6.3-1-.3-1.3 1.4-1.3 6.3zm-519.4 3.2c-1.1 1.1-.6 2.3.9 2.3.8 0 1.5-.4 1.5-.9 0-1.3-1.6-2.2-2.4-1.4zm347.4.8c0 .9.5 1.5 1.1 1.3.6-.2 1.1-.8 1.1-1.3s-.5-1.1-1.1-1.3c-.6-.2-1.1.4-1.1 1.3zm-96 1c0 .8.5 1.5 1 1.5.6 0 1-.7 1-1.5s-.4-1.5-1-1.5c-.5 0-1 .7-1 1.5zm123 8.1c0 .8.5 1.2 1 .9.6-.3 1-1 1-1.6 0-.5-.4-.9-1-.9-.5 0-1 .7-1 1.6zm-26.4 2.1c-1.2 1.2-.6 3.3.9 3.3.8 0 1.5-.6 1.5-1.4 0-1.7-1.4-2.8-2.4-1.9zm-348.4 1.2c.2.7.7 1.2 1.1 1.2 1.2-.1.9-1.5-.3-2-.7-.2-1.1.2-.8.8zm251.8 1.6c0 .8.7 1.5 1.5 1.5s1.5-.7 1.5-1.5-.7-1.5-1.5-1.5-1.5.7-1.5 1.5zm123 7c0 .8.5 1.5 1 1.5.6 0 1-.7 1-1.5s-.4-1.5-1-1.5c-.5 0-1 .7-1 1.5zm86.6 2.7c-4.4 5.1-4.6 6.8-.6 6.8 2 0 3 .5 3 1.5 0 .8.6 1.5 1.4 1.5.8 0 1.6-.7 2-1.5.3-.8 1.2-1.5 2.1-1.5 2.2 0 1.8-1.7-.5-2.3-1.5-.4-2-1.4-2-4 0-2-.4-3.8-.9-4.1-.5-.4-2.5 1.3-4.5 3.6zm2.7 2.8c-.3 1.1-1.4 2-2.4 2-2.3 0-2.4-.8-.3-3.1 2-2.2 3.4-1.6 2.7 1.1zm-50.6-5.3c-1.2 1.1-.8 12.1.4 12.9 1.8 1.1 2.4-1 2.1-7.5-.4-5.7-.9-7-2.5-5.4zm7.6 0c-1.5.5-1.8 5.3-.4 5.3.5 0 1.1-.9 1.4-2 .6-2.4 4.7-2.8 4.7-.4 0 2.6-2 5.5-4.6 6.4-4.8 1.9-2.3 4 3.9 3.2 3.8-.4 5.2-2.2 1.7-2.2-2.4 0-2.6-1.3-.4-3 2.8-2.4 3.5-4.7 1.8-6.4-1.5-1.5-5.5-2-8.1-.9zm24.7.8c-1.7 2.1-.7 2.9 1.8 1.4 2.2-1.4 5.6-.5 5 1.3-.3.7-1.5 1.5-2.9 1.9l-2.4.6 2.8.8c3.5.9 3.8 4.5.3 4.5-1.3 0-2.9-.7-3.6-1.5-.7-.8-1.7-1.2-2.2-.9-.5.3-.2 1.4.8 2.5 3.3 3.7 11.7 1.4 9.9-2.7-.5-1-.9-3.5-1-5.4 0-3.3-.2-3.5-3.6-3.8-2.3-.2-4 .2-4.9 1.3zm27.1-.1c-1.7 2.1.5 3.1 2.5 1.2 2-2 1.9-2 4.3.5 2.4 2.6 4.6 1.7 3.1-1.2-1.3-2.3-8.1-2.7-9.9-.5zm-472.6 2.9c-.4 1-.5 2.1-.1 2.4 1 1 1.8-.4 1.3-2.4-.4-1.7-.4-1.7-1.2 0zm348-.3c-.4.6-.3 1.6.3 2.2.6.6 1.2.6 1.7-.2.4-.6.3-1.6-.3-2.2-.6-.6-1.2-.6-1.7.2zm-96 1.9c-.6 1.1.9 2.3 1.9 1.4.9-.9.7-2.3-.3-2.3-.6 0-1.2.4-1.6.9zm224.7 0c-1 .6-.7 1 1.3 1.5 1.8.5 2.5 1.2 2.3 2.4-.5 2.4-4.7 2.8-6.3.5-.7-1-1.7-1.5-2.1-1.1-1.2 1.3 2.7 4.8 5.3 4.8 5.7 0 8.1-4 4.5-7.3-2.1-1.9-3.1-2.1-5-.8zm-42.5 3.8c-.8 1.3-.1 7.8.9 7.7.5 0 1.3-1.3 1.8-2.7.8-2.1.6-3.1-.6-4.3-.9-.9-1.8-1.2-2.1-.7zm-60 2.9c-.8.8.1 2.4 1.4 2.4.5 0 .9-.7.9-1.5 0-1.5-1.2-2-2.3-.9zm-26.2 4.4c-1.1 1.7.5 3.2 2.1 1.9.7-.6 1.1-1.5.8-2-.7-1.2-2.1-1.1-2.9.1zm-348.5 1c0 .5.5 1 1 1 .6 0 1-.5 1-1 0-.6-.4-1-1-1-.5 0-1 .4-1 1zm253.5 0c-.7 1.2.2 3 1.6 3 1.2 0 1.2-2.7 0-3.5-.5-.3-1.2-.1-1.6.5zm121.5 7.5c0 .8.5 1.5 1 1.5.6 0 1-.7 1-1.5s-.4-1.5-1-1.5c-.5 0-1 .7-1 1.5zm-374.5 4.5c-.4.6-.3 1.6.3 2.2.6.6 1.2.6 1.7-.2.4-.6.3-1.6-.3-2.2-.6-.6-1.2-.6-1.7.2zm348.5 1.1c0 2.4 2.3 2.1 2.8-.4.2-1-.3-1.7-1.2-1.7-1 0-1.6.9-1.6 2.1zm-94.6.3c-.8 2.2.3 3.3 1.8 1.8.9-.9.9-1.5 0-2.4-.9-.9-1.3-.7-1.8.6zm120.6 7.1c0 .8.5 1.5 1 1.5.6 0 1-.7 1-1.5s-.4-1.5-1-1.5c-.5 0-1 .7-1 1.5zm-374.5 3.5c-.4.6-.3 1.6.3 2.2.6.6 1.2.6 1.7-.2.4-.6.3-1.6-.3-2.2-.6-.6-1.2-.6-1.7.2zm348 0c-1 1.6.7 3.1 2.3 2.1 1-.6 1-1-.2-2-1-.9-1.6-.9-2.1-.1zm-95 2c-.3.5.1 1 .9 1 .9 0 1.6-.5 1.6-1 0-.6-.4-1-.9-1-.6 0-1.3.4-1.6 1zm121.5 6.4c0 .9.7 1.6 1.6 1.6.9 0 1.4-.5 1.2-1.2-.6-1.8-2.8-2.1-2.8-.4zm-374.5 4.6c-.8 1.3.4 3.2 1.6 2.5 1.2-.8 1.2-3.5 0-3.5-.6 0-1.3.4-1.6 1zm243.4 5.5c-3.9 3-9.1 7.1-11.5 9.2-2.3 2.1-6.9 5.3-10.2 7.1-6.2 3.5-22.4 15.8-28.1 21.4-1.8 1.8-5.2 5.7-7.4 8.5-2.1 2.9-4.3 5.3-4.8 5.3-1.2 0-8.9 8-8.9 9.2 0 .5-2 4.1-4.5 7.9-2.4 3.8-6.6 10.6-9.1 15.2-2.6 4.5-5.3 8.9-6.1 9.9-.8.9-1 1.9-.5 2.2 1 .6 6.2-6.9 10.2-14.4 1.2-2.5 2.8-5.2 3.5-6 .6-.8 3.3-4.9 5.9-9.2 2.6-4.2 7.7-10.5 11.4-14s8.4-8.5 10.5-11.1c4.5-5.6 17-15 34.5-26 2.3-1.5 4.2-3.2 4.2-3.7 0-.6.7-1 1.5-1s1.4.8 1.3 1.7c-.4 5.6 0 6.1 5.5 6.6 11.9 1.2 12.7 1.6 16.3 8.6 4 7.9 5.2 8.6 9.8 6.4 3.6-1.7 3.6-1.6 6.4.9 1.5 1.5 4.5 2.9 6.8 3.3 4.6.7 12.4 5.8 12.4 8.1 0 .8 1 1.4 2.3 1.4 1.2 0 3.8 1.1 5.8 2.4 1.9 1.3 5.3 2.9 7.6 3.5 2.2.6 4.8 2 5.8 3.1 1.7 1.9 1.7 2.1-.1 4.1-1 1.2-3.1 2.7-4.6 3.5-3 1.5-7.8 9.9-7.8 13.4 0 3.4-1.9 6-4.4 6-3.1 0-9 8.6-11 16.1-.8 3-1.8 6.4-2.2 7.6-.4 1.5-.2 2.3.5 2.3 1.5 0 4.4-6.8 3.7-8.7-.6-1.4 2.9-9 5.7-12.6.8-.9 2.6-1.7 3.9-1.7 3.4 0 4.9-2 5.5-7.2.7-5.2 5.7-13.4 8.7-14.2 1.9-.5 7.4-7.2 6.5-8-5.3-4-8-5.6-10-5.6-1.4 0-4.6-1.8-7.3-4-2.6-2.2-5.4-4-6.2-4-.7 0-2.8-1.3-4.7-3-1.9-1.6-5.2-3.3-7.5-3.8-2.3-.6-5.6-2.2-7.4-3.7-3.2-2.7-4.9-2.9-11.3-1-1.7.5-2.5-.5-5-5.9-2.4-5.2-3.5-6.6-5.2-6.6-1.2 0-3.4-.5-5-1.2-1.5-.6-4.8-1.4-7.3-1.7-4.4-.6-4.5-.7-4.2-4 .5-4.6 2.5-7.4 8.3-11.6 5.1-3.7 8.1-4.7 5.9-2-1.4 1.7 0 2.1 1.7.4 1.7-1.7 4.9-.2 10.4 5.2 2.8 2.7 6.2 5.2 7.7 5.5 9.7 2.1 14.2 3.9 14.2 5.6 0 1.1.7 1.8 2 1.8 1.1 0 2-.7 2-1.5 0-.9.9-1.5 2.1-1.5 1.6 0 2 .5 1.6 2-.6 2.4 1 2.6 3.4.4 1.4-1.3 2.1-1.3 4.1-.3 3.9 2.1 19.6.6 31-3 3.4-1.1 6.1 1.6 7.7 7.5 1.5 5.4 3.1 6.7 7.5 5.8 2.1-.3 3.6-.2 3.6.3 0 1.4-3.4 4.3-5 4.3-1.8 0-8 6.5-8 8.4 0 1.9-7.7 9.6-9.6 9.6-.8 0-1.4-.5-1.4-1 0-1.9-2.7-1-5.5 2-1.6 1.6-2.5 3.3-2.1 3.7.4.5 1.7-.3 2.7-1.6 2-2.4 2.1-2.4 4.9-.8 2.8 1.7 3 1.7 4.9-.5 1.2-1.2 2.1-2.5 2.1-2.9 0-.4.9-.9 1.9-1.2 1.1-.3 2.7-2.2 3.6-4.3 1.9-4.6 5.1-8.3 8.3-9.5 1.2-.5 3.6-2.9 5.4-5.4 2.3-3.3 4.2-4.8 7-5.5 2-.6 4.6-2.2 5.7-3.6 1.7-2.2 2.5-2.4 5.8-1.8 2.1.4 5.4 1.9 7.3 3.4 1.9 1.4 5.3 3.2 7.5 3.8 4.8 1.4 12.7 8 16.1 13.3 1.7 2.8 3.1 3.9 4.9 3.9 1.8 0 2.8.8 3.8 3.2.8 1.8 2.1 3.9 3 4.7 1 .7 1.7 2.8 1.7 4.6 0 1.9.8 3.9 2 5 1.1 1 2 2.5 2 3.3 0 .9.7 2.3 1.6 3.3 1.5 1.7 1.8 1.7 4 .2 1.4-.9 2.6-1.4 2.8-1.2.2.2 2.3 4.1 4.6 8.6 4.2 8 7.4 12.2 8.5 11.1.3-.3-.6-1.9-2-3.6-1.4-1.7-3.1-4.5-3.7-6.3-.6-1.7-2.2-5.2-3.6-7.6-2.5-4.6-3.5-4.9-8.5-2.8-1.4.6-1.8.1-2.3-2.4-.4-1.7-1.1-3.4-1.5-3.7-.5-.3-.9-1.2-.9-2 0-1.1.4-1.2 1.9-.4 1.1.5 5.8 1 10.5 1h8.6v3c0 1.7-.7 3.3-1.7 3.9-2.3 1.3-1 2.5 1.7 1.6 1.6-.5 2-1.3 1.7-2.7-.7-2.6 3.2-9.8 5.4-9.8 2 0 3.3-4.5 2.4-8.2-.4-1.6 0-2.9 1.3-4.1 1.7-1.6 2.1-1.6 5.7.3 3.8 1.9 12 8.2 19.9 15.2 2 1.8 5.4 4.6 7.5 6.3 3.8 2.9 6.7 7.7 11.1 17.9 1.7 4 2.3 4.6 3.5 3.6.8-.6 1.9-.9 2.5-.5 1.8 1.1 7 10.9 7 13.3 0 1.3 1.3 4 2.9 6 3.5 4.5 6.1 12.7 6.1 19.7 0 3.2.8 6.8 2.1 9.5 1.1 2.3 2.4 7.5 2.8 11.5.9 9.2 2.7 11.9 10.2 15.2 5.7 2.5 5.9 2.7 5.9 6.4 0 3.3 1.7 7.6 9.1 23.4 2 4.3 3.6 16.3 3.2 24.1-.4 6.6-.1 9 1.5 12.5 4.2 9.4 5.1 12.1 5.8 17.8.6 5.2.4 6.4-1.6 9.1-2 2.9-2.6 3.1-5.9 2.6-2-.4-6.3-1-9.6-1.5-8.9-1.2-10-1.8-13.1-6.4-1.5-2.3-5.5-6.9-8.9-10.2-3.4-3.3-8.5-8.9-11.4-12.4-4.7-5.7-5.2-6.7-4.7-10 .8-5.5-1.3-10.2-5.5-12.6-6-3.3-16.7-11.8-17.8-14.1-.5-1.2-1.3-4.2-1.6-6.8-1.1-7.1-2.6-6.6-1.9.6.9 8.2 1.4 9 8.2 13.7 3.1 2.1 6.7 5.1 7.9 6.5 1.3 1.5 3.3 2.6 4.7 2.6 2.9 0 4.6 3.8 3.9 8.7-1 6.7-.6 7.4 16.7 25.3 9.4 9.7 10.3 11.1 15.6 25.5 2 5.5 4.7 12.2 5.9 15 1.3 2.7 2.7 6.8 3.1 9 .3 2.2 1.5 5.4 2.5 7.2 1.3 2 2.1 5.7 2.4 10.6 1.1 17.5 3.6 21.8 17.2 28.5 5.3 2.6 11.7 6.6 14.2 8.9 2.5 2.4 5.1 4.3 5.7 4.3 2.6 0 6.5 4.4 7.5 8.5.7 2.6 2.6 5.8 5 8.4 2.1 2.2 3.9 4.4 3.9 4.9s1.6 2.2 3.6 3.7l3.6 2.7-.4-2.3c-.1-1.3-1.4-2.9-2.7-3.6-1.4-.6-3.3-2.8-4.3-4.7-1-2-2.7-4-3.8-4.6-1.1-.6-2.4-2.8-3-4.9-1.4-5.4-5.2-10.6-7.5-10.4-1.1.1-3.8-1.6-6.1-3.7s-8.4-5.8-13.6-8.3c-5.5-2.7-10.6-5.9-12.1-7.7-2.5-2.9-4.6-9.5-3.4-10.6 1-1 6.5.7 8.8 2.7 1.2 1 2.8 1.9 3.4 1.9.7 0 2 1.1 2.9 2.4.8 1.3 2.9 2.7 4.6 3.1 1.6.4 3.2 1.1 3.5 1.6 1.1 1.7 5.2.9 7.4-1.5 1.9-2.1 2.2-3.1 1.6-6.5-.4-2.2-1.9-5.6-3.4-7.5-1.6-1.9-3.4-5.6-4.1-8.1-.7-2.5-1.7-4.8-2.1-5.1-1-.6-1.2-4.5-.3-6.8 1.3-3.3 4.7-1.6 11.9 5.9 3.9 4.1 7.9 7.5 8.8 7.5 2.4 0 3.2-4.6 1.9-9.7-.7-2.4-1.2-6.5-1.2-9.1 0-2.6-.7-6-1.5-7.6-2-3.8-1.9-4.5 1-5.6 1.4-.5 2.5-1.3 2.5-1.7.4-6.1.9-11.5 1.5-14.7.6-2.8.5-3.7-.4-3.2-.6.4-1.1 1.8-1.1 3.2 0 1.4-.6 3.7-1.4 5.3-.9 1.7-1.1 3.2-.5 4.2 1.6 2.5 1 3.9-2.6 5.6-4.1 1.9-4.2 2.5-1.5 6.7 1.6 2.7 3.9 15.7 4 22.3 0 2.8-3.9 1.1-6.4-2.7-1.4-2.2-5.1-5.7-8.2-7.7l-5.6-3.7-1.9 2.3c-2.4 3-2.4 7.2.1 12.1 1.1 2.2 2 4.8 2 5.9 0 1.1 1.4 3.7 3.2 5.6 3.5 4 4.6 9.1 2.5 11.9-1.3 1.7-1.6 1.7-6.2.2-2.7-1-5.9-2.8-7.1-4.1-1.3-1.4-2.9-2.5-3.7-2.5-.8 0-2-.7-2.7-1.5-.7-.9-3.2-2-5.7-2.6-2.4-.6-4.5-1.5-4.8-1.9-.2-.4-.6-3.9-.9-7.9-.2-4.3-1-8.1-2-9.7-1-1.4-2.5-5.1-3.5-8.2-1-3.1-2.8-7.7-3.9-10.2-2.7-5.8-8.2-21.3-7.8-21.7.2-.2 2.3.1 4.7.6 2.4.5 6.7 1.5 9.5 2.1 9.7 2.1 13.4-.9 13.4-10.7 0-5.9-1.2-10.8-4.9-20.1-2.1-5.2-3-17.5-1.3-18.5.4-.3 3.9 1 7.7 2.9 3.9 1.8 7.9 3.4 9 3.4 1.1 0 4.5 2.6 7.5 5.7 3.1 3.2 6.8 6.6 8.3 7.6 1.5 1 2.7 2.5 2.7 3.3 0 .9 1.4 3.6 3.2 6.2 1.8 2.6 3.5 6.5 3.8 8.6.3 2.2 1 4.1 1.6 4.3 2.1.7-.4-9.5-3.4-13.9-1.6-2.4-3.2-5.3-3.6-6.6-.4-1.2-1.2-2.2-1.7-2.2s-.9-.5-.9-1c0-1.5 4.6-1.2 6 .5.6.8 1.6 3 2.1 5 .5 1.9 1.3 5.1 1.8 7 .9 3.5 4.4 8.4 11.2 15.4 2 2.1 4 5.1 4.4 6.7.3 1.6 1.9 5.1 3.4 7.9 2.3 4.3 3.1 5 5.4 4.7 5.2-.5 15.9 9.4 18.2 17 .4 1.2 1.8 3.6 3.1 5.1 1.3 1.5 2.8 4.6 3.4 6.7.6 2.2 1.7 4 2.4 4 2.5 0 8.7-3 8.1-4-.3-.5-1.8-.2-3.3.6-4 2.1-4.9 1.8-5.6-1.9-.4-1.7-2-5-3.6-7.1-1.7-2.2-3-4.4-3-4.9s-1.4-3.1-3.1-5.7c-3.9-6-11.3-11.5-15-11.2-2.3.2-3.1-.5-5.3-4.8-1.4-2.7-2.6-5.8-2.6-6.8s-.8-2.6-1.7-3.5c-7.6-7-11.9-12.9-14.7-19.8-1.4-3.6-2.6-7.5-2.6-8.6 0-2.5-3-5.3-5.8-5.3-2.7 0-4.8-2-9.2-8.8-2.6-4-3.9-5.2-5.9-5.2-3.5-.1-11.6-4.1-14.6-7.4-1.5-1.7-3.5-2.6-5.3-2.6-3.8 0-4.8-1.3-5.7-7.4l-.7-4.8 2.9 1.5c4.5 2.5 9.3 3.8 16.8 4.8 3.9.6 8.9 1.2 11.2 1.5 3.6.5 5.4 1.8 11.9 8 7.9 7.6 10.4 9 6.2 3.4-3.9-5.3-12.6-11.9-16.6-12.5-2-.4-5-1.1-6.6-1.6-1.6-.5-4.8-.9-7.1-.9-4.6 0-13.8-2.8-17.9-5.5-2.5-1.7-8.6-11.6-8.6-14.2 0-2.5 7.4-6.1 13.2-6.4 5.5-.4 5.7-.3 10.1 4.2 2.5 2.6 5 5.6 5.6 6.8.7 1.1 2.4 2.3 3.9 2.7 5 1.1 8.3 2.7 9.3 4.5.5 1 2.8 2.4 5.2 3 2.3.6 5.3 2.4 6.7 3.9 1.4 1.5 4.1 3.1 6 3.5 6.2 1.2 6.8 1.5 8.9 5 1.4 2.4 2.8 3.5 4.3 3.5 1.3 0 5.7.5 9.9 1.1 7.3 1.2 7.8 1.4 9.3 4.6.9 1.8 1.6 4.3 1.6 5.3 0 2.6 3.5 5.6 12.2 10.5 8.4 4.7 9.1 6.2 8.3 18.5-.4 6-.3 7 .6 5 .6-1.4 1.3-6.1 1.5-10.5.4-6.5 1-8.8 3.2-12.4 3.9-6.3 5.2-6.9 8.7-3.7 1.5 1.4 3.2 2.6 3.7 2.6 1.2 0 2.8 4.7 3 8.7.1 2.5 1 4.1 3.3 6.1 1.8 1.5 5.1 4.3 7.4 6.2 3.1 2.6 4.3 4.5 4.8 7.3 1.2 7.4 7.1 12.9 9.4 8.7.4-.8 1.6-4.2 2.7-7.5 1-3.3 2.3-6.8 2.7-7.9.6-1.4.5-1.8-.6-1.4-.7.2-2.2 3.3-3.2 6.9-2 6.8-4.1 10-5.6 8.4-.5-.6-1.4-2.8-2.1-5-1.6-5.1-6.2-11.5-11-15.4-2.9-2.3-4.2-4.4-5.4-8.4-1.2-4.1-2.7-6.5-6.5-10-2.8-2.6-5.4-4.7-6-4.7-1 0-5.6 5.1-8.1 8.9l-1.6 2.4-5.9-2.9c-7.2-3.5-12.1-8.4-13.7-13.5-1.6-5.6-3.5-6.8-13.4-8.5-8-1.3-9.2-1.8-12-4.9-2.3-2.6-4.4-3.7-8.3-4.6-3.7-.8-5.7-1.9-7.2-3.9-1.4-1.8-3.4-3-5.8-3.4-2.5-.4-4.4-1.5-5.9-3.5-1.4-1.9-3.5-3.2-5.7-3.7-2.6-.5-5.4-2.5-10.8-8l-7.3-7.4-6.5.6c-3.7.4-7.5 1.5-9.1 2.5-3.6 2.6-4.2 2.4-5.7-1.7-.8-2.2-2.2-3.9-3.9-4.6-9.6-3.7-10.4-4.7-11.7-15.7-.3-3-1.3-7-2.1-9-.8-1.9-1.7-6.9-2-11-.7-9.4-1.9-13.4-5.5-18.9-1.6-2.3-3.2-5.5-3.5-7-1.8-7.2-8.3-16.2-11.7-16.2-1.8 0-2.8-1.4-5-6.8-3.1-7.6-4.6-9.5-10.2-13.7-2.2-1.6-6.2-5.2-9-8-2.7-2.8-8.3-7.4-12.4-10.2l-7.5-5.2-3.8 2c-3.7 1.9-4.2 2.9-3.8 7.7.1 1.4-1.2 3.6-3.5 6-3.6 3.7-3.6 3.7-11.2 3.5-12.2-.4-13.6-1.2-18-10.1-3.4-7-4-7.7-6.5-7.4-1.8.2-2.8-.2-3.3-1.5-1.4-4.2-8.1-10-14-12.2-3.3-1.3-6.7-2.7-7.5-3.2-4.4-2.7-12.2-5.9-14.4-5.9-1.6 0-3 .8-3.7 2.1-1.1 2.1-1.1 2.1-2.8-.7-2.1-3.4-5.1-6.1-5.1-4.6 0 .6.5 1.4 1.1 1.7.5.4.9 1.7.7 2.8-.1 1.2.1 2.7.5 3.3.4.7 0 1.4-.8 1.8-.8.3-1.5.1-1.5-.4 0-2-3.1-.9-6.2 2-5.2 5-7.8 3.8-9.2-4.2-.4-2.2-1.5-4.2-2.6-4.8-1.1-.6-2-1.5-2-2 0-.7 4.6-4.2 9.7-7.3.6-.4 2.5.4 4.1 1.8 4.5 3.7 6.1 3 2.2-1-1.9-1.9-4.1-3.5-5-3.5-.9 0-4.9 2.3-8.9 5.1-8.3 5.8-15.8 7.9-29 8-7.9.1-21.5-1.5-26.1-3.1-1.4-.5-4.5-1.4-6.9-2-3.1-.8-6.2-2.8-10-6.5-5.9-5.6-10.7-8.5-14-8.5-1 0-5.2 2.5-9.2 5.5zm315.8 201.4c.4 1.7 4.3 3.9 13.6 7.5 2 .8 4 2.3 4.4 3.2.6 1.7 2.2 3.6 6.6 8.1 1.7 1.8 1.8 2.3.6 2.3-1.5 0-4.5-2.7-9.1-8.3-1.6-1.9-3.5-3-5.6-3.2-1.8-.1-5.9-1.6-9.2-3.4-3.3-1.7-6.7-3.1-7.5-3.1-.9 0-1.5-1-1.5-2.5 0-2.2.4-2.5 3.6-2.5 2.7 0 3.7.5 4.1 1.9zm-313.2-198.9c-.3.5.1 1 .9 1s1.8-.5 2.1-1c.3-.6-.1-1-.9-1s-1.8.4-2.1 1zm129 .1c-1 1.5.3 2.5 1.6 1.2.7-.7.7-1.3.1-1.7-.6-.3-1.4-.1-1.7.5zm-133.5 3.4c-1 1.3-.9 1.5.9 1.5 1.2 0 2.1-.6 2.1-1.5 0-.8-.4-1.5-.9-1.5s-1.4.7-2.1 1.5zm-241.5 1.5c-.8 1.3.4 3.2 1.6 2.5 1.2-.8 1.2-3.5 0-3.5-.6 0-1.3.4-1.6 1zm245 3c.3.5 1.5 1 2.6 1s1.7-.5 1.4-1c-.3-.6-1.5-1-2.6-1s-1.7.4-1.4 1zm7.7 1.9c.4 1.3 1.8 1.6 1.9.4 0-.4-.5-.9-1.1-1.2-.7-.2-1.1.2-.8.8zm6.9 1c-1 .7-1 1-.1 1.6.6.4 1.6.3 2.2-.3 1.3-1.3-.4-2.3-2.1-1.3zm7.1 1c.4 1.3 1.8 1.6 1.9.4 0-.4-.5-.9-1.1-1.2-.7-.2-1.1.2-.8.8zm7.4 0c-.4.7-.5 1.5-.2 1.8.9.9 1.9-.4 1.4-1.8-.4-1.1-.6-1.1-1.2 0zm4.4 1.1c0 .5.7 1 1.5 1s1.5-.5 1.5-1c0-.6-.7-1-1.5-1s-1.5.4-1.5 1zm18.5 5.1c-1 1.5.3 2.5 1.6 1.2.7-.7.7-1.3.1-1.7-.6-.3-1.4-.1-1.7.5zm1 5.9c.3.5 1.3 1 2.1 1s1.4-.5 1.4-1c0-.6-.9-1-2.1-1-1.1 0-1.7.4-1.4 1zm8.2 1.6c-.9 1 .2 2.4 1.8 2.4.9 0 1.2-.6.9-1.5-.6-1.6-1.7-1.9-2.7-.9zm7.8 5.3c-.7 1.2 1.2 2.4 2.5 1.6 1.1-.7.4-2.5-1-2.5-.5 0-1.1.4-1.5.9zm-7 4.1c.3.5 1 1 1.6 1 .5 0 .9-.5.9-1 0-.6-.7-1-1.6-1-.8 0-1.2.4-.9 1zm-307.4 2.8c-1.2 1.7-3 3.4-4.1 3.7-1.1.4-2.3 1.8-2.6 3.3-1.8 7.3-10.6 20.7-16 24.4-4.1 2.8-4 2.8-14.7.2-3.5-.8-5 .5-7.1 6.4-1 2.6-2.4 5.9-3.2 7.4-.8 1.4-1.4 3.2-1.4 3.9 0 2.6 3.2-1.8 4.9-6.8 3.1-9 2.9-8.8 11-7.4 6.7 1.2 7.2 1.2 11.1-1 4.3-2.4 11.6-12.7 16.4-22.9 2.5-5.4 6.9-9.9 11.1-11.1 1.3-.4 4.2.6 8.1 2.8 3.3 1.8 6.7 3.3 7.5 3.3 4.7 0 9 2.3 11.8 6.3 4.6 6.6 15.7 17.7 17.7 17.7 2.3 0 16.3-6.2 16.4-7.3 0-1.4-2.8-.7-8.9 2.4-5.4 2.7-6.6 3-8.4 1.9-1.9-1.1-6.2-5.7-17.3-18.4-1.2-1.4-4.1-3-6.5-3.6-2.4-.6-6.9-2.4-10-4-3.1-1.6-7.4-3.2-9.6-3.6-3.7-.6-4.2-.3-6.2 2.4zm299.4 1.3c-.4.6-.5 1.2-.2 1.5.7.7 3.7-.7 3.7-1.7 0-1.3-2.7-1.1-3.5.2zm-76.8 5.6c-.4.3-.7 1.9-.7 3.4 0 2.9-1.4 4.6-2.5 2.9-.7-1.2-3.5-1.4-3.5-.3 0 .5 1.8 2.8 3.9 5.3 2.9 3.3 4.2 4.2 5.1 3.4.8-.9.7-1.5-.4-2.7-2.6-2.6-1.9-3.3 3.1-3.3 5.7.1 7.2-2.1 1.6-2.6-3.5-.3-3.8-.6-4.1-3.6-.3-3.1-1.1-3.9-2.5-2.5zm63.8 3.4c-.4.6-.5 1.3-.2 1.6.7.7 2.7-.6 2.7-1.8 0-1.2-1.7-1.2-2.5.2zm-6.4 3.3c-.8 1-.9 1.6-.1 2.1.5.3 1.3-.1 1.6-1 .9-2.2-.1-2.9-1.5-1.1zm-7.6 3.5c-.7 1.2 1.2 2.4 2.5 1.6 1.1-.7.4-2.5-1-2.5-.5 0-1.1.4-1.5.9zm-63.9 3.2c-3.9 3.1-3.4 7.4 1.1 9.8 4.5 2.3 11.3-2.1 9.7-6.3-.9-2.5-3.4-1.9-3.4.8 0 3.5-2.2 4.9-4.8 3-2.9-2-2.8-4 .3-6 1.4-.9 2.2-2 1.9-2.5-.8-1.4-1.9-1.1-4.8 1.2zm-42.6 1.2c-1.9 1.3-4.4 2.6-5.5 2.9-1.1.4-6.4 2.4-11.7 4.7-5.3 2.2-11.4 4.3-13.5 4.7-5.7 1-9 3.4-17.7 12.9-4.9 5.3-9.7 9.5-12.7 11-2.6 1.4-5.3 3.3-5.9 4.2-1 1.7-1.2 1.6-2.8-.6-.9-1.4-3.2-3.8-5-5.5-2.4-2.2-3.9-5-5.6-10.8-3.5-11.2-11.9-24-14.7-22.3-.7.5.2 2.1 2.3 4.4 5.6 5.9 8.7 11.3 9.8 16.9 1.1 6 2.7 8.9 8.7 15.4 2.4 2.6 4.3 5.7 4.3 6.8 0 1.2-1.5 3.5-3.2 5.1-1.8 1.6-4.6 4.1-6.1 5.6-1.6 1.6-5.8 4.8-9.5 7.3-6 4.1-7.1 5.5-10.7 12.6-2.2 4.3-5.2 9.5-6.7 11.5-1.6 2-2.8 3.9-2.8 4.4 0 .4-1.4 2.5-3.1 4.6-1.7 2.1-2.6 3.9-2.1 3.9 1.4 0 6.8-6.3 8.8-10.3.9-1.7 2.7-4.4 4-5.9 1.2-1.5 2.8-4.4 3.5-6.5 1.8-5.5 4.7-9 10.3-12.4 7.9-4.9 19.7-16.3 21.7-20.9.9-2.1 2.7-3.8 5.1-4.9 4.8-2.1 20.8-16.8 20.8-19.1 0-2 5-4.3 12.8-6 5-1.1 32.2-14 32.2-15.3 0-1.2-1.4-.8-5 1.6zm99.5-1.4c-.3.5-.1 1.2.5 1.6 1.2.7 3-.2 3-1.6 0-1.2-2.7-1.2-3.5 0zm-22.2.8c-2 .8-1.5 2.3.7 2.3 1.1 0 2-.7 2-1.5 0-1.5-.6-1.7-2.7-.8zm7 .5c.2.7 1 1.3 1.7 1.3s1.5-.6 1.8-1.3c.2-.7-.5-1.2-1.8-1.2s-2 .5-1.7 1.2zm8.2-.1c-1 1.5.1 2.3 2 1.5.9-.3 1.3-1 1-1.6-.8-1.3-2.2-1.3-3 .1zm-22.5 2.9c0 .5.5 1 1 1 .6 0 1-.5 1-1 0-.6-.4-1-1-1-.5 0-1 .4-1 1zm2.6 4.7c-1.1 1.1-.6 2.3.9 2.3.8 0 1.5-.4 1.5-.9 0-1.3-1.6-2.2-2.4-1.4zm-40 1.8c-1.4 1.5-1.4 1.9.3 5.3 2.8 5.3 4.8 7.8 5.7 7 .4-.5-.5-3-2-5.8-3-5.4-2.7-5.8 2.7-3.5 2 .8 4.3 1.5 5.2 1.5 3 0 1.4-1.6-3.7-3.5-2.9-1.1-5.6-2.1-5.9-2.3-.4-.1-1.4.4-2.3 1.3zm82.9 5.7c-4.4 3.8-8.5 8-9.2 9.3-2.3 4.3-8.7 4.1-12.7-.4-3-3.3-4.6-1.1-4.6 6.4 0 4.9-.4 6.6-2 8-1.3 1.2-1.7 2.5-1.4 4.5.5 2 0 3.3-1.7 4.9-1.2 1.1-2.6 2.1-2.9 2.1-.4 0-1.2 1.1-1.9 2.4-.9 1.6-1.9 2.2-3.2 1.9-1.4-.4-2.3.4-3.6 2.8-1 1.9-5.7 7.2-10.4 11.9-6.3 6.3-9.2 10-11 14.2-2 4.7-3.2 6.1-6.6 7.9-4.2 2.2-13 11.5-11.9 12.6.3.3 3.1-2.1 6.3-5.3 3.2-3.3 7.2-6.6 8.9-7.5 2.3-1.2 3.6-3 4.9-6.7 2-5.4 4-7.9 12.7-15.5 3-2.6 6.4-6.5 7.4-8.7 1.4-3 2.3-3.8 3.7-3.4 1.2.4 2.5-.3 3.8-2 1.1-1.4 4.8-3.9 8.2-5.5 6.9-3.3 10.7-6.4 10.7-8.7 0-.9 1.3-3.3 2.9-5.3 1.5-2 3.8-5.4 4.9-7.6 1.7-3.3 5.6-7.1 12.7-12.3.6-.4 2.3-2.2 3.9-4 5.3-5.8.4-3.4-7.9 4zm-16.3 13.8c2.1 0 3.8.3 3.8.7-.1.8-5.1 9.6-6.7 11.8-1.1 1.5-6.4 5.5-7.3 5.5-.4 0-1.1-1.2-1.5-2.7-.4-1.9-.2-2.9.9-3.5 1.2-.7 1.6-2.6 1.6-7.7 0-3.7.3-7 .6-7.4.3-.3 1.5.3 2.7 1.4 1.3 1.2 3.5 1.9 5.9 1.9zm-23.7-15.1c-.6 1.1.9 2.3 1.9 1.4.9-.9.7-2.3-.3-2.3-.6 0-1.2.4-1.6.9zm-36.9.8c-1.1 1.1-.6 2.3.9 2.3.8 0 1.5-.4 1.5-.9 0-1.3-1.6-2.2-2.4-1.4zm23.9 3.3c-.3.5.1 1 .9 1 .9 0 1.6-.5 1.6-1 0-.6-.4-1-.9-1-.6 0-1.3.4-1.6 1zm-39.8 2.8c-1.5 1.5-2.7 3.5-2.7 4.3 0 1.4 7 7.9 8.4 7.9 1.2 0 .6-2.8-.6-3.3-2.3-.7 1.2-3.7 4.4-3.7 3.4 0 3.4-2.3 0-2.8-1.2-.2-2.2-.7-2.2-1.2 0-1.1-2.9-4-3.9-4-.4 0-1.9 1.3-3.4 2.8zm4.8 1.2c.9 1.5-.4 5-2 5-1.9 0-2.7-1.7-2-4 .7-2.1 3-2.7 4-1zm28-2c.3.5 1 1 1.6 1 .5 0 .9-.5.9-1 0-.6-.7-1-1.6-1-.8 0-1.2.4-.9 1zm-15 3c-.3.5.3 1 1.4 1 1.2 0 2.1-.5 2.1-1 0-.6-.6-1-1.4-1-.8 0-1.8.4-2.1 1zm235.6 2.7c-.1 2.6 3.1 10.4 5.9 14.3 1.1 1.6 2 3.5 2 4.3 0 .9 1.5 3.5 3.3 5.9 1.9 2.4 4.2 6.5 5.2 9.1 1 2.6 2.2 5 2.6 5.3.5.3.9 1.4.9 2.4 0 2.6 6.3 15.6 6.8 14 .3-.7-.5-3.3-1.6-5.9-2.4-5.3-6.4-15-8.3-20-.7-1.8-2.2-4.5-3.4-6-2-2.4-10.1-17.5-12.3-23.1-1-2.3-1.1-2.4-1.1-.3zm-233.6 2.3c.3.5.8 1 1.1 1 .2 0 .4-.5.4-1 0-.6-.5-1-1.1-1-.5 0-.7.4-.4 1zm-30.4 5.4c-2.2 2.9-4.1 5.6-4.1 5.9 0 1.4 3 .6 3.9-1.1.7-1.2 1.4-1.4 2.4-.7 6.8 4.8 6.8 4.8 8 3.6 1.2-1.3.7-1.9-4.8-5.5-1.7-1.1-1.8-1.7-.8-3.9 2.2-4.7-.4-3.8-4.6 1.7zm55-3.3c-4.7 2.9-4.9 4.6-.8 8.6 2.5 2.6 4 3.4 5.3 2.9 1.5-.6 1.6-.9.5-1.6-2.1-1.2-.6-3.9 2.6-4.6 5-1.1 6-1.8 3-2.2-1.5-.2-3.1-1.2-3.7-2.1-1.5-2.8-3.4-3.1-6.9-1zm3.9 2.3c0 1.6-1.4 3.6-2.6 3.6-1.4 0-1.9-2.2-.7-3.3.7-.8 3.3-1 3.3-.3zm-291.2-.5c-2 1.4-4.1 3.8-4.7 5.3-1.5 4.2-2.5 16.8-1.4 16.8.6 0 1.3-3.5 1.7-7.8.6-7.5.8-7.8 4.8-11.3 5-4.3 4.7-6.6-.4-3zm265.8 2c-.4.5-.2 1.2.3 1.5.5.4 1.2.2 1.5-.3.4-.5.2-1.2-.3-1.5-.5-.4-1.2-.2-1.5.3zm-63.8 4.2c-1.7.9-7.8 9.1-7.8 10.4 0 1.5 2-.3 6-5.3 4.3-5.5 4.7-6.8 1.8-5.1zm74.2 2.1c-2.8 3-2.6 3.8 2 8.3l4 3.9 3-3.4c1.6-1.9 2.9-3.8 3-4.3 0-1.4-2.4-.7-4.8 1.5l-2.5 2.3.7-2.9c.6-2.6.5-2.8-.9-1.6-2.1 1.7-3.2.4-1.7-2 2.6-4.2.6-5.5-2.8-1.8zm-16.5 1.7c-.6 1.1.9 2.3 1.9 1.4.9-.9.7-2.3-.3-2.3-.6 0-1.2.4-1.6.9zm4.7 0c.4 1.3 1.8 1.6 1.9.4 0-.4-.5-.9-1.1-1.2-.7-.2-1.1.2-.8.8zm5.8 6.4c0 1.3 7 8.7 8.3 8.7 1.8 0 .4-2.9-3.1-6.3-4-3.9-5.2-4.5-5.2-2.4zm65.6 3.6c-.3.4-1 2.1-1.6 3.7l-1 2.9 2-2.4c1.1-1.3 2-2.9 2-3.7 0-1.6-.6-1.8-1.4-.5zm-150.1 6.3c-2.6 2.9-6 8.2-7.7 11.7-2.2 4.8-5.3 8.7-12.8 16.2-7.9 8-10.7 11.6-14.4 18.9-2.6 4.9-4.5 9-4.2 9 .7 0 5.8-7.9 8.1-12.5 1.1-2.2 6.6-8.6 12.3-14.2 6.1-6.1 10.7-11.5 11.4-13.5 1.2-3.4 3.4-7 9.4-15.1 1.9-2.7 3.3-5.1 3.1-5.3-.3-.3-2.6 1.9-5.2 4.8zm67.5-4.2c0 .5.7 1 1.5 1s1.5-.5 1.5-1c0-.6-.7-1-1.5-1s-1.5.4-1.5 1zm-6 1.6c0 .9.5 1.4 1.2 1.2 1.8-.6 2.1-2.8.4-2.8-.9 0-1.6.7-1.6 1.6zm15.7.2c-3.6 4-.9 10.2 4.5 10.2 3 0 5.8-2.8 5.8-5.8s-1.8-2.8-3 .4c-.7 1.9-1.6 2.5-3.3 2.2-3-.4-3.5-4.3-.8-6 1.2-.7 2.1-1.6 2.1-2 0-1.5-3.7-.8-5.3 1zm-22.7 1.2c0 .5.6 1 1.4 1 .8 0 1.8-.5 2.1-1 .3-.6-.3-1-1.4-1-1.2 0-2.1.4-2.1 1zm-247.3 2.2c-.7 2.5 0 4.1 1.4 3.3 1.2-.8 1.2-5.5 0-5.5-.5 0-1.1 1-1.4 2.2zm221.8-.6c-.8.9-2.2 2.8-3 4.4-1.4 2.7-1.4 2.8 3.6 5.9 5.7 3.5 5.9 3.6 5.9 1.8 0-.6-1.6-2.2-3.5-3.5-3.7-2.3-4.3-4-2.3-6 2.3-2.3 4-1.4 3.3 1.7l-.6 2.9 4.5-1.5c5-1.7 6-3.3 2.1-3.3-1.4 0-2.9-.8-3.5-2-1.3-2.4-4.3-2.6-6.5-.4zm17.5 1.6-3.5 2 3.5-.6c3.6-.7 5.7-2 4.3-2.9-.4-.2-2.4.4-4.3 1.5zm94.8-.4c-2.9 2.1-4.5 4-6.2 7.7-.8 1.6-4.5 6.4-8.3 10.6-3.7 4.2-7.9 8.9-9.3 10.5-1.4 1.6-3.5 3.4-4.5 4-1.1.7-1.7 1.4-1.4 1.8 1.6 1.7 20.7-18.2 26.3-27.5 2.6-4.4 3.7-5.3 6.1-5.4 1.5 0 3-.5 3.2-1.1.6-1.9-3.4-2.3-5.9-.6zm-358.7 5.1c-.7.5-3.4 3.9-6 7.6-2.9 4.4-5.9 7.5-8.3 8.7-2 1.1-5.3 3.9-7.3 6.4-2 2.4-5.3 5.3-7.3 6.5-2.1 1.1-5 2.8-6.7 3.9-2.2 1.4-4.1 1.7-7.5 1.3-3.7-.4-4.9-.1-6.7 1.7-1.3 1.1-2.3 2.7-2.3 3.4 0 .7-1.6 3.4-3.6 6s-3.4 4.9-3.1 5.2c1.2 1.2 3.9-1.3 6.6-6.1 3.3-5.8 5.4-7.5 8.2-6.8 2.3.7 8.7-1.5 12.4-4.2 1.7-1.1 4.3-2.8 5.9-3.6 1.6-.7 4.2-3.1 5.9-5.1 1.6-2 4.8-4.9 7.2-6.3 2.3-1.5 5.2-4.4 6.4-6.4 6.1-10.5 8.2-10.9 16.4-3.3 4.5 4.2 7.9 6.4 11.8 7.7 3 .9 8.3 3.3 11.8 5.2 3.5 1.9 7.1 3.2 8 3 .9-.2 3.3.5 5.3 1.5 2.1 1 5.1 1.8 6.7 1.8 1.9 0 4.3 1.1 6.3 2.8 6.5 5.6 9.3 6.9 15.3 7.5 19.8 2 32.6 2.8 37.1 2.3 4.4-.5 5.9-.2 10 2.1 2.7 1.4 6.7 4.3 9 6.3 4.3 4 18.6 12.1 24.6 13.9 4.5 1.5 11.5 7.5 17.4 15.2l4.5 5.9h11.3c7.7 0 12.5.5 14.9 1.5 1.9.8 8.4 2.4 14.3 3.5 27.5 5.2 32.2 6.3 36.9 8.1 2.8 1 6.8 2.3 9 2.9 2.3.5 5.8 2.5 7.9 4.4 2 1.9 7 5.3 11 7.5s9.7 6 12.6 8.5c6 5.1 5.8 5 9.7 3.5 1.5-.7 3.9-1.1 5.3-1 2.8.1 12.5 3.6 15.5 5.5 2.6 1.7 17.4 6.6 19.8 6.6 2.2 0 12.5 4.7 15 6.9 1.1.9 4.8 1.8 9.5 2.2 5.2.5 10.8 1.9 17.2 4.4 9.2 3.6 9.7 3.7 15.6 2.6 4.8-.9 8.2-.8 15.8.4 5.3.8 10.3 1.2 11 .9.8-.3 3.2 1 5.3 3 2.2 1.9 6.2 4.5 8.9 5.6 2.7 1.2 6.7 3.9 8.9 6 2.5 2.5 8.5 6 16 9.6 6.6 3.1 13.7 7.1 15.7 9 4 3.6 9.1 6.4 15 8.3 2.1.7 5.7 2.8 8 4.8 10.9 9 22.9 15.2 33.9 17.4 3.3.7 7.7 2.3 9.7 3.7 5 3.3 10.6 5.7 20.9 8.7 4.8 1.4 9.4 3.2 10.5 4.1 1 1 3 4.2 4.5 7.3 3.3 6.8 9.2 13.3 19.7 21.8 9.4 7.6 17.4 17.4 17.5 21.7.1 1.6.7 1.8 4.4 1.3l4.2-.7-4 1.6c-9.2 3.6-14.1 5.9-16.1 7.6-1.1 1-3.2 1.8-4.6 1.8-1.4 0-3.1.7-3.8 1.5-.8.9-2.9 1.5-5.6 1.5-2.3 0-4.6.4-4.9 1-.3.5-1.4 1-2.4 1-2.9 0-10.8 3.8-14.4 6.9-5.9 5.1-12.4 8.2-19.2 9.2-6.8.9-10.5 2.6-19 8.5-2.7 1.9-8.1 4.6-12 6.1-12.5 4.8-33.6 15.9-36.5 19.2-.3.3-2.7 1.7-5.5 3.1-2.7 1.4-7.5 5.1-10.6 8.3-4.7 4.9-6.5 6.1-10.3 6.8-4.3.8-8.1 2.4-17.6 7.4-1.9 1-6.6 2.1-10.6 2.4-5.3.5-8.1 1.3-11 3.2-11.6 7.6-12.9 8.2-23.2 10.9-3.7.9-4.8 1.9-7.9 6.8-2 3.1-5.9 7.8-8.6 10.5-4.2 4.1-5 5.4-5.6 10-.4 2.9-1 5.8-1.5 6.5-1.3 2.1-9.7 1.4-14.1-1.3-2.2-1.3-5.7-3.2-7.7-4.1-2.6-1.1-5.6-4.1-9.4-9.1-3.1-4.1-6.4-7.7-7.3-8-4.8-1.6-14.7-6.6-19.8-10.1-9.3-6.3-19.3-10.9-25.5-11.6-4.9-.6-5.7-1-6.2-3.2-.4-1.3-2.1-4.1-3.9-6.2-2.8-3.1-10.5-13.1-12.9-16.6-.4-.6-1-.7-1.4-.3-.4.4 2.7 5.2 7 10.8 4.2 5.5 8.3 11.3 9.1 12.8 1.1 2.2 3.3 3.5 10.6 6.1 9 3.2 12.6 5 27.7 14.1 4.1 2.4 9.2 5.4 11.4 6.7 2.3 1.2 5.7 4.1 7.7 6.4 9.9 11.4 17.1 15.8 28.8 17.8 7.5 1.3 8.1 1.6 15.3 7.9 4.1 3.6 7.9 7.2 8.3 7.9.5.7 3.5 4.7 6.7 9 5.6 7.5 6.2 8 13.2 10.4 4 1.4 11.4 4.2 16.3 6.1 5 2 14.3 5 20.5 6.7 20.6 5.6 22 6 26.6 9 2.6 1.6 6 3.2 7.8 3.6 5.1 1.1 13.9 5.8 22.8 12.1 7.9 5.7 20.6 12.7 27.6 15.3 1.8.7 5.8 4.1 8.8 7.6 3.1 3.5 6.5 6.6 7.7 7 2.9.8 15.4 6.2 19.2 8.2 1.6.9 3.9 2.7 5.1 4.1 1.2 1.4 5.9 4.4 10.5 6.6 4.6 2.2 9.3 4.8 10.3 5.8 3 2.6 4.3 2 1.6-.8-1.3-1.3-6.2-4.5-11-6.9-5.5-2.9-9.1-5.4-10-7.1-1.5-2.8-11.7-8.1-20.3-10.4-3.2-1-5.7-2.5-7.8-5-7.6-8.9-10-10.9-16.7-13.1-7.6-2.5-9.5-3.4-11.4-5.3-1.3-1.3-7.4-5.5-18.7-12.9-3.1-2-9.2-4.9-13.6-6.4s-9.3-3.7-10.8-5c-1.5-1.3-4.7-2.8-7-3.4-2.3-.5-9.1-2.6-15.2-4.5-6-1.9-14.1-4.2-18-5.1-4.2-.9-9.7-3.1-13.9-5.6-3.8-2.2-8-4-9.5-4-4 0-6.2-1.9-13.4-11.5-3.7-4.9-9.8-11.4-13.7-14.6-3.9-3.2-7-6.5-7-7.5.1-.9.7-3.5 1.5-5.7s1.5-4.7 1.5-5.5c0-1.8 7.3-11.8 10-13.7.9-.7 2.3-2.5 2.9-4.1 1-2.5 2-3 5.8-3.6 8.7-1.2 18.3-5.4 18.3-8.1 0-1.3 9.1-4.1 16.2-4.9 2.5-.3 8.4-2.3 13-4.5 4.6-2.1 10.1-4.4 12.1-4.9 3.9-1.1 14.8-8.4 18.2-12.1 4.5-5.1 35.4-22.4 49-27.5 2.8-1.1 6.1-2.7 7.5-3.6 5-3.4 14.6-7.9 19.5-9.1 2.8-.6 5.5-1.5 6-1.9.6-.4 2.1-1.1 3.5-1.5 1.4-.4 4.3-2 6.5-3.5s7.2-4.3 11-6.2c6.7-3.4 10.2-4.7 22.2-8.3 2.9-.8 6.8-2.4 8.5-3.5 1.8-1.1 8.3-4.4 14.3-7.4 6.3-3 13.2-7.3 16-9.8 6.5-5.8 9.3-7.2 18.8-9.2 4.4-.9 9.1-2.5 10.7-3.6 1.5-1.1 3.2-2 3.7-2s2.5-1.1 4.4-2.5c1.9-1.4 5.9-3.3 8.9-4.2 3-.8 7.4-2.7 9.8-4.1 4.2-2.4 4.8-2.4 15.5-1.8 6.7.4 13 .3 15.7-.3 2.5-.6 10.1-4 16.9-7.6 6.8-3.7 15.4-7.8 19-9.2 3.6-1.3 10-4 14.1-5.9 4.1-1.8 12.7-4.4 19-5.8 6.3-1.3 13.8-3.3 16.6-4.4 2.8-1.1 8.4-2.4 12.5-2.7 8.5-.8 11.3-2.2 13.3-6.8.8-1.7 2.5-4.3 3.9-5.7 1.4-1.4 4.2-4.1 6.2-6 2-1.9 5.7-6.7 8.2-10.5 2.6-3.9 4.9-7.2 5.3-7.5.4-.3 1.4-1.9 2.3-3.5 2.6-5.2 6-7.4 14.3-9.6 4.3-1.1 10.7-3.3 14.1-4.9 3.4-1.7 7.3-3 8.6-3 3.2 0 8.2-1.7 13.9-4.6 2.6-1.4 8.3-3.1 12.5-3.9 13.7-2.4 17.6-3.5 19.5-5.2 1.6-1.5 2.4-1.5 6.1-.5 2.3.7 7.6 1.7 11.8 2.2 4.3.4 9.1 1.6 10.9 2.5 4.3 2.2 9.2 1.2 14.4-2.9 5.5-4.4 9.4-5.6 18.7-5.6 5.6 0 9.4-.6 13.1-2.1 3.9-1.5 8.1-2.1 16.3-2.4 11.8-.4 15.1-1.2 20.3-5.2 1.9-1.4 7-4.4 11.5-6.6 10.6-5.3 7.3-6.4-4-1.4-18.7 8.4-19.8 8.7-27.7 7.7-7.1-.9-12.9-.2-18.8 2.1-1.6.6-2.8 1.5-2.8 2 0 1.7-4.4 2-10.5.8-5.8-1.1-6.7-1.1-11.8 1-3.1 1.3-6.4 3.2-7.4 4.3-2.1 2.4-6.6 4.8-8.8 4.8-.8 0-2.4-.9-3.5-2-1.5-1.5-3.3-2-7.5-2-3.3 0-6.9-.7-8.8-1.7-4-2.1-9.2-1.8-13.3.7-1.8 1.2-5.8 2.3-9.5 2.6-11.4 1-19.7 3.5-25.8 7.6-3.1 2.1-5.9 3.8-6.2 3.8-.3 0-1.3-1.5-2.1-3.4-3.3-6.8-14.1-20.9-18.5-23.9-3.1-2.2-5.3-5-7.4-9.3-3.3-6.6-6.2-10.4-8.1-10.4-.7 0-2.5 1.2-4.1 2.7-2.8 2.7-3 2.7-4.1.9-3.1-5-6.8-9.8-8.2-10.3-2.6-1-2.6.4.2 3.3 1.4 1.6 3.7 4.5 5 6.6 3.2 5 4 5.3 7 2.3 1.4-1.4 3.3-2.5 4.2-2.3 1 .2 3.3 3.5 5.2 7.7 2 4 4.5 7.8 5.6 8.5 3.7 2 7.8 6 12 11.6 8.4 11.4 9.6 13.1 9.3 13.4-.2.1-4.2 2.2-8.9 4.6-9.6 4.8-18.2 8-21.6 8-1.7 0-3.1 1.2-4.9 4-1.4 2.3-3.6 5-4.8 6.2-2.1 2.1-5.3 7-9.6 14.9-1.1 2-4.5 5.3-7.5 7.4-5.9 4.1-9.1 7.8-8.3 9.9.6 1.5-6.9 5.9-8.4 5-1.8-1-12.4 1.7-15.9 4.1-2.7 1.9-4.4 2.4-6.7 1.9-4.8-1-17.9 1.5-25.1 4.8-3.7 1.6-9.8 4-13.7 5.4-3.8 1.3-8.1 3.2-9.5 4.2-1.4 1-5 3-8 4.4-3.1 1.5-6.4 3.6-7.5 4.8-5.2 5.7-13.3 7.1-32 5.5l-9-.8-4.5 4.2c-2.4 2.2-5.4 4.1-6.5 4.1-2.6 0-12.4 3.9-18.5 7.4-3 1.7-6 2.6-9 2.6-5.6 0-19.2 6.4-23.5 11-3.4 3.6-9.4 7-12.4 7-1.4 0-2.8-1.4-4.2-4.2-3.4-6.6-7.4-11-16.9-18.8-10.8-8.7-15.1-13.4-18.5-20-5-9.8-7.6-11.7-20.6-15.1-9.2-2.3-13-4-17.1-7.5-1.5-1.2-5.4-2.8-8.5-3.4-13.4-2.6-28-9.6-34.3-16.4-1.4-1.6-5.8-4.3-9.9-6.2-4-1.9-9.9-5.6-13-8.1-3-2.5-6.7-5-8.1-5.5-8.5-3.2-23.3-11.3-24.7-13.5-1-1.5-4.8-4-8.9-5.9-4.1-1.8-8-4.4-9.2-6-1.9-2.7-2.5-2.9-9.9-3-4.3 0-9.8-.6-12.3-1.3-5-1.5-14.2-1-14.8.8-.6 1.8-3.3 1.3-9.2-1.7-3.2-1.7-9.5-3.6-15-4.6-6.5-1.2-10.9-2.7-14-4.6-2.5-1.6-7.4-3.6-11-4.5-10.3-2.6-20-6-26.2-9.3-7.4-3.9-16.1-5.8-19.6-4.3-1.9.9-2.9.9-4.2-.1-7.7-5.6-11-7.7-14.2-8.7-2-.7-4.2-1.9-4.9-2.7-.7-.9-2.4-2.1-3.9-2.9-1.4-.7-3.5-2.9-4.5-4.9-1.7-3.1-2.5-3.5-6.9-4.1-2.8-.4-7.3-1.5-10.1-2.5-8.6-3.1-21.7-5.8-30.5-6.4-5.7-.3-11.4-1.5-17.3-3.6-7.6-2.6-10.3-3-19.2-3-10.1 0-10.5-.1-12.2-2.6-6.5-9.5-16-17.4-23.2-19.4-6.9-1.8-18-8-21-11.7-4.4-5.4-12-9.7-16.3-9.4-7.9.5-24.5-.1-40.3-1.5-6.5-.6-7.3-.9-11.6-4.9-3-2.8-6.3-4.8-9-5.5-2.4-.6-6.1-1.8-8.2-2.6-2-.7-4.7-1.4-5.8-1.4-1.1 0-5-1.6-8.8-3.5-3.7-1.9-7.5-3.5-8.4-3.5-.9 0-1.8-.4-2.2-.9-.3-.5-1.8-1.2-3.3-1.5-1.5-.4-4.3-2.5-6.2-4.7-1.9-2.3-5.1-4.9-7.2-6-4.3-2.2-3.9-2.1-5.7-1zm1047.9 132.5c0 .9-3 1.4-3.5.6-.4-.6.3-1 1.4-1 1.2 0 2.1.2 2.1.4zm-336.7 115.3c-.7.2-2.1.2-3 0-1-.3-.4-.5 1.2-.5 1.7 0 2.4.2 1.8.5zM333 444.702c0 .8.5 1.2 1 .9.6-.3 1-1 1-1.6 0-.5-.4-.9-1-.9-.5 0-1 .7-1 1.6zm22 .6c0 1.7 5 9.8 6 9.8.6 0 1-.9 1-2s.5-2 1-2c2 0 1-1.9-1.2-2.2-1.2-.2-2.3-.9-2.6-1.7-.3-1 .2-1.1 1.9-.5 1.3.4 3.5.9 4.9 1.1 1.4.1 4.3.5 6.5.8 2.8.5 4.6.2 6-.9 1.9-1.4 1.8-1.5-1.5-1-1.9.3-6.9-.2-11-1-9-1.9-11-2-11-.4zm-46 1.5c0 .5 1.7 2.2 3.7 4 3.6 3 3.7 3.2 2.1 4.9-1.7 1.7-1.9 1.7-5.7-.4-5.2-2.9-6.3-1.1-1.4 2.2 4.7 3.2 6.3 3.2 9.2.2 2.9-3.1 2.2-5.6-2.7-9-3.9-2.7-5.2-3.1-5.2-1.9zm26.6 2.2c-.4.5-.2 1.2.3 1.5.5.4 1.2.2 1.5-.3.4-.5.2-1.2-.3-1.5-.5-.4-1.2-.2-1.5.3zm-4.6 1.6c0 .8.5 1.5 1 1.5.6 0 1-.7 1-1.5s-.4-1.5-1-1.5c-.5 0-1 .7-1 1.5zm-5.5.4c-.6 1.1.9 2.3 1.9 1.4.9-.9.7-2.3-.3-2.3-.6 0-1.2.4-1.6.9zm39.2.8c-.4.3-.7 1.3-.7 2.1 0 1.2.3 1.2 1.5.2.8-.7 1.5-1.6 1.5-2.1 0-1.1-1.4-1.2-2.3-.2zm-18 3.9c-1.4 1.4-.6 3 3.4 6.3l4 3.3 2.5-2.3c3.8-3.6 3.1-6.7-.8-3.2-1.7 1.6-2 1.5-5.1-1.5-1.8-1.8-3.6-2.9-4-2.6zm-18.7 1.8c0 .9.7 1.6 1.6 1.6 1.7 0 1.4-2.2-.4-2.8-.7-.2-1.2.3-1.2 1.2zm34.3 1.6c-.6 2.3-1.9 4-3.6 4.8-1.5.7-2.7 1.9-2.7 2.7 0 1.6-5.1 11.7-6.5 12.8-.5.4-2.9.6-5.3.4-5.5-.6-7.2 1.1-7.2 6.8 0 4.1-.2 4.4-4.4 6.3-5 2.4-6.2 5.2-4 9.3.7 1.5 1.5 3.8 1.5 5.1.1 1.6.3 1.8.6.6.2-.9 0-3.4-.6-5.4-1.3-4.7-.2-6.9 4.4-8.4 3.5-1.2 3.9-1.9 4.7-10 .3-2.3.7-2.5 4.3-2.2 6.5.4 8.2-.4 9.5-4.5.7-2.1 1.8-4.5 2.4-5.3.7-.8 1.7-2.7 2.4-4.3.6-1.5 1.8-2.7 2.6-2.7 1.6 0 4.1-6.2 3.3-8.3-.2-.6-.9.4-1.4 2.3zm-62.1 2.8c-.7.5-1.6 2.3-2.1 4-2.1 7.1 7.2 11.4 11.8 5.6 2.7-3.4 2.6-5-.4-7.9-2.4-2.5-6.8-3.3-9.3-1.7zm8.5 3.8c.7 2-1.6 5.4-3.7 5.4-2.2 0-5.1-3.6-4.3-5.6.9-2.5 7-2.4 8 .2zm316.3-2.1c0 1.1.9 4.7 2 8s2.6 8.2 3.4 11c1.3 4.8 1.4 4.9 1.5 1.5.1-3.3-4-17.6-6-21-.7-1.2-.8-1.1-.9.5zm-293.8.7c.5 1.5 2.8 1.8 2.9.3 0-.6-.7-1.2-1.7-1.3-1-.3-1.5.1-1.2 1zm9 .4c-2.8 1.9-2.8 5.3-.2 8.2 2.8 3 7.1 2.8 10-.3l2.3-2.5-2.3-2.5c-1.2-1.3-2.7-2.2-3.2-1.9-.6.4-.5 1.1.1 1.7.6.6 1.1 1.9 1.1 2.9 0 1.3-.8 1.8-3 1.8-4 0-4.9-2.4-2.1-5.4 3.1-3.3 1.3-4.8-2.7-2zm-7.2 8.4c0 .5.7 1 1.6 1 .8 0 1.2-.5.9-1-.3-.6-1-1-1.6-1-.5 0-.9.4-.9 1zm56.1 4c-5.9 4.9-8.2 8.2-4.2 6.1 3.1-1.7 11.6-9.9 11-10.6-.4-.3-3.4 1.7-6.8 4.5zm-62.1-2.5c0 .8.7 1.5 1.5 1.5s1.5-.7 1.5-1.5-.7-1.5-1.5-1.5-1.5.7-1.5 1.5zm-6.5 1.6c-1 1.5.1 2.3 2 1.5.9-.3 1.3-1 1-1.6-.8-1.3-2.2-1.3-3 .1zm-5.5 4.4c0 .8.5 1.5 1 1.5.6 0 1-.7 1-1.5s-.4-1.5-1-1.5c-.5 0-1 .7-1 1.5zm35.4 5.2c-.4 2.1-1.5 5.5-2.5 7.5-2.4 4.8-2.4 5.6.1 3.3 1.8-1.7 2.6-3.7 4.4-11.8.4-1.5.2-2.7-.3-2.7-.6 0-1.3 1.7-1.7 3.7zm22.9 1.3c-3.2 1.9-5.3 4.8-5.3 7.2 0 .7 1-.2 2.3-1.9 1.2-1.8 3.7-3.8 5.5-4.4 1.7-.6 3.2-1.5 3.2-2 0-1.5-2.2-1-5.7 1.1zm-58.1 2.7c.5 2.5 2.8 2.8 2.8.4 0-1.2-.6-2.1-1.6-2.1-.9 0-1.4.7-1.2 1.7zm-71.2 5.3c-.6 1.1-.7 2-.2 2 1 0 3.2-2.1 3.2-3.2 0-1.6-1.9-.8-3 1.2zm120.2 2c-1.7 2.8-1.5 3.2.8 1.8 1.1-.7 2-1.8 2-2.5 0-1.9-1.4-1.6-2.8.7zm-47 .4c.1 1 .8 1.7 1.3 1.7 1.5-.1 1.2-2.4-.3-2.9-.9-.3-1.3.2-1 1.2zm21.8 7.2c-.6 1.4-1 3.1-1 3.8 0 2.6-4.1 5-8.6 5.1-3.4.1-4.8.6-6 2.3-1.8 2.6-1.3 2.7 2.4.8 1.5-.8 4.9-1.7 7.5-2.1 5.1-.8 5.6-1.2 6.7-5.9.4-1.7 1.1-3.9 1.5-4.9.4-1 .3-1.7-.4-1.7-.6 0-1.6 1.2-2.1 2.6zm21.1-.2c-1.3 3.3-.9 4.3.8 2.2.7-.8 1.1-2.3.8-3.3-.3-1.4-.6-1.2-1.6 1.1zm-40.1-.4c0 .5.7 1 1.6 1 .8 0 1.2-.5.9-1-.3-.6-1-1-1.6-1-.5 0-.9.4-.9 1zm4.6 3.9c-.4.5-.2 1.2.3 1.5.5.4 1.2.2 1.5-.3.4-.5.2-1.2-.3-1.5-.5-.4-1.2-.2-1.5.3zm7.4 2.1c0 .5.5 1 1 1 .6 0 1-.5 1-1 0-.6-.4-1-1-1-.5 0-1 .4-1 1zm21.7 4.3c-3.6 4.8-7.7 15.2-4.8 12.1 1.5-1.5 8.3-14.6 7.8-15-.2-.3-1.6 1-3 2.9zm-16.2.8c-1 1.5.3 2.5 1.6 1.2.7-.7.7-1.3.1-1.7-.6-.3-1.4-.1-1.7.5zm551.2.4c-.8.8-2.3 4-3.3 7.2-1.5 4.8-3.1 7-9.4 13.3-5.3 5.2-8.5 9.3-10.3 13.4-3.1 6.6-3.1 6.6-1.7 6.6.6 0 2.1-2.5 3.5-5.5 1.6-3.8 4.7-7.8 9.8-12.8 7.9-7.7 9.2-9.6 11.1-16.1 1.8-6.3 4-5.5 13 4.5 6.2 6.9 8.8 9.1 12.9 10.7 2.9 1.1 5.6 1.7 6.1 1.4 1.4-.8-2.5-3.2-5.2-3.2-2.5 0-3.9-1.3-15.2-13.8-6.6-7.3-8.7-8.3-11.3-5.7zm-551.5 7.6c.2.6.8 1 1.3 1s1.1-.4 1.3-1c.2-.6-.4-1.1-1.3-1.1s-1.5.5-1.3 1.1zm420.6 3.6c1.4 2.6 9.8 6.7 12 5.8 1.3-.6.7-1-2.5-1.9-2.3-.6-5-1.8-6-2.7-3.3-2.9-4.6-3.4-3.5-1.2zm-422.3 4.3c-.3.5-.2 1 .4 1 .5 0 1.3-.5 1.6-1 .3-.6.2-1-.4-1-.5 0-1.3.4-1.6 1zm125.2 1.8c-2.7 2.9-2 4.8 2.3 6.5 2.2.8 4 2.1 4 2.7 0 .8-1.2 1-4 .5-2.2-.4-4-.3-4 .2 0 3.5 9.2 4.7 10.9 1.5 1.3-2.4-1-5.9-4.2-6.4-3.4-.5-2.8-3.4.6-3 2.3.2 2.8-.1 2.5-1.5-.5-2.6-5.9-2.9-8.1-.5zm14.6-1.1c-2 .7-1.8 13.3.2 13.3 1 0 1.5-1 1.5-2.9 0-2.4.3-2.8 2-2.4 1.1.3 3.1.2 4.5-.1 2-.5 2.5-1.3 2.5-3.6 0-1.9-.7-3.3-1.9-4-2-1-6.6-1.2-8.8-.3zm6.6 2.2c2.1 1.3.5 4.1-2.4 4.1-3.8 0-3.3-4.4.5-4.9.3 0 1.1.3 1.9.8zm9.3-1.7c-1.6 1.6-1.6 11.4 0 12.4.6.4 1.3.3 1.5-.3 1.5-4.4 5.6-5.2 6.8-1.2.7 2.1 3.5 2.6 3.5.6 0-.7-.5-1.8-1.2-2.5-.9-.9-.8-1.8.2-3.7 2.1-3.8.3-5.9-5.1-6.3-2.6-.2-4.9.2-5.7 1zm7.3 2.7c0 2.2-3.2 3.8-4.6 2.4-.9-.9-.9-1.6.1-2.8 1.5-1.9 4.5-1.6 4.5.4zm15.1-2.3c-.3.9-.6 4-.6 7.1 0 3.9.3 5.3 1.3 5 .6-.2 1.2-1.5 1.3-2.8.3-6 0-6.1 6.5 1.9 1.9 2.3 2.9.2 2.9-5.9 0-4.4-.3-6-1.2-5.7-.7.3-1.5 2-1.8 3.9l-.5 3.4-2.8-4.3c-2.9-4.5-4.1-5.1-5.1-2.6zm16 .9c-3.7 5.7-.8 11.2 6.2 11.7 5.2.3 7.4-1.8 5.2-5.2-.7-1.2-1.2-1.2-2.9.4-1.8 1.6-2.5 1.7-4.6.8-2.8-1.3-3.3-4.3-1-6.2 1.3-1.1 2-1.1 3.9 0 3.3 1.7 5.3.4 3-2.1-2.5-2.8-7.8-2.5-9.8.6zm-22.7-.6c-.2.6-.2 3.6-.1 6.6.3 4 .8 5.5 1.8 5.5 1.2 0 1.4-1.3 1.2-6.2-.2-3.5-.8-6.3-1.4-6.5-.7-.2-1.4.1-1.5.6zm267.1 0c0 1.1 5.1 5 10.6 8.1 2.7 1.6 4.6 3.5 5.3 5.7.7 1.8 1.6 3.3 2.1 3.3.4 0 4.8 3.9 9.7 8.6 8.4 8.2 14.3 12.5 14.3 10.5 0-.5-1.8-2.2-4.1-3.8-2.3-1.5-4.9-3.6-5.8-4.7-.9-1-4.4-4.6-7.7-8-3.4-3.3-6.9-7.4-7.9-8.9s-3.2-3.5-4.9-4.4c-1.7-.9-4.7-2.9-6.7-4.4-3.9-3.1-4.9-3.5-4.9-2zm-431.4 1.7c-.9 2.2.3 3.2 1.4 1.4 1.2-1.9 1.2-3 .1-3-.5 0-1.2.7-1.5 1.6zm157 17.3c-.4.6-.6 6.5-.5 13.1.1 6.6 0 12.3-.3 12.6-.3.3-1.4-.8-2.4-2.5s-2.2-3.1-2.6-3.1c-1.5 0-.8 2.3 1.8 5.7 1.4 1.8 3 4.7 3.6 6.3 1.3 3.9 2.5 3.8 3.3-.3.4-1.7 1.6-4.9 2.7-7 2.3-4.6 1.5-6.3-1.2-2.7l-2 2.5v-11.5c0-11-.9-15.6-2.4-13.1zm55.4 12.4c0 2.9.5 5.8 1.2 6.5 1.3 1.3 5.9 1.6 9.6.6 2.1-.6 2.2-1 1.6-5.3-.9-6.2-1.8-7.1-7.5-7.1H555v5.3zm8-1.9c0 1.5-3.7 3.2-4.7 2.2-.3-.3-.3-1.2 0-2.1.8-1.9 4.7-2 4.7-.1zm1.8 5.3c-.2 1.1-1.4 1.9-3.1 2.1-2.2.3-2.7-.1-2.7-1.7 0-1.7.6-2.1 3.1-2.1 2.4 0 3 .4 2.7 1.7zm9.6-5c-3.8 9-3.8 9.9-.2 6.6 1.2-1 1.8-1.2 1.8-.4 0 .8.7 1 2.1.6 1.4-.5 2.5-.1 3.3 1.1 2.4 3.2 2.7-.3.5-6-2.7-6.9-5.1-7.5-7.5-1.9zm4.6 2.9c0 .8-.7 1.4-1.5 1.4-1.5 0-2.1-2.1-.9-3.3 1-.9 2.4.2 2.4 1.9zm7.7-5.9c-1.3 1.2-.7 9 .7 10.2.8.7 3.2 1.1 5.3.9l3.8-.3.3-5.3c.2-3.1-.1-5.2-.7-5.2s-1.1 1.5-1.1 3.4-.7 4.2-1.6 5.1c-2.4 2.4-4.4.1-4.4-5.1 0-4.1-.8-5.3-2.3-3.7zm15 0c-.4.3-.7 3-.7 6 0 3.9.4 5.3 1.4 5.3.9 0 1.6-1.2 1.8-3.3l.3-3.2 1.9 3.5 1.9 3.4 1.4-3.7c1.8-4.5 3.8-5 3-.7-.7 3.1.7 5 1.7 2.4 1-2.7.7-9.2-.6-10-.6-.4-2.1.5-3.4 2.2-2.3 2.8-2.4 2.8-3.8.9-.9-1.1-1.6-2.3-1.6-2.8 0-.9-2.4-.9-3.3 0zm17.6-.1c-1.4.6-1.8 10-.5 10.7 1.6 1 11.2 1.2 11.1.2 0-.6-.8-.9-1.7-.8-3.1.4-7.2-.8-7.2-2.2 0-.9.6-1.2 1.5-.9.8.4 1.5.1 1.5-.5s-.7-1.1-1.5-1.1-1.5-.7-1.5-1.5c0-1.1 1.1-1.5 4-1.5 2.2 0 4-.5 4-1 0-.6-1-1-2.2-1-1.3 0-3.2-.2-4.3-.5-1.1-.2-2.6-.2-3.2.1zm101.2 9c-.9 1.4-1.4 2.9-1 3.2.6.6 2-1 2.9-3.3.2-.6 1.5-.4 3.2.5 2.3 1.3 3 2.5 3.5 6 .8 5.7.2 6.7-2.5 4.1-1.2-1.1-3.7-2.3-5.6-2.6l-3.5-.6 3.1 1.8c10.9 6.2 9.8 6.4 10.9-1.9.6-4.5.5-4.7-3.2-7.2-4.7-3.2-5.7-3.2-7.8 0zm67.2 1c-.3.3 1 2.9 2.9 5.6 1.9 2.8 3.4 5.6 3.4 6.2 0 .7 2.7 6.5 6 13s6 12.6 6 13.6c0 1.1.5 2.2 1.2 2.6 2.3 1.4-.3-6-6.2-18-3.3-6.7-6-13-6-14 0-1.1-1-3-2.2-4.3l-2.2-2.3 3.5.6c5.9 1.1 12 4.7 16.1 9.6 2.6 3.1 5.2 5.1 7.6 5.8 6.9 2 14.7 6.4 15 8.5 1.1 7.1 4.8 9.9 9.9 7.6 2.4-1.1 2.5-1.4 1.9-6.9-1-8.4-3-11.1-11.7-15.7-4.2-2.2-9.6-5.6-12-7.5l-4.4-3.5 2.9 3.8c1.9 2.5 5.8 5.2 11.8 8.4 9.8 5 10.6 6 11 14.5.3 5.1.2 5.3-2.2 5.3-2 0-3-1-5-4.9-2.6-5.1-4-6.1-13.4-9.8-3.7-1.4-7-3.6-9-6-4.5-5.2-9.8-8.6-17-10.9-6.8-2.1-7-2.1-7.9-1.3zM0 572.402c0 .2 2.8 2.7 6.1 5.6l6.2 5.2 5.6-.7c5.1-.5 5.9-.3 9.7 2.4 2.3 1.7 5.4 4.9 7 7.1 3.1 4.3 5.3 5.1 7.4 2.6 2.3-2.8 6.1-1.8 10.1 2.6 5.6 6.1 11.6 15.8 12.9 20.9.9 3.5 2.5 5.8 7.1 10.1 4.4 4.2 5.9 6.3 5.9 8.4 0 1.5.9 3.9 1.9 5.4 1.1 1.4 2.2 4.9 2.6 7.6.4 2.8 1.8 8 3.2 11.8 2 5.3 3 6.8 5 7.3 1.6.4 3 .1 4-.9 1.3-1.2 2-1.3 3.5-.4 1.6 1 2.2.9 3.4-.8 1.3-1.7 1.6-1.8 2.4-.5.9 1.3 1.1 1.3 2 0 .5-.8 1-2.1 1-2.8 0-2 1.7-1.4 2.3.9.8 3.1 2.7 1.3 2.7-2.5v-3.4l-3.7 1.3c-2.1.7-4.8 2.3-6.2 3.5-2.3 2.1-5.1 2.1-5.1 0 0-1.9-2-1-3.2 1.5-.6 1.4-1.5 2.5-1.9 2.5-1.5 0-5.6-9.4-6.2-14.3-.4-2.6-1.6-6.5-2.7-8.7-1.1-2.1-2-4.7-2-5.7 0-2.8-3.7-8.2-8.6-12.6-3.3-2.9-4.8-5.3-6.1-9.6-1.1-3.4-4.2-9-8.1-14.3-5.2-7.2-7-9-10.1-9.9-3.3-1-4.2-.9-6.6.7-2.4 1.6-2.9 1.6-3.3.4-.3-.8-2.6-3.6-5.1-6.1-5-5.1-11.1-7.5-16.8-6.6-2.8.5-4-.1-8.5-3.9-4.3-3.7-7.8-5.5-7.8-4.1zm510.7 8.4c-.4.3-.7 3-.7 6v5.3h3.9c4.9 0 6.9-.7 8.1-3 1.4-2.6-.6-7.7-3.3-8.4-3-.8-7.2-.8-8 .1zm7.8 4c1.8 2.4.1 5.3-3 5.3-2.1 0-2.5-.5-2.5-2.8 0-1.6.3-3.2.7-3.5 1.2-1.2 3.6-.7 4.8 1zm7.7-2.7c-1.3 3.4-.2 9.8 1.7 10.3 3.1.8 7.4.2 7.9-1.1.2-.8-.8-1.2-3.2-1.2-2.5 0-3.6-.5-3.6-1.5 0-.9.6-1.2 1.5-.9.8.4 1.5.1 1.5-.5s-.7-1.1-1.5-1.1-1.5-.7-1.5-1.5c0-.9.9-1.5 2.5-1.5s2.5-.6 2.5-1.5c0-2.5-6.9-2-7.8.5zm14.2-.5c-1 2.5.3 4.4 4.1 5.9 2 .9 3.4 2 3 2.6-.8 1.4-3.8 1.3-5.3-.2-.6-.6-1.5-.8-1.9-.4-1.3 1.2 2.8 3.6 6.3 3.6 6.7 0 6.9-5.4.3-7.6-1.8-.6-3.5-1.6-3.7-2.3-.5-1.4 4.4-1.5 5.3-.1.4.6 1.1.7 1.7.4 1.8-1.1-2.2-3.4-5.9-3.4-2.1 0-3.6.6-3.9 1.5zm34.8-.2c-.6.7-1.5 2.5-2.1 4-1.4 3.6-2.8 3.4-4.8-.8-.9-1.9-2.3-3.5-3.1-3.5-.7 0-1.2.4-1 .8.2.4 1.2 2.9 2.3 5.5 1.5 3.5 2.6 4.7 4.1 4.7 2 0 2.7-1 6-8.8 1.4-3.2.6-4.3-1.4-1.9zm7.1-.5c-1.5 1-5.3 8.8-5.3 10.8 0 1.5.3 1.4 2.4-.5 1.7-1.6 2.5-1.9 2.8-.9.4 1.1.8 1.1 2 0 1.3-1 1.7-1 2.2.3.3.8 1.3 1.5 2.2 1.5.9 0 1.3-.6 1-1.3-.2-.6-1-2.9-1.7-5-1.3-3.9-3.7-6.1-5.6-4.9zm2.7 5.2c0 1.1-.7 2-1.5 2-1.5 0-2.1-2.1-.8-3.3 1.2-1.3 2.3-.7 2.3 1.3zm16.7-4.7c-.3.8-.3 2.3-.1 3.4.3 1-.2 2.7-1 3.8-2.2 2.9-5 .9-5.4-3.9-.4-4.9-3.2-5-3.2 0 0 5.8 1.4 7.4 6.5 7.4 4.9 0 5-.1 5.9-5 .7-4-1.5-8.7-2.7-5.7zm6.7.1c-.3.7-.4 3.5-.2 6.2l.3 4.9 4.8-.1c5.3 0 7.6-2 7.7-6.6 0-3.1-1.6-4.2-7.8-5.2-3.2-.5-4.4-.3-4.8.8zm9.3 4.2c.8 2-1.5 4.4-4.3 4.4-2.1 0-2.4-.5-2.4-3.4 0-1.9.6-3.6 1.3-3.9 1.6-.6 4.7 1.1 5.4 2.9zm8.4-3.5c-5.9 6.4 2.7 15.1 8.9 8.9 3.9-3.9 1.9-9.5-3.6-10.6-2.5-.5-3.6-.1-5.3 1.7zm7.4 3.2c.8 2.4.6 3.1-1 4.3-3.4 2.5-6.3-.4-5.1-5 .9-3.7 4.7-3.2 6.1.7zm7.2-4.6c-.4.3-.7 3.3-.7 6.5 0 4.5.3 5.8 1.5 5.8 1.3 0 1.5-1.1 1.2-6-.5-6.2-.9-7.5-2-6.3zm5.3.8c-1.8 2.2-.5 4.4 3.5 6.1 1.9.8 3.5 1.8 3.5 2.3 0 1.7-2.8 1.9-4.9.4-2.4-1.7-3.7-1.2-2.8 1.1.9 2.3 6.4 3 9.3 1.1 3.4-2.2 2.7-4.7-1.6-6.1-1.9-.6-3.6-1.9-3.8-2.8-.4-1.9.2-2 2.9-.6 2.7 1.5 4.7.1 2.4-1.7-2.5-1.7-7-1.7-8.5.2zm-54.8 30.5c.2 7.2.1 13-.2 13-.2 0-1.4-1.2-2.6-2.8-3.1-3.8-3.9-2.2-1.4 2.7 1.2 2.2 2.4 5.9 2.7 8.1.6 4.2 2 6.1 2.8 3.8.2-.7.9-3.2 1.5-5.6.6-2.4 2-5.2 3.1-6.3 1-1 1.9-2.4 1.9-2.9 0-1.6-1.8-1.1-2.9.7-.5 1-1.2 1.5-1.5 1.3-.4-.5-1.2-12.8-1.5-23.3-.1-.9-.6-1.7-1.2-1.7-.7 0-1 4.2-.7 13zm164.3 9.5c-3.1 3-3.2 5.6-.1 9.2 2.1 2.4 2.7 2.6 5.1 1.8 3-1.1 5.4-4 4.2-5.1-.4-.4-1.6.1-2.8 1.1-1.5 1.5-2.4 1.7-3.7.9-4.1-2.6-1.8-7.9 3-6.9 2.9.7 3.6-.3 1.6-2.3-1.9-1.9-4.7-1.4-7.3 1.3zm20.9-1.1c-.3.9-.4 2.3 0 3.1.4 1.1-.1 1.5-1.9 1.5-1.7 0-2.5-.6-2.7-2.2-.2-1.3-1.1-2.4-2-2.6-1.6-.3-1.8.5-1.8 5.7 0 4.8.3 6.1 1.5 6.1.8 0 1.5-.9 1.5-2 0-3.2 4.8-2.7 5.6.5.5 2.1.9 2.3 2.1 1.4 1.8-1.5 1.4-12-.4-12.7-.7-.2-1.6.3-1.9 1.2zm11.8-.1c-1.5 1.9-5.2 10-5.2 11.4 0 1.9 1.7 1.6 2.9-.4.7-1.4 1.2-1.5 2.4-.5s1.6 1 1.9 0c.4-1 .8-1 2.2.1 2.6 2.2 2.9.7 1.2-5.2-1.6-5.5-3.7-7.6-5.4-5.4zm2.8 6.3c0 .8-.7 1.4-1.5 1.4-1.5 0-2.1-2.1-.9-3.3 1-.9 2.4.2 2.4 1.9zm51.2-6.4c-1.5 1.5-1.5 4.5 0 5.4.6.4 2.5 1 4.1 1.3 1.7.4 3.2 1.1 3.4 1.8.5 1.5-2.8 2.6-4.1 1.3-1.3-1.3-5.6-1.3-5.6 0 0 1.7 8.1 3.3 10.7 2.1 4.2-1.9 2.5-6.5-2.6-7.3-3.7-.5-3.9-2.8-.2-2.8 3.3 0 4.2-1.4 1.5-2.4-2.5-1-5.9-.7-7.2.6zm24-.2c-3.4 1.4-4.9 5.4-3.1 8.6 2.8 5.3 8.9 5.1 11-.3.7-1.9.5-3.3-.9-5.7-2-3.4-3.5-4-7-2.6zm4.8 3.5c1 1.2 1 2.1.2 4-1.5 3.3-5 3.3-5.8 0-1.1-4.4 2.9-7.2 5.6-4zm7.5-3.6c-.3.2-.5 3.2-.5 6.5.1 5.9.1 6 1.8 4.1.9-1.1 2.8-2.5 4.2-3.1l2.5-1.2-2.7-.7c-1.6-.4-2.8-1.1-2.8-1.5 0-1.2 2.6-1.9 4.8-1.3 2.3.6 3.8-1.2 2-2.4-1.4-.9-8.5-1.2-9.3-.4zm-80.5 6.5v6.6h5c3.9 0 5-.4 5-1.6 0-1-.8-1.5-2.2-1.4-4.3.4-4.7 0-5-4.7-.2-2.6-.9-4.8-1.5-5.1-1-.3-1.3 1.4-1.3 6.2zm13.4-5c-.3.7-.4 3.5-.2 6.2l.3 4.9h4.9c3.1 0 5.1-.5 5.4-1.3.2-.8-.9-1.2-3.8-1.2s-4-.4-3.7-1.3c.2-.6 1.1-1.2 2-1.2 2.8 0 3-1.4.3-2.1-4.9-1.2-2.7-3 3.2-2.5 1.4.1 2.2-.4 2.2-1.4 0-2-9.8-2.2-10.6-.1zm13.6.1c0 1 1 1.5 2.6 1.5 2.5 0 2.6.2 2 3.9-.4 2.5-.2 4.2.5 4.7 1.6 1 2.9-1.6 2.7-5-.3-2.4.2-3.1 2.1-3.6 1.4-.3 2.6-1.1 2.9-1.8.3-.9-1.5-1.2-6.2-1.2-5.2 0-6.6.3-6.6 1.5zm-16.2 17.2c-2.4.4-2.7.9-3.4 5.9-.3 3-.4 5.8-.1 6.1 1.2 1.1 3.7-.7 3.7-2.7 0-1.4.7-2 2.1-2 1.1 0 1.7-.5 1.4-1-.3-.6-1.5-1-2.6-1-3.3 0-1.6-2.5 2-2.8 1.9-.2 3.1-.8 2.8-1.5-.4-1.4-2-1.6-5.9-1zm12.6.1c-1 .6-1.9 7.2-1.5 10.9.2 2.3 2 1.4 2.7-1.3.4-1.7 1.1-2.3 2.1-2 .8.3 1.8.6 2.3.6.5 0 1.2.9 1.5 2 .3 1.1 1.5 2 2.6 2 2.1 0 2.6-1.5.8-2.6-.7-.4-.9-2.1-.5-4.2.3-2 .1-4.2-.6-4.9-1.1-1.4-7.5-1.8-9.4-.5zm7.3 2.7c.7 1.9.5 2.2-3 3-2.2.6-2.7.4-2.7-1.2 0-1.1.3-2.3.7-2.6 1.2-1.3 4.4-.7 5 .8zm8.9-1.1c-3.1 3-3.3 5.9-.6 8.6 4.1 4.1 11 1.7 11-3.9 0-3.5-1.8-5.8-5.2-6.6-2.1-.5-3.3-.1-5.2 1.9zm7.2 3.7c.4 3.4-2 5.4-4.7 3.9-3.7-1.9-2.3-7.3 1.8-6.8 2 .2 2.7.9 2.9 2.9zm7-4.8c-.9 2.8-.2 10 1 10.4.8.3 1.2-1.1 1.2-5.1 0-5.1-1.3-8.2-2.2-5.3zm6.9-.6c-.3.5-.6 3.3-.8 6.3l-.4 5.5 4.7.3c3.8.2 5-.1 6.8-2 3.9-4.3 0-10.8-6.6-10.8-1.8 0-3.5.3-3.7.7zm6.4 2.3c2.9 1.6 2.5 5.8-.8 7.1-3.1 1.1-4.3 0-4.3-4.2 0-4 1.5-4.8 5.1-2.9zm11-2.1c-.9.6-1.5 2.9-1.6 5.9l-.2 5 4.6.6c2.5.3 4.9.2 5.5-.4.7-.7.2-1-1.4-1-3.8 0-5.7-1.5-4.1-3.3 1-1.3.9-1.7-.6-2.5-2.3-1.3-.9-2.7 2.5-2.7 1.5 0 2.9-.5 3.2-1 .6-1.3-6.1-1.8-7.9-.6zm-109.8 1.3c-1.5 2-5.3 9.7-5.3 10.8 0 .6.7 1 1.5 1s1.5-.5 1.5-1.1c0-.5.8-.9 1.8-.7.9.1 2.3-.1 3-.6.9-.5 1.8-.1 2.7 1 2.6 3.6 2.8.4.4-5.3-2.6-5.9-4-7.2-5.6-5.1zm2.7 4.8c0 2.1-1.5 2.7-2.5 1-.7-1.2.2-3 1.6-3 .5 0 .9.9.9 2zm8.6-5.3c-.3.3-.6 3.3-.6 6.5v5.9l4.8-.3c5.3-.3 6.4-2.1 1.5-2.6-3.2-.3-3.3-.5-3.3-4.7s-1-6.2-2.4-4.8zm13.5.7c-.7.8-1.1 3.6-.9 6.3l.3 4.8h5.3c5.4 0 7.4-1.8 2.5-2.3-5.2-.5-6-1.2-3.4-2.6 2.3-1.3 2.3-1.3.2-1.9-2.9-.7-2.7-2.7.3-2.7 3.3 0 5.7-1 5-2.1-.9-1.4-8-1-9.3.5zm21.5 15.3c-.3.3-.6 4.4-.6 9 0 4.9-.4 8.3-1 8.3-.5 0-1-.5-1-1 0-.6-.4-1-1-1-1.2 0-1.4 2.7-.2 3.2.4.1 1.8 2 3.1 4.2l2.4 3.8 1.9-4.8c2.3-6.1 1.9-9.2-.5-4.9-1.7 3-1.8 2.9-1.2-6.6.6-8.9 0-12.1-1.9-10.2zm-698.2 4.7c-.3.8-.4 2.7-.1 4.3.4 2.7.4 2.7 1.2.5 1-3 2.9-2.3 3.3 1.4.5 4 6.4 10.4 8.6 9.2 2-1.1 2.1-2.8.1-2.8-2.9 0-6.5-3.1-6.5-5.7 0-3.2-1.5-6-4-7.3-1.6-.8-2.2-.8-2.6.4zm15.6 16.8c0 2.1 3.7 7.6 6 8.8 1.6.9 2.2.8 2.6-.5.9-2.2 1.9-1.8 3.3 1.2 2.6 5.8 4.1 7.5 5.6 6.3 1.9-1.5 4.8 3.9 5.5 10 .4 3.5.9 4.6 2.5 4.8 1.1.2 2.8 1.1 3.8 2 1.6 1.4 1.9 1.4 3.1-.3 1.3-1.8 1.4-1.8 2 .3.8 2.6 3.1 2.9 4 .6.9-2.3.8-2.4-1.3-2.4-1.1 0-2.3-.5-2.6-1-.4-.6-1.4-1-2.3-.9-6.2.6-6.9.1-7.6-4.9-.7-5.5-4.8-12.2-7.5-12.2-1 0-2.4-1.5-3.4-3.6-1.7-3.4-2-3.6-5.2-3-3.2.6-3.7.4-5.6-2.9-2.2-3.7-2.9-4.3-2.9-2.3zm633 16.3c0 .8.9 1.5 2 1.5 2.4 0 2.7-1.5.4-2.4-2.2-.9-2.4-.8-2.4.9zm-460.3 7.1c-1 1-.9 4.4.2 4.4 1.3 0 2.3-3.2 1.3-4.2-.5-.5-1.1-.5-1.5-.2zm-102.7 2.5c-1.9 1-5.6 2.1-8.2 2.5-5.8.8-6.2 2-.9 2.9 2.2.4 5.6 1.5 7.5 2.5 2 1 3.8 1.4 4.1 1 .3-.4-.2-1-1-1.4-4.3-1.6-.3-2.3 11.4-1.9 8.8.4 13.1.2 13.5-.6.5-.8-3.3-1.1-13.3-1.1-7.8 0-14.1-.4-14.1-.8 0-.5 1.4-1.5 3.2-2.3 1.7-.9 2.7-1.8 2.2-2.1-.5-.3-2.5.2-4.4 1.3zm86.2 2.1c-.7.7-1.2 3.7-1.2 7.1v6l5-.5c2.8-.3 5.9-1.3 7-2.3 2.5-2.2 2.6-6.7.3-8.7-2.5-2.2-9.5-3.2-11.1-1.6zm8.3 3.8c1.7 1.8 1.7 2.1.1 4.5-2.3 3.5-6.2 3.4-6.8-.3-.6-4.4.1-6.2 2.6-6.2 1.3 0 3.1.9 4.1 2zm12.2-4.3c-.4.3-.7 3.5-.7 7v6.3h5.6c4 0 5.4-.3 5.1-1.3-.2-.6-1.5-1.3-2.8-1.4-1.3 0-3-.1-3.6-.2-.7-.1-1.3-.7-1.3-1.5 0-.9.7-1.2 2-.9 1.2.3 2 0 2-.7 0-.6-.9-1.4-2-1.7-3-.8-1.9-2.8 1.8-3.1 5.1-.5 4.1-3.2-1.1-3.2-2.4 0-4.7.3-5 .7zm14.1.3c-.1.5-.1 3.7 0 7 .3 4.1.8 6 1.5 5.7.7-.2 1.2-1.8 1.2-3.5 0-4.1.8-4 3.5.3 3.8 6.2 6.5 3.7 5.8-5.6-.4-5.3-2.1-5.5-2.8-.3-.5 3.5-.6 3.5-2.1 1.8-.9-1.1-2.2-2.9-2.8-4.2-1.2-2.2-3.7-3-4.3-1.2zm14.2.5c0 .8 1.2 1.8 2.6 2.1 2.4.6 2.5.9 1.9 4.9-.6 4.6.5 6.4 2.5 4 .8-.9.9-2.8.5-5.5-.7-4-.6-4 2.4-4 3.6 0 4.1-1.5.9-2.4-4.6-1.2-10.8-.7-10.8.9zm19-.2c-2.1 1-2.6 2.1-2.8 6.1-.4 5.8 1.2 8.3 2.7 4.3 1.3-3.4 3.9-3.5 5.1-.2.9 2.4 2.4 3.2 3.3 1.7.3-.4.1-1.6-.3-2.7-.4-1-.2-3.2.4-4.8.9-2.4.8-3.1-.8-4.3-2.4-1.7-4.3-1.8-7.6-.1zm5 3.8c0 1.2-.7 1.9-1.9 1.9-2.6 0-3.6-1.7-2.1-3.5s4-.8 4 1.6zm11.3-3.9c-1.6 2.1-4.5 10.7-4.1 12 .3.8 1.1.5 2.3-.9 1.3-1.6 2.2-1.9 3.1-1.2.8.7 1.4.7 1.9-.1.9-1.5 2.5-1.2 2.5.4 0 1.8 1.6 2.9 2.9 2.2.9-.6-2.2-10.1-4.1-12.4-.6-.6-1.6-1.2-2.3-1.2-.7 0-1.7.6-2.2 1.2zm3.5 5.1c.2 1-.3 1.7-1.2 1.7-1 0-1.6-.9-1.6-2.1 0-2.4 2.3-2.1 2.8.4zm9.9-5.7c-.4.4-.7 3.6-.7 7.1 0 4.7.3 6.4 1.3 6.1.7-.3 1.3-2.7 1.5-6.3.3-5.5-.6-8.4-2.1-6.9zm6.9 1.6c-.9 1.2-1.6 3.2-1.6 4.3 0 1.1.7 3.1 1.6 4.3 1.2 1.8 2.5 2.2 6.5 2.2 5.1 0 6.3-1.4 3.9-5-.9-1.3-1.2-1.3-2.4.2-3 4-9.1.3-6.2-3.7.9-1.3 2-1.6 3.9-1.1 2.9.7 4.8-1.1 2.6-2.5-2.6-1.6-6.7-1-8.3 1.3zm14-.6c-.8 2 .3 8.4 1.7 10.1 1.3 1.7 7.2 1.6 8.6-.1 1.6-1.8 1-10.8-.6-11.4-.9-.2-1.3.8-1.3 3.3 0 4.3-1.5 7.5-3.5 7.5-1.1 0-1.5-1.3-1.5-5.5 0-4-.4-5.5-1.4-5.5-.8 0-1.7.7-2 1.6zm15.6-.4c-1.3 1.3-1.5 4-.6 8.7.6 3 .9 3.1 5.6 3.1 3.5 0 4.8-.4 4.5-1.3-.2-.6-1.9-1.2-3.7-1.2-1.8 0-3.5-.6-3.7-1.3-.3-.6.2-1.2 1.1-1.2 2.1 0 2-1-.1-2.5-2.1-1.6-.9-3.5 2.3-3.5 1.3 0 2.4-.5 2.4-1 0-1.4-6.4-1.2-7.8.2zm14.1-.5c-.7.2-1.3 1.5-1.3 2.9 0 1.8.7 2.5 2.8 2.9 6.6 1.4 7.3 4.1.9 3.8-4-.3-4.1-.2-2.2 1.2 3.2 2.5 6.3 2.9 9 1.1 3.5-2.3 2.1-5.8-2.9-7-4.5-1.2-5.1-4.1-.6-3.1 1.7.4 3 .2 3-.3 0-1.9-5.5-2.8-8.7-1.5zm-201 1.9c2.8 9.2 4.6 12 7.1 11.1 1.5-.6 5.6-8.8 5.6-11.3 0-2.8-2.2-1.3-3.7 2.6-1.9 4.7-3.4 4.7-4.9-.1-.6-1.9-2-3.6-2.9-3.8-1.3-.2-1.6.2-1.2 1.5zm15.2 4c-1.4 3.1-2.5 6-2.5 6.5 0 1.5 1.8 1 3-.9.8-1.2 1.3-1.3 1.6-.5.8 1.9 3.4 1.6 3.4-.5.1-1.2.6-.8 1.6 1.2 2.6 4.7 3.3 1.2 1.2-5.4-2.6-8-4.9-8.1-8.3-.4zm5.5.9c0 .8-.7 1.5-1.5 1.5s-1.5-.7-1.5-1.5.7-1.5 1.5-1.5 1.5.7 1.5 1.5zm8.7-5.8c-1 .9-.9 12.1.1 12.6 1.3.7 9.2-.5 9.2-1.4 0-.5-1.6-.9-3.5-.9H265v-5.5c0-5.1-.7-6.5-2.3-4.8zm-92 2.2c1.2 1.1 3.4 4.3 4.9 7.1 1.9 3.5 3.1 4.7 3.8 4 2.1-2.1 3.8-1.1 3.1 2-.5 2.3-.1 3.5 1.9 5.5 1.4 1.4 3.3 2.5 4.3 2.6 1.2 0 2.8 2 4.6 6 2.2 4.6 3.3 5.9 5.1 5.9 2.4 0 5.6 2.8 5.6 4.8 0 .7 1.6 2.2 3.5 3.4 2.2 1.5 4.1 4 5.4 7.1 1.1 2.6 2.8 5 3.8 5.3 1 .3 4.1 1.5 6.8 2.6 3.5 1.5 7.9 2.2 14.7 2.5 7.3.2 10.5.8 13 2.2 6.1 3.6 15.2 5.9 25.7 6.7 8 .5 11.3 1.2 14.8 3 2.4 1.3 5.9 2.4 7.8 2.4 1.8 0 5.5 1 8.2 2.2 3.6 1.6 6.9 2.1 13.1 2.2 8 .1 8.5 0 10.8-2.7 2.9-3.4 3-4.7.3-8.1-1.8-2.3-2.7-2.7-6.8-2.4l-4.6.3-.3 5.2c-.3 5.3-.3 5.3-3.6 5.3-1.8 0-5.4-1.1-8-2.5-2.6-1.4-6.3-2.5-8.2-2.5-1.9 0-5.3-1-7.6-2.1-3.1-1.6-7.2-2.4-15.7-3-15.1-1.1-16.3-1.4-23-4.8-4.8-2.4-7.1-2.9-16.1-3.3-8-.4-11.8-1-15.9-2.8-4.9-2.2-5.6-2.9-8.2-8.6-2.1-4.6-3.4-6.3-5.3-6.8-1.7-.4-3.3-2.1-4.7-4.7-1.7-3.4-2.5-4-4.5-3.6-2.7.5-4.7-1.9-6.7-8.1-.9-2.7-1.8-3.7-3.3-3.7-3.6-.1-5.4-2.4-5.4-6.7 0-3.9-.1-4-2.7-3.5-2.5.5-3.1 0-5.8-4.6-1.7-3-3.9-5.3-5-5.5-1.9-.4-1.9-.3.2 1.7zm159.1 70.7c.4 3-1.8 5.4-5 5.4-1.5 0-1.8-.8-1.8-4.4 0-4.7 1.1-5.8 4.5-4.6 1.2.4 2.1 1.8 2.3 3.6zm243.1-68.7c-1.6 1.3-2.3 2.9-2.3 5.5 0 4.4 1.4 5.9 5.4 5.9 6.6 0 9.4-7.2 4.4-11.2-3.3-2.6-4.5-2.6-7.5-.2zm6.1 2.5c2 2.6.8 6.1-2.2 6.4-2.3.3-2.9-.2-3.4-2.4-.5-2-.2-3.1 1.1-4.1 2.4-1.7 3-1.6 4.5.1zm7.7-3.8c-1.1 1.1-.8 12.4.3 12.4.6 0 1-1.8 1-4s.4-4 .9-4c1 0 3.1 2.4 4.6 5.4.6 1.1 1.7 2.1 2.5 2.1 1.2 0 1.5-1.4 1.5-5.8 0-6.3-1.7-7.8-2.5-2.1l-.5 3.7-2.5-3.8c-2.6-4-4.1-5.1-5.3-3.9zm-70.7 1.7c0 1.9 3.8 10.5 4.9 11.2 1.9 1.1 3.8-.8 5.9-5.7 1.3-3.1 1.8-5.6 1.3-6.1-1.5-1.5-2.8 0-3.5 3.8-.9 4.6-3.2 4.5-4.3-.2-.9-3.7-4.3-6.1-4.3-3zm17.1.9c-2.8 7.7-3.4 9.8-2.8 10.5.4.3 1.3-.2 2.1-1.2 1.1-1.6 1.7-1.7 2.9-.7 1.1 1 1.7.9 2.6-.2 1-1.2.8-1.6-.9-2.1-1.3-.4-2-1.3-1.8-2.3.6-3.1 3.1-1.7 4.2 2.3.7 2.3 1.8 4 2.6 4 1.8 0 1.5-2.4-1-8.3-1.5-3.4-2.4-4.2-4.5-4.2-1.7 0-2.8.7-3.4 2.2zm13.9 4.3v6.6l4.7-.3c5.6-.4 7.3-2.8 1.9-2.8-3.5 0-3.5 0-3.8-4.7-.2-2.6-.9-4.8-1.5-5.1-1-.3-1.3 1.4-1.3 6.3zm12.5-5.3c-.4.9-.5 3.7-.3 6.4.3 4.5.5 4.9 3.1 5.2 1.6.2 3.6 0 4.5-.4 1.3-.6 1-.8-1.3-1.3-2.7-.6-3-1-3.3-5.1-.4-4.9-1.8-7.3-2.7-4.8zm85.8 16.1c.7 1.9.5 2-14.3 1.8-6.7-.1-9.1.1-8 .8.8.6 6.8 1.1 13.4 1.1h11.8l-2.3 2c-2.9 2.4-1 2.6 3.3.4 1.8-.9 6.8-1.9 11.5-2.2 4.6-.3 8.1-.8 7.8-1.1-.4-.3-5-1.1-10.3-1.7-5.3-.6-10.6-1.5-11.6-1.9-1.6-.7-1.8-.5-1.3.8zm-121.1 5.7c.1 1.3.9 2.5 1.6 2.8 1.7.5 1.5-2.3-.4-3.9-1.4-1.1-1.5-1-1.2 1.1zm66.6 1.7c-1.5.4-1.8 1.6-1.8 6.4 0 6.7.8 7.5 6.5 6.5 4.5-.9 4.5-2.6.1-2.6-3 0-3.4-.3-3.8-3.1-.5-3.3 1.2-4.9 5.2-4.9 3.3 0 1.8-2.5-1.6-2.7-1.6 0-3.7.1-4.6.4zm13.6.7c-.3.7-.4 3.5-.2 6.2.3 4.8.4 4.9 3.9 5.2 2.4.2 4.3-.4 6.2-1.8 3.1-2.4 3.4-5 1.1-8.5-1.3-2-2.5-2.5-6-2.5-2.9 0-4.7.5-5 1.4zm9 3.8c1.2 2-.4 4.1-4.1 5.2-1.8.6-2.4.2-2.9-1.8-.3-1.4-.3-3.3 0-4.2.8-2 5.5-1.5 7 .8zm-40.2-3c-.5.7-.9 3.5-.9 6.3.2 3.9.6 5 2 5.3 1.4.3 1.7-.4 1.7-4.7 0-4.8.2-5.1 2.5-5.1 3 0 3.4 2.4.6 4.2-1.8 1.1-1.7 1.3 1.6 3.5 1.8 1.3 3.6 2.3 3.8 2.3.8 0-.8-10.5-1.8-11.8-.5-.6-2.6-1.2-4.7-1.2s-4.2.6-4.8 1.2zm-38.9.6c-1.6 1-6.3 12.1-5.4 12.7.5.2 1.6-.4 2.6-1.5 1.4-1.6 2-1.7 2.6-.8.6 1 1.1 1 2 .1.9-.9 1.6-.7 3 1 1.5 1.8 2 2 2.8.8.6-1 .1-3.1-1.7-6.7-2.6-5.4-4-6.7-5.9-5.6zm2.7 5.7c0 .8-.7 1.5-1.5 1.5s-1.5-.7-1.5-1.5.7-1.5 1.5-1.5 1.5.7 1.5 1.5zm22-1v6.2c0 .5.6.8 1.2.8.7 0 1.3-.9 1.3-2 0-1.4.8-2.1 2.8-2.3 1.5-.2 2.7-.8 2.7-1.4 0-.6-1.1-.8-2.4-.6-1.8.4-2.6 0-2.9-1.3-.6-2.4 0-2.9 4-2.9 1.8 0 3.3-.5 3.3-1 0-.6-2.2-1-5-1h-5v5.5zm-48.6-3.1c-.3.7-.4 3.5-.2 6.2l.3 4.9 4.3.3c6.2.5 9.6-1.9 8.8-6.1-.3-1.8-1.6-4-2.7-5-2.6-2.1-9.7-2.3-10.5-.3zm8.9 3.7c1.6 2.6.1 4.9-3.2 4.9-3.1 0-4.5-2-3.5-5.2.7-2.3 5.2-2.1 6.7.3zm26.7-2.9c0 1.2-.3 4-.6 6l-.7 3.8h5.1c5.7 0 8-1.7 3-2.2-3.1-.3-3.3-.6-3.8-4.7-.5-4.7-3-7.1-3-2.9zm47.7 1.4c-1.1 1.1.3 2.4 1.8 1.8.8-.4 1.2-1 .9-1.5-.6-1.1-1.8-1.2-2.7-.3zm-221.9 13.7c-.9.6-2.1 2.9-2.8 5-1.4 4.4-2 4.2-4.5-1.3-1.7-3.7-4.5-5.5-4.5-2.8 0 1.5 5 10.1 6.4 11 1.7 1.1 4-1.7 6-7.2s1.8-6.7-.6-4.7zm7.2 5c0 3.7.4 6.7.9 6.7 1.5 0 1.9-10.3.4-12-1.1-1.2-1.3-.4-1.3 5.3zm7.7-5.6c-.4.3-.7 3.2-.7 6.4v5.8l3.4.6c4.2.8 6.8.4 7.4-1.3.2-.8-.9-1.2-3.7-1.2H389v-5.5c0-5.1-.7-6.5-2.3-4.8zm13.3 5.7v6.4l3.9.7c2.6.4 4.8.2 6.3-.7 2.2-1.2 2-1.3-2.4-1.6l-4.8-.3v-5.5c0-4.1-.4-5.4-1.5-5.4-1.2 0-1.5 1.4-1.5 6.4zm14.2-.2.3 6.3h5.8c5.8 0 7.9-1.9 2.2-2.1-1.6 0-3.6-.1-4.2-.2-1.8-.3-1.6-2.2.2-2.2.8 0 1.5-.5 1.5-1 0-.6-.7-1-1.5-1s-1.5-.6-1.5-1.4c0-1.5 2.1-2.6 5.1-2.6 1 0 1.9-.5 1.9-1 0-.6-2.3-1-5-1h-5.1l.3 6.2zm44.4 12.5c-.3.3-.6 3.8-.6 7.6 0 6.1.2 6.8 1.5 5.7 1-.8 1.5-3.1 1.5-7.1 0-5.4-.9-7.7-2.4-6.2zm7.4.8c-.6.8-1 2.2-.8 3.1.3 1.7 1.2 2.3 6.2 4.3 2.6 1.1 2.8 1.4 1.4 2.7-1.2 1.3-2 1.4-3.6.5-2.8-1.5-4.2-1.4-4.2.3 0 2.7 8.9 3.6 11 1.1 2-2.4-.2-6.2-4-7-2.2-.5-3-1.2-2.8-2.3.4-1.7 2-2 5.1-.7 1.2.5 1.7.2 1.7-.8 0-2.9-7.8-3.8-10-1.2zm14.4-.2c-.3.8-.4 4.1-.2 7.3l.3 5.9h5.8c3.3 0 5.6-.4 5.5-1-.2-.6-1.6-1-3.3-1-4.4 0-5.5-1.2-5.5-5.5 0-3.6.2-3.9 3.3-4.2 4.6-.4 3.9-2.2-1.1-2.6-2.9-.2-4.4.1-4.8 1.1zm-51.6 1.3c-5.8 3.1-4.3 11.6 2 12.2 7.5.7 10.4-7.8 4.3-12.5-2.1-1.6-3-1.5-6.3.3zm5.6 3.3c1.5 1.6 1.5 2.2.5 3.9-2.5 4-6.9 3.2-6.9-1.3 0-2.3 1.7-4.5 3.5-4.5.7 0 2 .9 2.9 1.9zm7.9.7c.6 6.2 2.3 8.4 6.3 8.4 3.4 0 4.5-2.3 4.2-8.2-.4-6.7-2.2-6.9-2.6-.3-.2 2.7-.7 5.4-1.2 5.9-1.7 1.7-3.9-1.5-4.2-6.2-.2-2.8-.8-4.7-1.7-5-1.1-.4-1.3.6-.8 5.4zm-104.6-3.9c-1.2 1.1-.7 9.9.6 11.7.9 1.3 2.3 1.7 5.2 1.4 5.1-.4 5.2-2.2.3-2.6-2.5-.2-3.8-.8-3.8-1.8 0-.8.6-1.4 1.3-1.4.6 0 .4-.5-.5-1.1-2.4-1.3-2.3-3.9.1-3.9 2.6 0 5.1-1 5.1-2.1 0-1-7.3-1.2-8.3-.2zm19.3.2c0 1.7 4.9 11.9 6 12.6 1.6 1 3.4-1.2 5.4-6.8 2.5-6.7 1.3-8.3-1.5-2-1.3 2.9-2.6 5.3-3 5.3-.4 0-1.3-1.7-2-3.8-.6-2-1.6-4.3-2.2-5-1.1-1.4-2.7-1.6-2.7-.3zm18.4 2.8c-.8 2.1-1.9 4.6-2.4 5.5-1.3 2.3-1.3 4.8 0 4.8.6 0 1.3-.7 1.6-1.5.4-1 1.4-1.3 2.9-.9 1.3.3 2.6 0 3-.6.4-.7-.1-1.4-1.4-1.7-1.2-.3-2.1-1.3-2.1-2.4 0-3.7 2-2.8 4.5 2.2 1.8 3.4 3 4.8 3.7 4.1 1.3-1.3-4.7-13.2-6.8-13.2-.8 0-2.2 1.7-3 3.7zm13.2-2.8c-.8 1.2.4 12.1 1.3 12.2 4.5.6 8.5.2 8.8-.9.3-.8-.7-1.2-3-1.2-3.9 0-4.7-1.2-4.7-6.5 0-3.4-1.4-5.4-2.4-3.6zm21.4 5.5c0 6.1.2 6.6 2.4 7.2 3.4.8 7.9.1 8.4-1.4.2-.8-.9-1.2-3.7-1.2h-4l-.3-5.2c-.2-3-.8-5.3-1.5-5.6-1-.3-1.3 1.4-1.3 6.2zm-86 10.1c0 1 8.9 6.4 11.6 7 2.1.5 1.4-.2-2.6-2.5-3-1.7-5.9-3.5-6.4-4-1-1-2.6-1.3-2.6-.5zm64.6 7.6c-.4 2.3-.4 8.1-.1 12.8.6 7.8.5 8.4-.9 6.7-.8-1-1.7-2.4-1.9-3-.2-.6-.7-.8-1.1-.4-.4.3 0 2.1 1 4 .9 1.8 2.3 5.3 2.9 7.8l1.3 4.5 1.7-4c.9-2.2 2.5-5.8 3.6-8.1 2.2-4.6 2.3-5.4.9-5.4-.5 0-1.6 1.2-2.3 2.6-2 3.9-2.6 1.9-2.8-9.3-.1-11-1.2-15-2.3-8.2zm87.4 74.9c0 .5.4 1 .9 1s3.1 2 5.9 4.5c5.6 5 7.2 5.7 4.8 2-.9-1.3-1.6-2.6-1.6-2.9 0-.3 5.2 2 11.6 5 6.4 3 12.3 5.3 13.1 4.9 2.2-.8 0-3.1-3.7-3.9-4.2-.8-20-7.8-20-8.8 0-.4.7-.8 1.5-.8s1.5-.5 1.5-1c0-.6-3-1-7-1s-7 .4-7 1zm45.7 16.7c-.3.5-.8 2.9-1.2 5.4-.5 3.5-.3 4.8.9 5.8 1.3 1.1 2.3.7 6.6-2.9 2.7-2.3 5-4.5 5-4.9 0-2.2-1.7-1.8-4.7 1.1-3.6 3.5-5.4 2.9-4.6-1.6.5-2.3-1.1-4.4-2-2.9zm14 10c-5.4 4.4-6.8 7.5-2.6 5.2 1.6-.8 2.5-.7 3.8.5 1 .9 2.2 1.6 2.8 1.6.6 0 1.3.9 1.6 2 1 3.7 2.3 2 3.5-4.2 1-5.4.9-6.4-.5-8-.9-1-1.9-1.8-2.3-1.8-.5 0-3.3 2.1-6.3 4.7zm6.3 2.3c0 1.1-.6 2-1.3 2-1.9 0-2.7-1-2-2.6.8-2.1 3.3-1.7 3.3.6zm9.5 4.5c-1.3 3.1-2.5 5.9-2.6 6.3-.2.8 7.9 5 9.9 5.1 2.4.2 1.1-2.7-1.8-3.9-4.2-1.7-4.4-2.4-2-6.9 2.4-4.8 2.5-6.1.5-6.1-.9 0-2.6 2.3-4 5.5zm26.6 12.4c-1.7 3.2-2.7 6.2-2.3 6.6.9.8 7.1 3.5 8.3 3.5 1.9 0 .8-2.1-1.6-3.2-3.1-1.4-3.2-3.7-.4-7.2 2-2.6 2-5.6-.1-5.6-.5 0-2.3 2.6-3.9 5.9zm12.9 4.3c-3.2 5.3-2.2 8.8 3.1 10.7 2.7.9 3.5.8 5-.6 1-1 2.5-2.4 3.4-3.1 2.6-2.2 1.8-5.8-1.9-8.1-4.8-3-7.3-2.7-9.6 1.1zm9.3 2c1.3 3.6-3.7 8-6.2 5.5-1.5-1.5-1.4-5.4.2-6 2.3-1 5.5-.7 6 .5zm7.3 5.8c-2.2 5.4-2 7.6.6 9.4 3.8 2.7 7.4 2 9.7-1.7 1.1-1.9 2.2-4.4 2.3-5.7.5-4.1-2-3.2-4.1 1.4-2 4.5-4.2 5.8-5.8 3.3-1-1.6-.5-4.5 1.3-7.2.8-1.2 1.1-2.5.7-2.8-1.5-1.6-3.2-.4-4.7 3.3zm18.8 3.2c-1.5 2.3-5.4 11-5.4 11.9 0 .5.7.9 1.5.9s1.5-.7 1.5-1.6c0-.8 1.2-3.6 2.6-6 1.8-3.1 2.3-4.9 1.6-5.6-.6-.6-1.2-.5-1.8.4zm7.2 5.5c-.4.9.4 3.2 2 5.6 1.6 2.4 2.2 4.3 1.7 4.8-1.4 1.4-4.3-.1-5.4-2.7-1-2.7-2.9-3.2-2.9-.8 0 2.4 5.9 7.4 8.6 7.4 1.6 0 2.8-.8 3.6-2.5 1-2.2.8-2.9-1.5-5.3-1.5-1.6-2.7-3.3-2.7-4 0-2 3.8-1.4 5 .8 1.3 2.4 3 2.6 3 .5 0-1.9-5.7-5.5-8.6-5.5-1.2 0-2.5.7-2.8 1.7zm14.4 9c-3.7 8.4-3.7 8.9.9 11.2 5 2.6 7.4 2.7 6.9.4-.2-1-1.8-2.1-3.6-2.7-3.5-1-4.4-3.6-1.3-3.6 2.5 0 3.6-1.6 1.6-2.4-.8-.3-1.5-1-1.5-1.6 0-.8 1.5-.9 4.5-.4 2.5.3 4.5.2 4.5-.3 0-.7-8.1-5.3-9.5-5.3-.2 0-1.3 2.1-2.5 4.7zm22.6 15.2c-.3.4 4.6 3.4 11 6.5 11 5.5 13.2 7.6 7.8 7.6-1.4 0-2.2.4-1.9 1 .3.5 2.3 1 4.3 1s5.4.5 7.6 1.1c4.6 1.3 7.2-.2 3.7-2.1-1.2-.6-3.8-3.6-5.7-6.6-3.2-5-5.4-6.8-5.4-4.4 0 .6.7 2.2 1.6 3.5 2.4 3.7.5 3.1-10.1-3-9.5-5.4-11.9-6.3-12.9-4.6z"/>
</svg>
