<?xml version="1.0" encoding="utf-8"?>
<svg xmlns="http://www.w3.org/2000/svg" viewBox="0 0 439 324">
	<path d="M329.67 2.202c-2.4 1.8-4.1 2.2-10.7 2.2-6.7 0-8.2.3-10.2 2.2-1.3 1.2-4.5 2.8-7.2 3.5-3.9 1-5.4 2.1-7.3 5-1.3 2.1-2.9 3.8-3.7 3.8-2.4 0-14.1 9.7-16.1 13.4-1.8 3.4-2.3 3.6-6.6 3.6-8.7 0-16.7 5-15.6 9.8.3 1.3.7 1.1 1.7-1.1 2.7-5.6 18.5-9.4 19.7-4.7.8 2.9 2 2.5 2.8-1 .4-1.7 1.1-3 1.6-3 .6 0 .7-.9.4-2.1-.5-1.4 0-2.8 1.7-4.6 2.6-2.8 12-9.3 13.5-9.3.5 0 1.9-1.8 3.1-3.9 1.8-3.2 2.9-4 6.2-4.6 2.2-.4 5.6-2 7.6-3.6 4.2-3.3 3.8-3.3 8-1.7 4 1.4 9.5 0 13.9-3.6 3.8-3.2 1.2-3.4-2.8-.3zm-1.4 17.4c1.5.2 3.9.2 5.5 0 1.5-.2.2-.4-2.8-.4s-4.3.2-2.7.4zm-8.5 2.2c-.9 1.1-1.4 2.2-1.1 2.4.9.9 5.3-1.6 5.3-3 0-1.9-2.3-1.6-4.2.6zm-14.8 2.6c0 .9.6 1.2 1.5.9.8-.4 3.7 1 6.5 3 2.7 2 6 3.5 7.2 3.5 1.3 0 3.4.2 4.8.6 2.4.6 2.3.5-.3-1-1.6-.9-3.1-1.4-3.5-1.1-.3.3-1.9-.5-3.6-1.8-6.7-5.1-12.6-7-12.6-4.1zm0 5.8c0 .8.7 1.7 1.5 2.1.8.3 1.5.2 1.5-.3s-.7-1.4-1.5-2.1c-1.2-1-1.5-1-1.5.3zm8.1 5.2c2.1 3.6 3.9 4.6 3.9 2.2 0-1.4-4-5.7-5.3-5.7-.3 0 .3 1.6 1.4 3.5zm9.2 3.2c-1.3 1.4-2.3 3.7-2.3 5 0 1.3-.6 2.3-1.4 2.3-.9 0-1.6 1.2-1.8 2.7-.2 2.2-.9 2.9-3 3.1-1.6.2-2.8-.1-2.8-.6 0-.6-1.2-1.3-2.6-1.6-1.5-.4-4.8-2.7-7.3-5.1-3.2-3.1-4.9-4.1-5.6-3.3-.7.7-.7 1.2.1 1.4.5.3 3 2.3 5.5 4.5 2.4 2.2 5.6 4.3 7.1 4.6 2.5.5 4.8 4.4 2.9 5.1-.5.2-.2 1.7.6 3.3.8 1.7 1.2 3.3.9 3.6-.6.7-7.6-3.9-10.1-6.7-1.5-1.7-1.5-1.8 1.9-1.6 2 .1 3.6-.2 3.6-.6 0-1.2-4.1-3-5.6-2.4-.7.3-2.1-.5-3-1.7l-1.6-2.2.6 2.7c.8 3.3.1 3.4-4.1.8-1.8-1-3.5-1.5-3.8-1.1-.3.5-1.8.4-3.5-.2-3.3-1.3-4.6-.6-3.6 2 .6 1.4.9 1.5 1.6.3.7-1.1 1.9-.5 5.9 2.5 2.8 2.2 5.1 4.3 5.1 4.7 0 1.2-3.4 1-4.7-.3-2.7-2.7-9.6-5.9-14.3-6.6-1.9-.3-4.4-1.4-5.5-2.4-2.8-2.5-7.5-3.6-7.5-1.7 0 1.8 4.1 5.8 6.1 5.8.8 0 2.3.7 3.3 1.5 1.5 1.1 2.3 1.2 3.3.3 1-.8 1.7-.8 2.6.1.9.9.9 1.4-.2 2-1.6 1-.6 3.1 1.5 3.1.8 0 1.2-.5.9-1-1.1-1.8 1.1-1.1 2.9.9 1.7 1.9 1.7 2-1.1 2.4-2.3.3-2.2.4 1 .6 2.2 0 4 .7 4.3 1.5.3.8 1.2 1.2 1.9 1 .7-.3 1.6-.1 2 .5.3.6-.2 1.1-1.2 1.2-1.6 0-1.6.1.2.9 1.1.5 1.4.9.8.9-.7.1-1.3.6-1.3 1.2s.7.9 1.5.5c.9-.3 1.5 0 1.5 1 0 .8.7 2.9 1.6 4.5 1.5 3 1.6 3 3.5 1.3 1.4-1.2 1.8-2.5 1.4-4.2-.8-3.4.4-4.6 2.6-2.6 2.3 2.1 2.4 3.4.4 3.4-2.1 0-1.9 1.7.5 3s2.6 3 .3 3c-1.3 0-1.4.3-.5 1.2 1.3 1.3 1.6 6.6.6 9.2-.3.8-1.2 1.2-2 .9-1.6-.6-2 2.2-.4 3.2.6.3 1 .1 1-.4 0-1.8 1.9-1.2 3.1 1 .9 1.8.8 2-.9 1.5-2.5-.8-4.5 1.4-3.1 3.4.8 1.2 1.2 1.2 1.6.2.7-1.7 2.3-.5 2.3 1.9 0 1.1.5 1.7 1 1.4.6-.3 1-1.8 1-3.3 0-2.3.2-2.5 1.5-1.2.8.9 1.7 3 2.1 4.8.5 2.6.3 3.2-1 3.2-1.4 0-1.5 1.1-1 8.7.4 4.9.9 9 1.2 9.3.2.3.2-3.4-.1-8.2l-.5-8.8 2.5.6c2.4.6 2.4.5 1.7-3.2-.3-2.2-1.3-4.6-2-5.5-.8-.8-1.4-2.1-1.4-2.8 0-.6-1.1-1.6-2.4-2.1-2.3-.8-2.4-1.2-1.9-7.7.3-3.7.9-7.2 1.3-7.7 1.1-1.2 2.7 0 3.3 2.5.4 1.5.2 1.9-.9 1.5-1.8-.7-1.8-.3.7 4.5 2.2 4.4 1.8 6.5-.6 3.3-1.3-1.8-1.4-1.8-.8.3.3 1.2 1.1 2.8 1.9 3.4.8.6 1.4 1.7 1.4 2.4 0 1.8 2.7 3.8 3.4 2.6.4-.5.2-1.2-.4-1.6-.6-.4-.7-1.1-.4-1.7.4-.6 1-.5 1.5.3.6 1 .9.5.9-1.4 0-1.6-.4-2.6-.9-2.3-.5.3-1.1-.1-1.5-.9-.3-.8-.1-1.5.4-1.5.6 0 1-1.6 1-3.5 0-3.6 1.5-4.8 2.3-1.8.4 1.4.5 1.2.6-.5l.1-2.2 2.1 2.1c1.8 1.8 2.1 3 1.7 7.5-.3 3-.1 5.4.4 5.4.9 0 1.1-1.2.8-5.4-.3-4.8 3.4-10.1 4.2-5.9.3 1.5.4 1.5 2.1-.1.9-1 1.5-2.2 1.1-2.7-.3-.6 0-1.6.6-2.4 1-1.2 1.9-.9 5.6 1.8 3.3 2.4 4.5 4.1 4.9 6.7.3 1.9 1 5.7 1.5 8.5.7 4.3.6 5.3-1 6.9-1.7 1.8-1.8 1.7-2.5-2.2-.4-2.5-.2-4.7.6-6 .7-1.2.9-2.7.4-3.8-.7-1.8-.8-1.8-1.2-.2-.3 1-.7 1.8-1 1.8-.3 0-1.2-.8-1.9-1.8-1.1-1.4-1-1.9.7-3.2 1.9-1.5 1.9-1.6-1.5-4.9l-3.4-3.3-.5 5.3c-.6 7.6-.5 12.9.4 12.9 1.2 0 2-3.5 1.3-5.4-.7-1.9.9-2.2 2.3-.4.6.7 1.3 2.9 1.6 4.8.3 1.9.8 4.6 1.1 5.8.4 2.1-2 7.1-4.5 9.2-.3.3-1.1 1.4-1.6 2.5-.9 1.6-1.2 1-1.8-3.8-.7-5.1-2.7-10-3.7-8.7-.2.3-.2 3 .1 6l.5 5.5.6-4c.5-2.9.6-1.8.6 3.7 0 7.5-.7 9.6-2 6.2-.3-.9-.6-2.4-.6-3.5 0-1-.4-1.9-.9-1.9s-.7 1.8-.4 3.9c.4 3.1.1 4.4-1.6 6.2-1.1 1.2-2.3 2.1-2.5 1.8-.2-.2-.8-2.9-1.4-5.9l-1-5.5.1 7c.1 3.8.5 7.6 1 8.2 1.6 2.2-1.8 2.5-8.2.7-3.4-.9-6.1-2-6.1-2.4 0-.4-1.2-1.3-2.7-1.9-3.6-1.6-12.2-9.1-10.4-9.1 3.3 0-12.3-12.3-22.6-17.8-2.8-1.5-6.5-3.9-8.2-5.5-1.7-1.5-4.1-2.7-5.4-2.7-1.3 0-2.9-.6-3.5-1.2-.9-.9-1.5-1-2-.2-.4.6-1.7 1.4-2.9 1.8-1.3.4-2.3 1.3-2.3 2s-.9 2.1-2 3.1c-1.7 1.6-2 1.6-2.6.2-.3-.9-1.1-1.4-1.8-1.1-.7.3-2.9-.7-5-2.1-2-1.4-4.5-2.5-5.6-2.5-1 0-2-.4-2.2-.9-.1-.4-4.1-2.4-8.6-4.4l-8.4-3.6-2.4 2.4c-1.4 1.4-2.9 2.5-3.3 2.5-1.5 0-4.1-3.7-4.1-5.8 0-3 3.5-3.7 8.9-1.7 5.4 1.9 6.4 1.4 1.7-.9-5.7-2.7-10.2-2.1-14.3 1.9-1.9 1.8-4 3.6-4.7 3.8-.7.3-.6 1 .6 2.2 1.5 1.6 1.7 1.6 2.7-.4 1.3-2.4 4.6-2.8 5.4-.7.3.7 3.7 2.6 7.6 4.1 3.9 1.5 7.3 3.1 7.7 3.6.7 1.2 3.4 1.2 3.4 0 0-.5-1.7-1.6-3.7-2.4-2.7-1.1-3.2-1.6-1.7-1.6 1.2-.1 3.6 1 5.5 2.4 3.2 2.3 7.9 5 19.7 11.5 5.5 2.9 9.5 6 8.8 6.7-.6.7-13-3.8-14.6-5.2-1.7-1.6-12.5-6.5-14.1-6.5-.5 0 2.3 3.1 6.2 7 7.7 7.4 9.3 8.6 6 4.3-3.4-4.2-1.6-3.8 3.2.9 2.5 2.4 5.9 5.1 7.5 6.1 2.8 1.5 3.2 1.6 4.6.2 1.4-1.4 1.8-1.4 4.2.2 2 1.3 2.9 1.4 3.2.5.5-1.7 2.9-1.5 3.6.3.3.8 1.2 1.5 2 1.5.9 0 2 .8 2.5 1.9.6 1 2.4 2.4 4.2 3.1 3.1 1.3 3.1 1.5 2.5 6.4-.3 2.7-1.3 5.7-2.1 6.5-1.5 1.5-1.5 1.1-1-3.6.3-2.8.2-5.4-.3-5.7-.5-.3-1.2 1.6-1.5 4.2-.3 2.6-1.1 9-1.7 14.2-.6 5.2-.9 10.7-.6 12.2.9 4.7-1.7 3.4-5.5-2.7-1.9-3.2-2.4-5.4-2.5-11.5-.2-10.8-.9-17.1-2.5-20.5l-1.3-3-.4 4.3c-.2 2.3-.7 4-1.3 3.7-.6-.4-.7 2.7-.4 8.2.2 4.8.2 7.9-.1 6.8-1.3-4.4-2.7-4-2 .5.4 2.5.9 6.5 1.1 9 .2 2.4.8 5.3 1.3 6.5 4.5 9.5 6.2 16.5 4.2 16.5-.5 0-1-.8-1-1.9 0-1-.7-3.2-1.5-4.7-.8-1.6-1.5-3.7-1.5-4.6 0-2.3-4.3-9.4-4.8-8-.2.7 1.1 4.3 2.8 8.1 3 6.5 3.4 11.1 1 11.1-1.3 0-4-3-4-4.5 0-1.7-5.2-9.7-5.9-9-.2.3.1 1.1.7 1.7.7.7 1.2 1.8 1.2 2.6s.9 2.7 2.1 4.3c2.5 3.6 1.1 3.7-4.1.4-2.2-1.4-4.3-2.5-4.7-2.5-.3 0-1.5-.7-2.5-1.7-1.6-1.4-1.8-1.4-1.8 0 0 .8.6 1.7 1.3 2 .6.2.8.8.4 1.3-.5.5-1.4.1-2.2-.9-.8-1.1-1.9-1.5-3.1-1.1-1.4.4-1.5.3-.6-.4 1-.7.5-1.6-2.3-4-2-1.8-3.8-3.2-4-3.2-.3 0-.5 1.1-.5 2.5 0 1.7.7 2.9 2.3 3.5 1.2.5 1.7.9 1 .9-1.2.1-13.7-6.3-20.3-10.4-6.2-3.8-6.6-3.9-3.6-.7 1.7 1.8 3.5 3.2 4.2 3.2.7 0 1.4.3 1.6.7.4 1 15.5 8.9 18.8 9.8 7.1 2.1 23.9 10 25.2 11.9.4.7 2.1.2 4.8-1.3 3-1.7 4.8-2.1 7.2-1.6 4.7 1.1 18.8 12.9 18.8 15.8 0 .5-1.3-.1-2.9-1.3-4.5-3.1-15.8-8.2-17.7-7.8-.9.2 1.3 1.8 5.2 3.8 6 3.1 6.6 3.5 4.2 3.8-1.8.2-4.7-1-8.9-3.7-3.4-2.2-7.8-4.6-9.8-5.2-2-.6-4-1.5-4.6-1.9-.5-.5-3.4-1.5-6.4-2.4-2.9-.9-6-2.1-6.7-2.7-1.7-1.4-2.9 1-2.1 4.1.7 2.7-.1 2.5-5.6-1-6.8-4.3-9.6-5.6-15.6-7.4-5.2-1.5-5.3-1.5-3.7.3.9 1 3.8 2.5 6.5 3.4 6.1 1.9 13.6 6.7 13.6 8.6 0 .8.6 1.6 1.3 1.9.8.2 1-.2.5-1.3-.5-1.5-.3-1.6 1.5-.6 2.4 1.3 2.9 3.1 1 3.1-2.2 0 1.5 2.8 4.2 3.2 1.4.2 2.8 1 3.2 1.8.5 1.1.7.9.7-.7.1-1.3-.7-2.4-1.9-2.8-1.8-.6-2.9-2.5-1.4-2.5s4.4 2.2 4.4 3.5c0 .7.9 1.7 2 2 1.1.3 2 1 2 1.4 0 .4.9 1.8 2 3.1 2.6 3 2.7 7 .1 7-1.1 0-2.3-.4-2.6-1-.4-.6-1.3-.5-2.5.2-2.5 1.6-3.8.3-2.2-2.2.6-1 .8-2.1.3-2.4-1.2-.8-2.1.4-2.1 2.6s-.8 2.3-2.9.4c-.9-.7-4.3-2.8-7.5-4.5-3.3-1.7-6.6-4-7.3-5.1-1.5-2.1-3.3-2.7-3.3-1.1 0 1.4 8 9 16 15.1 4.2 3.2 8.2 6.5 8.9 7.4 1.3 1.5 1.6 1.4 4.1-1.5l2.8-3.1 3.3 3.7c1.8 2 6.8 5.7 11 8.2 4.2 2.5 8.9 5.6 10.3 6.9 1.4 1.3 2.7 2.4 3 2.4.2 0 1.9 1.4 3.7 3 4.4 4.2 16 11 18.7 11 1.2 0 5.3 2.2 9 4.8 3.7 2.7 8.7 5.9 11.2 7.1 2.5 1.3 5.6 3.3 7 4.5 4.5 4 10.1 7.8 10.7 7.3.7-.8-9.5-10.5-12.8-12.3-3.6-1.8-14.3-12.8-13-13.2.6-.2 3.9 2.7 7.5 6.5 3.6 3.7 6.8 6.4 7.3 6 1-1.1-14.5-16-15.7-15.2-.6.4-1 .1-1-.4 0-.6-.9-1.1-1.9-1.1-1 0-2.2-.8-2.6-1.8-.5-1.4-.4-1.5.6-.4.7.6 2.3 1.2 3.6 1.2 1.2 0 4.3 1.9 7 4.4 6.8 6.3 10.3 8.9 10.3 7.8 0-.6-2.3-3.1-5.1-5.5l-5.2-4.5 4.4.5c3.3.4 4.1.3 3.3-.6-.6-.6-2.1-1.4-3.5-1.6-6.6-1.3-8.5-1.8-9.1-2.9-1.2-1.8-.9-3.6.6-3.6.8 0 1.3-.7 1.2-1.6 0-.9.5-1.9 1.3-2.2 1.1-.4 1.3.4.7 3.7-.7 4.7-.4 4.9 2.6 2.1 2.3-2.1 6.3-2.7 7.3-1 .3.5 1.3 1 2.2 1 .8 0 2.7.8 4.1 1.8 3.6 2.5 7.2 3.8 5.5 2.1-.7-.7-1.3-1.7-1.3-2.1 0-1.6 2.7-.8 4.6 1.3 1.9 2.1 9.5 5.9 11.7 5.9.7-.1.1-1-1.2-2.1s-3-1.8-3.8-1.5c-.7.3-1.3.1-1.3-.3 0-1-9.5-8.1-10.8-8.1-.5 0-1.7-.9-2.7-2-1.1-1.2-4.1-3.3-6.7-4.7-4.9-2.6-6.1-4.3-3.2-4.3 1.7 0 1.5-3.1-1.3-17.4-2.9-15.3-2.5-37.6.8-37.6 1.3 0 1.1-1.5-.8-5.9-1.9-4.3-5.1-6.1-5.9-3.3-1.7 5.3-2.1 5-1.7-1.3.5-6.2.3-7.2-1.6-8.9-1.8-1.7-2.9-4.6-1.7-4.6 1.8 0 9.6 10 9.6 12.2 0 .6 3.5 4.6 7.8 8.8 6.1 6 8.3 7.6 10.6 7.6 2.6-.1 3.1.4 4.4 4.2 1.3 4 1.3 4.6-.2 6-1.5 1.5-1.6 1.2-1.6-3.5 0-2.9-.4-5.5-1-5.8-1.5-.9-.7 10.8.8 12.4 1.1 1.2 1.6 1 3-1 2.6-3.6 3.2-6.7 1.6-7.3-.8-.3-1.4-1.4-1.4-2.5s-.7-2.7-1.6-3.6c-1-1-1.3-2-.7-2.6 1.4-1.4 11.5 14.8 12.3 19.9.1.4.4.9.7 1.2 1.2 1-.7-6.1-2.7-10.2-1.1-2.3-2-4.6-2-5.1s-1.1-2-2.5-3.3c-1.4-1.3-2.5-2.8-2.5-3.5 0-.7.8-.5 2 .6 3.2 2.9 2.4-.2-1-4.2-1.6-1.8-3-3.8-3-4.3 0-.6-.7-1-1.5-1-2.1 0-1.9.7 1 3.8 1.4 1.5 2 2.9 1.4 3.1-1 .3-2.5-1.3-9.1-9.4-.9-1.1-1.9-1.7-2.2-1.4-.6.5 1.9 4 7 10.3 1.2 1.4 1.3 2.1.4 3-.9.8-1.4.8-1.7-.1-.2-.7-1-1-1.7-.7-.8.3-2-1-3-3.3-3.8-8.5-7.5-13.7-11-15.5-3.9-2-6.7-5.8-4.3-5.8 2.3 0 17 7.9 18.9 10 .9 1.1 2 2 2.5 2s2.8.9 5.1 2c2.2 1.1 4.8 2 5.7 2 .9 0 1.9.8 2.2 1.7 1.2 3.1 6.4 10.3 7.4 10.3.6 0 .1-1.3-1-2.9-2.3-3.2-2.6-4.1-1.1-4.1.7 0 5 7.3 5 8.6 0 .1-1-.1-2.3-.4-2.9-.9-8.1-5.1-9.6-8-.6-1.2-1.7-2.2-2.3-2.2-.6 0-.4 1 .6 2.5 2.9 4.4 7.5 8.5 9.6 8.5 2.3 0 2.6.7 3.3 6.7.5 4.6-.8 5.8-2.3 2-.8-2-.9-1.9-.9 1-.1 3.3-2.1 4.8-2.1 1.5 0-.9-.9-3.5-2-5.7-1.3-2.5-1.8-3.1-1.5-1.5 1.8 7.8 3.1 12 3.8 12 1 0-.2 9.1-1.4 10.4-.4.5-.6-.8-.2-3 .9-6.3-.3-3.6-2.6 5.5-2.5 10.2-2.6 12.7-.1 5.1 1-3 2.3-5.4 2.8-5.3.6.2 1.3-.5 1.6-1.5.4-1.5 2.6-13 2.6-13.9 0-.2 1.2 0 2.7.3 2.5.7 2.6.6 2-3.2-.3-2.1-.8-4.7-1.2-5.7-.5-1.2-.2-1.7.9-1.7 1.3 0 1.5-.4.6-1.9-1.5-3-1.2-5 .5-2.7 1 1.3 1.2 3.3.8 6.7-.7 6.3 1.2 6.6 2.1.4.5-3.1 1.2-4.5 2.3-4.5 1 0 1.3-.6.9-1.6-.6-1.5-.4-1.5 1.1-.3 1 .7 3 2.7 4.5 4.3 1.6 1.6 3 2.7 3.3 2.5 1-1.1-1.6-7.2-4.5-10.6-1.7-1.9-4.1-5.5-5.3-7.9-1.1-2.4-2.5-4.4-2.9-4.4-1.3 0-1 .8 2.2 6.7 1.7 3 3 5.7 3 6.1 0 1-4.4-4.4-8.6-10.7-2-2.9-5-6.6-6.7-8.2-1.7-1.6-2.7-3.2-2.4-3.5.3-.3 2.8 1.5 5.6 4.1 3.2 3 5.1 4.2 5.1 3.3 0-.9.9-1.8 2-2.1 1.1-.3 2-1.3 2-2.2 0-2.2 1.7-1 3.6 2.6 1.5 3 1.5 3-.8 1.8-1.4-.7-.6.5 2 3.1 4.7 4.6 6.5 4.9 3.1.6-1.2-1.5-1.8-3-1.4-3.4.4-.4 1.5.3 2.5 1.5 1.9 2.4 3 2.9 3 1.4 0-.4-1.8-2.1-3.9-3.6-3.4-2.3-3.8-3-2.8-4.5 1-1.8 1.2-1.7 2.8.8 2.6 4.1 5.9 6.6 7.2 5.3.8-.8.8-1.1-.1-1.1-.7 0-1.9-1.5-2.7-3.3-1-2.2-1.4-2.6-1.5-1.2 0 1.4-.3 1.6-1.2.7-.6-.6-1.1-2.5-1-4.2 0-2.4-.6-3.3-2.9-4.5-2.8-1.5-3.9-3.5-1.9-3.5.6 0 1 .4 1 1 0 .5.7 1 1.5 1s1.5.4 1.5.8 1.3 1.3 2.9 1.9c2.4.9 2.9.8 2.4-.3-.3-.8.1-1.4 1.1-1.4 1.3 0 1.2-.5-.5-3.5-1.2-2-1.6-3.5-1-3.5 2.3 0 1-1.9-1.6-2.2-1.4-.2-2.8-.8-3-1.3-.5-1.6 3.9-1.6 5.7-.1 1.8 1.6 5 2.8 5 1.9 0-1.2-8.4-8.3-9.9-8.3-1.2 0-1.2.3-.3 1.2 2.5 2.5 1 2.6-5 .2-3.4-1.3-6.8-2.4-7.5-2.4-.7 0-2.7-1.3-4.4-2.8-2.6-2.3-3.1-3.4-2.5-5.5.4-1.8 1.1-2.4 2.1-2.1 2.1.9 1.9-.5-.5-2.4-1.1-1-2.3-3.3-2.7-5.2-.6-3.2-.5-3.4 1-2.2 1.4 1.2 1.9 1.2 3.2-.1.8-.9 1.5-2 1.5-2.6 0-.6.7-.8 1.5-.5 2.1.9 1.9 3.4-.3 3.4-2.6 0-3.4 1.1-2.1 2.7 1.5 1.8 3.9 1.7 3.9-.2 0-.8.7-1.5 1.5-1.5s1.5-.7 1.5-1.5v-2c0-.3-.3-.5-.7-.6-.5 0-1.2-.7-1.6-1.4-.6-1.1-1.4-1.2-3.2-.5-2.3.9-2.5.7-2.5-2.1 0-2.6.2-2.8 1.8-2 1 .5 2.4 1.7 3.2 2.6.9 1.1 1.6 1.2 2.6.4 2.1-1.7 7-.7 6.6 1.3-.2 1 .2 1.8.8 1.8.5 0 1 .7 1 1.5s.5 1.5 1 1.5c.7 0 .7-.7 0-2.1-1.5-2.7-.9-3.2 1.6-1.5 1.3 1 1.8 2.5 1.6 5.3-.2 3.6-.1 3.7 1 1.3l1.4-2.8c.1-.2 2.1.6 4.4 1.8 5.6 2.9 7.6 2 2.3-1.1-4.1-2.3-6.3-4.9-4.3-4.9.6 0 3.3 1.6 6 3.5 5.6 4 6 4.1 6 2 0-1.3.4-1.4 2.1-.5 1.1.7 2.8.9 3.6.5.9-.3 5.1 1.2 9.5 3.6 8.3 4.3 11.7 4.8 5.1.8-2.1-1.2-10.3-6.4-18.3-11.4-8-5.1-15.3-9.5-16.2-9.8-1-.4-1.8-1.1-1.8-1.7 0-.5-.4-1-1-1-1.6 0-1.2 1.8.9 3.9 1.6 1.6 1.7 2.2.6 3.1-1 .9-2 .7-4.1-.7-2.2-1.4-2.5-1.9-1.1-2.1 2.3-.5 2.1-1.9-.4-3.3-1.6-.8-2.3-.8-2.9.1-.5.8-2.8-.2-7.6-3.6-3.8-2.6-7.2-5.2-7.6-5.8-1-1.6 3.1-4.1 4.5-2.7.6.6 1.8 1.1 2.7 1.1.9 0 3.4.9 5.5 2 2.4 1.2 5 1.8 6.5 1.5 3.3-.7 7.2 2 5 3.4-.8.6-1.2 1.3-.8 1.6.7.7 5-1.4 10.4-5 2.1-1.4 6.4-3.7 9.6-5.2 3.6-1.6 5.5-3 5-3.5-.9-.9-10.7 3.6-17.3 7.8-2.5 1.6-2.8 1.6-6-.9-3.6-2.7-19.1-9.7-21.5-9.7-.8 0-2.9-.7-4.7-1.6-2-1.1-3.2-1.3-3.5-.6-.2.6-2.7 1.6-5.5 2.4l-5.2 1.3 5 .5c4.7.5 5.1.7 6.2 4.3.7 2 2.8 5.1 4.8 6.8 1.9 1.7 3.5 3.7 3.5 4.5 0 .8 2.3 3 5 5 2.8 2 5 3.7 5 3.9 0 .8-6.6-1.9-8.5-3.4-3.8-3-23.1-12.1-25.8-12.1-1.9 0-12.5-6.9-15.1-9.9-2.5-2.8-1.6-3.5 2-1.6 1.6.8 4.1 1.5 5.5 1.5 1.5 0 3.2.7 3.9 1.5.7.8 1.7 1.5 2.2 1.5.6 0 1.9 1.1 2.9 2.4 1.1 1.4 3.2 2.7 4.8 3.1 1.6.3 5.5 2.2 8.6 4.1 5.8 3.4 7.5 4 7.5 2.6 0-1.2-10.6-7.2-12.8-7.2-1 0-4.2-2.2-7-4.8-4-3.8-6.3-5.1-10.6-6.1-3-.7-6-1.9-6.6-2.7-1.4-1.6-3.5-2-2.5-.4.3.5 0 1-.8 1-.7 0-1.9-1.1-2.5-2.5-1.7-3.8-1.5-5 .6-3.2 2.3 2.1 4.6 2.2 3.8.2-.6-1.7.9-2.1 1.9-.5.4.6 2.5 2 4.8 3.1 2.3 1.2 4.5 2.6 4.8 3.1.8 1.3 6.1-.2 5.6-1.6-.2-.6-1.2-1.3-2.2-1.4-1-.3-1.5 0-1.1.7 1.3 2-1.3 1.1-5.9-2.1-2.5-1.7-4.5-3.8-4.5-4.5 0-1.9 1.1-1.5 5 1.7 4.6 4 6 3.8 2.1-.2-3.4-3.4-3.8-5.3-1.7-8.1 1.6-2.1 2.6-2.2 2.6-.2 0 .9.6 1.2 1.6.8 1.7-.6 5.2 2.5 7.4 6.7 1.1 2 1.4 2.1 2.1.7.7-1.1.2-2.3-1.7-4.4-1.5-1.5-3.8-4.5-5.2-6.7-1.4-2.1-3.7-4.2-5-4.7-1.3-.5-2.6-1.8-2.9-2.9-.7-2.6-1.3-2.5-4 .7zm4.2 6.9c0 1.9-.3 3.4-.7 3.4-.5 0-.8-.5-.8-1 0-.6-.6-1-1.4-1-3.2 0-2.9-4.5.2-5.3 2.4-.5 2.7 0 2.7 3.9zm5.9.5c-.3.5-1 .7-1.5.3-.5-.3-.7-1-.3-1.5.3-.5 1-.7 1.5-.3.5.3.7 1 .3 1.5zm-11.2 4.4c-.2.9-1.5 2.9-2.9 4.3-2 2-2.7 2.2-3.4 1.1-1.3-2-1.1-3.5.3-2.1 1.7 1.7 4.8-1.3 4-4-.3-1.5-.1-1.9.9-1.6.8.3 1.3 1.3 1.1 2.3zm3.3-.5c.3.5.1 1-.4 1-.6 0-1.1-.5-1.1-1 0-.6.2-1 .4-1 .3 0 .8.4 1.1 1zm-25 7.5c2.2 1.8 1.5 1.7-2.7-.4-1.6-.8-2.8-1.8-2.8-2.3 0-1 2.5.2 5.5 2.7zm-14 1c1.9 1.5 2.4 2.4 1.5 2.4-1.5 0-6-3.2-6-4.3 0-1.2 1.6-.5 4.5 1.9zm18.7 3.8c.7.7 3.6 2.6 6.5 4.1 5.9 3.3 7.5 5.6 3.8 5.6-2.7 0-7.5-1.9-7.5-3 0-.6-4.4-3-5.6-3-.3 0-.2.4.1 1 .3.5.1 1-.5 1-1.3 0-3.2-4.8-2.4-6.1.8-1.3 4.1-1.1 5.6.4zm-10.2 1.8c0 .4-.7.6-1.5.3-.8-.4-1.5-1-1.5-1.5 0-.4.7-.6 1.5-.3.8.4 1.5 1 1.5 1.5zm3.3 4.1c1.2 1 1.5 2.3 1 5.5-.7 5.3-1.8 5.6-2 .6 0-2.1-.6-3.9-1.2-4.1-1.3-.4-1.5-3.2-.3-3.2.5 0 1.6.6 2.5 1.2zm59.7.8c.8.5 1.1 1 .5 1-.5 0-1.7-.5-2.5-1s-1-1-.5-1c.6 0 1.7.5 2.5 1zm6.5 3c.3.5.2 1-.4 1-.5 0-1.3-.5-1.6-1-.3-.6-.2-1 .4-1 .5 0 1.3.4 1.6 1zm-42.4 2c1.5 1.2 2.6 2.7 2.3 3.4-.3.7.7 1.8 2.2 2.5 2.3 1 2.6 1 2.1-.4-.7-1.8.4-2 2-.4s-.4 5.6-3.1 6.3c-1.4.4-2.6-.1-3.7-1.3-1.5-1.8-1.7-1.8-3.2-.3-.9.9-2 1.2-2.4.8-.4-.4-.2-1 .4-1.4.8-.5.1-1.7-2.2-3.7-1.9-1.5-3.5-3.4-3.5-4.1 0-1 3-2.7 5.8-3.3.2-.1 1.7.8 3.3 1.9zm-7.8 6.2c.9 1.1 1.7 2.8 1.7 3.7 0 1.1-.9.6-2.8-1.7-1.5-1.7-3.3-3.2-4-3.2-.7 0-1.2-.5-1.2-1.1 0-1.6 4.2 0 6.3 2.3zm27.3 2.3c1.6 1.2 1.6 1.4.3 1.5-.9 0-2.2-.7-2.9-1.5-1.6-1.9 0-1.9 2.6 0zm23.4 4.5c.8.5 1.1 1 .5 1-.5 0-1.7-.5-2.5-1s-1-1-.5-1c.6 0 1.7.5 2.5 1zm-26.3 2.5c.9 2.5-.4 2.9-1.7.6-.7-1.5-.7-2.1 0-2.1.6 0 1.3.7 1.7 1.5zm10.8 4.3c.4 1.5 1.3 4.1 2.2 5.9 1.1 2.4 1.2 3.6.4 5.2-.7 1.3-.8 2.2-.1 2.6.5.3 1 1.2.9 1.8 0 .9-.2.9-.6-.1-.2-.6-1.1-1.2-2-1.2-1.2 0-1.3-.8-.8-3.9.5-2.9.1-4.9-1.4-8-2.5-4.8-2.8-8-.7-6.2.8.7 1.7 2.4 2.1 3.9zm5-2.8c.8 1.2-.5 6-1.6 6-.5 0-.9-1.6-.9-3.5 0-3.3 1.2-4.6 2.5-2.5zm18 2c1 1.1 1.4 2 .9 2-.5 0-1.5-.9-2.2-2-.7-1.1-1.1-2-.9-2 .2 0 1.2.9 2.2 2zm18.5 4.5c0 .2-1.3-.1-3-.6-1.6-.6-3-1.5-3-2s1.4-.3 3 .6c1.7.9 3 1.7 3 2zm-158.5.5c.3.6-.1.7-.9.4-1.8-.7-2.1-1.4-.7-1.4.6 0 1.3.4 1.6 1zm153 0c.3.6-.1.7-.9.4-1.8-.7-2.1-1.4-.7-1.4.6 0 1.3.4 1.6 1zm-132.9 2.5c1 1.5 2.6 2.5 4.1 2.5 1.3 0 3.8.7 5.4 1.6 1.7.8 3.7 1.3 4.5 1 .8-.3 3.7 1 6.5 2.9 2.7 2 7.3 4.7 10.2 6.1 5.5 2.6 10.3 6.1 9.5 6.9-.3.3-1.6-.3-2.9-1.3-1.3-1-4.1-2.9-6.2-4.1-3.4-2.1-4.2-2.2-6.3-1.1-2.1 1.2-2.8 1.1-5.2-.6-3.2-2.3-9.5-5.4-17.2-8.4-6.8-2.7-7.1-3-6.4-5.8.8-2.9 2-2.8 4 .3zm103.4-1c0 .8-.4 1.5-1 1.5-.5 0-1-.7-1-1.5s.5-1.5 1-1.5c.6 0 1 .7 1 1.5zm35.4 2.4c-.2.3-1.2-.3-2.2-1.3-1.6-1.7-1.6-1.8.5-.5 1.2.7 2 1.5 1.7 1.8zm-42.9-.9c.3.5.1 1-.4 1-.6 0-1.1-.5-1.1-1 0-.6.2-1 .4-1 .3 0 .8.4 1.1 1zm-89.5 10.9c1.4 1 4.7 2.3 7.4 3.1 3.6 1 6.3 2.8 10.9 7.3 3.3 3.2 7.9 6.7 10.1 7.7 6.2 2.7 9.2 6.6 10.1 12.9.9 6.7-.7 6.6-4.2-.2-1.4-2.6-2.9-4.7-3.4-4.7s-1.3-1-1.8-2.3c-1-2.5-5.7-5.5-6.8-4.3-.4.4 0 1.2 1.1 1.8 2.7 1.5 8.6 8 8.6 9.5 0 2.4 7.1 9.3 9.6 9.3 2.3 0 2.4.3 1.9 4.2-.6 4.3-.6 4.3.8 1.3 2.2-4.8 2.8-1.3 1.2 6.5-.8 3.9-1.5 9.2-1.5 11.7 0 6.3-1.2 4.6-2.1-2.8-.5-4.5-1.2-6.5-2.8-7.5-1.4-1.1-2.1-2.5-2-4.7.1-1.8.3-2.4.6-1.5.8 3 2 2 1.5-1.3-.4-2.4-.9-3-2.3-2.6-1.4.4-1.9 0-1.9-1.3 0-1-1.8-3.9-3.9-6.4l-4-4.6.1 3.9c0 2.5.6 4.2 1.5 4.5.8.3 1.1.1.8-.4-.3-.6-.2-1 .4-1 1.4 0 2.5 4.5 1.7 7.4-.3 1.3.1 3.7.9 5.2 1.6 3.1 2.1 10.4.7 10.4-1.3 0-3.5-13.7-2.7-16.7.5-2 .3-2.4-.9-2-.9.4-1.6.1-1.6-.5s-.2-.9-.4-.7c-.2.2.7 5.1 2 10.9 1.3 5.8 2.7 12.2 3 14.2.7 4 1.9 5 2.7 2 .3-1 .5-.6.6 1.1.1 1.7-.3 2.6-.9 2.2-1-.6-1.3 1.6-1 7.4.1 2.3-.2 3.1-1 2.6-.6-.4-1-2.1-.9-3.9.1-1.7-.1-3.8-.4-4.6-.2-.8-1-3.1-1.5-5-1-3.1-1-2.8-.5 2.4.4 4.3.3 5.7-.6 5.2-.7-.4-1.5.2-2 1.6l-.9 2.3-.7-2.8c-.5-1.7-.3-3.3.6-4.3 1.1-1.4 1-1.5-.6-1.2-2.4.4-4.1-5.4-5.5-18.7-.6-5-1.5-11.2-2.1-13.8-.8-3.3-.8-5.2-.1-5.9 1.1-1.1 1.6.8 2.8 9.7.3 2.7 1.5 8.8 2.6 13.5 1.2 5.1 1.6 8.6 1 8.8-1.4.4-.3 3.9 1.4 4.6.9.3 1.4-.2 1.4-1.4 0-1.1-.4-2-1-2-.5 0-.7-.6-.4-1.3.3-.8-.7-6.6-2.1-13.1-2.9-13.6-2.8-12.6-1.5-12.6.6 0 1 .6 1 1.4 0 .8.5 1.8 1.1 2.2.9.5 1-.1.5-2.2-.4-1.6-1.2-3.2-1.8-3.5-1.3-.8-3.9-8.1-3.2-8.8.9-.9 4.3 4.3 4.1 6.3-.1 1 .4 2.1 1.1 2.3 2.2.8.3-6.9-2.3-9.3-1.9-1.8-2.2-2.8-1.8-7.1l.5-5-6.7-3.9c-8.7-5.1-12-6.9-17.7-9.4-2.5-1.2-5.2-2.8-5.9-3.6-1.1-1.4-.8-1.5 2.7-.9 2.1.4 5 1.5 6.4 2.4zm91.3 2.5c-.5.7-.9.5-1.1-.7-.5-2.6-2.2-2-2.2.8 0 1.4-.4 2.5-.9 2.5s-.4-1.8.2-4.2l1-4.1 1.9 2.2c1 1.3 1.5 2.8 1.1 3.5zm-6.3-1.4c0 .5-.4 1-1 1-.5 0-1-.5-1-1 0-.6.5-1 1-1 .6 0 1 .4 1 1zm-97 3.6c0 .2-1.1.4-2.5.4s-2.5-.4-2.5-.9c0-.4 1.1-.6 2.5-.3 1.4.2 2.5.6 2.5.8zm107.4 5.3c-.6.8-2.4-1.2-2.4-2.8 0-3.1 1.5-3.4 2.1-.4.3 1.5.4 3 .3 3.2zm-14.4-3.9c0 .5-.4 1-1 1-.5 0-1-.5-1-1 0-.6.5-1 1-1 .6 0 1 .4 1 1zm3 4.7c0 2.1-.7 3.1-3.7 5.7l-2.3 1.9v-3.5c0-2.6.6-3.8 2.3-4.6 3.1-1.5 3.7-1.4 3.7.5zm5.7 3c-.3 1-.5.2-.5-1.7s.2-2.7.5-1.8c.2 1 .2 2.6 0 3.5zm-44.5 6.3c4.4 2.4 5.5 3.8 3.4 4.6-1.8.7-7-2.7-10.8-7-3.7-4.2-3.5-5.4.5-2.2 1.7 1.4 4.9 3.5 6.9 4.6zm60.6-4.1c.3.8-.1 1.2-.9.9-.7-.2-1.5-1-1.7-1.7-.3-.8.1-1.2.9-.9.7.2 1.5 1 1.7 1.7zm-31.4 2.3c1.8 2.6 1.3 3.6-.9 1.8-1.2-1-1.5-1-1.5.4 0 2.4-2.7 3.1-4.5 1.2-1.5-1.5-1.5-1.6.4-1.6 1.1 0 2.2-.9 2.6-2 .8-2.6 2-2.5 3.9.2zm38.6-.2c0 .5-.2 1-.4 1-.3 0-.8-.5-1.1-1-.3-.6-.1-1 .4-1 .6 0 1.1.4 1.1 1zm-3 1c0 .5-.4 1-1 1-.5 0-1-.5-1-1 0-.6.5-1 1-1 .6 0 1 .4 1 1zm-93.7 2.2c.3 1.3.2 3.9-.3 5.8l-.8 3.5-.1-4.2c-.1-2.3-.4-4.8-.7-5.7-.3-.9-.2-1.6.4-1.6.5 0 1.2 1 1.5 2.2zm66.7-1.2c0 .5-.5 1-1.1 1-.5 0-.7-.5-.4-1 .3-.6.8-1 1.1-1 .2 0 .4.4.4 1zm19.3 1.4c.3.8-.1 1.7-.9 2-1.7.6-4.4-.3-4.4-1.5 0-1.3 1.4-1.1 2.9.3 1 1.1 1.1 1 .6-.5-.4-.9-.3-1.7.3-1.7.5 0 1.2.6 1.5 1.4zm10.3 3.3c-.3.3-1.3.2-2.3-.2-1.7-.8-1.7-.8 0-1.2.9-.3 1.8-1.2 1.8-2.1.1-1 .4-.7.6.6.3 1.3.2 2.6-.1 2.9zm-17.6-1.7c0 .5-.9 1-2.1 1-1.1 0-1.7-.5-1.4-1 .3-.6 1.3-1 2.1-1s1.4.4 1.4 1zm12.3 1.4c.9.7 1.7 1.7 1.7 2.2 0 .4-.5.3-1.2-.4-.8-.8-1.7-.8-3-.1-1.1.6-2.2.8-2.6.5-.3-.3 0-.6.6-.6.7 0 1.2-.7 1.2-1.5 0-1.8.9-1.9 3.3-.1zm-52.8.6c-.3.5-1 1-1.6 1-.5 0-.9-.5-.9-1 0-.6.7-1 1.6-1 .8 0 1.2.4.9 1zm64.4 1.6c1.3 3 .7 4.4-1.1 2.6-1.3-1.3-1.9-5.2-.8-5.2.4 0 1.2 1.2 1.9 2.6zm-75.9.5c0 .5-.4.9-1 .9-.5 0-1-.7-1-1.6 0-.8.5-1.2 1-.9.6.3 1 1 1 1.6zm43.5-1.1c.3.5.1 1-.4 1-.6 0-1.1-.5-1.1-1 0-.6.2-1 .4-1 .3 0 .8.4 1.1 1zm13.3.2c1.9 1.9 1.4 3-.8 1.8-1.1-.6-2-1.5-2-2 0-1.4 1.4-1.2 2.8.2zm.2 7c0 1.1.5 2.8 1 3.9.8 1.4.7 1.9-.2 1.9-1.7 0-3.9-3.6-3.3-5.2.3-.8-.1-2.2-.9-3.3-1.3-1.9-1.4-1.8-.9.8.6 3.1-1.2 3.7-2.2.7-.3-1.1-1.1-2-1.7-2-.6 0-.3-.9.6-1.9 1.8-1.9 1.8-1.9 4.7.6 1.6 1.5 2.9 3.5 2.9 4.5zm-106.2.3c-.3 3.6-.2 6.2.3 5.9.5-.3.9.4.9 1.5 0 2.2-1.4 2.8-2.5 1-.8-1.1.4-14.9 1.2-14.9.3 0 .3 2.9.1 6.5zm57.2-1.3c0 1.6-2 .7-3-1.2s-1-2 .9-.8c1.2.7 2.1 1.6 2.1 2zm21.3-1.7c4.2.8 6.9 4.1 4.6 5.6-1.8 1.1-1.7 1.2-7.3-1.9-5.5-3-7.5-5.9-3.5-4.9 1.3.3 4.1.9 6.2 1.2zm16.7-.5c0 .5-.2 1-.4 1-.3 0-.8-.5-1.1-1-.3-.6-.1-1 .4-1 .6 0 1.1.4 1.1 1zm20.4.6c.4 1 .1 1.4-.6 1.2-1.5-.5-2.3-2.8-1-2.8.5 0 1.3.7 1.6 1.6zm-65 2.6c.9 3.7.7 4.3-.9 2.2-1.6-2.1-1.9-4.4-.6-4.4.5 0 1.1 1 1.5 2.2zm59.4.8c1.9 4.2.9 6.2-1.1 2.3-1-1.8-1.7-3.7-1.7-4.3 0-2 1.5-1 2.8 2zm4.5-.5c1.5 1.4 2.7 2.8 2.7 3.1 0 1-6.3-3.1-6.8-4.4-.6-2 1.1-1.4 4.1 1.3zm-97.6.7c-.3.8-.6.5-.6-.6-.1-1.1.2-1.7.5-1.3.3.3.4 1.2.1 1.9zm70.3.2c0 .3-.4.8-1 1.1-.5.3-1 .1-1-.4 0-.6.5-1.1 1-1.1.6 0 1 .2 1 .4zm-67 4.9c0 1.8-.2 1.9-1 .7-1.3-2-1.3-4.3 0-3.5.6.3 1 1.6 1 2.8zm75.4 2.6c-.2.2-1.5.1-2.9-.3-1.6-.4-2.5-1.3-2.5-2.7 0-2 .1-2 2.9.3 1.5 1.3 2.7 2.5 2.5 2.7zm-71.4 6.7c.6 5.4 2 13.9 3 18.9 1 4.9 1.7 9.2 1.4 9.4-.2.2-2.4-1.8-4.9-4.4-2.6-2.6-4.4-4.9-4.1-5.2.3-.3 1.3.3 2.3 1.2 1.2 1.2 1.8 1.4 2.1.6.7-2.2-.9-18.1-1.9-18.7-.6-.3-.8.4-.5 1.8 1.3 6.1 1.7 15 .7 14.3-.6-.3-1.1-1.3-1.1-2.2 0-.9-.8-2.5-1.7-3.5-1.4-1.5-1.4-1.9-.3-1.6.9.2 1.4-.3 1.2-1.2-1.2-5-1.3-11.8-.3-12.4.6-.4 1.1-.2 1.1.3 0 .6.4 1.1.9 1.1.6 0 .6-1.2-.1-3-.9-2.7-.4-7 .7-5.8.2.2.9 4.9 1.5 10.4zm32-5.7c-.1 1.3-.3 1.3-1.5-.3-1.9-2.6-1.9-4.2 0-2.6.8.7 1.5 2 1.5 2.9zm-38 1.2c0 2.1-1.6 2.6-2.3.6-.3-.6-.6-.2-.6 1.1-.1 1.3.6 3.7 1.5 5.3 2 3.9 1.4 4.6-1.3 1.6-1.9-2-2-2.7-1.1-7.5.9-4.2 1.3-5 2.4-4.1.8.6 1.4 2 1.4 3zm51.6 4.3 1.5 3.1-3-3.3c-1.7-1.8-3.1-3.7-3.1-4.3 0-1.8 3 1.1 4.6 4.5zm-71.1-2.4c1 1.1 1.3 2 .7 2-.6 0-1.6-.9-2.2-2-.6-1.1-.9-2-.7-2 .2 0 1.2.9 2.2 2zm103-1c.3.5.1 1-.4 1-.6 0-1.1-.5-1.1-1 0-.6.2-1 .4-1 .3 0 .8.4 1.1 1zm-41.4 6.8c-.5 1-1.5 6.6-2.2 12.5-.8 7-1.6 10.6-2.3 10.4-.6-.2-1.3-1.4-1.4-2.6-.2-1.3 0-2.1.5-1.8.5.3 1.4-3.7 2.1-8.9.7-5.2 1.8-10.3 2.4-11.4 1.6-2.4 2.3-.9.9 1.8zm-57.6 1c-.8.8-2.5-1-1.9-2 .4-.6.9-.5 1.5.3.4.7.6 1.5.4 1.7zm53.5 4.9c0 1.9-.3 2.4-.9 1.5-1.1-1.8-2.1 1.7-2.1 7.5 0 2.4-.4 4.3-1 4.3-1.3 0-1.3-4.8.2-12.5.9-5.3 1.3-6.1 2.5-5 .7.8 1.3 2.6 1.3 4.2zm6.1.3c-1.3 5.9-1.4 24.2-.2 31.4.5 2.7.5 6.1.1 7.5-.5 1.6-.9 1.9-.9.8-.1-2.7-2.1-2-2.1.7 0 2.5-1.9 4.8-2.1 2.4 0-.7-.5-.3-1.1.9-1.2 2.5-3.4 3.2-2.4.8.3-.8-.2-2.2-1.1-3.1-1.5-1.5-1.5-2.1.1-8.7.9-4 1.6-8.8 1.6-10.7 0-2.6.3-3.1 1.2-2.2.9.9.9 2.2 0 5.7-1.4 5.4-1.5 7.5-.3 7.5.6 0 1.2-1.7 1.4-3.8.3-3.3.4-3.2.5 1.1.1 2.7-.2 4.6-.7 4.3-.5-.3-1.2.1-1.5 1-.8 2.1-.8 4.9.1 4.1.3-.4 1.2-.2 2 .4 1.1.9 1.3.1 1.4-4.7.5-23.5 1.5-36.8 3.1-39.7 1.6-3.1 2.1-1.1.9 4.3zm43.9-3.5c0 .7.5 1.6 1 1.8.6.3.5.4-.1.3-.7-.1-1.6-1.2-2-2.5-.6-1.4-.5-2 .1-1.6.6.3 1 1.2 1 2zm-90.8 1.5c2 3.6.7 4-1.6.5-1.8-2.7-2-3.5-.8-3.5.4 0 1.5 1.4 2.4 3zm-10.7.9c0 3.6-2.1 3.6-3.4.1-1-2.9-.9-3.1 1.2-2.8 1.6.2 2.2 1 2.2 2.7zm4.2-.7c-.3.8-.6.5-.6-.6-.1-1.1.2-1.7.5-1.3.3.3.4 1.2.1 1.9zm37.9 4.2c-.8 4.3.2 8.6 2 8.6.8 0 1.4.4 1.4 1 0 .5-.6 1-1.3 1-1 0-1.2 2.3-1.1 9.7.2 5.4 0 8.8-.2 7.5-.3-1.2-.9-2-1.4-1.7-.5.3-1.2-1-1.6-3-.3-1.9-1.2-3.5-2-3.5-1 0-1.1-.7-.4-2.8.8-2.6 2.5-17.9 2.2-19.5-.1-.4.5-.7 1.4-.7 1.3 0 1.5.7 1 3.4zm65.2-2.2c1.4 1.4 1.6 2.8.2 2.8-.5 0-1.4-.9-2-2-1.2-2.2-.1-2.7 1.8-.8zm-94.2 4.9c1.9 2.2 1.9 2.2-.3.8-1.3-.8-2.3-1.7-2.3-2.1 0-1.2.6-.9 2.6 1.3zm37.1 4.1c-.2 1.3-.4.5-.4-1.7-.1-2.2.1-3.2.4-2.3.2 1 .2 2.8 0 4zm-72.7-3.2c0 .5-.2 1-.4 1-.3 0-.8-.5-1.1-1-.3-.6-.1-1 .4-1 .6 0 1.1.4 1.1 1zm24.8 2.6c-1 1-2.8-.6-2.8-2.4 0-1.5.1-1.5 1.7.1.9.9 1.4 1.9 1.1 2.3zm4.2-.6c0 .5-.2 1-.4 1-.3 0-.8-.5-1.1-1-.3-.6-.1-1 .4-1 .6 0 1.1.4 1.1 1zm38.7 13.2c-.2 1.3-.4.3-.4-2.2s.2-3.5.4-2.3c.2 1.3.2 3.3 0 4.5zm2.4 1.9-.9 5.4-.1-4.7c0-2.5.2-5.4.6-6.4 1.1-3 1.4-.1.4 5.7zm-15.2 1.6c.1.7-.3 1.3-.9 1.3-.5 0-1-1.5-.9-3.3 0-2.7.2-2.9.9-1.2.5 1.1.9 2.6.9 3.2zm-37.3-1.1c.6.8 1.4 1.1 1.7.8.7-.7 5 1.5 5.9 3.1.4.7 3.7 1.6 7.2 2 3.6.3 7 1.3 7.7 2.1.9 1.1.8 1.4-.2 1.4-.8.1-.2.7 1.2 1.5 2.6 1.4 6.5 6.3 5.6 7.1-.7.8-19.1-7.1-21.3-9.1-1.2-1.1-5-3.6-8.3-5.5-9.9-5.6-10.3-6.1-5.1-5.4 2.5.4 5 1.3 5.6 2zm43.4 3.6c0 2.7 2.2 6.8 3.7 6.8.7 0 1.3.7 1.3 1.5s-.6 1.5-1.4 1.5c-.8 0-1.6.6-1.9 1.2-.2.7-1.1-.1-2-1.8-.9-1.7-2.3-3.6-3.1-4.3-.9-.8-1.6-2.5-1.6-4v-2.6l1.6 3c2.4 4.6 2.7 4.4 2-1-.5-3.6-.4-4.6.3-3.5.6.8 1.1 2.3 1.1 3.2zm-8 1c0 .4-.4.8-1 .8-.5 0-1-.4-1-.9s-.3-1.8-.6-2.8c-.5-1.6-.4-1.6 1 .1.9 1.1 1.6 2.3 1.6 2.8zm-31.2 8c.7 1 1.7 1.8 2.3 1.8.9 0 3.2 2.1 5.9 5.4 1.4 1.8 1.3 1.8-1 1.1-1.4-.4-4.4-2.4-6.7-4.4-2.3-2-5.5-4.6-7.2-5.9-1.7-1.3-3.1-2.8-3.1-3.3 0-1.3 8.1 3.2 9.8 5.3zm46.9-4.2c-.1 1.1-.5 2-.9 2-.3 0-.6-.9-.5-2 .1-1.1.5-2 .9-2 .3 0 .6.9.5 2zm-12.6 2c1.8 1.5 2 1.9.8 2-.9 0-2.4-.9-3.4-2-2.3-2.6-.4-2.6 2.6 0zm-36.3 5.6c2.6 1.8 2.8 3.6.7 5.4-2 1.6-3.1.5-4-3.8-.7-3.6 0-3.9 3.3-1.6zm46.2 2.4c0 1.6-.4 3-.8 3s-.7-1.2-.6-2.8c.3-3.2.3-3.2.9-3.2.3 0 .5 1.3.5 3zm17 4.3c0 3.7-2.1 7.3-3.4 6-1.1-1.1-.6-2.3.9-2.3 1.8 0 1.9-1.2.4-2.7-.7-.7-.8-2.4-.4-4.3.9-4.2 2.5-2.1 2.5 3.3zm-36.7-1.6c1.1 1.8 4.7 1.6 6.2-.4.7-.9 1.9-1.4 2.9-1 2 .8 2.1 2.7.1 2.7-.8 0-1.5.7-1.5 1.5 0 2.2-5 1.5-8.4-1.2-1.6-1.3-3.1-2.1-3.5-1.8-.3.4.5 1.5 1.9 2.5s2.2 2.2 1.8 2.5c-.7.8-5.6-2.4-7.8-5-1.5-1.8.1-2 1.9-.3 1 1.1 1.1.9.5-.5-.6-1.6-.3-1.7 2.2-1.1 1.6.4 3.3 1.3 3.7 2.1zm33.6 3.5c.1.5-.3.8-.9.8-.5 0-1-1.2-.9-2.8 0-2.4.1-2.5.9-.7.5 1.1.9 2.3.9 2.7zm-19.9-.2c0 .5-.9 1-2.1 1-1.1 0-1.7-.5-1.4-1 .3-.6 1.3-1 2.1-1s1.4.4 1.4 1zm16 .5c0 .8-.4 1.5-1 1.5-.5 0-1-.7-1-1.5s.5-1.5 1-1.5c.6 0 1 .7 1 1.5zm-43.2 2.5c4.2 3 5.3 5 2.9 5-1.3 0-11.7-6.7-11.7-7.5 0-1.6 5.3-.1 8.8 2.5zm29.2.9c0 2.8-4.3 3.5-8.3 1.4l-3.2-1.7 2.5-.7c1.4-.4 4-.7 5.8-.8 2.5-.1 3.2.3 3.2 1.8zm12.5.2c1 1.5.2 1.9-2.4 1.2-1.7-.4-1.9-.8-.9-1.4 1.8-1.2 2.6-1.1 3.3.2zm-24.1 1.8c1 1.1 2.8 2.2 4.2 2.5 1.3.4 2.4 1.1 2.4 1.6s-.7.7-1.5.4c-2.1-.9-1.9.2.7 2.8 1.4 1.4 2.3 1.7 2.6 1 .2-.8.9-.9 2.3-.2 1.5.8 1.7.7 1.3-.5-.4-1 0-1.5 1.1-1.5 1.5 0 1.6-.2.4-1.6-1.2-1.5-1.1-1.6 1.1-1 6.9 2 9.4 5 3.8 4.5-2.2-.2-3.2.1-3 .9.1.7-.5 1.2-1.4 1.2-1.1 0-1.4.6-.9 2.2.6 1.9.5 2.1-.6 1-.7-.6-3-1.2-5.1-1.2-2.1 0-3.8-.4-3.8-.9s.9-.7 2.1-.4c1.4.4.3-1.2-3.5-5.1-3.1-3.2-5.6-6.2-5.6-6.7 0-1.5 1.6-1 3.4 1zm17 1c-.2.3-1.2-.3-2.2-1.3-1.6-1.7-1.6-1.8.5-.5 1.2.7 2 1.5 1.7 1.8zm-21.7 3.5c2.8 2.4 2.7 5-.1 2.7-.8-.7-2.5-.9-4-.5-2.9.7-3.2.3-1.4-2.6 1.6-2.5 2.1-2.5 5.5.4zm15.8-1.4c-.3.5-1 1-1.6 1-.5 0-.9-.5-.9-1 0-.6.7-1 1.6-1 .8 0 1.2.4.9 1zm20.2.6c-.3.3-1.2.4-1.9.1-.8-.3-.5-.6.6-.6 1.1-.1 1.7.2 1.3.5zm-2.7 1.4c.8.5 1.2 1.2.9 1.5-.8.8-3.9-.5-3.9-1.6s1.1-1.1 3 .1zm10 3c0 .5-.2 1-.4 1-.3 0-.8-.5-1.1-1-.3-.6-.1-1 .4-1 .6 0 1.1.4 1.1 1zm-44 2.1c0 .5-.4.9-1 .9-.5 0-1-.7-1-1.6 0-.8.5-1.2 1-.9.6.3 1 1 1 1.6zm36.5-1.1c.3.5.1 1-.4 1-.6 0-1.1-.5-1.1-1 0-.6.2-1 .4-1 .3 0 .8.4 1.1 1zm-10 1c.3.5-.2 1-1.2 1-1.1 0-2.5.6-3.3 1.2-.8.7-.6.3.4-1 2.1-2.4 3.2-2.7 4.1-1.2zm-19.5 4.5c0 1.2-2.9.3-3.4-1-.4-1.3-.2-1.4 1.4-.5 1.1.6 2 1.3 2 1.5zm43-1c.7.8.8 1.5.2 1.5-.5 0-1.5-.7-2.2-1.5-.7-.8-.8-1.5-.2-1.5.5 0 1.5.7 2.2 1.5zm-25 1.5c0 .5-.2 1-.4 1-.3 0-.8-.5-1.1-1-.3-.6-.1-1 .4-1 .6 0 1.1.4 1.1 1zm-5.7 2.2c1.8.9 1.9 1.4.9 4-.6 1.3-1.4 1-4.6-2.3l-3.9-4 2.9.7c1.6.4 3.7 1.1 4.7 1.6zm8.7 9c0 1.2-.6.9-2.6-1.3-1.9-2.2-1.9-2.2.4-.8 1.2.8 2.2 1.7 2.2 2.1zm-22.4-82.7c.8 3.7 1.4 4.5 1.4 1.9 0-1-.5-2.6-1-3.4-.8-1.1-.9-.7-.4 1.5zm1.6 6.5c0 1.4.2 1.9.5 1.2.2-.6.2-1.8 0-2.5-.3-.6-.5-.1-.5 1.3zm10 11.5c0 2.2.4 5.3.8 7 .7 2.7.8 2.5.8-1.5 0-2.5-.4-5.6-.8-7-.7-2.1-.8-1.9-.8 1.5zm-.4 20.2c.7.3 1.6.2 1.9-.1.4-.3-.2-.6-1.3-.5-1.1 0-1.4.3-.6.6zm34.7-167.7c-.3.5.1 1 1 1s1.3-.5 1-1c-.3-.6-.8-1-1-1-.2 0-.7.4-1 1zm-30.3 2.2c.3.7 1.3 1.5 2.2 1.6 1.2.3 1.7-.1 1.4-1-.3-.7-1.3-1.5-2.2-1.6-1.2-.3-1.7.1-1.4 1zm5.8 5.7c0 .5.5 1.3 1 1.6.6.3 1 .2 1-.4 0-.5-.4-1.3-1-1.6-.5-.3-1-.2-1 .4zm7 2.1c0 .5.5 1 1 1 .6 0 1-.5 1-1 0-.6-.4-1-1-1-.5 0-1 .4-1 1zm-64.3 5.7c-1.3 2.1-5.3 6.6-8.8 10-7.9 7.6-15.5 17.3-13.6 17.3.8 0 2.7-1.9 4.2-4.2 2.9-4.3 11.6-13.3 17-17.4 2-1.5 3.5-3.7 3.9-5.6.9-4.5.1-4.5-2.7-.1zm20.3 7.3c0 1.5 15.1 11 17.5 10.9 1.4 0 1.6-.2.5-.6-.8-.3-4.6-2.7-8.5-5.2-9.5-6.4-9.5-6.4-9.5-5.1zm54 1.5c.7.8 1.7 1.5 2.2 1.5.6 0 .5-.7-.2-1.5s-1.7-1.5-2.2-1.5c-.6 0-.5.7.2 1.5zm89 10.5c.8.5 2.2 1 3 1 1.3 0 1.3-.1 0-1-.8-.5-2.2-1-3-1-1.3 0-1.3.1 0 1zm-5.4.9c-.9 1.3.3 3.9 2.1 4.5 1.6.6 3.3 0 3.3-1.2-.1-1.3-4.9-4.2-5.4-3.3zm16.4 1.9c0 1.2 4.9 2.2 11.3 2.2 5.5 0 5.8-1.1.5-1.5-1.8-.1-5.2-.5-7.5-.9-2.6-.5-4.3-.4-4.3.2zm-176.6 5.3c-.3.6-.1 1.6.5 2.2.8.8 1.1.5 1.1-1.1 0-2.4-.5-2.8-1.6-1.1zm-13.4 1.3c0 .9.4 1.6.9 1.6s1.1.9 1.4 2.1c.4 1.3 1.2 2 2.4 1.7 2.8-.5 2.1-3-1.4-5.1-2.9-1.6-3.3-1.7-3.3-.3zm64.4 4.1c-.7 5.3.1 7.2 1.1 2.6.4-1.7 1.1-2.9 1.6-2.5.5.3.5 1.3-.2 2.5-1.4 2.7-.4 3.6 1.7 1.5 1.5-1.5 1.5-1.9 0-5.1-1-1.9-2.1-3.5-2.6-3.5s-1.2 2-1.6 4.5zm-110.4 4.5c0 .5.4 1 .8 1s1.6 1.5 2.7 3.2c1.9 3.4 6.9 8.8 7.9 8.8 1.2 0-2.3-5.6-6.1-9.8-3.9-4.2-5.3-5.1-5.3-3.2zm134.5.1c-.5.9-1.7 1.9-2.5 2.2-1.2.4-1.1.6.3.6 1.9.1 2.2 1.2.6 2.8-.7.7-.7 1.3-.1 1.7 1.7 1 3.4-2.1 3-5.6-.2-2.7-.5-3-1.3-1.7zm-141.1 4.3c-1.1 1.1-3.1 3-4.5 4.1-5 4.2-13.1 13.3-12.8 14.4.2.6 5.2-3.8 11.1-9.9 6-6 10.2-11 9.5-10.9-.6.1-2.1 1.1-3.3 2.3zm146.9 1.6c0 2.5.2 3.5.4 2.2.2-1.2.2-3.2 0-4.5-.2-1.2-.4-.2-.4 2.3zm2.7-.5c0 2.2.4 3.4 1 3 .6-.3 1-1.7 1-3s-.4-2.7-1-3c-.6-.4-1 .8-1 3zm-141.4 3.4c-.3.4.8 1.7 2.4 2.9 1.6 1.2 3.1 1.8 3.4 1.3.3-.4-.8-1.7-2.4-2.9-1.6-1.2-3.1-1.8-3.4-1.3zm127.9 4.1c-1.5 1.6-1.5 2.2-.5 3.5 1.9 2.3 2.5 1.8 2.7-2 .1-1.9 0-3.5-.1-3.5-.2 0-1.1.9-2.1 2zm51.6-.4c0 1.1.3 1.4.6.6.3-.7.2-1.6-.1-1.9-.3-.4-.6.2-.5 1.3zm-42.6.4c-.3.5-.1 1 .4 1 .6 0 1.1-.5 1.1-1 0-.6-.2-1-.4-1-.3 0-.8.4-1.1 1zm-109.1 1.5c.3.9.6 2.3.6 3.1 0 .8.9 1.4 2 1.4 2.6 0 2.5-.4-.6-3.6-1.7-1.6-2.4-1.9-2-.9zm-10.4.6c0 1.1 6 3.9 8.5 3.9.9 0 1.3-.5 1-1-.3-.6-1.7-1-2.9-1-1.3 0-2.9-.7-3.6-1.5-1.4-1.7-3-2-3-.4zm102.5-.1c-.3.5.1 1 1 1s1.3-.5 1-1c-.3-.6-.8-1-1-1-.2 0-.7.4-1 1zm56.7 1.5c-.1 2.7 4.2 10 5.9 10 1.8 0 2.4-4.9.9-7.2-.9-1.5-1-1.1-.5 1.9.3 2.1.2 3.8-.3 3.8-1.5 0-3.3-5.1-2.6-7.4.6-1.8.5-1.9-.9-.8-1.3 1.1-1.6 1-2-.5-.4-1.6-.5-1.5-.5.2zm-66.2.7c0 .9.5 2 1 2.3 1.3.8 1.3-.5 0-2.5-.8-1.3-1-1.3-1 .2zm75.2 1.8c0 1.9.2 2.7.5 1.7.2-.9.2-2.5 0-3.5-.3-.9-.5-.1-.5 1.8zm5.4-.5c1.6 6.7 2.4 8.1 2 3.6-.3-2.4-1-4.9-1.6-5.5-.9-.8-1-.4-.4 1.9zm-76.2 3.9c.3 2.7.6 7 .7 9.5 0 3.6.2 4.1.9 2.4.9-2.1-.5-15.1-1.7-16.2-.3-.3-.3 1.6.1 4.3zm-120.4-3c0 .2.7.9 1.5 1.6.9.7 1.5.8 1.5.2 0-.5-.7-1.2-1.5-1.6-.8-.3-1.5-.4-1.5-.2zm136 3.8c0 4.9.5 4.7 1.3-.5.3-2 .2-3.7-.4-3.7-.5 0-.9 1.9-.9 4.2zm-147.5-2.2c.3.5 1.4 1 2.3 1 1.5 0 1.5-.2.2-1-2-1.3-3.3-1.3-2.5 0zm135 3c.4 5.5 1.5 6.4 1.5 1.2 0-2.2-.4-4.3-.9-4.6-.5-.4-.8 1.2-.6 3.4zm-104.8-1.9c.7.7 1.5 1 1.8.7.3-.3-.2-.9-1.2-1.2-1.4-.6-1.5-.5-.6.5zm111.8 4.3c.3 2.7.6 7.2.6 10l.1 5.1.9-5c.6-3.6.4-6.4-.6-10l-1.5-5 .5 4.9zm63.6.3c-.1 4 .3 5.3 1.4 5.3.7 0 1.8.7 2.3 1.6.8 1.4 1 1.1 1.4-1.5.5-3.1-.5-4.1-1.8-1.9-.5.8-1.3-.7-2-3.7l-1.2-5-.1 5.2zm-1.8.3c0 2.5.2 3.5.4 2.2.2-1.2.2-3.2 0-4.5-.2-1.2-.4-.2-.4 2.3zm-208.4-2.5c-.3.2-2.1.6-4 .9-2.7.3-5 1.9-10.2 7.1-3.9 3.9-6.7 7.5-6.7 8.7 0 1.8-.4 2-3.2 1.3-6.7-1.4-10.8-1.7-10.8-.9 0 .8 2.4 1.6 13.7 4.9.6.2 1.6 1.3 2.2 2.3.8 1.5.7 2.3-.4 3.2-3 2.5-.6 6 2.6 3.9.9-.5 1-.9.2-.9s-1-1.1-.7-3.3c.3-1.7-.1-4.7-.9-6.6l-1.5-3.5 6.6-7.3c3.7-4 6.9-7.3 7.3-7.3.3 0 2 2.2 3.7 4.9 1.8 2.7 3.9 5.1 4.7 5.5 2.2.8 1.8-.3-.7-2.4-2-1.6-2.1-2-.8-3.5 1.4-1.6 1.3-1.7-.6-1.1-1.6.5-2.3.2-2.7-1.3-.4-1.6.1-2.1 2.4-2.6 1.6-.4 3.9-.4 5.1 0 1.7.4 1.9.3.8-.3-2.1-1.3-5.6-2.3-6.1-1.7zm70.1 3.7c0 .9.7 2.1 1.5 2.8.8.7 1.5 1.9 1.5 2.6 0 .8.4 1.4.9 1.4 1.4 0 0-4.8-2-6.6-1.6-1.5-1.9-1.5-1.9-.2zm64 .2c0 .8.5 1.8 1 2.1.6.3 1-.3 1-1.4 0-1.2-.4-2.1-1-2.1-.5 0-1 .6-1 1.4zm-68 .3c0 1.4 4.9 5.8 5.7 5 .3-.4.4-.8.2-1-.2-.1-1.6-1.3-3.1-2.6-1.6-1.4-2.8-2-2.8-1.4zm84.1 6c-.1 2.3-.4 4.9-.8 5.9-.4 1.2-.2 1.5.8 1.2 1.7-.6 2.3-5.6 1-8.8-.9-2.3-1-2.1-1 1.7zm-61.4-2.1c-.7.8 2.1 3.8 5.1 5.3 2.9 1.5 4.5.3 1.8-1.3-1-.6-2.6-1.9-3.5-2.9-1.6-1.8-2.4-2.1-3.4-1.1zm68.8.4c.3.5.8 1 1.1 1 .2 0 .4-.5.4-1 0-.6-.5-1-1.1-1-.5 0-.7.4-.4 1zm61.5 2.3c1.8 1.6 14.9 6.2 15.6 5.5.5-.6-13.9-6.8-15.8-6.8-.9 0-.8.4.2 1.3zm-78.6 2.3c.3.9.6 2 .6 2.5s.7.9 1.5.9 1.5-.5 1.5-1c0-.6-.4-1-1-1-.5 0-1-.7-1-1.5s-.5-1.5-1.1-1.5c-.6 0-.8.7-.5 1.6zm-142.4 1.3c0 .5 1.1 1.6 2.5 2.5 1.4.9 2.5 1.2 2.5.7s-1.1-1.6-2.5-2.5c-1.4-.9-2.5-1.2-2.5-.7zm91 1.8c0 1.6-.3 3.9-.6 5.3-.5 1.7-.3 2.2.3 1.5 1.5-1.4 2.6-9.5 1.3-9.5-.5 0-1 1.2-1 2.7zm-135.1 3c-1.2 2.1-3.5 5.1-5 6.8-3.5 3.8-12 16.8-11.4 17.4.9.8 4.2-3 6-6.8.9-2.2 3.8-6.1 6.4-8.9 5.4-5.8 8.5-10.8 7.2-11.6-.5-.4-1.9 1.1-3.2 3.1zm6.6-2.7c-.3.5.1 1 1 1s1.3-.5 1-1c-.3-.6-.8-1-1-1-.2 0-.7.4-1 1zm51.5 1.9c3.8 2 10 3.7 8.7 2.5-1-1-9.8-4.4-11.2-4.4-.5.1.6.9 2.5 1.9zm139.8.8c.7.3 1.6.2 1.9-.1.4-.3-.2-.6-1.3-.5-1.1 0-1.4.3-.6.6zm77.2.3c0 .5.5 1 1 1 .6 0 1-.5 1-1 0-.6-.4-1-1-1-.5 0-1 .4-1 1zm-224 1.5c.7.8 1.7 1.5 2.2 1.5.6 0 .5-.7-.2-1.5s-1.7-1.5-2.2-1.5c-.6 0-.5.7.2 1.5zm217.5-.5c-.3.6.1 1.3 1 1.6 1.9.8 3 0 2-1.5-.8-1.4-2.2-1.4-3-.1zm-184.9 4.1c1 1.2 4.1 3.2 6.8 4.6 2.7 1.4 5.8 3.5 6.8 4.7 1.9 2.1 1.9 2.1.3-1.2-1.1-2.2-3-3.9-5.3-4.9-2-.8-4.9-2.4-6.4-3.4-3.5-2.5-4.6-2.4-2.2.2zm-34.6.1c0 1.6 5 4.8 7.6 4.8 1.7 0 1.7-.1-.1-1.3-6.5-4.5-7.5-4.9-7.5-3.5zm25.5 3.3c3 2.5 7.2 3.5 5.9 1.4-.6-1.1-6.6-3.9-8.1-3.9-.4.1.6 1.2 2.2 2.5zm60.6 1.1c0 1.1.3 1.4.6.6.3-.7.2-1.6-.1-1.9-.3-.4-.6.2-.5 1.3zm-76.6 1.5c-.4.5.6 1.4 2.1 1.9 1.4.6 5.3 2.6 8.6 4.5 3.2 1.9 6.3 3.5 6.9 3.5 1.9 0 .8-1.7-1.8-2.9-1.6-.7-3.9-2-5.3-2.9-4.5-3-9.9-5.1-10.5-4.1zm23 1c-.9 1.4 3.2 7.4 9 13.2 6.8 6.7 3.9 5.9-3.7-1.1-3.8-3.4-5.6-4.6-4.6-3 1.3 1.9 1.4 2.8.5 3.1-1.1.4 10.7 8.7 12.5 8.7.4 0 .8-1.2.8-2.8 0-2.1-1.7-4.4-7-9.7-3.9-3.8-6.8-7.5-6.5-8.2.5-1.6-.1-1.7-1-.2zm-75.1 4.1c.8 1.8 1.7 4.2 2.1 5.3.5 1.6.8 1.7 1.5.5.8-1.3 1.2-1.1 2.6.8.9 1.3 2.2 2.1 3 1.8.8-.3 1.4 0 1.4.7 0 1.6 4.8 6.1 7.3 7 .9.4 1.7 1.3 1.7 2 0 .8.8 2.1 1.7 2.8 1.5 1.2 1.6 1.2 1-.4-.8-2.1-.3-2.1 2.8-.1 2.2 1.5 2.5 1.5 2.5.1 0-1.5-3.1-3.8-7.2-5.3-.9-.3-1.8-1.4-2.1-2.5-.4-1.3-1-1.7-2.3-1.2-1.3.5-1.6.3-1.2-.9.7-1.7-6.4-9.4-7.9-8.5-.5.3-2.4-.8-4.2-2.4-1.9-1.6-3.5-2.9-3.7-2.9-.2 0 .3 1.5 1 3.2zm30.6-2.4c0 1.6 5.1 9.1 6.3 9.2 1.2 0 .8-1.8-.7-3.7-.8-1-2.4-2.9-3.5-4.3-1.2-1.4-2-1.9-2.1-1.2zm7.2 3.2c0 1.4.2 1.9.5 1.2.2-.6.2-1.8 0-2.5-.3-.6-.5-.1-.5 1.3zm54.8.5c0 .4.7 1.9 1.5 3.5 2.2 4.2 3.8 3.7 1.8-.5-1.4-3-3.3-4.7-3.3-3zm-5 1.4c0 .5.7 1.2 1.6 1.5 1.4.5 1.5.4.4-.9-1.4-1.7-2-1.9-2-.6zm-87.8 5.5c.7 2.1 2.1 4.5 3.2 5.3 7.2 5 31 20.3 31.7 20.3 2.5 0-.9-3.5-6.1-6.4-1.1-.6-3.6-2.3-5.7-3.7-2.1-1.4-7.5-4.9-12-7.9-4.6-2.9-8.3-5.5-8.3-5.9 0-.3-.9-1.7-2-3.1l-1.9-2.5 1.1 3.9zm71.8-2.4c0 .5.5 1 1 1 .6 0 1-.5 1-1 0-.6-.4-1-1-1-.5 0-1 .4-1 1zm32 1c0 .5.5 1 1.1 1 .5 0 .7-.5.4-1-.3-.6-.8-1-1.1-1-.2 0-.4.4-.4 1zm135 .5c0 .8 5 8.5 5.5 8.5.6 0-1.1-4.3-2.7-6.9-1.2-1.9-2.8-2.8-2.8-1.6zm-216 1.7c0 1.9 4.8 6 6.1 5.2 1.2-.7.1-2.4-1.6-2.4-.8 0-2.1-1-2.9-2.2-1.3-1.8-1.6-1.9-1.6-.6zm-47.7 3.8c-.3 1.1-1 2-1.5 2-.6 0-1.9 1.2-3 2.6-1.2 1.4-3 2.9-4.1 3.3-1.9.7-1.8.9 1.1 2.3 3.4 1.8 4.8 1.3 2.9-1-1-1.3-.9-1.4.9-.8 1.5.5 2.4.2 2.8-1 .6-1.5.8-1.5 2.6.1 2.4 2.1 2.6.8.5-2.2-1-1.4-1.3-3.2-.9-4.8.3-1.4.3-2.5-.1-2.5s-.9.9-1.2 2zm17.4-.3c-.3.5-.1 1.7.4 2.8.7 1.7.8 1.7.8-.8.1-2.7-.4-3.4-1.2-2zm200.8 7c.3 1.6 1.1 3.2 1.7 3.8.8.7.9.4.4-.8-.3-1-.6-2.7-.6-3.8 0-1-.5-1.9-1.1-1.9-.7 0-.9 1-.4 2.7zm-2.4 1.9c-.1 1.7.5 3.7 1.3 4.3.9.8 1.4 5.5 1.8 17.5.7 20.7 2.3 24.6 3.3 8.2.6-10.7.5-11.9-1.1-13.2-1.7-1.2-1.7-1.3-.1-.8 2.1.8 2.4-2.1.2-3-.8-.3-1.5-1.3-1.5-2.3.1-1.7.2-1.6 1.5.1 1.5 1.9 1.5 1.9 1.5-.2 0-2.6-2-7.2-3.2-7.2-.4 0-1.4-1.5-2.2-3.3l-1.4-3.2-.1 3.1zm5.1 23.6c-1 2.2-1.1 2.1-1.1-1.2-.1-2.6.2-3.1 1.1-2.2.8.8.8 1.7 0 3.4zm-235-23c-.7.7-1.2 2-1.2 3 0 1.1-1.8 3.6-4 5.7s-4 4.3-4 5c0 2.1 8.7-7.3 10.3-11.2 1.6-3.7 1.1-4.7-1.1-2.5zm236.9 1.8c0 1.9.6 5.3 1.4 7.5 1.8 5.2 1.9 1.2 0-6-1.2-4.7-1.3-4.8-1.4-1.5zm-222.6.8c-.3.3 1.2 1.5 3.2 2.7 2 1.3 4.8 4 6.2 6 3 4.4 5.2 5.7 4.4 2.6-1.3-5-11.6-13.4-13.8-11.3zm228.4 3.9c-.1 3.9-.3 4.3-.9 2.3-.7-2.1-.8-1.9-.9 1.6-.1 5.6 2.4 6.8 3.3 1.6.9-5.4.7-9-.4-9.7-.6-.4-1 1.3-1.1 4.2zm22.8-2.6c.7 2.7 2.3 3.4 2.3 1.1 0-1.1-.6-2.2-1.4-2.5-1-.4-1.2 0-.9 1.4zm-2.7.6c0 .4.5 1.5 1 2.3.8 1.3 1 1.3 1-.2 0-.9-.4-2-1-2.3-.5-.3-1-.3-1 .2zm-34.9 1.3c-.1 1.5 1.5 21.3 2.3 28 .2 1.9.8 7.3 1.2 11.9.4 4.9 1 7.8 1.5 6.9.4-.7.4-4.7-.1-8.8-.4-4.1-1.3-12.9-2-19.5-1.2-11.7-2.7-21.5-2.9-18.5zm26.1 5.2c-.6 1.8-1.5 7.1-2.1 11.7-.6 4.6-1.3 8.6-1.5 8.8-.2.2-.6-1.1-1-2.9-.3-1.7-.2-3.6.4-4.2.5-.5 1-2.6.9-4.6l-.1-3.5-1 4c-.6 2.2-1.4 4.2-1.8 4.5-.4.3 0 3.3.7 6.7 1.2 5.1 1.8 6.3 3.4 6.3 1.5 0 1.9-.7 1.9-3.8 0-2 .3-4.8.7-6.1.4-1.7.3-2.2-.5-1.7-1.5.9-1.5-.9.2-10.4 1.5-8.2 1.4-10-.2-4.8zm-2.3 25.2c-.9.8-1 .5-.5-1.4.3-1.4.7-3.4.7-4.5.1-1.1.4-.5.6 1.4.3 1.9-.1 3.9-.8 4.5zm-144.7-22.9c0 1.6.2 2.2.5 1.2.2-.9.2-2.3 0-3-.3-.6-.5.1-.5 1.8zm-57.2 0c-.8.9-.8 1.5-.2 1.5 1.2 0 2.6-1.9 1.9-2.6-.2-.2-1 .2-1.7 1.1zm206.6 1.2c-1.3 6.5-1.8 10.8-1.3 10.3.7-.7 2.8-12.2 2.3-12.7-.2-.3-.7.8-1 2.4zm-159.5.3c.1.8.5 2.6.9 4l.8 2.5.1-2.5c0-1.4-.4-3.2-.9-4-.9-1.3-1-1.3-.9 0zm141.3.4c-.3.8-.1 2.3.5 3.3.9 1.5 1 1.3 1.1-1.5 0-3.4-.7-4.2-1.6-1.8zm-136.8.4c-.3.6.1 1.3 1 1.6 2.3.9 2.8.2 1-1.3-.8-.7-1.7-.8-2-.3zm-71.6 1c0 2.4 17 11.5 23.5 12.6 2.2.4 7.1 2.5 10.8 4.7 3.8 2.1 7.1 3.9 7.5 3.9 2.3 0 14.3 6.6 14.8 8.2.3 1.1 2.1 2.6 3.8 3.3 1.8.8 5.3 3.1 7.7 5.1 2.4 2 6.9 5.4 10 7.5 3.1 2.1 8 6.3 11 9.4 6.3 6.4 16.9 15.1 16.9 13.7 0-.5-1.1-1.7-2.5-2.6-1.4-.9-3.9-3.3-5.7-5.3-5.6-6.1-12.8-12.7-15.6-14.2-1.5-.8-4.3-2.7-6.2-4.3-4.5-3.7-4.6-3.8-10.2-7.6-2.6-1.8-6.1-5-7.8-7.1-3.6-4.4-10.7-8.8-12.1-7.4-.6.6-4-.6-9.2-3.3-4.5-2.3-10.7-5-13.7-6-5.1-1.7-14.1-6.3-19.2-9.9-2.5-1.7-3.8-1.9-3.8-.7zm-41 1.6c0 .9-.9 3-2 4.8-2.2 3.6-2.5 4.8-1.1 4.8 1.1 0 5.1-6.6 5.1-8.5 0-.8-.4-1.7-1-2-.5-.3-1 .1-1 .9zm75.6.5c-.4.7-.5 1.5-.2 1.8.9.9 1.9-.4 1.4-1.8-.4-1.1-.6-1.1-1.2 0zm193 5.4c-1 3.6-1.6 7.2-1.4 7.8.2.7 1.2-1.7 2.2-5.4 1-3.6 1.6-7.2 1.4-7.8-.2-.7-1.2 1.7-2.2 5.4zm-12.5-2.6c0 2.5.1 2.6.9.8 1.2-2.7 1.2-3.5 0-3.5-.5 0-1 1.2-.9 2.7zm-3.4 4c.3 2.7 1.1 5.1 1.7 5.5 1.5 1 2.1-3.1.7-4.5-.6-.6-1.1-2.1-1.1-3.4 0-1.3-.4-2.3-1-2.3s-.7 1.9-.3 4.7zm-3.9 5.3c-.2 5.1.1 7.4 1 7.7.6.3 1.2 1.1 1.2 1.9 0 .8.5 1.4 1 1.4.6 0 1-1.5 1-3.3 0-2.3-.3-2.8-.9-1.8-.7 1-1.1.1-1.6-3.2-.4-2.6-.5-5.3-.2-6 .3-.8.1-2-.3-2.7-.5-.8-1 1.6-1.2 6zm-255.9.2c-.6 1.2-2.1 3.1-3.1 4.2-1.1 1.2-3.2 3.9-4.6 6.1-3.2 5.1-4 5.6-6.9 4.2l-2.4-1.1 2.8-1.3c2.7-1.3 2.7-1.3-1.2-.7-5.5.8-7.5 2.1-7.5 4.8 0 1.3-.7 4.2-1.5 6.5s-1 3.9-.5 3.6c.6-.3 1-1.1 1-1.6 0-.6 1.2-2.6 2.7-4.5 2.4-3.3 2.9-3.5 6.5-2.9 3.7.7 4.2.4 7.9-3.6 2.1-2.3 3.9-5 3.9-6s.6-2.2 1.3-2.6c1.5-.9 4.7-5.4 4.7-6.5 0-1.6-2-.7-3.1 1.4zm263.3 1.4c-1.4 1.6-.9 4.9.7 4 1-.7 2.1-5.6 1.2-5.6-.3.1-1.2.8-1.9 1.6zm-90.3 16.8c1.4 1.4 3.1 2.6 3.8 2.6 2.1 0 .6-1.8-3-3.6l-3.2-1.7 2.4 2.7zm-190.3 6c-2 3.8-1.9 12.7.3 14.9.8.8 1 0 .5-3.6-.5-3.2-.3-4.7.5-4.7.6 0 1.1.6 1.1 1.4 0 .8.7 1.6 1.5 2 2 .7 1.9-.3-.5-4.2-2.2-3.5-1.8-6.1.6-4.2.7.7 1.9 1 2.6.7.8-.4.5-.8-1-1.3-1.2-.3-2.1-1.3-2-2.2.6-2.9-1.8-2.2-3.6 1.2zm186.4-2.7c.1.8 7.7 6.2 11.8 8.3 1.3.6 2.8.9 3.5.7.7-.3-.1-1-1.7-1.6-1.6-.6-4.2-2.3-5.8-3.6-1.6-1.4-3.6-2.5-4.4-2.5-.8 0-1.4-.5-1.4-1 0-.6-.4-1-1-1-.5 0-1 .3-1 .7zm-108.9 2.1c-.7 1.3-1.1 2.6-.8 2.8.8.8 2.9-2.5 2.5-3.8-.3-.8-.9-.4-1.7 1zm5.7-1.2c-.5.4-.8 1.6-.8 2.8 0 1.4.3 1.7 1.1.9.6-.6.9-1.9.7-2.8-.1-.9-.6-1.3-1-.9zm114.8.9c.4.8 1.3 1.5 2.1 1.5 1.3 0 1.3-.3.3-1.5-.7-.8-1.6-1.5-2.1-1.5s-.6.7-.3 1.5zm-136.6 3c-1.7 2.1-.8 2.8 1.5 1.1 1.1-.8 1.4-1.5.8-1.9-.6-.4-1.6 0-2.3.8zm-71.9 2.9c-1.2 1.5-3.3 7.6-2.6 7.6.3 0 1.4-1.8 2.5-4.1 2.2-4.2 2.2-6.1.1-3.5zm44.2 5.6c.6 1.6 1.5 3 2 3s.7-.7.3-1.5c-.9-2.3 1.1-1.8 9.5 2.5 7.7 3.9 10.6 4.9 9.4 3.1-1-1.7-17.7-10.1-20-10.1-2.2 0-2.2.2-1.2 3zm38.8-1.4c0 1.1.3 1.4.6.6.3-.7.2-1.6-.1-1.9-.3-.4-.6.2-.5 1.3zm97.9-.8c0 1.7 3.1 7.2 4.1 7.2 1.4 0 1.1-1.6-.6-3-.8-.7-1.5-1.8-1.5-2.6 0-.7-.4-1.6-1-1.9-.5-.3-1-.2-1 .3zm37.5 1.8c3.6 2.8 6.1 3.6 3 1-1.6-1.4-3.4-2.6-4-2.6-.5.1-.1.8 1 1.6zm-40.5.1c0 1.2 4.9 7.3 5 6.2 0-.3-1.1-2-2.5-3.9s-2.5-2.9-2.5-2.3zm30.6 2.1c2.1 1.6 4.5 3.6 5.3 4.5.7.9 2 1.7 2.8 1.7 2.3 0 .1-2.3-5.6-5.9-6-3.9-7.7-4-2.5-.3zm65.4-2.1c0 .7 2.9 2.7 8.9 6 5 2.8 4 .6-1.4-3s-7.5-4.5-7.5-3zm-80.4 3.3c1 3.8 3.2 8.7 3.2 7 0-.8-.8-3.3-1.9-5.5-1-2.2-1.6-2.9-1.3-1.5zm-5 3c.3 2.5 1.1 4.9 1.6 5.5.7.7.8-.3.3-3-1-5.9-2.7-8.1-1.9-2.5zm-12.6-2.2c0 .5.9 1.7 2 2.7 2.2 2 2.6.9.6-1.8-1.4-1.8-2.6-2.2-2.6-.9zm-184 4.8c-3.9 5.8-7 8.6-8.9 7.9-.7-.3-3.5-.2-6.2.1-3.9.5-4.9 1-4.9 2.5 0 1.4.7 1.9 2.9 1.9 1.8 0 3.1.6 3.5 1.7.5 1.3.9 1.4 1.9.4.9-1 .8-1.5-.5-2.5-1-.7-1.8-1.6-1.8-2 0-1.2 5.8-.6 6.3.6.5 1.4 7.7-5.6 7.7-7.5 0-.6.9-2.1 2.1-3.3 1.2-1.2 1.9-2.8 1.7-3.5-.2-.7-1.9.9-3.8 3.7zm25.5-1.6c1 1.1 2.5 2 3.3 2 1.2 0 1.2-.4-.3-2-1-1.1-2.5-2-3.3-2-1.2 0-1.2.4.3 2zm211.1.1c1 1.2 3.2 2.8 4.9 3.5 2.8 1.4 2.7 1.2-.9-2.1-4.3-3.8-7.1-4.8-4-1.4zm-83.1-.1c.3.5 1 1 1.6 1 .5 0 .9-.5.9-1 0-.6-.7-1-1.6-1-.8 0-1.2.4-.9 1zm46.6-.5c.1 1.9 1.8 5.1 1.8 3.5 0-.8-.4-2.2-.9-3-.5-.8-.9-1.1-.9-.5zm86.1 2.7c1.9 2.8 7.6 6.3 8.6 5.3.4-.4.1-1-.6-1.2-.8-.3-2.7-1.8-4.3-3.4-3.6-3.5-5.8-3.9-3.7-.7zm-59.2-.2c0 .5.5 1 1.1 1 .5 0 .7-.5.4-1-.3-.6-.8-1-1.1-1-.2 0-.4.4-.4 1zm-86.7 3.1c-1.8.5-3.3 1.4-3.3 2 0 .6.7.8 1.6.5 1.2-.5 1.4-.1.8 1.7-.6 2-.4 2 2.4-.6 2.2-2.1 3.6-2.7 5.1-2.2 2.4.7 2.9-1 .5-1.9-1.9-.7-3-.7-7.1.5zm50.5.5c1.9 3.4 7.1 8.9 7.2 7.6 0-2.3-1.9-5-5.1-7.3-2.8-2-3-2-2.1-.3zm-114.8 2.4c0 .5.4 1 .9 1 .6 0 1.3-.5 1.6-1 .3-.6-.1-1-.9-1-.9 0-1.6.4-1.6 1zm79 0c0 .5.4 1 1 1 .5 0 2.5 1.6 4.5 3.5 2.5 2.5 3.5 3.1 3.5 1.9 0-.9-1.4-2.9-3.1-4.5-3.1-2.9-5.9-3.8-5.9-1.9zm20.6-.1c-.9 1.5 22 19.8 29.3 23.4 4.1 2 5.1 2.1 5.1.4-.1-.6-4.2-4.1-9.3-7.5-5.1-3.5-12.3-8.8-16.2-11.8-7.3-5.6-8-6-8.9-4.5zm-151.6 1.3c0 2 4.8 6 6.2 5.2.5-.3.8-.7.6-.8-.2 0-1.8-1.4-3.6-3-2.4-2.2-3.2-2.6-3.2-1.4zm213.5-.4c1.6 1.7 14.5 7.2 14.5 6.2 0-1.1-2.3-2.4-7.6-4.3-2.1-.8-4.8-1.8-5.9-2.2-1.4-.6-1.7-.5-1 .3zm-7 2.2c.3.5 1.4 1 2.3 1 1.5 0 1.5-.2.2-1-2-1.3-3.3-1.3-2.5 0zm58.8.7c1.3 1.2 8.7 4.2 8.7 3.5 0-1.1-5.6-4.2-7.6-4.2-.9 0-1.4.3-1.1.7zm-316.8 4.7c-1.4 2.3-3.4 5.1-4.5 6.1-2.1 1.9-2.6 3.5-1.1 3.5 1.1 0 10.1-11.6 10.1-13 0-2.3-2.1-.7-4.5 3.4zm161.9-2.1c-1.5 1.3-2.5 2.9-2.3 3.6.3.8 1.5 0 3.2-2.3 3.2-4.2 2.9-4.6-.9-1.3zm11.6-1.3c0 .5.7 1 1.6 1 .8 0 1.2-.5.9-1-.3-.6-1-1-1.6-1-.5 0-.9.4-.9 1zm145 2.4c0 .8 4.7 5.6 5.4 5.6 1.4 0 .5-2.3-1.6-4.1-2.2-1.8-3.8-2.4-3.8-1.5zm-147.9 2.2c0 1.1.3 1.4.6.6.3-.7.2-1.6-.1-1.9-.3-.4-.6.2-.5 1.3zm110.5-.2c.8 2 4.9 4.5 4.2 2.5-.2-.7-1.4-1.9-2.6-2.7-2-1.3-2.2-1.3-1.6.2zm-76.2 3.2c1.5 1.4 3.1 2.2 3.5 1.9.7-.7-3.9-4.5-5.4-4.4-.5 0 .3 1.1 1.9 2.5zm-72.7 5c3.7 3.1 7.8 6.1 9.1 6.7 2.5 1.1 2.8 2.2 1 3.1-1 .5-1 .7.1 1.2 1.9.9 12.3 9.3 13.9 11.2 1 1.4 1.2 1.2 1.2-1.2 0-1.8-.6-3-1.7-3.3-1-.2-3.4-2.4-5.3-4.9-1.9-2.4-3.8-4.4-4.2-4.4-.5 0-1.6-.8-2.6-1.8-4.5-4.3-15.9-12.2-17.7-12.2-.3 0 2.4 2.5 6.2 5.6zm-106-2.9c-.6.9 6.1 6.8 6.9 6.1.2-.2-1.1-1.9-3-3.7-1.9-1.8-3.6-2.9-3.9-2.4zm183.8 2.3c.3.5.8 1 1.1 1 .2 0 .4-.5.4-1 0-.6-.5-1-1.1-1-.5 0-.7.4-.4 1zm5.9 4.5c.8.8 1.8 1.5 2.2 1.5.3 0 .1-.7-.6-1.5s-1.7-1.5-2.2-1.5c-.5 0-.3.7.6 1.5zm-57.9.5c.3.5.8 1 1.1 1 .2 0 .4-.5.4-1 0-.6-.5-1-1.1-1-.5 0-.7.4-.4 1zm-1.6 4c2.5 2.2 4.1 2.6 4.1 1 0-1.1-3.3-3-5.2-3-.7.1-.3.9 1.1 2zm-78.9 1.7c0 .9 10.7 7.3 12.1 7.3.5 0 .9.4.9.9s.9 1.3 2 1.6c1.1.3 2 1.2 2 1.9 0 1.9 3.7 4.9 5 4.1.5-.3 3.6.5 6.7 2 4.6 2.1 5.4 2.2 4 .7-.9-1-1.7-2.6-1.7-3.5 0-.9-.5-1.7-1.1-1.7-.6 0-.9.7-.5 1.5.6 1.7-.9 2.1-1.9.5-.4-.6-2.4-2.2-4.6-3.6-2.1-1.3-3.8-3-3.6-3.7.1-.6-.7-1.2-1.8-1.3-2.5 0-4.9-1.1-10.4-4.6-4.4-2.7-7.1-3.5-7.1-2.1zm85.5 1.3c1.3 1.5 2.2 1.7 2.9 1 1.2-1.2-.8-3-3.3-3-1.1 0-1 .5.4 2zm-94 1c1 1.1 2.5 2 3.4 2 1.2 0 .9-.6-.9-2-3.3-2.6-4.8-2.6-2.5 0zm99.2 1.7c-.6.5 9.5 7.3 10.8 7.3.2 0 1.5 1 2.9 2.3 2.5 2.4 3.8 3.1 12.1 6.8 2.8 1.3 5.3 2.5 5.8 2.7.4.2.7-.1.7-.7 0-.5-2.1-2.2-4.7-3.7-6.4-3.6-13.7-8-20-12.1-5.3-3.4-6.5-3.8-7.6-2.6zm-87.2 7.3c.3.5 1.1 1 1.6 1 .6 0 .7-.5.4-1-.3-.6-1.1-1-1.6-1-.6 0-.7.4-.4 1zm127.5 2.4c0 .9.5 1.6 1 1.6.6 0 1-.4 1-.9 0-.6-.4-1.3-1-1.6-.5-.3-1 .1-1 .9zm-95.5 3.7c4 1.8 9.8 2.7 8 1.1-1.2-1-8.7-3.2-10.6-3.1-.8 0 .4.9 2.6 2zm43.1-.3c-.9 2.9.3 5.1 1.6 2.8.5-1 .5-2.3 0-3.3-.9-1.4-1-1.4-1.6.5zm-42.6 5.7c.7.8 2.1 1.5 3.1 1.5s2.1.4 2.4 1c.3.5 1.1 1 1.8 1 .6 0-.4-1.1-2.3-2.5-3.9-2.9-7.1-3.5-5-1zm-1 9.5c0 .5.5 1 1.1 1 .5 0 .7-.5.4-1-.3-.6-.8-1-1.1-1-.2 0-.4.4-.4 1zm6 3.9c0 .5.7 1.2 1.6 1.5 1.4.5 1.5.4.4-.9-1.4-1.7-2-1.9-2-.6zm6.5 5.1c.3.5 1 1 1.6 1 .5 0 .9-.5.9-1 0-.6-.7-1-1.6-1-.8 0-1.2.4-.9 1z"/>
</svg>
