<?xml version="1.0" encoding="utf-8"?>
<svg xmlns="http://www.w3.org/2000/svg" version="1.0" viewBox="0 0 323 383">
	<title>A small boy riding a horse.</title>
	<path d="M201.5 1c.3.5 1.2 1 1.9 1 .8 0 1.8.6 2.4 1.3.8 1 .1 1.2-3.3 1.2-2.4 0-4.7-.4-5.2-.9s-.1-.7 1-.3c2.1.8 2.3-.9.1-1.7C194.7.2 185 2 185 4.1c0 .5-1.3.9-2.9.9s-3.9.9-5.2 2l-2.4 1.9 3.3.1c1.8 0 4 .8 5.2 2 2.2 2.2 1.2 3.3-2.5 2.4-1.9-.5-3-.1-4.5 1.7-1 1.3-1.9 1.9-2 1.3 0-.5.5-1.5 1.1-2.1.8-.8.8-1.3 0-1.7-.6-.4-1.9.6-2.8 2.2-1 1.6-2.4 2.7-3.2 2.4-1.1-.4-1.3.3-.8 3.2.4 2.3.1 4-.7 4.9-.7.7-1.6 2.2-2 3.4-.6 2-.8 2-3.7-.8-1.7-1.6-3.6-2.6-4.2-2.2s.7 2.2 3.4 4.6c2.4 2.2 3.6 3.7 2.7 3.3-1-.3-2.6-.9-3.5-1.3-1.4-.5-1.3-.1.5 1.9 2.9 3.2 2.8 3.8-.5 3.8-1.6 0-3.5.5-4.3 1.1-1.1.8-.5.9 2.4.5 3.4-.5 3.8-.3 3.3 1.4-.3 1.3 0 2 .9 2 2.4 0 6.4 3.1 6.4 5 0 1 1 2.5 2.3 3.4l2.2 1.7-2.7-.6c-4.5-.9-7.6 1-8.4 5-.7 3.7-1.3 4.2-3.2 2.3-.9-.9-1.9-.5-4.5 2-2.3 2.2-3.8 3-5.4 2.6-1.6-.5-2.5.1-3.6 2.3-.8 1.5-3.8 5.3-6.7 8.3-2.8 3-6.2 7.1-7.4 9-1.3 1.9-3.1 4.1-4 4.9-.9.7-1.6 1.8-1.6 2.4 0 .5-.7 1.5-1.5 2.1-1.3.9-1.4 1.9-.4 7 1.1 5.1 1.7 6.1 4.7 7.9 2 1.2 3 2.3 2.4 2.5s-2.2-.4-3.5-1.2c-1.3-.9-2.7-1.3-3-.9-.4.3-.7-.2-.7-1.2 0-1.4-.3-1.5-1.5-.5s-1.5 1-1.5-.3c0-.8-.3-2.2-.6-3.1s-.1-1.6.4-1.6c.6 0 1.3.8 1.5 1.7.3 1 .5-.2.6-2.5.1-4.8-1.5-5.3-3.6-1.1-2.1 4.3-10.3 13.2-14.9 16.1-4.9 3.1-5.4 4.2-2.4 5.8 2.7 1.4 2.5 3.6-.5 6.5-1.3 1.4-2.1 2.5-1.7 2.5.3 0-.4.7-1.6 1.6-1.2.8-2.2 2.5-2.2 3.7s-.5 2.9-1.1 3.7c-.9 1.3-1 1.2-.5-.3.3-1.1.2-1.6-.4-1.2-1.6 1-3.8 5.7-4.5 9.8-.4 2-1.2 3.7-1.7 3.7-.6 0-.8-.7-.4-1.5.7-1.8-.8-2-2.2-.2-1.5 1.8-1.2 14.7.3 17.2.8 1.1 1.5 3.5 1.7 5.3.2 2.8-.3 3.8-3.2 6.3l-3.5 2.9 3.3 2.9c2.6 2.2 3.2 3.4 2.7 5-.4 1.5-.2 2.1.9 2.1.8 0 1.8-.4 2.1-1 .9-1.5 5.1-1.2 9.3.6 5.2 2.3 2.2 3-3.4.8-3.9-1.5-4.7-1.5-5.5-.3-.5.8-.7 1.9-.5 2.5.7 1.7-4.2 3.5-7.8 2.9-2.6-.5-3.4-.1-5.1 2.1-4.3 5.9-5.2 6.5-10.5 7.9-11.7 2.9-15.5 4.3-15.2 5.4.1.6-.2 1.1-.8 1.1-.5 0-1 .4-1 .9 0 .4 1.1.6 2.5.3 1.4-.2 2.2-.8 1.9-1.3s.8-.9 2.5-.9c1.6 0 3.3-.5 3.6-1 .3-.6 2.1-1 4-1s3.6-.4 3.9-.9c.4-.5-.4-.7-1.6-.5-2.1.4-2.1.4-.3-.4 1.2-.6 3-.6 4.5 0 1.3.5 4 .8 6 .8 1.9-.1 6-.1 9-.1 5.2.2 5.4.3 3.5 1.7-1.9 1.5-1.9 1.5 1 .8 1.7-.3 3.5-1.3 4.1-2 1.5-1.8 2.8-1.8 2.1 0-.4.9.3 1.6 1.8 1.8 2.7.6 11.5-1.3 11.5-2.4 0-.5.5-.8 1.2-.8.6 0-.1 1.3-1.7 3-1.5 1.6-3.2 2.7-3.7 2.4s-2.1-.3-3.6.1c-2 .5-2.3.8-1.2 1.5.8.5 1.7.7 2 .5s3.3-.6 6.6-.9c3.2-.3 6.1-1.1 6.2-1.6.3-.7.8-.7 1.8 0 1.3 1.2 3.4.6 3.4-1 0-.5-1-1.1-2.2-1.3-1.3-.2-.3-.5 2.1-.6 3.5-.1 4.2.2 3.7 1.4-.3.9.1 1.8.8 2.1.8.3 1.7 1.7 2.1 3.2s1.5 3.5 2.5 4.4c1.5 1.4 1.8 2.7 1.4 6.5-.7 5.6-.3 6 10.5 10 9.7 3.6 10.4 3.8 9.9 2.3-.6-1.9-6.1-4.6-8.2-4.1-.6.1-2.9-.5-5.3-1.4-4.5-1.8-6.1-4.4-5-8.7.3-1.2.2-2.9-.4-3.9-.8-1.5-.6-1.7.7-1.2 1.2.5 1.5 1.5 1.1 5.2-.3 2.5-.3 3.8-.1 2.8.3-.9 2-2.5 3.7-3.3 3.1-1.6 3.1-1.6 6 1.6s5 4.1 15.7 6.3c5.6 1.2 15 7.5 15 10.1 0 .6.7 2.4 1.6 4.1.8 1.6 1.7 4.7 1.9 6.9.4 4.1 2.4 7.1 3.2 4.8.5-1.3 2.3-.7 2.3.9 0 .6-.4.7-1 .4-2.1-1.3-.9.8 1.5 2.7 1.4 1.1 2.5 2.6 2.5 3.4s.5 1.4 1 1.4c.6 0 .3-1.6-.6-3.7s-1.8-4.4-2.1-5.1 0-1.9.7-2.7c1.1-1.3.7-1.7-1.9-2.6-1.7-.6-3.6-2.1-4.3-3.3-1.1-2-1-2 .9-.3 4 3.5 3.7.6-.4-3.8-1.1-1.1-2.7-3.4-3.7-5.1s-3.2-3.9-4.7-4.8c-1.6-1-2.9-2.4-2.9-3.2s-.5-1.4-1-1.4c-.6 0-2-.9-3.2-2-2.1-1.9-2.1-2.1-.4-5.6 1.1-2.4 1.4-4 .7-4.7-1.3-1.3-3.3.1-2.8 2.1.5 2.4-2.1 7.2-3.8 7.2-1.9 0-3.1-4.8-1.6-6.3 1.4-1.4 1.4-5.4.1-6.2-1.2-.7-1.6.4-2.5 6.7l-.6 4.8-2.2-2c-1.9-1.8-2-2.4-.9-5.2.6-1.7.9-3.4.6-3.7-.7-.8-2.4 1.9-3.1 5.2-.3 1.5-1.1 2.6-1.7 2.4-1.4-.5-1-6.1.5-6.6.6-.2 2.8-1.9 4.7-3.7 2-1.9 4.2-3.4 4.9-3.4s1.3-.6 1.3-1.4c0-1.8-2.7-2.9-3.4-1.3-.2.7-.5.1-.5-1.2-.1-2.3.1-2.4 5.1-1.8 2.8.4 5.5 1.2 6 1.9.6 1 .8 1 .8 0 0-1.9 2.1-1.4 7.7 1.8 4.1 2.4 5 3.3 4.6 5-.5 1.9-.7 1.9-2.2.6-2.5-2.3-13.9-5.2-15.2-3.9-.8.8.2 1.3 3.3 1.8 6.2 1.1 11.5 4 13.3 7.5.9 1.7 1.1 3 .6 3-2.1 0-4.1-1.3-4.1-2.7 0-.8-.5-1.1-1-.8-.6.3-1 .1-1-.4 0-.6-.4-1.1-.8-1.1-.5 0-1.4 2.8-2 6.2l-1.2 6.2 3.1 3c3.8 3.7 8 6.1 7.2 4-.3-.8 0-1.4.6-1.4s1.1.3 1.1.7c0 .5 1.5 2.3 3.3 4.2 4.8 5.1 6.7 8.3 6.6 11.1 0 2.3-.1 2.3-.9.5-.5-1.1-3-4.3-5.5-7-5.1-5.5-5-4.6.3 2.8 3.4 4.7 7.2 13.3 7.2 16.3 0 .8 1 2.8 2.1 4.4 1.8 2.4 2.1 3.7 1.6 8.1-.7 5.8.7 13.2 2.9 15 .8.6 1.4 2 1.4 3s.3 2 .8 2.2c.9.6 1.3-2.7 1.4-11.6 0-3.7.2-6.7.4-6.7s1 1.2 1.8 2.7c2.2 4.1 1.9.6-.5-5.7-1.2-3-2.3-6.6-2.6-7.9-.5-2.1-.4-2.2 1.5-1.2 2.7 1.5 3.2 1.4 3.2-.4 0-1.2.9-1.4 3.6-1.1 1.9.3 4.2 1 5 1.6 2.1 1.9 7.5.6 25.6-6.3 7.2-2.7 12.7-6.3 12.7-8.6.1-.7 1.2-2.6 2.6-4.3 4.9-5.9 2.5-11.2-6.3-13.5-5.9-1.5-13.6-1.7-12.7-.3.4.6 1.5.8 2.6.5 2.6-.9 8.4.4 7.2 1.6-1.3 1.3-28.3-1.8-33.3-3.8-.8-.3-2.4-.7-3.5-.8-15.9-2-36.5-5.8-36.5-6.7 0-1.1 8.6-.1 23 2.5 6.3 1.2 13.4 2.1 15.8 2.1 2.3 0 4.2.4 4.2.8 0 .5.4.8 1 .8.5 0 .7-.7.3-1.7-.6-1.4 0-1.5 4.5-1 3.1.4 5.2.2 5.2-.3 0-1.7 2.5-1.1 3.7.9 1 1.6.9 2-.4 2.5-1.1.4-1.4.2-.9-.9.6-1.6-1.9-2.2-2.8-.6-.3.5-1.5.7-2.6.4s-2-.1-2 .5c0 .5 1.9 1.2 4.3 1.5 2.3.3 5.2.9 6.4 1.2 2.1.7 2.1.6.8-3-1.3-4-3.7-6-6.1-5.1-1.7.7-1.7.4-.2-2.9 1.8-4-.2-7.1-6.9-10-3.2-1.4-6.4-3.2-7.3-3.9-.8-.8-3.8-2-6.7-2.8-4.2-1.3-5-1.3-4.6-.2.3.8 2.2 1.8 4.2 2.4 2 .5 4.5 1.7 5.6 2.6 1.8 1.4 1.8 1.5.2 1-1-.3-1.5-.2-1.2.4.3.5 2.1 1.2 4 1.6 2 .3 3.8 1 4.1 1.5 1 1.6-3.6.9-7.9-1.2l-4.2-2.1 2.3 2.5c1.8 1.9 3.6 2.6 8 2.9 3.6.3 6 .1 6.4-.6.5-.7 1.2-.4 2.2.9 1.4 1.8 1.4 2.2-.3 3.5-3.2 2.8-10 4.5-12.2 3.2-1-.7-3-1.2-4.3-1.2-4.4 0-12.5-2.3-13-3.7-.4-1-.1-1.1 1.4-.3 2.5 1.3 6 1.3 6-.1 0-.7 1-.5 2.5.5 3 2 3.2 1.3.5-1.6-1-1.1-3-2.2-4.2-2.2-6.2-.4-10-2.1-14-6-3.9-3.7-4.1-4.1-2.2-4.4 1.2-.2 3.9.4 5.9 1.2 4.4 1.9 4.5 1.9 4.5.6 0-.5-1.5-1.3-3.2-1.8-1.8-.5-3.2-1.4-3-2.1.1-.6-.9-1.6-2.4-2.1-1.4-.6-2.3-1.4-2-1.9.3-.4.1-2.3-.4-4-.7-2.4-.6-3.1.3-2.7.7.3 2 .9 3 1.2 2.5.9 2.1 2.3-.5 1.6-2-.5-2.1-.3-1 1.1.7.8 2.7 1.9 4.3 2.2 1.6.4 2.9 1 2.9 1.4s1.3 1.5 3 2.4c3.9 2.3 3.9.8 0-1.8-1.7-1.1-3.2-2.7-3.5-3.6-.7-2.1-9.2-10-13.7-12.8-4.2-2.5-5-1.4-1.8 2.7 2.1 2.6 2 7.1-.1 9.7-.4.6-.1 3 .7 5.4 2.6 7.5.5 7.5-14.9 0-4.7-2.3-5.1-2.3-4.3-.4.3 1-.1 1.5-1.3 1.5q-1.95 0-1.5-1.8c.2-.9 0-2.3-.5-3.1-.8-1.2-1.2-1.2-2.6.2-.9 1-2 1.7-2.4 1.7-1.2 0-1.1-5.3.1-6.7.5-.6 1.1-3.4 1.2-6 .1-2.7.6-5.4 1-6.1 1.2-1.9 2.6-1.4 2.7 1 .1 1.7.2 1.9.6.5.7-2.6 1.9-2.1 4.3 1.9 2.8 4.5 3.6 3.8 1.3-1-1.4-3-1.5-3.9-.4-4.5 1.5-1 7 1.5 7.8 3.5.3.7 1.3 1.6 2.4 1.9 1 .4 1.9 1.5 1.9 2.5s.5 2.2 1 2.5c.6.3 1-.2 1-1.3 0-1-2.3-4.2-5.1-7.1-5-5.1-5-5.2-3.5-8.1 1.3-2.8 1.3-3.1-.6-4.1-1.8-.9-1.9-.8-1.3 1 .4 1.3.2 2.1-.5 2.1s-1 .8-.7 2c.3 1.1.1 2.3-.4 2.6-.8.5-1.4-1.8-1-4 .1-.5-.1-1.6-.4-2.5-.5-1.2-.8-1.2-1.4-.3s-1.2.7-2.6-.8c-1.9-2-1.8-2.1.3-2.7 1.2-.3 2.2-.9 2.2-1.3 0-.5 1.6-1.4 3.6-2 3.2-1.1 3.4-1.3 1.7-2.6-2.6-1.9-4.3-1.7-4.3.6 0 1.1-.3 2-.6 2-1.2 0-4.9-2.4-6-3.8-.9-1.3-1.2-1.3-1.7.2-.4.9-1.2 1.6-1.8 1.6-.8 0-.8-.4.1-1.5 1.1-1.4.7-1.9-1.2-1.6-.5 0-.8-.7-.8-1.7 0-.9-1.1-3.7-2.5-6.1-2.9-5.1-3-5.2-1-4.5.8.3 2 2.4 2.6 4.5.7 2.1 1.6 3.9 2.1 3.9.4 0 .8.7.8 1.5 0 2.3 3.8 1.8 5.1-.8.7-1.2 1.7-2.5 2.3-2.9.8-.5.7-.8-.1-.8-.7 0-1.3-.7-1.3-1.5 0-.9.6-1.2 1.5-.8.9.3 2.5-.3 3.7-1.3 2-1.8 2.1-1.8 1.5-.1-.4 1-.7 2.1-.7 2.3s-.7.4-1.6.4c-.8 0-1.3.4-.9.9.3.6-.4 1.5-1.6 2.2l-2.1 1.1 2.1 2.2c1.4 1.4 2.4 1.7 2.9 1 .4-.6 1.6-1.6 2.7-2.2 2-1.1 2-1.2-.2-1.8-1.3-.3-2.3-1-2.3-1.4 0-.5 1-.6 2.3-.2 2 .5 2.1.4.8-1.1-1.2-1.5-1.1-1.7.3-1.7.9 0 2.5.6 3.7 1.2 1.7 1.1 2.2 1 3-.5 1.1-1.9 3-2.3 2.6-.6-.1.6.5 1.4 1.3 1.7 1.1.4 1-.1-.4-2.3l-1.8-2.8 2.8.7c3.8 1 4.7 1.9 4.7 5 0 1.4.6 3.1 1.3 3.7 1.8 1.5 1.8 4.3-.1 5.9-1.2 1-2.9.8-8.8-1.4-7.8-2.8-8.7-3-8.7-1.8 0 .5 2.6 1.6 5.8 2.6 7.6 2.4 11.4 4.5 10.9 5.9-.5 1.6-7.6 1.9-10.4.5-2.9-1.4-3.8-.6-2.1 2.1 1.8 2.9 6.5 4.8 8.1 3.2.9-1 .9-1.2-.3-1.1-2.5.4-4 0-4-.8 0-.5 1.4-.6 3.1-.4l3.1.5-.6 5.4c-.4 3.6-.3 5.2.4 4.8.5-.3 1-1.8 1-3.3s.5-3.4 1.1-4.2c.8-1.2.9-1.1.5.5-1 3.9.8 8.8 3.9 10.6 1.7 1 3.6 1.8 4.2 1.8 2.3.2 13.1 8.5 14.8 11.5 1.7 2.8 1.7 2.8-.6 2.1-2.1-.7-2.2-.6-1 .9 1.6 2 2.2 2 4.6.2 1.7-1.2 1.5-1.8-4.3-8.5-3.4-3.9-6.2-7.6-6.2-8.2s-1-.9-2.2-.7c-1.7.2-2.3-.2-2.3-1.7 0-1.4-.8-2.1-2.7-2.3-1.4-.2-2.9-1-3.2-1.9-.5-1.3-.4-1.4.9-.3.9.7 1.8 1 2.2.7.9-1-1.8-3.8-3.6-3.6-2.9.3-3.6-.1-2.1-1.1 1.3-.9 1.2-1.2-.4-2.5-1.7-1.3-1.7-1.5-.4-1.5.9 0 2 .4 2.3 1 .3.5 1.6 1 2.9 1s3.5 1.3 4.9 3c3.2 3.5 5.2 3.8 6.7 1 2-3.7 4-2.4 4 2.6 0 4.5 0 4.6-3 3.9-1.9-.4-3-.3-3 .4 0 .6.7 1.1 1.5 1.1s1.5.6 1.5 1.2c0 1 .3.9.9-.1.5-.8 1.4-1 2.2-.6 1.9 1.2 8.9 2.3 8.9 1.4 0-.4-.6-.9-1.2-1.2-1-.3-.8-1 .5-2.4 1.7-1.9 1.7-2.2.2-3.7s-1.5-1.6.2-1.6c4.1.1 4.8 1.5 3.4 7.2-.8 2.9-2 6.1-2.9 7-1.3 1.5-1.3 2 0 4 .8 1.3 1.8 3.5 2.1 5 .8 3.2 5.4 8.8 7.1 8.8.7 0 2.4 1.5 3.7 3.2 5.2 7.1 9.5 10.4 16.6 12.7 8.7 2.8 12.6 5.2 19.7 11.9 5.6 5.3 7.7 9.4 5.7 10.7-.6.3-.9 1.1-.5 1.6 1.1 1.9 2.4-.3 2.4-4.1 0-3.2-.8-4.9-4.2-8.8-2.4-2.7-5.7-5.4-7.4-6.1-1.7-.6-3.9-2-4.9-3.1s-2.4-2-3.1-2c-1.4 0-6.2-1.9-13.1-5.2-3.8-1.8-8.5-6.1-10.7-9.7-1-1.6.7-.8 3.8 1.8 2.3 1.9 1.9 1.2-2.7-5.6-3.4-5.1-5-10-3.8-12 .6-1.2 1.2-.9 2.7 1.4 3.4 5.1 5.4 9.3 5.4 11.2 0 1 .7 2.4 1.5 3.1 1.8 1.5 2.1 5.5.4 4.4-.7-.4-1-.1-.7.6.2.8 1 1.6 1.6 1.8 1.9.6 1.5-5.6-.8-11.7-2.4-6.6-4.3-9.6-7.5-11.7-1.4-.9-2.5-2.5-2.5-3.6 0-2.2.2-2.1 7 .3 1.9.6 4 1.3 4.7 1.5s1.9 1.8 2.7 3.6c.7 1.8 6.4 8.5 12.6 14.8 12 12.2 15 16.1 15 19.8 0 1.3 1.7 3.8 4 6.1 4 3.9 4.1 4 3.4 9.3-.9 7-2 9.1-4.5 8.3s-4.6.4-2.8 1.6c2.3 1.4 5.5 1 7.1-.9 2.1-2.3 3.1-11.7 1.5-14.5-.7-1.2-2.4-3.7-3.9-5.5-1.7-2-2.8-4.5-2.8-6.3 0-3.2-3.5-10.9-4.9-10.9-.5 0-1.3-1.5-1.7-3.3-.4-1.7-.9-2.6-1.1-2-.3.7-.9 1.3-1.5 1.3s-.8-.7-.5-1.4c.4-1.1.1-1.3-1-.9-1.2.5-1.5.2-1-1 .3-.8-.1-2.1-.9-2.7-.8-.7-1.4-1.8-1.4-2.5s-.7-1.8-1.5-2.5c-1.1-.9-1.3-1.5-.5-2s.3-1.9-1.4-4.5c-2.9-4.2-2.5-6.4.4-2.5 1.1 1.4 2.9 3.7 4 5.2 1.2 1.5 1.9 3.2 1.6 3.7s.2.8 1.2.7c1.1-.1 1.8.8 2 2.6l.3 2.7 2.1-2.1c1.6-1.6 1.8-2.2.7-2.9-.8-.5-1.7-.9-2.1-.9-1.4 0-.8-2 .5-2 1.7 0 10.8 10.9 10.1 12.1-.3.5.6 2.3 2 4s2.6 2.6 2.6 2c0-.5-.4-1.3-1-1.6-.5-.3-1-1.4-1-2.3 0-1.3.5-1.2 2 .8 2.2 2.9 2.5 4.7.8 5.2-.9.3-.9.6 0 1.2.7.4 1.2.2 1.2-.4s1.1-.3 2.6.6c1.4 1 2.3 2.3 2 3.1s-.1 1.1.4.8c.6-.3 1.9 1 3.1 2.9 1.2 2 2.4 3.6 2.8 3.6s1.3 1.1 1.9 2.5 1.8 2.5 2.7 2.5c2.1 0 1.9-.5-1-3.4-1.4-1.4-2.6-3.5-2.6-4.8-.2-3.8-.3-4.1-3.9-11.1-1.9-3.8-4.2-7.3-5.1-7.8-1-.5-2.7-2.9-3.9-5.4s-2.6-4.5-3.1-4.5-.9-.9-.9-2.1c0-1.4-.5-1.9-1.4-1.6-.8.3-3.5-1.4-6.1-3.9-2.6-2.4-4.2-4.4-3.5-4.4s3 1.6 5.1 3.5c2.2 1.9 4.5 3.5 5.3 3.5.7 0 2.6 1.7 4.2 3.7 1.5 2.1 3.1 3.9 3.5 4.1s2.2 2.6 4 5.3c1.7 2.7 3.4 4.7 3.7 4.5 1.1-1.2-14.4-20.5-16.6-20.6-.4-.1-2.5-1.6-4.6-3.4l-4-3.4 8.5.3c8.4.4 16.4 1.7 17.7 3 .4.4.6 5.9.4 12.3s-.1 11.4.3 11c.4-.3 1.2-4.2 1.9-8.5 1.1-7 1.4-7.8 3.4-7.7 2.5.1 2.8-.6 1-2.4-.8-.8-.8-1.2-.1-1.2.6 0 1.3.7 1.7 1.5.7 1.9 2.6 1.9 2.6 0 0-3.7 5.7-.7 7.4 3.9.6 1.8.7 1.8 2.6.1 1.1-1 2-2.6 2-3.5 0-3 2.2-8 3.2-7.4.7.4.7 0 .1-1.2-.5-1.1-1.6-4.5-2.3-7.7-1-4.5-1.1-6.3-.1-8.3.6-1.5 1.4-2.4 1.8-2 1 1 1.1 6.6.1 6-1.2-.8.1 6.7 1.4 8.1.6.6.8-4.4.5-13.8l-.4-14.8 3.3-1.4c3.9-1.6 3.9-1.6 1.7-5.8-1.3-2.5-1.7-6.2-1.7-17.4-.2-17-.9-18.6-5.9-12.8-4.4 5.1-6 4-8.1-5-.5-2.3-.4-2.7.4-1.5.9 1.1 1 .4.7-3.2-.3-2.7 0-4.9.6-5.1 1.5-.5-1.1-4.7-3-4.7-2.2 0-1-5.3 2.2-10 2.5-3.6 4.3-13.4 3.1-16.5-1-2.8-10.1 7.9-12.1 14.2-1.5 4.8-3.5 7.1-3.5 4.2 0-.8-.5-.7-1.5.1-2.1 1.7-2.9.7-1.6-1.8.6-1.2 1.1-2.7 1.1-3.4 0-2.3-3.9-5.8-6.3-5.7-1.9.1-1.7.3.9 1.4 3.6 1.6 5 4.1 3.3 6.2-1 1.1-1.5.8-3.1-1.7-1.5-2.6-6.9-6-9.4-6-.4 0-.4 2.9 0 6.5.6 6-.2 8.3-1.9 5.5-.3-.5-1.2-.7-2-.4-2.3.9-3.7-3.1-2.6-7.3.6-2.2.7-4.2.1-5.2-.8-1.4-.9-1.3-1 .3 0 1.1-.5 3.5-1.2 5.3l-1.2 3.3-4.3-4.8c-2.8-3.1-4.2-4.1-4.3-3 0 .9.5 2 1 2.3 1.3.8 1.3 3.5 0 3.5-.6 0-1.3-1.4-1.6-3-.4-1.7-1.1-3-1.6-3-1.4 0 .1 7.9 2.1 11.5 1.8 3 1.8 3.1-.5 4.2-2.5 1.2-3.7.6-4.7-2-.6-1.7-3.7-2.5-3.7-.9 0 .5 1.1 1.9 2.5 3.2 3 2.8 3.2 4 .5 3.3-1.5-.4-2 0-2 1.6 0 1.1-.5 2.1-1.1 2.1-.7 0-.8-1.4-.4-4 .9-5.4-.9-5.2-2.5.4-1.4 5.1-1.1 8.6 1 9.6 5.5 2.7 7.1 3.2 9.4 2.6 1.4-.3 3.2-1.9 4.1-3.6 1-1.9 2.3-3 3.8-3 1.2 0 3-.7 4.1-1.5 1.6-1.2 1.7-1.6.4-2.9-1.8-1.8-4.9-1.2-9.9 2-3.4 2.1-3.6 2.1-3.2.4.3-1 1.5-2.1 2.6-2.4 1.2-.3 3.8-2.1 5.7-4 4-4.1 5-4.4 5-1.7 0 3 3.8 5.3 6.1 3.8 1.1-.7 1.9-1.6 1.9-2.1 0-.6-.5-.5-1.2.2-1.2 1.2-4.8-.1-4.8-1.9 0-.6.7-.6 1.9.1 1.1.5 2.2.6 2.5.1 1.1-1.7 12-.9 15.6 1.2 1.9 1.1 2.9 1.4 2.3.7-2.3-2.5-1.4-3 2.2-1.3 3.8 1.8 4.5 3.3 1.8 3.4-1.6 0-1.6.1.1 1.2 3.7 2.4 6.6 5.8 6.6 7.9 0 1.8-.6 1.5-4-2.2-2.2-2.4-4.3-4-4.7-3.6s.3 1.6 1.7 2.6c2.7 2.1 2.1 2.6-1.1 1-1-.6-2.6-2.6-3.4-4.5-1.7-4.2-5.5-5.9-10.5-5l-3.5.7 3.7 2.1c2.1 1.2 3.8 2.8 3.8 3.5 0 1 .4.9 1.6-.2 1.7-1.8 3.4-1.3 3.4.9 0 .8 1.5 2.6 3.4 4 2.2 1.6 3.6 3.7 3.8 5.3.2 1.9.8 2.6 2.1 2.4 1.7-.3 2.4 1.3.8 2-1.3.5-2.5 6.8-1.3 6.8s3.7 6.9 2.8 7.7c-.3.4-.6-.1-.6-1s-.5-1.9-1.2-2.3c-.8-.5-.9.6-.5 4.2.6 4.5.5 4.7-.8 3-1.7-2.2-1.9-1.5-1.6 4.6.2 2-.4 4.9-1.3 6.5l-1.5 2.8-.1-2.8c0-1.5-.4-2.7-.9-2.7-1.1 0-2 5.9-1 6.6.5.2.4 1.6-.2 3-.6 1.7-.6 3.9.2 6.6.5 2.2.8 4.3.4 4.6-.3.3-.8-.4-1.2-1.6-.3-1.3-1.1-2.1-1.7-1.9-1.1.4-1.2 6-.5 18.3.1 2.7-.1 5.5-.5 6.2s0 1.5 1 1.9 1.9.2 2.2-.5c.6-1.9 2.2-1.4 2.2.8 0 1.1.7 2 1.5 2 1.4 0 1.4-.3 0-2.4-.9-1.3-1.5-3.9-1.4-5.7.1-1.9-.2-4.3-.6-5.4s-.3-1.6.2-1c.4.5 1.8 1.8 3 2.8l2.1 1.8v-4.6c-.1-2.8-.4-4.1-.9-3.3q-.9 1.35-.9-1.5c0-1.7-.5-2.7-1.5-2.7-1.4 0-1.4-.4 0-3.6.8-2 1.5-5.1 1.5-6.8s.9-4.5 2-6.1c2.1-3.2 2.7-6 1-5-.5.3-1-.3-1-1.5 0-2.9 2.7-9 3.9-9 1.4 0 1.4 3.7.1 4.5s-1.3 5.2 0 6c.6.4.8 1.1.4 1.6-1.1 1.8-1.1 35.8.1 34.3.7-1.1 1.1-.2 1.2 3.7.2 4 0 4.9-1 4.1-.8-.7-1.8-.7-2.7-.2-1.2.7-1.1 1 .5 1.5 1.1.4 2.8 1.1 3.8 1.6 1.9 1 3.4-1.1 2.2-3.1-.4-.6-.9-9.7-1.1-20.2s-.9-20.8-1.4-22.9c-1.1-4-.6-6.4 1.1-5.4.5.4.9 2.4.9 4.6 0 3.7.1 3.9 1.6 2.4 1.3-1.3 1.4-2.1.5-4.3-1.1-2.7-1-8.6.2-9.9.4-.3.7.5.8 1.8 0 1.3.5 3.3 1 4.4.7 1.5.8 1.1.5-1.7-.3-2.1 0-4 .5-4.3.5-.4.9 1.6.9 4.4s.4 5.1.8 5.1c.5 0 .7-1.5.4-3.3-.3-2.5-.2-2.9.8-2.1.7.8 1.1 3.3.8 6.8-.2 4 .1 5.6 1 5.6.6 0 1.2.4 1.2 1 0 1.1-3.3 1.4-4.3.4-.3-.4-.2-1.5.4-2.6.5-1 .7-2.3.4-2.9-1-1.4-3.4 2.1-3.5 4.8 0 1.6-.6 2.3-2 2.3-2.1 0-2-1.2-.4 24 .5 8.6.4 18.3-.1 18.9-.3.2-1.1-.1-1.9-.8-2.1-1.8-27.2-8.8-34.6-9.6-3.6-.5-10.3-.9-15-1s-11.8-.7-15.8-1.4c-4.1-.6-7.8-.9-8.3-.5-.5.3-.9.1-.9-.5 0-.5.6-1.2 1.3-1.4q1.5-.6 0-.6c-.7-.1-1.3-1-1.3-2.1 0-1.3-.5-1.8-1.5-1.4-1.1.4-1.5 0-1.5-1.6 0-1.9-.2-2-1.5-1-2.2 1.8-1.9 3.6 1.2 7.8 1.5 2 2.9 3.9 3 4.1.2.3.9-.1 1.5-.7 1.7-1.7 2.8-1.5 2.8.4 0 1-.6 1.4-1.4 1.1-1-.4-1.6.2-1.8 2.1l-.3 2.7-2-2.3c-4.7-5.6-8.9-9.3-11-9.8-1.3-.3-2.5-1.4-2.8-2.5-.3-1-1.3-1.9-2.2-1.9-1.3 0-1.6-.6-1.1-2.3.3-1.2.6-2.8.6-3.6 0-1.4 3.7-1.2 14.7.8 7 1.3 7.3 1.6 7.3 6.2 0 2.1.3 3.9.8 4 5.2.4 9.5 1.1 11.7 1.9 1.4.5 5.4 1 8.7 1 6.1 0 7.6-.8 2.5-1.2-2.3-.2-2.7-.7-2.7-3.3 0-4.5-3.6-11.2-6.8-12.9-1.5-.8-3.4-2.6-4.2-4.1s-2.6-3.3-4.1-4c-2.2-1.2-2.6-2.1-2.6-5.3 0-2.2-.8-5.3-1.8-7-1.8-2.9-1.4-6.9.4-5.7.6.3.8 1.2.5 1.9-.3.8-.1 1.7.5 2 1.8 1.1 2.3-5.1.7-8.3-.9-1.6-1.6-3.3-1.6-3.7 0-1 3.6 3.8 4.4 6.1.5 1.2 1 1.5 1.3.8.2-.7-.3-2.8-1.2-4.8-1.3-2.6-2.4-3.5-4.4-3.6-1.4 0-2-.3-1.3-.6 1.7-.7 1.5-2.3-.3-2.3-.8 0-1.5-.4-1.5-1 0-.5 1.7-.8 3.7-.7 3.2.2 4.2.8 6.3 4.1 3.3 5.1 4 2.3 1-4-1.6-3.2-2.6-4.2-3.3-3.5-.6.6-2.1 1.1-3.2 1.1-1.8 0-2.1-.5-1.7-3 .2-1.7-.1-3.7-.8-4.5-.6-.8-1.8-3.6-2.5-6.2l-1.3-4.8-.1 5.3c-.1 2.9.4 6.2 1 7.4 1.2 2.3.3 7.2-1.1 6.3-.6-.3-.9-2-.7-3.7.2-3.4-1.9-5-3-2.3-.8 2.4 2.5 11.4 5.3 14.6 3.2 3.4 3.1 4.9-.1 1.9-2.8-2.6-4.2-2.2-2.6.8.6 1.2 1.1 2.8 1.1 3.8 0 1.4-.3 1.4-1.5.4-.9-.7-1.8-1-2.2-.7-.8.9 1.6 3.7 3.2 3.7s4.8 7.9 4.4 10.6c-.2 1.1.2 2.9.9 4.1 1.1 1.9 1 2.3-.2 2.3-.8 0-1.8-.5-2.1-1-.3-.6-1.5-1-2.7-1-1.5 0-1.8-.3-1-1.3.7-.8.6-1.6-.4-2.5-.9-.8-1.4-.9-1.4-.2s-1.2.9-3.4.5c-2-.4-3.6-.2-4.1.4-.3.6-1 .9-1.5.6-.4-.3-2.1.2-3.6 1-1.6.8-3.4 1.5-4 1.5s-1.9.9-2.9 2c-2.4 2.6-2.8 2.5-6.8-1-1.9-1.7-4-3-4.6-3-.7 0-3-.9-5.1-2-3.4-1.7-4-2.5-4-5.1 0-1.7.9-4.2 2-5.6s2-3.7 2-5.2c0-1.4.7-3.9 1.5-5.4s2.4-6.2 3.6-10.5c2.7-9.8 2.3-22.1-1-27.7-1.1-2-2.1-4-2.1-4.5s-1.2-2.6-2.6-4.7l-2.5-3.8 2.8-2.2c3.3-2.7 5-2.8 11.8-.7 6.5 2.1 9.5 1.4 11.9-2.7 1-1.7 3-4.1 4.3-5.3 4.8-4.1 8.6-10.5 7.9-13.6-.6-3.4.9-8.6 3.4-11.5 1-1.1 2.1-4.5 2.4-7.5.7-5.3.7-5.4-1.2-3.7-1.8 1.6-2 1.6-2.6.2-1.1-3-.7-3.7 1.9-3.1 3.1.8 3.1.7-.4-3.8-1.7-2.1-3.2-3.2-3.6-2.6-.3.5-1.4 1-2.5 1-1.8 0-3.6 2.8-2.5 3.9.3.3 1.5 0 2.5-.7 2.1-1.3 2.7-.3.9 1.5-.8.8-.6 1.8.6 3.6 2 3.1 1.2 11.7-1.1 11.7-2.8 0-6.4 3.2-6.4 5.6 0 2.7 0 2.7 3.4 1.5 2.3-.9 2.5-.8 3.1 2.9.6 3.4.2 4.5-2.7 8.2-1.8 2.4-3.4 4.5-3.5 4.7-.2.2-1.1-.3-2.1-1.2-1-1-3.4-1.7-5.3-1.7s-4-.5-4.7-1.2c-.9-.9-1.5-.9-2.4 0-1.6 1.6-.1 4.2 3.1 5.8 1.6.8 1.9 1.3.9 1.7-.9.3-.8.7.6 1.2 1 .4 2.1.4 2.5-.1.3-.5 1.5-1.6 2.5-2.4 1.9-1.5 1.9-1.4.3 1.6-2.4 4.6-4.3 5.9-7 4.6-1.2-.6-3.5-1.3-5.1-1.7-1.6-.3-4.2-1.9-5.8-3.6-1.6-1.6-3.3-2.9-3.6-2.9-.4 0-2.2-1.7-4-3.7-1.8-2.1-3.1-3.2-2.7-2.6.3.7.1 1.3-.5 1.3s-.8.5-.4 1.1c.4.8.9.7 1.6-.2.7-1 .8-.8.5.9-.3 1.2-.1 2 .4 1.6.5-.3.9.3.9 1.3 0 1.1.5 2.4 1.2 3.1 1.6 1.6.4 2.5-2 1.8-1.1-.4-2.8-2.3-3.8-4.4-1.3-2.7-1.9-3.2-2.2-2-.5 2.4-1.1 2.3-6-1.6-2.3-1.9-5.4-3.7-6.7-4-1.5-.4-2.3-1.1-1.9-1.7.6-1.1 6.1-.7 9.9.6l2 .7-2-1.3c-1.1-.7-2.2-1.5-2.5-1.9s-1-.9-1.7-1.1c-.8-.3-.9-.9-.4-1.8.8-1.2 1.4-1.2 3.9-.2 4.4 1.8 6.1.3 2.4-1.9-3.8-2.3-5-7.1-2.8-10.5 1.9-2.9 2.5-3 5.2-1 1 .8 2.7 1.5 3.7 1.5 1.5 0 1.3-.5-1-2.4-1.5-1.2-3.5-2.5-4.3-2.8-1.1-.3-.8-1.1 1.5-3.2 1.7-1.6 4-3.2 5.3-3.7 3.1-1.2 2.7-2.6-.7-2.1-1.9.3-3-.1-3.4-1.2-.7-1.7.8-2.2 1.7-.7.8 1.2 4.2.3 5.7-1.5 1.8-2.2.2-2.9-2.1-.9-2.6 2.3-2.6 1.1-.1-1.4 3.5-3.5 5.9-4.3 8.4-2.9 1.2.6 3 1.2 3.9 1.3 2.7.2 3.3 1.4 1.9 3.6-1.7 2.9-.8 3.3 2 1.1 2.2-1.9 2.2-2 .6-4.6-1-1.4-2.4-2.6-3.2-2.6s-1.5-.7-1.5-1.6c0-1.2.6-1.5 2.5-1 1.4.4 2.5.2 2.5-.4 0-.5 1.3-1 3-1 2.1 0 2.8.4 2.4 1.4-.3.8-1.3 1.7-2.2 1.9-1 .3-.2.5 1.6.6 3.8.1 3.4 2.1-.4 2.1-2 0-2.5.4-2.2 2 .3 2.2 2.4 2.4 2.2.2-.1-.6.9-1.2 2.2-1.2 1.2 0 2.7-.7 3.2-1.6.9-1.7 3.2-1.2 3.2.7 0 .6-.4.7-1 .4-.5-.3-1 .1-1 1 0 .8-1 2-2.2 2.5l-2.3.9h2.3c1.2.1 2.2.7 2.2 1.3.1.8.6.6 1.4-.5 1.8-2.3 2.5-2.1 1.9.5l-.5 2.3 2-2.3c1.1-1.2 2.5-2.2 3.1-2.2s1.1-.5 1.1-1c0-.6-.7-1-1.5-1s-1.5-.5-1.5-1.1c0-.5-.5-.7-1.2-.3-.8.5-.9-.2-.4-2.7.5-2.6.4-3.1-.6-2.1-.7.7-1.7 1.2-2.3 1.2-1.6 0-3.7-3.9-2.8-5.3 1.5-2.4 1.1-3.7-1-3.7-3.6 0-5.3 1.6-3.8 3.4 1.1 1.3.9 1.4-1.8.6-1.8-.5-3.3-.5-3.6.1-.4.5-1.5.9-2.5.9s-2 .4-2.2 1c-.5 1.5-7.8 0-7.8-1.6 0-1.7-.5-1.7-4.6-.2-2.8 1-3.6.9-5.2-.5-1-.9-2.4-1.7-3-1.7-.7 0-1.2-.5-1.2-1 0-.6 1.1-1 2.5-1 1.6 0 2.5.6 2.5 1.5 0 1.6 2.7 2 4.8.6 1-.6.5-1-1.7-1.4-4.6-1-3.7-2.7 1.4-2.7 2.5 0 4.5.4 4.5 1 0 .5-.5 1-1.1 1-.5 0-.7.5-.4 1 .8 1.3 11.8.6 15.8-.9 1.6-.6 3.3-.9 3.8-.5 1.4.8 1.1-1.2-.3-2.3-1.1-.9-9.5-3.3-11.3-3.3-.3 0-.3.4 0 1m-9.1 12.8c.6 1-1.4 3.4-4.3 5-3.1 1.8-3.7.8-1.1-1.8 1.1-1.1 1.8-2.5 1.5-3-.4-.6.3-1 1.4-1s2.2.3 2.5.8M182 19c0 .5-.4 1-1 1-.5 0-1-.5-1-1 0-.6.5-1 1-1 .6 0 1 .4 1 1m-3 3.6c0 .8-1 1.4-2.5 1.4-2.6 0-3.5-2.5-1.2-3.3 1.8-.6 3.7.3 3.7 1.9m-7.1 8.3c-.3.6-1 .7-1.8.2-.7-.5-1-1.4-.6-2.1.9-1.4 2.9.2 2.4 1.9m3.6 4.1c-.3.5-1 1-1.6 1-.5 0-.9-.5-.9-1 0-.6.7-1 1.6-1 .8 0 1.2.4.9 1m-5.5.9c0 .5-1.1 1.1-2.5 1.3-2 .4-2.3.3-1.4-.8 1.3-1.6 3.9-1.9 3.9-.5m3.5 4.1c.3.5-.3 1-1.4 1s-2.3-.5-2.6-1c-.3-.6.3-1 1.4-1s2.3.4 2.6 1m-.5 4.6c0 .8-.4 1.2-1 .9-.5-.3-1-1-1-1.6 0-.5.5-.9 1-.9.6 0 1 .7 1 1.6M171 61c0 2.5 2.8 3.8 4.2 1.9.8-1.1.9-1.1.5.3-.3.9.1 2.2.9 2.9 2.6 2.2 7.7 9 7.1 9.6-.4.3-2.9-1.9-5.6-4.8s-5.3-5.1-5.6-4.7c-.9.9 1.7 4.8 3.2 4.8 3.1 0-.8 3.9-3.9 4-2.6 0-2.2 1.9.6 2.6 1.4.3 3.2 1.4 4.2 2.5.9 1 2.2 1.9 2.7 1.9s-.2-1.1-1.8-2.6c-3.2-2.9-2.6-4.7.6-1.8 2.1 1.9 2.2 1.9 1.5-.4-.9-2.8.5-2.9 2.2-.1.7 1.1 1.8 1.9 2.4 1.7 2.3-.8 14.4 14.3 15.9 19.8 1.4 4.9.2 15.4-1.7 15.4-1.6 0-1.9-3.6-.4-4.5.6-.3 1-1.5 1-2.6 0-1.7-.5-1.5-3.4 1.5-1.8 2-3.8 3.6-4.4 3.6s-1.5 1.2-2 2.7c-.6 1.6-1.1 2.2-1.1 1.5-.1-1.4-3.7-1.6-4.6-.2-.3.5-1.5 1-2.6 1s-1.7-.5-1.4-1c1-1.6-.5-1.2-3.6 1.1-1.6 1.1-3.7 1.8-4.6 1.5-1-.3-3 .1-4.5.9-2.3 1.1-2.8 1.1-2.8.1 0-1.4 1.9-2.3 10.9-5.1 3.4-1.1 5.5-2.4 5.8-3.6.3-1 1.3-2.1 2.3-2.4 1.9-.6 3.6-3.5 2-3.5-.4 0-2.1 1-3.7 2.3-1.5 1.3-4.9 3.1-7.5 4.1s-5 2.2-5.3 2.7c-.4.5-1.5.9-2.6.9-1 0-1.9.5-1.9 1.1 0 .5-.5.7-1.1.3-.8-.4-.4-1.1 1-1.8 2.3-1.3 7.1-6.7 9-10.4.6-1.2 1.8-2.2 2.6-2.2s1.5-.4 1.5-1c0-.5-.7-.7-1.6-.3-1.4.5-1.5.3-.5-1.5 1.5-2.9 3.1-3.7 3.1-1.6 0 1.4.3 1.5 1.2.6.8-.8.9-1.5.2-2.2-1.5-1.5-6.4.5-6.4 2.4 0 .9-1.3 2.9-3 4.6-1.6 1.7-3 3.5-3 4.1s-.4.8-1 .4c-1.1-.7-.2-3.4 2.2-5.9 2.3-2.6 1.4-3.4-1.2-1.1-2.4 2.2-2.6.9-.4-2.3.8-1.2 2.4-2.2 3.4-2.2s2.2-.5 2.5-1c.3-.6.1-1-.5-1-.7 0-.8-.6 0-1.9 1.7-3.4 1.1-3.4-1.9-.2-3.1 3.3-5.1 4-5.1 1.7 0-.7-.9-1.6-2-1.9-1.3-.3-2-1.3-1.9-2.9 0-1.3.3-1.7.6-.9.5 1.1.7 1.1 1.4 0 .6-1.1.9-.9.9.7 0 1.2.7 2.7 1.5 3.4 1.4 1.2 1.6 1.1 1.4-.7 0-.4.7-1 1.5-1.3 1.4-.5 1.4-.8.1-3.3-1.4-2.7-1.3-2.8.7-2.2 1.4.5 1.8.3 1.4-.4-.4-.6-1.2-1.1-1.8-1.1-1.5 0-8.2-7-7.4-7.8 2.1-2 12.6 8.5 12.6 12.7 0 1.4 2.5 1.4 5.1.1 2-1.1 2.7-4 .9-4-.5 0-.9.6-.7 1.2.1.7-.7 1.4-1.8 1.5-1.4.2-2.8-1-4.9-4.5-1.6-2.6-3.5-5.8-4.4-7.1-.9-1.6-1.7-2-2.1-1.2-.6.9-1.5.8-3.7-.3-1.8-1-3.2-1.2-3.8-.6-1.5 1.5-2.6 1.2-2-.5.3-.8 1.4-1.7 2.4-2 1.7-.5 8.6.6 12.3 2.1 1 .3 1.7.1 1.7-.5s-.7-1.1-1.5-1.1-1.5-.5-1.5-1c0-.6.4-1 .8-1 1.8 0 .5-4-2-6.4-2.8-2.5-2.7-3.6.4-3.6 1.1 0 1.8.7 1.8 2m-3.5 4.5c0 .5-1 1.1-2.2 1.3-1.6.2-2.3-.2-2.3-1.3s.7-1.5 2.3-1.3c1.2.2 2.2.7 2.2 1.3m13.6 1.2c1.3 1.6 1.2 1.7-.3.4-1.7-1.3-2.2-2.1-1.4-2.1.2 0 1 .8 1.7 1.7m-22.7.9c.3.8.2 1.2-.4.9s-1-1-1-1.6c0-1.4.7-1.1 1.4.7m3.6-.6c0 .5-.2 1-.4 1-.3 0-.8-.5-1.1-1-.3-.6-.1-1 .4-1 .6 0 1.1.4 1.1 1m-11 4c0 1.1-.4 2-1 2-.5 0-1.4-.9-2-2-.9-1.7-.8-2 1-2 1.3 0 2 .7 2 2m39 0c.8.5 1.1 1.2.7 1.6s-1.5 0-2.4-.9c-1.8-1.8-.8-2.3 1.7-.7m-45.9 6c.5 0 .9-.5.9-1 0-.6.9-1 2-1 2.2 0 4 2.7 4 6 0 2 2.1 5 3.4 5 .3 0 .6-.7.6-1.5s.4-1.5.9-1.5c1.3 0 2.2 2.8 1 3.6-1.4.8-.6 2.9 1.2 2.9.7 0 1.5.8 1.7 1.7.3 1.4-.3 1.8-2.7 1.8-1.7 0-3.1.4-3.1.9s-.8 1.2-1.8 1.5c-1.4.5-1.7 1.4-1.4 4.4.5 4.2 3.2 9.1 3.2 5.8 0-1.5.3-1.6 1.5-.6 1.7 1.4 2.1 5 .5 5-.5 0-2.5-1.4-4.5-3.1-2.5-2.2-3.5-3.9-3.5-6.1 0-1.6-.4-2.7-1-2.3-.5.3-.3-.9.5-2.7.8-1.9 2-3.2 2.9-3.2 2.1.2 2-.1-.6-2.9-1.3-1.3-3.2-3.7-4.4-5.1-1.5-2.1-2.7-2.7-4.9-2.4-2.8.3-2.9.3-.9 2.2 1 1.1 1.9 2.3 1.9 2.7s.4 1.1.9 1.6.6-.5.2-2.2l-.8-3 2.6 2.4c3.1 2.9 3.4 5.7.6 6.6s-2.8 8.2.1 11.9c1.7 2.2 1.8 2.6.4 2.6-1 0-2.5-2-4-5.3-1.8-4-2.4-4.6-2.4-2.7 0 1.4.6 3.6 1.4 5 2.1 3.6 1.8 4.9-.5 2-1.1-1.5-2-4.1-2-6.3 0-2.5-.4-3.6-1.1-3.1-.6.3-1.5 0-2-.7-1.4-2.2-3.1.9-2.5 4.7.3 2.2-.1 3.3-1.5 4.2-1.7 1.1-1.9.9-1.9-1.5 0-2.2.2-2.5 1-1.3.7 1.1 1 .8.9-1.5 0-1.7-.3-2.4-.6-1.8-.7 1.9-2.3 1.6-2.3-.5 0-.9 1.1-2.6 2.5-3.6 1.4-1.1 2.5-2.9 2.5-4.2 0-3.1 1.7-4 2.3-1.2.3 1.7.5 1.4.6-1 0-2-.3-3.1-.9-2.7-.5.3-1 .1-1-.4 0-.6.4-1.1.9-1.1s1.2-.8 1.5-1.8c.4-1.1 1.8-2.5 3.2-3.2 1.3-.8 2.3-1.9 2-2.6s-.2-1.5.2-1.9.8 0 1 .9.8 1.6 1.3 1.6m42.9-2c0 .5-.4 1-1 1-.5 0-1-.5-1-1 0-.6.5-1 1-1 .6 0 1 .4 1 1m118 4c-.6 1.2-1.7 1.9-2.3 1.7-.7-.2-1.7 1-2.4 2.7l-1.1 3.1-.1-2.7c-.1-1.9.7-3.3 2.3-4.3 1.3-.9 2.7-2.6 3.1-3.8.6-1.8.8-1.9 1.2-.5.2.9-.1 2.6-.7 3.8m-150-1.9c.7 1.2 1.8 1.8 2.6 1.5s1.4.1 1.4.9.6 1.2 1.3.9c1.2-.4 5.7 2.9 5.7 4.3 0 .4-.5.2-1.2-.5-1.7-1.7-3.1-1.5-2.4.3.3.9 0 1.5-.9 1.5-.8 0-1.5-.4-1.5-.8 0-.5-2.1-3-4.6-5.5-2.9-3-4-4.7-3-4.7.8 0 2 .9 2.6 2.1M284.7 85c1.9 2.3 1.5 4-.9 4.9-1.5.5-2.7.4-3.5-.5-1.8-1.8-1.6-4.4.4-4.4 1.3 0 1.4-.3.5-1.2-.7-.7-1.2-1.6-1.2-2.1 0-1 2.8.9 4.7 3.3m-20.5.7c1.9 1.7 2.4 4.3.8 4.3-.5 0-1-.7-1-1.5s-.6-1.5-1.4-1.5-1.6-.7-2-1.5c-.7-2 1.3-1.9 3.6.2m-133.9 5.8c-.3.9-.8 1.4-1 1.1-.3-.3-.2-.9.2-1.5.9-1.6 1.5-1.3.8.4m33.7 4.6c0 .4-.4 1-.9 1.4-.5.3-.7 2.2-.4 4.3l.5 3.7-2.8-3.8c-1.5-2-3.3-3.7-4.1-3.7-1.9 0-1.6.8 1.8 5.1 4 5.1 2.2 5-2.5-.1-4.1-4.5-4.3-5.5-1.8-6.9 2-1.2 10.2-1.2 10.2 0m124.3.6c-.7.2-1.9.2-2.5 0-.7-.3-.2-.5 1.2-.5s1.9.2 1.3.5M136 102.1c0 .9 1.1 3.2 2.4 5.2 1.3 1.9 2.7 4.5 3.1 5.7.6 2 .5 2.1-1.4 1.1-1.2-.7-2.1-1.8-2.1-2.6s-.9-2.9-1.9-4.7-2.2-4.9-2.6-6.8c-.7-3.3-.6-3.4.9-1.5.8 1.1 1.6 2.7 1.6 3.6m8.7-2.9c-.3.8-.6.5-.6-.6-.1-1.1.2-1.7.5-1.3.3.3.4 1.2.1 1.9M267 98c0 .5-.5 1-1.1 1-.5 0-.7-.5-.4-1 .3-.6.8-1 1.1-1 .2 0 .4.4.4 1m36.5.1c1.2 1.9-.5 2.3-2.2.6-1.6-1.6-1.6-1.7-.1-1.7.9 0 2 .5 2.3 1.1m-176.8 3.1c-.3.7-.5.2-.5-1.2s.2-1.9.5-1.3c.2.7.2 1.9 0 2.5m127.1-1.2c-1.3 2.1-2.8 2.7-2.8 1 0-.5.8-1.4 1.8-1.9 2.3-1.4 2.4-1.4 1 .9m-5.8 2.6c0 .8-.4 1.2-1 .9-.5-.3-1-1.3-1-2.1s.5-1.2 1-.9c.6.3 1 1.3 1 2.1m10.8 1.6c-.9 1.3-2.4 2.5-3.4 2.7-1.7.3-1.6 0 .5-2.3 3-3.2 4.9-3.4 2.9-.4m-124 4.3c-.3.3-.9-.2-1.2-1.2-.6-1.4-.5-1.5.5-.6.7.7 1 1.5.7 1.8M119 108c0 .5-.2 1-.4 1-.3 0-.8-.5-1.1-1-.3-.6-.1-1 .4-1 .6 0 1.1.4 1.1 1m.5 5c.8 0 1.5-.5 1.7-1.2.3-.7 1-.8 1.7-.3 1 .6.6 1.1-1.5 2-2.5 1-3.1 1-4.6-.6-1-1-1.8-2.4-1.7-3.1 0-.7.7-.3 1.6.9.8 1.3 2.1 2.3 2.8 2.3m29.4-1.5c2.5 2.7 4.1 3.1 5.8 1.4 1.5-1.5 5.2 1 5.9 4.1.3 1.4.8 3.3 1.1 4.2.7 2.8-1 2.1-5.2-2.2-2.1-2.2-4.4-4-5-4-1.6-.1-8.1-6-6.5-6 .8 0 2.6 1.2 3.9 2.5m-22.4-.5c.3.5.1 1-.4 1-.6 0-1.1-.5-1.1-1 0-.6.2-1 .4-1 .3 0 .8.4 1.1 1m21.3 4.2c1.3 1.5 2.9 2.8 3.5 2.8.7.1 3.4 2.1 6.1 4.5 3.3 3.1 4.6 5 4.2 6.1-.5 1.3-1.6.5-4.8-3.5-2.3-2.8-4.5-5.1-4.9-5.1-1 0-8.9-7.4-8.9-8.4 0-1.1 2.2.5 4.8 3.6m-13.8.3c1.9 1.9 2.9 3.5 2.2 3.5s-1.2-.3-1.2-.8c0-.4-1.4-1.6-3-2.7s-3-2.3-3-2.8c0-1.5 1.7-.6 5 2.8m-18-.5c0 .5-.4 1-.9 1-.6 0-1.3-.5-1.6-1-.3-.6.1-1 .9-1 .9 0 1.6.4 1.6 1m188 3.7c0 .7-.4 1.3-1 1.3-.5 0-1-1.2-1-2.8 0-2.1.2-2.4 1-1.2.5.8 1 2.1 1 2.7m13-2.2c0 .8-.5 1.5-1 1.5-.6 0-1 1-.9 2.2.1 1.3.1 3.4.1 4.7-.2 2-.4 2.1-1.7 1.1-1-.9-1.5-.9-1.5-.1 0 .6-.4 1.1-1 1.1-.5 0-1-1.3-1-2.9 0-2 .8-3.4 2.5-4.5 1.4-.9 2.5-2.3 2.5-3.1s.5-1.5 1-1.5c.6 0 1 .7 1 1.5m-202.5.6c1.1 1.7 0 2-2.1.4-1.7-1.3-1.7-1.4-.2-1.5.9 0 2 .5 2.3 1.1m29.5.9c0 .5-.2 1-.4 1-.3 0-.8-.5-1.1-1-.3-.6-.1-1 .4-1 .6 0 1.1.4 1.1 1m44.7 1.6c.2.6-.5 2.2-1.6 3.5l-2.1 2.4-.6-2.3c-.5-1.6-1.2-2.2-2.4-1.9-.9.2-1.7-.1-1.7-.8s.6-1.1 1.3-.8c.6.2 1.5-.1 1.9-.7.8-1.4 4.7-.9 5.2.6m-78.9 0c3.7 1 2.6 2.7-1.5 2.1-4.4-.8-6.9-2.7-3.2-2.7 1.3 0 3.4.3 4.7.6m87.7 3.3c-.6 3-8.6 12.1-10.6 12.1-.5 0-.9-.7-.9-1.5s.6-1.5 1.4-1.5c.7 0 2.1-1.1 3-2.5s2.3-2.5 3.1-2.5 1.9-1.7 2.6-4c1.4-4.6 2.4-4.7 1.4-.1m-76.1.7c1.6.8 3.7 1.4 4.7 1.4s2.5 1 3.4 2.3c.8 1.3 3.4 3.4 5.7 4.7 3.2 1.8 3.8 2.5 2.5 2.8-1 .2-2.6-.3-3.6-1.2s-2.2-1.6-2.8-1.6-1.7-.8-2.4-1.8c-.8-1-4.3-3.1-7.9-4.7-3.6-1.5-6.9-3.2-7.5-3.7-1.3-1.2 4.1 0 7.9 1.8m16.6.6c0 .6-.6.5-1.5-.2-.8-.7-1.5-1.4-1.5-1.6s.7-.1 1.5.2c.8.4 1.5 1.1 1.5 1.6m6.2-1.4c.2.4 1.7 1.7 3.3 2.9 4.7 3.3 10 14.6 5.6 11.8-.6-.3-1.1-1.4-1.1-2.4s-.6-2.4-1.3-3c-2.8-2.3-3.8 2.1-1.1 5 1 1.1 1.4 3.1 1.2 5.9l-.3 4.2-3-3.2c-2.4-2.5-2.6-3-1-2.5 1.8.6 1.7.5-.3-1.2-1.2-1-2.9-3.1-3.7-4.7-1.4-2.5-1.3-2.7 0-1.6 1.7 1.4 2 .3.6-1.9-.6-.9-.4-1.9.5-2.8.8-.8 1.4-2 1.3-2.6 0-.8-.2-.8-.6.1-.2.6-.9 1-1.3.7-.5-.3-.6-1.3-.3-2.2.4-1.1.3-1.4-.5-.9-.7.4-1.2.3-1.2-.2 0-1.9 2.5-3 3.2-1.4m11.3 4c-.9.9-3.5-.8-3.5-2.4s.2-1.6 2 .1c1.1 1 1.8 2 1.5 2.3m24.4-2.4c-.2.2-2.8.9-5.7 1.4-6.4 1.1-5.9.1.6-1.4q6.6-1.5 5.1 0m10.8 1.5c-.1 1.1-.9 2.2-1.9 2.4-2.1.6-2.3-.8-.5-2.8 1.7-2 2.6-1.8 2.4.4m116.3-.2c0 1 .3 2.9.7 4.2.4 1.8.2 2.2-.8 1.9-1.9-.6-3.1-7.8-1.2-7.8.7 0 1.3.8 1.3 1.7m-196.7 1.8c-.8 2.2-2.2 1.8-1.6-.5.3-1.1.9-1.7 1.4-1.5.4.3.6 1.2.2 2m22.2-1.5c.3.5.2 1-.4 1-.5 0-1.3-.5-1.6-1-.3-.6-.2-1 .4-1 .5 0 1.3.4 1.6 1m50.1 3.6c-2.2 2.3-3 2.5-4.9 1.6l-2.2-1.1h2.2c1.2-.1 2.5-.6 2.8-1.1.9-1.5-3.6-1.2-6.9.5-3.1 1.6-10.1 2.1-9.2.6.3-.5 2.5-1.2 4.8-1.5 9.7-1.5 15.3-2.1 15.7-1.9.2.2-.8 1.5-2.3 2.9m-76.6.9c0 1.4-3 6.3-4.6 7.6s-1.7 1.2-1-.6c.4-1.1 1.3-3.2 1.8-4.8.5-1.5 1.6-2.7 2.4-2.7s1.4.2 1.4.5m5.3 1.5c-.3 1.1-.7 2-.9 2s-.4-.9-.4-2 .4-2 .9-2 .7.9.4 2m45 0c-.3 1.1-.7 2-.9 2s-.4-.9-.4-2 .4-2 .9-2 .7.9.4 2m27.2 1c-.4 1.2-.2 2 .5 2s1 .7.6 1.5c-.3.8.6 2.7 1.9 4.1 1.4 1.5 2.5 3.1 2.5 3.5 0 1.5-2 1-2.7-.6-.3-.9-2.2-2.7-4.2-4.1-3.3-2.2-3.6-2.3-4.2-.7-.4 1.1.1 2.3 1.2 3.1 1.1.7 1.9 1.9 1.9 2.6 0 2.1 2.7 4 3.5 2.6.4-.7 1.1-.8 1.5-.3.9.9 2.4 9.3 1.7 9.3-1.8 0-3.5-1.4-3.1-2.4.3-.7-2.2-4.2-5.5-7.6-3.4-3.5-6.1-6.7-6.1-7.2 0-1.8 2.9-3.8 5.5-3.8 1.8 0 2.9-.6 3.2-2 .3-1.1 1-2 1.5-2s.6.9.3 2m9.1 4.6c-.6 1.6-5.6 1.9-5.6.4 0-.6.7-1 1.6-1s2.1-1.4 2.7-3.1l1.2-3.2.3 2.8c.2 1.4.1 3.3-.2 4.1m-68.6-3.9c0 .3-.8 1.5-1.7 2.5-1.2 1.3-1.3 2.2-.6 2.9 1.1 1.1.3 5-1.9 9.2-.5 1-.6 2.2-.3 2.8 1.1 1.7 2.5-.2 2.5-3.4 0-1.8.4-3.8.9-4.6 1.4-2.1.7 6.9-.8 10.6-.7 1.8-1.7 3.3-2.1 3.3-.5 0-1.1.8-1.3 1.7-.3 1-.5-.6-.6-3.5-.1-4.7-.3-5.2-2.4-5.2-1.7 0-2.8 1-4.2 3.7-1 2.1-2 3.3-2.2 2.6s.1-2.2.7-3.3c.6-1.2.9-2.4.6-2.8-.3-.3-.6.1-.6.8 0 1.1-.3 1.1-1.2.2-.9-1-.8-1.6.6-3 1.4-1.2 2-1.4 2.3-.5.7 2 2.3 1.5 2.3-.7 0-2.7 2.1-7 3.5-7 .7 0 2-1.6 3.1-3.5 1.7-3.2 3.4-4.6 3.4-2.8m48.5.3c.3.5.1 1-.4 1-.6 0-1.1-.5-1.1-1 0-.6.2-1 .4-1 .3 0 .8.4 1.1 1m6.2-.4c-.3.3-1.2.4-1.9.1-.8-.3-.5-.6.6-.6 1.1-.1 1.7.2 1.3.5m-78.7 1.3c0 .6-.4 1.3-1 1.6-.5.3-1-.1-1-.9 0-.9.5-1.6 1-1.6.6 0 1 .4 1 .9m70 1.1c0 .5-.4 1-1 1-.5 0-1-.5-1-1 0-.6.5-1 1-1 .6 0 1 .4 1 1m-43.3 5.2c-.2 1.3-.4.5-.4-1.7-.1-2.2.1-3.2.4-2.3.2 1 .2 2.8 0 4M99 139.5c1 1.2 1 1.5-.4 1.5-.9 0-1.6-.7-1.6-1.5s.2-1.5.4-1.5.9.7 1.6 1.5m39.4 2.5c.5 2.7.4 3.2-.6 2.2-.7-.7-2-1.2-3-1.2-2.5 0-2.3-1.4.5-3.3 1.2-.8 2.2-1.4 2.3-1.3.1 0 .4 1.7.8 3.6m-33.4-2.6c0 .3-.4.8-1 1.1-.5.3-1 .1-1-.4 0-.6.5-1.1 1-1.1.6 0 1 .2 1 .4m6.6 1.2c-.3.9-.6 2.1-.6 2.8 0 .8-1.1 2.4-2.3 3.7-1.3 1.3-2.8 3.7-3.2 5.4-.8 2.7-.9 2.8-1.2.8-.3-1.2.2-3.5 1.1-5 .8-1.6 2.3-4.3 3.2-6.1 1.8-3.2 4.1-4.5 3-1.6m18.8.3c.3.5-.1 2.5-.9 4.5-1.9 4.5-1.9 5.5-.1 3 1.3-1.7 1.5-1.7 2.1-.2.9 2.4.2 7.1-1.2 7.5-1.7.6-3.3-6.3-2.6-11.3.5-4.2 1.5-5.4 2.7-3.5m38 1.4c1 .4 1.6 1 1.3 1.3s-2.2 0-4.2-.7c-2.9-1.1-3.2-1.5-1.8-2 1-.3 2-.3 2.3.1.3.3 1.4 1 2.4 1.3m4.6.2c0 .8-.2 1.5-.4 1.5s-.6-.7-1-1.5c-.3-.8-.1-1.5.4-1.5.6 0 1 .7 1 1.5m-69 2.5c0 .5-.5 1-1.1 1-.5 0-.7-.5-.4-1 .3-.6.8-1 1.1-1 .2 0 .4.4.4 1m33.1 4.9c0 2.7.2 3.1.8 1.6.7-1.6.9-1.4 1.4 1.4.9 4.4.9 6.1-.1 6.1-1.1 0-3.3-5.7-4.1-10.7-.6-3.5-.5-4.1.6-3.2.7.6 1.3 2.8 1.4 4.8m31.9-1.4c0 1.1-2.8.4-4-1-2-2.4-.1-3.9 2.1-1.6 1 1.1 1.9 2.3 1.9 2.6m-69 .4c0 1.6-1.2 4.1-2 4.1-.4 0-.5-1.1-.2-2.5.4-2.3 2.2-3.6 2.2-1.6m1.5 5.1c-.4 1.7-.9 2.9-1.2 2.6-.3-.2-.2-1.9.2-3.6s.9-2.9 1.2-2.6c.3.2.2 1.9-.2 3.6m90.3-2.2c.6 1.8-1.5 1.4-2.2-.4-.4-1-.1-1.4.6-1.2.6.2 1.4 1 1.6 1.6m36.7 1.2c.3.6-.4 1-1.7 1-1.8 0-2-.2-.8-1 1.9-1.2 1.8-1.2 2.5 0M94.2 163c-.7 1-2.1-2.6-1.6-4.3.5-1.6-1-2.3-3.9-1.8-.5.1-.5-.4-.2-1 .4-.6 1.6-.9 2.6-.6 1.3.3 2 0 2.1-1.1 0-1 .4.5.7 3.3.4 2.7.5 5.2.3 5.5m218.2-3.3-.8 5.8-.9-5.4c-.7-4.1-.6-5.5.4-6.2 2-1.2 2.1-.6 1.3 5.8m-110.1-2.5c1.8 2.1 1.8 3.3.2 8.5-.5 1.4-.3 2.3.4 2.3.6 0 1.3-1.2 1.7-2.8 1.1-4.9 1.4-5.3 3.6-5 1.3.2 2.8-.4 3.5-1.2.6-.8 1.5-1.1 1.9-.7.5.4.2 1.3-.6 1.8-1.1.8-1.2 1.2-.2 1.6 1.7.7 1.5 3.8-.3 5.7-1 1-1.3 2.4-.9 4.1.6 2.3.3 2.5-2.4 2.5-1.7 0-3.5-.6-3.9-1.4s-1.7-1.6-2.8-1.8c-1.5-.3-2-1.1-1.8-3.1.1-1.9-.9-3.9-3.3-6.5-3.4-3.7-4-5.2-2.7-6.6 1.2-1.2 5.7.4 7.6 2.6M127 156c0 .5-.2 1-.4 1-.3 0-.8-.5-1.1-1-.3-.6-.1-1 .4-1 .6 0 1.1.4 1.1 1m-29 2.2c0 1.8-.2 2-.9.8-.6-.8-.7-1.8-.5-2.2.9-1.4 1.4-.9 1.4 1.4m19-1.2c0 .5-.4 1-1 1-.5 0-1-.5-1-1 0-.6.5-1 1-1 .6 0 1 .4 1 1m6 .7c0 2.2-1.7 5-2.5 4.2-.5-.6 1.4-5.9 2.2-5.9.1 0 .3.8.3 1.7m22 3c0 2.5-.3 4.3-.7 3.9-1.1-1-1.1-8.6-.1-8.6.4 0 .8 2.1.8 4.7m-15.3 0c-.3 1-.5.4-.5-1.2 0-1.7.2-2.4.5-1.8.2.7.2 2.1 0 3m89-3.1c-.3.3-1.2.4-1.9.1-.8-.3-.5-.6.6-.6 1.1-.1 1.7.2 1.3.5M105 160.2c0 .7.3 2.4.6 3.8.5 1.7.4 2.2-.4 1.5-1.6-1.5-2.6-6.5-1.3-6.5.6 0 1.1.6 1.1 1.2m29 .2c0 .3-.4.8-1 1.1-.5.3-1 .1-1-.4 0-.6.5-1.1 1-1.1.6 0 1 .2 1 .4m3.6.4c1.5 1 4.5 10.2 3.4 10.2-1.4 0-3-3.5-3-6.6 0-2.1-.3-2.5-1.1-1.7-1.3 1.3-.4 9.9 1.1 10.8.5.3.6 1.3.3 2.1-.4 1.2-1 .9-2.4-1.3-1.9-2.8-2.4-7.8-1.3-12.1.7-2.3 1.2-2.6 3-1.4M99 166.4c-.7.7-1-.1-.9-2.5 0-3.2.1-3.3 1-1 .6 1.6.6 2.8-.1 3.5m23.1 1.6c0 .8.7-.1 1.5-2l1.4-3.5-.4 5.3c-.3 3.1 0 6.1.6 7.2.9 1.3.9 2.5.1 4.2-1 2.1-1.1 2.1-1.2.3-.1-4.5-1.4-8.5-2.7-8.5-.8 0-1.4-1-1.4-2.4s-.4-2.8-1-3.1c-.5-.3-1-1.6-1-2.8 0-2 .2-1.9 2 .8 1.1 1.6 2 3.7 2.1 4.5m122.5-2.2c-.6.5-5.5-3.1-5.6-4.1 0-.4 1.3.2 3 1.4 1.6 1.3 2.8 2.4 2.6 2.7m10 4.9c-.7.7-8.6-7.3-8.6-8.7 0-.6 2 1 4.5 3.6s4.3 4.9 4.1 5.1M115.3 165c.3 1.1.2 2-.3 2-.4 0-1-1.1-1.2-2.5-.6-2.9.7-2.5 1.5.5m13.3 2.1c-.3 1.7-.6 4.1-.6 5.2 0 1.5-.3 1.8-1.1 1-1.3-1.3-.2-9.3 1.3-9.3.6 0 .8 1.2.4 3.1m4.2 4.4c.2 3 0 5.5-.5 5.5-.4 0-.9-2.5-1-5.5-.2-7.2 1.1-7.2 1.5 0m163.1-2.2c0 2.1-.1 2.1-.9.2-1.2-2.8-1.2-3.7 0-3 .6.3 1 1.6.9 2.8m-102.9-.9c0 .3-.4.8-1 1.1-.5.3-1 .1-1-.4 0-.6.5-1.1 1-1.1.6 0 1 .2 1 .4m-98 2.1c2 2.4.6 2.8-1.5.5-1-1.1-1.3-2-.8-2 .6 0 1.6.7 2.3 1.5m9 0c.7.8.9 1.5.6 1.5-.4 0-1.4-.7-2.2-1.5-.9-.8-1.1-1.5-.6-1.5s1.5.7 2.2 1.5m11 1.5c0 .5-.2 1-.4 1-.3 0-.8-.5-1.1-1-.3-.6-.1-1 .4-1 .6 0 1.1.4 1.1 1m138.6.5c1 .8 1.5 1.4.9 1.4-.5 0-1.9-.6-2.9-1.4-1.1-.8-1.5-1.5-1-1.5.6 0 1.9.7 3 1.5m-110.9 4.7c-.2 1.3-.4.5-.4-1.7-.1-2.2.1-3.2.4-2.3.2 1 .2 2.8 0 4m9-3c-.3.8-.6.5-.6-.6-.1-1.1.2-1.7.5-1.3.3.3.4 1.2.1 1.9m5.8.8c.3.5-.1 1-1 1s-1.3-.5-1-1c.3-.6.8-1 1-1s.7.4 1 1m-52.1 1.6c.4 1 .1 1.4-.6 1.2-1.5-.5-2.3-2.8-1-2.8.5 0 1.3.7 1.6 1.6m5.6.5c0 .6-.4.7-1 .4-.5-.3-1-1.1-1-1.6 0-.6.5-.7 1-.4.6.3 1 1.1 1 1.6m24.1 1.6c-.8 1.5-1 1.5-1.1.2 0-1.7 1-3.2 1.8-2.5.2.3-.1 1.3-.7 2.3m72.8 1c-.1 3.8-.1 3.8-.9.9-.8-2.7-.6-4.6.6-4.6.2 0 .4 1.7.3 3.7m-117.6.5c-2.9 1.4-2.9 2.3-.1 4.2 2.4 1.7 2 3-.6 2-3.9-1.5-2.8-7.5 1.4-7.3.9 0 .6.5-.7 1.1m23.7-.2c0 .5-.4 1-1 1-.5 0-1-.5-1-1 0-.6.5-1 1-1 .6 0 1 .4 1 1m70.4.5c.3.8.1 1.5-.4 1.5-.6 0-1-.7-1-1.5s.2-1.5.4-1.5.6.7 1 1.5m34.2 9.6c-.5 5.4-1.3 8.6-1.8 8.1-1.6-1.6-1-13.3.9-16.5q2.1-3.6.9 8.4m5.4-7.1c0 .5-.4 1-1 1-.5 0-1.1 1.5-1.1 3.2-.2 3.2-.2 3.2-.6.5-.3-1.6-.2-3.5.1-4.3.6-1.6 2.6-1.9 2.6-.4m-118 1c1.1.7.7 1-1.7 1-1.8 0-3.3-.5-3.3-1 0-1.3 3-1.3 5 0m83 0c0 .5-.2 1-.4 1-.3 0-.8-.5-1.1-1-.3-.6-.1-1 .4-1 .6 0 1.1.4 1.1 1m50.9 4.2c-2.7 1-3.6.3-1.9-1.7 1-1.2 1.6-1.3 2.7-.3 1.3 1 1.1 1.3-.8 2m16.3.1c3.6 2.7 15.5 14.8 17.6 17.9.9 1.3 3.1 4 4.9 6.1 1.9 2.1 3.9 5 4.5 6.5.7 1.5 2.1 3.5 3.2 4.4 1.2.9 1.8 1.9 1.5 2.2-.5.5-7.5-7.1-18.4-20-6.4-7.5-7.6-8.4-9.5-7.4-1.3.7-2 .6-2.3-.4-.4-1 0-1.2 1.4-.9 3.3.9 2.1-1.2-2.6-4.6-4.9-3.5-8.2-8-5-6.7.9.3 3 1.6 4.7 2.9M98.5 188c-.3.5-1.2.7-2 .3-2.1-.7-1.9-1.3.6-1.3 1.1 0 1.8.4 1.4 1m28.2-.4c-.3.3-1.2.4-1.9.1-.8-.3-.5-.6.6-.6 1.1-.1 1.7.2 1.3.5M245 190c0 .5-.2 1-.4 1-.3 0-.8-.5-1.1-1-.3-.6-.1-1 .4-1 .6 0 1.1.4 1.1 1m-24 5.7c0 2.7-.4 4.3-.9 3.7-.8-.8-.4-8.4.5-8.4.2 0 .4 2.1.4 4.7m23.3-3.3c1.3 1 1.6 2.1 1.1 4.2-.6 2.3-.4 2.6.9 2.1.9-.3 1.9-.2 2.2.3.4.6-.3 1-1.3 1-2.3 0-4.6-2.4-3.9-4.2.2-.7-.2-2.1-1.1-3.1-1.8-2-.5-2.2 2.1-.3M120 193c0 .5-.2 1-.4 1-.3 0-.8-.5-1.1-1-.3-.6-.1-1 .4-1 .6 0 1.1.4 1.1 1m21 .4c0 1.1-1.9 1.5-2.5.6-.3-.5.1-1 .9-1 .9 0 1.6.2 1.6.4m-18.5 3.6 2 .9h-2c-1.1 0-2.9-.4-4-.9l-2-.9h2c1.1 0 2.9.4 4 .9m13.7.7c2.9 2.6 2.1 3.4-3.4 3.1-4-.2-5.4-.7-5.6-2-.2-1.2.5-1.8 2.5-2.1 1.5-.2 3.2-.5 3.7-.6.5 0 1.8.6 2.8 1.6m-39.7 4.4c4.4.5 12.1 1.2 17 1.4 14.8.7 21.8 1.4 25.5 2.4l3.5.9-3.5.2c-3.2.2-3.3.3-1 .9 1.4.4 2.5 1.3 2.5 2.1 0 1.6-2.5 1.7-11.3.4-3.6-.4-4.1-.8-3.1-2 1.4-1.7 1.2-1.9-2.3-2.8-2.1-.5-2.8-.3-2.8.8 0 1.3-.5 1.2-3-.2-2.4-1.4-3.3-1.5-5-.5-2.4 1.6-8 1.7-10 .2-1.2-.9-1-1 .9-.5 1.4.3 2 .1 1.5-.4s-3.7-1-7.1-1.2c-4.8-.2-6.6.2-8.2 1.6-1.1 1-3 1.6-4.5 1.4-3.2-.4-3-2.3.1-2.3 3.5-.1 3.7-1.2.3-1.7-1.7-.3-3.3-.1-3.6.4-.7 1.1-3.4-1-3.4-2.7 0-.9 1.2-1 4.8-.3 2.6.5 8.3 1.4 12.7 1.9m13-2.1c1.3.5 1.4.9.5.9-.8 0-2.4-.4-3.5-.9-1.3-.5-1.4-.9-.5-.9.8 0 2.4.4 3.5.9m14 1.2c1.2 1.1-4.2 0-6.5-1.4-1-.6-.3-.7 2-.2 1.9.3 4 1 4.5 1.6m-45 2.8c0 .7-.6 1.5-1.2 1.7-.8.3-1.3-.4-1.3-1.7s.5-2 1.3-1.8c.6.3 1.2 1.1 1.2 1.8m104.5-1c0 .5-.4 1-1 1-.5 0-1-.5-1-1 0-.6.5-1 1-1 .6 0 1 .4 1 1m-37.8 1.2c-.5.5-1.9.5-3.3-.1-2.2-.8-2.2-.9.9-.9 1.9.1 2.9.5 2.4 1m78.6 0c1.6 1.6 1.5 2.8-.3 2.8-.8 0-1.9-.9-2.5-2-.8-1.5-.8-2 .3-2 .7 0 1.8.5 2.5 1.2m-123.1 3c-.3.8-.6.5-.6-.6-.1-1.1.2-1.7.5-1.3.3.3.4 1.2.1 1.9m49.3.5c0 1 .3 2.7.6 3.9.4 1.5-.1 2.3-1.7 3-2.9 1.3-6.9-.4-6.9-2.9 0-1.5.6-1.7 3.8-1.3 3.6.5 3.6.5 1-.6-3.2-1.4-3.6-2.5-1-3.1 3.3-.9 4.2-.7 4.2 1m-9.8 6.9c1.5.8 3 1.9 3.3 2.5 1.3 2-.4 2.2-3.2.4-1.5-1-4.2-1.9-6-2.1-2.7-.3-3.3 0-3.3 1.6 0 1.1-.4 2-1 2-1.5 0-1.2-5.7.3-6.3 1.6-.7 6.6.2 9.9 1.9m43.8-1c0 .8-.4 1.2-1 .9-.5-.3-1-1-1-1.6 0-.5.5-.9 1-.9.6 0 1 .7 1 1.6m5 2.4c0 .5-.2 1-.4 1-.3 0-.8-.5-1.1-1-.3-.6-.1-1 .4-1 .6 0 1.1.4 1.1 1m-49.5 3.2c3.2 1.4 3.5 4.2.3 3.3-1.3-.3-3.3-1.1-4.6-1.8-2.4-1.1-2.3-1.3 1.5-2.6.1-.1 1.4.4 2.8 1.1m51.5 1.7c5.3 3.8 9.3 5.3 12.4 4.8 2.4-.4 3.7 0 5.4 1.8l2.2 2.3-4.2-.5c-6.1-.8-11.4-3.2-21.4-10.1-1.7-1.1-1.7-1.2.6-.6 1.4.3 3.6 1.4 5 2.3m-2 3.1c0 .5-.4 1-1 1-.5 0-1-.5-1-1 0-.6.5-1 1-1 .6 0 1 .4 1 1m-4.7 10.6c5.5 5 9.7 9.9 9.7 11.4 0 2.5 11.5 12.2 17.8 15 1.2.5 2.5 1.7 2.8 2.5.8 1.9 2.4 1.9 2.4 0 0-1.1 1.3-1.5 4.8-1.6 4.7-.2 4.6-.2-1.5-1-3.4-.4-7.2-1.3-8.4-1.9-2.1-1.2-1.9-1.4 4.5-7.5 6.2-5.9 7.9-8.5 5.6-8.5-.5 0-1 .4-1 1 0 .5-.9 1.9-2.1 3.1l-2.1 2.1.7-3.3c.7-3.2.7-3.3-1.1-1.9-1 .9-1.5 1-1 .2 1.4-2.3-.5-3.4-2.1-1.2-1 1.4-2.2 2-3.4 1.7-1.1-.3-2.1-.2-2.4.3-.7 1.1-5.9 2-8.4 1.3-2.7-.7-2.7-3 .2-5.4s4.7-2.4 4.7.1c0 1.6-.7 2-3.2 2s-2.9.3-1.8 1c2.6 1.7 5.6 1.1 8-1.5 1.4-1.5 3.5-2.5 5.1-2.5 1.5 0 3.4-.7 4.3-1.5 1.7-1.8 5.3-2 5.8-.4.2.7 3.2 1.2 7.1 1.4 3.7.1 7 .5 7.4.9.6.5-.1 4.3-2.3 12.6-.5 1.7-.3 2.2.3 1.5 1.8-1.7 4.2-10.3 3.6-12.6-.5-2-.3-2.1 2.8-1.4 4.9 1.1 4.9 1.1 4.9 7 0 4.1-.4 5.6-1.7 6.4-1.7 1-1.6 1 .2 1.1 1.8 0 1.8.2-.5 1.9-1.3 1.1-3.6 2.2-5 2.5s-7.2 2.1-12.9 4c-10.1 3.5-10.4 3.5-13.3 1.8-3.4-1.9-8.4-6-14-11.4-2.2-2-4.7-3.8-5.6-4s-2.1-1.6-2.7-3.2c-1.2-3.5-7.3-10.6-9-10.6-.7 0-2-1-2.8-2.3-1.3-1.8-1.6-1.9-1.6-.5-.1 2.7-1.8 2.1-2.4-.8-.4-2.4-.3-2.6 2.5-2 1.7.3 4.9 2.2 7.1 4.2m28.5 1.4c1.2 0 2.2.4 2.2 1 0 .5-1.6 1-3.6 1-2.3 0-3.3-.4-2.8-1.1.4-.8-.1-.9-1.6-.4-1.6.5-2 .4-1.5-.5.4-.6 1.7-.9 2.9-.6 1.1.3 3.1.6 4.4.6m38.2 4.5c0 1.8.4 2.3 1.5 1.9 1.9-.8 2.1 3.6.3 5.4-1.6 1.6-3.1 1.5-2.5-.1.2-.6-.2-2-1.1-2.9-.9-1.1-1.2-2.4-.7-3.5.5-1 .7-2.4.6-3.2-.1-.7.2-1 .8-.6.6.3 1.1 1.7 1.1 3m-43.5 9.2c-.5 2.3-.4 2.5.9 1.4.9-.8 1.6-1 1.6-.6s.6.4 1.3-.1.2.1-1.1 1.2c-1.8 1.6-2.1 2.3-1.1 2.7 1.1.3.9.7-.4 1.2-2.4 1-3.8-.5-4.1-4.4-.1-2 .3-3.2 1.3-3.4.9-.3 1.8-.5 2-.6.2 0 0 1.1-.4 2.6M202 261c0 .5-.5 1-1.1 1-.5 0-.7-.5-.4-1 .3-.6.8-1 1.1-1 .2 0 .4.4.4 1m-3.1 16.5c.2 6.1-.9 8.5-2.3 4.9-1.2-3.1-.7-11.4.8-11.4.9 0 1.4 1.8 1.5 6.5m-1.9 12c0 .8-.2 1.5-.4 1.5s-.6-.7-1-1.5c-.3-.8-.1-1.5.4-1.5.6 0 1 .7 1 1.5"/>
	<path d="M173 80.4c0 .2.7.7 1.6 1 .8.3 1.2.2.9-.4-.6-1-2.5-1.4-2.5-.6M185.5 87l-2 .9h2c1.1 0 2.7-.4 3.5-.9 1.3-.9 1.3-1 0-.9-.8 0-2.4.4-3.5.9M181.8 89.7c.7.3 1.6.2 1.9-.1.4-.3-.2-.6-1.3-.5-1.1 0-1.4.3-.6.6M183 95c1.2.8.4 2-4.2 6.7-3.2 3.2-5.8 6.2-5.8 6.6 0 1.4 2.1.6 2.7-1.1.4-.9 2.8-3.8 5.5-6.3 5.3-5.1 6-6.9 2.6-6.9-1.9 0-2 .2-.8 1M189.3 100.4c-2.5 2.6-3 4.6-1.2 4.6 1.4 0 4.8-4.1 4.9-5.8 0-1.8-1.2-1.4-3.7 1.2M191.8 104.2c-3.3 3.6-3.4 3.8-.8 3.1 1.1-.3 2.5-1.4 3.1-2.5 1.8-3.4.5-3.7-2.3-.6M179.5 104.1c-1.1 1.7.1 2.1 1.5.4.8-.9.8-1.5.2-1.5s-1.4.5-1.7 1.1M145 80c0 2 2.3 4.3 3.3 3.3 1.4-1.3.6-4.1-1.3-4.6-1.4-.4-2 0-2 1.3M138.1 90.1c0 1.3.4 3.3.9 4.4.7 1.4.8.8.3-2-.7-4.6-1.3-5.9-1.2-2.4M118.6 141.6c-.9 2.5-.7 6.4.4 6.4.6 0 1-.8 1-1.8 0-.9.3-2.7.6-4 .7-2.5-1.1-3.1-2-.6M205.8 167.2c-.8 2 .2 3.8 1.9 3.8 1 0 1.3-.6.9-1.6-.3-.9-.6-2-.6-2.5 0-1.3-1.7-1.1-2.2.3M131.8 206.7c.6.2 1.8.2 2.5 0 .6-.3.1-.5-1.3-.5s-1.9.2-1.2.5M217.5 241c-.3.5.1 1 .9 1 .9 0 1.6-.5 1.6-1 0-.6-.4-1-.9-1-.6 0-1.3.4-1.6 1M227.2 243.5c-1.2 1.4-2.2 2.8-2.2 3.2 0 .3-.7 1.5-1.7 2.5-1.5 1.7-1.5 1.9 0 3.6 1 1 1.7 2.4 1.7 3 0 .7.5 1.2 1 1.2.7 0 .7-.6 0-1.9-1.6-3.2-1.1-3.8 1-1.1 2.3 3 3.5 2.2 1.9-1.4-1-2-.9-3.5 0-6.7 1.5-5 1.1-5.6-1.7-2.4M239 247.3c0 .7.9 1.8 2 2.5 2.3 1.4 2.6.5.6-2.1-1.6-2-2.6-2.2-2.6-.4M217.6 253.5c-1.1.8-1.7 1.7-1.4 2.1.7.6 4.8-1.7 4.8-2.8 0-1.2-1.3-.9-3.4.7M236.5 256.7c-3.9.6-5.7 2.3-2.4 2.3 1.4 0 3.4-.7 4.5-1.5 1-.8 1.7-1.4 1.4-1.3-.3 0-1.8.3-3.5.5M227.8 260.7c.7.3 1.6.2 1.9-.1.4-.3-.2-.6-1.3-.5-1.1 0-1.4.3-.6.6M212.4.9c.4.6 1.5 1.1 2.4 1.1 2.3 0 7 3.3 6.5 4.6-.2.6 1.3 2.7 3.3 4.8 2.7 2.8 3.4 4 2.5 4.9-1.7 1.7-1.3 2.7 1 2.7 1.1 0 3.4.9 5 2.1 1.6 1.1 2.9 1.8 2.9 1.5 0-.4-1.4-3.1-3.1-6.1-2-3.6-3.7-5.5-5-5.5-1 0-2.3-.9-2.9-1.9-1.6-3-1.2-3.6 1-1.6 1.1 1 2.3 1.6 2.6 1.2 1-1-.5-2.6-4.9-5.1C219 .8 211.3-1 212.4.9"/>
	<path d="M219.5 11c.3.5 1.1 1 1.6 1 .6 0 .7-.5.4-1-.3-.6-1.1-1-1.6-1-.6 0-.7.4-.4 1M165.7 14.1c-2.5 3.9-2.6 9.9-.2 9.9 1.1 0 1.5-1.1 1.5-3.8 0-2.1.5-4.3 1.2-5 .9-.9.9-1.5.1-2.3s-1.5-.5-2.6 1.2M202 21.1c0 1.1.5 1.7 1 1.4.6-.3 1-1.3 1-2.1s-.4-1.4-1-1.4c-.5 0-1 .9-1 2.1M192.6 30.5c-.3.8-1.7 1.5-3.1 1.5s-2.5.5-2.5 1.1.7.9 1.5.5c.8-.3 1.5-.1 1.5.3 0 .5-.6 1.1-1.2 1.4-.9.3-.7.7.5 1.2 2.2.9 4.6-1.9 4.7-5.3 0-2.5-.5-2.9-1.4-.7M210 37.5c.7.9 1.5 1.3 1.7 1.1.7-.7-.7-2.6-1.9-2.6-.6 0-.6.6.2 1.5M181.6 40.4c.3.9.1 1.6-.5 1.6s-1.1.9-1.1 2 .7 2 1.5 2 1.6-.9 1.7-2c0-1.1.1-2.5.2-3.2.1-.6-.5-1.3-1.2-1.6-.7-.2-1 .2-.6 1.2M202.2 40.7c-1.2 2.1 0 5.3 1.2 3.4 1-1.6 2.6-1.4 2.6.4s1.2 1.9 2.8.3c.9-.9 1.2-.9 1.2 0 0 .7.9 1.2 2 1.2 2.1 0 2.7-2.4.9-3.6-.8-.4-.7-.9.2-1.5 1-.6.9-.8-.6-.8-1.1-.1-3.6-.4-5.7-.7-2.9-.5-3.8-.2-4.6 1.3M214.2 56.3c-.6.7-.8 1.7-.4 2.3 1.1 1.8 6.2 2.6 7.8 1.3 1.9-1.5 1.8-3.3-.2-2.5-.8.3-2.5-.1-3.8-.9-1.9-1.3-2.5-1.3-3.4-.2M204.5 57c.3.5 1.3 1 2.1 1s1.2-.5.9-1c-.3-.6-1.3-1-2.1-1s-1.2.4-.9 1M202 59.1c0 .5.5.7 1 .4.6-.3 1-.8 1-1.1 0-.2-.4-.4-1-.4-.5 0-1 .5-1 1.1M183.6 60.3c.3 1 .9 1.5 1.2 1.2s0-1.1-.7-1.8c-1-.9-1.1-.8-.5.6M272 81.1c0 2 1.6 4.3 2.3 3.2.3-.4-.1-1.7-.9-2.8-1-1.3-1.4-1.5-1.4-.4M254.8 90.7c.7.3 1.6.2 1.9-.1.4-.3-.2-.6-1.3-.5-1.1 0-1.4.3-.6.6M241.4 100.1c-1.1 1.8-.6 8.9.7 10.5.6.8.9 1.7.6 2-1.2 1.2-3.9-4.7-3.5-7.6.3-1.9.1-2.9-.6-2.7-1.5.5-1.9 4.8-.7 8.1.7 1.6 2.3 3.1 4.1 3.7 1.6.6 3 1.7 3 2.5 0 2 .7 1.8 3.8-1.1 1.5-1.4 3.4-2.5 4.2-2.5s2.2-.5 3-1.1c1.2-.8.8-.9-1.5-.6-2.3.4-3.6-.1-5.7-2.1l-2.8-2.6v2.5l-.1 2.4-1.8-2.2c-1.4-1.7-1.8-3.3-1.4-6.3.6-3.9.1-5-1.3-2.9M276.8 99.7c.7.3 1.6.2 1.9-.1.4-.3-.2-.6-1.3-.5-1.1 0-1.4.3-.6.6M288 102.8c0 1.2 1.9 2.6 2.6 1.9.2-.2-.2-1-1.1-1.7-.9-.8-1.5-.8-1.5-.2M263 110.5c-.8 1.9-2.2 3.8-3.3 4.1-1.3.4-1.6 1.1-1.1 2.2.3 1 .9 2.8 1.2 4.1.4 1.9.2 2.3-1.2 1.8-.9-.4-1.6-.2-1.6.3 0 .6 1.1 1 2.5 1 2.2 0 2.5-.4 2.5-3.4 0-1.9.6-4.1 1.3-4.8 1.6-1.6 2.9-7.5 1.8-8.2-.4-.3-1.4 1-2.1 2.9M287 108c0 .5.5 1 1 1 .6 0 1-.5 1-1 0-.6-.4-1-1-1-.5 0-1 .4-1 1M281 112.5c0 2.2.2 2.4 1.4 1.3.8-.7 1-1.5.5-1.6-.5-.2-.7-.8-.3-1.3.3-.5 0-.9-.5-.9-.6 0-1.1 1.1-1.1 2.5M277.5 113.3c-.4 1-.5 2.1-.1 2.4 1 1 1.8-.4 1.3-2.4-.4-1.7-.4-1.7-1.2 0"/>
	<path d="M250.2 117.8c-.8.2.1 1.1 2 2.1 3.9 2 5.8 1.6 5.8-1 0-2.1-1.6-2.6-2.3-.7-.3 1-.9 1-2.3.2-1.1-.6-2.5-.9-3.2-.6M277.1 118.6c0 1.1.3 1.4.6.6.3-.7.2-1.6-.1-1.9-.3-.4-.6.2-.5 1.3M253 124.4c0 .8.4 1.7.9 2 .5.4.7-.3.4-1.4-.6-2.3-1.3-2.6-1.3-.6M271 126.7c0 1 .4 1.4.8.8s1.1-1.3 1.6-1.8c.5-.4.2-.7-.7-.7-1 0-1.7.8-1.7 1.7M298.2 128c0 1.4.2 1.9.5 1.2.2-.6.2-1.8 0-2.5-.3-.6-.5-.1-.5 1.3M251 130.2c0 1.2-.6 2.9-1.4 3.7-2.9 3.3-7.7 13.1-6.4 13.1.7 0 2.6-2.6 4.1-5.8 1.6-3.1 3.7-7.1 4.8-8.8 1.7-2.7 1.7-3.2.4-3.8-1-.4-1.5.1-1.5 1.6M257 132c-.9.6-1 1-.3 1 .6 0 1.5-.5 1.8-1 .8-1.2.4-1.2-1.5 0M293.2 136c0 1.4.2 1.9.5 1.2.2-.6.2-1.8 0-2.5-.3-.6-.5-.1-.5 1.3M250 138.5c-1.7 2.1-.8 2.8 2.1 1.6 1.3-.5 1.8-1 1.1-1-.7-.1-1-.6-.7-1.1 1-1.6-1.1-1.2-2.5.5M287.7 141.7c.2 2.7.9 5.3 1.5 6 .6.8.6 1.8-.1 3-.9 1.6-1 1.6-1.1.1 0-.9-.5-2-1.2-2.4-.8-.5-.9-.2-.5 1 .4.9.2 3.9-.4 6.6-.8 3.8-.7 5.8.5 9.2l1.4 4.3-.2-7.3c-.3-6.9.5-9.9 1.8-6.7.3.8.9 1.5 1.3 1.5 1 0 1.1-8 .2-9.5-.4-.6-1-2.9-1.4-5.2-.9-6-2.5-6.4-1.8-.6M296.2 139c0 1.4.2 1.9.5 1.2.2-.6.2-1.8 0-2.5-.3-.6-.5-.1-.5 1.3M226.7 138.7c-1.6 1.5-.7 8 1.4 9.9s2.2 1.9 1.5-.4c-.7-2.1-.6-2.1 2-1.2 1.5.6 2.9.9 3.1.6.8-.8-1.2-3.1-2.7-3.1-.9 0-1.5-.9-1.4-2.2 0-1.2-.3-2-.8-1.7-.4.3-.8 1.4-.8 2.5 0 1.2-.4 1.7-1.1 1.3-.6-.3-.9-1.9-.5-3.5.6-3 .4-3.4-.7-2.2M263.6 141.2c-.9 3.6-.7 4.1.9 2.8s2.1-5 .6-5c-.5 0-1.1 1-1.5 2.2M246.6 145.2c-1.7 2.4-2 3.8-.8 3.8.8 0 3.4-5.2 2.8-5.7-.2-.3-1.1.6-2 1.9M242.6 150.6c-.9 2.2-.8 2.4.9 2.4.8 0 1.5-.6 1.5-1.4 0-2.2-1.7-2.8-2.4-1M247.3 152.6c-1.5 1.6-1.6 2.4-.4 2.4.8 0 2.4-3 1.9-3.5-.2-.2-.9.3-1.5 1.1M254.3 153.8c-1.4 1.7-1.8 2.8-1.1 3.1 1.2.4 4.8-3.4 4.8-5s-1.5-.9-3.7 1.9M174 154.5c1.7 2.1.7 2.9-1.9 1.5-2.3-1.2-2.9.1-.8 1.8 1.8 1.5 8.4 2.5 9.1 1.4.3-.5-1-2.2-2.8-3.6-3.9-2.9-5.5-3.4-3.6-1.1M167 173.8c0 .4 1.4 1.8 3 3 1.7 1.3 3 2.8 3 3.4s-1 .2-2.2-.9c-5.3-4.7-6.6-4-1.6.9 3.1 3 3.2 3.1 4.1 1 .5-1.1.7-2.8.4-3.6-.7-1.7-6.7-5.1-6.7-3.8M285 174.9c0 .6.4 1.3 1 1.6s.7-.1.4-.9c-.7-1.8-1.4-2.1-1.4-.7M269.5 181c.3.5 2.2 1 4.1 1 2.1 0 3.3-.4 2.9-1-.3-.6-2.2-1-4.1-1-2.1 0-3.3.4-2.9 1M297 181.4c0 .8 1.1 1.6 2.5 1.8 1.4.3 2.5.2 2.5-.2s-1.1-1.2-2.5-1.8c-2-.9-2.5-.9-2.5.2M280 182c-.7.5.3.9 2.6 1.2 4.9.6 5.3.3 1.6-1-1.6-.5-3.5-.6-4.2-.2M164.3 183.4c.4 1.1.1 1.3-1 .9s-1.4-.2-1.1.8c.3.8 1.2 1.3 2.2 1.1 1.8-.3 2.2 1.4.4 2-.9.3-.9.6 0 1.2.7.4 1.2.2 1.2-.4s1-.8 2.5-.4c2.5.6 2.5.6-.7-3-3.4-3.9-4.3-4.4-3.5-2.2M316.8 186c.3 2.1.8 2.8 1.4 2.2 1.2-1.2.7-4.4-.8-4.9-.7-.2-.9.8-.6 2.7M156 185.2c0 1.4 2.3 5.8 3.2 5.8.4 0 .8-.3.8-.8-.1-.9-3.9-5.9-4-5M152.1 188.9c-1 .6-1.1 1.3-.2 2.9 1.5 2.7 1.4 3-.6 3.5-1.5.3-1.3.6.9 1.5 1.4.6 2.9 1.6 3.3 2.1.3.6 1.6 1 2.8 1 1.6-.1 1.7-.3.5-.6-.9-.2-1.9-1-2.2-1.8-.3-.9 0-1.2 1-.8.7.3 1.4 0 1.4-.6s-.8-1.1-1.8-1.1c-2.5 0-4.9-5-3-6.1.7-.5.9-.9.3-.9-.5 0-1.6.4-2.4.9M319 197.1c0 4.5.3 6 1.1 5.2 1.5-1.5 1.7-10.5.2-11-1-.3-1.3 1.2-1.3 5.8M169 193.5c1.2 1.5 3 1.2 3-.6 0-.5-1-.9-2.1-.9-1.8 0-1.9.2-.9 1.5M164.2 195c0 1.4.2 1.9.5 1.2.2-.6.2-1.8 0-2.5-.3-.6-.5-.1-.5 1.3M313.7 195.9c-.8 1.7-1.2 3.3-.8 3.6.5.2.6 1.7.3 3.1-.9 4.6 1.5 1.8 2.7-3.2 1.5-5.8 0-8-2.2-3.5M194.5 198c.3.5 1.6 1 2.8 1 1.8 0 1.9-.2.7-1-2-1.3-4.3-1.3-3.5 0M308.4 203.6c-.4 1.4-.2 3 .5 3.7 1.9 1.9 1.3 3.9-.9 3.2-2.1-.7-2.5.1-1.1 2.4.5.8 1.6 1.1 2.5.8 1.2-.5 1.6-2.1 1.6-6.7 0-6.1-1.4-8.1-2.6-3.4M209.3 203.4c.4 1 .7 2.2.7 2.6 0 .5.9 1.4 2.1 2 2 1.1 2 1.1.5-1.9-1.8-3.4-4.4-5.5-3.3-2.7M295.8 203.2c-.7 1.8.2 3.9 1.3 3.2 1.2-.7 1.2-4.4 0-4.4-.5 0-1.1.6-1.3 1.2M292 209.9c-1.7 3.2-1.2 4.2 4 9.3 5 4.9 6.4 5.6 7.5 3.8 1.3-2.2-.6-5-3.4-5-1.6 0-3.7-1-4.9-2.3-3.3-3.5-2.6-4.5.8-1.2 2.5 2.4 3 2.6 3.6 1.2.3-.9.4-2.2.1-2.9-.3-.8-.6-.5-.6.6-.1 1.8-.2 1.8-2.5-.3-1.4-1.3-2.2-2.9-1.9-3.7.8-2.1-1.5-1.7-2.7.5M198.5 212c1 1.1 2 1.8 2.3 1.5.7-.6-1.8-3.5-3.1-3.5-.5 0-.2.9.8 2M40.5 214.5c-6.9 2.9-9.5 4.4-9.5 5.6 0 .6.9.8 2.1.4 1.6-.5 1.9-.4 1.4.5s-.4 1.1.4.6c.6-.4.9-1.2.5-1.7-.3-.6.3-1.3 1.5-1.6s2.1-.9 2.1-1.3 1.6-1.1 3.5-1.4c1.9-.4 3.7-1.1 4-1.6 1.1-1.8-1.1-1.6-6 .5M77.6 214.7c-2.9.3-6 1.2-7.4 2.4-1.4 1-3.3 1.9-4.3 1.9-3.8 0-22.6 11.3-26.7 16-4.1 4.8-7 11.3-6.7 15.3.4 6.5 1.9 5.9 2.8-1.1.5-3.4 1.3-6.2 1.8-6.2s.9-.6.9-1.3c.1-3.8 20.7-20.4 22.8-18.3.3.3 1.1-.2 1.8-1.2.9-1.3 2.5-1.6 6.4-1.5 6.9.3 8.3 2 7.4 9.3-1.1 9.7-1.1 22.3 0 20.3.6-1 1.1-5.7 1.1-10.4 0-9.8 1.8-13.9 6-13.9 1.5 0 3.1-1.1 4.5-3 1.2-1.7 3.6-3.7 5.3-4.5 1.8-.7 2.5-1.4 1.6-1.4-2-.1-7.9 2.8-7.9 3.8 0 .4-1.5 1.6-3.3 2.6-3.3 1.8-3.4 1.8-6-.9-1.4-1.4-3.6-2.6-4.9-2.6l-2.3-.1 2.5-1.4c1.4-.8 4.4-1.7 6.8-2.1 2.3-.3 4.5-1 4.8-1.5s-.1-.8-.8-.7-3.5.3-6.2.5M287 215.6c.1 1.6 2.9 6 2.9 4.4 0-.8-.6-2.4-1.4-3.4-.8-1.1-1.5-1.6-1.5-1M210 221c0 .5.6 1 1.4 1s1.8-.5 2.1-1c.3-.6-.3-1-1.4-1-1.2 0-2.1.4-2.1 1M28 221.7c-2.4.9-6 4.5-5.4 5.4.3.5-.4.9-1.6.9-1.1 0-2 .6-1.9 1.2.3 2.6-.1 3.8-1.4 3.8-.7 0-2.4 1.4-3.7 3.2-1.7 2.3-1.9 3-.7 2.5 1.6-.6 1.6-.2 0 4.3-1 2.7-1.3 11.6-.4 10.1.7-1.1.9-1.1 1.4 0 .3.8.6.3.7-1.1s.6-3.4 1.1-4.5c.7-1.5.8-1.2.4 1.5-.6 3.6.8 3.2 1.9-.5.3-1.1.4-.1.2 2.3-.5 4.8.9 4.8 1.6 0 .3-1.8.9-4.2 1.3-5.3.5-1.1.5-1.7 0-1.3-.4.4-1.4.1-2.1-.7-1.8-1.8-1.8-2.6.1-1.9 1.6.7 2.1-1.1.5-2.1-.9-.5.4-3.9 2-5.5 3-2.8 7.8-9.5 7.4-10.1-.3-.5.3-.6 1.3-.2 1.6.6 1.6.5.4-1-.7-.9-1.4-1.7-1.5-1.6zM246 222c2 1.3 4.3 1.3 3.5 0-.3-.6-1.6-1-2.8-1-1.8 0-1.9.2-.7 1M109.5 224c-.3.5-1.7 1-3 1s-2.7.4-3 1c-.9 1.5 3.2 1.2 6.5-.5 1.7-.9 3-1.8 3-2 0-.9-2.9-.5-3.5.5M231.7 224.7c-.4.3-.7 1.1-.7 1.7s.5.5 1.2-.2c.6-.6.9-1.4.7-1.7-.3-.3-.9-.2-1.2.2"/>
	<path d="M68 226.1c-1.9.4-4.7 1.1-6.2 1.5-1.6.3-2.8 1-2.8 1.5 0 1.7-1.8.9-2.2-.9-.2-1.2-1.5.2-4.1 4.3-4.4 7-4.8 9.2-.8 4.9 4.1-4.5 7.2-6.4 10.5-6.4 1.6 0 3.8-.7 4.8-1.7 2-1.8 2.2-1.2.9 3.4-.7 2.4-.6 3.3.5 3.7.8.3 1.4 1.5 1.4 2.7 0 1.8-.2 1.9-1.5.9-1.2-1-1.5-1-1.5.2 0 .8.5 1.9 1.2 2.6.9.9.7 1.2-1 1.2-2.5 0-3 2.5-.7 3.4.8.3 1.5.1 1.5-.3 0-.5-.6-1.2-1.2-1.4-.7-.3-.4-.6.7-.6 3.9-.1 4.8 1.3 3.5 5.1-1.1 2.9-1 3.9.3 6.4 1.5 2.7 1.6 1.8 1.4-14.4-.1-9.4-.4-17.1-.7-17.1-.3.1-2.1.5-4 1M255.5 226c.3.5.8 1 1.1 1 .2 0 .4-.5.4-1 0-.6-.5-1-1.1-1-.5 0-.7.4-.4 1M101 229c-1.3.8-1.3 1 .2 1 .9 0 2-.5 2.3-1 .8-1.3-.5-1.3-2.5 0M95.5 233c-.3.5-.2 1 .4 1 .5 0 1.3-.5 1.6-1 .3-.6.2-1-.4-1-.5 0-1.3.4-1.6 1M43.8 240.1c-2.6 4.6-2.7 5.8-.2 4.1 1.3-.9 3.7-6.8 3.3-8.1-.2-.5-1.6 1.2-3.1 4M30 237.5c-.7.9-1.1 1.8-.8 2 .3.3 1.1-.1 1.8-1s1.1-1.8.8-2c-.3-.3-1.1.1-1.8 1M32.6 239.2c-2.3 3.5-4.3 8.9-4.9 13.3l-.6 4 1.1-3.5c1.3-4.4 4.9-12 6.7-14.3.9-1.1 1-1.7.3-1.7-.6 0-1.8 1-2.6 2.2M9.7 243.2c-.9 2.1-1.5 5.2-1.5 6.9l.1 3.2 1.8-3.4c1-2.1 1.4-3.8.8-4.5-.5-.6-.4-1.5.2-2.1s.9-1.7.7-2.5c-.3-.7-1.2.3-2.1 2.4M24 244.5c-1.6 3.8-3.9 13.9-2.5 11 1-2.1 5.2-15.5 4.8-15.5-.2 0-1.2 2-2.3 4.5"/>
	<path d="M54 241.5c-.6.8-.9 1.9-.5 2.5.8 1.3-3.2 6-5.1 6-1.1 0-3.9 3-9.1 9.8-1.2 1.6-5.2 4.5-8.8 6.3-5.7 3-9 5.9-6.6 5.9 1.5 0 10.1-5.1 10.1-6 0-.5.9-1.1 2-1.5 4.5-1.4 21-20.2 21-24 0-1-1.8-.5-3 1M25.6 247.9c-.9 3-1.6 6.2-1.5 7 0 .9.9-1.1 2-4.4 1-3.3 1.7-6.5 1.5-7-.2-.6-1.1 1.4-2 4.4M152 243.5c0 .3 1.5 1.1 3.4 1.9s4.3 2.3 5.4 3.3c1 1 3.3 2.6 5.1 3.5 1.7.9 4 3.3 5.2 5.2 2 3.5 6.6 7.2 7.6 6.2.4-.3-.6-1.5-2-2.7-1.5-1.1-2.7-2.7-2.7-3.5 0-1.9-7.1-8.7-12.5-11.8-3.8-2.3-9.5-3.5-9.5-2.1"/>
	<path d="M47.8 245.7c-1 .2-1.8 1.1-1.8 1.9 0 1.2.4 1.2 2 .4 1.1-.6 2-1.5 2-2 0-.6-.1-.9-.2-.9-.2.1-1.1.3-2 .6M30.1 252.9c-.7 2.3-1 4.5-.7 4.8.9.9 2.7-4.9 2.3-7.1-.2-1.5-.7-.8-1.6 2.3M3.6 253.7c-1.6 2-2.3 3.4-1.6 3.1 1.6-.5 5.6-5.6 4.9-6.2-.3-.3-1.8 1.1-3.3 3.1M38.6 253.6c-.5 1.4-.4 1.5.9.4 1.7-1.4 1.9-2 .6-2-.5 0-1.2.7-1.5 1.6M62.3 257.2c-1 1.2-1 2.5-.1 6.6.7 2.9 1.6 5.2 2 5.2.8 0 3.6 2.1 6.4 4.8 1 1 1.5 1 2.6-.1.7-.8 2.1-1.2 3.2-.9 3.9 1 .3-2-5.8-4.9-6-2.8-6.1-2.9-6.6-7.6-.4-3.9-.7-4.4-1.7-3.1M67.1 257.1c0 .9.6 2.2 1.4 2.9 1 .9 1.5.9 1.5.1 0-.6-.4-1.1-.9-1.1s-1.2-.8-1.4-1.8c-.4-1.4-.5-1.4-.6-.1M37.5 258.1c-1.1 1.7.1 2.1 1.5.4.8-.9.8-1.5.2-1.5s-1.4.5-1.7 1.1M57.6 258.5c-.3.9-.6 2.6-.5 3.8.1 1.6.4 1.2 1-1.2 1-3.4.6-5.5-.5-2.6M168 260.4c0 .8.7 1.6 1.5 2 1.3.4 1.4.2.5-1.4-1.3-2.3-2-2.6-2-.6M247 260c0 .5.5 1 1 1 .6 0 1-.5 1-1 0-.6-.4-1-1-1-.5 0-1 .4-1 1M33 261.1c0 .5.5.7 1 .4.6-.3 1-.8 1-1.1 0-.2-.4-.4-1-.4-.5 0-1 .5-1 1.1M172 265.4c0 .8 1.1 2.3 2.5 3.4 1.3 1 2.5 2.5 2.7 3.3s.7 1.7 1.2 2c1 .7 1.8 7.1 1.8 14.4.1 3.6.3 4.5.9 3 .8-1.8.8-1.7.6.5-.1 1.5-1.2 3-2.7 3.7-1.8.9-2 1.3-.7 1.3 1.9 0 2.4 3.4.7 4.5-.8.5-.7 1.1.1 2.1.9 1.1.8 1.4-.5 1.4-1 0-1.4.5-1.1 1 .4.6 1.1.8 1.6.5.5-.4 1.1 0 1.3.7.1.7.9 2.9 1.6 4.8s2.1 6.2 3.1 9.5c1.8 5.7 1.9 5.8 1.3 1.5-.4-2.5-1.5-6.8-2.5-9.5-2.1-6-3.6-15.8-2-13.5.6.8 1.1 2.6 1.2 4s.6-1.5 1-6.4c.5-5 .5-9.2 0-9.5-.4-.3-1.1-2.8-1.4-5.5l-.5-5 1.9 2.5c1 1.3 1.9 3.4 1.9 4.6 0 1.3.5 2.3 1 2.3.6 0 1-1.6 1-3.6 0-2.7-.7-4.1-2.8-5.9-1.6-1.3-4.4-4.9-6.3-7.9-3.2-5.3-6.9-7.5-6.9-4.2M250.6 265.8c-.4.6.1 2.9 1 5.2 1.8 4.4 1.4 14.2-.6 18-1.8 3.3-.1 2.2 2-1.3 2.3-3.7 2.6-10.8.8-17.1-1.3-4.7-2.3-6.2-3.2-4.8M56.6 268.8c1.7 1.5 4.5 4.2 6.2 6 5 5.2 3.8 2-1.4-3.7-2.5-2.8-5.3-5.1-6.2-5.1-1.2 0-.9.8 1.4 2.8M230.2 272.1c.3 2.7 1.1 5.6 1.8 6.2q1.5 1.5.6-.6c-.3-1-.6-3.9-.6-6.3 0-2.6-.5-4.4-1.1-4.4-.8 0-1 1.7-.7 5.1M33.8 274.6c-2.7 3-4.8 5.9-4.8 6.4 0 1.4 4.8 4.3 6 3.5.5-.3 1-1.5 1-2.5s.4-2.1.9-2.4.7-1.5.4-2.6c-.3-1.3 0-2 .8-2 .9 0 1.4-1.2 1.5-3 .1-1.7-.2-3-.5-2.9-.3 0-2.7 2.5-5.3 5.5m-.8 5.9c-.7.9-1.5 1.3-1.7 1.1-.6-.6 2-3.6 2.6-3 .2.2-.2 1-.9 1.9M49.3 273.7c.3 2.1.9 6.6 1.3 10.1.4 3.8 1.5 7.6 2.8 9.5 1.2 1.8 3 4.9 4.1 7 2.4 4.6 13.2 15.4 14.2 14.3.5-.5.2-1.1-.4-1.3-.7-.3-1.3-.9-1.3-1.4 0-.6-2.2-3.2-5-5.8-2.7-2.6-5-5.4-5-6.1s-.7-2.2-1.7-3.2q-1.65-1.8-.3-1.8c.7 0-.4-1.8-2.4-4-2.7-3-3.6-4.9-3.6-7.4 0-1.9-.3-4.2-.7-5.2-.4-1.1-.3-1.5.5-1 .6.3 1.4 2.8 1.8 5.4s1 3.9 1.2 2.9c.2-.9.7-1.7 1.2-1.7 2.1 0-3.7-13.9-5.9-14-1 0-1.2.9-.8 3.7M17 273.9c-.5 1.1-1.6 2.5-2.3 3.3C13 278.9 9 287.2 9 289c0 .8 1.1-.1 2.5-2s2.5-3.9 2.5-4.5c0-.5.9-1.6 2-2.3 1.2-.7 1.8-1.7 1.4-2.3-.3-.5.4-1.8 1.5-2.8 2.5-2.2 2.7-3.1.6-3.1-.8 0-1.9.9-2.5 1.9M191 273.4c0 .8.5 1.8 1 2.1.6.3 1-.1 1-.9s-.4-1.8-1-2.1c-.5-.3-1 .1-1 .9M203.5 273c-.3.5-.1 1 .4 1 .6 0 1.1-.5 1.1-1 0-.6-.2-1-.4-1-.3 0-.8.4-1.1 1M77 275.5c0 .8 10.4 11.5 11.2 11.5 1.6 0 .6-1.7-4.1-6.8-4.1-4.4-7.1-6.5-7.1-4.7M77 280c0 .5.5 1 1.1 1 .5 0 .7-.5.4-1-.3-.6-.8-1-1.1-1-.2 0-.4.4-.4 1M207 282c0 .5.4 1 .9 1 .6 0 1.3-.5 1.6-1 .3-.6-.1-1-.9-1-.9 0-1.6.4-1.6 1M226.6 286.1c-7.9 5.5-13.9 6.5-19.7 3.2-2.2-1.2-4.2-2.3-4.4-2.3s.2 11.1.4 12.9c.1.3.7-.3 1.4-1.4 1.8-2.4 2.7-.9 3.4 5.9.6 5.5-.7 12.7-3.4 20.3-.8 2.3-1.3 4.7-1.1 5.4.4 1.3 4.8-11.1 4.8-13.7 0-.8.5-1.2 1-.9.6.3 1 .3 1-.2 0-.4.2-4 .5-8 .3-5.4.1-7.4-1-8.3-.8-.7-1.5-1.5-1.5-1.9 0-.9 5.6-4.2 6.2-3.6.3.3 2.1-.2 4.1-1s4.1-1.5 4.7-1.5 1 2.8 1 6.9c0 3.9.4 7.2 1 7.6.5.3.7-2.6.3-7.9l-.6-8.5 3.4-2c1.9-1.2 3.8-2.2 4.3-2.4s.7-.8.5-1.5c-.3-.8-2.6.3-6.3 2.9M70 284.5c.7.9 1.5 1.3 1.7 1.1.7-.7-.7-2.6-1.9-2.6-.6 0-.6.6.2 1.5M29.7 287.7c-.3 1-.8 3.6-1.2 5.7-.6 3.4-.5 3.8.8 2.7.8-.6 1.7-3.2 1.9-5.6.3-4.5-.6-6.1-1.5-2.8"/>
	<path d="M220.7 287.4q-.6 1.5.9.9c1.5-.6 1.9-2.3.5-2.3-.5 0-1.1.7-1.4 1.4M40.2 295.3c-.1 4 .2 7.9.8 8.7.6 1 .9-1.1.7-6.7-.3-10.3-1.1-11.4-1.5-2M188.7 297c.3 3.6 1.1 7.8 1.8 9.5 2.2 5.1 2.9 10.6 2.8 21-.1 5.5-.3 10.7-.5 11.5s.2 1.6.7 1.8c2.9.8 2.9-25.5.1-34-.8-2.4-1.8-6.4-2.1-9-.4-2.6-1.1-4.6-1.5-4.3-.5.3-1.1-.3-1.3-1.2-.3-1-.3 1.1 0 4.7M19.9 293.7c-1.3 1.5-1.2 1.5.9.4 2.3-1.2 2.8-2.1 1.3-2.1-.5 0-1.5.7-2.2 1.7M60 294.5c0 .8.9 1.5 1.9 1.5 1.1 0 3.2 1.1 4.7 2.5s3 2.5 3.3 2.5 2.2 1.4 4.1 3.1c5.8 5.2 7.9 6.2 13.3 6.4 2.9.1 7 .5 9.2.9 2.6.5 3.5.4 2.6-.2-1-.7-1-1.1-.1-1.7 2.1-1.3 9.1 1.8 14.1 6.3 6.3 5.7 7.7 4.6 1.9-1.3-3.2-3.3-5.5-4.7-8.2-5.2-2.4-.3-3.8-1.1-3.8-2.1 0-1.2-.8-1.3-4.2-.7-8 1.5-17.6.9-20.3-1.1-1.7-1.3-1.8-1.6-.5-2.5 1.2-.8.9-.9-1.1-.5-2.8.6-6.9-2.3-6.9-4.9 0-.8-1.2-1.7-2.7-2-1.6-.4-3.6-1-4.5-1.6-2.4-1.2-2.8-1.2-2.8.6M246 295.5c-.8.9-2.2 1.4-3.2 1.2-1.9-.5-2.5.8-.8 1.8 1.5.9 4.7-.4 5.4-2.2.9-2.2.1-2.6-1.4-.8M65.5 304c.3.5.8 1 1.1 1 .2 0 .4-.5.4-1 0-.6-.5-1-1.1-1-.5 0-.7.4-.4 1M184 309.4c0 .8.5 1.8 1 2.1.6.3 1-.1 1-.9s-.4-1.8-1-2.1c-.5-.3-1 .1-1 .9"/>
	<path d="M120 321c0 .5.8 1 1.7 1s2.5.7 3.5 1.7c1 .9 2.1 1.3 2.4 1 .4-.3-.9-1.5-2.7-2.6-3.8-2.3-4.9-2.6-4.9-1.1M251.3 331.3c2.7 1.1 2.8 1.3 2.1 6.7-.3 3-.8 5.8-1.1 6.2-.6 1.2-4.8.9-6-.3-.7-.7-1.3-.7-1.7-.1-1.2 2 2.1 2.7 14.1 2.8 6.7.1 13.8.5 15.7.8 3.8.7 5.1-.8 1.5-1.7-1.7-.5-2-1.1-1.5-2.9.3-1.3.6-3.5.6-5.1 0-2.3.4-2.7 2.8-2.7 2-.1 2.3-.3 1.2-.9-.8-.5-6.2-1.1-12-1.5-5.7-.3-10.9-1.1-11.4-1.6-.6-.6-2.4-1-4-.9l-3.1.1zm17.1 3.3 4.7.7-.3 5.1c-.3 4.8-.5 5.1-2.8 4.8-1.4-.1-4-1.8-5.8-3.7-4.1-4.4-4.7-4.4-2.2 0l2 3.5h-3.3c-5.2 0-6.6-1.7-5.5-6.8.9-4 1.1-4.2 4.7-4.2 2.1 0 5.9.3 8.5.6"/>
	<path d="M269.5 339.1c-.4.6-.5 1.2-.2 1.5.2.3.7-.2 1-1.1.7-1.7.1-2-.8-.4M192 347.1c0 1.1-.7 4.5-1.6 7.5-.8 3-1.4 6.2-1.1 7.2.2 1 1.1-.6 2-3.8 2.5-7.9 3.2-13 1.8-13-.6 0-1.1.9-1.1 2.1M187.6 369.9c-1.3 2.1-3.7 11.3-3.2 11.9 1.1 1.1 2.4-1.3 3.5-6.7 1.1-5.2 1-7.3-.3-5.2"/>
</svg>
