<?xml version="1.0" encoding="utf-8"?>
<svg xmlns="http://www.w3.org/2000/svg" viewBox="0 0 252 244">
	<title>Schematic view of the fog-bow. A large ellipse is crossed by one curved horizontal line and three curved vertical lines.</title>
	<path d="M123.405 243.852c-.084-.333-.389-14.49-.352-16.374l.042-2.134-1.328-.013c-5.345-.052-16.681-2.494-21.083-4.542-1.358-.632-3.025-1.356-3.704-1.608-1.53-.57-12.013-5.96-12.596-6.477-.234-.208-1.973-1.569-3.864-3.024-3.23-2.485-7.57-6.667-15.8-15.225-1.93-2.006-3.473-3.78-3.43-3.943.044-.162-.226-.797-.6-1.411-.768-1.258-2.458-4.314-4.128-7.466a193.337 193.337 0 0 0-2.327-4.234c-2.6-4.565-5.606-11.195-6.423-14.166-2.148-7.804-3.126-10.918-3.595-11.436-.278-.307-.506-1.196-.506-1.974 0-.779-.236-2.195-.525-3.148-.29-.952-.527-2.319-.53-3.037-.002-.718-.158-2.067-.346-2.998-.737-3.645-.97-16.422-.342-18.836.181-.698.299-2.841.262-4.763-.07-3.598.311-5.745 2.063-11.623.464-1.56.936-3.703 1.047-4.762.112-1.06.518-2.8.903-3.867s.827-2.416.983-2.998c.454-1.702 2.437-6.455 4.082-9.785.838-1.695 1.416-3.144 1.284-3.22-.13-.075-1.17-.25-2.31-.388-1.138-.138-2.647-.452-3.35-.699-.705-.247-2.065-.564-3.024-.707-.959-.142-2.546-.58-3.528-.976-.981-.394-2.26-.843-2.843-.996-.582-.154-2.09-.592-3.351-.975l-5.82-1.764c-3.704-1.12-12.2-4.243-13.407-4.927-1.01-.572-7.148-3.082-8.82-3.605-.775-.244-1.905-.74-2.51-1.105-.605-.365-1.342-.663-1.637-.663-.295 0-.904-.297-1.353-.66-.781-.634-.795-.724-.318-2.17.274-.828.755-1.825 1.07-2.214.57-.703.59-.7 2.926.404 1.295.612 2.462 1.112 2.594 1.112s.886.302 1.675.67c.789.368 2.307.947 3.375 1.286 1.067.34 2.778.997 3.803 1.462 3.122 1.418 10.145 3.841 16.834 5.81 1.358.4 3.104.93 3.88 1.18 8.775 2.82 15.814 4.809 17.284 4.884.939.048 1.156-.147 1.94-1.741 1.076-2.186 3.597-6.143 5.195-8.155.908-1.143 1.127-1.69.953-2.381-.168-.671-.088-.898.318-.898.524 0 5.083-4.491 7.878-7.761 2.236-2.615 5.86-6.008 7.178-6.719 2.16-1.165 3.005-1.98 2.602-2.508-.199-.261-.657-1.507-1.018-2.768s-.865-2.606-1.12-2.989c-.256-.382-.468-1.176-.472-1.764-.004-.587-.322-1.76-.706-2.605-.383-.846-.697-1.83-.697-2.184 0-.356-.16-.745-.353-.865s-.353-.493-.353-.83-.707-2.057-1.571-3.823c-.865-1.765-1.675-3.663-1.801-4.217-.346-1.52-1.844-5.245-3.158-7.855a340.332 340.332 0 0 1-2.942-6.07c-1.125-2.383-2.131-4.01-2.763-4.47-1.074-.782-.994-1.129.298-1.295.453-.058 1.59-.373 2.525-.7 1.415-.495 1.796-.517 2.27-.13.313.254 2.37 4.193 4.573 8.753 2.202 4.56 4.163 8.575 4.358 8.923.194.348.924 2.253 1.622 4.233.698 1.98 1.41 3.78 1.581 3.997.499.634 3.49 10.371 3.724 12.122.116.876.376 1.7.576 1.83.2.13 1.075-.389 1.944-1.154.87-.766 1.992-1.491 2.493-1.612.501-.121 1.308-.487 1.793-.812.485-.326 1.438-.81 2.117-1.075.68-.266 2.425-1.07 3.88-1.787 1.456-.717 3.678-1.574 4.94-1.905 1.26-.33 2.61-.74 2.998-.909 2.329-1.015 8.99-2.093 12.99-2.101 1.393-.003 2.699-.122 2.902-.265.408-.286.084-24.127-.387-28.428-.194-1.774-.148-2.487.17-2.684.569-.351 5.37-.022 5.907.405.281.223.417 1.837.418 4.982.001 2.56.057 9.415.124 15.235l.121 10.583 1.048.088c2.687.226 7.956.872 9.868 1.21 3.97.702 13.782 3.782 15.346 4.818 1.599 1.058 9.542 4.903 9.675 4.683.071-.118.402-1.327.735-2.685.769-3.141 3.478-11.422 4.183-12.785.771-1.49 3.04-7.584 3.044-8.171 0-.273.371-.987.823-1.588.45-.6 2.362-4.227 4.247-8.059 1.885-3.832 3.556-6.967 3.714-6.967s1.38.397 2.718.882c1.337.485 2.472.882 2.521.882.355 0-.051 1.395-.616 2.116-.379.485-.693 1.016-.697 1.18-.004.165-.331.752-.726 1.307-1.222 1.717-5.822 11.23-7.581 15.682-.92 2.328-2.024 5.027-2.452 5.997a56.755 56.755 0 0 0-1.39 3.528c-.338.97-.74 2.081-.894 2.47-.154.387-.716 2.213-1.249 4.056-.533 1.843-1.109 3.716-1.28 4.162-.171.446-.311.946-.311 1.112 0 .167 1.23 1.094 2.734 2.062 2.813 1.81 8.555 6.582 8.555 7.109 0 .163.786.895 1.747 1.628 1.797 1.37 6.12 6.164 8.093 8.974 2.663 3.793 3.476 5.044 4.917 7.561.841 1.469 1.747 2.67 2.015 2.67.267 0 2.12-.407 4.116-.905 3.762-.938 4.18-1.055 8.106-2.282 1.297-.405 3.52-1.031 4.939-1.392 8.022-2.038 20.427-6.048 22.83-7.381.467-.259 2.287-.937 4.044-1.506 1.758-.57 3.405-1.21 3.661-1.423.837-.694 5.889-2.838 6.793-2.883.789-.039.936.17 1.395 1.982.485 1.92.476 2.054-.177 2.566-.975.765-3.934 2.288-4.447 2.288-.236 0-.757.296-1.158.658-.69.623-8.21 3.693-10.564 4.312-.605.16-3.64 1.17-6.745 2.247-13.297 4.61-23.334 7.478-28.672 8.19-.917.123-1.777.393-1.913.6-.238.366 1.425 3.671 2.45 4.87.278.325.656 1.278.839 2.116.368 1.683 1.218 3.684 1.688 3.975.167.103.407.88.534 1.727.127.847.872 3.429 1.655 5.737.784 2.308 1.66 5.308 1.949 6.666.288 1.359.74 3.502 1.003 4.763s.637 2.849.83 3.528c.422 1.491 1.062 10.556 1.257 17.815.126 4.685-.412 12.666-.98 14.532-.107.35-.525 2.542-.93 4.87-1.482 8.516-3.831 16.936-5.175 18.55-.255.306-.464.817-.464 1.135 0 .318-.303 1.179-.673 1.912-1.77 3.507-3.884 8.126-4.082 8.919-.122.485-.84 1.755-1.597 2.822-.756 1.067-2.36 3.37-3.562 5.115s-3.116 4.207-4.253 5.469l-4.974 5.52c-4.671 5.184-10.39 9.753-19.807 15.824-1.145.738-3.844 2.123-5.997 3.077-9.22 4.086-15.887 5.814-23.76 6.16l-5.03.22.204 4.443c.113 2.443.349 6.264.524 8.49s.203 4.157.062 4.29c-.14.134-1.13.32-2.196.415-1.068.094-2.377.286-2.91.425-.534.14-.986.195-1.004.124zm-.313-24.661c.212-.395.3-.99.197-1.323-.104-.332-.266-9.811-.36-21.065a6870.3 6870.3 0 0 0-.35-32.985c-.405-27.973-.67-51.969-.699-63.077l-.03-11.747-4.41.09c-5.998.12-20.4-.974-25.145-1.912-.492-.097-.402 5.317.129 7.767.408 1.883.385 14.447-.037 19.843-.625 7.994-1.572 15.031-2.73 20.285-.299 1.359-.664 3.264-.811 4.234-.69 4.547-2.331 11.974-2.954 13.362-.272.606-.679 1.975-.905 3.042a54.999 54.999 0 0 1-.883 3.528c-.26.873-.577 2.064-.705 2.646a13.371 13.371 0 0 1-.704 2.117c-.259.582-.566 1.626-.682 2.32-.348 2.07-.925 2.602-2.35 2.168a35.254 35.254 0 0 0-2.175-.583c-1.304-.289-1.264-.888.404-6.04.756-2.336 1.772-5.906 2.258-7.935 2.172-9.07 2.515-10.587 3.145-13.916 2.748-14.505 3.508-23.748 3.33-40.506-.085-8-.26-12.41-.504-12.654-.206-.205-1.061-.335-1.902-.289-3.314.183-5.436-.075-11.053-1.343a152.754 152.754 0 0 0-6.526-1.29c-3.197-.546-6.347-1.245-7.993-1.774-.681-.22-.914.08-2.202 2.829-.793 1.69-1.923 4.58-2.513 6.422-.59 1.841-1.29 3.77-1.557 4.285-1.092 2.11-4.079 15.119-4.08 17.764 0 .633-.254 2.343-.565 3.798-.427 1.998-.562 4.59-.55 10.583.018 9.47.532 15.906 1.634 20.46.446 1.844.914 3.938 1.04 4.653.31 1.758 1.47 5.235 2.489 7.464.46 1.006.952 2.303 1.094 2.882s1.05 2.64 2.017 4.581l2.552 5.115c.435.874 1.484 2.649 2.331 3.946.847 1.297 2.176 3.497 2.952 4.888s2.18 3.585 3.121 4.874c.94 1.29 2.076 3.058 2.522 3.931 1.817 3.554 15.822 16.171 19.965 17.986.468.205 1.565.841 2.438 1.414 3.421 2.244 12.62 6 14.694 6 .378 0 .85.162 1.047.36.594.594 6.735 2.153 11.07 2.81 2.231.34 4.17.637 4.31.663.138.027.425-.276.636-.671zm11.282.189c9.116-.529 19.911-3.797 27.164-8.223a73.703 73.703 0 0 1 2.589-1.491c3.679-2.005 10.663-7.6 14.346-11.495 2.924-3.093 6.97-7.867 8.78-10.364 3.737-5.15 10.585-17.614 11.34-20.638.31-1.239 1.294-4.117 1.943-5.684.25-.604.56-1.874.69-2.823.129-.948.528-2.756.887-4.017.666-2.34 1.027-4.22 1.832-9.525.608-4 .597-22.408-.014-26.282-1.53-9.695-3.63-17.956-6.245-24.585-.866-2.195-1.575-4.146-1.575-4.336-.001-.692-3.718-7.932-4.161-8.107-.403-.159-6.073.982-9.65 1.94-.706.19-2.85.597-4.762.905-1.912.308-4.27.694-5.24.86-5.647.96-8.85 1.379-9.348 1.22-.312-.099-.839.02-1.171.263-.542.397-.607 1.369-.627 9.438-.012 4.948.155 10.821.37 13.053s.534 5.822.707 7.98.476 4.855.674 5.997c.198 1.14.528 3.186.734 4.544 1.09 7.224 3.47 18.74 4.227 20.461.17.388.582 1.738.913 2.999s1.23 4.039 1.996 6.173c.766 2.135 1.68 4.833 2.032 5.998.749 2.48 3.338 8.176 4.098 9.017.47.518.465.635-.043 1.056-.314.26-1.576.826-2.805 1.255-2.535.887-3.152.69-3.44-1.098-.095-.582-.507-1.852-.917-2.822-1.87-4.43-5.048-13.156-5.688-15.623a110.033 110.033 0 0 0-1.384-4.838c-.373-1.164-1.018-3.704-1.434-5.645-.416-1.94-.905-4.123-1.087-4.85l-.663-2.646c-.183-.728-.514-2.593-.736-4.145a80.347 80.347 0 0 0-1.08-5.707c-.37-1.587-.674-3.688-.674-4.67s-.252-4.366-.56-7.522c-.358-3.666-.58-9.784-.617-16.947l-.058-11.209-.882.182c-.485.1-2.628.342-4.762.537-2.134.196-5.468.51-7.408.7-1.94.19-6.187.348-9.437.353l-5.91.01.007 1.499c.003.824.157 3.335.343 5.578.186 2.244.419 16.77.517 32.28.097 15.51.27 35.501.384 44.426.113 8.926.21 23.054.217 31.397.006 8.343.085 15.29.176 15.435.09.147.512.195.936.108.425-.088 2.44-.256 4.477-.374zM121.476 79.5c-.068-14.042-.654-42.382-.879-42.521-.326-.202-8.898 1.046-9.425 1.372-.21.13-2.02.622-4.023 1.095-6.401 1.51-7.653 2.027-17.32 7.164-.924.491-2.07 1.254-2.546 1.695-.863.8-.863.808-.297 2.681 1.467 4.852 4.706 24.287 4.703 28.22l-.002 2.35 2.205.194c1.213.106 3.396.335 4.851.508 6.775.807 18.941 1.774 21.343 1.697l1.411-.045-.021-4.41zm28.02 3.342c3.563-.266 6.526-.531 6.583-.59.057-.058.362-3.123.678-6.81.71-8.305 1.751-15.837 2.826-20.46 1.38-5.937 1.63-7.347 1.346-7.61-.52-.481-4.296-2.372-7.92-3.964-5.696-2.504-16.723-5.591-21.457-6.009-1.26-.11-2.787-.304-3.392-.428l-1.099-.226.164 14.41c.09 7.925.188 18.379.217 23.23l.053 8.82 1.588.195c2.326.288 12.969-.004 20.413-.558zm18.392-2.087c2.037-.272 4.816-.74 6.174-1.038 1.358-.298 3.819-.703 5.468-.9 3.12-.371 3.513-.438 7.502-1.277 1.332-.28 2.49-.51 2.575-.51 1.254 0-7.114-11.46-11.835-16.207-4.28-4.305-11.134-10.039-11.63-9.732-.77.475-4.6 27.557-4.284 30.277.018.155.549.191 1.18.081.63-.11 2.813-.422 4.85-.694zm-81.78.328c.099-.1-.11-2.044-.466-4.322a283.48 283.48 0 0 1-1.18-8.672c-.294-2.492-.641-4.704-.772-4.915-.13-.21-.284-.791-.342-1.29-.058-.498-.255-1.62-.436-2.493s-.492-2.46-.689-3.527c-.763-4.137-.56-4.124-4.506-.284-1.92 1.869-3.979 3.848-4.575 4.398-1.18 1.09-2.514 2.887-3.33 4.487-.284.559-1.056 1.427-1.714 1.929-1.653 1.26-7.959 10.105-7.609 10.67.108.176.703.32 1.322.321.62.001 1.703.162 2.41.358.705.196 2.53.508 4.056.693 1.526.184 4.203.58 5.949.88 1.746.298 5 .839 7.232 1.2 2.231.362 4.15.678 4.263.703.113.024.287-.037.386-.136z"/>
</svg>
