<?xml version="1.0" encoding="utf-8"?>
<svg xmlns="http://www.w3.org/2000/svg" viewBox="0 0 464 496">
	<title>Sketch of a stone arch.</title>
	<path d="m282.81.963-3 .8 3.3.1c1.7 0 3.2.5 3.2 1s2.9.9 6.5.9c5.5 0 6.4-.3 5.4-1.4-.9-1.1-.7-1.4 1.1-1.4 1.9 0 2.2.4 1.8 3-.3 1.6-.2 3 .2 3 1 0 2.7-4.3 2.3-5.8-.6-1.5-6.7-1.6-9.2 0-1.5.9-2.5.9-4.6 0-2.8-1.3-2.7-1.3-7-.2zm22.2 8.6c-1.4 1.4.5 2.2 3.7 1.7 1.8-.3 4.4 0 5.6.7 1.5.8 8.2 1.4 18.4 1.6 10.5.2 15.1 0 13.2-.6-1.6-.5-9.2-1.1-16.9-1.4-7.8-.3-14.4-.9-15-1.5-1.2-1.2-8-1.5-9-.5zm-16.6 4.9c2.8 1.5 7.4 1.9 14.9 1.1 6.6-.6 6.7-.6 4.1-1.7-1.5-.6-3.6-.5-6.1.2-2.9.9-5 .9-8.4 0-6-1.5-7.7-1.3-4.5.4zm-9.1.5c-1.2.8-.9 1 1.3 1 1.5 0 2.7-.5 2.7-1 0-1.3-2-1.3-4 0zm35 0c0 .5 1.3 1 2.9 1 1.7 0 3.3-.5 3.6-1 .4-.6-.8-1-2.9-1-2 0-3.6.4-3.6 1zm-52 3.4c1.9 1.3 4.3 3.4 5.2 4.5 2 2.4 4 2.8 3.2.7-.4-1.1.8-1.3 5.9-1.1 3.5.1 6.9.5 7.5.9.7.4 1.2.3 1.2-.2 0-1.3-3.6-2.2-9.1-2.2-3 0-6.3-.9-9.3-2.5-6.1-3.3-9.3-3.3-4.6-.1zm8-.4c0 .5.9 1 2.1 1 1.1 0 1.7-.5 1.4-1-.3-.6-1.3-1-2.1-1s-1.4.4-1.4 1zm52.1.6c-6.2.7-11.9 1.8-12.5 2.4-.8 1 .1 1.1 4.4.5 14.3-1.8 22.4-2.3 27.7-1.8 3.9.4 5.5.2 4.8-.4-1.7-1.8-12.5-2.1-24.4-.7zm-44.6.4c.3.5 1.7 1 3.1 1 1.3 0 2.4-.5 2.4-1 0-.6-1.4-1-3.1-1-1.7 0-2.8.4-2.4 1zm8 1c2.8 1.2 13.5 1.2 13.5 0 0-.6-3.2-1-7.7-.9-5.3 0-7.2.3-5.8.9zm104 1c.3.5 1.5 1 2.5 1s2.2-.5 2.5-1c.4-.6-.7-1-2.5-1s-2.9.4-2.5 1zm-42.5.8c0 1.3 2.5 2.2 5.8 2.2 1.5 0 3.3.4 4 .9 2.5 1.5-1.2 2-8 1.1-6.4-1-20-1.2-16.3-.3 3.9 1 3.9 2.3 0 2.3-2.1 0-3.5.3-3.1.7 1.2 1.2 19.6 1.2 19.6.1 0-.6-1.2-.8-2.7-.6-1.6.3-4.1.2-5.8-.2-5.7-1.4 5.3-1.1 16 .5 5.5.8 11.1 1.4 12.5 1.4 2.3 0 2.3-.1.5-.9-1.1-.5-3.5-.9-5.3-.9-5.4-.1-2.6-2.1 2.9-2.1 2.8 0 6.3-.7 7.9-1.5 1.7-.9 4.8-1.4 6.9-1.3 2.3.2 3.9-.1 3.8-.7-.3-1.4-10.6-.6-13.1 1-1.7 1-3.9 1.1-11.7 0-5.2-.7-10.5-1.6-11.7-1.9-1.2-.4-2.2-.3-2.2.2zm-37 2.3c-1.9.4-5.7.8-8.5.8-2.7 0-6.1.2-7.5.4-9.2 1.7-13.3 1.9-12.6.8.6-.9-.1-1.1-2.6-.6-1.8.3-5.9.7-9 .8-7.2.3-8.9 1.7-2 1.7 2.9 0 5.2.4 5.2.8 0 .5-2.6 2.1-5.7 3.5-5 2.3-5.3 2.6-2.3 2.2 5.1-.8 10.6-3.9 10.2-5.9-.2-.9.2-1.6.8-1.6.5 0 1 .5 1 1.1 0 1.1 1.2 1.1 16.5-1 4.4-.6 12.8-1.3 18.8-1.7 5.9-.3 10.7-1 10.7-1.5 0-1.1-8.2-1-13 .2zm-1 4.9c-1.1.7-.4 1 2.5 1 2.2 0 4.7-.5 5.5-1 1.1-.7.4-1-2.5-1-2.2 0-4.7.5-5.5 1zm11.5 1c-.3.5.1 1 .9 1 .9 0 1.6-.5 1.6-1 0-.6-.4-1-.9-1-.6 0-1.3.4-1.6 1zm28.5 1.7c-3.6.7-7.5 1-8.7.8-1.3-.3-2.3-.1-2.3.4s1 1.2 2.3 1.4c1.9.4 1.9.4-.5.6-1.5 0-2.9.5-3.2.9-.6 1 20.2.3 22.1-.7.6-.3-2.5-.4-7-.2-9.4.4-9.6-.6-.5-2.3 3.5-.6 5.9-1.4 5.3-1.7-.5-.3-3.9 0-7.5.8zm-101.5 1c-7.2.6-8.2 2.3-1.3 2.3 3.1 0 6.3-.3 7.2-.6 1.9-.7 2.2-2.5.4-2.2-.7.1-3.5.3-6.3.5zm50.5.3c0 .5.9 1 2 1s2-.5 2-1c0-.6-.9-1-2-1s-2 .4-2 1zm7.5 0c-.3.5.1 1 .9 1s1.8-.5 2.1-1c.3-.6-.1-1-.9-1s-1.8.4-2.1 1zm7.5 0c2 1.3 8 1.3 8 0 0-.6-2.1-1-4.7-1-3.5 0-4.4.3-3.3 1zm19.8-.3c.7.3 1.6.2 1.9-.1.4-.3-.2-.6-1.3-.5-1.1 0-1.4.3-.6.6zm-54.8 3.3c-1.4.4 4.8 1 13.8 1.4 13.8.7 16.2 1 15.8 2.3-.3.8-.6 1.9-.6 2.4s-.9.9-2 .9-2 .4-2 .9c0 1 5.3.7 14.5-.9 3.3-.5 6.1-1 6.3-1 .1 0 .1-.6 0-1.3-.2-.9 1.9-1.1 8.7-.9 9.5.3 15.9-.4 15.1-1.7-.3-.4-3.1-.4-6.3 0-6 .7-7.7.4-6.8-1.1.6-1-3.5-1.3-14.5-1.2-20.3.2-29.1.2-34-.1-3-.2-6.6 0-8 .3zm45 2c0 .5-.9 1-2 1s-2 .4-2 .9c0 .9-3.7 2-8.7 2.6-2.4.2-2.4.2.7-2.6 2.5-2.3 4.1-2.9 7.6-2.9 2.4 0 4.4.4 4.4 1zm53.3.4c-3.9 1.5-7.8 2.2-10.5 2-2.3-.1-4.7.1-5.3.5-1.6 1.3-7.5 2.2-7.5 1.2 0-1 5.4-3.1 8.1-3.1 1.1 0 1.9-.5 1.9-1 0-1.1-2.6-.7-8.7 1.2-2.2.6-3.3 1.6-3.3 2.9 0 1.3-.7 1.9-2.2 2-1.3 0-4.1.7-6.3 1.4l-4 1.3h7c3.9 0 10.2.2 14 .5 8.2.5 13.7-.1 12.9-1.4-.3-.5-2.1-.7-4-.3-4.3.8-4.4-.1-.2-2.2 2.2-1.1 3.3-1.3 3.6-.5.5 1.5 2.3 1.4 2-.1-.2-.7 2.1-2.1 5.2-3.1 3-1 5.9-2.3 6.5-2.8 1.6-1.6-2.7-.9-9.2 1.5zm-10.3 4c0 1.1-10.4 3.6-12.3 3-1.9-.6-1.5-.9 2.3-1.9 4.5-1.2 10-1.8 10-1.1zm-119.5-2.5c-3.6.4-4.5.8-3.2 1.3 3.2 1.3 9.4.9 10.7-.7 1.4-1.7 1.5-1.7-7.5-.6zm33.8 0c-2.8.4-5.5 1-6 1.5-.4.5 1.6.6 4.7.2 3-.3 9.3-.6 14-.7 7.2-.1 7.9-.3 4.5-1-4.5-.9-9.6-.9-17.2 0zm59.5 2.8c.7.3 1.6.2 1.9-.1.4-.3-.2-.6-1.3-.5-1.1 0-1.4.3-.6.6zm-101.2 1.1c-.3.5.1 1.3 1 1.6 2.5 1 8.2.7 8.9-.4.3-.6-.3-1-1.3-1-1.1 0-3.3-.3-5-.6-1.6-.3-3.2-.2-3.6.4zm168.7 0c-5.2.8-1.7 1.7 6.9 1.9 5 0 8.5-.3 7.7-.7-1.6-.9-11.4-1.7-14.6-1.2zm-117.9 1.3c-.3.6-1.6.8-2.8.5-3.1-.8-17.6.5-17.6 1.7 0 .5 1.4.7 3.3.3 1.7-.3 6.6-.6 10.7-.7 4.1-.1 8.9-.8 10.5-1.5l3-1.3-3.2-.1c-1.7 0-3.5.5-3.9 1.1zm7.6-.1c0 .5.7 1 1.6 1 .8 0 1.2-.5.9-1-.3-.6-1-1-1.6-1-.5 0-.9.4-.9 1zm91.6.1c-1.7.4-5.1.6-7.7.3-2.6-.3-5-.1-5.3.4-.9 1.5 10.3 2.4 13.9 1.1 2.4-.9 4-.9 6.4-.1 3.4 1.2 4.3-.1 1.2-1.8-2.3-1.2-4.5-1.2-8.5.1zm-60.6.9c0 .5 2.3 1 5 1 2.8 0 5-.5 5-1 0-.6-2.2-1-5-1-2.7 0-5 .4-5 1zm-22.3 1.5c-.9.8-2 1.5-2.6 1.5-.6 0-1.1.4-1.1 1 0 1.7 2.5 1.1 4.3-1.1 2.2-2.5 1.6-3.7-.6-1.4zm4.7 1.5c.2 1.7-.3 3.5-1 4.1-.8.6-1.4 2-1.4 3.1 0 1.9-2.3 10.2-4.1 14.6-.5 1.3-.6 2.8-.3 3.3.9 1.5 6.4-5.1 6.4-7.5 0-4.9 1.1-6.4 4.8-6.9 4.8-.6 8.6 1.6 7.9 4.6-1 4.5-4.5 12.3-7 16-1.7 2.5-2.6 5.1-2.5 7.7 0 2.1-.3 4.3-.6 4.9-.4.6-.4 1.6 0 2.2 1 1.8 3.3-3 3.4-7.1 0-2.2 1.2-5.2 3-7.9 1.7-2.4 3-5.2 3-6.1 0-.9.9-4.3 2-7.5 2.1-6.2 1.9-7.5-1.1-7.5-1 0-1.9-.5-1.9-1 0-.6.7-1 1.5-1s1.5-.5 1.5-1c0-1.4-2.2-1.2-6.3.5-2 .8-4.3 1.5-5.1 1.5-1.9 0-2.8-4-1-4.7 1.2-.4 1.2-.8.2-2.1-1.1-1.3-.9-1.4 2-1 3.6.5 4.5-.8 1-1.5-1.3-.2 0-.5 2.9-.6 8.1-.2 7.6-2.1-.6-2.1h-7.1l.4 3zm-15.4-1c2 1.3 4.3 1.3 3.5 0-.3-.6-1.6-1-2.8-1-1.8 0-1.9.2-.7 1zm-60.5.7c-4.6 1.1-3.7 2.3 1.8 2.3 5.8 0 7.6-1.3 3.5-2.4-1.3-.3-2.5-.5-2.8-.5-.3.1-1.4.3-2.5.6zm180.9.4c-.4.7-2.3.9-5.3.5-4.6-.6-8.3.6-6.7 2.1.5.4 1 .3 1.2-.2.6-1.5 13.4-1.1 17.2.4 2.6 1.1 3.9 1.1 5.8.2 1.4-.6 2.2-1.6 1.9-2.1-.4-.7-1.3-.6-2.6.1-1.6.8-2.9.7-5.4-.5-3.9-1.9-5.1-2-6.1-.5zm-95.9.9c.3.5 1.7 1 3 1s2.7-.5 3-1c.4-.6-.8-1-3-1s-3.4.4-3 1zm44.3.5c-2.5.5-5 1.4-5.5 1.9s.7.6 2.7.1c2.9-.7 13-1.4 22.3-1.6.9 0 1.7-.4 1.7-.9 0-1.1-15.2-.8-21.2.5zm30.7-1c-.5.2-2.2.6-3.7.9-1.6.4-2.7 1.2-2.5 1.9.1.8-1.1 1.1-4.1 1-2.3-.1-4 .2-3.7.6.5 1-2.8 2.1-6.3 2.1-1.3 0-2-.4-1.7-1 .3-.6 1.6-1 2.7-1 1.2 0 1.9-.2 1.6-.5-1.1-1.1-13.8.8-13.8 2 0 1.9-2.4 2.4-6.6 1.4-2.2-.5-6.2-.6-9.1-.3-2.8.3-5.9.2-6.8-.3-1.5-.9-1.3-1.1 1.2-2.1 1.5-.5 5.7-1.5 9.3-2l6.5-1.1-8 .7c-4.4.4-12.6.6-18.3.4-6.8-.1-10.1.1-9.7.8.3.5 1.3 1 2.1 1 2.4 0 4.5 2.5 3.2 3.8-.8.8-.7 1.3.6 1.8 1 .4 2.2.2 2.9-.5.8-.8.8-1.1-.1-1.1-.7 0-1.2-.4-1.2-1 0-.5.7-.7 1.5-.4.8.4 1.5.1 1.5-.4 0-.6-.8-1.3-1.7-1.5-1-.3.1-.5 2.5-.6 3.5-.1 4.2.2 4.2 1.8 0 1.1.6 2.1 1.3 2.4.6.2 0 .2-1.4 0-1.6-.2-3.2.3-4.4 1.7-1.4 1.5-1.5 2-.4 2.1.8.1 2.1.3 2.9.4.8.1 2.1.3 2.8.4.6 0 1.2.8 1.2 1.7 0 1.2.5 1.4 1.8.9.9-.4 8.3-.7 16.3-.6 11.9.1 14.9-.2 15.9-1.4.7-.8 2.4-1.5 3.9-1.4 2.5 0 2.5 0 .4.9-1.3.5-2.3 1.3-2.3 1.8 0 2.1-5.3 2.9-18.3 2.6-9.3-.2-13.6 0-13.1.7.3.6 1.8.7 3.4.4 3.1-.7 5.3 2 2.2 2.8-1.3.3-1.1.6 1 1.5 1.9.8 2.6 1.6 2.2 2.7-.3.8-1 1.5-1.5 1.5-.9 0-7.9 14.3-9.4 19.2-.4 1.2-1.6 3.1-2.7 4.2-1 1.1-2.1 3.1-2.4 4.3-.8 2.8-2.9 2.9-5.1.3-1-1.1-2.3-2-3-2-1.6 0-1.6 0 .2-4.3 1.7-4.1 1.9-5.7.7-5.7-1.1 0-3.2 4.6-3.2 7 0 2.9-5.6 1.8-15.1-3.1-2.1-1.1-4.4-1.6-5.3-1.3-.9.3-2.2.1-3-.5-.8-.7-1.8-1-2.3-.9-.5.2-2.6-1.3-4.6-3.3-3.9-3.8-7.3-5.4-8.3-3.8-.3.5.1.9.8 1 .7 0-.5.7-2.6 1.5-2.2.8-4.7 2.1-5.6 2.9-1.9 1.7-5 2-5 .5 0-1.4-1.9-1.3-7.6.4-2.7.8-6.2 1.8-7.8 2.1-2.3.5-2.6.9-1.6 1.5.8.5 1.2 1.1 1 1.3-1.1.8-15.6 8.4-17.5 9-2 .7-2 .7-.1-.8 1.1-.8 2.6-1.5 3.3-1.5.7 0 1.3-.4 1.3-.9 0-.4 2.4-1.9 5.3-3.1 3.2-1.4 4.6-2.5 3.6-2.7-2.5-.6-19 8.3-22.4 12.1-1.6 1.8-4 3.6-5.2 4-1.8.6-2.4.1-3.8-2.8-.9-1.9-2.8-4.2-4.1-5.1-1.3-.8-3.1-3.2-3.9-5.3-.9-2-2.8-5.3-4.3-7.2-1.5-1.9-3.6-4.8-4.7-6.5-1-1.6-2-2.4-2.2-1.8-.5 1.5 1.2 4.8 5.3 9.8 1.7 2.2 3.9 5.7 4.7 7.7.9 2.1 2 3.8 2.5 3.8s2.2 1.8 3.7 4c2.7 3.9 2.8 4.1.9 5.6-1 .8-3.3 2.2-5.1 2.9-3.3 1.6-6 4.4-3 3.2 2.6-1 2 .9-.8 2.7-1.4.9-2.5 1.2-2.5.6 0-.5.5-1 1.2-1 .9 0 .9-.3.1-1.1-.7-.7-2.1-.6-4.8.6-2.8 1.1-3.6 1.8-2.8 2.6 1.4 1.4.6 3.9-1.3 3.9-.8 0-1.4.5-1.4 1.2 0 .6-1 .2-2.3-1-1.3-1.2-2.8-2.2-3.4-2.2-.5 0-1.8-.9-2.8-2-1-1.1-2.2-2-2.8-2-.5 0-4.4-3.6-8.6-8-7.3-7.7-9.9-9.6-8.8-6.6.3.7 0 1.9-.6 2.5-.8.8-.8 1.1.2 1.1 1.6 0 16.1 12.7 21.5 18.7 3.6 4.1 3.8 4.6 2.3 6-1.5 1.5-1.5 1.4-1-.8.5-2-.2-1.6-4.8 2.6-3 2.7-6.5 6.3-7.9 8-1.4 1.6-2.8 3.1-3.2 3.3-.5.2-.8 1-.8 1.8 0 1.5-.1 1.5-8.7-5.9-2.5-2-5.5-3.7-6.9-3.7-1.4 0-2.4-.6-2.4-1.4 0-2-4.8-5.6-7.6-5.6-1.2 0-2.6-.5-2.9-1-.9-1.4-5.8-1.3-7.3.2-.7.7-1.2 2.6-1.1 4.3l.1 3 1.4-3.2c.7-1.7 1.8-3.4 2.4-3.8.5-.3 3.7 1.3 7.1 3.7 3.4 2.4 8.2 5.8 10.8 7.6 2.5 1.8 6.5 4.4 8.7 5.9l4.2 2.7-2.5 2.5c-1.4 1.4-3.7 4.8-5.2 7.6-1.8 3.3-3.5 5.1-4.9 5.3-3 .5-2.8 2 .3 2.8 1.9.5 2.5 1.3 2.5 3.3 0 1.5-.5 3.2-1.2 3.9-.9.9-.9 1.8 0 3.8 2.1 4.4 2.5 16 .7 18.7-2.3 3.6-3.2 14.3-1.2 16.5 1 1.1 1.4 3.2 1.2 6-.4 5.1-.8 5.7-3.2 4.8-1.7-.7-1.7-.8 0-1.7 2.6-1.5 1.1-3-1.8-1.9-1.9.7-2.5.6-2.5-.4 0-.8 1.2-1.9 2.8-2.5 2.5-1 2.5-1-.8-.4-3.9.7-13.1.5-26.5-.6-4.9-.4-9.2-.6-9.4-.4-1.2 1 1.8 1.6 10.4 2.2 10.4.7 13.2 2.4 4.7 2.9-4.4.3-5.8.8-7.8 3-1.3 1.5-2.4 3.1-2.4 3.6 0 1.5 3.4 3.5 6 3.6 1.4 0 4.2.5 6.3 1.1 3.6 1 3.8 1.2 2.3 2.8-.9.9-3.8 2.3-6.6 3l-5 1.3v4.3c0 2.4.5 4.7 1.2 5.1.7.4 5.1.9 9.8 1 4.7.1 9.6.5 10.9 1 1.7.5 2.2.4 1.7-.4-.5-.8.2-1.2 2.1-1.2 1.5 0 3.5-.5 4.3-1.1 1.1-.8-2.2-.9-11.6-.5-7.2.4-13.8.4-14.7 0-1.1-.4-1.7-1.8-1.7-3.9 0-2.5.5-3.4 2.2-3.8 1.2-.4 2.5-.2 2.8.3.7 1.2 7-3.7 7-5.5 0-2.2 2.9-4 4.2-2.7.7.7 2.6 1.2 4.3 1.2h3l-3-1.6c-1.6-.8-4.6-1.4-6.5-1.3-5.8.5-16-1.2-16-2.5 0-2.9 4.1-5.1 9.6-5.1 3-.1 5.7.2 6 .7.3.4 1.6.8 3 .8 1.3 0 2.4.4 2.4 1 0 .5 1 1.5 2.2 2.1 1.8.9 2.4.8 3.4-.6 1.8-2.4 5.2-1 6 2.3.3 1.5 1 4.4 1.5 6.4 1 3.8.3 11-1.2 14-.5 1-.5 1.9 0 2.2 1.9 1.2 3.3-6.4 2.7-13.7-.8-8.7-.8-10.5-.2-18 .3-3.9-.1-6.7-1-8.5-.8-1.5-1.4-3.6-1.4-4.8 0-2.8 2-8.5 3.6-10.5 1.1-1.2 1.1-2.4.3-5.4-.6-2.1-.8-5-.6-6.5.3-1.5 0-3.8-.7-5.2-.9-1.7-1-3.1-.4-4.3.6-.9.7-3.4.4-5.5-.7-4.3 1-8.1 5.9-13.4 1.7-1.8 4.1-4.6 5.5-6.2 2.9-3.5 8.2-7.4 10.1-7.4.7 0 2.2-1.1 3.4-2.4 1.1-1.3 5.8-4.3 10.4-6.7 4.9-2.5 8.6-5 8.9-6.1.2-1 1.3-1.8 2.3-1.8 1 0 3.5-1 5.6-2.3 2-1.2 5.9-3.1 8.6-4.3 2.6-1.1 6.2-3.4 8-5.1 2.9-2.7 9-6.5 13.9-8.5 1.1-.4 2.3-.1 3.3.8 1.3 1.4 1.5 1.4 1.5 0 0-1 .9-1.6 2.5-1.6 3.1 0 3.1.7.3 3-1.3 1-2 2.1-1.6 2.5.4.4 1.9-.5 3.5-1.9 3.2-3 4.4-2.9 19.1 1.2 8.1 2.3 9.2 2.8 9.2 4.8 0 3.3 2.1 4.1 3.8 1.6 1.9-2.9 4.7-2.7 10.7.8 2.8 1.6 6.6 3.7 8.5 4.7 1.9 1 4 2.3 4.6 2.8.6.6 2.9 1.9 5 2.8 3 1.4 4 2.4 4.1 4.5.1 1.5.5 4.8.9 7.4.8 6-.6 6.2-4.3.7-1.5-2.3-2.9-3.6-3.1-3-.2.6.3 2.2 1.1 3.4 2.9 4.6 4.8 12.5 4.7 20.3v10.4c0 1.4-.2 5.9-.6 10-.4 5.8-.2 7.9 1 9.5 1.4 2 1.5 2 2.2.1.5-1.2.3-2.1-.4-2.4-.7-.2-1.1-2-1-4l.1-3.7.4 3.2c.2 1.8.8 3.3 1.4 3.3 1.1 0 1.1-.3-.2-11.5-.5-5-1.1-13.1-1.2-18.1l-.2-9.1 2.1 1.6c2.3 1.7 2.4 5 .3 11.5-1.2 3.7-1.1 4.9.1 4.1.5-.3 1.4-3.3 2.1-6.5.9-4.9 1.4-5.8 2.5-4.9.8.6 1.4 1.9 1.4 2.8.1 1.4.2 1.4.9.1.4-.8.5-4.4.1-8-.7-6.9-.3-10 1.1-10 .5 0 .9 3.7 1 8.2.2 15.2 1.2 28.2 2.4 31.1.7 1.7 0 10.5-.9 11.5-1.5 1.5-2.5-1.6-2.1-6.5.2-3.1 0-6.2-.5-6.8-.5-.7-.8-4.4-.7-8.4.2-4 0-7.4-.4-7.7-1.1-.6-1.5 2.6-1.1 9.6.1 3.6.4 11 .6 16.5.2 5.6.9 12 1.6 14.4.6 2.4 1.1 8.2 1.1 12.8 0 4.8.3 8.3.9 8.3.6 0 1-1.8 1-4.1 0-3.3.3-4 1.6-3.5.9.3 2 .6 2.5.6 1.6 0 1 2.2-1.3 4.5-3.4 3.5-4.7 5.2-7.4 9.8-2.7 4.8-3.3 8.3-.9 5.1 1.4-1.7 1.5-1.4.9 3.6-.3 3-1.7 8.8-3 12.9-2.1 6.7-2.4 9.5-.8 7.9 1.5-1.6 5.4-19.6 5.5-25.8.1-3.3 1-6 2-6 .7 0 .9 1.3.4 3.7-1.7 9.4-1.6 9.1-.1 5.8.9-1.7 1.5-4.1 1.6-5.4 0-1.9.3-2.1 1.4-1.2 1.1.9 1.5.3 2.2-3.6.4-2.7.8-5.1.8-5.5.1-.3.4-1 .9-1.4.4-.4.7-2.6.7-4.8 0-2.2.8-6 1.7-8.4 1.3-3.5 1.4-4.8.5-6.3-.7-1-1.5-5-1.8-8.9-.4-3.8-1.1-7-1.5-7-1.1 0-1.1-.3.1 8.4.4 3.8 1.3 7.2 1.9 7.5.6.4.4 2.4-.7 5.6l-1.7 5-.3-3.4c-.3-2.5-.6-3.1-1.3-2-.6 1-.9.7-.9-1.4 0-1.5.4-2.7.9-2.7 1.1 0 1.1-8.9-.1-9.6-.4-.3-.8 1.2-.8 3.3 0 2.8-.3 3.4-1 2.3-1.3-2-1.3 11 0 14.4.7 2 .6 2.4-.4 2-1-.4-1.6-3.4-2.1-9.4-.5-6.4-1.1-9-2.2-9.4-.8-.3-1.1-1-.8-1.6 1-1.6 4.3-1.1 4.8.7.3 1 .5-1 .6-4.3.1-4.3.6-6.6 1.7-7.5 1.3-1.1 1.5-2.5 1-7.2-.4-3.7-.2-5.6.4-5.2.6.4 1-3.5 1-10.6 0-11.9-.7-13.4-2-4.7l-.9 5.3.4-5.5c.3-3 .7-7 1.1-8.8.5-2.8.4-3.2-1.5-3.2-1.2 0-2.1-.6-2.1-1.5 0-1.3.6-1.2 3.8.4 2 1.1 5.2 3.3 7 4.8l3.3 2.8.3 30c.3 32.2-.8 42.8-5.4 55.2-2.1 5.5-2.7 9.5-1.2 7.7.5-.5 1.4-2.9 2.1-5.4.7-2.5 1.8-5.9 2.6-7.5 1.1-2.6 2.8-12.3 4-23 .2-1.7.4-3.7.5-4.5.1-.8.8 1 1.6 4s1.9 7.2 2.6 9.3c.9 2.9.9 5.3-.1 10.3-.6 3.7-1 6.9-.7 7.2.3.3.9-.9 1.2-2.6.4-2.1 1.1-2.9 2.1-2.5.8.3 1 .9.5 1.2-.5.3-1.2 2.2-1.6 4.1l-.7 3.5 1.6-2.5c1.5-2.4 1.6-2 1 7-.3 5.2-.3 9.1.1 8.7.4-.3 1.3-10.1 2-21.6.7-11.6 1.6-21.7 2.1-22.5.4-.8.8 6.9.8 17.5-.1 15.6-.3 19.2-1.5 19.9-1.2.8-1 1 .8 1 2.2 0 2.2 0 2.4-18.3.1-10 .2-19.7.2-21.4.1-1.8.6-3.2 1.1-3 .6.1.9 3.1.7 7.3-.3 4.5 0 7.4.7 7.8.8.5 1.1-1.7 1.1-7.1.1-5.6.3-7.3 1.1-6.1 1.6 2.7 2.9 16.4 3.3 33.7.2 8.9.7 16.5 1.1 16.9.9.9.4-28.7-.7-40.2-.4-4.9-.5-9.2-.2-9.5.9-.9 2.2 2 1.7 4-.3 1.1-.1 2.5.4 3.2.5.6.9 8.5.8 17.7-.1 11.7.2 17.3 1.1 19.1 1 2 1.1 4.1.4 8.5-.6 3.3-1 6.3-1.1 6.9-.1.5-.4-.4-.8-2l-.7-3-.5 3.3c-.4 2.2-.1 3.9.9 4.8 1.8 1.9 3.8 1.2 3.5-1.2-.2-1 .2-5.1.8-9 .9-5.4.8-7.6-.1-9.4-.8-1.5-1.3-12.1-1.6-35.3-.2-23.1-.7-33.3-1.5-33.8-.6-.4-.8-1.6-.4-2.8.5-1.6-.2-2.9-3.2-5.6-3.4-3.2-3.6-3.5-1.5-3.5 1.2 0 2.2-.2 2.2-.5s-2.6-3.1-5.7-6.1c-3.3-3.1-4.4-4.5-2.5-3.3 1.7 1.3 3.2 2.7 3.2 3.1 0 .5 1.6 1.8 3.5 3 2.6 1.5 3.4 2.5 3 3.9-.4 1.3.2 2.2 2.4 3.4 3.6 1.8 3.9 1.3 1.1-1.5-1.1-1.1-2-2.8-2-3.8 0-.9-2.2-4.4-5-7.7-4.9-6-5.8-7.5-4.1-7.5 1.1 0 13.1 14.5 13.1 15.9 0 .6 1.1 2.3 2.5 3.8 1.4 1.6 3.2 3.7 4 4.8 1.4 2 1.4 2 1.5-.3 0-1.3-1.1-3.4-2.5-4.8s-2.5-2.9-2.5-3.4c0-.8-2.3-3.7-11.4-14.4-4.1-4.8-6.3-9.6-4.5-9.6 1.1 0 13.9 11.6 15.2 13.8.6.9 1.2 1 2.1.2 1.5-1.1 1.9-.7 5 5 1.1 1.9 2.9 4.4 4 5.5 1.2 1.1 2.8 3.1 3.7 4.5.9 1.4 2 2.2 2.4 1.8.3-.3-.1-1.8-1-3.2-1.9-2.9-1-3.6 1.2-.9 1.1 1.4 1.6 1.5 2 .5.4-1 1-1 3 .3 2.9 1.9 4.3 1.2 2.5-1.3-3.5-4.9-3.6-6-.6-8.6 1.6-1.4 3.3-2.6 3.8-2.6s2.4-1.1 4.2-2.5c1.8-1.4 3.7-2.5 4.3-2.5.6 0 4.8-2 9.3-4.4 5.8-3.1 9.6-4.4 12.5-4.4 4.7-.1 5 .4 5.1 7.5.1 3.2-.4 4.5-1.8 5.3-2.9 1.6-3.5 1.2-1.5-1 1-1.1 1.6-2.3 1.2-2.6-.9-1-5.6 3-5.4 4.5.1.9-1.2 1.8-3.5 2.3-3.4.7-8.9 3.1-17 7.4-1.4.8-3.2 1.4-4 1.4-.7.1-2.6 1.2-4.3 2.5l-3 2.5 3.3 1.2 3.2 1.2v17.6l4.8-.2c4-.1 4.2-.2 1.2-.5-1.9-.3-3.7-.8-4-1.3-.3-.4-.3-3.4-.1-6.7.5-5.7.5-5.7 1.2-1.8.5 3.1.6 2.1.8-4.3l.1-8.4 3.1.7c3.2.7 10.9-1.9 10.9-3.7 0-1.3 3.8-.9 4.4.4.4.9.5.8.5-.2-.1-.8-.1-2.1 0-2.7.2-2 8.2-5.7 12.3-5.8 4 0 5.7-1.8 2.2-2.3-1.8-.3-2-.8-1.5-3.5.6-2.7 1.1-3.2 3.6-3.2 1.5 0 3-.6 3.3-1.4.4-1.1-.2-1.3-2.7-.8-2.8.6-3.3.3-5.6-3.3-1.4-2.2-3.6-4.2-5-4.6-3.7-.9-3-2.4 1.3-2.5 2-.1 4.2-.2 4.7-.4.6-.1 1.7-.3 2.5-.4 1.2-.1 1.2-.3.2-.9-.7-.5-3.8-.5-7-.1-5 .7-6 .5-8.7-1.5-1.7-1.3-4.5-2.7-6.2-3-3.1-.7-5.6-2.6-3.4-2.6.6 0 1.1-.6 1.1-1.4 0-1.8-5.6-6.6-7.6-6.6s-.8 1.8 2.6 3.9c1.6.9 2.6 2.1 2.2 2.6-1.7 2.4-22.6 12.8-27.9 13.9-2.8.7-3.1 1-2.3 2.6.9 1.6 1.4 1.7 4.7.7 2.1-.6 6.9-2.9 10.7-4.9 3.8-2.1 7.6-3.8 8.5-3.8.9 0 3.3-.9 5.4-2 4.4-2.4 4.8-2.4 4.1-.5-.4 1 0 1.5 1.5 1.5 2.9 0 8.1 2.8 8.1 4.3 0 .6-3.8 2.9-8.3 5.1-4.5 2.1-9.4 4.5-10.9 5.2-1.4.8-3.2 1.4-3.9 1.4-1.3 0-10.3 4.3-13 6.2-1.3.9-2 .8-3.3-.5-.9-.8-1.6-2.3-1.6-3.2 0-4.5-6.3-11.3-12-13-2.7-.8-5-2.4-5-3.4 0-.4 1.5-1.5 3.3-2.6 5.6-3.3 13.7-9.9 13.7-11.2 0-1.4 3.7-3.5 10.1-5.7 5.7-2 5.4-2 8.3 1.1l2.5 2.7 1.2-2.7c.9-2.1.9-3.3.1-5.2-.6-1.4-.7-2.5-.2-2.5 1.6 0 4 4.3 4 7.2 0 1.6.5 2.8 1.1 2.8.8 0 .9-1.3.4-3.8-.7-3.8-4.9-9.2-7.2-9.2-1.7 0-1.6 4 .2 6.4 2.1 2.8 1.9 4.2-.3 2.3-1-1-2.4-1.7-3-1.7-.6 0-1.4-.4-1.7-1-.4-.6.1-.7 1.1-.3 1.2.4 1.5.2 1-.8-.3-.8-.9-2.2-1.2-3.2-.7-1.9-2-2.3-2.6-.6-.2.6-2-.3-4-1.9-2.1-1.6-5.1-3.5-6.8-4.2-1.8-.7-3-2-3-3s-.3-2.6-.7-3.6c-.6-1.5 0-1.7 5.8-1.1 3.5.3 9.1.2 12.4-.3l6-.8-7.5-.1c-4.1 0-9.7-.3-12.3-.6-3.3-.4-5.8-.1-7.9.9-2.8 1.4-2.9 1.4-2.3-.2 1.6-3.7 1.7-6.4.4-7.3-1.2-.8-1.2-1.1.1-1.9.8-.5 1.8-1 2.1-1 1.2 0 1.7 3.8.6 4.9-.6.6-.9 1.3-.6 1.5.3.3 6.1.7 12.9 1 7.6.4 11.7.2 10.5-.3l-2-.9 2-.8c2.5-1 8.2-1.1 15.5-.1 4.6.6 5.1.5 3-.4-1.4-.7-8.8-1.3-17.4-1.5-12.8-.3-22.7-1.7-21.3-3 .2-.2 5.2.1 11.2.6 10.1 1 10.9.9 12.6-.9 1.4-1.5 2.7-1.8 5.7-1.4 2.4.3 4.2.1 4.6-.6.5-.7-.3-1.1-2.1-1.1-1.6 0-3.4-.5-4-1.1-.7-.7-1.7-.8-2.9-.1-1.1.6-4.9.8-8.7.5-4.7-.4-6.7-.2-6.7.6 0 .7.9.9 2.5.5 3.2-.8 9.5.4 9.5 1.7 0 .7-3 .8-8.7.3-10.1-.9-15.4-.9-18.8 0-3.3.8-3.2-.8 0-2.2 3.1-1.5 6.5-1.5 9.9-.2 1.4.5 2.8.5 3.1.1.2-.5-1.1-1.2-3.1-1.6-2.7-.5-3.4-.9-2.5-1.8.8-.8 3.1-.8 8.9 0 8 1.1 17.8.5 15.4-1.1-.7-.4-3.4-.5-6-.1-2.6.3-6.9.2-9.7-.3-2.7-.6-7-.6-9.5-.2-2.5.4-3.8.8-3 .9 1.1.1 1.1.4.2 1.3-.9.9-1.5.9-2.4 0-.7-.7-2.8-1.2-4.7-1.2-2.6 0-3.2.3-2.1.9.8.6 1.8.7 2.2.5 1.4-.9.8 1.3-.7 2.6-2 1.7-1.9 3.7.5 5.7 1.2 1 1.5 2 .9 2.3-.5.4-1.5 2.9-2.2 5.6-.7 2.7-1.6 4.8-2.2 4.8-.9-.1-3.1-3.3-5.6-8.2-.8-1.3-2.1-2.2-3.6-2.2-1.3 0-2.6-.7-2.9-1.5-.4-.8-1.7-1.5-3-1.5-1.5 0-2.4-.6-2.4-1.5 0-.8-1.2-2.2-2.6-3.2-2.4-1.5-2.5-1.8-.9-2.9.9-.7 1.2-1.5.7-1.8-1.9-1.1-3.8.5-5.2 4.2-1.7 4.7-10.2 18.2-11.1 17.6-.7-.4-6.9 6.8-6.9 8.1 0 .4.8.4 1.7.1.9-.4 1.9-.2 2.3.4.6 1 2.7-1.6 7.4-9.3.9-1.5 2.3-2.7 3.1-2.7.8 0 1.6-.6 1.7-1.3 0-.6.2-1.7.2-2.3.1-.6 1.6-2.6 3.5-4.3 2.7-2.6 3.2-2.8 2.8-1.1-.4 1.4 0 2 1.1 2 1.8.1 5.2 2.3 5.2 3.4s-7 7.5-10.2 9.4c-3 1.8-3.8 3.8-1.1 2.8 1.6-.6 1.6-.6 0 1.2-.9 1-1.7 2.1-1.7 2.4 0 1.3 3.8-.5 5.1-2.4 3.1-4.6 10.1-12.3 11-12.2.5.1 1.8.2 2.9.2 2.9.3 2.5 2.3-1.2 5.4-1.8 1.4-3 3-2.6 3.3.4.4 1.4 0 2.3-.8 1.7-1.8 5.4-3.2 6.2-2.4.3.3-1.2 2.1-3.3 3.9-4.8 4.2-9 8.3-13.4 13.3l-3.5 4-5.3-2.6c-5.4-2.6-5.5-3.6-.9-5.2 1.7-.6 2.5-4.7.8-4.7-.5 0-2.1 1.3-3.4 3-2.8 3.3-5.8 3.8-7.7 1.5-.7-.9-2.1-1.3-3.1-1-1 .3-2.6-.1-3.6-.9-1-.9-2.6-2.1-3.5-2.8-1.4-1.1-1.5-1.8-.5-4.7 1.3-3.8 3.7-5.3 3.8-2.4 0 1 .8-1.1 1.8-4.7 1.1-3.6 3-9.1 4.3-12.2 2.2-5.3 2.5-5.6 4-4.2 1.4 1.5 1.4 2 .1 5.1-1.5 3.6-1.1 5.5.8 3.6 1.6-1.6 2.4-9.3 1-9.3-.6 0-1.1-.7-1.1-1.5 0-1.8 3.1-2 4.8-.3.9.9 1.2.9 1.2-.3 0-.8-.5-2-1.2-2.7-.8-.8-.9-1.2-.1-1.2.6 0 2.1 1.2 3.2 2.6 1.8 2.2 2.2 2.4 2.7 1 .6-1.5 2.7-1.6 18.4-1.3 9.8.2 18.6 0 19.6-.4 2.3-.9 1.8-1-7.6-1.4-10.1-.3-11.2-.6-6.5-1.6 2.2-.4 9.6-.9 16.5-1 6.9-.1 11.7-.3 10.8-.6-2.1-.5-2.4-2.3-.5-2.4.6 0-.4-.5-2.3-1.1-3.1-.9-3.3-1.1-1.5-1.9 1.1-.4 4.6-.8 7.8-.8 6.3-.1 6.9 1.2 1.4 2.8-2.8.8-2.9.9-.8 1 1.4.1 4.4-.8 6.8-2 2.3-1.1 5.3-1.9 6.5-1.7 1.9.3 1.5.8-2.6 2.7-3.5 1.6-4.5 2.6-3.7 3.4.8.8 2.5.7 6.3-.2 2.9-.7 8.6-1.6 12.6-2.1 7-.7 9.1-1.4 8-2.5-.8-.8-16 1.6-19.7 3.1-4.9 2.1-4.9 1 .1-1.9 2.9-1.7 5.2-2.3 7.1-2 3.1.6 10.2-.5 9.3-1.4-.4-.4-3.1-.6-6-.4-3 .1-5.7-.2-6.1-.8-.4-.7.5-1.1 2.4-1.1 1.7 0 3.1-.3 3.1-.8 0-.4-6.8-.7-15.1-.6-8.2 0-15.2-.3-15.4-.7-.6-.8 6.8-2.2 11-2.1 3 .1 3 .1-.5-.9-2.5-.8-4-.8-5.2 0-2 1.2-6.5 1.4-12.3.4-3.6-.6-3.8-.7-1.5-1.4 1.4-.4 4.1-.8 6-.8 2.5-.1 3.1-.4 2-1-.8-.6-1.8-.7-2.3-.4-.5.3-4.6.7-9.1.9-10.3.4-18.5 1.3-21.1 2.3-1.1.5-3.2 1.3-4.7 2-1.6.6-2.8 1.5-2.8 2.1 0 .5-2.1 1-4.7.9-4.2-.1-4.4-.2-1.8-.8 3.7-.9 7.8-3.1 7.2-3.8-.3-.3-2 0-3.9.5-10.2 3.2-12.9 3.7-19.5 3.6-4.3 0-7.8-.6-8.7-1.3-.9-.8-2.7-1.1-4.1-.9-1.4.3-2.8.1-3.1-.4-.4-.6 1.4-.9 4.2-.7 3.2.2 4.8-.1 4.7-.9-.2-.6 1.3-1.1 3.6-1 2.2 0 4.4-.2 4.9-.6 1.4-.8 4.3.4 3.6 1.5-.8 1.4 3.9 1.1 8.6-.6 2.3-.8 6.8-1.5 10-1.5 3.1 0 8.2-.5 11.1-1.1 8.3-1.7 8.6-1.7 21.7-1.8 6.7-.1 12.2-.5 12.2-1 0-.4-1.1-.6-2.5-.3-1.4.2-6.9.1-12.2-.3-8.9-.7-9.5-.8-7.2-2.1 2.1-1.2 1.1-1.8-1.6-.9zm3.3 8.3c.8.6-.7 1.3-4.2 2.2-3.1.7-5.3 1.6-5.1 2.1.3.4-.1 1-.7 1.2-.8.3-.6.6.5.6.9.1 1.7-.4 1.7-.9 0-.7.6-.7 1.9 0 1.1.5 3.7 1.4 5.8 1.9 2.9.7.7.9-9.2.9-8.1 0-12.2-.3-11-.8 1.1-.5 3.4-.9 5.2-.9 2.2-.1 3.1-.5 2.7-1.4-.3-.8 1.2-2.1 3.8-3.4 4.8-2.3 6.7-2.6 8.6-1.5zm11.1 3.8c1.2 1.1-1.4 1.5-8.5 1.2-7.5-.3-7.7-.4-4.4-1.5 3-1 11.7-.8 12.9.3zm3.9 2c3.2.9 2.7 2.1-1.2 2.8-1.9.4-3.7 1.4-4.1 2.3-.5 1.4-.8 1.5-1.4.4-.7-1.1-1.6-1.1-4.5-.1-2 .6-6.8 1.1-10.8 1-14.7-.3-27.7.7-29.4 2.4-1.3 1.4-1.3 1.6 0 1.6.8 0 2.7-.5 4.2-1 1.4-.6 7-1.1 12.3-1.1 12.5-.2 14.6-.1 13.7.8-.4.4-5.6.8-11.5.8-8.4.1-11.2.5-13.1 1.8-1.4.9-2.9 1.7-3.5 1.7-1.4 0-9.5-6.8-9.5-8 0-.4 4.4-.7 9.8-.6 26.3.3 41.2-.9 41.2-3.5 0-.4 1-1 2.3-1.2 1.2-.2 2.4-.5 2.7-.6.3 0 1.5.2 2.8.5zm10.7 0c1.3.5 1.4.8.3 1.5-1.8 1.2-5.8 1.1-5.8 0 0-.5.8-1.2 1.8-1.4.9-.3 1.8-.5 1.9-.6.1 0 .9.2 1.8.5zm5.2 2c-.3.3-1.2.4-1.9.1-.8-.3-.5-.6.6-.6 1.1-.1 1.7.2 1.3.5zm-19.2 6.6c-3 .9-15.3.3-16.3-.7-.3-.3 2.7-.4 6.6-.3 4 .1 7.4-.1 7.7-.4.4-.3 1.6-.3 2.8 0 2 .5 1.9.6-.8 1.4zm-28 3.8c1.9.8 1.9.9-.2.9-1.2.1-2.5-.4-2.8-.9-.7-1.2.2-1.2 3 0zm-85.5 18.2c0 .6-.6.5-1.5-.2-.8-.7-1.5-1.4-1.5-1.6 0-.2.7-.1 1.5.2.8.4 1.5 1.1 1.5 1.6zm122.6-.9c.4.4-2.5.7-6.4.7-3.9 0-7.3-.4-7.6-.9-.6-1 13-.8 14 .2zm-135.6 1.7c-2 1.3-4.3 1.3-3.5 0 .3-.6 1.6-1 2.8-1 1.8 0 1.9.2.7 1zm12.5 2.5c2.2 1.8 1.5 1.7-2.7-.4-1.6-.8-2.8-1.8-2.8-2.3 0-1 2.5.2 5.5 2.7zm-9.5-.5c0 .5-.4 1-1 1-.5 0-1-.5-1-1 0-.6.5-1 1-1 .6 0 1 .4 1 1zm18.5 1.1c1.1 1.7 0 2-2.1.4-1.7-1.3-1.7-1.4-.2-1.5.9 0 2 .5 2.3 1.1zm-29.9 2.5c-1.1.8-2.8 1.4-3.8 1.4-2.9 0-2.1 1.5 1.4 2.5 2 .6 3.4 1.8 3.7 2.9.3 1.8.2 1.9-1.4.3-.9-.9-2.7-2-4.1-2.3-4.2-1.1-2.5-6.3 1.8-5.6.9.2 1.9-.2 2.3-.8.4-.6 1-.8 1.3-.5.4.4-.2 1.3-1.2 2.1zm9.4-1.1c2.7 1.5 2 1.9-1.7.9-1.3-.4-2.3-1-2.3-1.5 0-1.2 1.1-1.1 4 .6zm30 4.7c2.7 3.5 5 6.7 4.9 7.3 0 .5-1-.3-2.2-1.9-1.2-1.7-3.9-4.9-6.1-7.3-2.1-2.4-3.4-4.3-2.8-4.3.6 0 3.4 2.8 6.2 6.2zm-19-4.2c1.3.8 1.3 1-.2 1-.9 0-2-.5-2.3-1-.8-1.3.5-1.3 2.5 0zm-30.5 4.8c-1.1 1.1-2.7-1.7-2-3.5.6-1.6.8-1.6 1.6.6.5 1.3.7 2.6.4 2.9zm30.1-.1c-.6.7-5.6-2.7-5.6-3.9 0-.5 1.4 0 3.1 1.2 1.6 1.2 2.8 2.4 2.5 2.7zm16.4 6.7c0 1.4-9.7-7.7-10.3-9.8-.3-1.1 1.7.4 4.9 3.4 2.9 3 5.4 5.8 5.4 6.4zm90.4-7.3c.5 2.2-.3 3.4-4.9 8-7.4 7.2-12.6 11.9-13.2 11.9-.3 0-1.7.9-3.3 2-2.2 1.6-3.6 1.8-7 1.2-2.4-.4-4.5-1.3-4.8-2.1-.3-.8 3.6-5.3 8.9-10.5l9.4-9.1.9 2.8c1.2 3.3 2.2 3.4 3 .4.8-2.6 8.6-9.1 9.6-8 .4.4 1 2 1.4 3.4zm-142.4-2.1c0 .5-.5 1-1.1 1-.5 0-.7-.5-.4-1 .3-.6.8-1 1.1-1 .2 0 .4.4.4 1zm59.7 3.1c1.2 1.9 3.2 4.3 4.3 5.5 1.9 1.9 2 2.2.5 3.4-1.4 1.2-1.8 1.2-2.5 0-.4-.7-.6-1.9-.4-2.5.3-.7-1.1-3.4-3.1-6s-3.1-4.5-2.3-4.3c.7.3 2.3 2 3.5 3.9zm-17.2 0c1.4 2.2-.3 1.8-2.6-.7-2.3-2.5-2.3-2.6-.2-1.5 1.2.6 2.5 1.6 2.8 2.2zm-47-.1c-.3.5-1.3 1-2.1 1s-1.4.6-1.4 1.4c0 .8-.4 1.8-1 2.1-1.6 1-1.1-2.2.6-3.9 1.7-1.7 4.9-2.2 3.9-.6zm6 2.6c-1.6 1.6-4.5 1.9-4.5.4 0-.6.7-1 1.5-1s1.5-.7 1.5-1.6c0-1.3.3-1.4 1.5-.4 1.2 1 1.2 1.4 0 2.6zm32.5-.4c0 1.6-2 .7-3-1.2s-1-2 .9-.8c1.2.7 2.1 1.6 2.1 2zm31.8-.1c.7 1.1 1.9 1.8 2.6 1.6.9-.4 1.2 0 .9 1.1-.4 1.6 4.8 5.4 18 13.6 2 1.2 2.6 2.2 2.2 3.6-.4 1.3 0 2 1.5 2.5 1.1.3 2 1 2 1.5s.7.7 1.5.4c1-.4 1.3-.2 1 .7-.3.8.9 2.3 2.9 3.6 4.4 2.8 5.5 1.7 1.4-1.4-1.8-1.2-2.8-2.3-2.4-2.3 2.2 0 9.6 5.6 9.6 7.3 0 .6-.9.2-1.9-.7-1.3-1.1-2-1.3-2.3-.6-.4 1.3-7.8-1.7-7.8-3.1 0-.5-2.2-2.3-5-4.1-2.7-1.8-5-3.6-5-4 0-.5-.5-.8-1.2-.8-.6 0-2.5-1-4.2-2.3-1.7-1.2-4.8-3.1-6.9-4.2-3.8-2-7.8-5.5-6.2-5.5.5 0 1.6.6 2.4 1.3 2.9 2.4 19.3 11.8 19.8 11.3.6-.5-10.3-7.6-11.7-7.6-.6 0-1-.4-1-.8s-1.2-1.5-2.7-2.4c-3.3-1.9-10.3-8.7-10.3-10 0-1.5 1.5-.8 2.8 1.3zm6.9 19.2c1.7.9 3.3 2.3 3.6 3.1.4.9 1.3 1.3 2.2 1 1.6-.7 5.3 1.4 9.5 5.3 1.4 1.3 2.8 2.3 3.2 2.3.5 0 .8.5.8 1.1 0 .6-1.3.1-2.9-1-1.6-1.2-3.2-2.1-3.6-2.1-.4 0-1.4-.9-2.3-2-1-1.1-2.6-2.1-3.7-2.3-1.1-.2-3.2-1-4.6-1.8-3-1.6-12.3-9.4-14.8-12.3-.9-1.1-2.6-3-3.9-4.3-1.2-1.4-3-3.6-3.9-5.1-.9-1.5 2.6 1.6 7.8 6.9 5.2 5.3 10.9 10.4 12.6 11.2zm-94.1-16.8c-.9.9-1.6 1.3-1.6.8 0-1.2 2.2-3.4 2.8-2.8.2.2-.3 1.1-1.2 2zm30.4-1.6c0 .5-.9 1.1-2.1 1.4-1.6.4-1.8.3-.8-.9 1.3-1.6 2.9-1.9 2.9-.5zm17 .7c0 .2-.9.4-2.1.4-1.1 0-1.8-.4-1.4-1 .5-.8 3.5-.3 3.5.6zm18 3.7c0 .6-1.1 0-2.5-1.3s-2.5-2.8-2.5-3.3c0-.6 1.1 0 2.5 1.3s2.5 2.8 2.5 3.3zm-31.2-3.1c1.6 1.6 1.5 2.8-.3 2.8-.8 0-1.5-.2-1.5-.4s-.3-1.1-.6-2c-.7-1.9.7-2.1 2.4-.4zm-32 2.3c-3.9 2.6-10.1 5.4-8.3 3.7 1.4-1.4 9.8-6.1 11-6.2.5 0-.7 1.1-2.7 2.5zm56.2-.5c0 1 .8 2.4 1.8 2.9 2.3 1.4.6 1.4-1.9.1-2-1.1-2.7-5-.9-5 .6 0 1 .9 1 2zm-14.5 0c.3.5.2 1-.4 1-.5 0-1.3-.5-1.6-1-.3-.6-.2-1 .4-1 .5 0 1.3.4 1.6 1zm8.9 1.1c-.6 1.1-2.4.2-2.4-1.1 0-.5.7-.7 1.5-.4.8.4 1.2 1 .9 1.5zm122.3 2.6c-.7.6-7.7-.8-7.7-1.6 0-.4.5-1.2 1.2-1.9.8-.8 1.8-.6 4 1 1.6 1.1 2.7 2.2 2.5 2.5zm-166.7-2.7c0 .6-1.2 1.5-2.7 2-5.1 1.9-7.5 3.5-8.4 5.5-.7 1.9-.8 1.9-.8-.3-.1-1.4.7-2.6 2.2-3.2 1.2-.6 3.6-1.9 5.2-2.9 3.5-2.3 4.5-2.5 4.5-1.1zm64.3 2.5c1 1.4 1.4 2.5.9 2.5-.4 0-1.8-1.3-3-3-1.2-1.6-1.7-2.7-1-2.4.7.3 2.1 1.6 3.1 2.9zm24.7-1.4c0 .6-.4.7-1 .4-.5-.3-1-1.1-1-1.6 0-.6.5-.7 1-.4.6.3 1 1.1 1 1.6zm-57.3-.5c-.3.3-1.2.4-1.9.1-.8-.3-.5-.6.6-.6 1.1-.1 1.7.2 1.3.5zm9.3.9c.7.8.8 1.5.2 1.5-.5 0-1.5-.7-2.2-1.5-.7-.8-.8-1.5-.2-1.5.5 0 1.5.7 2.2 1.5zm19.5 1.5c.3.5.1 1-.4 1-.6 0-1.1-.5-1.1-1 0-.6.2-1 .4-1 .3 0 .8.4 1.1 1zm104.3.4c5.1 0 5 1.3-.4 4.3-2.1 1.2-5.1 2.9-6.6 3.8-1.6.8-2.8 2.1-2.8 2.8 0 .7-1.9 2.5-4.2 4-2.4 1.5-6.1 4.1-8.3 5.7-3.7 2.8-4.3 3-7.3 1.9-1.7-.6-3.2-1.5-3.2-2s-.6-.9-1.4-.9c-3.3 0-2.3-1.9 2.8-5.4 2.9-2 5.7-3.6 6.3-3.6.6 0 1.6-.7 2.3-1.6.8-.8 2.9-2.2 4.7-2.9 1.9-.8 5.1-2.8 7.1-4.5 2.4-1.9 4.2-2.8 5.2-2.3.8.4 3.4.7 5.8.7zm-67.8 2.7c0 .4-.7.6-1.5.3-.8-.4-1.5-1-1.5-1.5 0-.4.7-.6 1.5-.3.8.4 1.5 1 1.5 1.5zm53-1.7c0 .2-.8 1-1.7 1.7-1.6 1.3-1.7 1.2-.4-.4 1.3-1.6 2.1-2.1 2.1-1.3zm-167.6 2.1c-.3.8-1.4 1.7-2.4 2-1 .3-2 1.5-2.3 2.5-.3 1.1-1.1 2-1.7 2-.9 0-.9-.4.1-1.8 4.2-5.6 7.6-8.1 6.3-4.7zm90 1.1c.9 2.4.7 2.8-.9 1.4-1.7-1.4-2-3-.6-3 .5 0 1.2.7 1.5 1.6zm32.1-.6c.3.5.2 1-.4 1-.5 0-1.3-.5-1.6-1-.3-.6-.2-1 .4-1 .5 0 1.3.4 1.6 1zm-131.5 2c0 .5-.5 1-1.1 1-.5 0-.7-.5-.4-1 .3-.6.8-1 1.1-1 .2 0 .4.4.4 1zm72-.1c0 .6-.4 1.3-1 1.6-.5.3-1-.1-1-.9 0-.9.5-1.6 1-1.6.6 0 1 .4 1 .9zm63.3.5c.4 1 .1 1.3-.9.9-1.5-.6-1.9-2.3-.5-2.3.5 0 1.1.7 1.4 1.4zm-123.3 1.1c-1.4.8-2.9 1.4-3.5 1.4-.5 0 .1-.6 1.5-1.4 1.4-.8 3-1.4 3.5-1.4.6 0-.1.6-1.5 1.4zm122.8 3c1.1 1.4 2.4 2.5 2.8 2.5.5 0 2.9 1.6 5.4 3.5 2.5 1.9 6.2 4.6 8.3 6 2 1.4 3.7 3 3.7 3.5 0 1.3-4.7-1.7-8-5-3.3-3.4-9.6-7-12.1-7-1.2 0-1.7-.4-1.3-1.1.3-.6.3-1.4-.2-1.8-.5-.3-1.8-1.7-2.9-3l-2-2.4 2.2 1.1c1.2.7 3 2.3 4.1 3.7zm-29.4.9c-.2.7-1.3 1.7-2.4 2.4-1.7 1.1-2 1-2-.8 0-1.1.3-1.9.8-1.9 2 .3 2.3-.2 1.1-1.8-1.3-1.5-1.2-1.5.8-.3 1.1.8 1.9 1.8 1.7 2.4zm39.8-1.3c1.6 1.2 2.7 2.3 2.5 2.6-.6.6-6.4-2.4-7.2-3.7-1.1-1.7 1.6-1.1 4.7 1.1zm-21.8 2.9c.6.1 3.4 2.1 6.1 4.7 2.8 2.5 3.9 4 2.5 3.3-1.3-.7-3.1-2-3.9-2.8-.9-.8-3.7-2.8-6.3-4.4-2.6-1.6-4.8-3.4-4.8-4 0-.5 1.2 0 2.6 1.1 1.5 1.2 3.2 2.1 3.8 2.1zm16.8-2c1.2 1.1 1.8 2 1.2 2-1.1-.1-4.4-2.5-4.4-3.4 0-1.1 1-.7 3.2 1.4zm-143.2 1c-2.4 1.9-4 2.5-4 1.5 0-.5 5.1-3.4 6-3.4.3 0-.6.8-2 1.9zm114.4 3.1c1.5 1.2 2.5 2.4 2.2 2.6-.5.5-7.6-3.5-7.6-4.3 0-1.1 3-.2 5.4 1.7zm35.9.4c1.5 1.4 2.7 2.8 2.7 3.1 0 .9-3.5-1.4-5.4-3.5-2.7-3-.6-2.6 2.7.4zm-159.4 1.7c-.8 1.4-1.4 1.8-1.7 1-.4-1.3 1.7-4.6 2.5-3.8.3.2-.1 1.5-.8 2.8zm166.4-.7c-1.3 1-2 1-2.5.2-.4-.7 0-1.5 1-1.8 2.6-1 3.6.1 1.5 1.6zm-163.3 3.4c0 .9-2.4 2.1-4.3 2.1-.6 0-.2-.7.9-1.5 2.2-1.7 3.4-1.9 3.4-.6zm120.5.1c.3.5.2 1-.4 1-.5 0-1.3-.5-1.6-1-.3-.6-.2-1 .4-1 .5 0 1.3.4 1.6 1zm14.7 3.5c4.5 2.5 11.5 9.1 10.7 10-.3.2-2.2-1.1-4.2-3s-6.1-4.9-9.2-6.6c-3-1.7-5.5-3.3-5.5-3.6 0-.7 3.7.7 8.2 3.2zm-16.3-.1c.7.8 2.5 1.8 4.1 2.1 3.6.8 5.7 3 3.6 3.8-.8.3-1.7-.1-2-.9-.3-.8-1.1-1.4-1.7-1.4-.8 0-.9 2.4-.4 8.5.4 4.7.4 8.5 0 8.5-.3 0-1.6-1.2-2.9-2.7-2-2.4-2.3-3.4-1.8-9.3.3-4.4.1-7-.7-7.4-1.3-.8-1.5-2.6-.2-2.6.5 0 1.4.6 2 1.4zm9.6.6c.3.5.2 1-.4 1-.5 0-1.3-.5-1.6-1-.3-.6-.2-1 .4-1 .5 0 1.3.4 1.6 1zm20.2 1.2c1.8 1.3 3.5 2.9 3.8 3.5.6 1.8.4 1.7-3.5-1.2-2-1.5-4.1-2.3-5.2-1.9-2 .6-2.5-1.1-.5-1.9 1.9-.8 1.9-.8 5.4 1.5zm20.3-.7c.7.8.9 1.5.4 1.5s.5 1.1 2.1 2.5c1.9 1.5 2.4 2.4 1.5 2.4-2 .1-6.7-3.6-5.7-4.5.4-.4.2-1.3-.4-2.1-.7-.8-.8-1.3-.1-1.3.5 0 1.5.7 2.2 1.5zm-20.5 6.3c-.7.7-4.5-2.9-4.5-4.1 0-.6 1.1 0 2.5 1.3s2.3 2.6 2 2.8zm12.5-1.6c0 .6-.7.5-1.5-.2s-1.5-1.7-1.5-2.2c0-.6.7-.5 1.5.2s1.5 1.7 1.5 2.2zm-5-1.2c0 .5-.4 1-1 1-.5 0-1-.5-1-1 0-.6.5-1 1-1 .6 0 1 .4 1 1zm-175 .5c0 .7-7.4 7.4-7.8 7-.5-.5 6.1-7.3 7.1-7.4.4-.1.7.1.7.4zm153.6 2.2c-.7.7-2.6-.7-2.6-1.9 0-.6.6-.6 1.5.2.9.7 1.3 1.5 1.1 1.7zm22.9.2c.3.5.1 1.2-.5 1.6-.5.3-1-.1-1-.9 0-1.8.6-2.1 1.5-.7zm19 2.1c.3.5.1 1-.4 1-.6 0-1.1-.5-1.1-1 0-.6.2-1 .4-1 .3 0 .8.4 1.1 1zm-22 1.1c1.1 1.7-.1 2.1-1.5.4-.8-.9-.8-1.5-.2-1.5.6 0 1.4.5 1.7 1.1zm20 1.7c1.7 1.5 4 3.8 5 5.1l2 2.4-2.2-1.1c-1.2-.7-3.1-2.4-4.3-3.9-1.2-1.6-3.1-3.3-4.3-4-1.4-.8-1.7-1.2-.7-1.2.8 0 2.9 1.2 4.5 2.7zm9.2-1.5c.4.7 2 2 3.4 2.9 2.7 1.7 5.7 7.8 3.8 7.8-.5 0-.9-.4-.9-.9 0-1.2-8-9.1-9.2-9.1-.5 0-.6-.5-.3-1 .8-1.4 2.2-1.3 3.2.3zm-22.7 2.1c0 .8-.6 1.6-1.4 1.9-1 .4-1.2 0-.9-1.4.6-2.2 2.3-2.6 2.3-.5zm-30.8 6.7-1 5.4-.1-6.5c-.1-4.6.2-6.1 1-5.3.8.8.8 2.7.1 6.4zm24.8 2.2 2.5 1.8-2.5-1.2c-3.5-1.7-11-7.9-11-9.1 0-.6 1.9.7 4.3 2.8 2.3 2.2 5.3 4.7 6.7 5.7zm-2-5c0 .4-1.1 0-2.5-1-1.3-1-2.5-2.2-2.5-2.6 0-.4 1.1 0 2.5 1 1.3 1 2.5 2.2 2.5 2.6zm32.7 1.4c6.1 6.7 7.5 9.3 2.7 5.5-4.7-3.8-9.9-10.2-8.3-10.2.6 0 3.1 2.1 5.6 4.7zm-30.6 7.2 3.2 2.5-.6 8.7c-.4 4.9-.3 9 .2 9.3.4.3 1.1 3.6 1.4 7.2.4 3.7 1.1 7.2 1.7 7.8 1.5 1.5 1.2 4.3-.5 5-1.3.4-1.3.2-.5-1.4 1.3-2.4 1.3-3.3 0-2.5-.5.3-1.4 2-1.9 3.8-.8 2.7-.9 2-1-4.5-.1-4.2-.5-8-1.1-8.3-1.4-.9-1.3 18.8.1 20.2.9.9.9 2 0 4.4-.6 1.7-1.1 6.1-1.1 9.6 0 4.4-.3 6.2-1.1 5.7-.7-.4-.9-2.5-.4-5.9.4-3.6.2-5.5-.5-6-.7-.4-.9-1.8-.5-3.2.4-1.6 0-3.5-1.1-5.1-1.4-2.1-1.7-6.2-2.1-26.1-.2-15.2-.8-23.9-1.5-24.6-.7-.7-.9.5-.5 4.2.3 2.9.2 5.5-.4 5.8-.5.4-.9-2.3-.9-6.5v-7.2l3 2.4c1.6 1.2 4.4 3.4 6.1 4.7zm50.5-3.6c-1.1.7-2.8 2-3.8 2.9-1 1-2.4 1.8-3 1.8-.7-.1.3-1.4 2.2-3 1.9-1.7 4.1-3 5-2.9 1.2 0 1.1.3-.4 1.2zm-40 10.5c-.6.5-6.5-6-6.6-7.2 0-.5 1.6.9 3.5 3 1.9 2 3.3 3.9 3.1 4.2zm27.8-1.1c.9 2.3-2.9-.2-4.8-3.3l-1.8-2.6 3.1 2.3c1.6 1.2 3.2 2.8 3.5 3.6zm-62.1 4.4c.3 3.1.1 6.2-.4 7-1 1.6-.9 1.9-1.4-9-.3-7.5 1-6.1 1.8 2zm2.4-2.4c-.3 1-.5.2-.5-1.7s.2-2.7.5-1.8c.2 1 .2 2.6 0 3.5zm65.3-2.6c.7 1.1 1 2.2.8 2.5-.6.6-4.8-2.6-4.8-3.7 0-1.7 2.9-.9 4 1.2zm-33.8 5.1c3.2 3.5 4.8 6 4.5 7.3-.3 1.8-.4 1.8-1.5-.5l-1.1-2.5-.1 3c0 2.3-.3 2.7-1 1.5-.5-.8-.7-2.2-.4-3.2.2-.9 0-1.9-.6-2.3-.7-.5-.9 1.4-.4 6.2.7 7.1 1.4 9.6 1.4 5 0-1.8.5-2.7 1.6-2.7s1.4.6.8 2.2c-.4 1.3-.6 4.2-.5 6.4 0 2.3-.6 5.4-1.5 7l-1.6 2.9.6-3.2c.4-2.6.1-3.5-1.4-4.3-2.1-1.1-4-6.7-4-11.7 0-1.7-.3-3.3-.8-3.5-.8-.4-.3-12.8.6-12.8.3 0 2.8 2.4 5.4 5.2zm56.8-1.2c0 .5-.7 1-1.6 1-.8 0-1.2-.5-.9-1 .3-.6 1-1 1.6-1 .5 0 .9.4.9 1zm-74.4 15.9c.2 8.9-.1 15.3-.6 15.6-1.2.8-1.3-.1-1.1-15 0-6.6.1-13.1.1-14.4 0-1.3.3-2.1.6-1.8.4.4.8 7.4 1 15.6zm64.7-8.8c-.6 3.2-.7 3.3-1.3.9-.4-1.4-.2-3.1.3-3.8 1.5-1.9 1.8-.9 1 2.9zm-79.3 4.9c0 .5-.5 1-1.1 1-.5 0-.7-.5-.4-1 .3-.6.8-1 1.1-1 .2 0 .4.4.4 1zm37.7 14.2c-.3.8-.6.5-.6-.6-.1-1.1.2-1.7.5-1.3.3.3.4 1.2.1 1.9zm-.9 6.9c-3.2 2-3.9-.2-1-3.4 1.7-1.9 1.7-1.9 2 .3.2 1.3-.2 2.7-1 3.1zm-225.4 22.5c.3.8.9 1.3 1.4 1 1.3-.8 3.5 1.1 2.8 2.3-.9 1.4-3.6 1.5-3.6.1 0-.6-.7-1-1.5-1-.9 0-1.8-.6-2.1-1.4-.3-.8-1.3-1.2-2.5-.9-1 .3-1.9 0-1.9-.6 0-1.8 6.7-1.3 7.4.5zm187.5 3.6c-.8 1.4-1.4 1.8-1.7 1-.4-1.3 1.7-4.6 2.5-3.8.3.2-.1 1.5-.8 2.8zm16.1-161.2c0 .5.5 1 1 1 .6 0 1-.5 1-1 0-.6-.4-1-1-1-.5 0-1 .4-1 1zm-36.5 42c.3.5.8 1 1.1 1 .2 0 .4-.5.4-1 0-.6-.5-1-1.1-1-.5 0-.7.4-.4 1zm40.1 51.8c-1.3 2.2-.9 45.5.4 44.7.7-.4 1-8.6.8-23.1-.1-12.3-.3-22.4-.5-22.4-.1 0-.4.4-.7.8zm2.8 12.7c.1 5.7.5 10.7.8 11 .3.3.6-4.4.7-10.5.1-6.4-.2-11-.8-11-.6 0-.8 4.4-.7 10.5zm7.4-.3c-.2 2.9-.1 7.8.3 10.8.5 4.5.6 3.6.8-5.3.1-11.4-.4-14-1.1-5.5zm61.6-126.7c1.1.8 2.9 1.5 4 1.5 2.1-.1 2.1-.1.2-1.5-1.1-.8-2.9-1.5-4-1.5-2.1.1-2.1.1-.2 1.5zm-153.1.6c-2.7 1-4.4 3.9-3.7 6.5.2 1 .1 5.7-.4 10.4-.9 8.8-.1 13 2.5 13 .7 0 1.3-.4 1.3-.9s.3-1.6.6-2.4c.3-.8-.2-2.2-1.1-3-1.3-1.4-1.5-3.2-.9-11.7.7-9.6.8-10 3-10 1.9 0 2.4.7 2.9 3.7 1.1 6.1 1.4 6.2 1.3.1-.1-6.1-1.3-7.3-5.5-5.7zm8.4.6c-1.6.4-1.7 2-1.6 16.9.1 11.6.5 16.4 1.3 16.1.6-.2 1.4-3 1.8-6.3.4-3.2 1-7.4 1.3-9.1.4-1.8.4-5 0-7-.8-3.6-.8-3.7-1.6-1.3-.6 1.6-.7.8-.3-2.5.3-2.8 1-5.2 1.5-5.3 1.1-.4 1.2-2.2.2-2.1-.5.1-1.6.3-2.6.6zm1 15.5c-.3.8-.6.5-.6-.6-.1-1.1.2-1.7.5-1.3.3.3.4 1.2.1 1.9zm3.9-15.3c.5.5 1.8 1.1 2.9 1.3 1.5.2 2.1 1.4 2.6 4.3.5 4 .5 4 1.6 1.4.7-1.6 2.3-2.9 3.9-3.3 3.5-.9 2.1-2-4.4-3.4-6.5-1.5-7.9-1.5-6.6-.3zm23.4 1.7c0 .8.5 1.2 1 .9.6-.3 1-1 1-1.6 0-.5-.4-.9-1-.9-.5 0-1 .7-1 1.6zm-51.2-.1c-.4.4.2 2.9 1.3 5.6 1 2.8 1.9 6.8 1.9 8.9 0 2.3.5 4 1.1 4 1.7 0 .6-9.7-1.7-14.8-1-2.4-2.2-4.1-2.6-3.7zm160.7 1.3c-5.5.1-10.3.6-10.8 1.1-1 1 20.5 1.3 22.1.2 2.2-1.3-.2-1.6-11.3-1.3zm-165.8 4.2c-.3 1.1-.1 2.2.4 2.5.4.3.6 1.9.2 3.5-.4 2.2-.2 3 .8 3 .9 0 2.1 2.8 3.3 8 1 4.4 2.3 8 2.9 8 .5 0 .7-1 .3-2.3-.3-1.2-1.1-4.9-1.7-8.2-.6-3.3-1.5-6.8-2-7.7-1.2-2.4-1.1-2.8.6-2.8 1.7 0 .9-2.9-1.4-4.7-2.2-1.7-2.8-1.6-3.4.7zm177.3-.3c-4.6.8-8.6 1.6-8.9 1.8-1.2 1.2 1 1.5 5 .6 2.4-.6 6.1-1.1 8.1-1.1 3.1 0 5.9-1.5 4.7-2.4-.2-.1-4.2.4-8.9 1.1zm-188.9 1.5c-.7 1.6-.5 2.6.4 3.4 1.6 1.2 10.5 21.6 10.5 23.9 0 .8.5 1.5 1 1.5 1.5 0 1.2-3.1-.6-6.5-.9-1.7-2.5-5.7-3.6-9s-2.8-7.2-3.6-8.7c-1.3-2.2-1.4-3-.4-4 1.8-1.8 1.5-2.8-.8-2.8-1.2 0-2.4.9-2.9 2.2zm97.7.5c.7.3 1.6.2 1.9-.1.4-.3-.2-.6-1.3-.5-1.1 0-1.4.3-.6.6zm-20.2 3.4c-2.3 5.7-2.8 7.9-1.7 7.9.5 0 1.5-1.6 2.1-3.5 1.3-4 2.2-4.3 5.3-1.5 2.2 2.1 6.4 2.4 6 .5-.2-.6-1.5-1.4-3-1.9-1.6-.5-3-1.2-3.3-1.5-.3-.3-1.3-1.2-2.2-2-1.6-1.2-1.9-1-3.2 2zm-114.6-1.2c0 .4 2.5.8 5.5.8s5.5-.4 5.5-.8c0-.5-2.5-.9-5.5-.9s-5.5.4-5.5.9zm68 1.4c0 1.9 1.6 3.1 2.4 1.8.3-.5-.1-1.4-.9-2.1-1.2-1-1.5-1-1.5.3zm-73 1.9c-2.5.5-5.4 1.3-6.5 1.8-1.1.6-4.4 1.2-7.4 1.4-2.9.3-5.6.7-5.9 1-1.3 1.4 9.9.4 16.3-1.4 3.9-1.1 8.5-2 10.4-2 3.3 0 3.4.1 1.5 1.5-1.8 1.4-1.8 1.4.7 1.5 1.4 0 3.4-.7 4.5-1.5 1.6-1.3 1.7-1.6.4-2.5-1.8-1.2-7.9-1.1-14 .2zm34 1.6c0 1.5 2.7 7.1 4.5 9.2.7.8 1.8 3.2 2.3 5.3 1.4 5.1 6.4 13.5 7 11.8.3-.8-.7-3.7-2.1-6.5-1.4-2.8-3.7-7.6-5.1-10.6-2.9-6.1-6.5-11.2-6.6-9.2zm6 .9c0 2.3 1.5 3.9 2.4 2.5.3-.5-.1-1.8-.9-2.8-1.4-1.8-1.4-1.8-1.5.3zm91.4 1c-.3 1-1.4 3.5-2.4 5.5-1.1 2-2 4.6-2 5.6 0 1.1-.9 3.1-2 4.5-2.1 2.7-2.7 5.7-1 5.7.6 0 1.7-1.5 2.4-3.3 5.5-12.6 7.6-16.7 8.7-16.7.8 0 .9 1.1.5 3.2l-.6 3.3 2-2.4c2.7-3.1 2.5-4.5-.5-5.9-3.5-1.6-4.5-1.5-5.1.5zm-106.9 1.2c-1 1.7 12.1 25.5 13.6 24.6.5-.4-.5-2.9-2.2-5.8-1.7-2.9-4.6-8.5-6.5-12.5-3.4-7.3-3.8-7.9-4.9-6.3zm-26.3 1.1c-4.3 1-6.5 3-3.4 3 1.2 0 2.2-.5 2.2-1 0-.6 2.6-1 5.8-1 4 0 5.3-.3 4.2-1-1.7-1.1-4.1-1.1-8.8 0zm-20.9 2.8c-1.9 2-.7 3.2 3.3 3.2 3.5 0 4.2.8 2.3 2.7-.9.9-1.8.8-3.5-.4-1.3-.8-2.4-1.1-2.4-.5 0 .5 1.1 1.7 2.4 2.5 2.3 1.5 2.6 1.5 5-.4 1.4-1.1 2.3-2.5 2-3.1-.5-.7.1-.9 1.5-.5 2.2.5 9.7-1.1 8.8-1.9-.2-.3-2.9-.1-5.9.4-3.8.6-6.5.5-8.9-.4l-3.4-1.2 4-.2c2.2-.1 4.9-.5 6-1 1.4-.6.1-.8-3.9-.7-3.4.1-6.5.8-7.3 1.5zm235.2-.8c-.3.5.4 1 1.6 1 1.7 0 1.9.3 1 1.4-.9 1.1-.5 1.4 2.6 1.4 2.1 0 5.1.5 6.6 1.1 3.8 1.5 18.7-.3 17-2-.6-.6-1.9-.6-3.7.1-1.5.5-4.6 1-6.9.9h-4.2l4-1.5c2.2-.8 4.4-2 5-2.6.7-.8.4-.9-1-.3-1.1.4-4.4 1.4-7.3 2.2-5 1.3-5.6 1.3-9.3-.6-4.6-2.4-4.6-2.4-5.4-1.1zm-149.9.7c-1.2 1.2-.6 3.3.9 3.3.8 0 1.5-.6 1.5-1.4 0-1.7-1.4-2.8-2.4-1.9zm-90.9 1c-.3.5-.2 1.5.3 2.3.5.8 1.2 4.1 1.6 7.3 1 8.8 2.8 8.5 2-.4-.7-6.8-2.6-11.3-3.9-9.2zm227.8 1.3c-1.3.5.5.8 5.2.7 3.9-.1 6.9-.5 6.6-.9-.6-1.1-9.3-.9-11.8.2zm-185.5 1.3c0 .7 1.1 2.1 2.5 3.1 1.3 1 3.7 3.9 5.2 6.5 3.5 6 9.3 12.2 9.3 10 0-.9-.7-2.2-1.5-2.9-.9-.7-4-5.1-7-9.7-4.9-7.5-8.5-10.5-8.5-7zm-46.2 1.2c-1.1 1.8-1.3 11.8-.1 12.2.6.2 1.2-.9 1.4-2.4.5-3.8-.4-11.1-1.3-9.8zm126 .1c-.7.7.4 6.4 1.2 6.4.9 0 2-2.5 2-4.5 0-1.3-2.4-2.7-3.2-1.9zm-169.8 1.4c0 .5 1.8 1 4.1 1 2.4 0 3.8-.4 3.4-1-.3-.6-2.2-1-4.1-1-1.9 0-3.4.4-3.4 1zm23 1.5c0 1.7.5 2.5 1.3 2.2.6-.2 1.2-1.2 1.2-2.2 0-1-.6-2-1.2-2.3-.8-.2-1.3.6-1.3 2.3zm219-1.7c0 1.4 11.7 2.5 13.8 1.3.9-.6 1.5-1.1 1.2-1.1-5.8-.7-15-.8-15-.2zm-209.1.7c-.7.7.5 8.3 1.5 9.2.9.9 3.2-1.7 4.1-4.5.9-3.2-1.1-2.7-2.3.5l-1 2.8-.2-2.5c-.2-3.2-1.4-6.3-2.1-5.5zm270.5 1.1-3.9 1.2h5.2c5.8-.1 8.8-1.3 5.1-2-1.3-.2-4.2.1-6.4.8zm-219.4.6c0 2.6 11.6 20.8 13.2 20.8 1.3 0 .9-1.3-1.5-4.9-1.2-1.9-2.7-4.3-3.3-5.3-.6-1.1-2-2.9-3.1-4.2-1.1-1.2-2.3-3.5-2.7-4.9-.6-2.7-2.6-3.8-2.6-1.5zm229.8-.5c.6.2 1.8.2 2.5 0 .6-.3.1-.5-1.3-.5-1.4 0-1.9.2-1.2.5zm-70.8 1.2c0 .6 1.3 1.1 2.9 1.1 1.7 0 3.2.4 3.5.9.4.5-.2.7-1.3.4-1-.3-2.2 0-2.5.6-.4.6-.1 1.1.7 1.1.8 0 1.7.7 2.1 1.5.3.9 1.8 1.5 3.8 1.5 3.3 0 2.9-1.4-.7-2.3-1.5-.4-1.3-.5.8-.6 3-.1 3.3-.6 1.4-2.5-1.7-1.7-10.7-3.1-10.7-1.7zm13.6-.1c-.7 1.2.2 11.1 1.3 12.9 1.2 2.1 1.1 2.6 1.4-6.5.1-5-.2-7.2-1-7.2-.6 0-1.4.3-1.7.8zm-124.1 1.2c.5.9 6.9 4 8.1 4 1.1 0 .1-2.1-1.3-2.8-3.1-1.6-7.5-2.4-6.8-1.2zm14.5 1c0 .5 1 1 2.3 1 1.8 0 1.9-.2.7-1-1.9-1.3-3-1.3-3 0zm162 0c-1 .7 1.4 1 7.8 1 5.5 0 9.2-.4 9.2-1 0-1.3-15-1.3-17 0zm-286.5 4c-.3.5-1.9 1-3.6 1-3.8 0-3.8 1.9.1 2.6 1.7.4 3 1 3 1.5 0 1.2-1 1.1-8.9-.6-5-1.2-7.5-1.3-9.5-.5-1.5.5-3.8.7-5.1.4-2.4-.6-12.1 2-14 3.7-1.6 1.5 3.5 1 7.1-.7 3.3-1.6 3.6-1.6 4.8.2 1.2 1.6 3 1.8 15.3 1.9 7.6.1 14.4.5 15.1.9.7.4 1.2.3 1.2-.2 0-.6-1.7-1.4-3.7-1.9l-3.8-1 3.3-.7c3.5-.8 4.4-2.6 1.2-2.6-1.1 0-2-.5-2-1 0-.6.5-1 1-1 .6 0 1-.7 1-1.5 0-1.7-1.6-2-2.5-.5zm-5.8 6.9c.6.3-2.8.7-7.8.9-4.9.1-8.9 0-8.9-.3 0-2.2 13-2.7 16.7-.6zm52.3-5.5c0 1.8 8.6 11.1 9.3 9.9.3-.5-.4-2-1.6-3.4-3.4-3.6-7.7-7.3-7.7-6.5zm61.5.5c-.3.5-.1 1.2.5 1.6.5.3 1-.1 1-.9 0-1.8-.6-2.1-1.5-.7zm-71.8 2.9c-1 1-1.7 2.5-1.7 3.3 0 .8.3 1 .8.4 2.8-3.9 3.9-3.7 9.5 1.8 3 3 5.8 6.4 6.1 7.5.4 1.2 1.5 2.4 2.5 2.7 1.1.3 2.2 1.6 2.6 2.8.4 1.4.8 1.7 1.2.9.3-.7-.2-2.3-1-3.5-2.6-4-15.9-17.7-17.1-17.7-.7 0-2 .8-2.9 1.8zm236.6.9c.9.2 2.5.2 3.5 0 .9-.3.1-.5-1.8-.5-1.9 0-2.7.2-1.7.5zm29.7 1.6-2.5 1.1 3.3.4c1.9.2 4.1 0 5-.3 1.5-.6 1.5-.8-.3-1.5-2.5-1.1-2.5-1.1-5.5.3zm-22 1.2c-3.6.7-5.9 1.3-5.2 1.4.7 0 1.1.5.7 1.1-.6.9-4.8 1.2-18 1.1-4.7-.1-6.5.2-5.6.8.9.6 9.9.8 20.7.6 16.2-.2 19.4-.1 19.8 1.2.3.8 1 1.1 1.6.8.6-.4.8-1.1.5-1.6-.4-.5.8-.6 2.7-.1 4.7 1 10.6.8 11.9-.5 1.3-1.3-9-1.8-26.5-1.3-3 .1-4.4-.6-3.3-1.6.3-.4 4.7-.9 9.6-1.2 5-.2 8.8-.9 8.5-1.3-.7-1.2-9.6-.9-17.4.6zm-257.6 5c-1.6 1.2-1.7 1.4-.3 1.5.9 0 1.9-.7 2.3-1.5.7-1.9.5-1.9-2 0zm245.3 2.1c-.3.4-3.6.6-7.2.6-3.7 0-6.4.2-6.1.5.3.3 5.8.7 12.2.8 6.3.1 11.2-.1 10.7-.5-1.1-1-8.8-2.1-9.6-1.4zm13.5 1.5c1.9 1.2 13.3 2.2 15.7 1.4 4.3-1.3 1.9-2-7.4-2-5.2-.1-8.9.2-8.3.6zm-291.5.6c-2.6.2-4.5.8-4.2 1.4.8 1.2 5.2 1 10-.6 4.3-1.4 3.4-1.5-5.8-.8zm47.3.8c0 1.4 8.4 12.7 8.8 11.7.2-.6-.5-2.3-1.4-3.7-1.5-2.3-1.5-2.8-.3-3.7 1.1-.8 1-.9-.4-.4-1.2.4-2.1-.2-2.9-1.9-.9-2.1-3.8-3.6-3.8-2zm223 1.6c0 .7 20.2 1.8 20.9 1.2.2-.1.2-.6-.2-.9-.8-.8-20.7-1.1-20.7-.3zm25 .9c-1.1.7.1 1 4 1 3 0 6.4.3 7.5.6 1.1.3 2.8-.1 3.8-.8 1.5-1.1.6-1.3-6-1.5-4.3-.1-8.5.2-9.3.7zm-273 2.8c-1.2 1-2.1 2.6-1.9 3.6.3 1.5.8 1.2 2.7-1.4 2.8-3.7 2.4-4.8-.8-2.2zm263.5.2c.3.5.8 1 1.1 1 .2 0 .4-.5.4-1 0-.6-.5-1-1.1-1-.5 0-.7.4-.4 1zm10.2.1c-1 .6-2.7.9-3.8.6-1-.3-1.7-.1-1.3.4.8 1.4 5.8 1.1 8-.6 1.4-1.1 1.5-1.4.4-1.4-.8 0-2.3.4-3.3 1zm11.8 1.6c-2.3.9-7.3 1.5-11.7 1.6-4.6 0-7.8.4-7.8 1 0 1.4 17.6.2 21.8-1.4 1.7-.8 3.2-1.7 3.2-2.1 0-1-.6-.9-5.5.9zm-187.5 1.7c0 .9.5 1.6 1 1.6.6 0 1-.4 1-.9 0-.6-.4-1.3-1-1.6-.5-.3-1 .1-1 .9zm-23.7 3.1c-.3.9-.3 1.8 0 2.1.9.9 2.7-.6 2.7-2.2 0-1.9-1.9-1.8-2.7.1zm41.7-.6c0 .6.4 1.3 1 1.6.6.3.7-.1.4-.9-.7-1.8-1.4-2.1-1.4-.7zm-122 1.9c-3 1.3-6.4 4.2-5.7 4.8.3.3 1.8-.4 3.4-1.6 1.6-1.2 2.9-1.7 3.1-1.1.2.6.9 1.1 1.5 1.1s3.4 2.2 6.2 4.9c9 8.7 14 13.1 15 13.1.5 0 1.7-.5 2.5-1 1.3-.9 1.3-1.1 0-1.9-5.6-3.4-11.1-8-12.5-10.4-1.3-2.2-2-2.6-3.1-1.6-1.1.9-1.4.7-1.4-1 0-1.1-.4-2.1-1-2.1-.5 0-1.9-.9-3-2-2.1-2.1-2.6-2.2-5-1.2zm118 .5c0 .8.7 3.6 1.5 6.3.8 2.7 1.5 5.9 1.5 7.1 0 1.3.5 2.3 1 2.3 1.5 0 1.2-2.5-1-10.1-2-6.6-3-8.5-3-5.6zm157-.3c0 .5.9 1 1.9 1 1.1 0 2.3-.5 2.6-1 .4-.6-.5-1-1.9-1s-2.6.4-2.6 1zm7.6.1c.3.5 2.3.9 4.5.9 2.1 0 3.9-.4 3.9-.9s-2-.9-4.5-.9-4.3.4-3.9.9zm-30.6 2.5c-5.3 2.9-8.7 6-7.6 7.1.4.4 1.9.1 3.4-.8 1.5-.8 4.7-2.6 7.2-3.9 2.5-1.4 4.7-2.6 5-2.8.5-.3-2.2-2.2-3-2.1-.3 0-2.5 1.2-5 2.5zm-155.4.9c-.7 1.8.3 4.5 1.6 4.5.6 0 .8-.7.5-1.5-.4-.8-.2-1.7.4-2 1-.7.3-2.5-1.1-2.5-.4 0-1 .7-1.4 1.5zm9.9 1c.3 1.6.8 7.4 1.2 12.7.3 5.4 1 9.5 1.4 9.2 1.3-.7-.2-18.4-1.7-21.9l-1.4-3 .5 3zm32.2-1.8c-.4.3-.7 1.8-.6 3.2.1 2.6.1 2.5 1-.3.9-3.1.7-4.1-.4-2.9zm141 0c-1.4 1.3-.6 2 1.8 1.5 1.4-.2 2.5-.8 2.5-1.3 0-1-3.4-1.2-4.3-.2zm-281.6 2.1c-.7 1.3-1.1 2.6-.8 2.8.8.8 2.9-2.5 2.5-3.8-.3-.8-.9-.4-1.7 1zm289.2-1.1c1.5.2 3.9.2 5.5 0 1.5-.2.2-.4-2.8-.4s-4.3.2-2.7.4zm-411.3 1.9c0 .8.5 1.4 1 1.4.7 0 .7.7 0 2.1-.6 1.1-1 2.8-.8 3.7.3 1.3 1.1.7 3.1-2.3 3.5-5.1 3.4-6.2-.3-6.3-2 0-3 .4-3 1.4zm399-.8c0 3.1 5.8 3.9 16.5 2.3 4.1-.6 3.3-.8-4.4-.7-6.7.1-9.6-.3-9.8-1.2-.5-1.3-2.3-1.7-2.3-.4zm-188.7 2.1c-1 1.6-.8 2.2.8 3.7 1.1 1 1.9 3 1.9 4.8.1 2.7.2 2.9 1.1 1.2.9-1.4.8-2.9-.2-5.8-1.1-3.4-1.1-4.1.2-4.9 1.1-.7 1-.9-.6-.9-1.1 0-2.6.9-3.2 1.9zm56.4 2.8c-.9 1.7-1.3 3.4-.8 3.7 1.1.7 3.5-3.8 2.9-5.6-.3-.8-1.1-.1-2.1 1.9zm-48.7.3c0 .5.5 1 1.1 1 .5 0 .7-.5.4-1-.3-.6-.8-1-1.1-1-.2 0-.4.4-.4 1zm38.8.6c-1.4 1.4-2 1.5-3.2.5-.8-.7-2-1-2.6-.6-1.6 1-4.2 6.5-3.6 7.8.2.7 1-.3 1.7-2.1 1.9-4.6 3.3-3.4 3.7 2.9.2 3 .8 5.8 1.4 6.4.7.7.9-1 .5-5.6l-.4-6.6 5 .5c3.6.3 4.8.2 4.3-.7-.4-.6-1.6-1.1-2.6-1.1s-2-.7-2.2-1.5c-.3-1.4-.5-1.4-2 .1zm147.7-.5c-1.8.4.4.7 5.8.8 4.8 0 8.7-.3 8.7-.8 0-1-9.8-1-14.5 0zm-205 3.4-1.8 4-.9-2.8c-1.1-3.1-2.2-3.4-3.8-1-.8 1.3-1.3 1.4-1.6.5-.3-.6-1.1-1.2-1.9-1.2-.8 0-1.3 1.5-1.3 4.5-.1 2.5.3 4.5.8 4.5s.9-1 .7-2.3c-.2-1.8.2-2.1 2.1-1.9 1.2.2 2.2-.2 2.2-.7 0-2.3 1.9-1 2.2 1.4.4 3.7 2.1 3.2 3.3-.8 1.8-6.3 2.4-5.6 3.8 4.1.4 2.6 2 1.6 3.2-1.8 1-2.9 1.3-3.2 1.7-1.5.4 1.2.6.6.7-1.7.1-5-1.5-5.6-3.1-1.2l-1.3 3.5-1.6-4.8-1.7-4.8-1.7 4zm71.2 0c-1.5 1.9-3.1 3.4-3.5 3.3-2.2-.4-4.2 1.7-4.2 4.6 0 1.7-.5 4.8-1.1 7-.7 2.5-.7 4.2-.1 4.8 1 1 3-6.3 3.3-11.5.1-1.7.2-1.8.6-.5.2 1 .8 1.8 1.2 1.8.4 0 .4 2.1-.1 4.7-1.8 10-2.1 14.3-.9 14.3.7 0 .9-.9.5-2.5-.3-1.4-.1-3.1.4-3.8 1.7-2.1 3.5-14.7 2.2-16.2-.7-.9-.6-1.6.5-2.5.9-.7 1.7-1.1 1.9-.9.6.6-1.2 22.7-2.5 30.4-1 6.3-.9 7.5 1.1 12.7 4.1 10.9 5.3 6.6 1.4-5-1.1-3.3-1.2-5.8-.4-11.5.6-3.9 1.4-11 1.8-15.7l.8-8.5 1.7 3.3c1.2 2.2 1.5 3.7.8 5-.9 1.6.4 32.2 1.4 34.7.2.5.2-6.8 0-16.3-.3-11.3-.1-17.2.5-17.2s1.3.7 1.7 1.6c.4 1.2.8 1.3 1.4.3.4-.8 0-2.4-1.2-4-1-1.5-1.9-3.3-1.9-4 0-.7-1.2-2.5-2.6-4-2.1-2.2-2.4-3-1.5-4.7 2.4-4.5.5-4.3-3.2.3zm-199.6-1.6c-1.4.4-2.7 1.3-2.9 2-.6 1.9 6.6.8 8.7-1.4 1.4-1.3 1.3-1.5-.9-1.4-1.4.1-3.6.4-4.9.8zm208.4 3c-.8 3.6-.7 4.1.3 4.1 1.1 0 2.1-4.6 1.2-6-.5-.8-1-.2-1.5 1.9zm-58 .9c.5 2.4.2 3.9-1 5.2-2 2.2-1.5 4.5 1.2 5.2 1.5.4 1.8-.2 2.1-4.6.2-3.5-.2-5.8-1.3-7.1-1.5-1.9-1.6-1.8-1 1.3zm184-1.8c-.4.6 2.1 1 6.9 1 4.1 0 7.8-.5 8.1-1 .4-.6-2.1-1-6.9-1-4.1 0-7.8.4-8.1 1zm-408.4 1.6c0 1.1.3 1.4.6.6.3-.7.2-1.6-.1-1.9-.3-.4-.6.2-.5 1.3zm14.8 3.2c-1.5 1.5-3 3.7-3.3 4.9-.4 1.2-2.2 3.1-4.1 4.3-2.8 1.8-4.5 3.8-4.5 5.7 0 1.5 10.9-9.2 11.4-11.3.5-1.7 1.2-2.4 2.1-2 .8.3 1.9-.2 2.4-1.1.8-1.5 1.3-1.4 4.5 1.1 3.6 2.7 4.5 4.9 2.6 6.1-.5.3-1 1.1-1 1.7 0 .6.9.3 2.1-.8 1.2-1.1 3.2-1.7 4.6-1.6 1.7.3 2.3 0 1.8-.8-.4-.6-1.3-.9-2.1-.6-.8.3-1.4.1-1.4-.5 0-2-7.5-7.9-10-7.9-1.4 0-3.7 1.3-5.1 2.8zm-45.4 1.7c2.2 1.9 4.3 3.4 4.6 3.5.3 0 2 1.3 3.7 3 1.8 1.6 3.8 3 4.5 3 .7 0 2.8 1.3 4.7 2.9 1.9 1.5 4.9 3.5 6.5 4.4 1.7.8 5.3 3.8 8.2 6.6 2.8 2.8 5.7 5.1 6.3 5.1.9 0 .9-.5-.1-1.7-1.2-1.5-1.2-1.6.4-1 2.1.8 2.1.8.3-3.4-1.3-3-1.4-3.1-2-1.1-.4 1.2-1.1 2.2-1.4 2.2-1.2 0-3.9-3.5-3.5-4.6.5-1.6-3.5-6.2-8-9.2-15.4-10.3-21.4-13.4-20.3-10.7.7 2 .4 1.9-2.4-.5-1.3-1.1-3-2-3.9-2-1 0-.1 1.3 2.4 3.5zm10 3.5c1 1.1 2.3 2 3 2 1.6 0 15.5 9.1 15.5 10.2 0 .4-.3.8-.6.8-1.1 0-7.6-4.2-11.4-7.2-1.9-1.5-3.9-2.8-4.6-2.8-.6 0-2.1-1.1-3.4-2.5-1.3-1.4-1.9-2.5-1.3-2.5.5 0 1.8.9 2.8 2zm125.4-4.8c-.5 6.3 1.5 10.2 6.8 13 2.3 1.3 7.6 4.9 11.8 8.1 7.9 6 11.9 7 5.3 1.4-4.8-4.2-13.6-10.9-15.9-12.3-3.9-2.3-5.9-4.8-5.9-7.5 0-2.8-1.9-5.2-2.1-2.7zm108.6 1.8c-.4.6-.3 1.6.3 2.2.6.6 1.2.6 1.7-.2.4-.6.3-1.6-.3-2.2-.6-.6-1.2-.6-1.7.2zm211.3 3.7c-1 .2-1.8.9-1.8 1.3 0 1.1 6.1.1 7.5-1.1.9-.9-2.6-1-5.7-.2zm-174.9 4.5c-.5 4.6 1.5 17.6 2.4 16 .5-.6.6-1.6.3-2.1s-.7-4.5-.8-9c-.1-8.1-1.3-10.9-1.9-4.9zm-214.2 2.7c-1.4 2.9-2.2 5.3-1.6 5.6.5.4 1.2-.1 1.5-.9.3-.8 1.4-1.8 2.5-2.1 2-.7 2.5-4 1-6.3-.5-.9-1.6.2-3.4 3.7zm307.3-2.8c0 1.7 17.4 19.2 17.8 17.9.2-.6-3.3-4.7-7.7-9.1-4.5-4.5-8.1-8.5-8.1-9s-.4-.9-1-.9c-.5 0-1 .5-1 1.1zm-116.9 3.3c-.1 2.9.2 3.7 1 2.9.8-.8.8-1.9.1-4-1-2.8-1-2.8-1.1 1.1zm-206.9 2.1c-5.2 5.6-5.6 7.8-.4 2.7 4.9-5 6.7-7.2 5.5-7.2-.5 0-2.8 2-5.1 4.5zm233.8-2.8c0 1 .5 2.5 1 3.3.8 1.2 1 .9 1-1.2 0-1.5-.4-3-1-3.3-.5-.3-1 .2-1 1.2zm60.6 14.6c.1 19.2 1.2 30.3 3.1 32.2 1.7 1.8 1.6 7.4-.3 16-3.6 15.6-2.3 16.7 1.5 1.3 1.6-6.3 2.1-10.4 1.7-15.5-.3-3.7-.5-11.5-.6-17.2 0-10.4 0-10.5-1.9-8.4-1.1 1.1-2.1 3.1-2.4 4.4-.3 1.3-.2-.5.1-4.1.7-7.1.7-8.3.4-18.3-.1-3.7-.5-6.7-.9-6.7-.5 0-.8 7.3-.7 16.3zm4 22.9c.2 6 0 8.4-.6 6.8-.9-2.9-1.3-17.6-.4-16.7.4.4.8 4.8 1 9.9zm-208.6-36.3c0 .5.7 1.4 1.5 2.1 2 1.6 1.9 2.7-.2 3.3-1.2.3-.8.5.9.6 3.9.2 4.4-1.6 1.3-4.5-2.8-2.6-3.5-2.9-3.5-1.5zm130.6.2c-.2.8-.8 3.2-1.2 5.4l-.8 4-.4-4.3c-.2-2.3-.7-4.2-1.3-4.2-1.2 0-1.1 1.1.3 6.7.9 3.6.8 5-.2 6.7-1.5 2.4-6.1 16.8-5.5 17.4.5.5 3.5-6.6 3.5-8.2 0-.7 1.1-3.4 2.4-6.2 2.5-5.2 5.3-17 4.3-18.1-.4-.3-.9 0-1.1.8zm45.8 11.6c.7 17.7 1.8 31.3 2.5 30.9.3-.2.3-4.8 0-10.3-.4-5.4-.7-14.6-.8-20.5-.1-6.2-.5-11-1.1-11.3-.7-.5-.9 3.1-.6 11.2zm32.2-7.5c.9 5.7 1.4 6.1 1.4 1 0-2.2-.5-4.4-1-4.7-.7-.4-.8.8-.4 3.7zm-332.6-2c0 1.8 1.8 3.4 2.8 2.4.3-.4-.2-1.4-1.1-2.3-1.6-1.6-1.7-1.6-1.7-.1zm77.3 1.1c-3.4 1.1-4.4 2.7-1.9 2.7 2.4 0 6.6-1.9 6.6-3s-.3-1.1-4.7.3zm-90.6 1c-.3.9 1.6 3.4 4.9 6.3 3 2.7 5.4 5.4 5.4 6.1 0 2.1 7.3 7.3 9.3 6.7 1.3-.4 2.8.4 4.8 2.6 1.6 1.7 2.9 3.4 2.9 3.8 0 .4 1.1 2 2.4 3.7 2.8 3.4 4.5 2.8 2.8-1-.7-1.4-1.2-3.7-1.2-4.9 0-1.5-1.4-3.6-3.7-5.6-2.1-1.7-4.7-3.9-5.8-4.9-3.4-2.9-12.2-9.1-13-9.1-1.6 0 .4 2.1 6.3 6.5 7.1 5.2 8 7.3 1.1 2.6-5.6-3.9-16.1-13.6-13.2-12.2 1.2.6 2.5 1.6 2.8 2.1 1.1 1.7 2.5 1.1 1.8-.8-.6-1.6-.6-1.6 1 0 .9.9 2.7 2 4 2.4 2.5.8 7.5 4.4 16.4 12.1 3.3 2.9 6.7 5.3 7.4 5.3.7 0-1-2-3.7-4.4-2.7-2.4-6.5-5.8-8.4-7.6-8.4-7.7-22.8-13.5-24.3-9.7zm30.3 24.8c0 .6-.4.7-1 .4-.5-.3-1-1.1-1-1.6 0-.6.5-.7 1-.4.6.3 1 1.1 1 1.6zm27-24.2c0 1.1-1 3.2-2.3 4.8-1.2 1.5-2.8 4.1-3.5 5.6-.8 1.8-1.8 2.7-2.9 2.5-1.2-.2-1.9.6-2.3 2.5l-.5 2.8-2.9-3c-3.3-3.4-4.6-3.9-4.6-1.6 0 .9 1.3 2.4 3 3.3 3.5 2 3.7 3.2 1.1 5.6-1.1 1-1.8 2.3-1.7 2.9.2.7.1.9-.1.4-.7-1.2-2.3-.8-2.3.5.1 2 2.7 4.9 4.7 5.2 1.3.3 1.7 1.1 1.5 3.2-.5 5.1-.9 5.5-4.7 4.8-2.9-.5-3.5-.3-3.5 1.1 0 1.4.7 1.6 3 1.3 3.9-.6 5.6 1.3 4 4.2-1.3 2.4-.8 3.6 1 2.5.6-.4 1-2.5.9-4.7-.2-2.5.2-4.2 1-4.7 1.1-.7 1.1-2.1.2-7.3-1.6-9.4-1.5-10 2.9-14.6 2.2-2.2 4-4.7 4-5.3 0-.7 1.1-2.7 2.5-4.5 2.8-3.7 4.4-9.4 2.6-9.4-.6 0-1.1.9-1.1 1.9zm217.1 2.5c-.8 3.4-.8 5.1.1 7.1s.9 4.6 0 11.4c-1.4 10.7-1.5 16.1-.2 18.1.7 1 1-1.6 1.2-8.5.3-13.6.4-32.5.2-32.5-.1 0-.7 2-1.3 4.4zm9.6 6.1c.3 4.9.7 11.5.7 14.7.1 3.1.5 6 1 6.5 1.1 1-.1-21.7-1.4-26.7-.6-2.4-.7-.7-.3 5.5zm-262.7-4.7c1.9 1.5 4.4 3.6 5.5 4.7 9 8.7 13.6 12.7 14.1 12.2.7-.7-14.2-15.8-17.8-18-4.3-2.7-5.6-1.9-1.8 1.1zm121.5-1.3c-.5.1-4.5 1.1-8.7 2.1-4.3 1-7.8 2.2-7.8 2.6 0 1.2 1.9 1 9.5-1.2 3.8-1.1 7.3-2 7.7-2 .4 0 1.9 2.7 3.5 6 2.6 5.8 4.4 7.3 5.9 4.9.4-.7-.2-1.9-1.3-2.8-1.8-1.4-4.3-5.1-4.3-6.4 0-.3.9-.7 2.1-1 3.1-.8 1.3-2.7-2.4-2.6-1.8 0-3.6.2-4.2.4zm153.3 7.3c-.3 2.6-.1 5.1.3 5.5.4.5.9-1.4 1-4.3.5-6.5-.7-7.7-1.3-1.2zm-234.2-1.9c-1.1 1.2-1.3 2.1-.7 2.5.5.4 1.5-.3 2.1-1.5 1.5-2.8.7-3.4-1.4-1zm284.4 1.7c0 1.4.4 2.3.9 2 .5-.3.7-1.5.4-2.6-.7-2.8-1.3-2.5-1.3.6zm-192.9 0c0 1.1.3 1.4.6.6.3-.7.2-1.6-.1-1.9-.3-.4-.6.2-.5 1.3zm73.6 2.1c-.6 3.3.2 5.1 1.4 3.2 1.1-1.8 1.1-5.9 0-5.9-.5 0-1.1 1.2-1.4 2.7zm51.9-1.2c-.3.9-.5 4.9-.5 8.8l.2 7.2.8-8.5c.8-8.5.7-10.5-.5-7.5zm167.4.5c0 .5.9 1 2 1s2-.5 2-1c0-.6-.9-1-2-1s-2 .4-2 1zm5 0c0 1.3 3 1.3 5 0 1.1-.7.7-1-1.7-1-1.8 0-3.3.4-3.3 1zm-357.1 1.6c-1.2 1.5-1 1.6 2.1.9 1.9-.4 5-.7 6.8-.7 1.9.1 3-.3 2.7-.8-1.1-1.7-10.1-1.2-11.6.6zm-23.9 1.9c1.3 3.3.7 5.5-1.5 5.5-.8 0-1.5.4-1.5 1 0 1.3 1 1.3 4.9-.1 2.9-1 4.3-2.9 2.1-2.9-.5 0-1-.6-1-1.3 0-.8-.9-2.2-2.1-3.2-2-1.9-2-1.9-.9 1zm322-2.1c0 .2.8 2.1 1.7 4.2 1 2.4 1.8 3.3 2 2.3.5-2.1-1.4-6.9-2.7-6.9-.5 0-1 .2-1 .4zm50.1 2.8c0 2.8.2 3 .9 1.3 1.2-2.8 1.2-4.5 0-4.5-.5 0-1 1.5-.9 3.2zm-327.9 0c-.6.6-1.2 2.3-1.2 3.7 0 3.8-1.6 5.6-4.7 5.7-8.1.2-10.1.5-11.6 1.6s-.5 1.3 5.6 1.4c4 .1 8.2.6 9.4 1.3 1.6.8 2.4.8 2.9 0 .3-.6.2-1.4-.3-1.8-.6-.4-.5-2.5.5-5.9l1.5-5.2 11.5.4c7.4.2 11 0 9.9-.5-2.7-1.6-22.1-2.1-23.5-.7zm318.7-1c-.5 1.7-.2 13.1.4 13.5.4.2.7-2.8.7-6.6 0-3.9-.2-7.1-.5-7.1s-.5.1-.6.2zm4.8 1.2c-.4 1-.7 3-.6 4.4.1 2.5.1 2.5 1-.6 1.1-3.7.7-6.7-.4-3.8zm-168.2 4.1c-.3 1.6-1.1 4.3-1.6 5.9-1.1 3.4-1.2 11.3-.2 10.2.4-.4.8-1.7.8-2.9.1-1.2.7-4.8 1.4-8 .7-3.1 1-6.3.8-7-.2-.6-.8.1-1.2 1.8zm159.4-1c-.7 2.5.4 13.4 1.2 12 .3-.6.3-3.9 0-7.5-.4-3.6-.9-5.6-1.2-4.5zm-21.8 1.1c0 1.1.3 1.4.6.6.3-.7.2-1.6-.1-1.9-.3-.4-.6.2-.5 1.3zm-259.8.6c-1.3.6-2.3 1.5-2.3 2 0 1.2 1.2 1 3.3-.6.9-.7 2.8-1.1 4.2-.8 1.5.2 2.5 0 2.5-.7 0-1.4-4.8-1.3-7.7.1zm274.2 1.5c.1 1.6.3 4.6.4 6.8.1 3.4.3 3.7 1.2 2.1.9-1.5 1.3-1.6 2-.5.6 1 .9.8.9-.8s-.4-2.1-1.5-1.7c-1.2.5-1.5-.3-1.5-3.6 0-3.7.2-4.1 1.5-3 1.2 1 1.5 1 1.5-.4 0-1-.8-1.6-2.4-1.6-1.9 0-2.3.5-2.1 2.7zm-401.3 0c2.8 3.2 4.5 7.7 4.7 12.1 0 2.4.5 5.2 1.1 6.2.6 1.2.7 2.8.1 4.4-1.1 2.8-1.7 19.3-.8 20.3.4.3.9-1.3 1.3-3.7.6-3.4.9-3.9 1.6-2.5.9 1.5 1.2 1.3 2.5-1.2 1.2-2.3 1.2-3.5.2-6.8s-1.3-3.7-1.9-2c-.4 1.2-.9-.7-1.4-5.4-.3-4-.4-7.7 0-8.2.8-1.4-2.4-10.3-4.7-12.7-2.4-2.6-4.9-3-2.7-.5zm6.8 11.3c0 .5-.2 1-.4 1-.3 0-.8-.5-1.1-1-.3-.6-.1-1 .4-1 .6 0 1.1.4 1.1 1zm88.4-8.9c.4 1.3.8 3.1 1 3.8.4 2.2 2 2.3 3.3.2 1-1.6.7-2.2-1.9-4.1l-3.1-2.3.7 2.4zm179.6-1.2c0 .6.5 1.3 1 1.6.6.3 1-.1 1-.9 0-.9-.4-1.6-1-1.6-.5 0-1 .4-1 .9zm115.4 7.6c.5 8 .4 8.4-.4 3.3-1-6.4-3.7-11.5-5.3-9.9-.6.6-.6 1.7-.1 2.8.9 1.9 1.3 7.4 1.3 16.5 0 3.6.4 5.8 1.1 5.8.6 0 .9.3.7.7-.3.5-.2 3.9.3 7.8.4 3.8.3 7.7-.1 8.7-1.2 2.3-2 18.9-1 20.2.5.6 1.1 3.1 1.4 5.5.6 4.6 2.7 7.4 6.5 8.6 3.4 1 2.7-1.4-.8-2.6-1.9-.7-3-1.8-3-2.9 0-1-.6-2-1.2-2.2-1-.4-1-1-.1-3.1 1.1-2.4 1.9-2.7 6-2.8 4.5-.1 4.6-.1 1.8-1-1.6-.5-3.8-.6-4.9-.3-1.2.4-1.6.2-1.2-.5.4-.6 2.3-1.1 4.2-1.1 2.2 0 3.3-.4 2.9-1.1-.4-.5-2.6-.9-4.8-.7l-4.2.3-.3-7.1c-.3-8.3.5-9.4 7.3-10.2 2.5-.2 4.8-.9 5.2-1.5.4-.7-.7-.8-3-.4-7.1 1.1-10.8-2.3-4.7-4.4 3.5-1.3 3.7-2 1-4.4-1.4-1.2-1.7-2.2-1-3 .5-.6.6-1.5.1-2.1-.5-.5-1.1-6.5-1.5-13.3-.3-6.9-1-12.9-1.6-13.5-.7-.7-.9 1.7-.6 7.9zm-.5 15.6c-1.9 1.1-2.4.3-.8-1.4.8-.9 1.6-1.1 1.8-.5.2.6-.3 1.4-1 1.9zm2.1 3.5c0 .8-.4 1.2-1 .9-.5-.3-1-1-1-1.6 0-.5.5-.9 1-.9.6 0 1 .7 1 1.6zm1.7 6.1c.4 1.1-2.6 2.7-3.5 1.9-.2-.3-.2-1.2.2-2.1.6-1.8 2.7-1.6 3.3.2zm-325.2-28.7c-.3.5.1 1 .9 1 .9 0 1.6-.5 1.6-1 0-.6-.4-1-.9-1-.6 0-1.3.4-1.6 1zm100.8.3c.3.9 0 1.8-.9 2.1-2 .8-1.7 2.9.6 4.4 1.7 1 2 .9 2.6-1.2.8-3.3.2-5.8-1.5-6.4-1-.3-1.2 0-.8 1.1zm118.8 3.4c0 2.9.2 3.3.8 1.8.7-1.8.4-5.5-.5-5.5-.2 0-.4 1.7-.3 3.7zm-177.1-2.3c0 .2.7.6 1.5 1 .8.3 1.5.1 1.5-.4 0-.6-.7-1-1.5-1s-1.5.2-1.5.4zm10.5.6c.3.5 3.9.9 7.8.9 5.4-.1 6.5-.3 4.2-.9-4.6-1.2-12.7-1.2-12 0zm114.5 1.5c-.6 1.5-1.3 3.2-1.6 3.6-.3.5-.1.9.4.9 1.2 0 3.7-5.8 2.9-6.7-.4-.3-1.1.7-1.7 2.2zm68.1-1c-.1 1.1.6 6 1.5 10.9 1.6 9.1 1.4 11.3-.6 7.7-.6-1.2-1.5-1.9-2.1-1.6-.5.4-.9-.3-.9-1.5s-.4-1.8-1-1.5c-1.4.9-1.3 8.5.1 8.5.7 0 .9-.9.6-2.1-.4-1.6-.3-1.9.5-1.1.8.8.7 2-.4 4.4-.9 1.8-1.9 6-2.4 9.3-1.1 8.3-1.2 29 0 26.2.4-1.2.8-6.3.7-11.4-.1-5.5.2-9.4.8-9.8.7-.4 1.1.7 1.2 2.7.1 1.8.5 4.4.9 5.8.7 2.1.8 1.9.9-1.6.1-6-1-10.9-2.1-9.2-.9 1.4-.1-6.6 1-9.2.6-1.7 1.9 7.3 2.2 16.5l.2 6 .9-5.5c.8-5.2.6-10.4-.8-17.5-.3-1.7-.2-2.7.3-2.2.4.4.9 1.8 1.1 3 .7 4.6 2.5 8.9 3.4 8 .6-.6.5-2.1-.1-3.9-.6-1.6-1.4-6.3-1.6-10.4-.4-7.1-1.7-14.5-3.5-20-.6-2-.8-2.1-.8-.5zm124.6-.8c-1.6 1.6-.4 2.4 2.6 1.8 4.8-1 5.7-2.5 1.6-2.5-2 0-3.9.3-4.2.7zm-265.3 1.8c-.8 2.1.6 4.1 1.7 2.4 1.2-1.9 1.1-3.9-.1-3.9-.6 0-1.3.7-1.6 1.5zm94.6 2.8c0 2.6.4 4.7.9 4.7.8 0 .3-7.9-.5-8.9-.2-.2-.4 1.7-.4 4.2zm24.6-1.8c-1.1 2.9-.7 5.5.9 5.5 1.1 0 1.3-.8.8-3.3-.7-4-.9-4.2-1.7-2.2zm141.4.8c0 1.1-.8 1.7-2.2 1.7-1.3.1-3.4.7-4.8 1.5s-4.5 1.5-7 1.5c-3.3 0-4.1.3-3 1 2.2 1.4 8.1 1.1 11-.5 1.4-.8 3.7-1.4 5.1-1.5 1.9 0 2.5-.5 2.4-2-.2-2.5-1.5-3.9-1.5-1.7zm5.8-.6c-4.7.7-3.1 2.4 2 2.1 2.6-.2 4.7-.8 4.7-1.3 0-1.1-2.7-1.4-6.7-.8zm-331.7 1.6c-.8.8-4.7 1.3-10.9 1.3-5.3.1-14.1.4-19.5.7-5.3.2-10 0-10.3-.4-.8-1.4-2.4-1-2.4.5 0 2 3.2 2.8 7.5 2 2.9-.5 3.5-.3 3.5 1 0 1.5-.7 1.6-4.7 1-2.7-.4-7-1.2-9.6-1.9-6.5-1.7-4.4.2 2.4 2.1 9 2.6 10.2 2.7 12.4.7 2.3-2.2 13.3-4.3 22.5-4.3 6.6 0 7.4 1.5 1.5 2.6-1.9.3-3.5 1.1-3.5 1.6 0 .6 1.1.7 2.8.3 1.5-.4 5.3-.8 8.4-.9 6.4-.1 7.9-.9 4.9-2.6-1.4-.7-2.1-.7-2.1 0 0 .5-.7 1-1.5 1-1.9 0-2-2.8 0-3.2.9-.2 1.1-.8.7-1.5-.7-1-1.1-1-2.1 0zm10.9-.5c0 1.5 3.8 4.4 4.9 3.7 1.6-.9 1.3-3.5-.3-2.9-.8.3-1.7.1-2.1-.5-.7-1.3-2.5-1.5-2.5-.3zm13.2.8c-.8.8-1.9 1.3-2.5 1.1-.7-.2-1.7 1.2-2.2 3.2-.9 3-1.6 3.7-4.5 4.2-1.9.3 2.4.7 9.7.7 8.2.1 13.5-.3 13.9-.9.4-.7-.9-.8-3.9-.4-5.2.8-8.2-.4-8.4-3.5-.1-1.6.1-1.9 1.1-1.1 2 1.7 2.6.1.9-2.5-1.8-2.8-2.3-2.9-4.1-.8zm1.1 5.4c.4 1.6 0 2-1.9 2-2.1 0-2.3-.2-1.2-2.5 1.2-2.7 2.3-2.6 3.1.5zm149.7-3.1c0 2.2.4 4.2.9 4.5 1 .7 2 8.6 1 8.6-.3 0-.6 8.7-.6 19.2 0 11.3.3 17.9.7 15.9 1-4.4 1.4-41.3.5-47.4-.9-5.7-2.5-6.2-2.5-.8zm-31.9-.3c0 1.1.3 1.4.6.6.3-.7.2-1.6-.1-1.9-.3-.4-.6.2-.5 1.3zm49.8 8.8c-.4 4.3-.3 8.1.4 10 1.3 3.5 1.5 20.9.2 27.3-.4 2.7-.4 4.3.2 4.3 1.6 0 3.1-18.8 2.1-26-.5-3.6-1.2-10.1-1.6-14.5l-.7-8-.6 6.9zm136.7-5.6c-.9 1.5 7.3 2.7 8.7 1.3.8-.8.3-1.1-2-1.1-1.7 0-3.8-.3-4.6-.6-.8-.3-1.8-.1-2.1.4zm-147.6 2.2c0 1.1.5 2 1 2 .6 0 1-.8 1-1.7 0-1.3.3-1.4 1.1-.6.7.7 1.1 4.1 1 8.3-.1 4.7.2 6.9.9 6.5 1.4-.9 1.3-13.8-.2-15.3-1.9-1.9-4.8-1.5-4.8.8zm115.1 0c.1 2.8 2.6 11.3 2.8 9.1.1-1.1 1.5-1.3 7.1-.8 4.3.4 6.8.2 6.5-.4-.4-.5-3.5-.9-7.1-.9-4.8 0-6.4-.3-6.4-1.4 0-.7-.7-2.9-1.5-4.7-1.3-3.1-1.4-3.2-1.4-.9zm-154.1.4c0 .9.5 1.6 1 1.6.6 0 1-.4 1-.9 0-.6-.4-1.3-1-1.6-.5-.3-1 .1-1 .9zm169.7-.8c-.3.4-3.2 1-6.4 1.3-5.8.7-5.8.7-3 2.1 2.2 1.1 3.3 1.1 4.8.2 1-.7 2.5-1.2 3.3-1.2.8 0 1.8-.5 2.1-1.1.8-1.2.1-2.2-.8-1.3zm3.8 1.9c-2.9 2.4-2.9 2.5-.7 2.5 1.2 0 2.5-.6 2.8-1.4.3-.8 1.3-1.2 2.5-.9 1.3.4 1.9 0 1.9-1.1 0-2.3-3-1.9-6.5.9zm-159.3 7.2c-.1 4.7.1 8.3.5 7.9.4-.4.6-2.3.4-4.2-.2-2.7 0-3.3 1.3-2.8 1.4.5 1.4.1.2-4.1-.8-2.6-1.6-4.9-1.8-5.1-.3-.2-.5 3.5-.6 8.3zm-227.6-5.1c-.3.9-.6 2.4-.6 3.5 0 1-.6 1.9-1.4 1.9-1.2 0-1.4 2.6-1.2 16.2.4 19.3.5 20 1.5 17.3.5-1.1.6-8.7.4-16.8-.2-12.2 0-15.1 1.2-16.3.8-.9 1.5-2.4 1.5-3.5 0-2.7 1.7-2.3 3.4.8 1.8 3.3 2.1 1.5.4-2.2-1.3-2.8-4.3-3.3-5.2-.9zm104.4 1.6c-3 .9-6.8 1.9-8.4 2.3-1.5.3-2.6.8-2.4 1.1.6.6 13.9-2.5 15.8-3.6 2.7-1.6.5-1.6-5 .2zm164.1 0c-.1 1.6.4 2.8.9 2.8 1.2 0 1.2-.8 0-3.5-.8-1.8-.9-1.7-.9.7zm-36.5 4.6c-1.9 18.8-1.9 19.2-.3 19.2.8 0 1.7-.7 2.1-1.5.3-.8.1-1.5-.5-1.5-1 0-.8-4.2.7-16.1.3-2.7.1-4.9-.4-5.3-.6-.3-1.2 1.8-1.6 5.2zm-28.2-1.9c.3 1.9.9 5.9 1.3 8.8.3 2.9 1 5.3 1.4 5.3 1.1 0 1.1-2.1-.1-9.4-.5-3.3-1.5-6.4-2.1-7-.9-.8-1-.2-.5 2.3zm11.1 1.1c1.4 9.4 1.7 11 2.6 11 1.2 0 1.1-1.8-.2-8.2-1.4-6.8-3.4-9-2.4-2.8zm184.1-3.1c.5.5 2.6 1.4 4.6 1.9 4.4 1.2 6.3-.3 2.3-1.8-3.3-1.3-8.2-1.3-6.9-.1zm-365.7.8c0 .4-.2 2.1-.2 3.8-.2 2.8-.4 3-4.2 2.8-3.1-.2-3.5-.1-2 .6 1.1.5 4.9 1 8.4 1 5.8.1 6.2.2 5 1.8-1.2 1.4-1 1.4 2.1-.2 1.9-1 4.6-2.2 6-2.6 1.6-.6-.4-.7-5.2-.4-6.4.4-7.8.2-7.8-1.1 0-.8 1.1-2 2.5-2.6 1.4-.6 2.4-1.6 2.2-2.2-.4-1.3-6.7-2.1-6.8-.9zm115.6.2c-.7 1.2 1.8 2.4 7.3 3.6 2 .4 3.2.3 3.2-.4 0-2.2-9.3-5-10.5-3.2zm-104.9 1c-.4.7-.5 1.5-.2 1.8.9.9 1.9-.4 1.4-1.8-.4-1.1-.6-1.1-1.2 0zm8.7-.2c1.5.2 2.7.8 2.7 1.3s.8.6 1.7.3c1.5-.6 1.5-.7-.3-1.4-1-.4-3-.7-4.4-.7-2.3.1-2.3.1.3.5zm9.4.6c2 .6 4.1.6 6-.1 2.4-.9 2-1-3.2-.9-5.3.1-5.7.2-2.8 1zm176.9 2.4c.9 5.1 1.4 5.4 1.4 1 0-2-.5-3.9-1.1-4.2-.7-.5-.8.5-.3 3.2zm-216.3-1c.9.2 2.5.2 3.5 0 .9-.3.1-.5-1.8-.5-1.9 0-2.7.2-1.7.5zm352.2 2.3c-1.7.7-1.4.9 1.3.9 2 .1 3.1-.3 2.7-.9-.7-1.2-1.3-1.2-4 0zm-374.1 1.7c.3 1 .8 3.5 1.2 5.5.9 5.6 2.7 4.7 1.8-1-.7-5.3-1.1-6.2-2.5-6.2-.6 0-.8.8-.5 1.7zm5 1.8c.3 2.2.6 4.7.6 5.6 0 1.1 1.5 2 4.4 2.8 6.9 1.7 7.6 1.2 1.9-1.4-4.6-2.1-5.3-2.8-5.3-5.2 0-1.5-.5-3.5-1.1-4.3-.8-1.1-.9-.5-.5 2.5zm50.3-2.5c-6.3 1.2-5.6 2.3 1.1 1.6 5.9-.7 6.3-.6 7.1 1.6.8 2 1 2.1 1.6.5.4-.9.2-2.4-.5-3.2-1.3-1.6-3.2-1.7-9.3-.5zm313.3 0c0 .5.5 1 1 1 .6 0 1-.5 1-1 0-.6-.4-1-1-1-.5 0-1 .4-1 1zm-349 .9c0 .5 1.6 1.6 3.6 2.6 2.7 1.3 4.2 1.4 5.8.7 1.9-.9 1.7-1.1-1.5-1.1-2.3-.1-3.9-.7-4.3-1.6-.6-1.6-3.6-2.1-3.6-.6zm51.2 3c-2.7 1-4.8 2.8-5.8 4.6-1.4 2.7-1.4 3.1.3 4.3 1.7 1.4 1.7 1.4-.4.9-2.6-.6-3.1.8-.7 1.7 2.7 1 14.6.7 13.9-.4-.3-.6-2.4-1-4.6-1-4.2 0-6.9-1.7-6.9-4.4 0-1.7 3.1-3.7 7.4-4.5 1.6-.4 3.1-1.2 3.4-1.9.5-1.6-1.4-1.4-6.6.7zm15.8-1c-3.6.3-6 .9-5.3 1.4.7.4 4.9.4 9.5.1 5.4-.5 7.6-1 6.3-1.5-1.1-.4-2.4-.7-3-.7-.5.1-3.9.4-7.5.7zm14 .1c-1.1.7-.1 1 3.5 1s4.6-.3 3.5-1c-.8-.5-2.4-1-3.5-1s-2.7.5-3.5 1zm137 5.2c0 6.2.5 6 1.3-.5.4-2.8.3-4.7-.3-4.7s-1 2.3-1 5.2zm17.9-.5c.1 2.7-.2 11.3-.5 19.3-.4 9.8-.2 15.5.5 17.4 1.6 3.9 2.9 2.3 3.6-3.9l.5-5-1.4 4.5-1.3 4.5-.8-5.8c-.4-3.2-.5-8.4-.1-11.5 1.6-14.7 1.9-24.2.7-24.2-.8 0-1.2 1.7-1.2 4.7zm-263.4-1.3c-.3.9-.7 2.3-1 3.1-.2.8 0 1.7.5 2 .4.3 1.1-.9 1.5-2.6.7-3.2-.1-5.3-1-2.5zm24.1-.6c-.3.5.4 1.9 1.6 3.2 2 2.1 2.6 2.2 10.9 1.7 7.3-.6 9-.4 9.7.9.8 1.4 4.2 1 4.2-.5 0-.4 1.9-.8 4.3-.8s5-.4 6-.9c1-.6-4.4-.8-15.3-.6-11.8.3-17 .1-17-.6 0-1.5-3.7-3.4-4.4-2.4zm139.9 2.2c.3.5 1.5 1 2.5 1s2.2-.5 2.5-1c.4-.6-.7-1-2.5-1s-2.9.4-2.5 1zm69.5 1c0 1.1.5 2 1 2 .6 0 1-.9 1-2s-.4-2-1-2c-.5 0-1 .9-1 2zm79 .1c0 1.1.5 1.7 1 1.4.6-.3 1-1.3 1-2.1s-.4-1.4-1-1.4c-.5 0-1 .9-1 2.1zm-82.9-1.1c-.2.3-.5 5.4-.7 11.4-.2 7.4 0 10.6.7 9.9.6-.6.8-5.3.6-11.4-.1-5.7-.4-10.2-.6-9.9zm155.6 1.6c-1.3 1.3.5 2.4 3.6 2.4 3-.1 3.1-.1 1.3-1.5-2.1-1.6-3.9-1.9-4.9-.9zm-58.3 2.8c-.3 1.4-.1 3.3.5 4.3.8 1.5 1 1 1.1-2.5 0-4.7-.6-5.5-1.6-1.8zm-339.3 1.3c0 .7-.7 1.3-1.5 1.3-1.5 0-2.6 5.7-1.8 9.7.7 3.9 1.9 2.5 2-2.3 0-2.6.6-5 1.2-5.4.7-.4 1-1.6.7-2.6-.3-1.1-.5-1.3-.6-.7zm68.9.3c-1.9.6-.9.8 3.8.9 4 .1 6.1-.3 5.7-.9-.7-1.2-5.9-1.2-9.5 0zm167.8 1.7c-.2.5-.1 3.5.3 6.8l.6 6 .1-6.8c.2-6.1-.1-8-1-6zm87.7.5c-1.7 5.5-3.5 13.1-3.2 13.4.5.6 3.5-7.2 4.3-11.4.6-3-.2-4.6-1.1-2zm-275.5.6c0 1.1-7.7 2.4-13.3 2.3-2.1 0-3.6.3-3.3.8.8 1.3 6.7 2.2 8 1.2.6-.4 3.9-1.1 7.4-1.5 5.4-.6 6.6-.4 8.9 1.3 2.9 2.4 5.2 2.5 10.2.7l3.4-1.2-3.7-2.2c-4.7-2.8-4.8-2.7-4 .3.5 2.1.3 2.5-1.5 2.5-1.3 0-1.9-.5-1.5-1.4.3-.9-.4-1.5-2.3-1.9-1.5-.3-4-.9-5.5-1.3-1.6-.3-2.8-.2-2.8.4zm130 0c0 1.7 7 3.6 8.3 2.3 1.5-1.5.5-2.2-4.2-2.8-2.6-.4-4.1-.2-4.1.5zm203.4 0c.4.6 1.3.9 2.2.5.8-.3 3.4 0 5.8.7 3.1.9 4.9.9 6.3.2 1.7-1 1.7-1.1-.2-1.1-1.1-.1-4.9-.4-8.4-.7-4.5-.5-6.2-.3-5.7.4zm-71.1 6.9c-1.1 2.6-2.6 6.6-3.3 8.8-.7 2.2-1.9 5.3-2.6 7-.7 1.6-1.5 4.3-1.9 6-.4 1.6-.9 3.9-1.1 5-1 4.1 1.8-1.5 3.1-6.4 1.5-5.3 7.3-20.1 8.5-21.6.5-.6.5-1.6.1-2.3-.5-.9-1.5.2-2.8 3.5zm-153.8-2.9c.6.6 2.4 1.4 4 1.8 2.1.4 2.7.3 2-.4-.5-.6-2.3-1.4-4-1.8-2.1-.4-2.7-.3-2 .4zm10 .2c-1.8.8-1.7.9.8.9 1.6.1 2.6-.3 2.2-.9-.3-.6-.7-1-.8-.9-.1 0-1.1.4-2.2.9zm172.5 5.3c0 4.3.4 6.6 1 6.2 1.3-.8 1.3-9.5 0-11.5-.7-1-1 .5-1 5.3zm-267.8-4.1c-1.8 1.8-1.4 2.6 1.3 2.4 2.8-.1 3.1-.8 1.2-2.5-1-.8-1.7-.7-2.5.1zm103.6-.5c1.8.2 4.5.2 6 0s0-.4-3.3-.4-4.5.2-2.7.4zm49.4 4c-1 4.8-1.7 18.1-.8 17.3.5-.6 2.6-21.3 2.2-21.8-.2-.2-.8 1.9-1.4 4.5zm160.5-2.6c1.9.6 4 .5 5.5 0 1.8-.8 1.2-1-3.2-.9-5 0-5.2.1-2.3.9zm-106.9.4c-.3.5-.3 2.8.1 5s.9 3.5 1.3 3c.3-.6.3-2.8-.1-5s-.9-3.6-1.3-3zm-153 2.2c.7.3 1.6.2 1.9-.1.4-.3-.2-.6-1.3-.5-1.1 0-1.4.3-.6.6zm34.2 1.2c0 1 9.2 7.2 9.9 6.6.7-.8-3.1-4.6-6.1-6.1-3.2-1.6-3.8-1.7-3.8-.5zm165 1.5c-.5 1.5-1 3.3-1 3.9 0 .7-1.6 5.6-3.5 10.9-1.9 5.4-3.1 9.8-2.6 9.8 1.4 0 9.8-25.7 8.7-26.7-.3-.3-1 .6-1.6 2.1zm-280.5-.4-4 .7 4.9.2c2.7 0 6.4.6 8.1 1.2 3.5 1.3 8.6.2 9.3-2.1.4-1 0-1.1-1.4-.5-2 .9-4.9 1-9.9.2-1.6-.3-4.8-.2-7 .3zm128 0-3 .8 3 .1c1.7 0 3.7-.4 4.5-.9 1.3-.9 1.3-1 0-.9-.8.1-2.8.5-4.5.9zm-105.7.7c.7.3 1.6.2 1.9-.1.4-.3-.2-.6-1.3-.5-1.1 0-1.4.3-.6.6zm162 .9c-.5.4-.8 1.6-.8 2.8 0 1.4.3 1.7 1.1.9.6-.6.9-1.9.7-2.8-.1-.9-.6-1.3-1-.9zm167.2.4c0 .5.5 1 1 1 .6 0 1-.5 1-1 0-.6-.4-1-1-1-.5 0-1 .4-1 1zm-100.9 3.3c-1.1 1.9-2.1 4.8-2.1 6.4 0 1.7-.6 4.3-1.4 5.9-1.9 3.9-2.9 7.4-2.1 7.4 1.2 0 4.5-8.6 4.5-11.9 0-1.8 1-4.9 2.1-6.8 1.2-1.9 1.9-3.6 1.6-3.9-.2-.3-1.4 1-2.6 2.9zm-203.1-.3c0 1.2 1.7 1.2 4.5 0 1.7-.7 1.5-.9-1.2-.9-1.8-.1-3.3.3-3.3.9zm234.6 1.6c-.8 2.2-.7 2.6.4 1.9 1.5-.9.2 4-2.2 8.7-1 2.1-1.5 3.8-1 3.8 1.1 0 4-6.2 5.1-11 .6-2.9.5-4-.4-4.4-.8-.2-1.6.2-1.9 1zm-308.6 4.1c-.4 8.4-.1 11.6.8 12.5.5.5.9-2.5 1-7.7 0-8.9-1.5-13-1.8-4.8zm209.2 0c-1.2 3.9-.7 5.7.8 3.3.9-1.4 1.4-7 .7-7-.2 0-.9 1.7-1.5 3.7zm56.3 3.8c0 6.8.8 8.5 1.8 3.6.7-3.1-.2-10.1-1.2-10.1-.3 0-.6 2.9-.6 6.5zm125-5.5c-.3.5.1 1 .9 1s1.8-.5 2.1-1c.3-.6-.1-1-.9-1s-1.8.4-2.1 1zm-359.1 1.1c-1.4.6-1 .8 1.6.9 9.3.5 18 .2 18-.6 0-1.1-17-1.3-19.6-.3zm286.2-.2c-.5.7-1.7 4.7-2.7 8.9-1.1 4.3-2.8 9.4-3.9 11.5-2.2 4.1-2.6 6.2-1 5.2 2.3-1.4 7-15.5 7-21 0-1.3.5-2.5 1.2-2.7.6-.2.9-1 .6-1.8-.3-1.1-.6-1.1-1.2-.1zm3.4 2.3c0 2-.3 5.1-.6 6.9-.4 2.8-.3 3.1.6 1.6 1.2-1.9 1.6-10.4.6-11.5-.3-.3-.6 1.1-.6 3zm60.5-2.2c-2.7.4-7.5.6-10.5.4-3-.2-5-.2-4.3.2.7.3.9 1.2.6 2-.6 1.6 1.2 1.9 2.2.4.3-.6 3.6-1 7.3-1 7.3 0 11.2-.8 11.2-2.1 0-.5-.3-.8-.7-.8-.5.1-3 .5-5.8.9zm-405 1.1c-1 1.5.3 2.5 1.6 1.2.7-.7.7-1.3.1-1.7-.6-.3-1.4-.1-1.7.5zm85.1-.2c-.3.4-1.8.6-3.2.3-1.9-.3-2.5-.1-2 .7.4.6 1.3 1.1 2.1 1.1 1.7 0 2.5 2.2 2.5 7 0 3.9 1.1 5 5.1 5 2.7 0 2.4-1.8-.3-2.2-1.8-.2-2.4-1.1-2.8-4.3-.3-2.2-.9-4.6-1.3-5.3-.8-1.2 5.2-1.8 13.6-1.3 2.1.1 3.7-.2 3.7-.8 0-1.3-16.6-1.5-17.4-.2zm229.7 2.3c-.5.7-1.5 2.9-2.3 4.8-.7 1.9-2.1 5.3-3 7.5-2.2 5-3.3 8.5-2.6 8.5.9 0 4.3-7.3 5.1-10.9.4-2 1.4-3.5 2.6-3.8 1.4-.4 1.9-1.4 1.9-3.9 0-3.7-.3-4-1.7-2.2zm-28.1 4.3c0 1.6.2 2.2.5 1.2.2-.9.2-2.3 0-3-.3-.6-.5.1-.5 1.8zm130.3-1.6c-.6 1.1.9 2.3 1.9 1.4.9-.9.7-2.3-.3-2.3-.6 0-1.2.4-1.6.9zm-85 7.2c-1.6 3.4-3.6 6.4-4.3 6.6-.7.3-1.1 1.2-.8 1.9.3.8.1 2.6-.5 4-.5 1.5-1 5.3-1 8.5l-.1 5.7-3.4-.5c-4-.7-4.2.2-1.4 5.7l2 4-2.5.6c-2.4.6-3.1 1.5-1.9 2.6.6.7 6.4-2.1 6.4-3.1 0-.3-.6-1.5-1.3-2.6-.8-1.1-1.7-2.8-2-3.8-.6-1.6-.2-1.8 2.6-1.5 3.2.3 3.2.3 3.2-4.4 0-2.5.3-4.9.6-5.2.8-.8 2.9 9.6 3 14.8 0 3.7.1 3.9 1 1.6 1.1-2.6-.6-15.6-2.3-17.5-1.6-1.8-.7-5.9 3.2-14.2 4.3-9.2 4.4-9.3 3.3-9.3-.5 0-2.1 2.8-3.8 6.1zm76.5-4.9c-1.9.5-5.1 1.2-7 1.4-4.3.6-8.1 2.4-7.4 3.6.3.4 1.5.3 2.7-.4 1.2-.7 2.8-1.1 3.6-.9.8.1 3.3-.2 5.5-.8 2.3-.5 5.4-1.3 6.9-1.6 1.5-.3 2.5-1 2.2-1.5-.7-1.2-1.8-1.1-6.5.2zm-342 4.8c0 2.9.2 5.1.4 4.9.8-.8 1-8.8.3-9.5-.4-.4-.7 1.7-.7 4.6zm321-4.5c0 1.2 4 4.8 4.7 4.2.3-.4-.3-1.6-1.5-2.7-2.1-2-3.2-2.5-3.2-1.5zm-250.3 2.2c-1.1 1.7.1 17.4 1.7 23.8 1.4 5.1 1.4 10.2.1 16.6-.5 2.6-.3 4.3.9 6.1 1.4 2.2 1.5 3 .4 5.3-1.2 2.7-1.4 2.7-8.5 2.3-9.4-.6-10.5.8-1.4 1.7 8.7.9 10.6.2 12-3.8 1-2.6.8-3.8-.6-6.4-1.3-2.5-1.5-3.8-.7-6 .6-1.5 1.6-2.7 2.2-2.6 1.4.3 1.4-.3.1-13.2-.5-5.5-1-12.6-1-15.7 0-3.2-.5-6.1-1.1-6.4-.7-.5-.9 3.3-.5 11.7.7 14.1-.7 10.7-2-5.1-.5-5.4-1.1-9-1.6-8.3zm5.8 33.3c.3.5.1 1-.4 1-.6 0-1.1-.5-1.1-1 0-.6.2-1 .4-1 .3 0 .8.4 1.1 1zm-87.5-31c-1.2.8-1 1 .8 1 1.3 0 2-.4 1.7-1-.7-1.2-.6-1.2-2.5 0zm290.5 3.2c-.4 2.6-.5 5.3-.2 6 .2.7.8-.8 1.2-3.4.4-2.6.5-5.3.2-6-.2-.7-.8.8-1.2 3.4zm-251.1-2.2c-1.1.4 1.4 1 6 1.4 5.5.5 8.2.3 9.2-.5 1.1-.9 2.1-.9 4 0 3 1.3 7.4 1.4 9.4.1 1.1-.7 0-1-4-1.1-19.1-.5-22.9-.5-24.6.1zm293.2-.2c-.3.4-.8 3.3-1.2 6.3-.6 4.8-.6 5.3.8 4.1.9-.7 1.4-2.2 1.1-3.5-.4-1.8-.3-1.9.6-.7.6.8 1.1 2.3 1.1 3.2 0 .9.5 2 1.1 2.4.8.5 1-.3.7-2.5-.5-3.1-.4-3.2 2.6-2.6 2.9.6 3 .5 1.2-.9-1-.8-1.6-1.9-1.3-2.3.3-.5.3-1.4-.1-1.9-.9-1.4-5.9-2.6-6.6-1.6zm-313.6 1.1c0 .4 1.1.6 2.5.3 2-.3 2.5 0 2.5 1.7 0 1.1.6 2.1 1.4 2.1.9 0 1.2-.8.8-2.5-.4-2.1-1-2.5-3.8-2.5-1.9 0-3.4.4-3.4.9zm265.3 5c-2 3.8-2.9 6.8-2.6 8.2.5 1.8.3 2.1-1 1.6-1.9-.7-2.3.8-.7 1.8.8.5.8 1.1 0 2-.8 1-.7 2.5.4 6 .9 2.5 1.6 5.8 1.6 7.3s.5 3.4 1 4.2c1.3 2.1 1.3-4.2-.1-9.5-.6-2.2-1.3-4.9-1.5-6-.3-1.2.3-3 1.5-4.4 2.5-2.9 2.7-4.1.5-4.1-1.2 0-.9-1.2 1.6-5.5 1.7-3 3-6 2.8-6.6-.2-.6-1.8 1.6-3.5 5zm-51.3-2.8c0 1.1.5 1.7 1 1.4.6-.3 1 .2 1 1.1 0 1 .2 1.5.5 1.2.9-.8-.6-5.8-1.6-5.8-.5 0-.9.9-.9 2.1zm11.2-.5c-.7.8-1.2 2-.9 2.7.2.7.9.2 1.6-1.1 1.5-2.8 1.1-3.6-.7-1.6zm5.4 1.8c-.9 2.2-1.5 4.4-1.3 5 .2.6 1.2-.7 2.1-2.8.9-2.2 1.5-4.4 1.3-5-.2-.6-1.2.7-2.1 2.8zm-280.6-1.9c-.3.9-.7 6.3-1.3 17-.1 2.2.3 4.1.8 4.2.6.1.9-.8.8-2-.1-1.2.2-4 .8-6.2.7-2.6.7-5.8.1-9-.5-2.8-1.1-4.6-1.2-4zm296 1.9c-1.2 3.2-1.3 5.2-.2 4.2.4-.4.7-1.1.8-1.4 0-.4.4-1.5.9-2.5.4-1 .5-2.1.2-2.4-.4-.3-1.1.6-1.7 2.1zm2.2 1.8c-.5 1.8-.5 3.7-.1 4.2 1.2 1.3 1.5.7 2.3-3.7.9-4.6-1-5-2.2-.5zm79.3-2.2c.3.5 3.1 1 6.1 1 3.4 0 5.3-.4 4.9-1-.3-.6-3.1-1-6.1-1-3.4 0-5.3.4-4.9 1zm-287.9 2.9c.6 3.3.6 3.4-2.4 2.8-1.7-.4-3.3-.3-3.6.1-.3.5-7.5.8-16.1.7-14.9 0-15.7.1-17.7 2.2-2.5 2.7-1.7 4.4.9 2 1.1-.9 4.5-1.8 8.1-2.1 3.5-.3 6.7-.8 7.3-1.1.5-.4 4.2-.1 8.1.5 4.9.7 7.5.7 8.2 0 .5-.5 2.7-1 4.7-1s4.1-.6 4.6-1.3c1.5-1.8 1.2-4.9-.3-4.3-.7.3-1.5 0-1.8-.7-.3-.7-.3.3 0 2.2zm-41.3-.2c-2.4.9-1.3 1.9 2 2 1.7 0 4.3.3 5.7.7l2.5.8-2.4-2.1c-2.2-2-5.1-2.5-7.8-1.4zm240.5 2.9c-.5.4-.8 1.6-.8 2.8 0 1.4.3 1.7 1.1.9.6-.6.9-1.9.7-2.8-.1-.9-.6-1.3-1-.9zm41.8.1c-1.1 1.2-.6 11 .8 15 1.1 3.1 1.1 4.5.2 6.8-.8 2-1 4.2-.4 6.5.9 3.8 1.1 23 .4 38-.3 5.2-.1 10.2.4 11 1.2 1.8 1.2 2 1.2-11.5 0-6.1.2-9.4.5-7.5.5 3.9 2.3 6.6 2.3 3.4 0-1-.4-8.2-.9-15.9-.5-7.7-.6-18.3-.2-23.5.8-10.3.6-12-1.5-12-1.7 0-1.8-2.2-.1-3.9 1-1.1 1-1.4 0-1.8-.7-.3-1.3-1.1-1.3-1.9 0-.9.5-1.2 1-.9.6.3 1 .2 1-.3 0-1.2-2.6-2.3-3.4-1.5zm-9.3 2c-2.5 1.7-3.1 4.9-1.1 5.5 1 .4.9 2.2-.6 7.9-1.9 7.9-1.9 14 .2 14.7.8.2 1.2-.8 1.2-3.2 0-2-.4-3.6-.8-3.6-.5 0-.1-3.3.9-7.2 1.2-4.7 1.5-7.6.9-8.2-1.3-1.3-1.3-3.9-.1-3.1.9.5 2.7-3.3 1.9-4-.1-.1-1.3.4-2.5 1.2zm39.7.9c0 1 2.8 3.4 3.9 3.4 1.4 0 1.4-1.3-.1-2.8-1.2-1.2-3.8-1.7-3.8-.6zm-263.2 1.4c1.2.5 2.2 1.6 2.2 2.3 0 1.1 1.2 1.4 4.5 1.3 6.2-.3 6.9-1.6.9-1.7l-4.9-.1 3.5-1.3 3.5-1.3-6-.1c-4.6 0-5.5.2-3.7.9zm167.6.4c-.6 1.7.2 3.6 1.7 3.6 1.2 0 1.2-3.7-.1-4.5-.6-.3-1.3.1-1.6.9zm-232.6 1.3c.7.3 1.6.2 1.9-.1.4-.3-.2-.6-1.3-.5-1.1 0-1.4.3-.6.6zm-7.3 1.3c-.3.5-.1 1.9.5 3 1 1.8 2 2 9.8 1.9l8.7-.2-6-1c-3.3-.5-6.3-1.4-6.6-2-.4-.5-1.3-.6-2-.2-.9.6-1.1.3-.6-.8.5-1.2.1-1.7-1.3-1.7-1 0-2.2.4-2.5 1zm57.7-.1c-.8.5 1.6.8 5.8.8 4.2 0 6.6-.3 5.8-.8-.7-.5-3.3-.9-5.8-.9s-5.1.4-5.8.9zm22.3 2.1c-.4.6-.4 1-.1 1 .2 0 1.1.3 2 .6.9.3 1.6.2 1.6-.4 0-1.4-2.8-2.3-3.5-1.2zm256.3 3.7c-.6 6.9-.1 27.7.9 35.5.5 3.8.6 7.6.2 8.5-.7 2.1-.3 31.3.6 38.8.8 6.9.8 8.3-.3 13.7-.7 3.5-.6 5.2.3 6.4 1 1.4 1.2.9 1.4-3.2.5-7.3.3-21.1-.4-48.4-.3-13.5-.5-31.6-.5-40.3.2-9.7-.2-15.7-.8-15.7-.5 0-1.1 2.1-1.4 4.7zm-297.2-2.5c.5.8-.4.9-3.4.5-4.5-.8-6.8.8-2.8 1.9 3.1.7 16.6-1.4 16.6-2.7 0-.5-2.5-.9-5.6-.9-3.9 0-5.3.3-4.8 1.2zm23.4-.8c0 1.4 4.9 2.4 7.7 1.6 2.2-.7 2.4-.8.7-.9-1.2-.1-3.6-.4-5.3-.7-1.7-.4-3.1-.4-3.1 0zm230.1 1.3c0 .6-.4 2-.7 3-.5 1.4-.4 1.5.5.7.7-.7 1.1-2 .8-3-.3-1.1-.5-1.4-.6-.7zm-267.3 1c.7.3 1.6.2 1.9-.1.4-.3-.2-.6-1.3-.5-1.1 0-1.4.3-.6.6zm276.7 4.3c-.4 1.2-.5 2.4-.2 2.7.3.2.8-.5 1.2-1.7.4-1.2.5-2.4.2-2.7-.3-.2-.8.5-1.2 1.7zm-248.5 0c0 .5.5 1 1 1 .6 0 1 .7 1 1.6 0 1.1.5 1.4 1.6 1 .9-.3 2.5-.6 3.7-.7 1.8 0 1.5-.3-1-1.2-1.7-.7-3.5-1.5-3.9-2-1-1-2.4-.9-2.4.3zm190 4.4c0 3 .5 5.8 1 6.1.6.4 1-1.7 1-5.4 0-3.4-.4-6.1-1-6.1-.5 0-1 2.4-1 5.4zm-231-3.4c0 .5.5 1 1.1 1 .5 0 .7-.5.4-1-.3-.6-.8-1-1.1-1-.2 0-.4.4-.4 1zm51-.3c0 1.3 4.8 2.3 10.6 2.3 5 0 6.6 1.6 3 3-2.4.9-2.5 1.2-1.4 3.5 1.3 2.9.1 4.5-3.5 4.5-1 0-1.5.4-1.2 1 2.1 3.4 8.1-1.3 7.1-5.5-.5-1.9-.2-2.5.9-2.5 2.1 0 3-2.7 1.5-4.5-.9-1-2.8-1.5-5.9-1.4-2.5.1-6.1-.1-7.8-.6-2.1-.5-3.3-.4-3.3.2zm-90 1.2c0 1.1 2.9 3.5 3.5 2.9 1-.9-.7-3.8-2.1-3.8-.8 0-1.4.4-1.4.9zm57.1 1.2c-8.5 1-10.4 1.9-4.1 1.9 5.9 0 4.8.6-2.6 1.3-5.6.6-6.2.5-7.2-1.6-1.1-2.2-1.1-2.2-1.1-.1-.1 3.4 2.1 4.5 7.5 3.8 7.4-.8 9.5-1.4 9-2.3-.6-.9 5.9-2.9 11.4-3.4 2.8-.3 2.6-.4-1-.4-2.5 0-7.8.3-11.9.8zm8.3 2.2c-.8.4-1.4 1.2-1.4 1.7 0 1 1.3 1.1 14.1 1.3 5.6.1 6.8.5 8.2 2.4 1.9 2.5 1.9 2.5-5.3 3.6-1.4.3-.1.5 2.8.6 4.8.1 5.2-.1 5.2-2.2-.1-3.9-2.6-6.1-7.3-6.3-2.3 0-4.7.3-5.4.8-1.5 1.2-3.6 0-3-1.6.5-1.3-5.6-1.6-7.9-.3zm25.4.4c-1 .2-1.8.9-1.8 1.4 0 .5 1.1.7 2.5.3 3-.7 3.4 1.2.5 2.1-2.6.8-2.5 3.1.2 4.6 1.8 1 2 .9 1.5-.5-.5-1.2 0-1.6 1.6-1.7 1.2 0 1.6-.3 1-.6-1.9-.7-1.6-2 .9-4.3l2.2-2-3.5.1c-1.9.1-4.2.3-5.1.6zm234.8 3.6c-.5 1.5-.6 3.1-.2 3.4 1.1 1.1 1.8-.5 1.4-3.4l-.4-2.8-.8 2.8zm44.4.2-2.5 1.4 2.6.1c1.4 0 3.4-.7 4.5-1.5 1.9-1.4 1.9-1.4-.1-1.4-1.1 0-3.1.6-4.5 1.4zm-370.5.6c-.4.6-.5 1.3-.2 1.6.7.7 2.7-.6 2.7-1.8 0-1.2-1.7-1.2-2.5.2zm119.9 0c-.3.6-.1 1.6.5 2.2.8.8 1.1.5 1.1-1.1 0-2.4-.5-2.8-1.6-1.1zm188.7 9.9.2 8.5.8-7.5c.4-4.4.4-7.9-.2-8.5-.5-.5-.8 2.3-.8 7.5zm-305.5-3.4c-2.4 2.5-3.3 4.4-2 4.4.7 0 6.4-5.7 6.4-6.4 0-1.3-1.9-.4-4.4 2zm70.4-1.6c0 .5.7.7 1.5.4.8-.4 1.5-.8 1.5-1 0-.2-.7-.4-1.5-.4s-1.5.4-1.5 1zm-21.2 1.2c1.6.8 2.8.8 4.5 0 1.9-.9 1.7-1.1-2.3-1.1s-4.2.2-2.2 1.1zm8.9-.1c.8.8 1.6.8 3 0 1.6-.9 1.4-1-1.1-1.1-2.2 0-2.7.3-1.9 1.1zm5.8 0c-.4.6-.5 1.2-.3 1.4.7.7 11.8.8 12.5.2.3-.4-1.4-.7-4-.7-2.5 0-4.9-.5-5.2-1-.8-1.3-2.2-1.3-3 .1zm248 .9c.3.5.8 1 1.1 1 .2 0 .4-.5.4-1 0-.6-.5-1-1.1-1-.5 0-.7.4-.4 1zm-258 .9c-.4.8 8.3 3.6 9 2.9.2-.2-1.6-1.1-4.1-2-2.4-.8-4.6-1.3-4.9-.9zm25.8-.2c.9.2 2.5.2 3.5 0 .9-.3.1-.5-1.8-.5-1.9 0-2.7.2-1.7.5zm111.1 1.1c-.7.4-.9 2.2-.4 5.2.8 4.7 1.3 4.5 1-.3-.1-1.5.3-2.7.9-2.7 1.3 0 1.3-.1 1.6 6.8.2 5 .1 5.2-1.7 3.6-1.7-1.6-1.8-1.6-1.8.2 0 1.1.5 2.5 1 3 .6.6 1.7 3 2.5 5.5l1.5 4.4-.5-5.3c-.2-3.1 0-5 .5-4.7 1.1.7.1-12.3-1.2-14.8-.9-1.9-1.7-2.1-3.4-.9zm-125.9 1.2c.3.5 1.3 1 2.1 1s1.4-.5 1.4-1c0-.6-.9-1-2.1-1-1.1 0-1.7.4-1.4 1zm230.5 0c-1.2.8-1.1 1 .7 1 1.2 0 2.5-.5 2.8-1 .8-1.3-1.5-1.3-3.5 0zm27.2 2c0 1.9.2 2.7.5 1.7.2-.9.2-2.5 0-3.5-.3-.9-.5-.1-.5 1.8zm-298.8 1.1c-.3.6-.1 1.6.5 2.2.8.8 1.1.8 1.1-.1 0-.8.7-.9 2.7-.1 3 1.1 12.6.2 11.8-1.1-.3-.4-2.5-.5-4.9-.3-2.5.3-5.8.1-7.5-.5-2.1-.7-3.3-.8-3.7-.1zm23.9.6c-2.5 1-1.2 1.8 3 1.8 2.3.1 5 .5 6 .9 1.3.6 1.7.4 1.7-1.3 0-1.9-.6-2.1-4.7-2-2.7 0-5.4.3-6 .6zm14.7.1c0 1.2 2.3 3.2 3.7 3.2 1.8 0 1.6-2.7-.3-3.4-2.1-.8-3.4-.8-3.4.2zm-46.5 1.2c.3.5.8 1 1.1 1 .2 0 .4-.5.4-1 0-.6-.5-1-1.1-1-.5 0-.7.4-.4 1zm181.5 2.5c0 2.2.4 3.4 1 3 .6-.3 1-1.7 1-3s-.4-2.7-1-3c-.6-.4-1 .8-1 3zm114.2-1.5c0 1.4.2 1.9.5 1.2.2-.6.2-1.8 0-2.5-.3-.6-.5-.1-.5 1.3zm-316.2 1.1c0 1.5-.5 1.9-1.5 1.5-2.2-.8-1.9 2.7.5 5.5l1.9 2.4.1-5.8c0-3.1-.2-5.7-.5-5.7s-.5.9-.5 2.1zm302.3-1.4c.9.2 2.3.2 3 0 .6-.3-.1-.5-1.8-.5-1.6 0-2.2.2-1.2.5zm-231.3 3.3c0 .6.7 1 1.5 1s1.5-.2 1.5-.4-.7-.6-1.5-1c-.8-.3-1.5-.1-1.5.4zm17-.1c0 .5 1.4 1.1 3.1 1.5 4.4.8 5.5.8 4.4-.3-1.4-1.2-7.5-2.2-7.5-1.2zm212.5 2.1c-.4.7.8.8 3.7.4 5.7-.9 6.1-1.4 1-1.4-2.2 0-4.4.5-4.7 1zm-191.3 2.5c-1.3 2.8-2.3 3.1-5.1 1.3-1.5-.9-2.8-.9-5.9 0-2.2.7-6.1 1.2-8.8 1.3-3.4 0-4.3.3-2.9.8 1.1.4 7 .6 13 .5 16.7-.2 17.5-.3 17.5-1.5 0-.7-1-.9-2.5-.7-1.5.3-2.5.1-2.4-.6.5-4.2-1.2-4.8-2.9-1.1zm-19.2.5c0 .5.7 1 1.5 1s1.5-.5 1.5-1c0-.6-.7-1-1.5-1s-1.5.4-1.5 1zm4.5 0c-.3.5-.1 1 .4 1 .6 0 1.1-.5 1.1-1 0-.6-.2-1-.4-1-.3 0-.8.4-1.1 1zm108.5 2.2c0 2.1.5 3.8 1 3.8 1.3 0 1.3-4 0-6-.7-1.1-1-.5-1 2.2zm103 .8c0 .5 1.4.7 3.3.3 4.5-.8 4.7-1.3.4-1.3-2 0-3.7.4-3.7 1zm-189.2.7c-3 .8-2 2 1.2 1.5 1.7-.2 3-.8 3-1.3 0-.9-1.3-1-4.2-.2zm-62.8 1.3c-1.1.7-.5 1 2.3 1 2.3 0 3.6-.4 3.2-1-.8-1.3-3.5-1.3-5.5 0zm68.4 10.4c-.1 11.3-1.3 14.3-6.4 16.4l-2.5 1 2.8.1c1.6.1 3.7-.4 4.9-1 1.8-.9 1.9-.8 1.3 1-.4 1.2-.2 2.1.4 2.1.6 0 1-2.1 1-4.8 0-2.6.2-8.5.5-13.2.3-4.7.3-9.3 0-10.3-1.2-4-1.9-1.1-2 8.7zm81.1-7.4c-.3.5-.1 1 .4 1 .6 0 1.1-.5 1.1-1 0-.6-.2-1-.4-1-.3 0-.8.4-1.1 1zm-101.5 3.2c0 .5.9.8 1.9.8 1.1 0 2.1.5 2.3 1.2.6 1.6 10-.2 10.6-2 .3-.9-1.5-1.2-7.2-1-4.2.2-7.6.6-7.6 1zm9.7 1.4c-.3.3-1.2.4-1.9.1-.8-.3-.5-.6.6-.6 1.1-.1 1.7.2 1.3.5zm195.3-1.6c0 .5.5 1 1.1 1 .5 0 .7-.5.4-1-.3-.6-.8-1-1.1-1-.2 0-.4.4-.4 1zm-108 3.1c0 .5-.4.8-.9.4-.6-.3-1.5.3-2 1.4-1.4 2.5-1.4 14.1-.1 14.1.6 0 .7-2.3.4-5.8-.5-4.9-.4-6 1-6.5 1.1-.4 1.6-.1 1.6 1.1 0 .9.5 2.4 1 3.2.7 1.1 1 0 1-3.8 0-2.8-.4-5.2-1-5.2-.5 0-1 .5-1 1.1zm-140.2.6c-2 .5-2.4 2.3-.5 2.3 2.4 0 5.7-1.2 5.7-2.1 0-.9-2.2-1-5.2-.2zm36.1 2.1c3.6 2.9 19.1 3.9 19.1 1.2 0-.4-3.3-1-7.2-1.3-4-.4-8.9-.9-10.8-1.3l-3.5-.6 2.4 2zm236.8.9c-1.1 1-.8 9.3.3 9.3.6 0 1-2.3 1-5 0-5.1-.1-5.5-1.3-4.3zm-215.3 7.6c-.8 2.1.2 3.5 1.6 2.1.5-.5.6-1.5 0-2.4-.8-1.2-1-1.2-1.6.3zm-77.4 1.3c0 1.4 3.6 3.3 6 3.4 2.5 0 2.5 0-.5-2s-5.5-2.6-5.5-1.4zm11 .9c-1 1.2-1 1.5.4 1.5.9 0 1.6-.7 1.6-1.5s-.2-1.5-.4-1.5-.9.7-1.6 1.5zm280.6 4.8c-1 1.5-2.5 2.7-3.2 2.7-.8 0-1.4.7-1.4 1.5 0 2.7 3.9 1.6 5.5-1.6 2.1-4 1.4-6.1-.9-2.6zm5.2-.8c-.4.4-.3 1.7.1 2.9.4 1.1.3 5.4-.2 9.4-.9 6-.8 9 .6 16 1.3 6.5 1.5 9.7.7 12.7-1.3 5.4-1.3 11.5.1 11.5.7 0 .9-1.1.6-2.9-.4-1.6 0-5.4.8-8.3 1.5-6 1-14.1-1.3-17.5-1.2-1.9-1.2-3.5-.2-10.6 1.2-7.9.5-14.9-1.2-13.2zm-134.8 7.4c0 2.3.5 4.1 1 4.1.6 0 1-1.5 1-3.4s-.4-3.8-1-4.1c-.6-.4-1 1-1 3.4zm53.5-2.8c-1 1.5.1 2.2 2.4 1.4 1.2-.3 1.9-1.1 1.6-1.6-.8-1.2-3.2-1.1-4 .2zm74.8 5.5c-.3.8-.3 5.2.1 9.7.4 4.5.7 11.7.8 15.9.1 4.3.5 7.8.9 7.8.3 0 .4-5.7.1-12.8-.3-7-.5-14.8-.4-17.5.1-4.8-.4-5.9-1.5-3.1zm-206.3 5.5c0 .6-.7.9-1.5.5-1.6-.6-2 1.8-.9 4.9.5 1.3 1 1 2.5-1.5 2.1-3.4 2.4-5 .9-5-.5 0-1 .5-1 1.1zm141.1-.2c-1 .7-1 1-.1 1.6.6.4 1.6.3 2.2-.3 1.3-1.3-.4-2.3-2.1-1.3zm-142.8 19c.1 6.1.5 11.1 1 11.1.7 0 1.3-8.8.8-12-.1-.8-.3-3.2-.5-5.2-.1-2.1-.5-4-.8-4.4-.4-.3-.6 4.4-.5 10.5zm139-8.5c.5 1.4 4.1 2 7.4 1.1 3.6-.9 2.1-1.8-3.3-2.1-2.9-.1-4.4.2-4.1 1zm105.3 17.2c-.6 6.1-.3 8.5.8 7.3 1.1-1 1.8-13.9.9-13.9-.6 0-1.3 3-1.7 6.6zm-35.5 16.4c0 3.3.1 3.4 1.1 1.2.8-1.7.8-2.6 0-3.4-.9-.9-1.2-.4-1.1 2.2zm1.5 16.5c.4.8.8 1.5 1 1.5.2 0 .4-.7.4-1.5s-.4-1.5-1-1.5c-.5 0-.7.7-.4 1.5zm3.4.2c0 .4.5 1.5 1 2.3.8 1.3 1 1.3 1-.2 0-.9-.4-2-1-2.3-.5-.3-1-.3-1 .2zm27.7 1.3c-.3 1.3-.1 1.8.5 1.3.6-.3 1.7.2 2.5 1.2 1.5 2.2 1.8.3.3-2.6-1.4-2.5-2.6-2.4-3.3.1zm-30.7 5.7c0 2.8 2.3 7.3 3.8 7.3.7 0 1.2-1.5 1.2-4 0-2.2-.4-4-.9-4s-1.6-.3-2.5-.6c-1.1-.4-1.6 0-1.6 1.3zm3.8 22.3c-1.2 3-1.5 5.8-.7 7.1 1.3 2.2 2 .4 1.7-4.2-.2-2.4-.6-3.7-1-2.9zm-.7 13.6c0 1.1.3 1.4.6.6.3-.7.2-1.6-.1-1.9-.3-.4-.6.2-.5 1.3zm-1.3 5.5c-.2 1.4-.1 3.4.3 4.5.6 1.7.7 1.7 1.4.2.4-1 .3-3-.2-4.5l-1-2.8-.5 2.6zm.2 12.5c0 .8.5 1.2 1 .9.6-.4.8-1.1.5-1.6-.9-1.4-1.5-1.1-1.5.7z"/>
</svg>
