<?xml version="1.0" encoding="utf-8"?>
<svg xmlns="http://www.w3.org/2000/svg" version="1.0" viewBox="0 0 450 285">
	<title>The man lies on his back, feet up, reading the book, his hat lying next to him.</title>
	<path d="M216.8 3.7c.5 2.1.7 2.3 1 .9.2-1 0-2.2-.6-2.8s-.7 0-.4 1.9M209.5 11c-.3.5.3 1 1.5 1s1.8-.5 1.5-1c-.3-.6-1-1-1.5-1s-1.2.4-1.5 1M278.5 15.9c-.3.5-.2 1.7.1 2.6.5 1.3.2 1.5-2.2.9-1.6-.4-4.2-1.3-5.8-2.2-2.7-1.3-3.1-1.3-4.3.4-1.7 2.3-1.6 4.4.1 2.1 1.7-2.2 2.4-2.1 7.7.3 6 2.7 7.3 2.6 6.5-.5-.4-1.4-.4-2.5-.1-2.5 1.2 0 14.4 7 14.9 7.9.4.5.2 1.2-.4 1.6-.5.3-1 .2-1-.4 0-.9-9-4.1-11.4-4.1-2 .1 1.9 1.7 5.6 2.4 2.1.4 4 1 4.2 1.5.6.9-11 .4-21.1-.8-3.5-.4-6.3-.4-6.3 0 0 1.1 6.4 1.8 20.2 2.1 7.1.2 12.8.5 12.8.8s-.4 1.1-.9 1.9c-.8 1.2-1.9 1.2-6.8.3-3.2-.6-9.4-1.3-13.8-1.6s-10.3-.8-13-1.2l-5-.6-1.3 7.3c-3.4 19.9-3.6 20.5-5.7 20.1-1.1-.2-2.4-.8-2.9-1.3-1.2-1.1-10.3-1.2-9.2-.2.4.4 3.5 1.4 6.9 2.3 4.3 1 6.2 2 6.1 3-.1.8-.9 5.7-1.8 10.9-1.9 10.6-1.7 11.1 4.7 11.1 3.4 0 3.7-.3 3.8-2.8.1-1.6.3-2 .6-1 .9 3.5 2.1 1.7 2.7-4.3.4-3.3.9-6.8 1.2-7.7.5-1.5.4-1.5-.6.1-.6.9-1.5 3.6-2 6-.8 3.7-.9 3.5-.5-2.3.5-7.6-.9-4.4-2.1 4.7-.6 5.1-.8 5.4-3.3 5.1-1.7-.2-2.7-1-2.8-2.3-.2-1.1 0-1.4.3-.8.3.7 1.4 1.3 2.5 1.3 1.7 0 1.8-.8 1.6-8.3-.1-5.5.5-11.6 2.1-18.6 1.2-5.7 2.2-10.8 2.1-11.5-.3-4-5.9 22.7-5.9 28.2 0 3.6-1.9 8.6-2 5.2 0-.8-.3-2.6-.6-4-.5-2-.4-2.2.6-1 .9 1.2 1 1.1.5-.7-.7-2.4 4.8-31.3 6.6-34.9.9-1.8 1.7-2.1 5.7-1.6 2.6.2 5.1.8 5.5 1.2.5.4.2 4.3-.7 8.6-.8 4.3-1.3 8.1-1 8.3.5.5.9-1 2.4-8.9.6-3.6 1.5-6.8 1.8-7.2.7-.6 18 .7 18.8 1.4.6.7-1.9 21.8-2.7 21.8-.7 0-.3-5.5 1-14.8 1.1-7.4-.5-6.5-1.8 1l-1 6.3.4-5.8c.5-7.8-.9-7.2-2.3 1-.9 5.7-1 6.1-.9 2 .2-5.4-.8-6.3-1.6-1.5-1.7 9.9-1.9 13.1-.8 12.4.6-.4 1.1-1.9 1.2-3.4.1-2.5.2-2.5.9.6.4 1.8 1 3.6 1.4 3.9.5.6 5.1.7 7.1.2.6-.1 2.7.1 4.8.6 2.9.6 4.5 1.7 6.5 4.7 6.5 9.7 6.5 9.8 5.3 12.4-.6 1.4-1.1 4-1.1 5.9 0 2.7-.4 3.5-1.7 3.5-1.4 0-1.5.2-.4.9s1.1 1.6-.3 5.7c-.9 2.6-2.3 5.5-3.1 6.4-1.4 1.5-1.4 1.8 0 3 .9.7 1.8 1 2.2.6.3-.3.1-.6-.5-.6-1.6 0-1.5-1.7 0-3.4 1.1-1.1 1.6-.3 3.1 4.2 1.6 5.1 1.6 5.7.1 7.3-.9 1-2.1 1.6-2.5 1.3-.5-.3-.6.2-.3 1 .4 1.1-.2 1.9-1.7 2.5-2.1.8-2.7.4-4.6-2.8-1.3-2-2.3-4.6-2.3-5.9 0-1.2-.5-2.2-1.1-2.2s-.9-.9-.6-2c.3-1.2 0-2-.8-2-3.2 0-1.7-9.1 1.7-10.2 1-.4 1-.8 0-2.1-1.2-1.3-1-1.8.7-2.9 3.1-1.9 2.5-2.8-1.6-2.5-4.8.3-6 1.1-7.7 5l-1.4 3.2-.1-3.5c-.1-5.9 2.8-8 11.1-8 3.8 0 4.9-.3 3.8-1-.8-.5-3.7-1-6.3-1-4.1 0-5.3.5-7.9 3-3.7 3.8-5 3.1-1.9-1 2.2-3.1 1.5-3.8-2-2-2.5 1.4-2.4 4.4.3 10.2 3 6.4 5.6 6.2 7.2-.5.6-2.7 2-3.5 3.1-1.8.3.5-.4 3.3-1.5 6.2l-2.1 5.3 2.9 6.5c4.5 10 4.6 11.1 1.2 16.4-3.1 5-5.7 6.4-4.5 2.4.3-1.2 1-3.6 1.4-5.2.4-1.7 1.4-4.1 2-5.4 1.1-1.9 1-2.2 0-1.9-.7.2-2.3 3.3-3.5 6.7-1.3 3.5-3 7.1-3.8 8s-1.8 3.7-2.2 6.1c-.4 2.5-1.1 5-1.5 5.6-1 1.2-3.1 13.2-3.3 18.4 0 1.9-.5 4.1-1 4.8-.5.8-.3 3.2.4 5.7.7 2.4 1 4.9.7 5.7-.3.7-.6.3-.6-1-.1-1.2-.5-2.2-1.1-2.2-.5 0-.7-.7-.3-1.6.4-1.2.2-1.5-.8-1.2-1.8.6-2.4 3.9-.9 4.8.7.4.9 1.3.6 1.9-1.1 1.6-2.6 1.3-2-.4.4-.8.2-1.5-.4-1.5s-.8-.9-.5-2.1c.5-1.9.4-2-1.7-.7-1.8 1-2.4 1-2.7 0-.5-1.4-3.3-1.7-3.3-.3 0 .6.5 1.3 1 1.6 1.2.8 1.3 2.5.1 2.5-.5 0-2.7-1.8-5-4-4.2-4.1-7.1-5.1-7.1-2.5 0 .8.8 1.5 1.7 1.5 2.2 0 9.1 7.4 9.9 10.6.9 3.5 4.1 9.4 4.7 8.8.3-.3.3.3 0 1.5-.4 1.5-.1 2.1 1.1 2.1 2 0 2 .3 0 4.2-1.2 2.4-1.8 2.8-2.5 1.7-1.3-2.2-1.1-2.9.9-2.2 1.2.4 1.4.3.7-.5-.5-.5-1.9-1.2-2.9-1.4-1.3-.2-2.4-2-3.5-5.3-1.8-5.3-7.3-13.5-7.9-11.7-.3 1 2.4 6 3.9 7.2.3.3.9 2.5 1.2 4.9.3 2.5.2 4.1-.1 3.5-.4-.5-2.2-2.3-4.1-3.9-3.9-3.5-3.1-1.3 1.8 4.9 3.1 3.9 4 6.6 2.1 6.6-.6 0-.1 1.8 1 4.1 1.2 2.3 1.9 4.3 1.7 4.5-.9.9-3.6-.9-4.2-2.7-.4-1-1.5-2.4-2.6-2.9-1-.6-1.9-1.7-1.9-2.5 0-2.4-1.9-1.7-2.6.9-.3 1.5.1 3.4 1.1 5 1.4 2 1.4 2.6.4 2.6-1.1 0-1.1.2-.2.8s.7 1.2-.7 2.5c-1.1.9-2 2.6-2 3.7s-.4 2.8-.9 3.8c-.5.9-1.2 2.5-1.5 3.4q-.6 1.8-3.6 1.8c-3 0-3 0-3.1-5.8-.1-3.1-.4-6.8-.8-8.2-.7-2.3-.8-2.2-1.5 1.4-1.3 6.9-1.7 3.1-.7-7.5.5-5.7.8-10.5.6-10.7s-1.1 1.3-2 3.4c-1.1 2.6-1.5 5.7-1.3 9.1.3 2.9.1 5-.4 4.7-1.1-.7-2.8 4-2.8 7.7 0 1.6-.4 2.9-.9 2.9s-.5-1.9 0-4.3c.5-2.3 1.3-7.4 1.8-11.3.4-3.9 1.3-8 2-9.2 1.5-2.7 1.4-5.9-.1-6.5-1-.4-1-.7-.1-1.8 1-1 1.6-.9 3.2.5 2.4 2.2 3.2 6.2 2.1 11-.5 2.2-.5 4.8 0 6 .7 1.7.9 1.8.9.3.1-2 1.7-2.3 2.4-.5.3.7.6.3.6-.9.1-1.7-.3-2.1-1.5-1.6-1.5.5-1.6 0-1-4.3.4-2.7.9-5.7 1.2-6.6.5-1.7-4.6-7.8-6.6-7.8-.5 0-1-.4-1-1 0-.5.7-.7 1.6-.3.9.3 1.5.2 1.2-.3-.2-.5-1-2.4-1.7-4.1-.7-1.8-1.7-3-2.2-2.7s-.6-.1-.3-.9 0-1.8-.6-2.2c-.8-.5-1 .3-.8 2.6.2 2.1.8 3.3 1.6 3.2.6-.2 1.2.2 1.2.7 0 .6-.4 1-.9 1-.6 0-1.1 1.7-1.3 3.8l-.3 3.7-1.3-4.5c-.7-2.5-2.5-8.6-3.9-13.5-1.5-5-2.7-10.7-2.7-12.8 0-2.6-.4-3.6-1.2-3.3-1.5.6-5.2-5.3-6.9-11.2-1.4-4.4-.4-10.2 1.6-10.2.5 0 .9-.5.9-1 0-.6-.8-.5-2 .2-1.1.7-2 1.9-2 2.7s-.3 1.1-.7.8c-1.3-1.4 2.1-5.7 5.4-6.8 2-.6 4.2-2.4 5.4-4.3 1-1.7 1.9-2.7 1.9-2.2s.6.3 1.4-.4c1.7-1.4 1-4-1.1-4-.8 0-1.1-.5-.8-1 .4-.6 1-.8 1.5-.5.4.3 1.1-.5 1.4-1.8.8-3 6.8-9.7 8.7-9.7.8 0 2.4-.7 3.5-1.5 1-.8 3.5-1.5 5.5-1.5 3 0 9.2-2.9 6.4-3-.6 0-1.6.5-2.3 1.2-.6.6-1.5.9-1.9.5-1.5-1.6 2.1-3.1 8.9-3.7 6.3-.5 7-.8 4.8-1.7-1.7-.7-3-.7-4.2.1-1.3.8-2.3.8-3.8-.2-1.7-1.1-2.7-.9-6.6 1.3-2.6 1.4-4.9 2.4-5.2 2.1-.2-.3-1.3.6-2.4 1.9-2.3 2.9-4 3.3-3.2.7.3-.9-.4-.4-1.7 1.1-1.4 1.8-2.4 2.5-2.9 1.7-.4-.7-2.1.5-4.6 3.1-2.1 2.4-5.4 5.8-7.1 7.7-1.8 1.9-3.1 3.7-2.9 4.1.3.4 0 1.3-.5 2.1-.7 1.2-1.1 1.2-1.7.2-.7-1-1.1-1-2.2.3s-1 1.4.5.9c1.7-.7 1.7-.5-.1 2.5l-1.9 3.2-.9-3c-.8-2.7-.5-3.7 2.1-6.9 1.6-2 3.3-4.8 3.6-6.2.4-1.4 2-3.9 3.7-5.7 3.5-3.7 3.8-4.7 1-3.8-1.5.5-1.8.3-1.4-.9.4-1.1 1.1-1.3 2.2-.7 1.8.9 6.9.7 8-.3.3-.3-.3-.6-1.4-.6-1.8 0-1.8-.1.2-2 1.4-1.5 3.9-2.2 8.6-2.7 4.9-.4 6.5-.9 6.1-1.9-.7-1.8 3.6-2.8 9.8-2.2 2.9.3 4.9.1 4.9-.5 0-1.6-18.2-.2-19.4 1.5-1 1.4-12.6 4.1-12.6 3 0-.2 2.3-3.8 5-7.9 2.8-4.1 5-8.1 5-8.8s1.4-4.1 3.1-7.5c3.6-7.2 3.3-9.5-1.1-8.6-2.3.4-3 .2-3-1 0-2-3-6.5-4-5.9-.5.3 0 2.3 1.1 4.4 2.2 4.7 1.7 10.1-1.1 10.1-1.3 0-1.9-1.1-2.5-4.6-.3-2.6-1-4.2-1.5-3.8-.4.5-.4 3.1 0 5.9.6 3.7.4 6.4-.8 10.2-.8 2.9-1.9 5.3-2.4 5.3-1.1 0-1-5.4.1-6.6 1.4-1.4 2.5-5.8 1.3-5-.5.3-1.2-.8-1.5-2.7-.3-1.7-.8-4.2-1.2-5.5-.6-1.9-.3-2.4 1.4-2.9 1.1-.3 2.1-.9 2.1-1.4s-.7-.6-1.5-.3c-.9.4-1.5 0-1.5-.8 0-2.1 2.2-4.6 4.5-5.1 1.5-.4 1.4-.5-.7-.6-1.8-.1-3.6.9-5.5 2.9-1.6 1.7-4 3.1-5.5 3.2-1.6.1-2.8.7-2.8 1.3 0 .7 1.4.9 3.5.7 2.1-.3 3.5 0 3.5.7 0 .6-.9 1.1-2.1 1.1-1.1 0-3.1.8-4.3 1.7-2.2 1.7-2.2 1.9-.6 3.3 2.3 2.1 4.2 8.3 3.4 11.4-1 4-2.1 3.1-2.8-2.4-.6-4.6-2-6.9-3.3-5.6-.7.6 2.5 11.2 4.1 13.8.6 1 1.9 1.8 2.8 1.8 1 0 1.8.5 1.8 1.1s-.9.8-2 .4-2-.2-2 .4.6 1.1 1.4 1.1 1.6.7 2 1.5c.3.8 1.2 1.5 2.1 1.5s1.8-.7 2.1-1.5c.4-.8 1.2-1.5 1.9-1.5 1.9 0 5-5.1 3.6-5.9-1.7-1.1 1.7-9.9 4.5-11.8 1.3-.8 2.4-2.2 2.4-2.9 0-.8.5-1.4 1-1.4.6 0 1-.6 1-1.4s.7-1.6 1.5-2c.8-.3 1.5-.1 1.5.4 0 1.8-2.3 5.9-3 5.5-.5-.3-1 .2-1.4 1-.3.8-.1 1.5.4 1.5 1.4 0-5.6 13.1-9 16.8-1.9 2.1-3 4.4-3 6.2 0 1.6-.4 3.2-1 3.5-.5.3-1 0-1-.7 0-1-1.1-1.2-3.7-1-6.8.6-8.5-.7-8.9-6.9-1-14.5-1.1-20.5-.2-22.2.5-1.1.5-1.7-.1-1.7-3.2 0-4.3 13-1.6 19.5 1.8 4.1 1.3 7-1.6 8.5-1.2.7-1.9 2.1-1.9 4.2 0 6.6-1.2 1.5-1.6-6.7-.5-10-2.5-14.9-8.2-21-4.2-4.4-9.5-6.8-15.7-7.1-2.2-.1-6.1-.5-8.6-.9-3.7-.6-4.9-.4-6.4 1.1-1.1 1.1-1.3 2-.6 2.2.6.2 1.8-.4 2.7-1.2 1.9-1.9 2.5-2 5.8-.3 1.4.8 2.2 1.7 1.8 2.2-.4.4.2.5 1.3.2 5.8-1.6 8.2-1.7 10-.4 1.8 1.4 1.8 1.5-.3 2.1-1.2.4-2.2 1.2-2.2 1.7 0 1.3 1.4 1.1 2.9-.4 1-1 1.6-.8 2.8 1 .9 1.3 2.1 2.3 2.8 2.3s1.6.8 1.9 1.7c.6 1.5.8 1.5 1.7.3.8-1.3 1-1.3 1.9 0 1.2 1.8 1.3 5 .2 5-.4 0-1.9-.8-3.2-1.7-1.8-1.2-2.2-1.3-1.4-.3.6.8 1.5 2.6 1.9 3.8.6 2.1.4 2.3-1.5 1.7-2-.6-2.2-.5-1.5 2.6.6 2.5.4 3.1-.6 2.7s-1.4.4-1.4 2.7c0 3.8 1.9 3.1 2.9-1.1.8-2.9 2.9-2.7 3.4.2.7 4.1 1.5 5 2.2 2.4.5-2 1.9 8 2.4 17.5.1.5-.4.9-1 .8-.7-.1-1.4.7-1.7 1.7-.4 1.6 0 2 1.9 2s2.4.5 2.3 2.2-.2 1.9-.6.5c-.5-2-3.9-2.3-4.6-.5-.3.7-.6-.1-.6-1.7-.1-1.7-.8-4.8-1.6-7-1.2-3.5-1.4-3.6-1.5-1.3 0 1.4-.3 3.4-.7 4.4-.4 1.2-.3 1.5.6 1 1.6-1.1.3 4.3-1.7 6.6-1.6 1.9-.9 7.3.8 6.3 1.6-1 1.2 1.5-.5 3.1-1.1 1.1-1.5 1.2-1.5.3 0-1-.3-1-1.1-.2-.7.7-1.3 6.3-1.5 14.5-.2 7.3-.5 14.4-.8 15.8-.2 1.4-.7 5-1.1 8-.6 5.4-.6 5.5.9 2.3.8-1.8 1.4-4.5 1.4-6.1-.1-1.6.7-4 1.6-5.3l1.7-2.4-.7 2.7c-.4 1.7-.2 2.8.4 2.8.7 0 1-3.9.9-10.8 0-5.9-.3-8.8-.5-6.4-.2 2.3-.7 4-1.3 3.7-1.5-1-1.1-9.1.6-10.5.8-.7 1.5-2.2 1.5-3.4 0-2.2 1.7-4.6 3.2-4.6.4 0 .8 4.4.8 9.9 0 10.8.7 16.1 2.2 16.1.6 0 .7-1.5.3-3.8-.3-2-.8-6.9-1-10.7-.3-6.7-.2-6.7.5-1.5l.7 5.5.1-7.2c.1-3.9-.2-7.5-.8-7.8-.5-.3-1-1.1-1-1.6 0-.6.5-.7 1-.4.6.3 1-.1 1-.9 0-.9-.5-1.6-1.1-1.6-.5 0-.7-.5-.4-1 .4-.6-.6-1-2.3-1-2.6 0-2.9-.3-2.4-2.6.4-2 .9-2.4 2.6-2 1.1.3 2.4.6 2.9.6.4 0 .7 1.2.7 2.7.1 2.4.2 2.6 1.1 1 2.2-3.7 3.1-.5 2.4 8-.7 8.2-.6 8.4 1.3 7.4s1.9-.9.7 2.7c-.8 2.2-1.1 5.7-.8 8.4.4 3.3.2 4.8-.6 4.8-.6 0-1.1.5-1.1 1.1 0 .5.4.8.9.5 1.1-.7 2.3 2.2 1.5 3.5-.3.5-1 .7-1.5.4-.5-.4-.9.3-.9 1.4 0 1.2.4 2.1 1 2.1.5 0 1.4 1.5 2 3.2.9 2.9.9 2.6.4-2-.4-4.7-.3-5.3 1.3-5 1.5.3 1.7 1.5 1.8 9 0 5 .5 9.2 1.1 9.8.9.9.9 0 .3-3.2-1.5-8-.8-9.4 1.1-2.1 1.2 4.8 1.9 11 2 18 .2 11.8-1 33.6-1.8 32.9-.2-.3-.4-5.4-.4-11.3-.1-9.6-.1-10.1-.7-4.3-.4 3.6-.6 9.3-.4 12.7.3 4 0 6.3-.7 6.3-.5 0-1-1.5-1.1-3.3 0-3-.1-3-1-.9-.5 1.3-.6 3.6-.3 5 .4 1.5.3 2.4-.1 2-.5-.4-1.1-2.5-1.5-4.5-.7-3.3-.8-3-.9 2.6l-.1 6.4 3.3-.7c3.1-.6 3.1-.6 1.1.9-1.7 1.1-3.9 1.3-9.5.9-4.1-.4-7.7-1.1-8.1-1.8-.5-.7-.8-.3-.9.9 0 1.9-.1 1.8-1.1-.2-1.3-2.6-3.1-3.1-2.1-.6.4 1.1.3 1.4-.5.9-.7-.4-1.2-1.3-1.2-2.1 0-.7-.7-1.5-1.5-1.9-.8-.3-1.5-1.2-1.5-2s-.6-2.7-1.4-4.3c-2.3-4.5-4.1-16.9-2.9-19.6.6-1.2 1.6-6 2.3-10.7s1.7-10 2.3-11.8c.9-2.7.9-3.5-.3-4.3-1.3-.7-1.3-1-.1-1.8q1.35-.9.3-1.5c-.6-.4-.9-1.3-.5-2.1.3-.8 0-1.5-.6-1.5s-1.1-.5-1.1-1.1.7-.9 1.5-.5c.8.3 1.5.1 1.5-.4 0-.6-.7-1-1.5-1s-1.5-.5-1.5-1c0-.6.5-.9 1.2-.8.7.2 1.3-.7 1.4-2 .1-2.1 0-2.1-1.5-.8-1.6 1.4-1.7 1.3-1.5-1.2.1-1.5.5-5.7.8-9.5.6-7.6 1-8.8 3.1-8 1.8.6 2.1-2.3.3-3-1-.4-.9-.8.2-1.6 1.1-.7 1.5-2.9 1.4-8 0-3.8.3-6.8.8-6.5.4.3.8.1.8-.5 0-.5-.5-1.1-1.2-1.3-.8-.3-.7-1.1.5-2.8.9-1.4 1.7-3.4 1.7-4.5s.7-2.9 1.5-3.9c.8-1.1 1.5-2.6 1.5-3.3 0-1.2-2.6.9-11.6 9.3-2.2 2.1-3.7 2.8-4.6 2.2-1-.7-.9-1.1.5-2.2 2.7-2.1 2.1-3.6-1.3-3-1.9.4-3 .2-3-.5 0-.6-.5-1.1-1.1-1.1s-.9.7-.5 1.5c.6 1.7-.9 2.1-1.9.5-1-1.7 1.6-4.1 3.6-3.5 1.1.4 1.9.2 1.9-.3 0-.6 1-1.2 2.3-1.6 1.2-.3 3.8-3 6-6.2 3.8-5.8 4.6-8.1 2.5-6.8-.8.5-.9 0-.5-1.7.4-1.3.7-2.7.7-3.2 0-1.6 2-.6 2 1 0 1.5.2 1.6 1 .3.5-.8.7-2.2.4-3.1-.2-.9 0-3.5.5-5.8.5-2.4.5-4.1 0-4.1s-.9.5-.9 1.1-.9.8-2.1.4c-1.7-.6-2-.3-1.8 1.7.2 1.2 0 2.9-.5 3.7s-.4 1.6.4 2.1c.9.5.9.9.1 1.4-.6.4-1.1.3-1.1-.2s-1.8-.6-4.2-.2c-4.3.8-7.5-.2-12.1-3.9-2.9-2.4-3.1-.4-.2 2.3 2 1.9 2.3 2.6 1.2 2.6-.8 0-2.5-1.2-3.6-2.6-2.4-3-1.4-5.4 2.2-5.4 3 0 9.7-2.2 9.7-3.2 0-.4-1.9-.5-4.2-.1-2.4.4-5.3.7-6.4.8-1.4 0-2 .5-1.6 1.4.3.8-.9.4-3-1l-3.6-2.3 2.6-3.3c1.9-2.3 3-2.9 3.8-2.2.9.7 1.7.3 2.8-1.3.9-1.2 1.6-2.8 1.6-3.4 0-.7 1.2-1.5 2.8-2 1.7-.5 2.1-.9 1.1-1.1-2.7-.6-7.2 1.6-6.5 3.2.3.8 0 1.5-.6 1.5-.7 0-2.2 1-3.6 2.2l-2.4 2.3.7-3c.6-2.9.6-2.9-.9-1.1-.9 1.1-1.6 2.5-1.6 3.2 0 2.1-1.9 2.6-3.5 1-.8-.8-1.5-2.4-1.5-3.6 0-3.4-2.5-1.8-2.8 1.9-.2 1.8-1 3.5-1.9 3.8-1.7.7-3.5-1.6-2.5-3.2.3-.5.7-1.7.9-2.5.1-.8.9-2 1.8-2.5.9-.6 2.4-1.5 3.3-2.2 1.6-1.1 1.6-1.2 0-1.3-1 0-3.4 1.4-5.4 3.2-3.3 2.9-3.5 3.5-3 6.9l.6 3.8-9.4 5.6c-12.5 7.5-23.3 11.6-31.9 12.3-5.5.4-7.1.2-8.7-1.3s-2.2-1.6-3.5-.5c-4.4 3.7-8.8-9.1-8.5-25 .1-9-.1-10.9-1.7-12.7-1.9-2.2-8.2-4.7-9.2-3.7-.3.4-.1.8.4 1 3.6 1.4 7.7 4.6 6.8 5.5-.6.6-.8 2.2-.4 3.7l.5 2.7.7-3c.4-1.9.7-.1.7 5 0 5.6-.3 7.1-.8 5-.6-2.4-.8-1.8-.9 3.2q-.15 6.15 1.2 6.6c.9.3.8 1.2-.6 3.5-.9 1.6-1.7 4.4-1.7 6.1s-1.4 5.7-3 8.9c-1.7 3.3-3 6.4-3 7 0 1.5-1.5 2.3-4.9 2.7-2.4.3-2.8.1-2.4-1.5.4-1.5.9-1.7 2.3-1 1.1.6 2.1.6 2.4.1 1.1-1.7-3.8-2.1-5.6-.4-1.7 1.5-1.8 1.5-1.8-.1 0-.9-.7-3.1-1.6-4.8-1.3-2.5-1.4-3.2-.2-3.9 1.1-.7 1-1.1-.2-1.9-.8-.5-1-1-.5-1 1.9 0 3.8 1.8 3.1 2.9-.4.6-.2 1.1.3 1.1.6 0 1.1-.5 1.1-1.1 0-.8.5-.7 1.5.1 1.3 1.1 1.3 1.5.3 2.1s-.8 1.2.7 2.3c1.1.9 2.3 1.6 2.8 1.6 1.3 0 .8-1.8-.7-2.3-.9-.3-1.2-1.4-.9-2.5.3-1.2-.1-2.2-1.1-2.5-.9-.4-1.6-1.2-1.6-1.8 0-.7 1.1-.2 2.5 1.1s2.3 3 2.1 3.7c-.4 1.1-.1 1.1 1.4.3 2-1 1.9-1.2-.9-4.3-1.7-1.7-2.8-3.4-2.5-3.7s1.6.7 2.8 2.2c2.6 3.3 3.6 3.5 3.6.9 0-1.1-.9-2.3-2-2.6s-2-1.1-2-1.6c0-1.2 1.7-1.2 2.5.1 1.1 1.9 2.3 1 3.5-2.4.6-1.9 1.6-3.7 2.3-4 .9-.4.8-.8-.2-1.2-2.1-1-5.1-4.3-5.1-5.6 0-.6.9-.3 2.1.8 2.1 1.9 2.1 1.9 1.7-1.1-.2-1.7-.8-2.9-1.5-2.8-.7.2-1.5-.9-1.8-2.5-.4-1.5-1-3.5-1.6-4.4-1.5-2.8-1.2-4.3.6-2.8 1.2 1 1.5.9 1.5-.8 0-1.5-.5-1.9-2-1.5-1.3.3-2.8-.5-4.8-2.7l-3-3.2-2.2 2.4c-3.7 4-6 9.4-7.1 17.4-1.3 9.4-.5 16.1 2.8 23.7 2.6 5.8 2.6 5.8.6 7.6-1.4 1.3-2.2 3.8-2.7 8.2-.5 5.4-.3 7 1.6 10.9l2.3 4.5 10-.3c8.6-.3 10.7-.8 15-3.1 10.3-5.6 15.9-7 31.3-7.4 7.8-.2 14.2 0 14.2.3 0 .4-.9 1.5-2 2.5-3.5 3.2-2.3 15.5 1.5 15.5 2 0 1.9 1.9-.3 4.4-3.2 3.6-9.9 20.8-11.2 28.5-.7 4.2-.9 9.6-.5 12.5 1.5 11.1.6 27.6-2.2 39.1-1.4 6-3.2 11.7-3.9 12.6-.8.8-1.4 2.2-1.4 3s-.9 2.9-2 4.7-2 4-2 5c0 1.3-2.8 3.2-9.2 6.5-10.7 5.3-15.7 9.7-13.3 11.7.8.7 1.5 1.9 1.5 2.7 0 1.1-.4 1.1-2 .3-2.1-1.1-2.8-6.4-1-7.5 1.3-.8 1.3-6.2 0-7-.5-.3-1 0-1 .7 0 1-.3.9-1-.2-.8-1.3-1-1.3-1.5.1-.3.8-.5 2.4-.4 3.4.6 5.6-.2 9.4-1.8 9.8-1.4.4-1.3.5.4.6 1.2 0 4.2 1 6.8 2.1s5.7 2 7 2c2.6 0 8 1.8 7.4 2.4-.4.4-7.6-.7-12.9-2l-2.5-.6 2.7 2.1c1.9 1.6 4.1 2.1 8.3 2.1 3.1 0 6.8.6 8.3 1.3 1.5.8 5.9 1.4 9.8 1.5 6 .2 7.4-.1 9-1.9 1.6-1.7 1.6-2.2.4-3-1.3-.8-1.3-1 0-1.9.8-.5 2.1-1 2.9-1 .7 0 3-1.4 5.1-3 2.1-1.7 4.1-3 4.4-3 1.3 0 .5 2.3-1.1 3.6-1.7 1.3-1.7 1.3.1 1.4 1 0 3.1-1.1 4.8-2.5 4.4-3.7 6.6-3.2 3.1.8-1.7 1.9-1.7 1.9.7 1.2 3.5-1.1 5-2.4 5-4.7 0-1.6-.5-1.9-2.5-1.4-3.5.9-3.1-1 .5-2.9 3.4-1.8 3.8-3 1.3-4-1.4-.5-.7-1.2 3.2-3.1 2.8-1.3 5.6-2.4 6.3-2.4.6 0 1.1-.6 1-1.3-.2-.8 1-1.1 4.5-.9 4.5.4 6.6-1.1 3-2.1-1.1-.3-.7-.5 1-.6 2.8-.1 3.6-1.5 1.5-2.5-.7-.3.2-.4 2-.3 2.8.3 3.1.1 2.6-1.5s-.2-1.8 2-1.2c3.2.8 3.5-1.1.4-2.1-1.6-.4-1.9-.8-1-1.2.8-.3 2.5 0 3.8.8 2.9 1.5 4.5.4 1.9-1.5-1.7-1.2-1.7-1.3.3-1.8 2.4-.7 9.6.9 13.4 2.8 3.4 1.8 4.3 1.8 6.3-.3 2-2 17.5-3.2 17.5-1.3 0 .6-.7 1.3-1.5 1.7-.9.3-1.5 1.3-1.4 2.2.3 2.8-.1 4.1-1.1 4.1-.5 0-1-.6-1-1.3 0-1-1.5-1.3-5.7-1.2-4.6.2-6 .7-7.1 2.4-.8 1.1-2.4 2.2-3.6 2.2-1.7.1-1.8.2-.3.6 1 .3 1.6 1 1.4 1.6-.2.7 0 2 .5 3 .9 1.8 1.1 1.8 3.4-.4 2.9-2.7 3.3-5 .4-2.4-1.1 1-2.3 1.5-2.6 1.2-1.1-1.1 2.5-5.7 4.4-5.7 1 0 2.3-.5 3-1.2.9-.9 1.5-.8 2.7.8 2.3 3 1.8 4.1-2.7 6.6-2.4 1.3-4.4 3.2-4.6 4.2-.4 1.8-.1 1.7 2.6-.5 8-6.3 13.1-8.5 20.7-9 2.4-.1 2.6-.3.8-.6-1.3-.2-2.3-.7-2.3-.9 0-1.3 3.1-3.4 4.9-3.4 2.4 0 2.7 1 .9 2.8-.9.9-.8 1.2.4 1.2.8 0 2.2-.7 2.9-1.6 1.1-1.4 1-1.8-.6-3.1-1.2-.9-3.2-1.2-5.1-1-2.2.4-3.6 0-4.8-1.4-2-2.4-2-2.9-.1-2.9.8 0 1.5.4 1.5 1 0 1.5 3.6 1.2 5-.5.9-1.1 1.7-1.2 3-.5 1 .6 2.7.9 3.7.8 6-.5 6.8.9 2.1 3.5-3.1 1.8-3.1 1.9-1.3 3 1.1.6 2.6 1.7 3.4 2.4 2 2.1 2.7.6.7-1.6-2.2-2.4-1.3-4.1 2-4.1 2.1 0 2.4.4 1.9 2-.8 2.4 1.3 2.7 2.2.4.4-1 0-2.2-.9-2.8-.8-.6-1.3-1.6-1.1-2.2.2-.7-1.7-1.7-4.7-2.4-2.7-.7-5-1.6-5-2 0-1.1 5.6-2.3 6.9-1.6 2.4 1.5 11.4 2.5 13.2 1.6 1.4-.8 2.7-.6 4.8.5 1.7.8 3.2 1.5 3.6 1.5 1.2 0 .4-2.4-1.2-3.6s-1.6-1.3-.2-1.4c.9 0 2.2.6 2.8 1.4.6.7 2.5 1.6 4.1 2q3 .6 3 2.4c0 1 .5 2.3 1 2.8.8.8.6 1.5-.5 2.4-.8.7-1.5 2-1.5 2.8 0 1.2.4 1.1 1.6-.6.8-1.2 1.9-2.2 2.5-2.2 1.5 0 1 2.8-.6 3.8-1.4.7-1.4 1.1-.1 3.7.9 1.6 1.3 3.9 1 5.1s0 2.5.6 2.9c.8.5 1.1-.3 1-2.6-.3-4.9-.1-5.9 1-5.9.6 0 1 2.8 1 6.5 0 7.2 1.7 9 2.2 2.3.2-3.5.8-4.5 3.1-5.6 1.5-.7 2.7-2 2.7-2.9 0-1.3-.3-1.3-1.5-.3-1.3 1.1-1.4.8-.9-1.8.3-1.6.1-3.9-.6-5.1-1.5-3-.1-4.5 5.5-6.1 2.4-.7 5.9-2.3 7.6-3.6 4-2.9 4.5-2.5 2.5 1.5-1.4 2.5-1.4 3-.2 2.5.8-.3 1.7-1.2 2-2 .6-1.6 2.6-1.9 2.6-.3 0 .6-.7 1.7-1.5 2.6-2.3 2.2-1.5 2.4 3 .8 3.1-1 3.6-1.5 2.3-2-2.8-1.1-2.1-2.5 2-4.2 2-.8 4.9-2.4 6.5-3.5 2.6-1.9 7.5-2.2 6.9-.4-.5 1.3 1.9 2.6 5 2.6 2.7 0 2.8.1 2.7 5.5-.2 5.7-.6 6.4-2.7 4.3-.7-.7-1.2-.9-1.2-.4 0 .4.7 1.4 1.5 2.3 1.4 1.4 1.8 1.4 3.5-.2 1.1-1 3.7-2.1 5.7-2.4s3.8-1.2 4.1-1.9c.5-1.6-2.5-1.6-3.1 0-.4 1-.7 1-1.7.1-1.1-1-1.1-1.5 0-2.8.7-.8 1.8-1.5 2.4-1.5.7 0 2.9-1.6 5.1-3.5 2.6-2.4 4.4-3.3 5.4-2.9.9.4 3.6.9 6.1 1 2.5.2 3.8.1 3-.2-2.1-.8-6.4-6.4-5.5-7.2.4-.4 1-.1 1.2.6.3.7 1.4 1.7 2.6 2.3 1.9 1 1.8.7-.5-1.8-2.8-3-3.6-5.3-1.8-5.3.6 0 1 .4 1 .9s1.4 2.3 3 4.1c3.1 3.3 4.1 3 1.5-.4-2.8-3.7-1.2-6 2.5-3.6 1.3.9 1.3 1.1.1 1.9s-1.2 1.2-.2 2.5c.8.9 1.8 1.6 2.4 1.6.7 0 .7-.4-.1-1.2-1-1-.8-1.6.9-2.9 3.5-2.6 1.5-4.2-4.4-3.6-2.7.2-6.5.1-8.3-.3-2.3-.5-3.4-.4-3.5.4 0 .6-.6 0-1.2-1.3-.9-1.9-.9-2.5.1-2.9.7-.2 1.8-1 2.5-1.6.6-.7 2.2-1.1 3.6-.9 1.5.2 2.1.1 1.4-.3-1.5-.7-.5-3.4 1.3-3.4 1.3 0 1.8 1.2 1.5 3.2-.2 1.3 2.7.9 3.1-.4.6-1.8 2.8.1 2.8 2.5 0 1.2 1.1 3.2 2.4 4.4 2.9 2.8 5.1 3 4.1.5-1.6-3.7-1.7-5.2-.5-5.2.9 0 1.1-1.2.7-4-.3-2.2-.1-4 .4-4 1.4 0 2.9 3.7 2.2 5.6-.5 1.3-.3 1.5.7.9s1.2-.4.7.9c-.4 1-.3 1.5.3 1.1 1.5-.9 1.2-5.2-.5-6.9s-2-3.6-.5-3.6c.6 0 1-.4 1-.8s-2.3-.7-5.2-.5c-3.7.1-5.6.7-6.5 1.9-.7 1-1.3 1.2-1.3.6 0-1.5-3.6-1.6-4.5-.2-.8 1.3-2.5 1.3-2.5 0 0-.5 1.2-1.6 2.8-2.4 2.5-1.4 2.5-1.5.5-1.6-2.9 0-5.3 2.5-5.3 5.6 0 1.9-.5 2.5-1.7 2.2-1.3-.2-1.9-1.4-2.1-4s-.9-3.7-2.3-4.1c-2.2-.6-2.6.8-.4 1.7 1.9.7 2 4.6.1 4.6-.8 0-1.6-.7-2-1.5-.3-.8-1.2-1.2-2-.9-1.9.7-4.2-3.4-2.7-4.9.8-.8 1.1-.6 1.1.6 0 .9.5 1.7 1 1.7.6 0 1-.7 1-1.5s.8-1.5 1.8-1.5c.9 0 2.4-.5 3.2-1.1 1.1-.8.3-.9-3-.4-4.6.6-4.6-.2.2-2.3 2-.8 2.8-.8 3 0 .3.8 1.5.6 3.8-.5 1.8-.9 4.3-1.7 5.5-1.7s4.1-.6 6.3-1.4 5.1-1.2 6.4-.9c1.8.4 2 .3.8-.6s-1.1-1.1 1-1.2c1.4 0 3.9-.2 5.5-.4 1.7-.3 4.4 0 6 .4 3.9 1.2 28.6 2.3 26 1.2-1.8-.7-1.6-.9 1.3-1.6 3.8-.8 9.2 1 9.2 3.1 0 1.4 3 3.4 5 3.4.6 0 .8-.5.4-1.1-.3-.6 0-1.5.7-2 1.2-.8 1.1-1.2-.3-2.3-3.5-2.6-1.9-4 7.8-7.1 2.8-.8 5.8-1.3 6.8-.9.9.4 2.4 0 3.4-.9.9-.8 3.2-1.8 5-2 4.2-.7 5.4-1.7 2.1-1.8-2.2 0-2.2-.1-.4-.8 1.8-.8 1.6-1-1.5-1.9-1.9-.6-2.7-1.1-1.7-1.1 1-.1 1.6-.5 1.3-1s-1.4-.7-2.5-.4c-2.5.6-3.3-2.8-2.2-9.8.6-3.6.5-5.8-.2-6.7-.8-1.1-1.2-1-2 .3-.6 1.1-.5 2.1.2 2.8 1.5 1.5 1.4 4.9-.3 7.3-.8 1-1.2 2.9-1 4 .3 1.2.1 2.5-.5 2.8-.6.4-1.1.2-1.1-.4s-.5-.8-1-.5c-.8.5-.8 1.1-.1 1.9.8.9.2 2-1.9 4.1-1.7 1.6-3 2.3-3 1.6s-.8-1.1-1.7-.9c-1 .2-1.8 1.2-1.8 2.2 0 2-4.8 4-7.2 3.1-2.1-.7-2.7 1.7-.8 3.2 1.7 1.2 1.7 1.3.2 1.3-1 0-2.6-.5-3.6-1.2-1.5-.9-3.1-.9-7.4.2-5.3 1.2-8.2 1.1-12-.5-1.3-.6-1.6-.4-1.1 1 .6 1.5.2 1.7-3.7 1.1-8.8-1.4-9.9-1.8-12.5-4.9-1.4-1.8-2.4-2.4-2-1.4.3.9.2 1.7-.3 1.7-2.7 0-8.5-12.5-7.9-16.9.2-1.7.1-3.1-.4-3.1-.4 0-.8-1.1-.8-2.5s-.4-2.5-1-2.5c-.5 0-1.6-1.5-2.4-3.3l-1.4-3.2-.1 5c-.1 5.9-1.4 8.6-3.2 6.8-.9-.9-.9-1.6-.2-2.5 1.4-1.7 1-10.5-.5-14.1-.7-1.6-1.2-3.3-1.2-3.8s-.9-1.8-2.1-3c-1.4-1.4-1.8-2.4-1.1-3.1.6-.6.7-1.9.2-3.2-.5-1.1-1.2-4.2-1.5-6.7-.4-2.9-1.4-5.4-2.6-6.5s-2.7-3.1-3.5-4.6c-.8-1.6-1.9-2.8-2.5-2.8s-3.6-2.3-6.6-5c-3-2.8-5.8-5-6.3-5-1.1 0-4.1 4.2-3.5 4.9.3.2 1.4-.4 2.4-1.3 1.9-1.7 2.1-1.6 6.3 2.7 2.5 2.4 5.4 4.8 6.6 5.1 1.7.6 2.1 1.3 1.6 3.2-.4 1.5-.2 2.4.5 2.4.8 0 .7 1.1-.3 3.4-1.6 3.8-1.9 10.6-.5 10.6.5 0 .9.4.9 1 0 2.3-2.1.7-2.6-2-.8-3.8-1.6-3.8-3.2 0-.8 1.6-2 3-2.8 3s-1.4.5-1.4 1.1c0 .5.5.7 1.1.3.7-.4 1-.3.7.2-.2.5-1.2 2.7-2.2 4.9-1.1 2.2-2.1 3.4-2.3 2.7-.3-.7.1-2 .9-2.9 1.1-1.5 1.1-1.6-.4-1-2.2.8-2.2.4-.2-3.4 2.1-4.1 1.4-4.6-1.1-.8-2.2 3.1-3.5 3.7-3.5 1.5 0-.8-.6-2.1-1.3-2.8-2.1-2.1-4.7-7.9-4.7-10.5 0-3.3-2.4-7.7-5.3-9.6-3.5-2.3-6.7-9.8-6.7-15.7 0-4.6.2-5 2.4-5 2.7 0 4.4 1.6 2.4 2.2-.7.3-.3.7.9 1 1.9.5 2 .2 1.8-3.1-.1-2 0-2.6.2-1.3.4 1.9 5 5 5.8 4 .1-.2.7-1.1 1.2-2.2.9-1.6 1.1-1.6 1.6-.2.4.9.2 1.6-.3 1.6-.6 0-1 .3-1 .8 0 .9 7.9 3.4 8.9 2.7.9-.5 1.8-6.3 2.6-16 .4-5.5 2.8-18 4.5-23.5 1.1-3.8 1.4-8.7.4-7.7S334.1 74 334 78.5c0 4-1.4 11.2-2.3 12.1-.2.2-1.5 0-2.8-.5s-1.8-1-1.1-1c.6-.1 1.3-1.3 1.3-2.9.1-2.4.2-2.3.9.8l.6 3.5.7-3.5c.3-1.9.9-6.2 1.2-9.5.7-6.7 3-19.2 5.1-27.5.8-3 1.4-6.3 1.4-7.4 0-2.7-1.7-.9-2.3 2.4-.3 1.9-.5 1.6-.6-1.2-.1-3.1-.4-3.5-2.1-3.1-2 .5-2.8 2.3-1 2.3.6 0 1 1.6 1 3.5s-.4 3.5-.8 3.5c-.5 0-.6-1.5-.4-3.3.6-4.2-.7-2.9-1.9 2-1.9 7.6-3.9 19.9-3.9 23.5 0 2-.5 4-1 4.3-1.1.7-1.1.1 1-15 .7-5 1.7-9.4 2.1-10 .5-.5.9-3.6.8-7-.1-5.8-.1-5.8-.9-2-.5 2.2-1.8 10.3-3 18-2.8 18.1-3 18.8-2.6 8 .5-10-.7-7.2-2.1 5-.5 4.7-.8 5.9-1.1 3.7-.2-1.8-.9-3.2-1.6-3.2-1.3 0-.9-4.6 1-13.4.4-1.9.3-2.6-.5-2.2-.7.5-1.1-.2-1.1-1.6 0-1.5.3-1.9.8-1 .6.9 1.4.7 3-.8l2.2-2.1.1 3.3c.1 3 .3 2.8 1.4-1.7 1.3-4.8 2-15.3 1-14.4-.2.3-.9 3-1.4 6l-.9 5.4-.1-5.7c-.1-6.7.5-8.8 2.8-8.9 1.2 0 1.1-.2-.4-.8-2.7-1.1-3.4.4-4.2 8.4-.9 9.6-2.3 7.9-1.6-2 .6-8 .5-8.5-1.4-8.5-1.1 0-4.1-.3-6.7-.6l-4.6-.7.5 2.9c.3 1.6-.1 6-.9 9.9-.8 3.8-1.5 5.8-1.5 4.4-.1-1.5.4-5 .9-8 1.2-6.1.4-7.4-3.3-6-2.2.9-2.7 1.7-2.6 4.3l.1 3.3.9-3.4c1.2-4 2.4-3.4 1.4.8-.3 1.6-1.4 3.2-2.3 3.4-1.5.4-1.5.5.1.6 2.1.1 1.3 2.1-.9 2.1-.9 0-1.4-1-1.4-2.8 0-5 1.3-10.2 2.4-10.1 2.3.3 3.6-.1 3.6-1.2 0-.6-1.2-.9-2.7-.7-3 .3-4 2.7-4.7 11.3-.7 7.6-1.6 10.5-3.5 10.5-1.5 0-1.6-.9-.9-8.8.9-9.6 2-13.2 4.2-13.2.7 0 1.9-.6 2.5-1.4.9-1 2.1-1.1 5.7-.3 3.3.8 5.4.7 7.8-.1 1.8-.7 4.1-1.2 5-1.2 1.5 0 1.6.3.6 1.5-1 1.3-.9 1.5 1.1 1.5 1.3-.1 4.9.2 7.9.5 3.8.4 4.9.2 3.5-.4-1.7-.8-1.6-1 1.2-1 2.5-.1 3.2.3 3.5 2.1.3 1.9.6 1.7 1.7-1.5.7-2.1 1.1-4 .9-4.2-.1-.1-2.2-.6-4.5-1-2.9-.4-4.3-.3-4.3.4 0 .6 1.3 1.1 2.9 1.1 1.7 0 3.2.4 3.5.9.9 1.4-9.4 1.8-11.3.4-1-.6-6.7-1.3-13.2-1.5-10.8-.3-11.7-.5-14-2.8-1.3-1.4-3.7-3.2-5.4-3.9-1.6-.8-5.3-2.4-8.2-3.7s-5.5-1.9-5.8-1.5m41.4 19.8c.6.5-2.9 21.1-4 23.8l-.8 2v-2c0-1.1.4-4.9 1-8.5 1.9-12.2 2-12.7.8-10.7-.6 1.1-1.3 4.6-1.6 7.8-.6 6.2-2.2 9.1-2.4 4.2 0-2.5-.1-2.6-1-.8-.6 1.5-.8.6-.6-3.3.1-2.8-.1-5.2-.5-5.2-.5 0-.8-.7-.8-1.6s.5-1.2 1.1-.8c.9.5 1-.3.5-3l-.7-3.6 4.3.6c2.4.4 4.5.9 4.7 1.1m-18.8 17c-.9 1.6-1 1.4-1.1-1.2 0-2.1.3-2.6 1.1-1.8s.8 1.6 0 3m-2.5.9c-.4.9-.9 1.5-1.1 1.2-.3-.3-.3-1.3.1-2.2s.9-1.5 1.1-1.2c.3.3.3 1.3-.1 2.2M288 53c0 .5-.5 1-1.1 1-.5 0-.7-.5-.4-1 .3-.6.8-1 1.1-1 .2 0 .4.4.4 1m32.5 0c.3.5.1 1-.4 1-.6 0-1.1-.5-1.1-1 0-.6.2-1 .4-1 .3 0 .8.4 1.1 1m13.3 7c-.6 4.1-1.5 7.9-2.1 8.5q-.9 1.05-.3-1.8c.3-1.5.9-4.8 1.2-7.5.6-5.4 1.3-7.7 1.9-7.1.2.3-.1 3.8-.7 7.9M309 54.5c0 .8-.4 1.5-1 1.5-.5 0-.7-.7-.4-1.5.4-.8.8-1.5 1-1.5s.4.7.4 1.5m22 6.7c-1.7 10.5-2 11.2-1.5 3.3.5-7.4 1.4-11.9 2.2-11.1.3.3 0 3.8-.7 7.8M64.3 57.4c.9.7 1.7 2.1 1.7 3s.5 1.6 1 1.6c.6 0 1 .5 1 1.1 0 .5-.4.8-.9.4-.5-.3-1.2-.1-1.6.5-.3.6.2 1.3 1.2 1.7 2.3.8 3.3 2.3 3.2 4.8 0 1.1-.3 1.4-.6.7-.2-.6-.8-1-1.3-.7-.4.3-1.1-.7-1.4-2-.4-1.6-1.1-2.3-1.8-1.9-.7.5-.9 0-.6-1.4.4-1.2.2-2.2-.3-2.2s-1.8-.9-2.9-2c-1.7-1.7-1.8-2.3-.8-3.5 1.6-1.8 1.9-1.8 4.1-.1M223 59.6c1.2 3.5.8 12.1-.6 15.8C221 79 220 76.6 220 70c0-3.9-.5-7.9-1.2-8.9-.6-1-.8-2.6-.5-3.5 1.1-2.8 3.5-1.8 4.7 2m90-1.6c0 1.7-.2 1.9-1.4.8-1.4-1.3-1.2-2.8.5-2.8.5 0 .9.9.9 2M59.8 62.4c-.2.7 1.8 3.7 4.5 6.5 4.6 5.1 5.9 7.7 3.5 6.9-.7-.3-1.8-1.4-2.3-2.5-1.5-3-7.5-8.4-8.6-7.7-1.3.7-1.1-.3.3-2.6 1.5-2.3 3-2.7 2.6-.6m133 .5c.3.8-.1 1.2-.9.9-.7-.2-1.5-1-1.7-1.7-.3-.8.1-1.2.9-.9.7.2 1.5 1 1.7 1.7m117.9.3c-.3.8-.6.5-.6-.6-.1-1.1.2-1.7.5-1.3.3.3.4 1.2.1 1.9m7 1c-.3.8-.6.5-.6-.6-.1-1.1.2-1.7.5-1.3.3.3.4 1.2.1 1.9m-4.7 1.3c0 1.4-.4 2.5-.9 2.5-.4 0-.6-1.1-.3-2.5.2-1.4.6-2.5.8-2.5s.4 1.1.4 2.5m1.7 2.7c-.3.7-.5.2-.5-1.2s.2-1.9.5-1.3c.2.7.2 1.9 0 2.5m2 3c-.3.7-.5.2-.5-1.2s.2-1.9.5-1.3c.2.7.2 1.9 0 2.5M58 75.4c-.1 2-3-2.7-3-4.8 0-1.8.3-1.6 1.5.8.8 1.5 1.5 3.3 1.5 4m4.6-1.9c-.2.7.1 1.8.7 2.5q1.5 1.5-.6.6c-1-.3-2.1-.6-2.4-.6s0-.6.6-1.4c.8-1 .9-1.6.1-2.1-.5-.3-1-1.1-1-1.7s.6-.6 1.5.2c.9.7 1.4 1.9 1.1 2.5m193.1.2c-.3 1-.5.4-.5-1.2 0-1.7.2-2.4.5-1.8.2.7.2 2.1 0 3m76-1.5c-.3.8-.6.5-.6-.6-.1-1.1.2-1.7.5-1.3.3.3.4 1.2.1 1.9m-3 3c-.3.7-.5.2-.5-1.2s.2-1.9.5-1.3c.2.7.2 1.9 0 2.5m-173.5 3c1.4 1.8 3.1 5.1 3.8 7.3s1.6 4.4 2.1 4.9c.5.6.9 1.7.9 2.5 0 2.5-2.9-2-3.6-5.7-.3-1.7-1.1-3.2-1.6-3.2-1.3 0-.3 5.2 1.7 9.3.8 1.7 1.5 4.6 1.4 6.6 0 2.9-.5 2-2.4-4.8-2.6-9.3-4.9-13.1-3.1-5.3.6 2.8 1.4 5.4 1.9 5.8.4.4.6 2.8.6 5.3-.1 2.8-.4 3.6-.6 2.1-.9-4.9-3.3-13.3-3.9-13.9-.4-.3-.4 1.6-.1 4.4l.6 5-2.1-5.8c-2.3-6.8-3.7-6.9-1.8-.2.7 2.5 1 4.8.7 5.1-.3.4-1-.9-1.6-2.7-.8-2.8-.9-2.2-.6 3.6.3 5.7.3 6.2-.4 3-.5-2.2-1.4-5.4-2-7l-1.1-3 .4 2.8c.4 3.4-1.5 9.5-2.9 9-.6-.2-.9 1.7-.8 4.4l.2 4.8-1-5.5c-.6-3-.9-7.9-.6-10.8.2-2.8 0-5.2-.5-5.2-.4 0-.8 5-.8 11.2 0 6.1-.3 10.8-.7 10.4s-.6-3.7-.5-7.4-.2-7.4-.8-8.2c-.7-1.1-1 .4-1 5.5 0 3.8-.4 7.5-.8 8.2-.4.6-.6-3.2-.5-8.5.1-9.3.1-9.4-.6-2.7-.4 3.9-1 7.5-1.4 8.1-.3.6-2 .9-3.7.6-2.6-.4-3-.9-3.1-3.6-.2-3-.2-3-.6-.3-.7 4.2-2.3 2.2-2.5-3.1-.1-4.6-.1-4.6-.8 1.3-.4 3.3-.7 5-.8 3.7-.3-3.1-2-2.8-2.5.5-.4 2.6-.4 2.6-.6-.5-.1-3.3-1.5-4.3-2.4-1.8-.3.8-.1 1.7.6 2 .7.2.2.5-1 .5-1.2.1-2.4-.5-2.6-1.2-.3-.6-.6.1-.7 1.8-.1 2.9-.2 2.9-1.2.7-.6-1.2-1.6-2.2-2.2-2.2-1.8 0-4.8 4-4.2 5.6.3.8.1 1.4-.4 1.4-.6 0-1-1.4-1-3 0-2.8-.2-3-2-2s-2 .8-1.6-1.2c.2-1.3.7-3.1 1.1-4.1.5-1.2.2-1.7-.9-1.7-1.2 0-1.6 1-1.6 3.7 0 5.4-.7 3.6-1.3-3.5-.4-5.5-.3-6.3 1-5.8s1.4.4.4-.8c-.8-.9-.8-1.6-.2-2 .5-.4 1.2-.2 1.6.3.3.6 1.3.7 2.1.4.9-.3 2 0 2.5.8.7 1.1.9 1 .9-.5 0-1.4.5-1.7 2.5-1.2 1.4.4 2.5.2 2.5-.3 0-.6.6-.8 1.4-.5s1.7.1 2.1-.5c.3-.6 1.5-1.1 2.6-1.1 1 0 1.9-.4 1.9-1s.9-.6 2.6 0c3.4 1.3 5.3 1.3 3.4-.1-1.1-.8-.7-.9 1.8-.5 3.7.6 4.2-.1 1-1.4-2.2-.8-2.1-.9.7-1 2.3 0 2.7-.3 1.5-1-1.3-.8-1.2-1 .3-1 .9 0 1.7-.4 1.7-.9 0-1.7 5-2.1 8.2-.8 5.1 2.1 6.5 1 3.2-2.4-1.5-1.6-2.3-2.9-1.7-2.9.5 0 1.8.9 2.7 1.9 2.3 2.5 6 3.5 5.2 1.4-.4-1.1-.2-1.3.9-.9 2.7 1 1.6-1.2-1.7-3.3C145 75 144 74 144.6 74c.5 0 1.9.7 3 1.5 3.1 2.3 5.1 1.9 2.8-.6-1.9-2.2-1.9-2.2.2-1.1 1.1.6 3.2 2.6 4.6 4.4m4 1.3c.9 1.7.7 1.6-1.5-.4-1.5-1.3-2.4-2.8-2-3.4.6-.9 1.3-.1 3.5 3.8m42.8-1c0 3.4-.1 3.4-1.8 1.7-3.2-3.2-3.5-5.2-.7-5.2 2.2 0 2.5.4 2.5 3.5m128.4.9c-.3 1.5-.8 2.5-1.1 2.3-.2-.3-.1-1.7.3-3.1.3-1.5.8-2.5 1.1-2.3.2.3.1 1.7-.3 3.1M73 79c0 .5.3 1.7.6 2.7.4 1.4.1 1.3-1.5-.6-2.5-2.7-2.7-4.3-.6-3.5.8.4 1.5 1 1.5 1.4m-13 2.5c0 .5-.5.3-1-.5s-1-2-1-2.5c0-.6.5-.3 1 .5s1 1.9 1 2.5m9.4-1.9c.4 1 .1 1.4-.6 1.2-1.5-.5-2.3-2.8-1-2.8.5 0 1.3.7 1.6 1.6m117.9-.1c-.3.9-.8 1.4-1 1.1-.3-.3-.2-.9.2-1.5.9-1.6 1.5-1.3.8.4m130.7.7c0 1.8-.2 2-.9.8-.6-.8-.7-1.8-.5-2.2.9-1.4 1.4-.9 1.4 1.4M64 80c.8.5 1.1 1 .5 1-.5 0-1.7-.5-2.5-1s-1-1-.5-1c.6 0 1.7.5 2.5 1m75.6.5c1 .8 1.5 1.4.9 1.4-.5 0-1.9-.6-2.9-1.4-1.1-.8-1.5-1.5-1-1.5.6 0 1.9.7 3 1.5m187.3 4.9c-.9.8-1 .7-.5-.7.3-1 .7-2.8.7-4 .2-1.6.3-1.4.6.7.3 1.6-.1 3.4-.8 4M71 84.1c0 1.4-1.6 1.1-2.9-.5-1-1.2-.8-1.3.8-.9 1.2.3 2.1.9 2.1 1.4m91 1.4c0 .5-.5.3-1-.5s-1-2-1-2.5c0-.6.5-.3 1 .5s1 1.9 1 2.5m160.7-1.3c-.3.8-.6.5-.6-.6-.1-1.1.2-1.7.5-1.3.3.3.4 1.2.1 1.9M64.5 84c.3.5-.1 1-1.1 1-1.3 0-1.4.3-.4 1.5 1.5 1.8.7 1.9-2.1.4-2-1-2-1.1-.2-2.4 2.2-1.7 3-1.8 3.8-.5m257.1 2c.8 0 1.2.4.9 1-1.3 2.1-3.5 1-3.4-1.8.1-1.6.3-2 .6-1 .2 1 1.1 1.8 1.9 1.8M77.7 91.7c-.3 1-.5.4-.5-1.2 0-1.7.2-2.4.5-1.8.2.7.2 2.1 0 3M181 89c1.4 0 .6 6.8-.9 8.2-1.2 1.1-1.3 1-.8-.5.8-2.1-.6-2.2-2.3-.2-.7.8-1.7 1.2-2.2.9-.6-.4-.5-.9.2-1.4.7-.4 1.4-1.8 1.5-3.1s.3-3 .4-3.8c0-.8.7-1.1 1.7-.7.9.3 2 .6 2.4.6m38.9 4.8c.3.1-.7 1.4-2.1 2.8l-2.5 2.6-2.9-3.1c-1.6-1.7-3.6-3.8-4.4-4.8-1.3-1.5-1.3-1.6.3-1 .9.3 1.7.2 1.7-.3 0-.8 7.4 2.1 9.9 3.8M89 94.4c0 2.2-1.3 5.6-2 5.6-.5 0-.6-.9-.3-1.9.3-1.1 0-2.8-.6-3.8-.9-1.6-1.1-1.4-1.1 1.2-.1 2.9-.2 2.9-1.1.7-.5-1.3-.7-2.8-.3-3.3.3-.5 0-.9-.5-.9-.6 0-1.1-.4-1.1-1 0-.5 1.6-.2 3.5.7s3.5 2.1 3.5 2.7m84.3-2.3c-.6.6-.9 1.8-.6 2.5.7 1.8-1.1 1.8-2.6 0-1-1.1-.7-1.7 1-3 2.4-1.7 4-1.3 2.2.5M94 96.2c0 1.1-.5 2.9-1.1 4-.8 1.5-.8 2.7 0 4.4.6 1.3.6 2.4.2 2.4-.5 0-1.2.8-1.4 1.7-.3 1-.5-1.6-.5-5.7s-.1-8-.2-8.5c-.5-2.1.1-2.7 1.5-1.5.8.7 1.5 2.1 1.5 3.2m110.9 8.8c-.1 4.2-.1 4.3-1 1.5-.5-1.6-1.1-5.7-1.4-9l-.5-6 1.5 4.5c.8 2.5 1.4 6.5 1.4 9M81 94c0 .5-.2 1-.4 1-.3 0-.8-.5-1.1-1-.3-.6-.1-1 .4-1 .6 0 1.1.4 1.1 1m-8 7.9c-1.7 3.4-3.7 6.4-4.5 6.8-.8.3-1.5 1.2-1.5 1.9 0 1.2-.4 1.2-2.1.4-1.1-.7-2.3-.9-2.7-.6-.7.8 2.8 3.5 4.6 3.6.6 0 1.2 1.2 1.2 2.8 0 1.5.5 3.3 1.1 3.9.8.8.1 1-2.3.8-1.8-.2-4.1-.3-5-.4-1.1-.1-1.8-.9-1.8-2s-.4-2.2-.9-2.5c-2.5-1.6 3.9-9.6 7.5-9.6 2 0 4.4-2.4 4.4-4.4 0-.8.5-1.8 1.1-2.1.5-.4 1.5-1.8 2-3.2s1.2-2.3 1.5-2-.9 3.3-2.6 6.6m89.7-3.2c-.3 1-.5.4-.5-1.2 0-1.7.2-2.4.5-1.8.2.7.2 2.1 0 3m45.4-1.5c0 1.3.3 1.7.6 1 1.1-2.7 2.1-.9 2 3.7l-.1 4.9-2.3-4.7c-2.5-5-2.8-7.1-1.3-7.1.6 0 1 1 1.1 2.2m-36.1 2c0 1.3-2.3.5-2.8-1-.2-.7.2-1 1.2-.6.9.3 1.6 1.1 1.6 1.6m48.4-.7c-.4.8-1.3 1.5-2.1 1.5-1.3 0-1.3-.3-.3-1.5.7-.8 1.6-1.5 2.1-1.5s.6.7.3 1.5M81.3 101c.3 1.1.1 2.3-.4 2.6s-.9-.6-.9-2c0-3.1.6-3.4 1.3-.6m2.9 2.7c-1 2.8-1 2.8-1.1-1.2-.1-2.8.2-3.6 1-2.8s.8 1.9.1 4m66.8 0c-.1 3.8-.3 4.4-1.1 3-.9-1.6-.4-7.7.7-7.7.2 0 .4 2.1.4 4.7m2.7 0c-.3 1-.5.2-.5-1.7s.2-2.7.5-1.8c.2 1 .2 2.6 0 3.5m21.7-1c-3 2.2-3.9 1.5-1.3-1.3 1.5-1.6 2.5-2.1 2.8-1.3.2.7-.4 1.8-1.5 2.6m56.8-1.5c-.6.6-1.5.8-1.9.4s-.1-1.1.7-1.6c1.9-1.2 2.7-.3 1.2 1.2m-16.2.7c1.3 2.5 1.3 4.1 0 2.1-.8-1.2-1-1-1 1-.1 2.8-2.6 6.7-3.6 5.7-.4-.4-.2-1.2.3-1.9 1.4-1.8 2.2-6.8 1.1-6.8-.5 0-.6-.5-.3-1 1-1.6 2.3-1.2 3.5.9m-70 .5c0 .8-.4 1.8-1 2.1-.5.3-1-.3-1-1.4 0-1.2.5-2.1 1-2.1.6 0 1 .6 1 1.4m-59.3 4.3c-.3 1-.5.4-.5-1.2 0-1.7.2-2.4.5-1.8.2.7.2 2.1 0 3m142.3-1.8c-1.2 2.4-2.9 3.5-3.8 2.6-.4-.4.4-1.5 1.7-2.6 2.9-2.4 3.4-2.4 2.1 0m-21.3 3.3c-.3.8-.6.5-.6-.6-.1-1.1.2-1.7.5-1.3.3.3.4 1.2.1 1.9m-100 1c-.3.8-.6.5-.6-.6-.1-1.1.2-1.7.5-1.3.3.3.4 1.2.1 1.9m8.1 0c-.6 1.8-2.8 2.1-2.8.4 0-.9.7-1.6 1.6-1.6s1.4.5 1.2 1.2m8.2 3.8c0 1.3-.1 1.3-1 0-.5-.8-1-2.2-1-3 0-1.3.1-1.3 1 0 .5.8 1 2.2 1 3m19.7-.8c-.3.7-.5.2-.5-1.2s.2-1.9.5-1.3c.2.7.2 1.9 0 2.5m42.9-.5c-1 1-1.9-.5-1-1.8.6-1.1.8-1.1 1.2 0 .2.7.1 1.5-.2 1.8m39.7 1.6c.7.2.2.2-1 0-1.9-.3-2.3.1-2.3 2.2 0 1.7-.9 2.9-3 4-3.5 1.8-4 .5-.9-2.6 1.1-1.1 1.8-2.3 1.6-2.5-.3-.3.5-1.5 1.7-2.7 1.8-1.9 2.1-2 2.4-.5.2.9.9 1.9 1.5 2.1M79 110.4c0 .2-.7 1.7-1.5 3.2-1.5 2.9-2.2 1.3-.9-2 .5-1.4 2.4-2.3 2.4-1.2m83.7 2.8c-.3.7-.5.2-.5-1.2s.2-1.9.5-1.3c.2.7.2 1.9 0 2.5m155.3 1c0 1-.9 3.8-2 6-3 6.2-3.4 14.7-.9 18.4 3.7 5.5 6.9 9.7 6.9 9 0-1.2-2.2-4.9-5-8.6l-2.7-3.5 1.6-6.3c1.7-6.8 3.8-8.7 3.3-3.1-.2 2.7-.1 3.1.8 1.9.9-1.1 1 .2.5 5.5-.5 6.9-.5 6.9 1 3.6.8-1.8 1.5-4 1.5-4.7 0-.8.5-1.4 1-1.4.6 0 1 1.3 1 2.9s.3 3.7.7 4.7c.6 1.7.7 1.6 1.3-.1.5-1.5 1-1.2 2.8 1.9 2.1 3.5 1.8 4.8-.5 2.5-1.2-1.2-3.3-.4-3.3 1.2 0 .5.6.9 1.4.9s1.6.7 2 1.5c.7 1.9 2.6 2 2.6 0s2.7-.8 3.3 1.6c.4 1.4 1.4 1.9 4.2 1.9 2 0 3.4-.3 3.1-.8-.8-1.4 2.3-4.5 3.9-3.8 1.5.5 1.5.9-.2 3.6-.9 1.6-2.4 3.1-3.3 3.2-3.1.3-7.5-.4-8.5-1.3-1.2-1.2-5.5-1.2-5.5.1 0 .5.4 1 1 1 2.3 0 8.1 6.4 9.2 10.3 1.1 3.8 1.2 3.9 1.6 1.5.2-1.5-.4-4.1-1.3-5.8-1.7-3.2-1.5-4.7.4-3.5.6.3 1.1 1.4 1.1 2.4 0 .9 1.4 2.7 3 3.9 2.8 2.1 4.2 6.2 2 6.2-.5 0-1-.8-1-1.8 0-2.2-.9-3.4-2.1-2.7-.4.3-.1 1.9.8 3.6 1.7 3.4 1.1 4.8-1.2 2.9-1.3-1.1-1.4-1-.9.4.3.9 1 1.6 1.6 1.6.5 0 .7.9.3 1.9-.3 1.1-.1 2.2.4 2.5.6.4 1.3-.9 1.7-2.9.6-3.4 2-5.3 3-4.2 1 1-1.7 8.8-3.2 9.4-.8.3-2.3-.2-3.3-1.1-1.8-1.7-4.1-2.1-4.1-.8 0 .4 1.1 1.6 2.5 2.6 2.7 2.1 3.2 3.6 1.2 3.6-1.4 0-7.7-6.3-7.7-7.7 0-.5-1.1-1.3-2.5-2-1.4-.6-2.5-.7-2.5-.2s.7 1.2 1.5 1.6c1.4.5 5 6.9 4.7 8.4-.1.4.8.5 1.8.2 2.5-.7 2.6.9.3 2.9-3.8 3.2-4.3 3.1-12-4.8-4.2-4.2-7.9-7.2-8.1-6.6-.1.5 2.2 3.6 5.2 6.8 3.1 3.1 5.4 5.9 5.1 6.2-.2.2-2-.5-3.9-1.6-2-1.2-3.6-1.6-3.8-1s-1.7.5-4-.5c-3-1.3-3.9-2.3-4.8-5.7-.6-2.3-1-5.1-1-6.3.4-4.6-.1-6.6-2.6-10.3-1.5-2.1-3.3-6.4-4-9.4s-1.7-5.6-2.4-5.8c-.7-.3-.7-.8-.2-1.5s.6-2.1.1-3.2c-.7-1.9-.8-1.9-.8 0-.1 3.3-1.7.3-3-5.7-.7-3.1-1.8-5.9-2.4-6.2-.7-.3-.6-.5.3-.5 4.8.3 5.2 0 2.4-2.6-2.9-2.7-2.6-4.8.2-2.4 1.3 1.1 1.8 1.1 2.1.1.3-.6 1.1-1.2 1.9-1.2 1.9 0 10.4-7.9 10.4-9.6 0-.8.5-1.4 1-1.4 3.2 0-3.7 9.8-8.2 11.7-3.8 1.6-3.2 2.8.6 1.3 3.7-1.4 4.6-1.3 4.6.6 0 .8.5 1.2 1 .9.6-.3 1-1.8 1-3.3s.9-4 2-5.7c1.3-1.9 1.7-3.8 1.3-5.5-.6-2.2-.5-2.4 1-1.1 1 .7 1.7 2.2 1.7 3.3m-244 0c-.1 2.6-.3 3-1 1.6-.6-.9-.7-2.3-.4-3.2.9-2.5 1.4-1.9 1.4 1.6m45.7-1c-.3.8-.6.5-.6-.6-.1-1.1.2-1.7.5-1.3.3.3.4 1.2.1 1.9m190.1-.4c.5 1.5-7 9.2-8.9 9.2-.8 0-2-1.2-2.7-2.8-1.1-2.3-1-2.9.5-3.9 1.5-1.2 4.4-1.7 8.1-1.6.8.1 1.1-.5.8-1.4-.4-.9-.1-1.3.6-1.1.6.2 1.4 1 1.6 1.6m-152.4.4c.3.7.7 2.6 1 4.3.5 2.7.4 2.8-.6.8-1-2.1-3.6-3.8-4.5-2.9-.2.2.3 2.8 1.1 5.7.9 3 1.2 5.7.7 6.2s-1.1-1-1.5-3.5c-.9-5.8-2.6-8.5-2.6-4.1 0 2.5-.4 3.3-1.7 3.2-1.1 0-1.3-.3-.6-.6.8-.3.1-1.5-2-3.5-2.6-2.4-2.8-2.9-1.2-2.6 1.1.2 3.8-.6 6-1.9 4.8-2.6 5.4-2.7 5.9-1.1m50.1-.2c.3.5.1 1-.4 1-.6 0-1.1-.5-1.1-1 0-.6.2-1 .4-1 .3 0 .8.4 1.1 1m142.2 5.3c.8 2.3.9 4.5.4 5.9-.8 2-1 1.8-1.6-2-.5-2.5-1.3-4.2-2.1-4.2-1.6 0-1.6-.2-.8-2.5 1-2.5 2.8-1.2 4.1 2.8m-210.8-1.7c1.7.4 3.1 1.1 3.1 1.6s-.4.6-1 .3c-2-1.2-1 1.3 1.7 4.1 1.5 1.6 2.6 3.1 2.6 3.4-.3 1.3 1.5 2.8 3.9 3.2 2.5.5 2.7.3 2.2-2.6-.4-2.4-.3-2.8.5-1.6 1.5 2.1 1.4 5.2-.4 7.6-.8 1.2-1.2 2.4-.8 2.7.3.4 0 1.3-.7 2.2-1 1.2-1 1.8 0 3s1 1.9.2 2.7c-1.5 1.5-2.6.4-4.3-4.7l-1.4-4-.5 3.9c-.5 3.6-.6 3.8-1.9 2.2-1-1.2-1.1-2-.4-2.4.5-.4 1.5-2.1 2.1-3.7.6-1.7 1.1-2.4 1.1-1.8.1.7.8 1.3 1.6 1.3 2 0 1.9-1-.2-2.6-2.9-2.2-4.3-1.6-4.3 1.6 0 2.1-.5 3-1.6 3-1.2 0-1.5-.7-1.2-2.5.3-1.4.1-2.5-.4-2.5-1.1 0-.6 6.4.6 9.2.7 1.5.4 1.5-2.8.6-3.6-1.1-3.6-1.2-1.6-3 1.3-1.2 2-3 1.9-5.1-.1-2.3-.3-2.6-.6-1-.2 1.3-.9 2.3-1.4 2.3s-.9.7-.9 1.5-.5 1.5-1.1 1.5c-.7 0-.9-1-.5-2.6.4-1.5.2-3.2-.5-4-1.4-1.7-5.3-1.9-4.3-.2.4.6.3.8-.3.5-.6-.4-1-2.3-.9-4.4.1-2.9.5-3.9 2.1-4.2 2-.3 3.5-1.8 3.5-3.5 0-.6-.7-.1-1.5 1-1.1 1.5-1.4 1.6-1.5.3q0-5.25 9.9-3.3m44.5.3c.3.5-.1 1.1-.9 1.5-.9.3-1.5 0-1.5-.9 0-1.6 1.6-2 2.4-.6m-8.1 7.3c-.4 6.8-1.3 7.5-1.3 1.1 0-4 .5-6.3 1.4-6.3.1 0 0 2.3-.1 5.2m-9.3-3.8c0 .3-.4.8-1 1.1-.5.3-1 .1-1-.4 0-.6.5-1.1 1-1.1.6 0 1 .2 1 .4m-103.9 3.7c.8 1.5.6 1.9-.9 1.9-1 0-2.4-1.1-3-2.4-.9-2.1-.8-2.3.9-1.9 1.1.3 2.4 1.4 3 2.4m227.9-.7c0 .7 1.1 3.5 2.5 6.2 4.8 9.3 6.9 22 4.3 26.7-.8 1.6-.8 2.2.1 2.5 1.5.5 1.4 2.5-.4 4.8-1.4 1.8-1.5 1.7-1-1.1.3-1.7.2-2.3-.1-1.5-.4.8-1.1 2.3-1.6 3.4-.7 1.3-.7 1.6.2 1.1.8-.5 1.1-.1.8 1.1-.2 1.1-.9 1.8-1.6 1.7-.6-.2-1.7.7-2.3 1.9-1 1.8-.9 2 .6 1.5 1.1-.5 1.5-.3 1.2.5-.2.7-1 1.2-1.6 1-.6-.1-2.1.8-3.2 1.9-2.4 2.4-2.8 1.2 3.9 14.9 1.7 3.6 3.4 7.4 3.7 8.6.7 2.8-3.3 11.7-5 11-.7-.2-2.1.4-3.1 1.5s-2.8 1.9-4 1.7c-2.5-.3-7.4 2.1-7.4 3.6 0 1.2 2.3 3.3 5.8 5.4 2.2 1.2 2.7.6 1.6-2.2-.3-.9-1.5-1.6-2.6-1.6-1.3 0-1.8-.6-1.6-1.7.6-3.2 4.1-2 6.2 1.9 1.1 2.1 2.3 3.8 2.8 3.8 1.2 0 1-1.8-.2-2.5-.8-.5-.8-1.1 0-2 .8-1 .7-1.4-.2-1.8-.7-.2-1-.7-.7-1.1.9-1 5.9 3.8 5.9 5.5s-5 4.9-7.7 4.9c-1 0-3.4 1.8-5.3 4-2.8 3.3-4 4-6 3.5-2.3-.5-2.3-.4-.7.8.9.8 1.7 2.3 1.7 3.3-.1 1.8-.1 1.8-1.4.1-.7-.9-2.1-1.7-3-1.7s-1.6-.7-1.6-1.5.4-1.5 1-1.5c.5 0 .7-.7.4-1.5-.5-1.2-.2-1.4 1.2-.8 1.6.6 1.7.5.6-.9-.8-.9-.9-1.9-.4-2.2.6-.3 1.5.1 2.2.9s1.6 1.5 2.1 1.5c1.6 0 1-2-1.1-3.7-1.1-1-2-2.2-2-2.8-.1-2.1-3.8-5.5-5.4-4.9-1.7.7-2.2-1.1-.6-2.1 2-1.2 4.9.7 6.2 4.1.6 1.8 1.6 3.4 2 3.4 1.1 0 1-1.8-.3-4.1-.7-1.5-.7-2.4 0-3.3.6-.8.9-2 .5-2.9-.7-1.8 3.7-10.6 6.5-12.9 2.1-1.8 3-6.5 1.1-5.3-.5.3-1 1.3-1 2.1s-.4 1.4-.9 1.4c-1.5 0-8.1 11.2-8.2 14v2.5l-1-2.5c-.6-1.4-.7-5.7-.4-10 .8-9.2 1.3-11 2.9-11 2.8 0 3.8-2.6 2.5-6.8-.8-2.9-.8-4.5-.1-5.8 1-1.7 1.1-1.7 1.2.6.1 1.4 1 4.1 2.1 6s1.8 2.8 1.5 1.9c-.2-1-1-3.6-1.7-5.8-1-3.3-1-5.9-.1-11.9.6-4.2 1.4-13.6 1.8-20.7.3-7.2.9-13.5 1.4-14 .4-.6 1.3-3.5 1.9-6.5 1.1-5.2 2.6-7.4 4.3-6.4.4.3.8 1.1.8 1.8m-119 1.2c0 .8-.5 1.2-1 .9-.6-.4-.8-1.1-.5-1.6.9-1.4 1.5-1.1 1.5.7m-23.2 1.9c-.3.3-.9-.2-1.2-1.2-.6-1.4-.5-1.5.5-.6.7.7 1 1.5.7 1.8m35.2 6.2-1.9 3.8.2-5c.4-6.4 1.8-9.1 2.8-5.2.5 1.8.1 3.9-1.1 6.4m28.4-7.1c.3.8.2 1.2-.4.9s-1-1-1-1.6c0-1.4.7-1.1 1.4.7M294 127c0 .5-.2 1-.4 1-.3 0-.8-.5-1.1-1-.3-.6-.1-1 .4-1 .6 0 1.1.4 1.1 1m-131.6 1.1c-.3.6-.2 1.4.4 1.8 1.1.7-1.4 7.1-2.8 7.1-1.3 0-.5-4.5 1-5.7 1-.8 1.1-1.2.3-1.3-1.4 0-.6-3 .9-3 .5 0 .6.5.2 1.1m14.2 3.4c-.7 2.7-2.6 3.4-2.6 1 0-.8.5-1.5 1-1.5.6 0 1-1 1.1-2.3 0-1.2.3-1.6.6-.9s.2 2.4-.1 3.7m-19.6 2.4c-.6 2.7-1.9 5.6-2.8 6.3-1.4 1.1-1.5 1-.9-1.2.4-1.4.7-3.4.7-4.5 0-2 3.1-6.8 3.8-6 .3.2-.1 2.6-.8 5.4m184.3-3.2c-.5 1.2-.2 1.5 1 1 2.1-.8 2.2.3.2 2.9-1.3 1.6-1.4 1.6-.9.1.6-1.6-1-2.5-1.9-1-.2.5-.2.2 0-.5.1-.8.3-2 .3-2.8s.4-1.4 1-1.4c.5 0 .6.8.3 1.7M167 131c0 .5-.2 1-.4 1-.3 0-.8-.5-1.1-1-.3-.6-.1-1 .4-1 .6 0 1.1.4 1.1 1m47 4.7c0 4.4-.5 4.1-1.4-1-.5-2.7-.4-3.7.3-3.2.6.3 1.1 2.2 1.1 4.2m136-3.2c0 .8-.4 1.5-1 1.5-.5 0-1-.7-1-1.5s.5-1.5 1-1.5c.6 0 1 .7 1 1.5M172.3 137c-.3 1.4-1.2 3.2-2 4-1.3 1.3-1.4 1.2-.9-1.3 1.7-8.1 1.7-8.1 2.6-6.7.5.8.7 2.6.3 4m163.7-1c-1.6 3.1-2.3 1.8-.8-1.5.7-1.5 1.4-2.3 1.6-1.7s-.2 2.1-.8 3.2m9.1 1.6-.9 3.9-.1-3.6c-.1-2 .2-3.9.6-4.2 1.2-1.3 1.3 0 .4 3.9m7.9-3.6c0 .5-.4 1-1 1-.5 0-1-.5-1-1 0-.6.5-1 1-1 .6 0 1 .4 1 1m-144.3 2.2c-.3.8-.6.5-.6-.6-.1-1.1.2-1.7.5-1.3.3.3.4 1.2.1 1.9m-39.7.1c0 .7-.5 1.8-1.2 2.5s-.8 1.2-.2 1.2c.5 0 .2.4-.5.9-.9.6-2.2.6-3.4 0-1.2-.7-2.2-.7-3.1 0-1.5 1.2-2.6.5-2.6-1.7 0-1.1.8-1.3 3.1-.8 2.5.5 3.2.2 3.6-1.4.6-2.2 4.3-2.8 4.3-.7m42.9 3c0 2.1-.1 2.1-.9.2-1.2-2.8-1.2-3.7 0-3 .6.3 1 1.6.9 2.8m139.1-1.4c0 .6-.4 1.3-1 1.6-.5.3-1 1.5-1 2.7 0 1.7-.2 1.8-1.5.8-1.9-1.6-1.9-2.5.1-4.4 1.7-1.8 3.4-2.1 3.4-.7M176 139c0 .5-.5 1-1.1 1-.5 0-.7-.5-.4-1 .3-.6.8-1 1.1-1 .2 0 .4.4.4 1m31.5 3.9c.2 2.3-.1 4.1-.6 4.1s-.9-2.1-.9-4.7c0-5.5 1.1-5.1 1.5.6m7.2.3c-.3.7-.5.2-.5-1.2s.2-1.9.5-1.3c.2.7.2 1.9 0 2.5m121.6-2.5c-.7.2-1.9.2-2.5 0-.7-.3-.2-.5 1.2-.5s1.9.2 1.3.5m-159.4 5.5c-.1 4.7-.2 5-1 2.3-.7-2.6-.3-7.5.7-7.5.2 0 .4 2.4.3 5.2m-46.2-3.6c-.3.3-1.2.4-1.9.1-.8-.3-.5-.6.6-.6 1.1-.1 1.7.2 1.3.5m79 1.6c-.3.8-.6.5-.6-.6-.1-1.1.2-1.7.5-1.3.3.3.4 1.2.1 1.9m145-1.6c-.3.3-1.2.4-1.9.1-.8-.3-.5-.6.6-.6 1.1-.1 1.7.2 1.3.5m-227 3c-.3.3-1.2.4-1.9.1-.8-.3-.5-.6.6-.6 1.1-.1 1.7.2 1.3.5m12.1 2.7c-.2 1.8.1 2.1 2 1.9 1.3-.2 2.5.3 2.8 1.2s1.4 1.6 2.3 1.7c1 0 1.1.2.4.6-1.8.7-1.6 3.3.2 3.3.8 0 1.5.6 1.5 1.3 0 .8.9 2.2 2 3.2 1.5 1.4 2 1.5 2 .4 0-1.2.2-1.2.9 0 .5.8.7 2.1.3 2.9-.4 1.1-.1 1.4 1.1.9 1.1-.4 1.7-.1 1.7.7q0 1.35-2.4.9c-1.7-.4-2.3-1-1.9-2 .4-1.1.2-1.4-.8-1.1-.8.3-1.3 1.5-1.1 2.8.2 1.4 0 2-.7 1.6-.6-.4-1.1 0-1.1.8 0 1 .9 1.6 2.5 1.6 1.4 0 2.5.4 2.5.9s-.9.7-2 .4-3.6.4-5.5 1.6c-4.5 2.6-6.7 2.7-5.8.3.4-.9 1.1-2 1.7-2.4.7-.5.4-.8-.6-.8s-1.8.7-1.8 1.6c0 .8-.4 1.2-1 .9s-.7.1-.4.9c.4.9.1 1.6-.6 1.6-.9 0-1.1-1.3-.7-4.6.3-2.9.1-4.1-.4-3.3s-.9 3.1-.9 5.1c0 3.5.2 3.8 2.8 3.8 1.5 0 3.4.6 4.1 1.2 1 1.1 1.6.8 3.3-1.5 2-2.7 4.8-3.7 4.8-1.6 0 .5-.4.8-.9.4-.5-.3-1.9.7-3 2.1-1.9 2.4-2.3 2.5-5.6 1.4-1.9-.6-4.3-.9-5.2-.7-1.4.4-1.3.5.4.6 3.9.2 3.6 2.1-.4 2.2l-3.8.1 3.9.9c2.8.7 4.2.6 4.7-.2.4-.6 1.2-.8 1.8-.5 2.3 1.5-1.5 3.5-5.5 3.1l-3.9-.5 3.3 1.2c4.3 1.5 4.1 2.5-.5 2.2-2.2-.2-2.8 0-1.3.3 4.2.8 4.7 2.3 1 2.4-2.9 0-3.1.2-1.5.9 1.8.8 1.7.9-.7.9-2.3.1-2.8.6-2.8 2.5 0 1.3.6 2.6 1.3 2.9 1.4.5 3.9-1.7 3-2.7-.4-.3-.1-.6.5-.6 1.8 0 1.4 2.1-.5 3.6-2.1 1.6-12.9 1.9-13.8.4-.8-1.2-2.5-1.3-2.5-.1 0 .4 2.9 1.6 6.5 2.6 4.9 1.3 6.5 2.2 6.5 3.5 0 1-.7 2.1-1.5 2.4-1 .4-1.5.1-1.3-.9.2-.7-.1-1.4-.7-1.4-.5-.1-1 .3-1 .8s-.3 1.3-.7 1.7c-1.7 1.6-.8 5.2 1.5 5.8 3.7 1 4.7.7 4.7-1.4 0-2.3 1.5-2.7 2.3-.6.3.8-.1 1.7-1 2-.8.4-1.3 1.3-.9 2.1.7 2-.6 1.9-4.2-.2-2.8-1.6-3.1-1.6-4.6 0-1 .9-1.5 1.7-1.1 1.7.3 0 .3.5 0 1-.4.6-1.1.8-1.6.4-.6-.4-.6-1.1.2-2 .9-1.1.9-1.7-.1-2.9-.9-1.1-.9-2.2-.2-4.5.9-2.4.8-3.1-.6-4-1.4-.7-1-1 1.8-1.1s3-.3 1-.6c-4.8-.9-6.5-3-6.5-7.8-.1-4.1.2-4.5 2.5-4.6 2.3-.2 2.3-.2.3-.6-1.3-.2-2.3-.9-2.3-1.4s1.2-.6 2.6-.3c1.9.5 2.5.4 2-.5-.4-.6-1.5-1.1-2.4-1.1-1.3 0-1.2-.5.8-2 1.4-1.1 1.9-2 1.3-2-.7 0-1.3-.5-1.3-1.1s.6-.9 1.3-.6c.8.3 2 .1 2.8-.4 1.1-.7.9-.9-.8-.9-2.7 0-3.1-1.9-.5-2.1 1.6-.1 1.6-.2 0-.6-2.7-.7-2.2-2 1.2-3.2 3.8-1.3 3.9-2.5.2-1.6-2.7.6-2.8.4-2.4-2.5.3-2.3 1.1-3.2 3.1-3.6 4.7-1 4.7-1.2.1-1.4l-4.5-.2 5-1.3c4.9-1.3 4.9-1.3 1.5-1.5-2.5-.2-2.8-.4-1.2-.7 2.4-.5 2.9-1.8 1-2.6-.7-.3-.2-.6 1.2-.7 2.3-.1 2.3-.2.5-1-1.9-.8-1.8-.9.4-.9 1.3-.1 2.1-.4 1.7-.8-.3-.4-2.7-.6-5.1-.4-2.5.1-4.5-.2-4.5-.6 0-1.7 3.8-6.4 4.4-5.5.3.6 0 1.7-.9 2.5-1.3 1.3-1.3 1.6 0 2.1.9.3 3 .2 4.8-.1 3.1-.7 3.1-.7.7-1.4s-2.4-.7.5-.9l3-.1-2.5-1.2c-2.4-1.1-2.3-1.1 1.8-1.5 2.3-.2 4.2-.8 4.2-1.3 0-.6.5-.7 1-.4.6.4 1 1.6.8 2.8m77.2.2c0 1.4-.2 2.5-.4 2.5s-.6-1.1-.8-2.5c-.3-1.4-.1-2.5.3-2.5.5 0 .9 1.1.9 2.5m-54.5.5c-.9 1.4.8 1.3 2.3-.2.9-.9 1.2-.9 1.2-.1 0 .7-.4 1.5-1 1.8-1.3.8-1.3 4.5 0 4.5.5 0 .7.7.4 1.5-.4.9 0 1.5 1 1.5.9 0 1.6-.8 1.6-1.8.1-1.4.3-1.2 1.3.6.7 1.2 1.6 2 1.9 1.6 1.5-1.4 2.5 3.6 1.9 9.3-.4 4-.3 6.4.4 6.6.6.2.1 2.6-1.3 6-2.5 6-2.3 7.8.7 7 1.6-.4 1.9.4 2.5 5.9.7 6 4 23.3 5.2 27 .3 1 .2 1.8-.3 1.8-.4 0-1.9-4.4-3.2-9.8-1.3-5.3-2.6-10.1-2.9-10.7-.9-1.4-1.3-4.6-1.2-8.4 0-1.9-.3-3.2-.6-2.8-.4.4-1.3.2-2.1-.4-.7-.6-1.3-.9-1.3-.5 0 1.1 3.9 14.6 4.5 15.5 1 1.7 4.2 15.1 3.6 15.1-1 0-5.9-12-7.6-18.5-.7-2.8-1.3-4.1-1.4-3-.1 1.7-.3 1.8-1.1.5-1.6-2.5-1.1.2 1.4 7.4 1.3 3.8 3 7.2 3.7 7.6.6.5.9 1.5.6 2.4-.4.9-.2 1.6.3 1.6.6 0 1 .5 1 1 0 .6 1.6 2.7 3.5 4.7s3.5 4.1 3.5 4.7c-.1.6-1.3-.4-2.9-2.2-1.5-1.8-3.4-3.1-4.2-2.9s-1 .2-.6-.1c.4-.2.1-.9-.8-1.6-.8-.6-2.4-3.4-3.5-6.1l-1.9-5 .6 5.4c.5 4 .3 5.2-.5 4.7-.7-.4-1.2-2.6-1.2-4.9 0-4.8-4.5-23.6-6-25.1-1.3-1.3-1.3.7 0 5.9.6 2.2 1.5 7.4 2 11.5s1.3 8.6 1.6 9.9c.5 1.7.4 2.2-.4 1.7-.7-.4-1.9-3.2-2.8-6.2-.9-3.1-1.8-5.3-2.1-5-.3.2 0 2 .6 3.9.7 1.9 1.1 3.9 1 4.3-.1.5.1 1.7.6 2.7 1.2 2.9 0 2.9-3 0-1.7-1.8-3-2.4-3.2-1.6-.2.7-1.1.9-1.9.6s-1.4 0-1.4.6c0 1.4 5.6 4.8 9.2 5.6 1.5.4 3.4 1.5 4.1 2.5s2.1 2 3.2 2.3c1.9.4 1.9.5-.1.6-8.2.4-24.2-12.1-22-17.2.2-.7.8-.2 1.1 1 .7 2.1 3.3 3.8 4.3 2.8.3-.3-.5-1.6-1.8-3-1.8-1.9-2.4-3.6-2.3-6.8 0-2.3-.1-3-.4-1.5-.4 2.4-3.3 4.9-3.3 2.8 0-.6.6-1 1.3-1 .8 0 .8-.3.1-.8-2.1-1.4-2.2-4.1-.3-7.8 1-2.1 1.9-4.4 1.9-5.1 0-1.5 4.1-7.9 7.1-11.2 3.3-3.5 6.1-11.9 6.4-19.1.3-8.3 1.5-15 2.7-15 .5 0 .6.4.3 1m-8 5c.7 2.4.7 2.4-.9.5-.8-1.1-1.5-2.9-1.5-4 0-1.6.1-1.7.8-.5.5.8 1.2 2.6 1.6 4m16.1-1.2c-.4.3-1.2 0-1.9-.7-.9-.9-.9-1.4.3-2.1 1.1-.7 1.6-.5 1.8.6.2.9.1 1.8-.2 2.2m41.7-1.7c-.4 1.3-.9 1.7-1.5 1.1-1.1-1.1-.3-3.2 1.2-3.2.4 0 .6.9.3 2.1m139.7.9c0 1.3-.5 1.8-1.5 1.4-.8-.4-1.5-1.2-1.5-2s.7-1.4 1.5-1.4 1.5.9 1.5 2m12.9 5c.1 2-.1 2.2-.9 1-.5-.8-.9-2.9-.9-4.5 0-2.6.2-2.7.9-1 .5 1.1.9 3.1.9 4.5M174 155.3c0 .5-.4.5-1 .2-.5-.3-1-1.4-1-2.3 0-1.5.2-1.5 1-.2.5.8 1 1.9 1 2.3m127.5 1.7c-.9 4.1-2.4 2.5-1.8-1.8q.6-3.3 1.5-2.4c.6.6.7 2.4.3 4.2m-86.5-2.3c0 1.6-.2 1.6-1.1.3-1-1.4-.6 5.7.7 13 .4 2.4.4 2.4-.5.3-1.4-3.1-2.5-11.9-1.8-13.8.9-2.1 2.7-1.9 2.7.2m134.7 1.5c-.3.8-.6.5-.6-.6-.1-1.1.2-1.7.5-1.3.3.3.4 1.2.1 1.9m-129.3 9.3c.8 3.8 1.3 7.1 1.1 7.3-.2.3-.7-.9-1-2.4-.4-1.6-1.3-4.7-2.1-6.9-1.6-4.5-2-10.7-.4-7 .4 1.1 1.5 5.1 2.4 9m-67.4-6.2c0 .5-.4.5-1 .2-.5-.3-1-1.4-1-2.3 0-1.5.2-1.5 1-.2.5.8 1 1.9 1 2.3m197.1 2.7c.7.5.8 1.6.4 3.1-.7 2.2-.8 2.1-2.2-1.4-.8-2-2.3-3.9-3.4-4.2-2.6-.9-2.4-2.3.4-2.7 1.6-.2 2.4.3 2.9 2.1.4 1.3 1.2 2.7 1.9 3.1m3.9-4.6c0 .8-.3 2.2-.6 3.1-.6 1.5-.8 1.4-2.5-.1-1.8-1.6-1.8-1.8-.1-3 2.2-1.7 3.2-1.7 3.2 0m-228.5.6c.3.6-.4 1-1.7 1-1.6 0-1.9.3-1 .9 1.1.7 1 1-.3 1.5-3.7 1.4-4.7 0-1.9-2.8 1.8-1.8 4-2.1 4.9-.6m99.3 1.5c-.3.3-.9-.2-1.2-1.2-.6-1.4-.5-1.5.5-.6.7.7 1 1.5.7 1.8m-4.1.7c-.3.8-.6.5-.6-.6-.1-1.1.2-1.7.5-1.3.3.3.4 1.2.1 1.9m-64.3.3c-.4.8-.8 1.5-1 1.5s-.4-.7-.4-1.5.4-1.5 1-1.5c.5 0 .7.7.4 1.5m20 3.2c-.8 5.5-2.2 9.9-2.3 7.1-.1-2 2.1-11.8 2.6-11.8.2 0 .1 2.1-.3 4.7m127.6-3.2c0 .8-.4 1.5-1 1.5-.5 0-.7-.7-.4-1.5.4-.8.8-1.5 1-1.5s.4.7.4 1.5m-77.7 8.5c.4 3.5.3 4.1-.5 2.6-.6-1-1.2-3.7-1.4-6-.4-5.3 1.1-2.6 1.9 3.4m-8 2.9c-.7.9-1.2-.6-1.7-4.9l-.6-4.5 1.4 4.5c.7 2.5 1.1 4.7.9 4.9m148.4-5.4c.9 2.9.9 3.5-.4 3.5-1 0-1.3-.6-.9-1.6.3-.8.2-1.3-.3-1s-.8-.5-.7-1.9c.2-3.5 1.1-3.1 2.3 1m-188-.3c-.3.8-.6.5-.6-.6-.1-1.1.2-1.7.5-1.3.3.3.4 1.2.1 1.9m119.4.5c-.8 1.5-1 1.5-1.1.2 0-1.7 1-3.2 1.8-2.5.2.3-.1 1.3-.7 2.3M363 165c0 .5-.2 1-.4 1-.3 0-.8-.5-1.1-1-.3-.6-.1-1 .4-1 .6 0 1.1.4 1.1 1m-54.2 3.6c-.3 1.4-.5 1.2-1-.9-.3-1.9-.2-2.5.4-1.9s.8 1.8.6 2.8M441 167c0 .5-1 1-2.2 1-1.9 0-2-.2-.8-1 1.9-1.3 3-1.3 3 0m-321.8 6c.2 2.4-.1 4-.7 4s-1.1-1.8-1-4c0-5.2 1.2-5.2 1.7 0m157.6-1.5c0 2.8-.8 3.1-2.6 1.3-1.5-1.5-1.6-3.2-.2-2.3.6.3 1 .1 1-.4 0-.6.4-1.1.9-1.1s.9 1.1.9 2.5m20.2.4c0 .6-.5 1.3-1 1.6-.6.3-.7 1.7-.4 3 .3 1.2.1 2.6-.4 2.9-1.4.9-2.2-3.2-1.2-6 .9-2.3 3-3.4 3-1.5m72 .5c0 .5.8 1.5 1.8 2.2 1.6 1.2 1.5 1.3-.5 1.4-1.3 0-2.3-.6-2.3-1.3s-1.2-1.8-2.7-2.4l-2.8-1.1 3.2.2c1.8 0 3.3.5 3.3 1m-188.2 6.1c-.6 2.7-1.5 5.3-2.1 5.6-.5.4-.7 2.1-.4 3.8.4 1.8.2 3.1-.3 3.1-.6 0-1-2.8-.9-6.3 0-4.4.3-5.6.9-4.2.7 1.7.9 1.6.9-1 .2-4.3 1.2-7.8 2.2-6.8.4.4.3 3-.3 5.8m35.7 3.6c.3 7.1.2 8.4-.5 5.4-1-4.5-1.3-16.2-.4-15.3.3.3.7 4.8.9 9.9m55.1-5.3c-1.2 1.1-1.8-.7-1-3l.8-2.3.4 2.3c.2 1.3.1 2.6-.2 3M361 173c0 .5-.7 1-1.5 1s-1.5-.5-1.5-1c0-.6.7-1 1.5-1s1.5.4 1.5 1m-138.5 1.9c.3.5.1 1.2-.5 1.6-.5.3-1-.1-1-.9 0-1.8.6-2.1 1.5-.7m-3 15.6c-.2 14.8-1.5 27.7-2.8 27.2-1.9-.6-2.7-6.1-2.1-14.2 1.1-13.3 2.5-12.2 2 1.5l-.5 12.5 1.1-8.5c.6-4.7 1-14.4 1-21.5 0-7.4.3-11.9.7-10.5s.7 7.4.6 13.5m82.8-13.5c-.3 1.1-1.5 2.6-2.6 3.1-1.7 1-1.9.9-1.4-.6.4-.9.7-2.3.7-3.1s.9-1.4 1.9-1.4c1.4 0 1.8.5 1.4 2m58.1.2c-1.5.7-2.8.7-4-.1-1.6-.9-1.2-1 2.1-1 3.5 0 3.7.2 1.9 1.1M151.5 179c-2 2.3-2.9 2.1-1.9-.4.3-.9 1.3-1.6 2.2-1.6 1.3 0 1.2.3-.3 2m153.1 1.2c-.9 1.2-1.6 1.7-1.6 1 0-1.4 2.3-4.2 2.9-3.7.1.2-.4 1.4-1.3 2.7m64.7-2.5c-.7.2-1.9.2-2.5 0-.7-.3-.2-.5 1.2-.5s1.9.2 1.3.5m5 0c-.7.2-1.9.2-2.5 0-.7-.3-.2-.5 1.2-.5s1.9.2 1.3.5m-147.6 9.5c-.2 1.8-.4.4-.4-3.2s.2-5 .4-3.3c.2 1.8.2 4.8 0 6.5m65-6c-.3.7-.5.2-.5-1.2s.2-1.9.5-1.3c.2.7.2 1.9 0 2.5m-172.3-.7c-.4.8-.1 1.5.6 1.5.6 0 .9.4.5 1-1 1.6-3.3 0-2.8-2.1.3-1 .9-1.9 1.4-1.9s.6.7.3 1.5m110.3 1.7c-.3.8-.6.5-.6-.6-.1-1.1.2-1.7.5-1.3.3.3.4 1.2.1 1.9m127.3-.8c-1.5 1.3-9.9 3.1-8.6 1.8 1-.9 6.7-3 8.6-3.1 1.3-.1 1.3.1 0 1.3m-182.4 1.3c-.2.9-.8 1.9-1.4 2.1-1.4.4-1.5 0-.6-2.2.8-2.1 2.3-2 2 .1m127.4-.4c0 .2-1.2 1.4-2.7 2.8-2.4 2.2-2.4 1.3 0-1.9.8-1.1 2.7-1.7 2.7-.9m-72.3 3.9c-.3.8-.6.5-.6-.6-.1-1.1.2-1.7.5-1.3.3.3.4 1.2.1 1.9m-83.2-.2c-.3.5-1 1-1.6 1-.5 0-.9-.5-.9-1 0-.6.7-1 1.6-1 .8 0 1.2.4.9 1m129.5 1c0 1.1-.6 2-1.4 2-.9 0-1.2-.7-.9-2 .3-1.1.9-2 1.4-2s.9.9.9 2m19.2 2.2c-.7.7-1.2.8-1.2.2 0-1.4 1.2-2.6 1.9-1.9.2.3-.1 1.1-.7 1.7m-151.5-.6c-.3.3-1.2.4-1.9.1-.8-.3-.5-.6.6-.6 1.1-.1 1.7.2 1.3.5m87.3 2.5c0 1-.4 1.9-1 1.9-.5 0-1-1.2-1-2.6s.4-2.3 1-1.9c.6.3 1 1.5 1 2.6m35.8.9c-.2.5-.9.6-1.7.1-.9-.6-1.1-1.6-.7-2.7.7-1.8.8-1.8 1.7-.1.6 1 .9 2.2.7 2.7m44.2 2.7c0 1.8 4 1.6 4-.1 0-.8-.4-1.8-1-2.1s-.7.1-.4.9c.3.9.1 1.6-.5 1.6s-1.1-.4-1.1-.9-.3-1.6-.6-2.4c-.4-1.2.1-1.3 3.4-.4 3.5.9 3.9 1.4 3.9 4.1 0 1.7-.2 2.3-.4 1.3-.5-1.8-2.3-2.4-2.3-.7 0 .5-1.3 1-2.9 1-2.4 0-3.1-.6-4-3.1-.6-1.8-1.1-3.4-1.1-3.7 0-1.2 2.9 3.4 3 4.5m22-2.7c0 .5-.7.7-1.5.4-.8-.4-1.2-1-.9-1.5.6-1.1 2.4-.2 2.4 1.1m-26 .4c0 .8.3 2.3.6 3.3.5 1.2.4 1.5-.3.8-1.6-1.5-2.6-5.5-1.4-5.5.6 0 1.1.6 1.1 1.4m17.3 0q.6 1.5-.9.9c-1.5-.6-1.9-2.3-.5-2.3.5 0 1.1.7 1.4 1.4m3.7-.4c0 .5-.2 1-.4 1-.3 0-.8-.5-1.1-1-.3-.6-.1-1 .4-1 .6 0 1.1.4 1.1 1m-185.3.6c-.3.3-1.2.4-1.9.1-.8-.3-.5-.6.6-.6 1.1-.1 1.7.2 1.3.5m79.4 9.6c-.6 5.1-1.3 10.9-1.6 12.8-.2 1.9-.2-1.2.1-7 .4-10.7 1.2-16.5 2.2-15.6.2.3-.1 4.7-.7 9.8m2.8-.6c-.7 4.3-1.7 8.3-2.2 8.9-.6.6-.7.1-.4-1.6.4-1.4 1-5.8 1.3-9.8.4-4.1 1.1-6.8 1.6-6.3s.3 4.3-.3 8.8m78.8-6.4c-.3.8-.6.5-.6-.6-.1-1.1.2-1.7.5-1.3.3.3.4 1.2.1 1.9m-125 1c-.3.8-.6.5-.6-.6-.1-1.1.2-1.7.5-1.3.3.3.4 1.2.1 1.9m50.7 2.8c.8-2.5.8-2.4 1.7 1 .7 2.5.5 5.2-.6 9.5-1.5 5.9-1.5 3.2.1-5.5.4-2.6.3-3.1-.5-2-.6.8-1.1 2.8-1.2 4.5 0 1.6-.4 3.9-.9 5l-.9 2v-2c-.1-1.7-.3-1.7-1.1-.5-1.4 2.1-1.3.4.2-9.5 1.2-7.3 1.3-7.7 1.8-4s.6 3.8 1.4 1.5m-87.7-3.4c-.3.3-1.2.4-1.9.1-.8-.3-.5-.6.6-.6 1.1-.1 1.7.2 1.3.5m159 4.1c-.3 1-.5.2-.5-1.7s.2-2.7.5-1.8c.2 1 .2 2.6 0 3.5m31.6-4c-1.3.2-2.3 1.1-2.3 1.9 0 .9.5 1.2 1.1.8 1.6-1 2.9 1.5 2.9 5.8 0 5.6-2 4.6-2.2-1-.1-3.6-.2-3.9-.5-1.5-.2 1.8-.9 3.3-1.4 3.3-.7 0-.8-1.2-.4-3 .4-1.9.3-3-.4-3-.6 0-1.1 1.1-1.1 2.5s-.5 2.5-1 2.5c-1.9 0-2.2-2.8-.5-5.9 1.3-2.6 2.1-3.1 4.8-3 2.3.1 2.6.3 1 .6m-9.1 1.2c.8-1.1.9-1.1.5.1-.2.8-1.1 1.6-2 1.8-1.3.3-1.5-.1-1-1.4s.8-1.4 1.1-.5c.4 1.1.6 1.1 1.4 0m41.8 3.5c0 5.4-2.2 6.9-4 2.6-1.3-3.2 0-7 2.5-7 1.1 0 1.5 1.2 1.5 4.4M141 198c0 .5-.7 1-1.5 1s-1.5-.5-1.5-1c0-.6.7-1 1.5-1s1.5.4 1.5 1m96.7 3.7c-.3 1-.5.2-.5-1.7s.2-2.7.5-1.8c.2 1 .2 2.6 0 3.5m18.7-3.2c.3.8.1 1.5-.3 1.5-.5 0-1.1-.7-1.5-1.5-.3-.8-.1-1.5.3-1.5.5 0 1.1.7 1.5 1.5m80.5 7.4c0 1.9-.2 3.1-.6 2.8-.3-.4-.7-3.3-.9-6.4-.2-4.4-.1-5.1.6-2.8.4 1.6.8 4.5.9 6.4M305 201c.5 0 .7-.7.4-1.5-.4-.8-.1-1.5.5-1.5 1.4 0 1.4 2.2-.1 5.5-1.6 3.6-2.3 3.1-2.4-1.8-.1-2.3 0-3.4.3-2.5.2 1 .8 1.8 1.3 1.8m12.1-2c1.2 0 1.2 3.7-.1 4.5-.5.3-1-.1-1-1s-.4-1.4-.9-1.1c-1.1.7-2.1 5.6-1.1 5.6.4 0 .5 2 .3 4.4-.4 2.9-.1 4.6.7 5.1 1 .6 1.2-.1.6-3.3-.4-2.6-.2-4.2.4-4.2.5 0 1 1.5 1 3.2 0 1.8.5 4 1.1 4.8.8 1.1.9.3.5-3.2-.3-2.6-.1-5 .4-5.3.6-.4 1 1 1 3.4 0 2.2.5 4.3 1.1 4.6 2.1 1.4.2 2.8-3.9 2.9-3.5.1-4.1-.2-3.6-1.7.3-.9.2-1.7-.3-1.7-.9 0-3.8 4.2-3.5 5.2.1.3-.5.9-1.3 1.2-2 .7-1.9.4 1.5-5.4s4.2-10 1.2-6.5c-.9 1.2-2.5 2.7-3.6 3.5-1.8 1.4-1.8 1.3-1.3-2 .5-2.5.2-2.1-1 1.5-1 3-1.8 4.3-2.1 3.2-.6-2.7 1.6-8.1 3.9-9.5 2-1.3 2.1-1.2 1.5 1.2-.4 1.5-.2 2.6.4 2.6.5 0 1.2-1.2 1.5-2.8.4-1.5 1.3-3.9 2.1-5.5.8-1.5 1.2-3.2.8-3.9-.5-.8-.2-.9 1-.5 1 .4 2.2.7 2.7.7m23.4 6.7c.4 2.9.3 4.3-.4 4.3-.6 0-1.1-1.1-1.1-2.4 0-1.4-.5-3.7-1-5.1-.6-1.5-.7-3.2-.3-3.8.8-1.3 1.8 1.2 2.8 7M359 199c0 .5-.6 1-1.4 1s-1.8-.5-2.1-1c-.3-.6.3-1 1.4-1 1.2 0 2.1.4 2.1 1m-48.9 2.7c-.8 1.5-1 1.5-1.1.2 0-1.7 1-3.2 1.8-2.5.2.3-.1 1.3-.7 2.3m-176.6-.7c.7 1.2-.2 1.2-3 0-1.9-.8-1.9-.9.2-.9 1.2-.1 2.5.3 2.8.9m5.5 0c0 .5-.4 1-.9 1-.6 0-1.3-.5-1.6-1-.3-.6.1-1 .9-1 .9 0 1.6.4 1.6 1m204 2.1c0 1.1-.4 1.7-1 1.4-.5-.3-1-1.5-1-2.6s.5-1.7 1-1.4c.6.3 1 1.5 1 2.6m-44.3 4.1c-.2 1.3-.4.3-.4-2.2s.2-3.5.4-2.3c.2 1.3.2 3.3 0 4.5m23.8-5.2c-.3.5-1.3 1-2.1 1s-1.2-.5-.9-1c.3-.6 1.3-1 2.1-1s1.2.4.9 1m-185 1c.3.5-.1 1-1 1s-1.3-.5-1-1c.3-.6.8-1 1-1s.7.4 1 1m-18.1 1.6c.9 2.4.7 6.2-.4 6.9-.6.4-.7-.5-.4-2.3.4-1.7.1-3.2-.5-3.6-1.3-.9-1.5-2.6-.2-2.6.5 0 1.2.7 1.5 1.6m148.1-.5c1.1 1.7-.1 2.1-1.5.4-.8-.9-.8-1.5-.2-1.5s1.4.5 1.7 1.1M142 206.4c0 3.1 3.9 15.6 4.8 15.6.4 0 2.5 1.6 4.6 3.5 2.2 1.9 4.6 3.5 5.4 3.5.9 0 1.2.3.8.7s-2.2-.1-4.1-1.2c-2.9-1.5-4-1.6-6-.7-1.4.6-4 .9-5.7.6l-3.3-.5 3.5 1.9c3.5 1.8 7.7 1.9 4.8.1-.9-.6-.5-.9 1.3-.9 2.5 0 4.1 1.7 4.3 4.5.1.5 1.4.9 2.9.9 1.7-.1 1.9 0 .7.3-1.1.2-2 .8-2 1.3 0 .4-.8.6-1.9.3-1-.3-2.2 0-2.5.6-.4.6 0 1.1.8 1.1s1.8.5 2.2 1.1c.4.8-.9 1-4.2.9-6.6-.3-8.5 0-5.4 1l2.5.8-2.8.1c-2 .1-3.1.7-3.4 2.1-.3 1.1-.9 2-1.3 2-1.1 0-2.9-16.1-2-18.4.4-1.2 1.1-5.9 1.5-10.6.8-9.1 1.8-13 3.5-13 .5 0 1 1.1 1 2.4m116.5 1.5c-.6.5-2.5-1-2.5-2 0-.5.6-.4 1.4.3s1.2 1.5 1.1 1.7m4.5-1.3c0 .8-.4 1.2-1 .9-.5-.3-1-1-1-1.6 0-.5.5-.9 1-.9.6 0 1 .7 1 1.6m60 .5c-.7 1.1-1.4 1.8-1.7 1.5-.8-.8.5-3.6 1.7-3.6.7 0 .7.6 0 2.1m-187.5-.1c-.3.5-1 1-1.6 1-.5 0-.9-.5-.9-1 0-.6.7-1 1.6-1 .8 0 1.2.4.9 1m119.5.9c0 1.2-2 2.5-2.7 1.8s.6-2.7 1.8-2.7c.5 0 .9.4.9.9m75.5.1c.3.6-.4 1-1.7 1-1.8 0-2-.2-.8-1 1.9-1.2 1.8-1.2 2.5 0m-93.5.7c0 .5-.5 1.5-1 2.3-.8 1.2-1 1.1-1-.8 0-1.2.5-2.2 1-2.2.6 0 1 .3 1 .7m-105 1.9c0 .8-.5 1.2-1 .9-.6-.4-.8-1.1-.5-1.6.9-1.4 1.5-1.1 1.5.7m170.4 1.1c-1.7 7.9-2.6 10.3-3.5 10.3-.6 0-.6-.6-.1-1.8.5-.9 1.3-3.5 1.7-5.7.7-4 1.3-5.5 2.1-5.5.2 0 .2 1.2-.2 2.7M325 210c0 .5-.5 1-1.1 1-.5 0-.7-.5-.4-1 .3-.6.8-1 1.1-1 .2 0 .4.4.4 1m4.8 1.8c-1 .2-1.8 1-1.8 1.8 0 1.7 1.2 1.8 2.8.2.6-.6 1.4-.9 1.8-.6.3.4-.6 1.4-1.9 2.3l-2.5 1.6 1.7 4c1.8 3.8 3.7 6.8 2.7 3.9-.9-2.3.7-4 3.2-3.3 1.2.3 2.2.9 2.2 1.4s-.6.6-1.3.4c-.6-.3-1.7.5-2.2 1.7-1.7 3.6-3.3 3.2-4.6-1.2-.7-2.2-1.7-3.9-2.3-3.7-.6.3-1.2-1.1-1.3-3.2-.2-3.8 2.2-7.5 4.1-6.3.7.4.5.8-.6 1m-31.1 1.4c-.3.8-.6.5-.6-.6-.1-1.1.2-1.7.5-1.3.3.3.4 1.2.1 1.9M339 212c0 .5-.2 1-.4 1-.3 0-.8-.5-1.1-1-.3-.6-.1-1 .4-1 .6 0 1.1.4 1.1 1m-99.3.6c-.3.3-1.2.4-1.9.1-.8-.3-.5-.6.6-.6 1.1-.1 1.7.2 1.3.5m18.3.3c0 .5-1.1 1.1-2.5 1.3-2.4.5-3.2-.2-1.8-1.5.9-1 4.3-.8 4.3.2m5 .1c0 .5-.7 1-1.6 1-.8 0-1.2-.5-.9-1 .3-.6 1-1 1.6-1 .5 0 .9.4.9 1m60 .5c0 .8-.2 1.5-.4 1.5s-.6-.7-1-1.5c-.3-.8-.1-1.5.4-1.5.6 0 1 .7 1 1.5m26.1 5.8c1.2.9 2 1.9 1.7 2.3-.8.7-4.8-1.4-4.8-2.6 0-.5-1.1-2-2.5-3.4-2.1-2.1-2.2-2.5-.7-2.8 1.1-.2 2.1.6 2.8 2.3.7 1.5 2.2 3.4 3.5 4.2M348 213c0 .5-.2 1-.4 1-.3 0-.8-.5-1.1-1-.3-.6-.1-1 .4-1 .6 0 1.1.4 1.1 1m-115.4 5.1c-1.4 1.7-2.6 3.4-2.6 3.9 0 .4-.7 1-1.5 1.4-1.1.4-1-.5.7-3.4 1.3-2.2 2.9-4 3.6-4 .6 0 1.2-.8 1.3-1.8 0-1 .3-1.2.6-.4.2.6-.7 2.6-2.1 4.3M337 214c1.3.8 1.3 1-.2 1-.9 0-2-.5-2.3-1-.8-1.3.5-1.3 2.5 0m-218.5 1.8c-.3.3-1.1 0-1.8-.7-.9-1-.8-1.1.6-.5 1 .3 1.5.9 1.2 1.2m13.8 2.6c1.6.4 2.5 1.1 2.1 1.7-.4.8-1 .7-1.7 0-.6-.6-2.3-1.1-3.8-1.1-2.3 0-2.6-.3-2.2-2.1.5-1.9.8-2 1.7-.7.6.8 2.4 1.8 3.9 2.2M240 217c0 .5-.5 1-1.1 1-.5 0-.7-.5-.4-1 .3-.6.8-1 1.1-1 .2 0 .4.4.4 1m66.6 2.7c-1.1 1.1-1.7-.4-.9-2.3.7-1.8.8-1.8 1.1-.1.2 1 .1 2.1-.2 2.4m34-.5c.9 2.9-.4 3.4-2.6 1-1.2-1.2-2.7-2.2-3.5-2.2s-1.5-.4-1.5-.8 1.6-.6 3.5-.4c2.3.3 3.6 1 4.1 2.4M252 218c0 1.2-3.4 3-5.7 2.9-1.5 0-1.5-.2.3-.9 1.2-.5 2.5-1.3 2.9-1.9.8-1.4 2.5-1.4 2.5-.1m-39 2c0 1.1-.4 2-.9 2s-.7-.9-.4-2 .7-2 .9-2 .4.9.4 2m50.5-1c.3.5.2 1-.4 1-.5 0-1.3-.5-1.6-1-.3-.6-.2-1 .4-1 .5 0 1.3.4 1.6 1m59.9 2.8c-.8.8-1.8 1.1-2.2.7s-.1-1 .6-1.2c.6-.3 1.2-1.2 1.2-2.1 0-1.4.2-1.4.9-.3.6.9.4 1.9-.5 2.9M344 219c0 .5-.4 1-1 1-.5 0-1-.5-1-1 0-.6.5-1 1-1 .6 0 1 .4 1 1m-217.2 2c1.5 0 3.4.5 4.2 1 1.1.8-.5 1-5.2.8-5.7-.3-6.8-.6-6.8-2 0-1.5.4-1.6 2.6-.8 1.4.6 3.7 1 5.2 1m99.2-.5c0 1.2-1.9 1.2-2.3 0-.4-.9-.1-1.2.9-.8.7.3 1.4.7 1.4.8m38.7 5.3c3.6 3.3 1.8 3.3-2.8-.1-1.8-1.3-4.4-2-7.7-2l-5.1-.1 3-2.2c2.9-2.1 3.2-2.2 6.1-.6 1.7 1 4.6 3.2 6.5 5m-147.2-.6c.1 1-.6 2.5-1.6 3.4-1.9 1.7-1.4 5.4.7 5.4.8 0 1.4.5 1.4 1.1 0 .7-1.1.9-3 .6-1.6-.4-3.2-.2-3.5.3-.3.6 0 1 .8 1 2 0 4.1 2.6 2.7 3.5-.5.3-1 0-1-.7 0-1-.2-1-.9.1s-1 1-1.4-.5c-.4-1.6-.5-1.6-.6.3-.1 1.7.5 2.3 1.9 2.3 1.2 0 2 .7 2 1.6 0 1.1-.6 1.5-2 1.1-1.1-.3-2-.1-2 .4s.6.9 1.3.9c2 0 7.3 4.8 6.4 5.7-.5.4-1.7.2-2.7-.5-2.5-1.6-4.1-1.5-3.5.1.6 1.4-3.2 4.1-4 2.8-.6-1.1.4-4.1 1.5-4.1 1.2 0 .6-2.8-.8-4.2s-1.6-5.1-.3-7.6c2.9-6 4.1-9.2 4.7-12.7.4-2.2.9-4.4 1.2-4.9.6-1 2.5 2.2 2.7 4.6m186.1-2.5c-1 1-1.9-.5-1-1.8.6-1.1.8-1.1 1.2 0 .2.7.1 1.5-.2 1.8m-88.7 2.4c-1.5 4.4-2.8 5.9-4.8 5.9-1.3-.1-1.3-.3.4-1.6 1.1-.8 2-1.8 2.1-2.2.2-1.7 2.5-6.4 2.9-6 .3.3 0 2-.6 3.9m2.7.4c-1.6 3.3-3 4.9-2.1 2.2 2-5.5 2.6-6.9 3.2-6.4.3.4-.2 2.2-1.1 4.2m50.2-3.3c1.9 1.9 1.4 3-.8 1.8-1.1-.6-2-1.5-2-2 0-1.4 1.4-1.2 2.8.2m-58.1 2c-.3.8-.6.5-.6-.6-.1-1.1.2-1.7.5-1.3.3.3.4 1.2.1 1.9m26.8-1.2c-.3.5-1 1-1.6 1-.5 0-.9-.5-.9-1 0-.6.7-1 1.6-1 .8 0 1.2.4.9 1m-51.7 3.6c-1 1-2.8-.6-2.8-2.4 0-1.5.1-1.5 1.7.1.9.9 1.4 1.9 1.1 2.3m38.7-2.6c-.3.5-1 1-1.6 1-.5 0-.9-.5-.9-1 0-.6.7-1 1.6-1 .8 0 1.2.4.9 1m-97 1 2 .9-2 .1c-1.8.1-1.9.1-.2 1.1 2 1.2 2.3 3.5.5 4.2-1 .3-1 .7-.1 1.7.6.7.9 1.9.6 2.6-.3.8.1 1.4.8 1.4s.3.9-1 2.1c-2.1 2-2.4 2-3.9.5-1.4-1.4-1.5-1.9-.3-3.8 1.7-2.7-.1-4.1-4.4-3.2l-3 .7 3.2-2.7c1.8-1.5 3.8-2.4 4.4-2.1.8.6.8.2 0-1.3-.6-1.1-1.1-2.3-1.1-2.6 0-.8 2.1-.6 4.5.4m6.8 2.8c-.3 1.2-.9 2.2-1.2 2.2-1.2 0-.9-3.4.3-4.2 1.4-.9 1.6-.6.9 2m37.7-1.3c1.4 1.6 1 1.8-1.4.9-.9-.3-1.6-1-1.6-1.5 0-1.4 1.6-1.1 3 .6m62-1.1c0 .2-.7.6-1.5 1-.8.3-1.5.1-1.5-.4 0-.6.7-1 1.5-1s1.5.2 1.5.4m15.6 1.2c1.8 1.5 1.8 1.5-.6 1-1.4-.3-3.3-.6-4.3-.6s-1.5-.5-1.2-1c.9-1.5 3.9-1.2 6.1.6m5.7-.9c-.7.2-1.9.2-2.5 0-.7-.3-.2-.5 1.2-.5s1.9.2 1.3.5m-33.3 1.7c0 .3-.4.8-1 1.1-.5.3-1 .1-1-.4 0-.6.5-1.1 1-1.1.6 0 1 .2 1 .4m108.4.4c.7 1.2-.5 5.2-1.5 5.2-.5 0-.9-1.4-.9-3 0-2.8 1.3-4 2.4-2.2m-137.3 4.5c-1.3 1.3-2.6.3-1.6-1.2.3-.6 1.1-.8 1.7-.5.6.4.6 1-.1 1.7m5.6-1.7c-.3.3-1.2.4-1.9.1-.8-.3-.5-.6.6-.6 1.1-.1 1.7.2 1.3.5m6.6.1c-.7.2-1.9.2-2.5 0-.7-.3-.2-.5 1.2-.5s1.9.2 1.3.5m-71.3 3.8c0 .8-.4 1.5-1 1.5-.5 0-1-.7-1-1.5s.5-1.5 1-1.5c.6 0 1 .7 1 1.5m-12.3 1.7c-.3.8-.6.5-.6-.6-.1-1.1.2-1.7.5-1.3.3.3.4 1.2.1 1.9m96.7.4c1 2.5.7 3.4-.9 3.4-.9 0-1.8.6-2.1 1.4s-1.2 1.7-2.1 2c-1.2.5-1.3 0-.8-2.7 1.2-5.3 4.5-7.7 5.9-4.1m-53.7 1c-.3.3-1.2.4-1.9.1-.8-.3-.5-.6.6-.6 1.1-.1 1.7.2 1.3.5M119 239c0 .5-.4 1-1 1-.5 0-1-.5-1-1 0-.6.5-1 1-1 .6 0 1 .4 1 1m14 1.5c2 5.4 2.3 7.5.8 7.5-.7 0-1.4-.8-1.4-1.8 0-.9-.4-3.2-.8-5-.9-3.8 0-4.3 1.4-.7m141.4 1.6c-3.7.7-4.2.2-1.8-1.5 1.5-1.1 2.2-1.2 3.3-.3 1.2 1 .9 1.3-1.5 1.8m-151.3.9c.5 0 .9.4.9 1 0 .5-.7.7-1.5.4-.8-.4-1.4-1.6-1.4-2.8.1-1.6.2-1.7.6-.4.2 1 .9 1.8 1.4 1.8m-3.8-.3c-.7.2-1.9.2-2.5 0-.7-.3-.2-.5 1.2-.5s1.9.2 1.3.5m8.4 3c-.3 1-.5.4-.5-1.2 0-1.7.2-2.4.5-1.8.2.7.2 2.1 0 3m18.8-.7c.3.5.2 1-.4 1-.5 0-1.3-.5-1.6-1-.3-.6-.2-1 .4-1 .5 0 1.3.4 1.6 1m-24.2 4c.3 1.1.2 2-.1 2-1.6-.1-4.2-2.9-4.2-4.4 0-2.3 3.6-.4 4.3 2.4m-13.3-.8c0 .5-.4.6-1 .3-.6-.4-1 .5-1 1.9s-.5 2.6-1.1 2.6-.9-.7-.5-1.5c.9-2.4-2.2-1.8-4.8 1-2.3 2.4-4.6 3.3-4.6 1.7 0-.4 1.2-1.6 2.7-2.7 1.4-1.1 3.6-2.7 4.7-3.6 2-1.6 5.6-1.5 5.6.3m26.2 5.3c-2.3 4.8-6.4 4.9-4.6.1.3-.9 1-1.4 1.4-1.1s1.3-.2 2-1c2.3-2.7 3-1.6 1.2 2m-11.1 3.5c.5 2.4.3 4-.8 5.5-1.5 1.9-1.5 1.8-.9-1.3.4-2.4.1-3.7-1.3-5.1-2.1-2.1-1.7-3.4.8-2.9.8.2 1.8 1.9 2.2 3.8m-19.1-2.3c-.1 1.9-1.6 3.1-2.9 2.4-.7-.5-1-1.4-.7-2 .8-1.2 3.6-1.5 3.6-.4m9 1.3c0 .5-.2 1-.4 1-.3 0-.8-.5-1.1-1-.3-.6-.1-1 .4-1 .6 0 1.1.4 1.1 1m-4.8 1.5c0 .5-.5 1.1-1.1 1.3s-1.1-.4-1.1-1.3.5-1.5 1.1-1.3 1.1.8 1.1 1.3m-7.7.5c.4.6.2 1.7-.4 2.4-1.4 1.6-.4 2.6 1.7 1.9 1.5-.4 1.5-.3.2.6-1.2.8-.8 1.1 1.8 1.1 1.7 0 3.2.4 3.2 1 0 2-5.6.9-8.5-1.6-1.6-1.4-4.2-2.8-5.7-3.1-3-.6-3.6-1.8-1.5-2.6 2.3-1 8.6-.7 9.2.3m-12 2c.4 1.1 1.1 1.8 1.6 1.5.5-.4.9-.2.9.4 0 .5.8 1.2 1.8 1.4 1 .3.6.5-1.1.6-1.6.1-3-.5-3.3-1.4-.4-.8-1.2-1.5-2-1.5-1.5 0-1.9-1.2-.7-2.3 1.2-1.2 2.2-.7 2.8 1.3m16.5 0c0 .5-.4 1-1 1-.5 0-1-.5-1-1 0-.6.5-1 1-1 .6 0 1 .4 1 1m4 2c0 .5-.7.7-1.5.4-.8-.4-1.5-.8-1.5-1s.7-.4 1.5-.4 1.5.4 1.5 1m-14.1 4.5c7.2 1.5 8.6 1.4 21.5-1.2 4.3-.8 2.4 1.4-2.2 2.6-4.9 1.3-15.9 1.5-20.2.3-4.9-1.2-10-4-10-5.4 0-.6.8-.4 1.8.5s5.1 2.3 9.1 3.2m8.6 7.4c.3.5.1 1.2-.5 1.6-.5.3-1-.1-1-.9 0-1.8.6-2.1 1.5-.7"/>
	<path d="M313.7 40.3c-.5 2.7-.6 5.1-.3 5.4.8.8 1.8-4.2 1.4-7.3-.3-2.4-.5-2-1.1 1.9M62.5 60c.3.5 1.1 1 1.6 1 .6 0 .7-.5.4-1-.3-.6-1.1-1-1.6-1-.6 0-.7.4-.4 1M153 80.4c0 .2.8 1 1.8 1.7 1.5 1.3 1.6 1.2.3-.4s-2.1-2.1-2.1-1.3M133 83.6c-1.4.8-1.8 1.3-1 1.3 2.4-.1 5.5-1.5 4.4-2.1-.5-.2-2 .1-3.4.8M132 88c.8.5 2 1 2.5 1 .6 0 .3-.5-.5-1s-1.9-1-2.5-1c-.5 0-.3.5.5 1M144 88c0 .5.5 1 1.1 1 .5 0 .7-.5.4-1-.3-.6-.8-1-1.1-1-.2 0-.4.4-.4 1M141.3 93.2c.1 2-.2 4-.6 4.4-1 1-.9 3.4.2 3.4 1.5 0 2.2-5.2 1.1-8.5l-.9-3zM105 94c0 .5.5 1 1.1 1 .5 0 .7-.5.4-1-.3-.6-.8-1-1.1-1-.2 0-.4.4-.4 1M128.1 94.8c-.1.7-.4 1.1-.8.9-.5-.3-.6 2.3-.4 5.6l.4 6.2.9-6c.4-3.3.6-6.5.4-7-.3-.6-.5-.4-.5.3M130.6 96.1c-.8 2.4-1.1 10.9-.4 10.9.3 0 .8-2.6 1-5.8.4-5.8.2-7.6-.6-5.1M124.1 97.6c0 1.1.3 1.4.6.6.3-.7.2-1.6-.1-1.9-.3-.4-.6.2-.5 1.3M107.2 102c0 1.9.2 2.7.5 1.7.2-.9.2-2.5 0-3.5-.3-.9-.5-.1-.5 1.8M110.2 101.5c0 1.6.2 2.2.5 1.2.2-.9.2-2.3 0-3-.3-.6-.5.1-.5 1.8M112 101c0 .5.5 1 1 1 .6 0 1-.5 1-1 0-.6-.4-1-1-1-.5 0-1 .4-1 1M119.1 101.6c0 1.1.3 1.4.6.6.3-.7.2-1.6-.1-1.9-.3-.4-.6.2-.5 1.3M104 102.1c0 .5-.4.8-.9.4-.5-.3-1.2-.1-1.5.4s.3 1.1 1.3 1.4c1.3.3 2.1-.1 2.4-1.4.3-1.1.1-1.9-.4-1.9s-.9.5-.9 1.1M63 114.4c0 .2.7.9 1.5 1.6.9.7 1.5.8 1.5.2 0-.5-.7-1.2-1.5-1.6-.8-.3-1.5-.4-1.5-.2M61 116.5c.7.8 1.7 1.5 2.2 1.5s.3-.7-.6-1.5c-.8-.8-1.8-1.5-2.2-1.5-.3 0-.1.7.6 1.5M308.8 133.3c-2.2 4.5-3.3 10.1-1.9 9.3.6-.4 1.1-1.6 1.1-2.7s.9-3.8 2-5.9c1.1-2.2 1.7-4 1.2-4s-1.5 1.5-2.4 3.3M298 135.9c0 .6.4 1.3 1 1.6s.7-.1.4-.9c-.7-1.8-1.4-2.1-1.4-.7M310 137c0 .5.5 1 1 1 .6 0 1-.5 1-1 0-.6-.4-1-1-1-.5 0-1 .4-1 1M314 142.5c0 .8 3.2 5.7 4.7 7.3 2.1 2.2 1.5.4-1.3-3.8-2.5-3.8-3.4-4.7-3.4-3.5M324.1 152.7c-1.1 1.2-1 1.4.5 1.1 1.3-.2 2 .4 2.2 1.9.4 2.5 1.2 2.9 2.8 1.3.6-.6 1.8.4 3.4 3 2.5 4.1 4 5.1 4 2.6 0-1.3-7.6-9.2-10.3-10.7-.7-.4-1.8 0-2.6.8M328.9 164c1.9 1.6 3.9 2.7 4.4 2.3 1.2-.7-4.3-5.2-6.3-5.2-.9 0-.1 1.1 1.9 2.9M338.1 168.6c0 1.1.3 1.4.6.6.3-.7.2-1.6-.1-1.9-.3-.4-.6.2-.5 1.3M129.1 126.6c0 1.1.3 1.4.6.6.3-.7.2-1.6-.1-1.9-.3-.4-.6.2-.5 1.3M286.2 128.4c-.6 1.3-1.4 4.1-1.7 6.3-.5 3.1-.2 2.7 1.5-2.1 2.1-5.9 2.3-8.7.2-4.2M291 138.5c0 1.9.2 3.5.4 3.5s.6-1.6.8-3.5 0-3.5-.4-3.5-.8 1.6-.8 3.5M294.4 146.6c.5 4.6.3 6.4-1 8.2-.9 1.3-1.3 3-.9 4 .6 1.5.8 1.4 2-.8 1.7-3.1 2-15.6.4-16.6-.9-.5-1 .9-.5 5.2"/>
	<path d="M292 150.4c0 .9.5 1.6 1 1.6.6 0 1-.4 1-.9 0-.6-.4-1.3-1-1.6-.5-.3-1 .1-1 .9M290.6 164.5c-.3.9-.6 2.2-.5 2.8 0 .7.5.1 1-1.2s.8-2.6.5-2.8c-.2-.2-.6.3-1 1.2M286.3 172.5c-.9 2.4.1 2.7 1.5.5.8-1.3.8-2 .2-2s-1.3.7-1.7 1.5M282 180.4c0 .9.5 1.6 1 1.6.6 0 1-.4 1-.9 0-.6-.4-1.3-1-1.6-.5-.3-1 .1-1 .9M284.3 186.4c.3.8.9 3.1 1.3 5.1.6 3.6 2.6 4.3 3.2 1.1.5-2.6-1.8-7.6-3.5-7.6-.9 0-1.3.6-1 1.4M279.5 190.9c.3.5.1 1.2-.5 1.6s-.8 1-.5 1.5c.3.4-.4 1-1.5 1.3s-1.8.1-1.4-.4c.3-.5-.2-.9-1-.9-1.2 0-1.3.5-.7 2.2.5 1.5.3 3.7-.5 6.2-.8 2.2-1.2 4.1-1 4.3.6.6 3.6-5.2 3.6-7 0-.7 1.1-2.3 2.5-3.5 2.5-2.2 3.4-6.2 1.4-6.2-.5 0-.8.4-.4.9M290.3 203.5c-.1 2.5.2 4.5.7 4.5.6 0 1-2 1-4.5 0-5.9-1.4-5.8-1.7 0M138 155c-.8 1.6-.8 2 .4 2 .8 0 2.3.3 3.3.6 1.6.5 1.6.4.2-.8-.9-.7-1.4-1.9-1.2-2.6.7-2-1.5-1.4-2.7.8M144 160c0 .5.6 1 1.4 1s1.7.6 1.9 1.2c.3.7.6.3.6-1 .1-1.6-.5-2.2-1.9-2.2-1.1 0-2 .4-2 1M136.8 161.7c.7.3 1.6.2 1.9-.1.4-.3-.2-.6-1.3-.5-1.1 0-1.4.3-.6.6M140 162c0 .5.5 1 1 1 .6 0 1-.5 1-1 0-.6-.4-1-1-1-.5 0-1 .4-1 1M136.3 164.7c.9.2 2.3.2 3 0 .6-.3-.1-.5-1.8-.5-1.6 0-2.2.2-1.2.5M146.2 167c0 1.4.2 1.9.5 1.2.2-.6.2-1.8 0-2.5-.3-.6-.5-.1-.5 1.3M127.1 166.9c-1.4.4-2.6 1.2-2.9 1.9-.5 1.7.9 1.4 3.8-.8 2.7-2.1 2.7-2.1-.9-1.1M139.8 168.7c.7.3 1.6.2 1.9-.1.4-.3-.2-.6-1.3-.5-1.1 0-1.4.3-.6.6M129 173c0 .5.7 1 1.6 1 .8 0 1.2-.5.9-1-.3-.6-1-1-1.6-1-.5 0-.9.4-.9 1M119.7 194c.3 1.1.9 2 1.3 2 .5 0 .6-.9.3-2s-.9-2-1.3-2c-.5 0-.6.9-.3 2M125.8 196.7c.7.3 1.6.2 1.9-.1.4-.3-.2-.6-1.3-.5-1.1 0-1.4.3-.6.6M162.5 158c-.4 1.2-.5 2.4-.2 2.7.3.2.8-.5 1.2-1.7s.5-2.4.2-2.7c-.3-.2-.8.5-1.2 1.7M164 160.5c0 .8-.5 1.5-1.1 1.5s-.4.7.5 1.5c1.3 1.3 1.3 1.9 0 5-.8 1.9-1.4 4-1.3 4.7 0 .7.8-.6 1.7-3 1.7-3.9 1.9-4.1 3.7-2.8 1.9 1.4 1.9 1.6.4 4.3-2.4 3.9-3.9 10.2-2.8 10.9.5.3.9-.3.9-1.2 0-1 1.4-4.2 3.1-7.2 2.2-3.9 2.7-5.8 2-6.5-.6-.6-1.1-2.2-1.1-3.5s-.4-2.1-1-1.7c-.5.3-.6 1.3-.3 2.3.5 1.4.3 1.4-1.6-.3-1.9-1.6-2-2.1-.8-2.3 1.9-.4 1.1-3.2-.9-3.2-.8 0-1.4.7-1.4 1.5M160.2 172c0 1.4.2 1.9.5 1.2.2-.6.2-1.8 0-2.5-.3-.6-.5-.1-.5 1.3M159.7 176.7c-1.4 5-1.8 9.5-.8 8.8.6-.3 1.1-2 1.1-3.6 0-1.7.5-3.9 1-5 .7-1.2.7-1.9.1-1.9-.5 0-1.2.8-1.4 1.7M170.1 177.8c-.7 1.3-1.1 2.8-.8 3.5.2.7.9.2 1.6-1.1s1.1-2.8.8-3.5c-.2-.7-.9-.2-1.6 1.1M166.6 194.5c.4.8.8 1.5 1 1.5s.4-.7.4-1.5-.4-1.5-1-1.5c-.5 0-.7.7-.4 1.5M227.2 205c0 1.9.2 2.7.5 1.7.2-.9.2-2.5 0-3.5-.3-.9-.5-.1-.5 1.8M148 233c-1.3.8-1.2 1 .3 1 .9 0 1.7-.5 1.7-1 0-1.2-.1-1.2-2 0M203.6 18.6c-.8 2.1-.8 2.4.3 2.4 1.2 0 2.2-2.8 1.2-3.5-.5-.3-1.2.2-1.5 1.1M325.8 27.7c.6.2 1.8.2 2.5 0 .6-.3.1-.5-1.3-.5s-1.9.2-1.2.5M261.1 32.7c.1 2.3.2 2.4.6.6.3-1.4 1.3-2.3 3.1-2.6 2.4-.4 2.4-.4-.5-.6-3-.1-3.3.2-3.2 2.6M267.1 43.2c-1.3 6.8-2.2 13.4-2 14.8.3 1.4 1.4-3.4 2.6-10.5 1.2-7.2 2.5-13.8 2.8-14.8.4-.9.3-1.7-.2-1.7s-1.9 5.5-3.2 12.2"/>
	<path d="M263.7 34c-.8 2.1-2.7 13-2.6 14.9 0 .9.9-2 2-6.4 1.6-7.2 2-12.3.6-8.5M265.6 37.1c-.4 2.3-.5 4.4-.2 4.6.2.2.7-1.4 1.1-3.7s.5-4.3.2-4.6c-.2-.3-.7 1.4-1.1 3.7M275.6 42.7c-2.2 12.9-2.6 14.6-3.2 14.1-.5-.6 2.2-19.3 3-20.7.4-.5.2-1.2-.3-1.5-.8-.5-3 9.9-4.5 21.7-.4 3.1-.2 3.6.8 2.8.7-.6 1.5-.8 1.9-.5.9.9 3-8.7 4.3-19.9 1-9.1-.2-6.6-2 4M279.5 36.2c-1.2 4-1.4 8.7-.4 9s-.3 14.1-2.8 28.8c-.3 2.2-.2 3.1.4 2.5.9-1 2.7-12.1 5.9-37 .5-3.8.4-3.9-1.1-2-1.6 2-1.6 2-1-.3.7-2.3-.3-3.2-1-1m1.2 7c-.3.7-.5.2-.5-1.2s.2-1.9.5-1.3c.2.7.2 1.9 0 2.5M295.6 37.1c-.9 4.5-1.7 16.3-1 15.7.7-.8 2.5-17 1.9-17.6-.2-.3-.6.6-.9 1.9M329.1 36.4c.3.3 3 .9 6 1.3 4 .6 5.4 1.2 5.4 2.5 0 2.8 1.2 3 1.7.3.3-1.4.1-2.8-.5-3.2-1.3-.8-13.4-1.7-12.6-.9M205.6 45.3c-1.2.9-1.5 1.6-.8 2.1.6.3 1.3.2 1.7-.4.3-.5 1.7-1 3-1 1.8 0 2.3.4 1.9 1.5-.4.9-1.9 1.5-3.5 1.5s-2.9.5-2.9 1c0 1.7 3 7 3.9 7 2 0 4.2-4.1 4.4-8.1.2-4.2.1-4.4-2.8-4.7-1.6-.2-3.9.3-4.9 1.1m5.2 6.4c-.4 2.2-2.2 2-2.6-.1-.2-1 .3-1.6 1.3-1.6s1.5.7 1.3 1.7M263.7 46.7c-1 3.3-2 13.8-1.2 13.1.4-.3 1.1-3.7 1.5-7.5.9-6.7.7-9.2-.3-5.6"/>
	<path d="M277 50.2c0 3.6.4 3.5 1.4-.5.4-1.6.2-2.7-.4-2.7-.5 0-1 1.4-1 3.2M67 52.6c0 1.7 1.7 2.7 2.5 1.5.3-.6 1.2-.8 2-.4.9.3 1.5-.1 1.5-.9 0-1-1.1-1.5-3-1.5-1.8 0-3 .6-3 1.3M259.8 54c-.3 1.9-.9 4.6-1.3 6-.3 1.5 0 1.1 1-1 .9-1.9 1.4-4.6 1.3-6-.3-2.1-.4-2-1 1M268 53c0 1.4-.3 3.5-.6 4.7-.4 1.3-.2 2.3.4 2.3 1.3 0 2.2-7.2 1.1-8.5-.5-.5-.9.1-.9 1.5M275.6 60.7c-.4 3.8-.9 8.4-1.2 10.3-.4 2.5-.2 3.1.5 2 1-1.6 2.7-19 1.9-19-.3 0-.8 3-1.2 6.7M73 56.6c0 .8.5 1.2 1 .9.6-.3 1-1 1-1.6 0-.5-.4-.9-1-.9-.5 0-1 .7-1 1.6M158.8 57.2c-4.2 2.4-4.8 3.8-1.8 3.8 1.1 0 2-.5 2-1 0-.6 1-1 2.2-1s1.8-.3 1.5-.7c-.4-.3-.2-1.2.4-2 1.7-1.9-.1-1.6-4.3.9M194.6 55.9c-.4.7-.5 1.5-.2 1.8.9.9 1.9-.4 1.4-1.8-.4-1.1-.6-1.1-1.2 0M281.1 61.2c-3.3 17.1-3.7 19.8-3 19.8 1.1 0 1.6-2.3 2.9-12 .7-4.7 1.4-8.7 1.6-8.9 1-1.1 1.2.8.4 4.4-.6 2.8-.5 4.2.3 4.7 2.6 1.6 3.7.8 3.8-3 0-2.3.3-3.1.7-2 .6 1.5.9 1.5 2.7.1 1.6-1.3 1.7-1.5.3-1-1 .4-1.8.3-1.8-.2s.9-1.1 2-1.4c1.5-.4 2 0 2 1.4 0 1-.4 1.9-1 1.9-.5 0-1 .5-1 1.1s1 .9 2.3.7c1.7-.2 2.2-.9 2-2.8-.1-1.7 0-1.9.4-.6.4 1.5.7 1.6 1.5.5.7-1.1.9-.9.5.8-.4 1.6.1 2.2 1.9 2.6 1.3.2 3.2-.2 4.1-.9 1.7-1.2 1.6-1.3-.4-1.4-1.2 0-2.5-.4-2.8-1-.4-.6.1-.7 1-.3 1.5.5 1.5.3.3-1.6-1.7-2.8-8-4.5-13.5-3.6-3.6.5-4.2.4-3.7-.9.4-1 .1-1.6-.9-1.6-1.1 0-1.9 1.6-2.6 5.2m4 5.9c-1 2.3-1 2.3-1-.7-.1-1.7.2-3.4.7-3.8 1.1-1.2 1.4 1.8.3 4.5M320.1 63.7c-1.3 6.8-1.4 10.1-.2 8.7.8-.9 2.5-14.4 1.8-14.4-.2 0-.9 2.6-1.6 5.7M272.5 65.7c-.3 3.2-.8 7.1-1.1 8.8-.3 2.5-.2 2.6.5.9C273 73 274.5 60 273.7 60c-.3 0-.8 2.6-1.2 5.7M268.3 63.1c-.3 1.2-1.1 1.8-1.9 1.5s-1.4.1-1.4 1c0 .8.5 1.2 1.1.9.7-.5.8.8.3 4.1-.8 6.2-1.4 6.8-1.5 1.8-.1-3.8-.2-3.8-.9-.9-1.3 5.2-1.1 6.5 1 6.5 1.4 0 2-.7 2-2.3 0-1.2.6-5 1.4-8.5.7-3.4 1.1-6.2.8-6.2-.2 0-.6.9-.9 2.1M73.6 62.9c-.3.5.1 1.4.9 2.1 1.3 1 1.5.9 1.5-.9 0-2.1-1.4-2.8-2.4-1.2M186.8 65.7c.7.3 1.6.2 1.9-.1.4-.3-.2-.6-1.3-.5-1.1 0-1.4.3-.6.6M269.7 66.4c-.4 1-.7 3.4-.6 5.4l.1 3.7.9-4.5c1-4.8.7-7.5-.4-4.6M72.5 67c.3.5 1.1 1 1.6 1 .6 0 .7-.5.4-1-.3-.6-1.1-1-1.6-1-.6 0-.7.4-.4 1M165.4 70.3c-.3.9-1.3 1.3-2.6.9-1.4-.3-1.9-.1-1.4.6.8 1.3 4.5 1.6 6.2.4.9-.5.8-1.1-.2-2-1.2-1.1-1.5-1-2 .1"/>
	<path d="M294.8 69.7c-8.3.6-7.1 1.8 1.4 1.6 9.7-.2 9.5-.2 7.8-1.3-.8-.5-1.9-.9-2.5-.8-.5.1-3.6.3-6.7.5M232 71.1c0 .5.5.7 1 .4.6-.3 1-.8 1-1.1 0-.2-.4-.4-1-.4-.5 0-1 .5-1 1.1M168 79c0 1.3 2 1.3 4 0 1.2-.8.9-1-1.2-1-1.6 0-2.8.4-2.8 1M261 79.3c.9.7 14.5 1.8 13.7 1.1-.4-.4-3.8-.9-7.5-1.2-3.7-.2-6.5-.2-6.2.1M177.4 81.5c-1 .8-1.4 1.4-.9 1.5 1.5 0 4-1.8 3.4-2.4-.3-.3-1.4.1-2.5.9M303.5 81c.3.5 1.1 1 1.6 1 .6 0 .7-.5.4-1-.3-.6-1.1-1-1.6-1-.6 0-.7.4-.4 1M263.5 84.1c-.4.6-.4 1.3-.1 1.6.3.4.6.1.6-.6 0-1 1.6-1.2 6.3-.7 4.1.3 5.3.2 3.7-.3-3.6-1.3-9.8-1.3-10.5 0M195.2 87c0 1.4.2 1.9.5 1.2.2-.6.2-1.8 0-2.5-.3-.6-.5-.1-.5 1.3M279.8 85.7c.7.3 1.6.2 1.9-.1.4-.3-.2-.6-1.3-.5-1.1 0-1.4.3-.6.6M219.5 87c-.3.5-.2 1 .4 1 .5 0 1.3-.5 1.6-1 .3-.6.2-1-.4-1-.5 0-1.3.4-1.6 1M247.8 86.7c.7.3 1.6.2 1.9-.1.4-.3-.2-.6-1.3-.5-1.1 0-1.4.3-.6.6M267.5 86.9c-1.3.5.3.8 4.5.9 4.4 0 5.8-.3 4.5-.8-2.5-1.1-6.4-1.1-9-.1M268.5 91.5c-2.4 1.1-2.6 1.4-.9 1.4 1.1.1 2.9-.6 4-1.4 2.4-1.8.8-1.8-3.1 0M293.7 92.5c-.4.8-.2 1.7.3 2 .6.4 1-.3 1-1.4 0-2.5-.6-2.7-1.3-.6M302.6 92.7c-.6 1.4-.5 1.5.5.6.7-.7 1-1.5.7-1.8s-.9.2-1.2 1.2M318 91.5c0 1.3 6.2 6.5 7.1 6 1.9-1.2.8-3.2-2.6-4.8-3.8-1.8-4.5-2-4.5-1.2M190.9 93.9c-1 .9-3.3 2.9-5.3 4.6-2 1.6-3.6 3.5-3.6 4.1s-.7 1.7-1.5 2.4-1.5 1.7-1.5 2.3 1.1 0 2.4-1.2c1.5-1.4 3-2 3.7-1.6.8.5 1 .4.5-.3-.4-.7-.2-1.2.5-1.2.6 0 .9-.8.6-2-.3-1.1-.1-2.3.4-2.6s.9.3 1 1.3c0 1.4.2 1.4.9-.5.5-1.2 1.4-2.2 1.9-2.2 1.3 0 3.3-3.7 2.4-4.3-.5-.2-1.5.3-2.4 1.2M196.6 92.9c-.3.4-.2 2.8.3 5.2s.9 3.4 1 2.3c.1-1.2.4-3.6.7-5.3.6-2.9-.7-4.4-2-2.2M258 93c0 .5.5 1 1 1 .6 0 1-.5 1-1 0-.6-.4-1-1-1-.5 0-1 .4-1 1M315.6 95.9c-.7 1.1.3 4.1 1.4 4.1.5 0 1.2-.5 1.5-1 .4-.6.1-.9-.7-.8-.7.2-1.2-.5-1.2-1.5.2-1.9-.2-2.2-1-.8M242.5 99c-.8 1.3.5 1.3 2.5 0 1.3-.8 1.3-1-.2-1-.9 0-2 .4-2.3 1M285 99c0 .5.7 1 1.6 1 .8 0 1.2-.5.9-1-.3-.6-1-1-1.6-1-.5 0-.9.4-.9 1M268.3 99.7c.9.2 2.3.2 3 0 .6-.3-.1-.5-1.8-.5-1.6 0-2.2.2-1.2.5M273.6 99.8c-.2.4 1.1.6 3 .4s3.4-.6 3.4-.8c0-.8-5.9-.4-6.4.4M301.1 100.6c0 1.1.3 1.4.6.6.3-.7.2-1.6-.1-1.9-.3-.4-.6.2-.5 1.3M319.6 100.6c-.5 1.4-.4 1.5.9.4 1.7-1.4 1.9-2 .6-2-.5 0-1.2.7-1.5 1.6M235.8 103.5c-6.3 4.6-6.2 6.3.2 2.3 2.8-1.7 5-3.7 5-4.4 0-1.8.3-1.9-5.2 2.1M306.5 101c-.3.5-.1 1 .4 1 .6 0 1.1-.5 1.1-1 0-.6-.2-1-.4-1-.3 0-.8.4-1.1 1M316 102c0 .5.5 1 1 1 .6 0 1-.5 1-1 0-.6-.4-1-1-1-.5 0-1 .4-1 1M323.5 103c-.8.9-1.5 2.2-1.5 2.8 0 .7-.4 1.2-1 1.2-.5 0-1 .7-1 1.5 0 2.8 2 1.5 4.2-2.8 2.1-4 2.2-4.1 2.8-1.7l.6 2.5 1.2-2.2c1.6-2.9 1.6-3.1-1.3-3.1-1.3 0-3.1.8-4 1.8M281.6 102.8c-.2.4-2.5 1.8-5.1 3.1-2.5 1.3-4.4 2.6-4.1 2.9.7.7 9.2-3.7 10.7-5.5.8-.9.8-1.3.1-1.3-.6 0-1.3.4-1.6.8M304 102.4c0 1.1 3 3.9 3.6 3.4.2-.3-.5-1.3-1.6-2.3s-2-1.5-2-1.1M334 104.9c0 .5.4 1.1 1 1.3.5.2.7 2 .3 4.2-.5 3.3-.8 3.6-1.8 2.3-.7-.9-1.6-1.2-2.4-.8-1 .6-.9 1 .3 1.4.9.4 1.6 1.1 1.6 1.7s-.4.9-.8.6c-.4-.2-1.4 0-2.2.5-1.1.8-1.2 1.2-.3 1.5 1.8.8.4 3.4-2.4 4.5-1.4.5-2.3 1.4-2.1 2.1.7 2 2.6 2 3.2.1.3-1 1.9-2.4 3.6-3.1 2-.9 3-2.1 3-3.5 0-1.6.3-1.8.9-.9.5.9 1-.7 1.3-4.5.5-5.4-.3-8.3-2.3-8.3-.5 0-.9.4-.9.9M280 110.1c-1.9 1.1-4.5 1.9-5.7 1.9-1.3 0-2.3.4-2.3.9s-1 1.2-2.2 1.4c-2.3.4-2.3.4.1.6 2 .1 2.1.3 1.1 1.6-.7.8-.9 1.5-.5 1.5s1.5-1.1 2.6-2.3c1-1.3 3.8-3.2 6.4-4.1 2.5-1 4.5-2.2 4.5-2.7s-.1-.8-.2-.8c-.2.1-1.9 1-3.8 2M396.5 108.9c-1.6.3-2.5.9-2 1.2.6.3 3.5 0 6.5-.7 4.5-1 4.9-1.2 2-1.2-1.9 0-4.8.3-6.5.7M412.5 110.4c3.5 1.8 6.4 2.1 4.9.6-.5-.5-2.5-1.2-4.4-1.5l-3.5-.5zM264.4 111.5c-2.5 1.9-1.5 1.9 2.7 0 2.5-1 2.9-1.4 1.3-1.5-1.1 0-2.9.7-4 1.5M385.1 111.9c-.7.5-.9 1.1-.4 1.4.6.4 1.9 0 2.9-.8 1.5-1.1 1.6-1.4.4-1.5-.8 0-2.1.4-2.9.9M233.3 114c-2.3.9-3.2 3-1.3 3 .6 0 1-.5 1-1.1 0-.8.5-.8 1.5.1 1.3 1 1.5.9 1.5-.9 0-1.1-.1-2.1-.2-2-.2 0-1.3.4-2.5.9M257.3 114.1c.4 1.2-.1 1.9-1.6 2.2-10.4 2.5-15 3.9-16.8 4.9-1.7 1-2.3 1-2.6.1-.3-1-.9-.9-2 .3-1.1 1-2.6 1.4-4.3 1-3.7-.7-7 .3-7 2.1 0 1.1.5 1.3 1.8.8.9-.5 5.1-1.2 9.2-1.8 4.1-.5 7.7-1.3 8-1.6 1.1-1.3 6.2-3.1 9.1-3.1 3.5 0 9.6-2.9 8.3-3.9-.5-.3-1.3-1.1-1.8-1.6q-.9-.9-.3.6M421 113.7c0 .6 1.1 2.4 2.4 4 1.2 1.5 2.1 3.3 1.9 4-.2.6.1 1.5.8 1.9.9.5 1 .2.6-.9-1-2.6.8-2 2.2.7.8 1.3 1 2.9.7 3.5-.4.6-.1 1.1.8 1.1.8 0 2 1.6 2.7 3.5.8 2.1 1.7 3.1 2.2 2.6 1.4-1.4-4.8-12.2-9.9-17.2-2.4-2.4-4.4-3.8-4.4-3.2M355 119c0 .5.7.7 1.5.4.8-.4 1.5-.8 1.5-1s-.7-.4-1.5-.4-1.5.4-1.5 1M397.5 119.9c-.4.7.5 1.1 2.4 1.1 1.7 0 3.1.5 3.1 1.1 0 .5-.8.9-1.7.8-3.7-.3-5.2.2-5.7 1.8-.3 1-.4.6-.2-.9l.3-2.8-3.4 2.1c-1.8 1.2-4 1.8-4.8 1.5-.9-.3-2.5.4-3.6 1.5-1.7 1.7-1.9 2.3-.8 3 2.1 1.3-.2 4.3-3.7 4.9-2.8.5-4.1 2.7-4.3 7.7-.1 1.6.3 2 1.9 1.6 1.1-.3 2-.1 2 .5 0 .5-.9 1.2-1.9 1.5-1.4.3-2.1 1.7-2.6 4.9-.9 5.9-.5 7.6 2.8 11.2 1.5 1.7 2.7 3.6 2.7 4.3s.6 1.3 1.4 1.3c.7 0 3.4 1.1 6 2.5 5.5 2.9 5.6 2.9 5.6 1.1 0-.8-1.5-2-3.4-2.7-2-.7-3.7-2.1-4-3.3-.8-2.9-.3-3 4.5-.7 5.3 2.6 5.7 2.6 3.4.1-.9-1-2-1.8-2.4-1.8-2.8.7-6-2.7-6.1-6.5 0-1.7 1.8-.5 2.5 1.5.4 1.6.8 1.9 1.2 1 .7-1.8-1.7-6.2-3.3-6.2-1.5 0-2.3-4-1.3-6.6.7-1.7.8-1.7.8.4.1 1.5.5 2.1 1.3 1.6.7-.4.8-.3.4.4s.2 2.2 1.4 3.4c1.1 1.3 2.3 3.4 2.7 4.8.6 2.8 3.1 6 4.6 6 .5 0 .2-1.1-.7-2.5-1.8-2.7-2.1-6.5-.6-6.5.6 0 1-.6 1-1.4s2-1.9 4.8-2.6c5-1.4 8.6-3.6 4.2-2.7-1.4.3-4 1.1-5.7 1.8-2.6 1-3.5 1.1-4.5.1-.9-.9-.5-1.2 2.1-1.2 1.8 0 3-.4 2.7-.8-.3-.5 2.7-1.4 6.7-2 5.9-.9 7.4-.8 8.7.3 1 .9 2.1 1.1 2.9.5 1-.6.3-1.3-2.7-2.8-2.3-1.1-4.4-1.6-4.8-1.1-.3.5-1.6.9-3 .9s-2.3-.4-1.9-1c.3-.5 1.2-.7 2-.3 2.1.7 1.9-1.4-.2-2.6-2.4-1.4-1.1-1.4 2.4 0 5.9 2.4 7.9 3.4 9.5 4.7 1.2 1 1.8 1 2.3.2.4-.7.1-1.6-.6-2.1-1.2-.8-1.2-1 .1-1.8 1.2-.8 1.2-1.3-.3-2.9-1-1.1-2-3.4-2.2-5.2-.3-1.8-1.4-3.9-2.5-4.7s-2-2-2-2.8c0-2.3-14.2-5.6-15.5-3.6m12 3.1c-.3.5.1 1 .9 1 .9 0 1.6.7 1.6 1.5 0 1.2-.5 1.1-3-.3s-2.7-1.8-1.2-2.4c2.4-.9 2.4-.9 1.7.2m-1 4.5c3.2 2.6 2.2 3.5-1.1 1-1-.8-2.7-1.5-3.6-1.5s-2-.5-2.3-1c-1.3-2 4.1-.9 7 1.5m-20-.5c-.3.5-1.1 1-1.6 1-.6 0-.7-.5-.4-1 .3-.6 1.1-1 1.6-1 .6 0 .7.4.4 1m2.8 3.1c-.8 1.6-1.7 2.8-1.9 2.6-.7-.7 1.5-5.7 2.5-5.7.5 0 .3 1.4-.6 3.1m-3.3 1.5c0 .8-.4 1.2-1 .9-.5-.3-1-1.3-1-2.1s.5-1.2 1-.9c.6.3 1 1.3 1 2.1m18.2-1.4c.3.8 2.1 1.2 4.6 1.2 4.4-.1 5.7 1 2.2 1.9-1.1.3-2 1.2-2 2.1s-.2 1.6-.5 1.6c-1.3 0-5.5-2.4-5.5-3.2 0-.5.9-.4 2.1.2 3.4 1.9 3.4.2 0-1.7-3-1.7-4-3.3-2.2-3.3.5 0 1.1.6 1.3 1.2m-11.2 5c0 .5-.4.8-1 .8-.5 0-1-1-1-2.3 0-1.8.2-1.9 1-.7.5.8 1 1.8 1 2.2m8.5.6c-.7.8-3.5-1.3-3.5-2.6s.3-1.2 1.9.4c1 1 1.7 2 1.6 2.2m-4.3 1.4c-.9.9-1.2.7-1.2-1.2s.3-2.1 1.2-1.2.9 1.5 0 2.4m17.1-1.8c.9.7 1.7 1.9 1.7 2.7 0 1-.3 1-1.1.2-.6-.6-1.8-.9-2.5-.6-.9.3-1.4-.2-1.4-1.6 0-2.4.8-2.6 3.3-.7m-35.9 1.1c-.4.8-1.1 1.2-1.6.8-.7-.4-.9.4-.6 2 .3 1.5.1 2.4-.3 2.1-.5-.3-.9-1.8-.9-3.5 0-2.2.5-2.9 2-2.9 1.3 0 1.8.5 1.4 1.5m3.6 4c0 .5-.5.3-1-.5s-1-2-1-2.5c0-.6.5-.3 1 .5s1 1.9 1 2.5m4-.5c0 .5-.5 1-1.1 1-.5 0-.7-.5-.4-1 .3-.6.8-1 1.1-1 .2 0 .4.4.4 1m6-.6c0 .2-.7.6-1.5 1-.8.3-1.5.1-1.5-.4 0-.6.7-1 1.5-1s1.5.2 1.5.4m8.6 2.7c.3.5-.6.9-2 .9-2.4 0-4.1-1.2-3-2.3.7-.7 4.3.3 5 1.4M392 150c0 .5-.4 1-1 1-.5 0-1-.5-1-1 0-.6.5-1 1-1 .6 0 1 .4 1 1m-9.3 2.2c-.3.8-.6.5-.6-.6-.1-1.1.2-1.7.5-1.3.3.3.4 1.2.1 1.9m.8 2.8c.3.5.1 1-.4 1-.6 0-1.1-.5-1.1-1 0-.6.2-1 .4-1 .3 0 .8.4 1.1 1m-3.2 3.8c-.5 2.2-2.3 3.1-2.3 1.2 0-1 2.3-4 2.7-3.6.1.1 0 1.2-.4 2.4m4.7 1.2c0 .5-.4 1-1 1-.5 0-1-.5-1-1 0-.6.5-1 1-1 .6 0 1 .4 1 1M261.7 123.9c-.4 1.7-.3 2.1.5 1.3.5-.5.8-1.6.6-2.3-.3-.8-.7-.3-1.1 1M332 123c-1.3.8-1.2 1 .3 1 .9 0 1.7-.5 1.7-1 0-1.2-.1-1.2-2 0M358.3 122.7c.9.2 2.3.2 3 0 .6-.3-.1-.5-1.8-.5-1.6 0-2.2.2-1.2.5M194 131.5c0 4.3.3 7.5.7 7.2.7-.7.4-13.9-.3-14.6-.2-.2-.4 3.1-.4 7.4M415 124.4c0 .2.7.7 1.6 1 .8.3 1.2.2.9-.4-.6-1-2.5-1.4-2.5-.6M254.1 126.3c-.7.9-1.1 2.4-.9 3.4.3 1.6.5 1.5 1.7-.5 1.5-2.9 1-5-.8-2.9M329.6 126.7c-.6 1.4-.5 1.5.5.6.7-.7 1-1.5.7-1.8s-.9.2-1.2 1.2M368.4 130.4c-1.4 3.1-2.4 6.2-2.1 6.9.2.6.9-.6 1.6-2.8s2-5.1 2.8-6.3c.8-1.3 1.2-2.6.9-2.9-.3-.4-1.7 1.9-3.2 5.1M219.5 128c-2.2 2.4-1.4 3.6 1.4 2.1 1.2-.7 1.8-1.7 1.5-2.6-.8-1.9-.7-1.9-2.9.5M248.8 128c-2.2 2-2.3 3-.4 3 .8 0 1.8-.9 2.1-2.1.9-2.7.4-3-1.7-.9M277 126.7c0 .6-1 1.4-2.2 1.7l-2.3.7 2.4 1c1.3.5 2.6.7 2.9.4s0-.5-.8-.5c-1 0-1-.3 0-1.5.7-.9 1-1.8.6-2.2-.3-.3-.6-.2-.6.4M372.5 129c-.4 1.7-.5 3.4-.2 3.6.2.3.7-1 1.1-2.7.8-4.2 0-5-.9-.9M377 130.5c0 .8.2 1.5.4 1.5s.6-.7 1-1.5c.3-.8.1-1.5-.4-1.5-.6 0-1 .7-1 1.5"/>
	<path d="M379.6 131.5c-.3.8-.1 1.5.4 1.5.6 0 1-.7 1-1.5s-.2-1.5-.4-1.5-.6.7-1 1.5M242.8 132.8c-.9.9-2.4 2.3-3.3 3-1.2 1.1-1.3 1.7-.4 2.8 1.5 1.9 4.9 1.8 4.9-.1 0-.8-.4-1.5-1-1.5-.5 0-1 .5-1 1.2 0 .9-.3.9-1.1.1-1.3-1.3-.4-3.3 1.6-3.3.7 0 1.6-.7 1.9-1.6.9-2.4.3-2.6-1.6-.6M267.8 131.7c-1 .2-1.8.9-1.8 1.4 0 1.4 1.6 1.1 3-.6.7-.8 1.1-1.4.9-1.4-.2.1-1.2.3-2.1.6M273 132c0 .5.5 1 1 1 .6 0 1-.5 1-1 0-.6-.4-1-1-1-.5 0-1 .4-1 1M225.6 134.3c-.4 1.9-.2 3.3.8 4.2.8.8 2.4 3 3.6 5 2.2 3.5 4 4.6 4 2.3 0-.7-1.1-2.4-2.5-3.8-1.3-1.4-3.1-4.3-3.8-6.5l-1.4-3.9zM233 132.6c0 .3.7 1.2 1.5 2 1.3 1.4 1.5 1.3 1.5-.5 0-1.2-.6-2.1-1.5-2.1-.8 0-1.5.3-1.5.6M246.4 134.5c-.9 1.4-1.4 2.8-1.1 3.2.7.6 4.6-3.6 4.7-5 0-1.6-2-.6-3.6 1.8M419 132.8c0 .5 1.1 1.9 2.5 3.2 2.8 2.6 3.3 1.6.9-1.8-1.5-2.2-3.4-3-3.4-1.4M429.6 133.5c.4.8 1 1.5 1.5 1.5.4 0 .6-.7.3-1.5-.4-.8-1-1.5-1.5-1.5-.4 0-.6.7-.3 1.5M262.5 136.1c-.4.6-.5 1.2-.2 1.5.2.3.7-.2 1-1.1.7-1.7.1-2-.8-.4M368.7 137.9c-.4 1.8-.6 5-.6 7 .1 3 .3 2.7 1-1.9 1.1-6.1.7-10.4-.4-5.1M102.1 136.4c.2.2 2.7.6 5.4.9 3.2.4 4.3.3 3-.3-1.9-.8-9.3-1.4-8.4-.6M232.1 137c.1 2.4 1.5 5.4 2.1 4.4.4-.5 0-2-.8-3.4-.7-1.4-1.3-1.8-1.3-1M433 138c0 .5.5 1 1.1 1 .5 0 .7-.5.4-1-.3-.6-.8-1-1.1-1-.2 0-.4.4-.4 1M80 139c-1 .7.1.8 3.5.4 2.8-.4 5.2-.8 5.4-1 1-.9-7.5-.3-8.9.6M360.5 139.1c-1.6.6-1.4.8 1.2.8 3.1.1 3.2.2 2.6 3.8-.4 2.6-.3 3.4.5 2.9.7-.4 1.2-2.2 1.2-4 0-3.7-2-4.9-5.5-3.5M92 140c0 .5.5 1 1 1 .6 0 1-.5 1-1 0-.6-.4-1-1-1-.5 0-1 .4-1 1M424.3 144.5c.1 3.3-.1 7.3-.6 9l-.7 3 1.5-2.5c1.6-2.8 2-11.7.5-14-.7-1.1-.9.3-.7 4.5M195.2 145.2c-.1 3.3.2 5.8.8 5.8s1 .7 1 1.5-.4 1.5-.9 1.5c-.6 0-.8 4.6-.6 11 .2 6.7 0 10.8-.6 10.5-.5-.4-.9.3-.9 1.4 0 1-.3 2.6-.6 3.5-.4 1-.1 1.6.9 1.6 1.1 0 1.7-1.5 2.2-5.8.3-3.1 1-6.6 1.4-7.7.4-1 .3-3.2-.3-4.7-.7-2-.7-3.7.2-6.1 1.6-4.4 1.5-7.2-.2-8.7-.8-.6-1.7-3-1.9-5.3-.3-3.6-.4-3.3-.5 1.5M87.8 141.7c.7.3 1.6.2 1.9-.1.4-.3-.2-.6-1.3-.5-1.1 0-1.4.3-.6.6M224.7 142.4c-.3.7.8 2.6 2.4 4.2 3.4 3.3 3.7 2.5.8-2.2-2.3-3.8-2.5-3.9-3.2-2M248.4 142.4c.7.6 1.5 1.6 1.7 2.2.2.7 1.3.2 2.6-1l2.3-2.1-4-.1c-3.1-.1-3.7.1-2.6 1M203.1 144.6c0 1.1.3 1.4.6.6.3-.7.2-1.6-.1-1.9-.3-.4-.6.2-.5 1.3M183.9 144.5c-.3.5-.6 2.6-.7 4.5-.1 3.3 0 3.3.9 1 1-2.5.9-7.3-.2-5.5M238 145.5c-.7.9-.9 1.9-.5 2.3s1 .1 1.2-.6c.7-1.8 2.3-1.5 2.3.5 0 1.4.9 1.8 4.5 2 3.3.1 4.5-.2 4.5-1.3 0-.8-1-1.4-2.6-1.4-1.9 0-2.5-.4-2-1.5.6-1.8-.5-2-2.2-.3-.8.8-1.5.8-2.5-.1-1.1-.9-1.7-.8-2.7.4M104.8 147.7c1.2.2 3 .2 4 0 .9-.3-.1-.5-2.3-.4-2.2 0-3 .2-1.7.4M255.6 149.4c-2 3.1-.3 4.4 1.8 1.4.9-1.2 1.6-2.6 1.6-3 0-1.6-1.8-.7-3.4 1.6M269.2 149c-1.2 1.1-2.6 2-3.2 2-.5 0-1 .6-1 1.4 0 .7-.9 1.6-2 1.9-1.7.4-3 3.7-1.5 3.7 1.1 0 10.9-9.9 10.4-10.4-.3-.3-1.5.3-2.7 1.4M34.6 149.5c-2.5 1.9-.9 1.9 2.4 0 1.4-.8 1.9-1.4 1-1.4-.8 0-2.4.6-3.4 1.4M406 149.5c-1.1 1.3-1 1.4.4.9.9-.3 1.6-1 1.6-1.5 0-1.3-.6-1.1-2 .6M49.3 150.5c-.8 2.3.7 3.3 1.8 1.2 1.6-2.8 3.2-.9 2.4 2.9-.3 2.1-.2 3.4.5 3.4.5 0 1-1 1-2.2 0-3.3 1-1.5 1.6 2.8.2 2.2.9 4 1.4 4.2 1.4.5 1.2 3-.3 3.9-1.8 1.1-2.8 4.1-1.7 4.8.6.4 1-.3 1-1.4q0-2.1 1.5-1.5c1.2.5 1.5-.2 1.5-2.8 0-1.9-.5-3.9-1.2-4.6-.9-.9-.7-1.2 1-1.2h2.1l-2.4-3.6c-2.6-3.8-6.7-7.4-8.4-7.4-.7 0-1.4.7-1.8 1.5M413.7 149.7c-.4.4.5 1.9 1.9 3.4 2.7 2.8 2.5 6.1-.2 3.8-.8-.6-1.4-.8-1.4-.4 0 1.7 3.5 3.3 4.7 2.3 1.8-1.4 1.6-2.5-.7-5-1.1-1.2-2-2.8-2-3.5 0-1.4-1.2-1.7-2.3-.6M410.7 150.6c-.4.4-.7 1.7-.7 2.9 0 1.1-.5 2.6-1.2 3.3-.8.8-.8 1.2-.1 1.2 1.2 0 3.7-5.4 3.1-7-.2-.6-.7-.8-1.1-.4M436.7 151.3c-.4 1.1-1.2 1.5-1.9 1.1-.8-.5-.9-.2-.5 1 .4 1 .7 2 .7 2.3 0 .2.7-.3 1.6-1.1.8-.9 1.4-2.4 1.2-3.4-.3-1.6-.4-1.6-1.1.1M83.5 152c-2.5 1.1.1 1.1 3.5 0 2-.6 2.1-.8.5-.8-1.1 0-2.9.3-4 .8M397.3 152.7c-1.3.2-2.3.9-2.3 1.4 0 1.4 3.4 1.1 5.6-.6 2-1.5 1.3-1.7-3.3-.8M406.2 153.6c-.7.8-.8 1.4-.3 1.4 1 0 2.5-1.9 2-2.5-.2-.1-1 .3-1.7 1.1M234.5 154.9c-2.2 1.1-3.5 2-2.8 2 .7.1 2.8-.6 4.7-1.6 3.5-1.6 3.6-1.6 9.6 1.6 6.9 3.7 8.2 2.6 1.6-1.3-5.3-3.1-7.7-3.2-13.1-.7M274.3 157.7c-.3 1-.8 2.2-1.1 2.7s0 .6.5.3c1.1-.7 2.5-4.7 1.7-4.7-.3 0-.7.8-1.1 1.7M264.6 158.6c-2.2 2.1-2 2.7.6 2.1 1.2-.4 2.8-.1 3.5.5 1 .8 1.3.6 1.3-.5 0-2.6-3.6-4-5.4-2.1M402 158c-.9.6-1 1-.3 1 .6 0 1.5-.5 1.8-1 .8-1.2.4-1.2-1.5 0M422.1 158.6c0 1.1.3 1.4.6.6.3-.7.2-1.6-.1-1.9-.3-.4-.6.2-.5 1.3M397.6 160.5c-1.7 1.8-2 2.8-.9 3.8.3.4 1.2-.5 2-2 1.6-3.1 1.1-4-1.1-1.8M405.9 162.9c-1.4 3.2-2.4 3.8-3.4 2.1-.4-.6-1.1-.7-1.7-.4-.7.5-.4 1.2.7 2.1 2.3 1.6 4.5 1.7 4.5.1 0-.6.7-1.9 1.4-2.7.9-1 1.2-2.2.7-3-.6-.9-1.2-.5-2.2 1.8M431.5 161c-.3.6.1.7.9.4 1.8-.7 2.1-1.4.7-1.4-.6 0-1.3.4-1.6 1M92.8 161.7c.6.2 1.8.2 2.5 0 .6-.3.1-.5-1.3-.5s-1.9.2-1.2.5"/>
	<path d="M54 162.7c0 .4.5 1.5 1 2.3.8 1.3 1 1.3 1-.2 0-.9-.4-2-1-2.3-.5-.3-1-.3-1 .2M76.5 163c-.3.5.1 1 .9 1 .9 0 1.6-.5 1.6-1 0-.6-.4-1-.9-1-.6 0-1.3.4-1.6 1M190.2 164c0 1.4.2 1.9.5 1.2.2-.6.2-1.8 0-2.5-.3-.6-.5-.1-.5 1.3M44.6 164.6c-.9.8-1.6 2.1-1.6 2.7-.1.7-1.2 2.5-2.6 4.2-1.5 1.7-2.4 2.2-2 1.2.3-.9.1-1.7-.4-1.7-1.1 0-1.2 1.7-.1 4.4.7 1.7.8 1.6 2.4-.7.9-1.5 1.7-3.1 1.7-3.7 0-.5.5-1 1-1 .6 0 1 .4 1 1 0 1.6 1.7 1.2 2.4-.6.3-.8.2-1.2-.4-.9-1.7 1-1.1-2.7.7-4.7 2-2.2.1-2.4-2.1-.2M71 164c0 .5.9 1 2 1s2-.5 2-1c0-.6-.9-1-2-1s-2 .4-2 1M98.5 164c.3.5 1 1 1.6 1 .5 0 .9-.5.9-1 0-.6-.7-1-1.6-1-.8 0-1.2.4-.9 1M201.2 165.7c-.1 1.7-.5 4-.8 5-.5 1.7-.5 1.7.6 0 .6-.9.9-3.2.7-5l-.4-3.2zM207.2 166.5c0 2.2.3 4.9.8 6l.9 2v-2c0-1.1-.4-3.8-.8-6l-.9-4zM251.9 164.1c-1 .6-.7.9 1.4.9 2.9 0 3.5-.5 1.4-1.3-.8-.3-2-.1-2.8.4M63.5 165c-.7 1.2.2 1.2 3 0 1.9-.8 1.9-.9-.2-.9-1.2-.1-2.5.3-2.8.9M413.5 168.6c-2.2 2-3.1 3.2-2 2.6 1.9-1 7.3-6.2 6.4-6.2-.2 0-2.2 1.6-4.4 3.6M95 167c-.9.6-1 1-.3 1 .6 0 1.5-.5 1.8-1 .8-1.2.4-1.2-1.5 0M243 166.9c0 .5.7 1.5 1.7 2.2 1.5 1.3 1.5 1.2.4-.9-1.2-2.3-2.1-2.8-2.1-1.3M239 170.7c1.1 2.1 2 5 2 6.6 0 1.5.4 2.6.9 2.3 1.8-1.1-1.8-12.6-3.9-12.6-.6 0-.1 1.7 1 3.7M247 168.5c0 .8.4 1.5 1 1.5.5 0 .7-.7.4-1.5-.4-.8-.8-1.5-1-1.5s-.4.7-.4 1.5M395.5 168c-.3.5-.1 1 .4 1 .6 0 1.1-.5 1.1-1 0-.6-.2-1-.4-1-.3 0-.8.4-1.1 1M87.5 169c.3.5 1.6 1 2.8.9 2.1 0 2.1-.1.2-.9-2.8-1.2-3.7-1.2-3 0M98.2 168.9c-1.1.7-1.1.9 0 1.3 1.8.7 3.9-.2 3.2-1.3-.6-1.1-1.5-1.1-3.2 0M252 170.2c.1 1.4 2.4 4.8 3.3 4.8.3 0 0-1.4-.6-3-1.1-3-2.7-4.1-2.7-1.8M403.5 172c-1.6.7-1.1.9 2 .9 2.9.1 3.6-.2 2.5-.9-1.7-1.1-1.9-1.1-4.5 0M50.2 173.2c-.6.7-1.3 2.7-1.7 4.3-.6 2.8-.5 2.8 1.5-.8 2.1-3.9 2.3-5.9.2-3.5M250.1 176.5c0 1.6.4 5.2.9 8l.7 5v-6.7c0-3.7-.4-7.3-.9-8-.5-.8-.7-.2-.7 1.7M198 176.5c0 .8.2 1.5.4 1.5s.6-.7 1-1.5c.3-.8.1-1.5-.4-1.5-.6 0-1 .7-1 1.5M207.4 180c.4 3.8.3 4.7-.3 3-.9-2.4-.9-2.3-1 .8-.1 1.8.3 3.1.8 2.8 1.4-.9 1.8 4.6 1.1 14.6-.7 8.8-.6 10.7.5 9.7.2-.3.6-7.4.9-16 .3-12.3.1-15.9-1-17.9-1.4-2.3-1.4-2.2-1 3M62.8 176.7c1.2.2 3 .2 4 0 .9-.3-.1-.5-2.3-.4-2.2 0-3 .2-1.7.4M257 177.4c0 .8.5 1.8 1 2.1.6.3 1-.1 1-.9s-.4-1.8-1-2.1c-.5-.3-1 .1-1 .9M426.4 177.4c-.3.8-.4 2.3-.2 3.3.3 1.3.7.9 1.5-1.5 1.2-3.1-.1-4.8-1.3-1.8M211.1 184.7c0 3.4.4 6.5.9 6.8 1.2.7 1.2-3.4.1-9-.8-3.8-.9-3.7-1 2.2M432 181.3c.1 1.4 6.9 5.1 7.8 4.2.6-.6-3.1-3.6-6-4.7-1.1-.5-1.8-.3-1.8.5M27 183.5c-1.3 1.4-2.1 2.7-1.8 3 .2.3 1.5-.6 2.8-2s2.1-2.7 1.8-3c-.2-.3-1.5.6-2.8 2M90 184.1c0 2.3 2.7 5.5 3.8 4.4.4-.3-.2-1.3-1.2-2.1-1.7-1.2-1.7-1.4-.3-1.4 1 0 1.4-.5 1.1-1.5-.9-2.2-3.4-1.8-3.4.6M104.2 184.6c-1.2.8-2.2 2-2.2 2.6s.8.4 1.8-.5c2.2-2 5.4-.5 4.5 2.1-.5 1.4-.3 1.5.7.5 1.1-1 1.1-1.8.2-3.8-1.3-2.9-2-3-5-.9M196 184.6c0 .8.5 1.2 1 .9.6-.3 1-1 1-1.6 0-.5-.4-.9-1-.9-.5 0-1 .7-1 1.6M49.8 184.7c.6.2 1.8.2 2.5 0 .6-.3.1-.5-1.3-.5s-1.9.2-1.2.5M42 186c-.8.5-1.2 1.1-1 1.4.3.2 1.4-.2 2.4-1 2.2-1.5 1-1.9-1.4-.4M62 186.5c0 .8.2 1.5.4 1.5s.6-.7 1-1.5c.3-.8.1-1.5-.4-1.5-.6 0-1 .7-1 1.5M111.6 187.6c-.4 1.5-.2 3.2.3 3.7.8.8 1.1 0 1.1-2.6 0-4.4-.5-4.7-1.4-1.1M18.8 186.7c.7.3 1.6.2 1.9-.1.4-.3-.2-.6-1.3-.5-1.1 0-1.4.3-.6.6M428.8 189.2c2.3 2.3 3.9 2 2.9-.7-.4-.8-1.7-1.5-2.9-1.5h-2.2zM53 190.5c.1 2.6.2 2.8 1.1 1.2.8-1.4.8-2.2 0-3s-1.1-.3-1.1 1.8M58.5 189c-.3.5-.1 1 .4 1 .6 0 1.1-.5 1.1-1 0-.6-.2-1-.4-1-.3 0-.8.4-1.1 1M257 188.8c0 1 2.2 3.2 3.2 3.2.5 0 .3-.9-.4-2-1.3-2-2.8-2.7-2.8-1.2M363.5 189c.3.5 1.6 1 2.8 1 1.8 0 1.9-.2.7-1-2-1.3-4.3-1.3-3.5 0M388.2 189.7c.7 2.8.1 2.9-2.5.5-1.5-1.3-1.8-1.3-1.3-.2.3.8.9 2.3 1.2 3.2s1.2 1.9 1.9 2.2c.9.3 1.2 0 .8-1s0-1.2 1.1-.8c2.2.8 2.2-2.9-.1-4.7-1.5-1.3-1.6-1.2-1.1.8M420.9 188.5v4c.2 2.3 0 2.7-.8 1.5-.6-.8-1.1-2.3-1.1-3.3 0-.9-.5-1.7-1.1-1.7-.7 0-.9.9-.5 2.4s0 2.8-.9 3.6c-1.7 1.4-2 4-.5 4 .6 0 1-.5 1-1 0-.6.4-1 .8-1s.6 1.6.4 3.6c-.6 4.7 1.3 3.8 2.2-1.1.4-1.9 1.4-3.8 2.2-4.3 1.3-.7 1.3-1.2 0-4.3-.8-1.9-1.6-3-1.7-2.4M94 190c-.8.5-1.2 1.1-.9 1.4.2.3 1.1.1 1.9-.4s1.2-1.1.9-1.4c-.2-.3-1.1-.1-1.9.4M195.6 190.7c-.6 1.4-.5 1.5.5.6.7-.7 1-1.5.7-1.8s-.9.2-1.2 1.2M359.8 189.7c.7.3 1.6.2 1.9-.1.4-.3-.2-.6-1.3-.5-1.1 0-1.4.3-.6.6M48.7 190.6c-1.5 1.5-.6 3.4 1.6 3.4 1.2 0 1.7-.3 1.1-.8-.6-.4-1.3-1.3-1.5-2-.3-.7-.8-1-1.2-.6M103.8 190.7c.7.3 1.6.2 1.9-.1.4-.3-.2-.6-1.3-.5-1.1 0-1.4.3-.6.6M371 190.8c0 .5 1.1 1.4 2.5 2 2.4 1.1 3.5 4.2 1.5 4.2-.5 0-1 1.3-1 3 0 1.6.5 3 1 3 .6 0 1-1.2 1-2.7 0-1.4.7-3.5 1.6-4.5 1.6-1.6 1.5-1.9-.7-3.7-2.4-2.1-5.9-2.8-5.9-1.3M393.3 190.8c-1 .6-1 1.2.2 2.8 1.3 1.7 1.4 1.7 1.5.1 0-1.8 3-2.5 3-.7 0 .5.5 1 1.2 1 .6 0 .3-.9-.7-2-1.9-2.1-3.3-2.4-5.2-1.2M35 192c0 .5.5 1 1 1 .6 0 1-.5 1-1 0-.6-.4-1-1-1-.5 0-1 .4-1 1M109.1 193.5c0 1.2-.6 2.6-1.3 3.3-.6.6-.9 1.5-.5 1.9 1.3 1.3 2.9-1.4 2.4-4.3-.2-1.8-.5-2.1-.6-.9M380.5 193c-.3.6 1.2 2.6 3.5 4.7 2.2 2 4 4.3 4 5s.5 1.3 1.1 1.3c1.3 0-2.5-6.3-5.7-9.5-1.3-1.3-2.6-2-2.9-1.5M434 192.7c0 .5.5 1.5 1 2.3.8 1.2 1 1.1 1-.8 0-1.2-.4-2.2-1-2.2-.5 0-1 .3-1 .7M40.2 194.2c-1.4 1.4-1.6 4.2-.3 3.4.7-.5 2.3-4.6 1.7-4.6-.1 0-.7.5-1.4 1.2M44 194c0 .5.5 1 1 1 .6 0 1-.5 1-1 0-.6-.4-1-1-1-.5 0-1 .4-1 1M94.5 194.4c-1.4 1-1.1 1.2 1.9 1.2 3.9 0 4.8-1.1 1.6-1.9-1-.3-2.6 0-3.5.7M401.4 194.1c-.8 1.4 1.1 3.3 2.5 2.5 1.6-1 1.3-3.6-.3-3.6-.8 0-1.8.5-2.2 1.1M76.6 194.9c-.3.5.1 1.4.9 2.1 1.2 1 1.5 1 1.5-.3 0-1.9-1.6-3.1-2.4-1.8M205.2 196c0 1.4.2 1.9.5 1.2.2-.6.2-1.8 0-2.5-.3-.6-.5-.1-.5 1.3M391 194.7c0 1.3 7.5 7.4 7.8 6.4.2-.6-1.2-2.4-3-4-3.3-3-4.8-3.8-4.8-2.4M406 195c0 .5 1.4 1.6 3 2.5 3.4 1.7 4.3.2 1.3-2.1-2.1-1.6-4.3-1.8-4.3-.4M22.5 196c.4.6 1.1.8 1.6.5 1.4-.9 1.1-1.5-.7-1.5-.8 0-1.2.5-.9 1M247 196.9c0 1-.9 4.7-2 8.2-1.1 3.4-1.9 6.7-1.7 7.3.2.5.9-1.1 1.6-3.7 1.5-5.1 2.5-5.9 3.4-2.5.4 1.2.9 1.9 1.3 1.6.9-1-.6-12.8-1.7-12.8-.5 0-.9.8-.9 1.9"/>
	<path d="M378.1 197.7c-1.1 1.2-1 1.8 1 3.9 1.2 1.3 2.7 2.4 3.2 2.4.6 0 .1-1-1.1-2.3-3.3-3.5-2.6-4.5.8-1.2 1.6 1.6 3.2 2.6 3.4 2.4.6-.6-.4-1.9-3.4-4.6-2.2-1.9-2.7-1.9-3.9-.6M16.3 197.7c.9.2 2.5.2 3.5 0 .9-.3.1-.5-1.8-.5s-2.7.2-1.7.5M32.8 198c2.5 1.1 2.9 4.2.7 6-.8.7-1.4 2.4-1.4 3.9l.2 2.6.4-2.8c.3-1.6 1-2.6 1.6-2.4.7.2 1.1 1.1.9 2.1-.2.9.2 1.6.8 1.6.5 0 1-.7 1-1.5 0-.7.7-1.8 1.7-2.3 1.4-.9 1.3-1.3-1-3.8-1.5-1.6-2.7-3.2-2.7-3.6 0-.5-1-.8-2.2-.7h-2.3zm3.9 5.2c-.3.8-.6.5-.6-.6-.1-1.1.2-1.7.5-1.3.3.3.4 1.2.1 1.9M42 198c0 .5.5 1 1 1 .6 0 1-.5 1-1 0-.6-.4-1-1-1-.5 0-1 .4-1 1M63 198.1c0 .5.5.7 1 .4.6-.3 1-.8 1-1.1 0-.2-.4-.4-1-.4-.5 0-1 .5-1 1.1M66 199.6c0 1.4.4 2.3 1 1.9.6-.3 1-1.5 1-2.6 0-1-.4-1.9-1-1.9-.5 0-1 1.2-1 2.6M97.1 199.2c-.1 2.8 1.2 3.7 2.4 1.8.3-.6.2-1-.4-1-.5 0-1.2-.8-1.4-1.8-.3-1-.5-.6-.6 1M89.5 200c-1 1.1-1.3 2-.7 2 .7 0 1.2.8 1.3 1.7 0 1 .5.3 1-1.6 1.2-4.1.8-4.7-1.6-2.1M391 199c0 .5.7 1 1.6 1 .8 0 1.2-.5.9-1-.3-.6-1-1-1.6-1-.5 0-.9.4-.9 1"/>
	<path d="M29 200.1c0 .5.5.7 1 .4.6-.3 1-.8 1-1.1 0-.2-.4-.4-1-.4-.5 0-1 .5-1 1.1M69.6 200.6c-.9 2.3-.7 3.4.4 3.4.6 0 1-.6 1-1.3 0-.8 1-1.9 2.3-2.5 2.2-1.1 2.2-1.1-.4-1.1-1.6-.1-2.9.6-3.3 1.5M77.1 199.9c-1 .6-.9 1 .5 1.5 2 .8 2.5.4 1.6-1.1-.4-.7-1.3-.9-2.1-.4M93.8 200.2c-.4 1-.2 2 .3 2.4.6.4.8 2.2.5 4.3-.5 3.1-.4 3.3.5 1.4.8-1.4.8-3.4.2-6-.6-2.8-1.1-3.3-1.5-2.1M203.2 202c0 1.9.2 2.7.5 1.7.2-.9.2-2.5 0-3.5-.3-.9-.5-.1-.5 1.8M81.2 202.5c-1.5 3.2-1.5 3.5-.2 3.5.6 0 1-.9 1-2s.5-2 1-2c.6 0 1-.5 1-1 0-1.9-1.7-1-2.8 1.5M105.3 200.7c-.7.2-.9 1.1-.6 2 .5 1.2.1 1.4-1.5.8-1.3-.4-2.2-.2-2.2.4 0 1.7 5 1.3 5.6-.4.8-2 .2-3.3-1.3-2.8M61.6 202.6c-.4.9-.4 1.9-.1 2.2.2.3.7-.3 1.1-1.2s.4-1.9.1-2.2c-.2-.3-.7.3-1.1 1.2M243.1 202.6c0 1.1.3 1.4.6.6.3-.7.2-1.6-.1-1.9-.3-.4-.6.2-.5 1.3M28.6 203.5c.4.8.8 1.5 1 1.5s.4-.7.4-1.5-.4-1.5-1-1.5c-.5 0-.7.7-.4 1.5M85.6 203.5c-.9 2.6-.7 3.2.5 1.2.6-1 .9-2.1.6-2.3-.2-.3-.7.2-1.1 1.1M205.2 205c0 1.9.2 2.7.5 1.7.2-.9.2-2.5 0-3.5-.3-.9-.5-.1-.5 1.8M47.5 205c.3.5.8 1 1.1 1 .2 0 .4-.5.4-1 0-.6-.5-1-1.1-1-.5 0-.7.4-.4 1M26.7 208c-.3 1.3 0 2 .8 2 2.1 0 2.7-1.6 1.1-2.9-1.1-.9-1.5-.7-1.9.9M41.5 207c-.4.6.5 1 2 1s2.4-.4 2-1c-.3-.6-1.2-1-2-1s-1.7.4-2 1M49.5 209c-.3.5-.1 1 .4 1 .6 0 1.1-.5 1.1-1 0-.6-.2-1-.4-1-.3 0-.8.4-1.1 1M60 208.7c.8.3 1.8 1.1 2.2 1.7.5.7.8.4.8-.7s-.7-1.7-2.2-1.6c-1.6 0-1.8.2-.8.6M370 210c-1.2.8-1.1 1 .8 1 2.1 0 2.2.3 1.7 3.7-.6 3.6-.5 3.7.9 1.9 2.1-2.5 2-6.2 0-7-1.9-.7-1.6-.8-3.4.4M394.5 210c-.3.5.1 1 1 1s1.3-.5 1-1c-.3-.6-.8-1-1-1s-.7.4-1 1M42.3 211.9c-1.1 1.7-.8 2 2.8 2.9 3 .8 3.9.7 3.6-.1-.2-.7-1.2-1.2-2.3-1.2-1 0-2.1-.8-2.4-1.8-.5-1.6-.6-1.6-1.7.2M53 212c-.8.5-1.1 1.2-.7 1.6s1.5 0 2.4-.9c1.8-1.8.8-2.3-1.7-.7M69 212c0 .5.9 1 2 1s2 .4 2 1c0 .5.6 1 1.3 1 .6-.1.1-1-1.2-2-2.5-2.2-4.1-2.6-4.1-1M246 212.9c-1.3 2.6-1.3 3.1.5 3.1.9 0 1.5-.9 1.5-2.5 0-3-.6-3.2-2-.6M62.5 214.4c-1.8 1.3-1.8 1.4.8.9 1.5-.3 2.7-.9 2.7-1.4 0-1.3-1.3-1.1-3.5.5M15.5 215.1c-1.1 1.7-.2 1.8 3 .4l3-1.3-2.7-.1c-1.5-.1-3 .4-3.3 1M103.5 216c.3.5 1.5 1 2.6 1 1 0 1.9-.5 1.9-1 0-.6-1.2-1-2.6-1s-2.3.4-1.9 1M95 217c0 .5.7.7 1.5.4.8-.4 1.5-.8 1.5-1s-.7-.4-1.5-.4-1.5.4-1.5 1M63.5 218.2c-2.4 7.3-2.6 12.6-.4 8.5.6-.9 1.6-1.7 2.4-1.7 1.1 0 1.2-.6.5-2.4-.5-1.3-.6-2.7-.3-3 .4-.3 0-.6-.8-.6-1.1 0-1.1-.2.1-1 1-.7 1.1-1 .2-1-.7 0-1.4.6-1.7 1.2M200.1 218.6c0 1.1.3 1.4.6.6.3-.7.2-1.6-.1-1.9-.3-.4-.6.2-.5 1.3M191 219.9c0 .6.4 1.3 1 1.6s.7-.1.4-.9c-.7-1.8-1.4-2.1-1.4-.7M197 220.4c0 .8.4 1.7.9 2 .5.4.7-.3.4-1.4-.6-2.3-1.3-2.6-1.3-.6M73 222c0 2.5 1.7 3.3 6.2 2.7l3.3-.3-3.2-.8c-1.7-.5-3.4-1.4-3.7-2.2-.8-2.1-2.6-1.7-2.6.6M86 221.5c0 1.5 1.8 4 2.4 3.4.3-.3-.1-1.4-.9-2.5-.8-1-1.4-1.5-1.5-.9M195.3 222.9c.1 1.4.9 2.6 1.7 2.8 1 .3 1.1.2.4-.4-.7-.4-1.4-1.7-1.7-2.8-.5-1.6-.5-1.5-.4.4M356.5 222c-.3.5.3 1 1.4 1 1.2 0 2.1-.5 2.1-1 0-.6-.6-1-1.4-1s-1.8.4-2.1 1M363.1 221.4c.2.2 1.5.9 2.9 1.6 2.3 1.2 2.4 1.2 1.1-.3-.7-1-2-1.7-2.9-1.7-.8 0-1.3.2-1.1.4M200.2 225c0 1.4.2 1.9.5 1.2.2-.6.2-1.8 0-2.5-.3-.6-.5-.1-.5 1.3M312.5 225c-.3.5.3 1 1.5 1s1.8-.5 1.5-1c-.3-.6-1-1-1.5-1s-1.2.4-1.5 1M381.8 227.7c.6.2 1.8.2 2.5 0 .6-.3.1-.5-1.3-.5s-1.9.2-1.2.5M305.4 229.5c.3.8-.2 2.2-1.1 3-1.8 1.9-1.3 2.8 1.1 1.9.9-.4 1.5-1.3 1.2-2-.4-1.1.1-1.3 1.9-.8 3.6.9 3.1-.9-.6-2.3-2.6-1-3-1-2.5.2M247 233l-6.5.7 8.2.1c4.6.1 8.5-.2 8.8-.8.7-1.1 0-1.1-10.5 0M53.8 233.7c.7.3 1.6.2 1.9-.1.4-.3-.2-.6-1.3-.5-1.1 0-1.4.3-.6.6M290 234.5c-2 2.4-.6 2.8 1.5.5 1-1.1 1.3-2 .8-2-.6 0-1.6.7-2.3 1.5M314 234.9c0 1.2.5 2.1 1 2.1.6 0 1-.6 1-1.4s-.4-1.8-1-2.1c-.5-.3-1 .3-1 1.4M49.5 235c-.3.6.1.7.9.4 1.8-.7 2.1-1.4.7-1.4-.6 0-1.3.4-1.6 1M343 235.5c-1.4 1.6-1 1.8 1.4.9.9-.3 1.6-1 1.6-1.5 0-1.4-1.6-1.1-3 .6M29.5 236c-1.7.7-1.5.9 1.3.9 1.7.1 3.2-.4 3.2-.9 0-1.2-1.7-1.2-4.5 0M260 236.5c1.3 1.6 1 1.8-3.3 1.5-2.6-.1-2.7.1-2.1 2.7.9 3.6 1.3 4.3 2.5 4.3.6 0 .5-.8-.1-2.1-1.3-2.4-.4-4.1 1.1-1.9.5.8.7 2.8.4 4.5-.3 2-.2 2.5.4 1.6 1.3-2 3.1 1.7 2.4 5.2-.3 1.5-.1 2.7.5 2.7 1.1 0 2.2-2.4 2.2-5 0-1 .7-2 1.5-2.4 2.1-.8 1.9-2.6-.4-2.6-3.1 0-5.1-1.1-5.1-2.7 0-1.3.3-1.3 1.6-.2 1.4 1.2 1.6 1 1.3-1.6-.4-3.3-1.6-5.5-3.1-5.5-.6 0-.5.7.2 1.5M291.7 237.2c-3.4 2.5-3.6 4.6-.2 2.4 2.3-1.5 2.7-1.5 4.1-.1 1.6 1.5 3.4 1.2 3.4-.6 0-.5-.8-1.3-1.7-1.6-1-.4-2-1-2.3-1.4s-1.7.2-3.3 1.3M368.8 236.7c-1 .2-1.8.9-1.8 1.4 0 1.1 3.9.2 5.5-1.2.9-.9-.6-1-3.7-.2M345.2 238.5c-1.7 1.9-.1 1.9 2.4 0 1.4-1.1 1.5-1.4.4-1.4-.8 0-2.1.6-2.8 1.4M177.8 238.7c.7.3 1.6.2 1.9-.1.4-.3-.2-.6-1.3-.5-1.1 0-1.4.3-.6.6M246 239c2 1.3 6.3 1.3 5.5 0-.3-.6-2.1-1-3.8-1-2.4 0-2.8.3-1.7 1M285 239.5c-1 1.2-1 1.5.3 1.5.8 0 1.7-.7 2.1-1.5.3-.8.2-1.5-.3-1.5s-1.4.7-2.1 1.5M173.5 242.5c-3.4.7-4.9 1.3-3.3 1.4 1.4 0 3.5.4 4.5.7 1.5.5 1.5.4.3-.5s-.9-1.1 1.5-1.1c1.7 0 3.7-.5 4.5-1 1.3-.9 1.3-1 0-.9-.8.1-4.2.7-7.5 1.4M239.8 242.7c-1 .2-1.8.8-1.8 1.2 0 1.4 5.1 3.1 7.5 2.5 2.3-.6 2.3-.6.4-2.5s-2.8-2.1-6.1-1.2m4.2 1.3c0 .5-.2 1-.4 1-.3 0-.8-.5-1.1-1-.3-.6-.1-1 .4-1 .6 0 1.1.4 1.1 1M251 243.5c0 .8.5 1.5 1 1.5.6 0 1-.7 1-1.5s-.4-1.5-1-1.5c-.5 0-1 .7-1 1.5M285.3 243.5c-.9 2.5.4 2.9 1.7.6.7-1.5.7-2.1 0-2.1-.6 0-1.3.7-1.7 1.5M306.5 242.8c1.3 1.3 8.4 1.8 9.9.6 1.4-1 .7-1.2-4.4-1.1-3.3 0-5.8.2-5.5.5M332.7 242.7c-.3.5.2 2.9.9 5.4.9 3.1 2.1 4.9 3.8 5.7 1.4.6 2.8.7 3.1.2s-.4-1.1-1.5-1.5c-1.9-.6-2.4-2-2.2-5.5.1-3.1-2.9-6.3-4.1-4.3M181 244c0 .5.4 1 .9 1 .6 0 1.3-.5 1.6-1 .3-.6-.1-1-.9-1-.9 0-1.6.4-1.6 1M321.5 245c-.3.5.1 1 .9 1s1.8-.5 2.1-1c.3-.6-.1-1-.9-1s-1.8.4-2.1 1M165.8 245.7c.7.3 1.6.2 1.9-.1.4-.3-.2-.6-1.3-.5-1.1 0-1.4.3-.6.6M170.8 246.7c.7.3 1.6.2 1.9-.1.4-.3-.2-.6-1.3-.5-1.1 0-1.4.3-.6.6M340 247c-.5.3.6 1.2 2.6 1.9 2.3.8 3.4 1.8 3 2.6-.3.9 0 1.2 1 .8 2-.7 1.8-3.3-.3-3.3-1.4 0-1.5-.2-.4-.9.9-.6.4-1-1.8-1.3-1.7-.2-3.5-.2-4.1.2M59 248.1c0 .5.5.7 1 .4.6-.3 1-.8 1-1.1 0-.2-.4-.4-1-.4-.5 0-1 .5-1 1.1M164.8 247.7c.7.3 1.6.2 1.9-.1.4-.3-.2-.6-1.3-.5-1.1 0-1.4.3-.6.6M249.8 247.8c-4.4.3-4.7.5-3.6 2.2 1.6 2.6.4 3.5-2.2 1.7-2.4-1.7-5.4-1.2-8.9 1.5-1.8 1.4-2 1.8-.7 1.8.9 0 1.6-.4 1.6-1 0-1.5 4.9-2.3 6.5-1 1.9 1.6 7.1.9 6.7-.9-.2-.8.3-1.8 1-2.2 2.2-1.4 3-1 2.3 1.1-.8 2.5.3 6.2 1.6 5.4.5-.3.7-.9.4-1.4s0-2.1.5-3.6c1.4-3.5.6-4-5.2-3.6M318 250.5c0 1.9.4 3.5.8 3.5s.8-1.6.8-3.5-.4-3.5-.8-3.5-.8 1.6-.8 3.5M350 248c0 .5.7 1 1.6 1 .8 0 1.2-.5.9-1-.3-.6-1-1-1.6-1-.5 0-.9.4-.9 1M156.2 249.7c-.5.9-2 1.7-3.3 1.9-1.3.1-2.7.3-3.1.3-.5.1-.8.5-.8 1s1 .7 2.1.4c2.1-.6 2.1-.5.4 2.1-.9 1.4-2.6 2.6-3.6 2.6-1.8 0-1.8.1-.1 1.8 1.9 2.1 5.6 1.7 4.8-.5-1-2.5 1.6-5.3 4.4-4.7 1.9.3 2.1.2.6-.4-1.8-.8-1.7-1 .7-2.9 2.6-2 2.6-3.3.1-3.3-.7 0-1.7.7-2.2 1.7M168.8 248.7c.7.3 1.6.2 1.9-.1.4-.3-.2-.6-1.3-.5-1.1 0-1.4.3-.6.6M163.5 250c.3.5 1.4 1 2.3 1 1.5 0 1.5-.2.2-1-2-1.3-3.3-1.3-2.5 0M66 253.1c-.6 1.1-2.1 2.4-3.3 2.9l-2.2.9h2.2c1.2.1 3.5-1.3 5.1-2.9 2.6-2.5 2.8-3 1.2-3-1.1 0-2.4.9-3 2.1"/>
	<path d="M159.5 252c-1.6.7-1.7.9-.3.9.9.1 2-.4 2.3-.9.7-1.1.7-1.1-2 0M165 253.1c0 .5.8.9 1.8.9.9 0 2.8.3 4.2.7 1.4.3 2.2.3 1.8-.1-1.1-1.2-7.8-2.5-7.8-1.5M175.3 252.7c.9.2 2.3.2 3 0 .6-.3-.1-.5-1.8-.5-1.6 0-2.2.2-1.2.5M180.8 252.7c.6.2 1.8.2 2.5 0 .6-.3.1-.5-1.3-.5s-1.9.2-1.2.5M53.7 254.1c.7.7 1.5 1 1.8.7s-.2-.9-1.2-1.2c-1.4-.6-1.5-.5-.6.5M58 255.6c-.6 1.4-1 3-1 3.5 0 1.6 1.7 1 2.3-.9.2-.9.8-2.5 1.2-3.5s.3-1.7-.4-1.7c-.6 0-1.6 1.2-2.1 2.6M82 255.1c0 .5.5.7 1 .4.6-.3 1-.8 1-1.1 0-.2-.4-.4-1-.4-.5 0-1 .5-1 1.1M229 256c1.9 1.3 3 1.3 3 0 0-.6-1-1-2.2-1-1.9 0-2 .2-.8 1M173 257.1c0 .5.5.7 1 .4.6-.3 1-.8 1-1.1 0-.2-.4-.4-1-.4-.5 0-1 .5-1 1.1M190.2 257.2c-1.3 1.3-1.6 3.8-.4 3.8.4 0 1.3-.9 1.9-2 1.4-2.2.2-3.5-1.5-1.8M155.6 259.5c-1.5 1.1-1.6 1.5-.5 1.5.8 0 1.9-.4 2.5-.9.5-.5 2-1.1 3.4-1.4 2.2-.4 2.2-.4-.5-.5-1.6-.1-3.9.5-4.9 1.3M254 259.5c0 .8.5 1.5 1 1.5.6 0 1-.7 1-1.5s-.4-1.5-1-1.5c-.5 0-1 .7-1 1.5M242 260.4c4.1 1.7 6.8 2 5.5.7-.6-.5-2.8-1.2-5-1.5l-4-.6zM161.8 261.7c-3.2.9-5.6 1.9-5.3 2.3.3.5 2.4.3 4.8-.5 2.3-.7 5.8-1.7 7.7-2.3 5.8-1.6-.5-1.2-7.2.5M65.5 262c-1.8.8-1.7.9.8.9 1.5.1 2.7-.4 2.7-.9 0-1.2-.8-1.2-3.5 0M177 262c-1 .7-.1.8 3 .4 5.6-.8 6.4-1.4 1.9-1.4-1.9 0-4.1.5-4.9 1M225 262c0 .5 1.5 1.2 3.4 1.6 1.9.3 3.7 1.2 4 1.9.3.8 1.3 1.1 2.6.8 1.1-.3 2.8.1 3.8.9 2.6 2.3 7.2 3.2 7.2 1.4 0-.9-.7-1.2-1.8-.9-1 .2-2.4-.3-3.1-1.1-.8-.9-2.4-1.6-3.8-1.6-1.3 0-3.4-.5-4.5-1.1-3.3-1.8-7.8-2.8-7.8-1.9M250.5 263c-.3.5-.1 1 .4 1 .6 0 1.1-.5 1.1-1 0-.6-.2-1-.4-1-.3 0-.8.4-1.1 1M146.9 266.7q-1.05 3.3-3 3.3c-1 0-1.9.5-1.9 1.1s1.2.9 2.7.7c2-.2 2.9-1 3.3-2.8.4-1.7 1.6-2.8 3.8-3.5 4.2-1.2 4.1-2.3-.3-2.2-3 .1-3.6.5-4.6 3.4M171.5 264c-.3.5.1 1 .9 1s1.8-.5 2.1-1c.3-.6-.1-1-.9-1s-1.8.4-2.1 1M301 265c-1.2.8-.9 1 1.3 1 1.6 0 2.6-.4 2.2-1-.8-1.2-1.6-1.2-3.5 0M361.6 266.7c-.6 1.4-.5 1.5.5.6.7-.7 1-1.5.7-1.8s-.9.2-1.2 1.2M355.6 266.9c-.4.7-.5 1.5-.2 1.8.9.9 1.9-.4 1.4-1.8-.4-1.1-.6-1.1-1.2 0M380.4 267.5c1.1.8 2.7 1.5 3.5 1.5q1.5-.15-.9-1.5c-3.3-1.9-5-1.8-2.6 0M347.7 269.9c-.4 1.7-.3 2.1.5 1.3.5-.5.8-1.6.6-2.3-.3-.8-.7-.3-1.1 1M164.3 269.7c-1.4.5-1.8 3.3-.5 3.3 1 0 3.2-2.2 3.2-3.2 0-.9-.8-.9-2.7-.1M267 271.9c0 .9 2.4 2.1 4.2 2.1.6 0 .6-.6-.2-1.5-1.4-1.6-4-2-4-.6M273.5 272.8c-.4 1 0 1.2 1.1.8.8-.3 1.8-.6 2-.6s.4-.4.4-.8c0-1.5-2.9-.9-3.5.6M334.1 272.6c0 1.1.3 1.4.6.6.3-.7.2-1.6-.1-1.9-.3-.4-.6.2-.5 1.3M330 274.5c-.7.9-.8 1.5-.2 1.5.5 0 1.2-.7 1.6-1.5.3-.8.4-1.5.2-1.5s-.9.7-1.6 1.5M316.6 276.5c.4.8 1.1 1.5 1.6 1.5.6 0 .5-.6-.2-1.5-.7-.8-1.4-1.5-1.6-1.5s-.1.7.2 1.5M187.2 278.6c1.1 1 6.8 1.3 6.8.4 0-.6-1.6-1-3.7-1-2 0-3.4.3-3.1.6M306 278.4c0 .2.9.6 2 .9s1.8.1 1.4-.4c-.5-.9-3.4-1.3-3.4-.5M161.5 280c-.3.5-.2 1 .4 1 .5 0 1.3-.5 1.6-1 .3-.6.2-1-.4-1-.5 0-1.3.4-1.6 1M297.7 281.1c.4 1.3.8 1.8 1.1 1 .2-.7-.1-1.8-.6-2.3-.8-.8-.9-.4-.5 1.3M293.7 281.7c-.4.3-.7 1.1-.7 1.7s.5.5 1.2-.2c.6-.6.9-1.4.7-1.7-.3-.3-.9-.2-1.2.2"/>
</svg>
