<?xml version="1.0" encoding="utf-8"?>
<svg xmlns="http://www.w3.org/2000/svg" viewBox="0 0 406 247">
	<path d="M266.18 4.596c-1.5 2.7-4 6.7-5.7 9-1.8 2.5-3.2 6-3.5 9-.8 5.9-1.6 6.9-5.7 7.7-4.1.8-12.7 11.3-12.7 15.6 0 1.5-.6 4.5-1.4 6.7-.9 2.6-1.6 11.4-2 27.3-1.2 43.4-1.3 45.3-5.7 55.5-2.3 5.6-4.2 12.2-5 17.5-.7 4.7-1.8 9.7-2.6 11.2-.7 1.5-1.3 4.6-1.3 7 0 2.4-.8 7.5-1.9 11.3-1 3.9-2.4 11.9-3 18-2.4 22-2 20.8-5.3 17.8-1.7-1.5-1.9-1.5-3.8.2-1.1 1-2.5 3.6-3.1 5.8-.6 2.3-1.4 3.6-1.9 3.1-1.2-1.2-3.1-32.1-2.4-37.7.3-2.3 0-6.5-.7-9.2-1.5-6.4-3.2-50.2-3-75.2.2-11.4-.2-19.9-.8-21-.5-1.1-1.3-7.8-1.6-14.9-.7-14.7-2.5-24.3-6.7-36.2-3-8.1-4.3-9.5-7-7-1.4 1.4-4.4 3-10 5.2-2.6 1-4.3 2.6-5.5 5-1.6 3.5-3.6 4.6-4.8 2.6-1.2-2-2.6-.9-4.6 3.7-1.1 2.7-3.5 6.4-5.3 8.3-2.3 2.4-3.6 4.9-4 8-.4 2.4-1.5 5.8-2.6 7.5-1.3 2.2-1.8 5-1.9 10.3 0 4-.4 7.8-.8 8.5-.4.7-.9 17.2-.9 36.7-.2 34.6-.7 42.5-4.1 61.8-1.7 9.9-3 11.7-6.2 8.8-2.4-2.2-3.4-2-5.9.9-2.8 3.3-4.7 2.3-6.2-3.1-.7-2.4-1.8-4.4-2.6-4.4-2 0-2.3-1.1-3.9-11.7-.7-5.4-2.3-13.9-3.5-18.8-1.2-5-2.8-11.9-3.6-15.5-1.1-5.1-2.2-7.1-4.8-9.5-2.3-2.1-4.3-5.6-6.6-11.6l-3.2-8.5-5.7-1.2c-4.2-.9-6.5-2.1-8.9-4.4-3.4-3.6-6.2-9.4-6.2-13.1 0-1.3-1.1-3.4-2.5-4.7-3-2.8-5.1-9.3-6-18-1.6-16-5.5-33.5-9.2-41.7-2.1-4.5-4.1-8.2-4.6-8.3-.4 0-1.5 1.6-2.4 3.5-1 2.2-2.4 3.5-3.6 3.5-2 0-5.6 3.6-5.7 5.7 0 .6-1 2.4-2.3 4-2.4 2.9-3.9 5.7-4.3 8.3-.1.8-1 4-1.9 7-.8 3-1.7 6.4-1.9 7.5-.2 1.1-.4 2.2-.5 2.5-.1.3-2.4 2.9-5.1 5.9-4.5 4.9-5 5.9-5 10.1 0 3-.9 6.4-2.5 9.6-3 5.9-3 6.1-.5 15.5 1.1 4.1 2 8.6 2 10 0 1.4.7 4.9 1.6 7.8 2.4 8.2 3.6 4.9 1.7-4.7-.9-4.5-1.3-8.5-.8-9 .4-.4 1-.1 1.2.5.3.7 1 1.3 1.6 1.3.6 0-.1-1.3-1.6-2.8-2.4-2.5-3.7-6.2-2.1-6.2.3 0 5.8 4.9 12.2 10.9 6.5 6 13.5 12.3 15.7 13.9 2.2 1.6 4.6 3.6 5.4 4.5 2.6 3.2 18.2 16 18.7 15.4.8-.7-2.4-3.8-19.6-18.5-7.4-6.4-15.5-13.5-18-15.8-10-9.2-13.5-12.3-14.2-12.4-.4 0-1.2-.8-1.7-1.9-.8-1.3-.5-3.3.8-7.2 1.1-3 2.2-7.6 2.6-10.3.7-4.1 1.6-5.7 5.5-9.5 4.8-4.6 7.5-10.6 6.3-13.8-1.3-3.5 3.1-.2 14.7 10.7 6.8 6.3 13.1 11.8 14 12.2 1.6.6 3.5 5.8 2.1 5.8-.3 0-3.8-3.1-7.7-6.8-17.1-16.2-20.5-19.2-21.7-19.2-.6 0 1.7 2.8 5.3 6.2 3.6 3.4 10.1 9.6 14.5 13.8 4.5 4.2 8.8 8.1 9.6 8.6 2 1.2 6.9 7.3 6.9 8.6 0 1.2-3.5-1.8-22.5-19.5-8.1-7.5-15.1-13.5-15.4-13.1-.8.8 33.5 33.2 36.8 34.7 1 .5 2.7 2.5 3.7 4.5 2.7 5.4 2.8 5.5 1.5 4.8-2.8-1.8-.7 1.6 2.6 4.1 2 1.5 5 4 6.5 5.5 1.6 1.6 3.4 2.8 4.1 2.8.6 0-.2-1.2-1.8-2.8-3-2.7-3-2.7-.6-3 1.3-.2 3.4-.1 4.8.3 2.1.5 2.3.8 1.2 2.1-1 1.2-.9 1.3.5.8 1-.4 1.6-.1 1.6.7 0 .8.7 2.6 1.4 4.2 1.4 2.5.5 4-.9 1.7-.3-.6-1.1-1-1.7-1-.6 0-.3.9.7 2s2.4 2 3.1 2c1.1 0 3.1 5.7 2.2 6.5-.4.4-6.8-5.3-27.8-24.5-4.7-4.3-10.5-9.5-13-11.7-2.4-2.1-6.5-5.8-9-8.3-5.8-5.7-17.8-16.2-19.8-17.4-3.2-1.9-.4 1.4 7.3 8.4 4.4 4 12.7 11.6 18.5 16.9 5.8 5.4 15 13.7 20.5 18.6 5.5 4.9 12.8 11.5 16.2 14.7 3.4 3.2 6.7 5.8 7.5 5.9.7.1 2.2.2 3.3.3 1.7.1 2.4 2.1 5.2 14.6 4.1 18.5 5.4 28.2 3.7 27.8-.6-.2-6.5-5.1-13-10.9-15.3-13.8-18.4-16.3-18.4-15.1 0 .8 7.9 8.2 23.3 21.9 2 1.8 4.1 3.3 4.7 3.3.5 0 1 .4 1 1 0 .5.9 1 2 1 1.3 0 2 .7 2 1.9 0 1.1.3 2.8.7 3.8.6 1.7.5 1.7-1.4.3-1.2-.8-7-6-13.1-11.5-6-5.5-13.7-12.5-17.2-15.5-3.4-3-6.8-6-7.4-6.5-.6-.6-4.5-3.9-8.6-7.5s-7.7-6.7-8-7c-.3-.3-3-2.5-6-5s-6.8-5.7-8.5-7.2c-6.9-6.1-8.9-7.7-9.4-7.2-.8.7 7.2 8.1 21.9 20.3 6.9 5.8 13 11 13.5 11.6.6.6 3.5 3.3 6.5 5.9 3 2.7 6.9 6 8.5 7.5 1.7 1.4 5 4.3 7.5 6.5 2.5 2.1 7.5 6.6 11.1 10 9.7 9 13.9 12.5 13.9 11.5 0-2.3 1.8-.5 3 3.1 1 3 2.2 4.4 5.4 5.9 2.3 1.1 5.7 3.4 7.6 5.2 1.9 1.7 5.3 4.5 7.4 6.3 2.1 1.7 5.4 4.4 7.3 6 1.8 1.6 3.5 2.7 3.7 2.5.4-.4-16.2-15.6-19.8-18.2-1.2-.9-1.7-2-1.3-3.1.8-2.1 4.7-2.1 4.7.1 0 .9 2.6 4.1 5.8 7.1 3.1 2.9 9.4 8.9 13.9 13.3 4.5 4.3 8.4 7.9 8.7 7.9 2.4 0-1.1-3.7-19.4-20.9-5.3-5-6.2-6.3-5-7.1.8-.5 1.8-1 2.2-1 .4 0 1.3-2 2-4.4l1.3-4.5 11.1 10.7c6.2 5.9 15.3 14.5 20.3 19.2 5 4.7 12.9 12 17.4 16.3 8.4 7.9 11.7 10.5 11.7 8.9 0-.5-2.6-3.2-5.7-5.9-3.2-2.8-8.3-7.5-11.4-10.4-19.7-19.1-39.8-38.1-41.2-39.1-1.6-1.2-1.6-2.3-.2-16.3 1-9.5 1.6-27.3 1.7-48.8.2-18.6.6-34.3 1-35 .7-1.2 2.8.7 29.7 27.4 11.8 11.7 18.1 17.3 18.1 16.2 0-1.1-28.5-29.5-41.7-41.5l-5.1-4.7.3-7.6c.3-4.9 1-8.6 2-10.1.9-1.4 1.9-4.7 2.2-7.4.4-3.5 1.2-5.4 2.7-6.3 1.1-.8 3-3.5 4.1-6.1 1.8-4.2 2.3-4.6 4.9-4.4 2.6.3 3.3-.3 5.6-4.2 1.4-2.5 3.5-4.7 4.5-4.9 1.2-.2 3.9 1.9 8.1 6.5 4 4.4 6.3 6.3 6.4 5.2 0-.9-.8-2.3-1.7-3-1-.8-3.6-3.3-5.7-5.6-3.6-3.8-3.8-4.2-2-4.9 1-.4 2.5-1.3 3.2-2 2-2 2.7-1.6 4.5 2.2 2.1 4.4 2.1 4.9.1 4.1-1-.4-1.4-.1-1.2.6.3.7 1.1 1.3 1.8 1.3 2.6 0 5 11.1 6.1 28.6.6 9.2.9 17.4.7 18.3-.2 1-4-2-11.3-9-14.1-13.4-24.5-22.8-24.5-22.1 0 .4 16.8 17.3 33.5 33.5.2.2 1.1.5 2.2.6 1.7.3 1.8 1.7 1.8 20.7.1 29 1.4 62.8 2.6 65 1.4 2.6 2.2 22.3 1.2 28.8l-.8 5.4-5.6-5.4c-13.7-13.4-45.6-42.9-46.3-42.9-1.9 0 .7 3 11.7 13 6.7 6.3 17.4 16.2 23.8 22.2 6.4 5.9 13.1 12.1 14.9 13.6 2 1.8 3.1 3.6 2.8 4.8-.3 1.5-2.3 0-10.3-7.7-5.5-5.3-11.4-11-13.1-12.5-10-9.2-25.1-23.2-27.1-25.3-1.4-1.3-2.7-2.1-2.9-1.8-.9.9 1.7 4 7.5 9.1 3.1 2.7 11.2 10.2 18.1 16.6 20.2 18.9 25.6 23.7 27 24.2.8.2 1.8 3.6 2.6 8.4l1.4 7.9 6.6 6.2c3.7 3.5 7.1 6.3 7.5 6.3 1.8 0-.4-2.8-5.6-7.4-3-2.6-5.5-5.2-5.5-5.7 0-1.9 2.8-.8 5.1 1.9 1.3 1.6 3.7 3.7 5.3 4.8 2.9 1.8 2.9 1.8 1.8-.3-1.3-2.3-6.9-7.3-8.2-7.3-1.6 0-1.7-2.6-.3-6.3 1.7-4.2 3.2-4.7 5.1-1.6 1.9 3 3.5 1.1 5.1-6.1l1.4-6.2 12.2 12.2c6.7 6.7 12.5 11.8 12.9 11.2.3-.5-5.1-6.4-11.9-13.1-12.1-11.8-12.5-12.3-12.5-16.4 0-6.3 1.8-17.5 3.3-20.3 1.2-2.3 1.7-1.9 23.7 20.1 12.4 12.4 23.1 22.5 23.9 22.5.8 0-9.2-10.6-22.2-23.6-15.5-15.4-23.7-24.3-23.7-25.6 0-1.4 7.9 5.9 26.5 24.7 14.6 14.7 26.9 26.5 27.2 26.1.4-.4-5.6-7.1-13.4-14.9-7.7-7.8-19.4-19.7-26-26.5-6.6-6.7-12.5-12.2-13.2-12.2-.6 0-1.1-1.1-1.1-2.5s.1-2.5.3-2.5c.2 0 14.2 13.9 31.3 31 17 17 31.6 31.2 32.4 31.5 1.8.8-.2-1.5-20.3-21.9-8.7-8.9-18.4-18.8-21.6-22.1-3.2-3.3-9.2-9.3-13.4-13.4-4.3-4-7.7-7.8-7.7-8.4 0-1.8 3.5-11.7 4.1-11.7.3 0 3.2 2.8 6.4 6.3 8.9 9.4 29.8 30.7 44 44.7 7 6.9 14.2 14.1 15.9 16 6.5 7 16.7 16.2 17.3 15.6.3-.3-12.8-14-29.3-30.3-16.4-16.4-35-35.1-41.2-41.6-6.3-6.4-11.8-11.7-12.3-11.7s-.9-2.1-.9-4.8c0-3.4 1-6.5 3.3-11.2 3.5-6.8 5.8-16.1 5.6-22-.3-6.7 1.4-40 2.1-40 .4 0 2.9 2.6 5.7 5.7 10.7 12.1 37.2 38.7 37.9 38 .4-.3-7.9-9.3-18.4-19.9-10.5-10.6-20-20.5-21.2-22.1-1.2-1.5-2.8-2.7-3.6-2.7-1.1 0-1.4-1.4-1.3-6.3.1-3.4.4-7.5.8-9.1l.6-2.8 4.4 4.8c6 6.7 31.1 32.2 35 35.7 1.8 1.6 3.4 2.7 3.6 2.5.2-.2-7.4-8.3-16.8-17.9-9.5-9.7-19.3-19.9-21.8-22.7l-4.7-5 1.3-4.4c.8-2.4 1.6-5.5 1.9-6.9.6-3 5.9-8.5 9-9.5 1.5-.5 2.4 0 3.5 1.7 2.2 3.4 19.9 21.5 20.5 20.9.5-.6-3.4-5.1-14.3-16.2-6.2-6.4-6.4-6.8-4.8-8.6.9-1 1.7-2.4 1.7-3 0-2.3 1.6-1.2 6 4.1 2.5 2.9 6.3 6.9 8.4 8.8 6.8 5.8 2.7.7-9.7-12.4-3.3-3.6-3.7-4.4-3.1-7.6.7-3.5 2.6-7.3 5.1-9.9.7-.7 2-2.6 3-4.2 2.3-4 3.6-3.8 5.1 1 2 6.5 1.6 7.7-1.4 4.6-3.5-3.5-5.2-3.4-1.9.1 1.4 1.5 2.5 3.1 2.5 3.5 0 .5.6.8 1.4.8 1.7 0 1.7.4 4.2 26 .9 9.6 2.1 18.6 2.6 20 .5 1.4 1.1 7.3 1.3 13.1.3 5.8.6 11.2.9 12 1.3 4.4 3.2 26.2 4.2 49.1.6 13.9.5 15.8-.9 15.8-.8 0-1.7-.4-1.9-1-.6-1.8-44-45.2-44.6-44.6-1 1.1 44.4 46.6 46.5 46.6 1.8 0 2.3 2.8 2.4 15 .1 7.3-.3 12.6-1.1 14.5-.7 1.8-1.2 7.1-1.1 13.2l.1 10.2 14.8 14.9c8.1 8.2 15.8 15.5 17.2 16.2 1.5.8.1-1.2-3.7-5.2-3.5-3.5-6.3-6.7-6.3-7.1 0-.4 1.8.5 4.1 2 3.8 2.5 4.3 2.6 6.6 1.2 3.4-1.9 6.9-9.1 8.3-16.9.6-3.6 1.3-6.7 1.5-6.9.2-.2 2 1.4 4 3.5 7.5 8.2 17 17.4 17.9 17.4 1.1 0-.3-1.7-10.9-12.7-4.9-5.1-9.5-9.3-10.3-9.3-1.1 0-1.2-1.2-.6-5.7.3-3.2.8-6 .9-6.1.2-.2 1.6 1.1 3.2 2.9 14.5 16.8 24.9 27.3 25.7 26.1.3-.5-.4-1.8-1.6-2.8-1.1-1.1-7.5-8-14.1-15.4s-14.4-15.8-17.2-18.5c-5.2-5-9.1-11-7.7-11.8.4-.3 3.9 3.1 7.7 7.5 3.9 4.5 8.2 9.4 9.8 11 1.5 1.7 3.9 4.4 5.3 6.2 6.5 7.7 19.5 20.8 20.1 20.3.3-.4-1.9-3.3-4.9-6.4-5.9-6.2-12.6-13.6-22.3-24.8-3.3-3.8-8.6-9.6-11.8-12.8-8.4-8.5-8.6-9.1-7-20 1.9-13.6 1.9-13.7 3.6-19.7 3.1-11.1 2.4-10.9 9.8-2.2 3.7 4.2 11.3 12.9 17 19.3 5.7 6.4 11.3 12.7 12.3 14 5.4 6.7 22 24.9 22.8 24.9 1.9 0 .4-2.4-6-9.2-10.1-10.9-16.3-17.9-20.2-22.8-1.9-2.4-7.9-9.1-13.3-14.9-5.4-5.8-11.2-12.5-13-14.8-1.8-2.3-4-4.5-4.9-4.8-1.1-.4-1.8-1.6-1.8-3.3 0-2.6.2-2.5 4.8 2.3 2.6 2.8 7 7.7 9.8 11 2.8 3.3 8.6 9.8 12.9 14.5 4.2 4.7 9.4 10.7 11.6 13.5 6.1 8.1 20.6 23.1 21.5 22.3.4-.5-1.9-3.6-5.2-7-3.3-3.5-8.6-9.5-11.9-13.3-3.3-3.9-8.2-9.5-11-12.5-9.7-10.8-12.7-14.1-17.8-20.3-2.8-3.4-7.1-8.1-9.6-10.4l-4.4-4.2.8-16.8c.4-9.2.9-17 1.2-17.3.6-.7 21.6 22.1 35.2 38.3 2.3 2.9 5.7 6.8 7.5 8.7 1.8 1.9 6.3 7.1 10.1 11.5s7.4 8.5 8 9.1c.5.6 3.9 4.3 7.3 8.3 5.6 6.2 9.1 8.9 8 6.2-.3-.8-14.9-17.1-21.4-23.8-1.7-1.8-6.1-6.9-9.9-11.5-9.2-11.3-36.4-41.6-41.5-46.2l-4.1-3.7.7-6.7c.8-7.9 1.1-8.7 3-7.1.9.8 1.4.8 1.4.1 0-.6-.7-1.5-1.5-1.9-1.2-.7-1.3-2-.4-7.8 1.8-11.6 3.6-11.9 12.8-1.8 9 9.8 12.5 13.3 13 12.8.2-.3-2-3.1-5-6.3-5-5.3-8.4-9.2-11.7-13.3-1-1.4-.8-1.9 1.4-3.4 2.2-1.4 2.8-1.5 3.5-.4 1.3 2.1 1.1 2.9-.6 2.3-2.3-.9-1.8.1 2.5 4.8 2.2 2.3 4 4.6 4 5 0 .5.6.8 1.3.8 1.2.1 6.9 8 8.1 11.4.4 1.1.2 2.3-.5 2.7-.8.5-.4 1.5 1.5 3.4 1.5 1.5 3 2.4 3.4 2 .4-.3-.4-1.5-1.8-2.5-3.2-2.4-2-3.7 1.5-1.4 2.2 1.5 3.1 1.5 6.6.5 3.5-1.1 4.3-1 5.9.4 1 .9 2 2.6 2.3 3.7.5 1.6.3 1.8-.6.9-.6-.6-1.7-1.1-2.5-1.1-1.2 0-1.2.3-.2 1.5.7.8 1.8 1.5 2.6 1.5.7 0 2.4 3.4 3.9 8.2 1.4 4.6 2.9 8.9 3.1 9.5 1.4 3.2-1.6.5-7.6-6.7-5.7-6.9-8.9-9.9-7.8-7.2.4 1.2 9.6 11.7 13.6 15.7 3.1 3.1 7.4 12.5 10.4 22.5.6 1.9 1.7 4.7 2.4 6.2 2.8 5.4-1.1 1.9-12.2-10.9-6-6.9-11.8-13.7-12.9-15.1-1.1-1.4-4.1-4.9-6.6-7.6-8.2-9-15.3-17.1-19.4-22.1-4.6-5.7-11.6-12.5-12.8-12.5-.5 0 2.6 3.9 7 8.7 4.3 4.8 9 10.1 10.4 11.8 1.5 1.6 8.4 9.5 15.4 17.5s14.8 16.9 17.4 19.9c9.8 11.4 11.6 13.3 13.6 14.1 1.2.4 2.7 2.7 3.8 5.5 1.7 4.7 1.5 7.4-.3 4.5-2.3-3.8-12.7-16.2-15.9-19-.7-.6-12.7-14.4-18.7-21.6-7.7-9.1-15.3-16.9-15.4-15.8 0 .6 1.7 3 3.9 5.2 2.1 2.3 5.6 6.3 7.7 8.9 4.1 5.1 10.2 12.1 18.7 21.6 2.9 3.2 6.1 6.9 7.2 8.1 10.6 12.1 13.9 15.5 14.5 15.1.8-.5 4 6.5 4 8.5 0 .6-1.7-.9-3.7-3.2-2.1-2.3-4.7-5.1-5.8-6.3-1.1-1.2-3.9-4.3-6.1-7.1-4.6-5.4-7.2-8.4-11.2-12.9-1.5-1.7-7.2-8.2-12.7-14.5-5.4-6.3-14.4-16.5-20-22.5-5.5-6.1-11.2-12.2-12.5-13.8-1.3-1.5-2.8-2.7-3.3-2.7-.8 0 7 9.7 10.4 13 2.4 2.3 17 18.8 30.4 34.5 10 11.6 20.4 23.3 36.2 40.5l2.3 2.5v-2.5c0-1.4-1.2-5.2-2.6-8.5-1.4-3.3-3.3-8.5-4.3-11.5-1.1-3-3.8-10.5-6-16.5-7.7-20.5-10-27-13.1-38-3.8-13.1-5.1-14.9-10-14.1-8.1 1.5-8.4 1.4-10.7-3.3-1.2-2.4-2.9-5.1-3.7-6-.8-.9-2.6-4.2-4-7.2-1.6-3.6-3.2-5.8-4.5-6.2-1.2-.3-2.8-2.1-3.6-4.1-.9-2-1.7-3.6-2-3.6-.2 0-2.6 1.3-5.2 3-2.6 1.6-5.9 3-7.4 3s-3 .4-3.3.9c-.8 1.3-3.4 25.5-4.6 43.6-2 29.8-3.1 42-4.2 45.5-.6 1.9-1.7 5.3-2.4 7.5s-1.5 8.5-1.9 14c-.5 8.6-.3 10.6 1.6 15.5 4.4 11.7 5.5 13.6 9.8 18.3 4.3 4.6 4.4 4.8 3.3 8.5-.6 2-1.6 7.4-2.1 12-2.2 17.6-7.7 20.6-17.4 9.5-1.7-1.9-5.7-5.5-8.9-7.9-3.2-2.5-6.7-6.3-7.8-8.4-1.8-3.6-1.9-4.3-.5-12.6.8-4.9 1.5-11.6 1.6-14.9.3-8.3-1.9-65.3-2.5-66.4-.3-.5-1.3-8.2-2.1-17.2-1.5-16.7-3.5-32.6-5.4-43.4-.6-3.3-1.1-9.2-1.2-13-.1-11-4.1-32.4-6.4-34.1-3.2-2.4-5.1-1.6-7.9 3.3zm-218.3 24c2.1 4.6 1.5 5.2-1.7 2-1.6-1.6-2.3-3.2-2-4.1.9-2.5 1.8-1.9 3.7 2.1zm-.9 4.8c4.1 4.1 4.6 5.1 4.6 8.9 0 2.4.4 5.6.9 7.2.5 1.6 1.2 5.3 1.6 8.3.5 4.9.4 5.3-.9 4.1-.9-.7-1.6-.8-1.6-.3s.9 1.6 2 2.6c2.5 2.1 2.6 4.7.3 4.8-1.7.1-1.7.2 0 .6.9.2 1.7.8 1.7 1.1 0 .4.3 1.8.7 3.2.6 2.2.1 2-4.3-1.9-15.4-14-24.4-22.6-24.4-23.4 0-2.1 3.5.4 13 9.5 5.6 5.4 10.6 9.8 11.1 9.8 1.4 0 1.1-1.8-.5-2.7-2.2-1.3-22.6-20.7-22.6-21.5 0-1.9 2.4-.3 11.1 7.7 5.2 4.7 9.9 8.5 10.4 8.5.6-.1-3.4-4.3-8.7-9.4-8.8-8.4-11.3-11.7-9-11.6.4.1 4.7 3.9 9.7 8.5 4.9 4.7 9.4 8.5 10 8.5.5-.1-3.3-4.2-8.6-9.3-8.9-8.7-9.4-9.4-8.5-11.8 3-7.2 5.8-7.5 12-1.4zm299.2 15.3c1.4.9 2.8 5.2 1.7 5.2-.4 0-1.6-1.4-2.5-3-1.7-2.9-1.4-3.7.8-2.2zm-39.6 174.7c1.4 1.9 1.4 1.9-.2.6-1-.7-1.8-1.8-1.8-2.4 0-.6.1-.8.3-.6.1.2.9 1.3 1.7 2.4zm-268-192.5c0 .5.5 1 1.1 1 .5 0 .7-.5.4-1-.3-.6-.8-1-1.1-1-.2 0-.4.4-.4 1zm4 4.5c1.3 1.4 2.8 2.5 3.3 2.5.6 0 0-1.1-1.3-2.5s-2.8-2.5-3.3-2.5c-.6 0 0 1.1 1.3 2.5zm-5 .1c0 1.4 12 13.6 13.1 13.2.5-.2-2.2-3.4-6.1-7.3-3.8-3.8-7-6.5-7-5.9zm228-21.2c0 .9 7.4 7.5 7.9 7 .6-.5-6-7.4-7.1-7.4-.4 0-.8.2-.8.4zm-1.9 4.3c3.6 4.4 11 11.6 10.1 9.8-1.5-3-9.2-11.5-10.4-11.5-.6 0-.4.7.3 1.7zm-2.1 3.7c0 .3 2.1 2.7 4.6 5.3 2.5 2.6 5.3 5.8 6.1 7 .8 1.3 2.3 2.3 3.2 2.3 1.2-.1 1-.6-.9-2.3-1.4-1.2-4.5-4.6-6.8-7.5-3.8-4.5-6.2-6.4-6.2-4.8zm-2.1 10.5c1.7 3.1 18.4 20 17 17.1-1.2-2.4-15.6-18.1-17.2-18.9-.5-.2-.4.6.2 1.8zm-81.4 1.1c.3.5.8 1 1.1 1 .2 0 .4-.5.4-1 0-.6-.5-1-1.1-1-.5 0-.7.4-.4 1zm-8.5 3.3c0 1.5 15.8 17.7 17.3 17.7.9 0-14.5-17.4-16.4-18.6-.5-.3-.9.1-.9.9zm84.8 2.7c1.7 1.6 3.2 3.3 3.2 3.6 0 .6 3 3.9 15.1 16.6 3 3.2 6.1 5.8 6.8 5.8.7 0-4.9-6.5-12.5-14.5-7.5-8-14.2-14.5-14.8-14.5-.6 0 .4 1.4 2.2 3zm-5.9.7c1.6 2.8 31 32.7 31.6 32.1.3-.2-1.9-2.9-4.8-6-2.8-3-9.9-10.5-15.7-16.6-9.8-10.5-13.4-13.6-11.1-9.5zm-73 10.3c5.7 5.5 10.6 9.8 10.9 9.5 1-.9-17.2-19.2-19.3-19.4-1.3-.1 1.6 3.3 8.4 9.9zm70.7-6.8c1.5 2.8 31.7 33.8 32.3 33.2.3-.3-.2-1.1-1.2-1.8-.9-.7-1.7-1.7-1.7-2.2 0-.5-3-3.8-6.7-7.4-3.8-3.6-9.1-9-11.8-12-6.2-6.8-12.1-12.1-10.9-9.8zm-88.6 1.1c0 .2 6.8 7 15 15.1 8.3 8.1 15 14.3 15 13.7 0-1.4-27.5-29.1-28.9-29.1-.6 0-1.1.1-1.1.3zm17.2 11.2c6.5 6.3 12.3 11.5 13 11.5.7 0-3.9-5.2-10.2-11.5-6.3-6.3-12.1-11.5-13-11.5-.8 0 3.8 5.2 10.2 11.5zm68.8-8.9c0 1.3 5.8 6.9 6.5 6.3.2-.3-1.1-2.1-3-3.9-1.9-1.9-3.5-2.9-3.5-2.4zm-86 3.1c0 1.1 28.6 29.6 30.3 30.2 1.4.4-5.2-6.6-19.1-20.3-5.7-5.5-10.6-10.3-10.8-10.5-.2-.2-.4 0-.4.6zm174 .2c0 .5.7 1.5 1.7 2.2 1.5 1.3 1.5 1.2.4-.9-1.2-2.3-2.1-2.8-2.1-1.3zm-85.3 6.3c2.9 2.9 5.4 5 5.7 4.7.7-.7-8.2-9.9-9.6-9.9-.7 0 1.1 2.3 3.9 5.2zm83.3-2.8c0 1.1 3 3.9 3.6 3.4.2-.3-.5-1.3-1.6-2.3-1.1-1-2-1.5-2-1.1zm-77.9 1.3c.2.6 4.9 6 10.4 12 13.1 14.2 18.5 19.3 18.5 17.6 0-.5-6.6-7.6-14.6-15.8-8-8.3-14.5-14.5-14.3-13.8zm87.8 4.2c4.6 5.4 7.1 7.8 7.1 6.5 0-1-9.7-11.4-10.6-11.4-.3 0 1.2 2.2 3.5 4.9zm-187.9-2.4c0 .3 1.9 2.4 4.3 4.8 2.4 2.3 10.5 10.2 18 17.6 7.5 7.4 13.9 13.2 14.3 12.8.5-.5-12.4-13.5-33.3-33.5-2.4-2.2-3.3-2.7-3.3-1.7zm184 3.1c0 1.1 2.8 4.5 16.8 20.3 3.2 3.5 6.7 7.5 7.9 9 1.1 1.4 2.4 2.3 2.8 1.9.3-.3-1.5-3-4.2-6-2.6-3-7.7-8.7-11.3-12.8-3.6-4-7.7-8.7-9.2-10.4-1.5-1.7-2.8-2.6-2.8-2zm-176.9 10.6c20.2 19.6 30.1 28.8 31.2 28.8.7 0-3.1-4.1-8.3-9.1-5.2-5.1-13.9-13.4-19.3-18.5-5.4-5.2-10.3-9.4-10.9-9.4-.6 0 2.7 3.7 7.3 8.2zm81.9-7.4c0 .5.7 1.3 1.6 1.6 1 .4 1.4.1 1.2-.6-.5-1.5-2.8-2.3-2.8-1zm13 .7c.7.9 1.5 1.3 1.7 1.1.7-.7-.7-2.6-1.9-2.6-.6 0-.6.6.2 1.5zm76 2.1c0 .9 6.6 9.1 10.2 12.7 4.5 4.4 3.2 1.9-2.8-5.5-5.6-6.8-7.4-8.5-7.4-7.2zm-296.9 7.7c15.5 14.8 33.3 30.6 33.8 30.2.6-.7-6.5-7.6-24.7-24.4-15-13.7-22.3-18.4-9.1-5.8zm116.9-6.6c0 .6 4.2 4.9 9.3 9.6 5 4.7 14.3 13.6 20.6 19.7 6.2 6.1 11.6 10.8 12 10.5.5-.6-7.6-8.7-27.4-27.4-12.6-11.9-14.5-13.5-14.5-12.4zm102.6 8.5c5 5.1 13.8 14.1 19.6 20 5.7 6 11 10.8 11.7 10.8.7 0-5.2-6.6-13.3-14.7-8-8.2-14.6-14.9-14.6-15.1 0-.2-2.4-2.5-5.2-5.2-9.1-8.6-7.7-5.5 1.8 4.2zm4.4-8.5c.1 1.6 23.8 25.5 24.8 25.2 1-.4-22.8-25.9-24.2-25.9-.3 0-.6.3-.6.7zm-11.9 7c15.8 17.2 38.9 40.2 39.3 39.4.6-.9-42.5-45.1-43.9-45.1-.4 0 1.6 2.6 4.6 5.7zm-97.1-3c0 .9 33.7 33.7 38.6 37.6 1.3 1 2.4 1.4 2.4.9 0-.5-7.5-8.1-16.7-16.9-19.6-18.7-24.3-22.9-24.3-21.6zm-129 1.1c0 .9 16.4 16.6 22 21 1.4 1.1 4.5 3.9 7 6.2 2.5 2.3 9.2 8.3 15 13.3 5.8 4.9 13.2 11.6 16.5 14.8 8.3 7.9 18.5 16.3 19.1 15.6.4-.4-16.5-15.8-48.1-43.7-1.6-1.5-8.6-7.8-15.5-14.1-14.7-13.4-16-14.5-16-13.1zm333 .1c0 .7 2 3.4 4.4 6 9.3 9.9 17.8 19.5 21.9 24.7 3.8 4.9 5.7 6.5 5.7 4.8 0-.4-2.4-3.4-5.2-6.7-2.9-3.4-6.4-7.5-7.8-9.1-2.5-3-9.8-11.1-15.7-17.5-1.8-1.9-3.3-2.9-3.3-2.2zm-25.4 2.9c-.3.3 0 1 .8 1.6.7.6 6.9 7.4 13.7 15.1 6.8 7.7 13 14.7 13.9 15.5 1.6 1.6 8 9.2 12 14.5 1.4 1.8 6.6 7.7 11.5 13.1 5 5.4 11 12.1 13.5 14.8 9.6 10.7 10.9 12 11.6 11.4.4-.4-1.8-3.3-4.7-6.4-8.9-9.4-9.2-9.8-14.4-16-2.7-3.2-7.2-8.4-10-11.5-2.7-3-7.7-8.6-11-12.4-18.5-21.3-36.3-40.4-36.9-39.7zm38.4 0c0 .4 1.9 2.6 4.1 4.7 4.4 4.2 3.9 2-.6-2.8-2.7-2.8-3.5-3.3-3.5-1.9zm-210.5 8.9c21.9 21.2 34.9 33.3 35.8 33.3.5 0-4.9-5.7-12-12.8-18.8-18.3-29.5-28.2-30.7-28.2-.6 0 2.5 3.5 6.9 7.7zm-130.4-.5c3.1 2.9 12.7 11.6 21.4 19.3 8.7 7.7 22.6 20.1 30.9 27.5 18.3 16.4 21.5 19 22.7 19 .6 0 .4-.6-.3-1.3-2.5-2.3-22.4-20.2-29.8-26.7-4.1-3.6-9.9-8.8-12.9-11.6-3.1-2.7-10.5-9.3-16.5-14.5-5.9-5.2-12.7-11.1-15-13.1-6.3-5.7-6.7-4.5-.5 1.4zm-1.5 4.5c9.5 9.2 15.8 14.9 22.9 20.8 3.2 2.8 6.8 6 8 7.1 1.1 1.2 5.4 5 9.5 8.5 4.1 3.4 8 6.8 8.6 7.3 5.2 5 27 23.6 29.2 25 1.1.7 1.1.4 0-1.3-.7-1.2-1.6-2.1-1.9-2.1-.3 0-1.9-1.2-3.5-2.8-6.8-6.3-40.9-36.5-47.8-42.3-1.6-1.3-4.1-3.5-5.7-4.9-1.5-1.4-4.8-4.3-7.5-6.5-2.6-2.2-7-6.2-9.8-8.8-2.8-2.7-6-5.3-7.1-5.8-1.1-.6 1.2 2 5.1 5.8zm218.4-5.9c0 1.5 43.6 45.9 44.4 45.2.2-.3-9.6-10.9-22-23.5-12.3-12.7-22.3-22.4-22.4-21.7zm-93 .9c0 1.2 3.8 4.8 4.5 4.1.3-.2-.6-1.5-2-2.8-1.4-1.3-2.5-1.9-2.5-1.3zm177.7 4.5c1 1.7 5.5 6.8 12.9 14.8 10.7 11.4 15 16.3 25.6 28.7 17.5 20.7 32.7 37.3 33.2 36.4.3-.5-.2-1.7-1.2-2.8-4.7-5.5-15.3-17.4-20.2-22.8-6.5-7.2-12.9-14.6-18.5-21.1-2.2-2.7-6.3-7.3-9.1-10.3-2.9-3.1-7.6-8.3-10.5-11.6-2.9-3.3-6.7-7.5-8.5-9.3-3.2-3.2-5.2-4.3-3.7-2zm-303.6 6.1c6.8 6.4 11 10.1 32.8 29.2 9.5 8.2 23.8 21 31.8 28.2 8.1 7.3 15.4 13.3 16.2 13.3 1.1 0 .4-1.1-1.9-3.2-8.4-7.5-13.1-11.6-18.6-16.5-3.2-2.8-10.6-9.3-16.3-14.5-5.7-5.1-15.6-13.7-22-19.2-6.3-5.4-12-10.4-12.7-11-.6-.6-3.3-2.9-5.9-5.1-2.7-2.2-5.4-4.6-6.1-5.3-.7-.6-1.6-1.2-2.1-1.2-.4 0 1.7 2.4 4.8 5.3zm131.9-4.5c0 .5 2.4 3.1 5.3 5.7 2.8 2.6 10.3 9.8 16.5 15.8 6.2 6.1 11.4 10.8 11.7 10.5.6-.5-29.3-30.5-31.8-32-1-.5-1.7-.5-1.7 0zm87-.1c0 .5 10.1 11.2 22.5 23.8 12.4 12.6 22.5 22.2 22.5 21.4 0-.8-6.9-8.3-15.2-16.7-8.4-8.3-18.1-18-21.5-21.6-6.6-6.8-8.3-8.2-8.3-6.9zm-226.5 3.4c.7 1.1 7.7 7.7 11.8 11.1 3.3 2.8 12 10.4 24.8 21.9 33.9 30.5 52.1 45.9 53.2 45.2.5-.3-.8-1.9-3-3.7-2.1-1.7-8.1-6.9-13.3-11.6-12.1-10.8-14.3-12.7-21.1-18.6-16.1-13.9-36.3-31.7-43.3-38.1-7.2-6.6-10.8-9.1-9.1-6.2zm133.1 3.1c9.2 10.4 43.1 42.4 43.9 41.6.3-.2-4.8-5.5-11.3-11.7-6.4-6.3-17-16.5-23.4-22.7-11.8-11.6-16.2-14.9-9.2-7.2zm218.5-1.2c.7 1.4 3 4.3 5.1 6.6 2.1 2.2 4.6 5.1 5.5 6.4 2.6 3.7 11.6 12.7 10.4 10.5-.5-1.1-2.2-3.4-3.6-5-19.8-22.5-18.9-21.5-17.4-18.5zm-121.6 5.2c9.4 10.3 40.9 41.8 41.8 41.8 1.4 0-.7-2.4-11.3-13-5.2-5.3-14.9-15.1-21.4-21.8-11.8-12.1-18.3-17.1-9.1-7zm85.1-1c1 1.3 2.8 3.3 3.9 4.5 2.2 2.4 18.1 20.3 42 47.5 8.6 9.8 16 17.8 16.6 17.8 1.1 0 1.2-1.7.1-2.2-.9-.3-27.9-30.8-32.2-36.2-5.3-6.7-30.3-33.6-31.3-33.6-.5 0-.2 1 .9 2.2zm-184.6.6c0 .5.7 1.5 1.5 2.2.8.7 1.5.9 1.5.6 0-.4-.7-1.4-1.5-2.2-.8-.9-1.5-1.1-1.5-.6zm179-.4c0 .3 1.2 1.7 2.8 3.3 3.4 3.5 21.2 23.6 31.7 35.9 4.4 5.1 13 15 19.2 21.9 6.2 6.9 11.7 13.3 12.2 14.3.8 1.4 1.2 1.4 2.2.5 1-1-.5-3-7.4-10-4.7-4.9-9.5-9.9-10.7-11.3-4.4-5.3-24.6-28.6-26.5-30.6-.5-.6-4.7-5.4-9.2-10.5-9.5-11-14.3-15.5-14.3-13.5zm-82.5 3.8c4.7 5.8 43.8 44.8 44.8 44.8 1.1 0-15.1-17-34.4-36.3-11.8-11.6-15.5-14.7-10.4-8.5zm-91.7 1.3c1.7 3.3 41.2 40.5 41.2 38.9 0-.5-7.5-8.1-16.7-16.9-19.2-18.4-20.1-19.3-23.2-22l-2.4-2 1.1 2zm-5.7 1.2c0 .4 7.4 7.7 16.2 16.1 24.4 23 30.1 28.2 31.1 28.2 1.1 0-1.6-3.2-6.8-7.9-2.2-2-6.2-5.9-9-8.6-8.9-8.8-29.7-28-30.7-28.3-.5-.2-.9 0-.8.5zm180.9 1.2c0 .5.3 1.1.8 1.3.4.1 4.8 5 9.7 10.7 5 5.7 10 11.5 11.3 13 1.3 1.4 3.3 3.7 4.4 5.1 1.2 1.4 6 6.8 10.7 12.1 4.7 5.2 10.5 11.8 12.8 14.5 9.2 10.8 13.1 14.9 13.9 14.2.4-.4-1.5-3.2-4.2-6.1-5.8-6.3-11-12.1-18.4-20.7-3-3.5-7.3-8.5-9.6-11-2.2-2.5-7.1-8.1-10.9-12.5-8.8-10.3-19.2-21.5-19.9-21.5-.3 0-.6.4-.6.9zm-182 3.3c0 .9 2.1 3.5 4.7 5.8s11.3 10.4 19.3 18c18.8 17.7 25.1 23.3 25.8 22.5.3-.3-1.8-2.7-4.6-5.3-12.5-11.4-27.5-25.5-39.4-37-3.5-3.3-5.8-4.9-5.8-4zm-122 .7c0 1.2 5.1 5.3 5.8 4.6.6-.6-3.8-5.5-5-5.5-.4 0-.8.4-.8.9zm.5 6.8c9.1 8.8 22.1 20.4 30.6 27.1 4.3 3.3 8 6.6 8.4 7.2.3.6 3.4 3.4 6.8 6.2 6.9 5.7 18.4 15.7 26.7 23.4 12.7 11.6 14.7 13.4 18.5 16.2 2.2 1.7 5.1 4.1 6.5 5.4 1.4 1.4 5.4 4.9 9 7.9 3.6 3 6.9 5.9 7.5 6.5 1.6 1.6 8.3 6.4 9 6.4.4 0-.6-1.2-2.3-2.8-12.7-11.5-18.8-16.9-20.7-18.2-1.2-.8-4-3.2-6.2-5.3-2.3-2.1-5.6-4.9-7.3-6.2-1.8-1.3-6.6-5.7-10.9-9.7-4.2-4.1-11.9-10.9-17.1-15.3-5.2-4.3-12-10.2-15-13-3-2.7-8.2-7.3-11.4-10-3.3-2.8-12.1-10.5-19.7-17.2-14.7-13-22.4-18.3-12.4-8.6zm218.5-3.7c0 1.7 46 47.4 46.8 46.5.3-.3-10-11.2-23.1-24.2-13-13-23.7-23-23.7-22.3zm86.1.7c.8 1 1.6 2 1.9 2.3 1.7 1.7 10.3 11.4 14.5 16.5 2.8 3.3 7.1 8.2 9.6 11 2.6 2.7 6.1 6.6 7.8 8.5 1.7 1.9 3.1 3 3.1 2.3 0-.6-1.5-2.9-3.4-5-3.8-4.3-18.1-20.6-27-30.6-3.2-3.7-6.3-6.7-6.9-6.7-.5 0-.3.8.4 1.7zm-183.1 2.2c0 .5 2.6 3.4 5.8 6.4 30 28.2 42.6 39.6 43.2 39.2.8-.5-5.2-6.5-28.5-28-7.1-6.6-14.4-13.5-16.1-15.3-3.1-3.3-4.4-3.9-4.4-2.3zm-126 2.6c0 .8 1.3 2 8 7.5 3 2.5 6 5 6.5 5.6.6.7 3.3 3.1 6.1 5.5s7.9 6.9 11.5 9.9c3.5 3 8.9 7.7 11.9 10.5 3 2.7 8.6 7.7 12.4 11 3.8 3.3 10.1 8.9 14.1 12.5 8.5 7.8 26.1 23 32.8 28.4 6.9 5.5 6.9 3.8.1-2-3.2-2.7-13.2-11.6-22.3-19.8-9.1-8.2-19.3-17.1-22.6-19.9-3.3-2.7-8.5-7.3-11.6-10.1-9.6-8.8-12.4-11.2-14.1-12.2-.9-.5-5.9-4.9-11.1-9.7-5.3-4.9-10.8-9.8-12.4-11-1.5-1.2-3.4-2.7-4.1-3.4-1.8-1.7-5.2-3.5-5.2-2.8zm223.7 2c3.2 4.5 46.3 47.2 46.3 45.8 0-1.1-40.8-42.7-45.9-46.8l-2.5-2 2.1 3zm-96.9 2c-.5.6 8.6 9.7 19.1 19.1 5.1 4.6 10 9.2 23.5 22.4 3.1 3 5.6 4.9 5.6 4.3 0-1.4-9.5-11.1-26-26.4-19.1-17.7-21.7-19.9-22.2-19.4zm95.9 2.8c1.6 3 46.7 47.9 47.1 46.9.2-.6-10.3-11.5-23.3-24.3-27-26.7-25.1-24.9-23.8-22.6zm-224.2.8c-.4.6-.4 2.6 0 4.6.6 3.1.3 3.8-2.5 6.2-2.7 2.2-3.8 4.7-7.5 17.1l-4.3 14.5 2.2 1.4c1.1.8 4.9 3.9 8.3 6.9 3.4 2.9 6.9 5.2 7.7 5 1-.2-1.6-2.9-6.9-7.3-8.2-6.8-9.6-8.7-7.5-10 .6-.3 1-1.5 1-2.6 0-1 .3-1.9.6-1.9.8 0 28.5 22.9 31.4 26 .8.9 5.3 4.8 10 8.6 4.7 3.9 9.1 7.8 9.9 8.7.7 1 2 1.7 2.8 1.7.8 0-2.1-3-6.3-6.8-4.2-3.7-11.6-10.3-16.3-14.6-4.7-4.3-13.4-11.9-19.3-16.8-6-4.9-10.8-9.6-10.8-10.5 0-1.6 3.5.9 15.5 11.2 3.9 3.3 8.6 7.3 10.5 8.9 1.9 1.6 6.4 5.5 10 8.7 7 6.2 7.6 6.7 16.5 14.4 3.2 2.7 7.1 6.2 8.8 7.8 1.6 1.5 3.5 2.7 4 2.7 1.6 0-23.5-23.2-30.3-28-1.9-1.4-5.1-4.1-7.2-6.1-4.3-4.2-13.2-12-20.7-18-5.4-4.4-7.3-6.9-5.1-6.9 1.1 0 14.9 11.3 23.5 19.1 2.2 2.1 7.4 6.5 11.5 9.9 4.1 3.5 9.5 8.1 12 10.4 9.9 9.1 23 20.6 23.5 20.6 1.2 0-1.7-3.9-4.7-6.5-1.8-1.5-6.2-5.5-9.8-8.9-3.6-3.3-10.3-9.3-15-13.2-4.7-3.9-12.8-10.9-18.1-15.5-5.2-4.6-11.5-10-13.9-11.9-2.4-1.9-5.5-4.6-6.9-5.9-2.3-2.2-2.3-2.5-.7-3.6 1-.8 1.3-1.6.7-1.9-1.6-1-.3-3.2 2.6-4.5 2.5-1.2 3.7-.6 8.3 3.9.3.3 3.2 2.7 6.5 5.5 3.3 2.7 6.2 5.2 6.5 5.5.3.3 2.5 2.3 5 4.4 2.5 2.2 8.1 7.2 12.5 11.1 4.4 4 12.1 10.6 17.1 14.7 5 4.2 13.1 11.4 18 16 15.8 15 19.3 18 20.5 17.6.6-.2-1.1-2.3-3.8-4.8-2.6-2.4-10.2-9.4-16.8-15.5-6.6-6.2-16.3-14.7-21.5-19.1-5.2-4.3-12.2-10.3-15.5-13.4-8.8-8.4-31.3-27-32.5-27-.5 0-1-1.2-1-2.6 0-3 .7-2.7 6.5 2.7 2.2 2 5.6 5 7.5 6.5 1.9 1.6 9.6 8.3 17 14.9s18 15.9 23.5 20.5c11.8 10 10.2 8.6 20.6 18.2 15.2 13.9 17.3 15.7 18.2 15.1 1-.6 0-1.6-13.5-13.4-5.1-4.5-12.9-11.4-17.3-15.4s-11.3-10-15.3-13.3c-4-3.3-11.2-9.6-16-14-4.8-4.4-10.3-9.2-12.2-10.8-1.9-1.5-6-5.1-9.1-7.8-3-2.8-6.5-5.9-7.7-6.8-1.2-1-2.2-2.5-2.2-3.4 0-1.4.2-1.5 1.9-.3 5.2 3.8 34.8 29.7 52.6 46.1 2.2 2 5.4 4.7 7 5.9 1.7 1.3 6.2 5.4 10.1 9.1 3.9 3.8 8.4 7.9 10.1 9.1 1.7 1.2 4.8 3.9 6.9 6 5.2 5.1 14.3 12.1 14.9 11.5.3-.3-2.5-3.2-6.2-6.4-17.6-15.4-27.2-24-31.3-27.9-2.5-2.3-6.6-6-9.1-8.1-5-4.2-28.1-24.5-28.9-25.4-.3-.3-3.9-3.5-8-7-4.1-3.6-7.7-6.7-8-7-.3-.3-2.7-2.4-5.4-4.8-4.8-4.2-7.9-5.2-9.1-3.1zm307.5 2.8c0 1.3 7 9.9 14.4 17.9 6.7 7.2 7.5 8.1 21.4 24.2 14.4 16.7 21.2 23.7 21.2 21.8 0-.9-.3-1.8-.7-2-.5-.2-4.2-4.1-8.3-8.8-4.1-4.7-8-8.9-8.6-9.5-.6-.5-3.7-4.1-7-8-3.2-3.8-6.3-7.5-6.9-8.1-.5-.6-6.4-7.2-12.9-14.7-6.6-7.5-12.1-13.7-12.3-13.7-.1 0-.3.4-.3.9zm-179 1c0 .7 15.3 15.4 23.3 22.3 5 4.4 22.2 20.5 24 22.5 1.1 1.2 2.4 2 2.9 1.7.9-.6-13.2-14.4-32.7-32.1-5.5-5-11.3-10.5-12.9-12.2-3-3.1-4.6-3.9-4.6-2.2zm94.3.8c10.4 11.4 47.9 48.4 48.4 47.9.7-.7-47.6-49.6-49.1-49.6-.5 0-.2.8.7 1.7zm-2.3 3.3c0 .8 10.8 12.3 24 25.5 13.2 13.1 24 23.4 24 22.7 0-.7-10.8-12.1-24-25.5-13.2-13.3-24-23.5-24-22.7zm-92 1.9c0 .5 4.8 5.3 10.7 10.7 5.9 5.5 17 15.9 24.7 23.1 7.8 7.3 14.4 13.3 14.8 13.3 1.8 0 .5-2-3.9-6-2.7-2.4-8.4-7.7-12.8-11.9s-10-9.3-12.5-11.3-8-7-12.2-11.2c-7.8-7.6-8.8-8.4-8.8-6.7zm180 .9c0 .9 5.2 7.1 12.7 15.2 2.3 2.5 6.6 7.4 9.5 11 12.4 15.3 30.7 35.5 31.5 34.7.6-.7-1.9-3.9-11.7-14.7-3.8-4.1-14.6-16.4-24-27.3-9.5-10.8-17.4-19.7-17.6-19.7-.2 0-.4.4-.4.8zm-90 1.9c0 1.4 49.9 50.7 50.6 50 .7-.7-48.5-50.7-49.8-50.7-.5 0-.8.3-.8.7zm86.7 1.5c1.1 1.3 3.1 3.6 4.5 5.3 1.4 1.6 6.5 7.5 11.3 13 4.9 5.5 10.4 11.9 12.4 14.2 16.8 19.5 24.8 28.2 25.9 28.2 1.9.1 1.6-.4-5.2-7.6-3.5-3.7-11.6-12.9-18.1-20.3-21.5-24.9-30.6-35-31.7-35-.6 0-.2 1 .9 2.2zm-305.7.7c0 .5 2.6 3.1 5.7 5.7 15.7 13.5 23.3 20.1 28.3 24.8 3 2.9 7.5 6.7 10 8.6 4.4 3.5 19.3 16.7 27.5 24.5 8.6 8.2 13.7 12.5 14.8 12.5.7 0-1.7-2.8-5.3-6.1-3.6-3.4-10.1-9.6-14.5-13.8-4.4-4.2-13.2-12-19.5-17.3-6.3-5.3-18.7-16-27.5-23.8-16.2-14.3-19.5-16.8-19.5-15.1zm135 7.3c3.6 3.5 12.3 11.8 19.5 18.4 7.1 6.5 15.4 14.3 18.5 17.1 3 2.9 5.8 5.3 6.3 5.3 2 0 0-2.4-7-8.7-4.2-3.7-9.5-8.6-11.8-10.8-10.6-10-29.8-27-30.8-27.3-.7-.2 1.7 2.5 5.3 6zm82-4.7c0 1.3 17 17.8 17.6 17.2.5-.4-3-4.6-7.6-9.2-7.5-7.6-10-9.6-10-8zm86-.1c0 .2 1.3 1.9 3 3.7 1.6 1.9 3.8 4.3 4.7 5.4 1 1.2 3.6 4.1 5.8 6.6 2.2 2.4 6.3 7.1 9 10.4 9 10.7 26.2 30 28.9 32.4 1.4 1.4 2.9 2.2 3.2 1.8.4-.3-2.2-3.7-5.8-7.4-5.7-6-18.1-20-24.2-27.3-13.8-16.5-24.6-27.8-24.6-25.6zm-249.8 1.6c.5 1.6 4.8 4.6 4.8 3.4 0-.5-1.2-1.8-2.7-2.8-1.6-1.2-2.4-1.4-2.1-.6zm-53.6 2.2c.3.7 2.7 3 5.3 5.1 2.7 2.1 6.6 5.4 8.7 7.4 2.2 1.9 7.9 7 12.8 11.2 15.6 13.2 34 29.3 36.2 31.5 3.9 4 18.6 17.1 20 17.9 2.9 1.7 1.2-1.2-2.8-4.8-2.4-2.1-7.2-6.5-10.8-9.9-9.5-8.8-21.2-19.2-40.9-36.1-27-23.3-29.9-25.6-28.5-22.3zm138.4 10.6c5.8 5.4 13 12 16 14.7 3 2.8 9.9 9.2 15.4 14.3 5.4 5.1 10.1 9 10.4 8.7.7-.7-6.8-8.4-19.3-19.8-5.5-5-13.1-12-17-15.6-3.8-3.7-8.6-7.9-10.6-9.4-7.3-5.5-5-2.4 5.1 7.1zm91.2 5.1c13.7 14.2 17 17.2 13.4 11.6-2.5-3.8-25.2-26.5-26.6-26.5-.6 0 5.3 6.7 13.2 14.9zm73.4-13.6c.3 1 .9 1.5 1.2 1.2.3-.3 0-1.1-.7-1.8-1-.9-1.1-.8-.5.6zm4 4.2c.4 1.1 3 4.5 5.8 7.5 2.9 3 7.4 8.2 10.1 11.5 2.7 3.3 6.9 8.3 9.4 11.1 2.6 2.7 8 8.7 12.1 13.3 4.1 4.6 7.9 8.9 8.3 9.7.9 1.6 2.7 1.9 2.7.4 0-.5-2.1-3.2-4.7-5.9-2.7-2.7-7.3-7.7-10.4-11.2-5.5-6.3-8.3-9.5-18.4-21.5-7.9-9.4-15.6-17.1-14.9-14.9zm-171.5 7.8c6.6 6.3 16.3 15.2 24.7 22.5 1.5 1.3 6.4 6 11 10.4 4.5 4.4 8.6 7.8 8.9 7.4.8-.7-13.8-15.2-27.7-27.6-5.2-4.7-12.2-11.1-15.6-14.2-3.3-3.2-6.7-5.8-7.5-5.8-.8 0 2 3.3 6.2 7.3zm166.9-6.9c0 .9 3.1 4.8 8.9 11.1 4.9 5.4 14.5 16.5 21.4 24.7 8.8 10.4 18.6 20.3 19.4 19.5.4-.4-2.2-3.8-5.8-7.5-8.2-8.4-14.7-15.8-29.1-32.7-8.1-9.6-14.8-16.4-14.8-15.1zm47 2.2c0 .7 16.3 19.6 18.5 21.4.9.7 1.8 1 2.2.6.4-.3-1.3-2.8-3.8-5.4-2.5-2.6-6.9-7.5-9.8-11-4.7-5.5-7.1-7.4-7.1-5.6zm-135 1.9c0 1.6 5.4 7.3 41.1 43.2 18.1 18.3 33.5 33.3 34.2 33.3.6 0-8.8-10-20.9-22.3-12.1-12.2-29.3-29.6-38.2-38.7-8.9-9.1-16.2-16-16.2-15.5zm87 2c0 .3 3.7 4.8 8.3 9.8 4.5 5.1 11.4 12.8 15.2 17.2 10.7 12.2 18.8 20.6 19.3 20 .3-.3-1.7-2.9-4.4-5.8s-6-6.6-7.4-8.3c-5.8-6.9-13.5-15.9-14-16.4-.3-.3-3.4-3.8-7-7.8-5.8-6.6-10-10.3-10-8.7zm-88.5 3.5c-.5.8 67.8 70 69 70 .4 0 .5-.4.3-1-.6-1.8-68.9-69.7-69.3-69zm25.5-.2c0 1.9 30.5 32.5 32 32 1-.3-20-22.1-31.5-32.7-.3-.2-.5.1-.5.7zm-242 5.4c3.1 2.9 7.6 6.9 10 8.8 2.4 1.9 9.2 7.7 15.2 12.8 5.9 5.1 10.8 8.7 10.8 8-.1-1.7-37.5-34.2-39.8-34.6-.9-.2.8 2.1 3.8 5zm-10.4 3.2c.7 1.8 8.4 8 9.1 7.2.6-.6-7.7-8.5-8.9-8.6-.4 0-.5.6-.2 1.4zm153 10.4c6.1 5.9 12.2 11.6 13.5 12.8 1.3 1.1 8.5 7.7 15.8 14.7 7.4 6.9 13.7 12.4 14 12.1 1.1-1.1-51.2-50.4-53.5-50.4-.5 0 4.1 4.9 10.2 10.8zm-11.6-6c0 .7 34.8 34.7 43.3 42.4 8.6 7.7 14.3 11.4 8.5 5.4-6.8-6.9-50.7-48.6-51.2-48.6-.3 0-.6.4-.6.8zm119.1 2.9c4.6 5.7 23.9 24.5 23.9 23.2 0-1.7-22.4-24.9-24.1-24.9-.8 0-.7.6.2 1.7zm-120.1 2.2c0 2.3 53.8 53.1 56.2 53.1 1.1 0 .1-1.1-15.7-15.9-5-4.6-15.8-15.1-24.1-23.3-8.3-8.1-15.3-14.8-15.7-14.8-.4 0-.7.4-.7.9zm-114.3 7.3c2.3 2.3 4.5 3.9 4.9 3.5.8-.8-6.4-7.7-8-7.7-.6 0 .8 1.9 3.1 4.2zm196.3-2.3c0 1.2 37.7 38.1 39 38.1.5 0 1-.1 1-.3 0-.7-38.3-38.7-39.1-38.7-.5 0-.9.4-.9.9zm-84.3 5.8c-1.1 1.7 21.1 22.3 23.8 22.3.4 0-1.7-2.3-4.6-5.2-3-2.8-8.4-8-12-11.6-3.7-3.5-6.9-6-7.2-5.5zm85.8 3.4c10 10.3 33.5 32 33.5 30.9 0-1.7-34.2-35-36-35-.8 0 .2 1.7 2.5 4.1zm-88.5 1.8c0 1.1 19.7 19.6 28.3 26.6 6.4 5.3 8.8 5.7 3 .5-2.1-1.9-9.7-8.9-16.9-15.7-7.3-6.8-13.5-12.3-13.8-12.3-.3 0-.6.4-.6.9zm85-.2c0 1.7 31.4 32.7 31.8 31.3.2-.6.2-1.2 0-1.3-.2-.1-7.4-7.2-16.1-15.7-8.6-8.5-15.7-15-15.7-14.3zm110.7 0c-.7 1.1 22.9 26 23.8 25.1.6-.6-3.4-5.2-18.1-20.6-2.9-2.9-5.4-5-5.7-4.5zm-111.7 5.9c0 1.6 26.7 27.7 27.9 27.3.7-.3-3.9-5.4-10.1-11.4-15.4-14.8-17.8-17-17.8-15.9zm110 6.7c0 1.3 17.1 17.8 19.3 18.6 1.4.5-15.9-18.1-17.9-19.2-.9-.5-1.4-.3-1.4.6zm30-.7c0 .7 2.7 3.4 3.4 3.4 1.1 0-.6-2.9-2-3.4-.8-.3-1.4-.3-1.4 0zm-248 5.3c0 .5.7 1.2 1.6 1.5 2.4.9 2.8.7 1.4-.9-1.4-1.7-3-2-3-.6zm106 .9c0 1.4 20.1 20.5 20.8 19.8.3-.4-3.4-4.7-8.3-9.6-9.1-8.9-12.5-11.7-12.5-10.2zm111.8.8c1 1.9 11.6 12.3 14 13.8 3 1.8-.7-3-6.5-8.5-6.9-6.6-9-8-7.5-5.3zm-160.3 6.2c13.2 12.5 20.8 19.2 21.4 18.6.6-.5-2.9-3.9-19.3-18.7-9.7-8.7-11.2-8.7-2.1.1zm158.2-3c-.4.5 2.3 3.7 5.8 7.1 3.6 3.4 6.5 5.7 6.5 5.3 0-1.6-11.7-13.4-12.3-12.4zm-110.7.9c0 1.1 15.4 16.6 17 17.1 2.1.7.8-1.2-3.2-5.2-8-7.9-13.8-12.9-13.8-11.9zm108.9 5c1.4 2.7 14.2 14.6 14.9 13.9.6-.7-11.2-13-14.1-14.7-1.6-.9-1.7-.8-.8.8zm-117.9-.2c0 1.2 12.1 12.7 12.7 12.1.4-.4-1.1-2.5-3.3-4.7-4.1-4.3-9.4-8.5-9.4-7.4zm7 .6c0 1.2 12.9 13.9 14.2 13.9 1.8 0 .5-1.9-6-8.3-6.7-6.6-8.2-7.7-8.2-5.6zm108 2.7c0 1.3 7.9 8.6 8.6 8 .3-.4-1.2-2.5-3.3-4.7-3.7-4-5.3-5-5.3-3.3zm-149 3c0 .5.7 1.5 1.5 2.2.8.7 1.5.9 1.5.6 0-.4-.7-1.4-1.5-2.2-.8-.9-1.5-1.1-1.5-.6zm145 0c0 .5 1.8 2.3 4 4.1 4.7 3.8 5.4 2.4.9-1.9-3.2-3-4.9-3.8-4.9-2.2zm-116 9.2c3 2.7 5.9 5 6.3 5 1.6 0-7.5-8.8-9.7-9.4-1.3-.3-.1 1.2 3.4 4.4z"/>
	<title>Diagram showing ragged, point rocks with deep depressions.</title>
</svg>
