<?xml version="1.0" encoding="utf-8"?>
<svg xmlns="http://www.w3.org/2000/svg" version="1.0" viewBox="0 0 495 344">
	<title>The man lies on his side, reading the book and smoking his pipe.</title>
	<path d="M451.6 3.2c.3.4 1.2.8 2 .8s1.4.7 1.4 1.5.5 1.5 1 1.5c1.2 0 1.3-2 .2-3.5-.8-1.2-5.3-1.5-4.6-.3M450 5.1c0 .8.7 2.3 1.5 3.3 1.5 1.9 1.5 1.9 1.5-.1 0-1.1-.7-2.6-1.5-3.3-1.2-1-1.5-1-1.5.1M449.7 10.6c-.3.3.9 2.6 2.6 5 3.8 5.4 4.9 4.3 1.2-1.2-3.2-4.7-3-4.5-3.8-3.8M459.4 12.7c.2 1.6.4 2.9.5 3.1 0 .1 1-.2 2-.7 1.5-.9 2-.7 2.4.9.7 2.6 2.7 2.6 2.7 0 0-1.1-.6-2-1.3-2-.8 0-2.4-.9-3.7-2-2.9-2.5-2.9-2.5-2.6.7M455 13c0 .5.5 1 1.1 1 .5 0 .7-.5.4-1-.3-.6-.8-1-1.1-1-.2 0-.4.4-.4 1M450 17.9c0 .5.9 1.9 2 3.2 2.2 2.8 2.8.6.6-2.4-1.4-1.8-2.6-2.2-2.6-.8M456 25.2c0 .9.5 2 1 2.3 1.3.8 1.3-.5 0-2.5-.8-1.3-1-1.3-1 .2M432.5 26c.3.5.8 1 1.1 1 .2 0 .4-.5.4-1 0-.6-.5-1-1.1-1-.5 0-.7.4-.4 1M436.6 29.5c2.5 1.9 4 1.9 2.4 0-.7-.8-2-1.5-2.8-1.5-1.3 0-1.2.3.4 1.5M369.1 30.7c-9.1 2.2-14.4 7.6-18.8 19.6-1.8 4.8-3.3 9.5-3.3 10.3 0 1-.6 1.4-1.5 1-1-.4-1.9.3-2.5 1.8-.5 1.4-1.8 2.7-3 3.1-1.1.4-2.8 1.7-3.6 3.1-2.5 3.8-.3 5.7 5.8 5.2 4.2-.4 5.2-.2 7.6 2.2 2.7 2.7 5.6 7 5 7.4-4.9 3.6-16.9 5.9-18.3 3.5-2.4-3.8-26.9-4.1-31.9-.3-2.9 2.1-1.2 2.8 2.3 1 3.6-1.9 9.8-2.1 10.4-.4.3 1 .9 1 2.3.2 1.3-.7 3.9-.9 7.7-.3 4.5.6 6.2 1.3 7.8 3.3 2.1 2.7 4.5 3.4 5.1 1.5.2-.7.8-.7 1.5.3.9 1 .4 2.5-2.2 6.8-1.9 3-3.5 6.2-3.5 7.1s1.4 2.8 3.1 4.3c3.1 2.8 5.9 3.1 6.7.8.2-.7-.2-1-1.2-.6-.9.3-1.6.2-1.6-.4s.5-1.2 1.2-1.4c1.7-.6 0-2.8-2.3-2.8-2.5 0-2.4-1.8.3-3.9 1.5-1.2 1.8-2 1-2.5-.8-.4-1.2 0-1.3 1.1 0 1-.3 1.3-.5.6-.6-1.3 6.2-12.3 7.5-12.3.5 0 1.5 1.5 2.2 3.2.7 1.8 1.4 3.6 1.7 4 .2.5-.4.8-1.3.8-1.3 0-1.6.8-1.3 3.7.4 5.5-1.2 18.4-2.3 17.7-.5-.3-.9 2-.9 5 0 4.3-.4 5.6-1.5 5.6-.8 0-1.7-1.2-2.1-2.8-.8-3.8-2.6-7.3-5.4-10.7-1.2-1.4-1.2-1.8.1-2.6.9-.7.5-.7-1.6-.3-1.6.4-3.2.8-3.4 1-.7.6 4.3 16.9 5.5 18 .8.6.9 1.5.3 2.5-1.4 2.2-1.1 4.9.6 4.9 2.7 0 1.6 2.4-3.3 7-6.4 5.9-9.3 8-11.1 8-.8 0-2.5.9-3.7 2.1-2.9 2.7-12.1 4.3-24.8 4.1-7-.1-10.6-.6-12.2-1.7-1.3-.8-4.1-1.5-6.3-1.5s-4.3-.4-4.6-1c-.3-.5-1.9-.7-3.5-.3-1.8.3-3 .1-3-.5s1.2-1.2 2.7-1.4c1.4-.2 2.8-.9 3.1-1.6.3-.9-.4-1.1-2.5-.7l-2.8.6 2.5-1.5c1.4-.8 4.2-1.5 6.3-1.6 2.2 0 3.6-.4 3.2-1-.3-.5 1.3-1.3 3.7-1.6 2.4-.4 3.8-.9 3.2-1.1-1.8-.6-.5-4 2.1-5.7 1.2-.8 3.8-1.6 5.8-1.8l3.5-.3-2-2.5c-1.8-2.3-2.1-2.3-3.3-.7-.7.9-2 1.7-2.9 1.7s-1.9.7-2.2 1.5c-.4.8-1.3 1.5-2.1 1.5-.9 0-1.3-.6-.9-1.5.7-1.9-.7-1.9-4.6.1-3.2 1.7-9.1 1.9-19.5.9-5.9-.6-6.3-.5-6.3 1.4v2l-4.6-1.9c-5.3-2.3-5.4-2.3-5.4-.9 0 1.9 7.4 4.4 13.5 4.4 3.3 0 6.2-.3 6.5-.6s2.2-.9 4.3-1.2c3.5-.5 3.7-.4 3.1 1.8-.4 1.7-.1 2.4 1.3 2.8 1.5.4 1.4.5-.4.6-1.3 0-2.3.6-2.3 1.2 0 1.1-2.5.8-6.4-.7-1.1-.4-1.6-.1-1.6 1 0 1.3-.5 1.4-2.6.6-3.3-1.3-4.7-1.3-3.9 0 .3.5 1.4 1 2.5 1 1 0 2 .7 2.4 1.5.8 2.2-2.1 1.9-5.1-.5q-4.8-3.75-3.6-.3c.5 1.5.3 1.6-.8.5-1.5-1.4-5.9-1.6-5.9-.2 0 .5 1.1 1.2 2.5 1.6 1.4.3 2.5 1 2.5 1.4 0 .5.9.6 2 .3s2 0 2 .6c0 .5-.7.8-1.5.5-.9-.4-1.5 0-1.5 1 0 2.1-2.6 2.1-3.4 0-.3-.8-1-1.3-1.5-1s-1.4-.1-2.1-.9c-2.2-2.7-3.2-1.6-1.1 1.1 2.6 3.3 2.7 5 .2 5.7-2.1.5-4.1-2.5-2.2-3.1 2.1-.7 1.1-2-1.9-2.7-4.1-.9-6.7 1-4.6 3.4.8.9 1.6 2.7 1.8 4.1.2 1.7.8 2.4 2.1 2.2.9-.2 1.7.2 1.7.9s-.9.9-2.4.5c-1.4-.3-2.8-.2-3.1.4-1 1.6-2.5 1.2-2.5-.8 0-.9-.5-2.4-1.1-3.2-.7-1.1-.9-.3-.6 3 .3 2.5.2 3.6 0 2.5-.7-3.2-2-3.9-3.8-2.2-1.2 1.2-1.4 2.6-.9 5.2.4 2.4.3 3.5-.6 3.5-.6 0-.9-.8-.6-1.8.3-.9.1-2.4-.5-3.2-.8-1.1-.9-.4-.6 2.7.5 4-.5 5.8-1.6 3-.4-.7-.8-.3-1.2 1-1 3.3-2.2 2.8-3.5-1.2-.6-1.9-1.6-3.3-2.1-3-.5.4-.2 1.9.6 3.5 1.9 3.6 1.9 5 .1 5-1.5 0-3-3.1-3.1-6 0-2-4.6-2.8-13-2.2-6.5.5-6.9.4-5.3-1.1.9-1 2.9-1.7 4.5-1.8l2.8-.1-2.5-.8c-2.1-.7-2.2-.8-.5-.9 3.3-.2 5.5-2.5 4.8-4.9-.3-1.5-.1-2.2.8-2.2 1.4 0 5.9-4.2 5.9-5.4 0-.3-.5-.6-1.2-.6-1.5 0-7.8 6.9-7.8 8.6 0 1.6-3.8 4.4-6 4.4-1.7 0-10 8.3-10 10 0 .5-2.1 2-4.7 3.3-2.8 1.3-4.9 3-5.1 4.1-.4 1.8-.3 1.8 1.2.3.9-.9 4.6-3 8.2-4.7 3.5-1.7 6.2-3.5 5.9-4-.9-1.4 2.3-1.9 3.5-.5.7.9 2.4 1.1 5 .8 2.8-.4 4.7 0 6.6 1.2 2.2 1.4 2.8 1.5 3.5.4.6-1.1 1.1-1.1 2-.2 1.3 1.3.3 3.6-1.3 2.7-.6-.4-.5.3.2 1.6 1 1.8.8 2.5-.9 4.4-1.2 1.2-2.1 2.6-2.1 3.2 0 .5-1.6 3.3-3.4 6.2-2.4 3.8-4.7 6-8.2 7.7-2.7 1.4-5.2 2.5-5.6 2.5-2 0-.3-2.2 4.2-5.5 2.8-2 5-4.2 5-4.8s.7-1.9 1.7-2.9c1.4-1.6 1.4-1.8 0-1.8-.8 0-2.2-.3-3.1-.6-1.1-.4-1.9.2-2.6 1.7-1 2.3-1 2.3-.6-.4.3-2.1 0-2.7-1.1-2.3-.8.3-2.2.6-3.1.7-1.1 0-1.2.2-.4.6 1.5.6 1.6 4.9.1 5.9-.6.3-.8 1.5-.6 2.5.4 1.4.1 1.9-1.1 1.7s-1.7.4-1.7 2.4c0 1.5-.3 2.8-.7 2.8h-1.6c-.5 0-1.3-1-1.9-2.2-.8-1.8-.2-3.6 3-9.6 2.2-4 3.7-7.6 3.4-7.9-1-.9-2.5.6-3.1 3.2-.4 1.4-2 4.8-3.7 7.5-3 4.9-3 5.1-1.4 7.8l1.6 2.7-2-2.4c-2.9-3.2-2.6-6.3 1-12.7 1.6-3 2.9-6 2.7-6.6-.5-1.4-7.8 12.7-7.8 15 0 1.5-.2 1.5-1 .2-.5-.8-.7-2.3-.4-3.3.3-.9 0-1.7-.6-1.7s-.8-.5-.5-1c.4-.6 1.1-.8 1.6-.5 1.1.7 1-1-.1-4.5-.5-1.6-.8-1.9-.9-.8-.1.9-1.1 2.8-2.4 4.1-1.9 2.1-2.4 2.3-3.6 1-1.7-1.9-2.8-.8-1.1 1.2 1.1 1.3 1 1.5-.1 1-.8-.3-2.3-1.9-3.4-3.5-1.1-1.7-2.9-3-3.9-3-1.8 0-1.8.1-.3 1.8s1.5 1.8-.3 1.9c-1.1.1-2.7.9-3.6 1.8-2 2-3.2 1.1-1.4-1 1.9-2.2.9-2.6-3.6-1.3-2.5.7-3.3 1.3-2.1 1.6.9.2 1.7 1.2 1.7 2.2 0 .9.7 2.3 1.5 3 1 .9 1.2 1.7.5 3-1.2 2.2 1.5 3.7 2.7 1.6.5-.7 1.7-1.8 2.8-2.5 2-1.2 2-1.2-.1-.6-1.8.5-2 .2-1.6-2.5.6-3.9 1.5-3.8 5.6.5 3.6 3.6 8.6 6.3 8.6 4.5 0-.6-1.2-1.5-2.6-2-2.6-1-6.6-5.1-5.8-5.9.2-.2 2.1.9 4.2 2.6 2 1.7 4.7 3.3 6 3.7 1.2.4 2.2 1.1 2.2 1.6 0 1.1 7.8 5.6 11.2 6.4 2 .4 4.1-.1 7.5-1.9 6.6-3.5 8.4-5.1 13.3-12.3 2.9-4.2 4.9-6.2 6.4-6.2 2.6 0 3.7-.8 6-4.3 1.2-2 2.4-2.7 3.7-2.4 1.1.3 1.6.1 1.3-.4-1-1.7 2.6-6 6.2-7.5 1.9-.8 3.4-1.8 3.4-2.4 0-1.1 8.2-5.3 12.3-6.4 1.5-.3 4.2-2 6-3.7 1.7-1.7 4.5-3.6 6.2-4.3 4.1-1.7 12.6-1.4 15.4.6 1.9 1.3 2.7 1.4 4.2.5s2.3-.9 3.7.1c.9.6 3.4 1.9 5.5 2.8 3.8 1.7 4.2 2.1 2.9 4-.5.8-2.4.7-6.7-.3-3.3-.7-7.8-1.6-10-1.9-3.7-.5-3.9-.4-2.1 1 2 1.6 13.4 5.6 16.1 5.6 1.3 0 2 2.1 1.6 5.5 0 .5.9 2.1 2 3.5 2 2.4 2 2.4 1.4.2-.4-1.2-.2-2.2.4-2.2.5 0 1.2-.8 1.4-1.8.4-1.4.5-1.3.6.4 0 1.1.8 2.9 1.6 4 2 2.7 1.9 3-1.6 4.4-3 1.3-3.1 1.5-2.4 5.9.4 2.5 1.1 5.2 1.7 5.8.6.7.7 2 .4 3-.4.9-.1 2 .6 2.4 1.6 1-2 4.1-4 3.4-.8-.3-2.3-.5-3.5-.5-2 0-2 0 .3-2.5 1.9-2 2-2.5.7-2.5-.9 0-2.2.9-2.9 1.9-.8 1.1-3.7 2.9-6.5 4.2-2.8 1.2-5.6 3.1-6.2 4.3-.7 1.2-3.2 2.9-5.6 4-2.5 1-4.5 2.2-4.5 2.7 0 .4-1.6 1.1-3.5 1.5-3.7.7-5.1 1.8-5.7 4.9-.2 1.1-1.2 2.1-2.3 2.4-2.3.4-4.4 2.9-4.5 5.2 0 2.2-2 2.9-7.9 2.9-2.8 0-5.5.6-6.7 1.6-1.9 1.5-1.9 1.5.1 1 5.4-1.3 10.5-1.7 10.5-.8 0 1.6-4.9 3.2-8 2.6-2.2-.5-3.1-.2-3.6 1-.3.9-1.4 1.6-2.4 1.6-1.1 0-2.2.4-2.5 1-.3.5-1.1 1-1.6 1-.6 0-.8-.4-.5-.9.6-1-4.3-2.5-5.2-1.6-.3.3 0 .5.6.5 2.5 0 1 1.8-2 2.4-1.7.3-3.9 1.3-4.9 2.2-.9.8-4.2 1.9-7.3 2.3s-6.4 1.6-7.5 2.5c-1.7 1.6-2.5 1.6-5.6.6-2.9-.9-3.5-1.6-3-3.1.7-2.1-1.6-3.6-3.7-2.3-.7.4-2.4.8-3.8.8-1.5.1-2.6.8-2.8 1.8-.4 2.2 1.6 2.3 4.6.2 2.2-1.5 4.2-1.2 4.2.7 0 .5-1.3.9-2.8.9s-3.4.6-4.1 1.2c-1.1 1-1.4 1-1.8 0-.3-.6-1.3-1.2-2.4-1.2-2.2 0-2.6-2.5-.4-3.4 1.7-.6 2.1-3.6.5-3.6-.6 0-1.3.8-1.7 1.7-.3 1-2.2 3.2-4.2 5l-3.5 3.2-10.7-.2c-11.2-.2-13.9-1.2-13.9-4.9 0-1.5.5-1.8 2-1.3 1.3.4 2.7-.1 4.2-1.4 2.1-2 8.9-3 8.7-1.3-.4 2.6.4 3.4 1.3 1.2.9-2.1 1.2-2.2 1.5-.8.3 1 .9 1.8 1.4 1.8.6 0 .9-.8.7-1.8-.2-1.1-2.4-2.4-6.5-3.8-3.4-1.1-6.8-2.5-7.5-3.1-.7-.5-3.2-2-5.5-3.3-5.1-2.8-6.6-5.3-2.5-4.4l2.7.7-2-2c-1.1-1.1-2.3-1.9-2.7-1.6-1.2.6-.9-1.2.5-3.9 1.1-2.1 1.6-2.3 4-1.5 2 .6 2.5 1.2 1.8 2.1s-.2 1.7 2 3c3.6 2.1 5 1.4 2.1-1.1-1.5-1.4-1.9-2.6-1.5-5 .6-3.8 1.8-4.2 3.3-1.3.6 1.1 1.7 2 2.5 2 2.4 0 1.7-1.9-1-3.2-2.8-1.3-3-1.9-1.3-3.6 1.8-1.8 4.1-1.5 8.9 1.3 4.8 2.7 5.9 3 5.9 1.5 0-1.6-10.1-6.2-12.4-5.6-1.2.3-3.2 1.5-4.4 2.7-2.8 2.5-3.2 2.2-3.9-3-.3-2.3-.9-4.1-1.3-4.1-.5 0-.6.9-.3 2s.1 2-.5 2c-1.7 0-2.4-1.8-1.7-4.1.6-1.8 1.2-2 4.1-1.4 3.2.6 4.7-.6 2.4-2-.5-.3-.6-1.3-.3-2.2.4-1.1.2-1.4-.8-1.1-.8.3-1.2 1.3-1.1 2.3.3 1.6.1 1.7-1.2.6-2.5-2.1-2-4.8 1.2-5.6 1.5-.4 2.2-.9 1.6-1.2-2.7-1-6.2 1.6-6.8 5.1-.6 3.3-1 3.6-4.2 3.6-2.2 0-3.3.4-2.9 1.1.4.6 1.3.8 2 .5.7-.2 2.1.2 3.2.9 1.5 1.2 1.5 1.4.2 1.5-2.8 0-7.7 7-4.9 7 .6 0 1-.6 1-1.3 0-.8.9-2.2 2-3.2 2.8-2.6 2.5-.2-.5 4.3-1.4 2-2.1 3.8-1.5 4 .5.2 1 .8 1 1.3 0 .6-.4.8-.9.4-.6-.3-1.5.3-2.1 1.2-.9 1.4-1 1.1-.5-2 .7-4.1-.1-4.9-1.5-1.5-.9 2.3-.9 2.3-.9-.3-.1-1.4.5-3.1 1.2-3.8 1-1 .7-1.1-1.5-.6-2.6.7-2.8.5-2.8-2.5 0-1.7.5-4 1.1-5.2.6-1.1.8-2.2.5-2.5-.7-.7-2.9 4.5-3.2 7.7-.2 1.4-.8 4.1-1.5 6.1-.6 2-.9 4.3-.6 5 .3.8.8 0 1.2-1.9.9-4 2.5-5.2 2.5-1.9 0 1.4.7 3 1.5 3.7.9.7 1.4 2.7 1.4 4.9-.1 2.8-.3 3.1-.7 1.1-.4-2.3-.5-2.4-1.3-.5-.6 1.5-.8.9-.8-2.3-.1-4.7-2.1-5-2.1-.4v2.7l-2-2.5c-1.6-2-1.9-3.5-1.5-7l.4-4.5-1.3 3.5c-.8 1.9-1.5 4.8-1.5 6.5-.1 1.6-.6 3.7-1.2 4.5-1.2 1.8-.3-7.7 1.2-12.7.6-1.8.8-3.7.4-4.3-.3-.5-.2-1 .4-1 .5 0 .9-1.3.9-2.8-.1-1.5.4-3.7 1.1-4.9 1.3-2.6 1.4-3.3.3-3.3-.9 0-5.7 14.5-5.7 17.2 0 .9-.4 2-.8 2.4-.4.5-.5 0-.1-1 .5-1.3.4-1.7-.3-1.3-1.7 1-2.2-1.6-.6-3.1.7-.7 1.3-2.3 1.3-3.6 0-1.2.7-3.1 1.5-4.2.8-1 1.5-2.8 1.5-3.8 0-1.1.7-2.7 1.6-3.7.8-.9 1.1-2 .6-2.3s-1.9 1.5-3.1 3.9c-2.5 4.9-4 6.5-3.8 3.8.2-2.8-3.4-7.7-4.4-6.1-.5.7-.4 1.4.1 1.6.6.2 1 .8 1 1.4 0 .5-.6.8-1.2.6-1.7-.6-4.4 2.1-6.3 6.2l-1.6 3.5.5-4 .5-4-1.4 3c-.8 1.6-1.4 4.5-1.5 6.2 0 1.8-.3 3.3-.8 3.3-1.2 0-.2-8.2 1.5-11.8.8-1.9 1.3-3.6 1-3.8-1-1.1-3.9 5.2-4.9 10.7-.5 3.2-1.4 5.9-1.9 5.9-1.1 0-1.1-1.5 0-3.8.5-.9 1.3-3.7 1.9-6.1l1-4.3-3 .6c-2.5.5-2.9.3-2.4-1 .3-.9.6-1.9.6-2.4s1.4-.8 3.1-.8c1.7.1 3.4-.4 3.8-1.1.4-.6 1.5-.9 2.4-.5 1.2.4 1.7.1 1.7-1 0-1.7-3.6-2.3-4.2-.6-.5 1.6-37.1 3.1-42 1.7-2.2-.6-2.6-.4-2.2.8.9 2.2-.9 1.8-2.4-.5-.9-1.4-2.3-2-5.1-2-2.2 0-4.1-.5-4.3-1-.4-1.3-15.8-2.6-15.8-1.3.1 1.7 2.8 4.4 3.5 3.4.9-1.5 3.4-1.4 5.1.3 1.2 1.3 1.2 1.9-.6 5-2 3.7-1.8 6.6.5 6.6.8 0 1.6-1 1.8-2.3.4-1.8.4-1.7.6.6 0 1.6-.4 3.7-.9 4.8-.6 1-.8 1.9-.5 1.9 1.4 0 5.5-3.4 5.5-4.6 0-.7.9-1.8 1.9-2.4 1.6-.8 2-.6 2.4.8.4 1.5.5 1.5.6-.1.1-1.1-.7-2.1-1.9-2.4-1.1-.3-1.7-1-1.4-1.5.4-.6.1-1.4-.6-1.8-.9-.5-.9-.9-.1-1.4.6-.4 1.1-.2 1.1.4s.5.8 1 .5c.6-.3 1-1.5 1-2.6 0-2.3 3-2.3 3.8 0 .3.8 0 1.1-.6.7-1.1-.6-2.2 1.6-2.1 4.2 0 1.1.2 1.2.6.4 1-2.4 2.2-1.2 1.3 1.4-.6 1.4-1 3.7-1.1 5.2 0 2.3-.1 2.4-.8.7-.8-1.9-.8-1.9-1.9.2-.7 1.2-1.2 4.1-1.2 6.4 0 3.8-.2 4-1.7 2.8-1.5-1.3-1.6-1.2-1.1.9.4 1.2.2 2.2-.3 2.2s-.9-.5-.9-1c0-1.8-2.2-1-2.7.9-.3 1.1-1 2.2-1.7 2.4-1.8.7-11.6-.5-11.6-1.4 0-.5-.5-.9-1.1-.9-1.3 0-.2 6.2 1.3 7.1.5.3.3.9-.6 1.2-1.2.5-1.6 0-1.6-1.8 0-1.4-.5-2.5-1.1-2.5s-.8.9-.5 2 .8 2.9 1.2 3.9c.3 1.1 1.3 2.3 2.4 2.6 2.1.7 3.3 3.2 2 4-.6.4-1 .2-1-.4 0-.5-1.3-1.6-3-2.5-1.6-.8-3-1.1-3-.7s1.2 1.4 2.8 2.1c2.3 1.1 2.4 1.4.8 1.8-1 .2-2.3-.1-2.9-.7S18 241 17.3 241c-2.6 0 .7 4 3.8 4.7 1.6.3 3.2.9 3.4 1.3.8 1.3-2.7 2.2-3.9 1-1.4-1.4-2.6-1.2-2.6.5 0 .8-.4 1.5-1 1.5-.5 0-.7.7-.4 1.5.4.8 1.3 1.5 2.1 1.5.9 0 1.3-.6.9-1.5-.3-.9 0-1.5 1-1.5 1.2 0 1.5.6 1 2.4-.4 1.5 0 2.8.9 3.6 1.7 1.4 2 5 .5 5-.6 0-1.3-1.4-1.6-3-.7-3.2-2.4-4.2-2.4-1.3 0 1.5-.1 1.5-1.8 0-1-1-2.4-1.7-3-1.7-2 0-1.3 1.9 1.2 3.2 1.8 1 2.2 1.8 1.6 3.3-.7 1.9-.8 1.8-2-.7-.7-1.6-1.7-2.8-2.2-2.8-.4 0-.8-.9-.8-2s-.6-3.6-1.4-5.4c-1.3-3.2-1.3-3.3.5-2.9 1.1.3 1.9 0 1.9-.7 0-.6-.9-1.4-1.9-1.7-2.2-.6-3.5-2.9-2-3.8.5-.4 1.2.1 1.5.9 1 2.5 2.4 1.9 2.4-1 0-2.6 2.8-8.4 4.1-8.4.4 0 .9-.9 1.2-2 .3-1.3 0-2-.9-2-.8 0-1.4-.5-1.4-1 0-.6-.7-1-1.5-1-1.3 0-1.3-.4-.2-3.2.9-2.1 2-3.3 3.3-3.3 1.2 0 2-.8 2.2-2.3.2-1.2.8-2.2 1.4-2.2 1.1 0 .6 4.8-.7 8.3-.5 1.3-.3 1.6.8 1.1 2-.7 2.6-7.8 1-10-1.5-2-1.7-5-.4-5.8.4-.3.7.6.5 1.9-.2 2 .2 2.5 1.9 2.5 1.2 0 1.7-.4 1.2-.8-.6-.4-1-4.3-1-8.7v-8l-3.2-.3c-2.3-.2-4 .4-6.3 2.6-2.7 2.3-3.3 3.7-3.8 8.2-.3 3.9 0 6.2 1.2 8.5 1.7 3.1 1.7 3.1-2.4 9.9-5.6 9.2-7 13.6-7 21.9 0 12 5 18.9 13.8 19 3.9 0 5.3-.5 7.9-3 3-2.8 3.1-3.2 1.8-5.6-1.3-2.5-1.2-2.9 1.1-5.6 1.3-1.6 2.4-3.7 2.4-4.8 0-1 .9-2.4 2-3.1s2-1.8 2-2.5c0-1.5 8.4-7.7 10.5-7.7 1.6 0 4.5 4.9 4.5 7.5 0 .8.4 1.5.9 1.5s1.4 1.3 2.1 2.9c.6 1.6 1.8 3.2 2.6 3.5 2.1.8 1.7-3.4-.6-6.4-2-2.6-2.8-9.6-1-8.5.6.3 1 1.4 1 2.3 0 1.6.5 2.8 4.9 11.1 1.1 2 2.7 5.3 3.6 7.3 1 2.1 2.1 3.8 2.5 3.8 1.2 0-2.8-9.9-6-15-3.5-5.5-4.6-9.6-3.1-11.4.9-1 .8-1.5-.4-2-2.1-.8-1.9-2.6.4-2.6 1.1 0 2.2-.4 2.6-.9 1-1.7 21.5-.1 30.5 2.4 4.7 1.3 10.3 2.7 12.5 3.1s9.1 2.6 15.3 5c6.3 2.4 12 4.4 12.8 4.4.7 0 1.8.9 2.4 2.1.7 1.1 2.4 2.5 4 3 1.6.6 3.1 2 3.4 3.2s2.3 4 4.4 6.1c3.1 3.2 5.8 4.6 14.2 7.3 5.7 1.8 10.5 3.1 10.8 2.8.8-.8-8-4.4-12.6-5.1s-6.1-1.8-3.7-2.8c.8-.3 1.7-.1 2 .4.4.6 1.7 1 3 1s4.7.9 7.6 2c3.1 1.3 4.9 1.6 4.7.9s-2.8-2-5.8-2.9c-4.2-1.4-4.8-1.8-2.8-1.9 1.5-.1 3.7.3 5 .8s4.5 1.5 7.2 2.3c3.4.9 5.1 2 5.7 3.5.6 1.8 1.6 2.3 4.1 2.3l3.3-.1-3-1.4-3-1.3 4-.1c2.8-.1 3.6-.4 2.6-1-.8-.5-2-.7-2.7-.4-.7.2-2.5-.3-4.1-1.2l-2.8-1.6 3.5.7c3.2.6 3.3.5 2.1-1-1-1.2-2.3-1.5-4.2-1.1-1.5.3-3 .2-3.3-.3s2.8-.8 7.2-.7c9.7.3 9.2.2 9.2 2.4 0 1.5 1.3 2.3 5.4 3.5 3 .9 6.7 1.6 8.3 1.5 1.7 0 .2-.7-4.2-1.9-3.8-1-7.3-1.9-7.6-1.9-.3-.1-.6-.8-.6-1.7 0-2.2 4.9-4.4 11-5 2.9-.3 6.6-1.2 8.2-1.9 1.7-.7 7.7-2.3 13.5-3.6 5.8-1.2 11.7-2.9 13.2-3.6q4.8-2.4 4.8-.3c0 .5-.9 1-1.9 1-1.1 0-2.2.4-2.5.9-.3.4.7.6 2.2.4 1.9-.3 2.3-.2 1.3.5s-1 1.1-.1 1.7c1.4.9-4 3.5-7.2 3.5-1 0-1.7.4-1.3.9.3.5-.7 1.2-2.2 1.4-1.6.2.4.4 4.2.5 3.9 0 8.1-.4 9.5-.9 1.8-.6.7-.7-3.5-.4l-6 .4 4-1.4c7.1-2.4 10-2 12.4 2 1.1 1.9 2.7 3.5 3.6 3.5.8 0 2.7 1.3 4.2 3 1.4 1.6 3.3 3 4.1 3 1 0 .4-1-1.6-2.8-1.8-1.6-3.2-3.4-3.2-4 0-.7-.8-1.2-1.8-1.2s-2.7-.7-3.8-1.5c-1.8-1.4-1.7-1.4 1.2-1.5 4.1 0 12.1 3.6 13.4 6 .5 1 1.9 2.2 3.1 2.5 1.4.5 1.9 1.4 1.7 2.8-.3 2.3-4.8 4.9-11.5 6.7-2.1.5-7.9 2.1-12.9 3.4l-9.2 2.5-8.3-1.8c-4.6-1-9.9-2.5-11.8-3.5-2.4-1.3-3.6-1.5-4.4-.7s-.4 1.1 1.2 1.1c1.3 0 3.3 1 4.5 2.2 1.1 1.3 3.1 2.3 4.4 2.4 9.7.3 11 1 8.9 5-1 2.1-1.4 5.2-1.1 10.9l.4 8-1.7-3.5c-1.3-2.7-1.7-3.1-2.1-1.7-.2 1-.9 1.6-1.5 1.4-.7-.3-1.1-1-.9-1.6.1-.6-.2-1.1-.8-1.1-1.3 0-1.3 3.6 0 6.1.8 1.3.7 1.9 0 1.9-.6 0-1.4-1-1.9-2.2q-.75-2.25-1.5-.9c-.4.6-.2 1.9.6 2.8 1.1 1.4 1.1 1.5-.2 1.1-.8-.2-1.7-1.9-2.1-3.7-.7-3.5-1.6-4.8-2.5-3.8-.4.4-.1 1.3.6 2.2 1.1 1.3 1 1.5-.6 1.2-1.1-.1-2.5-.6-3.1-1-1.6-1-1.6-.2-.3 4.2.5 1.9.7 3.1.4 2.8-.7-.7-2.6 1-4.1 3.8-1.1 1.8-1.2 1.9-1.7.2-1.8-5.4-1.8-5.4-2.6-3.2-.5 1.2-.9 1.4-.9.6-.1-.8-.4-1.2-.7-.9-.7.7 1.4 5 2.9 6 .7.4.7 1.1 0 2-1.7 2.1-2.6 9-1.3 9.8.8.5.8 1.4-.1 3.6-1.1 2.8-1.1 2.9-2.1.7-1.3-2.7-3.2-3.5-6.4-2.7-1.6.4-2.3 1.2-2 2 .7 1.9-.9 1.8-2.9-.2-1.9-2-1.6-3.6 1.2-4.8 1.1-.5 2.6-1.8 3.2-2.8.9-1.5.8-1.8-.9-1.8-2.5 0-2.7-2-.2-2.1 1 0 1.2-.3.5-.6-1.8-.7-1.6-2 .7-4.3 2-2 2-2 0-2-1.4 0-2-.7-2-2.2 0-2.1.1-2.1 1.3-.3 1.1 1.4 1.6 1.5 2.2.5.4-.7.2-1.5-.4-1.9-1.7-1.1-.2-4.1 1.7-3.4 1.2.5 1.4.2.9-1.2-.8-1.9 1.2-7.5 2.6-7.5.5 0 .6-1.3.2-2.9-.5-2.3-.2-3 1.2-3.4 1-.3.5-.5-1.2-.4-2.8.2-3 .5-3.5 5.2-.5 4.9-4 11.9-4.8 9.6-.2-.6.1-1.7.6-2.4s1.6-3.8 2.3-7c1.1-5 1.7-6 4.3-7.2 3-1.3 3-1.3.6-1.4-1.4-.1-2-.5-1.5-.9.6-.4 1-2.4 1-4.5 0-3.5-.2-3.8-2.5-3.2-5.8 1.5-7.5 6.5-5.8 16.6l1.2 6.8-3 3.8c-1.7 2.1-3.6 4.7-4.2 5.8-1.6 3.2-4.2 18-3.1 18.3.5.2.5 1.1-.1 2.3-.8 1.4-.7 1.9.1 1.9.6 0 .9.7.5 1.5-.3 1 .1 1.5 1.1 1.5 1.3 0 1.4.3.5 1.2-1.6 1.6-1.5 2.8.3 2.8.8 0 1.5.9 1.5 2s.7 2 1.6 2c.8 0 1.2.4.9 1-1 1.6 8.2 1.2 11.4-.5 1.6-.8 3.1-1.1 3.4-.8.4.3 1.3.1 2-.5.8-.7 1.6-.9 1.9-.7.8.8 1.8-5.2 1.2-6.9-.4-1 .1-1.2 1.9-.9 2.8.5 4.5-1.3 2.8-3-.6-.6-1.1-1.5-1.1-1.9 0-1.3 2.8-.9 3.3.4.3.7.3-.2 0-1.9-.6-3.6.8-6 4.2-7.3 1.8-.8 1.7-.9-.7-.9-2.9-.1-4-2.1-1.2-2.1.8 0 2.2-.6 2.9-1.4.8-.8 4.7-1.7 8.7-2.1s7.8-1.2 8.5-1.7c.6-.5 2.4-1.3 4-1.8 2.1-.7 1.5-.8-2.2-.3-2.7.3-5.6 1-6.2 1.5-.9.7-1.3.7-1.3 0 0-1.2 2.3-1.9 14.5-4.7 11.1-2.6 55.3-2.5 59 .1 2.2 1.6 5.9 1.9 5 .5-.7-1.2 3.2-.6 4.9.7 2 1.7 7.4 2.4 8.1 1.2.5-.7 2-.9 4.1-.6 2 .4 4.7.1 7-.9 4.1-1.7 7.4-2 7.4-.6 0 .6-1.5 1.1-3.2 1.3-3.9.4-4 2.2-.2 2.6 1.5.2 3.5-.4 4.8-1.6 3.7-3.4 4.8-3.6 17.5-3.9 6.8-.1 12.6-.5 12.8-.7.3-.2-2.6-.8-6.4-1.2-7.6-.8-6.4-2.1 2.2-2.4 5-.2 5-.2 1.5-1.1-1.9-.5-4.5-.6-5.7-.4-1.4.3-2.3.1-2.3-.6 0-1.6 10.4-.5 15.3 1.6 1 .4 2.3.3 2.8-.2.7-.7-.4-1.3-3.5-1.7-6.4-1-7.4-3.1-1-2.2 4 .5 4.4.4 2.4-.5-1.4-.5-4.3-.9-6.5-.8-2.2.2-4.1-.1-4.2-.7-.1-.5 3-.8 7.2-.8 4.1.1 7.2-.2 7-.6-.3-.5.7-1.3 2.2-1.8l2.8-1h-3c-1.6-.1-4.6-.4-6.5-.8-3.7-.7-3.3 1 .5 1.9 1.1.3-.2.5-3 .6-4.4 0-4.8-.1-3.2-1.3 1.2-.9 1.4-1.6.7-2.1-.5-.3-.8-1-.6-1.3.2-.4-1.3-.6-3.5-.4-4.3.5-6.4 2.2-2.6 2.2 1.4 0 2.7.7 3.1 1.5.3.8.4 1.5.2 1.5-.9 0-7.3-3.2-9.3-4.6-2.2-1.6-2.3-1.6-2.3 1.5 0 2-.5 3.1-1.4 3.1-.8 0-1.6.6-1.9 1.2-.2.7-.8 1-1.1.6-.4-.3.3-1.7 1.5-2.9 1.4-1.4 1.8-2.4 1.1-2.7-.8-.2-.7-1.3.5-3.5 2.8-5.3 2.2-20.7-.8-20.7-.4 0-1.1-1-1.4-2.1-.4-1.2-2.6-4-5-6.3-2.3-2.2-4.4-4.6-4.6-5.2-.7-2.1-8.9-8.2-12.6-9.5-2.1-.7-5.1-2-6.8-3l-3-1.9h2.8c1.5 0 2.7-.5 2.7-1 0-.6-.5-1-1.2-1-.6 0-.9-.3-.6-.6.4-.3 1.6-.1 2.7.6 1.7.9 2.1.8 2.1-.5 0-.8-.5-1.5-1.1-1.5-.5 0-.7-.5-.4-1 .4-.7 1.1-.8 1.8-.1 1.2.9 10.8.1 17-1.4 1.7-.5 2.7-.3 2.7.4 0 .6 1.2 1.1 2.6 1.1 1.8 0 2.8.6 3.1 2.1.5 1.9.8 1.8 4-1.6 1.9-2 3.8-3.4 4.1-3 .4.4-.1 1.1-.9 1.6-.9.5-2 2.1-2.3 3.5-.6 2.4-1 2.5-4.1 2-2.1-.4-3.5-.3-3.5.3 0 .5-1.2 1.2-2.7 1.4-1.6.2 0 .5 3.5.6 5 .1 6.6-.3 8.2-1.9 1.3-1.3 3.3-2 6-2 3.5 0 4.3-.4 5.8-3 .9-1.6 2.5-3 3.5-3 2.3 0 2.2.2-1.8 4.4-1.9 2.1-3.5 4.3-3.5 5s-.9 2.5-2.1 4c-1.1 1.4-1.7 2.6-1.2 2.6.9 0 5.3-6.5 5.3-7.8 0-1.2 3.4-4.2 4.8-4.2.6 0 .9.7.6 1.5-.4.8-.1 1.5.4 1.5 1.2 0 2.7-3.9 1.8-4.7-.3-.3.4-1.4 1.5-2.4 2.5-2.2 9.9-2.4 9.9-.3 0 .8.5 1.4 1 1.4 1.9 0 1-3.9-1-4.5-1.1-.3-2-1.3-2-2 0-1.8 2.6-.9 3.4 1.1.3.8 1.2 1.1 2.2.7 1.2-.4 1.5-.2 1.1.8-1.3 3.3-2.7 8.7-3.3 13.4-.4 2.7-.9 4.4-1.1 3.7-.3-.6-1.4-1.2-2.6-1.2-1.6 0-1.8.3-.9 1.2 1.8 1.8 1.4 3.2-1.4 4.9-2.1 1.3-3.3 1.4-5.4.6-1.9-.7-3.6-.7-5-.1-1.9.8-1.9 1.1-.6 2.9 1.4 2 1.5 2 7 .1 3.1-1.1 6.8-3.1 8.1-4.4 1.9-1.9 3.1-2.3 5.2-1.8 1.6.4 4 .7 5.5.6 2.1 0 2.6.3 2.1 1.6-.3.8-1.5 2-2.7 2.4-2.1.9-2.1.9-.1.9 3.1.1 4.5-1.8 4.5-6.3 0-5.4-.9-6.5-5-6.8-2.9-.3-3.5 0-3.5 1.7 0 1.4.8 2.1 2.8 2.3 2.2.3 2.6.6 1.7 1.7-1.7 2.1-7.3-1.3-6.5-4 .3-1.1.8-4.1 1.2-6.8.5-4.4.8-4.7 3.4-4.7 1.6 0 2.9.4 2.9.8 0 1.5 10.3.8 10.8-.7.3-1-.1-1.2-1.6-.9-1.8.5-1.9.2-1.6-3.6.4-4 .4-4-.7-1.1-1.3 3.3-3 5.8-3.6 5.2-.2-.2.4-2.1 1.2-4.1.9-2 1.3-4.1 1-4.6-1-1.6 1.2-2 3.1-.5 1 .8 2.7 1.5 3.7 1.5 1.8 0 2.5 2 .7 2-.5 0-1 .7-1 1.6 0 1.3.7 1 2.6-1.1 2.3-2.5 2.4-2.9 1-3.7-2.1-1.2-2-3.8.2-3.9 1 0 1.2-.3.5-.6-.7-.2-1.3-.9-1.3-1.5s.8-.4 1.8.5 3.3 2 5 2.3c4.9 1 3.9 2.8-1 2-3.5-.6-4.1-.5-3 .6 1.8 1.8 19.4 1.2 23.3-.7 1.5-.8 4.7-1.5 7.1-1.5s5.5-.6 6.9-1.4c2.2-1.1 2.8-1.1 4.8.5 2.4 2 8.1 2.6 8.1.9 0-.6-.6-1-1.3-1-.8 0-2.9-.7-4.7-1.6-2.4-1.2-2.9-1.9-1.9-2.5 2-1.3 2.6-1.1 3.2 1 .3 1.1 1.7 2.1 3.9 2.5 4.3.8 7.1-.1 6.3-2.1-.3-1.1-.1-1.3 1-.9.8.3 1.5.2 1.5-.3 0-1.5-2.8-3.3-4.7-3-2.3.3-5.3-1-5.3-2.3 0-.6.6-.5 1.5.2.8.7 2.2 1 3 .6.8-.3 3 .3 4.8 1.4 4.5 2.8 5.8 2.5 2.2-.5l-3-2.5 4 1.6 4 1.5-4.2-3.6c-2.4-2-4.3-4.2-4.3-4.8-.1-1.1-5-5.4-5-4.3 0 .3.9 2 2 3.8l1.9 3.3h-2.4c-1.8 0-2.1-.3-1.3-1.3.8-.9.6-1.8-.6-3.1-.9-1-1.6-2.5-1.4-3.2.2-.8-.3-1.4-.9-1.3-4.9.4-4.9.3-2 2.9 2.9 2.7 3.3 4 1.7 5-.6.3-1 .2-1-.4s-.8-.7-1.7-.4c-1.6.6-1.6.4-.5-.9 1.1-1.4 1-1.8-.7-2.8q-2.1-1.05-2.1 0c0 .5-.7 1-1.5 1-2 0-1.9 1 .3 2.7 1.6 1.3 1.5 1.4-.5.8-1.6-.4-2.3-.2-2.3.7 0 1-1 1.3-3.7 1-3.3-.4-3.4-.6-1.5-1.6 4.3-2.3 6.2-6.1 6.2-12.4 0-6.6 1.3-8.5 6.7-9.7 5.8-1.2 12-6.2 14.7-11.8 1.3-2.9 2.5-5.9 2.7-6.7.3-1.8-1-8.1-2.1-9.5-.4-.6-1-2.2-1.4-3.8-.7-3.1-2.6-3.7-2.6-.8 0 2-2.5 4.7-3.2 3.4-.3-.4-.3-.3-.2.4.4 1.5-2 3.5-3.1 2.5-.5-.4-.5-.1-.1.5.4.7.2 1.3-.3 1.3-1.1 0-3.8 2-7.3 5.2-1.9 1.9-3.8 2.4-3.8 1 0-.5 2.5-3.1 5.6-5.8 3-2.7 6.1-6 6.7-7.4.7-1.4 2.2-2.6 3.4-2.8 1.3-.2 2.4-1.3 2.8-2.9.8-3.2 0-4-2.1-2.2-.9.8-2.2 1.4-2.8 1.4-2.3.2-6.6 2.5-6.6 3.6 0 .8-.4.8-1.5-.1-1.7-1.4-2-4-.5-4 .5 0 .9-1.5.9-3.3-.1-1.7 2-9.5 4.5-17.2 2.5-7.6 4.6-14.6 4.6-15.5-.1-2.4-2.3 3.5-6.5 17.2-2.1 7.1-4.2 12.8-4.6 12.8-1 0-.4-2.3 4.3-16.9 2.1-6.8 3.7-12.8 3.5-13.5-.4-1-6.4 17.1-8.7 26.1-.6 2.4-1.6 4.3-2.1 4.3-.7 0-.8-.7-.4-1.8.8-1.9 5.3-17.4 6.2-21.2.3-1.6.2-2.1-.4-1.5-1 1.1-4.7 12.7-5.8 18.3-1 5.1-2.2 2.9-2.1-3.8.1-3.3-.2-6-.6-6s-.8.8-.8 1.7c0 1-.6 2.9-1.3 4.3-2.3 4.4-3.7 9-2.6 9 .5 0 .9-.8.9-1.7s.3-1.4.6-1c.4.3.3 1.8 0 3.3-.4 1.4-1 2.4-1.3 2-.3-.3-1.2.2-2 1.2-1.2 1.5-1.3 1.2-.7-2.3.3-2.2 1.4-5.8 2.4-8 1.7-3.7 4.5-12.8 6.9-21.7.5-2.1.6-4 .1-4.3s-1.3 1.6-1.9 4.2c-1 4.9-3.9 13.4-4 12-.1-.8 3.5-14.4 4.5-17 .3-.9.2-1.7-.4-1.7-.5 0-1.5 2.1-2.2 4.7-3.1 11.6-3.8 15.3-2.9 15.3 1.4 0 1.1 2.9-.6 5.8-.8 1.5-2.1 5.4-2.9 8.7-1.1 4.6-1.4 5.3-1.5 2.8-.1-1.7.3-4.3.9-5.8.5-1.4 1.4-5.6 2-9.3s1.3-8 1.6-9.6c.4-1.7.2-2.6-.4-2.3-.9.6-2.7 8.3-3.6 15.7-.2 1.9-.9 5.4-1.5 7.8s-1.3 5.7-1.5 7.5-.4 3.5-.5 3.9c0 .4-.8.5-1.7.1-1.1-.4-1.2-.8-.4-1.3.6-.4 2-6 3.1-12.6 1.1-6.5 2.9-15.2 4-19.1 1-4 1.9-9 1.8-11 0-3-.5-1.9-2.2 5-1.2 4.9-2.5 8.6-2.9 8.2-.3-.3.2-3.7 1.3-7.3 2.1-7.4 2.4-10.6.9-9.7-.5.3-1 1.5-1 2.5s-1.6 6.7-3.5 12.5c-1.9 5.9-4 13.6-4.6 17.2-.7 4.2-1.4 6-2 5.2-1.1-1.8-1.6-1.1-2.6 4.1-.7 3.8-1.2 4.5-3.2 4.5-3.7 0-4.7-2.5-2.6-6.8.9-2 1.5-4.4 1.1-5.2-.8-2.2.5-7.6 1.6-6.9.5.4.7 1.5.4 2.7-.2 1.1-.1 1.6.3 1.1.5-.5 2.1-5.8 3.6-11.7 2-8 2.4-11.2 1.6-12s-1.1-.6-1.2.8c0 1.8-2.6-3.7-4.4-9.4-.7-2.1-.5-2.3 1.9-1.9 1.4.3 2.3.1 2-.3-.3-.5-1.7-.9-3.1-.9-2.7 0-2.7.6-.7 7.9.5 1.7.4 2.2-.4 1.7-.6-.4-1.4-2.2-1.8-4.1-.3-2-1-3.8-1.5-4.1s-.9-1.6-.9-3c0-1.5-.6-2.4-1.5-2.4-.8 0-1.5.5-1.5 1.1 0 .5.4.8.8.5.5-.3 1.3 1.5 1.9 3.9.6 2.5.6 4.5.2 4.5-.5 0-.6.7-.2 1.6.4 1.2.2 1.5-.8 1.2-.8-.3-1.5-1-1.5-1.6-.3-2.5-.5-2.7-1.4-1.2-1.5 2.3-1.2 3 1.8 4.1 1.9.8 2.3 1.3 1.2 1.7-2 .7-4 2.8-3.3 3.5.3.4 3.2.9 6.4 1.3 3.3.4 5.9 1 5.9 1.5 0 .4-1.7.5-3.7.3-2.9-.4-3.4-.3-2.3.5.8.6 2.3 1.1 3.3 1.1.9 0 1.7.4 1.7.9 0 .4-1.8.4-3.9-.2-2.6-.7-3.7-1.5-3.4-2.4.3-.7-.2-1.3-1.1-1.3s-1.6.4-1.6 1c0 .5-.9 1-2.1 1-1.8 0-2 .4-1.4 2.7.6 2.7.6 2.7-1 .8-1.6-2-1.6-2-1 .2.5 1.9.3 2.2-1.2 1.6-1.7-.6-1.7-.5-.2 1.3.9 1 1.4 2.5 1.2 3.1-.3.7 0 1.3.6 1.3s1.1-.6 1.1-1.4c0-1.6 2.7-2.9 4.1-2 .5.3.9-.2.9-1.1 0-1.4.6-1.6 2.8-1 1.5.4 3.3.8 4 .9s1.3.5 1.3.9c0 1.2-2 4.3-2.1 3.2 0-.6-2-1.1-4.5-1.2-4.1-.2-4.4-.1-3.5 1.7 1.3 2.4 1.3 3 0 3-.5 0-1-.8-1.1-1.8 0-.9-.3-1.2-.5-.5-.3.6.2 2.6 1.1 4.3.9 1.8 1.4 3.4 1.2 3.7-.3.2-1.1-.6-1.7-1.9-2.7-5.2-6.6-10.7-7.4-10.8-.6 0-.5.5.2 1.2s1.2 1.7 1.2 2.2c0 .6-.5.5-1.2-.2-2-2-3.2-1.3-1.3.8 1 1.1 2.4 2 3.2 2 .7 0 1.8 1.2 2.3 2.6 1.3 3.3 1.3 3.4-.7 2.7-1.2-.5-1.5-.2-1 .9.6 1.6-1.5 1.9-2.9.5-1.6-1.6-2.6-.5-1.1 1.1 1 1 1.7 2.1 1.7 2.4 0 1.1-3.8-.4-5.9-2.3-1.2-1.1-2.1-1.5-2.1-.9 0 .5.9 1.5 2 2.2s2 2 2 3c0 .9.5 1.8 1.2 2 .9.3.9.6.1 1.1-.7.5-1.7-.4-2.5-2-.7-1.5-2.5-3-4.1-3.4-3.3-.9-2.6.8.9 2.1 1.3.5 2.4 1.4 2.4 2s-.4.8-1 .5c-1.3-.8-5-1.5-5-.9 0 .4 7.1 3.7 10.3 4.8.9.3 1.7.9 1.7 1.4 0 1.4-5.2.2-7.5-1.7-1.1-1-3.2-2.2-4.7-2.9-2.4-1-2.8-1.8-2.8-5 0-3-.8-4.7-3.5-7.8-1.9-2.1-3.3-4.5-3-5.2.2-.6-.1-1.2-.6-1.2-.7 0-.5-1 .5-2.5 2-3.1 2-3.7-.1-3.3-1.3.2-1.7-.3-1.5-1.6.2-1.1-.2-3-.9-4.2-.9-1.8-.9-2.7 0-3.7.9-1.1.8-1.7-.4-2.7s-1.5-1-1.5.3c0 .8-.7 1.7-1.5 2.1-.9.3-1.5 0-1.5-.9 0-.8-.7-1.5-1.5-1.5-.9 0-1.5.9-1.5 2.2-.1 2.1-.2 2.1-1.1.5-1.4-2.5-.4-5 2.8-6.5 3.7-1.7 4.1-1.6 6.7 1.5 2.2 2.5 2.3 2.9.8 5.1-.9 1.4-1.2 2.6-.6 3 .5.4 1.5 1.9 2.1 3.4.7 1.6 1.7 2.8 2.3 2.8 1.6 0 1.1 2.8-.7 4-1.3.8-1.4 1.3-.5 1.6.6.3 1.2 1.4 1.2 2.4s.5 2.2 1 2.5c.6.3 1 0 1-.8s.8-1.8 1.8-2.2c1.6-.6 1.6-.7-.2-2-1.7-1.3-1.7-1.5-.3-2.1 1.1-.4 1.7-1.8 1.7-3.7 0-2.4-.3-2.8-1.2-1.9-1.9 1.9-2.8 1.4-2.6-1.3.2-1.9.7-2.4 2-1.9 3.1.9 2.1-2.6-1.7-6.3-1.9-1.9-3.5-3.6-3.5-3.8 0-.3 2.3.7 5.1 2.3 3.2 1.7 5.7 3.9 6.7 5.9 2.1 4.4 3.9 4.8 7.3 1.6 2.9-2.8 3.6-5.6 2-8.2-.8-1.3-1.5-1.2-5 .3-4 1.8-4 1.8-6.9-.5-1.9-1.5-3-3.3-3-4.9 0-1.4-.1-7.2-.1-13-.1-5.8 0-13.1.3-16.4.4-5.8.5-5.8 5.5-8.9 3.7-2.3 5.1-3.8 5.1-5.4 0-2.9-1.5-3.7-6.2-3.4-3.1.1-3.8-.1-3.8-1.7 0-2.6-3.1-5.2-6.1-5.2-1.4 0-3.4-.8-4.5-1.9-2.7-2.5-5.6-4-11.2-5.7-5.8-1.7-9.9-1.7-18.1.3m10.7 1.5c.8.8 1.5.8 2.6-.1 1-.8 1.6-.9 2.1-.1.3.5.1 1-.5 1s-.8.5-.5 1c.4.6 2.3.8 4.3.5 2.5-.3 3-.2 1.8.3-1.8.8-1.8.9-.2 1.5 2.5 1 3.8.9 3.1-.3-.9-1.5.3-1.2 2.5.7 1.4 1.3 1.6 1.9.7 2.5-.8.5-.7.8.6.8 2.4 0 2.1 1.1-1 4l-2.6 2.5.5-2.7.5-2.6-3.3 1.6c-2.9 1.3-3.7 1.4-6.1.2-1.6-.7-3.2-1.2-3.8-1.1-.5.2-2.5.4-4.3.6-1.8.1-3.9 1-4.6 2-.8 1.1-2 1.6-3 1.2s-1.9-.1-2.2.8c-.4.8-2.4 2-4.5 2.5-2.1.6-3.9 1.5-3.9 2s-1 1-2.2 1.2c-1.6.2-2.4 1.2-2.8 3.2-.6 3.5-2.9 4.7-2.5 1.4 1-8.4 8-19.7 14-22.7 6.3-3.2 13.2-4 15.3-1.9m26.9 10.5c.2.6-.7.8-2.3.5-1.9-.3-2.2-.7-1.2-1.3 1.5-1 3-.7 3.5.8M382.8 45c.2 1.2-.9 1.5-4.8 1.5-5.4 0-6.3-1.6-1.4-2.6 4.1-.9 5.8-.6 6.2 1.1m17.7-1c.3.5-.1 1-1 1s-1.3-.5-1-1c.3-.6.8-1 1-1s.7.4 1 1m15.5 3c0 .9-1.4 1.4-3.2 1.1-1.4-.2-22.4 3-29.6 4.4-8.7 1.8-19.1 5.3-21.2 7-.8.7-3.7 2-6.3 2.9s-5.9 2.3-7.3 3.2c-2.4 1.6-4.1 1.4-3-.4.3-.5 3.6-2.1 7.3-3.7 3.7-1.5 7.6-3.5 8.6-4.3 1.6-1.4 1.6-1.7.1-3.3-.9-1-1.3-2.3-.9-2.8 1.1-1.9 2.5-1.2 2.5 1.3 0 3 1.9 3.8 5.1 2 1.3-.7 3.6-1.3 5.2-1.4 2.1 0 2.7-.5 2.7-2.1 0-1.5-.5-1.9-1.6-1.5-.8.3-1.3.2-1-.3s1.5-1.1 2.7-1.4c1.7-.5 2-.2 1.7 1.6-.4 2-.1 2.2 3.6 1.9 2.3-.2 4.6-.9 5.1-1.6 1.5-1.9 5.5-3 5.5-1.6 0 .9 1.3 1 4.3.6 2.3-.4 7.4-1 11.2-1.5 3.9-.4 7.3-.8 7.8-.9.4-.1.7.2.7.8m-46.3 2.6c.3.9 0 2-.8 2.5-2.1 1.3-2.9 1.1-2.9-.9 0-3.3 2.6-4.4 3.7-1.6m-12.5 5.6c-.7.7-1.2.8-1.2.2s.3-1.4.7-1.7c.3-.4.9-.5 1.2-.2.2.3-.1 1.1-.7 1.7M381 55c-.8.5-2.4.9-3.5.9-1.6-.1-1.6-.2.5-.9 3.5-1.1 4.8-1.1 3 0m25.6 2.7c-1.1 1.1-1.9-.6-1.1-2.4.8-1.7.8-1.7 1.2 0 .3 1 .2 2.1-.1 2.4m-5.4 1.1c-1.5.5.4 4.2 2.1 4.2.8 0 .8-.3-.2-.9-.7-.5-.9-1.1-.4-1.4 1.4-.8 3.7.9 2.9 2.2-.4.6-2 1.1-3.6 1.1-4.4 0-4.9 2.2-2.3 10.1 1.2 3.8 2 7.6 1.7 8.3-.6 1.6-6.2 1.9-8 .5-.8-.6-1.3 0-1.7 1.8-.4 1.7-1.6 3.3-3.1 4-2.4 1-2.6.9-2.7-1.5l-.2-2.7-.4 2.5c-.7 3.7-2.3 4.9-2.9 2.2-.4-1.2-.8-2.2-1.1-2.2-1.1 0-3.6 3.4-5.6 7.7-1.9 4.2-2.2 4.5-2.5 2.4-.2-1.5.3-3 1.3-3.7.9-.7 1.9-3.1 2.2-5.4.4-2.6.9-3.7 1.4-2.9.6 1 1.1 1 2.3 0 1.7-1.5 2.2-3.6.6-2.6-.6.4-1-.5-1-2s-.4-2.4-1-2c-.5.3-1 .1-1-.6 0-1-.3-1-1.2-.1-1.9 1.9-2.8 1.4-2.9-1.6 0-1.5-.3-2.1-.6-1.5-.8 2.1-2.6 1.5-2-.7.3-1.1.1-2-.5-2-1 0-.8-1.7.7-5.3.4-1 .3-1.7-.5-1.7-.6 0-.8.4-.5 1 .4.6-.7 1-2.5 1s-2.9-.4-2.5-1c.3-.6 1.4-1 2.4-1s2.8-1.2 4.2-2.6c2.3-2.5 7.6-5.4 9.9-5.4.5 0 1 .7 1 1.6 0 1.1.6 1.3 1.9.9 1.1-.3 2.5.1 3.4 1 2.2 2.1 2.9 1.9 2.2-.8-.6-2-.5-2.1.8-.5.8 1 1.7 1.5 2.1 1.1s.9.3 1.3 1.5c.8 3 2.1 2.8 1.5-.3-.2-1.4-1.1-2.5-1.9-2.5s-1.1-.5-.8-1.1c.5-.7 1.4-.4 2.6.7 1.7 1.5 1.9 1.6 1.9.1 0-1 .5-1.4 1.5-1.1.9.4 1.5 0 1.6-.7q0-1.65.6 0c.3.8.1 1.7-.5 1.9M358 57.4c0 .2-.7.7-1.6 1-.8.3-1.2.2-.9-.4.6-1 2.5-1.4 2.5-.6m48 9c0 1.7-1.4 2.9-2.3 2-.8-.8.3-3.4 1.4-3.4.5 0 .9.6.9 1.4m-65.6 3.1c-1 .8-2.3 1.5-2.8 1.5-.6 0-.1-.7 1-1.5 1-.8 2.3-1.5 2.8-1.5.6 0 .1.7-1 1.5m27.3 1.5c-1.1 1.8-2.7 2.7-2.7 1.5 0-1.3 2.5-4.3 3.2-3.9.4.3.2 1.4-.5 2.4m-20.7-.7c-1.4.6-3.1 1.7-3.8 2.4-2.4 2.3-3.2 1.3-1-1.2 1.3-1.5 3.2-2.5 4.7-2.4h2.6zm13 1.7c0 .5-.4 1-1 1-.5 0-1-.5-1-1 0-.6.5-1 1-1 .6 0 1 .4 1 1m45.5 2.1c.8 3.6-.4 5.4-2.3 3.3-.7-.8-.8-1.4-.2-1.4.5 0 1-.5 1-1 0-.6-.7-1-1.5-1-2.8 0-1.3-2.6 1.7-2.9.3-.1.9 1.3 1.3 3m-47 .5c2.4 1.5 2.5 1.5 2.5-.2.1-1.8.1-1.8 1.5 0 2 2.7 1.9 3.6-.6 3.6-2.7 0-5.5-1.6-6.3-3.5-.7-1.9-.1-1.9 2.9.1m.3 7.6c-.6 1.8-2.8 2.1-2.8.4 0-.9.7-1.6 1.6-1.6s1.4.5 1.2 1.2m13.1.2c.9 1.1.6 1.5-1.4 2-1.8.5-2.5 1.3-2.5 3.1 0 1.3-.4 2.7-1 3-1.6 1-1.2-4.2.5-5.9.8-.8 1.5-1.9 1.5-2.5 0-1.5 1.5-1.4 2.9.3m5.1-1c0 .3-.4.8-1 1.1-.5.3-1 .1-1-.4 0-.6.5-1.1 1-1.1.6 0 1 .2 1 .4m28.2 2.5c-.5.3-1.2 1.8-1.6 3.3-.3 1.6-1.3 2.8-2.1 2.8-2 0-1.9-2.6 0-3.4.8-.3 1.5-1.7 1.5-3.2 0-2.3.2-2.5 1.5-1.4.9.7 1.2 1.6.7 1.9m-40.2-.5c0 .3-.4.8-1 1.1-.5.3-1 .1-1-.4 0-.6.5-1.1 1-1.1.6 0 1 .2 1 .4m9.7 5.8c-.3.7-.5.2-.5-1.2s.2-1.9.5-1.3c.2.7.2 1.9 0 2.5m22.3-.6 2.5 1.5-2.9-.6c-2.4-.5-3.5 0-6.2 2.6-1.9 1.8-3.4 2.8-3.4 2.1s.4-1.2.9-1.2c.6 0 1.8-1.4 2.8-3 2-3.4 2.8-3.6 6.3-1.4m-41 .6c-.1.7-.7 2.4-1.5 3.8-1.4 2.5-1.4 2.5-1.5.2 0-1.2-.4-2.2-1-2.2-.5 0-1-.7-1-1.5 0-.9.9-1.5 2.5-1.5 1.4 0 2.5.6 2.5 1.2m16.2 1c.6 1.7-.1 3.8-1.3 3.8-.5 0-.9-1.1-.9-2.5 0-2.6 1.4-3.4 2.2-1.3M344 91c0 1.3-1.1 1.3-3 0-1.2-.8-1.1-1 .8-1 1.2 0 2.2.4 2.2 1m18.8 3.1c-1.8 1.2-2.3-.8-.6-2.8 1.2-1.5 1.3-1.5 1.6.2.2 1-.2 2.1-1 2.6m21.9-.4c-.9.9-2 1.3-2.4.9s.1-1.4 1.1-2.2c2.5-1.8 3.5-.8 1.3 1.3m-7 6.4c-2.6 4.6-4.4 6-4.4 3.4 0-.8.4-1.5.8-1.5.5 0 1.9-1.8 3.1-4 1.3-2.2 2.4-3.6 2.6-3.1s-.8 2.8-2.1 5.2m-11.9-.6c.1 1.9-.3 3.5-.8 3.5-.6 0-1-.8-1-1.8 0-1.4-.2-1.5-1-.2-1.6 2.5-1.1 3.7 1.4 3.3 2.1-.4 2.4 0 3.5 5.4.9 4.9.9 6.7-.4 10.3-.8 2.3-2 7.2-2.5 10.8-.6 3.6-1.7 7.7-2.5 9.1s-2 3.9-2.5 5.5c-1.9 5.1-2.4 1.8-1.1-6.6 1.2-7.9 1.1-17.8-.4-26-1.1-5.7 3.9-18.9 6.5-17.3.4.2.7 2 .8 4m4.3 2.9c.5.6.9 2.5.9 4.2 0 4 1.5 5.2 3.2 2.4 1.6-2.5 2.8-2.6 2.8 0 0 1.1-.9 2.5-1.9 3.2-1.5.9-1.8 1.9-1.4 4 .3 1.7.1 2.8-.5 2.8-1.1 0-2.5-4.2-3.8-11.5-.3-2.2-1.1-4.5-1.5-5.1-.5-.6-.6-2-.2-3 .7-1.8.8-1.8 1.1.1.2 1.1.8 2.4 1.3 2.9m52.4-3.4c.3.5.1 1-.4 1-.6 0-1.1-.5-1.1-1 0-.6.2-1 .4-1 .3 0 .8.4 1.1 1m-34.5 2c0 1.1-.7 2-1.5 2-1.5 0-2.1-2.1-.8-3.3 1.2-1.3 2.3-.7 2.3 1.3m53 0c0 .5-.6 1-1.2 1.1-.7 0-.2.5 1.1 1 3.5 1.4 2 2.1-2.9 1.3-3.3-.5-3.9-.9-2.6-1.6.9-.5 1.4-1.3 1.1-1.9-.4-.5.5-.9 1.9-.9s2.6.4 2.6 1m-36 1.5c0 .8-.4 1.5-1 1.5-.5 0-1-.7-1-1.5s.5-1.5 1-1.5c.6 0 1 .7 1 1.5m13 .5c0 .5-.4 1-1 1-.5 0-1-.5-1-1 0-.6.5-1 1-1 .6 0 1 .4 1 1m-35.6 4.4c-.3.9-1 1.3-1.6 1-.5-.3-.4-1.2.3-2 1.5-1.8 2.2-1.3 1.3 1m10.6 1.9c0 .5-.4.5-1 .2-.5-.3-1-1.4-1-2.3 0-1.5.2-1.5 1-.2.5.8 1 1.9 1 2.3m4-.7c0 .8-.4 1.4-1 1.4-.5 0-1-.9-1-2.1 0-1.1.5-1.7 1-1.4.6.3 1 1.3 1 2.1m-9.2 1.2c.2.7-.2 1-1.2.6-.9-.3-1.6-1.1-1.6-1.6 0-1.3 2.3-.5 2.8 1m45.7 1.2c.3.5.2 1-.4 1-.5 0-1.3-.5-1.6-1-.3-.6-.2-1 .4-1 .5 0 1.3.4 1.6 1m7.1 1.8c-.6.6-5.6-1-5.6-1.8 0-.5 1.3-.3 3 .3 1.6.6 2.8 1.3 2.6 1.5m-48.8 1.4c-.2.6-1 1.4-1.6 1.6-.7.2-1-.2-.6-1.2.7-1.8 2.8-2.2 2.2-.4m5.5-.5c-.7.2-1.9.2-2.5 0-.7-.3-.2-.5 1.2-.5s1.9.2 1.3.5m53.7 6.5c-1 3.5-2.1 7.6-2.4 9.2-.4 1.5-.9 2.6-1.2 2.4-.2-.3.2-3.6 1.1-7.4 2.1-9.8 2.6-11.4 3.5-10.9.5.3 0 3.3-1 6.7m-71-3.3c-.1 2.4-1.5 5.1-2.6 5.1-.8 0-1.4.5-1.4 1.1 0 .5.4.8.8.5.4-.2.6 1.2.4 3.2-.2 2.8-.1 3.3.7 2.2.6-.8 1.1-2.7 1.1-4.3 0-1.5.3-2.7.8-2.7.4 0 .6 2.4.4 5.2-.2 2.9.1 6.4.7 7.8.8 2 .9 1.5.4-2.7-.6-5.3.1-10.3 1.5-10.3.8 0 .7 15.4-.2 16.8-.3.5-1.5 1.2-2.6 1.5-1.8.5-1.9.1-1.5-3.6l.6-4.2-1.4 3.5c-.7 1.9-1.3 7.2-1.2 11.7 0 4.5-.2 8.1-.5 8.1-1.7-.1-4.9 1.6-5.4 2.8-.4 1.2.1 1.2 3.1-.1 3.8-1.6 6.1-2 4.9-.8-.4.5-1.1.8-1.4.8-.4.1-2.1.8-3.8 1.8-1.7.9-3.4 1.3-3.7 1-.4-.3-.9.1-1.2.9-.9 2.4-8.3 7.9-9 6.8-.3-.6.2-1.3 1.2-1.7 3.1-1.1 5.3-3.5 5.2-5.7 0-2-.1-2-1.1.1-.6 1.3-1.4 2.3-1.9 2.3-1.5 0-7.9 7-7.9 8.7 0 1.3.3 1.4 1.2.5 1.6-1.6 2.8-1.5 2.8.3 0 1-.9 1.5-2.7 1.4-4.3-.2-11.6 1-12.3 2.1-.3.5-3 1.2-6 1.6s-6.3 1.1-7.2 1.5c-1.1.6-1.8.5-2-.3-.4-1-1-1-3.2 0-3.1 1.4-6.6 1.6-6.6.3 0-.9 4.7-3.3 9-4.6 1.4-.4 4.8-3.1 7.6-5.9 7.2-7 11.6-10.8 12.2-10.2.3.3-.1 1.2-.8 2.1-.7.8-1 1.5-.6 1.5 1 0 8.6-5 8.6-5.6 0-.4-.7-.1-1.5.6-1.2 1-1.5.9-1.5-.4 0-.9.9-2 1.9-2.4 4.4-1.6 11.2-14.9 13-25.5 1.2-7 3.5-14.1 2.8-8.4-.3 1.5-.1 3 .3 3.2 1.1.7 7-6.2 7-8 0-.9.6-1.2 1.5-.9.8.4 1.5.9 1.5 1.3m71.6 11.7c-1.4 6-2.5 9.6-2.5 8-.1-1.5.5-5.4 1.3-8.5s1.7-6.9 2-8.5c.4-1.5.9-2.6 1.1-2.4.3.2-.6 5.3-1.9 11.4m-63.9-4.4c-.2 1.3-.4.3-.4-2.2s.2-3.5.4-2.3c.2 1.3.2 3.3 0 4.5m-29.5-3c-.7.7-1.2.8-1.2.2 0-1.4 1.2-2.6 1.9-1.9.2.3-.1 1.1-.7 1.7m23.8-1.8c0 .3-.4.8-1 1.1-.5.3-1 .1-1-.4 0-.6.5-1.1 1-1.1.6 0 1 .2 1 .4m55 .6c0 .5-.7.7-1.5.4-.8-.4-1.5-.8-1.5-1s.7-.4 1.5-.4 1.5.4 1.5 1m-82 3.3c0 .5-.4.6-.9.3-.5-.4-1.4.6-1.9 2.1-.6 1.6-1.1 2.1-1.1 1.1-.1-.9.4-2.9 1-4.5.8-2.2 1.2-2.4 1.9-1.3.6.8 1 1.9 1 2.3m-6.3.9c-.3.8-.6.5-.6-.6-.1-1.1.2-1.7.5-1.3.3.3.4 1.2.1 1.9m87.6-1.5c-.7.2-1.9.2-2.5 0-.7-.3-.2-.5 1.2-.5s1.9.2 1.3.5m-30.3 7.2c0 2.8.1 2.8-2.8-2.2l-2.2-3.8 2.5 1.8c1.4 1 2.5 2.8 2.5 4.2m-48.3-1.7c-.3.7-.5.2-.5-1.2s.2-1.9.5-1.3c.2.7.2 1.9 0 2.5m34.7.4c.3.8.2 1.2-.4.9s-1-1-1-1.6c0-1.4.7-1.1 1.4.7m-38.5 3.8c-.9.8-1 .7-.5-.7.3-1 .7-2.4.7-3 .1-.7.3-.4.6.7.3 1-.1 2.3-.8 3m79.6-1.6c.3 1-.1 1.1-1.8.6-4.4-1.3-5.3-2.3-2-2.1 1.8.1 3.5.8 3.8 1.5m30.6 1.3c-.9 2.2-1 2.2-1 .3-.1-1.1.2-2.4.6-2.7 1.2-1.2 1.4 0 .4 2.4m-119 4.2c-1.3 1.3-1.5-.1-.4-3 .7-1.7.8-1.7 1.1.1.2 1-.1 2.3-.7 2.9m12 3.2c-.6 2.4-1.1 5.7-1.1 7.2 0 1.8-1.2 4.2-3 6.3l-3 3.5 1.2-3c.7-1.7 1.7-3.3 2.2-3.6 1.4-1.1-.3-2.9-2.1-2.2-1.2.5-1.5.2-1-1 .4-1.1.1-1.7-.8-1.7-.8 0-1.5.5-1.5 1.2 0 .6-.2.9-.5.6-.4-.3-.3-1.8.1-3.3.6-2.2.8-2.5 1.6-1.2 1.7 3.1 4 .6 5.4-5.8.5-2.2 2.7-3.9 3.3-2.4.1.6-.2 3-.8 5.4M432 134c0 .5-.7.7-1.5.4-.8-.4-1.5-.8-1.5-1s.7-.4 1.5-.4 1.5.4 1.5 1m15.8 3.5c-.2 2.8-.9 4.7-1.8 5.1-1 .5-.1 1 2.5 1.5 2.2.4 5 1 6.3 1.4 1.4.5 2.2.3 2.2-.4 0-.6-.6-1.1-1.4-1.1-2.1 0-2.8-1.5-2-4.5.5-2.1 1.2-2.5 3.2-2.3 3.3.4 3.9 2.3 1 3.3-2 .6-2 .8-.5 1.2q1.8.45 1.2 2.4c-.4 1.3-.2 1.9.9 1.9.9 0 1.6.7 1.6 1.5 0 1.3-.7 1.5-3.7.9-2.1-.4-4.6-1.1-5.5-1.5-1-.6-1.9-.5-2.3.1s-1.2.4-2.1-.5c-.9-.8-2-1.2-2.6-.9-.8.5-.6 1.1.3 1.8.8.6 2 2 2.8 3.1.7 1.1-.4.2-2.5-2s-4.3-3.9-4.9-3.8c-1.3.3-6.1-3.4-5.4-4.1.3-.4 2.4 0 4.7.8 2.5.9 4.4 1.1 4.7.5.4-.5.1-.9-.4-.9-1.4 0-1.4-4 0-6 .7-1.1.8-.6.4 2-.5 2.5-.4 3.2.4 2.5.6-.6 1.2-2.2 1.5-3.5.6-3.2.5-3 1.1-3 .3 0 .4 2 .3 4.5M471 135c0 1.1-.6 2-1.4 2s-1.7.8-1.9 1.7c-.3 1.2-.5.9-.6-.8-.1-2.4 1.5-4.9 3.1-4.9.4 0 .8.9.8 2m-118 1c0 2-2.5 3.8-3.6 2.7-.8-.7 1.5-4.7 2.6-4.7.6 0 1 .9 1 2m40.4 18.7c-.3 15.4-.8 21.6-2.3 27.8-1 4.4-2 6.9-2.1 5.5-.1-2.3-.2-2.3-1-.5-.5 1.1-.9 3.6-.9 5.5-.2 5.3-5.2 13.1-12 18.6-3.4 2.7-6.1 5.2-6.1 5.6 0 1.4 1.7.8 3.6-1.3 1-1.1 2.7-2.5 3.8-3.1 1.7-.9 1.7-.8-.3 2-1.2 1.7-3.5 4.2-5.2 5.6-2.7 2.3-3.6 2.5-8.5 2-3.7-.5-5.8-.3-6.9.6-.9.7-1.8 1-2.2.6-.4-.3.2-1.2 1.3-2 1.7-1.3 1.7-1.4-.9-.9-1.6.3-3.4 1.4-4 2.4-1.5 2.3-4.3 2.5-5.1.2-.5-1.2-.9-1.4-1.8-.5-.7.7-2.1 1.2-3.2 1.2-1.7 0-1.8.2-.6 1s.9 1-1.2 1c-1.6 0-2.8-.5-2.8-1.2 0-.6-.9-.3-2 .7-2.3 2.1-3.1 1.6-3.4-1.8 0-1.6-.6-2.3-1.5-1.9-1 .4-1.1-.1-.6-1.8.5-1.5.4-2-.4-1.6-.6.4-1.1 1.4-1.1 2.2s-.4 1.4-1 1.4c-.5 0-.7-1.3-.3-3 .7-3.5-.4-4-1.7-.8q-.9 2.55-.9.6c-.1-1.1-.6-1.5-1.6-1.2q-1.5.6-1.5-1.2c-.1-1.8-.1-1.8-1.5 0-.9 1.3-1.5 1.5-1.5.7s-.7-1.9-1.6-2.6c-1.4-1-1.3-1.3 1.1-2.9s2.8-1.6 4.4-.2c2.7 2.4 9.8 1.9 10.6-.8.6-1.8.8-1.9 1.2-.4.2 1 1.3 1.8 2.3 1.8 1.9 0 3-1.9 3-5.2 0-1.6-.5-1.9-2-1.4-1.1.3-3 .9-4.2 1.2-2.3.5-2.3.5-.3-1.1 1.1-.9 3.2-1.9 4.7-2.2 1.8-.4 2.5-1 2.1-2-.5-1.3-.3-1.4 1.8-.3 1.3.7 2.7 1.7 3 2.3.4.5 1.5.5 2.9-.3 1.8-.9 2.4-.9 3.4.5.8 1.2 2.4 1.5 5.6 1.3 4.7-.3 4.4.1 5.6-8.6.3-2.3 1.1-4.5 1.7-4.9 1-.6.5 5.1-.9 9.4-.5 1.7-.5 1.7.9.1.8-1 1.7-1.5 2-1.1 1.1 1 3.7-6.3 3.7-10.2 0-3.1.3-3.5 1.9-3 1.2.3 2.1 0 2.4-.9.4-1 .1-1.3-.8-1-.8.3-2.2-.1-3.1-1.1-1.5-1.5-1.5-1.6 1-.9 2 .5 2.6.2 2.6-1 0-1.9 1.6-2.1 2.4-.4.3.7.4.1.1-1.5-.3-1.7-.1-2.7.6-2.7.8 0 1 1.8.7 5.7-.5 5.6.2 5.1 1.8-1.2.7-2.7.8-2.8 1.2-.7.2 1.2-.3 4.6-1.2 7.4-.8 2.9-1.3 5.4-1.1 5.6.6.7 3.5-10 3.5-13.2 0-5.8 1.3-13.6 2.2-13.6.5 0 .7.8.4 1.7-.3 1-.7 4.5-1 7.8l-.5 6 1.4-4c.7-2.2 1.4-6.3 1.4-9 .1-2.8.6-5.7 1.2-6.5.8-1.1.9-.1.5 3.8-.4 3.7-.2 5.1.6 4.6s.9.8.5 4.4c-.4 3.1-.2 5.2.3 5.2.6 0 1-1.7 1.1-3.8.1-2 .4-4.8.8-6.2.5-1.6.3-2.9-.6-3.5-1.3-1-.6-9.1 1.7-19.3.6-2.3 1-5.3 1-6.7s.5-2.5 1-2.5c.6 0 1-1.2 1-2.6s.4-2.3.8-2c.5.3.8 9.4.6 20.3m-4.7-16c-.3 1-.5.4-.5-1.2 0-1.7.2-2.4.5-1.8.2.7.2 2.1 0 3m74-.5c-.3.7-.5.2-.5-1.2s.2-1.9.5-1.3c.2.7.2 1.9 0 2.5m-36.4-.5c1.8 1 3.4 1.9 3.7 2.1.2.2-.2.7-1 1.2-1.2.8-1 1 .8 1 1.6 0 2.2.6 2.2 2.2 0 2-.1 2-1.8.5-1-1-2.5-1.7-3.3-1.7-.9 0-2.3-1.6-3.2-3.5-1.9-4-1.7-4.2 2.6-1.8m38 4.1c-.8 2.1-.9 2.1-2.1.2-1-1.6-.9-1.8.3-1.4 1.1.4 1.5-.1 1.6-1.7.1-1.4.3-1.7.6-.8.2.8 0 2.5-.4 3.7m-50.3-2.1c1.4.9 2.9 2.3 3.3 3 .6 1 1.2 1.1 2.1.4 1-.9 1.3-.4 1.2 1.9-.1 3.9-.8 3.8-4-.5-1.7-2.2-3.5-3.5-4.9-3.4-2.1 0-2.1 0-.2.9 1.2.4 2.7 1.6 3.5 2.5 1.4 1.6 1.3 1.7-.8 1.1-1.7-.6-2.1-.4-1.6.8 1.3 3.3-.6 1.4-2.1-2-2.7-6.5-1.4-8.1 3.5-4.7m-130 1.7c0 1.4-2.9 2.6-6.8 2.6-3 0-2.4-2.5.7-2.6 1.2-.1 2.4-.4 2.8-.8 1.1-1.1 3.3-.6 3.3.8m182.7 2.6c-.5 2.4-.3 3 1.1 3.1 1 0 1.2.3.5.6-2 .8-1.5 2.1 1 2.6 2.1.3 2.1.4.2 1.2-1.1.5-2.3 1.3-2.7 1.9-.5.7-.8.5-.8-.5 0-.9-1-1.9-2.2-2.3-1.8-.5-2-.8-.9-1.5.9-.6 1-1.1.2-1.5-.6-.4-.9-1.2-.5-1.7.3-.5.9-.7 1.4-.4s1.2-.6 1.6-2c.9-3.5 1.8-3.1 1.1.5m-68 1.2c-.3.7-.5.2-.5-1.2s.2-1.9.5-1.3c.2.7.2 1.9 0 2.5M478 143c0 .5-.5 1-1.1 1-.5 0-.7-.5-.4-1 .3-.6.8-1 1.1-1 .2 0 .4.4.4 1m-133.6 6.5c-1.5 6-3.7 9.5-5 8.2-.4-.4.1-1.6 1.1-2.7s1.4-2 .9-2-.4-.4.1-.8c.6-.4 1.7-2.7 2.4-5 1.8-6.5 2.3-4.6.5 2.3m35.7-5.6c-.8.5-1.7 2.6-2.1 4.7l-.8 3.9-.1-4.8c-.1-4.2.1-4.7 2.2-4.7 1.6 0 1.9.3.8.9m47.4 1.5c.6-.3 2.4 1 4 2.7 3.2 3.4 1.7 3.1-2.4-.5-2.1-1.8-2.3-1.8-1.8-.3.6 1.5.4 1.6-1.3.7-2.4-1.3-2.6-.3-.3 2.2.9 1 1.1 1.8.5 1.8-2 0-4.4-4.7-3.7-7 .6-1.9.9-2 2.3-.7 1 .8 2.2 1.3 2.7 1.1m34-1.4c.3.5.1 1-.4 1-.6 0-1.1-.5-1.1-1 0-.6.2-1 .4-1 .3 0 .8.4 1.1 1m8.5-.6c0 .3-.4.8-1 1.1-.5.3-1 .1-1-.4 0-.6.5-1.1 1-1.1.6 0 1 .2 1 .4M276 146c0 .5-.2 1-.4 1-.3 0-.8-.5-1.1-1-.3-.6-.1-1 .4-1 .6 0 1.1.4 1.1 1m133.5 6.5c0 3-.3 5.5-.7 5.5-.5 0-.8-2.5-.8-5.5s.3-5.5.8-5.5c.4 0 .7 2.5.7 5.5m8.8-2.2c-.3.4-1.1.3-1.9-.4-.7-.6-1.1-1.5-.8-2s1.1-.3 1.8.4c.8.6 1.2 1.6.9 2m55.2-2.3c-.3.5-1.4 1-2.3.9-1.4 0-1.3-.2.3-.9 2.7-1.1 2.7-1.1 2 0M348 149c0 .5.8 1 1.7 1s1.3.3.9.7c-.4.5-.9.6-1 .3-.2-.3-1 .1-1.9.9-1.5 1.2-1.7 1-1.7-1.3 0-1.4.5-2.6 1-2.6.6 0 1 .4 1 1m53.7 2.2c-.3.7-.5.2-.5-1.2s.2-1.9.5-1.3c.2.7.2 1.9 0 2.5m43.3.3c1.3 1.4 2.1 2.5 1.8 2.5-.2 0-1.5-1.1-2.8-2.5s-2.1-2.5-1.8-2.5c.2 0 1.5 1.1 2.8 2.5m42.5-1.5c.9 1.4-1.5 4.2-3 3.6-.7-.2-1.2.3-1.1 1.1.2 2.2-13.6 10.1-14.3 8.2-.3-1.1 1.2-2.5 6.9-6.3 1.9-1.3 4.6-3.6 6-4.9 2.7-2.8 4.5-3.3 5.5-1.7m-81.4 6c-.7 3.6-.9 3.9-1 1.5-.1-3.3 1.1-8.5 1.6-7 .1.6-.1 3-.6 5.5m16.4-5c.3.5.1 1-.4 1-.6 0-1.1-.5-1.1-1 0-.6.2-1 .4-1 .3 0 .8.4 1.1 1m-25.8 2.7c.1 1.9-.1 2.2-.8 1.2-1.1-1.7-1.2-3.9-.1-3.9.4 0 .8 1.2.9 2.7m35.3-.6c0 .5-.4.9-1 .9-.5 0-1-.7-1-1.6 0-.8.5-1.2 1-.9.6.3 1 1 1 1.6m31 .7c0 1.5.2 1.5 1.1.2.8-1.2.9-1.1.5.5-.6 2 .9 7.1 3.3 11.4 1.2 2.2 1.5 2.3 2.6.8 1.3-1.8 4.5-2.3 4.5-.7 0 .5-.5 1-1.1 1-.5 0-.7.5-.4 1 .5.8 1.1.7 2.1-.1.8-.6 1.4-.9 1.4-.6s1.6-.1 3.5-.9c2.1-.8 3.5-1 3.5-.4 0 .5-.6 1-1.4 1-.7 0-1.9.6-2.5 1.4-.7.8-2.6 1.8-4.2 2.1-1.6.4-2.9 1.1-2.9 1.6 0 1.7-1.9.9-2.5-1.1-.9-2.9-2.5-2.4-2.5.7 0 1.9-.3 2.4-.8 1.5-1.3-2-4.5-.3-3.9 2 .3 1.1 0 2.1-.6 2.3-4.8 1.4-4.9 1.5-3.7 3 2.4 2.9-.2 3-2.6.2-3-3.5-3-5.3-.1-7.9l2.2-2-2.2.5c-2.5.6-3.1-1.1-1.1-3.1 1-1 1-1.7 0-3.2-.7-1.1-.8-2-.3-2 .6 0 1.4.8 2 1.7 1.5 2.7 2.2 1.1 2.7-5.7.2-3.5.7-6.7 1-7.2.8-1.2 2.4.1 2.4 2m-50.1 5.5c0 1-.3 1.5-.9 1.2-.5-.3-.9-2.5-.9-4.8.1-4 .2-4 .9-1.2.4 1.6.8 3.8.9 4.8m10.5-2.8c.4 1.1-.2 1-2.6-.3-1.8-1-3.3-2.3-3.6-3-.5-1.7 5.5 1.5 6.2 3.3m19.1-3.5c.3.5.1 1-.4 1-.6 0-1.1-.5-1.1-1 0-.6.2-1 .4-1 .3 0 .8.4 1.1 1m-43.7 7.4c-.4.6-.8 2.6-.9 4.5 0 2-.4 4.5-.9 5.6-1.4 3.1-1.2-3.6.2-11.4 1.1-6.2 1.3-6.4 1.8-3.1.3 1.9.3 3.9-.2 4.4m17-4.3c-.3.8-.7.3-1.1-1-.4-1.7-.3-2.1.5-1.3.5.5.8 1.6.6 2.3m9.2-2.1c0 .5-.2 1-.4 1-.3 0-.8-.5-1.1-1-.3-.6-.1-1 .4-1 .6 0 1.1.4 1.1 1m27 0c0 .5-.2 1-.4 1-.3 0-.8-.5-1.1-1-.3-.6-.1-1 .4-1 .6 0 1.1.4 1.1 1m-113 1c0 .5-.4 1-1 1-.5 0-1-.5-1-1 0-.6.5-1 1-1 .6 0 1 .4 1 1m90.8 1.2c-.2.6-1 1.4-1.6 1.6-.7.2-1-.2-.6-1.2.7-1.8 2.8-2.2 2.2-.4m16.2.9c0 .6-.4.7-1 .4-.5-.3-1-1.1-1-1.6 0-.6.5-.7 1-.4.6.3 1 1.1 1 1.6m43-.3c0 2.1-3.6 5.9-4.6 4.9-.4-.3-1.3 0-2.1.8s-2.4 1.5-3.5 1.5c-2 0-2-.1.3-2 9.4-7.9 9.9-8.1 9.9-5.2m-156.3 1.3c-2.1 1.2-2.3 3.3-.2 2.5.8-.3 1.4-.2 1.4.2-.4 2.8.4 3 2.8.7 1.5-1.4 3.4-2.5 4.1-2.5s1.5-.7 1.8-1.5c.4-.8 1.6-1.5 2.8-1.5 1.9.1 1.8.3-.9 2.3-1.6 1.2-5.5 4.5-8.6 7.4-3 2.9-7.3 6-9.5 6.9-2.1.9-5.9 3-8.3 4.6-3.8 2.5-4.8 2.8-6.8 1.9-3.5-1.6-6.2-1.3-9 .9-2.7 2.1-4.8 2.7-3.9 1.1.4-.5 0-1.2-.6-1.4-.8-.3-.6-.6.5-.6 2-.1 2.3-1.7.5-2.4-1.9-.7 2.1-3.5 4.2-3 2 .5 14-2.8 12.3-3.4-.6-.2-3.5.3-6.4 1.1-6.6 2-7.5 2-5.8 0 1-1.3 1-1.7-.1-2.4-1-.6-1.7-.2-2.5 1.3-1.4 2.9-3.7 3.2-5.3.7-1.1-1.9-1.1-2 1.2-1.4 1.7.4 2.7.1 3.4-1.2.9-1.6 1.3-1.7 3.6-.4 3.2 1.6 4.7.5 2-1.5-1.7-1.4-1.1-1.4 6-.9 7.1.6 7.9.5 7.3-.9-.4-1-.2-1.7.3-1.7s1 1.1 1.2 2.6l.3 2.5 3.5-2.6c1.9-1.4 3.5-2.9 3.5-3.3 0-1.3 3-4.9 4.5-5.4 2.2-.8 2.8.2.7 1.3m53 1.6c-.3 1-.5.4-.5-1.2 0-1.7.2-2.4.5-1.8.2.7.2 2.1 0 3M435 157c0 .5-.4 1-1 1-.5 0-1-.5-1-1 0-.6.5-1 1-1 .6 0 1 .4 1 1m14.8 2c-1.5 2.4-2.2 1.9-1.3-.9.3-1.2 1.1-1.9 1.6-1.6.5.4.3 1.4-.3 2.5m6.2-2.6c0 .3-.4.8-1 1.1-.5.3-1 .1-1-.4 0-.6.5-1.1 1-1.1.6 0 1 .2 1 .4M329 158c0 .5-.4 1-.9 1s-1.2.9-1.6 1.9c-.3 1.1-1.3 2.2-2.2 2.5-1.4.6-1.4.4-.1-1.6.8-1.3 1.8-2.9 2.2-3.6.9-1.4 2.6-1.6 2.6-.2m8.3 1c-.3 1.2-.8 1.9-1.1 1.6-.5-.6.5-3.6 1.2-3.6.2 0 .2.9-.1 2m82.7-1c0 .5-.4 1-1 1-.5 0-1-.5-1-1 0-.6.5-1 1-1 .6 0 1 .4 1 1m19.6 1.9c-.7 1.1-3.6 1.6-3.6.6 0-.3.6-1.2 1.3-2 1.3-1.5 3.3-.3 2.3 1.4m-200.9 1.7c.3 2.8.2 2.8-.9.6-.6-1.2-1.5-2.2-2-2.2s-.6-.5-.3-1.1c1.2-1.8 3-.3 3.2 2.7m143.7-.2c-.9 1.5-1.9 2.5-2.1 2.2-.3-.2.3-1.6 1.3-3 .9-1.5 1.9-2.5 2.1-2.2.3.2-.3 1.6-1.3 3m51.1-1.4c.3.5.1 1-.4 1-.6 0-1.1-.5-1.1-1 0-.6.2-1 .4-1 .3 0 .8.4 1.1 1m-21.8 4.1c.3 1 .9 1.9 1.4 1.9s.9.6.9 1.4c0 .9-.8 1.2-2.5.8-2.6-.4-3.3-1.8-1.5-2.4.6-.2.2-1.3-1-2.5-2.6-2.8-2.6-3.7.1-2.2 1.2.6 2.4 2 2.6 3m7.8-2.1c1 1.1 1.4 2 .8 2-.5 0-1.8-.9-2.8-2s-1.4-2-.8-2c.5 0 1.8.9 2.8 2m11-1c.3.5.1 1-.4 1-.6 0-1.1-.5-1.1-1 0-.6.2-1 .4-1 .3 0 .8.4 1.1 1m16.6 1.8c5.4 6 5 6.9-.6 1.2-2.1-2.2-3.4-4-2.9-4 .6 0 2.2 1.2 3.5 2.8M427 162c0 .5-.7 1-1.6 1-.8 0-1.2-.5-.9-1 .3-.6 1-1 1.6-1 .5 0 .9.4.9 1m10 2.1c0 .5-.4.9-1 .9-.5 0-1-.7-1-1.6 0-.8.5-1.2 1-.9.6.3 1 1 1 1.6m-64-.1c0 .5-.4 1-1 1-.5 0-1-.5-1-1 0-.6.5-1 1-1 .6 0 1 .4 1 1m29.7 2.2c-.3.8-.6.5-.6-.6-.1-1.1.2-1.7.5-1.3.3.3.4 1.2.1 1.9M441 165c0 .5-.2 1-.4 1-.3 0-.8-.5-1.1-1-.3-.6-.1-1 .4-1 .6 0 1.1.4 1.1 1m-72.6 1.5c-.4.8-1.1 1.5-1.6 1.5-.6 0-.5-.6.2-1.5.7-.8 1.4-1.5 1.6-1.5s.1.7-.2 1.5m79.6 1.7c0 .6-.6.5-1.5-.2-.8-.7-1.5-1.4-1.5-1.6s.7-.1 1.5.2c.8.4 1.5 1.1 1.5 1.6m-74-.2c0 .5-.2 1-.4 1-.3 0-.8-.5-1.1-1-.3-.6-.1-1 .4-1 .6 0 1.1.4 1.1 1m61.5 0c.3.5-.1 1-.9 1-.9 0-1.6-.5-1.6-1 0-.6.4-1 .9-1 .6 0 1.3.4 1.6 1M229 171.2c0 3.6-.4 3.5-1.4-.5-.4-1.6-.2-2.7.4-2.7.5 0 1 1.4 1 3.2m143-1.1c0 .5-.4.9-1 .9-.5 0-1-.7-1-1.6 0-.8.5-1.2 1-.9.6.3 1 1 1 1.6m49.5 2c2 3.7 1.9 4.2-.5 3.4-1.3-.4-2-.2-2.1.7 0 .7-.5.2-1-1.2-.6-1.5-1.3-2-1.7-1.3-.4.6-2.7 1.3-5.2 1.7-3 .4-3.8.3-2.5-.3 1.8-.8 1.8-.9-.9-1.6-2.2-.6-3.1-.4-3.8.9-1.4 2.5-2.5 1.9-2.6-1.4l-.1-3.1 8 .5c6.4.5 7.9.3 7.9-.9 0-2.3 2.9-.6 4.5 2.6m-57-.2c-.3 1.2-1.3 2.1-2.1 2.1-1.8 0-1.8-.6.4-2.8 2.1-2.3 2.6-2 1.7.7m81.9-1.3c.4 1 1.3 1.3 2.6.9 1.6-.5 2-.2 2 1.9 0 3.4 1.7 7.7 4.2 10.3 1.6 1.7 1.8 2.3.7 2.3-.8 0-2.1-.6-2.9-1.3-.8-.6-.6-.2.4 1 1.1 1.3 2.5 2.3 3.1 2.3.7 0 1.6.8 1.9 1.7.5 1.2 1 1.3 1.8.5s.8-1.5-.2-2.7c-.7-.8-.8-1.5-.2-1.5 1.1 0 2.2 2.3 2.2 4.6 0 2-1.3 1.8-6.4-1.3-4.6-2.8-6.2-5.3-4.3-7.2.7-.7.6-1.6-.6-2.9-.9-1-1.7-2.9-1.7-4.2 0-1.8-.3-2.1-1.1-1.3-1.7 1.7.5 13.1 2.8 14.9 1 .8 4 2.5 6.6 3.8s4.3 2.7 3.7 3.1-1.6.2-2.3-.3c-2.2-1.8-17-4.3-20.2-3.4l-3 .9 3.5 2.1c1.9 1.2 4.7 2.4 6.2 2.7 3.3.8 3.7 3 .7 4.5-1.7 1-2 .9-1.7-.7.4-2.4-3.2-2.9-7.1-.9-4.2 2.2-5.8 2-3.7-.3 2.6-2.9.2-3.4-2.4-.6-2.7 2.9-5.9 3.3-6.1.7-.1-1.6-.2-1.6-.6 0-.2 1-.8 1.8-1.3 1.8s-.7-.7-.4-1.5c.4-.8.1-1.5-.5-1.5s-1.1.9-1.1 1.9c0 2.2-2.5 3.5-4.7 2.2-1.1-.6-2.2-.2-3.5 1.1-1 1-2.4 1.6-3 1.2-.8-.5-.5-1 .8-1.5 1.7-.7 1.7-.8.1-.8-1-.1-1.5-.6-1.2-1.1.3-.6.3-1.9 0-3.1-.5-1.6-.9-1.8-2.1-.8-.8.6-1.2 1.4-1 1.6.3.3-.4 1.5-1.5 2.6-1.8 2-2 2-3.6.4-.9-.9-1.3-2-.9-2.4.5-.5 1.1-.2 1.3.4 1 2.8 2.5 1.2 2-2-.3-1.7-.3-2.6 0-1.9.4 1 1.7.3 4.4-2.4 2.2-2.1 3.9-4.2 3.9-4.8 0-.5-1.3.2-2.8 1.7-3.2 3.1-5.8 3.6-4.7.9 1.5-3.4 1.7-6.2.6-6.2-.6 0-1.1 1.1-1.1 2.4 0 1.4-.5 2.8-1.2 3.2-.8.5-.9 0-.5-1.5.3-1.5-.1-2.6-1.6-3.6-1.7-1.2-1.9-1.7-.9-2.7.9-.9 1.2-.9 1.2.1 0 .7.5.9 1 .6.6-.3 1-1.3 1-2.1 0-2.4 2.8-4.7 4.8-3.8.9.4 2.6.6 3.7.5 1.9-.3 1.9-.2-.2 2.1-1.9 2-2 2.5-.7 4.2 1.4 1.9 1.4 1.9 1.4-.1 0-1.4 1.2-2.7 4-4.1 3.1-1.5 4-1.6 4-.6 0 2 1.8 1.7 4.7-.6 2.6-2.1 6.3-2.7 6.3-1.1 0 .5-1.6 1.8-3.5 3-1.9 1.1-3.5 2.5-3.5 3.1 0 .7-.6.7-2.1 0-1.7-.9-2.3-.8-3.5.7-1.8 2.4-1.8 3.6.2 2.9.9-.3 2.6-.6 3.8-.6 1.5 0 2.7-.9 3.4-2.5.6-1.4 1.8-2.5 2.7-2.5.8 0 2.3-.9 3.2-2 1-1.1 2.5-2 3.4-2s2.2-.7 2.9-1.5c.7-.9 2.8-2.3 4.7-3.2 2.4-1.1 3.1-1.9 2.4-2.6-1.3-1.3-1.4-2.7-.2-2.7.5 0 1.2.7 1.5 1.6m34.6.4c0 .5-.8 1-1.7 1-1.5 0-1.6-.2-.3-1 1.9-1.2 2-1.2 2 0m-103 3.5c0 .8-.4 1.5-.9 1.5-1.3 0-2.2-1.6-1.4-2.4 1.1-1.1 2.3-.6 2.3.9m-177.3 2.1c-.3.3-1.2.4-1.9.1-.8-.3-.5-.6.6-.6 1.1-.1 1.7.2 1.3.5m199.3 1.6c0 1.3-.9 3.4-2 4.8l-1.9 2.5 1-4c1.6-6 2.9-7.4 2.9-3.3m-29-.2c0 .5-.9 1-2.1 1-1.1 0-1.7-.5-1.4-1 .3-.6 1.3-1 2.1-1s1.4.4 1.4 1m-18 1c0 .5-.5 1-1.1 1-.5 0-.7-.5-.4-1 .3-.6.8-1 1.1-1 .2 0 .4.4.4 1m-6.8 2.2c-.3 1.4-.2 1.9.6 1.4.7-.4 1.2-1.4 1.2-2.2s.5-1.4 1-1.4c.6 0 1 .3 1 .6 0 1.3-2.4 5-4.3 6.5-1.3 1.1-1.6 1.8-.8 2.3.6.4 1.1.2 1.1-.3 0-.6.7-1.1 1.5-1.1s1.5-.5 1.5-1c0-.6.4-1 .8-1s.6 1.5.4 3.4c-.4 3.3-.5 3.4-5.5 3.9-7.8.7-8.6 1-11.3 5-2.4 3.5-4.4 4.8-4.4 2.7 0-.5-2-.7-4.8-.3-3.8.4-5.1.2-6.2-1.2-1.4-1.6-1.3-1.7.8-1.1 2.4.8 3-.5 1-2.1-.7-.6-2.5-1.3-4-1.7-1.5-.3-3.2-1.6-3.9-2.7-1.4-2.7-.5-3.6 1.6-1.5 2.3 2.3 3.2 2 1-.4-.9-1-1.5-2.6-1.2-3.5.9-2.1 5.7-2 5.7.1 0 1.2.7 1.5 2.5 1.2 1.4-.3 2.5-.1 2.5.3 0 .5.9.9 1.9.9 1.1 0 2.3.4 2.6 1 .3.5 1.3 1 2.1 1s1.4-.5 1.4-1c0-.6-.9-1-2-1s-2-.5-2-1c0-.6-.7-1-1.6-1-3.6 0 0-1.8 5.8-2.9 3.5-.7 7.1-1.7 8-2.2 2.8-1.4 3-1.1 2.4 3.3l-.6 4.3 1.6-4.8c1.7-4.7 3.7-6.7 2.6-2.5m-37.6 7.3c1.3 3.3 2.6 7.2 2.7 8.7.1 1.6.5 2.8 1 2.8.4 0 .7 1 .7 2.2-.1 2.2-.1 2.2-1.5.4-.8-1.1-1.8-3.6-2.1-5.5-.4-2-1.3-4.5-2-5.6-.8-1.1-1.4-2.7-1.4-3.7s-.5-1.8-1-1.8c-1.4 0-3.5 4.8-2.5 5.8.4.4 1 .1 1.2-.6 1.1-3.1 3-.6 4.3 5.9l.7 3.7-3.5-3.4c-1.9-1.9-4.1-3.4-4.9-3.4s-1.1-.5-.8-1c.3-.6.1-1-.5-1-.8 0-1 .9-.6 2.5.6 2.4-.8 3.7-1.6 1.3-.2-.6-.9-.9-1.6-.7-.8.3-.3 1.4 1.3 3.1 1.4 1.5 2.5 3.5 2.5 4.4q0 1.65-3-2.1c-1.6-2.1-3-4.4-3-5.2 0-1.9 3-6.4 5.9-8.7 1.3-1.1 2.8-2.5 3.5-3.2 2-2.4 3.7-1 6.2 5.1m54.6-4.3c-.7.7-1.2.8-1.2.2 0-1.4 1.2-2.6 1.9-1.9.2.3-.1 1.1-.7 1.7m.8 3.8c0 .5-.2 1-.4 1-.3 0-.8-.5-1.1-1-.3-.6-.1-1 .4-1 .6 0 1.1.4 1.1 1m36 2.8c0 1.5-.5 3.4-1 4.2-.7 1.1-1 .2-1-3.3 0-3 .4-4.6 1-4.2.6.3 1 1.8 1 3.3m-34.6 1.9c-.8 3.3-2.3 6.3-2.4 4.7 0-2.7 1.3-7.4 2.1-7.4.5 0 .6 1.2.3 2.7m30.7 1.6c-.8.8-1.1.3-1.1-1.9.1-2.5.2-2.7 1.1-1.1.8 1.4.8 2.2 0 3M355 194c0 1-.8 2.4-1.7 2.9-1 .6-1.2 1.1-.5 1.1 1.4 0 1.7 3 .2 3-.5 0-1-.5-1-1 0-.6-.7-1-1.5-1s-1.5-.5-1.5-1c0-.6.5-1 1-1 .6 0 1-.8 1-1.8 0-2.2.8-3.2 2.7-3.2.7 0 1.3.9 1.3 2m2.6 4.8c-1.2 1.1-1.6-.6-.9-3.9l.8-3.4.3 3.3c.2 1.9.1 3.6-.2 4m96.3-3.8c1.3.8 1.1 1-.9 1.1-5.7.4-12-1.2-12-3.1 0-.9 10.8.8 12.9 2m-106.2-.4c-.3.3-1.2.4-1.9.1-.8-.3-.5-.6.6-.6 1.1-.1 1.7.2 1.3.5m-3.4 2.1c-.7.2-1.9.2-2.5 0-.7-.3-.2-.5 1.2-.5s1.9.2 1.3.5m51.7.3c0 .5-1 1-2.2.9-2.2 0-2.2-.1-.3-.9 1.1-.5 2.1-.9 2.3-.9.1-.1.2.3.2.9m5.6 1.7c-1 1-1.9-.5-1-1.8.6-1.1.8-1.1 1.2 0 .2.7.1 1.5-.2 1.8m-379.7 4.6c-.4 2.3-.8 4.5-.9 4.9 0 .5-.5.8-1.1.8s-.9-.9-.6-2 .1-2-.4-2-.2-1.1.6-2.4c1.1-1.7 1.3-2.6.5-3.1-1.8-1.1-3.9 2.5-4.6 7.8-.5 3.2-1 4.4-1.5 3.5-1.1-1.7 0-7.9 1.8-9.6.7-.7 1.3-1.7 1.3-2.2 0-1.2 4.3-1.7 5.1-.7.3.5.2 2.7-.2 5m282.6-4.7c.9.9 1.4 1.8 1.2 2-.7.8-3.5-.7-4.1-2.2-.7-1.9.9-1.8 2.9.2m-263 .4c.8 1.3-.5 1.3-2.5 0-1.3-.8-1.3-1 .2-1 .9 0 2 .4 2.3 1m152.5-.6c0 .2-.8 1-1.7 1.7-1.6 1.3-1.7 1.2-.4-.4s2.1-2.1 2.1-1.3m280.4 2.2c.3.8.2 1.2-.4.9s-1-1-1-1.6c0-1.4.7-1.1 1.4.7m-384 2.6c-.4 1.3-.7 2.6-.6 3 .1.5-.2.8-.8.8-1.3 0-1.3-1.2 0-4.6 1.3-3.2 2.5-2.5 1.4.8m350.5-1.1c-1.6 1-2.3.4-1.4-1 .3-.6 1.1-.8 1.7-.5q.9.6-.3 1.5m-354.3 2.6c-1.1 1.1-1.7-.4-.9-2.3.7-1.8.8-1.8 1.1-.1.2 1 .1 2.1-.2 2.4M75 202.2c-.3 2.2-3.9 10.7-3.9 9.3-.1-3.1 1.9-9.5 2.9-9.5.6 0 1 .1 1 .2m2.7 3.4c-3.9 8.4-3.8 8.2-3.2 4.5.5-3.5 3.3-8.7 4.1-7.8.2.2-.2 1.7-.9 3.3M83 203c0 .5-.2 1-.4 1-.3 0-.8-.5-1.1-1-.3-.6-.1-1 .4-1 .6 0 1.1.4 1.1 1m355.4.5c.3.8.2 1.5-.3 1.5s-1.4-.7-2.1-1.5c-1-1.2-1-1.5.3-1.5.8 0 1.7.7 2.1 1.5m13.1-.5c-.3.5-1 1-1.6 1-.5 0-.9-.5-.9-1 0-.6.7-1 1.6-1 .8 0 1.2.4.9 1m3.5-.6c0 .3-.4.8-1 1.1-.5.3-1 .1-1-.4 0-.6.5-1.1 1-1.1.6 0 1 .2 1 .4m6 0c0 .3-.4.8-1 1.1-.5.3-1 .1-1-.4 0-.6.5-1.1 1-1.1.6 0 1 .2 1 .4m-405.4 1.7c-1.1-1.7 2.3-1.3 4 .4.9.8 2.5 1.5 3.7 1.6 1.8.1 1.6.3-.8 1-2.2.6-3.1.5-3.8-.6-.6-1.1-1.3-1.3-2.7-.5-2.4 1.3-3.8 7.9-2 9 .7.4 1.1 1.3.8 2.1-.2.7-1.2-.3-2.1-2.3-1.2-2.6-1.4-4.3-.7-6.6.5-2.1.5-3.2-.1-3.2s-.7-.5-.4-1c.4-.7 1.3-.6 2.7.1 1.5.8 1.9.8 1.4 0m12 2.5c-.9 2.8-1.2 3.1-1.4 1.4-.4-2.6.4-5 1.6-5 .5 0 .4 1.6-.2 3.6m235.9-2.6c.3.5.2 1-.4 1-.5 0-1.3-.5-1.6-1-.3-.6-.2-1 .4-1 .5 0 1.3.4 1.6 1m124.4 1.1c-.8 1.6-1.4 1.8-2.2 1-.9-.9-.8-1.4.3-2.1 2.4-1.6 3.1-1.1 1.9 1.1m47-.3c.9.9 2.8 2.3 4.4 3 1.5.6 2.7 1.6 2.7 2.1 0 .6-1 .5-2.3-.2-2.9-1.5-7.7-5.3-7.7-6.1 0-1.1 1.3-.6 2.9 1.2m-404.4.9c-.4 1-1.1 3.1-1.5 4.8l-.8 3-.1-2.8c-.1-1.5.5-3.6 1.1-4.7 1.6-2.5 2.3-2.6 1.3-.3m257.1.9c-.4.9-.9 1.5-1.1 1.2-.3-.3-.3-1.3.1-2.2s.9-1.5 1.1-1.2c.3.3.3 1.3-.1 2.2m-287.3-.1c-.3.9-.8 1.4-1 1.1-.3-.3-.2-.9.2-1.5.9-1.6 1.5-1.3.8.4m378.2-.5c-.3.5-1.1 1-1.6 1-.6 0-.7-.5-.4-1 .3-.6 1.1-1 1.6-1 .6 0 .7.4.4 1m4.5.6c0 1.4-.3 1.4-1.5.4-.8-.7-1.5-1.4-1.5-1.6s.7-.4 1.5-.4 1.5.7 1.5 1.6m12.5-.6c.8 1.3-.5 1.3-2.5 0-1.3-.8-1.3-1 .2-1 .9 0 2 .4 2.3 1m13.2-.4c-.3.3-1.2.4-1.9.1-.8-.3-.5-.6.6-.6 1.1-.1 1.7.2 1.3.5M84 206.9c0 .6-.4 1.3-1 1.6-.5.3-1-.1-1-.9 0-.9.5-1.6 1-1.6.6 0 1 .4 1 .9m224.5.1c.3.5.1 1-.4 1-.6 0-1.1-.5-1.1-1 0-.6.2-1 .4-1 .3 0 .8.4 1.1 1m-228.8 2.2c-.3.8-.6.5-.6-.6-.1-1.1.2-1.7.5-1.3.3.3.4 1.2.1 1.9m30.3-1.5c-.1.5-.7 1.9-1.5 3.3s-1.5 4.1-1.6 6c-.1 2.7-.3 2.9-.6 1.1-.8-4.1.7-11.1 2.3-11.1.8 0 1.4.3 1.4.7m225.3 1.4c-.4 1.5-.8 1.7-1.4.8-.6-1.1.4-2.8 1.8-2.9 0 0-.1.9-.4 2.1M446 208c0 .5-.4 1-.9 1-.6 0-1.3-.5-1.6-1-.3-.6.1-1 .9-1 .9 0 1.6.4 1.6 1m20 0c0 .5-.4 1-1 1-.5 0-1-.5-1-1 0-.6.5-1 1-1 .6 0 1 .4 1 1m-380.8 3.2c-.8.8-.9.4-.5-1.3.4-1.3.8-1.8 1.1-1 .2.7-.1 1.8-.6 2.3m375.9-1.2c1.7 1.3 1.9 1.9.9 1.9-1.6 0-5-2.2-5-3.3 0-1.2 1.8-.6 4.1 1.4m-404.8 1c.3 1.1.1 2-.4 2s-.9-.9-.9-2 .2-2 .4-2 .6.9.9 2m9.6 2.9c-.1 1.3-.2 1.3-.6-.2-.2-.9-1.1-1.7-1.9-1.7s-1.4-.7-1.4-1.7c0-1.4.2-1.4 2 .2 1.1 1 1.9 2.5 1.9 3.4m26.8-1.2c-.3 1-.5.4-.5-1.2 0-1.7.2-2.4.5-1.8.2.7.2 2.1 0 3m11.7 1c-.3 2.7-1.1 5.2-1.6 5.8-.7.7-.8.3-.5-1 .3-1.1.8-3.7 1.2-5.8.9-5.4 1.7-4.5.9 1m192.8-2.3c.5.9 1.5 1.6 2.2 1.6 1.6 0 12 9.9 11.3 10.7-.3.2-3.6-.2-7.4-1-3.7-.9-9.7-2-13.3-2.6-3.6-.7-7.8-1.4-9.5-1.7-2.5-.5-2.8-.4-1.7.7 1.4 1.6 1.6 3.9.2 3.9-.5 0-1-.7-1-1.5s-1.1-1.7-2.4-2.1c-2.2-.5-2.3-.8-1.3-2.5.9-1.5 2.4-1.9 6.5-1.9 3.7 0 5.1-.3 4.6-1.1-.8-1.4-8.5-.5-11.4 1.3-1.1.7-2 2.1-2 3.1s-.6 1.7-1.2 1.6c-.7-.1-2.4.3-3.8.9-2.4 1-2.3 1 1 .8 1.9-.1 4.1-.5 4.9-1 1-.6 2-.2 3.2 1.3 2.2 2.7 5.4 2.4 5.3-.5 0-1.9.2-1.9 2.6-.8 1.4.8 5.6 1.5 9.2 1.7 4.7.3 7.9 1.1 11.3 3 2.6 1.5 5.4 2.7 6.1 2.7.8 0 1.4.4 1.4 1 0 .5.5 1 1.1 1s.8-.9.4-2.1c-.6-1.8-.4-1.9 1.2-1 2.2 1.1 4.2 3.3 5.8 6.3 1 1.9 9.9 6.2 16.3 7.8 3.8.9 6.2 2.7 6.2 4.6 0 .8.6 1.4 1.4 1.4 2.3 0 3.1 2.2 1.3 3.5-2.1 1.5-1.1 2.6 1.8 1.9 1.8-.4 3.1.4 6 3.5 5.8 6.3 6.9 8.1 7.6 13.5.6 5.4-.5 11-2.9 13.8-1.8 2.2-3.6 2.4-2.8.3.3-.9 0-1.5-.9-1.5-.8 0-1.5.8-1.5 1.9 0 2.2-2.5 4.5-3.9 3.7-.6-.4-.8-1.3-.5-2 .3-.8.1-1.7-.5-2-.6-.4-1.7.9-2.5 2.9-1.7 3.9-3 4.4-4.6 1.6-.5-1.1-1.7-1.7-2.7-1.5s-2.8-.5-4.1-1.6c-2.2-1.8-2.3-2.1-.8-4.2 1.8-2.6 2.1-7.6.5-9.8-.9-1.2-1-1.1-.4.5.6 2-3.1 10.5-4.7 10.5-.8 0-1.1-2.5-.8-7.3.1-1.7-.4-2.7-1.2-2.7-.9 0-1-.2-.1-.8.8-.5.2-1.8-1.9-4.1-2.6-2.9-3.4-3.3-6.4-2.8-1.8.3-3.6.1-4-.4-.4-.6-1.1-.6-1.9.1-1.1.9-2 .8-3.7-.4l-2.2-1.6 2.4-.1c1.4-.1 1.8-.3 1-.5-.8-.3-3.6.2-6.3 1-2.8.8-4.9 1-5.3.5-.3-.6-1.5-.7-2.7-.3-2.1.6-2.1.5-.5-1.2 1.2-1.2 2.1-1.4 3-.7.7.6 2.1.8 3 .4 1.5-.5 1.2-.9-1.3-2s-3-1.8-2.6-3.7c.2-1.3 0-2.4-.4-2.4-.5 0-.9 1.4-.9 3 0 2-.6 3.3-1.7 3.7-1 .4-2.3 1.4-3 2.2-1.1 1.4-1.2 1.3-1.3-.6 0-2.1-.2-2.2-2.6-1.1-1.9.9-3.3.9-5.5.1-1.6-.6-3.7-.9-4.7-.6-1 .2-2.5-.3-3.2-1.2-1.2-1.5-1.2-1.7.5-1.5 3.3.4 3.7.1 2.1-1.5-1.8-1.8-3.3-1.9-3.9-.3-.3.9-1.3.3-3-1.6-1.8-2.1-3-2.7-4.4-2.1-1.6.6-1.4.9 1.5 2.3 1.7.9 3.2 1.9 3.2 2.4 0 1.2-.7 1-4.8-1.5-2-1.3-4.5-2.6-5.4-3-1.7-.6-2.6-2.8-1-2.6.4.1 3.5.1 6.9 0 5.2-.1 6.1-.4 5.6-1.7-.4-1-1.3-1.4-2.6-1-1.2.3-2.8 0-3.6-.7-1.2-1-1.4-.9-.8.5.8 2.3-.1 2.3-2.6.1-1.5-1.3-2.1-1.5-2.4-.6-.3.7-.9 1.3-1.5 1.3s-.8-.7-.4-1.5c.7-1.8-.5-2-2.2-.3-.8.8-1.2.8-1.2.1 0-2.3 2.8-3.3 7.6-2.8l4.9.6-3.9-1.5c-3.8-1.4-6.9-3.6-5-3.6.5 0 1.6.4 2.4.9 2.3 1.5 3.3 0 1.1-1.6-2.9-2-2.6-3.5.4-2.1 1.4.6 2.5 1.4 2.5 1.8 0 .3 2.2 1.2 5 1.9 5.7 1.5 13.9.6 12.1-1.2-.9-.9-1.7-.8-3.1.1-2.7 1.6-5 1.5-9.6-.5-3.2-1.3-3.5-1.7-1.9-2.1 1.1-.2 2.2-.7 2.5-1.1 1.2-1.5 7.4-4.1 9.7-4.1 1.7 0 2.4-.5 2.1-1.7-.4-2.3-2.8-2.9-2.8-.6-.1 1.7-.1 1.7-1.1 0-1.4-2.3-3.3-2.2-2.6.3.3 1.1.1 2-.4 2s-.9-.7-.9-1.6-.6-1.4-1.2-1.1c-.7.2-1.2 1.1-1 2 .2 1.4-.1 1.5-2.3.7-4-1.5-6.8-1.3-6.1.5.4 1.2 0 1.4-1.9.9-1.5-.4-2.5-.2-2.5.5 0 1.3-4.6 1.5-5.4.3-.6-.9 2.9-3.2 5.4-3.5.8-.2 2.2-.7 3-1.2.8-.6 2.6-1.5 4-2.2 2.5-1.1 2.5-1.1-.8-1.2l-3.4-.1 4.4-3.4c2.3-1.9 5.8-5 7.6-6.8 4.6-4.5 5.5-4.8 15.1-4.4 6.4.3 8.6.8 9.3 2m2.8-1.4c0 .5-.5 1-1.1 1-.5 0-.7-.5-.4-1 .3-.6.8-1 1.1-1 .2 0 .4.4.4 1m-218.3 4.7c-.3 1-.5.2-.5-1.7s.2-2.7.5-1.8c.2 1 .2 2.6 0 3.5m29.7-2c-.4 1.6-1.1 3.7-1.5 4.8-.6 1.6-.8 1.4-.8-1.2-.1-3.7.7-6.3 2-6.3.5 0 .6 1.2.3 2.7m304.6-1.8c0 .5-.5 1.1-1.1 1.3s-1.2 1.6-1.2 3.1c-.2 2.2-.6 2.7-2.2 2.5-1.1-.2-1.9-.9-1.8-1.5s-.6-.9-1.7-.6c-1.4.4-2 0-2-1.1 0-1 .9-1.6 2.3-1.6 1.2 0 2.9-.5 3.7-1.1 1.2-.8.8-1-1.7-.7-1.8.3-3 .1-2.7-.4.7-1.1 8.4-1 8.4.1m5.8 1.9c.3.9-.2 1.3-1.4 1-.9-.1-1.9-.9-2.2-1.6-.3-.9.2-1.3 1.4-1 .9.1 1.9.9 2.2 1.6m26.7-.7c1 1.5-.1 2.3-2 1.5-.9-.3-1.3-1-1-1.6.8-1.3 2.2-1.3 3 .1m-370.8 3.6c-.3 1-.5.4-.5-1.2 0-1.7.2-2.4.5-1.8.2.7.2 2.1 0 3m317.9.4-1.6 2.3v-2.5c0-3 1-4.3 2.3-3 .6.6.3 1.8-.7 3.2M19 214.2c0 .7-.5 2-1 2.8-.8 1.2-1 .9-1-1.3 0-1.5.5-2.7 1-2.7.6 0 1 .6 1 1.2m44-.2c0 .5-.4 1-1 1-.5 0-1-.5-1-1 0-.6.5-1 1-1 .6 0 1 .4 1 1m244 0c0 .5.9 1 2 1 1.4 0 2 .7 2.1 2.2 0 1.3.3 1.7.6 1s1.3.3 2.4 2.5c3.2 6.2.2 5.5-5.1-1.3-4-5-4.6-6.4-3.1-6.4.6 0 1.1.4 1.1 1m84-.3c0 1.1-5 5.7-5 4.6 0-1.4 3-5.3 4.1-5.3.5 0 .9.3.9.7m11.2 1.5c-1.9 1.9-1.4 3 1 2.2 2.2-.6 2.2-.6.3 1.2-1.3 1.3-2 1.5-2.3.6-.2-.6-1.1-1.2-2-1.2-1.2 0-1.1-.5.8-2.5 1.3-1.4 2.6-2.3 2.9-2 .2.3-.1 1.1-.7 1.7M76 221c0 .8-.7.2-1.5-1.4-.8-1.5-1.5-3.3-1.5-4 .1-1.6 2.9 3.6 3 5.4m14.4-4.5c.3.8.1 1.5-.4 1.5-.6 0-1-.7-1-1.5s.2-1.5.4-1.5.6.7 1 1.5m294.2-.6c-.7 1-6.6 2-6.6 1.1 0-1.3 1.4-2 4.2-2 1.6 0 2.7.4 2.4.9m-336.7 3.3c0 2.8-.2 3-.9 1.3-1.2-2.8-1.2-4.5 0-4.5.6 0 1 1.5.9 3.2m92.1-1.8c0 .3-.4.8-1 1.1-.5.3-1 .1-1-.4 0-.6.5-1.1 1-1.1.6 0 1 .2 1 .4m3.8.8c-.2.6-1 1.4-1.6 1.6-.7.2-1-.2-.6-1.2.7-1.8 2.8-2.2 2.2-.4m-85.1 3c-.3.7-.5.2-.5-1.2s.2-1.9.5-1.3c.2.7.2 1.9 0 2.5m3.8-2.2c.3.5.1 1-.4 1-.6 0-1.1-.5-1.1-1 0-.6.2-1 .4-1 .3 0 .8.4 1.1 1m330 .1c.4.6 1.3.8 2.1.5s1.1 0 .7 1c-.6 1.7-2.3 1.9-2.3.3 0-.8-.5-.8-1.5.1-1.3 1-1.5.9-1.5-.9 0-2.2 1.4-2.8 2.5-1m18.6-.1c2.3 1.3 2.5 3.6.4 4.4-.9.3-1.5-.1-1.5-1.1 0-1.3-.3-1.3-1.5-.3-2 1.6-3.8.1-2.9-2.3.7-1.9 2.7-2.2 5.5-.7m-313.8 2.5c-.7 2.1-1.3 1.9-1.3-.6 0-1.1.4-1.8 1-1.4.5.3.7 1.2.3 2m281.7 0c0 3.3-2.5 3.3-2.6 0-.1-1.5.3-2.5 1.2-2.5.8 0 1.4 1 1.4 2.5m-325 .6c0 .4-.7.6-1.5.3-.8-.4-1.5-1-1.5-1.5 0-.4.7-.6 1.5-.3.8.4 1.5 1 1.5 1.5m265.1 1.2c-.8.8-1.1.7-1.1-.4 0-2 1.3-3.4 1.8-1.9.3.7-.1 1.7-.7 2.3M68 222c0 .5-.2 1-.4 1-.3 0-.8-.5-1.1-1-.3-.6-.1-1 .4-1 .6 0 1.1.4 1.1 1m34.7 1.2c-.3.8-.6.5-.6-.6-.1-1.1.2-1.7.5-1.3.3.3.4 1.2.1 1.9M386 222c0 .5-.4 1-1 1-.5 0-1-.5-1-1 0-.6.5-1 1-1 .6 0 1 .4 1 1m-285.5.9c.3.5.1 1.2-.4 1.5s-1.1-.1-1.5-.9c-.6-1.6.9-2.1 1.9-.6m-9.5.5c0 .3-.4.8-1 1.1-.5.3-1 .1-1-.4 0-.6.5-1.1 1-1.1.6 0 1 .2 1 .4m296.2 1.8c-.7.7-1.2.8-1.2.2 0-1.4 1.2-2.6 1.9-1.9.2.3-.1 1.1-.7 1.7m-293.5 1c-.3.8-.6.5-.6-.6-.1-1.1.2-1.7.5-1.3.3.3.4 1.2.1 1.9M258 225c0 .5-.7 1-1.6 1-.8 0-1.2-.5-.9-1 .3-.6 1-1 1.6-1 .5 0 .9.4.9 1m66 1.1c0 .5-.4.9-1 .9-.5 0-1-.7-1-1.6 0-.8.5-1.2 1-.9.6.3 1 1 1 1.6m-216.3 1.1c-.3.8-.6.5-.6-.6-.1-1.1.2-1.7.5-1.3.3.3.4 1.2.1 1.9m3 1.5c-.3 1-.5.4-.5-1.2 0-1.7.2-2.4.5-1.8.2.7.2 2.1 0 3m23 .3c-.4 1.8-.2 3 .4 3s.7.4.4 1c-.3.5-1.2 1-1.9 1-1.2 0-1.2-2.9-.1-6.8.8-2.5 1.7-1.1 1.2 1.8m231.8-2c-.3.5-1.3 1-2.1 1s-1.4-.5-1.4-1c0-.6.9-1 2.1-1 1.1 0 1.7.4 1.4 1m14.5-.2c0 .8-5.2 4.2-6.4 4.2-1 0-.6-2.6.6-3.8 1.3-1.3 5.8-1.7 5.8-.4m-8 2.2c-.6 1.1-1.5 2-2 2-.6 0-.5-.9.2-2s1.6-2 2.1-2c.4 0 .3.9-.3 2m-339.3 6.6c-.8.9-4.7-3.4-4.7-5.2 0-1 .9-.5 2.6 1.6 1.5 1.7 2.4 3.3 2.1 3.6m88.3-3.4c0 .5-.4.8-1 .8-.5 0-1-1-1-2.3 0-1.8.2-1.9 1-.7.5.8 1 1.8 1 2.2m-87.5-1.1c1.1 1.7-.1 2.1-1.5.4-.8-.9-.8-1.5-.2-1.5s1.4.5 1.7 1.1m-19.4 1.6c-.5 1-1.6 2.7-2.5 3.8-1.4 1.9-1.5 1.8-.6-1.5.6-1.9 1-3.6 1-3.7 0-.2.7-.3 1.5-.3 1.2 0 1.3.4.6 1.7m99.9-.3c0 .3-.4.8-1 1.1-.5.3-1 .1-1-.4 0-.6.5-1.1 1-1.1.6 0 1 .2 1 .4m-86.8 2.4c-1 .3-1 .7 0 2 1.1 1.3 1 1.5-.5.9-1-.4-2.3-.7-2.8-.7s-.9-.5-.9-1.1c0-.5.5-.7 1-.4.6.3 1.3-.1 1.6-.9.3-.9 1.1-1.3 1.7-.9.8.5.7.8-.1 1.1m96.5.4c-.3.8-.6.5-.6-.6-.1-1.1.2-1.7.5-1.3.3.3.4 1.2.1 1.9M36 236c0 .5-.5 1-1.1 1-.5 0-.7-.5-.4-1 .3-.6.8-1 1.1-1 .2 0 .4.4.4 1m102.9.3c.6.8.8 1.7.4 2-.7.8-3.3-1.1-3.3-2.4s1.6-1.1 2.9.4m112.3.9c-.7.7-1.2.8-1.2.2 0-1.4 1.2-2.6 1.9-1.9.2.3-.1 1.1-.7 1.7m-243.5 2c-.3.7-.5.2-.5-1.2s.2-1.9.5-1.3c.2.7.2 1.9 0 2.5M410 237c0 .5-.7 1-1.5 1s-1.5-.5-1.5-1c0-.6.7-1 1.5-1s1.5.4 1.5 1m-261.2 6.9c.2.6-1 1.1-2.7 1.1-2 0-3.1-.5-3.1-1.4 0-.8-.3-2.2-.7-3.2-.6-1.6-.3-1.6 2.7.3 1.9 1.2 3.6 2.7 3.8 3.2M7.4 251.6c.1 2.2.6 4.6 1 5.2.4.7.3 1.2-.2 1.2-1.6 0-2.3-3.1-2.7-11-.3-6.7-.2-7 .7-3.5.5 2.2 1.1 5.8 1.2 8.1m133.6-9.1c0 .8-.4 1.5-.9 1.5s-1.1.6-1.3 1.4c-.2 1.2-.8 1-2.8-.6-2.4-2-2.4-2-.2-1.4 1.6.6 2.2.3 2.2-.8 0-.9.7-1.6 1.5-1.6s1.5.7 1.5 1.5m98 .3c0 1.3-7.3 3.4-10.1 2.9-2.1-.4-2.1-.4.6-.6 1.7-.1 4.1-.8 5.5-1.6 2.9-1.7 4-1.8 4-.7m12.5.2c.3.5.2 1-.4 1-.5 0-1.3-.5-1.6-1-.3-.6-.2-1 .4-1 .5 0 1.3.4 1.6 1m-30.5 4.4c0 .2-.9.6-2 .9s-2 .1-2-.4.9-.9 2-.9 2 .2 2 .4m27 .6c0 .5-.2 1-.4 1-.3 0-.8-.5-1.1-1-.3-.6-.1-1 .4-1 .6 0 1.1.4 1.1 1m140 0c0 .5-.2 1-.4 1-.3 0-.8-.5-1.1-1-.3-.6-.1-1 .4-1 .6 0 1.1.4 1.1 1m-106 15c1.2.8 1.2 1-.3 1.6-2 .7-4.7-.1-4.7-1.6 0-1.2 3-1.3 5 0m25 1c0 .5-.9 1-2 1s-2-.5-2-1c0-.6.9-1 2-1s2 .4 2 1m-19.2 4.2 1.2 3.3-.4-3c-.5-3-.3-3.1 3.4-3.1 3.4 0 3.9.3 4.9 3l1 3.1-.5-3.2c-.5-2.7-.3-3.2 1-2.7.9.3 1.6 1.7 1.6 2.9 0 1.3.4 2.6.8 2.9.5.3.6-.9.4-2.5l-.4-3 3.7 1.8c2.9 1.4 3.9 1.5 4.2.5.3-.6.9-1.2 1.4-1.2.6 0 .8.4.4.9-.3.5-.1 1.2.5 1.6 1.7 1 1.1 2.5-.7 1.8-1.1-.4-1.4-.3-.9.6.5.7 1.4 1 2.2.7.9-.4 1.4.2 1.4 1.7 0 1.2.7 4 1.5 6.2l1.5 4-.6-4.8c-.4-3.1-.3-4.7.5-4.7.6 0 1.1 1.5 1.1 3.2.1 1.8.8 4.4 1.6 5.8s1.3 1.8 1 .9c-.7-2.4-2-11.3-1.8-12.2.1-.4-.7-.7-1.8-.7-1 0-2.4-.9-3-2.1-1.4-2.5-.3-4 1.3-1.9 1.5 1.8 5.7 2.1 5.7.4 0-.7-.8-1.4-1.7-1.6-1-.2-1.3-.6-.8-1 .6-.3 2.1-.2 3.4.3 2 .8 2.1 1.1 1 2.5-1.1 1.3-1 1.7.4 2.5 2 1.1 2.3 4.1.5 3.8-3.2-.4-3.5.1-2.8 4.1 1 5.3 2 6.2 2.1 1.9 0-3.4 0-3.4 1.2-.9.6 1.4 1.7 3.1 2.4 3.8 1.3 1.3.7 4.2-.8 4.2-.5 0-1 2.6-1 5.7-.1 3.2-.3 5-.6 4-.2-.9-.9-1.4-1.5-1.1-.8.5-.9-.3-.5-2.6.6-2.8.5-3.1-.8-2-.8.7-1.5 2-1.5 2.9s-.5 2.3-1.1 3.1c-.7 1.1-.8.4-.3-2.4s.4-3.7-.5-3.2c-.6.4-1.1 1.7-1.2 2.9-.1 2-.2 2-.8-.3-.6-2.1-.8-2.2-1.4-.8-.3 1-1.6 1.8-2.8 1.8-1.6 0-1.9-.4-1.4-1.8 1.4-3.2 1.7-6.2.7-6.2-.5 0-1.4 1.7-2 3.7l-1 3.8-.1-3.8c-.1-5.1-2.1-3.8-2.3 1.6l-.1 4.2-.5-4-.5-4-1.3 4-1.2 4-.3-4-.2-4-.6 4-.7 4-1.1-3.5-1.1-3.5-.2 3.5c-.1 1.9-.2 4.4-.1 5.5l.1 2-.9-2c-.5-1.1-1.1-3.4-1.2-5-.2-2.4-.3-2.2-.9 1.5s-.7 3.9-.9 1.5c-.1-1.7-.6-3.9-1.1-5-.7-1.5-.9-1-.9 2.5-.1 5.1-1.7 4.4-2.4-1l-.4-3.5-.1 3.7c-.2 2.6-.7 3.8-1.7 3.8-.8 0-1.5-.7-1.5-1.5s-.5-1.5-1.1-1.5-.9.6-.6 1.3c.7 1.9-.8 4.1-2.2 3.3-.6-.4-1.5-2.1-2-3.9l-.9-3.2-.2 3c-.1 2.6-.3 2.7-1 1s-.9-1.6-.9 1c-.1 2.3-.4 2.7-1.1 1.5-.9-1.3-1-1.3-1 0-.1 1.2-.3 1.1-1.1-.3-.5-.9-1.9-1.7-2.9-1.7-1.1 0-2-.6-2-1.4s-.5-1.8-1.2-2.2c-1.1-.7-.9 1 .7 4.9.6 1.3.3 1.6-.9 1.1-.9-.3-1.6-1.7-1.6-3s-.5-2.4-1.1-2.4c-.7 0-.9 1-.7 2.5.3 1.4.1 2.5-.3 2.5-.5 0-.9-1.4-.9-3 0-1.7-.4-3-.8-3-.5 0-.7 1.5-.5 3.2.3 2.5.2 3-.6 1.8-.6-.8-1.1-2.3-1.1-3.3 0-.9-.5-1.7-1.1-1.7-.7 0-.9 1-.5 2.5.4 1.4.2 2.5-.3 2.5s-1.2-.8-1.4-1.8c-.4-1.3-.5-1.1-.6.5 0 1.3-.5 2.3-1.1 2.3-.5 0-1.3 0-1.7.1-.5 0-1.1-1-1.5-2.3q-.75-2.25-.3 1.5c.3 3.3.2 3.7-1 2.7-.8-.7-1.5-2.2-1.6-3.4-.1-1.9-.2-1.8-.9.4-.7 2.3-.8 2.3-.9.3-.1-1.6-.6-2-2.1-1.6-1.1.3-1.8.9-1.5 1.3.3.5.1 1.1-.5 1.5-.5.3-1-.1-1-.9 0-.9-.2-1.6-.4-1.6s-1.2-.3-2.2-.7c-1.5-.5-1.6-.2-1 3.3.6 2.9.5 3.6-.4 2.8-1.8-1.7-2.2-17-.5-18.4.8-.6 1.1-1.8.8-2.6s.1-1.4.8-1.4c.8 0 3.1-.3 5.2-.6l3.7-.7v4.1c0 2.2.5 4.4 1 4.7.6.4 1-1.3 1-4.2 0-4.7.1-4.9 3.8-6.3l4.5-1.8c.4-.2.7.7.8 2 0 1.2.4 3.2.9 4.3.6 1.3.7.3.3-2.8-.4-3.2-.2-4.7.6-4.7.7 0 1.1 1.9 1.1 5 0 2.7.4 5 .9 5s.8-2.3.7-5.1l-.1-5.1 5-1.9c2.8-1 6-1.9 7.3-1.9 1.2 0 2.2-.4 2.2-.9 0-.8 6.7-3.7 9.1-4 .3-.1 1.1 1.4 1.7 3.1m-85.4 10.5c-1.2 5.1-2.4 6.6-4 5.2-2.7-2.2-.2-7.8 3.4-7.9.8 0 1 .8.6 2.7m131.6 9.5c0 .5-.7.3-1.5-.6-.8-.8-1.5-1.8-1.5-2.2 0-.3.7-.1 1.5.6s1.5 1.7 1.5 2.2m22 .8c0 2.2-3.1 7-4.6 7-1.2 0-1.3-.4-.2-2.3.7-1.2 1.1-2.6 1-3.1-.3-.9 1.7-2.6 3.1-2.6.4 0 .7.5.7 1m-7 2c0 1.9-1.1 2.6-2.3 1.4-.8-.8.3-3.4 1.4-3.4.5 0 .9.9.9 2m-14.7.4c2.1 1.6 2.2 2.6.2 2.6-.8 0-1.5.4-1.5 1 0 1.3 3.3 1.3 4.6 0 .8-.8 1.5-.6 2.4.5 1 1.3.9 1.5-.9 1.5s-1.9.3-.9 2.5c.9 2 .9 2.8-.2 3.8-1 1-1.2.8-.7-1 .6-2.5-2.1-4.2-3.4-2.1s-2.4-.1-2.5-5.3c-.2-5.2.1-5.6 2.9-3.5m-4.4.3c0 .5-.4 1.7-.9 2.8-.8 1.8-.9 1.7-.9-.8-.1-1.5.4-2.7.9-2.7.6 0 1 .3.9.7m12.1.3c0 .5-.4 1-1 1-.5 0-1-.5-1-1 0-.6.5-1 1-1 .6 0 1 .4 1 1m21.5 1c-.3.5-1.6 1.5-2.8 2.1-1.9.9-1.9.8.3-1 2.8-2.3 3.4-2.6 2.5-1.1m-18.1 1.6c.4 1 .1 1.4-.6 1.2-1.5-.5-2.3-2.8-1-2.8.5 0 1.3.7 1.6 1.6m3.6 3.3c0 1.2-4 4.1-5.6 4.1-1 0-1.1-.7-.5-3.9.1-.2.8.2 1.6.9 1.2 1 1.6.9 2.1-.4.7-1.7 2.4-2.2 2.4-.7m-109.3 3.3c-.3.7-.5.2-.5-1.2s.2-1.9.5-1.3c.2.7.2 1.9 0 2.5m-8.7-1.8c0 .3-.4.8-1 1.1-.5.3-1 .1-1-.4 0-.6.5-1.1 1-1.1.6 0 1 .2 1 .4m71.7.2c-.3.3-1.2.4-1.9.1-.8-.3-.5-.6.6-.6 1.1-.1 1.7.2 1.3.5m60 1c-.3.3-1.2.4-1.9.1-.8-.3-.5-.6.6-.6 1.1-.1 1.7.2 1.3.5m-142.3 2.5c-.8 1.4-2.4 1-2.4-.6 0-.9.6-1.2 1.5-.9.8.4 1.2 1 .9 1.5m24.3.1c-.3.8-.6.5-.6-.6-.1-1.1.2-1.7.5-1.3.3.3.4 1.2.1 1.9m-11.7 2.5c0 1.3-.3 1.3-1.5.3s-1.5-.9-1.5.6c0 1.4-.3 1.5-1.2.6s-.8-1.5.7-2.6c2.2-1.6 3.5-1.2 3.5 1.1m-12.5 5.2c-.3.6-1.4 1-2.3 1-1.5-.1-1.5-.2.1-.6.9-.2 1.7-.9 1.7-1.5s.3-.9.6-.5c.3.3.3 1-.1 1.6m-28.5 3.2c-1.1 3.8-2.6 5.5-1.7 1.9.4-1.4.7-3.1.7-3.8 0-.6.4-1.2.9-1.2.6 0 .6 1.2.1 3.1m23-1.1c0 .5-.4 1-1 1-.5 0-1-.5-1-1 0-.6.5-1 1-1 .6 0 1 .4 1 1m-2 3.2c-.1 1.7-3.9 6.7-4 5.1 0-1.8 2.2-6.3 3.2-6.3.4 0 .8.6.8 1.2m8 2.2c0 1.1-1.9 1.5-2.5.6-.3-.5.1-1 .9-1 .9 0 1.6.2 1.6.4m-29.5 13.4c-.8 1-2.6-7.2-1.9-8.6.5-1.2 1-.2 1.4 3.3.4 2.7.6 5.1.5 5.3m11.3-3.6c1.6 1.6 1.5 2.9 0 2.5-1.8-.3-2.2 3.8-.5 5.2 1.2.9 1.6.5 2.2-2.1.5-2.4.9-2.8 1.2-1.5.5 2-1.5 7.7-2.7 7.7-.4 0-1.5-.9-2.5-2s-2.6-2.2-3.6-2.5c-1.1-.4-1.9-1.3-1.9-2.1 0-1.1.6-1.3 2-.9 1.1.4 1.9.3 1.8-.2-.3-1.2 1.2-5.3 2.1-5.3.4 0 1.2.5 1.9 1.2M196 330c0 .5-.4 1-1 1-.5 0-1-.5-1-1 0-.6.5-1 1-1 .6 0 1 .4 1 1m-2 6c0 .5-.4 1-1 1-.5 0-1-.5-1-1 0-.6.5-1 1-1 .6 0 1 .4 1 1m5 3.5c.7.8.8 1.5.2 1.5-.5 0-1.5-.7-2.2-1.5s-.8-1.5-.2-1.5c.5 0 1.5.7 2.2 1.5"/>
	<path d="M372.5 64c.3.5 1.3 1 2.1 1s1.2-.5.9-1c-.3-.6-1.3-1-2.1-1s-1.2.4-.9 1M379.7 65.2c-3.5.9-3.8 1.3-3.5 4.2.2 2.4.8 3.2 2.8 3.4 1.4.2 3.1.9 3.8 1.4.8.7 1.2.7 1.2-.1 0-.6-.5-1.1-1.1-1.1-.5 0-.8-.4-.5-.9.3-.4 2.5-.8 4.8-.8 2.4 0 3.7.2 3.1.4-1.4.5-1.8 3.3-.4 3.3 1.2 0 6.1-4.7 6.1-6 0-.5-.9-1.9-2-3-2.2-2.2-7.7-2.5-14.3-.8M389 67c0 .5-1.2 1-2.6 1s-3.5.5-4.6 1.1c-1.6.9-1.9.8-1.6-.3.3-.7 1.8-1.6 3.4-1.9 4.5-1 5.4-1 5.4.1M397.7 77c.3 1.1.7 2 .9 2s.4-.9.4-2-.4-2-.9-2-.7.9-.4 2M360.2 109.5c-.1 4.6 1.4 12.2 2.1 10.5.3-.8.8-3.1 1.1-5s.8-4.5 1.2-5.8.2-2.2-.5-2.2c-.6 0-1.1.9-1.1 1.9 0 1.1-.3 2.8-.7 3.8-.6 1.4-.9.8-1.4-2.2-.5-3.2-.6-3.4-.7-1M372.6 125.8c-.3.5-.8 3.3-1.1 6.3-.5 3.9-.4 5 .4 3.9.6-.8 1.1-3.4 1.1-5.8 0-2.3.5-4.2 1-4.2 2.2 0 0 13.5-2.5 15.2-.5.4-.1.8 1.1.8 1.8 0 2.2-.8 2.8-4.6 1-8 .8-12.4-.8-12.4-.8 0-1.7.4-2 .8M369.1 140.6c0 1.1.3 1.4.6.6.3-.7.2-1.6-.1-1.9-.3-.4-.6.2-.5 1.3M371 144.1c0 .5.5.7 1 .4.6-.3 1-.8 1-1.1 0-.2-.4-.4-1-.4-.5 0-1 .5-1 1.1M372.9 148.5c-.6 4-.4 5.3.7 4.3.3-.3.4-2.3.2-4.4l-.3-3.9zM371 146.8c0 .7-.6 1.2-1.4 1.2-1 0-1.5 1.6-1.8 5.5-.1 3 0 5.5.5 5.5.8 0 1-1.4.7-4.9-.1-1.3.3-2.1.8-1.7.9.5 2.4-5.4 1.6-6.3-.2-.2-.4.1-.4.7M338.2 169.5c-1.6 1.9-.3 1.9 2.2 0 1.4-1.1 1.6-1.5.5-1.5-.8.1-2 .7-2.7 1.5M349 171.9c0 1 2.6.9 3.6-.2.4-.4-.2-.7-1.4-.7s-2.2.4-2.2.9M390.2 150c-1.9 10.7-2.4 17.2-1.2 14.2.6-1.3 1.4-2 2-1.7s1-.4 1-1.7.2-3.4.5-4.8-.2-.7-.9 1.5c-1.8 5-2.1 1.5-.5-4.9.6-2.4.9-5.6.7-7.2-.2-2-.8-.5-1.6 4.6M382.6 182.1c-1 5.1-1.8 12.4-1.1 11.8.8-.8 2.6-13.1 2-13.7-.2-.3-.6.6-.9 1.9M385.2 186c-.1 1.9-.5 4.6-.7 6l-.6 2.5 1.1-2.5c.6-1.3.9-4 .7-6l-.4-3.5zM379.1 188.6c0 1.1.3 1.4.6.6.3-.7.2-1.6-.1-1.9-.3-.4-.6.2-.5 1.3M371.6 193.5c-1 2.5-1.6 5.1-1.3 5.8.2.6 1.2-1.2 2.1-4.1 2.2-6.6 1.5-7.9-.8-1.7M377.1 194.6c-1.4 4.9-.7 5.6.9.9.7-2 1-3.9.7-4.2s-1 1.2-1.6 3.3M368.1 194.6c0 1.1.3 1.4.6.6.3-.7.2-1.6-.1-1.9-.3-.4-.6.2-.5 1.3M373.6 196.5c-.3.8-.1 1.5.4 1.5.6 0 1-.7 1-1.5s-.2-1.5-.4-1.5-.6.7-1 1.5M378.6 200.5c-.9 2.6-.7 3.2.5 1.2.6-1 .9-2.1.6-2.3-.2-.3-.7.2-1.1 1.1M363.8 203.7c1.2.2 3.2.2 4.5 0 1.2-.2.2-.4-2.3-.4s-3.5.2-2.2.4M339.2 208c0 1.4.2 1.9.5 1.2.2-.6.2-1.8 0-2.5-.3-.6-.5-.1-.5 1.3M372.1 208.4c-.8 1.4-1.2 2.9-.8 3.2.7.7 2.9-3.4 2.5-4.7-.2-.6-1 .1-1.7 1.5M364.8 214.7c.6.2 1.8.2 2.5 0 .6-.3.1-.5-1.3-.5s-1.9.2-1.2.5M360 217.8c-3.1 1.5-3.2 1.7-1.3 2 2.5.4 6.3-1.4 6.3-2.8s-1-1.2-5 .8M364.5 221c-.3.5-.1 1 .4 1 .6 0 1.1-.5 1.1-1 0-.6-.2-1-.4-1-.3 0-.8.4-1.1 1M330.2 165.2c-1.4 1.4-1.6 2.8-.3 2.8.9 0 2.4-3 1.8-3.6-.2-.2-.9.2-1.5.8M323.7 168.7c-.4.3-.7 1.5-.7 2.7 0 2 0 2 1.5 0 .8-1 1.5-2.2 1.5-2.7 0-.9-1.4-.9-2.3 0M406 181c0 .5.7 1 1.5 1s1.5-.5 1.5-1c0-.6-.7-1-1.5-1s-1.5.4-1.5 1M414.3 190.7c-2.4.9-1.3 2 2 2.1 1.7.1 3.9-.3 4.7-.8 1.2-.8 1.1-1-.7-1-1.2 0-2.7-.2-3.5-.4-.7-.3-1.9-.2-2.5.1M410 196.4c0 .9.5 1.6 1 1.6.6 0 1-.4 1-.9 0-.6-.4-1.3-1-1.6-.5-.3-1 .1-1 .9M427.7 196.7c-.4.3-.7 1.6-.6 2.7 0 1.9.1 1.9 1-.3 1-2.4.8-3.6-.4-2.4M417.5 200.3c-.4 1-.5 2.1-.1 2.4 1 1 1.8-.4 1.3-2.4-.4-1.7-.4-1.7-1.2 0M336.2 185.5c0 1.6.2 2.2.5 1.2.2-.9.2-2.3 0-3-.3-.6-.5.1-.5 1.8M338.9 183.7c0 .5-.2 1.8-.3 3-.2 1.3.2 2.3.8 2.3s1.1-1.4 1.1-3c0-1.7-.3-3-.7-3-.5 0-.8.3-.9.7M315 185.4c0 .2.8 1 1.8 1.7 1.5 1.3 1.6 1.2.3-.4s-2.1-2.1-2.1-1.3M333 186.5c0 .8.4 1.5 1 1.5.5 0 .7-.7.4-1.5-.4-.8-.8-1.5-1-1.5s-.4.7-.4 1.5M320 193.7c0 1.9 3.3 4 5.5 3.5 3-.5 3.1-1 .8-2.8-1.9-1.4-6.3-1.9-6.3-.7M288.5 215c.3.6 1.1.8 1.6.5.5-.4.9-.1.9.5 0 .7.6 1 1.4.7s1.3.1 1.2 1.1c0 .9.8 1.8 1.9 2 1.6.3 1.8.1.8-.9-2-2-1.5-3.1.6-1.7 1.1.7 1.7 1.6 1.4 2.1-.4.6.5.7 2 .3 1.4-.3 2.9-.2 3.2.4.3.5 1.1 1 1.7 1 .7 0 .6-.6-.2-1.5-.7-.8-2.1-1.5-3.1-1.5-1.1 0-1.9-.4-1.9-.9 0-1-3.7-2.1-8.8-2.8-2.2-.2-3.1 0-2.7.7M290.1 226.2c.8.7 2 2 2.7 2.7.7.9 1.2 1 1.2.4 0-1.5-2.8-4.3-4.3-4.3-.6 0-.5.5.4 1.2M298 225.9c0 .5.7 1.1 1.5 1.5.8.3 1.5.1 1.5-.3 0-.5-.7-1.1-1.5-1.5-.8-.3-1.5-.1-1.5.3M283.6 227.5c.4.8 1.5 1.5 2.6 1.5 1.7 0 1.8-.3.8-1.5-.7-.8-1.9-1.5-2.6-1.5-.8 0-1.1.6-.8 1.5M295 226.8c0 1.2 1.9 2.6 2.6 1.9.2-.2-.2-1-1.1-1.7-.9-.8-1.5-.8-1.5-.2M274.4 235.5c-1.6 1.2-1.6 1.4-.3 1.5.9 0 2.2-.7 2.9-1.5 1.6-1.9 0-1.9-2.6 0M293 234.4c0 .2.7.7 1.6 1 .8.3 1.2.2.9-.4-.6-1-2.5-1.4-2.5-.6M284.6 236.9c-.8 1.3-1.2 1.2 8.1 1.4 8.3.2 7.5-.8-1.3-1.8-4.1-.5-6.4-.4-6.8.4M302.6 237.1c.2.4 3.8.6 8.1.6 5.3 0 6.9-.3 5.4-.9-2.6-.9-14.1-.7-13.5.3M323.5 247c-.8 1.3.5 1.3 2.5 0 1.3-.8 1.3-1-.2-1-.9 0-2 .4-2.3 1M273.6 247.7c-1.2 1.2-.5 2.3 1.4 2.3 1.1 0 2-.4 2-.9 0-1.1-2.6-2.2-3.4-1.4M333.3 248.7c1.5.2 3.9.2 5.5 0 1.5-.2.2-.4-2.8-.4s-4.3.2-2.7.4M278.8 249.7c.6.2 1.8.2 2.5 0 .6-.3.1-.5-1.3-.5s-1.9.2-1.2.5M303.5 252.1c-1.1 1.7-.2 1.8 2.5.4 2.4-1.4 2.4-1.4.3-1.5-1.2 0-2.5.5-2.8 1.1M311.3 251.7c.9.2 2.5.2 3.5 0 .9-.3.1-.5-1.8-.5s-2.7.2-1.7.5M329.4 252.9c.3.4 2.7 1.1 5.3 1.4s6.4.8 8.3 1.1.4-.3-3.5-1.3c-7.8-2.2-10.9-2.5-10.1-1.2M348 253.4c0 .2.8 1 1.8 1.7 1.5 1.3 1.6 1.2.3-.4s-2.1-2.1-2.1-1.3M282.8 255.7c-1.6.2-2.8.9-2.8 1.4 0 1.5 3.6 1 5-.6.7-.8 1.1-1.4.9-1.4-.2.1-1.6.4-3.1.6M347.2 257.1c.2.7 1 1.5 1.7 1.7.8.3 1.2-.1.9-.9-.2-.7-1-1.5-1.7-1.7-.8-.3-1.2.1-.9.9M316 259c0 .5.5 1 1 1 .6 0 1-.5 1-1 0-.6-.4-1-1-1-.5 0-1 .4-1 1M327 259.3c0 .6.3.7.7.4.3-.4 1.2-.2 2 .4.8.7 2.9.9 5.3.5 3.1-.5 4.2-.3 4.6.9.4.8 1.7 1.5 3 1.5s2.4.4 2.4 1c0 .5.5 1 1.1 1 .5 0 .8-.4.5-.9-.3-.4.6-.6 1.9-.3 1.4.2 2.5.7 2.5 1.1s.9.7 2 .8 2-.2 2-.6c0-1.5-2.5-3.1-5.1-3.1-1.5 0-4.8-.9-7.3-2-4.8-2-15.6-2.5-15.6-.7M337 264.9c0 .6.5 1.3 1 1.6.6.4.8 1.5.5 2.5-.7 2.3.4 9 1.5 9 .4 0 1-1.4 1.2-3 .3-1.7.1-3-.4-3-.4 0-.8-.7-.8-1.5 0-2.3 1-1.8 5.1 2.4 2.2 2.2 4.1 3.6 4.4 3.1.5-.9-10.4-12-11.7-12-.4 0-.8.4-.8.9M330.1 277.6c0 1.1.3 1.4.6.6.3-.7.2-1.6-.1-1.9-.3-.4-.6.2-.5 1.3M346 281.1c0 .5.5.7 1 .4.6-.3 1-.8 1-1.1 0-.2-.4-.4-1-.4-.5 0-1 .5-1 1.1M291.1 268.6c0 1.1.3 1.4.6.6.3-.7.2-1.6-.1-1.9-.3-.4-.6.2-.5 1.3M282 270c0 1.1.4 2 .9 2s.7-.9.4-2-.7-2-.9-2-.4.9-.4 2M285.1 269.6c0 1.1.3 1.4.6.6.3-.7.2-1.6-.1-1.9-.3-.4-.6.2-.5 1.3M303 270c0 .5 1.2 1 2.8.9 2.4 0 2.5-.1.7-.9-2.7-1.2-3.5-1.2-3.5 0M279 272.1c0 1.1.4 1.8 1 1.4.5-.3.7-1.2.3-2-.7-2.1-1.3-1.9-1.3.6M276.3 275.5c0 2.7.2 3.8.4 2.2.2-1.5.2-3.7 0-5-.2-1.2-.4 0-.4 2.8M273 276.2c0 2.3.2 3.9.5 3.7.9-1 1.3-7.9.4-7.9-.5 0-.9 1.9-.9 4.2M267.7 273.7c-.4.3-.7 2.5-.6 4.7l.1 4.1.9-4.4c.9-4.5.8-5.6-.4-4.4M270.1 276.2c-.1 2.1.4 3.8.9 3.8 1.1 0 1.1-1.4 0-5-.7-2.2-.8-2.1-.9 1.2M264.3 279c0 2.5.2 3.5.4 2.2.2-1.2.2-3.2 0-4.5-.2-1.2-.4-.2-.4 2.3M289.7 276.3c-.4 1-.7 2.6-.7 3.5.1 1.5.2 1.5 1.1-.1.6-1 .9-2.5.7-3.5-.3-1.6-.4-1.5-1.1.1M296.3 276.4c-.6.8-1.4 3.1-1.7 5.2l-.6 3.9 1.9-4 2-4-.6 4.4c-.4 3.2-.3 4.2.5 3.7 1.3-.8 1.7-10.6.5-10.6-.5.1-1.3.7-2 1.4M309.3 275.7c-2.2.8-1.3 8.3.9 8.3.5 0 .6-.5.2-1.2s-.8-2.2-.9-3.4c0-1.8.2-2 1.2-1.2s1.3.6 1.3-.5c0-1.9-1-2.6-2.7-2M301.8 276.7c.7.3 1.6.2 1.9-.1.4-.3-.2-.6-1.3-.5-1.1 0-1.4.3-.6.6M255.1 278.7c0 1 .4 2.7.9 3.8.7 1.7.9 1.5.9-1.2.1-1.7-.3-3.5-.9-3.8-.5-.3-1 .2-.9 1.2M282.5 279c-.4 1.2-.5 2.4-.2 2.7.3.2.8-.5 1.2-1.7s.5-2.4.2-2.7c-.3-.2-.8.5-1.2 1.7M292.1 278.6c0 1.1.3 1.4.6.6.3-.7.2-1.6-.1-1.9-.3-.4-.6.2-.5 1.3M278.7 280c-.3 1.1-.1 2 .4 2s.9-.9.9-2-.2-2-.4-2-.6.9-.9 2M285.7 279.7c-.2 1-.8 2.6-1.2 3.5-.4 1-.3 1.8.3 1.8.5 0 1.2-1.4 1.6-3.2.7-3.4.2-5-.7-2.1M305 279.6c0 1.1.7 2.9 1.5 4 1.3 1.7 1.4 1.6.5-1.5-1.1-4.1-2-5.1-2-2.5M253.3 282.5c0 2.2.2 3 .4 1.7.2-1.2.2-3 0-4-.3-.9-.5.1-.4 2.3M301.3 282.8c-.1 2 .1 3.1.4 2.4.2-.6 1-1.2 1.7-1.2.9 0 1.2-.9.8-2.5-.7-3.8-2.7-3-2.9 1.3M244.1 282.7c0 1.5.4 3.7.9 4.8.7 1.6.9 1.1.9-2.2.1-2.3-.3-4.5-.9-4.8-.6-.4-1 .6-.9 2.2M238.7 282.9c-.2 1.1-.1 3.5.3 5.3.8 3.1.8 3 1-1.7l.2-5 1.1 4.5c.8 3.5 1.2 4 1.5 2.1.9-5.4-2.8-10.1-4.1-5.2M250.1 283c0 1.4.4 3.2.9 4 .9 1.3 1 1.3.9 0-.1-.8-.5-2.6-.9-4l-.8-2.5zM291.1 282.6c0 1.1.3 1.4.6.6.3-.7.2-1.6-.1-1.9-.3-.4-.6.2-.5 1.3M312.2 287.7c-.1 2.3-.5 5-.8 6-.5 1.4-.4 1.5.5.7.8-.7 1.1-3 .8-6-.3-4.8-.3-4.8-.5-.7M304 286c0 .5.5 1 1.1 1 .5 0 .7-.5.4-1-.3-.6-.8-1-1.1-1-.2 0-.4.4-.4 1M236.1 288.2c0 .7.4 2.2.9 3.3.8 1.8.9 1.7.9-.7.1-1.5-.3-3-.9-3.3-.5-.3-1 0-.9.7M280.8 292.2c-.3.7-.1 2.4.3 3.8.6 2.2.7 2 .8-1.3.1-3.8-.3-4.7-1.1-2.5M269.2 294c0 1.4.2 1.9.5 1.2.2-.6.2-1.8 0-2.5-.3-.6-.5-.1-.5 1.3M286.2 294c0 1.4.2 1.9.5 1.2.2-.6.2-1.8 0-2.5-.3-.6-.5-.1-.5 1.3M271.1 294.6c0 1.1.3 1.4.6.6.3-.7.2-1.6-.1-1.9-.3-.4-.6.2-.5 1.3M252 295.9c0 .5.5 1.3 1 1.6.6.3 1 .2 1-.4 0-.5-.4-1.3-1-1.6-.5-.3-1-.2-1 .4M435 31.9c0 .9 2.4 2.1 4.2 2.1.6 0 .6-.6-.2-1.5-1.4-1.6-4-2-4-.6M461 32.8c0 1.1 1.1 2.7 2.5 3.6 2.1 1.4 2.4 1.4 1.9.1-.4-.8-1-1.5-1.5-1.5s-.9-.6-.9-1.4-.4-1.8-1-2.1c-.5-.3-1 .3-1 1.3M460 42c0 .5.5 1 1.1 1 .5 0 .7-.5.4-1-.3-.6-.8-1-1.1-1-.2 0-.4.4-.4 1M461 46.8c0 .5.7 1.5 1.5 2.2s1.5.8 1.5.2c0-.5-.7-1.5-1.5-2.2s-1.5-.8-1.5-.2M454.9 48.7c1.2 2.4 3.1 3.9 3.1 2.5 0-.5-1-1.7-2.1-2.8-2.2-1.9-2.2-1.9-1 .3M436 48.2c0 1.5 2.4 5.8 3.2 5.8s.1-1.7-2.2-5c-.5-.8-1-1.2-1-.8M452 48.8c0 1.2 3.9 6 4 4.9 0-.5-.9-2-2-3.4s-2-2.1-2-1.5M443 49.6c0 .6.7 1.9 1.6 3 1.4 1.8 1.4 1.8.3-.6-1.4-3.1-1.9-3.6-1.9-2.4M448.5 55c1.4 2.8 2.9 4.9 3.4 4.6.4-.3 2 .2 3.5 1 3.9 2 5.3 1.8 3-.5-1-1-2.3-1.6-2.7-1.4-1.4.8-5.4-2.5-6.7-5.6-.7-1.7-1.6-3.1-2.1-3.1s.2 2.3 1.6 5"/>
	<path d="M451.6 53.8c1 1.8 2 2.8 2.3 2.1.2-.6-.7-2.1-1.9-3.3l-2.3-2.1zM462.1 53.2c1.2 2.3 1.6 2.2 2.8-.1.9-1.6.7-1.9-1.3-1.7-2 .1-2.2.4-1.5 1.8M469.5 53c-.4 1.2-.1 2.7.5 3.5s.9 1.8.6 2.3.1 1.8.9 2.8c1.4 1.8 1.4 1.8 1.4-.6 0-1.4-.6-3.6-1.3-4.9-.8-1.4-1.2-3.1-.9-3.8s.3-1.3 0-1.3-.9.9-1.2 2"/>
	<path d="M458 53.9c0 .5.7 1.1 1.5 1.5.8.3 1.5 1.2 1.5 1.9 0 2 2.4 3.8 5.5 4.1 3.4.4 3.2 0-1.2-2.4-3.4-1.9-3.5-2-1-1.5 1.9.4 2.6.2 2.2-.5-.3-.5-1.7-1-3.1-1s-2.7-.7-3-1.5c-.7-1.6-2.4-2.1-2.4-.6M439 56c0 .5.5 1 1 1 .6 0 1-.5 1-1 0-.6-.4-1-1-1-.5 0-1 .4-1 1M446 55.7c0 .4.5 1.5 1 2.3.8 1.3 1 1.3 1-.2 0-.9-.4-2-1-2.3-.5-.3-1-.3-1 .2M443 57c0 .5.5 1 1.1 1 .5 0 .7-.5.4-1-.3-.6-.8-1-1.1-1-.2 0-.4.4-.4 1M437.1 60.7c-.1 1.6 2.1 6.6 3.4 7.5 1.8 1.3 3 .9 1.3-.5-.9-.6-2.3-2.8-3.1-4.7-.9-1.9-1.6-3-1.6-2.3M449 61c0 .5.5 1 1.1 1 .5 0 .7-.5.4-1-.3-.6-.8-1-1.1-1-.2 0-.4.4-.4 1M431 63.9c0 1.2.6 2.1 1.5 2.1.8 0 1.5-.4 1.5-.9s-.7-1.4-1.5-2.1c-1.3-1-1.5-.9-1.5.9"/>
	<path d="M440.7 62.6c.7.3.9 1.3.6 2.2-.6 1.4-.5 1.5.9.2 1.6-1.5.7-3.1-1.7-2.9-.5 0-.5.3.2.5M445.2 63.2c.3.7 1.3 1.4 2.4 1.6 4.2.7 5 1.4 2.4 2.2-2.3.7-2.3.8-.3.9 1.2.1 2.3.7 2.6 1.3.3 1 1 1 3-.1 2.1-1.1 3.2-1.2 5.2-.3 1.4.7 3 1.2 3.5 1.2 1.1 0 .1-3.8-1.3-4.7-.7-.4-.8 0-.4 1.2.6 1.4.3 1.6-1.3 1.1-1.1-.3-3-.9-4.2-1.3-1.5-.4-1.9-.3-1.4.5.4.7.1 1.2-.8 1.2s-1.6-.6-1.6-1.3c0-1.2-5.3-4.7-7.2-4.7-.5 0-.8.6-.6 1.2"/>
	<path d="M452.5 63c.3.5 1.5 1 2.6 1s1.7-.5 1.4-1c-.3-.6-1.5-1-2.6-1s-1.7.4-1.4 1M461 62.9c0 .5.9.7 2 .4s2-.7 2-.9-.9-.4-2-.4-2 .4-2 .9M466 63.5c0 .8.5 1.5 1 1.5.6 0 1 .9 1 1.9s.7 2.1 1.5 2.5c2 .7 1.9-.3-.5-4.2-2.2-3.5-3-4-3-1.7M434.8 69.7c.7.3 1.6.2 1.9-.1.4-.3-.2-.6-1.3-.5-1.1 0-1.4.3-.6.6M447.8 70.2c.5.5 1.6.8 2.3.6.8-.3.3-.7-1-1.1-1.7-.4-2.1-.3-1.3.5M456.8 70.7c.6.2 1.8.2 2.5 0 .6-.3.1-.5-1.3-.5s-1.9.2-1.2.5M443 72c.8.5 2.4 1 3.4 1 2.6 0 1.8-.6-1.9-1.4-2.2-.5-2.6-.4-1.5.4M451.5 72.4c-1.2 1.3-1.3 3.6-.2 5.2.4.7-.1 1.4-1.3 1.7-1 .3-2.1 0-2.4-.7-.2-.6-.5-.3-.5.6-.1 1 1 1.9 2.9 2.3 1.7.4 3 1 3 1.5s-1.4.5-3 0c-1.9-.5-2.8-.5-2.5.1.4.5 1.2.9 2 .9 1.8 0 2.8 3.2 1.3 4.2-.7.4-1.8.6-2.3.4-.6-.2-1.6.3-2.3 1-1.1 1.2-1 1.5.2 2 .8.3 1.2 1.2.9 2-.6 1.7-2.4 1.9-2 .3.1-.6-.4-1.4-1.1-1.6-.8-.3-1 .1-.6 1.1.3.9.1 1.6-.5 1.6s-1.1.7-1.1 1.5.5 1.5 1.1 1.5c.5 0 .7-.5.4-1-.3-.6-.2-1 .3-1s1.2 1 1.6 2.2c.5 2.2.6 2.3 2.1.3 4-4.9-.9 19.8-6.1 31.3-1.3 2.9-2.4 6.3-2.3 7.5.1 1.5.5.8 1.4-1.9.7-2.3 2-5.2 2.8-6.5s2.4-6.5 3.7-11.4c1.2-5 2.7-10.1 3.3-11.4 1.4-2.9 1-7-.8-9.1-1.1-1.2-1.2-2-.2-3.9.7-1.4 1.8-2.6 2.5-2.9 1.1-.3 1.2.6.7 4.4-.5 3.6-.4 4.5.4 3.4.6-.8 1.1-2.5 1.1-3.8 0-1.2.5-2.2 1-2.2.6 0 1-1.3 1-2.9s.6-3.1 1.5-3.5c.8-.3 1.2-1.2.9-2-.4-1 .2-1.7 2-2.2 1.5-.3 2.3-1.1 1.9-1.7s0-.8 1-.4c1 .3 1.7.2 1.7-.3 0-1.3-2.7-1.3-3.5 0-.3.5-1.2.7-2 .4-.9-.4-1.6.3-2.1 2-.7 2.9-2.4 3.5-2.4.8 0-.9-.7-2.9-1.4-4.5-.8-1.5-1.1-2.7-.5-2.7 1.1 0 1.2-2.7.2-3.3-.5-.3-1.2 0-1.8.7m3.1 16.3c-1.1 1.1-1.9-.6-1.1-2.4.8-1.7.8-1.7 1.2 0 .3 1 .2 2.1-.1 2.4M463 71.7c0 .5.7 1.8 1.5 2.9 1.3 1.8 1.4 1.8.8-.4-.5-2.2-2.3-4.1-2.3-2.5M458.5 74c2.7 1.2 4.3 1.2 2.5 0-.8-.5-2.2-.9-3-.9-1 0-.8.3.5.9M442.5 75c1.1.5 2.9.9 4 .9h2l-2-.9c-1.1-.5-2.9-.9-4-.9h-2zM474.1 75.5c0 .5.6 2.1 1.4 3.5s1.4 2 1.4 1.5c0-.6-.6-2.1-1.4-3.5s-1.4-2.1-1.4-1.5M431 76.6c0 .6.7 1.9 1.6 3 1.4 1.8 1.4 1.8.3-.6-1.4-3.1-1.9-3.6-1.9-2.4M440 77c0 .5.7 1 1.6 1 .8 0 1.2-.5.9-1-.3-.6-1-1-1.6-1-.5 0-.9.4-.9 1"/>
	<path d="M455 78.1c0 1.1.5 1.7 1 1.4.6-.4.8-1 .5-1.5s.5-1.1 1.7-1.3c2-.4 1.9-.4-.4-.6-2.2-.1-2.8.3-2.8 2M444 77.5c0 .5.5 1.7 1 2.5s1 1 1 .5c0-.6-.5-1.7-1-2.5s-1-1.1-1-.5M467.2 79.7c.6 1.6 1.9 5 2.8 7.7 1.4 4.2 2.2 5.1 5.3 6.2 2 .7 3.7.9 3.7.4s-1.6-1.4-3.5-2-3.5-1.7-3.5-2.5c0-1.5-4.8-12.5-5.5-12.5-.2 0 .1 1.2.7 2.7M437.5 79c2.7 1.2 4.3 1.2 2.5 0-.8-.5-2.2-.9-3-.9-1 0-.8.3.5.9M420.7 79.7c-1.1 2-1.8 6.7-.8 5.8 1.1-1.1 2.6-6.5 1.8-6.5-.3 0-.8.3-1 .7M430 81.4c0 .8.5 1.8 1 2.1.6.3 1-.1 1-.9s-.4-1.8-1-2.1c-.5-.3-1 .1-1 .9M438.7 83.1c.3 1.6 1.2 2.5 2.5 2.6 1.7.2 1.9 0 .7-1-.7-.7-1.8-1.9-2.5-2.7-1-1.2-1.1-1-.7 1.1M443 82.5c0 .8.7 1.5 1.5 1.5s1.5-.4 1.5-.9-.7-1.1-1.5-1.5c-.9-.3-1.5 0-1.5.9"/>
	<path d="M471.3 82.3c.4 1.1 1 3 1.3 4.3s1 2.4 1.5 2.4.2-1.7-.6-3.7c-1.6-3.8-3.3-6.2-2.2-3M460.6 84c.4 1.4 1 2.6 1.4 2.8.4.1 2.5 1.1 4.6 2.2l3.9 2-2.7-2.5c-3.1-2.7-3.6-3.7-1.3-2.9 1.1.5 1.3.2.9-.9-.6-1.7-3.4-1.2-3.4.7 0 .6-1 0-2.1-1.4l-2-2.5zM436 84.7c0 1.2.5 2.5 1 2.8 1.3.8 1.3-1.5 0-3.5-.8-1.2-1-1.1-1 .7M446 86.1c0 .5.9.9 2 .9s2-.4 2-.8-.9-.8-2-.9-2 .2-2 .8M487.5 88.9c-.8 1.7-2.9 4.4-4.5 6.1-2.9 3-3.1 3-5.9 1.5-1.7-.8-3.2-1.1-3.5-.6s.6 1.2 2.1 1.6c6 1.5 9.6 3.5 8.6 4.8-.6.6-1.4 2.5-1.8 4.2-1 3.7-.9 3.5-2.3 6.7-1.8 4.4-5.6 19.7-5.1 20.3.3.3 2.7.2 5.2-.1 4.2-.6 4.7-1 4.7-3.1 0-1.4 1.2-6.3 2.6-10.9s2.4-9.2 2.2-10.2c-.1-.9.3-3.2 1.1-4.9.7-1.8 1.4-6.5 1.5-10.5.1-6.1-.2-7.3-1.6-7.6-1.1-.2-2.3.8-3.3 2.7m1.6 5.1c-1.3 2.6-1.6 4-.9 4 .9 0 .9.3 0 1.2-.8.8-1.8.8-3.3.2l-2.2-1 2-2c1.1-1 2.8-3.2 3.8-4.7 2.6-4.1 3.1-2.4.6 2.3m2 1.3c-1 .9-1.1.8-.5-.6.3-1 .9-1.5 1.2-1.2s0 1.1-.7 1.8m-10.2 24.4c-1.5 5.8-1.9 6.6-2.6 6-.3-.4-.1-1.9.5-3.4.5-1.5 1.3-3.6 1.6-4.6 1-3.3 1.4-1.7.5 2m4.1 4c-1 1.6-1.1 1.5-.6-.7.3-1.4.6-3.2.7-4s.4-.5.6.7-.1 3-.7 4m-5 4.3c-2 1.3-3.3 1.3-2.5 0 .3-.6 1.4-1 2.3-1 1.5 0 1.5.2.2 1m-1 3c-2 1.3-3.3 1.3-2.5 0 .3-.6 1.4-1 2.3-1 1.5 0 1.5.2.2 1M420.1 89.4c-.7.8-1.1 2.3-.8 3.3.3 1.4.6 1.2 1.6-1.1 1.3-3.3.9-4.3-.8-2.2M476.5 89c.3.5.8 1 1.1 1 .2 0 .4-.5.4-1 0-.6-.5-1-1.1-1-.5 0-.7.4-.4 1M290.5 90.9c-7.4 2-13.8 6-16.7 10.6-1.3 1.9-3.3 3.8-4.4 4.4-1.2.5-3.5 2.9-5 5.3-1.8 2.6-4.7 5.2-7.3 6.5-2.4 1.2-5.1 2.9-6 3.6-.9.8-2.6 1.8-3.8 2.1-1.3.4-3 1.5-3.9 2.4-1 .9-3.6 1.8-5.8 1.9-2.3.2-5.2.7-6.6 1.2s-3.3 1.2-4.3 1.5-1.6 1-1.3 1.5 2.3 0 4.3-1c2.1-1.1 5.8-1.9 8.4-1.9 3.1 0 5.3-.6 6.4-1.6.9-.9 3.9-2.8 6.8-4.2s5.4-2.8 5.7-3.1c.3-.4 2.2-1.5 4.4-2.6 2.1-1.1 4.1-2.7 4.4-3.5 1.2-3.2 4.5-7.2 6.8-8.1 1.4-.5 2.9-2 3.4-3.5 1.2-3.2 3-4.9 5.7-5.8 1.2-.4 2.7-1.3 3.3-2.1.7-.8 2.7-1.5 4.4-1.5s5.4-.9 8.1-2c4.3-1.6 4.6-1.9 2-1.8-1.6 0-5.7.8-9 1.7M426 89.9c0 .6.4 1.3 1 1.6s.7-.1.4-.9c-.7-1.8-1.4-2.1-1.4-.7M431.7 91c.3 1.1.9 2 1.5 2 .5 0 .4-.9-.2-2s-1.2-2-1.4-2-.2.9.1 2M309.8 90.7c.6.2 1.2 1.1 1.2 1.9s.5 1.4 1 1.4c.6 0 1 1.2.9 2.7 0 2.5-.1 2.6-.9.8-.8-2-.9-1.9-.9.1-.1 2.3 2.1 4.8 3.2 3.7 1.1-1 .8-4.3-.5-8-.8-2.3-1.8-3.3-3.3-3.2-1.1 0-1.4.3-.7.6M305 92c-1.3.8-1.3 1 .2 1 .9 0 2-.5 2.3-1 .8-1.3-.5-1.3-2.5 0M450.5 91.9c-.3.5-.1 1.2.5 1.6.5.3 1-.1 1-.9 0-1.8-.6-2.1-1.5-.7M459 92.1c0 .8.7 1 3.5.9.3 0 2.2.7 4.2 1.5 3.3 1.4 5.5 1.4 4.1-.1-1.1-1-11.8-3.1-11.8-2.3M460.3 99.7c-1 4.2-1 4.6.3 2.9 1.2-1.7 2-7.6 1.1-7.6-.2 0-.9 2.1-1.4 4.7M344 98.1c0 .5.5.7 1 .4.6-.3 1-.8 1-1.1 0-.2-.4-.4-1-.4-.5 0-1 .5-1 1.1M469.5 99.2c-2.2 5.8-4.2 15.4-3.4 15.9.6.3.8 2.3.5 4.5-.6 3.7-.5 3.6 1.2-1.2 2.9-8.1 5.4-18.2 5-19.6-.3-.7-1.3 2.2-2.2 6.4-1 4.3-2.1 7.8-2.6 7.8-.7 0 1.1-9.8 2.5-13.8.2-.6.2-1.2-.1-1.2-.2 0-.7.6-.9 1.2M303.5 100c.3.5.8 1 1.1 1 .2 0 .4-.5.4-1 0-.6-.5-1-1.1-1-.5 0-.7.4-.4 1M428 99.9c0 .5.5 1.3 1 1.6.6.3 1 .2 1-.4 0-.5-.4-1.3-1-1.6-.5-.3-1-.2-1 .4"/>
	<path d="M475 99.3c0 .1-.4 1.7-.9 3.5-1.3 4.4.3 4.1 1.6-.3.6-2 .7-3.5.2-3.5s-.9.1-.9.3M300.1 108.6c-1.7 3.7-.8 3.9 1.3.4.9-1.7 1.3-3 .8-3s-1.4 1.2-2.1 2.6M314.7 109.2c-1.5 6.1-1.7 7.8-.7 7.8 1.3 0 2.3-4.1 1.8-7.6l-.4-2.9zM417 113c0 .5.5 1 1 1 .6 0 1-.5 1-1 0-.6-.4-1-1-1-.5 0-1 .4-1 1M296 115.5c-2 2.4-.6 2.8 1.5.5 1-1.1 1.3-2 .8-2-.6 0-1.6.7-2.3 1.5M435 116c0 .5.4 1 .9 1 .6 0 1.3-.5 1.6-1 .3-.6-.1-1-.9-1-.9 0-1.6.4-1.6 1M311 120.5c0 1.4.6 2.5 1.4 2.5.9 0 1.2.8.8 2.5-.3 1.7 0 2.5 1 2.5.8 0 2.3.9 3.3 2 2.3 2.6 5.1 2.5 6.5-.1s.7-3.5-1-1.4c-1.6 2-3 1.9-5.8-.4-2.5-2.2-2-5.1.9-5.1 1 0 1.9-.4 1.9-.9s.3-1.6.6-2.5.1-1.6-.4-1.6c-.6 0-1.3.9-1.7 1.9-.6 2.1-4.3 1.8-5.2-.5s-2.3-1.6-2.3 1.1M415.6 119.5c1 .8 2.5 1.5 3.1 1.5.7 0 2 1.5 2.9 3.2 1.2 2.3 1.9 2.8 2.2 1.8.3-.8 1-1.8 1.6-2.2.7-.5.5-.8-.5-.8-.9 0-2.4-.9-3.4-2-1-1.2-2.5-1.8-3.2-1.6-.7.3-1.5.1-1.8-.4-.4-.6-1.1-1-1.8-1-.6 0-.2.7.9 1.5M303.6 121.9c-.3.5-1.5.7-2.6.4s-2 0-2 .6.6 1.1 1.3 1.1c.8 0 .7.4-.3 1-1.2.8-1 1 .8 1s2.2.4 1.8 1.8c-.4 1.1.1 2.5 1.1 3.4 2.3 1.9 6.3 2.9 6.3 1.6 0-.6.9-.8 1.9-.5 2.4.6 5.3-.9 3.1-1.7-3.6-1.1-7.6-1.9-8.7-1.7-1.8.3-1.6-1.8.2-2.5 2.3-.9 1.8-2.7-.6-2.1-1.7.4-1.9.3-1-.6.6-.6 1.1-1.5 1.1-1.9 0-1.1-1.7-1-2.4.1M275 123c0 .5.8 1.4 1.8 1.9.9.6 1.2 1.1.7 1.1-.6 0-1.7-.6-2.3-1.2-1-1-1.4-1-2.1 0-.6 1-1 1-2.1-.3-1.3-1.6-3-2-3-.8 0 .5 1.2 2.1 2.6 3.7 2.2 2.5 2.8 2.7 4.9 1.8 1.6-.7 2.6-.8 3-.1.9 1.4 2.7 0 1.8-1.4-.3-.7.3-.4 1.4.5 1.1 1 2.6 1.8 3.4 1.8 1-.1.8-.5-.5-1.5-1.1-.8-1.7-1.7-1.4-2.1 1.3-1.2 4.4-1.1 6.1.4.9.8 2 1.2 2.5.7.4-.4.2-1-.5-1.2s-1-1-.7-1.7c.3-.9-.6-1.2-3.2-1.2-2.1.1-3.9.7-4.2 1.4-.6 1.8-2.6 1.4-4-.8-1.2-2-4.2-2.8-4.2-1"/>
	<path d="M417.3 124.4c-1.2 1.4-.7 2.6.9 2.6.5 0 .6-.5.2-1.2-.5-.8-.2-.9 1-.5 1.1.5 1.6.3 1.4-.5-.6-1.7-2.1-1.9-3.5-.4M264.4 125.2c-.8 1.2 2.1 3.8 4.3 3.8 2 0 1.5-1.3-1.2-3.3-1.7-1.2-2.6-1.4-3.1-.5M345.2 126c0 1.4.2 1.9.5 1.2.2-.6.2-1.8 0-2.5-.3-.6-.5-.1-.5 1.3M261 126.8c0 .6-.9.8-2 .5-1.2-.3-2 0-2 .6 0 .8 1.2 1.1 3.3.9 1.7-.2 3.1-.7 3-1.3-.2-1.3-2.3-1.9-2.3-.7M250.5 129.9c-2.7 1.1 7.1 2.4 14.5 1.9 5.2-.4 5-.4-1.7-.6-3.9-.1-7.5-.7-7.8-1.2-.7-1.2-2.2-1.2-5-.1M298.4 130.6c.5 1.3.2 1.5-1.4 1.1-3.1-.8-2.8.5 1.2 4.6 3.5 3.8 3.7 3.8 4.8 1.8.9-1.8.7-2.8-1-5.6-2.2-3.5-4.7-4.9-3.6-1.9M222 133.1c0 .5.5.7 1 .4.6-.3 1-.8 1-1.1 0-.2-.4-.4-1-.4-.5 0-1 .5-1 1.1M231.4 133.4c-.4 1.1-1.9 1.6-4.5 1.6-2.1 0-3.9.4-3.9.9 0 1.1 8.3.2 9-1 .3-.4 1.2-.7 2-.6 2.5.3 2.7-1.8.2-2.1-1.3-.2-2.5.3-2.8 1.2M331 138c-.8.5-1 1-.5 1 .6 0 1.7-.5 2.5-1s1.1-1 .5-1c-.5 0-1.7.5-2.5 1M322.6 139.4c-3.1 1-3.6 1.4-2.2 1.9 2.7 1.1 6.4.9 4.7-.2-1-.6-.6-1.1 1.5-1.9 4-1.4.8-1.3-4 .2M211.4 143.7c-.3 1.6-1 4.5-1.6 6.7-.8 3.3-.5 5.7.6 4.5 1-1 3.3-13.9 2.5-13.9-.5 0-1.1 1.2-1.5 2.7M290 142.4c-2.2 1-2.6 2.1-1 3.1.6.3 1-.2 1-1.1 0-1 .3-1.4.7-1.1.3.4 1.2.2 1.8-.3 1.4-1.1 4.5-.3 4.5 1.1 0 .5.8.9 1.8.9 1.2 0 1.3-.3.5-.8-.7-.5 1.2-.8 4.2-.8 3.7.1 5.5.5 5.5 1.3 0 .7.5 1.3 1.1 1.3.5 0 .7-.5.3-1.1-.5-.8 0-1 1.7-.6 2 .5 2.5.2 2.5-1.4 0-1.8-.6-1.9-11.3-1.7-6.2.2-12.1.7-13.3 1.2M316 142.9c0 1.2.5 2.1 1 2.1.6 0 1-.6 1-1.4s-.4-1.8-1-2.1c-.5-.3-1 .3-1 1.4M330 142c0 .9 3.1 3 4.4 3s.5-2.8-1-3.4c-2.3-.9-3.4-.7-3.4.4M481.5 144c-.3.5.1 1 .9 1 .9 0 1.6-.5 1.6-1 0-.6-.4-1-.9-1-.6 0-1.3.4-1.6 1M218.9 148c-1.7 1.4-2 1.9-.9 2 .8 0 2.1-.9 2.8-2 1.5-2.5 1.1-2.5-1.9 0M292.8 146.7c.7.3 1.6.2 1.9-.1.4-.3-.2-.6-1.3-.5-1.1 0-1.4.3-.6.6M282 149.6c-1 1.1-.9 1.4.8 1.4 2.5 0 3.7-1.6 1.8-2.3-.8-.3-2 .1-2.6.9M288.1 150c-1.3.7 5.3 3 8.7 3 3.7 0 3.3-1.9-.5-2.5-2.1-.3-4.5-.8-5.4-.9-.9-.2-2.2 0-2.8.4M233.1 163.6c0 1.1.3 1.4.6.6.3-.7.2-1.6-.1-1.9-.3-.4-.6.2-.5 1.3M269.8 178.3c-5.3 1.8-10 3.6-10.5 4.1-.4.5-.3.7.3.3.6-.3 5.1-1.1 10-1.7s9.9-1.8 11.1-2.6c3.4-2.2 4.3-1.7 4.3 2.3l-.1 3.8-1.4-2.5-1.4-2.5-.1 2.7c0 5.7 4.5 4.2 5.2-1.7.2-2 0-3.1-.6-2.8-.5.4-.7-.1-.3-1 1-2.7-5.3-2-16.5 1.6M491 186c0 .5.5 1 1.1 1 .5 0 .7-.5.4-1-.3-.6-.8-1-1.1-1-.2 0-.4.4-.4 1M486 186.9c0 .8 6.4 5.1 7.7 5.1.3 0 0-.7-.8-1.6-1.7-2-6.9-4.7-6.9-3.5M177.7 187.7c-.4.3-.7 1.6-.6 2.7 0 1.9.1 1.9 1-.3 1-2.4.8-3.6-.4-2.4M218.5 190.7c-1.6 1.9-3.7 4.7-4.5 6.2-.8 1.4-1.8 2.8-2.3 2.9-1.3.6-2.9 4.2-1.8 4.2.6 0 2.6-2.4 4.4-5.3 1.9-2.8 4.4-6.3 5.6-7.6 1.8-2 2.8-4.2 1.9-4.1-.2 0-1.6 1.7-3.3 3.7M479 188.8c0 .9 5.2 5 8.8 6.9 1.2.6 2.2.8 2.2.3 0-.4-.7-1-1.5-1.4-2.1-.8-1.9-3 .3-2.2 1 .4.7-.2-.8-1.4-3-2.3-4.8-2.6-3-.5 1.9 2.3-.4 1.8-2.5-.5-1.9-2.1-3.5-2.6-3.5-1.2M491 194c0 .5.5 1 1.1 1 .5 0 .7-.5.4-1-.3-.6-.8-1-1.1-1-.2 0-.4.4-.4 1M277 198.5c-1.9 1.3-4 2.4-4.6 2.4-.6.1-2.1 1.2-3.4 2.6-3.1 3.3-.7 3.3 3.4-.1 1.7-1.4 4.9-3.7 7.1-5s3.3-2.3 2.5-2.3-3.1 1.1-5 2.4M111 197.8c0 .4.9 1.5 1.9 2.4 1.7 1.4 2.2 1.4 3.1.3s.7-1.6-.9-2.4c-2.3-1.3-4.1-1.4-4.1-.3M268.7 198.8c-2.6 1.6-3.6 3.2-1.9 3.2 1.2 0 5.6-3.9 5.1-4.4-.2-.3-1.7.3-3.2 1.2M487 198.5c0 .8 6.1 3.7 6.7 3.1.3-.2-.9-1.2-2.6-2-3.1-1.7-4.1-1.9-4.1-1.1M105.3 200.2c-3.1 4-2.7 5 .5 1.3 1.2-1.4 1.8-2.5 1.3-2.5s-1.3.6-1.8 1.2M26 201.4c0 .8-.3 2.3-.6 3.3-.5 1.2-.4 1.5.3.8 1.6-1.5 2.6-5.5 1.4-5.5-.6 0-1.1.6-1.1 1.4M124.7 201.7c-.4.3-.7 1.3-.7 2.1 0 1.1.3 1.2 1.4.3 1-.8 1.6-.9 2.1-.1.3.5 1.6 1 2.8 1 2 0 1.9-.2-.8-2-3.3-2.2-3.8-2.3-4.8-1.3M262 205c-1.8 1.4-2.1 2-.9 2 .9 0 2.4-.9 3.4-2 2.3-2.6.8-2.6-2.5 0M206.1 207.6c-1.2 2.7-1.1 2.8.4 1.2 1-.9 1.6-2.1 1.3-2.8-.2-.7-1 .1-1.7 1.6M122.1 209.1c-1.3 3.8-1.4 5.9-.2 5.9.8 0 2.3-8.1 1.7-8.8-.2-.2-.9 1.1-1.5 2.9M241.5 207c-.3.5.1 1 .9 1s1.8-.5 2.1-1c.3-.6-.1-1-.9-1s-1.8.4-2.1 1M29.6 208.7c-.6 1.4-.5 1.5.5.6.7-.7 1-1.5.7-1.8s-.9.2-1.2 1.2M263 208.5c-1.5.8-1.9 1.4-1 1.4 1.8.1 4.6-1.6 4-2.3-.3-.2-1.6.2-3 .9M128.7 209.6c-.4.4-.7 1.7-.7 2.8.1 1.9.1 2 1.1.3 1.1-1.9.8-4.3-.4-3.1M132 211.5c-.7.9-1.1 1.7-.9 2 .3.2 1-.5 1.7-1.5 1.4-2.4 1-2.6-.8-.5M160 211c0 .5.4 1 .9 1s1.9 1.5 3 3.4c2 3.1 4.8 5.2 5.8 4.3.2-.3-1.2-2.1-3.2-4.1-1.9-2-3.5-4.1-3.5-4.6 0-.6-.7-1-1.5-1s-1.5.4-1.5 1M29 212c-2.3.6-2.2.7 1 1.2 4.1.7 4.2.6 2.6-.7-.6-.6-2.2-.8-3.6-.5M485 214.5c.7.8 2 1.5 2.8 1.5 1.3 0 1.2-.3-.4-1.5-2.5-1.9-4-1.9-2.4 0M27.6 214.9c-.4.5.3.7 1.4.4 2.3-.6 2.6-1.3.6-1.3-.8 0-1.7.4-2 .9"/>
	<path d="M170 214.3c0 .3 1.1 1.7 2.5 3.1l2.5 2.5-2.9 1.4c-2.6 1.3-3.1 1.3-4.5-.1-.8-.9-1.9-1.3-2.3-.9s0 1.5.9 2.3c1.1 1.2 2.5 1.4 4.7.9 1.7-.4 3.1-1 3.1-1.5s1.3-1.1 3-1.5c4.2-.9 4.8-2.5.9-2.5-2 0-4.2-.9-5.6-2.2-1.3-1.2-2.3-1.9-2.3-1.5M196.3 215c-2.4 1-3 2.5-1.4 3.5 1 .6 4.1-2.1 4.1-3.6 0-.5-.1-.9-.2-.8-.2 0-1.3.4-2.5.9M31 217.8c0 3 1.4 3.4 3.3 1.1.9-1 1.3-1.9.8-1.9s-1.6-.3-2.5-.6c-1.1-.4-1.6 0-1.6 1.4M241.5 217.1c-1.1 1.7.1 2.1 1.5.4.8-.9.8-1.5.2-1.5s-1.4.5-1.7 1.1M25.6 219.2c-.8 3.2-.7 3.8.4 3.8.6 0 1-.6 1-1.4s.5-1.6 1.1-1.8c.7-.2.6-.8-.4-1.6-1.2-1-1.6-.9-2.1 1M40.2 219c0 1.4.2 1.9.5 1.2.2-.6.2-1.8 0-2.5-.3-.6-.5-.1-.5 1.3M182.8 217.7c.7.3 1.6.2 1.9-.1.4-.3-.2-.6-1.3-.5-1.1 0-1.4.3-.6.6M188.8 217.7c.7.3 1.6.2 1.9-.1.4-.3-.2-.6-1.3-.5-1.1 0-1.4.3-.6.6M489.5 218c.3.5.8 1 1.1 1 .2 0 .4-.5.4-1 0-.6-.5-1-1.1-1-.5 0-.7.4-.4 1M443 219c0 .5.5 1 1.1 1 .5 0 .7-.5.4-1-.3-.6-.8-1-1.1-1-.2 0-.4.4-.4 1M1.1 219.4c.2.2 2.1.6 4.2 1 2.7.5 3.7.4 3.2-.3-.3-.6-2.2-1.1-4.2-1.1s-3.4.2-3.2.4M425.2 221.8c-2.4 3-2.8 4.2-1.2 4.2.6 0 1.4-.8 1.7-1.8.4-.9 1.3-2.2 2.1-2.8s1.1-1.3.6-1.7c-.5-.3-1.9.7-3.2 2.1M451.5 221.4c2.2 1.8 3.5 2.2 5.5 1.6 5.2-1.7 5.4-2 1-1.7-2.9.3-5-.1-5.8-.9-.7-.8-1.8-1.4-2.5-1.4s.1 1.1 1.8 2.4M36 222.1c0 .5.5.7 1 .4.6-.3 1-.8 1-1.1 0-.2-.4-.4-1-.4-.5 0-1 .5-1 1.1M177.1 222.4c-2.7 1.5-1.3 3.1 1.9 2.1 1.2-.4 2.6.1 3.9 1.4 3.6 3.6 5 2.3 1.5-1.4-3.6-3.9-3.9-4-7.3-2.1M235.4 223.2c-1.9 2.4-4.4 6.4-4.4 7.3 0 .3.5.5 1 .5.6 0 1-.5 1-1.1s1.4-2.9 3.1-5c3.2-4.1 2.6-5.5-.7-1.7M15.3 223.5c-1 2.7.6 3 3 .7l2.1-2.2h-2.2c-1.2 0-2.5.7-2.9 1.5M232 223.1c0 .5.5.7 1 .4.6-.3 1-.8 1-1.1 0-.2-.4-.4-1-.4-.5 0-1 .5-1 1.1M439 224c0 .5.5 1 1 1 .6 0 1-.5 1-1 0-.6-.4-1-1-1-.5 0-1 .4-1 1M140 225c0 .5.5 1 1 1 .6 0 1-.5 1-1 0-.6-.4-1-1-1-.5 0-1 .4-1 1M448.5 226c-.4.6 1.4 1 4.7.9 4.2-.1 4.8-.3 2.8-.9-3.6-1.2-6.8-1.2-7.5 0M33.5 227c.3.5.8 1 1.1 1 .2 0 .4-.5.4-1 0-.6-.5-1-1.1-1-.5 0-.7.4-.4 1M390.3 226.7c-2.1.8-1.5 2.2.7 1.6 1.1-.3 2-.9 2-1.4 0-1-.8-1-2.7-.2M461 228.5c.7.9 1.5 1.3 1.7 1.1.7-.7-.7-2.6-1.9-2.6-.6 0-.6.6.2 1.5M428 229.5q-2.4 1.35-.9 1.5c.8 0 2.4-.7 3.5-1.5 2.4-1.8.7-1.9-2.6 0M58 230.1c0 .5.5.7 1 .4.6-.3 1-.8 1-1.1 0-.2-.4-.4-1-.4-.5 0-1 .5-1 1.1M227.1 230.6c0 1.1.3 1.4.6.6.3-.7.2-1.6-.1-1.9-.3-.4-.6.2-.5 1.3M407 230.2c0 .8.7 2.1 1.5 2.8 1.9 1.6 1.9.1 0-2.4-1.2-1.6-1.5-1.7-1.5-.4M153 232c0 .5.5 1 1 1 .6 0 1-.5 1-1 0-.6-.4-1-1-1-.5 0-1 .4-1 1M418.1 231.9c-.8.5-1.1 1.6-.8 2.5.3.8.2 1.8-.3 2.1-1.3.8-1.3 2.5 0 2.5.6 0 1-.5 1-1.1s.9-2.4 2.1-4c2.1-2.9 1.1-3.9-2-2M223 233c-1.2.8-1.1 1 .8 1 1.2 0 2.2-.5 2.2-1 0-1.3-1.1-1.3-3 0M352 233c-.9.6-1 1-.3 1 .6 0 1.5-.5 1.8-1 .8-1.2.4-1.2-1.5 0M423 233.5c0 .8-.4 1.5-1 1.5-.5 0-1 .7-1 1.5 0 2.1 1.6 1.9 2.4-.3.3-.9.9-2.3 1.2-3 .3-.6.1-1.2-.5-1.2s-1.1.7-1.1 1.5M175.2 233.9c-2.5.7-3.1 2.4-1 2.9 1.7.3 5.4-2.3 4.2-3-.5-.3-1.9-.2-3.2.1M241 234c0 .5.5 1 1 1 .6 0 1-.5 1-1 0-.6-.4-1-1-1-.5 0-1 .4-1 1M340.5 234.1c-.5.7.5.8 3.2.3 5.1-.9 5.4-1.4 1-1.4-2 0-3.9.5-4.2 1.1M152.9 236c1.3 1.1 2.9 2 3.6 2s2.2.3 3.2.6c1.4.4 1.5.4.4-.4-1-.8-.6-1.1 1.8-1.7 2-.4 3.7-.2 4.6.5.8.7 2.3.9 3.2.5 1.7-.6 1.7-.7-.1-2.1-1.4-1-4.7-1.4-10.5-1.4l-8.6.1zM473 235c0 .9 3.9 2.5 4.6 1.8.2-.3-.7-1-2.1-1.6s-2.5-.7-2.5-.2M212.5 236.3c-4 1-5.1 1.7-5.3 3.5-.3 1.8-1 2.2-4 2.2-2.8 0-3.3.3-2.2 1 1.3.9 1.3 1 0 1-2.3.1-5.3 2.7-4.5 4 .4.7 1.6.3 3.6-1.1 1.6-1.1 4-2.2 5.4-2.3 2.4-.3 5.2-2.9 5.4-5.1 0-.6 1.1-1.1 2.5-1.3 1.3-.2 3-1 3.6-1.8.7-.8 1.1-1.4.9-1.3-.2 0-2.6.6-5.4 1.2M439.5 237.5c1.6 1.3 3.1 2.2 3.4 2 .8-.8-3.2-4.5-4.8-4.5-1.1.1-.7.8 1.4 2.5"/>
	<path d="M212.8 240.7c.7.3 1.6.2 1.9-.1.4-.3-.2-.6-1.3-.5-1.1 0-1.4.3-.6.6M416 241.5c0 .8.7 1.5 1.5 1.5s1.5-.4 1.5-.9-.7-1.1-1.5-1.5c-.9-.3-1.5 0-1.5.9M174.8 242.7c.7.3 1.6.2 1.9-.1.4-.3-.2-.6-1.3-.5-1.1 0-1.4.3-.6.6M181.5 245c.3.5 1.3 1 2.1 1s1.4-.5 1.4-1c0-.6-.9-1-2.1-1-1.1 0-1.7.4-1.4 1M366.2 245.2c-.9 1.1 0 1.4 5.1 1.5 4.8 0 5.5-.1 3.2-.7-1.6-.5-3.9-1.1-5.1-1.5s-2.5-.1-3.2.7M192.5 246c-.3.5.1 1 .9 1 .9 0 1.6-.5 1.6-1 0-.6-.4-1-.9-1-.6 0-1.3.4-1.6 1M165.2 248.4c-1.3 2.9-5.7 4.4-8.3 2.8-1.3-.8-2-.8-2.9.3-.9 1-.5 1.5 2 2 2.3.5 4.2 0 8.1-2.2 5.1-2.9 6.3-4.5 3.6-5.1-.7-.1-1.9.9-2.5 2.2M234.8 249.7c.6.2 1.8.2 2.5 0 .6-.3.1-.5-1.3-.5s-1.9.2-1.2.5M146 251.5c0 .8.5 1.5 1 1.5.6 0 1-.7 1-1.5s-.4-1.5-1-1.5c-.5 0-1 .7-1 1.5M400.8 253.9c-2.5 2.3-3.8 4.5-3.7 6.1v2.5l1-2.5c.5-1.4 2.4-3.7 4.1-5.1s2.9-3.1 2.7-3.7-2.1.6-4.1 2.7M431.3 251.6c2 .6 2.1 2.1.6 6.1-.9 2.5-.8 2.6.5 1.3.8-.8 1.6-2.9 1.8-4.5.3-2.6-.1-3-2.2-3.2-1.4-.1-1.8 0-.7.3M57 253.2c.1.7 1.2 2.6 2.6 4.3l2.4 3-1.3-3.9c-1.3-3.9-3.7-6.1-3.7-3.4M224.5 253c.3.5.8 1 1.1 1 .2 0 .4-.5.4-1 0-.6-.5-1-1.1-1-.5 0-.7.4-.4 1M230.8 252.7c.7.3 1.6.2 1.9-.1.4-.3-.2-.6-1.3-.5-1.1 0-1.4.3-.6.6M215.8 255.2c.6.6.8 1.7.5 2.4-.4 1.1-2.1 1.3-6.7 1-3.3-.2-5-.2-3.6.1 1.4.2 3 .9 3.5 1.5 1 1-1.9.9-10.5-.7-3.5-.6-3.5-.6.5.9 2.2.7 7.2 1.6 11 1.8 3.9.3 6.2.3 5.2.1-.9-.3-1.5-.8-1.2-1.2.7-1.2 10.6-.3 12.2 1 1 .9 1.3.8 1.3-.1 0-.8 1-1.1 3-.8 1.7.3 3 0 3-.5s1.1-.7 2.4-.3c4.6 1.1 3.6-.8-1.1-2.1-7.8-2.1-20.6-4.2-19.5-3.1m9.3 1.8c.6 0 .7.4.4 1-1 1.6-4.5 1.2-4.5-.6 0-1.1.5-1.4 1.6-1 .9.3 2 .6 2.5.6m4.4 3c-2.8 1.2-3.7 1.2-3 0 .3-.6 1.6-1 2.8-.9 2.1 0 2.1.1.2.9M98.5 256c.3.5 1.1 1 1.6 1 .6 0 .7-.5.4-1-.3-.6-1.1-1-1.6-1-.6 0-.7.4-.4 1M136 257.6c3.6.8 7 1.2 7.5 1 1.3-.4-8.9-2.6-11.8-2.5-1.2 0 .7.7 4.3 1.5"/>
	<path d="M204.8 256.7c.7.3 1.6.2 1.9-.1.4-.3-.2-.6-1.3-.5-1.1 0-1.4.3-.6.6M115.5 258c.3.5 1.3 1 2.1 1s1.2-.5.9-1c-.3-.6-1.3-1-2.1-1s-1.2.4-.9 1M124.5 257.6c2 .8 18.1 5.2 21.5 5.9 1.9.4 4.9 1.6 6.7 2.6 2.1 1.4 3.4 1.6 3.8.9.4-.6.5-1.2.4-1.4-1.7-1.1-9.2-3.6-12.4-4.1-2.2-.3-6.9-1.5-10.4-2.6-5.2-1.6-12.9-2.7-9.6-1.3M199.8 257.7c.7.3 1.6.2 1.9-.1.4-.3-.2-.6-1.3-.5-1.1 0-1.4.3-.6.6M186.5 260c-.3.5-.2 1 .4 1 .5 0 1.6.3 2.5.6 1.1.4 1.6.1 1.6-1 0-1.8-3.5-2.2-4.5-.6M421.7 260.3c-1.1 2.9-.9 4.3.4 3 .6-.6.9-1.9.7-2.9-.3-1.8-.4-1.8-1.1-.1M67.4 262.5c1.7 4.5 1.9 7.5.5 7.5-2.4 0-4-1.6-3.4-3.3.4-.9.2-2.4-.4-3.4-.9-1.5-1-1.1-1.1 2.2 0 2.2-.3 5.1-.6 6.5-.6 2.4-.6 2.5.9.5 1.6-2 1.6-1.9 1.7.7 0 1.6.4 2.8 1 2.8 1.7 0 4 5.7 4 10 0 2.2-.3 4-.6 4-1 0-3.2-2.6-3.7-4.6-.4-1.6-.5-1.6-.6.4-.2 3.5-2.1 1.6-2.2-2.1 0-1.8-.3-2.6-.6-1.9-.9 2.4.7 10.2 2.2 10.2.9 0 1.2-.6.9-1.5-.9-2.2.9-1.8 2.4.5.7 1.1 1 3.1.6 4.5-.4 1.5-.2 2.5.5 2.5.6 0 1.1-.9 1.1-2s.5-2 1.1-2c.7 0 .9 1.2.5 3.4-.4 2.3-.2 3.5.6 3.9 1 .3 1.2-.6 1-3.7-.2-2.2-.6-4.8-.8-5.6-.3-.8-.7-4.2-.8-7.5s-.5-6.8-1-7.8-.4-1.7.1-1.7c2.8 0 7.3 6.9 7.3 11.3 0 1.2.8 5.3 1.7 9.2 1.4 5.6 1.8 6.5 2.3 4.5.3-1.4 0-3.7-.7-5.1-1.5-2.9-.9-5.4 1.3-6.3 1.1-.4 1.3 0 .8 2-.5 1.8-.1 2.9 1.1 3.8 1.3.9 1.5 1.5.7 2-1.5.9-1.6 7.3-.1 8.2.8.4.9-.4.4-2.7-.7-3-.6-3.2.9-2 1.4 1.2 1.6 1.2 1-.2-.8-2.1 2.4-7.4 4.8-8 1-.3 1.8-1.2 1.8-2.1 0-1.1.9-1.6 2.8-1.6 1.8 0 2.3-.3 1.4-.9-.7-.4-1.2-1.4-1-2.2s-.7-1.5-2.2-1.7c-1.9-.3-2.2-.1-1.3.8.8.9.9 1.9.1 3.6-2 4.4-5.3 4.1-8-.6-1-1.7-2.5-3-3.6-3-2.4 0-4.8-2.7-5.4-6.3-.6-3 .8-4.8 1.8-2.3.3.8 1.2 1.7 2 2 1.1.4 1.2.2.4-1.4-1.3-2.5-.2-5.4 1.5-4 .8.7 1.6.7 1.9.2.3-.6-.4-1.2-1.7-1.6-1.2-.3-2.3-.1-2.5.4-.2.6-1 1-1.8 1-.9 0-1.3-.4-1-.9s-.5-.9-1.9-.9c-1.6 0-2.5.7-2.7 1.9-.2 1.3-.7 1.6-1.8.9-1.2-.7-1.2-1.3-.1-3.3 1.4-2.7.6-5.2-2.5-7.8-1.6-1.3-1.7-1.2-1 .6M81 287.1c0 .5-.4.9-1 .9-.5 0-1-.7-1-1.6 0-.8.5-1.2 1-.9.6.3 1 1 1 1.6m6 5.7c0 1.5-.2 1.5-1 .2-1.3-2-1.3-3.3 0-2.5.6.3 1 1.4 1 2.3M125.2 262.6c-1.1 1.2-.9 1.4.8 1.4 1.1 0 2-.4 2-.9 0-1.7-1.5-1.9-2.8-.5M384 262c0 .5.5 1 1.1 1 .5 0 .7-.5.4-1-.3-.6-.8-1-1.1-1-.2 0-.4.4-.4 1M130.7 262.7c-1.4 1.3-.6 2 1.6 1.6 1.5-.3 5.6 1.3 11.3 4.2 7.9 4.1 8.5 4.2 5.5 1.6-1.8-1.6-4.5-3.2-5.9-3.6-1.4-.3-3.7-1.5-5-2.6-2.4-1.9-6.2-2.5-7.5-1.2M428 263.1c0 .5.5.7 1 .4.6-.3 1-.8 1-1.1 0-.2-.4-.4-1-.4-.5 0-1 .5-1 1.1M59.6 264.5c-.3.8-.1 1.5.4 1.5.6 0 1-.7 1-1.5s-.2-1.5-.4-1.5-.6.7-1 1.5M173.4 263.9c.6.9-2.8 4.3-5.9 5.9-1.1.5-3.4.8-5 .6-3-.4-2.9-.3.4.8 3.5 1.2 6.7.1 12-4.3 2.1-1.7 2.2-2.2 1-3-1.8-1.1-3.2-1.2-2.5 0M191 265c.8.5 3.1.9 5 .9l3.5-.1-3-.8c-1.6-.4-3.9-.8-5-.9-1.6-.1-1.7.1-.5.9M51.2 268.3c-2.4 1.3-4 2.6-3.6 2.9.8.8 8.4-3.1 8.4-4.3 0-1.1.3-1.2-4.8 1.4M123.2 267.2c.4 1.2 9.7 4.3 10.5 3.4.3-.2-1.3-1-3.6-1.6-2.2-.6-4.3-1.5-4.6-2-.9-1.4-2.7-1.2-2.3.2M149 268c2.7 2.1 4 2.5 4 1.2 0-.9-4.4-3.2-5.8-3.2-.4 0 .4.9 1.8 2M160.8 267.7c.7.3 1.6.2 1.9-.1.4-.3-.2-.6-1.3-.5-1.1 0-1.4.3-.6.6M370.2 271.2c-.9 4.4-.6 6.6.8 5.1 1.2-1.3 2.1-9.3 1.1-9.3-.6 0-1.4 1.9-1.9 4.2M90.8 268.7c.6.2 1.8.2 2.5 0 .6-.3.1-.5-1.3-.5s-1.9.2-1.2.5M137.5 270c.3.5 1.6 1 2.8 1 1.8 0 1.9-.2.7-1-2-1.3-4.3-1.3-3.5 0M59 271.6c0 .8.5 1.2 1 .9.6-.4.8-1.1.5-1.6-.9-1.4-1.5-1.1-1.5.7M89.2 270.5c1.3 1.4 10.8 4.4 10.8 3.5 0-.5-1.8-1.4-4.1-2-2.2-.6-4.8-1.4-5.7-1.7s-1.4-.2-1 .2M119.3 272.6c-.9.9-1 1.5-.2 2 1.4.8 3-.8 2.1-2.2-.5-.9-1-.8-1.9.2M207.8 271.7c-1 .2-1.8.9-1.8 1.4 0 1 3.2.4 6-1.2 1.2-.7 1.1-.8-.5-.8-1.1.1-2.8.3-3.7.6"/>
	<path d="M86 273.9c0 1.2.6 2.1 1.5 2.1.8 0 1.5-.3 1.5-.6s-.7-1.2-1.5-2c-1.3-1.4-1.5-1.3-1.5.5M126.8 272.7c.7.3 1.6.2 1.9-.1.4-.3-.2-.6-1.3-.5-1.1 0-1.4.3-.6.6M144.6 272.9c.5.5 2 1.2 3.4 1.6 2.4.7 2.4.7.5-.9-2.1-1.6-5.6-2.3-3.9-.7M57.2 277.5c-.7 1.5-1.1 3-.8 3.2.7.7 2.8-3.6 2.4-4.9-.2-.6-.9.2-1.6 1.7M97 276.5c.7.8 1.9 1.5 2.7 1.5 1.3 0 1.3-.3.3-1.5-.7-.8-1.9-1.5-2.7-1.5-1.3 0-1.3.3-.3 1.5M205.7 275.6c-.4.4-.7 1.4-.7 2.3 0 1.1.3 1.2 1.1.4.6-.6 1-1.6.7-2.3-.2-.6-.7-.8-1.1-.4M214.6 276.6c-2.3 2.3-2 3 .4.9 1.1-1 2-2 2-2.2 0-.7-.9-.2-2.4 1.3M85 278.9c0 2.9 1.1 5.1 2.5 5.1.7 0 1.5.7 1.9 1.5.3.8 1.3 1.5 2.2 1.5 1.6 0 1.6-.1.1-1.8-2.3-2.5-.7-4.5 2.9-3.7 2.2.5 2.5.4 1.4-.4-.8-.6-2.3-1.1-3.2-1.1-2.1 0-2.4-1.6-.5-2.3.6-.3-.7-.6-3-.6-3.6-.1-4.3.2-4.3 1.8m4 2.2c0 .6-.4.7-1 .4-.5-.3-1-1.1-1-1.6 0-.6.5-.7 1-.4.6.3 1 1.1 1 1.6M119 279c0 .5.5 1 1 1 .6 0 1-.5 1-1 0-.6-.4-1-1-1-.5 0-1 .4-1 1M129.2 279.4c1.6.8 3.4 1.8 4 2.1.7.4.2-.3-1.1-1.4-1.3-1.2-3.1-2.1-4-2.1-1 0-.5.6 1.1 1.4M15.8 280.2c.5.5 1.6.8 2.3.6.8-.3.3-.7-1-1.1-1.7-.4-2.1-.3-1.3.5M97.1 279.4c1.2 1 6 1.6 5.4.6-.3-.5-1.8-1-3.2-1-1.5 0-2.4.2-2.2.4M228 280.5c-.7.9-.8 1.5-.2 1.5.5 0 1.2-.7 1.6-1.5.3-.8.4-1.5.2-1.5s-.9.7-1.6 1.5M368.5 280c-1.6.7-1.3.9 1.8.9 2 .1 3.7.5 3.7 1.1 0 .5.5 1 1 1 1.9 0 1-1.7-1.5-2.8-1.4-.7-2.7-1.2-2.8-1.1-.1 0-1.1.4-2.2.9M30 281c.8.5 2.6 1 4 1 2 0 2.2-.2 1-1-.8-.5-2.6-1-4-1-2 0-2.2.2-1 1M48.8 281.7c.7.3 1.6.2 1.9-.1.4-.3-.2-.6-1.3-.5-1.1 0-1.4.3-.6.6M210.5 284.6c-1.7 4.1-1.9 5.4-.6 5.4.4 0 1.3-1.5 1.9-3.3 1-3.1 1-3.1 1.1-.5.1 1.5.6 3 1.1 3.3 1.6 1 1.2-5.5-.5-7.1-1.3-1.3-1.6-1-3 2.2M217.7 281.6c-.4.4-.7 1.4-.7 2.3 0 1.1.3 1.2 1.1.4.6-.6 1-1.6.7-2.3-.2-.6-.7-.8-1.1-.4M23 282.8c0 .5 1.2 1.4 2.6 2 1.4.7 2.3.8 1.9.2-.9-1.5-4.5-3.2-4.5-2.2M98.8 282.7c.7.3 1.6.2 1.9-.1.4-.3-.2-.6-1.3-.5-1.1 0-1.4.3-.6.6M364.5 283c.3.5 1 1 1.6 1 .5 0 .9-.5.9-1 0-.6-.7-1-1.6-1-.8 0-1.2.4-.9 1M380.5 283l-2 .9h2c1.1 0 2.7-.4 3.5-.9 1.3-.9 1.3-1 0-.9-.8 0-2.4.4-3.5.9M42.8 283.7c.7.3 1.6.2 1.9-.1.4-.3-.2-.6-1.3-.5-1.1 0-1.4.3-.6.6M111 283.4c0 .2.7.7 1.6 1 .8.3 1.2.2.9-.4-.6-1-2.5-1.4-2.5-.6M225.2 284.7c-1.8 3.2-1.5 5.1.4 2.5.8-1.2 1.4-2.8 1.1-3.5-.2-.7-.8-.3-1.5 1M369.3 283.7c.9.2 2.3.2 3 0 .6-.3-.1-.5-1.8-.5-1.6 0-2.2.2-1.2.5M54 287.6c0 .8.5 1.2 1 .9.6-.4.8-1.1.5-1.6-.9-1.4-1.5-1.1-1.5.7M395.5 287c-1.6.4-2.5.8-1.8.9.6 0 1.7.3 2.5.6.7.3 2.2-.1 3.3-.9 2.2-1.7 1.1-1.9-4-.6M221 290.3c0 1.9 1.6 3.1 2.4 1.8.3-.5-.1-1.4-.9-2.1-1.2-1-1.5-1-1.5.3M230.1 290.6c0 1.1.3 1.4.6.6.3-.7.2-1.6-.1-1.9-.3-.4-.6.2-.5 1.3M62 294.1c0 .5.5.7 1 .4.6-.3 1-.8 1-1.1 0-.2-.4-.4-1-.4-.5 0-1 .5-1 1.1M210 295.5c-.6 1.4-1 3.6-.9 4.8.1 2 .2 1.9 1.2-.6.6-1.5 1.4-2.7 1.9-2.7 1.1 0 1-2.8-.2-3.5-.6-.3-1.5.6-2 2M98 295c-1.2.8-1 1 .8 1 1.3 0 2-.4 1.7-1-.7-1.2-.6-1.2-2.5 0M207 296.9c0 .5-.3 1.6-.6 2.5s-.2 1.6.3 1.6 1-1.1 1.1-2.5 0-2.5-.3-2.5-.5.4-.5.9M390 298c0 .5.4 1 .9 1 .6 0 1.3-.5 1.6-1 .3-.6-.1-1-.9-1-.9 0-1.6.4-1.6 1M102.3 298.7c.9.2 2.3.2 3 0 .6-.3-.1-.5-1.8-.5-1.6 0-2.2.2-1.2.5M53.5 302c-.9 1.8-1.4 3.4-1.1 3.7.2.3 1.2-.9 2.1-2.7s1.4-3.4 1.1-3.7c-.2-.3-1.2.9-2.1 2.7M67 300c0 .5.5 1 1 1 .6 0 1-.5 1-1 0-.6-.4-1-1-1-.5 0-1 .4-1 1M383.8 301.7c.6.2 1.8.2 2.5 0 .6-.3.1-.5-1.3-.5s-1.9.2-1.2.5M71.1 305.7c-.1 1.7.4 3.5.9 3.8 1.2.7 1.2-2.2 0-5-.7-1.7-.9-1.5-.9 1.2M82.1 305.7c-.1 1.8.4 3.3.9 3.3 1.2 0 1.2-1.7 0-4.5-.7-1.7-.9-1.5-.9 1.2M165.9 303.7c1.4.3 3.5 1.2 4.8 2 1.3.9 2.6 1.3 2.9 1 .9-.9-5.3-3.7-7.8-3.6-2.3.2-2.3.2.1.6M380.5 303.6c-.6.2-3.7.8-7 1.4l-6 .9 6.3-.4c3.5-.3 7.1-.9 8-1.5 1.7-.9.7-1.3-1.3-.4M89 306.1c0 1 .9 2.3 2 2.9 1.5.8 1.9 1.7 1.4 3.8-.5 2.4-.4 2.5.9 1 .8-1 1.7-1.5 2-1.1.4.3.7 0 .7-.8 0-.9-1.6-2.9-3.5-4.6-3-2.7-3.5-2.9-3.5-1.2M160.8 304.7c.7.3 1.6.2 1.9-.1.4-.3-.2-.6-1.3-.5-1.1 0-1.4.3-.6.6M60.1 308c0 3.3.1 3.4 1.1 1.2.8-1.7.8-2.6 0-3.4-.9-.9-1.2-.4-1.1 2.2M122.3 306.7c.9.9 1.9 1.4 2.3 1.1 1-1-.6-2.8-2.4-2.8-1.5 0-1.5.1.1 1.7M151 307c0 .5.5 1 1 1 .6 0 1-.5 1-1 0-.6-.4-1-1-1-.5 0-1 .4-1 1M141.4 308.5c-1 .8-1.4 1.4-.9 1.4.6 0 1.9-.6 2.9-1.4 1.1-.8 1.5-1.5 1-1.5-.6 0-1.9.7-3 1.5M87 309.4c0 1.6 1.8 3.1 2.7 2.2.3-.3-.2-1.2-1.1-2.1-1.4-1.4-1.6-1.4-1.6-.1M80.9 314.3c-.1 2.6-.2 5.2-.3 5.9-.1.6.5 1.3 1.3 1.6.9.3 1.1-.1.7-1.6-.4-1.1-.2-2.3.4-2.7 1.4-.9 1.2-3.7-.5-5.9-1.4-1.8-1.5-1.6-1.6 2.7M131.8 310.7c.7.3 1.6.2 1.9-.1.4-.3-.2-.6-1.3-.5-1.1 0-1.4.3-.6.6M302.5 312c-2.7.7-2.5.8 1.8.9 2.6 0 4.7-.4 4.7-.9 0-1.1-2.1-1.1-6.5 0M181.8 313c-.4.8-.9 3.3-1.2 5.5l-.6 4 1.5-3.5c.9-1.9 1.4-4.3 1.2-5.5-.3-1.5-.5-1.7-.9-.5M58 314.5c0 .8.2 1.5.4 1.5s.6-.7 1-1.5c.3-.8.1-1.5-.4-1.5-.6 0-1 .7-1 1.5M100.6 313.9c-.3.5-1.6.7-2.9.4l-2.2-.5 2.3 2c1.2 1.1 2.2 3 2.2 4.1 0 2.4.6 2.5 3.9.7 1.5-.8 2-1.6 1.2-2-.6-.4-1.6-.4-2.2 0-.8.5-1-.1-.5-1.9.6-2.5-.7-4.6-1.8-2.8M257.3 314.7c-1.8.2-3.3.8-3.3 1.4 0 1.4 4.9 1.1 9.5-.6l4-1.4-3.5.1c-1.9.1-5 .3-6.7.5M309.4 314.8c.4.7 1.8 1.2 3.2 1.2 2.5 0 3.3 1.5 1.2 2.3-.7.2-1 .7-.6 1.1 1 1.1 4.8-1.2 4.8-2.9 0-.8-.6-1.5-1.4-1.5-.7 0-2.8-.3-4.6-.7-2.4-.4-3.1-.3-2.6.5M202.5 317.7c.4 4.4 1.6 7.3 3 7.3 1 0 .9-1.1-.3-5-1.9-5.5-3.1-6.5-2.7-2.3M228.8 315.7c.7.3 1.6.2 1.9-.1.4-.3-.2-.6-1.3-.5-1.1 0-1.4.3-.6.6M94.1 317.3c-.1 1.1-1 2.6-2 3.5-1.1 1-2.6 3.3-3.4 5.3-1.4 3.5-1.4 3.6.4 3.2 1.3-.4 1.9 0 1.9 1.2 0 1.4.2 1.4 1.3.3 1.8-1.8 1.7-6-.1-5.3-.9.3-1.2-.1-1-1.2.2-.9 1.3-2 2.6-2.3 2.5-.5 2.6-.8 1.2-4.2-.7-1.9-.9-2-.9-.5M149.8 318.7c.7.3 1.6.2 1.9-.1.4-.3-.2-.6-1.3-.5-1.1 0-1.4.3-.6.6M227.5 320c-.4.6.8 1 3 1s3.4-.4 3-1c-.3-.6-1.7-1-3-1s-2.7.4-3 1M176 321.1c0 .5.5.7 1 .4.6-.3 1-.8 1-1.1 0-.2-.4-.4-1-.4-.5 0-1 .5-1 1.1M236 322.1c-1.9.3-2.8.7-1.8.8 1.7.1 1.5 3.4-.5 5.9-1.4 1.8-.2 2.6 1.4.9 1.2-1.3 1.6-1.2 2.9.3 1.6 1.8 8.5 3.7 7.5 2-.3-.6-1.2-1-1.8-1-.7 0-2.3-.7-3.5-1.6-1.9-1.3-2.1-1.8-1.1-3.1 1.2-1.3 1.4-1.3 2.5.2.9 1.1 1.4 1.3 1.9.5.4-.7-.3-2.2-1.6-3.4-1.9-1.8-3.1-2.1-5.9-1.5M79.7 324.9c.3 1.2 1 2.1 1.5 2.1 1.3 0 .6-3.2-.9-3.7-.7-.3-.9.3-.6 1.6M177.5 324c-.3.5-.1 1 .4 1 .6 0 1.1-.5 1.1-1 0-.6-.2-1-.4-1-.3 0-.8.4-1.1 1M227.3 324.6c.3.4-.4 1.5-1.6 2.4-1.2 1-1.8 2.2-1.4 2.6s2.2-.6 4-2.4c3.1-3.2 3.1-3.2.8-3.2-1.4 0-2.2.3-1.8.6M101 326c0 .5.5 1 1 1 .6 0 1-.5 1-1 0-.6-.4-1-1-1-.5 0-1 .4-1 1M392 326c-2.4 1.5-.7 1.9 2.5.5 2.3-1 2.5-1.4 1-1.4-1.1 0-2.7.3-3.5.9M400.3 326.7c.9.2 2.3.2 3 0 .6-.3-.1-.5-1.8-.5-1.6 0-2.2.2-1.2.5M367.8 328.7c.7.3 1.6.2 1.9-.1.4-.3-.2-.6-1.3-.5-1.1 0-1.4.3-.6.6M374 329.5c0 .8.6 1.5 1.4 1.5 2.2 0 2.8-1.7 1-2.4-2.2-.9-2.4-.8-2.4.9M386.8 328.7c.7.3 1.6.2 1.9-.1.4-.3-.2-.6-1.3-.5-1.1 0-1.4.3-.6.6M85 331.9c0 .5.5 1.3 1 1.6.6.3 1 .2 1-.4 0-.5-.4-1.3-1-1.6-.5-.3-1-.2-1 .4M174.5 331.9l2 .8-2 .5c-1.9.5-1.9.5-.2 1.3 2.1.9 4.3-.7 3.3-2.4-.4-.6-1.7-1.1-2.9-1-2.1 0-2.1.1-.2.8M286 332c-2.3 1.4-.5 2.3 3.2 1.5 2.9-.7 3-.9 1.3-1.6-2.7-1-2.8-1-4.5.1M257.8 333.7c.7.3 1.6.2 1.9-.1.4-.3-.2-.6-1.3-.5-1.1 0-1.4.3-.6.6M299.8 333.8c-1 .2-1.8.8-1.8 1.3 0 1.3 2.7 1.1 3.5-.2.9-1.3.4-1.6-1.7-1.1"/>
</svg>
