<?xml version="1.0" encoding="utf-8"?>
<svg xmlns="http://www.w3.org/2000/svg" viewBox="0 0 535 349">
	<title>Closeup diagram of a rock. A quartz-vein marked Q points out, while erosion has created small openings A and B in the rock C and D on either side of the vein.</title>
	<path d="M151.93 1.01c-.8 1.3.3 3 2 3 2 0 3-2.1 1.4-3.1-1.8-1.1-2.6-1.1-3.4.1zm11.5.1c-1.3.8-1.3 1 0 1.9 1.9 1.2 2.7 1.2 3.4.1.9-1.5-1.8-3.1-3.4-2zm9.7-.5c-.9 1 .2 2.4 1.9 2.4.8 0 1.4-.7 1.4-1.5 0-1.5-2.1-2.1-3.3-.9zm10.3 1.4c0 1.8.3 1.9 2 1 2.2-1.2 1.8-3-.6-3-.8 0-1.4.9-1.4 2zm9.5-1c-.8 1.2 2 2.4 3.5 1.5.6-.3.8-1.1.5-1.6-.8-1.2-3.2-1.2-4 .1zm10.5.5c0 1 .7 1.5 1.8 1.3 2.1-.4 1.9-2.2-.2-2.6-1-.2-1.6.3-1.6 1.3zm9.1-.6c-1.2.8-.9 1.1 1.2 1.7 3 .7 4.3.1 3.2-1.5-.8-1.3-2.5-1.4-4.4-.2zm9.9.6c0 .8.9 1.5 2 1.5s2-.7 2-1.5-.9-1.5-2-1.5-2 .7-2 1.5zm10.7-.8c-1.3 1.2-.7 2.3 1.3 2.3 1.1 0 2-.7 2-1.5 0-1.5-2.1-2.1-3.3-.8zm9.3.9c0 .9.7 1.4 1.7 1.2 2.5-.5 2.8-2.8.4-2.8-1.2 0-2.1.6-2.1 1.6zm6 1.6c-1 1.8-2.3 3.8-2.8 4.4-4.1 4.7-6 16.1-6.2 36 0 6-.8 10.9-3 18.5-1.6 5.7-3 11.6-3 13 0 1.4-.9 6-2 10.2-1.1 4.2-2.7 13.6-3.6 20.8-.8 7.3-1.9 13.9-2.3 14.8-.7 1.4-1.4 4.1-2.7 12.1-.1.8-.8 5.8-1.4 11-1.4 11.1-3.4 15.9-2.7 6.4.3-3.5-.1-8.8-.9-12-1.4-5.9-1.3-5.9 1.8-11.8l3.1-5.9-1.6-6.8c-1.5-6-1.5-7.3-.2-12.4 1.6-6 2-13.5.8-13.5-7.7-.4-11.2-.8-12-1.3-.6-.4-1.3-3.1-1.6-6-.3-3-1.7-7.7-3.1-10.6-2.3-4.5-2.9-5-4.6-4.1-1 .5-2.2 1.5-2.5 2-.4.6-2.3 1.7-4.3 2.6-4.8 2-7.6 4.6-9.7 9.5-2.8 6.1-4.5 5.1-4.5-2.9-.1-3.7-.7-8.3-1.4-10.3-.8-2.4-1-4.4-.4-6 .5-1.3.7-3.8.4-5.6-.2-1.9.3-5.3 1.5-8.2 3-7.9 2.8-8.5-2.9-7.7-2.7.3-6.8 1.6-9.2 2.7-2.7 1.3-4.9 1.8-5.6 1.3-.6-.5-3.9-2.8-7.3-5.2-3.3-2.3-6.1-4.7-6.1-5.3 0-.6 1-3.3 2.1-6 1.5-3.5 1.9-5.6 1.3-6.9-.5-1.1-4.7-5.8-9.3-10.5l-8.4-8.5-9.1.5c-5 .2-23.3.7-40.6 1-45 .8-71.7 1.5-77.7 2.1-5.9.6-8.2 2.4-5.8 4.4 1.3 1 6.1 1.2 22.8.6 34-1.1 34.7-1.1 34.7-.2 0 .8-3.3 5.4-14.9 20.4-2.3 2.9-4.1 5.7-4.1 6.2 0 2 1.6.9 4-2.7 1.4-2.1 4-5.3 5.7-7.2 1.8-2 3.3-3.8 3.3-4.2 0-.4.6-1.4 1.3-2.1 2.4-2.5 5.9-7.9 6.1-9.6.3-1.5 1.6-1.7 10.5-1.7 5.6-.1 10.4.2 10.7.6.2.4-1.3 2.6-3.4 5-3.8 4.3-12.2 15-21.4 27.2-2.7 3.4-5.5 7.1-6.3 8.2-.8 1-1.5 2.3-1.5 2.8 0 1.2 3.1-2.1 8-8.3 1.9-2.5 4.5-5.5 5.7-6.8 1.3-1.2 4.8-5.7 7.9-10 3.2-4.2 7.5-9.7 9.6-12.1 2.3-2.7 3.6-5.1 3.3-6.1-.4-1.3.1-1.5 3-1.2 3.8.5 4 .7 2.5 2.5-.6.7-2.2 2.5-3.6 4.2-1.4 1.6-4.3 5.2-6.5 8-4.2 5.3-7.7 9.7-17.7 21.9-3.4 4.3-6.2 8.4-6.2 9.2 0 1.9 1 1 5.9-5.6 1.9-2.5 4.1-5.2 5-6 .9-.8 3.2-3.5 5.1-6 1.9-2.5 3.7-4.7 4-5 .3-.3 1.7-2.1 3-4s3.1-4.1 3.8-4.9c2.8-2.9 9.2-11.8 9.2-12.8 0-1.2 9.1-2.1 11.6-1.3 1.2.4.4 2.1-3.5 7.4-2.8 3.7-6.4 8.2-8.1 9.9-2.7 2.8-3.9 5.7-2.4 5.7.4 0 1.5-1 2.6-2.3 4.7-5.4 6.4-7.4 7.3-8.9.6-.8 2.4-3.4 4.2-5.7 1.7-2.3 3-4.8 2.7-5.6-.4-1 1.2-1.4 7.3-1.7 4.3-.2 9.4-.1 11.3.2 3.4.5 3.4.5 1.5 2-1.2.8-3.1 3.2-4.3 5.2-1.3 2-2.6 3.8-3 4-.4.2-2.9 3.4-5.7 7.2-2.7 3.8-5.9 7.8-7 9-2.8 3.1-14.3 17.4-18.5 23.1-1.9 2.6-7.8 9.1-13.2 14.4-12.3 12.3-19.8 21-19.8 23 0 .9 2.5-1.3 5.7-4.9 3.1-3.6 10.2-11 15.7-16.6 5.6-5.5 10.6-10.7 11.1-11.5.6-.8 2.2-3 3.5-4.9 1.3-1.9 3-4.1 3.7-4.8.7-.7 1.3-1.7 1.3-2.1 0-.5 3-3.9 6.6-7.6 3.6-3.8 7.2-8 8-9.4 2.2-3.9 10.9-15.4 15.9-21 1.7-1.8 2.9-3.9 2.7-4.7-.2-.9.6-1.4 2.1-1.4 3.3 0 3.8.9 1.9 2.9-1 .9-2.8 3.2-4.2 5.1-3.9 5.3-7.4 9.5-8.2 9.8-.5.2-.8.8-.8 1.3 0 1.3-6.1 9.9-10.4 14.6-2.2 2.4-4.7 5.6-5.7 7.3-1 1.6-2.2 3-2.6 3-.5 0-1.9 1.7-3.2 3.8-3.7 5.6-11.2 14.1-21 23.9-10 10.1-19.4 20.9-23.5 27-1.5 2.3-6.4 8.1-10.7 12.9-4.4 4.8-7.7 8.9-7.5 9.2.8.7 9.1-7.5 13.9-13.8 2.3-3 4.8-6.1 5.5-6.8.6-.7 1.2-1.7 1.2-2.1 0-.4 2-2.9 4.4-5.5 2.5-2.6 5.6-6.2 6.9-7.9 3.9-5.1 14.4-15.7 15.6-15.7.5 0 2.7-2.1 4.8-4.7 2.1-2.6 4.7-5.6 5.8-6.8 1.1-1.2 4.2-5.2 7-9 2.7-3.8 6.7-8.8 9-11.2 2.2-2.4 5.8-7 8-10.2 7.2-10.3 17.7-24.1 18.5-24.1.4 0 1.6 1.2 2.5 2.7 1 1.6 3.1 4 4.7 5.6 1.5 1.5 2.8 3 2.8 3.2 0 .3-2.4 3.4-5.3 6.8s-7.1 8.9-9.2 12.2c-2.2 3.3-6.7 8.9-10.1 12.5-7.6 7.9-10.4 11.4-10.4 13 0 2.3 16.2-15.7 23-25.5 7.6-11.1 12-15.9 12-13.2 0 .9-.4 1.9-1 2.2-.5.3-1 1.4-1 2.5 0 1-1.1 3.1-2.4 4.6-4.2 5-9.6 12.4-9.6 13.3 0 .4-3.6 4.4-8 8.9-7.3 7.3-9.3 10.2-7.2 10.2 1.6 0 20.2-21.8 20.2-23.8 0-.4 1.5-2.3 3.4-4.1l3.4-3.3 3.4 2.3c1.8 1.3 3.5 2.5 3.7 2.6.2.1-.7 1.6-2 3.2s-3.7 4.9-5.4 7.2c-3.1 4.4-8.8 11.4-13.2 16.2-1.4 1.5-2.3 3-2 3.3.5.5 11.7-10.6 11.7-11.7 0-.3.8-1.5 1.8-2.6.9-1.2 3.7-4.8 6.2-8.2 2.5-3.4 5.2-5.9 6-5.8 2.1.3 1.9 2.2-.7 5.4-6.8 8.4-16.3 20.6-16.3 20.9 0 1.3 2.3 0 4.4-2.4 2.8-3.2 14.4-19.2 14.9-20.7.2-.6 1.4-.1 2.7 1 2.4 2.2 11 2.9 11 .9 0-.6 1.1-1.6 2.5-2.2 5-2.3 1.7 4.7-6.1 12.8-6.9 7.3-13.9 16-14.7 18.5-.8 2.3 2.4-1.1 12.3-12.8 3.5-4.2 7-7.7 7.7-7.7 3 0 .8 4-6.2 11.4-7.6 8-8.3 9-6.5 10.1.6.3 1 .2 1-.3s1-2 2.3-3.4c1.2-1.3 3.9-4.3 5.9-6.5 2-2.3 3.9-3.9 4.2-3.5 1.6 1.5.2 4.5-3.4 7.8-2.2 2-4 4.3-4 5.2 0 1.1 1.6.1 4.5-2.8 4.2-4.2 4.5-4.3 4.5-2 0 1.6-1.9 4.4-5 7.8-2.8 2.9-5 5.6-5 6.1s-5.5 6.5-12.2 13.3c-11 11.2-21.8 23.7-21.8 25.3 0 .4-1.6 2.1-3.5 3.9-1.9 1.9-3.5 3.8-3.5 4.4 0 .5-.6 1.2-1.4 1.5-.9.4-1.2 0-.9-1.2.3-1-.2-2.1-1-2.4-1.9-.7-5.7.2-5.7 1.4 0 .5-1.1.9-2.5.9-2.9 0-3.1-.7-.8-3.2.9-1 1.3-2.1.9-2.5-.6-.7-1.9.6-3 3.2-.3.6-.9.4-1.4-.4-1.1-1.5.4-7.1 1.8-7.1 1.8 0 6.5 2.2 7.2 3.3.5.8.8.6.8-.6 0-.9.7-1.7 1.5-1.7s4.3-3.7 7.9-8.3c9.3-11.8 13.9-17.1 22.8-26.5 4.3-4.6 7.8-9 7.8-9.9 0-1-2.1.7-5.2 4.2-2.9 3.3-8.6 9.5-12.5 13.8-4 4.3-7.3 8.1-7.3 8.6 0 .9-1.7 2.9-8.4 10.1l-4.6 4.9-3.4-2.3-3.4-2.3 3-3.4c1.7-1.9 4.2-5 5.7-6.9 1.4-1.9 3.4-4.4 4.4-5.4.9-1.1 1.7-2.2 1.7-2.6 0-.3 2.3-3 5-5.9 2.8-2.9 5-5.7 5-6.2 0-3-4.4 1.5-14.3 14.6-3.4 4.4-6.6 8.4-7.3 9-.6.5-2.1 2.5-3.3 4.2-1.2 1.8-3 3.3-4 3.3-3.8 0-7.6 6.6-7.2 12.7.1 2.1-.5 3.6-1.7 4.5-1 .7-3.8 3.8-6.3 6.8s-6.4 7.5-8.8 10c-4 4.1-8.3 9.4-14.4 17.5-1.2 1.6-5 5.9-8.5 9.6-6.8 7.2-12.6 14.8-11.9 15.5.2.3 1.7-1 3.2-2.8 1.5-1.8 6.3-7 10.6-11.6s9.3-10.6 11.2-13.5c2-2.9 6.4-8.2 10-11.9 3.5-3.6 7.9-8.6 9.8-10.9 6-7.6 7.6-8.9 9-7.3.9 1.1.3 2.4-3.2 6.3-2.4 2.7-6.6 7.4-9.3 10.5-2.7 3.1-5.7 5.8-6.7 6.1-1.1.4-1.9 1.1-1.9 1.6 0 1.5-5.8 8.4-18.2 21.5-6 6.3-10.8 11.9-10.8 12.4 0 1.3 1.7 1.3 2.2.1.2-.5 5.4-6.1 11.6-12.5 6.1-6.3 11.2-12 11.2-12.5s3.8-4.8 8.3-9.4c4.6-4.7 9.5-10 10.8-11.8 1.3-1.9 3.3-4.4 4.5-5.6 1.2-1.2 2.4-2.8 2.6-3.5.4-1 1-1 3.2.1 2.4 1.3 3.2 1.3 7.3-.2 2.5-1 4.8-1.5 5.1-1.3.5.5 4.7-3.7 11-10.9 4.6-5.3 4.5-5.2 8.2-10.5 3.2-4.7 8.9-10.9 16.4-17.8 1.6-1.5 5.9-6.4 9.7-10.9 8.1-9.6 8.9-10.2 8.9-7 0 1.6-1.6 4.1-4.5 6.9-2.5 2.5-4.5 5.4-4.5 6.4 0 1.4 1.2.6 4.4-3.1l4.4-5 1.4 3.5c1.7 4 4.2 6.5 5.8 5.5.6-.3.8-1 .5-1.5-.3-.5.8-1.6 2.4-2.4 1.9-1 3.9-3.6 5.6-7.1 2.4-4.9 6.8-9.5 9-9.5.4 0 1.4-.8 2.1-1.7.7-1 1.5-1.5 1.9-1.2.3.4-.8 2.3-2.4 4.2-3.9 4.4-4 6-.3 2.4 3-2.9 4.2-2.7 4.2.8 0 1.4-2.3 4.4-6.2 8.1-3.4 3.2-8.6 9.3-11.6 13.4-2.9 4.1-9.7 12-15 17.5-5.4 5.5-10.8 11.3-12 13-4.4 5.8-10.8 13.1-18.2 20.7-8.7 8.8-9 9.3-13.1 15.2-1.6 2.5-5.8 7-9.3 10.2-6.2 5.4-16.7 17.3-17.5 19.7-.7 1.9 27.4-26.6 28.9-29.3 1.5-2.8 6-7.8 15.5-17.4 3.9-3.9 8.2-8.6 9.5-10.5 4.7-6.3 11.9-14.6 19.5-22.6 4.3-4.4 9.8-10.7 12.3-14 2.6-3.3 5.6-6.9 6.7-8.1 1.1-1.1 3.1-3.6 4.4-5.6 1.4-1.9 3.3-4.1 4.3-4.7 1.5-.9 1.8-.8 1.8 1.1 0 1.2 1 3.2 2.2 4.5 1.2 1.3 1.7 2.3 1.1 2.3-1.1 0-11.7 12.2-17.4 20-1.4 1.9-5.6 6.6-9.4 10.5-3.7 3.8-8.4 9-10.4 11.4-2 2.5-5.1 6.1-6.8 8-1.8 2-3.3 4-3.3 4.4 0 .5-3.8 4.6-8.4 9-7.8 7.6-10.7 10.8-17.8 19.8-1.4 1.9-11.2 12-21.7 22.6-10.5 10.5-19.1 19.6-19.1 20.3 0 1.7 2.9-.6 10.1-8.4 5.8-6.2 25.9-26.2 27.7-27.6.4-.3 3.4-3.9 6.6-8 3.3-4.1 9.7-11.3 14.4-16 4.7-4.7 9.6-10.1 11.1-12 1.4-1.9 2.8-3.7 3.1-4 .3-.3 1.8-2.2 3.4-4.4 1.6-2.1 7.3-8.3 12.7-13.8 5.4-5.4 10.6-11.2 11.6-12.8.9-1.7 2.1-3 2.5-3 .4 0 .8-.4.8-.9s1.6-2.6 3.6-4.7c2-2.2 4.8-5.5 6.3-7.5l2.7-3.6 3.7 1.4c2 .8 3.7 1.9 3.7 2.4 0 2.2-3.3 8.8-4.2 8.3-.5-.3-1.9.5-3.1 1.8-3.9 4.3-11.2 13-12.6 15.2-.8 1.2-6 6.8-11.5 12.6-5.6 5.8-11.7 12.7-13.6 15.4-1.9 2.7-8.5 9.9-14.5 16-6.1 6.1-12.7 13.6-14.8 16.7-2 3.1-6.7 8.3-10.4 11.5-12.5 10.8-18.3 17.5-13.8 15.8.8-.4 1.5-1.1 1.5-1.8 0-.6 1.2-1.9 2.8-2.8 4.1-2.6 19.3-17.7 22.7-22.8 1.7-2.4 7.7-9.2 13.5-15.1 5.8-5.8 13.1-13.9 16.2-18 3.1-4.1 8.9-10.5 12.7-14.3 3.9-3.8 7.1-7.2 7.1-7.5 0-.4 1.6-2.5 3.6-4.7 1.9-2.1 5.8-6.7 8.6-10.2 2.8-3.4 5.5-6.2 6-6.2 2.4 0 .2 5.1-4.5 10.1-2.9 3.1-6.6 7.4-8.4 9.5-1.7 2.1-7 7.9-11.8 12.7-4.7 4.9-10.8 11.9-13.5 15.5-2.7 3.7-7.7 9.5-11.2 12.8-3.5 3.4-7.9 8.1-9.8 10.5-1.9 2.4-5.1 6.2-7 8.5-1.9 2.2-4.2 5.1-5 6.3-.8 1.1-1.9 2.1-2.5 2.1-.5 0-6.6 5.9-13.5 13s-17.1 17.8-22.8 23.6c-5.7 5.8-10 10.9-9.7 11.3.4.3 2.2-1.1 4.1-3.2 1.9-2 3.6-3.7 3.9-3.7.2 0 4.2-3.9 8.7-8.8 4.5-4.8 14.6-15 22.3-22.7 7.7-7.7 15.8-16.3 18-19 2.1-2.8 8.5-9.7 14.1-15.5 5.5-5.8 11.5-12.6 13.3-15.2 1.7-2.6 7.5-9.1 12.9-14.5 5.3-5.4 10.6-11 11.7-12.5 1.1-1.5 4.3-5.4 7.2-8.7l5.2-6.1 1.1 4.1c1 3.7.9 4.5-1.4 8-1.4 2.1-2.6 4.1-2.6 4.4 0 .6-3.9 5-14.3 15.9-8.7 9.1-8.7 9.1-13.3 15.6-2.1 3-8.2 10-13.6 15.5s-11.2 12-13 14.5c-1.8 2.5-4.3 5.5-5.5 6.6-1.3 1.2-2.3 2.7-2.3 3.4 0 .7-.3 1-.7.7-.3-.4-5.8 4.6-12.2 11.1-12.2 12.3-20.9 22.2-19.4 22.2 1.2 0 5.1-3.8 10.3-10 2.5-3 7.6-8.3 11.4-11.9 10.5-10 18.8-18.8 20.8-22.1 1-1.7 6.7-8 12.8-14.1 6-6.1 11-11.5 11-12 0-1.1 12.4-15.4 21.6-24.8l6.2-6.4 1.6 5 1.7 5-8.5 8.3c-4.7 4.5-11.1 11.9-14.3 16.2-3.2 4.4-9.6 11.9-14.3 16.7-4.7 4.7-12.3 12.9-16.7 18.1-4.5 5.2-9.5 10.4-11 11.5-5.7 4-22.9 23.2-21.9 24.3.4.3 2.6-1.4 4.9-3.9 11.7-12.6 14.9-15.9 21.3-21.9 3.8-3.6 8.2-8.3 9.8-10.5 3.3-4.4 9.1-10.7 17.9-19.3 3.2-3.1 8.4-9.1 11.5-13.2 3.1-4.1 8.9-10.8 12.9-14.9 6.6-6.7 7.3-7.2 7.3-4.8 0 1.9-1.9 4.5-6.8 9.4-3.8 3.7-8.4 9-10.4 11.8-2 2.7-7.7 9-12.7 14-5 4.9-9.1 9.2-9.1 9.6 0 .4-1.5 2.3-3.3 4.2-1.9 1.8-4.7 5.1-6.3 7.3-3.7 4.9-4.9 6.2-9.3 9.7-5.5 4.4-11.9 10.7-19.1 18.7-7.5 8.5-9.4 10.9-8.7 11.6.2.3 2.9-2.3 5.8-5.7 7.8-8.8 16-17 21.6-21.5 5.4-4.4 9.6-8.7 12.1-12.4 2.4-3.6 7.6-9.3 17.3-19.1 4.7-4.7 10.7-11.5 13.4-15 5.7-7.5 12.5-14.9 13.7-14.9.4 0 .8 1.1.8 2.5s-.4 2.5-1 2.5c-.5 0-1 .4-1 1 0 .5.7 1 1.5 1 .9 0 1.5.9 1.5 2.2 0 1.3.3 4.1.7 6.2.4 2.8.3 3.7-.5 3.2-.7-.4-1.2-.3-1.2.3 0 .5-2 3-4.4 5.5-2.5 2.5-5.3 5.8-6.3 7.3s-2.9 3.7-4.3 4.8c-6 4.8-11.7 10.5-16.8 17-6 7.5-9.8 11.3-18.3 18.5-10.3 8.6-32.7 33.5-31.4 34.8.8.8 8.9-7.7 14.4-15.2 2.2-3 8.6-9.5 14.3-14.5 5.7-5 10.8-9.6 11.5-10.2 4-3.7 8-7.8 9.3-9.5 2.3-3.1 11.4-13.8 12.1-14.4 5.9-4.5 7.8-6.3 11.4-11 8-10.2 11.1-12.5 8.7-6.3-.6 1.5-2.1 6.3-3.3 10.5-1.2 4.3-2.5 7.5-3 7.3-1.5-1-20.8 19.9-19.6 21.2.8.7 3.7-.9 3.7-2.1 0-.7 3.6-5 8-9.6 4.4-4.7 8-8.1 8-7.6 0 2.2-3.6 10.6-4.6 10.6-.6 0-3.4 2.4-6.1 5.2-7.7 8.1-16.1 16.5-25.7 25.8-4.9 4.7-10.5 10.8-12.6 13.5-2 2.8-6.1 7.3-9 10-22.1 21.1-27.1 26.5-24.5 26.5.3 0 3.2-2.6 6.3-5.8 3.2-3.1 10-9.8 15.2-14.7 5.2-5 10.4-10.4 11.5-11.9 3.8-5.4 8-10.1 15.9-17.6 10.8-10.2 17.1-16.5 23.6-23.8 3-3.4 5.6-6 5.8-5.8.2.2-.5 2.7-1.5 5.5-1.2 3.5-2.3 5.1-3.5 5.1-1 0-2.2.9-2.8 2-.6 1.1-3.4 4.1-6.2 6.7-7.9 7.3-19.6 19.3-23.2 23.8-3.6 4.6-11 11.9-26.1 26-9.5 8.8-14.5 14.5-14.5 16.7 0 .3 5.3-4.6 11.8-11 6.4-6.5 14.3-13.9 17.5-16.6 3.2-2.7 8.4-8.1 11.5-11.9 5.9-7.5 32-34.2 32.7-33.5.9.9-2.1 8.4-3.2 8.1-.6-.2-1.4.5-1.8 1.6-.3 1.2-1.1 2.1-1.6 2.1-1.4 0-17.8 16.8-21.2 21.7-2.8 4.1-12.8 14-18.2 18.2-8.4 6.4-28.9 27.7-28 29.1.4.7 2.9-1.3 6-4.7 5.5-6.1 17.7-18 23.4-22.9 9.5-8.1 13.9-12.5 19-18.9 5.2-6.5 22.3-24.5 23.3-24.5.3 0-.1 2.8-.8 6.2-.8 3.5-1.4 7.3-1.4 8.5 0 1.3-1 2.7-2.2 3.4-2.5 1.4-6.3 5.2-15.8 16-3.6 4.1-8.7 9.5-11.4 12-2.7 2.5-4.4 4.9-3.9 5.2.9.6 9.6-8 25-24.6 3.5-3.7 6.5-6.7 6.8-6.7.9 0 .6 5.1-.7 11.2-.7 3.2-1.6 5.8-2.1 5.8s-2.6 1.9-4.6 4.2c-2 2.3-5.4 5.8-7.6 7.7-8.8 7.9-12.5 11.9-12.5 13.6 0 1 4.8-3.1 12.5-10.8 14.7-14.8 14.3-15.2 9.4 8.6-3.3 16.2-3.7 17.6-4.9 15.7-.5-.8-2.4.4-6.1 3.8-3 2.8-5 5.4-4.6 5.8.4.4 2.4-.8 4.5-2.8 2-1.9 4.5-3.8 5.5-4.2 1.5-.5 1.7-.2 1.1 1.7-.4 1.2-1.2 2.5-1.8 2.8-2.6 1.6-8.3 6.6-11.4 10-5.7 6.4-1.8 5.1 4.9-1.6 3.5-3.5 6.5-6.3 6.6-6.1.2.2-.3 3.2-1.2 6.7-.8 3.5-1.5 9.2-1.5 12.6 0 5.9.1 6.3 2.3 6.3 2 0 2.6-1.1 5.4-11.7 1.8-6.5 3.7-13.8 4.2-16.3 3.2-13.5 4.3-19.2 5.2-25.7.5-4 2.1-11.6 3.4-16.9 1.4-5.3 2.5-11.7 2.5-14.1 0-2.4 1.2-9.5 2.6-15.6 1.4-6.2 3-13.5 3.5-16.2.5-2.8 2-7.9 3.4-11.5 4.5-12.2 10.4-33.5 11.9-43 .9-5.2 2.4-12.7 3.5-16.5 1-3.9 2.1-9.9 2.5-13.4.3-3.5 1.9-12.9 3.5-21 1.6-8 3.2-17.8 3.6-21.6.3-3.9 1.5-10.4 2.6-14.5s2.5-9.8 3-12.5c.5-2.8 2-8.6 3.3-13 1.6-5.5 2.8-14 4-27 1.5-18.6 3.1-25.8 6.4-29.8 1.4-1.5 3.9-1.7 24.6-1.7 13.4 0 31.8.7 43.9 1.7l20.8 1.7 2.2 3.5c2.6 4.3 2.6 10.8.1 20.4-1 3.9-1.9 13.2-2.4 25.2-.5 10.4-1.5 22-2.3 25.6-.8 3.6-2 11.9-2.7 18.5-.6 6.5-1.5 14.1-2 16.9-.5 2.7-1.2 7.5-1.6 10.5-.3 3-1.4 10.7-2.5 17-1 6.3-2.1 16.8-2.3 23.2-.2 6.4-.7 12.2-1.1 12.7-.3.6-.8 6.1-1.1 12.3-.3 6.2-1.1 16.7-2 23.3-.8 6.6-1.9 19.9-2.5 29.5-1.1 18.1-3.1 30-9.4 56-3.2 13-4.6 20.3-6.2 32.3-1.1 7.9 6.1 10.5 11.2 4.1 1.6-2 8.6-9.2 15.5-16 6.9-6.8 11.8-12.4 11-12.4-1.5 0-20 17.5-27.8 26.4-3.3 3.8-4.6 4.6-5.5 3.7-.8-.8-.9-1.6-.1-2.9.6-.9 1.9-6.1 3-11.6 1.6-8.3 2.3-10.1 4.4-11.5 3.8-2.5 28.8-27.9 30.4-30.9.8-1.5 6.2-7.3 12.1-13 5.9-5.6 10.5-10.5 10.2-10.8-1.3-1.3-17.1 13.8-26.7 25.6-9.5 11.6-27 28.7-26.9 26.2.2-3.4 1.5-6.7 2.7-6.7 1.4 0 26.2-25.1 26.2-26.5 0-1.2 15.1-16.2 27.2-27 5.2-4.7 10.2-9.6 11.1-11 .8-1.4 2.6-3.7 4-5.2 1.3-1.4 3.5-4.1 4.8-6 1.3-1.8 3.9-5.1 5.9-7.2 14.7-16.2 21.8-24.5 25-29.1 1.9-2.8 4.9-6.6 6.6-8.5 5.4-5.8 7.7-9.1 7-9.8-.8-.8-6.6 5.6-13.4 14.7-4.6 6.3-9.6 12.1-24.1 28.3-10.4 11.7-11.3 12.8-14.8 17.8-1.7 2.5-8.4 9.4-14.9 15.5-16.1 14.9-26.1 25.1-30.8 31.3-4 5.3-18.5 20.2-19.6 20.2-.4 0-.2-1.6.4-3.6.7-2.1 3.4-5.7 6.8-9 3.1-3 8.1-8.3 11-11.7 4.9-5.8 22.3-23.3 37-37.2 6.5-6.2 7.6-7.4 11.8-13.5 1.3-1.9 5-6.6 8.2-10.3 3.2-3.8 5.8-7.3 5.8-7.8 0-1.7-9.5 8.6-16.8 18.3-3.9 5.2-10.1 12.1-13.8 15.4-8.2 7.3-29.2 28-31.8 31.4-2.6 3.3-14.8 16.4-15.7 16.8-.4.2-.4-1.3.1-3.2.5-2.2 2.7-5.4 6.4-9 3.1-3.1 5.6-5.8 5.6-6.2 0-.7 28.4-29 33-32.9 2-1.7 5.8-5.9 8.5-9.5 2.7-3.6 6.1-7.8 7.5-9.4 6.4-7.6 10.6-12.2 11.7-12.9 3.7-2.4 13.3-13.3 23.6-26.9 8.9-11.6 9.5-12.4 14.6-17.2 7.3-6.9 11.2-10.9 13.9-14.6 1.5-1.9 4.4-5.3 6.5-7.4 3.6-3.9 4.5-5.6 3-5.6-.9 0-6.7 6.3-10.3 11-1.4 1.9-7.2 8.1-13 13.9-5.8 5.8-12.8 13.7-15.5 17.4-10.3 13.9-13.3 17.5-24.2 28.5-6.2 6.2-13.8 14.8-17 19-3.2 4.2-8.4 10.2-11.7 13.2-14.6 13.4-27.2 26.1-32.8 33-6.1 7.5-8.7 9.8-7.5 6.5.4-.9 1.2-4.8 1.8-8.5.9-5.2 1.7-7.1 3.3-8 1.1-.7 5.7-5.3 10.1-10.3 4.4-5 9.3-10.3 10.9-11.7 9-7.7 13.6-12.5 17.1-17.7 2.2-3.2 4.2-6 4.5-6.3 8.6-8.4 27.7-29.3 32.7-35.9 6.4-8.3 10.1-12.9 11.8-14.8 4-4.4 4.7-5.4 4-6.1-.6-.7-13.4 12.6-13.5 14-.1 1.6-14.3 18.4-24.1 28.3-6 6-11.7 12.1-12.6 13.5-.9 1.4-2.3 3.1-3 3.8-.7.7-1.3 1.8-1.3 2.4 0 .6-5.8 6.8-12.8 13.7-7 6.9-15.8 15.9-19.5 20l-6.7 7.3v-3.6c0-2.5.4-3.6 1.5-3.6.8 0 1.5-.7 1.5-1.5s.4-1.5 1-1.5c.5 0 2.4-1.5 4.2-3.4 24.6-25.3 30.9-32.3 34.8-38.1.8-1.3 5.5-6.3 10.4-11.1 4.9-4.9 10-10.5 11.5-12.4 1.4-1.9 3.2-4.1 3.9-4.8.7-.8 2.4-3 3.9-5 4.6-6.2 9.1-11.2 20.9-23.4 6.3-6.4 11.4-12.1 11.4-12.6s2.5-1.2 5.6-1.4c4.5-.4 6-1 8-3.3 3.3-3.8 3.2-9.1-.1-12.8-2.3-2.4-3.3-2.7-8.5-2.7-3.3 0-6.3-.1-6.7-.3-.5-.1-.9 1.2-1.1 3-.2 1.9-1 3.4-2 3.8-.9.3-3.3 2.7-5.2 5.3-1.9 2.5-8.7 9.9-15 16.3-12.5 12.6-17.7 18.5-23.8 27.2-2.2 3.1-10.1 12.2-17.6 20-7.6 7.9-15.2 16.7-17.1 19.5-1.9 2.7-3.8 5.2-4.2 5.4-.4.1-2.7 2.8-5 5.8-2.3 3.1-5.6 6.6-7.2 7.8-1.7 1.2-3.1 3-3.1 3.9 0 1 3.5-1.9 8.5-7 4.7-4.7 8.5-9.1 8.5-9.6s.4-1.1.8-1.3c.5-.2 2.6-2.6 4.7-5.3 6.7-8.8 11.4-14.2 19.6-22.2 4.4-4.3 9.7-10.1 11.7-12.8 7.3-10 12.6-16.3 24.8-29.1 6.9-7.2 13.1-14 13.9-15.1.7-1 2.7-3.4 4.4-5.2l3.1-3.3v6.1c0 4.1.4 6.1 1.2 6.1.7 0-3.3 4.4-8.7 9.8-11.3 11.1-17.1 17.7-24.3 27.4-2.7 3.7-6.9 8.8-9.3 11.3-14.7 15.3-20.4 21.5-23.2 25.5-1.8 2.4-7.7 9-13.2 14.6-5.5 5.5-12.9 13.3-16.5 17.2-3.6 4-6.9 7.2-7.3 7.2-.5 0-.7-1.5-.5-3.3.2-1.7.8-3.1 1.4-3 .5.1 1.5-.7 2.2-1.8.7-1 .8-1.9.3-1.9s-1.1.5-1.3 1.2c-.6 1.8-2.8-.1-2.8-2.4 0-3 6-15.8 7.4-15.8 1.7 0 8.5-7.4 14.4-15.7 6.1-8.5 8-10.7 19-22 4.6-4.7 10.6-11.5 13.4-15.1 7.4-9.7 14-17.3 22.2-25.5 7.1-7.1 10.6-11 17.6-19.7 1.9-2.4 4.3-5.2 5.4-6.1 1-1 1.5-2.3 1.1-2.9-.8-1.3-3.2 1.2-10.8 11-2.3 3-7.7 9-11.9 13.3-4.3 4.4-7.8 8-7.8 8.1 0 .1-2.9 3.2-6.5 7-3.5 3.7-8.4 9.8-10.9 13.4-2.4 3.7-6.8 9-9.7 11.8-8.1 7.7-15.8 16.3-21.4 23.8-6.2 8.4-13.5 16.6-14.6 16.6-2.2 0 .2-8.5 4-14.2 2.3-3.4 4.1-6.7 4.1-7.5 0-.7.8-2.1 1.8-3.1.9-1 4.9-5.4 8.7-9.7 3.9-4.3 8.6-9.5 10.5-11.5 1.9-2 5.1-5.8 7-8.4 8.2-11.2 17.6-22.1 27.8-32.8 6-6.2 14.3-15.4 18.4-20.3 4.1-5 8.9-10.4 10.7-12 3-2.7 7.4-7.2 12.4-12.6.9-1 1.7-2.2 1.7-2.5 0-.4 1-1.7 2.3-2.9 1.2-1.2 4.5-5.1 7.2-8.5 2.8-3.5 8.3-9.5 12.4-13.4 16.2-15.3 41.8-41.6 40.7-41.6-1.7 0-7.5 5-14.3 12.3-6.6 7-12.6 12.9-29 28.7-4.3 4.2-11.3 12.1-15.5 17.5-4.3 5.5-12.7 14.9-18.8 20.9-6 6-11 11.3-11 11.6 0 .3-.8 1.5-1.7 2.6-1 1.1-4.1 4.7-6.9 7.9-2.9 3.3-9.5 10.4-14.8 15.8-5.2 5.4-10.8 11.4-12.3 13.5-1.6 2-3.4 4.3-4.1 5-.7.8-1.9 2.7-2.7 4.3-.9 1.6-2 2.9-2.5 2.9-.6 0-1 .6-1 1.3 0 .7-3.7 5.1-8.1 9.7-4.5 4.6-10.5 11.4-13.4 15.1-5.1 6.5-6.5 7.4-6.5 4 0-2.2 6.6-10.4 17.5-21.5 3.6-3.8 11.6-13.3 13-15.6 3.8-6.2 6.8-9.8 17.5-20.7 6.6-6.7 15.3-16.2 19.4-21 4.1-4.8 11.1-12.4 15.6-16.8 7.4-7.3 15.1-16.2 22.1-25.5 2.7-3.6 16.4-17.5 26.6-27 5.6-5.2 18.1-18.5 21.1-22.3 1.1-1.5 1.1-1.7-.7-1.7-1.2 0-2.1.5-2.1 1.1 0 .7-1.3 2.5-3 4-1.6 1.6-2.8 2.9-2.6 2.9.7 0-21.7 22-27.4 27-2.9 2.5-10.3 10.8-16.5 18.5-6.3 7.7-15.6 18.1-20.7 23.1s-11.3 11.7-13.8 14.9c-2.5 3.3-10.9 12.5-18.7 20.4-7.9 8-14.3 14.8-14.3 15.2 0 .3-1.1 1.9-2.5 3.5s-2.5 3.5-2.5 4.1c0 .7-.4 1.3-.8 1.3s-1.6 1.5-2.7 3.2c-1 1.8-6.5 8.1-12.2 14-5.7 5.9-10.3 11.2-10.3 11.8 0 .5-.4 1-1 1-.5 0-1-1.2-1-2.8.1-2.8 2.2-5.2 9.8-11.1 5.7-4.5 6.4-5.9 4.7-10.7-2-5.5-2-11.8 0-11 .8.3 1.5.1 1.5-.4 0-.4 2.2-3.5 5-6.7 2.7-3.2 5-6.4 5-7.1 0-.6.5-1.2 1.1-1.2.6 0 .9-.8.7-1.8-.4-1.7 3.8-5.6 7.1-6.7 2-.6 4.1-5 4.1-8.5 0-1.4.9-3.4 2.1-4.4 1.3-1.1 1.9-2.5 1.6-3.7-.3-1-.2-1.9.3-1.9.4 0 1.5-1.5 2.4-3.3.8-1.7 1.6-2.9 1.6-2.5 0 .4 1.9-1.4 4.3-4 2.3-2.5 4.8-5.3 5.5-6 .6-.7 1.2-1.8 1.2-2.3 0-.5.3-.8.8-.7 1.3.4 19.2-18.7 25.7-27.5 6.1-8.2 3.4-7.2-3.5 1.3-3.6 4.4-11 12.7-16.5 18.3-11.8 12.1-18.5 19.8-20.3 23.3-1.4 2.6-3.2 2.4-3.2-.3 0-.9 1.2-3.1 2.6-5 2.8-3.7 2.6-6.2-.9-10-2-2.2-2-2.3-.2-4.3 1-1.1 1.5-2.3 1.2-2.7-.4-.4-1.4.2-2.1 1.3-.8 1-1.8 1.5-2.2 1.1-1.3-1.3 1-4 4.2-5 1.6-.6 3.1-1.3 3.4-1.6.3-.3 2.3-1.5 4.5-2.6s4.8-2.6 5.8-3.5c1.5-1.2 2-1.2 2.6-.1.6 1 2.6-.5 7.5-5.5 7.3-7.5 9.2-11.4 2.1-4.4-2.4 2.4-4.7 4.1-5 3.8-.3-.3-.9-2.2-1.2-4.2-.4-2.9-.2-3.6 1.1-3.6 1.9 0 2.1 1.1.4 2.8-.6.6-.9 1.5-.5 1.8 1 1.1 4.8-2.8 4.3-4.3-.6-1.4-.3-1.5 6.4-1.8 2.5-.1 4.8.3 5.2.9.5.7.8.5.8-.5 0-.9 1.6-2.4 3.5-3.5 2.9-1.5 3.5-2.4 3.5-5.1 0-1.7.4-3.4.9-3.7.5-.3 1.2-2.1 1.5-3.9.4-2.4 1.9-4.2 5.4-6.9 2.6-1.9 7.5-6.6 10.8-10.3 11.3-13 10.6-12.4 15.5-12 15 1.4 26.5 2.8 26.8 3.1.3.2-3.3 4.4-8 9.2-12.5 13-18 19.4-17.4 20.1.4.3 3.4-2.3 6.8-5.9 3.3-3.6 9.2-9.7 12.9-13.6 3.7-4 6.8-7.8 6.8-8.7 0-1.6 2.7-3.1 3.2-1.7.3.8 26.3 3.2 33.3 3 4.7-.1 6.3-1.3 4.6-3.3-.7-.9-4-1.7-8.9-2-4.2-.3-14.7-1.3-23.2-2.1-36.7-3.6-47.8-4.6-52.1-4.6-4.3 0-4.8.3-7.3 4.2-2.2 3.5-9.7 9.7-16.5 13.8-1.1.6-1.1 1.9.4 7.4 1 4.4 1.3 7.2.7 7.9-.5.7-1.3 2.6-1.6 4.4-.6 2.5-1.6 3.5-4.7 4.7-2.2.9-5.5 1.6-7.4 1.6-1.9 0-5.9 1.2-9 2.7-5.9 2.9-6.3 3.9-4.6 10.1.9 3 .8 3.4-1.7 4.3-1.5.6-3.4 1.7-4.4 2.5-.9.9-4.9 2.9-8.8 4.5-7.8 3.2-13.3 7.9-12.3 10.7.3.9 2.1 3.8 4 6.5 3.9 5.5 3.9 6.1 1.3 8.7-2.4 2.4-2.5 4.8-.4 7.9 1.6 2.2 1.5 2.5-.5 6.1-1.1 2.1-2.1 4.6-2.1 5.5 0 1.4-.3 1.5-1.5.5-.8-.7-1.5-1.8-1.5-2.4 0-1.4-5.2-6.6-6.5-6.6-.5 0-1.9-.9-3.1-2.1-1.8-1.7-2.6-1.9-4.3-1-1.4.8-2.1.8-2.1.1 0-1.6-1.6-1.2-5.5 1.4-2 1.4-4.1 2.6-4.8 2.9-.9.3-.9 1.2 0 4.1 1 3.3.9 4.1-.7 5.8-1 1.1-2.3 4-3 6.6-2.7 10.1-4 7.1-1.5-3.4.8-3.4 2.1-11.7 3-18.5.8-6.8 2.2-15.3 3-18.9.8-3.6 1.7-13.7 2.1-22.5.3-9.4 1.6-21.6 3-29.5 1.2-7.4 2.3-17.1 2.3-21.5 0-7.8 0-8.1-3.6-11.9-3.3-3.6-4.1-3.9-11.2-4.7-15.6-1.6-43.9-2.9-65.6-2.9h-22.5l-2 3.2zm209 14.4c0 .5-8.7 9.8-16.9 18.1-2.4 2.4-5 4.2-5.7 3.9-1.7-.7-1.8-4.3-.1-4.9.9-.4.8-.8-.3-1.6-1.7-1.2-1.6-1.3 2.9-3.6 2.7-1.4 3.5-1.4 4.2-.4.5.9 1.4-.2 2.8-3.5 1.2-2.6 2.1-5.1 2.1-5.5 0-1.8 2.8-3.1 6.7-3.1 2.4 0 4.3.2 4.3.6zm-101.7 98.9c.1.6-1.1 1.1-2.8 1.3-2.9.2-2.9.2-1-1.3 2-1.6 3.5-1.6 3.8 0zm6.4 1.1c-.3.3-1.2.4-1.9.1-.8-.3-.5-.6.6-.6 1.1-.1 1.7.2 1.3.5zm-6.4 7.4c.5 1.9 1.2 3.9 1.6 4.5.4.5.2 2-.4 3.3-1.1 2.1-1.3 2.1-2.7.5-2.6-3-3.8-6-3.8-9.3 0-2.7.3-3.1 2.2-2.8 1.5.2 2.4 1.3 3.1 3.8zm6.5-2.8c.7.9.5 2-.9 3.6l-1.8 2.3-.7-2.5c-1-3.9 1.2-6 3.4-3.4zm9.2 5.5c0 2-1.8 1.5-3-.7-1.5-2.8-.2-4.6 1.6-2.3.7 1 1.4 2.4 1.4 3zm-4.4 1.7c.3 1.4.1 3.3-.5 4.3-.9 1.6-1 1.6-1.1.1 0-.9-.4-1.8-1-2-1.1-.4-.2-4.8 1.1-4.8.5 0 1.1 1.1 1.5 2.4zm73.4-.3c0 .6.7.9 1.4.6 2-.8 3.1 3 1.6 4.8-.7.8-2.5 1.5-4.1 1.5-2.6 0-2.9-.3-2.9-3.4s.9-4.3 3.3-4.5c.4-.1.7.4.7 1zm-79.6 6.4c-2.6 1.9-3.1.9-.8-1.6 1.1-1.2 2-1.6 2.2-.9.2.6-.4 1.7-1.4 2.5zm-8.5.7c3.5 3.6 4 5.2 1.2 4.3-2-.6-5.1 1.7-5.1 3.9 0 .7-1.1 2.3-2.4 3.5-2.1 2-2.4 2.1-3 .5-.4-1-.2-2.2.4-2.8.5-.5 1-2.5 1-4.3 0-3.9 1.9-8.3 3.5-8.3.7 0 2.7 1.4 4.4 3.2zm11.2 9.9c-1.6 1.9-3.9 4.5-5 5.9-1.9 2.3-2 2.3-2 .5 0-2.3 2.2-5.1 6.4-8.2 4-2.9 4.3-2.2.6 1.8zm-23.5 4.9c.9 2.2 2 4 2.4 4 1.8 0 7-3.6 7-4.8 0-.7.4-1.1.9-.8.5.4.5 2.3 0 4.7-.6 2.3-.7 6.2-.3 8.6.3 2.3.2 4.3-.2 4.3-.5 0-3.1-2.1-5.7-4.5-5.2-4.9-7.2-5.6-6.4-2.5.3 1 0 2.4-.7 2.9-.8.7-.9-1.2-.2-7.5.6-4.6 1.1-8.4 1.3-8.4.2 0 1 1.8 1.9 4zm2.6 16.2c-.9.9-1.2.7-1.2-1.2s.3-2.1 1.2-1.2c.9.9.9 1.5 0 2.4zm-3.7 6.5c.3 1.8.2 3.4-.4 3.8-.6.3-1.1 2.1-1.1 3.8 0 1.8-.8 6.2-1.7 9.9-1.6 6.3-1.6 6.8 0 8.6 2.3 2.5 2.2 3.5-1.1 6.4l-2.8 2.5.3-5.6c.2-3.1.8-9.2 1.3-13.5.6-4.4 1-9.9 1-12.3 0-4.3 1.9-8.9 3.1-7.5.4.4 1 2.1 1.4 3.9zm8.5-3.9c0 1.3-3.9 4.6-4.6 4-.8-.9 1.9-4.8 3.3-4.8.7 0 1.3.4 1.3.8zm91-138.8c-1.3.8-1.2 1 .3 1 .9 0 1.7-.5 1.7-1 0-1.2-.1-1.2-2 0zm-.3 102.1c-.3 1.3-.1 1.9.6 1.6 1.5-.5 2.2-3.7.9-3.7-.5 0-1.2.9-1.5 2.1zM141.93 2.01c-.9 1.5.3 3 2 2.4 2.3-.9 2.7-3.4.5-3.4-1 0-2.2.4-2.5 1zm213.1 3.5c-.3.9.1 1.8 1 2.2 1.9.7 2.8-.2 2.1-2.2-.8-1.9-2.3-1.9-3.1 0zm9.1.1c-.9 1 .2 2.4 1.9 2.4.8 0 1.4-.7 1.4-1.5 0-1.5-2.1-2.1-3.3-.9zm9.9.1c-1.2 1.2-.6 3.3.9 3.3.8 0 1.5-.6 1.5-1.4 0-1.7-1.4-2.8-2.4-1.9zm9 0c-1.2 1.2-.6 3.3.9 3.3.8 0 1.5-.6 1.5-1.4 0-1.7-1.4-2.8-2.4-1.9zm10.1 1c-1.4 1.3-.6 3.3 1.2 3.3 2.5 0 3.8-2 2-3.1-1.7-1.1-2.4-1.1-3.2-.2zm10.3 1.8c0 1.8 2.4 3 3.9 2.1 1.6-1 .1-3.6-2-3.6-1 0-1.9.7-1.9 1.5zm-294.3 11.3c-4.9 6.4-11.3 14.6-14.3 18.2-3 3.6-7.3 9.1-9.7 12.4-2.3 3.2-5.9 7.6-7.9 9.9-3.9 4.1-4.8 6.2-2.5 5.5 1.5-.6 9.5-10.1 16.2-19.4 2.7-3.8 6.9-9 9.3-11.6 2.5-2.6 5.6-6.4 7-8.5 3-4.6 10.2-14.3 12-16.1.6-.7 1.2-1.5 1.2-1.8 0-.2-.6-.4-1.2-.4-.7 0-5.3 5.3-10.1 11.8zm305.5-10.1c.4 2.2 4.3 2.5 4.3.3 0-.8-1.1-1.6-2.3-1.8-1.9-.3-2.3 0-2 1.5zm-318.8 1c-1.1 1-3 3.1-4.3 4.8-1.2 1.6-3.7 4.6-5.5 6.5-1.7 1.9-4.7 5.7-6.6 8.5-3.8 5.5-13 16.4-24.9 29.5-2.2 2.5-4.1 4.9-4.1 5.3 0 .4-1.6 2.4-3.5 4.4-1.9 2-3.5 4.3-3.5 5.1 0 1.7 3.7-1.9 8.5-8.3 1.6-2.2 4.5-5.6 6.5-7.6 8.2-8.5 17.7-19.7 22.2-26.4 1.5-2.3 4.9-6.5 7.5-9.4 2.7-2.9 5.6-6.7 6.5-8.4 1-1.7 2.3-3.4 3-3.8.7-.4 1-1 .7-1.4-.3-.3-1.5.3-2.5 1.2zm7.2 7.5c-3.7 5.1-8.9 12-11.6 15.3-2.7 3.3-7.2 9.1-9.9 13-2.7 3.8-10.2 12.4-16.6 19-10.8 11.1-15.3 16.2-22.8 26.6-1.5 2.2-2.3 3.9-1.8 3.9.6 0 1.7-1.4 2.6-3 .9-1.7 1.9-3 2.4-3s2.6-2.4 4.8-5.3c2.2-2.8 9.2-10.6 15.7-17.2 6.4-6.6 13.5-14.7 15.8-18 2.3-3.3 4.7-6.5 5.3-7.1.5-.7 2.4-2.9 4-5 1.7-2 4.5-5.3 6.2-7.3 1.8-2 3.3-3.9 3.3-4.3 0-.4.6-1.3 1.3-2 3.7-3.9 10.7-14.8 9.4-14.8-.8 0-4.4 4.2-8.1 9.2zm321.9-8.1c-.8 1.2 1.4 3.1 3 2.6.6-.2 1-1 1-1.8 0-1.7-3.1-2.4-4-.8zm-389 2.6c-1 1.6-3.5 4.8-5.5 7.3-5.1 6.2-7.4 10-6.2 10 1.3 0 1.9-.7 6.9-7.5 2-2.8 5-6.7 6.5-8.8 2-2.5 2.5-3.7 1.5-3.7-.8 0-2.3 1.2-3.2 2.7zm6.9-.4c-1.1 1.2-3.7 4.7-5.7 7.8-2 3.1-4.6 6.4-5.7 7.4-1.1 1-2 2.5-2 3.4.1 1.9 6-4.6 12.2-13.2 2.2-3.1 4.5-5.7 5-5.7s.6-.5.3-1c-.9-1.5-2-1.2-4.1 1.3zm5.9 1.3c-1.5 2-4.5 5.6-6.5 8.1-5.1 6-6.3 8.3-4.3 8.3.8 0 1.5-.4 1.5-.8 0-.5 1.5-2.6 3.4-4.8 4.1-4.6 10.6-13.2 10.6-13.9 0-1.5-2.3 0-4.7 3.1zm21.6.1c-1.9 2.1-5.5 6.5-8 9.8-2.4 3.3-4.7 6.2-5 6.5-.3.3-1.3 1.8-2.2 3.5-.8 1.6-2.7 4.1-4.1 5.4-1.4 1.4-2.6 3.2-2.6 4 .1 2 5.1-3.5 11-11.9 1.3-1.9 2.7-3.7 3-4 .3-.3 2.4-3 4.7-6 2.3-3 5.3-6.7 6.8-8.3 1.5-1.6 2-2.7 1.2-2.7-.7 0-2.9 1.7-4.8 3.7zm365.5-2.6c-.7 1.2 1.5 3.1 2.8 2.3.9-.6-.1-3.4-1.2-3.4-.5 0-1.2.5-1.6 1.1zm-419.7 1.7c-1.8 1.9-2.3 4.2-.9 4.2.4 0 1.6-1.4 2.5-3 2-3.3 1-4-1.6-1.2zm10.1 3.8c-6.8 8.9-7.1 9.4-6.1 9.4s4.1-3.3 9.7-10.3c2.6-3.3 3.3-4.7 2.2-4.7-.8 0-3.5 2.5-5.8 5.6zm38.6-4.8c-.9.6-10 12.3-14.4 18.6-.8 1.1-2.5 3.2-3.7 4.6-1.3 1.4-2.3 3.2-2.3 4 0 1 .8.6 2.5-1.2 1.4-1.5 2.5-3.1 2.5-3.5 0-.4 1.5-2.3 3.4-4.3 4.4-4.6 13.6-16.9 13.6-18.1 0-1.1-.2-1.1-1.6-.1zm-44.5 4.2c-2.2 2.2-3.9 4.7-3.9 5.5 0 2.1 1.7 1.9 2.4-.3.3-.9 2.2-3.4 4.2-5.5 1.9-2 3-3.7 2.3-3.7-.6 0-2.9 1.8-5 4zm114.5-1.4c-.5 1.2-2.3 3.3-3.9 4.7-1.7 1.4-5.7 6.5-9 11.4-3.3 4.8-8.8 11.8-12.4 15.5-5.7 6-12.1 14.3-12.1 15.8 0 .9-8 9.7-18.5 20.4-5.5 5.5-12.5 13-15.5 16.6-3 3.6-5.8 6.6-6.2 6.8-.5.2-.8 1-.8 1.7s-.3 1.5-.7 1.7c-1.9.8-16.3 16.7-16.3 17.9 0 1.8 12-10.1 17.8-17.6 5.6-7.3 11-13.2 22.2-24.5 9.6-9.6 15.8-16.8 21-24.4 3.9-5.7 3.4-5.1 11.5-13.9 3.3-3.6 7.2-8.2 8.8-10.4 1.5-2.1 5.7-7.8 9.3-12.6 3.6-4.9 6.3-9.4 6.1-10-.3-.7-.8-.3-1.3.9zm1.9 6.4c-1.6 1.6-5.5 6.8-8.8 11.6-3.3 4.8-8.7 11.7-12 15.3-9.7 10.7-12.5 14.3-12.4 16 0 1 .9.4 2.7-1.8 1.5-1.9 5.1-6 8-9.2 3-3.1 8.5-9.9 12.3-15.1 8.6-11.7 8.6-11.7 12.1-15.4 3.8-4.1 2-5.4-1.9-1.4zm326.1-.7c-.7.7-6.9 6.8-13.8 13.6s-12.6 12.5-12.6 12.7c0 .3-.9 1.4-2 2.6-1.1 1.2-2 2.7-2 3.2 0 .9 25.9-24.8 31.4-31.2 2-2.3 1-3.1-1-.9zm14.1 7.9c-12.1 13.1-18.4 19.5-25.5 25.8-6.5 5.8-19.1 19.8-23.3 25.9-.9 1.4-7.2 8.2-14.1 15.2-6.8 6.9-13.2 13.9-14.2 15.5-1 1.6-2.3 3.4-2.9 4-.5.6-3 3.5-5.5 6.4-2.5 3-6.2 7.1-8.3 9.3-2.1 2.1-3.6 4.1-3.3 4.4 1.2 1.2 14.5-12.6 23.2-24.2 2-2.8 8.4-9.7 14-15.5 5.7-5.8 11.6-12.1 13.1-14.1 11.5-14.9 20.8-24.7 29.5-31.3 2.1-1.6 7.7-7.4 12.5-13 4.9-5.5 9.6-10.7 10.6-11.4 1.8-1.4 2.3-3.2.9-3.2-.5 0-3.5 2.8-6.7 6.2zm-27.5 12.8c-10 10-17.9 18.4-17.6 18.7.6.6 20.9-18 27.5-25.3 2.5-2.7 5.6-6.1 6.9-7.6 1.4-1.5 2.3-3 2-3.4-.4-.3-8.8 7.6-18.8 17.6zm15.5-7.7c-5.8 5.7-10.2 10.6-9.9 11 .4.4.1.7-.6.7-3.1 0-13.2 10.1-25 25-6.1 7.7-12.1 14.3-20.9 23-4.8 4.7-10 10.3-11.6 12.5-1.7 2.2-3.2 4.2-3.5 4.5-.3.3-2.1 2.7-4 5.5-1.9 2.7-4.4 5.7-5.5 6.7-1.1.9-1.7 1.9-1.3 2.3.8.8 6.2-4.4 10.3-10 1.6-2.2 3.1-4.2 3.5-4.5.3-.3 1.7-2.1 3.1-4 1.5-1.9 6.7-7.6 11.7-12.6 9.1-9.1 12-12.4 22.7-25.5 6.2-7.5 13.6-15.2 29-30 11.6-11 15.1-14.9 13.7-14.9-.7 0-5.9 4.6-11.7 10.3zm46.7-8.3c-1.2.5-7.9 6.7-14.8 13.7-18.4 18.6-17.9 18.1-26.3 26.4-4.3 4.2-13.1 14.2-19.6 22.3-6.5 8.1-14 16.6-16.7 18.9-4.9 4.1-8.6 8.9-5.6 7.2 1.5-.9 7.1-6 13.7-12.5 2.5-2.5 7.3-8.1 10.6-12.4 3.3-4.4 7.6-9.9 9.6-12.2 2.1-2.4 3.9-4.7 4-5.1.2-.5 4.7-4.6 9.9-9.2s11-10.2 12.7-12.4c1.8-2.3 8.4-9 14.5-14.9 6.2-5.9 11.1-10.7 10.8-10.7-.3 0-1.5.4-2.8.9zm-317.6 9.2c.3 5.1.7 9.8.9 10.4.5 1.7 14.6.5 16.8-1.4 2.3-2 2.2-4.7-.4-7.1-1.3-1.2-1.7-2.1-1-2.6 1.7-1 1.3-5.6-.6-7.1-1.1-.8-4.6-1.3-9-1.4h-7.2l.5 9.2zm12.2-3.5c-.2 1.2-1.4 1.9-3.6 2.1-3.3.3-4-.6-2-2.6 1.9-1.9 6-1.5 5.6.5zm0 6.5c2.1 2.1 1.3 2.8-2.8 2.8-4.4 0-5.8-2.5-1.7-3.3 1.2-.2 2.4-.5 2.8-.6.3 0 1 .4 1.7 1.1zm308.6-7.9c-2.8 2.3-8 6.9-11.4 10.2-3.5 3.3-7.1 6.7-8 7.5-.8.9-2.9 3.4-4.5 5.5-1.7 2.2-3.8 4.6-4.8 5.4-6 4.4-20.4 19.4-26.7 27.8-4.1 5.4-8.9 11.5-10.8 13.6-1.8 2.2-3.1 4.2-2.7 4.5.8.9 6.1-5 15.2-16.9 7.4-9.7 20.3-23.2 26-27.1 1.8-1.3 3.3-2.8 3.3-3.4 0-1 14.3-15.6 20-20.4 5.5-4.8 11-9.9 11-10.4 0-1.3-1.7-.3-6.6 3.7zm-132.1-1.1c-1.6 1.9-10.3 19.6-10.3 20.8 0 .5 1.3 1 3 1 2.2 0 3.3-.7 4.4-2.8l1.4-2.7 1.1 2.7c1.2 3.3 2.6 3.6 4.1.8.6-1.1 1.5-2 1.9-2 .5 0 1.1.9 1.4 2 .4 1.5 1.4 2 3.6 2 1.7 0 3.1-.1 3.1-.3 0-.1-1.8-5.2-3.9-11.2-3.4-9.7-4.2-11-6.3-11.3-1.4-.2-2.9.3-3.5 1zm3.7 10c0 .7-.5 2-1 2.8-.9 1.3-1.1 1.3-1.9 0-.6-.9-.6-1.9.1-2.7 1.3-1.7 2.8-1.7 2.8-.1zm134.6-7.7c-1.9 1.5-1.9 1.5.1 1.5 1.1 0 2.3-.7 2.7-1.5.7-1.9-.3-1.9-2.8 0zm-437.7 4.4c-1.3 1.7-3.7 4.9-5.4 7.1-2.6 3.6-10.1 12-18.7 21.3-2.6 2.7-3.5 4.7-2.3 4.7.5 0 12.3-12.3 18.6-19.5 5.1-5.8 11.4-15.3 10.7-16.1-.3-.3-1.6.9-2.9 2.5zm417.2 15.7c-9 9.1-16 16.8-15.6 17.2.6.6 33.4-31.7 33.5-33.1 0-2-2.8.6-17.9 15.9zm-358.1-9.5c0 .7-2 3.7-4.5 6.7-5.6 6.7-5.9 8.9-.5 3.7 2.2-2.1 4-4.3 4-4.7 0-.5.9-1.8 2-3 2.4-2.6 2.5-3.8.5-3.8-.8 0-1.5.5-1.5 1.1zm379.4 2.6c-3.6 4.7-15.2 17-22.3 23.7-11.9 11.2-19.9 19.5-24.6 25.7-2.7 3.5-5.2 6.6-5.5 6.9-.3.3-1.8 2.3-3.5 4.5-1.6 2.2-5.2 6.2-8 8.9-5.1 5-8.5 9.4-8.5 11 0 2.2 19.6-19.5 26-28.8 1.3-1.9 10.9-13 12.8-14.8.4-.4 4.2-4 8.5-8 15.1-14.1 29.7-29.6 29.7-31.7 0-2.1-1.8-1.1-4.6 2.6zm-14.5 7.5c-11.8 12.8-12.7 13.6-19.7 19.7-7 6-16.3 16.5-23.2 26.2-4.1 5.7-6.5 8.4-17.8 20.1-2.1 2.3-3 3.8-2.2 3.8 2.6 0 24-23.7 24-26.5 0-1 7.6-9 26.5-28 21.6-21.7 22.9-23.1 21.7-23.9-.5-.3-4.7 3.6-9.3 8.6zm13.7 1.9c-3.3 3.8-10.6 11.5-16.4 17.2-17.5 17.1-22.8 22.8-29.4 31.7-3.5 4.7-9.5 11.8-13.3 15.8-7.3 7.6-9.2 10.2-7.7 10.2 1.2 0 14.2-13.6 14.2-14.9 0-.6.4-1.1 1-1.1.5 0 2.8-2.6 5.1-5.8 2.3-3.1 4.7-6.2 5.4-6.7.6-.6 1.6-1.8 2.1-2.8.6-1 11.1-11.9 23.3-24.2 16.3-16.4 22.2-23 21.9-24.4-.2-1.6-1.5-.6-6.2 5zm-365.8-.1c-1.2 1.6-3.6 4.8-5.3 7.1-1.6 2.2-4 5.2-5.3 6.6-3.2 3.5-5.6 7.3-4.9 7.9.6.6 6.4-5.5 8.1-8.5.5-.9 3.3-4.6 6.3-8.3 2.9-3.7 5.3-6.9 5.3-7.2 0-1.5-2.1-.3-4.2 2.4zm6.6 1.2c-1.7 1.8-4.8 5.5-7 8.3-2.1 2.7-4.1 5.2-4.4 5.5-.3.3-1.8 2.2-3.3 4.2-1.9 2.6-2.3 3.8-1.4 3.8.7 0 2.7-1.9 4.4-4.3 3.3-4.4 6.2-8 12.6-15.4 2-2.4 3.7-4.6 3.7-4.9 0-1.2-1.9 0-4.6 2.8zm297-.1c-7.4 6.3-18.2 17.7-21.7 23-2 3-5.2 7-7.1 8.8-3.8 3.7-4.4 5.1-2.3 5.1.8 0 3.8-3.2 6.8-7.1 7.6-9.9 13.2-16.2 21.9-24.5 7.6-7.4 9.4-11.2 2.4-5.3zm-409.4 4.1c-3.5 4.1-4.9 6.8-3.3 6.7 1.2 0 7.3-7.9 7.3-9.5 0-1.9 0-1.9-4 2.8zm76.1 4.3c-3.4 3.6-5.9 7-5.6 7.6.6.9 9.6-8 11.8-11.8 2.1-3.4-.4-1.8-6.2 4.2zm386.1 8.8c-9.6 9.6-12.2 12.9-8.6 10.9 2.2-1.2 20.4-19.4 20.4-20.4 0-1.9-2.1-.2-11.8 9.5zm-95.5-.9c-4.6 5.3-6.5 9.4-3.2 6.6 2.2-1.8 8.8-11 8.3-11.5-.2-.3-2.5 2-5.1 4.9zm-315.9-3.5c-.9 2.3-8.6 10.9-21.3 23.6-7.7 7.7-16.2 16.9-18.9 20.5-2.6 3.6-8.8 10.7-13.7 15.8-10.6 11.1-14.5 16-13.4 17 .4.4 1.2-.2 1.9-1.3.6-1 5.7-6.7 11.3-12.5 5.6-5.8 12.5-13.6 15.3-17.2 2.8-3.7 11.7-13.5 19.9-21.7 13.8-13.7 21.1-22.2 21.1-24.3 0-1.1-1.7-1-2.2.1zm-35.6 6.3c-3.3 3.5-7.6 8.3-9.6 10.8s-4.1 5-4.6 5.7c-.6.7-1 1.4-1 1.7 0 .3-1 1.6-2.2 2.9-7.5 7.8-10 11.1-8.8 11.5 1.3.5 2.7-1 10.5-11.4 5.7-7.5 14.2-17.2 19.8-22.3 3.6-3.3 4.6-5.1 2.8-5.1-.4 0-3.6 2.8-6.9 6.2zm39.6-3.5c-.9 1-3 4-4.7 6.7-1.6 2.7-8.3 10.3-14.8 17-17.1 17.6-22.3 23.3-22.3 24.4 0 .5-4.9 6-11 12.2-6 6.3-11 11.5-11 11.7 0 .3-1.6 2.1-3.5 4.1-2.9 3-4.7 7.2-3.1 7.2.2 0 2.2-2.4 4.4-5.3 2.2-2.8 8.1-9.5 13.1-14.7 5.1-5.2 11.3-12.2 13.9-15.5 2.6-3.3 9-10.4 14.2-15.9 5.2-5.4 11.4-11.8 13.7-14.2 2.3-2.4 5.6-6.5 7.4-9.1 1.8-2.6 4.1-5.7 5.1-6.7 1-1.1 1.8-2.3 1.8-2.8 0-1.4-1.6-.9-3.2.9zm-55.7 5.7c-2.8 3.5-5.1 6.7-5.1 7.1 0 1.3 9.1-7.9 10.6-10.8 2.5-4.8-.3-2.9-5.5 3.7zm59.3-1.6c-1.7 2.1-4.1 5.3-5.4 7.2-1.3 1.9-2.7 3.7-3 4-.3.3-1.3 1.5-2.1 2.6-.8 1.2-7.3 8.4-14.6 16-11.6 12.2-14.3 15.3-18.8 21.2-.5.8-3.6 4.1-6.7 7.3-5.5 5.7-6.9 7.9-4.9 7.9 1 0 11.2-11.4 15.7-17.5 1.6-2.2 7.6-8.8 13.4-14.6 12.9-12.9 21.2-22.4 23.3-26.4.8-1.7 3.1-4.5 5.1-6.4 1.9-1.9 3.3-3.8 3-4.3-.9-1.3-1.8-.8-5 3zm6.5.9c-1.9 2.1-4.9 5.8-6.7 8.3-10.4 14.4-11.8 16.1-20.8 24.1-3 2.8-12.3 13.1-15.9 17.7-1.1 1.4-4.2 5.2-7 8.4-13.2 15.3-14.3 16.8-12.6 16.8.6 0 2.5-1.9 4.2-4.3 1.7-2.3 5.4-6.7 8.2-9.7 2.9-3 6.5-7.3 8.1-9.4 1.6-2.1 8.1-9.2 14.5-15.7 9.4-9.5 18.1-19.5 26.3-30.4.4-.6 1.9-2.5 3.4-4.2 3.8-4.8 2.4-6.1-1.7-1.6zm5.5 3c-2.7 3.2-6.3 7.6-8 9.8-1.6 2.2-3.6 4.9-4.4 6-.8 1.1-7.1 7.7-13.8 14.7-14.8 15.1-14 14.2-18.3 19.8-1.9 2.5-6 7-9 10s-7 7.7-8.9 10.5c-1.8 2.7-3.8 5.3-4.4 5.7-.7.5-.4.8.6.8s2.9-1.9 4.4-4.1c1.4-2.3 6-7.9 10.3-12.3 4.2-4.5 9-9.9 10.6-12 1.7-2.1 7.7-8.6 13.5-14.4 5.7-5.9 12.8-13.6 15.8-17.2 2.9-3.6 7.3-8.8 9.8-11.6 5.9-6.7 7.6-9.2 7.2-10.5-.2-.6-2.6 1.6-5.4 4.8zm352.8.5c-2.8 2.9-8.3 9.6-12.3 14.8-3.9 5.2-10.8 13.2-15.2 17.6-7.4 7.7-8.8 9.5-6.9 9.4 1.8-.1 16.3-15.2 20.2-21 1.4-2.1 4.4-6.2 6.8-9.1 2.4-3 5-6.3 5.9-7.4.9-1.1 2.9-3.5 4.6-5.2 1.7-1.8 2.8-3.5 2.5-3.9-.4-.3-2.9 1.8-5.6 4.8zm-350.1 4.8c-4.1 4.4-8.2 9.2-9.2 10.7-3 4.6-5.2 7.3-9.6 12.1-2.4 2.4-4.3 4.9-4.3 5.3 0 .5-.5.9-1.2.9-1.6 0-12.5 11.3-18.6 19.4-2.7 3.6-6.7 8-8.9 9.8-2.2 1.8-5 4.7-6.4 6.5-1.3 1.8-5.2 6.8-8.7 11.3-3.4 4.4-5.9 8-5.4 8 1 0 5.9-5.2 10.2-11 1.9-2.5 6.6-7.8 10.4-11.7 3.8-4 7.8-8.5 8.7-10 2.2-3.2 15-17.4 19.8-21.7 7.2-6.7 9.8-9.6 15.4-17.3 3.2-4.4 8.6-10.8 11.9-14.1 3.4-3.4 5.5-6.2 4.7-6.2-.8 0-4.7 3.6-8.8 8zm8.7-1.2c-9.8 10.1-14.5 15.6-17.3 20.2-1.5 2.5-4.2 5.8-5.9 7.4-13.3 12.1-26.6 26.4-26.6 28.5 0 .5-1.4 2.3-3.2 4-1.7 1.7-2.9 3.4-2.5 3.7.7.7 4.1-2.7 11.5-12.1 3.1-3.8 6.4-7.7 7.4-8.7 1-1 1.8-2.3 1.8-2.8 0-.6.4-1 .9-1 1.3 0 19.1-17.4 19.1-18.6 0-.5 1-2 2.3-3.4 1.2-1.4 3.5-4.2 5.1-6.3 1.5-2.1 5.5-6.4 8.8-9.6 3.4-3.2 5.6-6.1 5.1-6.4-.6-.4-3.5 1.9-6.5 5.1zm11.3-3.4c-.7.8-.8 1.7-.3 2 .6.3 1.2-.3 1.5-1.4.6-2.4.4-2.5-1.2-.6zm254.4 4c-2.2 1.9-3.7 3.8-3.2 4.2.4.4 1.5 0 2.5-1 .9-.9 2.5-2.3 3.6-3 1-.7 1.7-1.8 1.5-2.4-.2-.7-2.1.3-4.4 2.2zm-256.7 5.3c-4.2 4.3-10.8 11.8-14.7 16.8-3.9 4.9-7.7 9.7-8.6 10.6-1.5 1.5-2 3.9-.9 3.9.9 0 2.5-1.9 9.4-11 3.5-4.7 10.5-12.7 15.5-17.8 4.9-5.1 9.2-9.5 9.4-9.7.2-.3-.2-.5-1-.5s-4.9 3.5-9.1 7.7zm262.3-3.7c-2.3 2.2-4.7 4-5.2 4s-.9.6-.9 1.3c0 .7-.9 1.8-2 2.4-2.5 1.6-5.8 7.7-3.8 7.1.7-.2 2.1-2 3-3.9 1-1.9 1.8-3 1.8-2.6 0 .4 1.8-.9 4.1-3s5.2-4.8 6.5-6c1.3-1.2 2.4-2.5 2.4-2.8 0-1.3-1.9-.2-5.9 3.5zm-264.6-1c-1.5 1.7-1.6 2-.3 2 .9 0 1.9-.7 2.2-1.6 1-2.5.1-2.7-1.9-.4zm21.5-1.2c0 .7-1.3 2.3-10.2 12-2.2 2.4-3.7 4.6-3.4 5 .4.3 4-3 8.1-7.3 7-7.4 8.9-10.5 6.5-10.5-.5 0-1 .3-1 .8zm31.9 2c-1.4 1.5-3.8 4.5-5.4 6.7-4.1 5.6-11.8 14.6-20.2 23.5-7.4 7.7-16.2 18.4-19.1 23-.9 1.4-5.3 6.1-9.7 10.5-4.4 4.4-9.8 10.2-11.9 13-2.1 2.7-8 9.1-13 14-5 5-10.6 10.8-12.5 13-1.9 2.2-5.7 6.4-8.4 9.2-6.5 6.7-5.5 8 1.2 1.7 2.8-2.6 4.9-4.9 4.7-5.1-.2-.2 5.8-6.5 13.2-14.1 7.4-7.5 14.6-15.3 16.1-17.2 1.4-1.9 6.8-7.8 12-13 5.1-5.2 9.6-10.2 10-11.1.9-2.3 6.1-8.4 17.1-20 5.2-5.6 10.1-11.1 10.9-12.2.8-1.2 3.3-4.2 5.6-6.7s4.9-5.6 5.8-7c1-1.4 2.9-4.2 4.4-6.3 3.1-4.5 2.6-5.8-.8-1.9zm309 7c-12.3 12.6-24.2 26.8-23.7 28.3.4 1.1 3.2-1.3 6.3-5.3 6.6-8.5 14.7-17.7 20.9-24 4.2-4.2 7.2-7.9 6.7-8.2-.4-.3-5 3.8-10.2 9.2zm-9 .9c-3.6 3.8-6.8 7.7-7.2 8.8-.4 1.1 2.3-1.2 6-5.1 8.6-8.9 9.8-10.4 8.6-10.4-.5 0-3.9 3-7.4 6.7zm-103.1-1.2c-2.6 3.4-2.2 4.2.7 1.5 2.5-2.3 3.2-4 1.8-4-.5 0-1.6 1.1-2.5 2.5zm-188.3-.3c-.6.9-2.8 3.6-5 6-2.3 2.3-5.6 6.5-7.5 9.3-1.9 2.7-8.4 10.2-14.5 16.5-6.1 6.3-13.1 14.2-15.5 17.5-2.4 3.3-7.8 9.4-12 13.6-9.5 9.7-12.2 12.9-16.1 18.9-1.8 2.8-3.7 4.7-4.3 4.3-.6-.3-.8-.3-.4.1.3.4-1.2 2.4-3.5 4.4-6.2 5.5-12.1 11.5-14 14.3-.9 1.3-5.8 6.6-10.9 11.6-5 5.1-8.5 9.3-7.7 9.3 1.5 0 15.9-14.5 18.8-19 .9-1.4 3.1-3.8 5-5.5 6.2-5.5 16.6-16 19.1-19.3 3.3-4.4 10.1-12 17.3-19.5 3.3-3.3 8.4-9.2 11.4-13.1 3.1-3.9 6.5-8.1 7.7-9.2 10.3-10.5 17.6-18.5 19.6-21.4 2-3 7.1-9.1 12.7-15.2.8-.9 1.3-2.5 1.1-3.5-.3-1.6-.5-1.7-1.3-.1zm75.8 1.2c-3.6 1.6-7.3 6.9-7.3 10.4 0 4.1 2.7 8.9 6.3 11.1 2 1.2 3.7 3.1 3.9 4.4.5 3.4 5.2 3.1 5.6-.4.2-1.6 1.2-3.1 2.8-3.7 3-1.4 6.4-6.8 6.4-10.3 0-4.4-1.9-8.4-4.8-10.1-4.1-2.5-9.3-3-12.9-1.4zm8.8 5.6c1.4.8 1.9 2.1 1.9 4.9 0 4.2-2.4 6.4-3.3 3-.7-2.5-3.4-2.4-4.2.2-.5 1.6-1 1.8-2.1.8-2.2-1.8-1.7-5.6 1.2-7.8 3-2.4 3.8-2.5 6.5-1.1zm-115.9-1.7c-1.8 1.8-3.2 3.8-3.2 4.5 0 1.7 1.1 1.5 2.7-.6 5.3-6.7 5.7-9.2.5-3.9zm336.3-.9c-3.7 3.8-7.5 8.9-7.5 10 0 1 6.5-5.3 9.8-9.6 1.9-2.4 0-2.8-2.3-.4zm-90.8 7.8c-4.9 5.1-10.5 11.8-12.5 14.8s-4.2 6.1-4.9 6.8c-.7.7-1.3 1.8-1.3 2.3 0 1.3 1.3-.1 6.4-6.6 4.5-5.7 11.9-13.6 18.9-20.3 2.6-2.6 4.7-5 4.7-5.4 0-2.3-3.1.1-11.3 8.4zm-208.8-1c-2.9 3.5-5.6 6.5-5.9 6.8-.3.3-2.5 3-5 6-2.4 3-8 9.3-12.4 14-8.7 9.1-15 16.5-19.5 22.7-1.6 2.1-5.5 6.3-8.7 9.4-6.5 6.2-7.6 7.5-16.2 18.1-3.3 4-9.7 10.7-14.3 14.8-4.6 4.1-10.2 9.5-12.4 12-2.2 2.4-8.4 9-13.8 14.6-5.8 6-9.4 10.5-8.8 10.8.6.4 1.1 0 1.1-.8s.8-1.7 1.8-2c.9-.3 5.8-4.9 10.7-10.2 10-10.7 17.8-18.6 28.2-28.4 3.8-3.6 8-8.1 9.3-10 1.3-1.9 7.2-8.4 13-14.3 5.8-6 10.9-11.6 11.4-12.5.5-.9 1.7-2.5 2.7-3.4 1-1 3-3.4 4.6-5.5 1.5-2.1 5.9-7 9.7-10.8 6.3-6.3 18-19.6 24.6-27.9 1.4-1.7 3.5-4.1 4.8-5.4 1.8-1.9 2.3-4.2.8-4.2-.2 0-2.7 2.8-5.7 6.2zm-46.7-2.1c-1.3 1.6-2 2.9-1.5 2.9 1.7 0 5.3-3.1 5.3-4.6 0-2.1-1.2-1.6-3.8 1.7zm-112.4 3.9c-2.1 2.6-4.1 5.6-4.5 6.6-.6 1.7-.5 1.8 1.1.5 2.4-2 7.8-10 7.4-11-.2-.5-2 1.3-4 3.9zm118.4 4.7c-12.9 13.8-15.7 16.9-18.4 20.4-1.2 1.7-4.2 5.6-6.6 8.6-2.4 3-4.1 5.7-3.8 6 .7.7 5.6-4.6 15.9-17.2 4.1-5 10.8-12.5 15-16.8 4.3-4.4 7.7-8.5 7.7-9.3 0-.8-.2-1.4-.4-1.4s-4.4 4.4-9.4 9.7zm-26.7-1.9c-2.2 2.6-5.5 6.5-7.2 8.7-1.7 2.2-5.4 6.5-8.2 9.5-2.8 3-5.1 5.8-5.1 6.2 0 1.9 2 .4 6.3-4.5 6.8-7.6 7-7.8 9.5-11.7 1.3-1.9 4-5.1 5.9-7.2 1.9-2 3.4-4.1 3.2-4.7-.2-.6-2.2 1-4.4 3.7zm363.9-.1c-2.2 2.7-7.2 8.2-11.2 12.4-4 4.3-6.9 8-6.4 8.3 1.3.8 15-13.8 22.1-23.5 2.9-4.1-.9-1.6-4.5 2.8zm-348.8-1.8c-1.9 2.1-2.1 4.2-.3 3.5 1.8-.6 3.8-4.2 2.8-4.8-.5-.3-1.6.3-2.5 1.3zm.6 7.8c-5 5.4-11.8 13.4-15 17.8-3.3 4.4-8.1 9.9-10.6 12.2-4.3 4-5.7 6.3-3.8 6.3 1.1 0 14.2-13.6 14.2-14.7 0-.5 1.3-2.2 2.8-4 1.5-1.7 4.3-5 6.2-7.3 1.9-2.3 6.7-7.5 10.6-11.5 6.5-6.6 7.6-8.5 5.3-8.5-.4 0-4.8 4.4-9.7 9.7zm325.6-5.9c-1.4 1.5-3.2 3.8-4.1 5.2-.9 1.3-6.1 6.9-11.5 12.5-5.4 5.5-12.4 13.1-15.7 17-3.2 3.8-10.4 11.6-16 17.2-12.8 12.8-14 14.2-24.4 28.3-2.3 3-7.8 9.2-12.3 13.7-4.5 4.6-7.6 8.3-6.9 8.3 1.8 0 15.6-13.6 19.4-19 1.7-2.5 3.6-5 4.2-5.5.6-.6 2.7-3 4.6-5.5 4.4-5.8 5.1-6.8 6.7-8.5.6-.7 1.2-1.7 1.2-2.2 0-.4 1.6-1.9 3.6-3.3 3.1-2.2 6-5 13.9-13.4 2.9-3.2 10.5-12.4 10.5-12.8 0-.2 5.5-6 12.3-12.9 11.5-11.6 18.6-20.3 17.5-21.4-.2-.3-1.6.8-3 2.3zm-42.3 5.3c-6.1 5.8-7.6 7.9-5.6 7.9.9 0 8.9-7.8 12.3-11.9 3.5-4.2-.3-1.9-6.7 4zm54.2-.9c-6.3 6.7-5 7.7 1.4 1.1 2.7-2.8 4.6-5.4 4.1-5.7-.4-.2-2.9 1.8-5.5 4.6zm9.6 4.7c-10.7 11.7-12.7 14.1-11.1 14.1 1.2 0 18.9-19 19.6-21.1 1-2.5-2-.1-8.5 7zm-356.4-1.1c-3 3.2-7.2 8.4-9.4 11.6-2.1 3.1-8.5 10.4-14.1 16-5.7 5.7-11.2 11.8-12.3 13.6-1.1 1.8-6.4 7.8-11.8 13.4-5.4 5.6-11.1 11.7-12.5 13.6-1.5 1.9-6.1 7.1-10.2 11.4-4.1 4.3-7.3 8.2-7.1 8.6.6 1 16.8-15.8 22.3-23 2.2-3 6.4-7.5 9.3-10 2.8-2.5 8.4-8.6 12.5-13.5 4-5 10.6-12.2 14.7-16.1 4.1-4 9.2-9.8 11.3-13 4.3-6.4 6.4-9.1 10.7-13.6 2.4-2.5 3.5-4.8 2.3-4.8-.2 0-2.8 2.6-5.7 5.8zm360.6 4c-4.4 5.2-7.9 9.8-7.7 10.3.1.5-.4.9-1.1.9-.7 0-1.8.9-2.5 2.1-2.4 3.8-.4 3.1 3.5-1.2 2.1-2.4 6.4-7.2 9.6-10.8 6.3-6.9 8.1-9.7 7-10.4-.5-.2-4.4 3.9-8.8 9.1zm-83.6 1.4c-2.5 2.9-5.4 6.6-6.4 8.3-1.1 1.6-7.2 8.4-13.7 15-12 12.3-16.3 17.2-24.5 28.5-4.8 6.5-13.3 15.7-13.3 14.4 0-.4-1.5 1.1-3.4 3.2-1.8 2.2-5.6 6.6-8.5 9.8-2.8 3.3-4.9 6.1-4.6 6.4.3.3-.4 1.1-1.5 1.9-1.1.8-2 1.8-2 2.3 0 .6-1.6 3-3.5 5.6-3.5 4.5-4.8 7.9-2 5.1.8-.8 3.8-4.9 6.8-8.9 7.2-10.2 11.4-15.2 16.6-20.1 2.4-2.3 6-5.8 8-7.7 2-1.9 7-8 11.1-13.4 4.1-5.5 11.1-13.7 15.5-18.2 11.5-11.7 16.6-17.3 20-21.9 1.6-2.2 4.7-6.1 6.8-8.7 5.5-6.6 4.2-8.1-1.4-1.6zm-212.6 2.8c-4.7 5.5-4.1 7.3.7 2.2 3.8-4 5-6.2 3.3-6.2-.5 0-2.3 1.8-4 4zm295.2 6.7c-6.6 7.2-8.1 9.3-6.6 9.3 1 0 9.4-9 11.9-12.8 3-4.6.5-2.9-5.3 3.5zm-119.6 7.1c-10.8 11.4-12.2 13-19.6 23.5-6.6 9.2-6.9 9.7-5.3 9.7.6 0 1-.7 1-1.5s.6-1.5 1.3-1.5c.6-.1 2.9-2.7 4.9-5.8 2.1-3.1 5.8-8 8.3-10.7 2.4-2.8 4.5-5.4 4.5-5.8 0-.5.5-.5 1-.2.6.3 1 0 1-.8 0-.9 2.9-4.4 6.5-8 3.6-3.6 6.5-6.8 6.5-7.1 0-1.8-2.5.3-10.1 8.2zm-349.8-4.1c-1.8 2.1-2.7 3.9-2.2 4.1 1.3.4 6-4.8 6.1-6.6 0-1.8-.5-1.5-3.9 2.5zm57.3.9c-2.1 2.6-4.3 5.5-4.9 6.5-.5.9-4.1 5.1-8 9.1-8.8 9.3-11 12-12.9 15.5-.8 1.5-3.5 4.8-6.1 7.3-5.7 5.5-9 11-6.5 11 .6 0 1-.5 1-1.1 0-.6 2.3-3.5 5.1-6.4 2.9-3 6.3-7.1 7.7-9.2 1.5-2.1 3.6-4.8 4.9-6.1 1.3-1.3 2.3-2.6 2.3-3 0-.4 2.5-3.2 5.5-6.2 3.1-3 7-7.5 8.7-10 1.7-2.5 4.4-5.7 6-7.3 2.8-2.7 3.6-4.7 2-4.7-.5 0-2.6 2.1-4.8 4.6zm104.7 3.1c-8.6 8.7-20.1 22-20.1 23.3 0 .5-4.8 5.8-10.6 11.7-5.8 6-11.9 12.7-13.5 15-1.7 2.4-4.5 5.8-6.4 7.6-3.4 3.3-4.2 4.7-2.7 4.7 1 0 7.3-6.2 9.7-9.6 3.8-5.3 8.2-10.2 15.2-17 3.9-3.8 9-9.5 11.3-12.8 2.3-3.2 4.9-6.6 5.7-7.5 7.2-8.1 9.3-10.7 9.3-11.3 0-.5.5-.8 1-.8 1.1 0 9-8.1 9-9.2 0-1.7-1.5-.5-7.9 5.9zm265.5-2.7c-2 2.2-3.3 4-2.8 4 1.4 0 8.2-6.9 7.3-7.5-.5-.2-2.5 1.3-4.5 3.5zm47.4-2.5c0 .5-2 3-4.5 5.5-2.4 2.5-4.4 5.1-4.5 5.8 0 2 1 1.3 6.2-4.3 3.5-3.8 4.4-5.5 3.8-6.5-.6-.8-1-1.1-1-.5zm-43.7 6.7c-7.8 8.1-13.5 15.6-12.3 16.3.5.3 2.5-1.5 4.4-4.1 2-2.5 6-7.3 9.1-10.5 4.6-5.1 6.5-7.9 5.2-7.9-.2 0-3 2.8-6.4 6.2zm7.1-1c-1.1 1.3-5.9 7-10.7 12.8-4.8 5.8-11.9 13.7-15.9 17.7s-6.9 7.5-6.5 7.9c.8.8 16.7-15.1 20.2-20.1 1.1-1.5 3-3.8 4.1-4.9 2.9-2.7 12.4-14.4 12.4-15.1 0-1.2-1.8-.4-3.6 1.7zm-105.9 12.3c-5.5 6.9-10.2 13-10.4 13.7-1 3 2.5-.8 10.2-10.7 4.6-6.1 9.2-11.7 10.1-12.4 1.7-1.4 2.1-3.1.8-3.1-.4 0-5.3 5.6-10.7 12.5zm-157.5-8.9c0 1-.3 1.4-.6 1.1-1.1-1-15.6 14.1-21.9 22.8-3.2 4.4-8.5 10.7-11.9 14.1-6.3 6.2-12.8 13.4-18.1 19.9-1.6 2.1-5 5.6-7.4 7.9-15.4 14.3-26.7 26.3-25.8 27.2.7.7 33.8-32.3 38.1-38 1.5-2.1 7.5-8.6 13.3-14.4 5.8-5.9 12.2-13.2 14.3-16.2 4-5.8 10.7-13.5 17.8-20.5 2.7-2.6 3.9-4.5 3.3-4.9-.6-.4-1.1 0-1.1 1zm203.9 14.2c-11.9 12.2-23.9 26.6-23.9 28.7 0 1.8 2.5-.5 7.2-6.8 3-3.9 10.6-12.5 16.7-18.9 12.1-12.7 15.6-16.7 14.9-17.3-.2-.3-6.9 6.2-14.9 14.3zm-311.6-7.5c-2.2 2.3-4.4 4.9-4.9 5.8-.5.9-4.8 5.8-9.6 10.9-4.9 5.1-8.8 9.7-8.8 10.4 0 1.3-7.1 8.6-8.4 8.6-.9 0-4.5 4.1-4.6 5.2 0 .5.3.8.8.8 1.2 0 10.6-9.3 13.2-13 2.8-4 2.3-3.4 11-12.7 10.8-11.5 17.1-19.1 16.1-19.7-.4-.3-2.6 1.4-4.8 3.7zm6.6.4c-2 2.1-4.7 5.4-6 7.3-1.3 1.9-4.8 5.7-7.7 8.5-3 2.7-7.7 7.9-10.3 11.5-2.7 3.6-8.2 9.9-12.2 14-12 12.3-16 17-15.3 17.7.3.4 1.6-.4 2.9-1.8 1.2-1.3 6.8-7.2 12.4-13.1 5.7-5.9 11.7-12.7 13.4-15 1.6-2.4 6.3-7.7 10.2-11.8 4-4.1 9.2-10.1 11.6-13.3 2.4-3.1 4.7-5.7 5.2-5.7s.9-.5.9-1c0-1.9-1.6-1-5.1 2.7zm18.6 3.6c-3.3 3.4-7.3 8-8.9 10.2-1.7 2.2-7.5 8.5-13 14-11.1 11.1-18.1 19.4-14.9 17.7 1.1-.6 4.2-3.7 6.9-6.8 5.2-6.1 6.7-7.6 12.8-12.6 2.1-1.8 7.3-7.5 11.6-12.8 4.3-5.2 8.9-10.6 10.4-11.9 2.5-2.4 3.4-4.2 1.9-4-.5 0-3.5 2.8-6.8 6.2zm344.9-5c-2.3 2.6-4.6 6.7-3.8 6.7 1 0 6.4-6.1 6.4-7.3 0-1.1-1.4-.8-2.6.6zm-42.2 7.1c-4 4-6.9 7.5-6.5 7.9.9.9 5.3-3.3 5.3-5 0-.8.4-1.2.8-.9 1 .6 5.2-3.9 5.2-5.5 0-.5.4-.8.9-.5.5.3 1.4-.1 2-.8.7-.8.8-1.7.3-1.9-.4-.3-4 2.7-8 6.7zm-357.2-5.1c-2.1 1.7-9 10.3-13 16.2-1.8 2.7-5.1 7-7.2 9.4-2.1 2.4-3.5 4.7-3.3 5.2.7 1.1 7.5-6.4 11.8-13.1 1.9-3 6-8.3 9.1-11.7 3.1-3.4 5.3-6.4 4.9-6.6-.5-.3-1.5 0-2.3.6zm-32.5 3.7c-1 1.1-1.5 2.3-1.2 2.7.8.7 4.7-2.5 4.7-3.9s-1.6-.9-3.5 1.2zm77.1 2.6c-2.2 2.4-4.4 5.1-4.9 6.1s-2.1 3-3.5 4.5-2.3 3-2 3.3c.6.6 10.5-10.6 13.5-15.2 2.6-3.9 1.1-3.3-3.1 1.3zm323.2 11.5c-9.6 9.4-20.8 22.2-20.8 23.8 0 .3-1 1.7-2.3 3.1-4.2 4.7-6.9 9-5.5 9 .7 0 2.4-1.6 3.8-3.5 5.9-8.3 15.3-20.4 17.3-22.5.8-.8 5.3-5.2 10.1-9.8 4.8-4.6 8.6-8.8 8.4-9.4-.2-.5-5.2 3.7-11 9.3zm19.7-5.1c-2.2 2.7-8.8 9.8-14.6 15.7-5.8 5.9-11.7 12.4-13.1 14.3-1.4 1.9-3.8 4.8-5.2 6.5-1.4 1.6-2.6 3.4-2.6 3.8 0 .4-3.3 4.3-7.4 8.5-7.5 7.8-22.4 25.5-25.4 30.1-1.9 2.8-3 4.1-11.6 13-3.3 3.3-5.4 6.1-4.7 6.1 2 0 11.9-9.9 18.4-18.5 3.4-4.4 6.8-8.7 7.7-9.5.8-.8 2.8-3.3 4.5-5.5 1.6-2.2 6.5-7.8 11-12.5 4.4-4.7 11.2-12.8 15.2-18 3.9-5.2 12.4-14.8 18.7-21.3 6.4-6.4 11.6-12.3 11.6-13.1 0-.8.7-1.6 1.5-2 1.5-.5 2.1-2.7.8-2.5-.5 0-2.6 2.2-4.8 4.9zm7.6-.4c-1.2 1.4-1.1 1.6.4 1.2 1-.1 2-.9 2.3-1.6.5-1.7-1-1.5-2.7.4zm-4.1 4.2c-.8.9-5.7 6.2-11 11.7-5.2 5.5-10.6 11.5-12 13.4-1.4 1.8-2.9 3.8-3.5 4.4-3.7 4.4-8.5 10.6-8.5 11.2 0 .3-4.8 5.6-10.7 11.6-6 6-11 11.5-11.2 12.1-.2.6-1.4 2.3-2.7 3.7-2.6 3-6.6 8.3-9.1 12.3-1 1.6-6.9 7.6-13.2 13.5-18.3 17.3-29.2 28.4-34.8 35.3-4.8 6-9.1 10.4-25.5 26.4-3.2 3.1-5.8 5.8-5.8 6.1 0 3.3 22.2-17.7 34.3-32.5 6.8-8.3 16.1-17.7 31.4-31.9 6-5.4 13.8-14.1 19-20.9 4.8-6.4 11.4-14.4 14.5-17.7 3.2-3.3 5.8-6.6 5.8-7.3 0-.7.4-1.1.9-.8 1 .7 6.3-5.2 14.1-15.5 6.5-8.7 18.6-22.7 21.7-25.2 1.2-1 2.5-2.7 2.8-3.8.4-1.1.9-1.8 1.2-1.6.4.5 6.3-5.1 6.3-5.9 0-1.1-2.7-.1-4 1.4zm-260.3 5.2c-2.6 2.7-4.7 5.3-4.7 5.9 0 .6-5.2 6.2-11.5 12.6-10.3 10.3-12.9 13.5-10.8 13.5 2.5 0 33.4-35.2 32.1-36.5-.2-.2-2.5 1.8-5.1 4.5zm259.3 3.8c-3.6 3.8-8.5 9.2-11 12.1-2.5 3-5.8 6.8-7.3 8.5-1.5 1.7-3.5 4.3-4.4 5.8-1 1.6-2.1 2.8-2.5 2.8-.4 0-.8.7-.8 1.5s-3 4.7-6.7 8.6c-15.1 15.8-13.9 14.4-25 28.9-6.7 8.9-16 18.3-38.4 39.3-5.2 4.8-11.6 11.9-14.4 15.7-2.7 3.8-5.3 7-5.7 7-.4 0-5 4.3-10.2 9.5-5.2 5.2-9.8 9.5-10.4 9.5-1.4 0-8.5 8-7.7 8.8.3.4 1.1-.1 1.6-1.1.6-.9 1.5-1.7 2.2-1.7 1.7 0 30.6-28.3 35.1-34.3 4.1-5.5 10.6-12.2 16.9-17.4 7.9-6.6 26.7-25.4 28.2-28.3.9-1.7 1.9-3 2.3-3 .4 0 1.5-1.2 2.4-2.8.9-1.5 2.8-4.1 4.3-5.7 1.4-1.7 3.9-4.8 5.5-7 1.5-2.2 5.8-6.8 9.4-10.3 3.6-3.5 6.6-6.6 6.6-7 0-.4 1-1.8 2.3-3.2 1.2-1.4 4.8-5.9 7.9-10 3.1-4.1 10.6-13 16.7-19.8 6.1-6.8 11.1-12.5 11.1-12.8 0-1.4-2.2.4-8 6.4zm-358.5-3.8c-.3.5-.1 1 .4 1 .6 0 1.1-.5 1.1-1 0-.6-.2-1-.4-1-.3 0-.8.4-1.1 1zm104.5 2.3c-.9.7-4.3 4.6-7.5 8.7-3.3 4.1-8.4 9.7-11.4 12.5-3 2.7-6.4 6.1-7.5 7.3-1.2 1.3-3.3 3.8-4.8 5.5-1.6 1.7-2.8 3.4-2.8 3.9 0 1.1-8.7 9.8-13 13-5 3.7-17.9 16.4-22.5 22.3-2.1 2.7-6.6 7.8-9.9 11.2-3.3 3.4-5.7 6.6-5.3 7 .9.9 8.8-6.7 13.7-13.2 4-5.3 24.8-26.5 26-26.5 1.3 0 9.5-8.4 13.7-14 2.3-3 8.1-9.3 12.9-14 4.8-4.7 10.4-10.8 12.5-13.5 2.2-2.8 4.9-6.2 6.1-7.7 2.4-3 2.2-4.3-.2-2.5zm-114.2 6.9c-3.8 4-6.8 7.8-6.8 8.3 0 .6-1.2 1.9-2.7 3-1.5 1.1-5.5 4.9-9 8.5-5.7 5.9-7.2 8-5.8 8 1.4 0 29.4-29.6 31.9-33.8 1.9-3.2-1.5-.5-7.6 6zm368 2.3c-2.3 3.1-2.4 5.3-.2 3.5 2.1-1.8 3.6-4.8 2.7-5.3-.5-.3-1.6.6-2.5 1.8zm-412.7 2.9c-.8.9-1.1 1.9-.7 2.3.9.9 2.9-1.3 2.4-2.7-.2-.8-.8-.7-1.7.4zm336.5 2.5c-.4.7-.5 1.5-.2 1.8.9.9 1.9-.4 1.4-1.8-.4-1.1-.6-1.1-1.2 0zm67.9 4.3c-1.6 2.1-3.9 4.9-5 6.1-1.1 1.2-4.2 5.3-6.9 9.1-2.7 3.7-9 11.2-14 16.5-5.1 5.3-10.7 11.6-12.6 14.1-1.9 2.5-3.7 4.7-4 5-.3.3-2 2.7-3.9 5.5-4.4 6.4-10 12.4-17.6 18.7-8.8 7.3-31.4 29.9-32.1 32.1-.3 1.1-2.6 3.9-5.1 6.2-2.5 2.4-4.3 4.9-4.1 5.5.2.6 2.6-1.4 5.3-4.5 6.9-7.7 33.8-34.7 42-42 5.9-5.2 10-10.2 20.4-24.5 1.4-1.9 6.9-8.1 12.3-13.6 5.5-5.6 11.9-13 14.3-16.4 2.4-3.5 5.5-7.5 6.7-8.9 2.4-2.8 7-8.8 8.1-10.8.4-.6.4-1.4 0-1.6-.5-.3-2.1 1.3-3.8 3.5zm-390.8-1.1c.7.7 1.5 1 1.8.7.3-.3-.2-.9-1.2-1.2-1.4-.6-1.5-.5-.6.5zm142 3c-2 3.6-1.4 5.3.8 2.3 1.2-1.6 2.1-5.4 1.3-5.4-.2 0-1.1 1.4-2.1 3.1zm176.8-1.1c-1.5 1.7-1.6 2-.3 2 .9 0 1.9-.7 2.2-1.6 1-2.5.1-2.7-1.9-.4zm-321 1.1c-1.1 1.7.1 2.1 1.5.4.8-.9.8-1.5.2-1.5-.6 0-1.4.5-1.7 1.1zm309 11.1c-4.8 5.1-11.1 12.4-14 16.3-2.9 3.8-7.3 8.9-9.7 11.2-9.2 8.9-13.2 13.4-11.3 12.7 2.3-.9 23.5-21.8 23.5-23.3 0-.9 9.5-12.4 15.5-18.6 4-4.2 6.5-7.5 5.6-7.5-.5 0-4.8 4.2-9.6 9.2zm-275.2-2.6c-1.4 1.5-1.7 2.4-.9 2.4 1.3 0 4.6-3.1 4.6-4.3 0-1.3-1.5-.5-3.7 1.9zm44.1-.1c-1.1 1.1-5.8 5.6-10.5 10-4.6 4.4-10.2 10.2-12.4 12.9-2.2 2.7-7.5 8.3-11.7 12.4-4.3 4.1-7.5 7.9-7.2 8.4.3.5 5.1-3.8 10.7-9.5 25.9-26.3 33.9-34.7 33.5-35.4-.1-.5-1.2.1-2.4 1.2zm58.9-1.2c-.6.7-3 3-5.3 5.2s-6 6.5-8.3 9.5c-2.2 3-4.8 6.1-5.6 6.8-2.1 1.7-13.6 11.9-19.4 17.2-2.7 2.5-8.2 8.5-12.2 13.5-3.9 4.9-10.8 12.7-15.3 17.2-8.3 8.2-9.1 9.3-7.1 9.3 2.6 0 27.9-28.1 27.9-30.9 0-.6.7-1.1 1.5-1.1s1.5-.4 1.5-.8c0-1.1 6.7-7.5 16.5-15.9 9.1-7.7 11.6-10.3 14.7-15.3 1.3-1.9 3.3-4.4 4.5-5.6 1.3-1.2 2-2.4 1.6-2.7-.3-.4 0-.7.8-.7s3-1.6 4.9-3.5c2-2.1 2.8-3.5 1.9-3.5-.7.1-1.9.6-2.6 1.3zm-27.9 7c-4.3 5.7-4.4 5.9-13.5 13.7-7.9 6.8-14 13-20.1 20.4-5.9 7-6.3 9.8-.6 3.6 12.3-13.5 26.2-26.8 28.9-27.8.8-.3 8.6-10.1 10.2-12.9.4-.6.4-1.4-.1-1.7-.5-.3-2.6 1.8-4.8 4.7zm236.3-1.3c-1.5 1.6-2.7 3.2-2.7 3.5 0 1.1 4.9-2.7 5.4-4.2 1.1-2.7.1-2.4-2.7.7zm-342-.9c-.9.6-1.7 1.8-1.7 2.7 0 1.4.4 1.3 2.2-.6 2.4-2.4 2.2-3.6-.5-2.1zm10.9 1.8c-1.9 2.1-1.2 2.8 1.3 1.2.7-.5 1.2-1.4.9-2.1-.2-.7-1-.4-2.2.9zm-7.8 2.2c-1.9 1.1-2.4 2.9-.8 2.9.5 0 1.4-.9 2-2 1.2-2.3 1.2-2.3-1.2-.9zm314.5 5.7c-2.3 2.6-7.2 8.5-10.8 13.2-3.6 4.6-8.9 10.5-11.8 13.1-8.1 7.2-27 27.9-26.3 28.7.7.6 7.1-5.7 18.2-17.8 2.3-2.5 7-7 10.5-10.1 3.6-3.1 8.6-8.8 11.2-12.7 2.6-3.9 5.1-7.2 5.5-7.4 1.5-.6 8.4-9.8 8-10.7-.1-.6-2.2 1.1-4.5 3.7zm-313-1.9c-.7 1-.9 2.1-.6 2.4.7.8 3.3-1.8 3.3-3.2 0-1.7-1.4-1.3-2.7.8zm37.6 6.6c-4.1 4.2-7.6 8.3-7.8 9.3-.1.9 3-1.7 7.1-5.8 8.5-8.6 10.4-11 9.1-11-.6 0-4.3 3.4-8.4 7.5zm329.4 2.2c-3.5 3.1-16.6 18.8-22.5 26.9-6.8 9.5-11.2 14.2-19.7 21.5-7.5 6.3-27.1 25.2-27.1 26.1 0 .3-3.7 4.3-8.2 8.8-4.6 4.5-7.8 8.4-7.2 8.7.6.2 4.2-2.9 8-6.8 12-12.6 25.8-26.2 32.9-32.4 12.3-10.8 23.5-22.9 23.5-25.4 0-.6.3-1.1.8-1.1.4 0 1.8-1.7 3.2-3.8 2.6-3.9 12.6-15.7 17.3-20.4 1.5-1.5 2.7-3 2.7-3.3 0-1-1.7-.5-3.7 1.2zm-256.8 6c-11.7 10.7-21.1 20.3-26.3 26.8-3.1 3.8-9.2 10.5-13.6 14.8-8.5 8.5-9.6 11.4-1.8 4.8 5.3-4.3 9.5-8.9 15.2-16.1 7-9 22.1-24.4 27.6-28.2 3.5-2.4 5.8-5.5 4.6-6.2-.4-.2-3 1.6-5.7 4.1zm257.9.7c-9.1 9.9-17.4 21-17.4 23.1 0 1.1 3.9-3.2 11-12.2 2.5-3.1 6.4-7.8 8.8-10.3 2.3-2.6 4.2-5 4.2-5.4 0-1.7-2.1-.1-6.6 4.8zm5.9 1.1c-1.2 1.2-5.2 6.1-8.8 10.7-3.6 4.5-7.3 9.1-8.1 10.1-.8.9-1.4 2.2-1.4 2.8 0 .6-5.9 6.8-13.1 13.7-31.3 30.4-36.3 35.5-35.3 35.9.6.2 7.7-6 15.7-13.9 8-7.9 17.2-16.6 20.3-19.3 5.2-4.6 12.1-12.7 21.4-24.9 1.9-2.6 5.6-7 8.3-9.8 4.3-4.8 5.9-7.9 4-7.7-.5 0-1.8 1.1-3 2.4zm-332.3 9.5c-.6 1.1-.7 2-.2 2 1 0 3.2-2.1 3.2-3.2 0-1.6-1.9-.8-3 1.2zm331 .8c0 .5-1 2-2.2 3.3-1.3 1.4-5.4 6.5-9.3 11.4-7.7 10-10.6 12.9-25.1 26-5.4 4.9-13 12.3-16.7 16.5-8.4 9.3-8.7 9.6-8.7 11.1 0 .7 3.3-2.3 7.3-6.6 12-12.9 20.8-21.5 27.8-27.1 7-5.6 8.8-7.6 19.5-21.5 8.1-10.5 9.5-12.7 8.4-13.4-.5-.3-1-.2-1 .3zm-333.1 7.9c-4.5 4.4-7.8 8.3-7.2 8.6 1.1.7 17-14.9 16.1-15.9-.4-.3-4.4 3-8.9 7.3zm-6.9-.5c-3.3 3.5-5.6 6.4-5.1 6.6 1.3.4 13-11.7 12-12.4-.4-.2-3.5 2.4-6.9 5.8zm88.7-.6c-.4.4-.7 1.4-.7 2.3 0 1.1.3 1.2 1.1.4.6-.6 1-1.6.7-2.3-.2-.6-.7-.8-1.1-.4zm-8.1 8.6c-8.2 8.5-11.8 12.8-11.4 13.9.3 1 15.2-14.5 17.1-17.7 1.7-2.9-.8-1.2-5.7 3.8zm-70.5-2.9c-.6.8-.8 1.7-.4 2 .7.8 3.3-1.1 3.3-2.4 0-1.3-1.6-1.1-2.9.4zm301.9 5.3c-4.1 5.3-14.2 15.1-29.5 28.9-6 5.4-11.4 10.4-11.8 11.1-1.3 2.3 2.4.4 6.1-3 1.7-1.7 6.8-6.5 11.2-10.6 14.8-13.9 30-29.1 30-30.1 0-2.2-2.7-.5-6 3.7zm-229 12.1c-1.9 1.9-3.4 3.9-3.2 4.4.1.5-.5.9-1.3.9s-1.5.3-1.5.8c0 .8-8.3 9.4-15.9 16.4-5.1 4.8-6.8 7.8-3.3 5.9 2.5-1.3 17.1-15.8 21.7-21.6 2.2-2.7 5-5.8 6.3-6.8 2.1-1.8 3-3.8 1.5-3.6-.5 0-2.4 1.6-4.3 3.6zm248.1-1.3c-1.4 1.4-2.1 2.9-1.7 3.3.9.9 4.9-3.2 4.4-4.7-.2-.6-1.3-.1-2.7 1.4zm-11.1 3.8c-2.5 2.2-6.6 5.9-9.2 8.3-4.8 4.2-6.6 7.6-3 5.6 3.6-2.1 17.5-15.7 17.1-16.8-.2-.7-2.4.6-4.9 2.9zm-92.6.3c-.9 2.2.1 2.9 1.5 1.1.8-1 .9-1.6.1-2.1-.5-.3-1.3.1-1.6 1zm-167.1 4.7c-4.8 4-6.6 6.8-4.4 6.8 1.3 0 10.1-8.7 10.1-10 0-1.5-.1-1.4-5.7 3.2zm258.5 3.4c-5.1 4.8-6.9 7.4-5.3 7.4 1.3 0 11.7-10.8 11.4-11.8-.2-.6-3 1.3-6.1 4.4zm.6 6c-4.9 5.2-9.1 9.7-9.3 10-.2.2.3.4 1.1.4 2.8 0 19.7-18.3 17.9-19.4-.5-.3-4.9 3.7-9.7 9zm-275.1 4.6c-3.7 3.5-7.4 7.1-8.1 8-.7.9-1.9 2.4-2.8 3.3-.8.8-1.1 1.5-.5 1.5.8 0 10.8-8.6 15.6-13.5 7.5-7.7 4.3-7.1-4.2.7zm25.7 7.7c-8 7.7-13.8 14-13 14 2 0 28.3-25.4 27.8-26.9-.2-.6-6.9 5.2-14.8 12.9zm238.3-8.4c-.8 2.2.6 3.3 1.7 1.5 1.3-2 1.2-3 0-3-.6 0-1.3.7-1.7 1.5zm-18.1 10.4c-5.1 5.5-9.2 10.2-9.2 10.5 0 1.4 3 .5 4.2-1.3.7-1 4.3-5.1 8.1-9.1 3.7-3.9 6.7-7.8 6.7-8.6 0-.8-.1-1.4-.3-1.4-.1 0-4.4 4.5-9.5 9.9zm-220.5 5.5c-10.9 10.7-14.2 14.6-12.3 14.6.3 0 4-3.7 8.3-8.1 4.3-4.5 8.3-8.6 8.8-9.1.6-.5 2.7-2.4 4.8-4.3 2.2-1.9 3.7-3.9 3.5-4.5-.1-.5-6 4.6-13.1 11.4zm247.5-9.3c-1.8 1.7-3.2 3.5-3.2 4.1 0 1.3 3.1-.6 6.4-4.1 4-4.2 1.1-4.2-3.2 0zm-272.1 1.4c-3.5 4-3.9 5-1.3 3.6 2.8-1.5 6.4-5.8 5.4-6.5-.6-.3-2.4 1-4.1 2.9zm220.9 4c-1 1.2-1 1.5.4 1.5.9 0 1.6-.7 1.6-1.5s-.2-1.5-.4-1.5-.9.7-1.6 1.5zm51.7 1.1c-.8.8.1 2.4 1.4 2.4.5 0 .9-.7.9-1.5 0-1.5-1.2-2-2.3-.9zm-242.7 5.1c-9 7.9-15 14.3-15 16.1 0 1.1 2-.3 5.8-4.3 3.2-3.3 7.9-7.9 10.4-10.2 8.4-7.6 7.4-9-1.2-1.6zm-41.4 1.3c-3.3 3.6-4.5 6-3.1 6 .9 0 5-4.3 7-7.3 2.6-4.1.2-3.2-3.9 1.3zm224.4.5c-2.4 2.5-4.1 4.8-3.7 5.2.4.4 2.8-1.4 5.3-3.9 2.6-2.5 4.2-4.8 3.7-5.1-.5-.4-2.9 1.4-5.3 3.8zm-214.9-1.7c-.8.9-3 3.4-4.9 5.4-2 2.1-3.2 4.1-2.8 4.5.8.9 10.5-8.6 10.6-10.5 0-1.7-1.2-1.4-2.9.6zm243.5 2.8c-1.6 1.9-2.6 3.8-2.2 4.1.8.9 6.6-4.7 6.6-6.4 0-2.1-1.3-1.4-4.4 2.3zm-224.5 17c-2 2.5-2.7 4.4-1.6 4.4.7 0 5.5-5.4 5.5-6.2 0-1.6-1.9-.7-3.9 1.8zm165.8 6c-7.4 7.5-8.8 9.4-7.2 9.4.9 0 16.3-15.4 16.3-16.4 0-1.8-2.5.1-9.1 7zm-157.9-.1c-1.8 1.9-3 3.8-2.7 4.2.8.7 7.7-5.5 7.7-6.9 0-1.6-1.7-.7-5 2.7zm143.2-.5c-2 3.2-1.4 4.6 1 2.2 1.5-1.4 1.9-2.5 1.2-3.2-.6-.6-1.4-.3-2.2 1z"/>
</svg>
