<?xml version="1.0" encoding="utf-8"?>
<svg xmlns="http://www.w3.org/2000/svg" viewBox="0 0 344 427">
	<path d="M143 .7c0 .7 10.6 7.4 16 10.2 3.4 1.8 5.9 3.2 13 7.4 4.1 2.5 12.7 7.3 19 10.7 6.3 3.4 12.7 7.3 14.1 8.6 1.4 1.3 2.8 2.1 3.2 1.7.6-.6 1.2 3.9.7 6.2-.5 2.8 1.4 7.4 4.5 10.8 1.9 2.1 3.5 4.3 3.4 5 0 .9-.2.9-.6-.1-.8-2-2.6-1.4-2 .8.6 2.3-.3 2.6-2.2.7-1.1-1-1.3-.9-.9.3.2.8 1.4 1.9 2.5 2.4s2.6 1.8 3.2 2.9c1 1.6 1 1.8-.4 1.5-.9-.1-1.6-.8-1.6-1.3 0-.6-1.1-1.6-2.5-2.3-1.5-.8-2.4-2.1-2.4-3.6 0-1.6-2.5-5-7.5-10.2-4.1-4.3-7.5-7.2-7.5-6.5 0 .6 2.7 3.9 6.1 7.2 3.9 3.9 5.9 6.5 5.5 7.5-.3.8.1 1.7.9 2 .8.4 1.5 1.5 1.5 2.6 0 1-.4 1.6-1 1.3-.5-.3-1-.1-1 .4 0 .6.5 1.1 1 1.1.6 0 1 .5 1 1.1 0 .6-.5.9-1.1.7-1.2-.4-4.1-8.1-3.7-9.5.2-.5-3-4.1-6.9-8.1-4-4-7.3-6.8-7.3-6.3 0 1.9 1.3 4.1 2.4 4.1 1.5.1 4.8 4.8 4.4 6.2-.4 1-1.9-.4-9.2-8.6-1.4-1.6-2.9-2.7-3.2-2.3-.5.5 2 3.6 7.7 9.5 3.3 3.4 4.1 6.1 2.4 7.8-.8.8-1.5 2-1.5 2.5 0 1.3 2.4 1.1 3.8-.3.9-.9 1.2-.8 1.2.5 0 2.3 2.2 6.7 3.1 6.2.4-.3.5-1.4.2-2.5-.7-2.6.1-2.5 4.1.5 3.9 3 5.3 3.1 5.9.7.3-1.5.5-1.5 1.2.3.5 1.1 1.2 2.2 1.5 2.5.4.3 1.1 1.9 1.7 3.5 1.3 3.9-.4 5.9-3.2 3.9-2.3-1.7-4.4-1.9-2.7-.2 1.4 1.4 1.6 3.8.3 3.8-.5 0-1.8-1.9-3-4.3-2.2-4.5-6.1-7.9-6.1-5.3 0 .7.7 1.9 1.5 2.6 1.9 1.6 2 3.4.1 2.3-.8-.4-3.4-2.7-5.8-4.9-4.4-4.2-12.5-9-13.5-8-.3.2.9 1.2 2.5 2 4.3 2.2 12.9 10.3 11.9 11.2-.4.4-2.1 0-3.6-.9-3.4-2-7.1-2.2-7.1-.5 0 .7-.8-.1-1.8-1.7-1.1-1.7-2.6-3.6-3.5-4.4-1-.7-1.7-2.4-1.7-3.7 0-1.7-.5-2.3-1.7-2.2-4.6.3-5.5-.2-4.9-2.5.3-1.4-.1-3.1-1-4.3-1.5-1.8-1.5-1.8-.9.8.7 3.5-1.2 3.7-2.5.4-1.1-3-3-4.3-2.3-1.6.3 1.1 0 2-.6 2s-1.1-.4-1.1-1c0-1.1-5-6.3-5.6-5.7-.2.2.5 1.2 1.6 2.2 2 1.8 2.6 3.5 1.3 3.5-.5 0-2.6-1.6-4.7-3.5-2.2-1.9-4.3-3.5-4.8-3.5-1.7 0-.7 2 1.9 3.7 1.6 1 3.8 2.9 5 4.3 2.1 2.5 2.1 2.5.2 3-3 .8-2.4 2.4 1.1 3.1 1.7.4 4.2 1.7 5.6 3 2 1.9 2.4 3.2 2.4 7.9 0 5.4 1.7 11 3.3 11 .4 0 .7-2.7.7-6.1v-6.1l3.3 1.9c1.7 1.1 3.3 2.9 3.5 4.1.2 1.2.8 2.2 1.5 2.2.8 0 .8.3-.1 1.2-.7.7-1.2 2.5-1.2 4 0 1.9-.5 2.8-1.5 2.8-1.3 0-1.5-.7-.9-3.4.7-3.9-.3-9.6-1.7-9.6-.5 0-.9 3.5-.9 7.9 0 4.3-.3 9.3-.6 11-1.3 6.5-7 1.9-6.1-5l.4-3.4.1 3.7c.3 5.1 2.2 4.9 2.2-.2 0-2.2-.4-4-1-4-.5 0-1-.9-1-2s-.4-2-1-2c-.5 0-1-.9-1-2.1 0-2.3-5.4-7.7-8.3-8.1-2-.3-2.4-.9-4.6-5.8-1-2.3-1.1-2.1-.8 1.7.3 5.2-1 5.5-5.1 1.3-1.7-1.7-3.4-3-3.9-3s-3.1-2.3-5.8-5c-2.7-2.8-5.3-5-5.7-5-1.9 0-.5 2.7 2.5 4.9 1.7 1.3 4.8 4.3 6.7 6.7 3.5 4.2 4.5 4.8 11 6.4 2.3.6 3.7.5 4.1-.2 1-1.5 2.4-.3 4.2 3.4 1.1 2.3 1.5 5.4 1.2 10.1-.1 3.7.1 6.7.6 6.7s.9 1.2.9 2.6c0 3-2.3 2.8-2.9-.2-.2-1-.9-2.3-1.7-2.7-.9-.5-1.4-2.5-1.4-5.3s-.4-4.3-1-3.9c-.6.3-.7 1.7-.4 3.1.4 1.7.1 2.6-1 3-.9.3-1.6 1.2-1.6 2 0 1.6-1.6 1.9-2.5.4-.3-.6-1.5-1-2.6-1-1 0-1.9-.5-1.9-1 0-.6-.7-1-1.5-1-1.3 0-1.4.4-.5 2.1 1.1 1.9 1 2-.9 1-1.2-.7-1.8-1.7-1.5-2.6.4-.9 0-1.5-.8-1.5s-1.9-.5-2.6-1.2c-.6-.6-1.9-1.3-2.9-1.4-.9-.2-2.7-1.7-4-3.3-2.7-3.4-4.3-4-4.3-1.6 0 .8.4 1.5.9 1.5 1 0 2.4 3.1 1.6 3.8-.2.3-1 0-1.7-.5s-3.5-1.8-6.1-2.7c-2.7-1-7.2-3.4-10-5.3-6.4-4.1-17.6-9.8-18.2-9.1-.3.3 3.2 2.7 7.7 5.3 4.6 2.6 9.9 5.8 11.8 7.1 1.9 1.3 5.2 3 7.3 3.9 2 .8 3.7 1.9 3.7 2.5 0 .5 3.4 2.6 7.5 4.6 4.1 2 7.5 4.3 7.5 5.1 0 .7-.5 1.3-1.1 1.3-.6 0-.8.9-.4 2.1.6 1.7.4 2-.6 1.3-.8-.5-2-.9-2.7-1-3.5-.6-8.2-5.4-5.2-5.4.6 0 1 .4 1 .8 0 1.3 4.8 3.3 5.4 2.3.8-1.2-2.3-3.6-6.3-5-4.3-1.4-4.4-1.4-3.7.5.4 1.1-1.1.6-5.2-1.7-3.1-1.7-9.5-5.2-14.2-7.6-4.7-2.5-9.8-5.3-11.5-6.3-6.4-3.8-12.6-7-13.5-7-.5 0-3.1-1.4-5.7-3-5-3.2-6.3-3.6-6.3-2 0 .6 4.8 3.4 10.8 6.3 16.6 8.3 22.5 11.7 24.6 14 1 1.2 2.3 2.1 2.7 2 1.4-.5 1 2.3-.5 3.6-.7.6-2.1.9-3 .5-.9-.3-2.2-.2-2.9.4-.8.6-3.7-.2-9.2-2.8-9.7-4.5-12.5-5.5-12.5-4.1 0 .5 1 1.3 2.2 1.7 2.1.6 7.7 4.2 8.8 5.5.3.3 1.9 1.3 3.6 2.2 1.8.9 4.4 3 6 4.6 1.5 1.6 4.7 3.5 7.1 4.2 2.4.6 4.8 2 5.3 2.9 1.2 2.3 15.6 11.9 18.9 12.7 1.4.3 2.9 1 3.2 1.5.7 1 8.1 2.9 8.8 2.3.2-.2-.8-1-2.3-1.6-3.8-1.8-3.2-2.6 2.1-2.6 2.9 0 4 .3 2.8.7-1.6.6-1.4.8 1.3 1.2 2.3.3 3.5 0 4.2-1.1 1.2-2.3 1.9-1.1 1.3 2.3-.5 2.7-.8 2.8-4.6 2.2-4-.7-4-.6-2.3 1.3 1.3 1.4 1.4 2.1.5 2.7-.9.5-.7 1 .7 1.5 1.5.6 1.5.8.3.8-.9.1-2.2-.6-2.9-1.4-.7-.8-2.7-1.5-4.4-1.5-1.7 0-5.6-1.2-8.6-2.6-3.1-1.5-7.8-2.7-10.8-2.9-2.9-.2-5.9-.8-6.5-1.3-1.6-1.2-9.7-2.2-9.7-1.2 0 .4 2 1.1 4.4 1.4 2.4.4 5.2 1.3 6.2 2 1.1.8 3.1 1.2 5 .9 2.2-.4 4.9.3 8.7 2.1 3.1 1.4 6.4 2.6 7.4 2.6 3 0 6.3 1.2 6.3 2.2 0 .6-1.2.8-2.7.4-7.5-1.7-9.3-1.8-9.3-.7 0 .6 1.1 1.1 2.4 1.1 1.3 0 4.3.7 6.7 1.5 3.1 1.1 4.4 1.2 5 .4 1.3-2.1 12.3.8 16.4 4.3 3.2 2.8 6.2 6 10.7 11.1 2.2 2.6 6 5.6 8.3 6.6 2.3 1 5.8 3.5 7.9 5.5 2 2 4 3.5 4.5 3.2.5-.3 1.6.5 2.5 1.9 1.8 2.7 2.2 7.5.6 7.5-.5 0-1-.4-1-1 0-.5-.7-.7-1.5-.4-.8.4-3.6-.8-6.2-2.4-6.6-4.2-17.4-9.2-19.9-9.2-1.2 0-2.7-.6-3.3-1.4-.6-.7-3.2-1.9-5.7-2.6-4.6-1.3-5.4-3.3-1.6-3.8 1.2-.2 2.2-.6 2.2-.9 0-1.3-5.7-5.3-7.5-5.3-2.2.1-2.1.1 3.2 3.8 1.6 1.1 1.3 1.2-1.9.7-3.3-.5-3.8-.3-3.8 1.5 0 1.1-.3 2-.7 2-.5 0-3.7-3-7.3-6.7-7.3-7.4-14.3-12.3-17.6-12.3-1.2 0-3.6-1.1-5.2-2.5-2-1.6-3.3-2.2-3.7-1.5-.9 1.5-3.8-.9-3.1-2.6.6-1.6-2.6-3.6-8.1-5.2-4.7-1.4-6.6-3.2-3.3-3.2 1.2 0 1.8-.5 1.5-1-.3-.6-2-1-3.7-1-1.6 0-4.1-.9-5.5-2-1.4-1.1-3.5-2-4.7-1.9-1.5 0-1.7.2-.6.6 2.1.8 16.8 11.2 17.5 12.4.9 1.3-.9 1.1-2.3-.3-.9-.9-1.2-.8-1.2.4 0 2.4 2.6 2.9 4.5.8 1-1.1 2.2-1.7 2.7-1.4.5.3.1 1.2-.9 2-1.7 1.2-1.7 1.3-.1 1.4 2.4 0 11.5 5.7 12.2 7.6.5 1.3.9 1.4 2.1.4 1.3-1 2.2-1 4.8.3 1.7.9 4 1.8 5 2.1 2.7.8 2 2.2-1 2.1-1.6 0-3.7-.8-4.7-1.7-2.2-2-4.5-1.2-2.4.8 1.9 1.9 1.2 9.5-.8 8.7-.8-.3-1.4-1.9-1.4-3.7-.1-4.2-2.4-7.3-4.4-5.7-.8.7-1.7.8-2 .3-.3-.6.1-1.2.9-1.6.8-.3 1.5-1 1.5-1.6 0-.6-.5-.8-1.1-.4-.6.3-1.5.1-1.9-.5-.4-.7-1.8-1.3-3.1-1.4-1.3-.1-2.8-.5-3.4-.9-5.4-4.1-7.5-6.2-7.5-7.3 0-.7-1.4-1.8-3.1-2.6-1.8-.7-4.5-2.5-6.2-4-3-2.8-8.3-4.7-9.5-3.5-.3.4.4.9 1.7 1.3 1.2.3 2.7 1.6 3.2 2.9.4 1.3 1.7 2.4 2.6 2.4 2.1 0 9.2 4.5 10.9 6.9.7.9 2.6 3.2 4.2 5.1 1.7 1.9 2.9 3.6 2.6 3.9-.2.2-3.5-1.7-7.4-4.2-3.8-2.6-7.4-4.7-7.8-4.7-.5 0-2.7-1.2-4.8-2.6-2.1-1.5-4.5-2.7-5.2-2.8-.8-.2-4.9-2.6-9.3-5.6-4.4-2.9-8.3-4.9-8.7-4.5-.4.4.2 1.2 1.2 1.9 1 .6 3.8 2.7 6.2 4.6 2.3 1.9 5.3 4.3 6.6 5.3l2.3 1.7-3.8-.5c-2.1-.3-10.3-3.9-18.3-8.1-7.9-4.2-14.4-7.1-14.4-6.5 0 .6.5 1.1 1.1 1.1.6 0 4.5 2.1 8.7 4.7 4.2 2.6 9.3 5.5 11.3 6.4 1.9 1 5.7 3.6 8.4 5.8 2.7 2.3 5.3 4.1 5.7 4.1.5 0 .8.7.8 1.7 0 1.5-.1 1.5-1.8 0-1-1-2.2-1.4-2.5-1-1.1 1 2.4 4.3 4.4 4.3 1.9 0 5.9 6.8 5.9 10 0 .9 1.3 4.1 2.9 7.1 1.6 3 3.1 6.9 3.5 8.7.6 3.3.5 3.3-2.7 2.8-1.7-.3-2.6-.3-1.9 0 .6.3 1.2 1 1.2 1.5 0 1.5-2 1-4.2-1.1-1.2-1.1-2.5-2-3-2-1.8 0-.5 1.7 3.8 4.7 3.1 2.3 4.4 2.8 4.4 1.8 0-.8.8-1.5 1.8-1.5 1.1 0 2.7-.9 3.7-1.9 1.5-1.7 1.6-2.8.7-7.7-.8-5-.8-5.5.4-3.9.8 1 1.4 2.3 1.4 2.8 0 .4.4.6.9.3.5-.4-.1-2.7-1.4-5.4-1.3-2.6-2.1-4.9-1.8-5.2.7-.8 4.2 4.3 5.4 8 1 3.2 2.9 6.3 2.9 4.8 0-.4-.9-2.7-2-5.3-2.3-5.4-2.3-5.5-1-5.5 1.5 0 9 16.3 9 19.5 0 1.5.4 2.4 1 2 1.7-1 1.1-3.9-1.9-10.1-3.4-7-4.3-9.4-3.4-9.4.9 0 9.7 7.3 10.2 8.4.2.6 1.9 2.6 3.8 4.5 1.8 1.9 3.3 4 3.3 4.8 0 .7.5 1.3 1 1.3.6 0 1-.3 1-.8 0-1.2-3.2-5.5-5.5-7.4-2.7-2.3-1.4-2.2 4.6.3 3.2 1.4 4.8 2.7 4.5 3.5-.6 1.5 15.3 13.2 20.4 15 1.9.7 3.6 1.9 3.8 2.8.3 1.2 1 1.5 2.3 1.1 1-.4 1.9-.2 1.9.4 0 .6.9 1.5 2 2.1 1.7.9 2 .8 2-.8 0-1.3-2.5-3.1-8.2-6.2-13.9-7.4-23.4-14-20-14 .6 0 1.4.5 1.8 1.1.3.6 4.6 3 9.5 5.4 13.1 6.4 17.5 9.5 18.7 13.2.6 2.1.6 3.3 0 3.5-.5.2.1 1.2 1.4 2.3 1.8 1.6 2 1.6.9.2-.8-.9-1.1-2-.8-2.4.9-.8 3.7 1.7 3.7 3.3 0 .7 2.4 3.7 5.3 6.6 2.9 2.9 5.6 6.1 6 7 .3 1 1.3 1.8 2.2 1.8.8 0 1.5.4 1.5 1 0 .5.5 1 1 1 .6 0 1-.7 1-1.7 0-1.4.2-1.4 2 .2 1.1 1 1.9 2.3 1.7 2.9-.3.6.3 1.9 1.1 2.9 1.4 1.6 1.4 1.9-.4 3.2-1 .8-1.4 1.5-.7 1.5 1.6 0 2.9 2.6 3.7 7.5l.7 4-1.8-3.5c-1.2-2.3-2.4-3.4-3.6-3.2-1.2.2-1.7-.4-1.7-2.1 0-1.7-1.1-2.8-4.5-4.5-5.3-2.6-6.2-2.7-4.6-.8.7.8 2.3 1.7 3.6 2 1.7.4 2.7 1.6 3.3 3.9.8 3 .7 3.2-1.8 3.5-1.4.2-3.7-.1-5-.7l-2.5-1 2.5-.2c4.3-.4 4.5-.4 4.8-1.4.2-.6-.6-1.6-1.8-2.4-1.8-1.2-2.1-1.2-1.8 0 .4 2-3.4 1.2-5-1.1-.8-1.1-3.5-3.6-6-5.7-2.6-2-3.9-2.8-2.9-1.7 2.3 2.8 2.2 3.4-1 3.4-2.1 0-4.5-1.8-9.7-7-3.8-3.9-6.4-7-5.8-7 .7 0 3.9 2.7 7.3 6 3.4 3.4 6.4 5.8 6.7 5.6.3-.3-.1-1.2-.8-2.1-.7-.9-1-1.9-.6-2.2.9-.9 7.7 2.7 8.3 4.4.3.6 2 2.4 3.9 3.8l3.4 2.6-2.1-3.5-2-3.4 4.8 1.3c2.6.7 5.6 1.6 6.6 2 .9.4 1.7.4 1.7.1 0-1.1-6.7-3.6-9.5-3.6-1.4 0-2.5-.5-2.5-1.1 0-.5-.4-.7-1-.4-1.6 1-6.8-2.3-8.7-5.5-.9-1.6-2.2-3-2.8-3-.6 0-2.6-1.3-4.5-3-1.9-1.6-4.3-2.9-5.4-3-1.6 0-1.4.3.8 2.1 3.5 2.8 2.6 3.7-1.1 1.2-3.7-2.6-18.4-9.6-18.9-9-.2.2.9 1.8 2.6 3.5 4.2 4.5 3.7 5.6-.7 1.6-3.4-3.1-5.3-4.2-5.3-2.9 0 1.2 8.6 8.5 10.1 8.5.9 0 3.9 2.5 6.5 5.5 4.5 5.1 8 7.8 7.2 5.5-.1-.5-3.4-4.1-7.2-8-3.7-3.9-6.6-7.3-6.3-7.6.8-.9 8.7 3.8 8.1 4.7-.3.6 2.5 4.3 6.3 8.3 6 6.2 7.1 8 8.1 12.7.6 3 1.4 6.5 1.8 7.8.6 2.1.5 2.3-1.7 1.6-1.3-.4-3.7-1.7-5.2-2.7-4.2-3-4.7-1.1-.7 2.3 5 4.2 16.8 10 17.4 8.6.3-.9.7-.9 1.3 0 .5.7 3.5 2.4 6.8 3.9 13 5.7 16.1 7.3 18.4 9.3 1.3 1.1 2.9 2.1 3.5 2.1.6 0-.4-1.4-2.3-3.1-2.6-2.4-3.1-3.5-2.5-5 1.1-2.3 2.2-1.6 5.7 3.9 3.4 5.2 7 6.1 3.9.9-1.1-1.7-2.3-4.3-2.7-5.7-.7-2.3-.7-2.3 2.1.6 6.6 6.9 6.8 6.8 6.2-2.1-.3-4.4-.2-7.1.3-6 .4 1.1.8 4.4.8 7.3.1 3.8.7 6.1 2.1 7.9 2.7 3.4 1.6 4.6-2.5 2.9-2.1-.9-3.7-1.1-4-.5-.4.5-.1.9.4.9 2 0 1.1 2.9-1.1 3.6-1.6.5-2.7.1-3.9-1.5-.9-1.1-2.5-2.4-3.6-2.9-1-.4-7.9-3.9-15.3-7.7-7.4-3.8-13.9-6.8-14.3-6.7-.5.1-2-.4-3.5-1.2-1.5-.8-4.9-2.3-7.6-3.3-2.6-1-5.6-2.9-6.5-4.3-2.5-3.8-6.3-6.9-9.8-7.9-1.8-.5-6.9-3.4-11.3-6.5-4.5-3.1-8.3-5.6-8.5-5.6-.2 0-2.1-1.1-4.1-2.5-2-1.4-4.5-2.5-5.4-2.5-1 0-7.9-3.6-15.4-8-7.6-4.4-13.9-8-14.2-8-1.7 0 1.9 2.6 11.6 8.6 6.1 3.7 11.3 7 11.6 7.5.6 1-19.5-8.4-25.6-12-2.5-1.4-6.7-3.8-9.5-5.2-3.8-2-4.9-3.1-4.8-4.7.2-1.5-.8-2.5-3.6-3.9-3.9-1.8-5.1-3.9-4.3-7.6.5-2.5 1.4-2.2 7.3 2.5 4.6 3.6 5 4.2 3.3 4.9-1 .4-1.4.8-.7.8.6.1 1.9.8 2.7 1.7 1.9 1.9 3.6 1.1 2.9-1.5-.5-2 2.1-5.1 4.3-5.1.9 0 3.4 1.3 5.7 2.9 2.3 1.5 6.1 3.8 8.3 4.9 2.3 1.2 4.8 2.7 5.5 3.5.8.7 2.8 2.2 4.4 3.2 1.7 1.1 7.1 4.9 12 8.6 14.3 10.5 17.3 12.2 22.7 12.4 4.6.2 5.8.8 16.5 7.5 1.2.8 2.5 1.1 2.9.8.8-.8-3.4-7.8-4.7-7.8-1.5 0-1 2 .6 2.6.8.4 1.5 1 1.5 1.5 0 2-2.3.7-6.7-3.9-2.6-2.6-4.4-4.2-4-3.5.4.6.3 1.4-.3 1.8-.9.6-9-6.8-9-8.3 0-.4-1.3-1.6-2.9-2.5-1.7-1-3.2-2.5-3.5-3.5-.3-1-1.6-1.8-2.8-1.9-1.3 0-1.7.1-1 .4.6.3 1.2.9 1.2 1.4 0 .6 1.4 2.2 3 3.6 4.9 4.1 2.7 3.8-3.7-.5-5.5-3.7-9-5.8-15.2-9.1-2.4-1.3-9.5-5.9-14.9-9.8-2-1.4-2.5-1.4-3.3-.2-.5.8-.9.9-.9.3 0-.6-2.4-2.3-5.2-3.9-2.9-1.5-6.5-3.6-8-4.7-3.6-2.5-5.6-2.4-3.3.2 1.5 1.6 1.5 2.2.5 3.5-1.7 2.1-2 2-6.5-2-2.2-1.9-7.4-5.5-11.5-8.1-4.1-2.6-8.4-5.5-9.5-6.4-1.8-1.6-7.7-4-6.5-2.7 1.3 1.3 14.5 10.7 15.2 10.7 1.4 0 2.1 5.2.8 6-1.4.9-.7 2 4.5 7.1 2.5 2.5 2.8 3.1 1.5 3.9-1.3.8-1.3 1.1.1 2.5.8.8 4 2.9 7 4.5 4.8 2.7 9.9 5.2 35.5 17.6 3.9 1.9 7.4 3.4 7.9 3.4 1.3 0 8 4.7 14.8 10.2 8.5 7 4 6.3-9-1.2-10.2-6-14.2-7.4-14.9-5.5-.4 1 15 9.5 17.1 9.5.6 0 2.2.6 3.6 1.4 1.4.7 3.7 1.6 5.1 1.9 1.4.4 3.4 1 4.4 1.4 1.3.5 1.6.3 1.2-.8-.5-1.2.2-1.4 2.8-1.1 3.9.5 4.5-.4 1.2-1.8-2.2-.9-2.2-.9.3-.9 1.8-.1 4.3 1.4 7.7 4.4 4.8 4.3 5 4.7 4 7.5-.5 1.7-1.6 3-2.3 3-.7 0-1.5.7-1.9 1.5-.4 1.1.2 1.5 2.6 1.5 3.7 0 15.3 7.4 15.3 9.8 0 1 .9 1.8 2.2 2 1.2.2 3.8 2.3 5.8 4.8 2 2.4 5.1 5.2 6.8 6l3.2 1.7-2.4-2.6c-2.1-2.3-2.2-2.7-.7-3.3.9-.3 3-.1 4.7.6 4.3 1.8 4.5.7.1-1.4-2-1-4.4-2.2-5.2-2.7-8.7-5-11-6.6-11-7.4 0-.6-1.5-1.9-3.2-3-8.7-5-13.8-11.5-9-11.5 2.5 0 16.2 7.7 19.8 11.1 2.4 2.3 3.7 2.9 5.6 2.4 1.7-.4 3.8 0 5.9 1.2l3.4 1.8-2.9.3c-4.6.6-9-.6-12.7-3.4-6.2-4.6-16.1-10.5-16.7-10-.6.7-1.3.2 7.5 5.9s16.6 9.4 21.4 10.2c2 .3 6.5 2.5 10.1 4.9 3.5 2.4 8.2 4.9 10.4 5.6 6 2 29.2 16.8 29.3 18.7.1.6 1.4 2 3.1 2.9 2 1.2 2.6 2.1 2 2.9-.5.6-1.1 7.2-1.3 14.6-.3 7.4-.1 12.5.4 11.4.4-1.1.8-7.1.8-13.3l.1-11.2h2.5c2.8 0 3.4 2.4 1.1 3.7-1 .6-1.5 2.9-1.7 7.8-.1 3.9-.8 10.4-1.5 14.5-.8 4.1-1.6 8.7-1.9 10.2-.2 1.6-.1 2.8.4 2.8 1 0 2.8-10.3 4-22.3.9-9.6 2.1-12.7 2.1-5.6s-2.1 31.2-2.8 32.4c-.4.5-.7 2.5-.9 4.2-.2 3.5 1.4 5.4 2.7 3.3.6-1 1.7-.9 4.9.7 2.6 1.3 4.2 1.6 4.4.9.2-.7 1-.4 2.1.6 1.4 1.5 1.5 2 .4 3.8-.7 1.1-1.6 2-2.1 2-.4 0-.6.4-.2.9 1.2 2-1.3 1.9-5.6-.1-2.4-1.2-8.3-4.3-13-7-5.2-2.9-9.3-4.6-10.3-4.2-1.9.7-2.1-.7-.4-2.4.8-.8 1.7-.8 3.2-.1 1.8.9 1.8.8-.3-1-1.3-1.2-1.8-2.1-1.2-2.1.7 0 .9-.9.6-2.3-.4-1.3.1-4.4 1-7 .9-2.7 1.6-7.1 1.5-10-.2-8.6 1.2-19.9 2.2-18.9.6.6.8 3.5.6 6.6-.1 3.1 0 5.6.5 5.6.4 0 .7-2.9.7-6.5 0-4.9-.4-6.7-1.5-7.1-.9-.4-1.5-1.9-1.6-3.8 0-1.7-.3-2.5-.6-1.9-.2.7-.9 1.3-1.5 1.3s-.8-.7-.5-1.5c1.3-3.2-1.1-2.2-3.1 1.4-2.3 4.1-2.8 7.1-1.2 7.1.6 0 1-.6 1-1.3 0-.7.7-2.2 1.5-3.3 1.4-1.8 1.5-1.6 1.1 1.8-.6 4.8-1.4 6.1-3.5 5.4-.9-.4-.6.2.7 1.2 2.1 1.7 2.3 2.3 1.6 6.8-.4 2.7-1.3 6.6-2 8.7-1.2 3.3-1.1 3.9.1 4.3 1.7.7 2.1 6.9.5 7.9-.6.3-1.7-.1-2.6-.9-.8-.9-2.2-1.6-2.9-1.6-2.5 0-2.7-2-1-9.5.9-4.1 1.4-7.9 1-8.4-.3-.5-.1-1.2.5-1.6.6-.4.4-1.5-.6-3-1.4-2.2-1.4-2.5.5-4.1 1.1-1 1.7-2.2 1.4-2.7-.3-.5 0-2.8.7-5.2 1.5-5.4.8-8.2-1.1-4l-1.3 3-.6-4.6c-.3-2.5-1.3-5.7-2.2-7-3.4-4.8-4.7-6.1-5.5-5.6-.5.3-2.2-1-3.8-2.9-2.7-3.2-6.5-4.6-6.5-2.4 0 1.5-2.8 1.2-5.7-.7-2.1-1.4-2.5-1.5-2.2-.3.3.8 2.2 2.3 4.2 3.3 2.7 1.4 3.7 2.5 3.7 4.2 0 1.3 1.7 5.4 3.9 9.1 3.1 5.6 3.6 7.1 2.5 8.1-.7.8-1.1 2-.8 2.8.4.8.3 2.3-.1 3.2-.4 1-.9 2.9-1.1 4.3-.7 5-3.1 12.5-4 12.4-2.2-.3-5.4-1.7-5.4-2.4 0-.5-1-1.2-2.2-1.6-1.3-.4-3.4-1.5-4.8-2.6-2.2-1.7-2.5-1.8-3-.3-.5 1.4-1.4 1.1-5.9-2-4.1-2.8-5.5-3.4-6.6-2.5-.8.7-1.9.9-2.5.5-.7-.4-1.4.2-1.7 1.4-.6 2.4-2.1 2.7-4.8.7-1.8-1.3-1.8-1.4.4-5 1.5-2.4 2.2-4.7 1.9-6.6-.3-1.6 0-3.1.6-3.3.6-.2-.3-1.8-1.9-3.5-3.5-3.7-5.2-4.2-3.1-1 2.4 3.9 2.9 10.2 1.1 13.7-.8 1.7-2 3.1-2.6 3.1-.5 0-7.6-3.2-15.7-7.2-10.9-5.3-15.5-8-17.3-10.5-3-4.1-4.5-4.7-7.2-2.8-1.2.8-1.6 1.5-1 1.5.6 0 4 1.8 7.5 3.9 3.5 2.1 10.4 6 15.4 8.5 14.3 7.4 30.7 16.9 33.5 19.4.9.9 7.5 4.8 14.6 8.6 14.7 7.9 13.8 7.4 13 8.2-.4.4-1.2.2-1.9-.3-.7-.6-4-1.8-7.3-2.8-3.3-.9-7.5-2.4-9.3-3.2-1.8-.8-5-1.7-7-2-2-.3-4.7-1.4-5.8-2.5-1.4-1.2-2.4-1.6-2.8-.9-.4.6-2 .1-4.3-1.4-2-1.4-4.6-2.5-5.9-2.5-1.2 0-2.6-.5-2.9-1-.3-.6-2.6-1.9-5.1-3-2.5-1.2-5.5-3.2-6.6-4.5-1.2-1.4-2.9-2.5-3.7-2.4-1.1 0-1.2.2-.3.6.6.2 1.2.9 1.2 1.4 0 .5-1.5.3-3.4-.5s-3.6-1.2-3.9-1c-.2.2-3.9-1.2-8.1-3.2-4.3-1.9-8.7-3.4-9.9-3.1-1.9.3-1.8.4.8 1.1 1.7.4 5.8 2 9.3 3.7 3.4 1.6 6.8 2.9 7.6 2.9 1.8 0 10.4 3.8 11 4.9.3.5 1.7 1.2 3.2 1.5 1.4.4 4.2 1.7 6.2 3s5.4 2.7 7.5 3c2 .4 3.7 1.1 3.7 1.6s-1.4.7-3.2.3c-2-.4-2.9-.3-2.5.4.4.6 2.1 1.3 3.8 1.7 3.7.7 5.9 2.3 5.9 4.2 0 2.1-2.6 1.7-7.1-1.1-5.1-3.3-25.1-12.7-25.7-12.1-.2.3 4.7 3 11 6 12.2 6.1 13.1 6.5 19.7 11 4.3 2.9 4.4 2.9 3.8.7-.5-2.2-.5-2.2 1.4-.5 1 .9 2.2 1.4 2.5 1.1.4-.3 1.5.4 2.5 1.6 1 1.2 1.8 1.8 1.9 1.3 0-.5.9-.1 1.9.8 1.1 1 1.7 2.5 1.4 3.4-.4.9-.2 1.3.5.8.6-.3 1.3-.2 1.7.4.3.5 1.5 1 2.7 1 1.1 0 2.2.8 2.5 2 .3 1.1 1.2 2 1.9 2 2.4 0 1.5-2.6-1.2-3.9-2.5-1.1-2.5-1.3-.9-2.4 1.5-1.2 1.2-1.5-2.7-3.1-2.3-1-5-2.2-5.8-2.7-6.3-3.9-8-5.3-7.7-6.3.6-1.7 7.7-.7 13.2 1.9 8.3 4 16.2 6 18 4.5 1.2-1 2.3-.7 5.9 1.4 4.2 2.4 6.6 4.6 5.1 4.6-.4 0-2.6-1.4-5.1-3-2.4-1.7-4.4-2.6-4.4-2 0 .6-.4.8-1 .5-.5-.3-1-.3-1 .2.1 1 10.1 7.7 18.3 12.3 3.5 1.9 7.6 4.5 9.3 5.6 3.1 2.3 12.6 7.2 28.9 15 5.5 2.6 12.3 6.3 15.2 8.1 5.8 3.9 9.6 4.1 10.1.5.3-1.7-.2-2.2-1.8-2.2-1.2 0-1.9.4-1.5.9 1.2 2.1-1.5 2-4.9-.1-4.4-2.8-4.7-4.4-.5-2.2 2 1 3.4 1.2 3.8.6.3-.6 1.8-1.3 3.3-1.7 3.6-.9 8.1-5.6 10.3-10.8 4.4-10.4 5-11.6 5.8-11.7 1.1 0 .8 2-1.3 9-1.4 4.5-1.6 6.6-.8 7.1.6.4.2.9-1.1 1.4-1.1.3-2.1 1.1-2.1 1.6 0 1.3 1.2 1.1 3.4-.6 2.6-2 3.6-1.9 3.6.4 0 1 .6 2.1 1.3 2.4 2.5.9 4.2-1.1 4-4.5-.3-3-.2-3.1.8-1.1 1.5 2.9.4 6.7-2.3 8.1-2.3 1.1-2.3 1.1.4 1.1 4.3.1 5.2-3.2 3.4-11.4-.5-2-.2-3.7.7-4.9 1.3-1.7 1.4-1.6 1.5 1.5.3 9.6.5 10.9 1.2 10.4.4-.2 1.3-1.8 2-3.5 1-2.4 1.5-2.8 2.2-1.8.7.9.8.4.5-1.5-.2-1.5 0-2.7.4-2.7.5 0 .9.9.9 2s.4 2 1 2c.5 0 .7-.7.4-1.5-.5-1.1-.2-1.3 1-.9 1.8.7 2.1 2 .5 2.9-.5.4-1.5 1.8-2 3.2-.8 2.1-1.2 2.3-2.4 1.3-.9-.8-1.5-.8-1.5-.2 0 .6.5 1.2 1 1.4.7.2.5 1.9-.5 4.7-1.4 4.2-1.4 4.3.5 3.8 1.4-.4 2 0 2 1.2 0 .9.5 2.2 1.2 2.9.6.6.9 1.4.6 1.7-.6.6-8.5-2.5-13.1-5.1-1.5-.9-3.4-1.3-4.1-1.1-.8.3-1.8.1-2.4-.5-.7-.7-1.6-.7-2.8 0-1.6.9-1.2 1.1 2.1 1.7 2.2.4 4.5 1.2 5 1.9.6.6 2.7 2 4.8 3 2.1 1.1 4.3 2.8 4.8 3.8s1.6 1.5 2.4 1.2c1.1-.5 1.3-.2.9 1.1-.6 1.4-.3 1.6 1.4 1 1.4-.4 2.2-.2 2.2.5 0 .6.5.8 1 .5.6-.3 1-.1 1 .4 0 .6.5 1.1 1.1 1.1 1.9 0 9.9 5.4 9.9 6.6 0 .6.7 1.7 1.5 2.4s1.5 2.7 1.6 4.4l.1 3.1 1.4-3c1.7-3.6 1.5-8.4-.4-10.7-1.1-1.4-1.2-3.1-.2-10.5 2.6-19.3 2.6-20.2-1.5-28.3-2-4.1-4.1-7.8-4.8-8.2-.8-.5-.8-1.3.1-3.3 1.9-4.2 1.4-6.6-2.3-10-2.5-2.4-3.6-4.5-4.1-7.7-.4-2.3-1.4-5.1-2.3-6.1-2.2-2.6-9.9-7.7-11.6-7.7-.8 0-1.9-.9-2.5-2.1-.6-1.1-3-2.9-5.3-4s-5.7-3-7.5-4.3c-1.8-1.4-3.7-2.6-4.2-2.8-.4-.2-.9-4.8-1.1-10.3-.2-8.2.1-11.4 2-17.5 3.4-11.1 3.7-14.7 1.4-17.3-1.1-1.2-2.7-3.4-3.6-4.9-1-1.5-3.1-3.5-4.8-4.3-2.6-1.4-4.5-2.9-8.1-6.3-4.2-3.9-5.7-7.3-6.5-14.3-.8-7.2-.9-7.4-3.8-7.9-4.3-.7-5.9-4.5-3.5-7.9 1.1-1.4 2.7-6.2 3.5-10.5 1.5-7.1 1.5-8.4.2-12-2.3-6.2-2.8-9.4-1.7-9.8 1.4-.4 4-10.4 4-15.4 0-4.3-1.8-7.2-5.7-9.3-2.7-1.4-2.9-2.9-.6-7.6 1.4-2.9 1.5-4 .5-5.5-.7-1.1-1.2-5.1-1.2-9 0-11.9-5.6-25-10.7-25-.9 0-3.3-2-5.5-4.5-2.1-2.4-6.6-5.9-9.8-7.7-3.3-1.8-6-3.6-6-4.1 0-.5.8-2.9 1.9-5.5 1-2.6 2.4-7.7 3.1-11.3 1.1-6.4 1.1-6.8-1.6-12-1.4-3-3.5-6.5-4.5-7.8-1.5-1.8-1.9-4.1-1.9-10.1 0-8.3-1-10.2-7.2-12.8-1.5-.6-4.4-2.6-6.5-4.5-3.9-3.4-16.2-10.7-29.3-17.3-4.1-2.1-9.7-5.2-12.5-7-2.7-1.7-8.1-4.6-12-6.5-3.8-1.8-8.3-4.4-9.9-5.7C151.9 4 144.7 0 143.5 0c-.3 0-.5.3-.5.7zm73.1 48.6c-.8.8-1.1.5-1.1-.9 0-2.7 1.4-4.1 1.8-1.9.2.9-.1 2.2-.7 2.8zm8.9.6c0 .3-.6 1.6-1.4 2.7-.8 1.1-1.6 3.1-1.8 4.4l-.4 2.5-1.2-2.8c-.7-1.6-1.2-4.4-1.2-6.2 0-3.3.1-3.4 3-2.4 1.7.6 3 1.4 3 1.8zm-22.7 9.5c.3.7 0 1.9-.6 2.5-.9.9-.8 1.5.6 2.2 2.4 1.4 2.2 3.3-.2 1.9-2.5-1.3-5.8-7.5-3.6-6.6.8.3 1.5.1 1.5-.4 0-1.5 1.7-1.2 2.3.4zM165 64c0 .5-.2 1-.4 1-.3 0-.8-.5-1.1-1-.3-.6-.1-1 .4-1 .6 0 1.1.4 1.1 1zm3 1c0 .5-.2 1-.4 1-.3 0-.8-.5-1.1-1-.3-.6-.1-1 .4-1 .6 0 1.1.4 1.1 1zm53.3 2.2c1.5 1.7 2.5 3.4 2.2 3.7-.6.6-6.5-4.9-6.5-6.1 0-1.7 1.8-.7 4.3 2.4zm-.8 3.8c.3.5.1 1-.4 1-.6 0-1.1-.5-1.1-1 0-.6.2-1 .4-1 .3 0 .8.4 1.1 1zm5.5 2c0 .5-.2 1-.4 1-.3 0-.8-.5-1.1-1-.3-.6-.1-1 .4-1 .6 0 1.1.4 1.1 1zm-45.5 3c1.6 1.6 2.6 3.2 2.3 3.5-.5.6-6.8-4.9-6.8-5.9 0-1.4 1.8-.4 4.5 2.4zm40.5 1c0 1.7.7 4.7 1.5 6.7.8 1.9 1.5 4 1.5 4.5s-.7.3-1.5-.6c-.8-.8-1.5-2.1-1.5-3 0-.8-.4-1.7-.9-2-1.4-.9-2-5.6-.7-5.7.7 0 .6-.3-.2-.6-1.3-.5-.7-2.3.9-2.3.5 0 .9 1.4.9 3zm-50.3 4.2c-.3.7-.5.2-.5-1.2s.2-1.9.5-1.3c.2.7.2 1.9 0 2.5zm64.7 2.3c-.4.8-1 1.2-1.5.9-1.1-.6-1.2-4.8-.2-5.8s2.4 3.1 1.7 4.9zm-41.9.6c.4.5.1.9-.5.9-1.5 0-6-3-6-4s5.7 1.7 6.5 3.1zm37.2-1.9c-.3.8-.6.5-.6-.6-.1-1.1.2-1.7.5-1.3.3.3.4 1.2.1 1.9zm-28.2.8c2.3 2.6.4 2.6-2.6 0-1.8-1.5-2-1.9-.8-2 .9 0 2.4.9 3.4 2zm-37.8 2.7c-.3 1-.5.4-.5-1.2 0-1.7.2-2.4.5-1.8.2.7.2 2.1 0 3zm25.1 1.3c1.8 1.1 3 2.5 2.7 3-.4.6-1 .6-1.8 0-.7-.6-2.3-1.9-3.7-3-3.3-2.5-1.4-2.6 2.8 0zm6.9.2c-.3.8-.6.5-.6-.6-.1-1.1.2-1.7.5-1.3.3.3.4 1.2.1 1.9zm5.3 2.5c0 1.3-.3 1.3-1.5.3-.8-.7-1.5-1.9-1.5-2.7 0-1.3.3-1.3 1.5-.3.8.7 1.5 1.9 1.5 2.7zm-16.5.8c.7.5 2 3.4 3 6.2 2.5 8 3.3 6.3.9-2-.3-.9-.1-1.7.5-1.7s1.5 1.8 2.1 4.1c.6 2.2 1.3 4.6 1.6 5.3.3.8-.4 1.6-1.8 1.9-3.1.8-6.1-2-5.3-5 .4-1.6.1-2.3-1-2.3-.8 0-1.5-.9-1.5-2.1 0-1.1-.5-2.9-1-4-.6-1.1-.8-2.5-.4-3.1.6-.9.9-.8 1.2.2.3.8 1.1 1.9 1.7 2.5zm-18.1-1.7c.3.5.2 1.9-.1 3.1-.4 1.7-.8 1.9-1.4.9-1.2-1.8-1.1-4.8 0-4.8.6 0 1.2.4 1.5.8zm40 3.7c-.7 1.6-2.4 2.1-2.4.6 0-.5-.3-1.7-.7-2.6-.5-1.5-.3-1.6 1.5-.6 1.3.7 1.9 1.7 1.6 2.6zm9 2.7c5.3 4.7 4.2 6-1.3 1.4-2.2-1.9-4.6-3.6-5.3-3.8-.9-.3-.8-.8.2-2 1-1.1 1.6-1.2 1.9-.5.2.7 2.3 2.8 4.5 4.9zm-14.6-.3c.2.6-.1 1.1-.7 1.1s-1.1-.5-1.1-1c0-.6-1.1-1.5-2.5-2s-2.5-1.5-2.5-2.1c0-1.3 6.3 2.4 6.8 4zM138.5 93c.3.5.1 1-.4 1-.6 0-1.1-.5-1.1-1 0-.6.2-1 .4-1 .3 0 .8.4 1.1 1zm49.5 12.5c1.6 1.7 2.7 2.2 3.4 1.5 1.3-1.3 6.6-1.3 6.6 0 0 .5.5 1 1.1 1 .6 0 .9-.8.7-1.7-.2-.9-.7-1.5-1.2-1.4-1 .3-4.6-4.8-4.6-6.7 0-.6.7-1.2 1.5-1.2.9 0 1.5.9 1.5 2.4 0 1.4.5 2.8 1.2 3.2.8.5.9-.2.5-2.5-.4-2-.3-3 .3-2.6.6.3 1 1.6 1 2.8 0 1.7.2 1.9.9.8.7-1.1 1.1-1 2 .7.6 1.1 1.1 2.7 1.1 3.6 0 .8.5 1.8 1.1 2.2.8.5 1-.1.7-1.7-.3-1.3-.9-4-1.3-5.9-.6-3.3-.6-3.4.9-1.6.9 1.1 1.6 2.8 1.6 3.8 0 1.1.5 1.5 1.4 1.2 1.7-.7 2.5 1.5 1.9 4.9-.6 3.1-2 3.6-2.6.9-.6-2.3.4 4.3 1.3 8.9.3 1.9.3 4.4-.1 5.5-.8 2-.9 1.3-1.3-6.6 0-1.6-.7-3.5-1.3-4.2-1-1-1.3-.6-1.3 2 0 1.8-.4 3.2-.9 3.2-.6 0-.7-1.5-.4-3.4.3-2.1.1-3.6-.7-4.1-1-.6-1.1-.1-.6 2 .6 2.5.5 2.7-.8 1.6-.9-.8-1.6-2-1.6-2.7 0-2.5-1.9-1.5-2.6 1.3-1 4.8-1.2 4.9-1.4.8-.1-3.8-.1-3.9-1.6-2s-1.5 1.9-.9-.8c.5-1.7.3-2.7-.4-2.7-.6 0-1.1.9-1.1 1.9 0 1.5-1.6.4-6.5-4.5-3.6-3.6-7-6.2-7.5-5.9-1.6 1-1.2-3.1.4-4.4 1.2-1 1.5-.7 1.9 1.6.3 2.3.4 2 .6-1.2l.2-4 2.2 5.7c1.3 3.1 3.3 6.9 4.7 8.3zm-49.9-9.2c3 1.3 6.3 2.7 7.4 3.1 2 .7 2 .8.1 2.2-2.6 1.9-3.3 1.8-3.9-.6-.3-1.1-1.3-2.3-2.4-2.7-2.3-.8-8-4.3-7.2-4.3.4 0 3.1 1.1 6 2.3zm84.5.5c-.4.3-1.4-.2-2.4-1.2-1.6-1.8-1.6-1.8.6-.6 1.3.6 2.1 1.4 1.8 1.8zM114 96.5c0 .8-.2 1.5-.4 1.5s-.6-.7-1-1.5c-.3-.8-.1-1.5.4-1.5.6 0 1 .7 1 1.5zm7.1 3c2.4 1.4 3.8 2.5 3.1 2.5-2 0-8.2-3.1-8.2-4.1 0-1.3.3-1.2 5.1 1.6zm92.7 1.3c3.6 2.7 4.5 5.2 1 2.8-1.2-.9-3-1.6-3.9-1.6-1.6 0-2.9-1.9-2.9-4.1 0-1.2 1.1-.6 5.8 2.9zm-104.3-.8c-1 1.1-2.3 2-2.8 2-.6 0-.2-.9.8-2s2.3-2 2.8-2c.6 0 .2.9-.8 2zm48.8 2.3c-.7 1.2-3.3-1.3-3.3-3.1 0-1.3.3-1.2 1.9.4 1 1 1.6 2.3 1.4 2.7zm-5.3-1.1c0 .6-.6.5-1.5-.2-.8-.7-1.5-1.4-1.5-1.6 0-.2.7-.1 1.5.2.8.4 1.5 1.1 1.5 1.6zm77-.2c0 .5-.4 1-1 1-.5 0-1-.5-1-1 0-.6.5-1 1-1 .6 0 1 .4 1 1zm-100.5 7.3c11.3 5.8 12.6 7.2 3.3 3.8-2.9-1.1-7.5-1.9-10.2-1.9-3.9.1-5.3-.3-6.7-2-.9-1.2-2.2-2.2-2.7-2.2-1 0-2.3-3.6-1.5-4.3 1-1.1 7.5 1.4 17.8 6.6zm39.6-3.9c.6 2.2.5 2.7-.7 2.2-.9-.3-1.8-.6-2-.6-.2 0-.4-1.2-.4-2.6 0-3.3 2.2-2.7 3.1 1zm-65.3-.6c.6 1.8-1.5 1.4-2.2-.4-.4-1-.1-1.4.6-1.2.6.2 1.4 1 1.6 1.6zm77.6-.2c.8.3 1.8 2.2 2.1 4.2.4 2.1.8 4.7 1.1 5.9.2 1.3 0 2.3-.5 2.3s-1.2-1.7-1.5-3.8c-1.2-6.7-1.6-7.4-3.2-6.1-1.1.9-1.4.7-1.4-1 0-2.2.7-2.5 3.4-1.5zm-21.3 2.8c5.6 2.7 12 6.3 13.2 7.5 1.8 1.8-.1 2.4-2.5.7-1.2-.9-3-1.6-4-1.6s-1.8-.5-1.8-1c0-.6-.6-1-1.4-1-.8 0-1.6-.4-1.8-.9-.1-.5-3-2.1-6.3-3.5-5.2-2.4-5.5-2.6-2.4-2.2 1.9.2 5.1 1.1 7 2zm15.4-.4c.3 1.1 1.3 2 2.1 2s1.4.6 1.4 1.4c0 .7.7 1.9 1.5 2.6 1.7 1.4 2 3 .6 3-.5 0-1.5-1.4-2.3-3-.9-2.1-2-3-3.5-3-1.8 0-2.3-.6-2.3-2.5 0-3 1.6-3.3 2.5-.5zm-66.5 0c0 .5-.2 1-.4 1-.3 0-.8-.5-1.1-1-.3-.6-.1-1 .4-1 .6 0 1.1.4 1.1 1zm36.8.6c1.2.8 3 1.3 4 1 1.1-.4 2.8.2 4.2 1.4 1.3 1.1 2.7 2 3.2 2 .4 0 .8.8.8 1.7 0 1.6.2 1.6 1 .3.9-1.3 1.2-1.3 2.4.2.7 1 1.9 1.8 2.7 1.8.8 0 .6.5-.6 1.4-1.5 1.1-2.4 1.1-5.7-.2-2.1-.8-3.8-2.1-3.8-2.8 0-2-3.2-4.8-4-3.4-.4.7-1.5.4-3.2-1-1.5-1.1-3.1-2-3.6-2-.6 0-1.4-.5-1.7-1-1-1.5 1.8-1.2 4.3.6zm68.2 2c0 1.3-.4 2.4-1 2.4-.5 0-1-1.4-1-3.1 0-1.7.4-2.8 1-2.4.6.3 1 1.7 1 3.1zm5-.6c0 .5-.4 1-.9 1-.4 0-.8 2.4-.9 5.2-.1 14.6-.2 15.9-1.2 15.3-.5-.3-1-3.9-1-7.8 0-4.5-.4-6.7-.9-5.8-.5.7-.7 4-.4 7.1.3 3.2.2 7.9-.1 10.4-.6 3.7-1 4.3-2.1 3.3-.9-.8-1-1.6-.3-2.5.6-.7.8-3.1.4-5.8-.3-2.9-.2-4.3.4-3.9.6.4 1-.6.9-2.2 0-2.5-.1-2.6-.9-.8-.7 1.6-.9 1.4-.9-1.5-.1-1.9-.4-4.6-.8-5.9-.6-2.3-.4-2.4 2.5-1.8 2.9.6 3.2.4 3.2-1.7 0-1.2.3-2.6.7-2.9 1-1 2.3-.8 2.3.3zm9.4-.4c.9.3 1.6 1 1.6 1.5 0 .4-.8.5-1.7.2-1.2-.5-1.5-.2-1 1 .4.9 1 2.4 1.3 3.2.3.8.1 1.5-.5 1.5s-1.1-.8-1.2-1.8c0-.9-.6-.2-1.3 1.6-.6 1.8-1.4 3-1.8 2.7-.4-.4-.3-1.7.2-2.9.4-1.2.6-3.4.3-4.9-.6-2.8.7-3.4 4.1-2.1zM117 111c0 .5-.4 1-1 1-.5 0-1-.5-1-1 0-.6.5-1 1-1 .6 0 1 .4 1 1zm72.1 4.4c.5.6.9 2.1.9 3.4 0 2.1-.2 2.2-1.5 1.2-1-.8-1.5-2.8-1.4-5.9.1-2.7.4-3.6.6-2.1.3 1.4.9 2.9 1.4 3.4zm50.3-1.9c2.8 2.1 1.3 3-1.7 1-2.4-1.5-2.6-1.5-3.6.2-.9 1.6-1 1.6-1.1-.5 0-2.6 3.4-3 6.4-.7zm-111 1c2.8.1 6.8 1 8.8 1.9 2.1.9 6 2.1 8.8 2.7 3.4.7 5 1.6 5 2.6 0 1.2-.3 1.3-1.4.4-.7-.6-2.6-.9-4.2-.6-1.8.4-6.7-.5-12.7-2.4-5.3-1.6-10-2.5-10.3-2-.6 1.1-3.4-1.4-3.4-3.1 0-.7.8-.9 2.2-.4 1.2.3 4.4.7 7.2.9zm92.9 3.6c-1.2 1.2-.4 7.1.8 6.3.5-.3.9.8.9 2.5 0 3.4-1.6 5-2.3 2.4-.4-1.5-.5-1.5-.6.2-.1 1.1-.6 2.7-1.1 3.5-.7 1-.8-1.3-.4-7.5.6-8.6 2.4-14.2 3.2-10 .2.9 0 2.1-.5 2.6zm-43.3-1c0 .6-.4.7-1 .4-.5-.3-1-1.1-1-1.6 0-.6.5-.7 1-.4.6.3 1 1.1 1 1.6zm15.3-.8c.4-.3.7.4.7 1.6 0 2.8-2 2.3-3.2-.8-.7-2-.6-2.2.5-1.2.8.6 1.7.8 2 .4zm36.6 12.1c-.9.8-1 .2-.5-2.9.3-2.2.7-5.4.8-7 .1-1.7.3-.3.5 2.9.3 3.7 0 6.3-.8 7zM201 121c-1.5 2.8-2.3 2-1.4-1.5.4-1.7 1-2.3 1.6-1.7.6.6.6 1.8-.2 3.2zm-27-.4c0 .8-.4 1.2-1 .9-.5-.3-1-1-1-1.6 0-.5.5-.9 1-.9.6 0 1 .7 1 1.6zm58.7.6c-.3.8-.6.5-.6-.6-.1-1.1.2-1.7.5-1.3.3.3.4 1.2.1 1.9zm-64.2-.3c.3.5.1 1.2-.5 1.6-.5.3-1-.1-1-.9 0-1.8.6-2.1 1.5-.7zm71.2 2.8c-.3 1-.5.4-.5-1.2 0-1.7.2-2.4.5-1.8.2.7.2 2.1 0 3zm-43.7-1.2c0 .8-.4 1.5-1 1.5-.5 0-1-.7-1-1.5s.5-1.5 1-1.5c.6 0 1 .7 1 1.5zm10.7 2.6c.5 1.6 1.2 2.9 1.8 2.8 1.2-.1 2.4 3.2 1.8 4.8-.8 2-2.9 1.5-6.1-1.2l-3-2.5 1.6-3.9c1.9-4.4 2.8-4.4 3.9 0zm-34.7-1.6c0 .8-.4 1.5-1 1.5-.5 0-1-.7-1-1.5s.5-1.5 1-1.5c.6 0 1 .7 1 1.5zm56-.1c0 .8-.4 1.8-1 2.1-.5.3-1-.3-1-1.4 0-1.2.5-2.1 1-2.1.6 0 1 .6 1 1.4zm15 .6c0 .5-.5 1-1.1 1-.5 0-.7-.5-.4-1 .3-.6.8-1 1.1-1 .2 0 .4.4.4 1zm-50.9 1c1 .6 1.9 1.9 1.9 2.9 0 1.4-.6 1.7-2.5 1.3-1.8-.3-2.5-1.1-2.5-2.8 0-2.7.3-2.8 3.1-1.4zm-15.6 1.1c1.1 1.7 0 2-2.1.4-1.7-1.3-1.7-1.4-.2-1.5.9 0 2 .5 2.3 1.1zm-10.4 6.1c4.3 2.3 7.9 4.5 7.9 5 0 1.5 4.4 4.8 6.4 4.8s2-.2-.4-2c-1.4-1-2.3-2.1-2-2.3.7-.7 35.3 16.7 38.4 19.2 1.5 1.3 1.5 1.5 0 3.2-1 1.1-1.6 3.6-1.6 6.6 0 2.6-.7 6.3-1.6 8.1-1.1 2.5-1.2 3.6-.3 4.5 1.7 1.7 1.3 2.7-.6 2.1-5.3-1.8-8.4-3.8-10.2-6.7-1.1-1.8-3.5-4.4-5.3-5.9-8.3-6.6-12.9-9.8-13.8-9.8-.6 0-1.3-.7-1.6-1.5-.4-.9-1.2-1.4-1.9-1.3-.7.2-2.3-.8-3.5-2.2-1.2-1.4-5.8-6.2-10.2-10.7-6.1-6.3-8.9-8.4-11.5-8.9-2.7-.5-3.2-.9-2-1.5 1.8-1.1 6.5.5 8.1 2.6.6.8 2.7 2 4.6 2.5l3.5 1-3-2.5c-1.6-1.4-4.6-3.2-6.6-4.1-3.4-1.4-3.6-1.7-2.5-3.9.6-1.4 1.2-2 1.4-1.5.2.5 3.9 2.8 8.3 5.2zm23.8-.6c2.6 1.3 4.9 3.4 3.8 3.4-.5 0-2.1-.7-3.6-1.5-1.6-.8-3.1-1.1-3.5-.8-.3.4-.6-1.1-.5-3.3.1-3.3.2-3.5.8-1.4.4 1.4 1.7 3 3 3.6zm43.1.5c-.7 2.2-1.7 3.9-2.1 3.9-.5 0-1.7 1.7-2.8 3.7-1.9 3.6-2 3.6-2.1 1.2 0-1.4.5-4.1 1.1-5.8.9-2.5 1.6-3.1 3-2.8 1.5.4 1.9 0 1.9-2.2 0-1.5.3-3.1.7-3.5 1.4-1.4 1.5 1.6.3 5.5zm14.3-3.1c-.3 1.1-.9 2-1.4 2-.5 0-.9-.9-.9-2s.6-2 1.4-2c.9 0 1.2.7.9 2zm11.7-.4c.8.8 1.7 3.4 2.1 5.7.4 2.3 1 5.2 1.4 6.4.4 1.4.3 2.3-.3 2.3-.5 0-1.2-.8-1.5-1.8-.3-.9-1.5-4.4-2.6-7.6-1.2-3.3-2.1-6.1-2.1-6.3 0-.9 1.9-.1 3 1.3zm-4.3 5.1c-.3 1-.5.4-.5-1.2 0-1.7.2-2.4.5-1.8.2.7.2 2.1 0 3zm-11.6 1.4c-2.3 2.5-2.9 1.1-.9-2.1.7-1.1 1.6-1.6 2.1-1.1.6.6.1 1.9-1.2 3.2zm-67.1-.9c0 .6-.6.5-1.5-.2-.8-.7-1.5-1.4-1.5-1.6 0-.2.7-.1 1.5.2.8.4 1.5 1.1 1.5 1.6zm41.8 3c1.4.3 1.3.6-.5 1.6-2.2 1.2-2.3 1.1-2.2-3 .1-2.9.3-3.4.6-1.6.2 1.5 1.2 2.8 2.1 3zm5.8 2.6c-1.3 1.2-1.7-.8-1-4l.9-3.3.3 3.3c.2 1.9.1 3.6-.2 4zM236 134c0 .5-.2 1-.4 1-.3 0-.8-.5-1.1-1-.3-.6-.1-1 .4-1 .6 0 1.1.4 1.1 1zm15 2c0 .5-.5 1-1.1 1-.5 0-.7-.5-.4-1 .3-.6.8-1 1.1-1 .2 0 .4.4.4 1zm-170.4 3.1c1.1 1.1 2.8 1.9 3.8 1.9 1.3 0 1.1-.5-1.1-2.5-2.3-2-2.5-2.4-1-2.5 3 0 11.8 5 20.3 11.5 4.4 3.5 9.7 7 11.7 7.9 2.1.8 6.1 3.1 9.1 5.1 2.9 1.9 5.9 3.5 6.7 3.5.8 0 3.2 1.2 5.4 2.7 2.1 1.4 5.9 3 8.4 3.5 2.5.4 6.3 2.1 8.5 3.6s5.8 3.7 8 5c2.3 1.3 4.8 3 5.6 3.9 1.4 1.4 1.2 1.5-1.4.9-1.6-.4-4-1.6-5.4-2.6-1.3-1.1-2.8-1.7-3.3-1.4-.5.3-1.9-.2-3.1-1-1.2-.9-3.3-1.6-4.6-1.6-1.3 0-3.7-1-5.4-2.1-2.5-1.8-3.2-1.9-3.9-.8-.8 1.2-1.1 1.1-2-.4-.5-.9-1.8-1.7-2.7-1.7-.9 0-3-.7-4.6-1.5-3.3-1.8-5-1.9-4-.4.3.6-1.3-.3-3.6-2s-4.7-2.8-5.2-2.5c-.5.3-5.3-2.2-10.8-5.5-5.4-3.4-10.3-6.1-10.9-6.1-.6 0-2.8-1.5-4.8-3.4-2.1-1.8-4.3-3.5-5-3.7-1.3-.5-11.3-9.7-11.3-10.5 0-1 4.5.8 6.6 2.7zm75.9-2c1.1 1.6.3 1.7-3.5.3l-3.5-1.2 3.2-.1c1.7-.1 3.5.4 3.8 1zm99.2 2.6c-.3 1-.5.4-.5-1.2 0-1.7.2-2.4.5-1.8.2.7.2 2.1 0 3zm-54.4-.6c2 .5 3.7 1.4 3.7 1.9 0 1.3-.8 1.2-5.5-1-4.5-2.1-3.8-2.5 1.8-.9zm34.7 3.8c0 2.8-.5 5.3-1.1 5.6-.7.5-.8-.4-.4-2.7.5-2.5.2-3.8-.9-4.7-2.2-1.8-2-3.1.4-3.1 1.7 0 2 .7 2 4.9zm11.7-.2c-.3 1-.5.2-.5-1.7s.2-2.7.5-1.8c.2 1 .2 2.6 0 3.5zm-4.7 3.2c-.1 2.9-1.1 1.7-2.5-2.9-.7-2.2-.6-2.3.9-1.1.9.7 1.6 2.5 1.6 4zm-30.6-2.5c1.1-.4 1.6-.1 1.6 1.1 0 1.2-.5 1.5-1.6 1.1-.9-.3-2.2-.6-3-.6-.8 0-1.4-.7-1.4-1.6 0-1.3.3-1.4 1.4-.5.7.6 2.1.9 3 .5zm33.6 5.8c0 6.2-.5 6-1.3-.5-.4-2.8-.3-4.7.3-4.7s1 2.3 1 5.2zm9.7 0c-.2 1.3-.4.5-.4-1.7-.1-2.2.1-3.2.4-2.3.2 1 .2 2.8 0 4zm-27.3-2.7c-.4.8-1.1 1.5-1.6 1.5-.6 0-.5-.6.2-1.5.7-.8 1.4-1.5 1.6-1.5.2 0 .1.7-.2 1.5zm11.9 1.2c.5 2.6.4 2.6-.9.8-1.6-2.2-1.8-3.5-.5-3.5.5 0 1.1 1.2 1.4 2.7zm-19.6.5c-.3.8-.6.5-.6-.6-.1-1.1.2-1.7.5-1.3.3.3.4 1.2.1 1.9zm10.4.5c-.8 1.5-1 1.5-1.1.2 0-1.7 1-3.2 1.8-2.5.2.3-.1 1.3-.7 2.3zM113 148c0 .5-.2 1-.4 1-.3 0-.8-.5-1.1-1-.3-.6-.1-1 .4-1 .6 0 1.1.4 1.1 1zm136 3.2c0 3.8-.5 3.4-1.3-1-.4-2.1-.3-3.1.3-2.7.6.3 1 2 1 3.7zm-130-.2c0 1.3-.5 1.8-1.4 1.4-.8-.3-1.2-1.2-.9-2 .8-2.1 2.3-1.7 2.3.6zm13 .4c0 .7-.8 1.6-1.7 2-1 .3-2.4.9-3 1.2-1.4.6-1.9-2.7-.6-3.9 1.2-1.3 5.3-.7 5.3.7zm107-.4c0 .5-.2 1-.4 1-.3 0-.8-.5-1.1-1-.3-.6-.1-1 .4-1 .6 0 1.1.4 1.1 1zm12.6 2.7c-1.1 1.1-1.9-.6-1.1-2.4.8-1.7.8-1.7 1.2 0 .3 1 .2 2.1-.1 2.4zM136 152.4c0 2.3-5.8 7.9-7.5 7.2-1.9-.7-2-2.6 0-2.6 1.8 0 5.6-4 4.9-5.2-.3-.4.2-.8 1-.8.9 0 1.6.6 1.6 1.4zm-48 2.5c.5 1.1 1 2.7 1 3.5 0 2.8-1.6 1.7-2.7-1.9-1.2-3.7-.1-4.8 1.7-1.6zm54 1.4c0 .7-.6 1.9-1.2 2.6-1.1 1.1-.9 1.2.8.7 2.8-.9 5.5 1.4 4.8 4.1-.4 1.5-1.5 2.2-3.9 2.5-2.9.3-3.4.1-3.2-1.7.2-1.5-.4-2-2.3-2-3.2 0-4.1-3.4-1.1-4.2 1.2-.3 2.1-1.2 2.1-1.9 0-.8.9-1.4 2-1.4s2 .6 2 1.3zm96-.3c0 .5-.4 1-1 1-.5 0-1-.5-1-1 0-.6.5-1 1-1 .6 0 1 .4 1 1zm5 1.6c0 .8-.4 1.2-1 .9-.5-.3-1-1-1-1.6 0-.5.5-.9 1-.9.6 0 1 .7 1 1.6zm20.7.6c-.3.8-.6.5-.6-.6-.1-1.1.2-1.7.5-1.3.3.3.4 1.2.1 1.9zm-169.8 10c.1 1-.3 1.8-.9 1.8-.5 0-1-.6-1-1.3 0-.6-.7-2.5-1.6-4.2-1.3-2.5-1.3-3.3-.2-5.4 1.3-2.4 1.3-2.3 2.5 2.5.6 2.7 1.2 5.7 1.2 6.6zm147.6-6c.7.7.7.9 0 .7-6.8-2.6-8.5-3.4-8.5-4 0-1 7.1 1.9 8.5 3.3zm-15.8-.6c2.1.6 4 4.4 2.2 4.4-.5 0-.9-.6-.9-1.3 0-.7-1.2-1.8-2.7-2.4-3-1.2-2.1-1.6 1.4-.7zM150 163c0 .5-.4 1-1 1-.5 0-1-.5-1-1 0-.6.5-1 1-1 .6 0 1 .4 1 1zm70-.1c0 .6-.4 1.3-1 1.6-.5.3-1 1.7-1 3.1 0 1.3-.5 2.4-1 2.4-.9 0-.7-2.7.6-6.8.4-1.4 2.4-1.7 2.4-.3zm-63 1.6c0 .9-.6 1.2-1.6.8-1.1-.4-1.5-.1-1.2 1.3.2 1.1-.3 1.9-.9 1.8-4.3-.3-4.3-.3-2.1-2.9 2.4-2.7 5.8-3.4 5.8-1zm95-.5c0 .5-.4 1-1 1-.5 0-1-.5-1-1 0-.6.5-1 1-1 .6 0 1 .4 1 1zm-90.2 2.2c1.8 1.8 1.5 4.9-.3 4.2-.8-.4-1.5-.1-1.5.4 0 .6.8 1.3 1.8 1.5.9.3-.2.4-2.5.3-5.5-.2-6.1-1-2.5-3.2 1.8-1 2.8-2.3 2.5-3.1-.6-1.6.9-1.7 2.5-.1zm69.6 7.2c-.5 3.1-1 4.3-1.5 3.4-1-1.6-1.2-8.2-.2-9.2 1.5-1.5 2.3 1.3 1.7 5.8zm22.8-4.2c1.1 1.1 3.5 2.5 5.2 2.9l3.1.7-3.2.1c-2.3.1-4.2-.8-6.5-2.9-1.8-1.6-2.7-3-2-3 .6 0 2.2 1 3.4 2.2zm-84.7 1.9c.9 2.6.5 2.9-2.2 1.8-1.3-.5-2.3-1.5-2.3-2.4 0-2.3 3.8-1.8 4.5.6zm51.1 1.6c-1.1 1.1-1.9-.6-1.1-2.4.8-1.7.8-1.7 1.2 0 .3 1 .2 2.1-.1 2.4zm6.4-.7c0 1.1-.4 2-1 2-.5 0-1-.9-1-2s.5-2 1-2c.6 0 1 .9 1 2zm-3 1c0 .5-.5 1-1.1 1-.5 0-.7-.5-.4-1 .3-.6.8-1 1.1-1 .2 0 .4.4.4 1zm-41.8 3.6c2 1.3 4.8 2.6 6.3 3 3.3.8 5.6 4.3 4.8 7.2-.6 2.6-1.1 2.7-3.7.7-3.3-2.5-5.5-1.7-2.3.8 2.9 2.4 3.4 3.7 1.5 3.7-2.1 0-4.8-3.3-4.8-6 0-2.4.3-2.6 3.1-2.2 2.2.3 3 .1 2.5-.7-.4-.6-1.7-1.1-3-1.1s-3.1-1-4.2-2.1c-1-1.2-3.4-2.8-5.1-3.6-3.7-1.5-4.6-3.8-1-2.8 1.2.4 3.9 1.8 5.9 3.1zm35.3-1.5c1.1 1.7-.1 2.1-1.5.4-.8-.9-.8-1.5-.2-1.5.6 0 1.4.5 1.7 1.1zm21.5-.7c0 .3-.4.8-1 1.1-.5.3-1 .1-1-.4 0-.6.5-1.1 1-1.1.6 0 1 .2 1 .4zm-70.5 1.6c.5.8 1.1.7 2.1-.1 1-.8 1.8-.9 2.5-.2s.2 1.9-1.5 3.8c-2.4 2.5-2.6 2.6-3.2.9-1.3-3.4-2.6-4.7-3.5-3.2-.7 1-.9.9-.9-.5 0-1.9 3.4-2.4 4.5-.7zm74.5 0c0 .5-.5 1-1.1 1-.5 0-.7-.5-.4-1 .3-.6.8-1 1.1-1 .2 0 .4.4.4 1zm23 0c0 .5-.2 1-.4 1-.3 0-.8-.5-1.1-1-.3-.6-.1-1 .4-1 .6 0 1.1.4 1.1 1zm-38 1.9c0 .4-1.6.7-3.5.5-1.9-.1-3.5.2-3.5.7 0 .6-.5.7-1.1.3-1.7-1 1-2.4 4.9-2.4 1.7 0 3.2.4 3.2.9zm11 .1c0 .5-.5 1-1.1 1-.5 0-.7-.5-.4-1 .3-.6.8-1 1.1-1 .2 0 .4.4.4 1zm33 .4c0 2.2-1.1 4.6-2.2 4.6-.5 0-.6-.6-.1-1.3.4-.6.6-2 .5-3-.2-.9.2-1.7.7-1.7.6 0 1.1.6 1.1 1.4zm-121.5.6c-.3.5-1.3 1-2.1 1s-1.4-.5-1.4-1c0-.6.9-1 2.1-1 1.1 0 1.7.4 1.4 1zm49.2 1.2c-.3.8-.6.5-.6-.6-.1-1.1.2-1.7.5-1.3.3.3.4 1.2.1 1.9zm19.3 3c0 1.8-1.5 2.5-2.3 1-.2-.4-.7-2-1.1-3.7-.7-2.9-.7-2.9 1.3-1.1 1.2 1.1 2.1 2.7 2.1 3.8zm47.5-4.1c1.1 1.7 0 2-2.1.4-1.7-1.3-1.7-1.4-.2-1.5.9 0 2 .5 2.3 1.1zm-85.5 2c0 1.4-1.7 1-2.3-.5-.4-1-.1-1.3.9-.9.7.3 1.4.9 1.4 1.4zm-4.6 1.9c-.7.7-1.9.7-3.5.1l-2.4-.9 2.5-1c2.8-1.1 5.1.1 3.4 1.8zm29.7-1.7c.8.7 1.8 2 2.2 2.9.7 2 2.7 2.5 2.7.7 0-.5.5-.7 1-.4.6.3 1 1.7 1 3s.5 2.7 1 3c.6.3 1 1 1 1.4 0 .5-1.8-.1-4.1-1.2-3-1.5-4.3-1.7-5.2-.8-.8.8.1 2.2 3.8 5.6 2.6 2.5 4.5 4.8 4.1 5.2-.4.4-2-.6-3.5-2.3-1.5-1.6-4.7-3.8-6.9-4.8-2.9-1.3-4.2-2.5-4.2-3.9 0-1.6.5-1.8 2.6-1.3 2.5.7 2.5.6 2-3.9-.6-4.7-.2-5.3 2.5-3.2zm-48 1.4c1.3 1.6 1.2 1.7-.3.4-1-.7-1.8-1.5-1.8-1.7 0-.8.8-.3 2.1 1.3zm38.4.1c-.3.3-1.1 0-1.8-.7-.9-1-.8-1.1.6-.5 1 .3 1.5.9 1.2 1.2zm31.5-.3c0 .8-.4 1.5-.9 1.5-1.3 0-2.2-1.6-1.4-2.4 1.1-1.1 2.3-.6 2.3.9zm-73.5.5c.7 1.2-.2 1.2-3 0-1.9-.8-1.9-.9.2-.9 1.2-.1 2.5.3 2.8.9zm68.5 0c0 .5-.4 1-1 1-.5 0-1-.5-1-1 0-.6.5-1 1-1 .6 0 1 .4 1 1zm20.3 1.4c2.1 1.6 2.2 2.6.1 2.6-1.2 0-1.5 1-1.3 4.5.2 2.4 0 4.7-.4 5.1-.4.4-.7-.4-.8-1.7 0-1.3-.1-4.5-.2-7.2-.3-5.1-.1-5.3 2.6-3.3zm-61 3.8c-.2.5-.8.8-1.4.8-1.1 0-1.2-3.3-.2-4.4.8-.8 2.3 2.5 1.6 3.6zm56.7.7c0 2.1-1.6.2-2.4-2.9-.7-2.4-.6-2.4.8-.6.9 1.1 1.6 2.7 1.6 3.5zm-65-2.9c0 .5-.7 1-1.5 1s-1.5-.5-1.5-1c0-.6.7-1 1.5-1s1.5.4 1.5 1zm5 .5c0 .8-.4 1.5-1 1.5-.5 0-1-.7-1-1.5s.5-1.5 1-1.5c.6 0 1 .7 1 1.5zm69.7.9c-1.6 1.7-3.1 11.4-2.3 14.8.4 1.7.2 1.5-.7-.5-.7-1.5-1.7-2.4-2.2-2-.5.5-.4.1.2-.7.6-.8 1.4-3.7 1.8-6.5.4-2.7 1.4-5.5 2.3-6.1 2.2-1.6 2.8-.9.9 1zm-22.4.7c.4 1.6.3 1.8-.9.8-1.6-1.3-1.9-2.9-.5-2.9.5 0 1.1.9 1.4 2.1zm-4.3-.2c0 .5-.3 1.7-.6 2.5-.5 1.3-1 1.4-2 .6-.7-.7-1-1.8-.7-2.6.6-1.5 3.3-2 3.3-.5zm-45.5 2.1c.3.5-.1 1-.9 1-.9 0-1.6-.5-1.6-1 0-.6.4-1 .9-1 .6 0 1.3.4 1.6 1zm79.7 1.6c-.3 1.7-.8 2.2-1.5 1.5-.7-.7-.6-1.5.3-2.6 1.7-2 1.8-1.9 1.2 1.1zm-85.2.4c2.2 1.1 4.6 2 5.5 2 .8 0 3 1.4 4.7 3.1 1.8 1.7 4.9 3.8 6.8 4.7 3.2 1.4 3.3 1.6 1.2 1.9-1.2.3-3.7-.5-5.6-1.6-1.8-1.2-3.8-2.1-4.5-2.1-.6 0-3.2-1.5-5.8-3.4-2.7-1.8-5.8-3.7-7.1-4.1-1.2-.3-2-1.1-1.7-1.6.9-1.3 2.1-1.1 6.5 1.1zm23-1c0 .5-.7 1-1.6 1-.8 0-1.2-.5-.9-1 .3-.6 1-1 1.6-1 .5 0 .9.4.9 1zm56 1c0 .5-.2 1-.4 1-.3 0-.8-.5-1.1-1-.3-.6-.1-1 .4-1 .6 0 1.1.4 1.1 1zm-64.9 1c1 .6 1.9 1.5 1.9 2 0 1.7-2.6 1.1-4.5-1-2-2.2-.7-2.7 2.6-1zm-14.1 6.2c0 1-4.3-.3-6.2-2-3.1-2.6-1.9-3.1 2.2-.9 2.2 1.2 4 2.5 4 2.9zm44-3.6c0 .8-.4 1.2-1 .9-.5-.3-1-1-1-1.6 0-.5.5-.9 1-.9.6 0 1 .7 1 1.6zm5-.6c0 .5-.4 1-.9 1-.6 0-1.3-.5-1.6-1-.3-.6.1-1 .9-1 .9 0 1.6.4 1.6 1zm-19.2 4c1.1 2.2 1.6 4 1.3 4-1.5 0-6.3-5.9-5.7-6.9 1.2-1.9 2.3-1.2 4.4 2.9zm-9.8-2c0 .5-.4 1-1 1-.5 0-1-.5-1-1 0-.6.5-1 1-1 .6 0 1 .4 1 1zm34.3 2.6c-.3.8-.9 1.4-1.3 1.4-1.1 0-2.1-3-1.4-4.1.9-1.5 3.4 1 2.7 2.7zm6.7-2.6c0 .5-.4 1-1 1-.5 0-1-.5-1-1 0-.6.5-1 1-1 .6 0 1 .4 1 1zm17.6 2.7c-1.1 1.1-1.7-.4-.9-2.3.7-1.8.8-1.8 1.1-.1.2 1 .1 2.1-.2 2.4zM261 198c0 .5-.4 1-1 1-.5 0-1-.5-1-1 0-.6.5-1 1-1 .6 0 1 .4 1 1zm-55.5 1c.3.5-.1 1-.9 1-.9 0-1.6-.5-1.6-1 0-.6.4-1 .9-1 .6 0 1.3.4 1.6 1zm14.3.9c.3.8-.1 1.2-.9.9-.7-.2-1.5-1-1.7-1.7-.3-.8.1-1.2.9-.9.7.2 1.5 1 1.7 1.7zm17.2-.9c0 .5-.4 1-1 1-.5 0-1-.5-1-1 0-.6.5-1 1-1 .6 0 1 .4 1 1zm3.8 2.2c1.9 1.9 1.4 2.9-.8 1.6-2-1.3-2.7-2.8-1.2-2.8.4 0 1.3.5 2 1.2zm-70.3.8c.3.5 1.5 1 2.6 1 2.3 0 2.5 1.6.4 3.6-1.1 1.1-1.5 1.2-1.5.3 0-.7-1-2.3-2.2-3.6-1.2-1.3-1.6-2.3-1-2.3.6 0 1.4.4 1.7 1zm26.5-.2c0 .5 1.2 1.4 2.6 2.1l2.6 1.2-2.3 2.2c-2.2 2.1-2.6 2.1-4.6.9-2.9-1.8-2.9-3.2-.1-3.2 1.7 0 1.9-.3 1-1.2-1.5-1.5-1.6-2.8-.2-2.8.6 0 1 .4 1 .8zm22.1 1.8c.7.8 2 1.3 3 1.1 1.2-.3 1.5 0 1.2 1.4-.5 1.7-.8 1.7-3.2.4-3.7-1.9-5.9-4.5-3.8-4.5.8 0 2 .7 2.8 1.6zm-39.4.7c.4.7 2.8 2.5 5.3 3.9 7 4.1 9.2 7 9.8 12.9.3 3.2.1 5.4-.6 5.8-.8.5-.9 2.3-.3 5.9.4 2.9.5 5.2.1 5.2-.7 0-2.2-7.6-3.6-17.5-.3-2.4-.1-2.2 1 1l1.4 4 .1-3.9c.1-3.2-.5-4.5-3.9-7.8-2.4-2.5-4.6-3.8-5.5-3.4-.9.3-1.9-.3-2.5-1.5-.6-1.1-1.6-1.7-2.2-1.3-1.1.7-2.8-1.3-2.8-3.4 0-1.6 2.7-1.6 3.7.1zm71.3.3c0 .8-.5 1.2-1 .9-.6-.4-.8-1.1-.5-1.6.9-1.4 1.5-1.1 1.5.7zm-63.1 1.8c.7.8 2.3 1.7 3.6 2 1.4.4 2.5 1.3 2.5 2.1 0 1.1-.9.8-3.6-1-2-1.4-4.1-2.5-4.5-2.5-.5 0-.9-.5-.9-1 0-1.4 1.6-1.2 2.9.4zm17.1.7c0 .5-.4.9-1 .9-.5 0-1-.7-1-1.6 0-.8.5-1.2 1-.9.6.3 1 1 1 1.6zm6.8.3c1.5.8 3.8 2.6 5.2 4.1l2.5 2.7-2.5-.7c-1.4-.4-2.7-1.2-2.8-1.7-.2-.4-1.9-1.5-3.9-2.3-1.9-.8-3.2-1.9-2.8-2.5.8-1.3 1.1-1.3 4.3.4zm31.2.7c0 .5-.4.9-1 .9-.5 0-1-.7-1-1.6 0-.8.5-1.2 1-.9.6.3 1 1 1 1.6zM118 210c2.1 1.6 4.2 3 4.8 3 .5 0 1.5.6 2.1 1.4.7.8 3.2 2.4 5.7 3.5 5 2.4 5.8 3.7 1.7 2.6-3-.7-11.7-6.2-17.1-10.7-4.4-3.8-2-3.6 2.8.2zm125.9 1.4c-.9.8-1 .7-.5-.7.3-1 .7-2.4.7-3 .1-.7.3-.4.6.7.3 1-.1 2.3-.8 3zm-13.4-1.4c0 .7-.6 1.5-1.2 1.7-.8.3-1.3-.4-1.3-1.7 0-1.3.5-2 1.3-1.8.6.3 1.2 1.1 1.2 1.8zm-15.5 4.5c.7.8 1.1 1.7.9 2-.7.6-9.9-5.4-9.9-6.4 0-1.2 7.3 2.3 9 4.4zm37.2-2.3c-1.7 1.7-1.5 2.8.3 2.2 2-.8 2 2 0 3.6-2.7 2.3-3.9-.2-2.1-4.5.9-2.1 1.9-3.5 2.3-3.1.4.3.1 1.2-.5 1.8zm-70.5 1c2.2 2.1 2.4 2.1 1.7.3-.7-1.7-.6-1.8.8-.7 1.9 1.5 3.2 5.6 1.5 4.5-.7-.4-1.7-.8-2.2-.8-1.2 0-6.5-4-6.5-4.9 0-1.3 2.5-.5 4.7 1.6zm55.3.9c0 .5-.9.9-2 .9-1.9 0-2.6-1.1-1.4-2.3.8-.8 3.4.3 3.4 1.4zm-12.9 1.9c-1.3.7 2.4 2.6 6.4 3.2 2 .3 4.4 5.2 3.2 6.5-.4.3-2.1-.8-3.8-2.5-1.7-1.8-4.1-3.2-5.3-3.2-3.9 0-4.9-2.1-2.4-4.8 1.4-1.4 2.4-1.9 2.7-1.1.2.6-.2 1.5-.8 1.9zm-65.4-.4c1.1 2.9-1.2 3.5-3.7.9l-2.3-2.5h2.7c1.5 0 2.9.7 3.3 1.6zm39.9-.2c.3.8.1 6.3-.4 12.2l-.9 10.9-.2-10c-.1-5.5-.4-11-.7-12.3-.7-2.4 1.3-3.2 2.2-.8zm12.1 4.8c1.8 1.8 3.3 3.6 3.3 4 0 1.8-2 .5-5-3.2-3.8-4.8-2.9-5.2 1.7-.8zm-2.7 4.1c0 .5-.4.5-1 .2-.5-.3-1-1.4-1-2.3 0-1.5.2-1.5 1-.2.5.8 1 1.9 1 2.3zm57-.1c0 1.6-.3 1.9-1.1 1.1-.6-.6-.8-1.6-.5-2.2 1.1-1.7 1.6-1.3 1.6 1.1zm-59.7 3.3c.2 1.6.2 3.7-.2 4.5-.8 2-3.1 2.4-3.1.5 0-.8.5-1.5 1.1-1.5.7 0 .8-1.4.4-4.3-.5-2.7-.4-3.8.3-3.2.5.5 1.2 2.3 1.5 4zm13.2-1.5c1.8 2 1.5 3.8-.4 2.5-1.5-.9-3.3-4.5-2.3-4.5.5 0 1.7.9 2.7 2zm25.5 1.7c0 1.5.7 3.4 1.6 4.4 2.9 3.2.9 4.1-2.1 1-1.7-1.7-3.6-3.1-4.4-3.1-1.1 0-.8-.6.7-2 1.2-1.2 2.2-2.5 2.2-3.1 0-.6.5-.7 1-.4.6.3 1 1.8 1 3.2zm-14.2 5.2c4.6 2.7 5.7 5.4 4.1 9.9-.7 2.1-.7 3.7 0 4.9.5 1.1 1.3 4.8 1.7 8.2.8 7.8-.8 7.7-2.6-.1-1.6-6.9-1.9-7.3-3.9-5.1-4.7 5.2-6.2 7.6-4.9 8.4 1 .6.5 1.7-1.9 4.1-3.1 3.1-3.3 3.1-3.3 1 0-2.4-1.5-3-2.3-1-.3.7-.6.3-.6-1-.1-1.2.4-2.2 1-2.2 1.7 0 .2-12.2-1.7-13.6-1.8-1.5-1.8-4.9.1-6.8.8-.8 1.5-2.6 1.5-4.1 0-1.4.4-2.4.9-2 1.2.7 1.1 4.6-.2 6.2-1.1 1.5 0 12.3 1.5 14.4.6 1 .8-.6.4-5.1-.4-4.2-.2-5.8.4-4.5.5 1.1.9 3.5.9 5.2.1 1.9.6 3.3 1.4 3.3 2 0 7-7 7.7-10.9.4-2 1.1-4.4 1.5-5.4.5-1.2.2-1.7-.9-1.7-1.8 0-6.6-2.8-7.8-4.5-.4-.5-.8-1.6-.8-2.4 0-1.1.5-1 1.9.5 1.1 1 3.7 3 5.9 4.3zm-14.4-.4c-.7 1.8-.8 1.8-1.5-.1-.4-1-.8-2.6-.8-3.4-.1-1.2.1-1.2 1.4.1 1 1 1.3 2.2.9 3.4zm-51-1.9c.3.9.6 2.3.6 3.2-.1 1.5-.3 1.4-1.5-.2-1.7-2.2-2-4.6-.6-4.6.5 0 1.2.7 1.5 1.6zm47.1 2.7c.4 1.8.5 4.9.2 6.8-.3 2.8-.4 2.6-.5-1.4-.1-3.2-.8-5.3-2.2-6.7-2-2-2-2 0-2 1.4 0 2.1.9 2.5 3.3zM253 232c0 .5-.2 1-.4 1-.3 0-.8-.5-1.1-1-.3-.6-.1-1 .4-1 .6 0 1.1.4 1.1 1zm-83.8 4.7c.6 1.3.8 2.6.5 3-1.1 1-1.8-.2-2.3-4.3-.2-2.2-.2-3.2.2-2.4.3.8 1 2.5 1.6 3.7zm2.5-1.5c-.3.7-.5.2-.5-1.2s.2-1.9.5-1.3c.2.7.2 1.9 0 2.5zm50.3-.1c0 1.1-.4 1.7-1 1.4-.5-.3-1-1.3-1-2.1s.5-1.4 1-1.4c.6 0 1 .9 1 2.1zm-13 2.5c0 2.2-.2 2.5-1.5 1.4-1.2-1-1.3-1.6-.4-2.6 1.6-2 1.9-1.8 1.9 1.2zm17 0c0 .8-.4 1.4-1 1.4-.5 0-1-.9-1-2.1 0-1.1.5-1.7 1-1.4.6.3 1 1.3 1 2.1zm-59.5 7.1c-.7 1.5-.9 1.4-1.5-1.2-1.4-5.5-1-7.3.7-3.8 1 1.9 1.3 3.8.8 5zm42.4-1.6c1 0 .7.4-.7 1-1.3.5-2.8.7-3.3.3-.5-.3-.9.5-.9 1.7 0 3.5-.7 1.9-1.3-3.3l-.6-4.6 2.6 2.4c1.4 1.3 3.3 2.4 4.2 2.5zM249 239c0 .5-.2 1-.4 1-.3 0-.8-.5-1.1-1-.3-.6-.1-1 .4-1 .6 0 1.1.4 1.1 1zm-68 1c0 .5-.2 1-.4 1-.3 0-.8-.5-1.1-1-.3-.6-.1-1 .4-1 .6 0 1.1.4 1.1 1zm-6 4.1c0 1.7-2 2.9-2 1.1 0-.4-.3-1.8-.7-3.2-.6-2.2-.5-2.4 1-1.1.9.7 1.7 2.2 1.7 3.2zm3-2.6c0 .8-.2 1.5-.4 1.5s-.6-.7-1-1.5c-.3-.8-.1-1.5.4-1.5.6 0 1 .7 1 1.5zm6.7 3.5c.1 3.8-.3 5-1.4 5-2 0-5.3-1.9-5.3-3.1 0-.6.7-.6 1.9.1 1.1.5 2.6 1 3.3.9.7 0-.3-.8-2.2-1.7-3.3-1.5-3.3-1.6-1.1-2 1.3-.2 2.6-1.2 2.8-2.3.9-3.4 1.8-2 2 3.1zm40-1.5c-.4.8-1.1 1.5-1.7 1.5-.7 0-.7-.6 0-2.1 1.3-2.3 2.6-1.9 1.7.6zm-54.3 0c.3.8.1 1.5-.4 1.5-.6 0-1-.7-1-1.5s.2-1.5.4-1.5.6.7 1 1.5zm74.7.8c-.1 1.2-1.5.9-1.9-.4-.3-.6.1-1 .8-.8.6.3 1.1.8 1.1 1.2zm-55.7 4.9c.4 1.7.2 2.8-.4 2.8-.5 0-1-.6-1-1.3 0-.6-.3-2.3-.6-3.7-.5-1.7-.3-2.2.3-1.5.6.5 1.3 2.2 1.7 3.7zm49-1.1c.8 4.3.8 22.4-.1 21.6-.4-.4-.7-5.3-.7-11-.1-5.6-.5-11-1-12s-.4-1.7.2-1.7c.5 0 1.2 1.4 1.6 3.1zm-31.7 1.1c-.3.7-.5.2-.5-1.2s.2-1.9.5-1.3c.2.7.2 1.9 0 2.5zm50.4-.6c.8.8 2.1 1.4 2.8 1.4.7 0 2.7 1.1 4.5 2.5 1.8 1.4 4 2.5 4.9 2.5 1.5 0 3.3 1.7 2.5 2.5-.2.2-2.3-.3-4.7-1.1-5.1-1.7-6.4-1.5-6.7 1.2-.1 1-.7 6.2-1.4 11.4-1.5 13.4-2 13.3-1.6-.1.2-6.4.6-12.1 1-12.7 1.2-2-.5-5.9-3-7.1-2.2-.9-2.6-.8-3.3 1.1-.9 2.5-.3 6 1 5.3.4-.3.6-1.2.2-2-.3-1 .1-1.5 1.3-1.4 1.1 0 1.4.3.8.5-.7.3-.9 1.4-.7 2.6.4 1.1 0 2.4-.7 2.8-1 .6-1.1 1.2-.3 2.2 1.3 1.5.5 7.1-.8 6.2-.5-.3-.9-1.6-.9-2.9 0-1.3-.9-4.4-2-7-1.1-2.6-2-6-2-7.6 0-2.9.1-3 3.8-2.3 2 .4 4.4 1.3 5.3 2zm-64.2 6.1.1 4.2-4.2-1.8c-2.3-.9-4.4-2.4-4.6-3.2-.4-1.1-.2-1.2.9-.2.7.7 2.6 1.3 4.2 1.3 2.8 0 2.9-.1 2.3-4.3-.4-3-.3-3.6.3-2.2.5 1.1 1 3.9 1 6.2zm-15.4-3.9c-.3.3-1.1 0-1.8-.7-.9-1-.8-1.1.6-.5 1 .3 1.5.9 1.2 1.2zm5.2 1.8c-.3.3-1.2.4-1.9.1-.8-.3-.5-.6.6-.6 1.1-.1 1.7.2 1.3.5zm27.2 3.1c0 3.3-.1 3.5-.9 1.5s-.4-5.2.6-5.2c.2 0 .4 1.7.3 3.7zm5.8 1c-.3 1-.5.4-.5-1.2 0-1.7.2-2.4.5-1.8.2.7.2 2.1 0 3zm26.8 1.8c-.5 3.8-.4 5.5.4 5.5.6 0 1.1-1 1.2-2.3v-2.2l1.1 2.2c.8 1.6.8 3.8 0 7.5-.5 2.9-.8 7.5-.5 10.1l.6 4.8 2.5-2.3c1.4-1.3 2.2-1.6 1.8-.8-.3.8-.9 2.3-1.2 3.2-.9 2.6-4.2 2.2-10.1-1.2-6-3.4-6.3-3.8-5.3-6.5.7-1.9.7-1.9 1.4.2 1.1 3.5 2.5 2.7 3.2-1.7.4-2.1 1.2-3.8 1.8-3.7.6.1 1.2-1.5 1.3-3.8.5-7.3 1.4-14.5 1.9-14.5.3 0 .2 2.5-.1 5.5zm6.1 8.7-1.7 3.3.7-4.6c.4-3 .2-4.9-.5-5.3-.6-.4-1.1-1.7-1-2.9 0-1.7.5-1.2 2.1 2 2 4 2.1 4.3.4 7.5zm-71.1-9.2c.3.5.1 1-.4 1-.6 0-1.1-.5-1.1-1 0-.6.2-1 .4-1 .3 0 .8.4 1.1 1zm86.5 1c0 .5-.4 1-1 1-.5 0-1-.5-1-1 0-.6.5-1 1-1 .6 0 1 .4 1 1zm-36.9 5.3c-.6.6-1.1 2.4-1.1 3.9v2.8l-2-2-2-2 2.7-3.5c2.1-2.7 2.9-3.1 3.1-1.9.2.9-.1 2.1-.7 2.7zm39.1-.1c-.7.7-1.2.8-1.2.2 0-1.4 1.2-2.6 1.9-1.9.2.3-.1 1.1-.7 1.7zm-2.8.3c.3.8.1 1.5-.4 1.5-.6 0-1-.7-1-1.5s.2-1.5.4-1.5.6.7 1 1.5zm6.6.5c-.6 1.1-1.5 2-2 2-.6 0-.5-.9.2-2s1.6-2 2.1-2c.4 0 .3.9-.3 2zm20 1c.8.5 1.1 1.2.7 1.6-.4.4-1.5 0-2.4-.9-1.8-1.8-.8-2.3 1.7-.7zm-91 4.2c0 1-3.6-.7-4.5-2.2-.4-.6.5-.5 1.9.2 1.4.6 2.6 1.5 2.6 2zm32.2 4.3c-.6 4.8-1.8 3.3-2.5-3-.5-4.8-.5-4.9 1.2-2.9 1.2 1.5 1.6 3.3 1.3 5.9zm52.8-2.1c0 .5-.7.1-1.5-1-.8-1-1.4-2.4-1.4-2.9 0-.6.6-.1 1.4.9.8 1.1 1.5 2.4 1.5 3zm-63.4-2.6c1.7 1.1 4.4 6.8 4.4 9.2 0 3.4-6 2.7-9.3-1-1.5-1.7-3.2-3-3.7-3-2.5 0-.6-2.9 2.8-4.3 4.5-1.9 4.4-1.8 5.8-.9zm31.3 4.9c-.1 4.8-.3 5.3-.9 2.8-1.1-4.5-1.1-8.5 0-8.5.6 0 .9 2.5.9 5.7zm-5.2-1.5c-.3.8-.6.5-.6-.6-.1-1.1.2-1.7.5-1.3.3.3.4 1.2.1 1.9zm22.6-.2c-.3 1.1-.9 2-1.4 2-1 0-1.2-2.4-.2-3.3 1.3-1.3 2.1-.7 1.6 1.3zm-14.6 3.7c-.3 1-.5.4-.5-1.2 0-1.7.2-2.4.5-1.8.2.7.2 2.1 0 3zm35.8-2.7c-.3.5-1 1-1.6 1-.5 0-.9-.5-.9-1 0-.6.7-1 1.6-1 .8 0 1.2.4.9 1zm-26.8 5.8c2.2 4.9.9 5-1.6.2-1.2-2.3-1.8-4.6-1.4-5.3.4-.8.8-.7 1.1.3.2.8 1.1 3 1.9 4.8zM210 276c0 .5-.4 1-.9 1-.6 0-1.3-.5-1.6-1-.3-.6.1-1 .9-1 .9 0 1.6.4 1.6 1zm62 1.1c0 1.1-.4 1.7-1 1.4-.5-.3-1-1.3-1-2.1s.5-1.4 1-1.4c.6 0 1 .9 1 2.1zm25-1.1c0 .5-.2 1-.4 1-.3 0-.8-.5-1.1-1-.3-.6-.1-1 .4-1 .6 0 1.1.4 1.1 1zm-18.1 5.9c-1.4.4-2.5-.8-3.3-3.9-.7-2.4-.6-2.4 1.8.5 1.5 1.7 2.1 3.2 1.5 3.4zm-9.9-.3c.6 1.4 1 3.7.9 5.2-.1 2.4-.2 2.3-1.3-1-.6-2-1.4-4-1.8-4.4-1.1-1.1-1-2.4.2-2.4.6 0 1.5 1.2 2 2.6zm-38.6-.8c.7 1.2-.5 5.2-1.5 5.2-.5 0-.9-1.4-.9-3 0-2.8 1.3-4 2.4-2.2zm9.9 5.9c2.7 1.8 7.5 4.2 10.7 5.4 3.3 1.2 6.7 3 7.7 4.1 1.5 1.6.9 1.5-3.4-.6-2.8-1.5-6.5-2.9-8.2-3.2-1.7-.4-3.6-1.3-4.2-2-1.7-2-6.7-1.8-7.2.3-.3 1.3-.5 1-.6-.7-.1-1.4-.8-3.4-1.6-4.4-1.6-2.1-1-4 .8-2.9.7.4 3.4 2.2 6 4zm12.1-1.2c-.4 1.5-.2 2.5.5 2.5.6 0 1.1-1.1 1.1-2.5s.5-2.5 1-2.5c.6 0 1 .7 1 1.5s.7 1.5 1.5 1.5c1 0 1.5 1 1.5 3 0 3.4-.4 3.6-5.3 1.5-4.4-1.8-5.1-2.9-3.7-5.5 1.5-2.8 3.2-2.5 2.4.5zm30.6.3c0 1.5-.2 1.5-1 .2-1.3-2-1.3-3.3 0-2.5.6.3 1 1.4 1 2.3zm-74.5.2c2.8 3.1 1 3.6-2.2.6-2-1.9-2.3-2.6-1.2-2.6.9 0 2.4.9 3.4 2zm66.9-.5c.3.8.1 1.5-.4 1.5-.6 0-1-.7-1-1.5s.2-1.5.4-1.5.6.7 1 1.5zm-11 3.2c.9 1.8 1.3 3.3.9 3.3-.9 0-3.3-4.8-3.3-6.4 0-1.3.4-.7 2.4 3.1zm21.6-1c-.1 2.4-.2 2.6-1.1 1-.5-.9-.7-2.2-.4-2.7 1-1.7 1.5-1.1 1.5 1.7zm-77 4.6c0 .7.3 2.2.6 3.4.9 3.3-.8 2.8-2.8-.8-2.5-4.3-2.4-6.3.2-4.9 1.1.6 2 1.6 2 2.3zm6.4-1.1c1.9 2.7 1.1 3.9-.8 1.2-2.1-2.8-2.5-1.5-1.5 4.2.6 3.2.6 6 0 7.5-.9 2.3-1 2.3-1-.6-.1-1.7-.6-4.6-1.1-6.5-.7-2.5-.7-4.1.2-5.8 1.4-2.8 2.3-2.8 4.2 0zm24.2 1.3c.1.8-.1 1.5-.5 1.5-1.4 0-2-1.2-1.4-2.6.6-1.7 1.6-1.1 1.9 1.1zm32.2.6c-.3.8-.7.3-1.1-1-.4-1.7-.3-2.1.5-1.3.5.5.8 1.6.6 2.3zm-22.5 1.9c3.1 1.2 6 2.7 6.3 3.2.4.6-.3.5-1.5-.2-1.2-.6-2.7-1-3.4-.7-.7.2-.2.9 1.1 1.6 2.2 1.2 3.1 4.1 1.2 4.1-1.2 0-6.1-3.3-9.7-6.4-2.4-2.1-3.4-6.7-1-4.9.6.5 3.8 2 7 3.3zm13.7-1.5c0 2 2.1 3 3.1 1.4.6-1 .9-.9 1.5.6.4 1.1 1.4 2.8 2.2 3.7 2.5 3-.6 2.1-4.9-1.3-2.2-1.7-3.9-3.9-3.9-5s.5-1.7 1-1.4c.6.3 1 1.2 1 2zm15.4 1.1c.3.8.2 1.2-.4.9-.6-.3-1-1-1-1.6 0-1.4.7-1.1 1.4.7zm-59.4 5.1v3.8l-2.5-2.9c-2.9-3.4-3.1-4-1-3.2.8.3 1.5.1 1.5-.4 0-.6.5-1 1-1 .6 0 1 1.7 1 3.7zm47.2 2c1 .9 1.8 2.3 1.8 3.1 0 1-.8.6-2.5-1.2-1.4-1.5-2.5-2.9-2.5-3.2 0-.9 1.4-.3 3.2 1.3zm-6.2.3c0 .5-.4 1-1 1-.5 0-1-.5-1-1 0-.6.5-1 1-1 .6 0 1 .4 1 1zm-42 2.8c.7-.2 1.9.8 2.6 2.2 1.7 3.2.8 4-1.2 1.2-.8-1.2-1.9-2.2-2.5-2.2-1.4 0-1.1 2.6.6 4 1.7 1.4 2 3 .5 3-.5 0-1-.7-1-1.6 0-1.4-.2-1.5-1.7-.3-1.5 1.3-1.6 1.1-1-2 .4-1.8.7-4.1.7-5 0-1.2.2-1.3.9-.3.4.7 1.4 1.2 2.1 1zm46.5.2c.3.5-.1 1-.9 1-.9 0-1.6-.5-1.6-1 0-.6.4-1 .9-1 .6 0 1.3.4 1.6 1zm17.3 5c0 2.2-.3 4-.9 4-.5 0-.9-2.1-.9-4.6 0-2.5.4-4.3.9-4 .5.3.9 2.4.9 4.6zm-6.2-2.3c0 1 .4 1.7 1.1 1.6.6-.1 1.4.4 1.7 1.2.7 1.8-1.8 2-3.1.2-1.9-2.3-2.3-4.7-.9-4.7.8 0 1.3.8 1.2 1.7zm-17.4 1.9c3.8 2.7 5 6 2.4 7-.7.3-1.1 1.4-.9 2.7.6 2.9-3.6 8.5-4.8 6.5-.5-.8-.9.8-.9 4.2 0 3-.3 6.6-.7 8-.6 2.2-.4 2.3.9 1.2 1.4-1.1 1.5-.4 1.4 6.8-.2 4.4-.5 8.2-.8 8.6-.4.3-1.5.1-2.5-.5-1.6-.9-1.5-1 .7-1.1 2.2 0 1.9-.3-1.7-2.2-3.7-1.9-4.2-2.5-3.6-4.7.3-1.4 1.5-3.3 2.6-4.2 1.8-1.4 1.9-2.4 1.4-8-.3-3.9-.2-5.7.4-4.8.5.9.9-1.5.9-6.9 0-4.8.4-8.2 1-8.2s1 1.8 1 4 .4 4 .9 4c.7 0 .4-8.9-.4-11.7-.3-.7-1.1-1-1.8-.7-.8.3-1.7-.2-2-1-1-2.5 2.2-2 6.5 1zm13.8-1c0 .8-.4 1.2-1 .9-.5-.3-1-1-1-1.6 0-.5.5-.9 1-.9.6 0 1 .7 1 1.6zm-59.6 4.5c-1.2 2-2 .7-1.6-2.3.5-3.1.5-3.1 1.3-.9.5 1.2.7 2.7.3 3.2zm37.3-.9c-.3.8-.6.5-.6-.6-.1-1.1.2-1.7.5-1.3.3.3.4 1.2.1 1.9zm18.3-.3c.5 1.1 1 2.5 1 3.2 0 1.8-2.7-.7-3.3-3.1-.7-2.6.9-2.6 2.3-.1zm18.3 2.6c-.6 1.6-1.6 1.9-2.6.8-.9-.8 1.3-3.4 2.4-2.8.4.3.6 1.2.2 2zm-12.6 0c.8 2.2-.6 3.3-1.7 1.5-1.3-2-1.2-3 0-3 .6 0 1.3.7 1.7 1.5zm16 .7c-.3.8-.6.5-.6-.6-.1-1.1.2-1.7.5-1.3.3.3.4 1.2.1 1.9zm-38.8 6.3c-.5 3.3-.6 8.1-.3 10.7.4 3.5.2 5.2-.9 6.3-1.4 1.3-1.5.4-1-8.8.5-9.1 1.7-15.7 2.7-14.6.2.2 0 3.1-.5 6.4zm29.6-2.7c-.9.9-3.5-.8-3.5-2.4 0-1.6.2-1.6 2 .1 1.1 1 1.8 2 1.5 2.3zm-68.7-1.6c1.4 1.4 1.6 5.8.2 5.8-.5 0-1.3 1.4-1.8 3.2-.4 1.7-1.4 3.4-2.1 3.6-1 .3-1.2-.7-.6-4.9 1.1-9.1 1.8-10.2 4.3-7.7zm6.7 4.8c-.9 4.1-2.4 2.5-1.8-1.8.4-2.2.9-3 1.5-2.4.6.6.7 2.4.3 4.2zm-40.4 1.6c.7.4 1.5.2 1.7-.4.2-.7.8-1.2 1.4-1.2.5 0 .8.6.5 1.2-.4 1.4 9.5 6.8 17.3 9.4 2.5.9 5.1 2.3 5.8 3.2.9 1.2 1.5 1.3 2.4.4.9-.9.8-1.5-.8-2.7-1-.8-1.4-1.5-.8-1.5 1.7 0 4.6 2.5 4.2 3.7-.2.6 1 2.3 2.6 3.7 1.5 1.5 2.6 2.9 2.4 3.2-.3.2-3.2-1-6.6-2.6-6.9-3.3-10.9-4.1-4.9-.9 2.1 1.1 5.9 3.6 8.3 5.5 2.5 1.9 5.4 3.4 6.4 3.4 2.1 0 8.2 4.9 6.2 5-1.7 0-8.9-3.7-12.7-6.5-1.6-1.2-5.8-3.6-9.2-5.3-5.9-3-10-6.4-5.7-4.8 1.2.5 1.6.4.9-.3-.5-.5-3.4-1.9-6.4-3.1-3-1.2-6.9-3.4-8.7-5-1.8-1.5-4.8-3.3-6.8-4-2-.6-3.6-1.6-3.6-2.2 0-.6.7-.8 1.5-.4 1 .3 1.5-.1 1.6-1.2 0-1.3.2-1.2.9.4.5 1.2 1.4 2.5 2.1 3zm88.4-1.6c.8 3.4 1.1 28.7.4 29.4-.3.3-1.4.3-2.6 0-1.7-.5-2.1-1.6-2.7-7.2-1-11.3-.6-14.6.9-6.7.7 3.8 1.4 7.8 1.4 8.7.1 1 .6 1.8 1.1 1.8.7 0 .9-1.3.5-3.3-.3-1.7-.7-5.6-.8-8.5-.2-3.2-.9-5.7-1.7-6.2-1.2-.7-1.1-1.2.3-2.8 2.2-2.4 2.1-3.2-.2-3.2-1.4 0-1.7-.6-1.3-2.5.6-3.6 3.9-3.3 4.7.5zm3.1.7c-1.1 1.1-1.9-.6-1.1-2.4.8-1.7.8-1.7 1.2 0 .3 1 .2 2.1-.1 2.4zm-54.1-1.8c.3.5.1 1.2-.5 1.6-.5.3-1-.1-1-.9 0-1.8.6-2.1 1.5-.7zm58.6 3.1c.5 0 .9-.9.9-2s.5-2 1.1-2c.7 0 .9 1.2.5 3.4-.5 2.5-.3 3.5.9 4 1.1.4 1.5 2 1.5 5.5 0 4 .4 5.2 2 6.1 1.1.6 2 2.1 2 3.3-.1 2.1-.1 2.1-1.5-.3-1.7-3-1.9-1.9-.4 3.3 1 3.8.4 8.1-1.1 7.2-.4-.2-1.1-2.6-1.4-5.2-.4-2.7-1-6.2-1.3-7.8l-.6-3-.9 3c-.5 2-.3 5.1.9 9.7 1.4 5.5 1.5 7.5.6 11.5-.6 2.6-1.4 6-1.7 7.5-1.1 5-2.4 2.9-1.9-3 .3-3.1 0-10.5-.6-16.4-.9-7.8-.9-11.9-.1-14.8.8-3.1.8-4.9-.4-8.2-.8-2.4-1.1-4.8-.8-5.3.4-.6.8 0 1 1.2.2 1.3.8 2.3 1.3 2.3zm16.9 1.3c4.1 2.7 4.9 3.7 5.3 7.2.4 2.3.9 4.9 1.3 5.8.3 1 .1 1.7-.5 1.7s-1.4-1.4-1.7-3c-.9-4.5-2.2-3.6-2.6 1.7-.4 6.9-2.5 6.6-3.3-.4-.4-3.2-1.1-6.9-1.5-8.3-1.2-3.2-.3 5.4 1.1 12.2 1.1 4.7.6 7.3-1.2 6.3-.5-.4-.9-2.1-.9-3.9 0-1.8-.3-3.6-.6-3.9-.4-.4-.8-3.7-1-7.4-.2-3.6-.8-7.1-1.4-7.7-.8-.8-.9.9-.4 5.9.9 9.2-.9 7.7-3-2.5-.9-4.1-1.6-7.7-1.6-7.9 0-1.2 8 1.6 12 4.2zm-75.7 7.8c-.6.6-1.6.4-2.8-.5-1.9-1.4-1.9-1.5-.1-5.3l2-3.8.9 4.3c.7 2.7.7 4.6 0 5.3zm4.4-5.9c-.3.8-.6.5-.6-.6-.1-1.1.2-1.7.5-1.3.3.3.4 1.2.1 1.9zm40.3 1.9c-1.4 4.9-1.2 16.5.4 22.6 1.2 4.5 1.2 5.3 0 5.3-2 0-3.5-7.1-2.8-13.4.5-3.7.3-6-.5-7s-.9-1.6-.1-2.1c.5-.3 1-2.1 1-3.9 0-1.7.5-3.7 1.2-4.4 1.7-1.7 1.9-1 .8 2.9zm39-2.1c0 .5-.2 1-.4 1-.3 0-.8-.5-1.1-1-.3-.6-.1-1 .4-1 .6 0 1.1.4 1.1 1zm-27.5 5.7c-.7 6-1.1 7-2.1 6.1-.9-1 .7-11.8 1.8-11.8.7 0 .8 2.1.3 5.7zM200 330c0 .5-.2 1-.4 1-.3 0-.8-.5-1.1-1-.3-.6-.1-1 .4-1 .6 0 1.1.4 1.1 1zm111.9 1.6c.8.2 1.2.7.9 1-.7.7-9.8-1.8-9.8-2.7 0-.6 4.6.2 8.9 1.7zm-81.9 1c0 .8-.4 1.4-1 1.4-.5 0-1-.9-1-2.1 0-1.1.5-1.7 1-1.4.6.3 1 1.3 1 2.1zm70 1c0 1.4-.4 2.3-1 1.9-.5-.3-1-1.5-1-2.6 0-1 .5-1.9 1-1.9.6 0 1 1.2 1 2.6zm5 1.4c0 1.1-.4 2-1 2-.5 0-1-.9-1-2s.5-2 1-2c.6 0 1 .9 1 2zm5-.5c0 2-4.4 17.5-4.8 17-.3-.3 0-4.3.7-9 .9-6 1.7-8.5 2.7-8.5.8 0 1.4.2 1.4.5zm11 2.7c1.9 1.7 3 3.3 2.4 3.5-1.1.4-7.4-4.9-7.4-6.1 0-1.3 1.7-.4 5 2.6zm-6.9 15.3-.9 6-.1-8.7c0-4.7.2-9.5.7-10.5 1.1-2.8 1.4 6.2.3 13.2zm-2.3-3.7c-.3 5.4-1 10.7-1.7 11.7-1.1 1.8-1.2 1.6-.7-1.5.3-1.9.8-7.2 1.2-11.8.4-4.5.9-8.2 1.2-8.2.2 0 .3 4.4 0 9.8zm-91.2-6.8c.8 0 1.4.6 1.4 1.4 0 .7.9 1.6 2.1 1.9 1.2.3 1.8 1 1.4 1.6-.9 1.6-3.5 1.3-4.1-.4-.7-1.7-3.4-2.1-3.4-.4 0 .5-.5.7-1.1.3-.8-.4-.8-.9 0-1.7.6-.6 1.1-2 1.2-3.2 0-1.1.3-1.4.6-.8.2.7 1.1 1.3 1.9 1.3zm83.1 1.2c-.3.8-.6.5-.6-.6-.1-1.1.2-1.7.5-1.3.3.3.4 1.2.1 1.9zm13.4 8.3-.9 4-.1-5c0-2.8.3-6.1.7-7.5.6-2.3.7-2.2 1 1 .2 1.9-.1 5.3-.7 7.5zm-21.7-1.2c-.3 4-.8 7.4-1 7.6-.2.2-.4-3.3-.4-7.8 0-5 .4-8 1-7.6.5.3.7 3.6.4 7.8zm31.6-5.7c0 1.4-.4 2.3-1 1.9-.5-.3-1-1.5-1-2.6 0-1 .5-1.9 1-1.9.6 0 1 1.2 1 2.6zm-6.7 4.1c-.7 7.8-1.3 8-1.2.4.1-3.3.5-6.1 1-6.1.4 0 .5 2.6.2 5.7zm2.2 2.8c-.4 3.7-.9 6.4-1.2 6.2-.3-.3-.2-3.5.2-7.2.4-3.6 1-6.4 1.2-6.1.3.3.2 3.5-.2 7.1zM272 353c0 3.7-.5 6-1.2 6.4-.9.3-.8.8.5 1.6 2.1 1.3 2.3 4 .2 4-.8 0-1.5-.7-1.5-1.5s-.5-1.5-1.1-1.5c-1.2 0-.5-7.2.8-9.4.4-.6.6-2.4.4-4-.2-1.8.1-2.6.8-2.2.6.4 1.1 3.4 1.1 6.6zm26.9 1.5c.1 3.3-.7 6.7-2.3 10-1.4 2.7-2.5 4.3-2.5 3.5-.1-.8.6-2.8 1.5-4.5.8-1.6 1.3-3.8 1.1-4.7-.3-1.1-.1-1.5.5-1.2.8.5.9-1.3.5-5.7-.4-4.1-.3-5.7.3-4.4.5 1.1.9 4.2.9 7zm4.1-3.3c0 3.2.3 3.9 1 2.8.8-1.2 1-1 .9 1 0 1.4-.4 3.4-.9 4.5-.8 1.8-.9 1.7-.9-.8-.1-1.5-.5-2.7-1.1-2.7-.5 0-1-2-1-4.5s.5-4.5 1-4.5c.6 0 1 1.9 1 4.2zm5.1 4.3c-.6 2.7-1 5.7-.9 6.5.1.8 0 3.3-.1 5.5l-.3 4-.9-3c-.9-2.8-.2-9.9 1.8-19 .5-2.3.8-2.6 1.1-1 .2 1-.1 4.2-.7 7zm-17.1-3c-.6 1.6-.8 4.1-.5 5.7.4 1.7.2 2.8-.4 2.8-1.5 0-1.4-8.8.2-10.4 1.7-1.9 1.9-1.3.7 1.9zm-3.5 2.1c.7 4.9 0 7.4-1 3-.3-1.4-.7-3.7-1-5.1-.3-1.4-.1-2.5.4-2.5s1.2 2.1 1.6 4.6zm38.5.4c.5 0 .7.7.4 1.5-1.1 2.8-2.4 1.5-2.3-2.3.1-2.3.3-2.8.6-1.5.2 1.3.8 2.3 1.3 2.3zm-60.2.8c.2.7-.3 1.2-1.2 1.2-.9 0-1.6-.7-1.6-1.6 0-1.7 2.2-1.4 2.8.4zm19.1 1.9c.6 2.1 1.1 5.1 1.1 6.8-.1 3.1-2.9 7.5-4.9 7.5-1.7 0-1.3-1.4.9-3 2-1.4 2.9-3.7 1-2.5-.5.3-1-.1-1-1s.5-1.3 1-1c.6.3 1-.5 1-1.9 0-2.8-1.5-4.3-2.3-2.4-.3.7-.6-.1-.6-1.8-.2-5.6 2.3-6 3.8-.7zm47.9-.9c.3 1.9-.1 2.3-1.5 2-1-.2-1.9-1.4-2.1-2.6-.3-1.9.1-2.3 1.5-2 1 .2 1.9 1.4 2.1 2.6zm-109.3.2c1.5 1.7 1.6 2 .3 2-.9 0-1.8-.9-2.1-2-.3-1.1-.4-2-.3-2 .2 0 1.1.9 2.1 2zm23.2 10c4.9 3 9.3 5.8 9.8 6.3.6.4 4.7 3.1 9.3 5.8 4.5 2.8 8.2 5.5 8.2 6 0 1.1-1.7 1.2-2.2.1-.1-.4-3.7-2.2-7.8-4-16.7-7.3-35.2-19.2-29.9-19.2.7 0 .4-.9-.7-2.2l-1.9-2.2 3.2 2c1.8 1 7.2 4.4 12 7.4zm72.7-7.4c.4 1 1.3 1.3 2.6.9 1.5-.5 2-.2 2 1.4 0 1 .3 2.6.6 3.5.3.9.1 1.6-.5 1.6s-1.1-.9-1.1-2-.7-2-1.5-2c-3.3 0-.6 5.6 3 6.2 1.7.3 1.9.8 1.4 3.8l-.5 3.5-1.1-3.5c-.6-1.9-1.2-2.7-1.2-1.8-.2 3.4-1.7 1.8-3.6-3.7-1-3-2.1-5.5-2.5-5.5-1.2 0-.2 7.2 1.1 8 .6.4.9 1.2.5 1.8-.3.6-.1 1.2.6 1.4.9.3.9.6 0 1.2-.8.4-1.6-.2-2.2-1.8-.6-1.7-1.4-2.4-2.5-2-1.8.7-1.9-.4-.4-4.3.8-2.2.7-3-.5-3.9-.9-.6-1.6-1.6-1.6-2.3 0-1.2 3.6-1.5 4.3-.4.2.5.2.2.1-.5-.5-1.8 2.3-1.5 3 .4zm-90.6 1.2c.2.7-.3 1.2-1.2 1.2-.9 0-1.6-.7-1.6-1.6 0-1.7 2.2-1.4 2.8.4zm50.7 9.2c-.9 1-1.1 2-.6 2.6.6.5.4 1.7-.5 2.8-2.9 4.1-3.3 0-.7-9.4l1.7-6.5.8 4.4c.6 3.4.4 4.9-.7 6.1zm48.5-8c0 1.1-.4 2-.9 2-1.1 0-2.2-2.6-1.4-3.4 1.2-1.2 2.3-.5 2.3 1.4zm-33-.1c0 .5-.7 1.1-1.5 1.5-.8.3-1.5 1.6-1.5 2.8 0 1.9-.2 2-1 .8-1.4-2.2-1.2-4 .5-4 .8 0 1.5-.5 1.5-1 0-.6.5-1 1-1 .6 0 1 .4 1 .9zm6 1.6c0 .8-.4 1.5-1 1.5-.5 0-.7-.7-.4-1.5.4-.8.8-1.5 1-1.5.2 0 .4.7.4 1.5zm-35.6 2.6c-.9 1-2.3 1.5-3.1 1.2-1.1-.4-1.4 0-1.1 1.8.2 1.4 1.1 2.5 2.2 2.7 1.3.3 1.6 0 1.1-.9-.5-.8-.4-1 .4-.5.6.4.9 1.1.6 1.6-.3.5 1.3 1.9 3.6 3.1l4.2 2.1-.6-2.1c-.3-1.2-.1-1.9.3-1.6 1 .6 1 6.7 0 6.3-3.3-1.5-16-9.5-16-10.2 0-.4.7-.5 1.6-.2 1.2.4 1.5.2 1-.9-.8-2.1 3.1-5.4 5.5-4.8 1.8.5 1.9.7.3 2.4zm23.1.1c-.4 1.8-1.8 5.5-3.1 8.3-2.6 5.6-2.5 6.6.5 3.4 2.7-2.9 2.7-.7.1 4.1-1.6 2.9-1.9 3.1-2 1.3 0-1.3-.8-2.4-2.1-2.8-2.5-.8-3.9.2-1.5 1.1 1.6.6 2.2 2.4.8 2.4-.5 0-1.6-.6-2.6-1.3-1.6-1.2-1.3-1.7 3.3-7 4-4.6 5.1-6.6 5.1-9.3 0-1.9.5-3.4 1.1-3.4.7 0 .8 1.2.4 3.2zm22.5 4.3c0 2.4-.4 4.6-.9 4.9-1 .6-2.1-1.6-2.1-4.2 0-1.5.2-1.5 1.1-.2.8 1.1.9.5.4-2.3-.4-2.7-.3-3.7.4-3.2.6.3 1.1 2.6 1.1 5zm-42-2.9c0 1.4.3 1.4 1.5.4 1.3-1.1 1.5-.8 1.5 1.4 0 3 0 3-3.5 1.4-2.4-1.1-3.2-2.8-1.8-4.1 1.1-1.2 2.3-.7 2.3.9zm62.4 2.5c.8 5.2 0 6.5-.9 1.5-.5-2.2-1.3-3.6-2.2-3.6-.8 0-1.1-.5-.8-1 1.4-2.3 3.3-.8 3.9 3.1zm-41.3 3.2c-.8.8-1.1.7-1.1-.4 0-2 1.3-3.4 1.8-1.9.3.7-.1 1.7-.7 2.3zm6.9-2.4c0 1.2-2 2.5-2.7 1.8-.7-.7.6-2.7 1.8-2.7.5 0 .9.4.9.9zm7.1 4.4c-.8.8-1.1.7-1.1-.4 0-2 1.3-3.4 1.8-1.9.3.7-.1 1.7-.7 2.3zm26.3 1.1c.6 2.6.5 2.8-.8 1.7-.9-.8-1.6-2.5-1.6-3.9 0-3.2 1.5-1.8 2.4 2.2zm-23.1.3c.2.5.8 2.6 1.1 4.8.7 3.5.6 3.8-.7 2.5-1.9-1.9-3.3-8-1.8-8 .5 0 1.2.3 1.4.7zm-13.1 2.5c-.6.6-1.5.8-1.9.4-.4-.4-.1-1.1.7-1.6 1.9-1.2 2.7-.3 1.2 1.2zm22.5 0c-.3.8-.6.5-.6-.6-.1-1.1.2-1.7.5-1.3.3.3.4 1.2.1 1.9zm24.7 7.8c-.4 2.5-1.3 5.2-2 6.1-.8.8-1.4 2.1-1.4 2.7 0 .7-.4 1.2-1 1.2-1.5 0-1.2-1.7.6-3.5 1.9-1.9 3.2-10.5 1.6-10.5-.6 0-1.2 1.2-1.5 2.7-.2 1.6-.4.4-.4-2.5V378l2.4 2.2c2.1 1.9 2.3 2.8 1.7 6.8zm-6.6-6.2c.6 1.8-1.5 1.4-2.2-.4-.4-1-.1-1.4.6-1.2.6.2 1.4 1 1.6 1.6zm-5.4.8c.9 2.3.8 2.6-.6 1.8-.6-.4-2.1.4-3.4 2.1l-2.2 2.7.5-2.6c.3-1.4 1.2-2.6 1.9-2.6.8 0 1.4-.7 1.4-1.5 0-2 1.6-1.9 2.4.1zm5.6 5.7c0 3.3-.9 2.8-2.7-1.4-1-2.4-1-2.6.8-2.2 1.4.4 1.9 1.4 1.9 3.6zm-7-.2c-.7 1.1-1.4 1.9-1.6 1.6-.7-.7.7-3.7 1.7-3.7.6 0 .5.9-.1 2.1zm6 5.9c1.2 0 1.3 2.7.2 3.4-.5.3-2.1-.7-3.5-2.2-2.6-2.7-2.6-2.9-1-5.2l1.7-2.4.8 3.2c.5 1.8 1.3 3.2 1.8 3.2zm-6 5.4c0 .8-.4 1.8-1 2.1-.5.3-1-.3-1-1.4 0-1.2.5-2.1 1-2.1.6 0 1 .6 1 1.4zm5.1 2.5 2.1 1.9-2.8 1.5-2.9 1.5-.2-3.4c-.2-3.9.9-4.3 3.8-1.5zm4.5 2.8c-1 1-1.9-.5-1-1.8.6-1.1.8-1.1 1.2 0 .2.7.1 1.5-.2 1.8zm-2 7c-1.1 1.1-1.9-.6-1.1-2.4.8-1.7.8-1.7 1.2 0 .3 1 .2 2.1-.1 2.4zm3.4.9c0 .8-.5 1.2-1 .9-.6-.4-.8-1.1-.5-1.6.9-1.4 1.5-1.1 1.5.7zM201 105c0 .8.5 2.2 1 3 .9 1.3 1 1.3 1 0 0-.8-.5-2.2-1-3-.9-1.3-1-1.3-1 0zm-29.8 35.7c.2 1 1.1 1.9 2.1 2.1 2.4.5 2.1-1.5-.4-2.8-1.8-1-2-.9-1.7.7zM166 142c0 .5.4 1 .9 1 .6 0 1.3-.5 1.6-1 .3-.6-.1-1-.9-1-.9 0-1.6.4-1.6 1zm-23.8 20.1c-1.1 1.6-.9 1.9.8 1.9 1.1 0 2-.6 2-1.4 0-2.4-1.5-2.6-2.8-.5zm99.4 107.6c-.3 1.6-.9 3.9-1.2 5.2-.5 1.7-.4 2.2.5 1.7.6-.4.9-1.1.6-1.6-.3-.4-.1-1 .4-1.2 1.2-.4 2.5-6.8 1.3-6.8-.5 0-1.2 1.2-1.6 2.7zm34.5 61.7c-.1 2.6.2 3.7.9 3 .6-.6.6-2.1.1-3.9-.9-3-.9-3-1 .9zm-62.5-1.9c-.3.8-.1 1.5.4 1.5.6 0 1-.7 1-1.5s-.2-1.5-.4-1.5-.6.7-1 1.5zM331 403.1c0 .5.5.7 1 .4.6-.3 1-.8 1-1.1 0-.2-.4-.4-1-.4-.5 0-1 .5-1 1.1zM172 45.6c0 .3.9 1.7 1.9 3 2.3 3 3.7 1.6 1.5-1.4-1.4-2-3.4-3-3.4-1.6zm8.7 5c-.3.4.5 2.2 2 4 3.3 4.4 1.7 4.5-1.9.2-1.5-1.8-2.8-2.8-2.8-2.1 0 2 6.1 8.3 8.1 8.3 1 0 1.9-.4 1.9-.8 0-1.5-6.6-10.2-7.3-9.6zm6.3 4c0 .9 2.8 3.4 3.9 3.4.6 0 .3-.9-.6-2-1.7-1.9-3.3-2.6-3.3-1.4zM135 57c0 .6 1.5 1.9 3.3 3 1.9 1.1 3.9 3.5 4.7 5.5.8 1.9 1.8 3.5 2.3 3.5.5 0 .7-.7.3-1.5-.4-1 .1-1.5 1.4-1.5 3.3 0 2.3-1.4-2.7-4-2.7-1.4-5.4-3.3-6.1-4.3-1.5-1.9-3.2-2.3-3.2-.7zm58.1 1.7c0 .7-.7 1.3-1.5 1.3-1.9 0-3.1 1.9-1.9 3.1 1.4 1.4 4.6-1.4 4-3.7-.2-1-.5-1.3-.6-.7zm-17 5.9c0 1.1.3 1.4.6.6.3-.7.2-1.6-.1-1.9-.3-.4-.6.2-.5 1.3zM188 66c0 .5 1 1.2 2.2 1.6 1.2.3 2.8 1.3 3.6 2 2.1 2.2 3.7 1.6 1.8-.5-2-2.2-7.6-4.5-7.6-3.1zm-99.6 4.5c1.1.8 2.7 1.5 3.5 1.5 1-.1.7-.6-.9-1.5-3.3-1.9-5-1.8-2.6 0zM204.5 73c1 1.1 2.4 2 3.1 2 .7 0 2.4 1.2 3.8 2.7 3 3.3 4.3 2.5 2.4-1.4-1-2.2-1.9-2.7-3.9-2.5-1.4.2-3.1-.4-3.9-1.2-.7-.9-1.7-1.6-2.3-1.6-.5 0-.2.9.8 2zm-49.4 10.6c0 1.1.3 1.4.6.6.3-.7.2-1.6-.1-1.9-.3-.4-.6.2-.5 1.3zm-1.7 7.5c-.3.6-.1 1.6.5 2.2.8.8 1.1.5 1.1-1.1 0-2.4-.5-2.8-1.6-1.1zM29 111c6.3 3.3 20.5 8.3 22.1 7.8.6-.2-2-1.4-5.8-2.7-3.7-1.2-9.5-3.6-12.7-5.2-7.7-3.8-10.8-3.7-3.6.1zm51.3 5.6c1.6 1.4 3.1 2.3 3.4 2 .9-.9-2.8-4.6-4.6-4.6-1.1 0-.8.7 1.2 2.6zM39 118c0 .5.5 1 1 1 .6 0 1-.5 1-1 0-.6-.4-1-1-1-.5 0-1 .4-1 1zm28.5 2c-.3.5.6 1.2 2 1.6 3.5.9 4.1 0 1-1.4-1.4-.7-2.7-.8-3-.2zm9.3 4.7c.6.2 1.8.2 2.5 0 .6-.3.1-.5-1.3-.5-1.4 0-1.9.2-1.2.5zm5 2c.7.3 1.6.2 1.9-.1.4-.3-.2-.6-1.3-.5-1.1 0-1.4.3-.6.6zm42.6 6.8c2.1 1.6 3.2 1.3 2.1-.4-.3-.6-1.4-1.1-2.3-1.1-1.5.1-1.5.2.2 1.5zm-57.3 7.7c.7 1.3 2.5 3.9 4.1 5.8 3.3 4.1 3.5 5.7.8 11.2-1.2 2.4-1.7 5.1-1.4 6.4.4 1.5.2 2.4-.5 2.4-.6 0-1.1-.4-1.1-.9s-1.3-.3-3 .5c-2.5 1.3-3.6 1.3-6.4.3-3.7-1.3-7-.6-6.3 1.4.3.8 2.6 1.1 7.9.9 7.1-.3 7.6-.1 8.2 2 .7 2.2.7 2.2 1.6.3.8-2 .8-2 1.6-.1.5 1.2.1 3-.9 4.7-2.3 4.1-.4 4.5 3.8.8l3.6-3.2-2.4-2.6c-2.4-2.5-2.5-2.7-1.1-8.1 1.7-6.4 4-9.5 3-4-1.5 8.6-1.7 11.5-.8 10 1.6-2.6 2.5-11.9 1.3-13.4-.8-.9-.8-2.2-.2-3.9.9-2.2.7-2.6-1.4-3.1-1.3-.3-4-2.6-6.1-5.1-3.9-4.8-6.3-6-4.3-2.3zm9.9 10.3c0 .8-.4 1.5-1 1.5-.5 0-1-.7-1-1.5s.5-1.5 1-1.5c.6 0 1 .7 1 1.5zm-3.2 11.8c-.7 3-1.5 5.4-1.9 5.1-.7-.4-.4-2.6 1.3-8.2 1.5-5.1 1.9-3.2.6 3.1zm2.2 10.1c0 .3-.4.8-1 1.1-.5.3-1 .1-1-.4 0-.6.5-1.1 1-1.1.6 0 1 .2 1 .4zm-58.9-15.9c1.2 1.1 16 8.5 17.2 8.5 1.5 0-5.1-4.2-11.1-7-4-1.8-7.2-2.7-6.1-1.5zm19.9 9.9c0 .2.7.7 1.6 1 .8.3 1.2.2.9-.4-.6-1-2.5-1.4-2.5-.6zm-11 5.3c3 1.4 8.1 3.9 11.3 5.5 3.1 1.5 6.3 2.8 7 2.7 1.9 0-19.6-10.8-21.8-10.8-1.1-.1.5 1.1 3.5 2.6zm28.5 1.3c-.3.5.6 1.5 2.2 2.1 1.5.6 3.8 2 5 3.1 1.3 1.2 2.6 1.8 3 1.4.8-.8-1.9-3.1-6.8-6-1.8-1-3-1.3-3.4-.6zm48.5-.3c0 .5.5 1.5 1 2.3.8 1.2 1 1.1 1-.8 0-1.2-.4-2.2-1-2.2-.5 0-1 .3-1 .7zm9 1.3c1.7 3.3 4 5.9 6.5 7.3 1.2.6.4-.8-1.9-3.4-5.6-6.4-6-6.7-4.6-3.9zm-65 6.5c0 1.1 7.8 8.5 9.1 8.5.7 0-.3-1.6-2.2-3.6-3.3-3.5-6.9-6-6.9-4.9zm46-.2c0 .3.7 1.3 1.6 2.1.9 1 1.1 1.6.4 1.6-.6 0-1.9-.7-2.8-1.6-1.1-1.1-1.7-1.3-2-.5-.4 1.3 1.8 4.4 2.6 3.6.6-.6 8.9 4.1 11.4 6.4.9.9 4.4 4.3 7.7 7.6 3.3 3.2 6.3 5.6 6.7 5.2.4-.4-1.4-2.8-4-5.3-2.5-2.6-4.6-4.8-4.6-5 0-.8.9-.3 2.5 1.2.9.9 1.9 1.4 2.2 1 .8-.7-2-3-6.5-5.1-1.8-.9-3-2-2.7-2.6.4-.5-.7-.9-2.3-.9-2.2 0-3.4-.8-5.3-3.7-2.1-3.2-4.9-5.5-4.9-4zm32.6.6c-.4.5-.2 1.2.3 1.5.5.4 1.2.2 1.5-.3.4-.5.2-1.2-.3-1.5-.5-.4-1.2-.2-1.5.3zm5.6 4.5c.7.8 1.5 1.2 1.7 1.1.5-.6-1-2.5-2-2.5-.5 0-.4.6.3 1.4zm-8.1.3c0 1.3 13 9.5 14.2 9 .7-.3.4-.8-.8-1.2-1.1-.5-3.3-1.8-5-2.9-5.4-3.9-8.5-5.7-8.4-4.9zm-11.5 4.1c10.1 6.2 13 8.2 11.5 8.2-1.1 0-1.1.3-.1 1.5.8.9 1.6 1.2 1.9.6.3-.5 1.7-1.1 3.1-1.3 2.3-.4 2.4-.5.5-1.3-1.1-.5-3.8-2.1-6-3.5-5.1-3.5-14.1-8-15.7-8-.7 0 1.4 1.7 4.8 3.8zM92.5 189c-.3.5-.1 1 .4 1 .6 0 1.1-.5 1.1-1 0-.6-.2-1-.4-1-.3 0-.8.4-1.1 1zm41.5-.6c0 .4.7 1.4 1.5 2.2.8.9 1.5 1.1 1.5.6 0-.5-.7-1.5-1.5-2.2-.8-.7-1.5-.9-1.5-.6zm-13 1.3c0 .4 1.6 1.8 3.6 3.1s3.3 1.9 3 1.3c-1-1.6-6.6-5.3-6.6-4.4zm8.5 6.2c.3.6 2 1.8 3.7 2.7 1.6.9 2.7 1.1 2.3.5-.3-.6-2-1.8-3.7-2.7-1.6-.9-2.7-1.1-2.3-.5zm10 5.1c-.3.5.1 1 1 1s1.3-.5 1-1c-.3-.6-.8-1-1-1-.2 0-.7.4-1 1zm-20.5 1.5c.7.9 1.5 1.3 1.7 1.1.7-.7-.7-2.6-1.9-2.6-.6 0-.6.6.2 1.5zm-58 3.6c3.4 2.2 6.9 4.7 7.8 5.5 2.1 2.1 2.9.8.8-1.5-1.7-1.8-12.6-8.1-14.1-8.1-.5 0 2 1.8 5.5 4.1zm-12.9-2.6c.9.9 7.9 3.5 7.9 3 0-.3-1.6-1.3-3.5-2.1-3.4-1.4-5.2-1.8-4.4-.9zm95.9.4c0 .5.5 1.3 1 1.6.6.3 1 .2 1-.4 0-.5-.4-1.3-1-1.6-.5-.3-1-.2-1 .4zm-81 7c0 .5.5 1.3 1 1.6.6.3 1 1.1 1 1.6 0 .6-.5.7-1.2.3-.7-.5-.8-.3-.4.5.5.7 1.4 1 2.2.7.7-.3 3 1.1 5 3 2.6 2.5 4.2 3.4 5.7 3 2.1-.5 13.4 2.8 15.1 4.5 1.4 1.3-.1 2.4-1.6 1.2-.7-.5-2.1-1.3-3.1-1.6-2.8-1-1 1.1 2.5 2.9 2.7 1.4 3.2 1.4 4.6 0 1.3-1.2 1.3-1.8.2-3-.7-.9-1.7-1.6-2.3-1.6-2.3 0-21.3-7.4-22-8.6-1.1-1.9-6.7-5.7-6.7-4.5zm73 3.6c0 .9 5.4 5.4 6.4 5.5.6 0-.3-1.4-1.9-3-2.7-2.8-4.5-3.8-4.5-2.5zm27 .3c0 1.2 1.9 2.6 2.6 1.9.2-.2-.2-1-1.1-1.7-.9-.8-1.5-.8-1.5-.2zm5 4.7c.7.9 1.5 1.3 1.7 1.1.7-.7-.7-2.6-1.9-2.6-.6 0-.6.6.2 1.5zm-61.8 17.1c.7.8 2.1 2.4 3.1 3.5 1.7 1.9 1.7 2.2-.2 7.5-2.1 5.5-2.7 9.4-1.4 8 .4-.4 1.4-3 2.3-5.9 1.2-4 2-5.2 3.5-5.2s2 .7 2 2.7c-.1 3.7.8 3.5 2.3-.5 1.6-4.4 1.5-4.9-.5-4.6-4 .4-5.2-.3-7.3-3.6-1.2-1.9-2.8-3.5-3.6-3.5-1.2 0-1.3.3-.2 1.6zM0 236.5c0 .9 8.2 4.6 9.3 4.2.7-.2-.7-1.4-3-2.5-4.1-2.1-6.3-2.7-6.3-1.7zm14 6.1c0 .8 11.1 5.7 11.7 5.1.3-.3-1.8-1.7-4.6-3.1-4.9-2.5-7.1-3.2-7.1-2zm15.4 7.2c.3.5 2.3 1.7 4.6 2.7 2.2 1 4 2.2 4 2.6 0 .4 1.2.7 2.8.7 3-.1 9.5 2.9 8.8 4-.2.4.8.8 2.2.9l2.7.1-2.7-2.3c-1.5-1.3-5.1-3.1-8-4-2.9-1-6.7-2.6-8.4-3.6-3.2-1.9-6.9-2.6-6-1.1zM144 253c0 .5.4 1 .9 1 .6 0 1.3-.5 1.6-1 .3-.6-.1-1-.9-1-.9 0-1.6.4-1.6 1zm-40.4 7.6c-1.8 1.8-2 2.4-.6 2.4.5 0 1.4-.9 2-2 1.3-2.4.7-2.6-1.4-.4zm3.6 1.5c-.7 1.2-1.1 2.3-.9 2.5.6.6 3.7-2.5 3.7-3.7 0-1.6-1.5-1-2.8 1.2zm51.8.9c0 .5.5 1 1 1 .6 0 1-.5 1-1 0-.6-.4-1-1-1-.5 0-1 .4-1 1zm-105 1.4c0 .9.7 1.9 1.5 2.3 2.5.9 2.7-.2.5-2.2-1.8-1.7-2-1.7-2-.1zm90.5-.4c-1 1.6-.1 12 1 11.7.5-.2.9-2.4.7-4.9-.2-2.6.1-4.9.7-5.3.6-.3 1.1-1 1.1-1.6 0-1.2-2.7-1.2-3.5.1zm8.5 3.5c.7.8 1.7 1.5 2.2 1.5.6 0 .5-.7-.2-1.5s-1.7-1.5-2.2-1.5c-.6 0-.5.7.2 1.5zm-93.9 1.4c.3.7 2 2.2 3.8 3.3 2.4 1.5 3.3 1.8 2.9.8-.2-.8-2-2.4-3.8-3.4-1.9-1.2-3.1-1.5-2.9-.7zm36.9 1.5c-.6.9-1 2.1-.8 2.8.3.8.9.4 1.7-1 1.5-2.8.9-3.9-.9-1.8zm63 .8c0 1.9 1.8 4.3 2.5 3.6.9-.9-.4-4.8-1.6-4.8-.5 0-.9.6-.9 1.2zm-88 4c1.4.6 5.2 2.4 8.5 3.9 6.6 3 17.4 6.4 18.1 5.6.3-.3-1.6-1.3-4.3-2.2-7-2.5-12.3-4.6-16.9-6.6-2.2-1.1-4.9-1.9-6-1.8-1.6 0-1.5.2.6 1.1zm49 .2c0 .8.5 1.8 1 2.1.6.3 1-.3 1-1.4 0-1.2-.4-2.1-1-2.1-.5 0-1 .6-1 1.4zm21.6 2.3c-1.4 4.7-1.8 9.3-.8 9.3.6 0 1.8.7 2.7 1.7 1.4 1.4 1.8 1.4 2.6.2.6-1 .2-1.9-1.2-3.2-1.7-1.4-2-2.4-1.5-5.1.7-3.6-.9-6-1.8-2.9zm32.1-.1c.6 1.5 2.3 1.9 2.3.5 0-.5-.7-1.1-1.4-1.4-1-.4-1.3-.1-.9.9zm-46.7.2c0 1.1 4.4 4.2 6 4.2.5 0 1-.4 1-.8 0-.8-1.4-1.6-6.2-4-.5-.2-.8.1-.8.6zm64 .7c.7.9 1.5 1.3 1.7 1.1.7-.7-.7-2.6-1.9-2.6-.6 0-.6.6.2 1.5zm-42.4 2.2c-.3.4-.6 1.3-.6 2.1 0 1.1.3 1.2 1.3.3 1-.8 1.7-.7 2.6.2 1 .9 1.1.9.6-.5-.7-1.8-3-3-3.9-2.1zm32.4 1.6c0 1.2 11.6 11.7 13.1 11.7.8 0 2 .5 2.7 1.2.9.9 1.2.7 1.2-.9 0-1.2-1.5-3.2-3.5-4.7-3.4-2.6-5.1-2.2-2 .4.9.7 1.4 1.5 1.2 1.7-.7.7-3.7-.9-3.7-1.9 0-.6-1.2-2.1-2.7-3.4-1.6-1.3-2.2-2.4-1.5-2.4.7 0 1-.5.6-1.1-.4-.8-.9-.7-1.4.2-.7 1-1.1 1-2.4 0-.9-.8-1.6-1.1-1.6-.8zm-14.6 3.6c.8 1.2 4.6 2.1 4.6 1.1 0-.8-2.4-2-4.1-2-.6 0-.8.4-.5.9zM101 288c1.4 1.1 3.3 2 4.2 2 1 0 2.2.9 2.8 2 .6 1.1 2.1 2.2 3.5 2.6 1.3.3 3.1 1.4 4.1 2.5 2.2 2.5 4.4 2.4 4.4-.1 0-1.2-.7-2-1.8-2-2.6 0-6.4-3-5.8-4.6.7-1.9-1.2-2.8-2.9-1.4-1.1.9-2 .8-4.1-.9-1.5-1.2-3.6-2.1-4.8-2.1-2 0-2 .1.4 2zm72 .4c0 .2.7.7 1.6 1 .8.3 1.2.2.9-.4-.6-1-2.5-1.4-2.5-.6zm-20 5.4c0 1.2 1.9 2.6 2.6 1.9.2-.2-.2-1-1.1-1.7-.9-.8-1.5-.8-1.5-.2zm31.5 1.2c.3.5.8 1 1.1 1 .2 0 .4-.5.4-1 0-.6-.5-1-1.1-1-.5 0-.7.4-.4 1zm-6.5 3.6c0 .9.7 1.4 1.7 1.2 2.5-.5 2.8-2.8.4-2.8-1.2 0-2.1.6-2.1 1.6zm-18 .9c.7.9 1.5 1.3 1.7 1.1.7-.7-.7-2.6-1.9-2.6-.6 0-.6.6.2 1.5zm27.6.6c.5.8-.1 1-1.9.7-3.9-.7-1.5 2.2 3.7 4.6 9.2 4.1 13.2 6 14.9 6.8 3.5 1.8 1.5-.8-2.5-3.2-2.3-1.4-6.1-4.2-8.5-6.3-4.3-3.6-7.2-4.9-5.7-2.6zm-14.8.6c.7.3 1.6.2 1.9-.1.4-.3-.2-.6-1.3-.5-1.1 0-1.4.3-.6.6zm62.7 1.6c-.4 1-.5 2.1-.1 2.4 1 1 1.8-.4 1.3-2.4-.4-1.7-.4-1.7-1.2 0zm2.5 4.9c0 1.8-.1 9.1-.3 16.3-.2 8.3-.1 11 .4 7.5 1.2-9.4 1.7-27 .8-27-.5 0-.9 1.5-.9 3.2zm-90.6 13.2c1.5 1.4 3 2.6 3.3 2.6.4 0 4 1.6 8.1 3.5 4.1 2 7.7 3.4 8 3.1.2-.3-.6-1-2-1.5-1.3-.5-3.9-2.2-5.8-3.7-1.8-1.6-5-3.5-6.9-4.2-7.2-2.7-7.5-2.7-4.7.2zm-16.4 4.5c0 .5.7 1.2 1.6 1.5 1.4.5 1.5.4.4-.9-1.4-1.7-2-1.9-2-.6zM238 338c0 .5.5 1 1 1 .6 0 1-.5 1-1 0-.6-.4-1-1-1-.5 0-1 .4-1 1zm-7 10.5c0 .7 10.4 5.5 10.9 5 .5-.6.7-.4-4.5-3.3-4-2.1-6.4-2.8-6.4-1.7zm-55.4 1.4c2 1.9 8.4 5 8.4 4.1 0-.6-1.1-1.5-2.4-2-1.3-.5-2.7-1.4-3.1-1.9-.3-.6-1.4-1.1-2.3-1.1-1 0-1.2.3-.6.9zm-48.1 3.2c-1.1 1.7.1 2.1 1.5.4.8-.9.8-1.5.2-1.5-.6 0-1.4.5-1.7 1.1zm9.2-.4c-.4.3-.7 1.3-.7 2 0 1 .5 1.1 1.6.5 1.2-.7 3.3.1 7.8 2.9 3.3 2.1 9.9 6 14.6 8.8 4.7 2.7 10.2 6.1 12.4 7.6 3.7 2.5 5.5 2.8 4.1.5-.3-.5-2.7-2.1-5.3-3.4-2.6-1.3-7-3.9-9.9-5.7-19.5-12.7-23.2-14.7-24.6-13.2zm96.9.1c2.4 2.2 8.4 5.2 8.4 4.3 0-.6-1.8-2-4-3.1-4.1-2.1-6.1-2.6-4.4-1.2zm-99.1 15.4c2.2 1.8 4.2 3.2 4.5 3.1.3-.1 1.3.6 2.3 1.4.9.9 2 1.4 2.3 1 .3-.3-1.1-1.7-3.3-3-2.1-1.3-4.4-3.2-5.2-4.1-.7-.9-2.1-1.6-3-1.6-.9 0-.1 1.2 2.4 3.2zm44.2 8.6c-.6.8 8.4 7.2 10.2 7.2.5 0 1.1.5 1.3 1.1.2.7 1.1 1 1.9.7.9-.4.5-1-1.6-1.9-1.6-.7-3.2-1.6-3.5-1.9-1.9-2.2-7.9-5.9-8.3-5.2zM195 387c0 .5.5 1 1.1 1 .5 0 .7-.5.4-1-.3-.6-.8-1-1.1-1-.2 0-.4.4-.4 1zm119.9 1.4c-.1.3-.2.9-.3 1.3-.1.5-.5 1.4-1 2.1-1.1 1.8-.5 2.2 2.2 1.5 1.2-.3 2.2-1.1 2.2-1.8 0-1.3-2.9-4.2-3.1-3.1zm-107.1 7.3c.7.3 1.6.2 1.9-.1.4-.3-.2-.6-1.3-.5-1.1 0-1.4.3-.6.6zm80.2 3.6c0 1.3-.6 3.2-1.4 4.3-1.5 2-1.2 6.1.7 7.9.6.7.8 0 .4-2-.3-1.7 0-4.1.8-5.5 1.7-2.9 1.9-7 .5-7-.5 0-1 1-1 2.3zm-73.6 1.2c2.2 1.7 4 2 3.2.6-.3-.5-1.6-1.1-2.8-1.4-2.2-.6-2.2-.5-.4.8zm5.6 2.9c0 .6 6.6 4.6 7.5 4.6.5 0-.2-1.1-1.5-2.5-2-2.1-6-3.5-6-2.1z"/>
	<title>Schematic view of the side of a rock, showing the layered strata.</title>
</svg>
