<?xml version="1.0" encoding="utf-8"?>
<svg xmlns="http://www.w3.org/2000/svg" viewBox="0 0 1453 715">
	<title>Diagram of the route and locations between St. Jean d’Arve, La Grave, the Valley of Rieu Blanc, Bonnenuit, and Valloires and the Col du Galibier.</title>
	<path d="M1245.072 1.9c-2.8 5.1-5.3 13.3-4.3 14.3.7.7 1.4.1 2.4-1.9 1.8-3.7 5.1-4.2 6.6-.8 1.1 2.5 4.9 3.7 3.9 1.2-6.2-15.7-6.7-16.4-8.6-12.8zm2.6 6.7c-.9.9-2.8-.6-2.1-1.8.4-.6 1-.6 1.7.1.6.6.8 1.3.4 1.7zm26.5-.9.3 7.8 5.3.3c4.1.2 5.2 0 5.2-1.2 0-1-1.3-1.6-4.2-1.8l-4.3-.3-.1-4.5c-.1-6.8-.3-8-1.4-8-.7 0-1 2.9-.8 7.7zm41.6-7c-1 2.1-.2 14.7.9 15 .7.3 1.3-.9 1.5-2.9.4-4.7 3.3-4.9 5.2-.4 2 4.8 4.9 5 3.5.4-.5-1.8-.6-4.8-.3-6.6.9-4.5-.9-6.2-6.2-6.2-2.3 0-4.4.3-4.6.7zm7.9 2.4c1.7 1.7.4 3.9-2.2 3.9-2.7 0-3.9-1.4-3.1-3.5.6-1.8 3.7-2 5.3-.4zm8.7-1.7c-.3.7-.4 4.2-.2 7.7l.3 6.4h5.8c6.8 0 8.1-1.8 1.7-2.5-3.2-.4-4.6-1-4.8-2.3-.3-1.3.3-1.7 2.7-1.7 1.6 0 3.3-.5 3.6-1 .3-.6-.4-1-1.7-1-3.2 0-5.2-1.5-4.5-3.3.4-1.2 1.5-1.4 4.1-1 2.9.4 3.6.2 3.6-1.1s-1-1.6-5-1.6c-3.3 0-5.2.5-5.6 1.4zm17 1.3c-.9 3.4.6 5.7 4.2 6.3 3.1.6 4.4 3.4 1.9 4.3-2.1.9-4.3-.2-5-2.4-.8-2.4-2.5-2.5-2.5-.1 0 4.4 7.2 6.9 10.4 3.6 3.2-3.2 1.7-6.8-3.3-8.1-1.9-.5-3.6-1.4-3.9-2.1-.6-2 2.7-2.6 4.7-.8 2.2 2 3.4 1 2-1.5-.6-1.3-2.1-1.9-4.4-1.9-2.9 0-3.6.4-4.1 2.7zm-156.9.8c-1.7 1.6-2.5 3.5-2.5 6 0 3.8 3.5 8.5 6.4 8.5 6 0 9.6-5.4 7.6-11.5-1.9-5.7-7.4-7.2-11.5-3zm7.2 1.3c1.8 1.1 2.6 5.8 1.3 8.1-1.4 2.7-5.6 2.8-7 .2-2.9-5.6 1-11.3 5.7-8.3zm24.1-3.3c-.7.8 5.4 15.5 6.4 15.5.9 0 5.5-9.8 6.4-13.7.8-3-1.4-3.1-2.5-.1-.5 1.3-1.4 3.6-2.1 5.2l-1.1 3-2.4-5.2c-2.2-4.8-3.4-6-4.7-4.7zm34.9.2c-.9.8-.9 7.1-.1 11.2.6 3 .9 3.1 5.5 3.1 4.8 0 7.2-1.3 4.3-2.4-.9-.3-2.9-.6-4.5-.6-2.9 0-2.9 0-2.9-6 0-5.5-.6-7-2.3-5.3zm32.5-.1c-2.1 1-4.4 6.3-3.6 8.7 1 3.5 4.5 6.7 7.4 6.7 5.6 0 9.2-8.5 5.6-13.3-1.4-1.8-7.1-3.1-9.4-2.1zm6.8 3c2.8 3.2.7 10.4-3 10.4-.3 0-1.5-.6-2.5-1.4-3.6-2.6-1.7-10.6 2.5-10.6 1 0 2.3.7 3 1.6zm8.6 4.1c.5 7.3.9 9.2 1.8 8.2.7-.7.8-3 .7-9.7-.1-4.6-.5-6.2-1.5-6.2-1.2 0-1.3 1.5-1 7.7zm-133.9-6.1c-1.5 1.5-.6 2.4 2.3 2.4s2.9 0 3.2 6.5c.4 8.4 2.2 8.5 2.6.1.3-6.1.5-6.5 2.8-6.8 1.3-.2 2.3-.7 2.2-1.3-.3-1.1-12.1-1.9-13.1-.9zm93.1 35c-.5.4-.8 4.1-.8 8.3 0 4.2-.5 11.4-1 16.1-.5 4.7-1.2 14.8-1.5 22.4-.3 9.8-.9 14.6-1.9 16.2-1.4 2-1.3 2.3.4 3.6 2.5 1.8 1 5.8-2.3 5.8-1.9 0-2.5.8-3.5 4.6-1.1 3.9-1 5 .2 6.9 1.3 2 1.2 2.6-1 5.8-3.6 5.3-4.1 9.2-1.5 10.6 2.6 1.4 2.7 2.9.4 3.8-2.7 1-3.3 2.3-3.3 7.3 0 4.9 1.3 7.2 3.6 6.3.9-.3 1.4.2 1.4 1.5 0 1.1-.8 2.2-2 2.5-1.6.4-2 1.3-2 4.4 0 4.6 1.3 6.8 3.4 6 1.1-.5 1.6-.1 1.6 1.3 0 1.1 1.4 5.6 3 10.2 3.2 8.7 6 23.5 6 31.6 0 4.7 1.9 17.8 4.1 29.2 1.3 6.6 5.3 14 10.8 19.9 5.1 5.5 6.2 4.8 2.1-1.2-4.1-6.1-3.8-7 .6-1.8 2 2.3 8 7.7 13.3 12 13 10.7 28.7 27 35 36.3 5 7.5 9.3 16 12.4 24.8 2.1 5.8 8.5 31 9.2 35.8 1.2 9 1.6 36.1.7 51.2-.5 9.1-.6 17.4-.2 18.5 1.1 3 2.4-19.5 2.4-41 0-25.9-1.1-34-8-57.5-4-13.3-9-24.5-15.4-33.9-5.8-8.6-22.6-25.9-34.5-35.6-9.9-8.1-10.5-8.8-10.5-12.1 0-3.7-2.6-6.6-3.6-4-.7 1.9-2.4 1.2-2.4-1 0-.8-.9-2.5-2-3.6-3.5-3.8-4.7-10.7-6.9-38.8-.5-6.9-1.4-13.7-1.9-15-3.5-8.8-3.5-10.3-.8-17.9 2.2-6.2 2.5-7.9 1.6-11.1-.8-2.9-.6-4.7.6-8.1 1.7-4.9 1.3-11.5-1.1-17.1-1.4-3.5-1.9-14.7-.9-23.6.4-3.9.2-5.9-1-7.7-1.5-2.3-1.5-2.8-.1-5.6.9-1.7 1.4-3.3 1.1-3.6-.7-.7-3.1 4.3-5.4 11.7-3.9 12.3-5.2 22.4-5 38.4.1 16.5.2 16 1.8-8.4 1.1-16.1 3.4-30 5.1-30 1.6 0 2.1 5 1 9.5-1.7 6.7-1.3 14.3 1.2 21.6 1.7 5 2 7.4 1.4 10.5-.4 2.1-1.1 7.7-1.5 12.4-.4 4.7-1.4 9.6-2.1 10.9l-1.3 2.4-1.5-3.4c-.9-1.9-1.7-2.9-2-2.2-.2.7.2 2.7 1 4.5 6.1 13.7 6.9 16.9 8.2 36.3 1.4 19.6 2.3 25.6 5.1 32.5 2 4.8 1 6.5-1.6 3-2.3-3-4.6-12.6-5.5-23-1.7-19.7-4.6-39-6.3-43.1-4.8-11.2-6.7-27.1-5.2-43.5 1.8-19.9 4.2-29 11.7-44.1 2.5-5 4.3-9.7 4.1-10.5-.3-.7-1.5.7-2.8 3.2-2.9 5.7-2.6 5.5-4.5 3.6-1.4-1.3-1.5-2.2-.7-4.6.6-1.6.8-6 .6-9.7-.3-3.7 0-10.2.6-14.3 1.2-7.9 1-27.7-.2-26.4zm-755.8 19.9c0 .8.6 1.5 1.4 1.5 2 0 4.5 5.3 3.9 8.4-.7 3.6.7 3.2 4.2-1.1 5.6-7 5.8-7.3 4.5-8.8-1.8-2.1-14-2.1-14 0zm10 2.5c0 .5-.4 1-1 1-.5 0-1-.5-1-1 0-.6.5-1 1-1 .6 0 1 .4 1 1zm2.3 11.2c-5 1.9-6.6 3.9-4.3 5.3 1.2.7 13-5.2 13-6.5 0-1.4-2.8-1-8.7 1.2zm750 5c-1.5 1.9-4.3 7.5-4.3 8.8 0 2.5 1.8.6 3.9-4.1 2.2-5.1 2.3-7.2.4-4.7zm-748.2 5.2c-3.1 3.3-2.3 9.1 1.5 10.8 3.9 1.8 5.1-.3 2-3.7-1.4-1.5-2.6-3-2.6-3.3 0-1 3.5-3.1 5.2-3.2 1.9 0 3.8 2.8 3.1 4.8-.3.7-.2 2 .1 2.8.5 1.3.9 1.4 2.1.4 2.1-1.7 1.9-7.3-.3-9.3-2.8-2.6-8.4-2.2-11.1.7zm-14.1 4c0 .8-.8 2.8-1.7 4.5-1.3 2.2-1.5 3.3-.7 4.1 1.4 1.4 9.4.2 9.4-1.4 0-1.6-4.9-8.6-6-8.6-.6 0-1 .6-1 1.4zm761.6 8.6c-1.1 2.2-1.7 4.3-1.3 4.6.3.3 1.5-1.3 2.6-3.7 2.4-4.8 2.4-4.9 1.4-4.9-.5 0-1.7 1.8-2.7 4zm-736.3 2.6c-3.8 1.6-4.3 4.2-1.3 6.9 1.9 1.7 2.1 1.7 3.9.1 1.1-1 2.5-1.5 3-1.1 1.7 1 2.5-2.3 1.3-5.1-1.3-2.7-2.3-2.8-6.9-.8zm1 2.9c.4.8.2 1.7-.3 2-.6.4-1-.3-1-1.4 0-2.5.6-2.7 1.3-.6zm3.4.7c-.3.8-.6.5-.6-.6-.1-1.1.2-1.7.5-1.3.3.3.4 1.2.1 1.9zm-11.5 2c.6 1.8 2.8 2.1 2.8.4 0-.9-.7-1.6-1.6-1.6-.9 0-1.4.5-1.2 1.2zm-6.7 17.2c-5.2 1.5-4.3 3.2 1.5 2.8 4.8-.4 6.6-1.4 5.6-3.1-.9-1.3-1.9-1.3-7.1.3zm11.7.7c.3.8 2 1.7 3.9 2 1.9.3 4.4.9 5.7 1.3 1.8.6 2.2.4 2.2-1.3 0-1.5-.6-2.1-2.2-2.1-1.3 0-4-.3-6.2-.7-3.1-.5-3.8-.3-3.4.8zm-27.2 3.3c-3.5 1.3-5.7 5.6-2.8 5.6 2.7-.1 9.8-4 9.8-5.5 0-1.8-2.2-1.8-7-.1zm44 .6c0 2.4 5.7 5.7 7.2 4.2.7-.7.2-1.9-1.7-3.6-3.3-3.1-5.5-3.3-5.5-.6zm-71.2 2.7c-1.9 2.2-3.8 5.8-3.8 7.2 0 .6.8 1.1 1.8 1.1 1.2 0 2.5-1.5 3.6-4.1 2-4.5 1-7.2-1.6-4.2zm8.9-1.1c-2.1 2.1-.5 3.4 4.3 3.4 3.8 0 5-.4 5-1.5 0-.9-.9-1.5-2.2-1.5-1.3 0-3.2-.3-4.3-.6-1.1-.3-2.4-.2-2.8.2zm74 6.7c-.4 1.1 6.3 8.7 7.7 8.7 1.3 0 .5-2.3-2-5.5-2.8-3.7-5.1-5-5.7-3.2zm-93.6 11.8c-2 3.8-2.1 5.9-.2 5.9 1.3 0 6.2-8 5.6-9-1.3-2.1-3.4-.8-5.4 3.1zm106.1-1.9c-1.7 1.7-1.5 2.3 1.5 3.7 4.5 2 5.8-1.5 1.4-3.8-1.2-.7-2.2-.6-2.9.1zm-44.5 5c-2 5-1.2 6.2 3.7 5.2 3.4-.6 3.7-.9 3.1-3.3-.7-2.6-3.2-6.1-4.5-6.1-.4 0-1.4 1.9-2.3 4.2zm53-1.5c-1.5 1.4-.5 3 2.6 4.1 4.3 1.5 4.7 1.5 4.7-.3 0-.8-1.3-2.1-3-3-3.3-1.7-3.4-1.7-4.3-.8zm-478.3 6.8c-2.3 5.6-1.9 8.1 1.7 9.4 4.2 1.5 8.2 1.4 7.7-.1-.2-.6-2-1.7-3.9-2.3-3.5-1.3-3.6-1.6-2.4-7.3 1-4.4-1.2-4.3-3.1.3zm782.3 2c1.3 2.5 2.9 4.3 3.4 3.9 1.1-.7-3.2-8.4-4.8-8.4-.7 0-.1 1.8 1.4 4.5zm-766.6 3.5c-4.2 4.8-4.9 6.1-3.7 6.6.9.4 2.3.1 3.1-.6 1.1-.9 1.9-1 2.8-.1 1 .8 1.7.7 2.5-.1.8-.8 1.3-.2 1.9 2.2.5 1.9 1.5 3.6 2.2 3.8 1.1.4 1.2-.7.7-5.4-.8-6.8-2.4-12.4-3.5-12.4-.5 0-3.1 2.7-6 6zm5.9.9c0 1-.7 2.1-1.5 2.5-1.5.5-2.2-2.4-.8-3.7 1.2-1.3 2.3-.7 2.3 1.2zm469-5.5c0 1.6 2.6 4.6 4.1 4.6.5 0 .9-.7.9-1.6 0-1.8-2.3-4.4-3.9-4.4-.6 0-1.1.6-1.1 1.4zm-133.5 4.6c-.7 3.2.1 5.4 1.5 4.5 1.1-.7 1-7.5-.1-7.5-.4 0-1 1.3-1.4 3zm84.8-1.9c-3 .9-3.3 1.3-3.3 4.7 0 7.2 4.8 10.1 11.5 7 2.8-1.3 3.8-3.9 3.3-8.9-.3-3.2-.5-3.4-4.3-3.6-2.2-.1-5.5.3-7.2.8zm8.7 4.7c0 4.1-6 5.9-8 2.3-1.8-3.4-1.1-4.1 3.5-4.1 3.7 0 4.5.3 4.5 1.8zm-407.1 3.6c-1 2.2-.9 2.9.6 4.6 1 1.1 2.6 2 3.7 2s1.8.7 1.8 2c0 3.1-4.4 2.6-6.8-.7-2.3-3.2-3.7-2.6-2.8 1.2.9 3.5 6.9 6.2 10.3 4.6 3.6-1.6 3.2-6.7-.7-8.9-1.6-.9-3-2.3-3-3 0-2 4.2-1.4 6.7 1 2.3 2.1 2.3 2.1 2.3.1 0-2.8-2.2-4.4-6.9-5-3.6-.5-4.1-.3-5.2 2.1zm454.1-.3c0 2.3 3 7.9 4.2 7.9 1.4 0 .9-5-.8-7.5-2-3.1-3.4-3.2-3.4-.4zm289.3-.4c1.2 3.6 2.7 9.9 3.2 13.6.5 2.8 1.8 5 5.1 8.1 4.1 4 4.4 4.6 4.4 9.5 0 5.3.6 6.4 6.8 11.3 1.7 1.4 2.2 2.9 2.2 6.2 0 4.2.3 4.7 4.3 7.5 2.4 1.6 5.7 3.3 7.3 3.6 6.6 1.5 8.3 2.6 9 6 .4 2.1 0 4.4-1 6.3-2.2 4.3-2 11.1.4 14.2 1.7 2.2 2.9 10 1.5 10-.3 0-1.7-.7-3-1.6-2.3-1.5-2.7-1.5-5 0-1.3.9-3.8 1.6-5.4 1.6-4.3 0-8.1 4.9-8.1 10.5 0 3.4-.6 5-2.9 7.4-1.6 1.7-3.9 3.1-5 3.1-2.9 0-7.7 3.7-9.1 7-.6 1.5-2.6 3.3-4.3 4.1-2.1.9-3.9 2.8-5.1 5.4-2.2 4.8-3.2 5.5-6.7 4.8-1.9-.3-4.6.4-8.6 2.5-8.4 4.3-14 4.8-19.7 1.6-4.1-2.3-4.9-2.4-8.5-1.3-2.1.6-5.4.9-7.3.5-3.3-.6-4.6-1.2-13-5.9-5.9-3.4-7-3.4-12.5.3l-4.5 3.1-8.5-2.7c-6.9-2.2-8.9-2.5-10.9-1.5-4.6 2.1-8.1 1.3-12.1-2.5-2.1-1.9-5.1-4.2-6.6-5.1-1.6-.8-4.2-2.9-5.8-4.8-3.2-3.6-8.1-5-11.2-3.1-1.6.9-2.1.7-3.1-.9-2.2-3.8-7.4-8.5-9.5-8.5-1.1 0-2.5-.8-3-1.9-1.5-2.7-3.5-3.3-13.6-4.2-4.9-.4-10.5-1.1-12.4-1.5-2.5-.5-4.4-.2-6.8 1.1-3.3 1.8-3.4 1.8-5.7-.4-2.9-2.7-10.9-3.8-15.9-2.2-3 1-4 1-6.1-.5-1.9-1.2-3.7-1.5-7-1-5.3.8-8.6-.5-10.8-4.4-1-1.8-3.4-3.6-5.8-4.6-2.9-1.2-4.2-2.3-4.6-4.3-1.2-5.5-1.8-6.6-5.5-11.3-3.4-4.4-3.8-5.4-3.7-10.6 0-3.9-.7-7.8-2.5-12.2-1.4-3.6-2.8-8.2-3.1-10.2-.4-2.1-1.1-4-1.6-4.3-1.8-1.1-1 3.9 2 12.5 1.6 4.7 3 10.5 3 13 0 6.9 1.7 11.4 5.5 15.1 1.9 1.9 3.5 4.4 3.5 5.6 0 3.8 2.1 7 5.6 8.7 1.9.9 3.9 2.7 4.6 4 1.6 3.6 9.2 6.9 14.1 6.3 2.2-.3 4.8 0 5.8.6 1.3.8 3.5.8 8.1 0 5.8-.9 6.6-.8 10.8 1.3 5 2.7 7.7 3 11.5 1.2 2-.9 3.4-.9 5.9 0 3 1.1 7.2 1.4 16 1 2 0 3.5.7 5 2.7 1.5 1.8 3.5 3 6.1 3.4 3.6.6 4.1 1.1 5.6 5.1 1.9 5.1 5.7 7.4 8.7 5.2 3.7-2.7 4.5-2.5 8.1 1.6 2 2.3 4.1 4.2 4.7 4.2.5 0 2.5 1.5 4.3 3.4 5.4 5.6 9.8 7 17.2 5.7 5.8-1 6.7-.9 11.7 1.4 6.8 3.1 9 3.1 13.6 0 4.9-3.3 7.6-3.2 13.9 1 5.9 3.8 13.7 5.4 18.6 3.7 2.5-.9 3.4-.7 5.7 1 1.7 1.4 4.6 2.3 8.1 2.6 4.5.4 6.4 0 11.6-2.6 3.4-1.7 8.4-3.3 11-3.5 5.3-.5 10.7-4.5 10.7-7.8 0-1 1.2-2.4 2.7-3.1 1.6-.7 3.5-2.8 4.3-4.6 1.8-3.7 6.4-7.2 9.5-7.2 2.8 0 8.5-6.8 8.5-10.2 0-4.6 1.9-7.3 6.9-9.7 3.9-1.8 5.7-2.1 9.9-1.5 3.8.5 5 1 4.3 1.8-.6.7-.6 1.7-.1 2.6.7 1.2 1.3 1.1 3.2-.7 1.7-1.6 4.2-2.3 9.3-2.8 7-.7 7-.7 13 3.4l6 4 6.9-1c6.8-.9 7-.9 10 1.8 1.7 1.6 3.4 3.2 3.8 3.7 1.1 1.5 13.8 1.4 19.5-.1 9-2.4 19.8.3 25.8 6.5 5.2 5.4 11.6 6.5 20.9 3.7 6.3-1.9 12.4-1.9 17.1 0 3.3 1.4 4.2 1.4 8.7.1 3.5-1 5.8-1.2 7.5-.5 3.5 1.3 11.7 1.1 13.1-.4 1.5-1.4 13.7-2.8 23.9-2.7 5.3.1 8.1-.4 11.1-1.9l4-2.1 7.2 2.2 7.1 2.1 8.1-2.3c8-2.3 8.3-2.3 14.7-.7 8.8 2.3 8.9 2.3 21.8-2l11.3-3.7 3.2 2.4c4.2 3.1 12.6 3.8 19.4 1.7 12.4-4 22-8 25.6-10.8l3.9-3.1 3.4 3.9c2 2.4 4.7 4.3 6.3 4.6 4.6.9 11.5 5.5 14.4 9.6 1.7 2.4 5.7 5.4 11 8.4 8.2 4.6 8.5 4.9 11.5 11.5 1.7 3.7 3.6 8.3 4.2 10.3 1.1 3.5 3.3 6.5 6.8 9.1 4.3 3.2 4.8 4.8 5.3 18.4l.5 13.3 4.9 5c5.5 5.6 6.7 10 4.1 15.1-1.8 3.5-1.9 10.3-.3 16.5 1 3.8.9 5.6-.7 12-1.5 6.1-1.6 8.3-.8 10.8 1.8 5.1 2.8 11.7 2.8 18.9 0 9.7 1.9 8.5 2.3-1.4.2-5.7-.2-10-1.3-13.6-1.6-4.9-1.6-5.7 0-12.9 1.2-5.3 1.5-9.4 1-13.2-1.1-8.9-1-13.3.5-18.3 1.2-4 1.2-5.3 0-8.9-.8-2.4-2.7-5.4-4.2-6.7-4.7-4.2-5.9-8.2-5.7-18.5.1-5-.1-10.3-.6-11.7-.4-1.4-3.2-5.1-6.1-8.2-3.5-3.7-5.4-6.5-5.4-8.1 0-1.3-1.6-5.6-3.5-9.5-3.5-6.8-3.8-7.2-10.5-10.3-5.2-2.4-8.2-4.6-12.3-9.3-3.9-4.4-7.3-7.1-11.9-9.3-7.4-3.6-11.8-8.2-11.8-12.1 0-1.5-.7-4-1.5-5.6-.8-1.5-1.5-3.9-1.5-5.2 0-1.4-1.1-4.7-2.5-7.4-2.5-4.9-2.5-5.2-1.3-14.5.8-7.2.8-10.1 0-12-1.6-3.5-1.4-9.4.3-12.5 1.7-2.9 2-8.6.5-9.5-.6-.3-1 .4-1 1.6 0 1.2-.8 3.1-1.7 4.2-1.5 1.5-1.8 3.5-1.6 10.6.3 10.3.3 13.4.2 22.8-.1 4.7.4 8.1 1.5 10 .8 1.5 1.9 4.8 2.4 7.3s1.3 5.2 1.6 6.1c.5 1.2-.7 3-4.1 6.3-5.5 5.4-6.9 6.1-21.8 11.1l-10.9 3.7-8.2-2.7c-9.2-2.9-7.2-3.2-23.9 3-5.2 2-7.4 2.4-9 1.6-7.1-3.4-14.4-3.9-21-1.6-5.1 1.9-7.9 1.9-15.3 0-5.3-1.4-6.3-1.4-10.3.2-2.5.9-8.1 1.8-12.9 1.9-19.2.7-21.6 1-25.4 2.8-3.3 1.7-4.4 1.8-8.5.7-3.1-.8-6.6-.9-10.8-.3-3.7.5-6.8.5-7.8-.1-1.6-.8-8.2-.6-23.5.9-5.9.5-6.8.3-10-2-8.5-6.1-11.7-7.6-19.4-8.6-5.9-.9-8.6-.8-11.4.1-2 .7-6.6 1.2-10.2 1-5.8-.2-6.7-.6-8.8-3.2-2.2-2.8-2.7-2.9-10.5-2.9-7 0-9.1-.4-14.5-3-4.9-2.3-7.8-3-12.4-3-5 0-5.9-.3-5.4-1.5.8-2.3-2.2-3-4.3-1.1-2.3 2.1-3.6.7-4.4-4.7-.3-2-1.2-4.4-2-5.2-1.6-1.5-1.3-9.4.4-12.7 1.6-3.1 1-7.8-1.4-10.2-1.3-1.3-5.4-3.3-9.3-4.5-3.8-1.3-7.4-2.7-8.1-3.3-.7-.5-1.7-3.4-2.3-6.3-.9-4.5-1.8-6-5.1-8.6-3.6-2.9-3.9-3.4-3.9-8.3s-.3-5.4-4.9-10c-4.3-4.2-5-5.6-5.6-10-.8-5.3-2.9-11.6-4.1-11.6-.3 0-.4.8-.1 1.7zm-660.1 9c.3 7.8 1.8 10.4 2.8 4.9.7-4.2 2.7-4.3 5.1-.2 1.1 2 2.5 3.6 3 3.6 1.2 0 1.1-2.7-.2-5.1-.8-1.6-.7-2.5.5-3.8.9-1 1.6-2.3 1.6-2.9 0-2.1-4.4-4.2-8.8-4.2h-4.3l.3 7.7zm8.3-3.7c.8 1.3-2 2.4-4.1 1.6-2-.8-.9-2.6 1.6-2.6 1 0 2.2.5 2.5 1zm10.2-3.3c-.3.4-.8 3.8-1.2 7.5-.6 5.7-.5 6.8.7 6.8 1.1 0 1.7-1.8 2.2-6.7.6-5.9-.3-10-1.7-7.6zm7.8-.1c-.5.2-1 3.7-1 7.7v7.2l5.8.3c4.6.2 5.7 0 5.7-1.2 0-1.6-3.1-2.7-6.5-2.3-1.2.1-2.1-.5-2.3-1.6-.3-1.4.2-1.7 2.5-1.5 2 .2 2.8-.1 2.8-1.2 0-1-.8-1.4-2.2-1.2-1.6.2-2.3-.2-2.3-1.2 0-1.2 1-1.6 3.4-1.6 3 0 5.6-1.5 4.5-2.4-.7-.6-9.4-1.4-10.4-1zm14.5 4.8c0 2.5.4 5.6 1 7 1.1 3 5.1 4.3 8.6 2.7 2.2-1 2.4-1.6 2.4-7.7 0-7.9-2.2-8.6-3-.9-.3 3.1-1.1 5.2-2.3 5.9-2.4 1.5-3.7-.7-3.7-6.7 0-3.5-.4-4.7-1.5-4.7s-1.5 1.2-1.5 4.4zm24.7-3.7c-.3.5-.7 3.7-.8 7.3l-.4 6.5 4.8.3c2.7.2 5.4-.2 6.1-.7 1.6-1.4 1.8-12.1.2-12.6-3.1-.9-9.5-1.4-9.9-.8zm6.7 2.9c2.3.9 2 2.2-.6 2.6-2.9.4-3.4 2.6-.7 3 4 .6 3.4 2.8-.6 2.8-3 0-3.6-.3-3.1-1.6.3-.9.6-2.9.6-4.5 0-2.9 1.2-3.5 4.4-2.3zm10.1-2.7c-.3.6-.8 4-1.2 7.6l-.6 6.5h5.7c4.3 0 5.6-.3 5.6-1.5 0-1-1.1-1.5-3.5-1.5h-3.5v-5.4c0-5.2-1.1-7.8-2.5-5.7zm142.5 1.2c-.7 1.1-2 2.9-3.1 4-2 2-1.8 3.9.4 3.9 1.4 0 5.7-6.4 5.7-8.5 0-2.2-1.7-1.8-3 .6zm-127.3 5c-1.5 3.3-2.7 6.5-2.7 7 0 1.7 1.9.9 3.1-1.3 1-1.9 1.2-2 2.1-.4.8 1.4 1.3 1.5 2.4.5 1.2-1 1.7-.8 2.8.7 2.4 3.3 3.1.6 1.1-4.9-3.4-9.7-5.1-10-8.8-1.6zm5.3-.2c0 1.1-.4 2.3-1 2.6-.6.4-1-.5-1-1.9s.5-2.6 1-2.6c.6 0 1 .9 1 1.9zm8.8.3c-.4 6.9-.1 9.1 1.3 8.2.5-.3.9-2.5.9-5 0-2.4.3-4.4.8-4.4.4 0 1.9 2.1 3.4 4.5 1.5 2.5 3.4 4.5 4.2 4.5 1.7 0 3-5 2.4-9.4-.5-4.3-2.3-3.5-2.6 1.3l-.3 4.4-3.2-4.9c-4.7-7.2-6.4-7-6.9.8zm20.5-5.2c-4.8 2-5.8 8.7-1.7 11.9 3.2 2.5 4.3 2.6 8.9.4 4-1.9 4.7-3.8 1-2.9-1.4.3-3.6.9-5 1.2-2 .5-2.7.1-3.6-1.9-2.3-5 1.3-8.2 6.1-5.3 3.5 2 5 .4 2.4-2.5-1.8-2-4.5-2.3-8.1-.9zm-199.3 6.5c-3.9 3.9-5.1 5.8-4.3 6.6.7.7 1.5.6 2.6-.5 2-2 2.7-2 2.7-.1 0 1.8 2.1 2 3.8.3.9-.9 1.2-.5 1.2 2 0 6.2 1.7 3.1 2.3-4.1.4-6.6-.3-9.7-2.2-9.7-.4 0-3.1 2.5-6.1 5.5zm6.3.5c-.3 1.1-.9 2-1.4 2-.5 0-.9-.9-.9-2s.6-2 1.4-2c.9 0 1.2.7.9 2zm387-2.2c-4.2.4-4.2 1.7-.2 3.1 3.4 1.2 4.9.7 4.9-1.4 0-1.8-.8-2.1-4.7-1.7zm-377.7 6.7c-3.2 7.1-3.2 7.9 0 10.4 3 2.4 6.6 2.7 8.2.8 1.9-2.4 5.2-8.8 5.2-10.2 0-2.7-1.9-1.5-4 2.4-2.3 4.6-3.3 5.4-5.9 4.6-2.9-.9-3.2-2.9-1-6.9 1.3-2.5 1.7-4.2 1.1-5.3-.7-1.2-1.5-.3-3.6 4.2zm1071.2-.3c-.5 5.2.1 8 1.6 7.5 1.1-.4 2.5-8.5 1.8-10.6-.9-2.8-3-.8-3.4 3.1zm-827.3-2.2c-1 1.6-.7 1.7 4.8 2.5 3.9.6 4.7.5 4.7-.9 0-1.1-.9-1.6-2.9-1.6-1.6 0-3.6-.3-4.4-.6-.8-.3-1.8 0-2.2.6zm15.2-.3c-1.2 1.1-.8 3.1.8 3.7 2.1.8 7.5-1.3 7.5-3 0-1.5-7-2.1-8.3-.7zm168.8.5c-.7 1.7 2.1 8.8 3.5 8.8 1.9 0 1.1-6.6-1-8.5-1.6-1.5-2.1-1.5-2.5-.3zm-214.4.9c-1.7.7-2.1 1.3-1.4 2 1.3 1.3 10.5-.2 11.1-1.9.5-1.5-6.1-1.6-9.7-.1zm14.9-.2c0 1 7.7 2.4 9.1 1.6.5-.4.7-1.1.4-1.6-.8-1.1-9.5-1.2-9.5 0zm-24.5 1.6c-.5.2-2.2.6-3.7.9-1.7.4-2.8 1.3-2.8 2.2 0 1.4.7 1.5 4.2 1 4.9-.8 5.8-1.3 5.8-3.2 0-1.3-1.2-1.7-3.5-.9zm161.5 1c0 .8 1.1 1.7 2.5 2.1 2.4.6 3.5 2.4 1.5 2.4-1.7 0-1.1 2.8.8 3.3 1.3.3 1.1.6-1 1.5-1.6.6-2.8 1.9-2.8 2.8 0 1.8-.5 1.9 8.9-2.6 3.9-1.9 7-3.9 6.8-4.5-.4-1-13.1-6.4-15.4-6.5-.7 0-1.3.7-1.3 1.5zm10.5 5.5c.3.5-.3 1-1.5 1s-1.8-.5-1.5-1c.3-.6 1-1 1.5-1s1.2.4 1.5 1zm-186.3-2.8c-.7.7-1.2 2.7-1.2 4.6 0 2.9.3 3.3 2.3 3 1.8-.2 2.2-.9 2.2-4.2 0-4.1-1.3-5.4-3.3-3.4zm-171 2c-1.8 1.8-1.4 2.9 1.8 6.8 1.7 1.9 3 3.8 3 4.2 0 1.8-4 .6-5.9-1.8-2.5-3.1-4.5-2.4-2.9 1.1 1.2 2.7 5.5 4.8 9 4.3 3.4-.5 3.6-4.7.3-7.8-1.4-1.3-2.5-2.9-2.5-3.7 0-2.1 3.6-1.5 5.3.9 1.2 1.8 1.8 2.1 2.8 1.1 1-1 .8-1.8-1.1-3.8-2.6-2.7-7.7-3.4-9.8-1.3zm160.8 3.2c0 2 1.6 2.9 4.1 2.1 1.6-.5 1.8-1 .8-2.1-1.5-1.8-4.9-1.8-4.9 0zm-9.9.7c-3.3 1.3-1.4 2.8 2.7 2.2 1.8-.3 3.2-1.1 3.2-1.9 0-1.6-2.4-1.7-5.9-.3zm-134.9 4.1c-1.9 1.9-1.4 4 1.8 7.3 2.7 2.7 2.9 3.4 1.6 4.4-1.2 1-1.8.9-3.4-.7-1.1-1.1-2.2-2.6-2.4-3.3-.5-1.1-.8-1.2-1.9-.2-1.1 1.1-.9 1.8.7 4 2.9 3.8 7 5 9.5 2.7 2.6-2.4 2.4-4.1-1.1-7.2-1.6-1.5-3-3.2-3-3.9 0-2.2 3.2-1.4 6.2 1.4 2.5 2.4 2.8 2.5 3.4.8 1.6-4-8.2-8.5-11.4-5.3zm118.8.4c0 1.3.7 1.5 3.8.9 6.5-1.2 7.2-2.4 1.5-2.5-4.2 0-5.3.3-5.3 1.6zm279.4-.3c-.7 1.9 1.4 6.9 2.6 6.2 1.8-1.1.8-7.5-1.1-7.5-.5 0-1.2.6-1.5 1.3zm635.7 2.4c-1.4 5-1.4 6.3.3 6.3.8 0 1.8-1.9 2.5-4.4 1.4-5.6 1.4-5.6-.4-5.6-.8 0-1.9 1.6-2.4 3.7zm-941.6-1.7c-1 1.7.4 2.7 4.6 3.5 3.8.7 6.1-.7 4.2-2.6-1.6-1.6-8-2.3-8.8-.9zm16.8-.2c-2.1.2-3.3.9-3.3 1.8 0 1.9 6.3 1.9 7.9 0 1.4-1.7 0-2.3-4.6-1.8zm-28.1 4.8c-3.1 2.5-3.5 4.4-.7 4.4 1.9 0 7.6-5 6.9-6.1-.9-1.5-2.7-1-6.2 1.7zm254.5-1.8c-4.2.4-4.7 2.5-.6 3 4.1.6 4.3 1.9.9 5-1.9 1.8-2.9 3.5-2.5 4.2.5.8 1.2.7 2.5-.5 1.6-1.5 2.3-1.5 5.4-.4 3.1 1.1 3.8 1.1 5.6-.6 2.1-1.9 2.7-6.9 1-9.5-.9-1.5-4.5-1.8-12.3-1.2zm9.9 4.7c.9 2.2-.3 4.5-2 3.9-1.7-.6-2.9-3.2-2-4.5.8-1.4 3.4-1.1 4 .6zm-549.1-1.5c-1.1.5-3.2 1.1-4.7 1.4-4.1.9-3.4 2.1 2.4 4.5 4.9 2 7.8 2 4.8 0-1-.7 2.4-.9 11.3-.6 10.2.3 12.7.1 12.7-1 0-1-2.5-1.3-11.4-1.3-6.6 0-11.7-.4-12.1-1-.3-.6-.1-1 .4-1 .6 0 1.1-.5 1.1-1 0-1.2-1.7-1.2-4.5 0zm216.6 5.5c-1.9 3.5-3.2 6.7-3 7 1.4 1.4 10.3 5.3 11.1 4.9 1.6-1 .7-2.1-3.2-3.9-3.8-1.7-5.1-3.7-3.1-4.9.4-.3 1.7.1 2.7.9 1 .8 2.2 1.5 2.7 1.5 1.4 0 .7-3.1-.8-3.6-1.7-.7-2.1-3.4-.5-3.4.6 0 2.5.7 4.2 1.6 2 1 3.4 1.2 4 .6 1.2-1.2-6.5-7.2-9.1-7.2-.9 0-3 2.7-5 6.5zm57.7 1.3c-3.1 1.9-3.7 4.2-1 4.2 2.3-.1 6.5-3.7 5.7-5-.8-1.4-1.5-1.2-4.7.8zm330.9-1.1c-.7 1.2 2.3 10.3 3.4 10.3 1.5 0 1.8-1.7.8-5.2-1-3.7-3.3-6.5-4.2-5.1zm534.9 3.4c-2.6 3-3.3 7.2-1.8 9.7 1 1.5 6 3 8.5 2.4 3-.6 2-3.2-1.3-3.2-2.3 0-3.1-.5-3.6-2.5-1.2-5 2.2-8.1 5.6-5 1 .9 2.6 1.5 3.5 1.3 1.5-.3 1.4-.6-.5-3.1-3-3.8-7-3.6-10.4.4zm94.4-.7c-1.7 4.6-1.7 9.1 0 9.1 1.9 0 3.8-9.1 2.2-10.7-.8-.8-1.4-.4-2.2 1.6zm-78.6 4.3c-.8 2.1-2 4.8-2.6 6-1.1 2.3-.5 5.3 1 5.3.5 0 1.5-1.4 2.2-3.1.8-1.9 1.8-2.8 2.7-2.5.8.4 2.2.6 3.1.6 1.2 0 1.3.3.4 1.2-1.6 1.6-1.5 5.8.1 5.8 1.4 0 5.8-11.9 5-13.3-.7-1.1-3.3 1.3-3.3 3 0 1-.6 1.3-1.6.9-.9-.3-2-.6-2.5-.6s-.9-1.3-.9-2.9c0-4.5-1.9-4.7-3.6-.4zm-636.9 2.2c-1.3 2.7-2.9 5.2-3.5 5.6-.5.3-1 1-1 1.6 0 1.2 12.7 1.2 13.5-.1.5-.8-5.1-12-6.1-12-.2 0-1.5 2.2-2.9 4.9zm-258.3-3.1c-1.3.4-2.3 1-2.3 1.4.1.5.1 1.2.1 1.7 0 .4 2 .4 4.5-.2 2.5-.6 4.4-1.5 4.2-2.1-.4-1.3-3.4-1.7-6.5-.8zm283.8 3.4c-5.9 2.2-8 3.5-8 4.9 0 1 12.5 6.9 14.6 6.9 3.1 0 1-2.2-4.3-4.6l-5.8-2.5 5.4-2.2c3-1.2 5.6-2.8 5.9-3.5.5-1.7-1.4-1.4-7.8 1zm-554.4.3c-1.1 2.9-.6 4.5 1.3 4.5 1 0 5.1 1.3 8.9 3 7.7 3.3 10.9 3.6 17.6 1.8 3.7-1 5.1-.9 8.7.5 8.3 3.1 12.1 3.2 17.5.3 5.8-3.1 9-3.2 12.4-.6 3 2.4 8.2 2.5 14 .5 5.2-1.9 10.2-1.2 15 2.1 8.2 5.4 12.8 5.2 21.6-1.1 4.7-3.4 5.1-3.5 11.4-3 3.6.4 8.4 1.4 10.7 2.2 3.6 1.3 5 1.4 8.8.3 2.5-.7 5.7-2.1 7-3.1 2.3-1.9 2.4-1.9 5.6.8 3 2.6 4 2.8 12.3 3 5.3.1 11.5-.4 14.8-1.3 6.7-1.7 9.8-1.2 12.7 2.2 2.5 2.9 5.9 3.8 10.9 3 12.8-2.1 13.1-2.1 16.5 1.1 4.9 4.6 8.8 7 13.4 8.2 2.3.6 6 2.7 8.3 4.6 2.2 1.9 5.8 3.7 7.8 4.1 2.7.5 5.1 2.2 9.2 6.6 4.1 4.3 6.3 5.8 8.3 5.8 1.5 0 4.6 1.3 6.9 3 2.2 1.6 4.5 3 5 3s3.2 1 5.9 2.1c4.2 1.8 4.9 2.6 4.9 4.9 0 1.5 1.1 4.2 2.5 6.1 1.4 1.9 3.4 4.9 4.6 6.7 1.2 1.8 2.4 3.1 2.6 2.8 1-.9-1.7-7-4.2-9.6-1.3-1.4-3-4.3-3.7-6.5-1.3-4-2.3-4.7-10.8-8.5-2.5-1.1-6-3.1-7.9-4.5-1.9-1.4-4.5-2.5-5.8-2.5-1.7 0-4.2-1.8-7.8-5.5-4-4.2-6.5-5.9-10.4-7.1-2.9-.8-5.5-2.2-5.8-3-.6-1.6-6.3-4.8-10.4-5.7-1.5-.4-4.8-2.5-7.5-4.7-6.2-5.1-10.9-6.5-17.5-5.1-8.4 1.8-10.6 1.4-14.6-2.4-4.3-4.2-7.1-4.4-15.5-1.4-4.9 1.8-6.3 2-8.5 1-1.9-.9-3.4-.9-5.9-.1-3.1 1.1-3.8.9-7.6-1.9-2.3-1.7-4.8-3.1-5.5-3.1-.7 0-3.6 1.2-6.3 2.6l-4.9 2.6-7.1-1.6c-3.9-.9-7.5-1.4-7.9-1.2-.4.3-2.5.1-4.6-.5-4.4-1.2-8.3 0-13.3 4.3-4.2 3.6-8.6 3.6-15.4.1-6.9-3.6-13.1-4.5-18.7-2.6-4.3 1.4-4.5 1.4-10.4-1.6-7.2-3.8-9.9-3.8-16.3-.6-5.8 2.9-7.5 3-13.8.9-2.7-.9-6-1.4-7.9-1-10.1 1.8-10 1.8-18.7-1.9-11.2-4.9-11.6-4.9-12.4-3zm256.6-.7c-3.7 1.1-2.5 2.7 1.6 2.3 4.1-.3 5.2-.8 5.2-2.2 0-1-3.3-1-6.8-.1zm-8.5.9c-.4.3-.7 2.6-.7 5 0 3.7.3 4.4 1.7 4.1 1.4-.2 1.8-1.4 2-5.1.2-4.4-1-6.1-3-4zm935 5.1c-5.7 5.8-6.5 8.8-1.6 6.2 1.5-.9 1.9-.7 1.9.6 0 1.1.6 1.5 1.8 1.2 1.2-.3 2.4.2 3.1 1.4 1.7 2.7 2.2 1.8 2.8-3.9.4-4.8-.9-10.3-2.5-10.3-.4 0-2.9 2.2-5.5 4.8zm5.3.9c0 .5-.4 1.5-1 2.3-1.1 1.8-2.5.7-1.7-1.5.6-1.5 2.7-2.1 2.7-.8zm-950.6-2.2c-.8 2.1.4 3.5 3.1 3.5 3.2 0 4.2-2 2-3.7-2.4-1.7-4.4-1.7-5.1.2zm960.7 2.3c-1.8 3.3-4 10.5-3.5 11.3.6 1 7.1 2.9 9.8 2.9 1.5 0 1.6-.3.6-1.5-.7-.8-1.8-1.5-2.4-1.5-.7 0-2-.6-3-1.3-1.6-1.2-1.6-1.5.3-5.9 1.1-2.5 1.7-4.9 1.4-5.2-1.1-1.1-2.2-.6-3.2 1.2zm-578.7 2.3c.3 1.7.6 3.5.6 4s.9.9 2 .9c2.5 0 2.5-1.3.3-5.1-2.3-3.8-3.7-3.7-2.9.2zm-365.4.4c0 1.8 4.3 6.5 6 6.5 2 0 1-3.9-1.6-5.9-3.2-2.5-4.4-2.6-4.4-.6zm988 4.5c0 4.5.3 6.1 1.3 5.7.7-.2 1.2-2.3 1.2-5.7 0-3.4-.5-5.5-1.2-5.8-1-.3-1.3 1.3-1.3 5.8zm-30.6-.3c-.8 2.1-1.8 5.2-2.1 6.9-.5 2.8-.2 3.1 3.4 4.5 5.4 2.2 5.8 2.2 6.1.5.2-.9-1-1.8-3.2-2.6-2-.6-3.6-1.5-3.6-2 0-1.3 2.4-1.8 4.3-.8 2.5 1.3 2.2-1-.5-3.1-2.9-2.4-1.5-4.7 1.5-2.6 2.4 1.7 5.7 2 5.7.6 0-1.1-6.6-5.1-8.5-5.1-.8 0-2.2 1.7-3.1 3.7zm14.2 2.1c-.4.3.3 1.4 1.5 2.3 2.2 1.6 2.2 1.8.6 5.2-1.9 3.9-2.1 6.3-.8 7.2.6.3 1.8-1.7 2.8-4.5 1.6-4.7 2-5 4.4-4.5 4.3 1 4.4-1.3.2-3.1-7-2.9-8.1-3.3-8.7-2.6zm-678.9 1.9c-.3.5-.7 2.6-.8 4.8-.3 3.1 0 4 1.4 4.3 1.3.3 1.7-.3 1.7-2.6 0-1.7.6-3.2 1.5-3.6 1.1-.4 1.5.2 1.5 2.6 0 2.6.2 2.9 1.5 1.8.8-.7 1.5-1.9 1.5-2.6 0-.8.7-1.4 1.5-1.4 1.1 0 1.5 1.1 1.5 3.6 0 4.8 2.3 4 3.1-1.2 1-6 .5-6.4-7.1-6.4-3.8 0-7.1.3-7.3.7zm-283.7 2c0 1.7 2.5 7.3 3.2 7.3 1.8 0 2-3.1.4-5.5-1.5-2.3-3.6-3.4-3.6-1.8zm360.6 1.1c-.8 1.3 4.3 11.4 5.4 10.7 1.4-.9 1.2-2.9-.7-7.5-1.7-3.8-3.5-5-4.7-3.2zm660.8 1.6c-.9 2.4 0 5.1 1.9 5.4 1.5.3 1.8-.2 1.5-2.9-.3-3.5-2.4-5.1-3.4-2.5zm58.4 7.2c-1.2 1.1-1 15.4.2 15.4.6 0 1-2.6 1-5.8.1-4.7.2-5.4 1.2-3.7 2.2 4 7 9.5 7.8 9 .4-.3.6-1.9.4-3.7-.1-1.8-.3-5-.3-7.1-.1-5.2-2.1-4.7-2.1.5-.1 4.2-.1 4.3-1.8 2.2-.9-1.2-2.6-3.4-3.7-4.9-1.1-1.5-2.3-2.3-2.7-1.9zm17.2 7.4c0 8.9 1.7 11 2.2 2.7l.3-5.2 3.9 5.3c2.1 2.9 4.2 5 4.6 4.5 1-1.2-.1-15.4-1.1-14.7-.5.3-.9 2.6-.9 5.2v4.7l-3.5-5.3c-2-2.8-4-5.2-4.5-5.2-.6 0-1 3.5-1 8zm78.8-7.4c-2.4.7-2.3 2.4.2 2.4 2.2 0 4.2 3.1 4 6.3-.4 4.6 0 6.7 1.5 6.7 1 0 1.5-1.6 1.7-6.2.3-6.1.4-6.3 3.3-6.8 1.7-.3 2.5-.8 1.9-1.2-1.4-.9-10.5-1.8-12.6-1.2zm-201.3 2.7c-1 3.7-.2 7.2 1.5 7.2 1.1 0 1.5-1.2 1.5-4.4 0-4.9-2-6.8-3-2.8zm68.3 4.4c-.2 3.8 0 7.3.5 7.9.9 1.3 8.5.7 10.4-.8 1.6-1.3.9-11.8-.8-12.9-.8-.5-3.3-.9-5.6-.9h-4.1l-.4 6.7zm8.1-3.8c1.9 1.2.4 3.1-2.5 3.1-1.7 0-2.4-.5-2.4-2 0-2.1 2.4-2.7 4.9-1.1zm1.1 7.5c0 1.4-2.1 2.6-4.6 2.6-.8 0-1.4-.9-1.4-2 0-1.6.7-2 3-2 1.9 0 3 .5 3 1.4zm9.7-9.2c-1.5 1.2-3.7 5.8-3.7 7.8 0 .5 1.2 2.2 2.6 3.9 3.1 3.7 6.3 4 9.8.8 2.5-2.2 2.9-3.4 2.7-7.5-.2-4.9-7.3-8-11.4-5zm5.8 1.4c2.4.9 3.6 4.9 2.5 7.9-1.4 3.6-6.6 3.6-8-.1-1.4-3.5-1.3-4.1 1.2-6.4 2.5-2.3 2.1-2.2 4.3-1.4zm46.5 4.8v7.3l4.5.6c2.4.4 5.1.4 6 .1 2.8-1.1 1.5-2.3-2.7-2.6-3.5-.2-4.3-.7-4.3-2.3 0-1.4.7-2 2.5-2.1 4.1-.2 4.6-.4 3-1.4-.8-.5-2.5-1-3.8-1-1.7 0-2.3-.5-2-1.8.2-1.2 1.5-1.8 4.6-2 6.4-.5 5-2.2-1.8-2.2h-6v7.4zm17.2.3c.3 8.9 2.1 10.5 2.6 2.4l.3-5.4 3.5 5.1c1.9 2.9 3.9 5.2 4.5 5.2 1.6 0 .7-14.2-.9-14.8-1.1-.3-1.2.6-.7 4.2.4 2.5.5 4.6.2 4.6s-2-2-3.7-4.5c-4.7-6.9-6.1-6.1-5.8 3.2zm17.8-1.8c0 5.3.3 6.2 2.7 8 2.8 2.3 5.9 2 8.1-.7 1.4-1.9 1.6-13.2.2-13.2-.5 0-1 2.2-1 4.8 0 5.9-1.8 8.7-4.8 7.8-2.2-.7-2.8-3.6-2.2-10.4.1-1.4-.4-2.2-1.4-2.2-1.3 0-1.6 1.2-1.6 5.9zm18 1.5c0 6.2.3 7.6 1.5 7.6 1.3 0 1.5-1.2 1.3-7.2-.2-4.6-.7-7.3-1.5-7.6-1-.3-1.3 1.6-1.3 7.2zm-1160.5-5.5c-.3.5.7 1.9 2.1 3 2.1 1.6 3 1.9 4.1 1 1.1-1 1.1-1.5-.3-3-1.8-2-4.9-2.5-5.9-1zm682.3 1.8c-4.7 3.2-4.1 4.5 1.4 2.8 3-.8 4.3-1.8 4.3-3 0-2.7-1.6-2.7-5.7.2zm11.2-1.2c0 .5 2.4 1.6 6.8 2.9 2.6.9 3.2-1.8.6-2.8-1.9-.7-7.4-.8-7.4-.1zm14 3c0 1.5 3.7 3.5 6.6 3.5 2.4 0 1.6-1.9-1.6-3.5-3.7-1.9-5-1.9-5 0zm267.2 1.2c.4 2.2 5.7 3 6.9 1.2 1.2-2 .1-2.9-3.7-2.9-2.8 0-3.5.4-3.2 1.7zm-612.2.9c0 2.1 3.8 8.4 5.1 8.4 1.5 0 1-3.1-1.2-6.6-2.2-3.7-3.9-4.4-3.9-1.8zm595.2-.7c-3.4.6-4.5 2.4-1.9 2.9 2.3.5 8-1.3 8.5-2.6.4-1.3-1.1-1.3-6.6-.3zM4.472 254c-.6 1 .6 1.4 3.8 1.1 1.8-.2 1.8 0 2.1 7.9.2 7 2.1 6.4 2.4-.8.3-6 .4-6.3 3.2-6.9 1.6-.3 2.7-.9 2.4-1.4-.7-1.2-13.1-1.1-13.9.1zm19.5 1c-1.2 1.2-2 3.3-2 5.5 0 5.2 3.2 8 8.5 7.6 4.8-.5 7.2-8.2 3.9-12.9-2-2.9-7.6-3-10.4-.2zm7.6.8c2.2 1.4 2.6 5.2.9 7.8-2.1 3.2-5.4 2.9-7.4-.7-1.3-2.4-1.3-2.9.2-5.3 1.7-2.6 4.1-3.3 6.3-1.8zm26.7-1.8c-1.5.6-2.3 1.8-2.3 3.2 0 3.3 1.1 4.5 4.8 5.3 2.3.5 3.2 1.2 3 2.3-.5 2.6-4.5 2.7-5.8.3-1.2-2.4-3-2.8-3-.8 0 2.1 3.4 4.7 6.2 4.7 1.4 0 3.3-.9 4.2-1.9 2.7-2.9 1.2-5.9-3.5-7.1-4.3-1.2-4.9-2.4-2-4 1.6-.8 2.3-.6 3.5 1.2l1.6 2.2v-2.1c0-1.2-.9-2.7-1.9-3.3-2.2-1.1-1.9-1.1-4.8 0zm223.3-.1c-.3.5 1 1.9 3 3.1 2.7 1.5 4 1.8 4.8 1 .8-.8.5-1.7-1.3-3.1-2.5-2-5.6-2.5-6.5-1zm-211.6 1c0 .5 1.1 1.2 2.5 1.5 2.1.5 2.4 1.2 2.7 6.3.2 3.4.8 5.8 1.6 6.1.9.3 1.2-1.4 1.2-6.2 0-6.3.1-6.6 2.4-6.6 1.4 0 2.8-.5 3.1-1 .4-.6-2-1-6.4-1-3.9 0-7.1.4-7.1.9zm45.8-.3c-.5.4-.8 3.1-.8 6 0 5.4-1.6 7.9-3.2 5-1.2-2.2-2.8-2-2.8.4 0 1.2 1 2.5 2.5 3.2 4.2 1.9 5.7-.5 5.3-8.6-.2-3.7-.6-6.4-1-6zm7 6.1c-.2 3.7 0 7.4.5 8 1.1 1.5 10.3 1.8 11.2.4.3-.6-1.6-1.1-4.2-1.3-4.1-.3-4.8-.6-5.1-2.6-.3-1.9.1-2.2 3.2-2.2 4.5 0 4.8-1.8.4-2.2-2.2-.2-3.4-.9-3.6-2.1-.3-1.4.4-1.7 3.7-1.7 2.2 0 4.3-.5 4.6-1 .4-.6-.7-1-2.7-1-1.8 0-4.3-.3-5.5-.6-2-.6-2.1-.2-2.5 6.3zm17.8.3c-2.7 6.9-3.2 12.2-.6 6.7 1.8-3.6 5.7-3.7 7-.1.6 1.4 1.4 2.2 2 1.9 1.3-.8 1.3-4 0-6.3-.5-.9-1.6-3.4-2.4-5.5-.8-2-1.9-3.7-2.4-3.7s-2.1 3.1-3.6 7zm4.4 0c0 1.1-.4 2-1 2-.5 0-1-.9-1-2s.5-2 1-2c.6 0 1 .9 1 2zm11.7-6.3c-1.1 1-.8 15.3.3 15.3.5 0 1-2.6 1.2-5.7l.3-5.7 3.9 5.9c4.5 6.9 5.4 6.2 4.8-3.8-.4-7.5-2.2-8.2-2.2-.9v4.7l-3.5-5.3c-3.8-5.5-3.8-5.6-4.8-4.5zm834.8.2c-.6 1.1 2.5 3.1 4.8 3.1 1.6 0 3-2.4 2-3.4s-6.1-.7-6.8.3zm219 0c-.3.5-.1 1.2.5 1.6 1.3.8 8-.5 8-1.6 0-1.2-7.7-1.2-8.5 0zm-13.3 1c-4.8.9-4.4 2.5.6 2.9 4.7.3 8.3-1.5 6-2.9-1.4-.9-1.7-.9-6.6 0zm-17.7 1.1c-1.1 1.8.4 2.8 4.2 2.7 2.7-.2 3.9-.7 4.1-2 .3-1.4-.4-1.7-3.7-1.7-2.2 0-4.3.4-4.6 1zm-175.9.8c-.8 1.3 1.3 2.8 5.1 3.5 3.5.7 5-.4 2.9-2.2-1.9-1.6-7.3-2.5-8-1.3zm160.4.7c0 1.1 1.2 1.5 4.5 1.5s4.5-.4 4.5-1.5-1.2-1.5-4.5-1.5-4.5.4-4.5 1.5zm128.4.7c.3 1.3.6 2.9.6 3.5 0 .7.7 1.3 1.5 1.3 1.6 0 1.8-1.2.9-4.8-.4-1.2-1.3-2.2-2.1-2.2-1.1 0-1.4.6-.9 2.2zm-140.4.1c-1.9.7-3.4 1.5-3.2 1.9.3 1.1.6 1.1 5.7.3 2.9-.4 4.5-1.1 4.5-2.1 0-1.7-2.2-1.7-7-.1zm-857.3.4c-1.3 1.2-.7 1.9 3.3 4.2 6.2 3.4 8.6.9 2.6-2.8-3.5-2.2-4.8-2.5-5.9-1.4zm723.3 1.3c-1.8 1.1.9 2.7 5.9 3.5 3.3.5 4.2.4 3.9-.5-.5-1.6-8.2-4-9.8-3zm117.1 2.1c-1.7.7-2.1 1.3-1.4 2 1.3 1.3 7.8.2 9.4-1.7.9-1.2.5-1.4-2.2-1.3-1.9 0-4.5.5-5.8 1zm-101.9.8c-1.7 1 .1 3 3.5 3.7 2.8.5 5.4-.9 4-2.2-1-1-6.5-2.1-7.5-1.5zm-945.9 1.7c-.8 2.1 1.3 4.2 2.8 2.7 1.3-1.3.5-4.3-1.1-4.3-.6 0-1.3.7-1.7 1.6zm554.4-1c-.9 1 3.2 6.4 4.8 6.4 2.4 0 2.5-1.7.4-4.4-2-2.5-3.9-3.3-5.2-2zm479.6 1.4c-4 1.6-2.7 3.3 1.9 2.6 4.6-.8 5.8-1.3 5.8-2.7 0-1.1-4.7-1.1-7.7.1zm-73.9 1.1c-.8 1.3-.5 1.5 3.3 2.3 1.9.5 3.4.3 3.8-.4.9-1.4.7-1.6-3.2-2.3-1.8-.4-3.5-.2-3.9.4zm238.6-.3c0 .5 1.2 1.8 2.6 2.8 7 5 22.9 20.4 31.1 30 5.5 6.5 11 16.1 15.7 27.8.9 2.2 1.9 3.7 2.2 3.4 1-1.1-7.8-21.6-10.7-24.7-1.6-1.8-2.9-3.5-2.9-3.9 0-.4-1.6-2.5-3.6-4.6-1.9-2.1-3.8-4.4-4.2-5-.9-1.4-16.6-16.2-20.8-19.6-5.4-4.5-9.4-7.1-9.4-6.2zm-978.3.9c-1.3 1.2-.7 2 3.3 4.7 3.6 2.4 4.1 2.5 4.7 1 1-2.7-6-7.8-8-5.7zm752.5 1.5c.3.8 2.4 1.4 5.2 1.6 3.6.2 4.7 0 4.4-1-.3-.8-2.4-1.4-5.2-1.6-3.6-.2-4.7 0-4.4 1zm15.3-.3c-1.2 2.1.6 3.1 5.1 2.9 4.2-.1 6.4-1.1 4.7-2.1-2-1.2-9.1-1.8-9.8-.8zm29.7.3c.6 1.6 3.2 2.2 6.4 1.4 4-1 2.7-2.6-2.2-2.6-3.2 0-4.4.4-4.2 1.2zm-14 1c.7 1.9 5 2.1 7.3.4 1.9-1.4 1.7-1.5-2.8-1.6-3.5 0-4.7.4-4.5 1.2zm-163.2 3.4c-2.1 1.8-2.8 3-2.1 3.7.7.7 2.1 0 4.5-1.9 1.9-1.6 3.5-3.2 3.5-3.7.2-1.6-2.9-.6-5.9 1.9zm-276 .9c0 1.6 2.3 2.5 6 2.5 4.9 0 4.2-1.7-1-2.7-3.9-.8-5-.7-5 .2zm27.5-.4c-1 1.4-.5 1.7 3.9 2 4.3.4 6.1-1.5 2.4-2.5-3.4-.9-5.6-.7-6.3.5zm-11.8.5c-.4.4-.7 1.1-.7 1.6 0 1.3 5 .6 5.3-.7.2-1.2-3.6-1.9-4.6-.9zm29.5 2.1c2.7.9 5.1 1.3 5.5 1 1.2-1.2-.5-1.9-5.4-2.3l-4.8-.4 4.7 1.7zm-380.2 1.2c0 .5.7 1.4 1.5 2.1.8.7 1.5 2 1.5 2.9 0 2 1.9 4.1 3.7 4.1 2 0 1.5-4.4-.8-7.4-1.9-2.5-5.9-3.6-5.9-1.7zm391.2 1.8c.3 1.7 5.8 3.7 8.6 3.1 1.2-.3.3-1.1-2.5-2.6-5.1-2.6-6.6-2.8-6.1-.5zm-650.7.3c-.4.6-.1 1.8.6 2.6 1 1.3.9 2.1-.5 4.6-1.8 2.9-1.8 3 .1 1.9 2.4-1.2 4.8-6.4 3.9-8.6-.6-1.7-3.2-2-4.1-.5zm858.6 4.6c-5.2 4.3-3.5 6.2 1.9 2.2 2.9-2.1 4-4.8 2.1-4.8-.5 0-2.3 1.2-4 2.6zm-874.1 6.9v7.5h3.3c6.3 0 10.4-5.9 7.6-11.2-1.7-3.2-2.8-3.8-7.1-3.8h-3.8v7.5zm7.8-4.3c3.1 3.1.4 9.7-4 9.8-1.5 0-1.8-.9-1.8-5.5 0-5.1.2-5.5 2.3-5.5 1.3 0 2.8.5 3.5 1.2zm18.9 3.3c-1.5 3.6-2.7 7-2.7 7.5 0 2 2.1.9 3-1.5.7-1.8 1.7-2.5 3.5-2.5s2.8.7 3.5 2.5c.9 2.3 3 3.5 3 1.7 0-2.5-4.9-13.7-6.2-14-.9-.2-2.3 1.9-4.1 6.3zm5.3.1c0 .8-.7 1.4-1.5 1.4-1.5 0-2.1-2.1-.9-3.3 1-.9 2.4.2 2.4 1.9zm10-1.4c0 2.9-.3 6.4-.7 7.7-.4 1.8-.2 2.3.8 1.9.8-.2 1.5-1.7 1.7-3.1.3-2.1.9-2.7 2.8-2.7s2.4.5 2.4 2.4c0 2.4 2.2 5.1 3.3 4 .3-.3.1-1.9-.3-3.4-.5-1.9-.4-4.1.3-6.1 1.1-2.7 1-3.2-.7-4.5-1.1-.8-3.7-1.4-5.8-1.4h-3.8v5.2zm8.3-1.8c.7 1.9-1.2 3.6-4 3.6-1.8 0-2.3-.6-2.3-2.5 0-2.1.5-2.5 2.9-2.5 1.6 0 3.1.6 3.4 1.4zm7.7-2.1c0 1.6 3.5 12.1 4.6 13.9.5.7 2.1-1.8 4.1-6.2 2.1-4.6 3-7.7 2.4-8.3-.6-.6-1.8 1-3.2 4.4l-2.3 5.3-2.3-5.2c-2.3-5.2-3.3-6.4-3.3-3.9zm17.5-.1c-.3.8-.5 4.4-.3 7.9l.3 6.4h5.3c6.5 0 7.4-1.9 1-2.3-4-.3-4.8-.6-4.8-2.3 0-1.5.7-1.9 3.5-1.9 1.9 0 3.5-.4 3.5-1 0-.5-1.6-1.2-3.5-1.6-5.3-1-4.6-3.4 1-3.4 2.5 0 4.5-.5 4.5-1 0-.6-.8-1-1.9-1-1 0-3.2-.3-5-.6-2.2-.5-3.2-.2-3.6.8zm607 2.3c3.3 2.8 5.5 3.2 5.5 1.2 0-1.5-4.1-3.7-6.8-3.7-1.3.1-.9.7 1.3 2.5zm10.5 4.8c0 1.7 7.7 6.1 8.4 4.9.6-1-1.7-3.3-5.1-5.1-2.8-1.4-3.3-1.4-3.3.2zm-410.5.9c-.8 2.3 0 9.1 1.2 9.5 1.3.5 2.7-5.3 2.1-8.3-.4-2.2-2.6-3-3.3-1.2zm578.8 2.7c-3.1 2.6-4.3 5.1-2.5 5.1 1.2 0 8.2-6 8.2-7.1 0-1.7-2.5-.8-5.7 2zm-155.3 4c0 1.1 6.6 5.1 8.6 5.1 2.7 0 1.4-2.6-2.1-4.3-3.9-1.9-6.5-2.2-6.5-.8zm140 7.2c-2.8 2-3.9 3.4-3.2 4.1 1 1 7.6-2.5 10.1-5.6 2.4-2.9-2.1-1.9-6.9 1.5zm-572.4 2.8c-2.2 2.3-3.4 4.1-2.7 4.5 1.5 1 9.2-4.4 8.9-6.2-.5-2.8-2.3-2.3-6.2 1.7zm448.4-2.8c0 1.7 8.4 4.9 10.1 3.9 1.5-1-2.6-3.7-6.9-4.6-2.4-.5-3.2-.3-3.2.7zm16 4.7c0 1.1 6 3.2 9 3.2 1.3 0 1.3-.2 0-1.4-1.9-1.9-9-3.2-9-1.8zm92.2 1.8c-1.8.8-3 1.9-2.7 2.4.7 1.2 8.7-1.2 9.3-2.8.5-1.6-2.4-1.4-6.6.4zm-77.2 1.3c0 1.4 1 1.7 6.8 2.5 3.3.5 4.2.3 4.2-.9 0-.8-.8-1.5-1.7-1.5-1 0-3.5-.3-5.5-.6-2.6-.5-3.8-.3-3.8.5zm-494.7 2.8c-4.3 1.5-5.4 2.9-3 3.9 1.8.6 10.9-3.5 10.2-4.7-.8-1.2-2.1-1.1-7.2.8zm511.2-.7c-.8 1.2 3.6 3 7.5 3 2.8 0 4.8-1.4 3.3-2.3-2-1.1-10.2-1.7-10.8-.7zm47-.3c-4.5 1.1-3.9 2.4 1 2.1 2.8-.2 5-.8 5-1.3 0-1.1-3-1.5-6-.8zm-30.1 1.4c-.9 1.5 1.4 2.9 4.8 2.9 3.7 0 4.5-1.8 1.3-3-3.4-1.3-5.2-1.3-6.1.1zm13.6 1.4c0 1.3.9 1.6 4.3 1.3 2.3-.2 4.2-.8 4.2-1.3 0-.6-1.9-1.1-4.2-1.3-3.4-.3-4.3 0-4.3 1.3zm-560.5 3.9c-4.7 1.4-4.5 3.2.3 2.9 3.7-.3 7.2-1.9 7.2-3.3 0-1.3-2.5-1.1-7.5.4zm-15.7 4.3c-4.9 1.4-6.7 4.3-2.8 4.3 2.8 0 9-2.7 9-3.9 0-1.7-1.4-1.8-6.2-.4zm192.4 5.1c-.4.9-.7 4.4-.7 7.7v6h6.4c4.3 0 6.6-.4 6.9-1.3.2-.8-1-1.2-4.2-1.2-3.3 0-4.6-.4-4.6-1.4 0-.8 1.1-1.6 2.5-1.8 1.4-.2 2.6-.8 2.6-1.3 0-.6-1.2-1.1-2.6-1.3-1.4-.2-2.5-1-2.5-1.9 0-1.2.8-1.3 3.8-.8 2.9.4 4.2.2 5.1-.9 1.6-1.9 1-2.2-6.7-3-4.4-.4-5.4-.2-6 1.2zm-210.1.5c-4.5 1.6-5.2 3.7-1.2 3.7 3.6 0 7.8-1.8 8.5-3.6.7-1.7-2.5-1.8-7.3-.1zm1091.5 4.4c.8 2.7 1.9 6.7 2.4 8.9.5 2.3 1.4 5.4 2 7 .6 1.6 2 8.9 3 16.4 2.4 16.2 2.6 39.4.6 59-1.3 12.6-1.3 15.1-.1 13.8 1.2-1.2 3.5-30.6 3.5-45.2 0-22.8-4-46.7-9.9-60.2-2.6-5.8-3.4-5.6-1.5.3zm-1107.8.5c-4 1.1-4.8 2.2-2.2 3.2 2.9 1.1 9.4-1.3 9.4-3.5 0-1.1-2.3-1-7.2.3zm-13.5 4.6c-4.6 1.7-5.3 2.6-2.8 3.6 1.6.6 8.5-2.2 8.5-3.5 0-1.6-1.6-1.6-5.7-.1zm227.4.9c-.2.5-1 2.8-1.7 5.3s-1.7 5-2.2 5.6c-.4.6-.5 1.4-.1 1.7.9 1 10.1.8 10.7-.1.5-.9-4.9-13.2-5.8-13.2-.3 0-.7.3-.9.7zm-240.4 6.6c-2.8 2.7-3 4.7-.5 4.7 2 0 6.2-3.9 6.2-5.8s-3.3-1.3-5.7 1.1zm166.3.6c-.2.3-.7 3.9-1 7.8l-.7 7.3h5.8c3.2 0 6.4-.4 7.1-.9.8-.5 1.5-3.2 1.7-6.5.3-4.5 0-5.8-1.3-6.5-2.2-1.1-11.1-2.1-11.6-1.2zm8.8 4c.8 1.3-2.1 3.4-3.9 2.7-2.5-.9-1.8-3.6.9-3.6 1.4 0 2.7.4 3 .9zm.6 6.6c0 1-1.1 1.5-3.5 1.5s-3.5-.5-3.5-1.5 1.1-1.5 3.5-1.5 3.5.5 3.5 1.5zm-180.3-2.9c-1 1-.8 5.6.2 7.3 1.5 2.4 3.3.2 2.6-3.2-.8-3.6-1.8-5.1-2.8-4.1zm101 1.1c-1.9.5-4.7 5.2-4.7 8 0 1 .7 2.9 1.6 4.1 1.3 1.9 2.3 2.3 6.2 2 3.6-.2 4.8-.7 5-2.1.3-1.6-.1-1.7-3-1.2-2.5.5-3.8.2-4.7-.9-2.6-3.2 1.4-9.5 4.3-6.6 1.5 1.5 4.6 1.2 4.6-.5 0-2.7-4.5-4.1-9.3-2.8zm-96.2 10.3c-.9 1.5 1.1 3.7 4.6 4.9 2.5.9 2.9.8 2.9-.8 0-1-1.1-2.6-2.5-3.5-2.8-1.9-4.1-2-5-.6zm179 3.8c-6.2 9.7-6.3 8.9 1.8 8.8 4.1-.1 7.2-.5 7.2-1.1 0-1.4-4.9-12.5-5.5-12.5-.3.1-1.8 2.2-3.5 4.8zm-73.1 5.7c-1.8 3.5-2.9 6.6-2.6 6.9.7.7 10.7.8 11.4.1.6-.6-4.3-13.5-5.1-13.4-.3 0-2 2.9-3.7 6.4zm-95.4-4.6c-2.1 1.4-.3 2.7 4.8 3.5 3.8.6 4.2.4 4.2-1.4 0-1.2-.7-2-1.7-2s-2.7-.3-3.8-.5c-1.1-.3-2.7-.1-3.5.4zm13.5 2c-1.2 2 .4 2.8 5.5 3 4.4.1 5.1-.1 4.8-1.6-.2-1.4-1.5-1.9-5-2.1-2.5-.2-4.9.2-5.3.7zm15.6.4c-2 2-1.2 2.7 3.3 2.7 3.8 0 6.8-1.3 5.5-2.4-1.3-1-7.8-1.3-8.8-.3zm12.5 2.3c-.3.9-.6 1.7-.6 1.9 0 .7 9.2 2.5 10.1 2 1.6-1.1 1-2.4-2.1-4-3.7-1.9-6.6-1.9-7.4.1zm14.1 6c-.8.8 5.5 8.4 6.5 7.8 1.5-1 .8-4.1-1.5-6.2-2.4-2.2-3.9-2.7-5-1.6zm49.3 5.9c0 2.5 3 7.6 4 7 1.5-.9 1.2-3.8-.6-6.3-1.8-2.6-3.4-2.9-3.4-.7zm-12.4 4.9c-2.7 4.7-3.2 6.6-1.7 6.6 1.2 0 7.1-9.6 6.4-10.4-1.3-1.2-2.2-.5-4.7 3.8zm-28.6 1c0 1.7 5.1 5.6 7.4 5.6 2.6 0 1.8-2.7-1.3-4.9-3.4-2.4-6.1-2.7-6.1-.7zm12.4 6.4c-1.5 1.4-1.2 1.7 3.2 2.8 6.5 1.7 7.6 1.7 7.2-.2-.2-1-2.1-2.2-4.6-2.9-3.7-1.1-4.5-1.1-5.8.3zm33.9-1.1c-1.9.7-1.7 9.3.1 9.3 1.4 0 2.6-2.9 2.6-6.7 0-2.4-.9-3.3-2.7-2.6zm-21.8 2.3c-.3.5-.1 1 .4 1 .6 0 1.1-.5 1.1-1 0-.6-.2-1-.4-1-.3 0-.8.4-1.1 1zm1016.4 8.2c-.2 8.6-1 13.4-2.4 13.1-1.2-.2-.9 3.2.6 6.9 1.2 2.9 2.9 3.8 2.9 1.5 0-.7.9-2.9 2-5 2.4-4.5 2.5-4.9.3-4.5-1.5.3-1.6-.7-1.4-8.8.2-5.8-.1-9.4-.8-9.9-.8-.4-1.1 1.7-1.2 6.7zm-1001.3 7.1c-3 3.9-3.2 4.7-1.2 4.7.7 0 2.5-1.8 4-4 3.3-5.1.9-5.6-2.8-.7zm15.1 12.5c-1.5 3.1-2.7 5.9-2.7 6.2 0 .3 2.9.6 6.5.7 3.6.1 6.5-.2 6.5-.7 0-1.9-5.5-12-6.5-12-.5 0-2.2 2.6-3.8 5.8zm-24.2-.3c-3.6 3.8-4.1 5-2.6 5.9.9.6 8.1-6.2 8.1-7.6 0-2.3-2.5-1.5-5.5 1.7zm-9.4 13.2c-2.9 3.6-3.2 5.3-.8 5.3 1.5 0 6.9-7.5 6-8.4-1.2-1.2-2.2-.6-5.2 3.1zm124.6 6.9c-1.6 3.6-2.6 6.9-2.3 7.2.3.3 1.7 0 3.1-.6 1.4-.7 3.7-1.2 5-1.2 1.4 0 2.5-.5 2.5-1.1 0-2.4-3.5-10.9-4.5-10.9-.5 0-2.3 3-3.8 6.6zm-93.1-4.4c-.3.7-.7 3.1-.9 5.3-.3 2.2-.7 4.9-.9 6-.3 1.8.2 2 6 2 5.5 0 6.7-.4 8.3-2.4 4.3-5.3 1.2-10.5-6.9-11.6-3.9-.5-5.3-.4-5.6.7zm8.9 3.9c.4.5.4 2.1.1 3.5-.5 1.7-1.3 2.4-3.1 2.4-2.2 0-2.5-.4-2.5-3.5 0-3 .3-3.5 2.4-3.5 1.4 0 2.8.5 3.1 1.1zm-49.7 6.8c-2.8 4.8-2.8 6.4-.2 5.4 2-.8 5.7-7.1 5-8.8-.9-2.5-2-1.7-4.8 3.4zm150.3 2c-1.8 3.3-4.6 7.3-6.3 9.1-1.9 2.1-2.6 3.6-2 4.2 1.5 1.5 4.8.1 6.6-2.7 2-3 3.2-3.2 3.9-.5.6 2.3 2.7 2.7 2.7.6 0-2.9 2-2.7 2.6.3.7 3.2 1.8 3.8 4.3 2.2 1.2-.8.8-2.5-2.4-10-2.2-5-4.4-9.1-5-9.1-.5 0-2.5 2.7-4.4 5.9zm4.9 4.1c0 1.1-.4 2-.9 2-1.4 0-2.3-1.8-1.6-3 1-1.7 2.5-1.1 2.5 1zm957.5-1.8c-.2.7-.6 3.8-.7 6.8-.2 4.4-.7 5.6-2.1 5.8-3.2.6-4.7-1.7-4.7-7.4 0-3-.4-5.4-1-5.4-1.1 0-1.3 10.9-.2 12.6 1.3 2.1 4.7 3.2 6.9 2.3 3-1.1 4.3-4 4.3-9.8 0-4.7-1.5-7.7-2.5-4.9zm-145.8.5c-1.4 1.4-.6 2.2 2.6 2.5 2.7.3 3.2.7 3 2.8-.3 3.9.8 10 1.8 10 .5 0 .9-2.9.9-6.4 0-6.3.1-6.5 2.7-6.8 1.4-.2 2.8-.9 3.1-1.6.3-.9-1.5-1.2-6.5-1.2-3.9 0-7.3.3-7.6.7zm21 .4c-2.8 1.7-3.9 5.7-2.6 9.6 1.8 5.7 7.8 7.1 11.9 2.8 1.9-2 2.2-3.1 1.7-6.7-.3-2.3-1.3-4.8-2.3-5.5-2.1-1.6-6.2-1.6-8.7-.2zm6.7 2.5c1.9 1.8 2.1 6.5.4 8.2-.7.7-2.1 1.2-3.3 1.2-4.4 0-6.1-5.6-2.8-9.2 2-2.2 3.7-2.3 5.7-.2zm27.1-1.1c-4.7 4.6-1.7 13.5 4.4 13.5 2.8 0 6.1-2.6 6.1-4.8 0-1.7-2-1.5-2.6.2-1.6 4.2-7.4 1.5-7.4-3.4 0-5 4.6-6.8 7.2-2.8 1.2 1.8 1.5 1.9 2.1.6.7-2-2.8-5.8-5.4-5.8-1.1 0-3.1 1.1-4.4 2.5zm16.6-.8c-5.1 4.3-2.3 14.3 3.9 14.3 4.3 0 8-3.9 8-8.3 0-6.4-7.1-9.9-11.9-6zm8.1 3.4c1.6 2.1 1.7 3 .7 5.1-.6 1.5-2.1 2.9-3.2 3.2-5 1.3-7.8-6.8-3.5-9.8 2.7-1.9 3.6-1.7 6 1.5zm9 2.6.3 7.8h4.8c4.8 0 6.3-1.9 1.7-2.2-1.4 0-3.1-.2-3.7-.2-.9-.1-1.3-2-1.3-6 0-3.3-.5-6.3-1-6.6-.7-.5-1 1.9-.8 7.2zm31-.5.3 7.3 3.8-.1c4.9-.2 7.7-2.7 7.7-7.1 0-4.6-2.9-7.3-8-7.3h-4.1l.3 7.2zm8.8-2.6c1.2 2.2 1.2 2.9-.1 5.2-1.7 3.1-5.3 4.1-6.3 1.7-.3-.9-.3-3.4 0-5.6.5-3.2 1.1-3.9 2.9-3.9 1.3 0 2.7 1 3.5 2.6zm-1102.6 3.9c-.9 1.4-1.3 3.2-.9 4.2.6 1.6.9 1.5 3.1-1 1.3-1.5 2.4-3.5 2.4-4.3 0-2.3-2.8-1.6-4.6 1.1zm-6.2 12c-1.5 3.3-1.5 4.5-.1 4.5 1.6 0 3.8-3.1 3.9-5.3 0-2.6-2.5-2.1-3.8.8zm-5.5 13.3c-2 4.7-2.1 5.2-.4 5.2 1.6 0 3.7-4.1 3.7-7 0-3.2-1.5-2.3-3.3 1.8zm1103.8-2.6c-.3.7-.4 4.1-.2 7.6.2 6.6 2 9 2.5 3.4.5-4.6 3.8-4.4 5.8.3.8 1.9 2.1 3.5 2.8 3.5 1.4 0 1.3-.9-.5-6.5-.2-.6.2-2 .9-3.2 1.1-1.9 1-2.5-.8-4.3-2.3-2.3-9.8-2.8-10.5-.8zm8.8 2.2c.7 1.9-1.2 3.6-4 3.6-1.8 0-2.3-.6-2.3-2.5 0-2.1.5-2.5 2.9-2.5 1.6 0 3.1.6 3.4 1.4zm-108.2.2c-2.5 3.2-2.7 7.1-.5 10.2 1.4 2 2.3 2.3 6.8 1.9 4.2-.3 5.1-.7 5.2-2.3.1-3-1.5-5.4-3.6-5.4-2.4 0-2.6 1.5-.4 2.4 1.3.5 1.4.9.4 2.1-1.7 2-3.3 1.9-5.3-.3-2-2.2-2.2-6.3-.5-8 1.6-1.6 4.3-1.5 5.8.3 1.6 1.9 3 1.9 3 0 0-.8-.9-1.9-1.9-2.5-3.4-1.8-6.8-1.2-9 1.6zm17.9 3.1c-1.3 3.2-2.7 6.3-3.2 6.9-.8 1.1-.1 2.4 1.2 2.4.4 0 1.2-1.2 1.8-2.6 1.5-3.1 5.2-3 6.7.3 1 2.4 3.6 3.2 3.4 1 0-.6-1.1-3.9-2.3-7.2-2.9-8-4.7-8.2-7.6-.8zm3.6 2c-1 1-1.9-.5-1-1.8.6-1.1.8-1.1 1.2 0 .2.7.1 1.5-.2 1.8zm11.6-.5.3 7.3 5.4.3c4 .2 5.2 0 4.9-1-.3-.7-1.9-1.3-3.6-1.3-1.7-.1-3.3-.3-3.6-.6-.3-.3-.7-2.9-.8-5.9-.2-3.2-.9-5.5-1.6-5.8-1-.3-1.2 1.4-1 7zm15.5-6.6c-.4.4-.7 3.8-.7 7.6 0 5.1.3 6.9 1.3 6.6.7-.3 1.3-2.8 1.5-6.8.3-5.9-.6-8.9-2.1-7.4zm7.8.6c-.3.8-.5 4.4-.3 7.9l.3 6.4 5-.3c6-.3 8.6-2.3 6.7-5.2-.7-1.1-1-3-.7-4.3.8-3.4-.8-4.9-5.9-5.4-3.5-.4-4.7-.2-5.1.9zm8 3.3c0 2.2-3.1 3.3-4.7 1.7-1.7-1.7-.1-4.4 2.4-4 1.5.2 2.3 1 2.3 2.3zm1 6.6c0 .8-1.3 1.5-3.2 1.7-2.7.3-3.3 0-3.3-1.7 0-1 .6-2.1 1.3-2.4 1.9-.6 5.2.9 5.2 2.4zm7.8-6c.4 3 .7 6.4.7 7.6 0 1.3.5 2.3 1 2.3 1.7 0 .8-14.2-.9-14.8-1.1-.4-1.3.5-.8 4.9zm9.4-4.4c-.4.3-.7 3.7-.7 7.5v6.8h6c6.8 0 8.2-1.7 1.8-2.2-3.1-.2-4.4-.8-4.6-2.1-.2-1.1.3-1.7 1.6-1.7 2.7 0 5.2-1 5.2-2.1 0-.5-1.6-.9-3.5-.9-2.8 0-3.5-.4-3.5-2 0-1.7.7-2 4-2 2.2 0 4-.5 4-1 0-1.1-9.3-1.4-10.3-.3zm-1091.6 15.4c-1.4 4-1.4 6.9 0 6.9 1.3 0 4.2-6.9 3.5-8.6-.9-2.3-2.3-1.6-3.5 1.7zm-4.7 16.4c-1.7 4.1-1.7 4.5-.4 4.5 1 0 4-5.2 4-7 0-2.3-2.2-.8-3.6 2.5zm-4.3 13.2c-2.2 7.9-.5 10.2 2.3 3 2-5.3 2-6.7.1-6.7-.8 0-1.9 1.6-2.4 3.7zm-3.4 14c-.2.5-.7 2.5-1.1 4.5-.5 3-.4 3.8.8 3.8 1.8 0 2.2-.6 3-5.3.5-2.9.4-3.7-.8-3.7-.8 0-1.7.3-1.9.7zm-1.9 14.5c-.9.7-1.8 3-2 5-.3 3.1-.1 3.8 1.3 3.8 2.2 0 2.7-.7 3.5-5.8.7-4.4 0-5.1-2.8-3zm-3.3 15.2c-.9 4.7-.3 8 1.6 8.4 1.3.2 1.8-.7 2.1-4.4.2-3.1-.1-5.2-1-6.1-1.9-1.8-2-1.7-2.7 2.1zm-.5 20.3c.1 5.3.2 5.6 1.5 3.9 2-2.7 2-9.6 0-9.6-1.2 0-1.5 1.3-1.5 5.7zm-1 13c0 2.1-.3 4.9-.7 6.2-.5 1.9-.2 2.2 1.3 1.9 3.2-.6 3.9-11.8.8-11.8-.9 0-1.4 1.2-1.4 3.7zm-.4 11.5c-.3.7-.4 3.3-.3 5.8.2 3.3.6 4.5 1.7 4.5 1.9 0 2.2-10.6.3-11.2-.7-.3-1.5.1-1.7.9zm-.4 19.5c.2 3.5.7 4.8 1.8 4.8s1.6-1.3 1.8-4.8c.3-4.2.1-4.7-1.8-4.7-1.9 0-2.1.5-1.8 4.7zm6 .3c0 1.9.2 2.7.5 1.7.2-.9.2-2.5 0-3.5-.3-.9-.5-.1-.5 1.8zm10.5-2.4c-.4.4-.7 6.5-.7 13.6 0 7-.3 12.8-.6 12.8-.4 0-1.3-.8-2-1.8-1.9-2.4-1.7-.5.5 5.3 1 2.7 2.4 5 3 5 .5 0 2.1-2.2 3.5-5 2.5-4.9 2.7-7 .4-4.7-2.6 2.6-3 .9-2.3-10.7.7-11 0-16.3-1.8-14.5zm-16.7 15.4c0 5.5 1.5 6.6 3.1 2.3 1.2-3.3.4-7.3-1.6-7.3-1.1 0-1.5 1.3-1.5 5zm-.1 9.2c-.5 6.6 1.5 11.5 3.4 8.2 1.4-2.6.4-8.8-1.5-9.2-1-.2-1.8.2-1.9 1zm-68.9 28.8c0 .5 1.3 1 3 1 2.9 0 2.9.1 3.2 6.2.4 7.8 2.2 7.8 2.3 0 0-5.5.1-5.7 2.8-6 5.5-.7 2.5-2.2-4.3-2.2-4 0-7 .4-7 1zm19.5 1c-1.1 1.2-1.9 3.6-1.9 5.5 0 4.5 2.8 7.5 7 7.5 4.9 0 7.7-3.4 7.1-8.5-.3-2.1-1.4-4.5-2.3-5.2-2.7-2-7.8-1.6-9.9.7zm8.3 1.2c1.7 1.7 1.5 7.3-.3 8.8-2.3 1.9-6.4.4-7.1-2.6-1.4-5.5 3.8-9.8 7.4-6.2zm27.1 2.6c-.1 3.4-.2 6.8-.3 7.4-.1.9 1.7 1.4 5.2 1.6 5.9.3 7.3-1.5 1.5-2l-3.8-.3-.3-5.5c-.5-7.9-2.2-8.8-2.3-1.2zm18.2-4c-2 3.7-5.3 13.3-4.8 13.9.3.2 1.3-.7 2.2-2.1 2.2-3.4 5.8-3.4 7.3-.1 1.2 2.6 3.2 3.4 3.2 1.2 0-2.3-4.8-14.1-5.8-14.5-.6-.2-1.5.5-2.1 1.6zm2.9 5.8c0 .8-.7 1.4-1.5 1.4-1.5 0-2.1-2.1-.9-3.3 1-.9 2.4.2 2.4 1.9zm28.3-6.4c-2 1-4.3 5.4-4.3 8.3 0 .7.9 2.3 1.9 3.6 1.5 1.9 2.9 2.4 6.5 2.4 4.9.1 5.7-.7 4.9-4.8-.4-2.1-1.1-2.7-3.2-2.7-2.5.1-2.6.1-.6 1.6s2 1.5.1 3c-2.5 1.8-2.9 1.8-5-.5-2.3-2.5-1.7-7 1-8.8 1.9-1.2 2.4-1.2 3.8.3 1.1 1.1 2.1 1.3 2.7.7 2.2-2.2-4.3-4.8-7.8-3.1zm31.7 5.1c-3 6.7-3.7 9.7-2.2 9.7.5 0 1.4-1.1 2-2.5 1.5-3.3 4.1-3.2 6.8.2 1.2 1.6 2.5 2.5 2.9 2.1.7-.7-4-13.6-5.6-15.2-.5-.6-2.1 1.8-3.9 5.7zm5 1.9c0 .5-.7.8-1.5.8-1.5 0-2-2.1-.8-3.3.7-.7 2.3 1.1 2.3 2.5zm-22.4-6c-.3.7-.4 3.9-.3 7.1.2 6.2 2 8.3 2.5 2.9.3-2.5.7-3.2 1.9-2.8.8.3 1.8.6 2.3.6.5 0 1 1.2 1.2 2.7.2 1.4.9 2.9 1.7 3.1 1.1.4 1.3-.3.8-3.3-.4-2.2-.1-4.5.6-5.6 2-3.1-.2-5.3-5.7-5.7-3.1-.2-4.8.1-5 1zm7.9 1.2c1.7 1.2 1.7 1.6.5 3-.7 1-2.3 1.6-3.4 1.4-2.4-.4-3.4-3.7-1.4-4.9 1.8-1.2 2.1-1.1 4.3.5zm23.5-2.2c.8 3.9 5.1 14.3 5.9 14.3.7 0 2.6-3.1 4.2-6.8 3.3-7.7 3.2-7.7 2-7.7-.5 0-2.1 2.4-3.4 5.2l-2.4 5.3-1.3-3c-.6-1.7-1.6-4-2.1-5.3-.5-1.2-1.3-2.2-1.9-2.2-.5 0-1 .1-1 .2zm18.4 1.2c-.3.7-.4 4.2-.2 7.7l.3 6.4 5.4.3c4 .2 5.2 0 4.9-1-.3-.7-2.3-1.4-4.6-1.6-3.4-.3-4.2-.7-4.2-2.3 0-1.5.7-1.9 3.6-1.9 2.4 0 3.4-.4 3.1-1.3-.2-.6-1.7-1.2-3.3-1.2-1.9 0-3-.6-3.2-1.8-.3-1.4.4-1.7 3.7-1.7 2.2 0 4.3-.5 4.6-1 .3-.6.3-1-.2-1.1-6.3-.7-9.5-.5-9.9.5z"/>
</svg>
