<?xml version="1.0" encoding="utf-8"?>
<svg xmlns="http://www.w3.org/2000/svg" version="1.0" viewBox="0 0 605 949">
	<title>The end of a piece of braided rope.</title>
	<path d="M8.6 2.2C8.2 3.4 6.7 84.6 5.5 168c-.3 17.3-.7 108.1-1.1 201.7C4 494.2 4.2 540 5 540.5c.7.4.8 1.1.1 1.9-.6.7-1.2 26.3-1.6 68.1-.3 36.9-.8 76.7-1 88.5-.3 11.8-.8 71.5-1.1 132.6-.6 103.6-.5 111.1 1 112.7 1 .9 2.5 1.7 3.4 1.7 30.8.7 102.5 1 325.9 1.5l271.1.6.7-2.2c.4-1.1.6-116.7.4-256.8-.2-140-.2-269.2-.1-287.1s.1-77.7 0-133-.2-137.4-.2-182.5c-.1-45.1-.4-82.7-.9-83.5-.6-1.3-6.9-1.5-49-1.3-91.6.4-194.8.3-369.5-.3C39.5 1 8.9 1.1 8.6 2.2m378.9 4c1.1 4.6 1.3 12.3.3 13.5-2 2.4-2.4 1.3-2-6 .2-4.6 0-6.7-.6-5.8-.7.9-1.2 1-1.6.2-1.1-1.7-3.6-1.3-3.6.6-.1 1.7-.1 1.7-1.1 0-1.5-2.5-2.6-2.1-3.4 1.5-.8 3.1-.8 3.2-1.2.8-.7-3.9-2.3-4.8-2.4-1.5l-.1 3-1.1-2.8c-1-2.4-1.6-2.7-6-2.7-4.1 0-5 .3-5.4 2.1-.6 2.1-.6 2.1-1.9-.2C354.7 4.1 355 4 371.5 4c15.2 0 15.5 0 16 2.2M369 10.1c0 .6-.7.9-1.4.6q-1.5-.6-.9.9c.3.7 0 1.4-.6 1.4-1.2 0-1.5-2.3-.4-3.3 1-1.1 3.3-.8 3.3.4m-6.7 5c-.4 1.9-.1 3.4.6 3.8.6.4.9 1.5.5 2.5-.6 1.6-.7 1.6-1.9-.1-1.8-2.7-2.6-9.1-1.2-9.6 2.1-.7 2.7.3 2 3.4m21.3 2.1c-.3 3.4-1.3 6.9-2.1 7.7-1.3 1.3-1.7 1.2-3.5-.9-2.1-2.5-2.7-5-1-5 .6 0 1-1.1 1-2.5s.5-2.5 1.1-2.5c.7 0 .8 1.6.3 4.5-.4 3-.3 4.5.5 4.5 1.5 0 2.4-4.5 1.8-8.6-.5-2.7-.2-3.4 1-3.4 1.3 0 1.5.9.9 6.2m-26.2-2.7c.3.8.1 1.5-.4 1.5-.6 0-1-.7-1-1.5s.2-1.5.4-1.5.6.7 1 1.5m14.4.3c.6 1.8-1.5 1.4-2.2-.4-.4-1-.1-1.4.6-1.2.6.2 1.4 1 1.6 1.6m5.2.2c0 .5-.5 1-1.1 1-.5 0-.7-.5-.4-1 .3-.6.8-1 1.1-1 .2 0 .4.4.4 1m-12.3 2.2c-.3.8-.6.5-.6-.6-.1-1.1.2-1.7.5-1.3.3.3.4 1.2.1 1.9m-6.7 3.9c0 .6-.4.7-1 .4-.5-.3-1-1.1-1-1.6 0-.6.5-.7 1-.4.6.3 1 1.1 1 1.6m12 .8c0 .6-.4 1.3-1 1.6-.5.3-1-.1-1-.9 0-.9.5-1.6 1-1.6.6 0 1 .4 1 .9m5-.3c0 .3-.9 1.7-2 3.1s-1.7 3-1.4 3.5c.4.6 1 .5 1.6-.3.8-1.1 1.1-1.1 1.5-.1.2.7 1.1 1.8 1.8 2.5 3 3 2.7 5.5-1.1 9.4-3.2 3.4-3.5 3.5-2.9 1.3.4-1.4 1.3-3 2.1-3.6 2.1-1.7 1.9-4.8-.3-3.6-1.2.7-2.2.3-3.9-1.5-1.3-1.4-2.1-3.1-1.8-3.7 3-5.4 6.4-9.2 6.4-7M361 24c0 .5-.2 1-.4 1-.3 0-.8-.5-1.1-1-.3-.6-.1-1 .4-1 .6 0 1.1.4 1.1 1m7 2.1c0 .5-.7.9-1.5.9-.9 0-1.5-.9-1.5-2.1 0-1.8.2-1.9 1.5-.9.8.7 1.5 1.6 1.5 2.1m20-1.2c1.4 2.7 1.4 5.9-.1 4.4-.6-.6-1.8-.9-2.5-.6-1.6.6-1.9 4.3-.4 4.3.6 0 1-.5 1-1.1 0-.5.5-.7 1-.4.8.5.7 1.1-.1 2.1-.6.8-.9 1.7-.6 2 1 1.1 2.7-.7 2.8-2.9 0-1.2.3-1.6.6-.9.6 1.6-.5 8.2-1.5 8.2-.4 0-1.6-1.4-2.7-3s-2.6-3-3.2-3c-1.7 0-1.6-1 .2-3.4.8-1.1 1.5-2.8 1.5-3.9s.4-1.5 1.2-1.1c.8.5.9.2.5-.9-.9-2.4 1-2.1 2.3.2m-22.5 5.2c1.1 1.7-.1 2.1-1.5.4-.8-.9-.8-1.5-.2-1.5s1.4.5 1.7 1.1m-5.7 4.4c-.3.3-.9-.2-1.2-1.2-.6-1.4-.5-1.5.5-.6.7.7 1 1.5.7 1.8m10.9 1.8c-.6 2-2.7 1.9-2.7-.2 0-1.4.5-1.9 1.5-1.4.9.3 1.4 1 1.2 1.6m-7.7-.4c0 .6-.4 1.3-1 1.6-.5.3-1-.1-1-.9 0-.9.5-1.6 1-1.6.6 0 1 .4 1 .9m21.4 3.6 2.7 3.5-2.2 3.8c-2.8 4.6-4.8 6.6-5.6 5.8-.3-.3 0-1.2.6-2 1-1.2.8-2-.9-4.4-2.1-2.8-2.1-3-.4-6.5 1-2 2.1-3.7 2.5-3.7.3 0 1.9 1.6 3.3 3.5m-24.4.6c0 1.1-.4 1.7-1 1.4-.5-.3-1-1.3-1-2.1s.5-1.4 1-1.4c.6 0 1 .9 1 2.1m11 6.4c0 1.5-.6 2.5-1.4 2.5s-1.7.6-1.9 1.2c-.4.9-.6.8-.6-.2 0-.8.3-2.2.9-3 .5-.8.5-1.7 0-2s-1.2-1.9-1.5-3.5l-.7-3 2.6 2.7c1.4 1.5 2.6 3.9 2.6 5.3m-6.8-2.3c-.6.6-1.5.8-1.9.4s-.1-1.1.7-1.6c1.9-1.2 2.7-.3 1.2 1.2m26.2.4c1.8 1.7 2.2 6.9.6 7.9-.5.3-1-.3-1-1.5 0-1.3-.4-1.9-1.1-1.4-1.4.8-.4 9.5 1.2 10.5.8.5.8.8 0 1.3-.7.5-1.4-.4-1.7-2.4-.5-2.4-1-2.9-2.5-2.5-1.1.4-1.9.4-1.9.1 0-1.1 3.5-8.1 4.4-8.7.4-.4.5-1.6.1-2.8-.8-2.5-.2-2.7 1.9-.5m-24.3 3.5c-.9 2.2-1 2.2-1 .3-.1-1.1.2-2.4.6-2.7 1.2-1.2 1.4 0 .4 2.4M376 46c0 .5-.5 1-1.1 1-.5 0-.7-.5-.4-1 .3-.6.8-1 1.1-1 .2 0 .4.4.4 1m-15 2.6c0 .8-.4 1.2-1 .9-.5-.3-1-1-1-1.6 0-.5.5-.9 1-.9.6 0 1 .7 1 1.6m18-.8c0 .5-.7 1.7-1.6 2.8-1.4 1.7-1.5 1.7-1 .1.3-1 .6-2.3.6-2.8s.5-.9 1-.9c.6 0 1 .4 1 .8m-15 5.3c0 .5-.4.9-1 .9-.5 0-1-.7-1-1.6 0-.8.5-1.2 1-.9.6.3 1 1 1 1.6m12 1.3 3.8 3.4-1.9 3.1c-1.8 3-3.9 4.1-3.9 2.1 0-.6-.7-1-1.5-1s-1.5-.5-1.5-1c0-.6.5-1 1-1 .7 0 .7-.6 0-2-.6-1.1-1.7-2-2.6-2-1.2 0-1.2-.4.2-2.5.9-1.4 1.9-2.5 2.1-2.5.3 0 2.3 1.5 4.3 3.4m-14.3 2.3c-1.1 1-2.7-.8-2.7-3v-2.1l1.6 2.2c.9 1.3 1.4 2.6 1.1 2.9m-1.3 3.8c.3.8.1 1.5-.4 1.5-.6 0-1-.7-1-1.5s.2-1.5.4-1.5.6.7 1 1.5m26.8 6.8c-.3 1-1.1 2.1-1.9 2.4s-1.9 1.5-2.3 2.7c-.8 1.9-.9 1.8-.9-.9-.1-3.1-1.6-2.5-2.3 1-.4 1.8-.6 1.8-1.7-.6-1.2-2.4-1-3 2.1-7.1l3.3-4.5 2.1 2.5c1.2 1.5 1.9 3.4 1.6 4.5M367 63.1c0 .5-.4.9-1 .9-.5 0-1-.7-1-1.6 0-.8.5-1.2 1-.9.6.3 1 1 1 1.6m1.3 3.4c2.9-.5 3.7-.3 3.7.9 0 .8-.9 2-2 2.6-1.5.8-2 .8-2-.1 0-.7-.9-.9-2.4-.5-2.8.7-4.1-.7-3.1-3.2.4-1.2.8-1.3 1.4-.4.5.8 2 1 4.4.7m23.4 2.2c-.3 1-.5.4-.5-1.2 0-1.7.2-2.4.5-1.8.2.7.2 2.1 0 3m-1 5.8c-.3 2-.3 3.4.1 3.1.4-.2.8 1 .9 2.7.2 2.2-.5 3.6-2.4 5.2-1.6 1.5-2.3 2.8-1.8 3.5q.75 1.35-.3.6c-.7-.4-1.2-1.3-1.2-2.1s-.5-1.7-1.2-2.1c-.8-.5-.9-.2-.5.9.3 1 .2 1.7-.4 1.7-1.7 0 0-6.3 2.2-8.2 1-.9 1.9-2.1 1.9-2.7s.5-1.1 1-1.1c.6 0 .8-1.1.4-2.5-.4-1.7-.2-2.5.6-2.5.9 0 1.1 1.1.7 3.5m-13.9-.4c1.7 2.6.6 5.9-1.9 5.9-2.2 0-2.4-1-.6-2.9 1-1 .7-1.1-1.5-.6-2.2.6-2.8.4-2.8-1 0-.9.5-1.3 1-1 .6.3 1.3-.1 1.6-.9.8-2.2 2.7-2 4.2.5M361 75.6c0 .8-.5 1.2-1 .9-.6-.4-.8-1.1-.5-1.6.9-1.4 1.5-1.1 1.5.7m26-.8c0 .5-.7 1.7-1.5 2.8-1.5 1.9-2 .8-.9-2 .6-1.7 2.4-2.2 2.4-.8m-23 1.1c0 .6-.4 1.3-1 1.6-.5.3-1-.1-1-.9 0-.9.5-1.6 1-1.6.6 0 1 .4 1 .9m6.9 12.1c0 .8-.6 0-1.4-1.9-.8-1.8-1.5-3.8-1.4-4.5.1-1.5 2.8 4.6 2.8 6.4m4.1-3.9c0 1.4-1.7 1-2.3-.5q-.6-1.5.9-.9c.7.3 1.4.9 1.4 1.4m6.8 3.4c1.8 2.8 2 3.9 1.2 5.6-.6 1.1-1 2.5-.7 3.2.2.7.9.2 1.6-1.1.6-1.2 1.6-2.2 2.1-2.2 1.9 0 5 3.9 4.3 5.6-.4 1.2-.9.9-2.1-1.5-1.7-3.7-2.8-3.9-3.6-.9-.6 2.4-4.8 7.8-6.1 7.8-.4 0 0-1.2 1-2.6.9-1.4 1.4-2.8 1.1-3.2-.3-.3-.6 0-.6.6 0 .7-.7 1.2-1.5 1.2-1.9 0-2-2.4-.1-3.9 1.8-1.5 2.7-5.1 1.4-5.1-.6 0-.8-.9-.5-2 .7-2.7-.9-2.5-2.4.2-.7 1.3-1.9 2.9-2.8 3.6-1.4 1.2-1.2 1.3 1.3.7 2.4-.5 2.7-.3 2.2 1-.3.9-.6 1.9-.6 2.1 0 .9-2.2.3-3.6-1-1.1-1.1-1.2-2.1-.3-4.3 1-2.7 4.7-7.3 5.8-7.3.3 0 1.6 1.6 2.9 3.5m-14.8 1c1.4 2.7 1.1 3.8-.6 2.7-1.5-.9-2.8-5.2-1.6-5.2.5 0 1.5 1.1 2.2 2.5m-2.2 3.2c1.3 1.1 1.4 1.6.2 3.8-1.7 3.2-2.9 3.2-2.2 0 .2-1.4-.1-3.2-.8-4-.7-.9-.9-2.2-.5-3.2.7-1.7.8-1.6 1.2.2.3 1.1 1.2 2.6 2.1 3.2m26.2-2.2c0 .8-.4 1.5-1 1.5-.5 0-.7-.7-.4-1.5.4-.8.8-1.5 1-1.5s.4.7.4 1.5m-29.6 5.2c-1 4-1.4 4.1-1.4.5 0-1.8.5-3.2 1-3.2.6 0 .8 1.1.4 2.7m12.4 6.3c1.2 0 2.4 2.7 1.4 3.2-1.3.6-5.2 6.7-5.2 8 .1.7.9.3 1.9-1 1.1-1.2 2.4-2.2 3-2.2 1.9 0-.6 3.8-3 4.5-2.5.8-3.9-.8-3.9-4.7 0-1.5-.8-3.1-1.7-3.6-1.5-.9-1.5-1.1-.1-2.6 2.2-2.2 3.1-2 2.3.4-.3 1.1-.2 2.8.4 3.7.9 1.5 1.1 1.2 1.2-1.7.1-1.9.2-4.4.1-5.5-.2-1.9-.1-1.9 1.2-.3.7 1 1.8 1.8 2.4 1.8m13.7 2c.8 1.6 1.5 3.8 1.5 4.9s.7 2.6 1.5 3.4c1.1 1.2 1.3 3 .8 8.1-.5 6.1-.8 6.6-2.9 6.6-1.5 0-2.4-.6-2.4-1.5 0-.8-.4-1.5-1-1.5-.5 0-1-.5-1-1.1s.7-.9 1.5-.5c1.2.4 1.5-.3 1.5-2.9 0-5.2 1.8-4.2 2.3 1.2.2 2.9.3 2.2.2-1.7-.1-3.6-.9-8.1-1.7-10l-1.6-3.5.1 4.8c.1 3.3-.3 5.1-1.3 5.7-1.9 1.2-3.3 1.3-2.6.1.3-.5-.1-1.4-.9-2.1-2.2-1.8-1.8-7.1.8-10.2 2.8-3.5 3.3-3.5 5.2.2m3.9-.5c.3.8.1 1.5-.4 1.5-.6 0-1-.7-1-1.5s.2-1.5.4-1.5.6.7 1 1.5m-28.3 11.2c.9 2.4.7 3-1.1 4.5-2.8 2.3-4.3 2.3-3.6 0 .3-.9.8-2.9 1.2-4.5.8-3.5 2.2-3.5 3.5 0m16.7.8c1.1 1.4 2.5 2.5 3.1 2.5s1.1.4 1.1 1c0 .5-.5 1-1.2 1-1.7 0-4.8 3.1-4.8 4.8 0 1.2.3 1.2 1.5.2.9-.7 1.9-.9 2.3-.5s.1 1-.6 1.2c-.7.3-2.4 1.7-3.8 3.1-1.7 1.9-2.4 2.2-2.4 1.1 0-.8.5-2 1.2-2.7s.9-1.2.6-1.2c-.4 0-1.4.8-2.4 1.7-1.5 1.6-1.7 1.6-3-.2-.8-1-1.4-2.7-1.4-3.7s-.4-1.8-1-1.8c-2.2 0-.7-2.6 2.5-4.7 3.8-2.4 4.7-1.7 1.5 1.2-1.1 1-1.7 2.2-1.3 2.8.9 1.5 4.3-3.1 4.3-5.9 0-3.1 1.3-3 3.8.1m-15.3 6.5c-.3.5-1.1 1-1.6 1-.6 0-.7-.5-.4-1 .3-.6 1.1-1 1.6-1 .6 0 .7.4.4 1m4.4 4.4c.8 1.3 1 3 .6 3.6-.5.9-1.2.4-2.1-1.6-.8-2-1.3-2.3-1.3-1.1-.1 1-.5 1.5-1.1 1.2-.5-.3-1 .1-1 1s-.4 1.4-1 1c-1.7-1 1.2-6.5 3.5-6.5.6 0 1.7 1.1 2.4 2.4m16.1 1.7c0 1.1.4 1.8.9 1.5 1.3-.8 2.3 5.6 1.1 6.8-.7.7-1 .1-1-1.8 0-1.5-.4-2.5-.9-2.1-.5.3-1.2-.3-1.4-1.2-.4-1.5-.5-1.4-.6.3-.1 2.7 1.8 8.4 2.9 8.4.5 0 1-.5 1.2-1.2.2-.6 1-.8 1.6-.4 1.4.9 1.6 5.5.2 7.6-.7 1.1-1 .7-1.1-2-.1-2.6-.4-2-1.1 2.5-.9 5.8-2.1 8.5-3.4 7.3-.3-.4 0-1.6.6-2.8 1-1.8.9-2.5-.3-3.7-1-1-1.7-1.1-2.1-.4-.4.6 0 1.1 1 1.1 1.4 0 1.4.2.3 1.6-1.2 1.4-1.4 1.3-2.1-.7-.6-1.5-.5-2.5.1-2.7s1.1-1.2 1.1-2.3c0-1 .5-1.9 1.1-1.9 1.5 0 .3-4.8-1.7-6.7-.8-.9-1.7-1.3-2-1.1-.7.7.7 3.8 1.7 3.8.4 0 .6.7.3 1.5-.9 2.2-2.1 1.8-2.8-1-.4-1.4-1.3-2.5-2.1-2.5-2.2 0-.7-2.7 3.4-6.6 4.2-3.9 5.1-4.1 5.1-1.3m-25.9 4.2c-.8.8-1.1.7-1.1-.4 0-2 1.3-3.4 1.8-1.9.3.7-.1 1.7-.7 2.3m12 1.2c1.5-1.4 2.1-1.6 1.7-.5-.6 1.9-5 3.5-7.3 2.6-1.4-.5-1.5-.9-.5-2.1 1.1-1.3 1.4-1.3 2.5.2 1.2 1.7 1.4 1.7 3.6-.2m-7.3 5.1c-1 1-2.8-.6-2.8-2.4 0-1.5.1-1.5 1.7.1.9.9 1.4 1.9 1.1 2.3m10.5 2.1c-.7.3-1.3 1.5-1.3 2.7s-1 3.2-2.3 4.4c-2.5 2.3-4.5 1.9-2.5-.5.9-1.1.9-1.6-.1-2.2-.9-.6-.6-1 1.1-1.5l2.3-.6-2.5-2.1c-2.4-2-2.4-2-.3-1.6 1.4.3 2.4-.1 2.8-1.1.5-1.4.8-1.3 2.3.2 1.2 1.4 1.4 2 .5 2.3M359 147c.4 0 1.1.7 1.4 1.6.5 1.4.4 1.5-.8.5-1.1-.9-1.5-.9-1.9.1-1 2.8-1.8-.2-1-3.8.7-3.5.8-3.6 1.1-1.2.2 1.6.7 2.8 1.2 2.8m5 .6c0 .8-.4 1.4-1 1.4-.5 0-1-.9-1-2.1 0-1.1.5-1.7 1-1.4.6.3 1 1.3 1 2.1m10.4-.4c-.5.8-.2.9.9.5 1.8-.7 4.8 2.7 4.6 5.3 0 1-.2 1.1-.6.2-.9-2.2-2.3-1.2-2.3 1.6 0 1.6-.9 3.9-1.9 5.1-1.9 2.2-2.1 2.2-4.3.6l-2.3-1.7 2.3.5c2.5.6 2.6-.2.8-5.3-1.1-3-1.1-3.8.3-5.7 1.6-2.3 3.8-3.3 2.5-1.1m-7.8 10.4c1.2 2.8 1.2 3.9.3 5-2 2.4-2.9 1.6-2.9-2.6 0-2.2-.4-4-1-4-.5 0-1-.5-1-1 0-2.5 3.2-.6 4.6 2.6m5 .2c-.9.8-2.6-1-2.6-2.6.1-1.5.2-1.5 1.5.2.8 1.1 1.3 2.1 1.1 2.4m14.9-2.8c-.3.5-1 1-1.6 1-.5 0-.9-.5-.9-1 0-.6.7-1 1.6-1 .8 0 1.2.4.9 1m-25.5 1.4c0 .3-.4.8-1 1.1-.5.3-1 .1-1-.4 0-.6.5-1.1 1-1.1.6 0 1 .2 1 .4m25.4 3.5c.3.4.1 1.3-.5 2.1-.7 1.3-.9 1.2-.9-.3 0-2.4-1.7-2.1-2.6.5-.4 1.3-.2 2.4.5 2.6 1.9.6 1.2 2.5-2.1 5.9-3.1 3.2-5.7 4.5-4.2 2.2.3-.6.2-1.4-.4-1.8-2.6-1.6-2.2-5.6.8-8.9 1.7-1.8 3.5-3 4-2.7.6.3 1 .2 1-.3 0-1.1 3.7-.4 4.4.7m-23.4 3c0 1.2-2.9 3.5-3.6 2.8-.7-.6 1.7-3.6 2.9-3.7.4 0 .7.4.7.9m-7.2 3.7c-1 1-2.8-.6-2.8-2.4 0-1.5.1-1.5 1.7.1.9.9 1.4 1.9 1.1 2.3M369 165c0 .5-.4 1-1 1-.5 0-1-.5-1-1 0-.6.5-1 1-1 .6 0 1 .4 1 1m-3.5 3.9c.3 1 .3 2.6-.1 3.5-.3.9-.1 1.6.5 1.6s1.1-.9 1.1-1.9c0-3 1.1-5.1 2.6-5.1.8 0 1.4 1 1.4 2.2-.1 1.3.2 3.8.6 5.6.6 3.3.6 3.3-1.5 2-1.8-1.1-2.3-1.1-3.1.2s-2.5.8-2.5-.8c-.1-1.8-3.1-7.2-4-7.2-1.4 0 1.7-2 3.2-2 .6 0 1.4.8 1.8 1.9m-10.8 3.3c-.3.8-.6.5-.6-.6-.1-1.1.2-1.7.5-1.3.3.3.4 1.2.1 1.9m19.8-.2c.3.5.1 1-.4 1-.6 0-1.1-.5-1.1-1 0-.6.2-1 .4-1 .3 0 .8.4 1.1 1m7.9 2.2c-.9 3-1 3.1-2.4 2.3-.8-.5-.6-1.3.6-2.6 2.2-2.5 2.7-2.4 1.8.3m-24.5 2.8c.5 1.6.7 3 .3 3s-.1.4.6.8c.9.7 1 1.5.3 3.5-1.2 3-2.1 3.3-3.9 1.5-1.7-1.7-1.5-3.1.3-2.4 1.5.5 1.5-2.1 0-7.2-1.1-3.4 1.1-2.7 2.4.8m4.1-1.6c0 .3-.4.8-1 1.1-.5.3-1 .1-1-.4 0-.6.5-1.1 1-1.1.6 0 1 .2 1 .4m7 3.6c0 .5-.9 1.4-2 2-1.6.8-2 .8-2-.4 0-.8.8-1.7 1.8-1.9.9-.3 1.8-.5 2-.6.1 0 .2.3.2.9m10-.6c0 .3-.4.8-1 1.1-.5.3-1 .1-1-.4 0-.6.5-1.1 1-1.1.6 0 1 .2 1 .4m-25 1.5c0 .5-.7 1.4-1.5 2.1-1.6 1.4-1.8 1-.9-1.4.6-1.7 2.4-2.2 2.4-.7m20 0c0 .6-1 1.7-2.2 2.5-1.7 1.2-1.9 1.6-.6 1.6.9 0 1.8-.7 2.2-1.5 1-2.7 2.4-1.6 3.7 3 1.8 6.2 3.4 5.6 3.2-1.2-.1-.7.3-1 .8-.7 1.6 1 .9 6.1-1.1 8.5-1.8 2.3-1.9 2.3-2 .4-.1-4.1-1.4-4.6-5-2-3.4 2.5-5.4 1.8-3-1 .7-.8.8-1.5.3-1.5-.6 0-1.5-1-2-2.3-.9-1.8-.7-2.6 1.6-4.4 2.8-2.4 4.1-2.8 4.1-1.4m-7.2 8.6c-.3.3-.9-.2-1.2-1.2-.6-1.4-.5-1.5.5-.6.7.7 1 1.5.7 1.8m-14.3-.5c-.3.5-1.1 1-1.6 1-.6 0-.7-.5-.4-1 .3-.6 1.1-1 1.6-1 .6 0 .7.4.4 1m9.9.5c-.4.8-1.6 1.5-2.8 1.5-2.1-.1-2.1-.1-.2-1.5 2.5-1.9 3.7-1.9 3 0m3.6 5c-.6.7-.8 1.9-.4 2.8.4 1.1-.5 2.1-3.1 3.2-4.1 2-4.1 2-5-1.8-.5-1.7-.3-2.7.4-2.7.6 0 1.1.7 1.1 1.6 0 .8.5 1.2 1.1.8.6-.3.8-1.7.5-2.9-.5-1.8 0-2.8 1.6-4 2.1-1.4 2.4-1.4 3.5.1.9 1.2.9 2.1.3 2.9m11 2.8c0 1.8-.6 3.9-1.2 4.5-.7.7-1.1 2.9-.9 5 .1 2-.1 3.3-.5 2.9-.9-.8-1-1.2-1.2-5.5-.1-1.4-.6-2-1.3-1.6-.6.3-.8 1.7-.5 3 .7 2.7-.8 3.3-1.8.8-1.3-3.4-.6-7.3 1.4-7.9 1.1-.3 2.4-.4 2.8-.1.5.3.7-.6.4-1.9-.3-1.8 0-2.5 1.2-2.5 1.1 0 1.6.9 1.6 3.3m-27.7.3c.3.4 0 1.6-.8 2.8-.8 1.1-1.5 2.8-1.5 3.6 0 .9-.7 2.5-1.5 3.6-1.5 1.8-1.6 1.7-.9-1.6.3-1.9 1.1-4.4 1.7-5.5s1-2.3.9-2.8c-.2-.9 1.2-.9 2.1-.1m3.6 10.1c-.7 1.3-1.6 2.3-2.1 2.3-1.2 0-1-1.8.3-2.6.7-.4.8-2 .4-4.3l-.6-3.6 1.6 3c1.3 2.4 1.4 3.3.4 5.2m15-1.6c1.3 4.4 1.2 4.9-1.6 5.3-1.9.3-3.2 4.6-1.4 4.6.6 0 1.1-.5 1.1-1 0-2.1 3.7-.9 4.8 1.5 1.6 3.4 1.5 4.5-.2 4.5-.7 0-1.9 1.4-2.6 3.1-1.2 2.8-1.4 2.9-2.9 1.5-1.2-1.3-1.3-2.2-.4-4.5.9-2.4.8-2.9-.3-2.4-.8.3-1.4 0-1.4-.6s-.6-1.1-1.4-1.1c-1.4 0-1.1-4.5.5-6.6.5-.6 1-2.4 1.1-4 .3-5.9 3-6.1 4.7-.3m-5.9.6c0 2.5-.1 2.6-1.6 1.1-.9-.9-1.3-2.1-1-2.7 1.3-2 2.6-1.1 2.6 1.6m-13 3.4c0 1.1-2.4 3.9-3.4 3.9s-.6-2 .7-3.5c1.5-1.7 2.7-1.9 2.7-.4m7.4 3.1c-.4 1.3-1.4 2.8-2.3 3.5-1 .7-1.1 1.2-.4 1.3.6 0 1.5-.5 1.8-1 .7-1.2 3.5.5 3.5 2.1 0 1.2-7.9 6.3-8.7 5.6-.3-.4.2-1.8 1.2-3.3l1.7-2.7-2.6.5c-2 .4-2.6.1-2.6-1.3 0-1 .8-2 1.9-2.4 1-.3 2.6-1.4 3.6-2.5 2.4-2.7 3.8-2.5 2.9.2m17.4.7c.3.8-.1 1.2-.9.9-.7-.2-1.5-1-1.7-1.7-.3-.8.1-1.2.9-.9.7.2 1.5 1 1.7 1.7M342 216c0 .5-.5 1-1.1 1-.5 0-.7-.5-.4-1 .3-.6.8-1 1.1-1 .2 0 .4.4.4 1m-.6 3.6c-.7.3-1 1.4-.7 2.4.4 1.4 0 2-1.1 2-.9 0-1.6-.6-1.6-1.3 0-1.6 2-3.7 3.5-3.6.6 0 .5.2-.1.5m4.4 3.7c.2 2.1.7 3.5 1.3 3.2 2.2-1.4.7 2.5-1.7 4.4-3.6 2.8-5.3 2.7-2.6-.2 1.2-1.3 1.9-2.7 1.5-3.1s-.8-2.5-.8-4.7c-.1-4.9 1.9-4.6 2.3.4m15.5 6.6c.4 1.6-.2 3.1-2.2 5.2-3.2 3.3-4.1 3.6-4.1 1.4 0-.8.6-1.5 1.4-1.5s1.7-.7 2-1.6c1-2.5-.2-3-1.9-.8-.8 1-1.5 1.4-1.5.7s-.7-1-1.6-.6c-1.4.5-1.6.1-1.2-2 .3-1.5.1-2.7-.4-2.7s-.7-.4-.3-1c.3-.5 1.1-.7 1.8-.4.7.2 2.2-.4 3.2-1.6l1.8-2 1.2 2.3c.6 1.2 1.4 3.3 1.8 4.6m2.7-1.5c-.1 2.1-.1 2.1-1.5.2-2.1-2.7-2-5.3 0-3.6.8.7 1.5 2.2 1.5 3.4m-12.6 6.3c1.3 2.6 1.2 2.9-2.2 7-2 2.4-4.3 4.3-5 4.3-1.1 0-1.2-.3-.3-1.4.7-.8 1.6-2.8 2.1-4.6.7-2.6.7-3.1-.5-2.6-2.1.8-1.9-2.4.3-4 2.6-2 4-1.7 5.6 1.3m17.6-2.3c0 .3-.4.8-1 1.1-.5.3-1 .1-1-.4 0-.6.5-1.1 1-1.1.6 0 1 .2 1 .4m-32.7 3.4c-.3 1.2-.9 2.2-1.4 2.2-1.2 0-1.1-.7.2-3.2s2-1.9 1.2 1m29.7 2.8c0 2-1.8 1.7-2.4-.4-.3-.9-.3.2 0 2.6.3 2.9.1 4.1-.6 3.7-.6-.4-1.5.7-2.1 2.4-1.2 3.5-2.9 4.1-2.9 1.2 0-1.1-.7-2.6-1.5-3.5-1.6-1.5-2.1-4.1-.7-3.2.5.3 2.3-1.1 4.1-3 2.6-3 3.4-3.4 4.6-2.4.8.7 1.5 1.9 1.5 2.6m-21 2.3c0 .5-.7 1.1-1.5 1.5-1.5.5-2-.5-.8-1.7.9-1 2.3-.9 2.3.2m-5.1 3.5c1.8 3.2 1.1 5.7-1.8 6.8-2.1.7-2.2.7-1.1-.8 1.1-1.2 1.1-1.7.1-2.3-.8-.5-1-1.8-.5-3.4.8-3.3 1.7-3.4 3.3-.3m13.5.1c.8.8 1.7 2.4 2.1 3.4.6 2.1-3.3 10.2-5.2 10.9-2.1.6-1.5-2.6.9-4.8 1.2-1.1 1.8-2.3 1.3-2.7-.4-.5-1-.2-1.2.5-.3.6-.9 1-1.3.7-.5-.3-.7-1.2-.3-2 .3-1-.1-1.5-1.6-1.5q-2.1 0-1.5 1.5c.5 1.1.2 1.3-1 .9-2.4-.9-1.9-2.9.9-4.2 1.4-.7 2.8-1.9 3.1-2.7.8-1.9 1.9-1.9 3.8 0m-9.3 12.5c1.1.7-1.8 5-3.3 5-.7 0-.6-.6.2-1.5 1-1.3.9-1.5-1.1-1.5-1.9 0-2.1-.2-.9-1 1.3-.9 1.3-1.1 0-2s-1.1-1.3 1-3l2.5-1.9.3 2.7c.2 1.5.8 2.9 1.3 3.2m-12.1-4.1c0 .5-.7 1.4-1.5 2.1-1.3 1-1.5.9-1.5-.9 0-1.2.6-2.1 1.5-2.1.8 0 1.5.4 1.5.9m24.7 2.3c-.3.8-.6.5-.6-.6-.1-1.1.2-1.7.5-1.3.3.3.4 1.2.1 1.9m-1.7 4.7c0 1.9-5.4 5.2-7.6 4.7-1.6-.4-3.2.3-5.6 2.5l-3.3 3-3.2-3.7c-1.8-2.1-3.3-4.1-3.3-4.6 0-1.1 1.8-1 2.5.2.3.5 1.5 1 2.6 1 1.3 0 1.9.7 1.9 2.2v2.2l2.1-2.3c1.4-1.4 3-2.1 4.7-1.9 1.8.2 3.5-.5 5-2 2.4-2.3 4.2-2.9 4.2-1.3m2.6 3.6c.9 2.1-.4 6.5-1.8 6.5-.9 0-.9-.3 0-1.2.7-.7 1.2-2.3 1.2-3.8 0-2-.2-2.2-1-1-.8 1.3-1 1.2-1-.3 0-2.1 1.8-2.3 2.6-.2m-28.1 1.4c.3.5.1 1.2-.5 1.6-.5.3-1-.1-1-.9 0-1.8.6-2.1 1.5-.7m19 3.1c2.2 2.4 1.3 9.5-1 8.6-.8-.3-1.9.3-2.4 1.2-1 1.6-1 1.6-1.1 0 0-.9-.7-1.8-1.6-2-1.3-.2-1.1-.8 1.1-3.1 2.8-2.8 2.8-5 0-2.7-2 1.7-1.9.1.2-2.2 2-2.3 2.6-2.3 4.8.2m4.5 1.2c0 2.5-.3 2.9-1 1.8-1.3-2-1.3-5 0-5 .6 0 1 1.5 1 3.2m-19.6 1.6c-.6.4-1.4 1.7-1.8 2.9-.4 1.3-1.3 2.3-2.1 2.3-.7 0-1.6.6-1.8 1.2-.4 1-.6 1-.6.1-.1-.7.8-1.8 1.9-2.5 1.4-.9 2-2.4 2-4.8 0-3.3.1-3.3 1.8-1.7 1.2 1.2 1.4 2 .6 2.5m4.7 6.3c1.8 1.8 1.9 2.3.6 4.2-1.8 2.8-3.7 3.3-3.7 1 0-1.1-.5-2.4-1.1-3-1.3-1.3-.5-4.3 1.1-4.3.5 0 1.9.9 3.1 2.1m18.9-.9c0 2-3.9 11.8-5.3 13.2-1 1.1-1.4 1-2.5-.3-1.1-1.4-1.2-1.2-1 1.3.2 1.6-.2 3.1-.8 3.3-1.7.6-2.7-4.6-1.3-6.3.9-1.1.9-1.7 0-2.8s-.9-1.9.1-3.5c1.6-2.6 4.8-3.7 5.8-2 .9 1.3.2 4-.8 3.6-.4-.1-.8.1-.9.5-.2.5-.1.8.2.8h2.1c1.4 0 1.5-.7 1-3.9-.4-2.7-.2-4.1.7-4.4 2.1-.9 2.7-.8 2.7.5m-26 5.8c0 .5-.4 1-1 1-.5 0-1-.5-1-1 0-.6.5-1 1-1 .6 0 1 .4 1 1m-4.6 6.8c-.6 5.8-1.5 7.4-2.9 5.2-.3-.5-.1-1.7.4-2.7.6-1 1.3-3.5 1.6-5.7 1-5.9 1.6-3.6.9 3.2m6.6-3.1c-.1 1.4-3.8 5.8-4.4 5.2-.9-.9 1.8-5.9 3.2-5.9.6 0 1.2.3 1.2.7m9.8 3.4c1.6 3.1 1.8 4.6 1 5.8-.9 1.4-5 4.5-8 5.9-.5.2-.8-1.4-.9-3.5 0-2.1-.4-4.7-.8-5.8-.9-2.2.4-4.5 2.4-4.5.7 0 2 1.8 2.9 4.1.9 2.2 2.1 3.7 2.6 3.4.9-.6.1-3.5-2-7.6-.6-1.1-.7-1.9-.1-1.9.5 0 1.8 1.9 2.9 4.1m255.2-1.6c0 .8-.4 1.5-1 1.5-.5 0-1-.7-1-1.5s.5-1.5 1-1.5c.6 0 1 .7 1 1.5M353 294c0 .5-.4 1-1 1-1.5 0-1.2 1.6.5 3.4 1.7 1.7 1.9 4.4.5 6.6-.8 1.2-1 1-1-.8 0-2.8-1.7-6.2-3.1-6.2-.5 0-.2 1.1.7 2.5.9 1.3 1.4 3 1.2 3.7-.5 1.5-3.8-4.3-3.8-6.5 0-.8 1-2.2 2.3-3 2.6-1.9 3.7-2.1 3.7-.7m-19.4 4.3c-.2.7-.5.4-.5-.6-.1-.9-.6-1.7-1.2-1.7-.5 0-.7-.5-.3-1.1.9-1.5 2.8 1.6 2 3.4m-3.5 1.9c2.3 2.9 2.4 4.7.2 5.5-1 .4-2.6 1.5-3.5 2.6-2.2 2.5-2.3 1.7-.3-3.1 1-2.2 1.2-3.8.6-4-.9-.3-.4-3.2.6-3.2.3 0 1.3 1 2.4 2.2m11.9 1.4c0 .8-.5 1.2-1 .9-.6-.4-.8-1.1-.5-1.6.9-1.4 1.5-1.1 1.5.7m4-.1c0 .8-.2 1.5-.4 1.5s-.6-.7-1-1.5c-.3-.8-.1-1.5.4-1.5.6 0 1 .7 1 1.5m-3 3c-1.7 2.1-.6 3 1.3 1 2-1.9 3.7-1.9 3.7 0 0 .8-.4 1.5-1 1.5-1.8 0-1.1 2 .8 2.1 1.2 0 1.1.3-.6 1-1.3.5-2.8.6-3.3.3-.6-.3-1.7 0-2.5.7-.8.6-1.8.8-2.2.4s-.1-1 .6-1.2c.6-.3 1.2-.9 1.2-1.5s-.6-.6-1.5.2c-1.1.9-1.7.9-2.9-.2-1.9-2-.6-3.8 3.5-4.8 1.9-.4 3.6-.8 3.8-.9s-.2.6-.9 1.4m-10 4.5c1.2.8 1.1 1.3-.8 3.3-1.2 1.3-2.2 3-2.2 3.8s1.3 0 3.1-1.9c2.9-3.1 3.2-3.2 4.4-1.5 1.1 1.4 1 2-.4 3.1-1.4 1.2-1.4 1.2.6.7 2.2-.6 2.2-.6.6 3.5-1.8 4.5-4.3 5.3-6.1 1.7-1.1-2-1.1-1.9-.6 1 .3 2.1.1 3.3-.5 3.3s-1.1-.8-1.1-1.8-.7-2.7-1.5-3.9c-1.3-1.8-1.3-2.6-.3-5 .7-1.5 1.7-3.2 2.3-3.6.7-.6.6-1-.3-1.4-.6-.2-1-.9-.6-1.4.7-1.1 1.5-1.1 3.4.1m19 5.1c0 .6-.4.7-1 .4-.5-.3-1-1.1-1-1.6 0-.6.5-.7 1-.4.6.3 1 1.1 1 1.6m-3.2 4.8c-.2 3.3-.1 5.8.4 5.5.4-.3.9-1.7.9-3.2.1-1.6.3-2 .6-1 .8 2.9-1.6 9.8-3.2 9.2-1.5-.6-4.1-7.2-3.1-8.1.3-.4 0-1.3-.7-2.1-.7-1-.8-1.3-.1-.9s1.4-.5 1.8-2.3c.3-1.9 1.2-3 2.2-3 1.4 0 1.6.9 1.2 5.9m-23.8 1.3c0 .5-.9 1.8-2 3-1.9 2.1-2 2.1-2 .2 0-1 .3-2.9.6-4.2.5-1.8.9-2 2-1.1.8.6 1.4 1.6 1.4 2.1m18 2.4c0 .8-.4 1.2-1 .9-.5-.3-1-1-1-1.6 0-.5.5-.9 1-.9.6 0 1 .7 1 1.6m-.7 4.3c2.1 3.7 2.2 5.7.1 6.5-2.5.9-3-.2-.9-1.8 1-.7 1.4-1.6.8-1.9-.5-.3-1.8.8-2.8 2.6-3.6 6.2-5.7 7-6.8 2.7-.3-1.2.2-2.8 1.2-3.8.9-.9 2.3-2.9 3-4.5 1.8-3.5 3.2-3.4 5.4.2m-15.6-.2c1.4 1.7 1.4 1.7.9 0q-.6-1.8.6-1.5c.7.3 1.3 1.3 1.3 2.4 0 2.7-3.6 2.4-4.6-.4-1-2.6-.2-2.9 1.8-.5m-3.1 2.9c-.3.9-.6 2.1-.6 2.9 0 .7-.9 1.5-2 1.8-1.3.3-2 0-2-.9 0-.8.5-1.4 1-1.4.6 0 1-.9 1-2 0-1.2.7-2 1.6-2 1.1 0 1.4.5 1 1.6m7.3 7.4c.1 1.3 0 1.3-.9 0-.5-.8-.9-2.4-.9-3.5v-2l.9 2c.5 1.1.9 2.7.9 3.5m15.2 5.8c-.8 1.2-1 0-1-4.8l.1-6.5.9 4.8c.6 3.1.6 5.4 0 6.5m3.9-6.9c0 1.1-.4 2.3-1 2.6-.6.4-1-.5-1-1.9s.5-2.6 1-2.6c.6 0 1 .9 1 1.9m-21.6.7c1.8 4.6.9 6-5.6 9.2-.5.2-.8-.4-.8-1.3s.5-1.3 1.1-1c.7.5.8-.5.4-2.9-.5-2.3-.3-3.6.3-3.6s1.2.6 1.5 1.2c.2.7.2.3 0-1-.4-2.6 2.1-3.1 3.1-.6M487 336c0 .5-.5 1-1.1 1-.5 0-.7-.5-.4-1 .3-.6.8-1 1.1-1 .2 0 .4.4.4 1m-143.7 3.3c.8 5.1-.3 8.7-3 10-1.9.9-2.6.8-3.3-.4-.7-1-.5-1.5.8-1.7.9-.2 2.2-.9 2.7-1.4.7-.7.3-.8-1.2-.4-4.1 1.1-6.8 1.6-5.5 1 .6-.3 1-.9.7-1.4-.3-.4.2-1.3 1-2s1.5-1.8 1.5-2.5.9-1.5 2.1-1.8 1.8-1 1.4-1.6c-.3-.6 0-1.1.8-1.1s1.7 1.4 2 3.3M332 346c0 .5-.4 1-1 1-.5 0-1 .4-1 1 0 .5.5 1 1.1 1s1.7.7 2.5 1.5c1.9 1.9.8 4.1-4.2 8.4-3.7 3.3-6 3.5-3.1.4 1-1.2 1.3-2.8 1-4.6-.3-1.7.1-4.1 1.3-6.3 1.8-3.3 3.4-4.4 3.4-2.4m15.7 2.2c-.3.8-.6.5-.6-.6-.1-1.1.2-1.7.5-1.3.3.3.4 1.2.1 1.9m-29.8 1.4c-1.5 1.8-2.2 1.3-1.3-1 .3-.9 1-1.3 1.6-1 .5.3.4 1.2-.3 2m28.1.7c0 .8-1.1 2-2.5 2.7-1.8 1-2.2 1.6-1.3 2.1 1 .6.9 1.1-.5 2.1-1.5 1.1-1.6 1.8-.7 4.2 1.6 4.3.4 4.3-1.6.1-1.4-2.9-1.5-3.8-.4-4.5.7-.4 1-1.2.6-1.8s.6-2.2 2.1-3.6c3.1-2.9 4.3-3.2 4.3-1.3m-21 6.9c0 .5-.4.8-1 .8-.5 0-1-1-1-2.3 0-1.8.2-1.9 1-.7.5.8 1 1.8 1 2.2m-5-.2c0 .5-.7.7-1.7.3-1.4-.5-1.5-.1-.9 2.8.6 3 .5 3.2-.8 1.9-2-2-1-6 1.5-6 1.1 0 1.9.4 1.9 1m17.4 5c2 4.9 2 6 .3 6-.8 0-2.2.9-3.2 2s-2.2 2-2.6 2c-1.6 0-2.2-5-.8-6.7 1.2-1.4 1.1-1.5-1-.8-2.6.8-2.3-.3 1.2-4.3 2.9-3.2 4.3-2.8 6.1 1.8m-15.4-1.5c0 .8-.4 1.5-1 1.5-.5 0-.7-.7-.4-1.5.4-.8.8-1.5 1-1.5s.4.7.4 1.5m22-.5c0 .5-.4 1-1 1-.5 0-1-.5-1-1 0-.6.5-1 1-1 .6 0 1 .4 1 1m-29 6.4c0 1.3-.7 2.6-1.5 3-1.6.6-2-1-.9-3.8.9-2.4 2.4-1.9 2.4.8m5.6.4c-1.7 1.6-1.8 1.6-.5-.5.7-1.2 1.5-2 1.8-1.7.3.2-.3 1.2-1.3 2.2m24.7 0c-.6 2.4-2.3 3-2.3.9 0-1.3 2.1-3.9 2.6-3.4.2.2.1 1.3-.3 2.5m96.4 4c-1.4 1.7-2.2 0-1.2-2.6.5-1.4.7-1.4 1.5-.2.5.9.4 2-.3 2.8m-117.7-.9c-.6 1.2-.6 2.2-.1 2.6.5.3 1.3-.4 1.6-1.5.9-2.8 2.6-2.1 3.8 1.4.8 2.4.6 3.2-1.6 5.2-3.1 2.8-3.7 3-3.7.9 0-.9-.7-2.9-1.5-4.6-1.3-2.4-1.3-3.2-.3-4.4 1.9-2.1 3-1.8 1.8.4m16.4.3c.6.7 1.2 3.3 1.2 5.8.1 2.5-.1 3.9-.3 3.2-.4-1-.9-.8-1.9.5-1.8 2.4-1.8 3.6.1 2.9s1.9.8 0 2.4c-1.2 1-1.7.8-2.6-1.3-.9-2-.8-3 .7-5.3 1.7-2.6 1.7-2.8.1-1.5-1.8 1.4-2.1 1.2-1.1-1.3.3-.9 1.2-1.6 2-1.6s1.4-.7 1.4-1.5c0-2.2-1.3-1.8-4 1-1.3 1.4-2.5 2.3-2.8 2-.4-.3 4.8-6.3 5.6-6.5.2 0 .9.6 1.6 1.2m-25.7 5.6c.6.4 1.6 1.9 2.2 3.4.9 2.4.6 3.1-2.4 6.3-1.9 1.9-4.1 3.5-4.9 3.5-2.4 0-3.1-2.2-1.1-3.6 1.2-.9 1.6-2.1 1.2-4-.3-1.6.1-3.3 1.2-4.4 1.9-2.1 2.2-2.2 3.8-1.2m7.8 3.2c.3.5.1 1-.4 1-.6 0-1.1-.5-1.1-1 0-.6.2-1 .4-1 .3 0 .8.4 1.1 1m12 4.2c1.7 3.2 1.8 3.9.5 6.5-.8 1.5-1.6 3.1-1.8 3.5-.7 1.6 2.1.7 3.4-1 1.3-1.6 1.3-1.6 1.4.1 0 2.1-2.7 7.7-3.8 7.7-.4 0-1.3-1.8-2-4-1-3.4-1-4.5.3-7.1 1.4-2.6 1.4-3.1.1-4.4s-1.6-1.3-3 0c-.8.8-1.9 1.5-2.5 1.5-.7 0-.9 1.1-.5 2.7l.6 2.8-2.1-2.5c-1.6-2-1.7-2.6-.6-2.8.8-.2 1.5-.8 1.5-1.5 0-1.6 4.2-5.8 5.4-5.4.6.2 2 1.9 3.1 3.9m-11.7 4.5c.6 1.5 1.2 3.4 1.2 4.3 0 1.9-2.9 6.1-3 4.2 0-1.9-1.4-1.4-2.5 1-1.5 3.3-2.8 3.1-4.8-.8l-1.7-3.5 3.7-4.3c4.1-4.8 5.2-4.9 7.1-.9m7.9 0c-1.5 1.6-1.7 1.6-1.7.1 0-.9.6-1.8 1.3-2.1 2-.7 2.2.2.4 2m-25.4 8.9c-1 1.9-1.9 3.1-2.1 2.5-.3-.9 2.6-6.1 3.4-6.1.2 0-.4 1.6-1.3 3.6m24.1-2c.3.9.6 2.3.6 3.2 0 1.3-.3 1.2-1.5-.4-1.6-2.1-1.9-4.4-.6-4.4.5 0 1.2.7 1.5 1.6m-17.4 5.2c0 3.4-1.4 6.2-2.9 6.2-.4 0-.6-2.3-.6-5 0-4.1.3-5 1.7-5s1.8.8 1.8 3.8m15.5.3c.4.5.4 2.2 0 3.7l-.8 2.7-.7-2.5-.8-2.5-.2 2.5c-.1 2.5-.1 2.5-1.2.3-.6-1.2-.8-2.9-.5-3.7.7-1.8 3.3-2.1 4.2-.5m-4.9 6.6c.4 1.4-.1 3-1.5 4.4-1.7 1.8-2.1 1.9-2.1.7 0-.9.6-1.8 1.3-2.1 1-.3 1-.9 0-2.6-.7-1.1-1.3-3.1-1.3-4.3.1-2.3.1-2.3 1.6-.3.8 1.1 1.7 3 2 4.2m10.4-1.8c0 .8-.3 1.1-.7.8-.3-.4-1.2-.2-2 .4-.9.9-1.3.8-1.3 0 0-.6.5-1.1 1-1.1.6 0 1-1 1-2.3 0-1.8.2-1.9 1-.7.5.8 1 2.1 1 2.9m-26.6-.7c1.1 4.4.6 5.3-1.4 2-2.4-3.9-2.4-4.2-.6-4.2.7 0 1.6 1 2 2.2m5.6 3.2c0 .3-.4.8-1 1.1-.5.3-1 .1-1-.4 0-.6.5-1.1 1-1.1.6 0 1 .2 1 .4m4.8 4.3c.2 2.7-.2 4.4-1.3 5.3-1.3 1.1-1.5.9-1.6-1.1-.1-1.3-.1-3.1 0-3.9s-.9-.2-2.3 1.5c-3.3 3.9-3.3 2 0-2.8 3.1-4.7 4.8-4.3 5.2 1m11.1-.5c.1-2 1.8-1.3 2.5 1 .7 2.5-2.2 12.8-3.5 12.8s-1.1-2.4.2-3.7c.6-.6.9-2.3.6-3.9-.4-2.9-.4-2.8-.6.3-.1 3.9-2.1 4.5-2.1.7 0-1.4-.4-2.3-.9-2-1 .7-2.5-2.4-1.6-3.3.3-.3 1.1.1 1.6.9.9 1.2 1 1.1.5-.4-.4-1-.1-2.5.6-3.3 1-1.3 1.3-1.2 1.9.4.4 1 .8 1.2.8.5m-26.9 4.3c0 .8-.4 1.5-1 1.5-.5 0-1-.7-1-1.5s.5-1.5 1-1.5c.6 0 1 .7 1 1.5m8 5.6c0 1-.5 2.1-1.1 2.5-1.3.8-4.6-2.2-3.6-3.3.4-.3 1.4.2 2.2 1.3 1.2 1.6 1.4 1.6 1.5.3 0-.9-.7-2.2-1.5-2.9s-1.2-1.7-.8-2.3c.8-1.3 3.3 2 3.3 4.4m3.4-3.6c-.6 1.6-2.4 2.1-2.4.7 0-1.1 1.1-2.2 2.1-2.2.5 0 .6.7.3 1.5m9.5 2.8c2.3 4.7 2.6 6.7 1.1 6.7-.5 0-.7.7-.3 1.6.4 1.2.2 1.5-.8 1.2-.9-.3-1.3-1.7-1.2-3.9.3-3 .1-3.2-.9-1.4-.6 1.1-1.3 2.2-1.5 2.4-.2.3-1.6-.9-3.2-2.6-3.3-3.7-2.9-5.4.6-2.1 2.3 2.2 3.1 1.5 1.3-1.2-.6-1-.4-2 .7-3.2.9-1 1.7-1.8 1.9-1.8.1 0 1.2 1.9 2.3 4.3m-24.4 1.4c-.5 1-1.4 3.8-2.1 6.3l-1.3 4.5v-3.7c-.1-4 1.6-8.8 3.2-8.8.5 0 .6.8.2 1.7m5.5 2.4c0 4.6-4 7.9-5.4 4.4-.4-1.1.2-1.5 2-1.5 2.2 0 2.3-.2 1.4-2-1.2-2.2-.5-4.4 1.1-3.5.5.4.9 1.5.9 2.6m12.5 2.9c.4 1.1 1.2 1.7 2.1 1.3.8-.3 1.4.1 1.4 1.1 0 .9-.4 1.6-.8 1.6-.5 0-2.2 1.3-3.8 3-1.6 1.6-3.5 3-4.1 3-1.9 0-1.6 2.7.3 3.4s3.4-.1 3.4-1.8c0-1.4 4.9-6 5.6-5.3.6.6-5.5 9.7-6.4 9.7-2.2 0-9.5-6.7-8.7-7.9.2-.5-.2-1.1-1-1.5-2-.7-.8-3.6 1.5-3.6 1.1 0 2.2 1.2 2.9 3.2 1.7 4.8 2.2 2.8.6-2.5-1.2-4.2-1.2-4.7.1-4.7.8 0 1.2.4.9 1-.3.5-.1 1 .6 1 .6 0 1.8.8 2.6 1.7 1.4 1.7 1.4 1.7.8-.2-1.8-5-1.8-5.5-.2-4.9.9.3 1.9 1.4 2.2 2.4m9.9 6.2c-.9 3-1 3.2-2.9 2.5-1.9-.8-2-2.7 0-2.7.8 0 1.5-.5 1.5-1 0-.6.5-1 1.1-1s.8.9.3 2.2M299 435c0 .5-.4 1-1 1-.5 0-1-.5-1-1 0-.6.5-1 1-1 .6 0 1 .4 1 1m20.6 7.7c-1.3 1.4-2.5-.9-1.3-2.8 1.2-2 1.2-2 1.5.1.2 1.2.1 2.4-.2 2.7m-13.1.3c-1 1.1-2.2 1.7-2.6 1.4-1.2-.7 1.2-3.3 3-3.4 1.1 0 1 .5-.4 2m16.5 2c0 .5-.4 1-1 1-.5 0-1-.5-1-1 0-.6.5-1 1-1 .6 0 1 .4 1 1m-11.4 1.5c2.1 2.1-.1 5.2-4.3 6-3.8.7-4 1.1-1.6 3.7 1.6 1.8 1.3 3.5-.5 2.4-1.9-1.2-2.4-5.8-.7-7.5.8-1 1.2-2.1.8-2.5-.8-.8 2.3-3.6 4-3.6.4 0 1.5.7 2.3 1.5m6.2 1.6c.2 2.3.2 2.3-1.3.5-1.8-2.4-2-3.9-.2-3.4.6.3 1.3 1.5 1.5 2.9m-22.1.1c-.3.8-.6.5-.6-.6-.1-1.1.2-1.7.5-1.3.3.3.4 1.2.1 1.9m-2.7.4c0 .8-.4 1.2-1 .9-.5-.3-1-1-1-1.6 0-.5.5-.9 1-.9.6 0 1 .7 1 1.6m21.4 3.8c-.6 1.6-3.4 2.9-4.3 2-.6-.6 2.7-3.4 4.1-3.4.4 0 .5.6.2 1.4m6.3 2.3c-.3 1-.5.4-.5-1.2 0-1.7.2-2.4.5-1.8.2.7.2 2.1 0 3m-2.4.3c.3 1.1.1 3.3-.3 4.8-.5 1.5-.9 2-.9 1.1-.1-.9-.4-3.1-.7-4.8-.7-3.4 1-4.4 1.9-1.1m-9.8 0c-.3.5-1.1 1-1.6 1-.6 0-.7-.5-.4-1 .3-.6 1.1-1 1.6-1 .6 0 .7.4.4 1m-11.5 1.6c0 .8-.5 1.2-1 .9-.6-.4-.8-1.1-.5-1.6.9-1.4 1.5-1.1 1.5.7m4.8 2.3c.4 2.7-2.7 5.6-4.3 3.9q-1.05-1.05.3-1.5c.6-.3 1.2-1.6 1.2-3 0-3.1 2.4-2.6 2.8.6m13.4 2c-.1 2 .2 3 .8 2.6 1.2-.7 1.3.5.1 2.3-.9 1.6-6 .6-6.2-1.2-.3-2.3.3-4.2 1.9-5.9 2.2-2.5 3.7-1.5 3.4 2.2m-24.2-.3c0 .8-.4 1.2-1 .9-.5-.3-1-1.3-1-2.1s.5-1.2 1-.9c.6.3 1 1.3 1 2.1m10.4 5.1c-4.6 3.6-6.2 2.7-1.8-1.1 2.1-1.9 4.1-2.9 4.3-2.3s-.9 2.1-2.5 3.4m5.8-1.5c-.9.9-1.2.7-1.2-1.2s.3-2.1 1.2-1.2.9 1.5 0 2.4m-17.5 1c-.3.8-.6.5-.6-.6-.1-1.1.2-1.7.5-1.3.3.3.4 1.2.1 1.9m16.4 2.9c.6 1.2.7 1.9.1 1.6-.5-.4-1.4.5-2 1.8-1.3 2.7-3.2 3.4-3.2 1 0-.9-.6-1.2-1.7-.8-1 .4-.4-.8 1.4-2.5 1.8-1.8 3.5-3.2 3.8-3.2.2 0 .9 1 1.6 2.1m-235.4 2.1c-.3.8-.6.5-.6-.6-.1-1.1.2-1.7.5-1.3.3.3.4 1.2.1 1.9m245.8 1.9c.4 1.7.5 3.1.3 3.2-.1.1-1.8 1-3.5 2-1.8 1-3.3 1.4-3.3.8s.9-1.5 2.1-2.1c1.6-.9 1.9-1.7 1.4-4.1-.5-2.2-.3-2.9.8-2.9.9 0 1.8 1.3 2.2 3.1m-9.8 2.3c-.2 2.9-.5 3.3-1.9 2.5-1.7-.9-1.7-1.1-.2-3.4 2.1-3.2 2.3-3.2 2.1.9m4.3-1.8c0 .8-.4 1.2-1 .9-.5-.3-1-1-1-1.6 0-.5.5-.9 1-.9.6 0 1 .7 1 1.6m9 .6c0 1.9-.2 2-1 .8-1.3-1.9-1.3-3 0-3 .6 0 1 1 1 2.2m-33.4 4.6c-1.2 1.1-1.8-.7-1-3l.8-2.3.4 2.3c.2 1.3.1 2.6-.2 3m9.9-.8c-.3.5-1.1 1-1.6 1-.6 0-.7-.5-.4-1 .3-.6 1.1-1 1.6-1 .6 0 .7.4.4 1m22.5 3.7c-1.1 1.7-1.1 1.7-.6 0 .3-1 .6-2.4.7-3 0-.9.2-.9.5 0 .3.7 0 2-.6 3m-3.8.5c-.9.9-1.2.7-1.2-1.2s.3-2.1 1.2-1.2.9 1.5 0 2.4M300 480c0 .5-.7.7-1.5.4-.8-.4-1.5-.8-1.5-1s.7-.4 1.5-.4 1.5.4 1.5 1m-6.1 1.6c.2.2-.7.4-2.2.4-1.4 0-2.9-.5-3.2-1-.6-1 4.2-.4 5.4.6m4.1 2.9c0 .8-.4 1.5-.9 1.5s-1.1-.7-1.5-1.5c-.3-.9 0-1.5.9-1.5.8 0 1.5.7 1.5 1.5m4-.5c0 .5-.2 1-.4 1-.3 0-.8-.5-1.1-1-.3-.6-.1-1 .4-1 .6 0 1.1.4 1.1 1m15.8 4.5c.2.9-.1 2.2-.7 2.8-.8.8-1.1.5-1.1-1 0-1.2-.9-2.8-2-3.6s-1.7-1.7-1.3-2c1-1 4.7 1.8 5.1 3.8m-29.3-2.5c.3.6-.1.7-.9.4-1.8-.7-2.1-1.4-.7-1.4.6 0 1.3.4 1.6 1m22.5.3c.8.7 2.1 2 2.9 2.9 1.2 1.6 1.1 1.8-.2 1.8-.9 0-1.9-.9-2.2-2-.4-1.3-1.5-2-3.1-2-1.3 0-2.4-.5-2.4-1 0-1.4 3.2-1.2 5 .3m13.4 2.7c2.7 2.7 2.7 3 1.1 4.6-2.1 2.1-5 .8-5-2.4 0-1.1-.3-2.4-.7-2.8-1.2-1.1-.9-2.4.5-2.4.6 0 2.5 1.4 4.1 3m-42 .5c-.4.8-.8 1.5-1 1.5s-.4-.7-.4-1.5.4-1.5 1-1.5c.5 0 .7.7.4 1.5m27.1-.5c.3.5-.3 1-1.4 1-1.2 0-2.1-.5-2.1-1 0-.6.6-1 1.4-1s1.8.4 2.1 1m-11.5.9 2.5.7-3.2 1.7c-2.9 1.5-3.3 1.6-3.3.2 0-1.2-.3-1.3-1.9-.4-1 .7-2.6.9-3.6.5-1.4-.5-1.5-.9-.5-2.1 1.3-1.6 5.7-1.8 10-.6m14.2 3.3c2.3 1.9 3.3 5.8 1.5 5.8-.8 0-1.7-.7-2.1-1.5-.3-.9-1.2-1.2-2.2-.8-1.3.5-1.5.2-.9-1.6.6-2.1.5-2.1-1.4-.9-1.8 1.1-2.3 1.1-3-.1-.7-1-1.3-1.1-3.1-.1-2.3 1.3-3.6.8-2.5-.9.9-1.5 11.8-1.4 13.7.1m-31.2 3.4c0 .3-.7 1.2-1.5 2-1.2 1.3-1.5 1.3-1.5.1 0-.7.3-1.7.7-2 .8-.8 2.3-.9 2.3-.1m9.2 3.6c-1.8 1.9-2.2 2-2.2.6 0-.9.8-2.1 1.7-2.7 2.7-1.5 2.9-.3.5 2.1m36.1 0c1.9 2.3 2.3 6.3.6 7.4-1.4.9-2.7-1.1-2.4-3.9.1-1.4.1-1.5-.2-.4-.3 1.3-1 1.6-2.6 1.1-1.2-.3-2.3-.7-2.3-.8-.1 0 .1-1.6.3-3.4.5-2.8.9-3.2 2.7-2.6 1.1.3 2.9 1.5 3.9 2.6m-29.7.8c.8 0 1.1.6.8 1.5-1 2.6-3.4 1.7-3.3-1.3 0-1.5.3-2.1.6-1.5.2.7 1.1 1.3 1.9 1.3m3.3 4.1c-1.9 1.2-2.4.2-.8-1.7.9-1.1 1.4-1.3 1.7-.4.3.7-.2 1.6-.9 2.1m6.2-2.1c.5 0 .9.8.9 1.7q0 1.8-2.4 1.8c-1.8 0-2.3-.5-2.2-2.3.1-1.4.6-2 1.4-1.7s1.8.5 2.3.5m6.7 2.8c1.4.9.6 4.2-1 4.2-.5 0-.7-.4-.3-.9.3-.5.1-1.2-.5-1.6-.5-.3-1 .1-1 1s-.4 1.3-1 1c-.5-.3-1-1.5-1-2.6 0-2 2.4-2.5 4.8-1.1m-16.4 1.5c3.8 1 4.5 1.5 3.5 2.4-1.6 1.3-11.2-1.4-10.3-2.8.7-1.1.9-1.1 6.8.4m9.7 2.7c.5 0 .9.7.9 1.5s.9 1.5 2 1.5c1.2 0 2 .7 2 1.6s-.5 1.3-1.2 1-2.1-.9-3-1.2c-1-.4-1.8-1.3-1.8-2 0-.8-.4-1.4-1-1.4-.5 0-1 .5-1 1.2 0 .9-.3.9-1.1.1-1.5-1.5-.1-3.6 1.8-2.9.8.3 1.9.6 2.4.6m14.6 10.1c-.1 3.1-.6 4.9-1.4 4.9-1.6 0-1.7 1.2-.1 2.8.9.9.9 1.7-.1 3.6-1 1.7-1 2.9-.2 4.4 1.3 2.5 1.4 6.2.2 6.2-3.5 0-3.9-1.1-3.5-10.2.3-4.9.9-9.8 1.4-10.9.6-1 .8-3.8.4-6.1l-.5-4.3 2 2.3c1.5 1.8 2 3.5 1.8 7.3m-34.7-7.2c0 .6-.4 1.3-1 1.6-.5.3-1-.1-1-.9 0-.9.5-1.6 1-1.6.6 0 1 .4 1 .9m2.4 2.5c-.3.9-1 1.3-1.6 1-.5-.3-.4-1.2.3-2 1.5-1.8 2.2-1.3 1.3 1m9.4-.4c-.5 2.4-3.8 2.5-3.8.1 0-1.4.6-1.9 2-1.8 1.3.1 1.9.7 1.8 1.7m-5.8-.1c0 .6-.4 1.3-1 1.6-.5.3-1-.1-1-.9 0-.9.5-1.6 1-1.6.6 0 1 .4 1 .9m11 1.1c0 .5.9 1 2 1 2.4 0 2.6 1.3.5 3-1 .9-1.5.9-1.5.1 0-.6-1.1-1.1-2.5-1.1-2.7 0-2.8-.1-1.9-2.4.7-1.7 3.4-2.2 3.4-.6m12.6 3.7c-1.1 1.1-1.9-.6-1.1-2.4.8-1.7.8-1.7 1.2 0 .3 1 .2 2.1-.1 2.4m-34.6.3c0 .5-.5 1-1.1 1-.5 0-.7-.5-.4-1 .3-.6.8-1 1.1-1 .2 0 .4.4.4 1m4 2c0 .5-.4 1-1 1-.5 0-1-.5-1-1 0-.6.5-1 1-1 .6 0 1 .4 1 1m7.3.4c.4.9-.2 1.3-1.9 1.3-1.4 0-2.4-.5-2.4-1.3s.9-1.4 1.9-1.4 2.1.6 2.4 1.4m4.1.2c.9 2.2.8 2.4-.9 2.4-.8 0-1.5-.9-1.5-2 0-2.4 1.5-2.7 2.4-.4m6.6 2.4c2.7-1.5 3-1.3 3 2 0 1.6-.3 3-.7 3-1.5 0-7.3-5.6-6.6-6.3.4-.4 1.1-.1 1.5.8.7 1.1 1.4 1.3 2.8.5m11-1c0 .5-.4 1-1 1-.5 0-1-.5-1-1 0-.6.5-1 1-1 .6 0 1 .4 1 1m276.5 1c-.3.5-1.3 1-2.1 1s-1.2-.5-.9-1c.3-.6 1.3-1 2.1-1s1.2.4.9 1M277 528.1c0 .5-.7.9-1.5.9s-1.5-.7-1.5-1.5c0-.9.6-1.2 1.5-.9.8.4 1.5 1 1.5 1.5m32.1 1.6c-1 1.7-1 1.6-1.1-.3 0-2.3 1.3-4.1 1.8-2.5.2.6-.1 1.8-.7 2.8m-13.8-.9c1.8 2 1.4 3.3-.9 2.6-4.7-1.4-4.7-1.4-3.4-2.9 1.6-1.9 2.3-1.9 4.3.3m-11.3.2c0 .5-.4 1-1 1-.5 0-1-.5-1-1 0-.6.5-1 1-1 .6 0 1 .4 1 1m4.5 0c.3.5.2 1-.4 1-.5 0-1.3-.5-1.6-1-.3-.6-.2-1 .4-1 .5 0 1.3.4 1.6 1m14.1 2.9c2.1 1.6 2.2 2 .9 3.1-1.2 1-1.5 1-1.5-.2 0-1-.9-1.4-3.2-1.2-1.8.2-2.5.1-1.5-.2 1.1-.3 1.6-1.2 1.3-2-.8-2 1.1-1.7 4 .5m-21.5 1.9c1.2.5 1.4 1.3.8 2.7-.8 2-.8 1.9-1.4-.2-.4-1.3-1.2-2-2.1-1.6-.8.3-1.4 0-1.4-.6 0-1.2 1.6-1.3 4.1-.3m-8.4 3.4c-.3.8-.6.5-.6-.6-.1-1.1.2-1.7.5-1.3.3.3.4 1.2.1 1.9m16.3-.7c0 1.6-.9 1.9-3.4.9-2.5-.9-1.9-2.4.9-2.4 1.6 0 2.5.6 2.5 1.5m3.4 1.8c-.3.9-1.1 1.7-1.6 1.7-.6 0-.7-.7-.4-1.6s.6-2.1.6-2.7c0-.8.3-.8 1-.1.6.6.8 1.8.4 2.7m4-.7c2.3.9 2 2.4-.4 2.4-1.1 0-2-.7-2-1.5 0-1.7.2-1.8 2.4-.9m6 3.1c.8 2 .3 2.5-1.8 1.7-.9-.3-1.6-1.5-1.6-2.5 0-2.2 2.5-1.6 3.4.8m-28.3 1.9c1.6 1.8 2 2.8 1.2 3.1-.7.3-1.3 2-1.3 3.9s-.4 3.4-.9 3.4c-.4 0-1.1 1.9-1.4 4.1-.3 2.3-1 4.6-1.6 5.2-1.4 1.4-.8-8.6.8-12.6 1.4-3.6 1.4-7.7 0-7.7-.5 0-.9 1-.7 2.2.2 1.5-.2 2.2-1 2-2-.4-5.2 1.7-5.2 3.5 0 1.4.2 1.4 2-.2 1.1-1 2.3-1.5 2.7-1.1s-.3 1.6-1.7 2.6c-2 1.5-2.2 2-1.1 3.4.9 1.1 1 1.6.2 1.6-.6 0-1.1-.5-1.1-1.1 0-.5-.5-.7-1-.4-.6.4-1 1.2-.9 1.8.3 2.7-.2 4.7-1.2 4.7-.6 0-.9-.7-.5-1.5.3-.9 0-1.5-.8-1.5s-1.6.7-2 1.5c-.3.8-1 1.5-1.6 1.5s-.8-.5-.5-1c1.4-2.3-1.6-.8-3.1 1.5-2 3.1-5.7 5.4-4.8 3 .9-2.3-1.2-1.8-3.3.7-2.2 2.7-12.3 11.2-12.3 10.3 0-1 2.5-4.8 4.5-7.1 2.7-2.8 11.2-8.5 12.3-8.2.5.2 2.1-.9 3.5-2.5 1.5-1.5 3.7-2.7 5.1-2.7s2.8-.5 3.1-1c.3-.6.1-1-.5-1-1.6 0-.1-5.1 2.2-7.7 1.1-1.2 2.7-1.9 3.5-1.6.9.4 1.6-.2 2-1.6.7-2.8 2.4-2.7 5.4.5m8.9 3.5c0 1.5-.4 1.9-1.6 1.5-1.2-.5-1.5-.2-.9 1.1 1.7 4.3 1.8 5.3.1 4.7-.9-.3-1.6-1.1-1.6-1.7s-.3-.8-.6-.5c-.3.4.1 1.9.9 3.5 1.6 3.1 1.2 5.3-.8 5.3-1.8 0-1.5-8.3.5-12.8 1.7-3.6 4-4.3 4-1.1m3.7 1.6c.2.6-.3 1.3-1.2 1.6-1 .5-1.5 0-1.5-1.4 0-2.1 2.1-2.2 2.7-.2m10.3.4c0 1.8-2 1.8-2.9 0-.9-1.6-.8-1.8.9-1.4 1.1.3 2 .9 2 1.4m-2.7 4c.4 1.6.3 1.8-.9.8-.7-.6-1.1-1.5-.8-2 .8-1.3 1.1-1.1 1.7 1.2m7.9 1.7c1.2 2 1.5 3.7.9 5.8l-.7 2.9-1.7-2.6c-.9-1.4-2-3.9-2.3-5.7-.8-4.2 1.5-4.4 3.8-.4m-10.3 10.5c-.7 1.5-1.9 3.3-2.8 4s-2.7 2.8-3.9 4.9c-2.5 4-5.2 5.7-5.2 3.2 0-.8-.5-1.2-1-.9-.6.4-.7 1.3-.1 2.3.6 1.1.5 2.3-.4 3.5-1.1 1.6-1.3 1.5-1.7-1.4-.5-3.3 1-8.9 2.4-8.9.4 0 .8.8.8 1.7.1 1.7.1 1.7 1.1 0 .6-.9 1.5-1.4 2.1-1.1.7.4.8.2.4-.4-.4-.7.6-1.8 2.5-2.7 3.6-1.9 3.3-3-.5-1.6-3.2 1.3-3.7-.7-.6-2.7 1.1-.7 2-1.9 2-2.7 0-2.4 2-1.7 2.1.7.1 2.1.2 2.1.6.3.2-1.1.6-3.1 1-4.5l.6-2.5.8 3c.6 1.9.5 4-.2 5.8M267 562c-1 3.6-.5 7 1 7 .5 0 .9.8.8 1.7 0 1 .4 3.8.9 6.3.8 4.4-.4 9.9-3.4 15.5-.6 1.1-1.6 3.7-2.3 5.8-.6 2.1-1.4 3.6-1.7 3.3s-.1-1.8.5-3.3 2.2-5.8 3.6-9.4c3-7.9 2.8-12.9-1.1-20.7l-2.6-5.2 2.3-2.5c2.9-3.1 3.2-2.8 2 1.5m29-3c0 .5-.4 1-1 1-.5 0-1-.5-1-1 0-.6.5-1 1-1 .6 0 1 .4 1 1m5.6 10.4c.3 7.2-.5 8.4-2.4 3.3-1.5-4.3-1.5-4.8.3-4.1 1.7.7 2.1-1.1.5-2.1-.5-.3-1-1.8-1-3.3 0-1.9.3-2.3 1.1-1.5.7.7 1.3 4.1 1.5 7.7m5.4-6.9c0 .8.5 1.5 1 1.5.6 0 1 .8 1 1.7 0 1.5-.2 1.6-1 .3-.7-1.1-1-.7-1 1.7 0 1.8.5 3.3 1 3.3.6 0 1-.8 1-1.8.1-1.6.1-1.6 1 0 1 1.6.4 4.8-.9 4.8-.4 0-.5 1.7-.3 3.7.2 2.9.1 3.4-.7 2.3-1.2-1.7-1.2-1.7-1.5 3.5-.2 4.9-3.5 12.2-5.7 12.8-.9.3-1.9 2-2.3 4.2-.5 2.6-1.1 3.5-2.2 3.1s-1.4.5-1.4 4.3c0 5.9-.7 8.1-2.7 8.1-1.2 0-1.4 1.1-.9 5.6.7 6.5-.1 10.4-1.9 10.4-.8 0-1.3 1.8-1.4 5.7-.1 5.6-1.1 9.1-1.1 4 0-1.5-.5-2.7-1.1-2.7s-.8.7-.5 1.6c.3.8.2 1.2-.4.9-1.2-.8-1.3-5.2-.1-5.9.4-.3 1.1-3.1 1.4-6.3s1.1-5.9 1.7-6.1c.5-.2 1-2.2 1-4.5 0-5.7 1-8.7 2.7-8.7 1 0 1.2-.6.8-1.9-.4-1.2 1.3-5.5 4.5-11.7 2.7-5.4 5-10.7 5-11.7s.7-3.2 1.7-5c2-4 2-11-.1-14.2-1.5-2.3-1.5-2.5-.1-2.5.9 0 1.3-.5 1-1-.3-.6.1-1 .9-1 .9 0 1.6.7 1.6 1.5m-28 2.3c-.6.9-1.9 3-2.8 4.6-1.9 3.2-4.6 4.8-3.6 2.2.3-.9 1-1.6 1.5-1.6s.9-1 .9-2.2c0-2.4 2.8-6 4.1-5.2.5.3.4 1.3-.1 2.2m-17.7 5.5c-.3 2-1 3.7-1.4 3.7-1.3 0-1.1-5.4.3-6.8 1.6-1.6 1.8-1.1 1.1 3.1m-12.3-.9c0 .3-.4.8-1 1.1-.5.3-1 .1-1-.4 0-.6.5-1.1 1-1.1.6 0 1 .2 1 .4m7.5 4.3c-1 5.3-1.9 6.3-2.6 2.8l-.6-3-.8 3.3c-1 4.2-2.5 5.1-2.5 1.5 0-1.9 1-3.6 3.2-5.5 1.8-1.5 3.5-2.8 3.7-2.8s0 1.7-.4 3.7m-25.1 1.1c-1.1 1.5-3.1 4.8-4.4 7.4-1.3 2.7-2.7 4.8-3 4.8-.4 0-1.3 1.2-2 2.7l-1.2 2.8-.9-2.4c-.7-1.7-.5-3.1.8-5 1-1.5 1.8-2.1 2.1-1.3.7 2.1 2.2 1.3 2-1.1-.2-2.6 3.5-9.2 6-10.6 2.6-1.4 2.8-.4.6 2.7m12-.4c-.3 1.4-1 2.3-1.5 2s-.9.1-.9.9-1.2 2.6-2.7 4.1c-2 2-2.8 2.4-3.5 1.4-1.5-2.4-.8-3.7 3.1-6 2.2-1.3 4.2-3.2 4.5-4.2.3-1.1.8-1.7 1.1-1.4s.3 1.7-.1 3.2m55.4 4c-1.3 2.3-1.4 2.6-1.7 7.1-.2 2.5-.4 2.7-1 1.1-.6-1.7-.8-1.7-1.4-.4-.3.9-.3 2.6 0 3.8.4 1.7.2 2.1-.8 1.8-.9-.3-1.3-1.6-1.1-3.3.4-3.4 3.4-10.5 4.5-10.5.4 0 .5-1.2.2-2.8-.6-2.5-.6-2.6.9-.8 1.2 1.5 1.3 2.3.4 4m-50.5 1.8c-.3 1.6-1.2 2.8-2 2.8-1.2 0-1.1-.5.3-3 2.1-3.5 2.4-3.4 1.7.2m27.2 2c-.4 1.8-1.6 5.2-2.6 7.5-1.1 2.3-2.5 8-3.2 12.7-.9 6.5-1.5 8.6-2.7 8.6s-1.2.2-.2.9c1 .6 1.2 2.2.7 6.5-.4 3-1.1 5.3-1.6 5s-.9-.1-.9.5c0 .5.5 1.3 1 1.6 1.6 1 1.2 3.5-.5 2.9-1.7-.7-2.1 1.1-.5 2.1.6.3 1 1.6 1 2.8 0 1.9-.2 2-1.5.6-2.2-2.1-2.8-15.6-.7-16.4 1-.4 1.2-1.4.8-4-.5-2.3-.3-3.5.4-3.5.6 0 .8-.5.5-1-.4-.6-.3-1.6.3-2.3.5-.7.9-2.8.9-4.8.1-3.8 2.3-11.3 5.1-16.9 3.3-6.8 4.7-7.8 3.7-2.8m12.5-2.5c0 .5-.4 1.5-1 2.3-1.1 1.8-2.5.7-1.7-1.5.6-1.5 2.7-2.1 2.7-.8m4.5 1.3c-1 1.1-2.1 1.7-2.4 1.4s.3-1.2 1.3-2c2.8-2 3.2-1.7 1.1.6m-58.2 3c.5 2-1.2 7-2.4 7-1.3 0-1.7-5.4-.6-7.2 1.5-2.3 2.3-2.3 3 .2m13.7 1c0 .5-.5 1-1.1 1-.5 0-.7-.5-.4-1 .3-.6.8-1 1.1-1 .2 0 .4.4.4 1m34.7 2.7c-1.6 1.6-1.7 1.6-1.7-.3 0-1.1.3-2.4.7-2.8.4-.3 1.1-.2 1.7.4.7.7.5 1.6-.7 2.7M244 586c0 .5-.5 1-1.1 1-.5 0-.7-.5-.4-1 .3-.6.8-1 1.1-1 .2 0 .4.4.4 1m-14.2 4.9c0 3.2-.8 4.7-5 9-2.8 2.9-5.2 5-5.5 4.7-.8-.8 3.7-7.5 5.8-8.7 1.1-.5 1.7-1.5 1.3-2-.7-1.2 1.5-6.9 2.7-6.9.4 0 .8 1.7.7 3.9m30.9-.7c-.3.7-.5.2-.5-1.2s.2-1.9.5-1.3c.2.7.2 1.9 0 2.5m-40.8 3.5c.1.7-.5 1.3-1.2 1.3s-1.9 1.6-2.6 3.6c-.9 2.5-1.7 3.4-2.8 3-1-.4-1.3-.2-1 .8.8 1.9-1.4 7.6-2.9 7.6-1.4 0-3.4 5.2-3.4 8.9-.1 1.4-.7 3.7-1.5 5.1-1.3 2.3-1.3 2-.8-3.5.5-5.3 4.1-16.9 4.2-13.8.1.7.6 1.3 1.2 1.3s.9-1.5.8-3.4c-.3-2.7.6-4.7 4.1-9.7 3.7-5.3 4.5-5.9 5.1-4.3.4 1 .8 2.5.8 3.1m20.1-2.2c0 1.5-.6 2.5-1.4 2.5-1.6 0-2.6 2.1-2.6 5.5 0 1.3-.4 2.6-.9 2.9-.5.4-.8-1.2-.6-3.6s.4-4.6.4-5c.1-.7 4.2-4.8 4.8-4.8.2 0 .3 1.1.3 2.5m4-.6c0 .6-.4 1.3-1 1.6-.5.3-1-.1-1-.9 0-.9.5-1.6 1-1.6.6 0 1 .4 1 .9m36 0c0 .6-.4 1.3-1 1.6-.5.3-1-.1-1-.9 0-.9.5-1.6 1-1.6.6 0 1 .4 1 .9m10.6 4.7c-.3.8-1 1.4-1.6 1.4-1 0-.4-4.3.9-6.5.8-1.3 1.4 3.2.7 5.1m-33.4 1.3c.5 3.2-1.5 7-2.7 5.1-.4-.7-.2-1.7.4-2.3 1.4-1.4 1.5-4 .1-3.2-1.1.7-1.4-.8-.3-1.8 1.3-1.4 2.1-.7 2.5 2.2m-9.2-1.4c0 .3-1.1 1.7-2.5 3.1s-2.5 1.9-2.5 1.3c0-.7.8-2 1.8-3 1.7-1.8 3.2-2.4 3.2-1.4m40 3.3c0 .9-.9 3-2 4.7-3 4.5-6 15-6 21.1 0 3-.4 5.4-1 5.4-1.6 0-1.2-14.1.5-17.4.8-1.5 1.5-3.4 1.5-4.2 0-.7 1.1-3.8 2.5-6.9 2.4-5.2 4.5-6.5 4.5-2.7m-55.9 5.7-.9 5-.1-4.6c0-2.5.2-4.9.6-5.2 1.1-1.2 1.2-.3.4 4.8m10.4-1.5c.3.5.1 1-.4 1-.6 0-1.1-.5-1.1-1 0-.6.2-1 .4-1 .3 0 .8.4 1.1 1m10.9 1.5c.3.9 0 1.5-.9 1.5s-1.2-.6-.9-1.5c.4-.8.7-1.5.9-1.5s.5.7.9 1.5m8.3.7c-.3.8-.6.5-.6-.6-.1-1.1.2-1.7.5-1.3.3.3.4 1.2.1 1.9m42 3c-.2 1.3-.4.5-.4-1.7-.1-2.2.1-3.2.4-2.3.2 1 .2 2.8 0 4m-75 2c-.1 2.9-.5 5.6-1 5.9-.4.3-1.1 2.5-1.6 5l-.9 4.4-.1-4.5c-.1-3.4 2.7-16 3.5-16 .1 0 .1 2.4.1 5.2m14.3-3.1c0 1.1-2.7 1.2-3.4 0-.3-.4-.3-1.1 0-1.4.8-.8 3.4.3 3.4 1.4m-23.6 2.4c-1.7 2.6-5.4 5.2-5.4 3.8 0-1 5.2-6.3 6.2-6.3.5 0 .1 1.1-.8 2.5m21-.9c.9.3 1.6 1.2 1.6 2 0 1.2-.4 1.2-2 .2-3-1.9-2.7-3.4.4-2.2m66.6 5.9c1.8 4.3 1.9 5.5.3 6.4-1.5.8-1.4 1 .5 2.2 2.2 1.4 2.9 4.3 1.3 5.3-.4.3-.7 3-.6 6 .1 3.4-.3 5.7-1 6-1.5.5-1.3 4 .3 5.9 1 1.1 1.4 6.7.6 6.7-3.5 0-5.4-6.3-3.4-11.1.7-1.6 1.2-4.9 1.2-7.2s.4-5.5 1-7 .8-3 .5-3.4c-.4-.3-1.1.5-1.6 1.8-.9 2.3-1 2.2-1.2-1.1-.1-3.5-.1-4 .9-7.4.4-1.4.2-1.7-.8-1.1s-1.2.2-.7-1.6c.4-1.3.7-3.3.8-4.4l.1-2 .5 2c.2 1.1.8 2.9 1.3 4m-49-3.5c0 .5-.2 1-.4 1-.3 0-.8-.5-1.1-1-.3-.6-.1-1 .4-1 .6 0 1.1.4 1.1 1m-17.5 2c.3.5-1.4 7.7-3.6 16.2-6.1 22.3-6.3 23.1-7.8 25.7l-1.3 2.4-1.4-2.4c-1.2-2.2-1-5.9.5-8.4.3-.5.4-2.2.2-3.7-.1-1.6.2-2.8.8-2.8s1.1.4 1.1 1c0 .5.4 1 1 1s.6-.9 0-2.5c-.9-2.4-.6-2.9 1.3-2.6.5.1.5-.8.2-2-.5-1.4-.2-2.5.6-3 1.1-.6 1.1-1.1.1-2.1-1.7-1.7-1.5-2.9.3-2.2s1.9 0 .3-2.6c-.7-1-.9-2.3-.5-2.7.5-.4 1.2-.1 1.8.7.8 1.3 1 1.3 1.9 0 .5-.8 1-2 1-2.5 0-.6-.5-.3-1 .5-.7 1.1-1.2 1.2-2.1.3-1.7-1.7 1-7.6 2.8-6.1 2 1.6 2.8.1.9-1.7-.9-.9-1.6-1.8-1.6-2 0-.6 4 .7 4.5 1.5m59.5 2c0 1.6-.4 3-1 3-.5 0-1-1.4-1-3 0-1.7.5-3 1-3 .6 0 1 1.3 1 3m-50.3.2c-.3.8-.6.5-.6-.6-.1-1.1.2-1.7.5-1.3.3.3.4 1.2.1 1.9m6.6-.2c.3 1.1.1 2.3-.4 2.6s-.9 1.4-.9 2.5-.4 1.7-1 1.4c-1.3-.8-1.3-4.5.1-4.5.6 0 .8-.9.4-2-.3-1.1-.2-2 .3-2s1.2.9 1.5 2m-39.3.9c0 .5-.7 1.4-1.5 2.1-.9.7-1.4 1.8-1.2 2.4.9 2.5-5 16.6-6.9 16.6s-3.8 3.7-2.2 4.2c.9.3.8.9-.2 2.2-3.8 4.4-4.4 4.9-4.8 3.7-.2-.7.3-2 1.3-3.1 1.2-1.3 1.3-1.9.4-2.2-.8-.3-.1-1.5 2-3.4 3.7-3.3 5.7-6.6 7.6-13 .9-3.2 1-4.4.1-4.7-.7-.3-.2-1.5 1.3-3.1 2.5-2.6 4.1-3.3 4.1-1.7m166.6.9c.1.7 0 .8-.3.2-.7-1.5-2.3-1.2-2.3.6 0 .8-.5 1.2-1 .9-.8-.5-.7-1.1.1-2.1 1.3-1.6 3.2-1.4 3.5.4m-135.9 3.9c-.3 1-.5.2-.5-1.7s.2-2.7.5-1.8c.2 1 .2 2.6 0 3.5m-26.7-3.3c0 .3-.4.8-1 1.1-.5.3-1 .1-1-.4 0-.6.5-1.1 1-1.1.6 0 1 .2 1 .4m-18 3c0 .8-.4 1.8-1 2.1-.5.3-1 2.4-1 4.5 0 4.3-1.5 9-2.8 9-1.1 0 .1-8.5 1.8-13.3 1.4-3.7 3-4.9 3-2.3m98.6 2.2c-.4 1.3-.1 3.2.5 4.2.9 1.5.8 2.4-.6 4.5-2 3-3.7 3.6-2.9.9.4-1.3.3-1.3-.7.2-.9 1.5-.9 2.1-.1 2.4 1.7.5 1.5 2.2-.3 2.2-2 0-2-4.2.1-8.2 1.3-2.5 1.3-3.2.3-3.9-1-.6-.9-.9.4-1.5 1-.4 1.6-1.2 1.3-1.9-.6-1.6.3-2.7 1.6-1.9.5.4.7 1.7.4 3m-78.6 2.9c0 3-.4 5.5-1 5.5-1.1 0-1.4-6.9-.4-9.4 1.1-2.7 1.4-1.8 1.4 3.9m22.3-1.3c.3 2.1.2 3.8-.3 3.8-1.1 0-2.3-5.7-1.5-7 .9-1.5 1.1-1.1 1.8 3.2m8.7 1.5c0 1.3-2 1.9-2 .5 0-.4-.3-1.8-.6-3.2-.5-2.4-.5-2.4 1-.6.9 1.1 1.6 2.6 1.6 3.3m-36.3-1.5c-.3.8-.6.5-.6-.6-.1-1.1.2-1.7.5-1.3.3.3.4 1.2.1 1.9m66.8-1.2c.3.5.1 1-.4 1-.6 0-1.1-.5-1.1-1 0-.6.2-1 .4-1 .3 0 .8.4 1.1 1m-75.3 3.5c-.2 1.9-.8 3.5-1.3 3.5-1 0-1.2-3.1-.3-5.4 1.1-2.8 2-1.7 1.6 1.9m10.6 5.5c-.1 3.3-.6 6-1 6-.5 0-.6-2.6-.4-5.8.5-6.5.4-6.2 1.1-6.2.3 0 .4 2.7.3 6m32.7-1.5c.7 2.9.7 2.9-.8 1-.9-1.1-1.7-2.9-1.7-4 0-2.7 1.7-.7 2.5 3m24.3-.4c-.3.8-.7.3-1.1-1-.4-1.7-.3-2.1.5-1.3.5.5.8 1.6.6 2.3m-33.5-.1c.3 1.1.1 2-.4 2s-.9-.9-.9-2 .2-2 .4-2 .6.9.9 2m-46.7 1.7c-.3 1.6-.6 4.8-.7 7.3q-.3 9-2.1 9c-1.3 0-.3-11.5 1.3-15.8 1.6-3.9 2.3-4.1 1.5-.5m8.5 2.6c-1.3 1.2-2 1.5-1.6.7 1.4-2.6 2.8-4.1 3.3-3.5.3.3-.5 1.6-1.7 2.8m45.1.5c-.7.2-1.2 1.2-1.2 2.2s-.5 2.2-1 2.5c-.8.5-.7 1.1.1 2.1 1 1.2.9 1.3-.5.8-.9-.3-1.6-.1-1.6.5s-.4 1.1-1 1.1c-1.5 0-1.2-2.6.5-4 .8-.7 1.5-2.1 1.5-3.1 0-1.1.5-1.9 1-1.9.6 0 1-1 1-2.3.1-2.1.1-2.1 1.2-.3.8 1.5.8 2.1 0 2.4m28.7 2.5c.1 1-.3 1.5-.9 1.2-.5-.3-1-2.1-.9-3.8 0-2.7.2-2.9.9-1.2.5 1.1.9 2.8.9 3.8m-14.3.2c1.2 2.2 1.5 3.8.9 4.4-1.6 1.6-3.1-.1-3.8-4.2-.7-4.6.4-4.8 2.9-.2m36 2.4c-.9 1.7-1.2 3.1-.6 3.3.7.2.7 2 .1 5.3-.5 2.7-.6 5.4-.3 6 1.1 1.6.9 8.5-.1 8.5-.5 0-.7-1.6-.4-3.5s.2-3.5-.2-3.5c-.5 0-1.1 1.4-1.3 3.1-.4 2.3.2 3.9 1.9 5.9 2.3 2.8 3.1 7 1.3 7-.5 0-1-.9-1-2s-.4-2-.9-2c-2.5 0-3.7-17.6-1.2-18.5.8-.3 1.1-.8.8-1.2-.4-.3-.1-1.3.6-2.1 1-1.3.9-1.4-1-.8-1.6.5-2.3.2-2.8-1.4-.4-1.2-.5-2.3-.3-2.5.1-.2 1.7-2 3.3-3.9 3.4-3.9 4.6-2.6 2.1 2.3m-88.5-1.2c-1 1.7-1 1.6-1.1-.3 0-2.3 1.3-4.1 1.8-2.5.2.6-.1 1.8-.7 2.8m3.9 1.4c0 1.7-.4 2.8-1 2.4-.5-.3-1-1.7-1-3.1 0-1.3.5-2.4 1-2.4.6 0 1 1.4 1 3.1m39 .1c0 .6-.6.5-1.5-.2-.8-.7-1.5-1.4-1.5-1.6s.7-.1 1.5.2c.8.4 1.5 1.1 1.5 1.6m24 4c0 .4-.4.8-.8.8-.5 0-.6 1.4-.4 3.1.3 2.1.1 3-.6 2.5-.6-.3-1-2.9-1-5.7.1-4.5.3-4.9 1.5-3.3.7 1 1.3 2.1 1.3 2.6m-24-.3c1.2 2.3 1.3 3.1.3 3-2-.3-2.4.2-1.2 1.7 1 1.3 1 1.7 0 2.4-.9.5-1 1-.2 1.4.6.4 1.1 1.2 1.1 1.8s-.6.6-1.5-.2c-.9-.7-1.3-2.1-1-3.1.4-1.1.2-1.9-.4-1.9s-1.1-.7-1.1-1.5.7-1.5 1.5-1.5c1.8 0 1.9-1.2.3-2.8-.9-.9-.9-1.2 0-1.2.6 0 1.6.9 2.2 1.9m-41 1.2c0 .6-.4.7-1 .4-.5-.3-1-1.1-1-1.6 0-.6.5-.7 1-.4.6.3 1 1.1 1 1.6m51.3 1c.3 1 .1 2.2-.4 2.5-1.5.9-2.9-.6-2.9-3.1 0-2.9 2.5-2.4 3.3.6m-74.2 7.2c-.8.8-1.1-.4-1-4.4l.1-5.4 1 4.4c.7 3 .6 4.7-.1 5.4M248 645c0 .5-.5 1-1.1 1s-.9.7-.5 1.5c.3.8 0 1.5-.6 1.5-.9 0-.9.3 0 1.2 1.7 1.7 1.5 3.3-.3 1.8-.9-.7-1.3-2.1-1-3.1.4-1.1.2-1.9-.4-1.9s-1.1-.5-1.1-1.1.7-.9 1.5-.5c.8.3 1.5.1 1.5-.4 0-.6.5-1 1-1 .6 0 1 .4 1 1m36.9 2.2c-1.1.7-1.1 1.1-.1 1.5 1.3.5 1.7 3.3.4 3.3-.5 0-1.4 1-2 2.2-1 1.9-1.1 1.4-.5-2.6.6-4.9 2.4-8.5 3.2-6.4.2.6-.3 1.5-1 2m-81.4 3.2c-1.6 2.5-3.5 3.5-3.5 1.9 0-.9 4.4-5.2 4.8-4.8.2.2-.4 1.5-1.3 2.9m14 .5c.3.5.1 1.2-.5 1.6-.5.3-1-.1-1-.9 0-1.8.6-2.1 1.5-.7m48.6 1.7c1.2 1.4 1.1 1.6-.5 1.3-1.1-.2-2.1-1-2.4-1.7-.5-1.7 1.3-1.5 2.9.4m-55.7.9c.3.8.1 1.5-.4 1.5-.6 0-1-.7-1-1.5s.2-1.5.4-1.5.6.7 1 1.5M203 655c-.6 1.1-1.6 2-2.2 2s-.3-.9.7-2 2-2 2.2-2-.1.9-.7 2m103.7-.1c1 1.5 1 2.1 0 2.5-.9.3-.9.7.2 1.4 1.1.8.9 1.1-.8 1.7-3 .9-3.3.4-1.6-2.8.8-1.5 1-2.7.4-2.7-.5 0-.9-.5-.9-1 0-1.6 1.4-1.1 2.7.9m-117.9 6.3c0 5.4-.2 6.5-.8 4.3-1.4-5.4-1.1-11.5.5-11.5.2 0 .3 3.3.3 7.2m57.2-5c0 1.9-.2 2-1 .8-1.3-1.9-1.3-3 0-3 .6 0 1 1 1 2.2m-31.1 3c.1.5-.3.8-.9.8-.5 0-1-1.2-.9-2.8 0-2.4.1-2.5.9-.7.5 1.1.9 2.3.9 2.7m11.6-.7c1.1 2.2 1.4 4.5 1 6.5-.9 4.3-2.5 3.7-2-.8.4-3.3.3-3.3-.3-.7l-.8 3-1.3-2.4c-1-1.9-1-2.5-.1-3.1.7-.5 1.1-1.9.8-3.4-.7-3.7.8-3.2 2.7.9m53.1-.7c.2.9.6 3.6.9 5.9.4 2.8.2 4.3-.4 4.3s-1.1-.8-1.1-1.8c0-1.2-.3-1.4-.8-.4-.6.9-.8-7.6-.3-10.7.2-1 1.5 1.1 1.7 2.7m9.1-.6c-.3.8-.6.5-.6-.6-.1-1.1.2-1.7.5-1.3.3.3.4 1.2.1 1.9m-20.7.8c1.1 2.1.4 2.5-2.4 1.4-.9-.3-1.6-1.2-1.6-2 0-2.1 2.8-1.7 4 .6m16.7.2c-.3.8-.6.5-.6-.6-.1-1.1.2-1.7.5-1.3.3.3.4 1.2.1 1.9M204 658c0 .5-.5 1-1.1 1-.5 0-.7-.5-.4-1 .3-.6.8-1 1.1-1 .2 0 .4.4.4 1m4.7 2.2c-.3.8-.6.5-.6-.6-.1-1.1.2-1.7.5-1.3.3.3.4 1.2.1 1.9m29.3-.2c.9 1.7.8 2-1.1 2-1.7 0-1.9-.3-1-1.3.6-.8.8-1.7.4-2-.3-.4-.3-.7 0-.7s1.1.9 1.7 2m16.5 2c.9-1.4 2.2-1.2 2.8.4q.6 1.5-.9.9c-.9-.3-1.4.1-1.4 1.2 0 1.4-.5 1.2-2.5-1.1-1.4-1.6-2.5-3.4-2.5-3.9.1-.6.9 0 2 1.3s2.1 1.8 2.5 1.2m35-1c.3.5.1 1-.4 1-.6 0-1.1-.5-1.1-1 0-.6.2-1 .4-1 .3 0 .8.4 1.1 1m-93.5 1c0 .5-.5 1-1.1 1-.5 0-.7-.5-.4-1 .3-.6.8-1 1.1-1 .2 0 .4.4.4 1m7.3 2.6c-.8 2.2-1.8 1.7-1.8-1 0-1.8.3-2.2 1.2-1.4.6.5.9 1.6.6 2.4m9-2.1c.4.8.2 1.7-.3 2-.6.4-1-.3-1-1.4 0-2.5.6-2.7 1.3-.6m33.3 3.3c0 2.3-.3 3.9-.8 3.6-.5-.4-.7-1.7-.3-3.1.3-1.5 0-3.1-.7-4.1-1.1-1.3-1.1-1.4.2-1 1 .3 1.5 1.9 1.6 4.6m22-4c.6.4 1.3 1.6 1.6 2.7s.9 2.8 1.3 3.7c.6 1.5.2 1.8-1.9 1.8-2.3 0-2.5-.3-2-2.9.4-1.6.1-3.2-.5-3.5-1.2-.8-1.5-2.6-.3-2.6.4 0 1.2.4 1.8.8m-59 2.8c-.4.9-.9 1.5-1.1 1.2-.3-.3-.3-1.3.1-2.2s.9-1.5 1.1-1.2c.3.3.3 1.3-.1 2.2m97.9-.5c-.5 1.5-.4 1.9.4 1.5 1.5-1 1.4.7-.1 2.2-.9.9-.8 1.2.4 1.2 1.8 0 2.8 5.8 3.3 19.4.2 4.3.6 8.1.9 8.4s.6-.2.6-1.2c0-.9.4-1.5 1-1.1.5.3.7 1.2.3 2-.3.9 0 2.2.6 2.9.9 1.1.9 1.5 0 1.8s-.6 1.1.9 2.6c2.5 2.5 2.8 4.2 1 4.2-.9 0-.9.3.1.9.9.6 1.6 2.9 1.7 5.7.2 2.6.8 5 1.4 5.4 1 .6 3.6 8.4 4.7 14.2.3 1.6 1.2 2.8 1.9 2.8.8 0 1.4.5 1.4 1.2 0 .6.8 2 1.7 3 1.4 1.6 1.5 2.3.5 3.8-.7 1.1-1.2 2.7-1.2 3.5s-.4 1.5-1 1.5c-.5 0-1-.7-1-1.5 0-.9-.9-3.3-2-5.5s-2-5.2-2-6.7c0-1.6-.7-3.9-1.6-5.1-.8-1.2-1.2-2.2-.8-2.2s0-.8-.8-1.8c-2.7-3.2-5.8-13.5-5.2-17.7.4-3.2.3-3.6-.5-1.8-1.8 4-2.4 2.5-1.7-4 .4-3.8.3-5.7-.2-4.8-1.4 1.9-2.4-.2-2.1-4.2q.3-3.15-.9-3c-.7.2-1.2-.9-1.2-3.1 0-1.8-.5-4.8-1.2-6.6-.9-2.6-.9-3.5 0-3.8.7-.2 1.2-1.3 1.1-2.5 0-2.1-.1-2.1-.8-.2l-.8 2-.6-2c-1.3-4.3-1.1-11.6.4-12.6 2-1.3 2.1-1.2 1.4 1.2m-119.6 4.6c.1.7-.3 1.3-.8 1.3-1.4 0-2-2.5-1.3-5.2l.6-2.3.7 2.5c.4 1.4.7 3.1.8 3.7m11.1-3.5c0 1.8-.2 2-.9.8-.6-.8-.7-1.8-.5-2.2.9-1.4 1.4-.9 1.4 1.4m41 2.1c0 .5-.7.7-1.5.3-.8-.3-1.5-.2-1.5.3s.7 1.4 1.5 2.1c1.6 1.4 2 4 .6 4-.5 0-1.2-.7-1.5-1.6-.3-.8-1-1.3-1.4-1-.5.3-.4-1.5.1-4 1-4.1 1.2-4.4 2.4-2.8.7 1 1.3 2.2 1.3 2.7m-16 .8c0 .9.7 2.2 1.5 2.9 2.5 2.1 1.7 3.2-.9 1.3-2.4-1.8-3.9-5.9-2.9-7.7.7-1 2.3 1.4 2.3 3.5m28-2c0 .6-.4.7-1 .4-.5-.3-1-1.1-1-1.6 0-.6.5-.7 1-.4.6.3 1 1.1 1 1.6m-56.3 2.9c-.7 3.1.8 4.3 1.6 1.2.3-1 .5-.6.6 1 .1 3-.8 3.5-2.7 1.6-1.5-1.5-1.6-6.8-.1-6.8.7 0 .9 1.1.6 3m9.8-1c-.3.5-1.1 1-1.6 1-.6 0-.7-.5-.4-1 .3-.6 1.1-1 1.6-1 .6 0 .7.4.4 1m53.5.6c0 .8-.4 1.2-1 .9-.5-.3-1-1-1-1.6 0-.5.5-.9 1-.9.6 0 1 .7 1 1.6m-47 .9c0 .8-.4 1.5-1 1.5-.5 0-1-.7-1-1.5s.5-1.5 1-1.5c.6 0 1 .7 1 1.5m44.6.9c1.6 1.7 1.9 3.6.4 3.6-.9 0-3-3.1-3-4.4 0-1 1.1-.7 2.6.8m35.4-.4c0 .5-.2 1-.4 1-.3 0-.8-.5-1.1-1-.3-.6-.1-1 .4-1 .6 0 1.1.4 1.1 1m-12.3 3.2c-.3.8-.6.5-.6-.6-.1-1.1.2-1.7.5-1.3.3.3.4 1.2.1 1.9m4.3 1.5c.7 2.1 2.1 5.3 3.2 7.1q3.15 5.25-.6 3.9c-.9-.4-1.3-1.3-1-2.2.3-.8.2-1.5-.4-1.5-1 0-2.3-3.3-3.5-8.8-.8-3.7 1.1-2.5 2.3 1.5m-80-1.2c0 .8-.4 1.5-1 1.5-.5 0-1-.7-1-1.5s.5-1.5 1-1.5c.6 0 1 .7 1 1.5m19.4.1c1.1 2.8.6 3.9-.9 2-.8-1.1-1.5-2.3-1.5-2.8 0-1.4 1.8-.9 2.4.8m23.6 1c0 .8-.4 1.2-1 .9-.5-.3-1-1.3-1-2.1s.5-1.2 1-.9c.6.3 1 1.3 1 2.1m4-1.6c0 .5-.2 1-.4 1-.3 0-.8-.5-1.1-1-.3-.6-.1-1 .4-1 .6 0 1.1.4 1.1 1m22.4.6c.4.9.4 1.9.1 2.3-.8.7-3.8-1.2-4.3-2.7-.6-1.9 3.5-1.4 4.2.4m-84.4.4c0 .5-.4 1-1 1-.5 0-1-.5-1-1 0-.6.5-1 1-1 .6 0 1 .4 1 1m67.4 1.3c1.5 2.4-.2 3.4-1.9 1.1-.8-1-1.5-2.3-1.5-2.7 0-1.3 2.2-.3 3.4 1.6m-61.4 2.5v2.6l-1.6-2.2c-.8-1.2-1.2-2.7-.9-3.2 1-1.7 2.5-.1 2.5 2.8m98.2-1.3c.3 1.3.1 2.2-.3 1.9-.9-.5-1.3-4.4-.5-4.4.2 0 .6 1.1.8 2.5m-54.3-.1c.8 1 .7 3.3-.4 9.2-.8 4.3-1.9 13.4-2.5 20.1l-1.1 12.2 3.1 7.5c4.4 10.4 3.3 11.5-1.4 1.6-2.2-4.4-4.1-7.9-4.3-7.6-.7.7.9 5.6 1.8 5.6.5 0 .9.5.9 1.2 0 .6-.8.4-1.9-.6-1.5-1.4-1.9-3-1.8-7.1.1-3 .5-5.1.9-4.9.4.3.8 0 .8-.5 0-.6-.4-1.1-1-1.1-.5 0-1-1-1-2.1 0-1.8.2-1.9 1.5-.9 1.1.9 1.5.9 1.5.1 0-.6-.7-1.4-1.5-1.7-.8-.4-1.5-1.3-1.5-2.1 0-1.3.3-1.3 1.5-.3.8.7 1.5.9 1.5.5s-.7-1.3-1.7-2c-1.1-.8-1.4-1.8-.8-3.1.4-1 .9-3.6 1.1-5.8.1-2.1.6-4.1 1.1-4.5.4-.3.8-2.4.9-4.5 0-2.2.6-4.2 1.2-4.4 1.7-.5 1.5-2.8-.4-4.6-1.4-1.5-1.4-1.6.4-1.6 1.1 0 2.5.6 3.1 1.4m17.4 5.9c-.4.6-.6 2.7-.4 4.5.1 1.8-.2 3.9-.9 4.7-.6.8-.7 1.6-.2 1.9s.8 3.5.7 7.1.2 6.8.6 7.1c.5.3.9 1.4.9 2.5 0 1.8-.2 1.9-1.5.5-.8-.8-1.5-1.9-1.5-2.5s-.8-1.1-1.7-1.2c-1.1 0-1.3-.3-.5-.6 1.9-.7 1.4-2.6-.6-2.1-1.2.4-1.8-.1-1.8-1.3 0-1.1.6-1.9 1.3-1.9s1-.7.7-1.5c-.4-.8-.1-1.5.5-1.5s1.1-.5 1.1-1c0-.7-.6-.7-2 0-1.1.6-2 .7-2 .1 0-.5.7-1.1 1.5-1.5.8-.3 1.5-1 1.5-1.6 0-.5-.7-1-1.5-1s-1.5-.5-1.5-1.1.7-.8 1.7-.5c2.8 1.1 3.3-1.6 1-5.5-1.9-3.3-2-4-.8-6.2.7-1.4 1-3.1.6-3.9-.5-.7.6.2 2.4 2 1.9 1.9 2.9 3.7 2.4 4.5m-67.8-3.3c1.9 3.6 1.9 4 .1 4-1.5 0-2.6-2.1-2.6-5.1 0-2.7.7-2.4 2.5 1.1m39-1c.3.5.2 1-.4 1-.5 0-1.3-.5-1.6-1-.3-.6-.2-1 .4-1 .5 0 1.3.4 1.6 1m47.3 1.4c.3 1.3-.1 1.7-1.4 1.4-1.1-.2-2-1.1-2.2-2.2-.3-1.3.1-1.7 1.4-1.4 1.1.2 2 1.1 2.2 2.2m-76.8 1.1c0 1.4-.4 2.5-1 2.5-.5 0-1-1.1-1-2.5s.5-2.5 1-2.5c.6 0 1 1.1 1 2.5m27.7.5c2.4 1.9 2.5 2 .5 2-1.2 0-2.6-.9-3.2-2s-.8-2-.4-2c.3 0 1.7.9 3.1 2m21.3.1c0 .6-.4.7-1 .4-.5-.3-1-1.1-1-1.6 0-.6.5-.7 1-.4.6.3 1 1.1 1 1.6m30.6 2.6c1.6 1.7 1.6 1.8.1 2.1-1.6.3-4.7-1.9-4.7-3.2s3-.5 4.6 1.1m24.4 1.6c0 1.8-.2 1.9-1 .7-1.3-2-1.3-4.3 0-3.5.6.3 1 1.6 1 2.8m-97.4 1.3c-.4.9-.9 1.5-1.1 1.2-.3-.3-.3-1.3.1-2.2s.9-1.5 1.1-1.2c.3.3.3 1.3-.1 2.2m23.4-.6c0 .5-.7 1-1.5 1s-1.5-.5-1.5-1c0-.6.7-1 1.5-1s1.5.4 1.5 1m39 0c0 .5-.2 1-.4 1-.3 0-.8-.5-1.1-1-.3-.6-.1-1 .4-1 .6 0 1.1.4 1.1 1m-76.9 4.3c-.5.5-.5 2.2 0 4 1.2 4.1 1.1 5-.2 4.1-.7-.4-1 .4-.8 2.2.1 1.6-.1 3.6-.5 4.5-.4.8-.2 2.8.4 4.3 1.3 3.5 1.3 3.6-.5 3-1-.4-1.5 0-1.5 1.4 0 1.1-.3 2.7-.6 3.6-1.1 2.9-2.4 1.6-2.4-2.4 0-2.3.5-4 1.1-4 .7 0 .9-1.2.5-3.6-.5-2.1-.3-4.1.4-4.9.6-.7 1.3-4.6 1.5-8.7.4-9.1.3-8.7 2-6.4.9 1.2 1.1 2.4.6 2.9m8.4-3.3c.3.5.2 1-.4 1-.5 0-1.3-.5-1.6-1-.3-.6-.2-1 .4-1 .5 0 1.3.4 1.6 1m84 3.5c4.1 4 4.2 4.5 1.5 4.5-1.1 0-2-.5-2-1.1 0-.5-1.5-2.3-3.2-4-2.5-2.2-2.8-2.9-1.5-2.9 1 0 3.3 1.6 5.2 3.5M245 689c0 .5-.2 1-.4 1-.3 0-.8-.5-1.1-1-.3-.6-.1-1 .4-1 .6 0 1.1.4 1.1 1m23.3 1.2c.6 2-.4 4.8-1.8 4.8-.6 0-2-.9-3.1-2.1-1.6-1.7-1.6-2.2-.4-2.9 2.1-1.4 4.8-1.2 5.3.2m34.5.6c.2.7-.3 1.2-1.2 1.2s-1.6-.7-1.6-1.6c0-1.7 2.2-1.4 2.8.4M198 691c0 .5-.7 1-1.6 1-.8 0-1.2-.5-.9-1 .3-.6 1-1 1.6-1 .5 0 .9.4.9 1m7 0c0 .5-.5 1-1.1 1-.5 0-.7-.5-.4-1 .3-.6.8-1 1.1-1 .2 0 .4.4.4 1m89.7 2.2c-.3.8-.6.5-.6-.6-.1-1.1.2-1.7.5-1.3.3.3.4 1.2.1 1.9m-76.2-.2c.3.5.1 1-.4 1-.6 0-1.1-.5-1.1-1 0-.6.2-1 .4-1 .3 0 .8.4 1.1 1m-19.5 3c0 .6-.9.5-2-.2s-2-1.6-2-2.1c0-.4.9-.3 2 .3s2 1.5 2 2m16.4-1.5c.3.8 1.2 1.5 2.1 1.5.8 0 1.5.4 1.5 1 0 1.6-2.7 1.2-3.4-.5-.3-.8-1.2-1.5-2.1-1.5-.8 0-1.5-.5-1.5-1 0-1.6 2.7-1.2 3.4.5m49.6 1.7c0 .5.7.8 1.5.8s1.5.4 1.5 1c0 .5-.6 1-1.2 1-.9 0-1 .3-.2.8.6.4 1.1 2.2 1.2 4.1 0 1.9.4 5.1.7 7.2.5 2.9.3 3.9-.7 3.9-.8.1-.7.4.5 1.1 2.1 1.2 2.2 2.9.1 2.9-.8 0-1.3.4-.9 1 .3.5 1.2.7 2 .3.8-.3 1.5 0 1.5.6s-.6 1.1-1.2 1.2c-.7.1-.2.4 1.1.8 1.6.4 3.5 2.6 5.3 6 2.9 5.3 3.1 7 .6 5.5-.7-.5-2-.7-3-.6-1.1.2-1.8-.7-2.3-2.8-.4-1.6-1-3-1.5-3-.4 0-1.1-.8-1.4-1.8-.4-.9-1.3-3-2.2-4.5-.8-1.5-1.7-3.8-1.8-5-.2-1.2-.8-3.5-1.5-5.1-1-2.5-.9-3.1 1.1-4.9 1.7-1.5 1.8-1.8.6-1.4-2 .7-2 .7-2.4-4.1-.2-2.8.1-3.2 1.4-2.8 1.1.4.9-.1-.5-1.3-2.9-2.4-3.1-4.6-.3-2.9 1.1.7 2 1.6 2 2m28.4 4.4c2.6.4 4.5 2.4 2.3 2.4-.9 0-1.7.4-1.7 1 0 1.3-2.1 1.3-4 0-1.3-.9-1.3-1.1 0-2 1.2-.7.8-1.1-1.8-1.6s-3.2-1.1-3-2.8c.2-1.3.9-2 2-1.8.9.1 2-.3 2.5-1 .5-.9 1-.2 1.3 2.1.3 2.4 1.1 3.5 2.4 3.7m10.8-5.4c.2 2.4.4 3.3 1 5.3.4 1.1.9 4.1 1.3 6.7.6 4.3.4 4.7-1.2 4.1-1.7-.6-1.7-.5 0 1.4q3.6 4.2-.9 2.1c-4.7-2.1-11.6-9.8-8.8-9.8.3 0 2 1.1 3.8 2.5s3.6 2.5 3.9 2.5c1.2 0 0-7.9-1.3-9.6-1.1-1.3-1.1-1.7-.1-2.4.9-.5 1-1 .2-1.4-.6-.4-1.1-1.1-1.1-1.7 0-1.4 3-1.1 3.2.3m-81.1 1.5c1.3 1.6 1.2 1.7-.3.4-1-.7-1.8-1.5-1.8-1.7 0-.8.8-.3 2.1 1.3m-29.1.3c0 .5-.2 1-.4 1-.3 0-.8-.5-1.1-1-.3-.6-.1-1 .4-1 .6 0 1.1.4 1.1 1m49.5 0c.3.5.1 1-.4 1-.6 0-1.1-.5-1.1-1 0-.6.2-1 .4-1 .3 0 .8.4 1.1 1m37.4 5.6c2.8 3.7 5.1 6.4 5.1 6 0-1.6 11.6 9 12.2 11.3 1.1 3.9-.1 3.9-3.3.1-1.6-1.9-2.9-3.1-2.9-2.7 0 .5-2-.6-4.4-2.3-2.5-1.6-4.9-3-5.4-3-.9 0-5.2-8.9-5.2-10.8 0-.7-.4-1.2-1-1.2-.5 0-1-.9-1-2s.2-2 .4-2 2.7 3 5.5 6.6m-81.4-2.6c.3.5.5 4.2.5 8.2-.1 7.2-.1 10.2.1 13.5.1 1 0 7.9-.2 15.4-.2 11 .1 14.1 1.4 16.9 2.1 4.2 2.2 6.6.1 7.4s-4.1-.4-2.4-1.4c.9-.6.6-1-.9-1.5-1.1-.3-2.1-1.5-2.1-2.5s-.4-2.2-1-2.5c-1.6-1-1.2-2.5.7-2.5 1.5 0 1.5-.2-.1-1.9-1.2-1.3-1.3-2-.6-2.3.9-.3.9-1.4.1-4.3-.7-2.5-.7-5.1-.2-7 .9-2.7.9-2.6 1 1.9.2 8.7 1.2 4.2 1.5-6.5.2-5.7-.1-11.2-.6-12.1-.4-.9-.4-1.9.1-2.2 1.4-.9 1.2-10.3-.3-11.6-1.1-.8-1.1-1.6-.2-3.5 1.2-2.6 2.1-3.1 3.1-1.5m42.2.8c1.2.9 3.7 3.7 5.7 6.2 1.9 2.5 4.5 5.6 5.6 7 5.5 6.6 8 10.4 8 12.1 0 1.1-.4 1.9-1 1.9-.5 0-1-.7-1-1.5s-.7-1.5-1.5-1.5-1.5-.8-1.5-1.8c0-.9-1.1-3-2.5-4.6s-2.5-3.3-2.5-3.8c0-.4-.7-.8-1.5-.8s-1.5-.7-1.5-1.5c0-2.2-3.3-5.7-4.1-4.3-.4.6-1-.5-1.4-2.3-.7-2.9-.9-3.1-1.6-1.4-.7 1.9-.8 1.9-.8-.2-.1-1.2-.5-2.5-1.1-2.8-1.2-.7-1.3-2.5-.2-2.5.4 0 1.7.8 2.9 1.8m-16.7 4.1c0 .5-.7 1.4-1.5 2.1-1.6 1.4-1.8 1-.9-1.4.6-1.7 2.4-2.2 2.4-.7m-30.6 1.6c.3.8.1 1.5-.4 1.5-.6 0-1-.7-1-1.5s.2-1.5.4-1.5.6.7 1 1.5m15 0c.3.8.1 1.5-.4 1.5-.6 0-1-.7-1-1.5s.2-1.5.4-1.5.6.7 1 1.5M275 710c0 1 .8 2.4 1.8 2.9.9.6 1.2 1.1.6 1.1s-1.6-.6-2.1-1.3c-1.4-1.7-2.3-5.8-1.2-5.1.5.3.9 1.4.9 2.4m-25.9 12.7c.7 1.3 1 2.5.7 2.8-.9.9-6.8-1.7-6.2-2.6.3-.6.3-1.8-.1-2.7-.6-1.5-.8-1.5-1.5.3-.7 1.6-.9 1.1-1-2-.2-3.5-.3-3.7-1-1.5l-.8 2.5-.1-2.8c-.1-1.5-.5-2.7-1.1-2.7-.5 0-1-1.2-1-2.8 0-2.6.3-2.4 5.4 3.3 3 3.3 6 7 6.7 8.2m60.6-11.5c-.3.8-.6.5-.6-.6-.1-1.1.2-1.7.5-1.3.3.3.4 1.2.1 1.9M195 712c0 .5-.2 1-.4 1-.3 0-.8-.5-1.1-1-.3-.6-.1-1 .4-1 .6 0 1.1.4 1.1 1m-15 3.6c0 .8-.5 1.2-1 .9-.6-.4-.8-1.1-.5-1.6.9-1.4 1.5-1.1 1.5.7m40.9-.3c-.9.7-1.9 2.2-2.3 3.5-.4 1.2-1.3 2.2-1.9 2.2-.7 0-.6.4.3 1 1.6 1.1 1.6 1.2-3.7 4.8-1.6 1.1-1.6 1.2.7.6 2.2-.6 2.3-.5 1.1 1-.7.9-1.8 1.6-2.4 1.6-.9 0-4.7 3.8-4.7 4.8 0 .3.9-.3 2-1.3 3.7-3.4 3.4-.5-.4 3.2l-3.7 3.7.4-3.7c.2-2 1.3-4.8 2.5-6 1.2-1.3 2.2-2.8 2.2-3.5 0-.6 1-1.8 2.2-2.6 1.2-.9 1.9-1.9 1.5-2.2-.4-.4 0-1.6 1-2.6.9-1 1.2-1.8.7-1.8s.2-.9 1.6-2 3-2 3.5-1.9c.6 0 .3.5-.6 1.2m6.5 2.9c.4 1.7.2 2.8-.4 2.8-.5 0-1-1.4-1-3.2 0-3.6.4-3.5 1.4.4m79.6 0c0 .4-.9.8-2 .8s-2-.2-2-.4-.3-1.2-.6-2.1c-.6-1.4-.3-1.4 2-.4 1.4.7 2.6 1.6 2.6 2.1M195 717c0 .5-.4 1-1 1-.5 0-1-.5-1-1 0-.6.5-1 1-1 .6 0 1 .4 1 1m82 1.1c0 .6-.4.7-1 .4-.5-.3-1-1.1-1-1.6 0-.6.5-.7 1-.4.6.3 1 1.1 1 1.6m14 6.4c0 1.9-.9 1.9-3.4 0-1-.8-2.3-1.2-2.8-.9-.4.3-1.1-.2-1.4-1.1-.4-.9-1.2-1.4-1.9-1.1-1.2.4-2.5-1.3-2.5-3.5 0-.5 2.7.4 6 2.1s6 3.7 6 4.5m-103.4-4.2c-.3 1.3.1 3.2.9 4.4 1.2 1.6 1.2 2.2.2 2.6-.9.3-.8.8.3 2.2 1.1 1.3 1.2 1.9.3 2.2-.7.2-.9 1.1-.6 1.9.3.7.9 1.1 1.4.8s.9-.1.9.5c0 .5-.6 1.1-1.2 1.4-1 .4-1 .7 0 1.8 1.7 1.8 1.5 4-.3 3.3-1.1-.5-1.4-.2-.8 1.2.3 1.1 1 2.1 1.3 2.4.4.3 1 1.5 1.4 2.7.6 1.8.4 2.2-.8 1.7s-1.5-.2-1 1.2c.4 1.1 1.3 2.4 2.2 3.1 1.7 1.4.8 6.7-1 6.1-1.4-.5-2-1.7-4.2-8.2-1.3-4-1.4-5.1-.4-5.8.8-.5.9-.8.2-.8s-1.2-1.9-1.2-4.5c-.1-2.5.3-4.5.8-4.5.6 0 1-.7 1-1.5s-.7-1.5-1.5-1.5c-2 0-2-8.1 0-12 1.8-3.6 2.9-3.9 2.1-.7m-9.1.7c.3.5.1 1-.4 1-.6 0-1.1-.5-1.1-1 0-.6.2-1 .4-1 .3 0 .8.4 1.1 1m17.5 1.1c0 .5-.4.9-1 .9-.5 0-1-.7-1-1.6 0-.8.5-1.2 1-.9.6.3 1 1 1 1.6m114.6-.6c1 2.4-.2 2.9-3.5 1.4-3.9-1.7-3.9-2.4-.1-2.7 2-.2 3.3.3 3.6 1.3M177 725.2c0 .4-.7.8-1.5.8-.9 0-1.2.6-.8 1.6.4 1.2.2 1.5-.8 1.2-1.5-.5-2.2-4.8-.8-4.8.5 0 .9-.8.9-1.8.1-1.5.2-1.5 1.5.2.8 1.1 1.5 2.3 1.5 2.8m47-1c0-.6.5-1.2 1-1.2.6 0 1 .9 1 2.1s-.4 1.7-1.1 1.3c-.8-.4-.9.1-.4 1.5.4 1.3.1 2.8-.5 3.6-.7.8-1 2.2-.6 3 .3.9 0 1.5-1 1.5-1.1 0-1.3.6-.9 2 .4 1.2.2 2-.5 2s-.9.7-.6 1.5.9 2.1 1.2 2.9c.4 1.1 0 1.3-1.5.9-1.1-.3-1.8-1-1.4-1.6.3-.5-.2-1.6-1.2-2.4-1.1-.7-1.4-1.3-.8-1.3s.9-1 .7-2.3c-.2-1.2-.2-1.6.2-1 1 2.3 2.1 1.4 1.6-1.3-.4-2-.2-2.5.8-1.9.9.6 1.1-.2.5-3.4-.4-2.7-.3-4.1.4-4.1.6 0 1.1-.8 1.1-1.8 0-1.4.2-1.5 1-.2.6 1 1 1.1 1 .2m-29.3 6c-.2 1.3-.4.5-.4-1.7-.1-2.2.1-3.2.4-2.3.2 1 .2 2.8 0 4m117.3-2.6c2.5 2.4-1.4 1.8-4.1-.7l-2.4-2 2.5.7c1.4.3 3.2 1.2 4 2m-8 2.1c0 3.2-.5 2.8-1.4-1-.4-1.9-.3-2.6.4-2.2.5.3 1 1.8 1 3.2m-132-.2c0 .8-.4 1.5-1 1.5-.5 0-1-.7-1-1.5s.5-1.5 1-1.5c.6 0 1 .7 1 1.5m123.8.1c1.3-.8 6.4 3.3 5.7 4.5-1 1.5-2.2 1-2.8-1-.3-1.2-1.5-2.1-3.3-2.3-1.5-.2-3-1-3.2-1.8-.5-1.3-.3-1.3 1.1-.2.9.8 2 1.1 2.5.8m-46.8-.2c0 .3-.4.8-1 1.1-.5.3-1 .1-1-.4 0-.6.5-1.1 1-1.1.6 0 1 .2 1 .4m2.6 2.3c-1 1-1.9-.5-1-1.8.6-1.1.8-1.1 1.2 0 .2.7.1 1.5-.2 1.8m11.9-1.6c1.1 1.7-.1 2.1-1.5.4-.8-.9-.8-1.5-.2-1.5s1.4.5 1.7 1.1m-27.5.9c0 .5-.2 1-.4 1-.3 0-.8-.5-1.1-1-.3-.6-.1-1 .4-1 .6 0 1.1.4 1.1 1m76.6-.2c1.6 1 4.4 6.8 4.4 9 0 1 1.1 5.1 2.5 9 2.5 7.2 3.4 17.5 1.6 18.7-1.4.8-1.9-.5-2.2-7-.3-3.9-1-6.5-2.1-7.7-2.2-2.2-2.3-3.8-.2-3.8.8 0 1.2-.5.9-1-.4-.6-1.1-.8-1.6-.5-.5.4-.9-.2-.9-1.2-.1-3-3.6-12.2-5.5-14.3-1.7-1.9-1.7-2 .1-2 1 0 2.4.4 3 .8m-6.5 10.5c-1.3 1.3-1.5-5-.3-8 .5-1.3.8-.5 1 2.6.2 2.4-.2 4.9-.7 5.4m-59.1-6.8c1.4.8 3.7 1.4 5.2 1.5 3.1 0 9.5 4.9 6.6 5-1 0-1.8-.5-1.8-1 0-.6-1.3-.9-3-.8-1.9.1-3.8-.6-5.3-2-1.3-1.2-2.6-1.9-3-1.6-.3.3-1.6-.1-2.9-1-2.1-1.5-2.1-1.6-.3-1.6 1.1.1 3.1.7 4.5 1.5m-65 1.5c0 .5-.4 1-1 1-.5 0-1-.5-1-1 0-.6.5-1 1-1 .6 0 1 .4 1 1m63 1.5c1 1.3.9 1.5-.8 1.5-2.2 0-3.6-1.3-2.5-2.4 1-1 2-.7 3.3.9m30 0c-.7.9-.9 1.9-.5 2.3s1 .2 1.2-.5c.9-2.4 6.7-2.6 10.6-.3 2 1.2 3.7 2.5 3.7 2.9 0 1.6-1.3 2-3.1 1.1-2.5-1.4-10.7-2.1-11.4-.9-.4.5-2.2-.3-4.1-1.9-3.3-2.6-3.3-2.7-1.2-3.4 1.3-.3 3.1-.6 4.2-.7 1.5-.1 1.6.1.6 1.4m-6.5 2.1c2.9 2.5 2.9 2.6.5 1.9-1.4-.4-3.6-.7-4.9-.7-2.2 0-5.1-1.8-5.1-3.2 0-1.7 6.8-.2 9.5 2m-88-.6c.3.5.2 1-.4 1-.5 0-1.3-.5-1.6-1-.3-.6-.2-1 .4-1 .5 0 1.3.4 1.6 1m29.2 1.8c-2.1 2.3-2.2 3.9-.2 2.2s1.9-1.2-1.4 6c-1.6 3.6-3.1 5.8-3.5 5.2-.4-.7-.3-1.9.2-2.9.5-.9.7-3.3.5-5.3-.4-3.1-.1-4 2.2-5.9 3.2-2.5 4.6-2 2.2.7m82.3-.8c0 .5-.2 1-.4 1-.3 0-.8-.5-1.1-1-.3-.6-.1-1 .4-1 .6 0 1.1.4 1.1 1m-88 3.2c0 .5-.4.8-1 .8-.5 0-1-1-1-2.3 0-1.8.2-1.9 1-.7.5.8 1 1.8 1 2.2m99 2.5c1.3 1.2 2.1 2.6 1.6 3-.4.4-1.3.1-1.9-.8-.7-.8-2.1-2-3.2-2.6-1.7-1-2.1-.8-3.1 1.5l-1.2 2.7v-3c0-1.7-.1-3.5-.2-4-.7-3.1 2.4-1.8 8 3.2m7.2-1.6c.5.3.4 1.7-.2 3.5-1 2.6-1.2 2.7-2.2 1.1-.6-1.1-.7-3.4-.2-5.5.5-2.7.9-3.2 1.2-1.7.2 1.1.8 2.3 1.4 2.6M180 743c0 1.1-.5 2-1 2q-1.05 0 0 2.1c.6 1.1.9 2.8.7 3.7-.4 1.3-.5 1.3-.6-.4 0-1.1-.6-2.5-1.2-3.1-1.3-1.3-.4-6.3 1.1-6.3.6 0 1 .9 1 2m142.9 3.1c1.3 3.8 1.3 3.9.3 3.9-.4 0-1.2-1.6-1.8-3.5-1.4-4.4 0-4.7 1.5-.4m-73.9 0c0 1.1 2.5 3.9 3.4 3.9.3 0 .3-.6 0-1.4-.4-1.1 0-1.3 1.5-.9s2.1 1.4 2.3 3.7c.2 4.9.3 5.4 1.1 6.2q1.8 1.8-1.2 2.7c-2.2.5-4.7-3.3-3.8-5.7.4-.9.3-1.6-.1-1.6-1-.1-3.8-4.1-4.7-6.9-.5-1.6-.4-2.1.4-1.7.6.4 1.1 1.2 1.1 1.7m21.7.1c-.3.8-.6.5-.6-.6-.1-1.1.2-1.7.5-1.3.3.3.4 1.2.1 1.9m-2.7 1.3c0 1.6-.2 1.7-1 .5s-1-1-1 1c0 1.4-.4 3.1-.8 3.8-.5.8-.9-.4-.9-3 0-3.6.4-4.4 1.9-4.4 1.1 0 1.8.8 1.8 2.1m-47 0c1.3 1.6.6 8.5-.9 8.5-1.3 0-4.3-7-3.7-8.6.7-1.8 3-1.8 4.6.1m17.6 2.2c-.7.7-2.6-.7-2.6-1.9 0-.6.6-.6 1.5.2.9.7 1.3 1.5 1.1 1.7m-60.4 2.9c1 2.1 1.2 3.4.5 3.1-1.3-.4-4-6.7-2.9-6.7.4 0 1.5 1.6 2.4 3.6m31.5-.6c-.6 1.6-1.5 3-1.9 3-1.1 0-1-.4.4-3.5 1.6-3.5 2.9-3.1 1.5.5m53.3-1.4c0 .8-.4 1.2-1 .9-.5-.3-1-1-1-1.6 0-.5.5-.9 1-.9.6 0 1 .7 1 1.6m48.7 10.5c-1.5 2-1.6 1.9-2.2-2.6-.5-3.1-.3-5.5.5-7.3 1.3-2.7 1.4-2.6 2.2 2.5.8 4.1.6 5.7-.5 7.4m18-7.9c-.2 4.1-2.7 6.8-2.7 2.9 0-1.9 1.9-7.1 2.6-7.1.2 0 .3 1.9.1 4.2M219 757.5c0 1.5-1.8.1-2.8-2-1.9-4.2-1.4-5.3.8-1.7 1.1 1.8 2 3.5 2 3.7m9.4-5c.3.8.1 1.5-.4 1.5-.6 0-1-.7-1-1.5s.2-1.5.4-1.5.6.7 1 1.5m96.9 2.8c-.9 1.6-2.4-.9-1.7-2.8.7-1.8.8-1.8 1.4.1.4 1 .5 2.3.3 2.7m-47.6 2.9c-.2 1.3-.4.3-.4-2.2s.2-3.5.4-2.3c.2 1.3.2 3.3 0 4.5m25-5.6c-.3.3-1.2.4-1.9.1-.8-.3-.5-.6.6-.6 1.1-.1 1.7.2 1.3.5M238 754c0 .5-.4 1-.9 1-.6 0-1.3-.5-1.6-1-.3-.6.1-1 .9-1 .9 0 1.6.4 1.6 1m36.7 2.2c-.3.8-.6.5-.6-.6-.1-1.1.2-1.7.5-1.3.3.3.4 1.2.1 1.9m-94.3 5.7c-.8.8-5.4-4.2-5.4-5.8 0-1 1.1-.3 2.9 1.9 1.6 1.9 2.8 3.7 2.5 3.9m109.3 2.5c-.7 4.9-7.3 18.5-9.3 19.3-.8.3-1.4 1.1-1.4 1.8 0 .6-.8 2-1.9 2.9-1.8 1.6-1.9 1.6-2.3-1.4-.3-2.3-.1-3 .9-2.6.8.3 1.3-.2 1.3-1.5 0-1.1.5-1.7 1-1.4.6.3 1-.3 1-1.4 0-1.2.5-2.1 1-2.1.6 0 1-.7 1-1.5s.5-1.5 1.1-1.5.9-.7.5-1.5c-.4-1.3-.2-1.4 1.4-.5 2.3 1.2 2.5.8.8-1.9-.9-1.5-.8-2.2.5-3.6 1.9-1.8 2.3-3 .7-2-.6.4-1-.6-1-2.2v-2.8l2 2.5c2.3 2.9 2.6 1.6.5-2-.8-1.4-1.4-3.3-1.5-4.4 0-1.6.3-1.4 2.1.8 1.7 2.2 2 3.6 1.6 7M300 756c0 .5-.4 1-1 1-.5 0-1-.5-1-1 0-.6.5-1 1-1 .6 0 1 .4 1 1m-72 1c0 .5-.2 1-.4 1-.3 0-.8-.5-1.1-1-.3-.6-.1-1 .4-1 .6 0 1.1.4 1.1 1m9.5 1.1c1.1 1.7-.1 2.1-1.5.4-.8-.9-.8-1.5-.2-1.5s1.4.5 1.7 1.1m66.5.9c0 .5-.2 1-.4 1-.3 0-.8-.5-1.1-1-.3-.6-.1-1 .4-1 .6 0 1.1.4 1.1 1m21.4 2.3c-1 2.6-2.2 2-1.6-.9.3-1.5.8-2.2 1.4-1.6.5.5.6 1.6.2 2.5m-88.4 3.2c0 1.9-.4 3.5-1 3.5-1 0-1.4-2.1-1.1-4.8.1-.8-.4-2.1-1.1-2.9-1.2-1.5-1.1-1.5 1-.4 1.6.9 2.2 2.1 2.2 4.6m94.9-1.8c1.6 5.6 1.4 11-.4 11.7-1.2.4-1.4-.3-1-3.9.3-2.8 0-4.5-.6-4.5s-.9-.6-.6-1.4.1-1.6-.4-1.8c-1.2-.4-.1-3.8 1.2-3.8.4 0 1.3 1.7 1.8 3.7M228 761c0 .5-.4 1-1 1-.5 0-1-.5-1-1 0-.6.5-1 1-1 .6 0 1 .4 1 1m32.9 3.1c1.7 4.9 1.4 6.9-1 6.9-2.1 0-2.1 0 .1 1.8 1.8 1.5 2.2 2.5 1.6 4.6-.6 2.5-.9 2.6-4.4 2-4-.7-6-1.9-4.9-3.1.4-.4 1.3-.1 1.9.5 1.9 1.9 4.5 1.4 5.1-.9.4-1.5-.1-2.3-1.9-3.1l-2.5-1.2 2.3-1.8c2.2-1.7 2.2-1.9.6-3.2-1-.7-1.8-1.6-1.8-2 0-.3.8-.7 1.8-.7 1.6-.1 1.6-.2 0-.6-2.4-.6-2.3-2.3.1-2.3 1.2 0 2.3 1.1 3 3.1m15.8-.9c-.3.8-.6.5-.6-.6-.1-1.1.2-1.7.5-1.3.3.3.4 1.2.1 1.9m-97.7 2.6c-.7.3-1.6-.2-2.1-.9-1.6-2.5-.9-3.2 1.2-1.3 1.3 1.2 1.6 2 .9 2.2m117.9 9.7c.4 4.4.8 8.1.7 8.2s-.7-.2-1.4-.6c-1.5-.9-1.9-6.4-.7-10.1.7-2.5.7-2.5-.9-.5-1.7 2-1.7 2-1.3-.5.2-1.4.8-3.4 1.2-4.5.7-2 .6-2-.9-.1s-1.6 1.9-1.6-1c0-8.9 3.8-1.8 4.9 9.1m13.9-9c-.3 1.4 0 2.5.6 2.6.6 0 0 .5-1.3 1-3.2 1.3-3.5.7-1.4-3 2.2-3.7 2.7-3.9 2.1-.6m-66.8 1.1c0 .8-.4 1.4-1 1.4-.5 0-1-.9-1-2.1 0-1.1.5-1.7 1-1.4.6.3 1 1.3 1 2.1m80.5 1.4c-.4 1.2-.9 1.9-1.2 1.7-.3-.3-.2-1.5.2-2.7s.9-1.9 1.2-1.7c.3.3.2 1.5-.2 2.7m-88.5 2.1c0 .9-.7 2.4-1.5 3.3-.8.8-1.5 2.2-1.5 3 0 2.6-1.5 1.8-2.7-1.4-1.1-2.9-1-3 .9-2.4 1.3.4 1.8.2 1.4-.4s-.4-2.3 0-3.7c.5-2 .9-2.3 2-1.4.8.6 1.4 2 1.4 3m-54.5-.3c-.7.8-3.5-.7-3.5-1.8 0-.6.7-.6 2 .2 1 .7 1.7 1.4 1.5 1.6m91.4-2.3c-.3.2-2.2 1.1-4.2 2-3.4 1.4-3.7 1.4-3.7 0 0-.9.4-1.4.9-1.1.5.4 2 .2 3.3-.3 2.5-1.1 4.4-1.4 3.7-.6m27.6 1.5c.3.5.1 1-.4 1-.6 0-1.1-.5-1.1-1 0-.6.2-1 .4-1 .3 0 .8.4 1.1 1m20.5 4.5c0 1.4-.4 2.5-1 2.5-.5 0-1-1.1-1-2.5s.5-2.5 1-2.5c.6 0 1 1.1 1 2.5m-64-.1c0 .3-.4.8-1 1.1-.5.3-1 .1-1-.4 0-.6.5-1.1 1-1.1.6 0 1 .2 1 .4m-47.5 6.5c-.3.8-.1 1.8.6 2.1.7.5.8 1.7.4 3.1-.7 2.2-.8 2.2-2-.7-.9-2-.9-3.3-.2-4.2.8-1 .7-1.6-.3-2.2-.8-.5-1-1.5-.5-2.6.6-1.7.8-1.7 1.6.5.6 1.4.7 3.1.4 4m66.5-5.5c0 .3-.4.8-1 1.1-.5.3-1 .1-1-.4 0-.6.5-1.1 1-1.1.6 0 1 .2 1 .4m-46 3.2c0 .8-.4 1.4-1 1.4-.5 0-1-.9-1-2.1 0-1.1.5-1.7 1-1.4.6.3 1 1.3 1 2.1m102.8-1.2c-1.6 1.2-1.9 5.8-.5 7.2 1 1-1.2 4.4-2.8 4.4-1.5 0-1.5-3 0-6.3.4-1 .5-2.1.1-2.4-.8-.8 2.3-4.3 3.8-4.3.6 0 .3.6-.6 1.4m-12.7 4.4c-.8 1.5-.8 2.2.2 2.5.8.3.5 1.2-1 2.8-1.2 1.2-2.5 2.1-2.7 1.8-.9-.8 1.2-8.2 2.5-9 1.9-1.1 2.2-.4 1 1.9m-78.4 2.9c-.3 1-.5.2-.5-1.7s.2-2.7.5-1.8c.2 1 .2 2.6 0 3.5m-1.7 2.1c0 2-.4 3.1-1 2.7-.5-.3-1 .3-1 1.3 0 1.1-.7 2.5-1.5 3.2s-1.5 1.9-1.5 2.7c0 .9-.6 1.3-1.4 1-.9-.4-1.6.3-2 1.8s-2 2.8-4.6 3.9c-5 2-6.6 2-7.4.1-.3-.8-.1-1.5.4-1.5.6 0 1-.9 1-1.9 0-3.2 2-3.5 2.1-.4l.2 2.8.4-2.9c.4-2.2.7-2.6 1.3-1.6.7 1.2 1 1.1 1.6-.5.4-1 1.5-2.7 2.3-3.7 1.5-1.8 1.6-1.8 2.3.4.4 1.7.6 1.1.7-2 .1-4.8 2.1-5.9 2.1-1.1 0 2 .4 2.8 1.1 2.3.7-.4.9-2.3.5-5-.5-4.2.8-6.3 1.7-2.7.3 1 .5.2.6-1.7.2-4.6 2.1-2 2.1 2.8m33-4.9c0 .6-.4 1.3-1 1.6-.5.3-1-.1-1-.9 0-.9.5-1.6 1-1.6.6 0 1 .4 1 .9m16.9 1.9c-.1 1 .4 3 1.1 4.7 1.8 4.3 1.6 14.1-.5 20.3-2.3 6.9-6.3 11.2-10.4 11.2-4.3 0-4-2.1 1.3-7.3 2.7-2.8 5.2-6.5 6.6-10.3 2-5.3 2.1-6.5 1.1-12.6-1.4-8.3-1.4-9.1-.1-8.3.6.4 1 1.4.9 2.3m20.3-.6c-.7.7-1.2.8-1.2.2 0-1.4 1.2-2.6 1.9-1.9.2.3-.1 1.1-.7 1.7m-7 5c-1.5 1.5-2.1-.4-.9-3.2l1-2.5.5 2.4c.2 1.3-.1 2.8-.6 3.3m-88.2-.7c-.7.8-1.9 1.5-2.7 1.5-1.3 0-1.3-.3-.3-1.5.7-.8 1.9-1.5 2.7-1.5 1.3 0 1.3.3.3 1.5m90 5.9c-1.7 4.6-2.4 2.2-.9-3 1.1-3.8 1.5-4.2 1.7-2.3.2 1.4-.2 3.8-.8 5.3m-117.6-3.7c-.4 1.6-.9 3.2-1.3 3.8-.3.5-.4 2-.2 3.2.1 1.3-.3 2.3-1 2.3-.8 0-1-1.4-.6-5 .7-5.4 1.3-7 2.8-7 .5 0 .7 1.2.3 2.7m85.6 2.7c-.7.7-1-.1-.9-2.5 0-3.2.1-3.3 1-1 .6 1.6.6 2.8-.1 3.5m-6-2.9c0 .8-.7 1.5-1.5 1.5-1.3 0-1.4-.3-.3-1.5 1.6-1.8 1.8-1.8 1.8 0m26.7.7c-.3.8-.6.5-.6-.6-.1-1.1.2-1.7.5-1.3.3.3.4 1.2.1 1.9m-41 2.7c.8 1.9.9 3 .3 2.6-.5-.3-1.3.2-1.6 1.2s-1 2.7-1.4 3.8c-1.5 3.5-2.3 6.8-2.4 10.7-.3 5.5-2.2 7-4.6 3.8-2-2.6-2.7-6.6-1-5.5.6.4.5-.5-.2-1.9-1.4-3.2-.3-4.6 1.7-2 .8 1 1.5 1.4 1.5.8 0-.5-.5-1.5-1.2-2.2-1.5-1.5.6-6.7 2.3-5.6.8.4.9 0 .4-1.5-.4-1.2-.2-2.1.4-2.1s1.2 1 1.2 2.2c.1 1.7.3 1.8.6.6.2-.9-.1-2.7-.7-3.8-1.5-2.9-.4-3.9 1.5-1.4 1.4 1.8 1.4 1.7.5-.9-1.5-4.1 1-3 2.7 1.2m28.7 1.8c-2.5 1.8-2.7 1-.7-2.6 1.7-2.9 1.8-2.9 2.1-.9.2 1.3-.4 2.7-1.4 3.5m30.3-3.5c-.3.8-.6.5-.6-.6-.1-1.1.2-1.7.5-1.3.3.3.4 1.2.1 1.9m8.3-.3c0 .6-.4 1.3-1 1.6-.5.3-1 2.1-1 3.9 0 1.7-.5 3.7-1.2 4.4-.9.9-.9 1.2 0 1.2 2 0 1.3 3.9-.9 5.1-2.1 1.1-2.2 1-1.7-4.7.3-3.2 1-6 1.6-6.2s.8-1 .5-1.8 0-2.1.7-2.9c1.4-1.7 3-2 3-.6m-56.3 4.3c-.3.7-.5.2-.5-1.2s.2-1.9.5-1.3c.2.7.2 1.9 0 2.5m6 0c-.3.8-.6.5-.6-.6-.1-1.1.2-1.7.5-1.3.3.3.4 1.2.1 1.9m-76.2.7c-.3.6-1.4 1.1-2.3 1.1-1.5-.1-1.5-.2.2-1.5 2.1-1.6 3.2-1.3 2.1.4m74 2.3c-.4 1.8-1.3 3.8-2 4.3-.7.6-1.5 2.2-1.8 3.5-.4 2.1-.4 2-.6-.7 0-1.7.6-3.8 1.4-4.7.8-.8 1.5-2.1 1.5-2.9 0-1.3.9-2.7 1.7-2.7.3 0 .2 1.5-.2 3.2m27.2 0c-.3.7-.5.2-.5-1.2s.2-1.9.5-1.3c.2.7.2 1.9 0 2.5m-34.8 2.2c-.9.8-1 .7-.5-.7.3-1 .7-2.4.7-3 .1-.7.3-.4.6.7.3 1-.1 2.3-.8 3m13.9-3.2c-.3.7-1.3 1.5-2.4 1.7-1.6.3-1.7.1-.5-1.3 1.6-1.9 3.4-2.1 2.9-.4m8.5 1c-1.3 1.2-2.6 1.8-3 1.4s.1-1.4 1.1-2.2c3.1-2.2 4.3-1.7 1.9.8m-78.3 2.3c0 .8-.2 1.5-.4 1.5s-.6-.7-1-1.5c-.3-.8-.1-1.5.4-1.5.6 0 1 .7 1 1.5m70 3.1c0 1.9-.5 4.4-1 5.5-.7 1.3-.7 1.9 0 1.9 1.5 0 1.2 2.2-.8 4.8-1.6 2.1-2 2.2-3.1.8-.8-.9-1-2.6-.6-4.5.4-1.7.6-3.4.6-3.8 0-.5.6-1.5 1.3-2.3s1.7-2.2 2.1-3c.7-1.2.6-1.3-.7-.3-1.7 1.5-2.9.7-2.1-1.3.3-.8 1.4-1.4 2.4-1.4 1.5 0 1.9.7 1.9 3.6m10-2.5c0 .5-.4.7-1 .4-.5-.3-1.2.6-1.6 2-.3 1.3-1 2.2-1.5 1.9-1.3-.8-1.1-2.1.7-3.8 1.8-1.8 3.4-2.1 3.4-.5m-22.7 6.1c.4 1.8 1.1 5 1.6 7 .5 2.2.5 3.6 0 3.2-.5-.3-.9-1.5-.9-2.8 0-1.2-.5-2.7-1.1-3.3-1.3-1.3-2.1-7.3-.9-7.3.4 0 1 1.5 1.3 3.2m21.1 1c-1.2 2.4-1.8 2.8-2.5 1.7-1.3-2.1-1.1-2.9.6-2.3 1 .4 1.5 0 1.5-1.6 0-1.1.4-1.8 1-1.5.6.4.4 1.8-.6 3.7m-15.4-.7c0 1.4-.4 2.5-.9 2.5-.4 0-.6-1.1-.3-2.5.2-1.4.6-2.5.8-2.5s.4 1.1.4 2.5m-46.5 9.7c1.4.6 2.5 1.5 2.5 2 0 1.3-1.3.9-4-1.2-2.8-2.2-2.3-2.5 1.5-.8m34.5.8c0 .5-.4 1-1 1-.5 0-1-.5-1-1 0-.6.5-1 1-1 .6 0 1 .4 1 1m-32.9 3.6c.9 1.1.8 1.4-.2 1.4-1.5-.1-4.9-2.3-4.9-3.3s3.9.5 5.1 1.9m37.9 3.9c-2.1 2.5-3 .6-1.2-2.5 1.5-2.7 1.7-2.8 2-.9.2 1.1-.2 2.7-.8 3.4m3.3-3c-.7 2.1-1.3 1.9-1.3-.6 0-1.1.4-1.8 1-1.4.5.3.7 1.2.3 2m-40.9 4.7c-.3.5-1.4.8-2.4.8s-2 .6-2.2 1.2c-.3.8-.9.4-1.7-1-1-1.8-.9-2.2.4-2.2.8 0 1.5-.4 1.5-.9s1.1-.4 2.4.2c1.3.7 2.2 1.5 2 1.9M192 842c0 .5-.4 1-1 1-.5 0-1-.5-1-1 0-.6.5-1 1-1 .6 0 1 .4 1 1"/>
	<path d="M383 42.5c0 .8.5 1.5 1 1.5.6 0 1-.7 1-1.5s-.4-1.5-1-1.5c-.5 0-1 .7-1 1.5M383 109.9c0 1.1.5 2.3 1 2.6.6.3 1-.3 1-1.4s-.4-2.3-1-2.6c-.5-.3-1 .3-1 1.4M372 150c0 .5.5 1 1 1 .6 0 1-.5 1-1 0-.6-.4-1-1-1-.5 0-1 .4-1 1M378.5 167.6c-.9 1.4-1.4 2.9-1 3.2.6.7 4.4-3.6 4.5-5.1 0-1.6-1.9-.6-3.5 1.9M367.1 218.6c0 1.1.3 1.4.6.6.3-.7.2-1.6-.1-1.9-.3-.4-.6.2-.5 1.3M344 274.1c0 .5.5.7 1 .4.6-.3 1-.8 1-1.1 0-.2-.4-.4-1-.4-.5 0-1 .5-1 1.1M338 306.5c-.7.9-.8 1.5-.2 1.5.5 0 1.2-.7 1.6-1.5.3-.8.4-1.5.2-1.5s-.9.7-1.6 1.5M333.5 320c-.3.5.3 1 1.4 1 1.2 0 2.1-.5 2.1-1 0-.6-.6-1-1.4-1s-1.8.4-2.1 1M336.3 331.7c-.7.3-1.3 1.2-1.3 2.1 0 1.5.2 1.5 1.7-.1 1.8-1.8 1.6-2.7-.4-2M339 343c-1.2.8-1.1 1 .8 1 1.2 0 2.2-.5 2.2-1 0-1.3-1.1-1.3-3 0M328.5 351c-.3.5-.1 1 .4 1 .6 0 1.1-.5 1.1-1 0-.6-.2-1-.4-1-.3 0-.8.4-1.1 1M331 353.1c0 .5.5.7 1 .4.6-.3 1-.8 1-1.1 0-.2-.4-.4-1-.4-.5 0-1 .5-1 1.1M333 366.1c0 .5.5.7 1 .4.6-.3 1-.8 1-1.1 0-.2-.4-.4-1-.4-.5 0-1 .5-1 1.1M312.8 377.6c-.5.4-.8 2.1-.7 3.8 0 3 0 3 1 .7 1.1-2.7.8-5.7-.3-4.5M315.5 393c-.4 1.2-.5 2.4-.2 2.7.3.2.8-.5 1.2-1.7s.5-2.4.2-2.7c-.3-.2-.8.5-1.2 1.7M307.5 448c-.3.5-.2 1 .4 1 .5 0 1.3-.5 1.6-1 .3-.6.2-1-.4-1-.5 0-1.3.4-1.6 1M301.5 470c-.3.5-.1 1 .4 1 .6 0 1.1-.5 1.1-1 0-.6-.2-1-.4-1-.3 0-.8.4-1.1 1M322 491.5c0 .8.5 1.5 1 1.5.6 0 1-.7 1-1.5s-.4-1.5-1-1.5c-.5 0-1 .7-1 1.5M288.8 627.5c-.3 1.4-.1 2.5.3 2.5.5 0 .9-1.1.9-2.5s-.2-2.5-.4-2.5-.6 1.1-.8 2.5M299.7 627.7c-.4.3-.7 1.1-.7 1.7s.5.5 1.2-.2c.6-.6.9-1.4.7-1.7-.3-.3-.9-.2-1.2.2M305 671c0 .5.7 1 1.6 1 .8 0 1.2-.5.9-1-.3-.6-1-1-1.6-1-.5 0-.9.4-.9 1M327.1 743.6c0 1.1.3 1.4.6.6.3-.7.2-1.6-.1-1.9-.3-.4-.6.2-.5 1.3M251.1 680.9c-1.1.7-1.1 1.2 0 3 1.9 2.9 3.1 2.6 2.3-.7-.8-3.4-.7-3.2-2.3-2.3M264.5 691c.3.5.8 1 1.1 1 .2 0 .4-.5.4-1 0-.6-.5-1-1.1-1-.5 0-.7.4-.4 1M221.5 728c-.3.5-.1 1 .4 1 .6 0 1.1-.5 1.1-1 0-.6-.2-1-.4-1-.3 0-.8.4-1.1 1M206 746.1c0 .5.5.7 1 .4.6-.3 1-.8 1-1.1 0-.2-.4-.4-1-.4-.5 0-1 .5-1 1.1M218 748.7c0 1.5 1.9 3.7 2.6 3.1.3-.4-.1-1.4-1-2.3s-1.6-1.3-1.6-.8M228 798.2c0 1.9.2 2 1 .8 1.3-1.9 1.3-3 0-3-.5 0-1 1-1 2.2M288.7 805.7c-.4.3-.7 1.1-.7 1.7s.5.5 1.2-.2c.6-.6.9-1.4.7-1.7-.3-.3-.9-.2-1.2.2M246 802.5c-.8.9-.8 1.5-.2 1.5 1.2 0 2.6-1.9 1.9-2.6-.2-.2-1 .2-1.7 1.1"/>
</svg>
