<?xml version="1.0" encoding="utf-8"?>
<svg xmlns="http://www.w3.org/2000/svg" version="1.0" viewBox="0 0 448 315">
	<title>The man lies on his belly, smoking his pipe and reading the book.</title>
	<path d="M324.2 2.9c.2 1.4.9 2.6 1.6 2.9 1.7.5 1.5-1-.3-3.4-1.5-1.8-1.5-1.8-1.3.5M320.9 19.7c-.5 4.8-.1 6.9 1.8 10.5 2.6 5 3 3.6.7-2.2-.9-2.2-1.4-5.1-1.2-6.5.3-1.4.1-2.5-.3-2.5-.5 0-.9.3-1 .7M314.1 28.6c0 1.1.3 1.4.6.6.3-.7.2-1.6-.1-1.9-.3-.4-.6.2-.5 1.3M318.1 28.7c-.1 1.2.4 2.5.9 2.8 1.2.7 1.2-.2 0-3-.8-1.9-.9-1.9-.9.2M330.1 32.5c.1 2.2 1.6 4.8 2.2 3.8.3-.5 0-1.9-.8-2.9s-1.4-1.5-1.4-.9M411.5 38c1.1.5 3.1.9 4.4.9 1.3.1 3.6 1.2 5.3 2.6 1.6 1.4 3.9 2.5 5.1 2.5 1.9 0 1.8-.2-.8-1.6-1.6-.8-3.9-2.4-5.1-3.5-1.4-1.3-3.4-1.9-6.5-1.8-3.4 0-3.9.2-2.4.9M251 39c0 .5 1 1 2.3 1 1.8 0 1.9-.2.7-1-1.9-1.3-3-1.3-3 0M395 39c-1.3.8-1.2 1 .3 1 .9 0 1.7-.5 1.7-1 0-1.2-.1-1.2-2 0M404.8 38.7c.7.3 1.6.2 1.9-.1.4-.3-.2-.6-1.3-.5-1.1 0-1.4.3-.6.6M383.3 39.7c.9.2 2.3.2 3 0 .6-.3-.1-.5-1.8-.5-1.6 0-2.2.2-1.2.5M234.2 41.2c-4.3.6-7 1.4-6.5 1.9s2.3.5 4.3-.1c1.9-.6 4.8-1 6.5-1 1.6 0 3.7-.5 4.5-1 1.8-1.2 1.8-1.2-8.8.2M328.6 41.9c-1 1.1-1.6 2.6-1.4 3.3.3.8 1.1.2 2.3-1.5 2.1-3.3 1.5-4.5-.9-1.8M313.1 42.4c-.7.8-.9 2.1-.5 2.7.5.9 1 .5 1.6-1.1 1-2.8.5-3.6-1.1-1.6M371.8 42.3c-2.1.6-3.8 1.4-3.8 1.9 0 1.1.9.9 5.5-1.2 4.4-2.1 3.9-2.3-1.7-.7M221.5 43c-.3.5.3 1 1.4 1 1.2 0 2.1-.5 2.1-1 0-.6-.6-1-1.4-1s-1.8.4-2.1 1M436.5 43c2.8 1.2 7.8 1.2 7 0-.3-.6-2.5-1-4.8-.9-3.3 0-3.8.2-2.2.9M324.3 50.1c0 2.6.3 3.6.8 2.7 1.1-1.7 1.1-5.5 0-6.2-.4-.3-.8 1.3-.8 3.5M364.6 48.5c-.3.8-.1 1.5.4 1.5.6 0 1-.7 1-1.5s-.2-1.5-.4-1.5-.6.7-1 1.5M386 48c0 .5.9 1 2.1 1 1.1 0 1.7-.5 1.4-1-.3-.6-1.3-1-2.1-1s-1.4.4-1.4 1M375 50c-1.3.8-1.2 1 .3 1 .9 0 1.7-.5 1.7-1 0-1.2-.1-1.2-2 0M416 51.9c0 .5.5 1.3 1 1.6.6.3 1 .2 1-.4 0-.5-.4-1.3-1-1.6-.5-.3-1-.2-1 .4M357 57.4c0 2.7.1 2.8 2.2 1.4 1.2-.8 2.4-2.1 2.7-2.9.4-1.2.2-1.2-1.3 0-1.5 1.3-1.9 1.3-2.7 0-.6-1-.9-.6-.9 1.5M431 55.8c0 .5.7 1.5 1.5 2.2s1.5.8 1.5.2c0-.5-.7-1.5-1.5-2.2s-1.5-.8-1.5-.2M352.7 58.5c-.4.8-.2 1.7.3 2 .6.4 1 .4 1 .1 0-.2.3-1.1.6-2s.2-1.6-.4-1.6c-.5 0-1.2.7-1.5 1.5M423.6 58.3c.3 1 .9 1.5 1.2 1.2s0-1.1-.7-1.8c-1-.9-1.1-.8-.5.6M417 61c0 .5.5 1 1 1 .6 0 1.5 1 2 2.2.8 2.2.9 2.2.9.2.1-2-1.6-4.4-3.1-4.4-.4 0-.8.4-.8 1M378.8 61.5c-.6.6 2 6.5 2.8 6.5.6 0-.7-5.3-1.5-6.3-.4-.4-1-.5-1.3-.2M357.5 64.9c.3 1.8.5 5.7.5 8.5 0 6.4 1.4 8.3 6.5 9.1 3.5.5 3.8.5 2-.7-1.2-.7-1.9-2.1-1.7-3.1.5-2.4 2.2-2.2 2.2.3 0 1.1.5 2 1 2 .6 0 1-.9 1-2 0-1 .7-2.3 1.6-2.8 1.2-.7.3-2.1-5-7.5-4.4-4.4-6.6-6-6.7-4.9 0 1.4-.2 1.3-1-.3-.7-1.6-.8-1.2-.4 1.4m4.5 3.3c0 1.2.3 1.9.6 1.5.8-.7 3.4 1.7 3.4 3.2 0 .6.5 1.1 1 1.1.6 0 1 .5 1 1.2 0 .6-.9.3-2-.7-1.9-1.7-2-1.7-1.4-.1.5 1.2.1 1.9-1.5 2.3-2.3.6-2.8 1.9-.8 2.6.7.4.6.6-.4.6-2.5.1-3.9-8-2.3-12.3.9-2.3 2.4-2 2.4.6"/>
	<path d="M361 73.1c0 1.1.5 1.7 1 1.4.6-.3 1-1.3 1-2.1s-.4-1.4-1-1.4c-.5 0-1 .9-1 2.1M383.5 63c1.1.5 2.7.9 3.5.9 1.3.1 1.3 0 0-.9-.8-.5-2.4-.9-3.5-.9h-2zM395.3 62.7c.9.2 2.3.2 3 0 .6-.3-.1-.5-1.8-.5-1.6 0-2.2.2-1.2.5M413 63.1c1.4.5 3.1 1.7 3.8 2.6 1.1 1.6 1.2 1.6 1.2 0 0-1.8-2.9-3.7-5.7-3.6-1.3 0-1.1.3.7 1M324.3 67.5c0 2.7.2 3.8.4 2.2.2-1.5.2-3.7 0-5-.2-1.2-.4 0-.4 2.8M370.6 65.6c-1.4 3.7-.6 4.7 1.9 2.3 1.3-1.3 2.5-2.7 2.5-3.2 0-1.4-3.8-.7-4.4.9M191.4 66.6c-1.7 1.4-1.7 1.5-.1 1 1-.3 3.3-.6 5-.7 2.7 0 2.9-.2 1.2-.9-2.9-1.3-3.9-1.2-6.1.6M435 65.9c0 .5.5 1.3 1 1.6.6.3 1 .2 1-.4 0-.5-.4-1.3-1-1.6-.5-.3-1-.2-1 .4M210.8 69.7c.7.3 1.6.2 1.9-.1.4-.3-.2-.6-1.3-.5-1.1 0-1.4.3-.6.6"/>
	<path d="M301.5 69.7c-6.4.8-7.3 1.3-8 4.2-.3 1.6-1.3 3.5-2.1 4.2-1.1.9-1.4.7-1.4-1.1 0-1.3.7-3.2 1.7-4.2 1.5-1.7.5-2.7-1.1-1.1-.4.5-2.8.9-5.3.9-2.4.1-4.9.6-5.5 1.2-.5.5-2.7.8-4.7.5-2.6-.4-5.4.2-9 1.7-4.5 2-5.5 2.9-7.7 7.7-1.4 2.9-2.4 6-2.1 6.7s.1 1.9-.4 2.7c-.7 1.1-.9 1.1-.9-.4 0-.9-.4-1.7-1-1.7-.5 0-1 1.4-1 3.1 0 2.8-3.8 10.9-5.1 10.9-.4 0-1-.7-1.3-1.6-.4-1.1.4-2.6 2.3-4.3 2.2-2 2.9-3.3 2.4-4.9-.3-1.2-.8-2.2-1.2-2.2-1.4.1-4.1 2.8-4.1 4.2 0 .9-.8 1.5-1.7 1.4-1 0-1.9.8-2.1 1.9-.4 1.8-.3 1.8 1.4.5 1.7-1.4 1.8-1.4.5.2-.7 1-1.7 1.5-2.2 1.3-.4-.3-1.1 1.7-1.5 4.5-.4 3.4-1 4.7-1.5 3.8-1.3-2-1.1-7.2.6-11.1 1.7-4.1 2-7.7.6-7.7-.5 0-.9 1.4-.9 3 .1 1.7-.5 3.6-1.2 4.3-1 1-1.1.4-.6-2.6.5-2.6.4-3.7-.3-3.2-.7.4-.9 4-.7 9.5.3 8.2-.4 12.3-1.9 10.9-.3-.4-.8-3.7-1.2-7.5-.5-6.3-1.4-8.3-3.5-8.4-.5 0-.8 1.3-.8 3s.5 3 1.3 3c.7 0 1.2 1.5 1.3 4.1 0 3.3.6 4.6 2.7 6.3 1.5 1.2 2.7 2.5 2.7 2.9 0 1.2-1.8.8-3.4-.8-1.9-2-3-.3-2.1 3.3.6 2.6.6 2.6-.9.7-1.6-1.9-1.6-1.9-1 .9.7 3.1.6 3.1-4.8-.6-3.6-2.5-4.7-2.3-6.2 1.3l-1.3 3.1-1.3-3.3c-.7-1.9-1.2-3.8-1.1-4.2.2-1.2-2.9-4-3.6-3.3-.4.3.2 1.3 1.3 2.1s1.4 1.5.7 1.5c-1.5 0-1.8 3-.3 3 .6 0 1 .6 1 1.3s.9 3.2 2.1 5.6c3.1 6.4 1.7 7.2-2 1.2-4-6.6-5.4-6-1.6.6 1.9 3.2 2.9 6.6 3.1 10.3.6 9.4.3 16.3-.7 17.9-.7 1.2-.9.7-.9-1.9.1-8.9-.7-13.3-2.4-14.6-1.1-.8-1.8-2.6-1.8-4.7 0-2.5-.7-4.1-2.5-5.7-1.4-1.2-2.2-2.8-1.9-3.6s.1-1.4-.4-1.4c-1.3 0-1.3 1.2 0 4.4.5 1.4 1.6 2.6 2.4 2.6 1.1 0 1.3.8.9 3.4-.3 2 .1 5.4 1.1 8.2 1.8 5.3 2.2 11 .5 6.2-.7-1.7-1.5-2.5-2.5-2.1-1 .3-1.6-.4-2-2.6-.4-1.7-1.2-3.1-1.9-3.1s-1.8-.7-2.5-1.5c-1.1-1.3-1-1.4.4-.9.9.3 1.6.2 1.6-.4 0-.5-.7-1.3-1.6-1.6-1.6-.6-4.3 1.8-4.4 3.9 0 .5.5.3 1-.5.8-1.3 1-1.3 1 .2 0 .9.9 1.9 1.9 2.3 1 .3 2.2 1.7 2.5 3.1.4 1.3 1.6 3.4 2.7 4.5s1.8 2.3 1.4 2.7c-.7.7-5.4-4.8-5.5-6.5 0-.6-.5-1.5-1.1-1.9-.8-.5-1 1-.7 5.4.3 5 .9 6.6 3.6 9.6 1.8 2 3.2 4.4 3.2 5.4 0 1.3-.2 1.4-.8.4-.5-.7-1.6-1-2.5-.6-1.1.4-2.4-.2-3.8-1.7-1.8-2.1-2-2.1-1.4-.4.4 1.1 1 3.1 1.3 4.5.3 1.3 2.8 4.6 5.6 7.2s4.6 4.7 3.9 4.8c-1.8 0-10.2-7.3-10.3-9 0-1.2-.2-1.2-.9-.2-.6 1-1 .4-1.5-1.9-.5-2.4-.9-3-1.7-2.2-1.8 1.8-.1 8 3.3 11.9 3.6 4 3.3 5.4-.5 2.3-1.5-1.1-2.7-1.6-2.7-1s.6 1.1 1.3 1.1c.8 0 .7.4-.3 1-1.3.9-1.2 1.3.6 2.8 1.1.9 2.5 2.9 3.1 4.3 1 2.4.9 2.6-1.6 2.6-1.9 0-3.1-.8-3.9-2.5-.9-2-.9-2.3.4-1.8 1.1.4 1.1 0-.3-1.9-1.9-2.5-3.3-3.2-3.3-1.5 0 .5.5 1 1 1 .6 0 1 .5 1 1.1 0 .5-.5.7-1.1.3-2.1-1.2-2.8 2-2.3 9.9.3 5.4.2 7.7-.6 7.2-.5-.3-1-3.2-1-6.3s-.4-6.3-.9-7.1-.8 2.1-.6 7.5c.2 4.9.2 7.9-.1 6.7-.3-1.3-.9-2.3-1.4-2.3-.4 0-.6-1-.3-2.3.4-1.8.3-1.9-.6-.7s-1.1 1.3-1.1.1c0-.8-.2-1.2-.5-.9-.9.8 1.7 10.8 2.7 10.2.4-.3.8.2.8 1 0 .9-.6 1.6-1.4 1.6-2.5 0-4.5-9.7-5.1-24.5-.3-7.7-.8-15.9-1.1-18.2-.3-2.4-.1-4.4.6-4.8.6-.3.7-1.2.3-1.8-1.2-1.9-1.3-32-.1-33.4.7-.8.7-1.3 0-1.3-1.9 0-3.4 5.7-2.7 10.1.6 3.7.5 4.1-1 3.5-1.4-.5-1.6-.2-1.1 1.9.4 1.5.2 2.5-.4 2.5s-1.3-1.4-1.7-3c-.3-1.7-1-3.3-1.6-3.7-.6-.3-.7-.1-.3.5.9 1.6-.7 1.5-2.2 0-.6-.6-1.4-.9-1.8-.6-.3.4 1.5 2.7 3.9 5.2 5.3 5.3 6.5 9.2 4.3 13.3-.8 1.5-1.5 2.3-1.6 1.8 0-.6-2.2-2.4-4.9-4-2.7-1.7-5.7-4.2-6.6-5.8-.9-1.5-2-2.7-2.6-2.7-.5 0-.9-.9-.9-2s-.7-2-1.5-2c-1.9 0-1.1 2.2 2.8 7.7 1.7 2.4 3.6 4.3 4.4 4.3.7 0 1.3.4 1.3.8 0 .6 8.8 6.3 11.7 7.7.1 0 0 1.1-.4 2.3-.5 2.2-.7 2.1-4.8-1.5-2.4-2.1-5.5-4.7-7-5.8-6.5-4.9-13.4-15.3-10.7-16.2 1.3-.5 1.8-18.3.4-18.3-.4 0-.7 3-.6 6.7.1 3.8-.1 5-.3 2.8-.3-2.5-.7-3.4-1.2-2.6-.5.7-.4 3.1.1 5.3.9 4.2.2 6.9-.9 3-.3-1.2-.9-2.2-1.3-2.2-1 0-1.8 8-.8 8.6.4.3.3 1.6-.2 2.9-.6 1.6-.6 2.5 0 2.5 2.2 0 2.2 5.3 0 10.1-2.1 4.3-2.2 5.3-1.1 8.9 1.2 3.9 3.1 5.5 3.1 2.4 0-.8.5-1.2 1-.9.6.3 1 .1 1-.6 0-.8.4-.8 1.6.2 1.4 1.2 1.4 1.4-.3 2-2.8 1.2.4 1.1 6.7-.1 4.5-.9 5.6-.8 7.2.6 2 1.9 2.4 5.9.7 6.9-.6.4-1.3-.3-1.6-1.5l-.6-2.3-1.8 2.4c-1.5 2-1.9 2.1-1.9.6 0-2.1-1.6-2.3-2.4-.2-.6 1.7-4.6 2.1-4.6.5 0-.6.7-1 1.5-1s1.5-.4 1.5-.9c0-1.5-4.1 0-5.3 2-.7 1.1-1.7 1.9-2.4 1.9-.6 0-1.9 1-2.7 2.2-.9 1.2-1.9 1.9-2.3 1.5-.3-.4-.1-1.3.5-1.9.7-.7 1.2-1.8 1.2-2.6 0-1.2-.3-1.2-1.6-.1-2.2 1.8-7.7 9.9-6.7 9.9.4 0 .1.4-.6.9-1.2.8-.9 1.1 1.2 1.6 2.5.7 3.9 3.5 1.7 3.5-.5 0-1 .7-1 1.5 0 .7-.8 1.9-1.7 2.4-1.7 1-1.7 1-.1 1.1.9 0 2.3-.9 3.1-2 1.5-2.2 8.7-4 8.7-2.3s-1.3 2.3-2.6 1.2c-1.1-.9-1.5-.7-2 .6-.5 1.1-.1 2.1 1 2.7 1.5.9 1.6 1.2.3 2.6-.8 1-1.8 2.8-2.2 4.2-.3 1.4-.9 3.3-1.1 4.2-.3 1-.1 1.8.4 1.8s1.5-2 2.2-4.4c1.4-5.3 6-7.5 6-3 0 .9-.6 1.1-1.7.7-1.6-.6-1.6-.5-.4 1.1 1.2 1.4 1.7 1.5 2.7.4 1-1 1.1-2.3.4-5.3-1.2-5.2-1.2-6.5 0-6.5.5 0 .7.7.4 1.5-.4.8-.1 1.5.6 1.5.6 0 1.4-.9 1.7-2 .6-2.1 2.8-2.7 3.8-1 1.1 1.7 2.5 1.1 2.5-1.1v-2l3 2.1c2.7 1.9 3.5 1.9 3.1-.3 0-.4.6-.7 1.4-.7s1.5.4 1.5 1c0 .5.9 1 1.9 1 3.5 0 5.1 1.2 5.1 3.7 0 8.6 4.6 16.4 10.1 17 9.4 1 32.6.7 35.2-.5 1.5-.7 5.9-1.4 9.7-1.7 5.8-.3 7-.1 7 1.2 0 1.1.6 1.4 2.3.8 5.3-1.6 10.6-2.4 16.3-2.5 4.6 0 6.8-.5 8.7-2 2.8-2.2 7.7-2.6 10.9-.9 1.7.9 2.4.8 3.3-.5.7-.9 2.1-1.6 3.1-1.7 1.4-.1 1.3-.3-.6-.9l-2.5-.7 2.7-.8c1.5-.4 3.2-.4 3.8 0s2.9-.5 5-1.9c2.2-1.4 4.2-2.6 4.6-2.6.3 0 2-1.2 3.7-2.6 2.1-1.8 3.9-2.5 5.8-2.2 1.5.3 2.6.1 2.3-.4-.3-.4.4-.8 1.5-.8 1.2 0 2.1-.5 2.1-1 0-.6.5-1 1-1 1.7 0 1.1 2.8-.7 3.3-1.4.4-1.4.5.3.6 1.4.1 2.4-.6 2.7-1.9.3-1.1.1-2-.5-2-.5 0-.6-.5-.2-1.1.5-.9-.1-1-2.2-.5-1.6.4-3 1.2-3.2 1.7-.5 1.4-2.2 1.1-2.2-.4 0-.7 2.2-2 4.9-2.8 2.8-.8 4.8-1.2 4.5-.7-.3.4 0 .8.7.8.6 0 .9.8.6 2-.4 1.5 0 2 1.4 2 1 0 1.9.4 1.9.9 0 .6 1.6.7 3.5.4 2.3-.4 3.5-.2 3.5.6 0 .6-.6 1.1-1.4 1.1s-1.8.4-2.1 1c-.4.6.2.7 1.7.1 1.5-.5 2.3-1.6 2.3-3.2 0-2.2-.4-2.4-4-2.2-3.1.2-3.5.1-2-.6 1.9-.9 1.8-1-.5-1.1-2.2-.1-2.3-.2-.9-1.3.9-.7 1.4-1.7 1.2-2.4-.2-.6.4-1.4 1.4-1.7 2.5-.8 8-7.9 6.5-8.4s-1.6-2.9-.2-3.7c.6-.4 1.7-.2 2.5.5 1.2 1 1.1 1.7-.6 4.6-1 1.9-1.9 3.9-1.9 4.4 0 1.6 3 1.1 3.6-.5.4-.8 1.2-1.5 2-1.5s1.4.7 1.4 1.5-.8 1.5-1.7 1.5c-1.2 0-1.4.3-.6 1.1.7.7 2 .8 3.4.3 1.3-.4 3.2-.7 4.3-.5s1.6-.2 1.2-.8-1.4-1.1-2.2-1.1-1.4-.3-1.4-.8c0-.4 2.6-.6 5.8-.5 4.6.1 5.6.5 5.4 1.7-.3 1.7 1.2 1.9 4.3.6 1.9-.8 1.9-.9-.3-.9-1.3-.1-2-.5-1.7-1.1s.1-1-.4-1c-.6 0-1.1-.5-1.1-1 0-.6.9-1 2-1s2-.5 2-1.1c0-.8.4-.8 1.5.1.8.6 2.3.9 3.6.5 1.4-.5 1.9-.4 1.5.4-.5.7.6 1.1 3.3 1.1 3.1 0 4.1-.4 4.1-1.6 0-1-.6-1.4-1.4-1.1q-1.5.6-.9-.9c.6-1.7 4-1.9 4.6-.2.2.7 1-.7 1.6-3.1.7-2.4 2-5.5 2.9-6.9 1.5-2.3 1.6-2.3 2.9-.6 1.8 2.4 1.6 3.1-.8 3.7-1.4.4-1.9 1.2-1.7 2.4.3 1-.6 3.3-1.9 5-2.2 3-2.3 3.3-.5 3.3 1.1 0 2.5-1.4 3.6-3.7l1.8-3.8 2.1 2.6c1.2 1.5 3.2 3 4.4 3.3 1.1.4 2.8 1.8 3.7 3.1 1.6 2.5 4.6 3.4 4.6 1.5 0-.6-.7-1-1.5-1s-1.2-.6-.9-1.3c.5-1.3-3.4-3.7-6-3.7-1.6 0-3-4.3-1.6-4.8 2-.7.9-2.4-1.1-1.9-1.8.5-2 .2-1.6-2.1.3-1.4-.2-3.6-1-4.9-.8-1.2-1.3-2.8-1-3.5q.6-1.2 1.2.9c.4 1.3 1.2 2.3 1.7 2.3.6 0 .7-.8.4-1.8-.4-1 .1-.7 1.3.8l1.9 2.4.9-3.4c.9-3.3 1.2-3.5 5.1-3.5 5.3 0 5.3-.8.1-2.5-3.4-1.2-4.2-1.2-4.9 0-.5.8-1.2 1.1-1.7.7-1.1-1.2 1.2-4.2 3-3.9.9.1 1.7-.8 2.2-2.5.3-1.5 2-4 3.6-5.5 2.9-2.9 3.7-4.8 1.9-4.8-.5 0-1 .6-1 1.4 0 .7-1.2 2.2-2.7 3.1-1.6 1-3.8 2.9-4.9 4.3-1.2 1.4-3.7 3.1-5.5 3.7-3 1-3.5 1.7-4 5.3-.3 2.3-.8 4.5-1.2 4.9-.4.3-.4-.8-.1-2.5.8-4-.9-6.2-4.7-6.2-1.6 0-2.9-.4-2.9-.8 0-1.8 3.8-4.2 6.6-4.2 1.6 0 3.6-.5 4.4-1 1.2-.7.8-1-1.5-1.1l-3-.1 3-.9c2-.6 3.1-.5 3.6.3s1.2.6 2.4-.5c.9-1 2.7-1.7 4.1-1.7 1.3 0 2.4-.5 2.4-1.1 0-.7-.9-.9-2.2-.5s-4.8.9-7.8 1l-5.5.4 4.5-1.4 4.5-1.4-5.6.5c-5.2.5-5.7.3-6.3-1.8-.3-1.2-.3-3.9.1-5.9.7-4.8-1.5-9.6-6.4-13.7-11.8-9.6-11.5-10.4 4-11.5 7.3-.5 7.7-.5 7.7 1.5 0 1.1-.9 2.9-2 4.1-2.4 2.6-2 3.4.9 1.8 1.2-.6 2.1-1.8 2.1-2.8 0-3.5 1.4-4.4 4.6-2.7 1.6.8 3.5 1.5 4.2 1.5s1.1.4.7 1c-.3.5-1.2.7-2 .3-.8-.3-1.5 0-1.5.6s.5 1.1 1 1.1c.6 0 1.9 1.4 3 3.2l1.9 3.2.9-2.5c.7-1.7.6-2.9-.3-3.9-4.2-4.9-1.1-9.9 3.7-6 1.4 1 2.9 1.5 3.4 1.1 1.5-1.4 11.8-2 13.8-.9 1.4.8 1.7.7 1.2-.1-.5-.7.2-1.1 1.8-1.1 1.4 0 2.6-.5 2.6-1.1s.6-.9 1.4-.6 1.7.1 1.9-.6c.8-2.1 2.9.8 3.2 4.5.4 4.4.3 4.4 1.6 3.1.7-.7.5-2.3-.7-5.2-.9-2.3-1.5-4.3-1.3-4.4 1.8-1.3 5.9-3.7 6.3-3.7.2 0 .7 1.2 1.2 2.7l.7 2.8.7-3c.5-2 .8-2.3.9-1 .1 1.1.8 2.9 1.6 3.9.9 1.2 1.2 2.9.9 4-.5 1.7-.4 1.9.7.8 1-1 1.1-1.9.1-4.5-2-5.5-1.6-7.5 1.8-8.2 3.3-.7 4.3-1.8 4.6-5.2.2-1.9-.1-2.2-1.9-1.8-2 .5-2.2.2-2.4-4.8 0-3-.6-6.4-1.2-7.5-1.1-2.1-7.8-3.9-23.1-6.2l-7.5-1.2-9.5 4.5c-5.2 2.5-11.3 4.8-13.5 5.2s-5.2 1.1-6.7 1.7c-3.2 1.2-9.1-.9-8.3-2.9.2-.7 0-1.3-.5-1.3-.6 0-1 .9-1 1.9 0 1.1-.6 2.1-1.2 2.4-.7.2 1.2.7 4.2 1.1s6.6.9 8 1.2c2 .5 2.2.4 1-.6-1.2-.9-.7-1.1 2.5-.6 3.1.4 4.9 0 8-1.9 2.2-1.4 4.7-2.5 5.5-2.5.8-.1 3.1-1.4 5-3 3-2.6 4.2-3 9.5-3 4.5 0 5.6.3 4.5 1.1s-.2.9 3.2.4c3.3-.4 5.6-.2 7.8 1 1.7.9 3.7 1.4 4.5 1.3.8-.2 2.8.6 4.5 1.7 2.8 1.8 3.1 2.4 2.6 5.5-.4 2.5-.3 3.1.4 2 .7-1 .8.1.4 3.5-.9 7.2-2.1 7.6-2.2.8-.1-3.2-.3-6.7-.6-7.8-.2-1.1-.5-2.4-.5-2.8-.1-.5-.6-.5-1.1-.2-.6.4-.8 2.1-.5 3.8.3 1.8.1 4.5-.5 6.2-.9 2.9-1 2.9-.4-.8.3-2.2.1-3.7-.6-3.7-.5 0-1.1 1.2-1.2 2.7-.1 1.9-.3 1.3-.8-1.7l-.7-4.5-.1 5.7c-.2 7.2-1.8 8.4-2.8 2.1l-.8-4.8-.7 4c-1 5.4-.2 8.5 1.9 7.7 1.5-.5 1.5-.4.3 1.1-.7.9-1.7 1.7-2.1 1.7s-1.3-3.5-1.9-7.8c-1.8-10.9-2.1-11.7-1.7-3.9.3 4.6 0 6.7-.7 6.4-.6-.2-2.1.8-3.4 2.2-2.3 2.7-2.5 2.6-2.7-2.8-.1-1.3-.6-2.6-1.2-2.8-.8-.3-1.1 1.1-.9 3.9.1 2.4.1 3.3-.2 2-.2-1.2-.9-2.2-1.4-2.2s-.9-.8-1-1.8c-.1-.9-.6-.2-1.1 1.5-.6 1.8-1.5 3.3-2.1 3.3-1 0-4.8 4.4-5.9 6.9-.5 1.3-.7 1.3-.7-.3-.1-1.4-.4-1.6-1.4-.7-1.1.9-1.3-.3-1-6.4.2-4.6-.1-7.5-.7-7.5-.5 0-1 .7-1 1.5 0 2.7-3.3.1-4.7-3.7l-1.3-3.3.5 3.9c.2 2.2 1.1 4.4 2 4.8.8.5 1.5 1.9 1.5 3.1 0 2.2-.1 2.2-1.3-.2-.6-1.3-2.1-2.9-3.2-3.5s-2.4-1.7-2.8-2.4c-.5-.7-1.2-1-1.8-.7-.5.4-.9.1-.9-.5 0-2.1-2.4-.4-3.1 2.1-.6 2.2-.7 2.2-.8.3-.1-2.4-2.7-5.1-3.9-4-.4.4.1 1.2 1.1 1.7 1.2.7 1.7 2.3 1.7 5.2 0 7.9 2.9 8.6 3.3.8.1-4.5 1.7-4.5 1.7 0 0 3.8-2.7 7.9-5.2 7.9-1.7 0-1.8-.5-1.3-4.3.4-2.3.2-5.3-.5-6.7-1-2.3-1-2.3-.6 1 .2 1.9-.2 4.9-1 6.5l-1.4 3 .6-3.2c.7-4.2-.5-10.8-1.8-9.5-.6.6-.7 1.6-.2 2.3 1 1.6.5 8.8-.7 10.9-.5 1-.9-1.1-1-6-.2-5.6-.4-6.3-.6-2.8-.3 4-.8 4.8-2.4 4.8s-1.9-.8-2.1-5.8l-.1-5.7-.6 6.5c-.4 4.6-1 6.5-2 6.5-.8 0-1.8.9-2.2 2-.5 1.2-.6.1-.3-3 .3-2.8 0-6.4-.5-8-.8-2.7-1-2.4-1.2 3-.1 3.3-.4 4.6-.6 3-.5-4.4-3.6-13.5-4.5-13.5-.5 0-.4.9.2 2.1 1.1 2 .9 4.3-1.6 18.1-.6 3.7-.6 3.8 2.2 3.9 2.7 0 2.8.1.6.9-1.2.5-2.8.7-3.6.4-2-.7-2.9-3.6-1.6-4.4.7-.4 1.3-3.6 1.6-7.1l.3-6.4-1.2 6.4c-.7 3.8-1.8 6.6-2.6 6.9-1 .4-1.2 0-.6-1.4.4-1.1.9-4.2 1.1-6.9l.3-5-1.1 5.7c-.5 3.2-1.4 5.8-1.7 5.8-.4 0-.7-3.5-.6-7.8.1-4.2 0-5.5-.2-2.7-.5 6.4-1.5 7.3-4.9 4.6-2.2-1.7-3.6-2.1-6.5-1.6-3 .5-4.1.2-6.2-1.7-1.4-1.3-2.9-3.6-3.2-5.1-.4-1.5-2.1-3.9-3.9-5.4-1.7-1.6-4.1-4.2-5.4-6s-3.8-3.7-6-4.4c-2-.6-4.1-1.8-4.5-2.5-.4-.8-1.3-1.3-2-1.3-.7.1-2.5.4-4.2.6m5.3 3c.2.8-.5 1.3-1.6 1.3-1.2 0-2.3.8-2.7 1.9-.3 1-1.5 2.7-2.7 3.7-2 1.9-2 1.9-1.3-1.6.4-1.9 1.4-4.3 2.3-5.3 1.7-2 5.3-1.9 6 0m-8.8 0c0 2.2-2.6 7.3-3.7 7.3s-1-.7.2-3.6c.8-2 1.5-3.8 1.5-4s.5-.4 1-.4c.6 0 1 .3 1 .7M285 75c0 .5-.7 1-1.6 1-.8 0-1.2-.5-.9-1 .3-.6 1-1 1.6-1 .5 0 .9.4.9 1m30.1 1.6c1.3 1.4 2.3 3.4 2.1 4.5s.2 1.8.8 1.7c.6-.2 1.8 1 2.8 2.7.9 1.6 2 3.1 2.5 3.3.4.2.7 1.5.7 3 0 1.4.3 2.3.6 2 .5-.6 7.4 5.7 7.4 6.7 0 .3-.5.5-1.1.5-1.5 0-3.9 2.6-3.2 3.4 1 1 2.5.7 1.8-.3-.3-.5-.1-1.2.5-1.6.5-.3 1-.1 1 .4 0 1.8 1.8 1.2 2.3-.7.4-1.4.5-1.4.6.3 0 1.1-.7 3.8-1.7 5.9l-1.8 3.9-3.8-3.9c-4.4-4.5-6-7.9-5.1-11.1.4-1.7.2-2.1-1-1.7-1.8.7-1.8.8-.6-3.4.6-2 .6-3.2 0-3.2-.5 0-1.5-1.1-2.1-2.5s-1.7-2.5-2.5-2.5c-.7 0-1.3-.6-1.4-1.3-.1-.6-.2-2.1-.3-3.2-.2-3-5-2.8-5.4.2-.4 2.8-3.2 3.1-3.2.3 0-2.5 3.4-6 5.8-6 1 0 2.9 1.2 4.3 2.6m-41.5.5c.4.8.9.7 1.5-.2.8-1.2 1.1-1.1 1.9.1.7 1.2.4 1.6-1.8 2-1.5.3-3 .2-3.3-.3-.8-1.1-5.5.2-7 1.9-1.3 1.6-2.9 1.9-2.9.5s6.2-4.9 8.7-5c1.2-.1 2.5.4 2.9 1m11.3 1.5c.7.6-1.1 2.4-2.5 2.4-.8 0-1.2-.5-.9-1 .3-.6-.1-1-1-1s-1.3-.5-1-1c.6-.9 4.1-.5 5.4.6M269 82c0 1.1-4.2 3.1-4.9 2.4-.2-.2.2-1 .9-1.9 1.4-1.7 4-2 4-.5m9 .8c0 .9-1 2.3-2.1 3.1-1.9 1.1-2.1 1.1-1.6-.3.4-1 .1-1.6-.8-1.6-.8 0-1.5-.7-1.5-1.5q0-1.5 3-1.5c2.2 0 3 .5 3 1.8m12-.9c0 .5-1.1 1.1-2.5 1.3-2.4.5-3.2-.2-1.8-1.5.9-1 4.3-.8 4.3.2m12.6 1.8c-1 1-1.9-.5-1-1.8.6-1.1.8-1.1 1.2 0 .2.7.1 1.5-.2 1.8m-4.6.3c0 .5-.7 1-1.6 1-.8 0-1.2-.5-.9-1 .3-.6 1-1 1.6-1 .5 0 .9.4.9 1m-5 1c-2 1.3-3.3 1.3-2.5 0 .3-.6 1.4-1 2.3-1 1.5 0 1.5.2.2 1m-32 5.2c-1.8 1.8-2.2 1.9-1.6.5.3-1 .6-2.8.6-4 0-2 .1-2 1.6-.5s1.5 1.8-.6 4m45.5-4.2c.3.5-.1 1-1 1s-1.3-.5-1-1c.3-.6.8-1 1-1s.7.4 1 1m-35.5.6c0 .7-3.1 3.3-4 3.4-.3 0-.6-.9-.6-2 0-1.4.7-2 2.3-2 1.3 0 2.3.3 2.3.6m42 .4c0 .5-.4 1-1 1-.5 0-1-.5-1-1 0-.6.5-1 1-1 .6 0 1 .4 1 1m-33.2 1.2c1.6 1.6 1.5 2.8-.3 2.8-.8 0-1.5-.4-1.5-1 0-.5-.7-.7-1.5-.4-1.5.6-2.1-.7-.8-1.9 1-1.1 2.8-.8 4.1.5m20.2-.3c0 1.4-1.8 2.3-3.1 1.5-.8-.4-.7-.9.2-1.5 1.8-1.1 2.9-1.1 2.9 0m-7.6 1.5c-.7 1.9-4.4 2.8-4.4 1.1 0-.8 1-1.6 2.3-1.8 1.2-.2 2.3-.5 2.4-.6.1 0 0 .5-.3 1.3m-18.4 3c0 .3-.9.6-2 .6s-2 .4-2 1c0 .5-.4 1-1 1-1.5 0-1.2-2.1.6-4.1 1.4-1.5 1.8-1.6 3-.4.8.7 1.4 1.6 1.4 1.9m-11.8 2.2c-1.2 2.6-1.8 3.2-2 2-.2-1 .4-2.6 1.4-3.7 2.5-2.7 2.6-2.4.6 1.7m35.1-3c1.1 1.2-2.3 3.5-4.2 2.9-1.1-.3-2.2-.1-2.6.5-.3.5-1.1 1-1.6 1-1.8 0 .2-2 3.4-3.4 3.8-1.7 4.2-1.8 5-1M279.5 93c.3.5-.1 1-1 1s-1.3-.5-1-1c.3-.6.8-1 1-1s.7.4 1 1m25 0c-1.1.5-2.7.9-3.5.9-1.3.1-1.3 0 0-.9.8-.5 2.4-.9 3.5-.9h2zm54.9 4.7c-.4 2.1-.2 3.3.5 3.3.6 0 1.1.9 1.1 2 0 2.5-2 2.7-2.1.2-.1-.9-.5-.4-1 1.3-.6 2.3-.7 1.9-.4-1.9.3-2.7.5-6.3.5-8 0-2.4.3-2.7 1-1.6.5.8.7 3 .4 4.7m-83.7-2.1c-.3.3-1.2.4-1.9.1-.8-.3-.5-.6.6-.6 1.1-.1 1.7.2 1.3.5m34.1 1.7c.3 1.6.1 1.7-1.7.7-1.2-.6-2.6-.8-3.1-.5-.6.3-1-.1-1-1 0-2.4 5.4-1.6 5.8.8m81.7.9c-1 4.6-2.3 6.8-4 6.8-2 0-1.9-.7.5-3.7 1.1-1.4 2-3.4 2-4.4 0-1.1.5-1.9 1.1-1.9.7 0 .8 1.2.4 3.2M279 97.9c0 1.1-.4 2.2-.9 2.5-1.1.7-2-1.4-1.3-3.2.7-1.9 2.2-1.4 2.2.7m17.6-1c-.3.4.6.6 1.9.3 2.7-.5 3.3.9 1.1 2.7-2.1 1.7-6.9-.6-5.3-2.5 1.3-1.5 3.1-1.9 2.3-.5m103 3.6c-.4 1.9-1.1 3.5-1.7 3.5s-.6-.7.1-2c.6-1.1.8-2.5.5-3-.3-.6-.3-1.5 0-2.1 1.2-1.9 1.8-.1 1.1 3.6m13.1-.8c-.3 1-.5.4-.5-1.2 0-1.7.2-2.4.5-1.8.2.7.2 2.1 0 3m-18 .5c-.3.7-.5.2-.5-1.2s.2-1.9.5-1.3c.2.7.2 1.9 0 2.5m-120.5 0c-.6.6-1.5.8-1.9.4s-.1-1.1.7-1.6c1.9-1.2 2.7-.3 1.2 1.2m8.5 1.3c-.7 1.4-1.6 2.5-2 2.5-.5 0-.6-.6-.3-1.3.3-.6.9-2 1.2-2.9.4-1 1-1.6 1.4-1.3.5.3.3 1.6-.3 3m140.3.3c0 1.5-.2 1.5-1 .2-1.3-2-1.3-3.3 0-2.5.6.3 1 1.4 1 2.3m-111 5.3c0 1.1-.4 1.7-1 1.4-.5-.3-1-1.2-1-1.8 0-.7-1.6-2.1-3.5-3.1-1.9-1.1-3.5-2.3-3.5-2.7s2 .4 4.5 1.8c3 1.6 4.5 3.1 4.5 4.4m26.5-2.4c-.3 1.5-1.7 4.1-3.1 5.8l-2.5 3 2-4.5c1.2-2.5 2.1-5.6 2.1-7 0-1.7.3-2.1 1.1-1.3.6.6.8 2.3.4 4m-82.4-1.4c-1 .9-1.1.8-.5-.6.3-1 .9-1.5 1.2-1.2s0 1.1-.7 1.8m39.2-.3c.3 1.1.1 2-.4 2s-.9-.9-.9-2 .2-2 .4-2 .6.9.9 2m18.2-1c.3.5.1 1-.4 1-.6 0-1.1-.5-1.1-1 0-.6.2-1 .4-1 .3 0 .8.4 1.1 1m30.1 3.1c.1 1.3-.2 3.7-.8 5.2-1.5 4-2.8 1.4-2.1-4.1.6-4.5 2.5-5.2 2.9-1.1m23.4-1.6c0 .8-.4 1.5-1 1.5-.5 0-.7-.7-.4-1.5.4-.8.8-1.5 1-1.5s.4.7.4 1.5m3.3 1c-.7 2.1-1.3 1.9-1.3-.6 0-1.1.4-1.8 1-1.4.5.3.7 1.2.3 2M300 104c0 .5-.2 1-.4 1-.3 0-.8-.5-1.1-1-.3-.6-.1-1 .4-1 .6 0 1.1.4 1.1 1m109-.1c0 1.2-2 2.5-2.7 1.8s.6-2.7 1.8-2.7c.5 0 .9.4.9.9m-123.4 1.6c.4.8 1.7 1.5 3 1.5 1.5 0 2.4-.6 2.4-1.5 0-.8.4-1.5 1-1.5.5 0 .7.6.4 1.3-.3.8 1 2.6 3.1 4.1 1.9 1.5 3.5 3.6 3.5 4.6 0 1.5.9 2.1 3.9 2.6 4.2.7 8.8 4.5 7.6 6.3-1.2 2.1-3.5 1.2-3.5-1.4 0-1.4-.4-2.5-.8-2.5-.5 0-.7 1.3-.4 2.9.4 2.7.2 2.8-4.4 3.5-3.4.4-5 .2-5.6-.6-1.4-2.4-10.2-1.8-11.2.7-.7 1.9 1 6.5 2.4 6.5.6 0 .9-.4.5-.9-.3-.5-.1-1.2.4-1.5s1.1.1 1.5.9c.3.8 1.5 1.5 2.6 1.5 2.1 0 2.9 3.5.9 4.2-.5.2-.7 1.1-.4 2.1.9 2.3 2.5 1.1 2.5-1.9 0-1.3.5-2.4 1.1-2.4s.8.7.5 1.6-.6 2.2-.6 2.9c0 2.4-3 4.5-5.6 3.9-1.5-.4-3.6.1-5.9 1.5-4.6 2.7-7.4 2.9-5.4.4 1.2-1.5 1.2-1.6-.8-1.1-2.1.6-2.2.4-1.8-4.2.5-4.5.4-4.7-1.8-4.3-2.9.5-4.2-.6-5.1-4-.8-3.2.8-3.6 2.5-.6.9 1.7 1.3 1.9 2 .8.5-.8.8-2.3.8-3.4v-2l-.9 2c-.7 1.8-.9 1.8-1.5.3-.4-.9-.4-2.2-.1-2.7.4-.6.3-2.3-.1-3.8l-.7-2.8-.6 3c-.5 2.6-.7 2.7-1.2.9-.3-1.2.1-3.5.8-5.3 1.2-2.7 1.8-3.1 5.4-3.1 2.2 0 4.1-.5 4.1-1 .1-.6.2-1.4.3-2 0-.5.7-1.5 1.4-2.2.6-.6 1.2-2 1.2-3 0-2.2 1.8-2.4 2.6-.3m17.4.7c0 1.9-.2 2-1 .8-1.3-1.9-1.3-3 0-3 .6 0 1 1 1 2.2m78-.7c0 .8-.2 1.5-.4 1.5s-.6-.7-1-1.5c-.3-.8-.1-1.5.4-1.5.6 0 1 .7 1 1.5m-111-.1c0 .2-.7.6-1.5 1-.8.3-1.5.1-1.5-.4 0-.6.7-1 1.5-1s1.5.2 1.5.4m9 1c0 .8-.4 1.8-1 2.1-.5.3-1-.3-1-1.4 0-1.2.5-2.1 1-2.1.6 0 1 .6 1 1.4m42 .1c0 .8-.7 1.5-1.5 1.5-1.6 0-2-1.2-.8-2.3 1.1-1.2 2.3-.8 2.3.8m57-1.1c0 .3-.4.8-1 1.1-.5.3-1 .1-1-.4 0-.6.5-1.1 1-1.1.6 0 1 .2 1 .4m-128.3 2.8c-.3.8-.6.5-.6-.6-.1-1.1.2-1.7.5-1.3.3.3.4 1.2.1 1.9m12.6 2.9c1.6 1.3 1.7 2 .9 3.5-1 1.7-1.1 1.7-1.2.1 0-.9-.3-1.7-.7-1.7-1.5-.1-4.4-5-3.7-6.1.4-.8 1-.5 1.7.7.5 1.1 1.9 2.6 3 3.5M299 107c0 .5-.5 1-1.1 1-.5 0-.7-.5-.4-1 .3-.6.8-1 1.1-1 .2 0 .4.4.4 1m10 1.1c0 .6-.4.7-1 .4-.5-.3-1-1.1-1-1.6 0-.6.5-.7 1-.4.6.3 1 1.1 1 1.6m65.7-1.5c-.3.3-1.2.4-1.9.1-.8-.3-.5-.6.6-.6 1.1-.1 1.7.2 1.3.5M273 108c0 .6-.8 1.3-1.7 1.7-1 .3-2.6 1.3-3.5 2.1-1.7 1.4-1.8 1.3-1.8-1.1 0-2 .6-2.7 2.8-3 1.5-.2 3-.5 3.5-.6.4 0 .7.4.7.9m74.1 2.3c-1.6 1.6-2.6 0-1-1.9.9-1.1 1.5-1.2 1.7-.4.2.6-.1 1.7-.7 2.3m41.2-1.6c-.7.2-1.9.2-2.5 0-.7-.3-.2-.5 1.2-.5s1.9.2 1.3.5m-141.3 1c0 1.4-1.9 3.8-2.5 3.2-.8-.8.5-3.9 1.6-3.9.5 0 .9.3.9.7m28.5 1.3c.3.5.1 1-.4 1-.6 0-1.1-.5-1.1-1 0-.6.2-1 .4-1 .3 0 .8.4 1.1 1m75.5 0c0 .5-.4 1-1 1-.5 0-1-.5-1-1 0-.6.5-1 1-1 .6 0 1 .4 1 1m-93.4 6.6c-.4 3.4-.1 7.3.9 11.1 1.7 6.7 1.9 8.1.6 6.8-2.6-2.8-4.4-25.5-2-23.9.8.4.9 2.5.5 6m65-1.6c0 3.1-.4 4.9-1 4.7s-1.1-1.1-1-2c.3-6.6.5-7.7 1.2-7.7.5 0 .8 2.3.8 5m5.9 1c1.9-1.6 2.8-.9 1.9 1.4-.6 1.6-5.3 2.3-5.5.8-.1-.4-.3-2.3-.5-4.2l-.3-3.5 1.4 3.4c1.3 2.8 1.7 3.1 3 2.1m10.5-3.5c0 .3-1.8 2.3-4 4.5-4.6 4.6-5.5 2.9-1.1-1.9 2.6-2.7 5.1-4 5.1-2.6m6 .7c.1.7.5 3.2.9 5.5.5 2.3.5 4 .1 3.8-.4-.3-1.1-2.1-1.4-4.1-.4-1.9-1-4.2-1.3-5s0-1.4.6-1.4 1.1.6 1.1 1.2m4.4.4c.4.9.4 1.9.2 2.1-.8.8-2.6-.8-2.6-2.3 0-1.9 1.6-1.8 2.4.2M242.3 116c-.3 1.1-.7 2-.9 2s-.4-.9-.4-2 .4-2 .9-2 .7.9.4 2m5.4 1.2c-.3.8-.6.5-.6-.6-.1-1.1.2-1.7.5-1.3.3.3.4 1.2.1 1.9m21-.7c0 1.8-1.9 1.5-2.5-.3-.2-.7.3-1.2 1.1-1.2.7 0 1.4.7 1.4 1.5m89.4-.1c-.9 1.1-.9 1.5.1 1.9.7.2 1 .8.5 1.2-.4.5-1.2.4-1.8-.2-1.4-1.4-.5-4.3 1.2-4.3.9 0 .9.3 0 1.4M239 122.2c0 3.3-.3 4-1.1 2.8-.9-1.2-1-1.1-.6.7.3 1.3.2 2.5-.2 2.7-.4.3-1.1-1.5-1.7-3.9-.8-3.5-.8-4.2.2-3.4.9.7 1.4.4 1.9-1q1.5-4.8 1.5 2.1m9.5 6.3-1.5 9 .5-7c.4-6.2 1-11 1.5-12.5.1-.3.3-.1.6.5.2.5-.3 5-1.1 10m4.2-7.3c-.3.8-.6.5-.6-.6-.1-1.1.2-1.7.5-1.3.3.3.4 1.2.1 1.9m9.9-.6c-.3.9-.6 2-.6 2.5s-.4.9-.9.9c-.4 0-.6-1.1-.3-2.5.2-1.4.9-2.5 1.4-2.5.6 0 .7.7.4 1.6m81.4-1.2c0 .3-.4.8-1 1.1-.5.3-1 .1-1-.4 0-.6.5-1.1 1-1.1.6 0 1 .2 1 .4m10.5.6c.3.5.1 1-.4 1-.6 0-1.1-.5-1.1-1 0-.6.2-1 .4-1 .3 0 .8.4 1.1 1m8 0c-.4.6-.2 1.7.5 2.5 1.5 1.8-.6 3.1-2.5 1.5-.8-.7-1.5-.9-1.5-.5 0 .5-.3.5-.7.2-.3-.4.2-1.6 1.3-2.6 2-2.1 3.9-2.8 2.9-1.1m-137.6 3.5c.2 1.1.6 2.2 1 2.5 2.5 1.9 4.6 16 2.1 14.5-.5-.3-1-1.4-1-2.4s-.9-3-2-4.4-1.7-3.2-1.4-4.1.2-1.6-.4-1.6c-.5 0-.8-1.2-.5-2.8.2-2.1.2-2.3-.5-.8-.8 1.8-.9 1.8-1.5.2-.4-1-.4-2.2-.1-2.7 1-1.6 3.8-.5 4.3 1.6m93.7 1.7c-.9 1.2-1.6 1.7-1.6 1 0-1.8 2.4-5.4 2.8-4.2.2.5-.4 2-1.2 3.2m-85.1-2.2c.3.5.1 1-.4 1-.6 0-1.1-.5-1.1-1 0-.6.2-1 .4-1 .3 0 .8.4 1.1 1m9.2 2.2c-.3.7-.5.2-.5-1.2s.2-1.9.5-1.3c.2.7.2 1.9 0 2.5m86.1.7c2.7 2.5 4.2 4.8 4.2 6.3-.1 2-.3 1.8-1.7-1.2l-1.6-3.5-.7 3.5-.7 3.5-.2-4.4c-.2-6.4-1.5-4.1-2.2 3.7l-.6 6.7-.2-6c-.2-4.4-.5-5.5-1.1-4-.7 1.6-.9 1.3-.9-1.7-.1-3.1.6-6.8 1.3-6.8.1 0 2.1 1.8 4.4 3.9m23-1.4c-.3.3-.9-.2-1.2-1.2-.6-1.4-.5-1.5.5-.6.7.7 1 1.5.7 1.8m-84.5-.1c2.3 1.8 2.2 2.5-.3 1.9-1.1-.3-2 0-2 .6s.7 1.1 1.5 1.1c1.6 0 2 1.5.7 2.4-.5.3-1.8.3-2.9 0-1.5-.4-1.9-1.2-1.6-2.7 1.2-5.3 1.6-5.6 4.6-3.3m75.6 7.4c.1 1.4-.3 2.1-1 1.6-.6-.3-.9-1.5-.6-2.5s.1-2.2-.4-2.5-.9-1.7-.8-3.2c0-2.6.1-2.5 1.4.8.7 1.9 1.4 4.5 1.4 5.8m7-4.5c-.1 3.1-.1 3.1-.9.7-1.1-3.6-1.1-5.2 0-4.5.6.3 1 2.1.9 3.8m-4.9-.5c0 1.5-.2 1.5-1 .2-1.3-2-1.3-3.3 0-2.5.6.3 1 1.4 1 2.3m-125.1 1.5c0 2.1-.1 2.1-.9.2-1.2-2.8-1.2-3.7 0-3 .6.3 1 1.6.9 2.8m31.6 3.2c0 3.6-.3 6.5-.7 6.5s-1.2 1.5-1.8 3.2l-1 3.3.6-3.5c.2-1.9.7-6.3 1.1-9.8.3-3.4.8-6.2 1.2-6.2.3 0 .6 2.9.6 6.5m37.5-5.6c0 .5-.7 1.1-1.5 1.5-.9.3-1.5 0-1.5-.9 0-.8.7-1.5 1.5-1.5s1.5.4 1.5.9m-56.1 5.3c.1 1-.3 1.8-.9 1.8-.5 0-1-1.7-.9-3.8 0-3 .2-3.3.9-1.7.5 1.1.9 2.8.9 3.7m60.6-4.2c-.3.5-1.3 1-2.1 1s-1.2-.5-.9-1c.3-.6 1.3-1 2.1-1s1.2.4.9 1m11.1 6.8c.6 5.2.4 6.3-1 6.8-.9.3-2.2.1-3-.5-.7-.6-1.6-.8-1.9-.4-.4.3-.7-.4-.7-1.7 0-1.9.3-2.1 1.2-1.2 1.6 1.6 2.8 1.5 2.8-.3 0-1.4-1.3-2-3.4-1.6-.5.1-.3-.5.4-1.4 1.1-1.3 1.5-1.3 2.2-.3.6.8.7.1.3-1.9-.7-3.5.2-6 1.6-4.6.5.5 1.2 3.7 1.5 7.1m56.7-4.3c-.4 1.2-.9 1.3-1.9.4-.8-.6-1.4-1.8-1.4-2.6 0-1.1.4-1.1 2-.3 1.1.6 1.7 1.6 1.3 2.5m-121.6-.3c-.3.8-.6.5-.6-.6-.1-1.1.2-1.7.5-1.3.3.3.4 1.2.1 1.9m5.9 3.5c-1 8.9-2.2 13.2-3.1 11.1-.4-1-.2-3.2.4-4.9.6-1.8 1.1-4.9 1.1-6.9 0-3.3.6-5 1.8-5 .2 0 .1 2.6-.2 5.7m10.1-3.5c-.3.8-.6.5-.6-.6-.1-1.1.2-1.7.5-1.3.3.3.4 1.2.1 1.9m117.1 5.5c-.1 6-.2 6.2-.5 1.8-.6-7.7-2.5-8.3-2.1-.7.3 5.8-.6 8-1.8 4.7-.5-1.1-1.1-1.2-2.5-.5-1.6.9-2 .5-2.9-2.7-.8-2.5-.8-4.6-.2-6.3.8-2.1 1.7-2.5 5.6-2.8l4.6-.3zm-135.1-1c-.3 1-.5.4-.5-1.2 0-1.7.2-2.4.5-1.8.2.7.2 2.1 0 3m58-1.5c-.3.8-.6.5-.6-.6-.1-1.1.2-1.7.5-1.3.3.3.4 1.2.1 1.9m21.9 1.6c-1.7 1.6-1.8 1.6-.5-.5.7-1.2 1.5-2 1.8-1.7.3.2-.3 1.2-1.3 2.2m18.5-.5c-.1 1.2-1.5.9-1.9-.4-.3-.6.1-1 .8-.8.6.3 1.1.8 1.1 1.2m21.9-.3c0 .5-.2 1-.4 1-.3 0-.8-.5-1.1-1-.3-.6-.1-1 .4-1 .6 0 1.1.4 1.1 1m-135.6 7c.4 3.6.3 6.7-.3 7.8-.9 1.4-1 1.2-1.1-1.3 0-1.7-.3-5.4-.7-8.4-.4-3.6-.3-5.2.4-4.8.6.4 1.3 3.4 1.7 6.7m9.4-1.9c-.3 2-.5 1.9-.9-.9-.3-2-.2-2.9.4-2.3.5.5.7 1.9.5 3.2m3.4-1.6c.3 1.4.1 2.5-.3 2.5-.5 0-.9-1.1-.9-2.5s.2-2.5.4-2.5.6 1.1.8 2.5m112.5-.3c-.3.8-.6.5-.6-.6-.1-1.1.2-1.7.5-1.3.3.3.4 1.2.1 1.9m13.3 2.2c.4 2.1.4 3.6-.1 3.6s-.9-1.1-.9-2.4-.3-3.3-.7-4.3c-.3-1-.3-1.5.1-1.1.4.3 1.1 2.3 1.6 4.2m-136.3.8c-.3.7-.5.2-.5-1.2s.2-1.9.5-1.3c.2.7.2 1.9 0 2.5m13-1c-.3.8-.6.5-.6-.6-.1-1.1.2-1.7.5-1.3.3.3.4 1.2.1 1.9m32.6.3c-.7 2.1-1.3 1.9-1.3-.6 0-1.1.4-1.8 1-1.4.5.3.7 1.2.3 2m-12.6 3.7c-.2 1.3-.4.5-.4-1.7-.1-2.2.1-3.2.4-2.3.2 1 .2 2.8 0 4m4.4-2.3c.7-1.1.9-.9.9.8 0 1.3-1 3.3-2.2 4.5l-2.1 2.1.6-3.3c.4-1.8.8-4.2.8-5.4.2-1.8.2-1.8.6.3.4 1.9.7 2.1 1.4 1m12.3.5c-.7 3-2.4 3.5-2.4.8 0-1.8 2-4.5 2.7-3.8.2.2.1 1.5-.3 3m56.6-1.9c0 .8-.4 1.5-1 1.5-.5 0-1-.7-1-1.5s.5-1.5 1-1.5c.6 0 1 .7 1 1.5m-15.5 1.4c-.3.6-1.1 1.1-1.7 1.1s-.6-.6.2-1.5c1.4-1.7 2.6-1.3 1.5.4m32.5.6c0 .8-.2 1.5-.4 1.5s-.6-.7-1-1.5c-.3-.8-.1-1.5.4-1.5.6 0 1 .7 1 1.5m-96.3 1.7c-.3.8-.6.5-.6-.6-.1-1.1.2-1.7.5-1.3.3.3.4 1.2.1 1.9m15.3.2c0 1.4-.4 2.8-1 3.1-.6.4-1-.7-1-2.4s.5-3.1 1-3.1c.6 0 1 1.1 1 2.4m-55 .1c0 .8-.2 1.5-.4 1.5s-.6-.7-1-1.5c-.3-.8-.1-1.5.4-1.5.6 0 1 .7 1 1.5m22.6 1.2c-1 1-1.9-.5-1-1.8.6-1.1.8-1.1 1.2 0 .2.7.1 1.5-.2 1.8m99.4-.2c0 2.1 4.4 4.7 6.5 3.9 1.3-.5 1.6-.3 1.3.7-.6 1.5-2.9 1.4-6.8-.4-1.6-.8-2.6-2.2-2.8-4.1-.2-1.8 0-2.6.7-2.1.6.3 1.1 1.3 1.1 2m-22.2-.5c.7 0 1.1.9.9 2.2s-.2 1.8 0 1.1c.9-2.6 3.7-2.3 6.8.9 3 3 3.8 3.2 9.8 3.3 6.1 0 8.8.7 7.5 2-.7.7-15.9-1-24-2.6-4.6-.9-6.1-.9-7.3.1-1.3 1-1.3 1.5-.3 2.1.7.4 1 1 .8 1.3-.3.2-1.3-.2-2.3-.9-1.5-1.1-1.6-1.7-.8-3.4.7-1.3.8-2.2.1-2.6-.5-.3-1-1-1-1.4 0-1.3 4.4-3 6.5-2.6 1.1.3 2.6.5 3.3.5m14.3 2.7c-1 1.7-1 1.6-1.1-.3 0-2.3 1.3-4.1 1.8-2.5.2.6-.1 1.8-.7 2.8m25.6-1.5c-.3.8-.6.5-.6-.6-.1-1.1.2-1.7.5-1.3.3.3.4 1.2.1 1.9m.9 6.8c1.3 0 2.4.4 2.4 1 0 .5-1.8 1-4 1-3.5 0-4.2-.4-5-2.8-.6-1.5-1.5-3.5-2-4.4-2.1-3.6-.8-3.2 2.6.9 2.4 2.9 4.4 4.3 6 4.3m5.9-7c.3.5.1 1-.4 1-.6 0-1.1-.5-1.1-1 0-.6.2-1 .4-1 .3 0 .8.4 1.1 1m6.9.6c.9 2.4.7 5.6-.3 5-1.1-.7-2-6.6-1-6.6.4 0 1 .7 1.3 1.6m3.5 2.7c-.1 3.1-.1 3.1-.9.7-1.1-3.6-1.1-5.2 0-4.5.6.3 1 2.1.9 3.8m-129.9.9c0 .5-.7.8-1.5.8-1 0-1.5-1-1.5-2.7 0-2.6.1-2.6 1.5-.7.8 1 1.5 2.2 1.5 2.6m11.7.5c-.3 1-.5.2-.5-1.7s.2-2.7.5-1.8c.2 1 .2 2.6 0 3.5m20.3-2c0 2.2-.2 2.5-1 1.3-1.3-2-1.3-4 0-4 .6 0 1 1.2 1 2.7m100.7-.5c-.3.8-.6.5-.6-.6-.1-1.1.2-1.7.5-1.3.3.3.4 1.2.1 1.9m-146 1c-.3.8-.6.5-.6-.6-.1-1.1.2-1.7.5-1.3.3.3.4 1.2.1 1.9m8 0c-.3.8-.6.5-.6-.6-.1-1.1.2-1.7.5-1.3.3.3.4 1.2.1 1.9m53.3-.2c-2.4 1.5-3.7 1.1-1.6-.5 1.1-.8 2.2-1.2 2.5-.9s-.1.9-.9 1.4m87.1 1.3c-.8.8-1.1.7-1.1-.4 0-2 1.3-3.4 1.8-1.9.3.7-.1 1.7-.7 2.3m-98.1.2c0 1.4-.4 2.5-1 2.5-.5 0-1-1.1-1-2.5s.5-2.5 1-2.5c.6 0 1 1.1 1 2.5m85.7-.3c-.3.8-.6.5-.6-.6-.1-1.1.2-1.7.5-1.3.3.3.4 1.2.1 1.9M248 151.1c0 .5-.9 1.8-2 2.9-1.4 1.4-2 1.6-2 .6 0-.8.8-1.7 1.7-2 1.2-.5 1.4-.9.5-1.8-1.7-1.7-1.5-3.3.3-1.8.8.7 1.5 1.6 1.5 2.1m16.4-2.5c1.8.7 2.2 3.4.5 3.4-1.5 0-3.9-2.6-3.2-3.4.8-.7.8-.7 2.7 0m17.2 3.1c-1.1 1.1-1.9-.6-1.1-2.4.8-1.7.8-1.7 1.2 0 .3 1 .2 2.1-.1 2.4m11.2-1.5c-.3.7-2 1.4-3.9 1.6s-4 1-4.6 1.9c-1.9 2.5-2.5 1-.7-1.6 1.2-1.7 2.2-2.1 4-1.7 1.2.3 2.6.2 2.9-.4.9-1.4 2.7-1.2 2.3.2m6 8.5c.3 4.4 1 8.2 1.7 8.8.7.5 1.5 2.2 1.7 3.6.4 2.2.1 2.5-1.4 2.1-1-.2-1.8.1-1.8.7s.5 1.1 1.1 1.1.9 1.2.7 2.7c-.2 2.1.3 3 2 3.8 2.8 1.2 2.5 3.9-.6 4.3-1.6.3-2.2-.2-2.2-1.7 0-1.1-.6-2.4-1.4-2.8-1-.6-1.5-4.6-1.8-16.6-.3-10.4-.1-15.4.5-14.8s1.2 4.5 1.5 8.8m-55.8-7.5c0 .7-.5 2-1 2.8-.8 1.3-1 1.2-1-.3 0-.9-.6-1.7-1.2-1.7-.9 0-.8-.4.2-1 2-1.3 3-1.2 3 .2m67.4-.6c.9.3 1.3 1 1 1.5-.8 1.4-2.1 1.1-2.8-.6-.6-1.7-.4-1.8 1.8-.9m-87.9 2.3c-.3.6-1.1 1.1-1.7 1.1s-.6-.6.2-1.5c1.4-1.7 2.6-1.3 1.5.4m-65.5 1.2c0 .5-.4.9-1 .9-.5 0-1-.7-1-1.6 0-.8.5-1.2 1-.9.6.3 1 1 1 1.6m121.3 1.9c-.7 2.8-1.3 2.5-1.3-.6 0-1.4.4-2.3.9-2s.7 1.5.4 2.6m-72.5-.1c1.2 1.1 2.2 2.4 2.2 3 0 1.8-3.7 1.2-4.4-.7-.3-.9-.9-2.3-1.2-3-.8-1.8.7-1.4 3.4.7m67.7-.9c.3.5-.1 1-1 1s-1.3-.5-1-1c.3-.6.8-1 1-1s.7.4 1 1m13.9.6c.9 2.2-.3 3.2-1.4 1.4-1.2-1.9-1.2-3-.1-3 .5 0 1.2.7 1.5 1.6m83.1.5c-.6 1.9-.4 2.1 1.9 1.5 1.8-.4 2.6-.2 2.6.7 0 .8-1.3 1.3-3.4 1.4-3.2.1-3.4-.1-3.1-2.6.3-3.2.3-3.1 1.6-3.1.6 0 .8.9.4 2.1m-143.5.5c0 .8.5 1.2 1 .9.6-.3 1-.1 1 .5 0 1.8-3.4.7-3.8-1.3-.2-.9.1-1.7.7-1.7s1.1.7 1.1 1.6m114.1-.3c-.6.8-.8 1.7-.4 2 .3.4-.8.7-2.5.7-1.8 0-3.2-.5-3.2-1 0-.6.9-1 1.9-1 1.1 0 2.3-.5 2.6-1 .3-.6 1.1-1 1.7-1 .7 0 .7.4-.1 1.3m22.4-.4c.3.6-.4 2-1.6 3.2l-2.2 2.2.7-2.7c.6-2.6.6-2.6-1.2-.9-1.1 1.1-1.5 2.3-1.1 2.9 1.5 1.8 2 10.3.9 12.2-.9 1.4-1 1-.6-1.7.5-2.6.3-3.2-.9-2.7-.9.3-1.9-.3-2.5-1.4-.8-1.5-2.1-2-5.1-2-2.6 0-3.8-.4-3.3-1.1.3-.6 1.7-.8 3-.5 1.4.4 2.4.2 2.4-.4 0-.5.7-1 1.5-1s1.5.9 1.5 2 .7 2 1.5 2c1.2 0 1.4-.7.9-2.8-.4-1.5-1.1-2.8-1.5-3s-.5-1-.2-1.8c.8-2.1-.7-1.7-3.4.8-1.3 1.2-2.3 1.6-2.3 1s.5-1.4 1-1.7c.6-.3 1-1.1 1-1.7 0-.7-.5-.6-1.4.1s-1.7.8-2 .2c-.9-1.3 1-1.8 8.1-2 3.4-.1 6.4.3 6.8.8m23.5.6c0 .8-.4 1.5-1 1.5-.5 0-1-.7-1-1.5s.5-1.5 1-1.5c.6 0 1 .7 1 1.5M282 158c0 1.1-.7 2-1.5 2-1.5 0-2.1-2.1-.8-3.3 1.2-1.3 2.3-.7 2.3 1.3m64-.5c-.7.8-2 1.5-2.9 1.5-1.3-.1-1.3-.3.3-1.5 2.6-1.9 4.2-1.9 2.6 0m-100.5 2.2c-1 1.8-1.1 3.1-.4 3.9.6.8.6 1.4.1 1.8-.6.3-1.2-.1-1.6-.9-.3-.8-1.2-1.5-2.1-1.5-.8 0-1.5-.3-1.5-.6 0-1 2.8-3.4 3.9-3.4.6 0 1.1-.5 1.1-1 0-.6.4-1 .9-1 .6 0 .4 1.2-.4 2.7m14.2-.5c-.3.8-.6.5-.6-.6-.1-1.1.2-1.7.5-1.3.3.3.4 1.2.1 1.9m12.1 2.8c1.5 0 1.5.2.2 1-2.1 1.4-3 1.2-3-.5 0-.7-.7-1.8-1.6-2.3-1-.6-1.4-1.4-.9-2.2.6-.9 1.2-.5 2.2 1.4.7 1.4 2.1 2.6 3.1 2.6m111.7-4c.3.5.1 1-.4 1-.6 0-1.1-.5-1.1-1 0-.6.2-1 .4-1 .3 0 .8.4 1.1 1m-226.7 2.7c1.9 4.3 1.3 6.2-.8 2.3-2.1-3.8-2.4-5-1.2-5 .4 0 1.3 1.2 2 2.7m133.3.6c-1.6 1.6-2.6 0-1-1.9.9-1.1 1.5-1.2 1.7-.4.2.6-.1 1.7-.7 2.3m87.9-1.6c-.1 2.5-2.6 5.6-3.9 4.8-1.4-.8-1.4 1.8 0 3.2.8.8.8 1.3 0 1.7-.6.4-1.1.1-1.1-.8 0-.8-.4-1.6-.9-1.8s-.7-1.6-.4-3.1c.4-1.9.8-2.4 1.3-1.7 1.1 1.7 3 .3 3-2.1 0-1 .5-1.9 1-1.9.6 0 1 .8 1 1.7m-114 .3c0 .5-.2 1-.4 1-.3 0-.8-.5-1.1-1-.3-.6-.1-1 .4-1 .6 0 1.1.4 1.1 1m42.4.5c-.6 1.6-2.4 2.1-2.4.7 0-1.1 1.1-2.2 2.1-2.2.5 0 .6.7.3 1.5m8 0c1.7 1.3 1.5 3.5-.4 3.5-1.1 0-4-2.9-4-4.1 0-1.3 2.2-1.1 4.4.6m31.2 1.7c-.9.5-1.4 1.3-1.1 1.8s.1 1.1-.5 1.5c-.5.3-1-.3-1-1.4 0-1.2-.4-2.1-1-2.1-.5 0-1 .7-1 1.7 0 .9-.3 1.4-.6 1-1.4-1.4.8-4.6 3.4-4.9 3.1-.4 4.2 1.1 1.8 2.4m-189.7 4.3 2.3 4-2.6-3c-4.2-4.8-4.6-5.3-4.6-6.7 0-1.7 2.1.7 4.9 5.7m8.7-5c1.9.8 5.1 3 6.9 5 1.9 1.9 3.9 3.5 4.5 3.5.5 0 1 1 1 2.1 0 1.8-.2 1.9-1.5.9s-1.5-.9-1.5 1c0 2.7-2 2.2-3.1-.8-.6-1.6-.5-2.2.6-2.2.8 0 1.5-.5 1.5-1 0-.6-1-.8-2.3-.5-1.5.4-3.2-.1-4.9-1.4-1.4-1.2-3.1-2.1-3.7-2.1q-1.65 0-1.2-3.9c.2-.7-.2-1-.8-.6-.6.3-1.1.1-1.1-.4 0-1.5 1.4-1.4 5.6.4m48.9-.5c.3.6-.1.7-.9.4-1.8-.7-2.1-1.4-.7-1.4.6 0 1.3.4 1.6 1m81.5.6c0 .8-.5 1.2-1 .9-.6-.4-.8-1.1-.5-1.6.9-1.4 1.5-1.1 1.5.7m35.3.6c-.5.7-1.8 3.8-3 6.8-1.1 3-2.4 6.4-2.8 7.5-.7 1.8-.9 1.8-1.2.3-.3-1 .3-3.2 1.1-5 2.5-4.8 1.8-5.8-.9-1.3-3 4.9-3.3 3.7-.4-2.1 1.3-2.9 2.5-4.1 3.5-3.7.8.3 1.4-.1 1.4-.9 0-1.6 2.1-4 2.8-3.3.3.2.1 1-.5 1.7M389 161c0 .5-.5 1-1.1 1-.5 0-.7-.5-.4-1 .3-.6.8-1 1.1-1 .2 0 .4.4.4 1m-177.4 3.5c.3.8.2 2-.3 2.9-.6 1.1-1.2.5-2.5-2.5-1.6-3.8-1.6-3.9.3-2.8 1.1.6 2.3 1.6 2.5 2.4m15-1.7c-1.2 1.1-6.4.9-6-.3.3-.7 1.8-1 3.5-.7 1.6.2 2.7.7 2.5 1m9.6-.6c-.9.9-1.5.9-2.4 0s-.7-1.2 1.2-1.2 2.1.3 1.2 1.2m14.4-.2c.8 0 1.4.7 1.4 1.5 0 1.4-.3 1.4-3 0-3.1-1.6-4.2-3.2-1.4-2.1.9.3 2.2.6 3 .6m35 1.6c-.4.9-.9 1.5-1.1 1.2-.3-.3-.3-1.3.1-2.2s.9-1.5 1.1-1.2c.3.3.3 1.3-.1 2.2M326 162c0 .5-.4 1-.9 1-.6 0-1.3-.5-1.6-1-.3-.6.1-1 .9-1 .9 0 1.6.4 1.6 1m11.6.5c-1.5 1.1-1.7 2.2-1.3 5.2.4 2.1.2 4.5-.3 5.3s-1 1.3-1 1c-1.1-7.9.2-13.1 3.4-13 .6 0 .3.7-.8 1.5m27.8 2.1c-.2 2.9-1.3 5.8-3.9 10.4-.8 1.4-1.5 1.9-1.5 1.2s.8-2.4 1.7-3.8c1.4-2.2 1.5-3.1.5-5.7-.9-2.3-.9-3.4 0-4.4 1.7-2.1 3.3-.9 3.2 2.3m4.7-1.2c-.7.8-1 2-.7 2.5.4.5-.3 2.5-1.5 4.3-1.8 2.9-2 3-1.5.8 1.5-7 2-8.6 3-9.2 1.6-1.1 2 0 .7 1.6m-137.1.1c2.2 2.6.5 3.7-1.8 1.1-1.5-1.8-1.8-2.6-.8-2.6.7 0 1.9.7 2.6 1.5m29.8.6c-1.9 1.3-2.8 1.1-2.8-.5q0-1.35 2.1-.9c1.6.4 1.7.8.7 1.4m39.2 1.2c0 .5-.4.5-1 .2-.5-.3-1-1.4-1-2.3 0-1.5.2-1.5 1-.2.5.8 1 1.9 1 2.3m-87-1.3c0 .5-.4 1-1 1-.5 0-1-.5-1-1 0-.6.5-1 1-1 .6 0 1 .4 1 1m42 0c0 .5-.2 1-.4 1-.3 0-.8-.5-1.1-1-.3-.6-.1-1 .4-1 .6 0 1.1.4 1.1 1m18.6 2.5c-.3.8-1 1.5-1.5 1.5s-.4-1.1.2-2.5c1.2-2.5 2.3-1.6 1.3 1m-34.6-1.6c0 .5.3 1.7.7 2.6.5 1.6.4 1.5-1.5-.1-2.6-2.2-2.8-3.4-.7-3.4.8 0 1.5.4 1.5.9m77 0c0 1.2-2 2.5-2.7 1.8s.6-2.7 1.8-2.7c.5 0 .9.4.9.9m3.1 3.5c-1.3 2.5-2.2 3.3-2.7 2.5-.4-.7-.2-1.5.4-1.7.7-.2 1.2-.9 1.2-1.6 0-1.2 2.1-3.8 2.7-3.3.1.2-.6 2-1.6 4.1m-97.5 3.4c2 2 1.2 2.5-1.8 1.1-2.4-1-2.5-1.3-1.4-4.8l1.1-3.6.3 2.9c.2 1.6 1 3.6 1.8 4.4m108.8-5.3c-.6 1.6-2.4 2.1-2.4.7 0-1.1 1.1-2.2 2.1-2.2.5 0 .6.7.3 1.5m6.6.5c0 1.1-.2 2-.4 2s-.6-.9-.9-2-.1-2 .4-2 .9.9.9 2m-77 3.5c0 .6-1.1 2.2-2.5 3.5s-2.5 2.1-2.5 1.8c0-.4-.3-1.4-.7-2.4-.5-1.4-.2-1.6 1.5-1.2 1.7.5 2.2.2 2.2-1.2 0-1.1-.4-2.2-1-2.5-.5-.3-1-1.1-1-1.7s.9-.3 2 .7 2 2.3 2 3m91.6-2.3c1.3 1.3 2.3 3.4 2.3 4.8v2.5l-1.2-2.5c-.6-1.4-2-3.1-2.9-3.8-1.7-1.3-2.4-3.2-1.2-3.2.3 0 1.7 1 3 2.2M163 170c0 1.4-1.4 1.2-2.8-.2-1.9-1.9-1.4-3 .8-1.8 1.1.6 2 1.5 2 2m67.6-.6c-.1 1.9-.4 2.1-1.8 1.3-1.8-1.2-1.3-3.7.7-3.7.7 0 1.2 1 1.1 2.4m7.4-.4c.8 1.1 2 2 2.6 2 1.1 0 2.8 3.5 2.5 5.2-.1.5.6.8 1.4.8s1.5.4 1.5 1c0 2.1-4.4.1-4.8-2.3-.3-1.8-1.8-3.5-3.4-3.9-2.5-.5-2.4 1.5.1 2.7 2.3 1.1 2.7 2 1.1 3-.5.3-1 1.1-1 1.6 0 .6.5.7 1 .4.6-.4 1.7-.2 2.5.5 1 .8 1.9.8 3.3.1 1.3-.7 2.2-.7 3 .1.9.9 1.2.7 1.2-1 0-2.5 1.5-2.9 2.4-.7.9 2.4 3.9 1.9 3.3-.6l-.6-2.1 2.3 2.1c1.2 1.1 3.1 2.1 4.2 2.1 1.5 0 1.6-.2.4-1-2.5-1.6-.1-2.4 2.7-.9 2.1 1.1 2.7 1.1 3 .1.5-1.3 2.3-.7 2.3.8 0 1.4-11.4 3-12.2 1.6-.5-.7-.8-.4-.8.8 0 1.5-.3 1.6-1.5.6-.8-.7-2.3-.9-3.6-.5-3.1 1-16.9 1.2-16.9.3 0-.5.6-.8 1.3-.8 1.7 0 1.7-4.1-.1-5.9-.7-.8-1.1-2.3-.8-3.5s.6-2.7.6-3.4c0-1.8 1.4-1.5 3 .8m43.6-.6c.8.8 1.4 2.1 1.4 2.8 0 .8-.3.9-.8.2-.4-.6-1.5-1.3-2.5-1.7s-1.5-1.1-1.2-1.7c.8-1.3 1.4-1.3 3.1.4m13.2 4.1c.1 3.2-.1 4.5-.7 3.6-.4-.7-.6-2.2-.4-3.2.7-2.6-4-4.8-6.8-3.1-2.3 1.5-2.9 1.5-2.9.2 0-1.4 3.4-2.6 7.3-2.5 3.1.1 3.2.2 3.5 5m55.7-3.3c.6.6.5 1.2-.5 1.8-1.3.8-1.2 1 .2 1 1.7 0 4.4 3.7 3.5 4.6-.3.3-1.7-.6-3.1-1.9-1.8-1.7-2.4-3-1.9-4.3.5-1.4.3-1.6-1.1-1.1-2.1.8-3.9 0-3-1.4.6-1.1 4.3-.3 5.9 1.3m-143.2.5c2.3 1.8 3.4 6.3 1.7 6.3-.5 0-1.7-1.5-2.6-3.3-1-1.7-1.9-2.6-2.1-1.9-.6 1.6-2.3.6-2.3-1.4 0-1.9 2.7-1.8 5.3.3m18.7-.7c0 .5-.2 1-.4 1-.3 0-.8-.5-1.1-1-.3-.6-.1-1 .4-1 .6 0 1.1.4 1.1 1m29.5 2c-.6.9-.9.9-1.6-.1-1-1.7 0-3.4 1.3-2.1.6.6.7 1.6.3 2.2m50-2c.3.5.1 1-.4 1-.6 0-1.1-.5-1.1-1 0-.6.2-1 .4-1 .3 0 .8.4 1.1 1m36.5 1c0 .5-.5 1-1.1 1-.5 0-.7-.5-.4-1 .3-.6.8-1 1.1-1 .2 0 .4.4.4 1m-125.8 3.5c-.3.5-.7.4-1-.3-.3-.9-.9-.9-2.5 0-2.2 1.1-2.2 1.1-.3-1 1.4-1.6 2.1-1.8 3.1-.9.7.7 1 1.6.7 2.2m61.9-1.8c1.3 1.7 1.3 1.7-.6.3-1.1-.8-2.2-1.6-2.4-1.7q-.3-.3.6-.3c.6 0 1.7.8 2.4 1.7m32.2-.2c.4.8.2 1.7-.3 2-.6.4-1-.1-1-.9 0-1-.6-1.3-1.7-.9s-1.4.3-.9-.5c1-1.7 3.3-1.5 3.9.3m5.2-.5c.3.6.3 1.9 0 3-.6 1.7-.8 1.8-2.1.6-.8-.8-1.4-2.2-1.4-3 0-1.8 2.5-2.2 3.5-.6m-48.3 1.2c-.7.7-1.2 2.1-1.2 3.1 0 1.6-.3 1.7-1.5.7-.8-.7-1.5-1.6-1.5-2.1s.7-.9 1.5-.9 1.5-.5 1.5-1c0-.6.5-1 1.2-1 .9 0 .9.3 0 1.2m62 4c-1.7 1.7-2.4.4-1.6-2.8.7-2.8.7-2.8 1.7-.6.7 1.6.7 2.6-.1 3.4m16.3-4.2c.3.5-.1 1-.9 1-.9 0-1.6-.5-1.6-1 0-.6.4-1 .9-1 .6 0 1.3.4 1.6 1m23.6 3.3c-1.3 1.3-1.5-.1-.4-3 .7-1.7.8-1.7 1.1.1.2 1-.1 2.3-.7 2.9m-121.7-1.7c.9 2.4.8 2.5-1.3 1.2-1.1-.7-1.7-1.6-1.5-2 .8-1.3 2.1-.9 2.8.8m4.8.9c.3 1.3.1 2.2-.3 1.9-.9-.5-1.3-4.4-.5-4.4.2 0 .6 1.1.8 2.5M228 174c0 .5-.2 1-.4 1-.3 0-.8-.5-1.1-1-.3-.6-.1-1 .4-1 .6 0 1.1.4 1.1 1m59.5 0c.3.5.1 1-.4 1-.6 0-1.1-.5-1.1-1 0-.6.2-1 .4-1 .3 0 .8.4 1.1 1m-84.9 3.4c2.1 1.9 3.6 3.7 3.2 4.1-.6.6-7.8-5.7-7.8-6.9 0-1.1.8-.6 4.6 2.8m77.4-2.2c0 1-1.8.9-4.5-.2-1.6-.6-1.4-.8 1.3-.7 1.7 0 3.2.4 3.2.9m69.3.9c2.6 3 1.5 3.4-1.3.4-1.3-1.4-1.9-2.5-1.4-2.5s1.8.9 2.7 2.1m-135.3-.7c0 .2-.8 1-1.7 1.7-1.6 1.3-1.7 1.2-.4-.4s2.1-2.1 2.1-1.3m7 1.6c0 1.5-.7 2-2.5 2-2.4 0-2.4-.1-.8-2 1-1.1 2.1-2 2.5-2 .5 0 .8.9.8 2m5.5-.3c1.2 1.6 1.4 1.6 2.9 0 2.5-2.5 3.6-2.1 3.6 1.4 0 2.4-.3 2.9-1.8 2.5-.9-.3-3.2-.2-4.9.3-2.7.8-3.2.6-3.6-1.1-1.1-4.2 1.5-6.3 3.8-3.1m57.2-.4c-.4 1 1.8 2.5 6.4 4.6 3.8 1.8 6.9 3.6 6.9 4.2 0 1.6-2.3 1-7.9-2.1-5.8-3.2-8.4-3.9-6.1-1.6s13 7.6 15.2 7.6c1.1 0 3.2 1 4.6 2.1l2.7 2.2-2.7-.7c-1.6-.3-2.8-.2-3 .5-.3.8-1.6.8-4.7-.1-3.5-.9-4-1.4-3.1-2.6.8-.8.8-1.4.2-1.4-.5 0-1.2.6-1.5 1.4-.4 1-2.4 1.6-5.4 1.8-7.5.5-5.6 2.2 3.5 3.2 7.5.8 8.2 1.1 8.2 3.1 0 1.8-.5 2.1-2.9 1.7-2-.3-2.8-.8-2.4-1.8.3-.8.1-1.4-.5-1.4s-1.2.6-1.4 1.2c-.3.7-1.3 1.3-2.4 1.4-5.6.3-6.7.5-6 1.1.4.5 1.3.8 1.9.8.7 0 1.3 1 1.3 2.2.1 1.8-.4 2.3-2.2 2.3-1.2 0-3 .3-3.8.6-1.2.5-1.5.2-1-1 .3-.9.1-1.6-.5-1.6s-1.1.4-1.1 1c0 .5-.4 1-.9 1s-.7-.8-.4-1.8c.3-1.2-.4-2.4-2-3.5-2.2-1.4-2.7-1.4-3.7-.2-1.7 2-3.4 1.9-2.6-.1.4-1.2.2-1.5-.9-1-.8.3-1.5.1-1.5-.3 0-.5 1.9-1.2 4.2-1.6 3.4-.6 3.8-.9 2.4-1.7-1-.6-3.1-.7-4.7-.4l-2.9.5v-10.7l6.9-4.1c3.8-2.2 8.1-4.1 9.5-4.1 1.3 0 2.8-.5 3.1-1 .9-1.5 1.8-1.2 1.2.3m-10.7.7c0 .5-.4 1-.9 1-.6 0-1.3-.5-1.6-1-.3-.6.1-1 .9-1 .9 0 1.6.4 1.6 1m36.5 0c.3.5.1 1-.4 1-.6 0-1.1-.5-1.1-1 0-.6.2-1 .4-1 .3 0 .8.4 1.1 1m-17.6.6c3.4.7 4.2 2.4 1.1 2.4-1.1 0-2-.4-2-.9s-1-1.2-2.2-1.4c-1.3-.2-1.8-.5-1.2-.6.6 0 2.6.2 4.3.5m28.1.4c0 .5-.2 1-.4 1-.3 0-.8-.5-1.1-1-.3-.6-.1-1 .4-1 .6 0 1.1.4 1.1 1m27.4.6c.5 1.4.4 1.5-.9.4-1.7-1.4-1.9-2-.6-2 .5 0 1.2.7 1.5 1.6m-172.7 1.6c-.3.8-.6.5-.6-.6-.1-1.1.2-1.7.5-1.3.3.3.4 1.2.1 1.9m140.6-1.6c1.1 1.1-.3 2.4-1.8 1.8-.8-.4-1.2-1-.9-1.5.6-1.1 1.8-1.2 2.7-.3m-6.2 2.1c1.3 1.5 1.2 1.5-.8.4-2.4-1.2-2.9-2.1-1.4-2.1.5 0 1.5.7 2.2 1.7m19.6.8c-.4.8-1.1 1.5-1.7 1.5-1.4 0-1.3-2.7.3-3.3s2.1-.1 1.4 1.8m10.3-2.1c0 .3-.4.8-1 1.1-.5.3-1 .1-1-.4 0-.6.5-1.1 1-1.1.6 0 1 .2 1 .4m-123 1c0 .3-.4.8-1 1.1-.5.3-1 .1-1-.4 0-.6.5-1.1 1-1.1.6 0 1 .2 1 .4m104 1.1c0 .8-.4 1.5-1 1.5-.5 0-1-.7-1-1.5s.5-1.5 1-1.5c.6 0 1 .7 1 1.5m-153.2 1.9c.3 1.2-.1 1.7-1 1.4-.7-.3-1.5-1.3-1.6-2.2-.3-1.2.1-1.7 1-1.4.7.3 1.5 1.3 1.6 2.2m6.2-.4c.8.5 1.1 1 .5 1-.5 0-1.7-.5-2.5-1s-1-1-.5-1c.6 0 1.7.5 2.5 1m37.9 1.6c-1.5 1.8-2.2 1.3-1.3-1 .3-.9 1-1.3 1.6-1 .5.3.4 1.2-.3 2m102.5 1.2c-.8.8-1.8 1.1-2.2.8-.3-.4 0-1.1.8-1.6.8-.6 1.1-1 .7-1-.5 0-.5-.5-.1-1.1.4-.8.9-.7 1.4.2.5.7.2 1.8-.6 2.7M154 183.9c0 1.1-3.1 2.4-3.9 1.6-.3-.3.1-1 .9-1.5 1.9-1.2 3-1.2 3-.1m7.4.6c.6 1.7-.9 2.1-1.9.5-1.1-1.8-2.7-1.1-2.2 1 .4 1.6 0 2-1.8 2h-2.3l2.1-2.5c2.5-2.8 5.2-3.2 6.1-1m44.1-.2c1 .8 1.5 1.9 1.1 2.5-1.1 1.8-2.6 1.4-2.6-.7 0-1.1-.6-2.2-1.2-2.4-.7-.3-.8-.6-.2-.6.5-.1 1.8.5 2.9 1.2m103.9.2c-.4.8-.1 2.2.6 3 .9 1.1.9 1.5.1 1.5-.7 0-1 .3-.7.8.2.4-.3 1.6-1.1 2.7-1.5 1.9-1.5 1.8-.9-1.4.3-1.8.6-4.4.6-5.7s.4-2.4 1-2.4c.5 0 .7.7.4 1.5m-139.9.4c.3.5.1 1.2-.5 1.6-.5.3-1-.1-1-.9 0-1.8.6-2.1 1.5-.7m90.5 2.6c0 2-1 1.9-2.6-.3-1.3-1.6-1.3-1.6-1.4.2 0 1 .8 2.5 1.7 3.2 1 .7 1.5 1.6 1.1 2-1.1 1-3.8-1.6-3.8-3.6 0-3.7 1.1-5 3.1-3.9 1 .5 1.9 1.6 1.9 2.4m65-2.5c0 .5-.8 1-1.7 1-1.5 0-1.6-.2-.3-1 1.9-1.2 2-1.2 2 0m-93 1c0 .5-.4 1-1 1-.5 0-1-.5-1-1 0-.6.5-1 1-1 .6 0 1 .4 1 1m21.5 2.2c.8 4.2.2 14.8-.7 14.8-.5 0-.7-3.1-.7-6.9.1-3.8-.2-7.8-.6-9-.3-1.2-.2-2.1.4-2.1.5 0 1.3 1.5 1.6 3.2m66-2.2c1.2.5 1.4.9.6.9-1.1.1-1 .5.5 1.7 1.7 1.4 1.7 1.5.1 1-1-.3-3.1-.6-4.5-.7-1.5 0-2.1-.3-1.4-.6.6-.2 1.2-1.1 1.2-1.9 0-1.6.6-1.6 3.5-.4m-171.9 1.4c1 .8 1.6 1.8 1.1 2.2-.4.4-.7.2-.7-.4 0-.7-.9-1.2-2-1.2s-2-.5-2-1c0-1.4 1.3-1.2 3.6.4m55.4.2c0 .8-.5 1.2-1 .9-.6-.4-.8-1.1-.5-1.6.9-1.4 1.5-1.1 1.5.7m21-1.2c0 .3-.4.8-1 1.1-.5.3-1 .1-1-.4 0-.6.5-1.1 1-1.1.6 0 1 .2 1 .4m-47.7 3.5c.9 1.6 1.7 3.5 1.6 4.3 0 .7-.6.1-1.2-1.3-.7-1.4-1.8-3.3-2.6-4.3-.7-.9-.9-1.6-.4-1.6s1.6 1.3 2.6 2.9m51.1-1.4c.3.8.1 1.5-.4 1.5-.6 0-1-.7-1-1.5s.2-1.5.4-1.5.6.7 1 1.5m14.5 6.6c-.1 3.8-.4 6.8-.6 6.5-1-.9-1.1-14.6-.2-14 .5.3.9 3.7.8 7.5m8.7-5.5c.4 1.4.4 4.9.1 7.7-.4 3.5-.2 6 .8 7.7 1.2 2.2 1.4 2.3 2 .7.5-1.2 1.1-1.5 2-.7.6.5 1.5.7 1.8.3 1.3-1.2.6 2.2-.9 4.7l-1.5 2.5.4-2.8c.2-1.5 0-2.7-.4-2.7-.5 0-.9.4-.9.8 0 .5-.7 1.7-1.5 2.8-1.3 1.8-1.4 1.8-.9-.6l.5-2.5-1.6 2.2c-1.9 2.5-4.5 2-4.5-.8 0-1-.7-1.9-1.5-1.9s-1.5-.4-1.5-.9 1.2-.9 2.6-.9c2.2 0 2.5.4 2.1 2.4-.4 2.5.8 3.4 1.5 1.1.7-2 .2-17-.6-19.5-.4-1.3-.3-2.2.3-2.2s1.4 1.2 1.7 2.6m-78.2 0c1.1 2.8.6 3.9-.9 2-.8-1.1-1.5-2.3-1.5-2.8 0-1.4 1.8-.9 2.4.8m20.4.2c.6 1.8-1.5 1.4-2.2-.4-.4-1-.1-1.4.6-1.2.6.2 1.4 1 1.6 1.6m23.7-.8c.3.5-.1 1-.9 1-.9 0-1.6-.5-1.6-1 0-.6.4-1 .9-1 .6 0 1.3.4 1.6 1m21.9 6.7c.2 3.4.7 6.6 1 7.2.4.6.2 1.1-.4 1.1-1.4 0-1.7-1.2-2.4-9.4-.4-4.6-.2-6.6.4-6s1.2 3.8 1.4 7.1m6.6-2.8c0 2.8-.4 5.2-.8 5.5-.4.2-.8-2-.8-5 .1-3 .4-5.4.9-5.4.4 0 .7 2.2.7 4.9M144 190c0 .5-.4 1-1 1-.5 0-1-.5-1-1 0-.6.5-1 1-1 .6 0 1 .4 1 1m9.3.4c.6 1.6-.2 2.8-1.4 2-1.2-.7-1.1-3.4 0-3.4.5 0 1.1.6 1.4 1.4m8.7 1.2c0 .8-.7 1.4-1.5 1.4-1.5 0-2.1-2.1-.9-3.3 1-.9 2.4.2 2.4 1.9m50.5-.5c0 .8-1 1.5-2.2 1.7-1.3.2-2.3 1-2.3 1.8s-.7 1.4-1.6 1.4c-2.2 0-1.2-2.3 1.4-3.5 1.2-.5 2.2-1.6 2.2-2.3 0-.8.6-1.2 1.3-1 .6.3 1.2 1.1 1.2 1.9m-45.5.4c0 .8-.4 1.5-1 1.5-.5 0-1-.7-1-1.5s.5-1.5 1-1.5c.6 0 1 .7 1 1.5m68.5 8.1c-.3 2.4-1 4.2-1.6 3.9-1.2-.8-1.2-6.5 0-6.5.6 0 .8-1.7.5-3.8-.4-3.6-.4-3.6.7-.9.6 1.6.8 4.7.4 7.3m12.4-5.4c-.1 7.4-1.7 9.2-1.8 2-.1-3.5.3-6.2.9-6.2s1 1.9.9 4.2m-90.9-.7c0 .8-.4 1.5-1 1.5-.5 0-1-.7-1-1.5s.5-1.5 1-1.5c.6 0 1 .7 1 1.5m13-.5c0 .5-.4 1-1 1-.5 0-1-.5-1-1 0-.6.5-1 1-1 .6 0 1 .4 1 1m22.7 3.8c.4 5.9-1 7.3-1.7 1.7-.3-2.8-.4-5.4-.2-5.8.7-1.6 1.6.4 1.9 4.1m34.4 1.5c-.3 6.7-.9 8.7-2.7 8.7-1.6 0-2.1-7.5-.5-8.4.5-.4.7 1.3.5 3.6-.3 3.2-.2 3.8.5 2.3.5-1.1 1-4.4 1-7.4.1-3 .4-5.1.8-4.7.4.3.6 3 .4 5.9m-7.8-2.8c-.2 1.1-.7 4.2-1.2 7l-1 5 .3-6.7c.2-4.3 0-6.9-.8-7.2-.6-.3-.2-.4.9-.3 1.3.2 1.9.9 1.8 2.2m41.4.7c-.3.7-.5.2-.5-1.2s.2-1.9.5-1.3c.2.7.2 1.9 0 2.5m-56.7-1.3c0 .5-.7 1.4-1.5 2.1-1.2 1-1.5 1-1.5-.2 0-.8.3-1.8.7-2.1.9-1 2.3-.9 2.3.2m-8.8 3.3c-.9.9-1.2.7-1.2-1.2s.3-2.1 1.2-1.2.9 1.5 0 2.4m15.5-.7c-.4.8-1.1 1.5-1.7 1.5-.7 0-.7-.6 0-2.1 1.3-2.3 2.6-1.9 1.7.6m4.6 1c.2-1.1.3-.7.1.9s-.4 4.2-.4 5.8c0 1.7-.4 2.7-1 2.3s-.8-2.1-.4-4c.3-1.9.1-3.5-.5-3.9s-1.1-1.7-1-2.9c.1-1.9.2-1.8 1.4.8 1.1 2.6 1.4 2.7 1.8 1m43.3-1.1c.3 1.3.4 3.5.1 4.7-.3 1.5-.5 1-.6-1.6-.1-3.9-1.4-4-2.4 0-.3 1.1-.5.4-.6-1.8-.1-4.3 2.5-5.3 3.5-1.3m-27.6 1.3c-.1 2.4-.2 2.6-1.1 1-.5-.9-.7-2.2-.4-2.7 1-1.7 1.5-1.1 1.5 1.7m-32.7 3c-.8 6.5-1.3 6.7-1.3.5 0-2.9.4-5.2 1-5.2s.7 1.9.3 4.7m8.7-2.7c0 .5-.2 1-.4 1-.3 0-.8-.5-1.1-1-.3-.6-.1-1 .4-1 .6 0 1.1.4 1.1 1m-6 3.7c0 2.6-.3 3.4-1.1 2.6-.9-.9-.3-6.3.7-6.3.2 0 .4 1.7.4 3.7m19.7 1.5c-.2 1.3-.4.5-.4-1.7-.1-2.2.1-3.2.4-2.3.2 1 .2 2.8 0 4m-25.5-1c-.9.9-1.2.7-1.2-1.2s.3-2.1 1.2-1.2.9 1.5 0 2.4m8.1 2c-.4 4.6-.1 5.6 2.2 8 2.8 3.1 2.2 3.7-1.3 1.2-1.8-1.3-2.2-2.5-2.2-7.3s.5-7.1 1.5-7.1c.1 0 0 2.4-.2 5.2m7.7.3c0 3.5.3 4.3 1.5 3.9.8-.4 1.5-.2 1.5.3 0 1.2-3.7 4.3-4.3 3.6-.3-.2-.3-3 0-6.1.4-4 .2-5.4-.5-4.7-.6.5-1.2 2.8-1.5 5l-.4 4-.2-4.5-.3-4.5-1.3 4-1.3 4-.1-3.8c-.1-3 .3-3.9 2.2-4.7 4.1-1.6 4.7-1.2 4.7 3.5m62-2.3c0 .6-.7.7-1.6.4s-1.8-.6-2-.6c-.3 0-.3-.4.1-1 .7-1.1 3.5-.2 3.5 1.2m18.9.1c1.1-.4 1-.1-.4 1-2.1 1.6-5.1.5-3.9-1.5.4-.6 1-.6 1.6 0s1.8.8 2.7.5m-99.7 3.9c-.9.9-1.2.7-1.2-1.2s.3-2.1 1.2-1.2.9 1.5 0 2.4m48.8-.8c0 .8-.7 1.7-1.6 2q-1.5.6-.9 2.7c.5 1.5.4 1.9-.5 1.4-.6-.4-1-1.8-.7-3.1.2-1.3 0-2.4-.5-2.4s-.6-.5-.3-1c.9-1.5 4.5-1.2 4.5.4m-6 0c0 .2-.7.6-1.5 1-.8.3-1.5.1-1.5-.4 0-.6.7-1 1.5-1s1.5.2 1.5.4m-46 2.1c0 .8-.2 1.5-.4 1.5s-.6-.7-1-1.5c-.3-.8-.1-1.5.4-1.5.6 0 1 .7 1 1.5m5.7.7c-.3.8-.6.5-.6-.6-.1-1.1.2-1.7.5-1.3.3.3.4 1.2.1 1.9m65.4.6c-.6 1.1-.7 2.2-.4 2.6.3.3.1.6-.5.6-1.5 0-1.5-.2-.2-3.6.6-1.5 1.3-2.4 1.6-2.1s.1 1.4-.5 2.5m-39.9.7c.3 1.4.1 2.5-.3 2.5-.5 0-.9-.4-.9-.9s-.3-1.6-.6-2.5-.2-1.6.4-1.6c.5 0 1.2 1.1 1.4 2.5m22.5-.3c-.3.8-.6.5-.6-.6-.1-1.1.2-1.7.5-1.3.3.3.4 1.2.1 1.9m-42.9.6c.2.7-.2 1-1.2.6-.9-.3-1.6-1.1-1.6-1.6 0-1.3 2.3-.5 2.8 1m27.8.9c-1 1-1.9-.5-1-1.8.6-1.1.8-1.1 1.2 0 .2.7.1 1.5-.2 1.8m37 1c-.4.4-1.1.1-1.6-.7-1.6-2.5-1.1-3.5.7-1.7.9.9 1.3 2 .9 2.4m-47.6-2.3c0 .3-.4.8-1 1.1-.5.3-1 .1-1-.4 0-.6.5-1.1 1-1.1.6 0 1 .2 1 .4m7 1c0 .8-.4 1.8-1 2.1-.5.3-1-.3-1-1.4 0-1.2.5-2.1 1-2.1.6 0 1 .6 1 1.4m-31 1.2c0 .8-.4 1.2-1 .9-.5-.3-1-1-1-1.6 0-.5.5-.9 1-.9.6 0 1 .7 1 1.6m7 2.4c0 .5-.5 1-1.1 1-.5 0-.7-.5-.4-1 .3-.6.8-1 1.1-1 .2 0 .4.4.4 1"/>
	<path d="M330.5 107c-.3.5-.1 1 .4 1 .6 0 1.1-.5 1.1-1 0-.6-.2-1-.4-1-.3 0-.8.4-1.1 1M324 126.1c0 .5.5.7 1 .4.6-.3 1-.8 1-1.1 0-.2-.4-.4-1-.4-.5 0-1 .5-1 1.1M364 134.7c0 2.4.3 3.3.9 2.5.7-1.2.4-6.2-.5-6.2-.2 0-.4 1.7-.4 3.7M367.3 134.5c0 2.2.2 3 .4 1.7.2-1.2.2-3 0-4-.3-.9-.5.1-.4 2.3M299 170c0 .5.5 1 1 1 .6 0 1-.5 1-1 0-.6-.4-1-1-1-.5 0-1 .4-1 1M363 165.5c0 .8.2 1.5.4 1.5s.6-.7 1-1.5c.3-.8.1-1.5-.4-1.5-.6 0-1 .7-1 1.5M224.5 179c.3.5.8 1 1.1 1 .2 0 .4-.5.4-1 0-.6-.5-1-1.1-1-.5 0-.7.4-.4 1M279.1 196.6c-.1.6-1.3 1-2.8.8-2.8-.4-2.8-.4.1.6 3.3 1 4.1.8 3.3-1.2-.3-.7-.6-.8-.6-.2M376 69.8c0 .3.8 1.1 1.8 1.8 1.5 1.2 1.5 1.3.1 1.4-.9 0-1.9.9-2.2 2s-1.3 2-2.4 2c-1.5 0-1.6.2-.3 1 1.9 1.3 3 1.3 3 0 0-2 4.2-5.2 6.1-4.7 1.7.5 1.8.3.8-.9-.7-.8-1.8-1.3-2.6-1-.7.3-1.3 0-1.3-.8 0-.7-.7-1.3-1.5-1.3s-1.5.2-1.5.5M250 71.9c-2.3.4-3.1.9-2.2 1.4 1.4 1 6.9 0 7.7-1.4.7-1-.1-1-5.5 0M261.3 71.7c-.7.2-1.3.9-1.3 1.5s.7.7 1.8.2c.9-.4 4.6-1.1 8.2-1.4l6.5-.7-7-.1c-3.8 0-7.6.2-8.2.5"/>
	<path d="M372.4 72.5c.8.8 1.7 1.5 2 1.5s.3-.7 0-1.5c-.4-.8-1.3-1.5-2.1-1.5-1.2 0-1.2.2.1 1.5M237.5 75.4c-6.4 2.9-10.2 3.7-12.9 2.6-3.1-1.1-3.5 0-.6 1.8 1.1.7 2 2.1 2 3.2 0 3 2 2.4 2.6-.8.5-2.6 1.2-3 6.9-4.1 3.5-.7 6.8-1 7.3-.7s2.7-.1 4.8-.8l3.9-1.5H248c-1.9-.1-4.4-.3-5.5-.6-1.1-.2-3.3.2-5 .9M254.5 75c-.3.5.1 1 .9 1s1.8-.5 2.1-1c.3-.6-.1-1-.9-1s-1.8.4-2.1 1M204.3 75.7c-2.4.9-1.3 2.5 1.1 1.9 3.5-.9 4.1.9 1 3.1l-2.6 1.9 5.8-.4c5-.3 6.2-.1 7.8 1.7 1.1 1.3 3.1 2.1 5 2.1 2.2 0 2.7-.3 1.9-1.1-.6-.6-.9-1.8-.6-2.5.3-.8 0-1.4-.6-1.4s-1.1.4-1.1 1c0 1.5-2.3 1.2-4.6-.5-1.8-1.4-1.8-1.6-.1-2.9 1.6-1.2 1.5-1.4-1.8-2-1.9-.4-3.9-.4-4.4-.1s-2 .1-3.3-.3c-1.2-.5-2.9-.7-3.5-.5m8.7 4.4c0 .5-.7.9-1.5.9s-1.5-.7-1.5-1.5c0-.9.6-1.2 1.5-.9.8.4 1.5 1 1.5 1.5M387.6 76.5c-.3.8-.1 1.5.4 1.5.6 0 1-.7 1-1.5s-.2-1.5-.4-1.5-.6.7-1 1.5M174.5 77.7c-1.1.3-2.9 1.3-4 2.3-1.1.9-3.2 2-4.7 2.4-3.1.7-9 7.7-7 8.4.6.2 1.2 1 1.2 1.8 0 .9-.5 1.2-1 .9-1.8-1.1-2.4 2.7-.7 4 1 .7 1.7 1.7 1.7 2.3s.6 1.2 1.2 1.4c.8.3.2 1.4-1.7 3-3.2 2.8-3.2 3.2.2 4.2 1.9.6 2.2.2 2.8-3.3.4-2.2.4-4.9 0-6.1-.7-2.1 1-2.9 1.8-.8.3.7.6.3.6-.9.1-1.5 1.3-2.7 4.1-3.9 2.2-1 4-2.3 4-3 0-.6.7-1.7 1.5-2.4 2.1-1.8 1.1-2.4-1.5-1-1.2.6-1.9 1.7-1.6 2.5.2.7-.3 1.5-1.2 1.8s-2.6.8-3.6 1.3c-1.6.6-1.8.4-1.3-1.6.3-1.3.2-3.2-.4-4.2-.6-1.2-.6-1.8.1-1.8.5 0 1 .6 1.1 1.2 0 .7.4.3.9-1 .5-1.2 1.4-2.2 2.1-2.2.6 0 1.9-1 3-2.3 1-1.2 1.8-1.7 1.9-1 0 .8.9.8 3.5 0 2.8-.8 3.8-.7 5.2.5 1 .8 3.2 1.8 4.9 2.1 2.6.5 3.1.3 3-1.1-.1-1.2.8-1.8 2.8-2 2.6-.3 2.8-.2 1.7 1.2-2.6 3.1-.5 2.5 2.2-.6l2.8-3.1-5.3.8c-5.7.8-8.1.8-14.3.1-2.2-.2-4.9-.2-6 .1M164 93.1c0 1-.4 1.9-1 1.9-.5 0-1-1.2-1-2.6s.4-2.3 1-1.9c.6.3 1 1.5 1 2.6M338.2 77.8c-.9.6.8 1.1 5 1.5 3.5.4 7.7.9 9.3 1.2 2.6.5 2.5.3-.7-.9-5-2-12-2.9-13.6-1.8M381 77.9c0 .5.9 1.1 2.1 1.4 1.6.4 1.8.3.8-.9-1.3-1.6-2.9-1.9-2.9-.5M328.5 79.2c-1.6.5-3.6 1.2-4.4 1.4s-1.2.7-.9 1c.8.8 9.8-1.7 9.8-2.7 0-1.1-.6-1-4.5.3M378 81c0 .5.5 1 1 1 .6 0 1-.5 1-1 0-.6-.4-1-1-1-.5 0-1 .4-1 1"/>
	<path d="M180.2 82.1c.2.7 1 1.5 1.7 1.7.8.3 1.2-.1.9-.9-.2-.7-1-1.5-1.7-1.7-.8-.3-1.2.1-.9.9M200 83.2c0 1.2-1.8 1.6-8.7 2-8.4.5-14 2.1-15.5 4.3-1.2 1.7.1 1.8 2.5.2 2.1-1.4 13.8-3.7 18.8-3.7 1.8 0 1.9.2.9 1.5-.8 1-2.1 1.3-3.3.9-1.3-.4-1.7-.2-1.3.5 1.1 1.8 5.4 1.3 6.8-.8 1.1-1.6 2.4-1.8 7.2-1.6 3.2.2 7.2.9 8.8 1.6 1.6.6 3.1.9 3.4.6.9-.8-8.7-3.7-12.4-3.7-2 0-4.4-.7-5.4-1.7-1.5-1.4-1.8-1.4-1.8-.1M335.2 84.5c0 1.1.4 3.3.8 5l.8 3v-3c0-1.7-.3-3.9-.8-5l-.9-2zM413.5 84c.3.5.8 1 1.1 1 .2 0 .4-.5.4-1 0-.6-.5-1-1.1-1-.5 0-.7.4-.4 1M417.2 85.5c0 1.6.2 2.2.5 1.2.2-.9.2-2.3 0-3-.3-.6-.5.1-.5 1.8M420.6 83.8c-.3.5-.8 3.5-1.1 6.7-.4 4.4-.2 5.6.6 4.8.7-.7 1.3-3.7 1.4-6.7.3-5.6.1-6.4-.9-4.8M350.1 85c.1.8.5 2.6.9 4l.8 2.5.1-2.5c0-1.4-.4-3.2-.9-4-.9-1.3-1-1.3-.9 0M338.9 89.6c.2 2.6.7 4.2 1.2 3.7.9-.9.1-8.3-1-8.3-.3 0-.5 2.1-.2 4.6M342 89.3c0 2.5.5 4.9 1.1 5.2.7.5.8-.8.3-4.1-.9-6.4-1.4-6.8-1.4-1.1M353 85.7c0 .5.5 1.5 1 2.3.8 1.2 1 1.1 1-.8 0-1.2-.4-2.2-1-2.2-.5 0-1 .3-1 .7M402.2 89.5c0 2.7.4 6.3.8 8l.8 3V97c0-1.9-.3-5.5-.7-8l-.8-4.5zM408.4 90.7l1.1 5.8.3-4.4c.2-2.8-.2-4.9-1.1-5.8-1.2-1.2-1.2-.6-.3 4.4M240 88c-1.1 2-1 2.1.9 1.5 1.7-.5 2-.3 1.4 1.1-.4 1.2-.3 1.5.5 1 1.6-1 1.5-3.1-.2-4.5-1.2-1-1.7-.8-2.6.9M330 87.5c0 1.1.5 2.7 1 3.5.8 1.2 1 1.2 1-.5 0-1.1-.5-2.7-1-3.5-.8-1.2-1-1.2-1 .5M333.1 88c0 1.4.4 3.4.9 4.5.8 1.8.9 1.8.9-.5 0-1.4-.4-3.4-.9-4.5-.8-1.8-.9-1.8-.9.5M136.5 90.7c-1.6 2.1-2.9 4.4-2.8 5.2s-1.4 3.3-3.3 5.5c-4 4.7-3.5 6.5.6 1.9 2.9-3.3 6.8-5.8 7.7-5 .6.6-1.9 4.7-2.9 4.7-.5 0-.8.9-.8 2s-.5 2-1.1 2c-2.5 0-5.1 4.4-4.5 7.8.5 3.5-1 8.2-2.7 8.2-.5 0-.7-.9-.4-2s.1-2-.3-2c-1.2 0-1.7 8.2-.6 10.1.9 1.5 1.2 1.5 3.8-.4 1.5-1.1 2.8-2.6 2.8-3.2 0-1.3 6.5-4.6 7.4-3.8 1 1-2.5 4.3-4.6 4.3-1 0-1.8.5-1.8 1.1 0 .7 1 .9 2.7.4 3.4-.8 5.3-2.3 5.3-4.1 0-.8.7-1.4 1.6-1.4 1.1 0 1.4.6.9 2-.4 1.2-.2 2 .5 2 2.3 0 4.8-2 5.4-4.4s1.9-2.8 4.4-1.2c2.7 1.6 2.6-.6 0-2.8-1.6-1.2-2.8-2.5-2.8-3 0-.8-5-7.7-6.3-8.7-1.4-1-3.7-6-3.7-7.9 0-2.6 3.9-7 6.2-7 1.8 0 1.9.4 1.3 5-.5 4-.4 5.1.8 5.6 1.2.4 4.6-1 7.7-3.4.2-.1-.2-.7-1-1.2-1.1-.7-1.2-1.4-.2-3.4 1.1-2.4.9-2.6-3.5-4.6-5.5-2.4-5.3-2.4-5.3-.4 0 .8-.4 1.3-.9 1-1-.6-5.9 2.9-7.9 5.6-1.5 2.1-3.2 2.4-3.2.5 0-.6 1.6-2.5 3.5-4 2-1.6 3.3-3.2 3-3.8-1-1.5-1.9-1-5 2.8m16.9 2.8c.3.8.1 1.5-.4 1.5-.6 0-1 .9-1 1.9 0 1.1-.4 2.3-1 2.6-1.2.7-1.2-.1-.4-4.4.7-3.3 1.8-4 2.8-1.6m-12.5 13.1c.7 2 2.2 4.5 3.3 5.6 1.9 1.9 1.9 1.9-.4 4.3-1.3 1.4-3 2.5-3.8 2.5-.9 0-2.6.7-3.8 1.6-2 1.4-2.2 1.4-2.2-.1 0-.9-.4-1.3-1-1-.5.3-1 .4-1 .1 0-.6 3.6-8.8 5.3-12.1.7-1.4.6-2-.3-2.3s-.9-.6.1-1.3c2.1-1.3 2.4-1.2 3.8 2.7m-8.5 4.9c-.4.8-1 1.5-1.5 1.5-.4 0-.6-.7-.3-1.5.4-.8 1-1.5 1.5-1.5.4 0 .6.7.3 1.5m14.1 6.5c-.3.5-1.1 1-1.6 1-.6 0-.7-.5-.4-1 .3-.6 1.1-1 1.6-1 .6 0 .7.4.4 1m1.5 2.4c0 .3-.4.8-1 1.1-.5.3-1 .1-1-.4 0-.6.5-1.1 1-1.1.6 0 1 .2 1 .4M365.3 93c0 3.6.2 5 .4 3.2.2-1.7.2-4.7 0-6.5-.2-1.7-.4-.3-.4 3.3M396.6 88.3c.3 1 .9 1.5 1.2 1.2s0-1.1-.7-1.8c-1-.9-1.1-.8-.5.6M370.8 93.5c-.2 2.5 0 4.5.4 4.5.5 0 .8-2 .8-4.5s-.2-4.5-.4-4.5-.6 2-.8 4.5M345 93.5c0 1.4.4 2.5.9 2.5s.8-1.1.7-2.5c-.1-3.3-1.6-3.3-1.6 0M169 95c-1.3.8-1.2 1 .3 1 2.7 0 1.7 3.4-1.1 3.8-1.9.3-2.1.6-1.1 1.8 2 2.4 3.8 1.6 4.8-2.3 1.4-4.9.4-6.4-2.9-4.3"/>
	<path d="M145.5 98c.3.5.8 1 1.1 1 .2 0 .4-.5.4-1 0-.6-.5-1-1.1-1-.5 0-.7.4-.4 1M216 98.1c.1 3.8 2 9 4.1 11.2 1.3 1.3 3.2 3.9 4.1 5.6s2.2 3.1 2.8 3.1.5-.9-.4-2.3c-.7-1.2-1.7-4.5-2.2-7.2-.6-4.3-.8-4.6-1.3-2.3-.9 3.9-3.1 2.1-3.8-3-.5-4-3.3-8.3-3.3-5.1M223.1 101.6c0 1.1.3 1.4.6.6.3-.7.2-1.6-.1-1.9-.3-.4-.6.2-.5 1.3M432.1 104c0 .8.4 2.2.9 3 1.2 1.8 1.2.2 0-2.5-.6-1.3-.9-1.5-.9-.5M191 106c-.9 1.7-.8 2.1.2 1.9.7-.1 2.5.1 4.1.5 3.5 1 7.7 0 7.7-1.9 0-1.1-1-1.5-3.2-1.4-2.4.1-2.7.3-1 .6 3 .6 2.8 2.3-.3 2.3-1.4 0-2.5-.4-2.5-1 0-.5-.9-1.4-2-2-1.5-.8-2.1-.6-3 1M225.7 106c.6 2.2 2.3 3.8 2.3 2.1s-1.2-4.1-2-4.1c-.5 0-.6.9-.3 2"/>
	<path d="M429 105.2c0 .7.7 2.6 1.5 4.2.8 1.5 1.5 3.7 1.5 4.8 0 1.7.3 1.8 1.5.8s1.5-.9 1.5.6c0 1.1.4 2.6.9 3.3.7 1 .9-.6.8-4.6-.2-6-.2-6.1-1.6-3.5l-1.4 2.7-1.3-3c-.7-1.7-1.3-3.5-1.4-4.2 0-1.6-2-2.7-2-1.1M120.1 110.5c-4.5 4.1-7.7 9.6-9.1 15.9-.5 2.3-1.2 5.1-1.6 6.2-.6 1.7-.4 1.6 1.8-.4 1.5-1.3 4.3-3 6.5-3.7 2.1-.8 3.4-1.4 2.8-1.5-.5 0-.3-.5.5-1.1 1.2-.8.9-.9-1-.4-6.8 1.8-7 1.8-7-.3 0-2.8 5.4-10.9 9.9-14.9 2-1.8 3-3.2 2.4-3.3-.7 0-3.1 1.6-5.2 3.5M161.7 111.1c-1 .6-3.1.7-4.7.4-3.4-.8-5.1 1.5-3 4 1.5 1.8 5.7 1 8.4-1.5 2.3-2.3 1.9-4.3-.7-2.9m-4.7 1.3c0 .3-.4.8-1 1.1-.5.3-1 .1-1-.4 0-.6.5-1.1 1-1.1.6 0 1 .2 1 .4M213.6 110.9c-.3.5.1 1.2.9 1.5.9.3 2 1.8 2.6 3.3.8 2.1 1.2 2.4 1.9 1.3.5-.8.5-2.1-.1-3.2-1.2-2.2-4.6-4.1-5.3-2.9M228.7 112.2c-.2.7-.1 2.2.4 3.3.6 1.6.8 1.4.8-1.3.1-3.3-.4-4.1-1.2-2M369.6 112.5c-.3.8-.1 1.5.4 1.5.6 0 1-.7 1-1.5s-.2-1.5-.4-1.5-.6.7-1 1.5M377 112c0 .5.5 1 1.1 1 .5 0 .7-.5.4-1-.3-.6-.8-1-1.1-1-.2 0-.4.4-.4 1M412 112c0 .5.5 1 1.1 1 .5 0 .7-.5.4-1-.3-.6-.8-1-1.1-1-.2 0-.4.4-.4 1M50.7 112.7c-.3.5.8.8 2.3.8 1.6 0 3.2-.3 3.6-.8.4-.4-.7-.7-2.4-.7s-3.3.3-3.5.7M365.5 113c-.3.5-.1 1 .4 1 .6 0 1.1-.5 1.1-1 0-.6-.2-1-.4-1-.3 0-.8.4-1.1 1M371.9 114.6c-1.3 3.7-.7 3.9 1.3.3.9-1.6 1.3-2.9.7-2.9-.5 0-1.4 1.2-2 2.6M384.8 112.6c-.5.4-.8 2.8-.7 5.3l.1 4.6.9-4c1-4.3.9-7.1-.3-5.9M422.6 113.4c.3.9 1.1 1.6 1.6 1.6 1.3 0 .5-2.3-1-2.8-.7-.2-1 .2-.6 1.2M402 114.4c0 .9.5 1.6 1 1.6.6 0 1-.4 1-.9 0-.6-.4-1.3-1-1.6-.5-.3-1 .1-1 .9M416.8 113.7c.7.3 1.6.2 1.9-.1.4-.3-.2-.6-1.3-.5-1.1 0-1.4.3-.6.6M414.6 116.1c.3.5 1.2.9 2 .9s1.4.4 1.4 1c0 .5-.8 1-1.7 1-1.4 0-1.5.2-.4 1.2 1 1 1.5 1 1.8.1.6-1.7 3.3-.4 3.3 1.5 0 1.2.3 1.3 1.2.4s.5-1.7-1.4-3.5c-2.6-2.4-7.3-4.4-6.2-2.6M186.6 119.8c.2 1.8 0 4-.3 4.8-.8 2.2-2.5 1.7-1.8-.6.4-1.1.2-2-.4-2-.9 0-3.1 5.9-3.1 8.2 0 1.3 2.8.9 3.4-.5.3-.6.4 0 .1 1.5-.3 1.4-.2 3.4.2 4.4.5 1.4.9.8 1.8-2.2.7-2.3.8-4.4.3-5.1-.5-.6-.5-1.2.1-1.5.6-.1 1.4-1.8 1.7-3.7.5-2.4.4-3.2-.4-2.7-.6.4-1.2-.3-1.5-1.6-.2-1.3-.3-.8-.1 1M180.7 119.4c-.5 1.5-.6 3.1-.3 3.4.8.8 1.8-2.5 1.4-4.5-.3-1.3-.6-1-1.1 1.1M195.8 120.5c.2 1.9.6 3.5.8 3.5s.4-1.6.4-3.5-.4-3.5-.8-3.5-.6 1.6-.4 3.5M426.7 119.1c.4 1.3.8 1.8 1.1 1 .2-.7-.1-1.8-.6-2.3-.8-.8-.9-.4-.5 1.3M208 118.6c0 1.7 1.7 3.6 2.4 2.6.3-.5-.1-1.5-.9-2.2s-1.5-.9-1.5-.4M387.1 119.6c0 1.1.3 1.4.6.6.3-.7.2-1.6-.1-1.9-.3-.4-.6.2-.5 1.3M439 119.9c0 1.2.5 2.1 1 2.1.6 0 1-.6 1-1.4s-.4-1.8-1-2.1c-.5-.3-1 .3-1 1.4M376.9 119.2c-.7 1.5-.6 5.8.2 5.8.5 0 .9-.9.9-2 0-1.2 1-2.4 2.3-3 2.1-.8 2.1-.9-.5-.9-1.6-.1-2.9 0-2.9.1M402.5 120.2c-3 8.6-3.3 10-2.1 8.7 1.3-1.4 3.8-9.9 3-9.9-.3 0-.7.6-.9 1.2M406 120c0 .5.5 1 1 1 .6 0 1-.5 1-1 0-.6-.4-1-1-1-.5 0-1 .4-1 1M411 121.1c0 .5.5.7 1 .4.6-.3 1-.8 1-1.1 0-.2-.4-.4-1-.4-.5 0-1 .5-1 1.1M435.5 123.5c.7 3.3 1.2 4.1 2 3.3.3-.3-.2-1.8-1.1-3.4l-1.6-2.9zM55 123c0 1.3 1.1 1.3 3 0 1.2-.8 1.1-1-.7-1-1.3 0-2.3.4-2.3 1M158.6 125.7c-.3 2.1-.8 6-1 8.8-.3 2.7-.2 3.8 0 2.2.3-1.5.8-2.7 1.2-2.7s.7-1.5.7-3.3c0-1.7.4-4.4.8-6 .4-1.5.3-2.7-.2-2.7s-1.2 1.7-1.5 3.7M385.7 124c-.3 1.1-.1 2 .4 2s.9-.9.9-2-.2-2-.4-2-.6.9-.9 2M382.1 124.8c-1.3 2.5-1.4 3.2-.2 3.2.9 0 2.3-4.1 1.6-4.8-.2-.2-.8.5-1.4 1.6M391.7 123.7c-.4.3-.7 2-.7 3.6 0 3.8 1.2 2.8 1.5-1.3.3-3.2.2-3.4-.8-2.3M415 125.7c0 1.6-.3 3.9-.7 5.2-.4 1.7-.3 2.2.5 1.7s1.2.1 1.2 1.4c0 1.7-.4 2-2.1 1.5-1.5-.5-1.9-.4-1.5.4.4.6 1.6 1.1 2.7 1.1 1.8 0 2 .4 1.4 3.1-.5 2.2-.4 2.9.4 2.5.6-.4 1.1-1.4 1.1-2.2s.5-1.4 1-1.4c.6 0 1-1 1-2.3 0-1.8-.2-1.9-1.1-.7-.8 1.1-.9 0-.6-4.3.5-5.1-.4-7.7-1.6-4.5-.2.7-.3.1-.1-1.5.2-1.5-.1-2.7-.6-2.7-.6 0-1 1.2-1 2.7M172 126.1c0 1.5.7 3.2 1.5 3.9 1.9 1.6 1.9 1.1 0-3.1-1.4-3.3-1.4-3.3-1.5-.8M424.7 127.1c-.4 1.5-.1 2.6.8 3.2.8.4 1.5 1.5 1.5 2.4s.3 1.4.6 1.1c.3-.4-.1-2.5-.9-4.8-1.3-3.8-1.5-4-2-1.9"/>
	<path d="M148 127.9c0 2.5-9.1 12.1-11.4 12.1-.9 0-2.8-.7-4.1-1.6-2-1.3-2.3-1.9-1.4-3.6 1-1.8.8-1.9-1.3-1.3-2.3.8-7.8 4.3-7.8 5 0 .3.7.2 1.5-.1 1.9-.8 1.9.7 0 3.2-1.3 1.6-1.6 1.7-2.6.4-.9-1.2-1-1.1-.6.7.4 1.6 0 2.3-.9 2.3-.8 0-2.6 1.2-4 2.7-2.7 2.9-4.2 2.6-2.5-.5.6-1.2 1.1-3.2 1.1-4.6 0-1.6 1.2-3.5 3.7-5.5 2-1.7 3.4-3.3 3.1-3.7-.7-.7-6.8 3.3-6.8 4.4 0 .4-2.1 2.7-4.6 5.2s-5.6 5.5-6.8 6.7c-1.3 1.3-2.8 2.3-3.3 2.3-1.9 0-2.3-4.3-.6-6.2.9-1 1.3-2.1 1-2.5-1-1-4.7 2.8-4.7 4.8 0 1-.7 2.2-1.6 2.7s-1.6 1.3-1.6 1.8c-.1 1.7-1 3.4-1.9 3.4-1.5 0-1-1.8 2-8.3 3-6.3 6.6-9.9 11.1-11 1.4-.3 3.1-1.6 3.8-2.8 1.5-2.4.8-3.9-1-2.1-.7.7-2 1.2-3 1.2-2.5 0-12.4 10.4-13.1 13.7-.3 1.5-1.2 3.7-2.1 4.8-1.5 2-1.5 2-3.6-.3-2.1-2.2-3.1-2.6-6.3-2.2-1 .1-2.4-.3-3.1-.9-1.6-1.3-4.3-.5-4.3 1.2 0 .8 1.6 1.1 5.1.9 4.9-.3 5.3-.1 10.7 4.7l5.7 5.1 1.2-2.9c1.3-3.1 3-4.3 4.7-3.3.6.4 2.6 4.1 4.5 8.3 2 4.2 4 7.9 4.7 8.3 1.6 1 1.4 2.6-.5 2.6-.8 0-1.2.4-.9 1 .4.6-.9 1-3.1 1-2.3 0-3.4.4-2.8.9 1.1 1.1 7.4.2 7.4-1s3.7-1.1 6.1.1c1 .6 1.9 1.9 1.9 3s1.4 2.5 3.7 3.7c2 1 3.6 2.2 3.5 2.8 0 .5-1.9 1.4-4.1 2-2.2.5-4.5 1.5-5.1 2.1s2.2 0 6.1-1.3c8.4-2.7 8.9-2.8 8.9-.8 0 .9-.9 1.5-2.3 1.5-2.6 0-7.3 4.3-6.3 5.8.3.5 2.7.9 5.3 1s6.4.4 8.4.7c2.6.5 3.9.2 5-1.1 1.3-1.6 1.1-1.7-2.4-1-3.7.7-3.8.7-3.1-2.1.9-3.8 1.3-4.3 3.1-4.3 1.3 0 1.3.3.3 1.5-.7.9-1 1.8-.7 2.1s1.3-.8 2.2-2.5c.8-1.7 2-3.1 2.5-3.1.6 0 1-.5 1-1.1 0-.7.8-1.8 1.7-2.5 1-.7 1.4-1.6 1-2-.4-.5-1.9.6-3.3 2.4s-3.1 3.2-3.8 3.2c-1.8 0-6.3 4.3-5.9 5.6.7 2-2.5 3.6-5.7 2.9-3.8-.8-3.9-2.5-.2-2.5 3.1 0 6.2-2.7 6.2-5.3 0-1.1-.8-1.7-2.5-1.7-3.2 0-9.1-3.8-10.4-6.8-.9-1.8-.7-2.6.9-4.2 2.3-2.3 5-2.9 3.2-.7-.9 1.1 1.1 1.3 11.1 1.1 6.7-.1 12.5-.2 12.8-.3 1-.2-.3-9.5-1.4-10.2-1.2-.9-.1-4.2 1.2-3.5.5.3 1.1 0 1.4-.7.4-1-.2-1.3-1.9-.9-1.8.3-2.5 1.2-2.9 4.1-.9 6-2 8.6-3.5 8.6-1.3 0-1.4-1.8-1.2-10.5.3-11.9 1.4-16.8 4.2-20.2l1.9-2.3.1 2.2c0 1.2.5 2.5 1.2 2.9.8.5.9-.3.5-3-.5-3-.1-4.1 1.9-6.1 2.4-2.4 3.3-7.5 1.4-7.5-.5 0-1 .9-1 1.9m-44 7.1c0 .5-.7 1-1.6 1-.8 0-1.2-.5-.9-1 .3-.6 1-1 1.6-1 .5 0 .9.4.9 1m22.7 9.2c-.9 2.9-2 7.1-2.4 9.3-.6 3.6-.7 3.7-1.1 1.2-.4-3.1 3.5-17.3 4.5-16.3.4.3-.1 3-1 5.8m7.5-2.4c.3 1.1-.1 3-.8 4.3-1.3 2.4-1.3 2.4-1.5-1.1-.1-1.9-.3-2.7-.6-1.8-.2 1-.9 1.8-1.5 1.8-.5 0-.7-.7-.4-1.6s.6-2 .6-2.5c0-1.7 3.8-.9 4.2.9m-21.2.8c0 .3-1.2 2.6-2.7 5.1-2.2 3.9-2.6 5.7-2.5 11.4 0 3.8-.3 6.9-.7 6.9s-.6-1.5-.4-3.3c.2-1.7 0-2.6-.3-2-1.1 2.3-2.4 1.3-2.4-1.8 0-1.7-.4-2.8-1-2.4-2.4 1.5-.7-2.8 2.5-6.2 1.9-2 3.5-4.2 3.5-4.8s.5-1.6 1.2-2.3c1.3-1.3 2.8-1.6 2.8-.6m7.2 5.6c-1.2 1.2-3.5.1-2.7-1.2.3-.5 1.3-.6 2.1-.3q1.5.6.6 1.5m.2 7.7c-.7 6.4-1.1 7.1-2.4 5.1-.8-1.2-1-1-1 .9s-.3 2.1-1.4 1.2c-1.2-1-1.5-.8-2 1.1-.3 1.3-.3-.4-.1-3.6.5-7.1-.9-6.2-2.3 1.4l-1 5.5-.1-6.1c-.1-5.9 0-6.2 3.3-8.5 1.9-1.3 3.3-2.6 3.1-3-.3-.3.7-.4 2.1-.1 2.4.4 2.5.6 1.8 6.1m9-4.5c.3 1.4.3 3.1 0 3.9s-.1 1.8.5 2.2c.7.4.9-.1.5-1.2-.5-1.5-.4-1.6.5-.3 1.3 1.8 1.5 10 .2 10-.6 0-1.2-1.5-1.4-3.3-.4-3-.4-3-.6.8-.1 2.2-.6 4.9-1.1 6-.6 1.3-.9-2-.9-9.3-.1-10.5.9-14.3 2.3-8.8m-3.4 9c0 .8-.4 1.8-1 2.1-.5.3-1-.3-1-1.4 0-1.2.5-2.1 1-2.1.6 0 1 .6 1 1.4m9.5 5.1c0 4.6-.4 6.5-1.3 6.5s-1.1-1.6-.8-5.8c.6-7.6.5-7.2 1.4-7.2.4 0 .7 2.9.7 6.5m-16.6 3.6c-1.1 2.2-1.2 2.2-2.5.4-.8-1-1.4-2.3-1.4-2.9 0-.5.7-.1 1.5 1 1.4 1.8 1.4 1.8 1.5-.7 0-1.4.3-2.9.8-3.3 1.2-1.3 1.4 3.2.1 5.5m6.6-2.1c.3.5.1 1-.4 1-.6 0-1.1-.5-1.1-1 0-.6.2-1 .4-1 .3 0 .8.4 1.1 1m6.5 3.1c0 .5-.4.9-1 .9-.5 0-1-.7-1-1.6 0-.8.5-1.2 1-.9.6.3 1 1 1 1.6m12.7.4c-.4.8-1.4 1.4-2.4 1.4-1.7-.1-1.7-.2 0-.6.9-.2 1.7-1.2 1.7-2 0-.9.3-1.4.6-1 .4.3.4 1.3.1 2.2m-30.7-.6c0 .6-.4 1.3-1 1.6-.5.3-1-.1-1-.9 0-.9.5-1.6 1-1.6.6 0 1 .4 1 .9"/>
	<path d="M118.2 156.5c0 1.6.2 2.2.5 1.2.2-.9.2-2.3 0-3-.3-.6-.5.1-.5 1.8M115.2 157.9c-.6 1.7-.7 3.1-.3 3.1 1 0 2.5-5 1.8-5.7-.3-.2-.9 1-1.5 2.6M71 128.8c-1.3 1-2.1 2.3-1.9 2.9s1.7-.2 3.2-1.8c3.1-3.2 2.2-3.9-1.3-1.1M81.3 128.2c.8 2.4-3 6.8-5.8 6.8-1.3 0-2.6.4-2.9.9-.4.5.3.7 1.5.4 1.2-.4 2.5 0 3.1.8.6.9 1.1 1 1.4.3.3-.6 1.6-2.6 2.9-4.4 2.4-3.2 2.5-3.3 2.5-1 0 1.9.3 2.1 1.2 1.2 1-1 .6-1.8-1.6-4-1.9-1.7-2.7-2.1-2.3-1M384.1 128.4c-.8 1-.8 1.6.2 2.5 1.1.8 1.8.7 3.1-.7 1.6-1.9 1.3-3.2-.9-3.2-.7 0-1.8.6-2.4 1.4M397 128.1c0 .5.5.7 1 .4.6-.3 1-.8 1-1.1 0-.2-.4-.4-1-.4-.5 0-1 .5-1 1.1M160.7 128.7c-.4.3-.7 1.1-.7 1.7s.5.5 1.2-.2c.6-.6.9-1.4.7-1.7-.3-.3-.9-.2-1.2.2M168.3 130.2c.2 1.5.6 3 1 3.4 1 1 .8-1.7-.3-4.1-.8-1.7-.9-1.6-.7.7M411 129c0 .5.5 1 1.1 1 .5 0 .7-.5.4-1-.3-.6-.8-1-1.1-1-.2 0-.4.4-.4 1M3 130c0 1.3 1.1 1.3 3 0 1.2-.8 1.1-1-.7-1-1.3 0-2.3.4-2.3 1M131.1 129.9c-.8.5-.9 1.1-.3 1.5.5.3 1.2-.1 1.6-.9.6-1.7.6-1.8-1.3-.6M197.1 130.6c0 1.1.3 1.4.6.6.3-.7.2-1.6-.1-1.9-.3-.4-.6.2-.5 1.3M420 130.2c0 .9.7 1.9 1.6 2.2 1.5.6 1.5.4.3-1.1-.7-1-1.5-2-1.6-2.2-.2-.2-.3.3-.3 1.1M88.5 131c-1.9.8-1.8.9.4.9 1.3.1 3 .9 3.7 1.8 1.2 1.7 1.3 1.7 1.4-.3 0-1.7-2.1-3.8-3.3-3.3-.1 0-1.1.4-2.2.9M395.5 130.9c-.3.5-.1 1.2.5 1.6.5.3 1-.1 1-.9 0-1.8-.6-2.1-1.5-.7M432.2 132.5c0 1.6.2 2.2.5 1.2.2-.9.2-2.3 0-3-.3-.6-.5.1-.5 1.8M435.6 132.6c-.4.9-.4 1.9-.1 2.2.2.3.7-.3 1.1-1.2s.4-1.9.1-2.2c-.2-.3-.7.3-1.1 1.2M139.5 134c-1 1.1-1.6 2.2-1.3 2.5s1.3-.6 2.2-2c2-3 1.6-3.2-.9-.5M191.2 134.5c0 1.6.2 2.2.5 1.2.2-.9.2-2.3 0-3-.3-.6-.5.1-.5 1.8M198.6 133.9c-2 2.2-1 3.2 1.9 2 1.1-.4 1.4-.8.6-.8-.7-.1-1.1-.7-.7-1.6.7-2 .3-1.9-1.8.4M212 132.8c0 1.8 1.2 4.2 2.1 4.2 1.4 0 1-2.6-.6-4-.9-.8-1.5-.8-1.5-.2M113.4 134.4c-1 .8-1.6 1.7-1.3 2s1.4-.3 2.4-1.4c2.1-2.3 1.7-2.6-1.1-.6M391.8 133.7c.7.3 1.6.2 1.9-.1.4-.3-.2-.6-1.3-.5-1.1 0-1.4.3-.6.6M438.7 133.7c-1 .9-.9 2.3.2 2.3.5 0 1.1-.7 1.5-1.5.5-1.5-.5-2-1.7-.8M66 136.1c0 .5.5.7 1 .4.6-.3 1-.8 1-1.1 0-.2-.4-.4-1-.4-.5 0-1 .5-1 1.1M425 136.3c0 1.9 1.6 3.1 2.4 1.8.3-.5-.1-1.4-.9-2.1-1.2-1-1.5-1-1.5.3M81.3 137.2c-1.2 1.9-3.3 6-3.3 6.4 0 .2.5.4 1 .4.6 0 1-.6 1-1.3 0-.6.7-2.4 1.4-4 1.5-2.7 1.4-3.8-.1-1.5M182.6 138.4c.3.7-.2 3-1 5.1-.9 2-1.3 4.1-1 4.6.7 1.2 3.4 1.1 3.4-.1 0-.5-.7-.7-1.5-.4q-2.85 1.2 0-3.6c1.6-2.9 2-7 .5-7-.5 0-.7.6-.4 1.4M108.5 139.2c-2.6 1.4-4.5 3.8-4.5 5.7.1 1.2.3 1.1 1.2-.4.6-1.1 2.3-3 3.7-4.2 2.8-2.4 2.7-2.8-.4-1.1M192.6 141c.3 1.9 1 4.7 1.6 6.2.6 1.6.8 3.7.5 4.7-.3 1.2.1 2.2 1 2.5 1.1.5 1.3 1.4.9 3.4-.5 2-.4 2.3.4 1.2.5-.8 1-1.1 1-.5.1 1.5 4 5.9 4.6 5.2.3-.3-.7-2.3-2.1-4.6-1.5-2.2-2.4-4.4-2.1-5 .4-.6-.3-2.9-1.5-5.3-1.2-2.3-2.8-5.8-3.5-7.7l-1.4-3.6zM100 140.5c-1.4 1.6-.3 2 1.9.6.8-.5.9-1.1.3-1.5-.5-.3-1.5.1-2.2.9M185.7 141.9c-.4 1.7-.3 2.1.5 1.3.5-.5.8-1.6.6-2.3-.3-.8-.7-.3-1.1 1M26 143c0 2.2 2.5 2.7 5 .9 1.2-.8.9-.9-1.2-.5-2.2.5-2.6.3-2.2-.9.4-.8.1-1.5-.5-1.5s-1.1.9-1.1 2M38.6 144.5c2.7 2 5.1 2 3.4 0-.7-.8-2.2-1.5-3.3-1.5-2 0-2 0-.1 1.5M141.6 144.1c-1.5 4.4-2.3 8.9-1.7 8.9.8 0 3.2-9.2 2.5-9.9-.2-.2-.6.2-.8 1M145.8 145.6c-.5.4-.8 1.6-.8 2.8 0 1.4.3 1.7 1.1.9.6-.6.9-1.9.7-2.8-.1-.9-.6-1.3-1-.9M429.8 146.7c.6.2 1.8.2 2.5 0 .6-.3.1-.5-1.3-.5s-1.9.2-1.2.5M165.2 148.1c.3.8 1.6 1.3 3 1.1 1.4-.1 3.1.4 3.8 1.3 1.5 1.8-.1 2-1.8.3-.6-.6-1.5-.9-1.9-.5-.8.8 2.6 3.6 4.5 3.7.6 0 1.2-.8 1.2-1.9 0-2.4-1.7-3.7-5.9-4.6-2.6-.5-3.2-.4-2.9.6M423.3 147.7c.9.2 2.5.2 3.5 0 .9-.3.1-.5-1.8-.5s-2.7.2-1.7.5M19.8 151c-.3 1.6-.1 3 .4 3 .4 0 .8-1.4.8-3 0-1.7-.2-3-.4-3s-.6 1.3-.8 3M58.4 149.4c-3.5 1.1-7 4.3-6 5.3.4.5 1.3 0 2-1 .7-.9 2-1.7 2.9-1.7.8 0 1.7-.5 1.9-1.2.3-.7 1-.8 1.7-.4 1 .7 1 1 .1 1.6s-.8 1.5.4 3.9q3.3 6.3 2.1-.9c-.6-3.6-.5-4.1 1.9-5 1.4-.5 2.6-1.1 2.6-1.3 0-.7-6.9-.2-9.6.7M434.8 148.7c.6.2 1.8.2 2.5 0 .6-.3.1-.5-1.3-.5s-1.9.2-1.2.5M38.4 151.5c-.9 2.2.1 2.9 1.5 1.1.8-1 .9-1.6.1-2.1-.5-.3-1.3.1-1.6 1M145.6 152.7c-.3 1-.9 2.5-1.3 3.3-.5 1.3-.4 1.3.9.2 1.8-1.4 3.1-5.2 1.8-5.2-.4 0-1 .8-1.4 1.7M79.1 153.9c-1.5 2.8-1.4 5.7.4 7.5.8.8 1.5 2.1 1.5 2.8 0 1-.2 1-.9-.1-.6-.9-1.1-1-1.5-.2-.7 1.1-.1 1.5 4.7 2.5 2.4.6 2.7.4 2.6-2.1 0-1.6-.3-2.2-.6-1.6-1.1 2.8-2.3 1-2.4-3.5-.1-2.6-.4-3.7-.6-2.5-.2 1.3-.9 2.3-1.4 2.3-1.3 0-1.1-3.4.2-4.7.7-.7.7-1.3 0-1.7-.5-.4-1.5.2-2 1.3M142.5 153c-.3.5-.1 1 .4 1 .6 0 1.1-.5 1.1-1 0-.6-.2-1-.4-1-.3 0-.8.4-1.1 1M430.3 153.7c.9.2 2.5.2 3.5 0 .9-.3.1-.5-1.8-.5s-2.7.2-1.7.5M411.2 155.2c.3.7 2 1.4 3.9 1.4 2.6.1 2.8.1.7-.3-1.6-.2-2.8-.9-2.8-1.4s-.5-.9-1.1-.9-.9.6-.7 1.2M41.3 156c-1.3.5-2.3 1.5-2.3 2.1 0 .7-.8 1.8-1.7 2.5-1.7 1.2-1.6 1.3.5 1.4 1.2 0 2.2-.6 2.2-1.4s1.2-2.4 2.6-3.5c2.8-2.2 2.4-2.6-1.3-1.1M140.7 158.1c-.7 1.9-1.6 5.2-2 7.4-.6 4.5.3 2.9 2.7-5 1.7-5.8 1.3-7.2-.7-2.4M180.5 156.1c-.4.6-.5 1.2-.2 1.5.2.3.7-.2 1-1.1.7-1.7.1-2-.8-.4M185.2 157.2c-.1 1.4-.5 3.5-.8 4.5-.5 1.4-.4 1.5.5.7.7-.7 1.1-2.6.8-4.5-.3-2.8-.4-2.9-.5-.7M190.7 155.7c-.8 1.2.8 12.1 1.8 13.1.7.8.4-8.9-.4-11.8-.5-1.7-.9-2.1-1.4-1.3M46.5 158.1c-1.1 1.7.1 2.1 1.5.4.8-.9.8-1.5.2-1.5s-1.4.5-1.7 1.1M405.5 160c1.7.4 3.9.8 5 .9 1.6.1 1.7-.1.5-.9-.8-.5-3.1-.9-5-.9l-3.5.1zM426.5 160c.3.5-.1 1.1-.7 1.3-.9.4-.8.6.2.6.8 0 2.1-.3 2.8-.8 1-.6.9-1-.7-1.4-1.2-.3-1.9-.1-1.6.3M70 160.9c0 .5.9.7 2 .4s2-.7 2-.9-.9-.4-2-.4-2 .4-2 .9M413.8 160.7c.6.2 1.8.2 2.5 0 .6-.3.1-.5-1.3-.5s-1.9.2-1.2.5M413.5 164c.3.5 1.2.7 2 .3 2.1-.7 1.9-1.3-.6-1.3-1.1 0-1.8.4-1.4 1M396.8 164.7c.6.2 1.8.2 2.5 0 .6-.3.1-.5-1.3-.5s-1.9.2-1.2.5M13 166.5c.7.8 1.7 1.5 2.2 1.5.6 0 .5-.7-.2-1.5s-1.7-1.5-2.2-1.5c-.6 0-.5.7.2 1.5M392.8 166.7c.7.3 1.6.2 1.9-.1.4-.3-.2-.6-1.3-.5-1.1 0-1.4.3-.6.6M438.7 166.7c-.4.3-.7 1.1-.7 1.7s.5.5 1.2-.2c.6-.6.9-1.4.7-1.7-.3-.3-.9-.2-1.2.2M67.7 169.7c-.6 3.1.9 6.7 2.4 5.8 1.4-.9 1.1-6.1-.5-7.4-1.1-.9-1.5-.6-1.9 1.6M89.4 168.2c-.3.4 1.9.8 4.8.7 5.7-.1 5.5-.5-.5-1.1-2.1-.2-4 0-4.3.4M185.1 169.6c0 1.1.3 1.4.6.6.3-.7.2-1.6-.1-1.9-.3-.4-.6.2-.5 1.3M188.4 170.3c-.8 2.1.2 3.5 1.6 2.1.5-.5.6-1.5 0-2.4-.8-1.2-1-1.2-1.6.3M388 170c0 .5.5 1 1.1 1 .5 0 .7-.5.4-1-.3-.6-.8-1-1.1-1-.2 0-.4.4-.4 1M94 171l-4.5.7 4.3.1c2.4.1 5.2.7 6.3 1.3s2.5.8 3.2.5c.7-.2.2-.8-1-1.1-1.3-.4-2.3-1.1-2.3-1.6s-.3-.8-.7-.7c-.5 0-2.8.4-5.3.8M78.2 172.2c.3.8 2.4 1.3 5.4 1.4 3.3.1 3.7 0 1.4-.3-1.9-.2-3.9-.9-4.4-1.4-1.4-1.3-2.8-1.1-2.4.3M424.3 171.7c.9.2 2.5.2 3.5 0 .9-.3.1-.5-1.8-.5s-2.7.2-1.7.5"/>
	<path d="M96 174.6c0 .8.5 1.2 1 .9.6-.4.8-1.1.5-1.6-.9-1.4-1.5-1.1-1.5.7M415.3 175.7c.9.2 2.3.2 3 0 .6-.3-.1-.5-1.8-.5-1.6 0-2.2.2-1.2.5M120 176.9c0 .5.7 1.1 1.5 1.5.8.3 1.5.1 1.5-.3 0-.5-.7-1.1-1.5-1.5-.8-.3-1.5-.1-1.5.3M192 178.5c0 .8.5 1.5 1 1.5.6 0 1-.7 1-1.5s-.4-1.5-1-1.5c-.5 0-1 .7-1 1.5M36 179.5c-.7.9-1 1.8-.7 2.1.6.7 4.7-1.8 4.7-2.8 0-1.4-2.7-.9-4 .7M425.5 180c1.1.5 2.7.9 3.5.9.9 0 .8-.4-.5-.9-1.1-.5-2.7-.9-3.5-.9-.9 0-.8.4.5.9M66.8 180.7c.7.3 1.6.2 1.9-.1.4-.3-.2-.6-1.3-.5-1.1 0-1.4.3-.6.6M102.2 181c-4 .3-7.8 1.2-8.5 2-1 1-.8 1.2.8.6 1.1-.5 4.7-1 8-1.3s6.7-.9 7.5-1.4 1.1-.8.5-.7c-.5 0-4.3.4-8.3.8M126.9 180.7c1.4.3 3.5 1.2 4.8 2 1.5 1 2.3 1.1 2.3.4 0-1.4-4.3-3.1-7.3-3-2 .2-2 .2.2.6M137 181.5c-.7.9-.8 1.5-.2 1.5.5 0 1.2-.7 1.6-1.5.3-.8.4-1.5.2-1.5s-.9.7-1.6 1.5M185.5 181c-.9 1.5-.1 2.3 2.1 1.8 1.5-.3 1.6-.4.1-1.6-1.1-.9-1.7-1-2.2-.2M39.5 182c-.3.5.1 1 .9 1 .9 0 1.6-.5 1.6-1 0-.6-.4-1-.9-1-.6 0-1.3.4-1.6 1M76.5 182.9c3 .9 12.2 1.4 11.4.7-.2-.2-3.5-.6-7.4-.9-4.4-.4-5.9-.3-4 .2M71 184c-.9.6-1 1-.3 1 .6 0 1.5-.5 1.8-1 .8-1.2.4-1.2-1.5 0M361.4 185.3c-.4 1.2-1.2 2.5-1.8 2.9-.7.5-.3.8.8.8s2.8-.7 3.8-1.7c1.7-1.5 1.8-1.5 1.8 0 0 .9.9 2.7 2 4 1.7 1.9 3 2.3 6.3 2.2 5.7-.3 11.7-1.6 11.7-2.5 0-1.5-3.9-1.8-5.1-.4-1.3 1.6-9.5 1.9-10.4.4-.3-.6.2-1 1.2-1 1.5 0 1.6-.2.3-1q-1.5-.9-1.8 0c-.7 1.8-2.2 1-2.2-1.1 0-2.2.8-2.3 10-.4 1.8.4 1.7.2-.5-.6-1.6-.6-4-1.5-5.2-2.1s-3.2-.8-4.4-.5-3 .2-4-.4c-1.4-.7-1.9-.4-2.5 1.4M398.5 184c-.3.6.1.7.9.4 1.8-.7 2.1-1.4.7-1.4-.6 0-1.3.4-1.6 1M406.7 184.1c.7.7 1.5 1 1.8.7s-.2-.9-1.2-1.2c-1.4-.6-1.5-.5-.6.5M187 185c0 .5.5 1 1.1 1 .5 0 .7-.5.4-1-.3-.6-.8-1-1.1-1-.2 0-.4.4-.4 1M388.5 185.1c-.9 1.4-.2 2 1.4 1q1.2-.9.3-1.5c-.6-.3-1.4-.1-1.7.5M410.8 186.2c.6.6 1.8.8 2.8.6 1.4-.3 1.2-.5-.9-1-1.9-.3-2.5-.2-1.9.4M61.3 189.6c-2.4 1.4-4 3-3.7 3.6.4.5 1.3.3 2.2-.5 1-.8 3.5-2.4 5.7-3.5 2.7-1.4 3.4-2.1 2-2.1-1.1 0-3.9 1.1-6.2 2.5M330 188c0 .6.7 1 1.5 1s1.5-.2 1.5-.4-.7-.6-1.5-1c-.8-.3-1.5-.1-1.5.4M345.7 188.4c-4.8 1.7-6.7 3.4-6.7 5.7 0 2.5 2 2.5 2.7 0 .5-2.1 3.5-3.9 7.2-4.3 1.4-.2 2.6-.9 2.9-1.6.5-1.5-1.3-1.5-6.1.2M71.3 188.7c.9.2 2.5.2 3.5 0 .9-.3.1-.5-1.8-.5s-2.7.2-1.7.5M419 189.5c-1.4 1.6-.3 2 1.9.6.8-.5.9-1.1.3-1.5-.5-.3-1.5.1-2.2.9M49.7 189.7c-.4.3-.7 1.1-.7 1.7s.5.5 1.2-.2c.6-.6.9-1.4.7-1.7-.3-.3-.9-.2-1.2.2M103.1 190.4c-7 3.2-10.5 5.3-10.9 6.6-.4 1.2-.2 1.2.9.4.8-.6 3.6-1.7 6.3-2.4 2.8-.8 4.4-1.6 3.7-1.8-.8-.3-.2-1.1 1.6-2.3 3.1-2.1 2.2-2.3-1.6-.5M354.8 189.7c.6.2 1.8.2 2.5 0 .6-.3.1-.5-1.3-.5s-1.9.2-1.2.5M394 190.5c-1.4.7-2.3 1.7-2 2.2.3.4-.7.8-2.3.9-4.1.2-4.6 1.4-.5 1.4 2.6 0 4.1-.7 6.1-3 3-3.3 2.6-3.7-1.3-1.5M412.6 190.9c-.3.5.5 1.1 1.8 1.3 1.7.4 2.3.1 1.9-.9-.6-1.5-2.9-1.8-3.7-.4M109 194.9c-1.8 2.1-3.1 4.3-3 4.7s-.4 1.1-1.2 1.6c-.9.6-.3.7 1.7.3 3.6-.8 6.3-3.2 8.9-7.7 1.6-2.8 1.2-2.6-2.8 1.6-2.5 2.7-4.6 4.3-4.6 3.6 0-.8 1.2-2.6 2.7-4.2 1.4-1.5 2.4-3 2.1-3.4-.3-.3-2 1.3-3.8 3.5M346.5 192.4c-1.8 1.3-1.8 1.4-.1 3.2 1.7 1.7 1.9 1.7 5.2-.1 1.9-1 3.7-1.6 4-1.3.9.9-2.6 3.8-4.6 3.8-1 0-2.2.5-2.6 1.2-.5.8-.2.9 1 .5 1-.4 2.9-1 4.3-1.3 2.8-.7 5.1-5.3 3.2-6.5-.7-.4-2.8.2-4.7 1.2-1.9 1.1-3.7 1.7-4.1 1.3-.3-.4 0-.9.7-1.1 1.3-.5 1.7-2.3.4-2.3-.5 0-1.7.6-2.7 1.4M408.5 192c-.3.5.1 1 .9 1 .9 0 1.6-.5 1.6-1 0-.6-.4-1-.9-1-.6 0-1.3.4-1.6 1M425.8 191.7c.7.3 1.6.2 1.9-.1.4-.3-.2-.6-1.3-.5-1.1 0-1.4.3-.6.6M35 194l-3.5.7 4 .1c2.2 0 4.9-.3 6-.8 1.8-.8 1.8-.9-.5-.8-1.4 0-4.1.4-6 .8M361.8 195.2c1.2 1.2 2.5 1.8 2.9 1.4s-.1-1.4-1.1-2.2c-3.1-2.2-4.3-1.7-1.8.8M53 195.5c-1.4 1.6-.3 2 1.9.6.8-.5.9-1.1.3-1.5-.5-.3-1.5.1-2.2.9M183.1 195.6c0 1.1.3 1.4.6.6.3-.7.2-1.6-.1-1.9-.3-.4-.6.2-.5 1.3M332 195.6c0 .8.5 1.2 1 .9.6-.4.8-1.1.5-1.6-.9-1.4-1.5-1.1-1.5.7M24 197.1c0 .5.5.7 1 .4.6-.3 1-.8 1-1.1 0-.2-.4-.4-1-.4-.5 0-1 .5-1 1.1M335.4 197.6c-4.2 2.2-5.5 3.9-2.4 2.9 1.4-.4 4.3-1 6.5-1.4 2.2-.3 3.6-.9 3-1.2-2.7-1.6-4.5-1.6-7.1-.3M386.8 196.7c.7.3 1.6.2 1.9-.1.4-.3-.2-.6-1.3-.5-1.1 0-1.4.3-.6.6M403.5 197c-2.3.5-2.6.8-1.3 1.4.9.4 2.9.6 4.4.4 2.2-.2 2.4-.5 1.3-1.4-.8-.6-2.7-.7-4.4-.4M425.6 196.8c-.3.5-3 .7-6 .5s-5.7 0-5.9.4c-.3.5 1.8 1 4.8 1.1 5.6.2 10.6-1 8.7-2.2-.6-.3-1.3-.2-1.6.2M131.7 201.7c-3.1 2.7-5.4 5-5.2 5.1.5.6 8.7-5.3 10.9-7.7 3.5-3.8-.2-2.2-5.7 2.6M435 197.8c.1 1.7 1.9 3.4 2.9 2.8 1.7-1.1 1.3-2.3-.9-2.9-1.1-.3-2-.2-2 .1M321.8 199.7c.7.3 1.6.2 1.9-.1.4-.3-.2-.6-1.3-.5-1.1 0-1.4.3-.6.6M158.1 202.4c-1.3 3.3-.9 4.3.8 2.2.7-.8 1.1-2.3.8-3.3-.3-1.4-.6-1.2-1.6 1.1M362.9 202c-2.5 1-8.2 2.6-12.5 3.5-5.6 1.1-9 2.5-11.6 4.5-4.2 3.4-4.9 3.5-8.8 1.5-2.5-1.3-3.4-1.3-8.1.1-2.8.9-7.5 2-10.3 2.5-9.8 1.9-10.5 2.1-12.2 4-.9 1-3 1.9-4.5 1.9-4.1 0-4.5 1.8-.9 3.8 1.8.9 5.2 3 7.8 4.7 2.5 1.6 5.4 3.5 6.5 4.1 1 .7 3.3 2.5 5 4.1 1.8 1.6 4.3 3.5 5.8 4.2 1.4.7 3 2.6 3.7 4.3 1 2.8 1.3 2.9 2.8 1.7 1.9-1.6 4.8-1.4 7.8.6 1.8 1.2 2.4 1.1 4-.1 3-2.2 4.5-1.6 1.6.6-1.4 1.1-2 2-1.3 2 .6 0 1.5-.5 1.8-1 1.1-1.8 3.5-1.1 3.5 1 0 1.1.5 2 1 2 .6 0 1-.5 1-1.1 0-.5.4-.8 1-.4.5.3.7 1.2.3 2-.3.8 0 1.5.6 1.5s1.4-1.3 1.7-2.9c.4-1.7 1.2-3.2 2-3.5s1.4-1.2 1.4-1.9c0-.8 2.5-2.1 6-3.2 4.8-1.5 6.7-1.6 9.5-.8 3.8 1.2 10.2.2 13.8-2.1 1.2-.8 5.6-1.7 9.7-2.1 5.6-.5 7.1-.3 5.8.5-1.5.9-1.5 1.5-.6 3.8 1.6 3.7 1.6 3.6 3.3 2.2 1.4-1.2 1.4-1.5-.1-3.1-1.9-2.1-.7-2.5 1.9-.7 1.1.8 1.5 2.1 1.1 3.4-.5 1.8-1.7 2.4-7.6 3.2-3.9.6-7.6 1.6-8.1 2.1-1.6 1.6 2.2 1.4 7.3-.4 2.3-.8 6.2-1.6 8.6-1.7 4.9-.3 6.1-1.9 3.9-5-1.2-1.9-1.2-2.4.5-4.6 2.4-3 2.7-7.2.5-7.2-.8 0-1.5-.9-1.5-1.9 0-1.1-1-2.7-2.2-3.5-1.7-1.2-1.8-1.6-.6-1.6.8 0 2.1-.7 2.8-1.5 1-1.2.9-1.5-.7-1.5-1 0-2.3.4-2.8.9-.6.4-3.9 1.4-7.5 2.1s-7.4 2.1-8.5 3c-1.1 1-3.7 2-5.9 2.3-2.1.3-4.6 1.3-5.6 2.2-1.5 1.4-1.8 1.4-3 0-1.6-1.9-3.1-2-2.4-.1 1.1 2.8-2.5 4.6-9.2 4.6-4.3 0-6.3.4-6.1 1.1.2 1.4-5.6 3.2-8.7 2.6-1.4-.2-.7-.6 2.2-1.2 2.3-.4 4.1-1 3.8-1.2-.3-.3-2.3-.2-4.5.2-5.6.9-5.3 3.1.5 4 3.9.6 5.2.3 7.7-1.5 1.9-1.5 4.9-2.4 8.6-2.7 3.1-.3 6.3-1.1 7.2-1.9 2.8-2.5 4.9-1.6 3.1 1.3-.9 1.5-9.8 3.6-12.1 2.8-.9-.3-3.2.3-5.1 1.4-4.7 2.4-14.5 3.4-16 1.6-3.6-4.3 2.2-6.9 17.8-8.1 4.5-.4 8.2-1.1 8.2-1.7 0-2.2-24 1.8-28.5 4.7-2.1 1.4-2.4 2-1.4 3.2.9 1.1.8 1.4-.4 1.4-.9 0-1.9.5-2.3 1.1-.5.9.3 1 3 .5 2.3-.4 3.6-.3 3.6.4 0 .5-.9 1-1.9 1-1.1 0-2.3.5-2.6 1-.7 1.2-3.7-.2-7.9-3.7-1.5-1.3-4.3-3-6.1-3.7-1.8-.8-4.8-3-6.8-5-2-1.9-3.7-3.1-3.9-2.6-.2.6-2.7-.6-5.6-2.5-3-1.9-6-3.5-6.7-3.5-.8 0-1.7-.5-2-1-.3-.6.3-1 1.4-1 1.2 0 2-.6 1.9-1.3-.2-.7.9-1.3 2.6-1.5 2.7-.3 7.4 1.4 14.9 5.5 1.6.8 3.1 1.2 3.4.9s-3.2-2.3-7.8-4.5c-8.4-3.9-8.4-3.9-5.5-5 1.6-.7 4.9-1.1 7.3-.9 2.5.1 4.8-.3 5.1-.9 1.3-2 5.7-2.5 8.7-.9 1.7.9 4 1.6 5.2 1.6 2.3 0 4.7.9 11.8 4.1 8.2 3.7 18.8 7.9 19.1 7.6.4-.4-20.9-10.7-22-10.7-.2 0-1.6-.4-3.1-1-2.1-.8-2.4-1.3-1.6-2.8 1.6-3 9.9-5.7 24.4-7.9 2-.3 3.7-1 3.7-1.4 0-.5.9-.9 2-.9s2 .4 2 .9 1.5 1.4 3.3 2.1c7.5 2.9 8.7 3.6 8.7 4.7 0 .7-.8 1.3-1.7 1.3-1 0-.1.9 2 2 4.2 2.3 6.3 2.5 7.3.8.5-.7.2-1-.7-.6-.8.3-2.7-.1-4.4-.8l-3-1.3 3.7-.1c2.1 0 5.3.9 7.3 2s4.3 2 5.3 1.9c.9 0-.3-1-2.8-2.1-2.5-1.2-7.7-3.6-11.6-5.5-3.9-1.8-7.5-3.3-8-3.3s-2-.9-3.4-2c-3-2.3-4.1-2.3-10.1 0m35.1 27.2c0 1.8 2 .6 2-1.2 0-1.1-.5-2-1.2-2-.6 0-.8-.3-.5-.7.4-.3 1.6.2 2.6 1.1 1.8 1.7 1.9 2 .5 4.1-1.8 2.8-9.9 4.1-12.1 1.9-1.2-1.2-1-1.4 1.4-1.5 4.4-.1 6.4-1.2 5.3-2.9-.8-1.2-1-1.2-1.6.3-.5 1.3-1.8 1.7-5.4 1.7-3.4 0-5 .4-5.4 1.6-.3.8-1 1.2-1.6.9-.5-.3-1 0-1 .9 0 .8.6 1.7 1.3 1.9.6.3-.1.5-1.8.5-1.6 0-2.4-.2-1.7-.5.6-.2 1.2-1.2 1.2-2.1 0-1.2-.3-1.3-1.2-.4-2 2-3 1.4-1.1-.7 1-1 4.8-2.6 8.5-3.6 4-1 6.9-2.4 7.3-3.4.5-1.3.9-1.2 2.5.9 1.1 1.4 2 2.8 2 3.2m9 4.5c-.1 1.9-2.2 5.3-3.4 5.3-1 0-.7-2.9.6-5 1.6-2.5 2.8-2.6 2.8-.3m-18.2 1.1c.2.7-.7 1.2-2.3 1.2-2.2 0-2.4-.2-1.3-1.5 1.5-1.6 3-1.5 3.6.3M403.2 215.1c.2.6.8 1 1.3 1s1.1-.4 1.3-1-.4-1.1-1.3-1.1-1.5.5-1.3 1.1M76.5 218c-1.6.7-1.2.9 1.8.9 2.3.1 3.6-.3 3.2-.9-.7-1.2-2.3-1.2-5 0M146.5 219.9c-.3.6-.5 2.2-.4 3.8 0 1.5-.2 5.3-.5 8.3l-.6 5.5 1.5-5.5c2-7.2 2.7-13 1.5-13-.5 0-1.1.4-1.5.9M247.2 220.4c4.6 1.4 5.7 2.4 3.8 3.6-1.2.8-1 1 .8 1 1.3 0 2.2-.6 2.2-1.4 0-2.2-4-4.6-7.5-4.5l-3 .1zM71.8 220.7c.7.3 1.6.2 1.9-.1.4-.3-.2-.6-1.3-.5-1.1 0-1.4.3-.6.6M228.6 225.7c1 4.3 1.6 4.7 2.9 2.2 1.6-2.9.9-4.9-1.6-4.9-1.6 0-1.8.5-1.3 2.7M240 225c-1.6 3.1-.1 4.4 2 1.8 1.8-2.2 1.8-3.8 0-3.8-.5 0-1.4.9-2 2M222 225.4c0 .8.4 1.8 1 2.1.5.3 1.4 2 1.9 3.8.9 3 1 2.8.8-1.8-.2-3.9-.6-5.1-1.9-5.3-1.1-.2-1.8.3-1.8 1.2M258.6 225.5c.4 1.1-.1 1.5-1.7 1.6l-2.4.1 2.5.7c1.4.4 3 1.8 3.7 3.1 1 1.9 1.3 2.1 1.3.7 0-1-.7-3.1-1.5-4.7-1.6-3.1-2.9-4.1-1.9-1.5"/>
	<path d="M323.5 228c.3.5.8 1 1.1 1 .2 0 .4-.5.4-1 0-.6-.5-1-1.1-1-.5 0-.7.4-.4 1M320 229c0 .5.7 1 1.6 1 .8 0 1.2-.5.9-1-.3-.6-1-1-1.6-1-.5 0-.9.4-.9 1M326 230.7c0 1.2.5 2.5 1.1 2.8 1.6 1.1 1.7.2.2-2.5-1.2-2.4-1.3-2.4-1.3-.3M267 233.7c0 1.3 5.8 3.5 8.2 3.1l2.3-.4-2.5-1.1c-4-1.6-8-2.4-8-1.6M330 236.1c0 .5.5.7 1 .4.6-.3 1-.8 1-1.1 0-.2-.4-.4-1-.4-.5 0-1 .5-1 1.1M310 237.7c0 .6.8 2.1 1.8 3.4 1.4 1.6 2.4 2 3.8 1.5 1.5-.7 1.6-.9.4-1.3-.8-.3-2.5-1.5-3.7-2.6-1.3-1.1-2.3-1.6-2.3-1M249.7 246.6c-1.1 1.1-.8 6.2.4 7 .8.4.9-.4.4-2.7-.6-2.7-.5-3.2.6-2.2 1.2 1.2 1.6 3.2 1.8 8 .2 4.4 2.1 2.3 2.1-2.2 0-2.5-.5-4.5-1.1-4.5-.5 0-.7-.5-.4-1 .3-.6 0-1-.9-1-.8 0-1.6-.5-1.8-1.1-.2-.5-.7-.7-1.1-.3M198.8 248.9c4.9.8 8.1 2.9 8.2 5.5 0 .4 1.4 2.4 3 4.3 2.9 3.2 3.9 6.3 2.2 6.3-.5 0-.6 2.2-.2 5 .6 4.5.4 5.2-2 7.5-1.4 1.4-2.9 2.5-3.3 2.5s-.7-3.4-.7-7.5c0-7.1-.1-7.5-2.2-7.5-3.5 0-4.5 1.2-4.6 5 0 1.9-.2 5.2-.5 7.3s-.1 3.5.4 3.1c.5-.3.9 0 .9.6s.5.8 1 .5c.6-.3 1 .3 1 1.4 0 1.4-.9 2.3-2.4 2.7-3.2.8-4.9-.3-4.3-2.7.5-1.7.3-1.7-1.9-.2-1.6 1-3.5 1.3-5.8.9-2.4-.5-3.6-.3-3.9.6-.3 1-.8.9-2.3-.3-1-.9-2.7-1.9-3.6-2.2-1-.4-1.8-1.5-1.8-2.6s-.4-2.3-1-2.6c-.5-.3-1-1.8-1-3.2 0-1.6-.7-2.7-2-3-2.3-.6-2.6-3.1-.5-4.7.8-.6 1.6-2.2 1.9-3.6 1.1-5.9 3-9.2 6-10.7l3.1-1.4-3 .6c-1.6.3-3.4 1.3-4 2.2-.5.9-2 2.7-3.2 4-1.3 1.4-1.9 3-1.6 4.3.6 2.3-2.1 6-4.4 6-1.8 0-1.6-1.3.7-4 2.3-2.6 2.6-4.2.8-3.4-1.4.5-6.5 9-8.6 14.4-2 5.1-1.9 7.1.3 8.4 1.1.6 3.4 2 5 3.2 4.9 3.5 11.7 6.4 14.8 6.4 1.5 0 4.4 1.2 6.3 2.6 2.5 2 4 2.5 6 2 1.5-.4 3.2-.2 4 .5 1 .8 1.7.7 2.9-.4.9-1 1.1-1.8.5-2.2-.5-.3-1-1.1-1-1.7s.8-.4 1.8.5c2.2 2 3.9 2.2 4.4.5q.45-1.05 1.8-.3c1 .6.9 1.1-.6 2.3-1.9 1.4-1.9 1.5 0 .8 1.1-.4 4.1-1.4 6.7-2.2 4.8-1.6 14.7-10.6 14.1-12.9-.1-.6.6-2 1.7-2.9 1.8-1.7 1.9-1.6 2.6 1.3.4 1.7 1.1 3.3 1.5 3.6 1.4.9 2.3-4 1.2-6.2-.5-1-1.2-3.5-1.6-5.5-.5-2.7-1.1-3.6-2.1-3.1-1.8.6-2-1.8-.4-3.4.8-.8.8-1.3 0-1.7-.6-.4-1.1 0-1.1 1 0 1.3-.9.7-3.3-1.9-3.8-4.4-4.7-4.6-4.7-1.2 0 1.8.5 2.5 1.8 2.5 2.3 0 6.1 7.5 4.5 9.1-.6.6-1.4-.4-2.2-3.1-1.1-3.7-3.1-5.5-3.1-2.9 0 .8-.5.8-1.5-.1-.8-.7-1.5-2.2-1.5-3.4 0-3.6-1.1-6.4-2.7-7-1.2-.5-1.4-.1-1.1 1.9.7 3.6-1.3 2.7-3.4-1.6-2.8-5.8-6.1-8.1-12-8.5l-5.3-.3zm5.9 26.9c-.2 6-.4 6.9-1.2 4.9-1.2-2.9-.7-15.8.5-13.6.5.8.8 4.7.7 8.7m12.5-7.3c1 2.1.9 2.9-.5 4.2-1.3 1.3-1.9 1.5-2.9.5-.9-.9-.9-1.2 0-1.2 1.6 0 1.5-4.7 0-5.3-.8-.3-.6-.6.5-.6.9-.1 2.3 1 2.9 2.4m-16.3 7.9c-.9.8-1 .5-.5-1.4.3-1.4.7-3.6.8-5s.3-.8.5 1.4c.3 2.2-.1 4.3-.8 5M222 272c0 1.1-.4 2-.9 2-1.4 0-2.3-1.8-1.6-3 1-1.7 2.5-1.1 2.5 1m9 1.2c0 .5-.4.8-1 .8-.5 0-1-1-1-2.3 0-1.8.2-1.9 1-.7.5.8 1 1.8 1 2.2m-64.4-1.1c.5.8.9.7 1.4-.1 1-1.6 4-.5 4 1.4 0 1.1-1.2 1.4-4.8 1.3-4.1-.2-4.8-.5-4.4-2 .5-1.9 2.7-2.3 3.8-.6m50.8 5.4c-.4.8-.1 1.5.5 1.5s1.1.4 1.1 1c0 1.5-1.9 1.2-3.6-.4-2-2-1.7-3.6.6-3.6 1.3 0 1.8.5 1.4 1.5m-55.4 3.8c0 2-2.5-.1-2.8-2.4-.2-2.3-.2-2.3 1.3-.5.8 1.1 1.5 2.4 1.5 2.9m11.1-1.5c-.6.2-.3 1.4.7 3l1.7 2.6-3.5-1.9c-1.9-1.1-4.1-2.6-4.9-3.3-2.1-2.1.4-3.2 4-1.8 1.7.6 2.5 1.2 2 1.4m48.5.4c-.3 1.3-.6 3.1-.6 4 0 2.1-4 3.5-5.1 1.7-.6-1-1.2-.9-2.8.5-2.3 2.1-2.7 1.5-1.1-1.5 1.2-2.1 3.6-2.6 4.2-.7.7 1.9 2.6 0 3.3-3.2.4-1.7 1.1-3 1.7-3s.8 1 .4 2.2m-54.1 4.6c-.7.7-4.5-2.9-4.5-4.1 0-.6 1.1 0 2.5 1.3s2.3 2.6 2 2.8m42.4-1.2c-.6.8-1.8 1.4-2.7 1.4-1.3 0-1.2-.3.3-2 2-2.2 4.3-1.7 2.4.6m-31.4.5c1.1 1.7-.1 2.1-1.5.4-.8-.9-.8-1.5-.2-1.5s1.4.5 1.7 1.1m-5.2 1.9c.8 0 .8.3 0 1.1-1.3 1.3-4.3.5-4.3-1.2 0-.6.7-.8 1.6-.5s2.1.6 2.7.6m20.1-.1c.3.5-.5 1.6-1.9 2.5-2.8 1.8-3.4.6-.9-1.8 1.8-1.8 2.1-1.9 2.8-.7m-7.4 2.2c0 1.1-.4 1.7-1 1.4-.5-.3-1-1.3-1-2.1s.5-1.4 1-1.4c.6 0 1 .9 1 2.1m22-1.5c0 .3-.5 1.4-1 2.5-1.8 3.3-5.9 1.8-4.6-1.6.5-1.4 5.6-2.2 5.6-.9m-29.2 2.3c1 .6.9 1-.7 1.4-2.1.5-3.6-.5-2.4-1.7.8-.8 1.5-.7 3.1.3m35.5 1.8c-.7.2-2.1.2-3 0-1-.3-.4-.5 1.2-.5 1.7 0 2.4.2 1.8.5m-22.9 2.8c.3.9 0 1.5-.8 1.5-.7 0-1.9-.7-2.6-1.5-1-1.2-.9-1.5.8-1.5 1.1 0 2.2.7 2.6 1.5M289.7 248.7c-.4.3-2.4.9-4.4 1.3l-3.8.8 4 .1c2.2 0 4.9-.6 5.9-1.4 1.5-1.2 1.6-1.5.5-1.5-.9 0-1.9.3-2.2.7"/>
	<path d="M185 250.5c0 .8.6 1.5 1.4 1.5.7 0 1.9-.7 2.6-1.5 1.1-1.3.8-1.5-1.4-1.5-1.6 0-2.6.5-2.6 1.5M350.8 249.6c-.5.4-.8 1.6-.8 2.8 0 1.4.3 1.7 1.1.9.6-.6.9-1.9.7-2.8-.1-.9-.6-1.3-1-.9M354.5 250c-.3.5.3 1 1.4 1 1 0 2.6.3 3.4.6s1.7-.2 2-1c.5-1.3-.1-1.6-2.8-1.6-1.8 0-3.7.4-4 1M329.7 250.7c-.2.4.4 2.7 1.5 5 1.3 3 2.5 4.3 3.8 4.3 1.1 0 2-.5 2-1.1 0-.5-.4-.8-.9-.4-.6.3-1.5-.4-2.1-1.5-.9-1.6-.8-2 .5-2 .8 0 1.5.6 1.5 1.2 0 .9.3.9.9-.1.8-1.2 1.3-1.2 2.4-.3 1.6 1.4 5 .5 4.1-1-.3-.5-1.2-.7-1.9-.4-.7.2-1.6-.1-1.9-.9s-1.8-1.3-3.5-1.3c-1.7.1-3.7-.4-4.5-1.1s-1.6-.8-1.9-.4M181 254.6c0 .8.5 1.2 1 .9.6-.4.8-1.1.5-1.6-.9-1.4-1.5-1.1-1.5.7M189.1 255.4c-.9 1.1-1 2-.1 3.5 1.5 2.8 2.2 2.6 1.4-.4-.9-3.5.5-3.1 1.7.5.6 1.6 1.8 3 2.6 3 .9 0 1.3-.6 1-1.3-.3-.8-.1-2 .3-2.8.6-.9 0-1.7-2.2-2.6-3.7-1.6-3.3-1.6-4.7.1M303 255c-1.2.8-1 1 .8 1 1.3 0 2-.4 1.7-1-.7-1.2-.6-1.2-2.5 0M356 255c-1 .6-1.2 1.2-.4 2 .7.7 1.6.5 2.9-1 1.4-1.5 1.5-2 .4-2-.8 0-2.1.5-2.9 1M307.6 256.8c-.3.6.1 1.2.9 1.6.9.3 1.2 1.2.8 2.2-.5 1.4-.3 1.5 1.5.5 2.9-1.5 5.5 1.2 5 5.1-.4 2.4 0 3.1 2 3.9 3.2 1.2 4.9-.3 2.8-2.4-.9-.9-1.6-2.3-1.6-3.1 0-2.3-3.2-5.6-5.4-5.6-1.1 0-2.7-.7-3.7-1.6s-2-1.1-2.3-.6m10.1 9.4c-.3.8-.6.5-.6-.6-.1-1.1.2-1.7.5-1.3.3.3.4 1.2.1 1.9M204.8 258.2c.8.8.9 1.5.1 2.5-1.3 1.5-.1 1.7 2 .4 1.8-1.2.7-4.1-1.6-4.1-1.3 0-1.4.3-.5 1.2"/>
	<path d="M158.3 260c-3.6 1.6-4.7 2.8-6.8 7.7-4.6 10.2-2.1 19 8.3 28.9 2.5 2.5 6 5.2 7.7 6.1 8.1 4.2 10.3 5.2 14 5.8 2.2.4 4.9 1.3 6 2 3.3 2 7.6 2.7 9.1 1.4 1.1-.9 2-.8 3.9.5 3.2 2.1 4.7 2 7.8-.4 1.4-1.1 3.3-2 4.2-2s2.9-.7 4.5-1.5c2.5-1.3 3.6-1.3 8.2-.1 6.1 1.6 9.3.7 3.4-.9-3.6-1-3.7-1.2-2.2-2.8 1-.9 2.9-1.7 4.2-1.7 2.8 0 9.4-3.1 14.1-6.6 1.7-1.3 3.8-2.4 4.6-2.4s3.4-.9 5.8-2c4.4-1.9 4.4-2 1.3-2-1.7 0-3.7.7-4.5 1.6s-2.2 1.4-3.7 1.1c-1.6-.3-3.4.4-5.6 2.2-5.3 4.5-8.4 6.1-11.8 6l-3.3-.1 3.8-1c2-.6 5.9-2.9 8.5-5.3 3.2-2.9 5.9-4.5 8.1-4.7 2.3-.2 3.9-1.1 5-2.8 1.5-2.5 1.5-2.5-.5-.7-2.5 2.1-3.4 2.2-3.4.2 0-.8-.4-1.5-1-1.5-.5 0-1 .4-1 1 0 .5-.4 1-.9 1s-.9-1.7-.9-3.8c0-5.3-.2-6-1.2-3.7-.8 1.9-.9 1.9-.9-.3-.1-1.2-.6-2.2-1.1-2.2-.6 0-.8 1-.4 2.4.3 1.4.1 3.3-.6 4.3-1 1.5-1.1 1.4-.7-1.2.5-3.2-3.8-15.5-5.4-15.5-.6 0-.6.7 0 1.7 2.7 5.2 4.1 11.5 3 13.5-.9 1.6-.8 2.2.2 2.9 1.1.6 1.1 1.1.1 2.1-.9.9-1.2.9-1.2-.5 0-2.5-1-2.1-4.5 1.8-2 2.1-2.8 3.8-2.2 4.4s.2 1.3-1.1 2c-1.8.9-1.9.8-1.5-1.2.5-2 .3-2-2.8.8-1.9 1.6-4.1 3.8-4.9 4.7-1 1-3.7 1.8-7.5 2.2-9.4.8-13.5 1.7-13.5 3.1 0 .7-.7 1.8-1.5 2.5-1.2 1-1.5 1-1.5-.3 0-2.1-10.8-2.9-11.9-.9-.6 1.1-1.1 1.1-2.4-.3-1.5-1.5-1.5-1.8-.2-3.1.8-.9 1.9-1.2 2.5-.9.5.3 1 .1 1-.4 0-.6 1-1.1 2.3-1.1 1.7 0 1.9-.2.7-1-.9-.5-1.9-.5-2.5 0-1.7 1.4-12.1-.6-16.3-3.1-2-1.2-5.4-3.8-7.4-5.7-2.1-2-4.1-3.2-4.5-2.8-.8.8 8.3 9.3 11 10.2 2.2.7 2.2 2.4-.1 2.4-2.6 0-11.7-9.7-14.5-15.5-2.2-4.4-2.4-5.6-1.6-10.5 1.4-8.7 2.6-10.8 7-12.2 2.2-.6 3.9-1.7 3.9-2.5 0-.7-.1-1.3-.2-1.2-.2 0-2.2.9-4.5 1.9m83.7 29c0 .5-.9 1.9-2 3-2.3 2.3-2.4 2.1-.8-1.5 1.1-2.5 2.8-3.4 2.8-1.5m-5 2c0 .5-.4 1-1 1-.5 0-1-.5-1-1 0-.6.5-1 1-1 .6 0 1 .4 1 1m-4 5.4c0 .9-3 1.4-3.5.6-.4-.6.3-1 1.4-1 1.2 0 2.1.2 2.1.4m-55 5.4c0 .5-1.3.7-3 .4-1.6-.2-3-.6-3-.8s1.4-.4 3-.4c1.7 0 3 .4 3 .8m34.8 1.1c1.7 1.1-1.8 2.1-6.8 2l-3.5-.1 4-1.3c5.1-1.6 4.8-1.6 6.3-.6m1.2 4c-1.6 1-6.2 1.5-9.5 1.1-2.1-.3 4.2-1.6 8.5-1.8 1.9-.1 2.1.1 1 .7m-9.3 3.7c-.3.3-1.2.4-1.9.1-.8-.3-.5-.6.6-.6 1.1-.1 1.7.2 1.3.5"/>
	<path d="M196.8 261.2c-.2 1.8-.9 2.2-2.8 2l-2.5-.3 2.5 1.4c2.8 1.6 5 .5 5-2.4 0-2.7-1.8-3.3-2.2-.7M305.6 260.2c-.7 1.5 2.7 9.8 3.9 9.8.7 0-.6-5.2-1.5-6.5-.4-.6-1-1.9-1.2-3-.4-1.7-.6-1.8-1.2-.3M265.5 261c-1.8.7-1.8.9-.3 1.5.9.3 2.9 0 4.5-.9l2.8-1.5H270c-1.4 0-3.4.4-4.5.9M286.5 261.7l-2.9 1.6 2.3.8c2.8 1.1 5.3-.1 2.5-1.2-1.6-.6-1.6-.8-.2-.8.9-.1 2-.6 2.3-1.1.9-1.4-.5-1.2-4 .7M209.2 264.5c0 1.6.2 2.2.5 1.2.2-.9.2-2.3 0-3-.3-.6-.5.1-.5 1.8M350.4 263.5c-1.9 1.4-1.9 1.4.3 1.5 3 0 5.4-1 4.7-2.1-.8-1.3-2.8-1.1-5 .6M321.8 266.2c1.8 3.2 4.2 4.9 4.2 2.9 0-.6-.4-1.1-.9-1.1s-1.2-1.1-1.5-2.5c-.4-1.4-1.3-2.5-2.1-2.5-1.2 0-1.2.5.3 3.2M106 265.9c0 1.4-.6 2.1-2 2.1-1.1 0-2-.5-2-1 0-.6-.7-1-1.5-1-2.3 0-1.8 1.9.9 3.1 1.9.9 2.9.7 5-.6 2.7-1.8 3-3.5.8-4.3-.7-.2-1.2.6-1.2 1.7M110.9 267c-2.1 1.7-2.1 1.9-.6 2 1 0 2.7-.9 3.9-2 3-2.7 0-2.8-3.3 0M294 266.6c0 .8.5 1.2 1 .9.6-.3 1-1 1-1.6 0-.5-.4-.9-1-.9-.5 0-1 .7-1 1.6M278.5 266.9c-.3.5-.1 1.2.5 1.6.5.3 1-.1 1-.9 0-1.8-.6-2.1-1.5-.7M122.5 268c-.3.5.1 1 .9 1 .9 0 1.6-.5 1.6-1 0-.6-.4-1-.9-1-.6 0-1.3.4-1.6 1M196 268.5c0 .8.4 1.5 1 1.5.5 0 .7-.7.4-1.5-.4-.8-.8-1.5-1-1.5s-.4.7-.4 1.5M116.5 269c.3.5.8 1 1.1 1 .2 0 .4-.5.4-1 0-.6-.5-1-1.1-1-.5 0-.7.4-.4 1M156.3 269.5c-.9 2.5.4 2.9 1.7.6.7-1.5.7-2.1 0-2.1-.6 0-1.3.7-1.7 1.5M207.8 270.7c-.2 1.8-.1 3 .4 2.7.4-.3.8 0 .8.5 0 .6.3 1.1.8 1.1.4 0 .8-1.7.9-3.7.1-2.3-.1-3.2-.6-2.4-.7 1.1-.9 1.1-1.3 0-.3-.8-.7 0-1 1.8M191.8 271.2c-1 1-1.8 2.4-1.8 3.1s-.5 1.8-1.1 2.4-.8 1.6-.5 2.2c1.3 2 2.4 1.1 3.1-2.7.4-2 1.2-4.3 1.7-5 1.7-2 .5-2.1-1.4 0M286 271.6c0 3.4 1.4 6.1 2.4 4.6.3-.6.2-1.3-.4-1.7-.5-.3-1-1.1-1-1.6 0-.6.5-.7 1-.4 1.6 1 1.2-1.1-.5-2.5-1.3-1.1-1.5-.8-1.5 1.6M141.3 270.7c2.4.6 2.1 2.1-.5 2.6-2 .4-2 .4.4.6 1.5 0 3-.4 3.4-1 .8-1.3-1.4-2.9-3.6-2.8q-1.65.15.3.6M244 271c0 .5.5 1 1 1 .6 0 1-.5 1-1 0-.6-.4-1-1-1-.5 0-1 .4-1 1M274.4 270.8c-1.4.9-3.7 5.2-3.1 5.8.2.3 1.6-1.1 3.1-3.1 2.5-3.3 2.5-4.4 0-2.7M135.8 271.7c.6.2 1.8.2 2.5 0 .6-.3.1-.5-1.3-.5s-1.9.2-1.2.5M153.6 274.2c-.9 3.4-.7 6 .3 5.4 1.4-.9 2.3-5.8 1.3-6.8-.6-.6-1.2 0-1.6 1.4M193.6 274.5c-.3.9-.6 2.4-.5 3.3 0 .9.5.4 1-1.2.9-3.2.6-4.8-.5-2.1M241.2 273.7c-1.5.6-.6 2.3 1.4 2.3.8 0 1.4-.7 1.4-1.5 0-1.5-.6-1.7-2.8-.8M249.3 277c.6 2.2 1.3 3.7 1.5 3.5.7-.7-.8-7.5-1.7-7.5-.5 0-.3 1.8.2 4M196.1 277.6c0 1.1.3 1.4.6.6.3-.7.2-1.6-.1-1.9-.3-.4-.6.2-.5 1.3M223.1 289.7c-.6 1.6-2.6 3.9-4.4 5.1-2.9 2.1-3 2.3-.7 1.7 3-.8 7-5.3 7-7.8 0-2.4-.6-2.1-1.9 1M191.9 299.1c-1.1.7-.9.9.8.9 1.2 0 2.7.8 3.2 1.7 1 1.7 1 1.7 1.1.1 0-2.2-3.1-4-5.1-2.7M187 302.8c0 .5.7.9 1.5.9s1.2-.4.9-.9c-.7-1-2.4-1-2.4 0"/>
	<path d="M192.8 302.7c.7.3 1.6.2 1.9-.1.4-.3-.2-.6-1.3-.5-1.1 0-1.4.3-.6.6"/>
</svg>
