<?xml version="1.0" encoding="utf-8"?>
<svg xmlns="http://www.w3.org/2000/svg" viewBox="0 0 1344 462">
	<path d="M660.7.7c-.4.3-.7 2-.7 3.7.1 2.8.2 2.9 1.4 1.3.7-.9 1.8-1.7 2.5-1.7.6 0 1.1-.5 1.1-1 0-1.5 2.6-1.2 3.9.4.9 1 .8 1.5-.4 2-.9.3-1.5 0-1.5-1.1 0-1.3-.3-1.3-1.5-.3-2.3 1.9-1.8 2.9 1.3 2.6 1.5-.2 3.3-.4 4-.5.6 0 1.2-1.4 1.2-3.1 0-3-.1-3-5.3-3-3 0-5.7.3-6 .7zM631 5.8c-4.8 2.3-5.9 6.2-5.9 20.7-.1 13.5.7 17.7 4.1 20.5 2.9 2.4 11 2.7 13.2.5.8-.8 1.8-1.5 2.2-1.5.3 0 .4 9.6.1 21.2-.4 17.3-.9 22.8-2.6 29.2-3.6 13.5-10.5 24-19.9 30.3-4.8 3.2-12.5 7.3-13.8 7.3-.1 0-.4-1.9-.6-4.3l-.3-4.2-7.2-.3-7.3-.3v3.5c0 1.9.5 3.8 1 4.1.6.4 1-.7 1-2.4 0-3 .1-3.1 5-3.1h5v7.5l-10.1-.3c-6.7-.2-10.5.1-11.5.9-1.6 1.3-1.9 8.5-.4 9.4.6.4 1-1.2 1-3.9 0-4.2.2-4.6 2.4-4.6 2.1 0 2.5.6 2.8 3.2.2 2.8.8 3.4 3.3 3.8 1.8.3 3.1 1.2 3.3 2.3.3 1.7-.6 1.8-13.3 1.5l-13.6-.3.3 35.3.3 35.2-58 .1c-31.9.1-82 .2-111.3.3l-53.3.1.3-6.7c.1-3.7-.1-7-.5-7.4-.4-.4-3.5-.9-7-1l-6.2-.3 4.5 1c2.5.6 5.1 1.3 5.8 1.5.9.3 1.1 2.5.8 8.9-.4 7.8.6 11.8 2 8.1.5-1.3 10.8-1.5 86.7-1.6 164-.2 227.1.1 228.3 1.1.8.7 1.4.6 1.9-.1.3-.5 1.9-1 3.5-1 2.3 0 3.1.5 3.6 2.5.3 1.4 1 2.5 1.5 2.5s.9-1.1.9-2.5c0-2.4 1.1-3 5-2.7.8.1 45.4.2 99 .2 53.6.1 123.5.4 155.3.7 54.4.6 57.7.7 57.7 2.4 0 1 .5 2.1 1 2.4.6.4 1-.5 1-1.9 0-2.1.5-2.6 2.4-2.6 1.8 0 2.6.6 2.9 2.2l.4 2.3 1-2.5 1-2.4 37.9.2c20.8.1 39.4.2 41.2.2 2.2 0 3.2.5 3.2 1.5 0 1.9 1 1.9 2.4-.1 1.1-1.4 14.1-1.6 127.4-1.7 125.5-.2 126.3-.2 126.7 1.8.5 2.2 1.3 22.4 1.7 47.8.2 10.6-.1 17.1-.7 17.5-.5.4-109.9.8-243 .9-133.1.1-252.6.2-265.5.3-12.9.1-47.5.1-76.9.1l-53.4-.1.6-3.5c.3-1.9.2-3.7-.2-3.9-.4-.3-2.7 1.5-5 4l-4.4 4.4h-28.2v-3c0-4.5-2-3.6-2.1 1l-.2 4 7.2-.3c3.9-.1 12.4-.1 18.9 0 9.4.3 11.7.6 11.7 1.7 0 .8-.4 1.7-.9 2-1.1.7-57.1 1.5-58.7.9-.7-.2-1-1.3-.7-2.4.5-1.7 1.5-1.9 10-1.9 6.7 0 9.2-.3 8.7-1.1-.4-.7-2.2-.9-4.7-.6-4.8.7-7.8-.7-12.6-5.7-3.6-3.7-5.9-4-4-.5.6 1.1.8 2.8.4 3.7-.3.9-.3 4 .1 6.9l.6 5.3h4.8c3.9 0 4.9.3 5.3 2 .4 1.7 1.2 2 4.9 1.8l4.3-.3.3 4.7c.2 3.3.8 5 2 5.6.9.4 6.1.6 11.6.4l9.8-.3-.4-4.4c-.3-2.4-.1-4.8.5-5.4.6-.6 3.5-1.1 6.4-1.1 4.6 0 5.3-.3 5.3-2s.7-2 4.5-2c4.5 0 4.5 0 4.5-3.5 0-2.7.4-3.5 1.8-3.5.9-.1 144.9-.2 319.9-.3 259.9-.2 318.4-.4 319.5-1.5.9-.9 1.2-3.7 1.1-8.5-.1-4-.5-19.7-.9-35-.4-19.3-1-28-1.8-28.3-.6-.2-58.5-.5-128.6-.6l-127.5-.3-.3-6.3c-.3-6.2-.4-6.4-3.7-7.8-4.2-1.7-10.7-1.8-12.3-.2-.7.7-1.2 2-1.2 2.9 0 1.5-.7 1.7-3.7 1.3-2.1-.3-5.6-1.2-7.8-2-6.4-2.3-7.7-6-8.3-23.2l-.5-14.2 4.1-4.4c7.5-8.2 7.4-17.7-.2-18.9-6.6-1-26.1-.1-28.6 1.3-3.3 1.8-1.1 2.4 3.7 1.1 4.9-1.4 15.6-1.4 14.8-.1-.7 1.2 8.5 12.1 9.6 11.4.5-.3-1.2-3-3.6-6-5-6.1-5.1-6.4-3-6.4.8 0 1.5.6 1.5 1.3 0 .7 1.8 3.1 4 5.2s4 4.3 4 4.8-1 1.7-2.3 2.7c-1.3 1.1-3.4 3.9-4.8 6.4-2.2 4.3-3.9 5.8-3.9 3.6 0-1.2-16.2-20.1-16.8-19.5-.5.5 8.7 12.1 14.9 18.6 3.2 3.4 3.9 4.9 3.9 8.2v4.1l-9.7-10.3c-5.4-5.7-10.2-11.2-10.7-12.1-.4-1-1.7-2-2.7-2.3-1.3-.4-1.9-1.4-1.9-3.4 0-2.8 0-2.8 4.3 1.9 2.3 2.6 5.9 6.8 8.1 9.3 2.1 2.5 4.1 4.4 4.4 4.1.8-.9-2.1-4.6-10-12.9s-8.8-8.5-8.8-1.5c0 2.4 1 4.1 4.4 7.2 5.7 5.2 6.6 7.8 6.6 18s-1.4 18.3-3.8 21.6c-2.2 3-9.3 6.6-14.5 7.3-3.5.5-4 .3-5.5-2.4-2.2-3.7-4.1-4.3-9.2-2.8-5.6 1.7-7.2 4.2-6.4 10l.6 4.6-162.1-.1c-176-.1-164 .2-164.1-5.4 0-1.2-.4-2.2-1-2.2-.5 0-1 1.8-1 4.1v4.1l-44-.5c-24.2-.2-44.2-.6-44.4-.8-.3-.3-.7-15.4-1-33.6l-.5-33.2 3.2-.6c1.8-.3 7.5-.5 12.7-.3l9.5.3.5 3.1c.3 1.6 1.9 4.7 3.6 6.8l3.1 3.7.2-6.3c.1-3.4.4-6.5.7-6.8.3-.3 10.3-.6 22.2-.7 16.1-.2 21.8.1 22.4 1 .6.9.8.9.8-.1 0-.9 2.8-1.2 10.5-1.2 8.5 0 10.3.3 9.9 1.4-.3.8-.1 1.7.5 2.1.7.3 1.1-.2 1.1-1.4 0-2.2 2.4-2.3 45.7-2.6h8.3l.1 3c0 1.6.2 5.2.4 8l.4 5-4.7 2.2c-9 4.3-19.7 10.4-21.7 12.5l-2 2 2.5-1.3c1.4-.7 4.1-2.4 6.1-3.6 1.9-1.3 7.2-4.1 11.6-6.2 6.5-3.2 8.3-3.7 8.7-2.5.6 1.6 4.5 3.4 6.1 2.8.6-.3 1-4.2 1-9.2-.1-14.4-1.3-13.2 13-13.2 6.8 0 12.6.4 12.9.9.3.4.6 13.6.6 29.2.1 29.2.6 37.9 2.2 37.9.5 0 .7-14 .5-35.2l-.5-35.1-7.3.2-7.4.2.3-6 .4-6.1h-5.1c-5.4 0-6.3-1-5.8-7 .2-2.5.1-2.5-7.3-2.5h-7.5l-.3 4.8c-.3 4.6-.4 4.7-3 4.1-3.3-.8-14.9-8.2-17.9-11.5-13.7-15.1-15.4-20.9-15.9-53.6l-.3-22.2 5 .6c5.4.6 7.8-.7 10.5-5.9 2.1-4.1 1.9-25.6-.3-30.3-.9-1.9-2.3-3.5-3-3.5-.7 0-2.2-.6-3.3-1.2-1.7-1.1-2.6-1-5.8.7-2 1.1-4.3 3.3-5.1 5-2.9 6.2-3.9 6.5-20.8 6.5h-15.4l-2.4-5.4c-3.7-8.4-7.7-10.3-14.5-6.8zm8.5 7.8c2.8 3.6 6.1 7.8 7.5 9.2 1.4 1.5 3.3 3.8 4.3 5.2.9 1.3 1.7 2 1.7 1.4 0-1.1-2.6-4.9-5.2-7.8-2.4-2.6-2.3-3.9.1-2.6 2.9 1.5 29 1.3 32.1-.3 1.4-.7 3.1-2.5 3.8-3.9 1.9-4.1 5.9-6.8 9.8-6.6 3.2.1 3.3.2 1.8 1.9-1.6 1.7-1.4 2.1 2 5.5 2.9 2.9 3.6 4.4 3.6 7.2l-.1 3.7-6.2-6.8c-3.4-3.7-6.8-6.7-7.6-6.7-1.2 0 3 5 11.2 13 1.5 1.5 2.7 3.4 2.7 4.3 0 .9-2.5-1.1-5.7-4.6-9.2-9.7-9.4-9.9-10-9.3-.7.7 13.5 16.6 14.8 16.6 1.4 0 1.1 3.9-.7 7.6-2 4.2-2.8 4.2-6.1.4-3.5-4.2-5.1-3.8-1.9.4 3.1 4.2 3.2 4.6.5 3.9-1.1-.3-2.5-1.7-3-3-.5-1.5-1.4-2.1-2.1-1.7-.8.5-.9.2-.5-1 .4-.9.3-1.5-.2-1.1-.6.3-2.1-.6-3.4-1.9-2-2-3.7-2.5-9.8-2.9-11.6-.9-16-.8-21.3.4-4 1-5 1.7-6.1 4.3-2.2 5.2-5.4 8.6-8.1 8.6-1.4 0-2.3-.4-2-.8.3-.5-1.5-3.2-4-6-2.5-2.9-4.4-5.7-4.2-6.4.2-.6 2.8 1.7 5.8 5 2.9 3.4 5.7 6.2 6.2 6.2 1.2 0-1.9-4-7.8-10.1-4.3-4.6-4.4-4.9-4.4-11.3 0-3.6.4-6.6.9-6.6.4 0 2.9 2.6 5.4 5.7 7 8.9 10.6 12.8 11.1 12.2.3-.2-2-3.4-5-6.9-3-3.6-6.5-7.7-7.7-9.2-1.2-1.5-2.7-2.8-3.4-2.8-.6 0-.9-.9-.6-2 .5-2 .6-2 2.7.3 1.2 1.3 4 4.6 6.1 7.3 6.1 7.5 10.3 11.9 10.9 11.3.3-.3-3.7-5.5-8.8-11.4-5.2-6-9.2-11.4-8.9-11.9.4-.5 2.2.9 4.2 3 4.9 5.5 14.5 17.3 14.9 18.5.4 1.1 2.2 1.2 2.2.1 0-.4-1-1.8-2.2-3.2C644 22.7 632 8.1 632 7.6c0-2.1 3.2.5 7.5 6zm.3-4.8c.2.7-.2 1-1.2.6-.9-.3-1.6-1.1-1.6-1.6 0-1.3 2.3-.5 2.8 1zm58.9 1.9c-.4.3 0 1.5 1 2.5 2.2 2.5.8 3.6-1.7 1.3-1.5-1.4-1.7-2.1-.9-3.2.6-.7 1.4-1.3 1.7-1.3.3 0 .2.3-.1.7zm-55.2 2.4c1 3.1 0 3.3-1.9.4-1.4-2.1-1.4-2.5-.2-2.5.8 0 1.8.9 2.1 2.1zM681 37.5c2.7 2.5 5.4 7.5 4 7.5-1.3 0-1.3 40.3 0 49 .7 3.8 2.7 9.9 5.1 14.7 6.8 13.8 21.7 25.9 34.2 27.7 2.6.4 4.7 1.1 4.7 1.7 0 .5.5.9 1.1.9.6 0 2.4.9 4 2.1 3.8 2.6 5.9 1.9 5.9-2.1 0-2.9.2-3.1 3.3-2.8 3.1.3 3.2.5 3.5 5l.3 4.8h-3.8c-3.7 0-10.6-2-14.7-4.2-1.2-.7-3.7-1.3-5.7-1.4-4.4-.2-11.6-3.8-19.5-9.8-19-14.3-22.8-24.8-22.6-63.8l.1-22.7-3-2.5c-1.6-1.4-4.6-2.8-6.5-3.2-5-.9-17.1.1-18.9 1.6-1.3 1-1.5 4.8-1.5 23.6 0 12.2-.5 25.8-1.1 30.1-2.6 19.1-17 37.1-37.9 47.2l-4.5 2.1 26-.5c21.7-.4 71.4-.7 87.3-.5 3.4 0 4.2.3 4.2 1.8 0 1.8-1.7 1.9-26.2 2.5-17.6.5-26.5.3-27.4-.4-.8-.7-1.4-.7-1.9.1-.8 1.3-5.2 1.3-6 0-.4-.7-1.2-.7-2.5 0-1.1.6-12.6 1-28.6 1-21.7 0-27 .3-28.3 1.4-1.4 1.3-1.9 1.2-3.6-.2-1.2-.9-2.4-2.5-2.8-3.5-.9-2.4 2.5-2.3 4.8.3 1.8 2 1.8 2 3.1-.6.8-1.4 1.2-3.6.9-4.8-.5-1.8.6-2.6 8.7-6.4 15.3-7.3 24.8-18.9 29.3-35.9 2-7.3 3.4-52.3 1.7-52.3-1.8 0 2-8.1 4.2-9.1 1.2-.5 8-.8 15.3-.6 11.5.2 13.4.5 15.3 2.2zm-50.5 4.3c-.6.7-3.5-1.8-3.5-3.1 0-.5.9-.2 2 .8s1.8 2 1.5 2.3zm33.9 7c8.7.3 9.8-.3 8.9-5-.6-3.1.3-3.5 3.2-1.5 1.6 1.3 1.8 3.1 1.6 22.3-.2 41.3 4.3 53.4 25.9 69.4 2.6 1.9 5.6 4 6.6 4.7 1.5.9-1.5 1.2-14.8 1.2l-16.7.1-.3-2.8-.3-2.7-10-.3c-12.6-.4-14.3 0-14.7 3.6l-.3 2.7-15 .2c-8.2.2-16.2.4-17.7.6-4.1.5-3.5-.4 2.6-4.1 6.9-4.1 19.6-17.8 23-24.8 5.7-11.7 6.7-18.4 6.5-45.8-.1-20.1.1-25 1.2-25.7 1.1-.7 1.5.1 1.9 3.4l.5 4.2 7.9.3zm6.6-5.3V47h-13v-2.9c0-3.5.8-3.9 7.8-4l5.2-.1v3.5zm-37.2 2.3c.2.7-.2 1-1.2.6-.9-.3-1.6-1.1-1.6-1.6 0-1.3 2.3-.5 2.8 1zm101.7 81.4c.2.2.5 1.7.7 3.3.3 3 .2 3-5 3.3-5.8.3-6.9-.7-5.8-5.3.6-2.3 1-2.5 5.2-2.1 2.6.3 4.8.6 4.9.8zM595 138.5c0 1.8-.5 2.5-2 2.5-2 0-2.8-2.8-1.3-4.3 1.5-1.6 3.3-.6 3.3 1.8zm9-1.5c0 .5-.7.7-1.5.4-.8-.4-1.5-.8-1.5-1 0-.2.7-.4 1.5-.4s1.5.4 1.5 1zm56 .5c0 .8.5 1.5 1 1.5.6 0 1.3-.7 1.6-1.5.4-1 2-1.5 4.5-1.5 3.2 0 3.9.3 3.9 2 0 1.8-.7 2-7.5 2-7.5 0-8.6-.5-6.3-2.8 1.6-1.6 2.8-1.5 2.8.3zm16.6.7c.1 1.1-.4 1.8-1.5 1.8-1 0-1.7-.8-1.7-2 0-2.5 2.8-2.3 3.2.2zm59.8-1.6c1.7.7 2.2 4.4.6 4.4-.5 0-1-.7-1-1.5s-.8-1.5-1.7-1.5c-1 0-2.5-.5-3.3-1-1.2-.8-.9-1 1.2-1 1.4 0 3.3.3 4.2.6zm-135.5 1.5c2 .7 3.1 1.8 3.1 3 0 1-.3 1.9-.6 1.9-1.5 0-6.4-3.6-6.4-4.7 0-1.6-.1-1.6 3.9-.2zm130.1 7.4c3 1.6 3.7 2.9 2.1 3.9-1.1.7-7.3-3.9-6.4-4.7.9-.9 1-.9 4.3.8zm319 2.7c1.1 1.2 2 2.6 2 3.1s.7.7 1.5.3c1.7-.6 2.2 2.9.5 3.9-.5.3-1-.1-1-.9 0-.9-.3-1.6-.7-1.6-.5 0-2.1-1.6-3.6-3.5-3-3.8-2-4.9 1.3-1.3zm-447 7.4c0 2.2-1.8 1.6-3.6-1.1-2.2-3.3-.7-5.6 1.8-2.6 1 1.3 1.8 2.9 1.8 3.7zm129-3c.7.7 1 2 .8 2.9-.3 1.4-.7 1.3-3-.7-1.6-1.3-2.8-2.9-2.8-3.5 0-1.4 3.6-.5 5 1.3zm-1 5.9c2.9 1.5 4 3.5 2 3.5-1.5 0-6-3.1-6-4.1 0-1.2.6-1.1 4 .6zm2 8.2c0 2.3-2.6 1.4-3.8-1.2-.7-1.4-1.2-2.8-1.2-3.1 0-1.1 4.9 3.2 5 4.3zm301.2 6.5c1.4 1.8 4.4 5.2 6.7 7.6 2.3 2.4 4.1 5 3.9 5.8-.3 1.4-14.8-13.8-14.8-15.6 0-1.9 1.8-1 4.2 2.2zm2.8 9.3c3 3.5 6 6.5 6.7 6.5.6 0 1.4 1.9 1.8 4.2 1.4 8.2 3.5 11.9 7.9 13.9 2.3 1 5.1 1.9 6.4 1.9 1.2 0 2.2.6 2.2 1.3 0 .8 1.1 2.4 2.5 3.7 1.4 1.3 2.5 1.9 2.5 1.3 0-.5-.9-1.8-2-2.8-2.7-2.5-1.7-3.4 2.7-2.5 5.7 1.1 7.3 2 7.3 4 0 2.4 1.8 3.6 2.6 1.6.9-2.3-1.4-5.7-4.7-6.8-3.2-1.1-3.6-2-1.5-3.7.9-.7 2.7-.8 5.2-.3 3.8.8 3.9.9 4.4 6 .3 2.9.2 5.8-.2 6.5-.5.9-9.7 1.2-36.8 1.2h-36.1l-1.9-2.3c-1.1-1.2-2.5-2.2-3.1-2.2-.8 0-.6.7.4 1.8 2.3 2.5 2.1 3.2-.6 3.2-2.4 0-7.2-2.9-4.9-3 .6 0 1.2-.9 1.2-2.1 0-1.5.5-1.9 1.5-1.5.8.3 1.5.1 1.5-.4s.8-.8 1.8-.8c2.8.2 13.5-2.3 16.4-3.8 3.8-1.9 7.8-7.5 8.5-11.8.3-2 .9-3.6 1.3-3.6s4.2 3.7 8.3 8.2c13.8 15.1 15.9 17.3 15.1 15.8-1.4-2.7-8.7-11.4-16.1-18.9-6-6.2-7.3-8.1-7.3-10.7 0-1.8.4-3.5.8-3.8.5-.3 3.3 2.3 6.3 5.9 5.1 6 7.9 8.4 7.9 6.7 0-.4-3.1-4.1-6.8-8.2-6.5-7.1-9.1-11-7.4-11 .4 0 3.2 2.9 6.2 6.5zm-35 25.4c0 1.2-.9 2.1-2.4 2.5-2.4.6-5.2 5.9-4 7.7.3.5-.4.9-1.5.9-2.2 0-3.5-4.3-2.9-9.6.2-2.3 1-3.1 3.8-4 4.1-1.4 7-.3 7 2.5zm-303.4 81.8c-1 1-1.9-.5-1-1.8.6-1.1.8-1.1 1.2 0 .2.7.1 1.5-.2 1.8zm-57.1-.7c.3.5-.1 1-.9 1-.9 0-1.6-.5-1.6-1 0-.6.4-1 .9-1 .6 0 1.3.4 1.6 1zm47.9 10.5c-.5 1.3-3.8 1.5-21 1.5-18.6 0-21.7-.4-19.7-2.3.3-.4 9.8-.7 20.9-.7 17.7 0 20.3.2 19.8 1.5zm-11.9 3.5c-.3.5-4.2 1-8.6 1-5.1 0-7.8-.4-7.4-1 .3-.6 4.2-1 8.6-1 5.1 0 7.8.4 7.4 1zm.3 5.7c-.3 2.8-.3 2.8-9 3.1l-8.8.3V306h18.1l-.3 2.7zM692 10c0 .5.5 1 1 1 .6 0 1-.5 1-1 0-.6-.4-1-1-1-.5 0-1 .4-1 1zm-1.4 2.3c1 1.5 2.3 2.7 2.8 2.7 1.2 0-1.8-4.3-3.4-4.8-.8-.3-.6.5.6 2.1zm6.4 7.2c.7.9 1.5 1.3 1.7 1.1.7-.7-.7-2.6-1.9-2.6-.6 0-.6.6.2 1.5zm-14 .3c0 .8 6.3 8.4 12.9 15.4 1.7 1.8 3.3 2.9 3.6 2.6.6-.5-15.1-18.8-16.1-18.8-.2 0-.4.4-.4.8zm-55 1.9c0 .3 2.8 3.8 6.2 7.7 3.4 3.9 6.5 7.5 7 8 .4.5 1 .7 1.4.3.3-.3-2.5-4.2-6.2-8.6-6.4-7.3-8.4-9.1-8.4-7.4zm23.1-.2c.8 2 5.4 8.5 6.2 8.5 1.4 0 .6-1.6-2.9-5.5-2-2.2-3.5-3.6-3.3-3zm8 0c0 1.3 7.8 9.9 8.4 9.3.2-.2-1.5-2.6-4-5.4-2.4-2.7-4.4-4.5-4.4-3.9zm20.9.2c0 .7.5 1.3 1 1.3.6 0 1 .5 1 1.1 0 .7 3 4.6 6.7 8.8 3.7 4.2 7 8 7.5 8.5.4.5 1 .7 1.4.3.3-.3-2.1-3.7-5.4-7.4-3.3-3.7-7.4-8.4-9.1-10.3-1.7-1.9-3.1-2.9-3.1-2.3zm-21.5 4.6c2.1 2.6 4.1 4.5 4.3 4.2.6-.5-4.6-6.7-6.6-7.9-.8-.5.2 1.2 2.3 3.7zm5.5-3.5c0 .5 1 1.7 2.1 2.8 2.2 1.9 2.2 1.9 1-.3-1.2-2.4-3.1-3.9-3.1-2.5zm4 .1c0 1 2.7 4.1 3.6 4.1.7 0-1.5-3.8-2.6-4.5-.6-.3-1-.2-1 .4zm5.6 2.3c1.7 1.8 3.8 4.5 4.7 6 1.6 2.6 4.3 4 3.5 1.9-.6-1.9-9-11.1-10.1-11.1-.6 0 .3 1.5 1.9 3.2zm5.1 1c2.1 2.4 5 5.8 6.3 7.5 1.3 1.8 3 3.3 3.7 3.3 1.8 0-10.7-14.8-12.6-14.9-.7-.1.4 1.8 2.6 4.1zm-50.7-.1c0 1.7 13 17.2 13.8 16.5.4-.5-4.6-7.1-8.1-10.8-.7-.7-2.2-2.6-3.5-4.2-1.2-1.6-2.2-2.2-2.2-1.5zm45 2.7c0 1.2 1.9 2.6 2.6 1.9.2-.2-.2-1-1.1-1.7-.9-.8-1.5-.8-1.5-.2zm-14.3 95.9c-1.1 1-.8 8.3.3 8.3.6 0 1-1.3 1-2.9 0-3.4 1.4-4.1 7.6-4.1 4.4 0 4.4 0 4.4 3.5 0 1.9.4 3.5.9 3.5 1.3 0 1.9-4.3 1-6.8-.7-2-1.6-2.2-7.7-2.2-3.8 0-7.2.3-7.5.7zm373.2 63.1c1.2 2.3 5 5.6 5.7 5 .5-.5-5.2-6.8-6.2-6.8-.3 0 0 .8.5 1.8zm7.1 6.7c0 .5 1.8 3 4 5.5 2.1 2.5 3.9 4 3.9 3.5 0-.6-1.7-3-3.9-5.5s-4-4.1-4-3.5zm-8.8 1.1c.4 1.6 17 20.1 18.6 20.8 1.6.7.8-.7-2.8-4.9-4.4-5.2-16.2-17-15.8-15.9zm-.5 5.8c1.6 2.7 14.4 15.9 14.9 15.4.6-.6-3.4-5.6-10-12.6-3.9-4.1-6.5-5.6-4.9-2.8zm3.3 9.1c3.5 3.5 6.6 6.2 6.9 5.9.6-.6-11-12.4-12.3-12.4-.6 0 1.8 2.9 5.4 6.5zm-5.4-.3c4.2 4.7 6.6 6.9 7.2 6.3.7-.7-6.8-8.5-8.2-8.5-.5 0-.1 1 1 2.2zm23.4-1.7c.1 1.6 6.9 8.9 7.7 8.1.4-.4-1.2-2.6-3.5-4.9-2.3-2.3-4.2-3.7-4.2-3.2zm-33.5 5.5c1.6 1.6 3.3 3 3.9 3 .5 0-.3-1.4-1.9-3-1.6-1.7-3.3-3-3.9-3-.5 0 .3 1.3 1.9 3zm50.5-2c0 1.4 3.8 4.6 4.5 3.8.1-.2-.8-1.4-2.1-2.8-1.7-1.7-2.4-2-2.4-1zm-45 2.5c1.3 1.4 2.8 2.5 3.3 2.5.6 0 0-1.1-1.3-2.5s-2.8-2.5-3.3-2.5c-.6 0 0 1.1 1.3 2.5zm-16-.3c0 .9.5 2 1 2.3 1.3.8 1.3-.5 0-2.5-.8-1.3-1-1.3-1 .2zm3.2 0c.2.6 1 1.4 1.6 1.6.7.2 1-.2.6-1.2-.7-1.8-2.8-2.2-2.2-.4zm17.3.8c1 1.1 2 1.8 2.3 1.5.7-.6-1.8-3.5-3.1-3.5-.5 0-.2.9.8 2zm32.5-1.2c0 .5.7 1.5 1.5 2.2.8.7 1.5.8 1.5.2 0-.5-.7-1.5-1.5-2.2-.8-.7-1.5-.8-1.5-.2zM657 9.2c-1.6.6-2.1 1.5-1.8 3.5.2 1.4.9 2.8 1.6 3.1.7.2 1.2 0 1.1-.5-.1-.4-.1-1.8 0-3.1.1-2.1.5-2.2 7.6-2.2h7.5v2.9c0 1.7.4 3.2.9 3.5.4.3.8-1.4.7-3.7l-.1-4.2h-7.7c-4.2-.1-8.6.3-9.8.7zM294.8 146.7c-3.1.5-3.9 2.3-1 2.3.9 0 2.4 1 3.1 2.2 2.1 3.4 11.4 13.8 11.9 13.3.2-.2-2.1-3.4-5.2-7s-5.6-7-5.6-7.6c0-1.1 2-1.3 2-.2 0 .5 1.9 2.8 4.1 5.3 7.3 8.1 7.5 8.6 5.3 12.5-1 1.9-2.1 3.5-2.5 3.5-.3 0-2.9-2.6-5.6-5.8-9.9-11.3-12.3-13.7-12.3-12.4 0 1.4 4.3 6.5 12.8 15 5.2 5.3 5.2 5.4 5.1 11.3-.1 3.2-.3 5.9-.5 5.9-.1 0-2.5-2.4-5.3-5.3-2.8-2.8-5.1-4.8-5.1-4.2 0 .5 2.7 3.8 6 7.3 5.3 5.6 6 6.8 6 10.5v4l-2.5-2.3c-4-3.8-2.9-.7 1.3 3.3l5.9 5.9c2.4 2.6 7.2 4.3 16.6 5.8 8.8 1.4 9.7 1.8 9.7 4.6 0 2.3-.3 2.4-7.3 2.4h-7.2l-3.8-4.5c-2.1-2.5-4.3-4.5-4.9-4.5-.6 0 .7 1.9 2.8 4.2l3.9 4.3-6 .3c-5.5.3-6.2.1-8.4-2.5l-2.4-2.8 1.7 2.7 1.6 2.8h-4c-2.2 0-4-.3-4-.8 0-.4-2.2-3.2-5-6.2-5.4-6-5.5-6.2-4-9 1-1.8 1.5-1.5 6.2 3.5 2.8 3 5.6 5.5 6.2 5.5.6 0-1.5-2.6-4.7-5.8l-5.7-5.7.7-9.6c.3-5.2.2-12.2-.2-15.4-.6-5.2-1.2-6.4-5.2-10.3-3.9-3.9-4.4-4.9-3.9-7.6.3-1.7 1.5-3.7 2.6-4.5 2.3-1.5 2.6-3.1.7-3.1-1.9 0-5.4 4.1-6.2 7.2-.9 3.4 1.5 7.6 5.8 10.3 2.9 1.8 3.3 2.7 4 8.5 1 8.1.3 19.3-1.6 24.5-1.7 5-5 7.4-12.2 9-5.8 1.4-8.5 1.1-8.5-.8 0-.6-.7-1.8-1.5-2.8-1.3-1.4-2.3-1.5-5.7-.7-2.3.5-5.4 1.8-7 2.9-2.3 1.7-2.8 2.7-2.8 6.5v4.4l-22.7.1c-12.6 0-53.4-.1-90.8-.3-83.9-.4-136.1-.2-138 .6-1.3.5-1.5 6.1-1.5 37.1 0 28.3.3 36.7 1.3 37 1.8.8 239.7 1.1 239.7.4 0-2.7-5.7-2.9-118.9-2.9-77 0-116.8-.3-118.1-1-1.8-1-1.9-2.5-1.7-33.9.1-18.1.6-33.3 1-33.8.8-.8 44-.7 177.7.1 33.8.2 64.4.1 68-.2l6.5-.7v-4.9c0-4.1.4-5.2 2.6-6.8 3.3-2.5 9.2-2.9 9.7-.7.2 1.1-.8 1.9-3 2.5-2.9.9-3.3 1.4-3.6 4.8-.2 2.4.2 4.2 1 4.7 1.7 1.1 27.8 1.2 27.8.1 0-.4-1.8-2.6-4-4.7s-4-3.4-4-2.7c0 .7.4 1.2.9 1.2 1.1 0 2.4 3.1 1.6 3.8-.3.3-1.4-.3-2.4-1.2-1.9-1.7-1.9-1.7-1.4.3.7 2.9-1.1 2.6-3.5-.4-1.1-1.4-2.3-2.5-2.7-2.5-.5 0 0 .9.9 1.9 1.3 1.5 1.4 2.1.5 2.7-.7.4-1.5.2-1.7-.4-.2-.7-.8-1.2-1.3-1.2-.6 0-.7.4-.4 1 1.2 1.9-.9 1-3.7-1.7-2.6-2.5-4.2-2.1-1.6.5.9.9.7 1.2-1 1.2s-2.2-.6-2.2-2.5c0-2.7-.3-2.5 11-4.5 3.6-.6 8.5-1.8 10.9-2.7l4.4-1.7 4.9 5.5 4.9 5.4-3.5.3c-3 .3-4-.2-6.7-3.2-1.7-2-3.6-3.6-4.2-3.6-.6 0 .1 1.2 1.5 2.7 1.4 1.6 3 3.6 3.5 4.6.9 1.7 3 1.9 23.8 2.4 18.4.4 23.1.8 24 1.9.9 1.2 1.3 1.2 2.7-.5 1.5-1.7 1.5-2 .1-2.5-1.1-.5-1.4-1.5-1-3.5.7-3.1-1-5.3-5-6.5-1.8-.6-2.3-1.5-2.3-4.3 0-3-.2-3.4-1.5-2.3-.8.7-1.5 2.1-1.5 3.1 0 2.9-1.6 3.1-7.8 1.4-10.4-3-12-5.9-12.5-22.6-.5-14 .1-16 5.7-20.3 6.5-4.9 5.5-13.1-2.1-16.2-3-1.3-12.3-1.6-18.5-.7zm16.9 12.3c1.2 1.4 2.5 2.2 2.8 1.8.4-.4-1.3-3-3.9-5.9-2.5-2.8-4.6-5.5-4.6-6s1.5-.6 3.3-.3c3.4.7 8.6 4.9 7.4 6.1-.4.4-1.8-.5-3.1-2-3.4-4-5.2-3.3-1.9.8 1.8 2.3 3.4 3.3 4.5 2.9 1.2-.4 1.5 0 1.1 1.5-.5 2-4 5.8-4.7 5-.1-.2-2.6-3-5.4-6.2-2.9-3.1-5.2-6.5-5.2-7.4 0-1.1 1.3-.1 3.8 2.7 2 2.5 4.7 5.6 5.9 7zm724.3-11.4c0 1.1 10.3 13.4 11.2 13.4 1.1 0-9.4-13.9-10.4-14-.5 0-.8.3-.8.6zm-7.8 2.2c3.2 4.6 14.3 17.2 15.1 17.2 1.1 0-.4-2-8.3-11.3-3.5-4.2-6.8-7.7-7.3-7.7-.4 0-.2.8.5 1.8zm3.8-1c0 .4 2.5 3.4 5.5 6.7 3 3.3 5.5 5.5 5.5 5 0-.6-1.8-3-4-5.5-2.2-2.4-4-4.7-4-5.1 0-.4-.7-.9-1.5-1.3-.8-.3-1.5-.2-1.5.2zm-285.3.8c-1.3 1.3-.7 2.6.9 2 1-.4 1.4-.1 1.2.6-.3.7-1.5 1.4-2.7 1.6-2.1.3-2.1.5-.7 2 .9.9 2.7 3.1 4.1 4.8 1.4 1.8 3.7 3.5 5.1 3.8 4.3 1.1 3.8 0-1.1-2.5l-4.6-2.3.3-5c.3-4.5-.8-6.7-2.5-5zm-454.6.9c0 1.5 6.9 9.2 6.9 7.7 0-.7-1.6-2.9-3.5-5-1.9-2-3.4-3.3-3.4-2.7zm341.1 3.2c1.4 3.4 2.9 5.5 3.5 4.9.6-.6-3-7.6-3.9-7.6-.4 0-.2 1.2.4 2.7zm32.8-1.8c0 1.7 1.2 4.1 2 4.1 1 0 .1-3.8-1.1-4.6-.5-.3-.9-.1-.9.5zm16-.2c0 .4 1.1 2.7 2.4 4.9 1.3 2.3 3.1 6.6 4.1 9.7 1.1 3.6 2.2 5.4 3 5.1 1-.4.8-1.4-.6-4.2-1-2-3-6.3-4.5-9.4-2.3-5.2-4.4-8.2-4.4-6.1zm24 .3c0 1.9 3 7 4.1 7 .5 0 .3-1-.5-2.2-.9-1.2-1.6-3-1.6-4s-.4-1.8-1-1.8c-.5 0-1 .5-1 1zm-117 1c0 .5.5 1 1.1 1 .5 0 .7-.5.4-1-.3-.6-.8-1-1.1-1-.2 0-.4.4-.4 1zm26.7 7.7c1.3 4.9 2.9 9.2 3.5 9.8.7.7.8.4.4-1-.3-1.1-1.2-4.5-2-7.5-2.5-9.1-2.8-10-3.6-10-.4 0 .3 3.9 1.7 8.7zm9.3-7.9c0 3.5 7 19.5 7.7 17.6.2-.6-.8-3.3-2.1-5.9-1.4-2.6-2.8-6.2-3.2-8.1-.6-3.1-2.4-5.8-2.4-3.6zm72-.6c0 1.8 4.1 10.3 5.1 10.7 1.1.3 1.1.1.3-1-.6-.8-1.7-3.1-2.3-5.1-.7-2.1-1.7-4-2.2-4.3-.5-.4-.9-.5-.9-.3zm40 1.3c0 .8.5 1.5 1 1.5.6 0 1-.7 1-1.5s-.4-1.5-1-1.5c-.5 0-1 .7-1 1.5zm19-1c0 1.8 1.9 4 2.6 3.2.4-.4 0-1.5-.9-2.4-.9-1-1.7-1.3-1.7-.8zm-64 1.2c0 .7.4 2.2.9 3.5.5 1.3 1.5 4.2 2.2 6.5.7 2.4 1.6 4.3 2.2 4.3.5 0 .6-.8.2-1.8-.4-.9-1.2-3.1-1.7-4.7-1.5-4.5-3.8-9.2-3.8-7.8zm-49 .9c0 2 4 12.8 5.3 14.3.8.9 2.6 3.7 4 6.3 3 5.2 4.8 6.9 4 3.8-.3-1.1-.9-2-1.3-2-.5 0-1.2-1-1.5-2.3-.4-1.2-2-4.2-3.5-6.7s-3.4-6.3-4.1-8.5c-1.4-4.2-2.9-6.7-2.9-4.9zm18 1.4c0 1.1.5 2 1 2 .6 0 1-.9 1-2s-.4-2-1-2c-.5 0-1 .9-1 2zm-373.8.6c.2.9 1.4 2.4 2.8 3.3l2.5 1.6-2.3-3.3c-2.6-3.5-3.5-4-3-1.6zm286.4.4c.3 1.4 1 4.5 1.5 6.9.5 2.4 1.2 4.7 1.5 5 1.1 1-.6-7.9-2.1-11.2-1.2-2.4-1.4-2.6-.9-.7zm10.4-.8c.1.7 1 2.9 2.1 4.8s1.7 2.6 1.5 1.5c-.3-1.1-.8-3.2-1.2-4.8-.6-2.7-2.4-3.8-2.4-1.5zm22 1.1c0 2.3 1.9 8.3 5.3 17.2.9 2.2 2.3 6.5 3.2 9.5 2.4 7.9 11 23.4 15.3 27.5 5.3 5 6.4 4.3 1.4-.8-2.4-2.4-5.7-7.2-7.5-10.7-1.8-3.4-4.2-8.1-5.4-10.4-1.2-2.2-2.5-5.9-2.9-8.1-.3-2.2-1.9-6.5-3.4-9.5s-3.3-8.1-4-11.3c-1.2-6-2-7.3-2-3.4zm45-1.7c0 1.4 3.3 7.4 4 7.4.5 0-.1-1.8-1.1-4-1.8-3.6-2.9-5-2.9-3.4zm19.4 2.8c.2 4.4 1.6 6 1.6 1.8 0-5.1 1.9-3.8 5.1 3.5 1.7 3.8 3.4 7.5 3.8 8.3.5.8 1.6 4.1 2.5 7.2 1.6 5.5 3.6 8.5 3.6 5.4 0-.8-.4-1.7-.9-2-.5-.4-1.2-2.4-1.6-4.5-.3-2.2-1.3-4.7-2-5.8-.8-1-1.5-2.7-1.5-3.7s-1.4-4.2-3.1-7c-3.7-6-3-5.2-5.5-6-1.8-.6-2.1-.2-2 2.8zm68.1-.9c-1.6 1.4-2.6 2.5-2.2 2.5 1.6 0 6.7-3.1 6.7-4 0-1.6-1.3-1.1-4.5 1.5zm-147.5-.7c0 .5.7 1.7 1.6 2.8 1.4 1.7 1.5 1.7 1 .1-.3-1-.6-2.3-.6-2.8s-.4-.9-1-.9c-.5 0-1 .4-1 .8zm128 1.3c-1.9 1-4 1.9-4.7 1.9-.7 0-1.3.4-1.3 1 0 .5.3 1 .6 1 1.5 0 10.4-4.4 10.4-5.1 0-1.3-1-1-5 1.2zm-121.4 3.1c.4 1.3.6 3.9.6 5.9-.1 2.4.5 4.2 1.8 5.4 1.9 1.7 1.8 4.1-.1 3-.5-.4-.9-.2-.9.4 0 .5 1.2 1.6 2.8 2.3 1.9 1 3.3 2.9 4.7 6.8 1.1 3 2.3 6 2.6 6.5.4.6 1 2.8 1.3 5 .7 3.9 3.5 8.9 8.5 15 2.3 2.8 2.4 2.9 1.6.5-.4-1.4-2.3-4.3-4.1-6.5-1.8-2.3-3.7-5.9-4.3-8-1.7-7.2-5.7-17.5-7.4-19.5-.9-1.1-1.7-3.1-1.7-4.5s-.9-3-2-3.7c-1.1-.7-2-1.8-2-2.5 0-1.9 1.7-1.6 2.4.4.6 1.5.8 1.5 1.6.3.6-1 .2-2.2-1.5-4-1.4-1.5-2.5-3.1-2.5-3.8 0-.7-.5-1.2-1.1-1.2-.6 0-.8.9-.3 2.2zm-296.6-.1c0 .8 1.4 2.8 3 4.4 3.8 3.7 3.8 2.1 0-2.5-1.9-2.2-3-2.9-3-1.9zm337.1.9c0 .8.6 2.4 1.4 3.4 1.1 1.5 1.5 1.6 1.5.5 0-.8-.7-2.4-1.5-3.5-1.1-1.4-1.4-1.5-1.4-.4zm22.9 2.6c0 1.9.4 3.3.8 3 1.2-.7 1.3-6.6.1-6.6-.5 0-.9 1.6-.9 3.6zm45.3-1.3c-3.8 1.4-5.2 2.7-3 2.7.9 0 3.1-.9 4.9-2 3.7-2.2 3-2.5-1.9-.7zm-412.3.2c.1 1.4 9.8 12.1 10.4 11.5.3-.3-2-3.2-5-6.5s-5.4-5.6-5.4-5zm362 1.1c0 .6.7 1.9 1.6 3 1.4 1.8 1.4 1.8.3-.6-1.4-3.1-1.9-3.6-1.9-2.4zm59 .9c.7.8 1.7 1.5 2.2 1.5.6 0 .5-.7-.2-1.5s-1.7-1.5-2.2-1.5c-.6 0-.5.7.2 1.5zm30.5 1.7c2.8 1.7 5.4 3.7 5.8 4.5.5.7 1.3 1.1 1.8.7.6-.3 1.9.2 3 1.2s1.9 1.2 1.9.6c0-1.3-8.7-7.1-10.6-7.2-.6 0-1.7-.7-2.4-1.5s-2-1.5-2.9-1.5c-.9 0 .7 1.4 3.4 3.2zm-79.5 0c0 .9.5 2 1 2.3 1.3.8 1.3-.5 0-2.5-.8-1.3-1-1.3-1 .2zm-78.4 2c.3 1.3 1.7 4.4 3 7 1.3 2.6 2.4 5.5 2.4 6.5 0 .9 1.3 4.4 2.9 7.7 1.6 3.4 3.6 7.7 4.5 9.7.8 1.9 2.5 4.4 3.7 5.5 1.9 1.6 1.7 1-1-4.1-1.7-3.3-3.1-6.5-3.1-7.1 0-.6-.8-2.2-1.8-3.5-1-1.3-2.6-4.9-3.5-7.9-2.4-7.6-6-16-7-16-.5 0-.5 1-.1 2.2zm82.4 1.2c0 3.6 1.3 5.5 2.5 3.6.9-1.4-.4-7-1.6-7-.5 0-.9 1.5-.9 3.4zm35.2.1c.6 1.4 1.5 2.5 1.9 2.5.5 0 .3-1.1-.3-2.5s-1.5-2.5-1.9-2.5c-.5 0-.3 1.1.3 2.5zm-62.9-.3c.3.7 1.3 3.3 2.2 5.8 1.8 4.5 6.6 11.4 12.5 18 3.1 3.3 3.1 3.4 1.5.5-1-1.7-3.6-5.4-5.7-8.2-2.2-2.9-5.3-8-6.9-11.3-1.5-3.3-3.1-6-3.5-6-.3 0-.4.6-.1 1.2zm54.8.3c0 2.5 2.4 7.1 3.2 5.9.3-.5-.3-2.5-1.4-4.4-1.3-2.6-1.8-3-1.8-1.5zm38.9-.7c0 .5 1.2 1.4 2.7 2.1 2.8 1.3 2.8 1.3.9-.8-2-2.2-3.6-2.7-3.6-1.3zm-439 2.7c1.3 1.4 2.8 2.5 3.3 2.5.6 0 0-1.1-1.3-2.5s-2.8-2.5-3.3-2.5c-.6 0 0 1.1 1.3 2.5zm282.1 2.7c3.6 9.3 5 12.1 5.6 11.4.3-.3-.1-2.1-.9-3.8-.9-1.8-2.4-5.2-3.4-7.6-2.5-6.2-3.7-6.2-1.3 0zm148.3-3.9c.3 1 .3 3 0 4.3l-.6 2.5-2.9-3.3c-3.6-4.2-3.8-2.8-.2 1.8l2.6 3.5-3.8 3.9c-6.6 6.7-3.4 5.2 4.3-2 6.9-6.6 9.1-10 5.5-8.6-1.1.5-2.4-.1-3.6-1.6-1.5-1.8-1.8-1.9-1.3-.5zm310.6.1c0 1.1 3.9 5 4.5 4.4.3-.2-.6-1.5-2-2.8-1.4-1.3-2.5-2-2.5-1.6zm-405.4 2.8c1.1 3.8 6.5 13.1 10 17.5 1.9 2.3 3.4 5.3 3.4 6.7 0 1.5.8 3 1.9 3.6 2.9 1.5 3.6 1.2 1.9-.8-.9-.9-2.5-3.9-3.7-6.6-1.1-2.6-3.4-6.3-4.9-8.1-1.6-1.8-3.9-5.8-5.2-8.9-2.3-5.4-4.9-8-3.4-3.4zm28.4 1.3c0 1.9.5 3.5 1 3.5.6 0 1-1.6 1-3.5s-.4-3.5-1-3.5c-.5 0-1 1.6-1 3.5zm13-1.9c0 .7.9 2.2 2 3.5 1 1.3 1.9 1.9 2 1.3 0-.7-.9-2.2-2-3.5-1-1.3-1.9-1.9-2-1.3zm18.2 2.9c.6 1.4 1.5 2.5 2 2.5 1.1 0 1-.7-.2-3.1-1.6-2.8-3.2-2.3-1.8.6zm-70.5-.8c-.4.3-.1 1.3.7 2.2.8.9 1.9 3.5 2.5 5.8.7 2.4 3 6.4 5.3 9 2.2 2.6 4.5 5.9 5 7.4s2 3.5 3.4 4.4c1.3.8 3.6 3.4 5 5.6 1.4 2.3 2.8 3.9 3 3.6.7-.7-3.7-7.6-6.8-10.7-1.4-1.4-3.2-3.9-4.1-5.6-.9-1.8-2.9-4.5-4.5-6.1-1.6-1.6-3.3-4-3.7-5.3-.9-3.1-4.4-11-4.9-11-.1 0-.6.3-.9.7zm124.3.2c0 1.5 7.4 5.1 10.2 5 1.6 0 .8-.6-2.3-1.7-2.6-.9-5.4-2.3-6.3-3.1-1-.8-1.6-.9-1.6-.2zm-443.8 2.3c.8 1.2 2 2.4 2.7 2.6 1.8.6-.9-3.6-2.8-4.3-1.1-.5-1.1-.2.1 1.7zm271.8.8c0 .8.5 2.2 1 3 .9 1.3 1 1.3 1 0 0-.8-.5-2.2-1-3-.9-1.3-1-1.3-1 0zm135-.6c0 1.2 6 8.6 7.1 8.6.5 0 .1-1-.9-2.1-4.6-5.7-6.1-7.3-6.2-6.5zm-38.6 2c-.8 2.1.3 6.6 1.6 6.6s1.3-6.7 0-7.5c-.6-.3-1.3.1-1.6.9zm8.1 2.6c.7 3.6 2.1 5.8 3 4.9.2-.3-.5-2.3-1.6-4.5l-2.1-3.9.7 3.5zm10.5 3c-3 2.2-5.9 4.2-6.5 4.4-.6.3-.4.9.5 1.5 1.1.8 1.6.7 1.8-.2.2-1.2 1.1-1.8 8-6.2 3-1.9 4.2-3.5 2.5-3.5-.5 0-3.3 1.8-6.3 4zm14.9-2.3c1.2 2.3 6.9 7.8 7.5 7.2.5-.4-7.1-8.9-8-8.9-.2 0 0 .8.5 1.7zm28.3-.7c.5 1.6 3.4 2.7 16.7 6 5.9 1.5 8.7 1.8 9.4 1.1.8-.8 0-1.1-2.5-1.1-2 0-4-.5-4.3-1-.3-.6-1.8-1-3.2-1-3.2 0-13.4-2.9-15.2-4.4-1.1-.9-1.3-.8-.9.4zm-433.2.7c0 .6 1.8 3.1 4 5.5 2.2 2.3 3.9 3.8 3.9 3.3 0-1.4-7.9-10.2-7.9-8.8zm362.7 0c-1.1 1-.8 8.3.3 8.3.6 0 1-2 1-4.5 0-4.6-.2-5-1.3-3.8zm-85.7.7c0 5.9 9.7 29.6 12.1 29.6.8 0-.7-3.6-6.1-14-1-1.9-2.3-6.1-3-9.2-.6-3.2-1.6-6-2.1-6.3-.5-.4-.9-.4-.9-.1zm123 1.5c0 .4 1.1 2.1 2.5 3.7s2.5 2.4 2.5 1.7-1.1-2.3-2.5-3.7c-1.4-1.4-2.5-2.1-2.5-1.7zm-401.4 2.6c1.6 2.5 3.4 3.3 3.4 1.7 0-1-3.3-4.2-4.4-4.2-.3 0 .1 1.1 1 2.5zm368.9-.1c.9 1.3 2.3 2.7 3.1 3 .9.3 1.4 1.9 1.4 4.2 0 4.7.5 4.1 1.4-1.4.6-3.8.4-4.2-1.4-4.2-1.1 0-2.5-.9-3.2-2-.7-1.1-1.6-2-2.1-2-.4 0 0 1.1.8 2.4zm24.5 1.1c0 .8 1.5 2.2 3.3 3.1l3.2 1.6-2.9-3.1c-3.4-3.5-3.6-3.6-3.6-1.6zm42.7 1.2c-1.4 1.3-.7 4.2 1.2 5.2 1.7 1 13.9 3.6 21.6 4.7l3 .4-3.3-1.5c-1.9-.9-6.4-2-10-2.4-7.2-1-12.2-2.5-12.2-3.9 0-.4.5-1.3 1.2-2s.8-1.2.2-1.2c-.6 0-1.4.3-1.7.7zm-437.7.9c0 .4 2.1 3 4.8 5.8 2.6 2.9 7.6 8.3 11 12.1 9.3 10.2 7.1 6.1-2.8-5.3-8.1-9.4-13-14.1-13-12.6zm291.6 3.9c.3 2.7 1 5.4 1.5 5.9 1.3 1.4 1-2.2-.6-6.9l-1.4-4 .5 5zm133.9-3.5c.9 1.5 4.5 3.2 4.5 2.2 0-.5-1.2-1.4-2.6-2-1.4-.7-2.3-.8-1.9-.2zm-16.5 1.6c0 .9 2.8 3.4 3.7 3.4.5 0 1.8-.7 2.9-1.5 1.8-1.4 1.7-1.4-1.3-.9-2.2.4-3.3.3-3.3-.5 0-.6-.4-1.1-1-1.1-.5 0-1 .3-1 .6zm-31 1.2c0 .8 5.9 6.9 10 10.5 1.2 1 2.4 1.6 2.8 1.3.8-.8-3.8-5.6-5.4-5.6-.7 0-2.2-1.6-3.4-3.5-2-3.2-4-4.6-4-2.7zm24.7 1c.3 1.2 1.1 2.3 1.9 2.6 2 .8 1.7-.8-.5-2.8-1.9-1.7-1.9-1.7-1.4.2zm27 2.8c-2.7 2.6-4.6 4.8-4.4 5 .6.6 7.5-4.9 9.2-7.4 2.6-3.6.4-2.5-4.8 2.4zm-9.7-3c0 .8 4.3 4.3 5.3 4.4.4 0 .7-.5.7-1 0-.6-.6-1-1.4-1-.8 0-1.6-.7-2-1.5-.5-1.4-2.6-2.2-2.6-.9zm-54.3 1.1c-1.1 1-.8 8.1.3 8.8.6.4 1-1.3 1-4.4 0-5.2-.1-5.6-1.3-4.4zm-364.6.8c0 1.3 10.6 13.1 11.3 12.5.2-.3-2.2-3.5-5.4-7-3.3-3.6-5.9-6.1-5.9-5.5zm391.5 2c.4.8.9 1.5 1.3 1.5s1.7.9 2.9 2c1.2 1.2 2.2 1.6 2.2 1.1 0-1.2-2.5-3.8-5.1-5.1-1.5-.8-1.7-.7-1.3.5zm15.4-.5c-.8.5-1.2 1.2-.9 1.5.8.8 3.9-.5 3.9-1.6s-1.1-1.1-3 .1zm7-.1c0 .4 1.6 1.9 3.5 3.2 1.9 1.3 3.5 3.1 3.5 3.8 0 1.1.3 1.2 1.1.4.9-.9.8-1.6-.4-2.7-.9-.9-2-1.6-2.6-1.6-.6 0-1.1-.3-1.1-.8 0-.4-.9-1.3-2-2s-2-.8-2-.3zm-418 3.5c0 1.4 10.9 14 11.6 13.3.4-.4-1.5-2.8-8.8-11.1-1.5-1.7-2.8-2.7-2.8-2.2zm372 0c0 .4.9 1.9 2 3.3 1.3 1.7 2 2 2 1.1 0-.8-.9-2.3-2-3.3s-2-1.5-2-1.1zm64.5 1.6c3.1 2 6.8 2.8 17.5 3.5 3.6.2 8.1.6 10 .9l3.5.5-4-1.4c-2.2-.7-6.5-1.4-9.7-1.4-3.1-.1-8.5-1-12-2.1-7.9-2.5-9.1-2.5-5.3 0zm-137.5-.1c0 1.5 5.8 9.4 7.7 10.5 1.2.6 1.4.5.7-.5-2-3.5-8.4-11-8.4-10zm79 3.5c0 2.9.4 4.5 1 4.1.6-.3 1-1.4 1-2.3 0-1.1 1.2-.4 4 2.3 2.2 2.1 4 3.6 4 3.2 0-.7-1.4-2.4-7.2-9l-2.8-3.1v4.8zm35-3.8c0 1.1 5.4 5.5 7.9 6.5 3.4 1.4 3.8.3.4-1.4-1.5-.8-3.7-2.4-4.7-3.6-1.9-2-3.6-2.8-3.6-1.5zm-51.4 3.2c1.6 1.5 3 2.7 3.2 2.6.9-.5-3.2-5.4-4.5-5.4-1.1 0-.6.9 1.3 2.8zm-81.6-1.5c0 1.3 4.4 9.7 5.2 9.7.9 0-2.5-7.7-4.1-9.3-.6-.6-1.1-.8-1.1-.4zm123 .5c0 1.4 3.1 3.7 7.5 5.7 2.2 1 4.5 2 5 2.3.6.3.4-.2-.3-1.1-.8-.9-2.9-2.1-4.8-2.7-1.9-.6-3.4-1.5-3.4-1.8 0-.4-.9-1.3-2-2s-2-.8-2-.4zm26 1.1c0 .5.7 1.2 1.6 1.5 2.4.9 2.8.7 1.4-.9-1.4-1.7-3-2-3-.6zm-434 .7c0 .5 1.8 2.8 4 4.9 2.2 2.1 4 3.5 4 2.9 0-.5-1.8-2.8-4-4.9-2.2-2.1-4-3.5-4-2.9zm319 .6c0 .8.9 2.3 2 3.3s2 1.5 2 1.1c0-.4-.9-1.9-2-3.3-1.3-1.7-2-2-2-1.1zm82 1.8c0 .5.5 1 1 1 .6 0 1-.5 1-1 0-.6-.4-1-1-1-.5 0-1 .4-1 1zm-365.5 3c1.6 1.6 3.1 2.8 3.3 2.5.7-.7-3.9-5.5-5.2-5.5-.5 0 .3 1.3 1.9 3zm409-1c.3.5 1.1 1 1.6 1 .6 0 .7-.5.4-1-.3-.6-1.1-1-1.6-1-.6 0-.7.4-.4 1zm-421.9 1.5c.4.8.8 1.5 1 1.5.2 0 .4-.7.4-1.5s-.4-1.5-1-1.5c-.5 0-.7.7-.4 1.5zm17.4-.7c0 1.2 1.9 2.6 2.6 1.9.2-.2-.2-1-1.1-1.7-.9-.8-1.5-.8-1.5-.2zm367 1c0 .6.9 1.2 2 1.5 1.1.3 2 .3 2 .1 0-.2-.9-.8-2-1.4-1.1-.6-2-.7-2-.2zm52 .2c-1.2.8-1 1 .8 1 1.3 0 2-.4 1.7-1-.7-1.2-.6-1.2-2.5 0zm5.3 1.7c.9.2 2.3.2 3 0 .6-.3-.1-.5-1.8-.5-1.6 0-2.2.2-1.2.5zM257.5 219c.3.5.8 1 1.1 1 .2 0 .4-.5.4-1 0-.6-.5-1-1.1-1-.5 0-.7.4-.4 1zm3.5 3.9c0 1.2.5 2.1 1 2.1.6 0 1-.6 1-1.4 0-.8-.4-1.8-1-2.1-.5-.3-1 .3-1 1.4zm-6 1.1c0 1.1.5 2 1 2 .6 0 1-.9 1-2s-.4-2-1-2c-.5 0-1 .9-1 2zm83.5 2c-.4.6-.3 1.6.3 2.2.6.6 1.2.6 1.7-.2.4-.6.3-1.6-.3-2.2-.6-.6-1.2-.6-1.7.2zm5 0c-.7 1.2.2 3 1.6 3 1.2 0 1.2-2.7 0-3.5-.5-.3-1.2-.1-1.6.5zm318.5 2c0 1.8.4 2.9 1 2.5.6-.3 1-1.5 1-2.5s-.4-2.2-1-2.5c-.6-.4-1 .7-1 2.5zm414.2 1c0 1.4.2 1.9.5 1.2.2-.6.2-1.8 0-2.5-.3-.6-.5-.1-.5 1.3zm5.5-.6c-.6 1.5.1 2.6 1.5 2.6 1.1 0 1-2.7-.1-3.4-.5-.3-1.1 0-1.4.8zm-826.2.6c-.4.6-.3 1.6.3 2.2.6.6 1.2.6 1.7-.2.4-.6.3-1.6-.3-2.2-.6-.6-1.2-.6-1.7.2zm5.5.4c0 .9.5 1.6 1 1.6.6 0 1-.4 1-.9 0-.6-.4-1.3-1-1.6-.5-.3-1 .1-1 .9zm410 1.5c0 1.7.5 3.1 1 3.1.6 0 1-1.1 1-2.4 0-1.4-.4-2.8-1-3.1-.6-.4-1 .7-1 2.4zm320-.9c0 1.9.3 2.1 1.2 1.2.9-.9.9-1.5 0-2.4-.9-.9-1.2-.7-1.2 1.2zm5.4-.9c-.3.6-.1 1.6.5 2.2.8.8 1.1.5 1.1-1.1 0-2.4-.5-2.8-1.6-1.1zm-657.9 2.8c-.3.5-.1 1.2.5 1.6.5.3 1-.1 1-.9 0-1.8-.6-2.1-1.5-.7zm5.1 0c-.4.5-.2 1.2.3 1.5.5.4 1.2.2 1.5-.3.4-.5.2-1.2-.3-1.5-.5-.4-1.2-.2-1.5.3zm731.8 2.2c-.3.6-.1 1.6.5 2.2.8.8 1.1.5 1.1-1.1 0-2.4-.5-2.8-1.6-1.1zm6.2-.4c-1.1 1.1-.6 2.3.9 2.3.8 0 1.5-.4 1.5-.9 0-1.3-1.6-2.2-2.4-1.4zM256 235.4c0 .8.5 1.8 1 2.1.6.3 1-.3 1-1.4 0-1.2-.4-2.1-1-2.1-.5 0-1 .6-1 1.4zm5 0c0 .8.5 1.8 1 2.1.6.3 1-.1 1-.9s-.4-1.8-1-2.1c-.5-.3-1 .1-1 .9zm400.6 1.1c-.3.8-.1 2.5.4 3.7.8 2 .9 1.8.9-1.5.1-3.9-.3-4.7-1.3-2.2zm329.9-.6c-.3.5-.1 1.2.5 1.6.5.3 1-.1 1-.9 0-1.8-.6-2.1-1.5-.7zm4.5.1c0 .5.5 1 1 1 .6 0 1-.5 1-1 0-.6-.4-1-1-1-.5 0-1 .4-1 1zm-656.8 2c0 1.4.2 1.9.5 1.2.2-.6.2-1.8 0-2.5-.3-.6-.5-.1-.5 1.3zm3.8-.4c0 .9.5 1.4 1.2 1.2 1.8-.6 2.1-2.8.4-2.8-.9 0-1.6.7-1.6 1.6zm327.8 2.1c-.6 2.6.2 5.4 1.3 4.8 1.2-.8 1.2-6.5 0-6.5-.5 0-1.1.8-1.3 1.7zm404.7.2c-.3.5-.1 1.2.5 1.6.5.3 1-.1 1-.9 0-1.8-.6-2.1-1.5-.7zm5.5.6c0 .8.5 1.5 1 1.5.6 0 1-.7 1-1.5s-.4-1.5-1-1.5c-.5 0-1 .7-1 1.5zm-824 1.9c0 1.4.5 2.8 1 3.1.6.4 1-.7 1-2.4s-.4-3.1-1-3.1c-.5 0-1 1.1-1 2.4zm739.4-1.3c-.3.6-.1 1.6.5 2.2.8.8 1.1.5 1.1-1.1 0-2.4-.5-2.8-1.6-1.1zm-734.9 1.2c-.4 1-.5 2.1-.1 2.4 1 1 1.8-.4 1.3-2.4-.4-1.7-.4-1.7-1.2 0zm77.2-.6c-.3.5-.1 1.7.4 2.8.7 1.7.8 1.7.8-.8.1-2.7-.4-3.4-1.2-2zm4.3 1.4c0 1.1.5 1.7 1 1.4.6-.3 1-1.3 1-2.1s-.4-1.4-1-1.4c-.5 0-1 .9-1 2.1zm649-.6c0 .8.5 1.5 1 1.5.6 0 1-.7 1-1.5s-.4-1.5-1-1.5c-.5 0-1 .7-1 1.5zm83 3c0 .8.5 1.5 1 1.5.6 0 1-.7 1-1.5s-.4-1.5-1-1.5c-.5 0-1 .7-1 1.5zm5.2-.4c.2.6.8 1 1.3 1s1.1-.4 1.3-1c.2-.6-.4-1.1-1.3-1.1s-1.5.5-1.3 1.1zM661.7 248c-.6 2.4.8 3.6 1.7 1.4.8-2.2.7-3.4-.3-3.4-.5 0-1.1.9-1.4 2zM258 249c0 1.9.3 2.1 1.2 1.2.9-.9.9-1.5 0-2.4-.9-.9-1.2-.7-1.2 1.2zm735.4 2c.4 2.4.9 4.7 1.2 5.2.8 1.2 3.1 1 3.6-.5.7-1.8-.2-3.7-1.8-3.7-.8 0-1.4-.9-1.4-1.9 0-1.1-.5-2.3-1.2-2.7-.8-.5-.9.5-.4 3.6zm3.2-3.1c-.4.5-.2 1.2.3 1.5.5.4 1.2.2 1.5-.3.4-.5.2-1.2-.3-1.5-.5-.4-1.2-.2-1.5.3zm-734.7.7c-.1.5-.1 1.3 0 1.8s-.1 1.6-.4 2.5c-.5 1.3-.7 1.4-1.6.1-.8-1.2-.9-1.1-.7.5.2 1.2 1.2 2.1 2.6 2.3 2.1.3 2.2 0 1.9-3.2-.3-3.4-1.6-6-1.8-4zm78.1 2.1c0 2.6 2.5 3.1 3.4.7 1-2.6.7-3.3-1.4-3.1-1.4.1-2 .8-2 2.4zm331 .4c0 1.7.4 2.8 1 2.4.6-.3 1-1.7 1-3.1 0-1.3-.4-2.4-1-2.4-.5 0-1 1.4-1 3.1zm404.5-1.1c-1 1.6 1.5 4.1 3.9 3.8 1.1-.2 2.2-1.2 2.4-2.2.3-1.4 0-1.7-1.3-1.2-1 .3-2.3.2-3-.4-.9-.8-1.5-.8-2 0zM662 257.9c0 1.7.5 3.1 1 3.1.6 0 1-1.1 1-2.4 0-1.4-.4-2.8-1-3.1-.6-.4-1 .7-1 2.4zm8.6 1c-.8 1.2.3 4.1 1.5 4.1.5 0 .9-1.1.9-2.5 0-2.5-1.4-3.4-2.4-1.6zm-8.6 9.6c0 2.2.4 3.4 1 3 .6-.3 1-1.7 1-3s-.4-2.7-1-3c-.6-.4-1 .8-1 3zm9 1c0 1.9.5 3.5 1 3.5.6 0 1-1.6 1-3.5s-.4-3.5-1-3.5c-.5 0-1 1.6-1 3.5zm-9 8c0 1.5.4 2.4 1 2 .6-.3 1-1.2 1-2s-.4-1.7-1-2c-.6-.4-1 .5-1 2zm9 2.1c0 1.4.4 2.3 1 1.9.6-.3 1-1.5 1-2.6 0-1-.4-1.9-1-1.9-.5 0-1 1.2-1 2.6zm-.6 6.8c-.8 2.2.3 3.3 1.8 1.8.9-.9.9-1.5 0-2.4-.9-.9-1.3-.7-1.8.6zm-426.8 3.4c-.3.6-.2 1.3.4 1.7 1 .6 133.9 1.4 289.5 1.6 108.8.2 101.5.3 101.5-1.5 0-1.2-19.1-1.4-128.2-1.5-70.6 0-158.5-.3-195.4-.7-46.3-.4-67.3-.3-67.8.4zm426 85.3c-5 4-2.3 12.9 3.9 12.9 2.5 0 7.5-3.9 7.5-5.9 0-2.1-2.2-6.5-3.8-7.7-2.4-1.9-4.6-1.7-7.6.7zm7.4 3c1.6 2.8.5 6.6-2.1 7.4-3.6 1.2-6.4-3-4.8-7.3 1.1-2.9 5.4-3 6.9-.1zm14.7-4.4c-1.1 1-.8 14.3.2 14.3.5 0 1.1-1.2 1.3-2.8.2-2 .8-2.6 2.2-2.4 1.9.4 3.9-1.6 3-3-.3-.4-1.7-.8-3-.8-4 0-2.3-2.5 2-2.8 3.1-.3 3.5-.6 2.5-1.8-1.2-1.4-7-2-8.2-.7zm35-.1c-.4.4-.7 3.8-.7 7.6 0 5.1.3 6.9 1.3 6.6.6-.3 1.3-1.7 1.5-3.1.2-1.9.9-2.7 2.3-2.7 2.7 0 2.4-1.7-.6-2.4-3.4-.9-2.2-3.4 1.8-3.8 1.8-.2 3.2-.8 3.2-1.3 0-1.2-7.7-1.9-8.8-.9zm22.6.1-3.3.4V387l3.5.2c1.9.1 4.3.2 5.2.2.9.1 1.8-.5 2.1-1.2.2-.8-.9-1.2-3.8-1.2-3.4 0-4.1-.3-3.8-1.7.2-.9 1.4-2 2.8-2.4 2.6-.7 2.4-.8-2.7-2.4-2.3-.8-.5-2.3 3.2-2.7 1.7-.2 2.9-.8 2.8-1.3-.2-1.2-1.6-1.4-6-.8zm20.5 0-3.8.4v6.4c0 6 .2 6.5 2.4 7.1 3.2.8 8.1.1 7.9-1.1-.1-.6-1.9-1.2-3.9-1.5-4.7-.6-5.6-2.8-1.5-3.6 3.5-.7 3.2-2.4-.5-2.4-4.1 0-2.9-2.8 1.4-3.2 2-.2 3.6-.7 3.5-1.3-.2-1.2-.8-1.3-5.5-.8zm16.8 0c-1 1 .5 2.3 2.5 2.3 1.6 0 1.9.7 1.9 5.4 0 5 1.2 7.7 2.7 6.2.4-.3.5-3.1.4-6.1-.2-5.3-.1-5.5 2.4-5.5 1.7 0 2.5-.5 2.3-1.2-.4-1.2-11.1-2.1-12.2-1.1zm-243.8 1.4c-2.1 1.2-2.4 4.2-.5 5.6.6.6 2.9 1.6 5 2.3 3.1 1 3.6 1.4 2.6 2.6-1.6 2-3.5 1.7-5.8-.8-1.9-2-2.1-2-2.7-.3-1.7 4.2 7.7 6.3 11.2 2.4 2.3-2.5 1.1-4.9-3.2-6.2-4.5-1.5-5.9-2.9-3.9-4 1.1-.6 2.4-.3 4.1.8 2.9 1.9 4.3 1.2 2.8-1.3-1.3-2-7.1-2.7-9.6-1.1zm48.5-.3c-.6.4-2.3 3.7-3.7 7.5-1.9 5.2-2.2 6.7-1.1 6.7.7 0 1.7-.9 2-2 .9-2.8 5.8-2.7 7.8.2 2.6 4 3 1.1.7-4.9-2.7-6.7-4-8.5-5.7-7.5zm2.5 6c.2.7-.3 1.2-1.2 1.2-.9 0-1.6-.7-1.6-1.6 0-1.7 2.2-1.4 2.8.4zm16.2-2.9c0 2.1.3 5.3.6 7 .6 3 .9 3.1 5.5 3.1 3.7 0 4.9-.4 4.9-1.5 0-1.6-.8-1.8-5.2-1.5-2.7.1-2.8 0-2.8-5.4 0-4.3-.3-5.6-1.5-5.6-1.1 0-1.5 1.1-1.5 3.9zm21.7-3.2c-.4.3-.7 3.5-.7 7v6.3h5.5c3 0 5.5-.5 5.5-1 0-.6-1.8-1-4-1-3.3 0-4-.3-4-2 0-1.5.7-2 2.6-2 3.1 0 2.8-2.4-.5-2.8-3.4-.5-1.8-2.7 1.8-2.4 2.2.1 3.1-.2 3.1-1.3s-1.1-1.5-4.3-1.5c-2.4 0-4.7.3-5 .7zm-66.4 1.1c-.6.4-1.7 2-2.2 3.6-1.4 3.5.3 7.5 3.8 9.3 3.3 1.6 8.5-.4 8.9-3.5.4-2.7-.8-2.8-3.1-.2-.9 1.1-2.3 2-3.1 2-2 0-4.6-2.8-4.6-5s2.5-5 4.5-5c.7 0 2 .7 2.9 1.5 1.6 1.6 3.6 2 3.6.7 0-3.1-7.5-5.4-10.7-3.4zM85 417.3c-5.4 2.7-6.4 11.9-1.7 15.2 5.7 4 12.7.1 12.7-7.1 0-3.8-2.7-8.4-5-8.4-.4 0-1.4-.2-2.2-.5-.7-.3-2.4.1-3.8.8zm6.6 4.2c1.3 2 1.5 3.3.8 5.8-1.7 5.7-8.4 4.5-8.4-1.5 0-6.6 4.5-9.1 7.6-4.3zm773.9-3.8c-9 10.9-9.3 12.3-3.1 12.3 3.6 0 4.5.4 4.9 2.1.6 2.3 2.7 1.7 2.7-.7 0-.8.6-1.4 1.4-1.4 1.9 0 2.9-1.7 2.2-3.7-.5-1.2-.9-1.3-2.1-.3-1.3 1.1-1.5.5-1.5-4.4 0-6-1.6-7.4-4.5-3.9zm1.2 9c-.3.2-1.5.3-2.7.1l-2.2-.3 2.4-3 2.3-3 .3 2.9c.2 1.5.1 3-.1 3.3zm-582.2-8.4c-.4.8-.5 4.5-.3 8.3.2 5.3.6 6.9 1.8 6.9 1.2 0 1.5-1.5 1.5-7.9 0-5.5-.4-8.1-1.2-8.3-.7-.3-1.5.2-1.8 1zm186.9 1.2c-1.7 2.7-1.6 5.6.4 6.3.7.2 1.2-.6 1.2-2.2 0-3 2.8-4.9 5.3-3.5 3 1.7 1.9 4.5-3.3 8.5-2.7 2.1-5 4.2-5 4.6 0 .4 3.2.8 7 .8 5.6 0 7-.3 7-1.5 0-1.1-1.1-1.5-3.7-1.5l-3.8-.1 3.8-3.3c2-1.8 3.7-4.2 3.7-5.3 0-5.3-9.5-7.4-12.6-2.8zm193.2-1.2c-1.2.9-1.7 2-1.3 3.1.8 2 2.7 2.1 2.7.2 0-1.8 3.1-2.9 5.4-2 2.2.9 1.6 3.8-.9 4.2-4.4.7-5 1.5-1.5 2.1 2.6.5 3.6 1.1 3.8 2.8.3 2-.1 2.3-2.8 2.3-1.8 0-3.3-.6-3.6-1.5-.8-2.1-3.4-1.9-3.4.3 0 2.9 2.1 4.2 6.6 4.2 6.3 0 9.4-3.9 5.9-7.4-1.3-1.3-1.3-1.9-.3-3.6 1-1.5 1-2.5.2-3.8-1.4-2.2-8.2-2.8-10.8-.9zm394.4-.4c-3.3.6-3.5.9-3.8 4.8-.3 4.3-.3 4.3 2.3 3.3 5.1-2 9.2 3.5 4.5 6-2.1 1.1-6-.2-6-2 0-.6-.7-1-1.5-1-2.2 0-1.8 2.7.7 4.4 4.4 3.1 10.8 1.1 12.2-4 .9-3.1-1.5-5.5-6.2-6.1-4.6-.6-4.8-2.3-.3-2.3 2.9 0 5.7-2.1 4.4-3.3-.7-.8-1.1-.7-6.3.2zm192.5 2.6c-1.8 1.8-2.5 3.5-2.5 6.5 0 5.5 2.6 8 8.3 8 5 0 6.7-1.3 6.7-5.1 0-3.7-2.3-5.2-7.5-5.1-4.1 0-4.4-.1-3.5-1.9 1.3-2.3 4.8-2.5 7.8-.3 2 1.4 2.3 1.4 2.9-.2 1.7-4.5-8.1-6-12.2-1.9zm6.9 6.8c2.8 2 1.7 5.2-1.8 5.2-3.9 0-5.8-3.1-3.2-5.1 2.4-1.7 2.8-1.7 5-.1zM865 450.5v6.5h-94v-3c0-2-.5-3-1.5-3s-1.5 1-1.5 2.8v2.8l-47.6.2-47.6.2.2-3.3c.3-5.2.1-6.7-1.1-6.7-.7 0-1 1.8-.7 5l.3 5-47.1-.1h-47.2l-.6-3c-.7-3.8-2.6-3.8-2.6 0v3h-47.5l-47.5.1v-2.4c0-2.9-1.9-4.6-2.1-1.9-.1 1-.1 2.4 0 3 .2 1-9.9 1.3-47.4 1.3H382v-3.1c0-3.8-2.4-3.5-2.8.4l-.3 2.7-45 .2c-24.7.1-45.7.2-46.6.2-1.4.1-1.9-.8-2.1-3.7-.2-2-.7-3.7-1.2-3.7-1 0-2 2.5-2 5 0 2.4-2.5 3.2-7.7 2.4-3.7-.5-4.3-1-4.3-3.1 0-3-2.4-2.6-2.8.5-.3 2-.9 2.2-6.8 2.2-6.4 0-6.5 0-7-3-.8-3.9-2-3.8-2.8 0l-.6 3.1-6.2-.3c-6.1-.3-6.3-.4-6.6-3.1-.4-3.3-2.4-3.1-3.2.4-.5 1.9-1.3 2.5-4.4 2.7-6 .5-8.8-.5-8.4-3 .2-1.2-.3-2.3-.9-2.5-.8-.3-1.3.4-1.3 1.6 0 2.6-.9 3-7.9 3.3-5 .3-5.5.1-6-2-.8-3.1-2.5-2.9-2.9.3-.3 2.5-.5 2.6-6.5 2.3-5.5-.3-6.2-.5-6.7-2.7-.8-3.5-2.8-3.7-3.2-.4-.3 2.7-.5 2.8-6.5 3.1l-6.3.3V454c0-3.9-2.4-3.6-2.8.3-.3 2.6-.5 2.7-6.7 2.7s-6.4-.1-6.7-2.7c-.4-3.9-2.8-4.2-2.8-.4v3.1h-6.9c-6.7 0-7-.1-7.3-2.5-.4-3.5-2.2-3.5-2.8 0-.5 2.8-.7 2.9-6.2 3.1l-5.8.2-.6-3.4c-.8-4.4-2.1-4.3-3 .1-.6 3.4-.7 3.5-5.3 3.5-5.5 0-6.8-.7-7.2-3.8-.5-3.1-2.3-2.9-2.7.3-.3 2.4-.7 2.5-6.2 2.5-8.3 0-8.9-.4-8.3-5 .3-2.2.3-4.7-.1-5.6-1.2-3.1-2.6 0-3.3 6.9-.6 6.6-.5 6.7 1.8 6.7 3.4.1 1083.6 1.2 1128.6 1.2 20.4 0 37.7-.3 38.2-.7 1.3-.8 1.4-11.4.1-13.5-1.3-2-1.7-1.3-2.7 5l-.8 5.5H1160v-2.2c0-1.2-.3-2.8-.6-3.7-1.1-2.9-2.4-1.7-2.4 2.1v3.8l-46.2-.3c-25.5-.2-46.5-.5-46.7-.7-.2-.3-.5-2.3-.7-4.6-.9-9.9-3.6-11-3-1.3l.4 6.6-47.7-.4-47.6-.3-.5-3.3c-.6-4.2-2.4-4.2-2.8 0l-.3 3.3-24.2-.7c-14.4-.4-27.2-.3-31.5.2-4 .6-14.2 1-22.6 1h-15.3l-.7-3.1c-.3-1.7-.6-4.7-.6-6.5 0-1.9-.4-3.4-1-3.4s-1 2.8-1 6.5z"/>
</svg>
