<?xml version="1.0" encoding="utf-8"?>
<svg xmlns="http://www.w3.org/2000/svg" version="1.0" viewBox="0 0 393 893">
	<title>Closeup of a thick rope threaded through a ring, which has a smaller rope connected to it.</title>
	<path d="M69 1.4c0 .3.7 3.1 1.5 6.3s2 8.4 2.5 11.7c.5 3.2 1.6 6.6 2.5 7.6.9.9 1.7 3.3 2 5.1.6 4.8 1.6 9.2 2.5 10.4.4.5 1 2.6 1.4 4.5l.6 3.5-1.5-3c-1.2-2.6-1.4-2.7-1.5-.8 0 3.8.9 5 3.6 4.5 1.9-.3 2.3-.9 1.9-2.3-.4-1.1-.3-1.9.2-1.9 1.2 0 3.6 5.9 3 7.4-.3.8.1 1.7 1 2 1.9.8 1.8.8 2.7-2.7.5-2 .3-2.7-.9-2.7-2.2 0-1.8-1.6.7-3.4l2.2-1.6h-2.9c-2.3 0-3.4-.7-4.8-3.2s-1.5-3.3-.5-3.9c1-.7.9-.9-.4-.9-2.1 0-3-1.4-2.2-3.5.5-1.3.9-1.4 1.5-.4s1.1 1 2.3 0c1.5-1.2 1.5-1.5-.1-2.7-1-.7-2.6-1.4-3.6-1.4-1.1 0-2.3-1.2-3-3-.6-1.7-1.7-3-2.4-3-2.1 0-2.6-3.9-.8-6.7 1.4-2 1.5-3.1.6-4.9-.6-1.3-1.6-2.4-2.3-2.3q-1.5 0 0 .6c1.6.6 1.5 3.3-.2 3.3-.8 0-1.8-2.2-2.5-6-.7-3.3-1.6-6.2-2.1-6.5-.6-.4-1-.4-1-.1m12.8 30.8c-.2.6-1 1.4-1.6 1.6-.7.2-1-.2-.6-1.2.7-1.8 2.8-2.2 2.2-.4M79.1 13.5c.1 1.9 1.8 5.1 1.8 3.5 0-.8-.4-2.2-.9-3s-.9-1.1-.9-.5"/>
	<path d="M78.5 22c1 1.1 2.5 2 3.4 2 1.2 0 .9-.6-.9-2-3.3-2.6-4.8-2.6-2.5 0M83 27.6c0 .8.5 1.2 1 .9.6-.4.8-1.1.5-1.6-.9-1.4-1.5-1.1-1.5.7M91.1 43.6c0 1.1.3 1.4.6.6.3-.7.2-1.6-.1-1.9-.3-.4-.6.2-.5 1.3M99.4 53.3c.3 1.1.9 3 1.2 4.3s1 2.4 1.5 2.4c1.7 0 .9-3.8-1.2-6.1-1.6-1.9-1.9-2-1.5-.6"/>
	<path d="M83.7 54.7c-.3.5-.2 1.5.4 2.3 1.3 2.1 1.1 3-.5 2.4-1-.4-1.2.2-.9 2 .3 1.6 1 2.3 1.9 1.9.8-.3 1.4.1 1.4 1.1 0 .9-.4 1.6-1 1.6-1.5 0-1.2 3.3.5 5.6.8 1 1.5 3.1 1.5 4.6s.4 2.9.9 3.2 1.1 2.3 1.4 4.3c1.2 8.2 2.6 14.2 4 17 .9 1.6 1.8 4.5 2.2 6.5.4 2.2 2.3 5.5 4.6 8 2.4 2.7 3.5 4.6 2.9 5.2s-1 1.8-1 2.7c0 1-.4 2.1-1 2.4-.6.4-.7-.5-.4-2.3.6-2.9-1.8-9.2-3.5-9.2-.4 0-.4 2.4 0 5.2.4 2.9 1 8.9 1.4 13.3.4 5.2 1.2 9.1 2.5 11.3 1.3 2.1 2 5.1 2 8.2 0 6.5 1.8 14.7 3.6 16.5 1.2 1.1 1.2 1.9.4 3.5-1.7 3.1-1.3 8 1 14 1.2 3 2.7 7.4 3.5 9.8.7 2.4 2.1 5.4 3 6.8 1.9 3 1.5 4-1.2 2.6-1-.6-5.3-1.3-9.6-1.5-6.6-.4-8-.9-9.6-2.9-1.1-1.2-2.8-3.4-4-4.7-2.2-2.5-6.1-14.1-6.1-18 0-3.4-3.5-6.1-8-6.1-5.4 0-5.9 1.8-2.6 8.3 1.4 2.9 2.6 6 2.6 7 0 .9 2 5.8 4.5 10.7 4.4 8.7 4.5 9 2.2 9-2.4 0-6.4 2.4-8.4 5-.9 1.2-3.2 1.5-10.6 1.5-6.1 0-9.9.4-10.9 1.3-1.3 1-1.8.9-2.8-.3-1.4-1.7-4.1-2-5.6-.5-.8.8-2.6.7-5.9 0-2.7-.6-5.5-.8-6.3-.5-.7.3-1.9.2-2.5-.2-1.7-1.1-17.9-1.3-19.7-.3-1.1.7-.4 1 2.5 1 4.4.2 4 .5-1.7 1.5-2.1.3-3.8 1.1-3.8 1.6 0 .6.8.8 1.8.5 3.7-1.2 14.4-1.7 13.7-.6-.3.5-1.8 1-3.3 1.1-1.5 0-3.6.5-4.7 1-1.5.7-.9.8 2.5.6 2.7-.2 5.4.2 6.8 1.1 2.1 1.4 2.2 1.3 2.2-1.4 0-1.9.3-2.5.8-1.6.6.9 1.6 1 3.3.4 4.7-1.8 11.2-.2 10.2 2.5-.5 1.5-.3 1.6.8.5.7-.6 3.7-1.2 6.6-1.2 3.7 0 5.3-.4 5.3-1.3 0-1.6 4.7-4.4 5.6-3.4.4.4-.5 1.1-2 1.6-2.2.9-3.7 3.1-2.1 3.1 3.9 0 16.7-3.8 21.6-6.4 3.5-1.8 7.6-3.6 9.2-4 2.4-.6 2.7-.4 2.7 1.8 0 2.9-1.7 4.3-3.2 2.8-.8-.8-1.8-.6-3.4.5-1.3.8-2.8 1.2-3.3.8-.6-.3-1.6.3-2.3 1.5-.7 1.1-2.1 2-3 2-1 0-2.3 1-2.9 2.2-.8 1.5-1.4 1.9-1.7 1-.3-1.1-.7-1-2.1.1-.9.8-2.6 1.8-3.8 2.1-1.8.6-2.4.2-2.9-2l-.7-2.7-1.4 2.7c-.8 1.5-1.2 3.4-.9 4.2s-.1 1.4-.9 1.4-1.5-.5-1.5-1.1c0-.7-1.2-.9-3.1-.7l-3.1.5 2.3-1.8 2.4-1.9-3-.1c-1.6-.1-3.7-.1-4.5 0-6.2.9-9 1-9 .1 0-1.3-5.6-1.3-8.1 0-1 .6-1.9 1.7-1.9 2.5s-.7 1.5-1.5 1.5-1.5-.6-1.5-1.4c0-1.5-1.7-2.4-6.7-3.6-3.1-.7-4.8.3-2 1.3 2.4.8-1.1 3.4-4.5 3.2-3.6-.2-6.8-3.5-6.8-7.1 0-1.3-.4-2.4-1-2.4-.5 0-1 1.4-1 3.1 0 2.2 1 4.1 3.4 6.5 3.1 3.1 3.5 3.3 7 2.2 2.7-.9 3.9-.9 4.4-.1.9 1.5 21.2.5 21.2-1 0-.6.6-.3 1.3.8 1.6 2.1 3.4 1.4 4.8-1.9.8-1.8.9-1.6.6 1.2l-.4 3.4 7.1-.7c7.3-.8 13.9-2.8 16.7-5.2.9-.7 2.9-1.3 4.5-1.1 3.5.2 15.9-5.4 16.7-7.6.8-2 3.6-2.1 6.2-.3 1.1.8 4.2 2.1 6.8 3 4.3 1.5 5.3 1.5 9 .2 5.1-1.8 7.9-1.9 9.5-.3 2.2 2.2 1.3 4.4-4.7 11.9-3.2 4.1-7.2 10.1-8.9 13.4-2.6 5.3-7.5 10.9-15.8 18.3-1.8 1.6-2.4 3.1-2.2 5 .5 4.4 3.1 3.7 9-2.3 3.1-3 6-5.5 6.5-5.5 1.1 0 5.3-5.5 5.3-7 0-.5-.5-1-1.1-1-.5 0-.7-.5-.4-1.1.5-.6 2 .4 4.1 2.6l3.3 3.7 4-2.3c2.3-1.2 5.2-4 6.6-6.1 2.2-3.2 2.9-3.7 4.1-2.7.8.6 1.4 1.9 1.4 2.8s1.4 5.8 3 10.9c1.7 5.4 3 11.4 3 14.4s.8 6.8 1.9 9.2c3.7 7.7 10.4 29.7 12.1 39.6.7 4.1 2.2 9.7 3.3 12.5 1 2.7 2.6 7.2 3.4 10 .8 2.7 2.6 7.2 3.9 9.9 1.5 3.2 2.4 6.8 2.4 9.8 0 2.7.6 6.1 1.4 7.6.7 1.5 1.9 5.8 2.6 9.7.7 3.8 2.6 10.8 4.1 15.4 1.7 5 2.6 9.4 2.3 10.8-.7 2.5 1.2 11.1 2.7 12.8 1.2 1.3 1.1 10.5-.1 10.5-.5 0-1 .5-1 1 0 .6 1.8.1 4-1 4.8-2.5 6-2.5 6-.2 0 1.1-1.4 2.6-3.2 3.5-3.1 1.6-1.4 1.8 2.3.3 1.3-.6 1.6 0 1.7 2.4 0 2.3-.3 3-1.3 2.7-.7-.3-1.6-.3-1.9.1-.4.3-1.8.6-3.3.7-2.9 0-5.7 3.4-3.5 4.2.6.3 1 .9.7 1.4-.4.5-1.2.3-1.9-.4-.8-.6-1.2-1.5-.9-2 .2-.4-.3-.7-1.1-.7-.9 0-5.3 2.9-9.8 6.3-7.8 6-8.3 6.6-8.2 10 .1 2.4-.3 3.7-1.1 3.7-.7 0-2.5 1.4-3.9 3.1-2 2.3-2.6 2.6-2.6 1.3 0-1 1.2-3 2.6-4.5s2.3-3.2 1.9-3.9c-1-1.6-2.9.2-5.1 5.2-1 2.4-2.8 5-3.9 6-1.2.9-3 3.3-4 5.5-1.1 2.1-2.9 5-4.1 6.4-1.1 1.5-3.2 5-4.5 7.8-1.7 3.6-3.2 5.3-5.3 6.1-1.6.5-3 1-3.2 1-.4 0 1.4-6 2.7-9.3.6-1.5 1.9-2.7 2.8-2.7s1.2.3.6.8c-.6.4-1.8 2.3-2.8 4.2-1.4 3.1-1.4 3.5-.1 3.8 2 .5 2.6-.1 2.8-3.2 0-1.4.4-2.6.9-2.6.4 0 .7-.9.7-2s.5-2 1-2c.6 0 1-.9 1-1.9 0-1.1.4-2.1.8-2.3s2.3-2.8 4.1-5.8c1.9-3 4.1-6.6 5-8 1.4-2.3 1.4-2.4 0-1.3-.9.7-4.2 5.1-7.4 9.9-6.1 9.1-8.4 10.7-4 2.7 4.2-7.5 16.4-22.7 16.6-20.6 0 .4.5-.3 1-1.7.8-1.8 1.2-2.1 1.8-1.1.6.9 1.1 1 1.5.2.4-.6.5-1.5.2-2-.5-.7 3.6-5 8.7-9 1.5-1.2 1.7-1.2 1.1.4-.5 1.1 1 .4 4.2-2 2.7-2.1 5.9-4.2 7.2-4.8 1.9-.9 3.2-3.7 1.7-3.7-1.2 0-6.5 3.1-6.5 3.8 0 .6-5 3.2-7.1 3.6-.5.1-10.1 7.9-12.6 10.2-1.9 1.8-10.7 12.6-14.5 17.9-8.9 12.5-15.3 29.9-17.9 49-1.6 12-.5 36.9 1.9 46 2.1 7.6 7.8 22.1 9.7 24.5.6.8 2.4 3.7 4 6.5 4.1 7.3 18.7 24.5 20.7 24.5.5 0 2.2 1.2 3.8 2.7 6.4 5.7 24.5 14.9 36.8 18.8 6.5 2.1 8.3 3 8 4.3-.2 1.2-1.5 1.8-4.3 2-4.6.3-6.7 2.5-5.9 5.9.5 1.7-.1 3-2 4.8s-2.6 3.4-2.6 6.2c0 5.3-1.6 10.2-4.1 12.9-1.9 2-2.1 3-1.5 7.6.4 2.9.9 7.1 1.2 9.3 1 7.9 1.2 8.2 5.1 8.9 2.1.4 5.1.9 6.6 1.2l2.8.6-.7 6.6c-.4 3.7-.8 11-.9 16.2s-.7 12.4-1.3 16-1.3 13.2-1.6 21.5c-.4 8.2-1.3 20.8-2.2 28-4.6 38.2-5.9 51.7-6.8 71-.3 5.5-1 12-1.5 14.5-1.3 5.9-1.4 13-.1 13 .6 0 1-3 1-6.9 0-5.4.4-7.4 2.1-9.5 1.8-2.3 1.9-3.2 1.1-8.6-.5-3.2-.5-6.5-.1-7.1.4-.7.5-2.7.2-4.6-.4-2.1-.2-3.3.5-3.3 1.7 0 4.5 4.8 3.9 6.5-.4.8-.2 1.7.2 1.9.4.3 1.1-3.1 1.4-7.5.6-7.4.5-8.3-1.4-9.8-1.5-1.2-2.1-3-2.3-6.9-.1-2.9.1-5.2.6-5.2 1.6 0 3.9 5 3.6 7.9-.1 1.7.2 3.2.7 3.3.6.2 1.1-1.6 1.3-4 .3-3.5-.1-4.8-2.2-6.9-1.4-1.3-2.2-3.1-1.9-3.9.3-.7 0-2.7-.5-4.4-.6-1.6-.7-3.2-.3-3.4 1.1-.7 4.1 5.9 4.2 9.2.1 6.1 1.9-2.1 3-14.1.9-9.2.9-12.2 0-12.5-2.3-.8-4-5.6-3.2-9.2.7-3.4.8-3.4 1.9-1.3.7 1.2 1.2 3.5 1.2 5.2s.5 3.1 1 3.1c.6 0 .9-2.5.8-6-.2-3.6-.7-6-1.4-6-1.1 0-2.9-8.9-2-9.7.2-.2 1 1 1.7 2.6.8 1.7 1.8 3 2.4 2.8.5-.2 1.5-7.1 2.2-15.3.6-8.2 1.6-17.8 2.3-21.4.6-3.6 1.4-13.7 1.8-22.5.8-18.5.8-18.5 9.6-11 5.5 4.6 10.2 6.5 17.5 7.1 7.5.7 20.4 2.3 23.6 2.9 3.8.8 7.2-1.7 8-6l.6-3-2.4 2.8-2.4 2.9-.7-2.8c-.5-1.9-.2-3.2 1-4.3s1.8-1.3 2.1-.4c.2.7 1.1.9 2 .6 1.3-.5 1.5 0 1.1 2.8-.3 1.9-.8 4.2-1.3 5.1-.4 1.1-.3 1.8.4 1.8 1.4 0 3.1-4.2 3.1-7.5 0-1.5-1-3.1-2.4-4-2.1-1.4-2.8-1.4-6.9 0-2.5.8-5.1 1.3-5.9 1-1.4-.6-5.8 2.9-5.8 4.5 0 1.1-3.3 1.3-4.3.3-.4-.3.3-1.7 1.5-3l2.1-2.3h-2c-1.2 0-2.9-.3-3.9-.7-1.4-.5-1.6-.3-1 1.2.4 1.2 0 2.4-1.3 3.7-2.4 2.1-2.9 2.2-2.8.5.1-4.5-.5-6.7-1.8-6.7-.8 0-1.5.7-1.5 1.5 0 1.6-3.8 3.5-7.1 3.5-2.3 0-2.4-1.3-.3-3.5 1.6-1.5 1.6-1.8 0-3.3-1.4-1.5-1.8-1.5-2.6-.2-.5.9-.5 1.9 0 2.6.6.6.7 1.4.3 1.7-1.4 1.4-3.4.6-4.3-1.8-.6-1.6-1.4-2.3-2.5-1.9-1 .4-1.5 0-1.5-1.5 0-1.2.7-2.4 1.5-2.7 1.2-.5 1.1-.9-.3-2.4-.9-1-2.4-2-3.2-2.2s-1.9-1.7-2.5-3.4c-1.1-3-1.2-11-.2-12 .3-.3.3-1.2 0-2-1.1-2.9 2-10.9 5.9-15.2 6.3-6.9 6.6-8.5 2.9-12.7-1.7-2-3.1-4.1-3.1-4.7s-.9-.8-2.1-.5-2.2 0-2.5-.8-1.2-1.1-2-.8c-1.5.5-3.1-2.3-2-3.5 1.1-1.1 11.5 4.8 12.1 6.9.9 2.7 2.2 2.3 3.3-1 1.2-3.3 1.9-3.4 18-4.6 9.2-.7 30.5-6.2 38.2-9.9 2.7-1.3 5.2-2.1 5.4-1.8.5.9 1 97.1.8 131.2-.2 14.6 0 30.6.4 35.7.6 8.3.8 9.1 2.4 8.3 1-.5 2-.7 2.4-.3.8.8-.4 8.5-1.5 9.7-1.2 1.4-1.1 4.6.1 4.6.6 0 1.6-1.2 2.2-2.8l1.2-2.7.4 2.9c.2 1.8-.2 3.2-1.1 3.7-1 .6-1.3 2-.9 5.1.3 2.4.5 6.2.5 8.6-.1 5.1 1.7 5.2 3 .2.6-2.3.4-4.1-.5-5.8-1.1-2.1-1.1-2.6 0-3 .9-.3 1-.8.2-1.7-1.1-1.3-.4-4.5.9-4.5 3.2 0 3.5 15.8.5 20.7-.9 1.4-1 2.4-.4 2.8s.8 2.8.5 5.8c-.5 4.2-.4 4.8.6 3.3.6-1 1.2-4.2 1.3-7.2.1-2.9.7-5.9 1.3-6.5q1.2-1.2.3-3c-.7-1.1-.7-2 0-2.4.5-.3 1 .1 1 .9 0 .9.4 1.6.9 1.6s.7-.9.4-2-.9-2-1.4-2c-1.2 0-1.1-2.7.1-3.5.6-.3 1.4.5 2 1.9.5 1.4 1.2 2.6 1.6 2.6 1.1 0-.4-7.1-1.9-8.8-1.1-1.2-1.3-2.2-.6-3.5.6-.9 1.2-5 1.5-9 .3-3.9.6-7.8.6-8.5.3-2.7 1.7-.9 2.1 2.6.3 3.1.4 2.8.5-1.5.2-4.4-.1-5.3-1.8-5.8-1.1-.3-2-1.3-2-2.1 0-1.9 1.9-1.8 2.6.1 1.5 3.9 2 0 2.2-19.1.2-14.3 0-20.4-.7-19.9-.6.3-1.1 1.3-1.1 2.1s-.5 1.3-1.2 1.2c-.7-.2-1.5 1.6-2 4.2-.4 2.5-2 6.8-3.5 9.7s-2.4 5.5-2.1 5.9c1.2 1.1 6-4.6 5.5-6.5-.2-1.1-.1-2.5.4-3.2.5-.9.9.9.9 4.8 0 5.1-.3 6.1-1.5 5.7-1-.4-1.5 0-1.5 1.4 0 1.2-.4 2.4-1 2.7-.5.3-1 0-1-.8s-.7-1.7-1.5-2.1c-2-.7-1.9.7.5 4.9 2.1 3.7 2.7 9.5 1 9.5-.5 0-1-1.1-1-2.5s-1.1-4.7-2.5-7.3-2.5-4.1-2.5-3.4c0 .6-.4 1.2-1 1.2-2.1 0-1-3.9 1.1-4.2 3.5-.5 3.9-3.7 1.3-9.2-3-6.1-3-6.5-.1-3.9 3.7 3.4 5.7 3.6 5.7.7 0-4.6 2.2-11.3 3.9-11.9 3.7-1.1 4-3.7 4.6-35.7.3-17.2.7-40.8 1-52.3.2-11.6.1-27.1-.4-34.5-.9-14.7-.6-16.1 4.9-23 1.4-1.7 4.7-5.9 7.4-9.3 5.7-7.3 15.6-27.3 18.4-37.2 4.2-15.2 4.7-18.8 4.6-36 0-14.1-.4-18.5-2.3-26-3.9-16.1-10.9-31.9-19.5-44.5-2.7-3.9-3-5.2-2.8-10.5.1-3.3.9-7.6 1.6-9.5 1.6-4.1 4-15.4 6.6-31.5 2.1-12.9 3.9-21.1 5.5-24.8.8-2 1.5-5.3 1.5-7.3s.7-6.1 1.6-9.1 1.3-6.5 1-7.8-.2-2.6.3-2.9c.7-.5 2.1-5.3 2.6-9.1.1-.6.9-3.5 1.8-6.5s1.9-7.8 2.2-10.5c.4-2.8 1.3-7.3 2.1-10 3.9-13.9 5.7-22.5 5.8-27 .1-2.8.4-5.5.9-6.2.7-1.1 3.1-12.8 4.7-22.8.4-2.8 1.4-7.3 2.3-10 .8-2.8 1.8-7.9 2.2-11.5.6-5.8 1.2-8.9 4.5-22 .5-1.9 1.6-8.5 2.6-14.5.9-6.1 2.9-16 4.5-22 1.5-6.1 3.5-14.6 4.3-19 4.3-23.9 6.6-34.3 9.7-45.1 1.6-5.6 2.9-11.5 2.9-13.2s.6-4.3 1.2-5.8c1-2.2 1-2.8 0-3.2q-1.2-.3-1.2-7.5c0-10.7-1.8-6.9-2.2 4.5-.1 5.3-.6 9.4-1 9.2-.8-.5-1.2 2.6-.9 5.3.1.7-.3 1.3-.9 1.3-.7 0-1-1.5-.9-3.8.1-2 .1-5.3 0-7.2-.2-3.1-.3-3.3-1.1-1.3-.6 1.5-1.5 2.1-2.5 1.7-1.1-.5-1.5.1-1.5 2 0 2.7-2.5 8.6-3.6 8.6-.4 0-.3-1.1 0-2.4.3-1.4.2-2.7-.3-3-1.1-.7-2.1 1.7-2.1 4.8 0 2.2-1.7 4.6-3.2 4.6-.5 0-.6-1.7-.3-3.8 1-5.9-1.1-1.7-3.4 6.9-1 4.1-2.7 11.4-3.6 16.2s-2.7 12.9-4 18c-6.3 24.3-10.5 42.5-10.5 45.7 0 1.2-.4 3-1 4-.5 1-1.6 5.6-2.4 10.2-2.1 12.5-9.5 48.4-10.6 51.3-.6 1.5-1 4.8-1 7.5s-.5 6.1-1.1 7.7c-.6 1.5-1.5 4.4-1.9 6.3-2.5 11.4-4.1 19.8-6 30-1.2 6.3-2.6 12-3.2 12.7-.5.6-1.2 3.8-1.5 7s-1.1 6.7-1.7 7.8-1.6 5.6-2.3 10c-2 12.3-2.9 16.7-6.7 34.5-2 9.1-3.6 17.6-3.6 19s-.7 5.3-1.6 8.5c-2.5 9.4-4.4 18.7-4.4 21.7 0 1.6-.4 2.8-1 2.8-.5 0-1-.5-1-1.1 0-1.1-14.6-8.3-19.4-9.5s-2.2 1.3 3.3 3.1c2.7.9 5.7 2.5 6.6 3.5 2.5 2.7.7 2.5-3.6-.4-6.4-4.4-27.2-10.6-35.6-10.6-2.4 0-4.3-.5-4.3-1 0-.6 2.2-.8 5.8-.4 4.4.4 5.3.3 4.2-.6-1-.7-7.2-1-19.5-.8-17.3.3-18 .2-18.3-1.7-.2-1.1-1.1-2.5-1.9-3.2-.9-.7-1.3-1.9-1-2.7s-.1-4-.9-7.3c-.9-3.2-1.9-8.1-2.4-10.8-.4-2.8-1.4-7.9-2-11.5-.7-3.6-1.6-9.2-2-12.5-.7-5.4-4.8-18.8-6.7-21.8-.4-.6-.6-2.9-.4-5.2.1-2.2-.5-5.7-1.3-7.7-.9-2-1.9-6.2-2.2-9.3-.7-5.6-2.4-8.7-2.4-4.2 0 3-3.6 4.3-6 2.2-2.4-2.2-3.9-1.8-4.6 1-.8 3.1 0 4.2 2 2.6 1.1-.9 1.5-.8 2 .5 1.1 2.8.6 5.4-.9 5.4-.8 0-1.5-.4-1.5-1 0-.5-1.2-2.1-2.7-3.4-2.2-2-2.5-2.8-1.5-3.8.7-.7 1.2-2 1.2-2.9 0-1.9 3.3-3.6 3.8-2 .4 1.1 4.2 1.6 4.2.5s-2.8-3.3-3.4-2.7c-.3.4-.6.1-.6-.5 0-2.4-3-1.1-4.6 2-1.4 2.7-1.8 2.9-2.6 1.4s-.3-6.8.9-8.9c.3-.4 1.1-.3 1.9.4.8.6 1.7.9 2.1.6.3-.4 1.4.4 2.4 1.7 1.7 2.2 6.6 4.5 5.3 2.5-.3-.5 0-.9.5-.9.6 0 1.1.4 1.1 1 0 .5.5 1 1 1 .6 0 0-2.1-1.4-4.8-1.3-2.6-3.2-8.2-4.1-12.4-1.5-6.2-2.1-7.5-3.2-6.7-.7.7-1.3 1.8-1.3 2.5 0 .8-.4 1.4-1 1.4-1.7 0-1.1-2.9 1-5 2.9-2.9 2.5-6.1-2.5-19.8-.3-.7-.9-1.1-1.4-.8-.8.5 2.5 11.6 4.4 14.5.4.7-.1 2.2-1.3 3.4-1.1 1.2-2.1 2.6-2.3 3.2-.2.5-1.4.1-2.5-1-1.5-1.5-1.9-2.5-1.3-4 .8-1.9.8-1.9 1.5.3.8 2.7 2.4 2.5 3.5-.6.6-1.6.5-2-.6-1.5-1.2.4-1.4-.5-1.3-4.1.3-5.1-.2-5.9-2.6-5-1.1.4-1.6 1.8-1.6 4.3 0 2-.5 4.3-1 5.1-.8 1.3-1.1 1.1-1.6-.8-.4-1.2-1-2.2-1.5-2.2s-.9-.7-.9-1.6c0-1.3-.3-1.4-1.5-.4s-1.3.6-.9-2.7c.7-5 1.2-6.3 2.2-6.3.4 0 .7 1.7.5 3.7-.3 3.5.1 3.3 1.3-.6.3-1 .7-1.1 1.9-.1 2.3 1.9 4.2-5.8 2.7-10.9-.7-2.1-1.2-5.1-1.2-6.6 0-3.9-2.1-9.5-3.6-9.5-.7 0-1.3-2.2-1.6-5.6-.3-3.3-1.1-6-1.9-6.5-1.1-.7-1.1-1.1-.1-1.7 1.5-1 .7-8.5-1.3-11.7-.7-1.2-2-5.6-2.9-9.9-2.6-12.8-2.8-12.9-11.9-13.3-5.2-.2-8.9.2-11.3 1.2-2 .8-4.6 1.2-5.9.9s-3.7.1-5.3 1c-3.6 1.8-6.2 2.1-6.2.6 0-1.6 10.1-6 13.8-6 1.8 0 4.3-.5 5.5-1.2 1.2-.6 5.2-1.2 8.9-1.2 4-.1 6.7-.5 6.5-1.1-.3-1.6-31.7-1.2-32.7.5-.4.7-1.2 1-1.8.6-.6-.3-1.3-.2-1.7.4-.3.5-1.1 1-1.7 1s-.3-.9.7-2 2.6-2 3.5-2 2.2-.6 2.8-1.2c1.3-1.3 10.1-2.5 22.5-3.1 6.3-.3 7-.1 8.7 2.3 1 1.4 2.1 2.2 2.5 1.8.7-.7-1.9-6.3-3.5-7.3-1.4-.9-11.4-1-12.7-.2-.6.4-1.4.1-1.7-.5-.3-1-.8-.9-1.9.4-1.3 1.7-5.7 1.5-5.7-.2 0-1.6 4.6-2.4 12.6-2.2 10.3.2 11.5-.7 8.9-7.3-.9-2.5-2.2-4.5-2.8-4.5-.8 0-.7-.4.2-.9.7-.5 1-1.4.6-2-.5-.9-1-.9-2-.1-.9.8-1.4.5-1.9-1.2-.4-1.4-.9-1.9-1.3-1.2-1 1.4-6.5 2.5-5.6 1.1.4-.7-.1-.8-1.3-.2-1 .4-3.7 1.1-5.9 1.4-2.2.4-4.9 1.2-6 1.8s-3.3 1.3-4.9 1.7c-2.2.5-2.7.4-2.3-.7.4-1-.2-1.3-2.1-1-2.4.3-2.4.2-.7-.6 1.1-.5 3.3-1 4.8-1 1.6-.1 4.9-1 7.5-2 2.6-1.1 7.3-2.2 10.5-2.6 6.3-.7 6.5-1 4.3-7.7-.8-2.4-1.7-6.2-2.1-8.6-.4-2.6-1.2-4.2-2.1-4.2-.8 0-1.4-1-1.4-2.3 0-2.7-3.8-6.7-6.3-6.7-.9 0-1.7-.4-1.7-1 0-.5-.7-.7-1.5-.4-.8.4-1.5.1-1.5-.5s.5-1.1 1.1-1.1c.8 0 .9-1.1.5-3.2-.8-3.9-2.3-5.8-4.2-5.1-1 .4-1.2 0-.8-1.1.3-.8-.1-2.3-1-3.1-1.7-1.7-2.2-5-.8-5.8.4-.2.1-.2-.7 0s-1.8-.2-2.3-.9c-1.1-1.8-1-6.8.2-6.8.6 0 1 1.5 1 3.2 0 3.2 0 3.2 1.6 1 1.4-2.1 1.4-2.5-.5-5.6-2.3-3.7-2.7-6.6-.9-6.6.9 0 .9-.3.1-1.1-1.6-1.6-3.5-.1-3.2 2.4.3 4.8-.4 5.9-1.2 1.8-.9-4.6-1.5-5.8-2.5-4.9-.3.4-.1 2.2.4 4.1.6 2 .6 4 .1 5-.7 1.2-.4 1.9 1.1 2.7 2.3 1.3 2.7 5.2.5 7-1.2 1-1.3.6-.8-2.3.5-3.1.2-3.5-2.1-4.1-2.9-.7-3.3-1.8-1.2-3.5 1.5-1.2 1-5.1-.6-5.1-.5 0-.7.4-.3.9.3.5 0 1.3-.6 1.7-1.8 1.1-3-1.8-1.2-3.1.9-.7 1.3-1.7.9-2.4s-.2-1 .5-.9c.6.2 1.4-.3 1.6-1 .3-.6-.3-1.2-1.1-1.2-.9 0-1.9.6-2.2 1.4-.8 2.1-7.4-.2-7.4-2.6 0-2.2 1.6-2.4 2.4-.3.7 2 3.6 1.9 3.6 0 0-1.7-4.6-3.9-6.2-2.9-.6.4-.9.1-.6-.7s1.4-1.4 2.4-1.3c1.6 0 1.9-.8 2.1-5.8.2-5.2 0-5.8-1.7-5.8-2.3 0-2.6 1.5-.7 2.7 1 .6 1 1.5.2 3.8-1.5 4.5-5.9 3.8-4.7-.7.3-1.5.7-1.6 1.3-.7 1.5 2.4 2.3-.1.9-2.7-1.2-2.1-1.2-2.7-.1-3.3 2.2-1.4-2.5-12.8-6.1-14.7-3.2-1.7-3.2-1.7-1.6-4.4 1-1.5 1-2.2 0-3.2-.9-.9-1.2-.6-1.2 1.5 0 1.5-.5 2.7-1.1 2.7s-.9 1-.7 2.2c.2 1.3.8 2.2 1.4 2.1.7-.1 1.4 2.1 1.7 5 .4 2.8 1.5 6.4 2.6 7.8 1.7 2.3 1.8 3.1.8 5.3-1.5 3.2-2.9 3.4-2.1.2.3-1.3-.1-3.8-.9-5.7-.7-1.9-1.7-5-2.1-7-.9-4.8-3.5-10.1-4.7-9.4-.5.4-.9-.3-.9-1.3 0-2.2-2.5-4.8-3.3-3.5m5 14c-1.7 1.8-2.2.8-1.1-2.2.5-1.2 1-1.3 1.7-.6.8.8.6 1.6-.6 2.8m8.7-2.2c.3.9 0 1.5-.9 1.5-.8 0-1.5-.7-1.5-1.5s.4-1.5.9-1.5 1.1.7 1.5 1.5m2.9 7.5c.3 1.1.3 2 0 2-1 0-3.2-3.4-3.3-4.9 0-2 2.6.4 3.3 2.9m-8.4 1.5v2l-.9-2c-.5-1.1-.9-2.7-.9-3.5-.1-1.3 0-1.3.9 0 .5.8.9 2.4.9 3.5m7 17.2c.9.2 2.1 1.3 2.6 2.5.8 1.6 3.4 3.5 7.3 5.5.2 0-.9 2-2.4 4.3l-2.8 4.2 2.7 2.2c3 2.4 3.6 3.9 1.2 3-2-.8-1.9 1 .1 2.7 1.2 1 1.7 1 2.3.1 1.3-2.2 4.1-.2 4.1 2.9 0 1.6-.4 2.9-1 2.9-.5 0-1-1.1-1-2.5 0-2.6-.9-3.2-2.6-1.5-1.2 1.2-6.4-2.4-6.4-4.3 0-.7-.9-1.8-2.1-2.5-1.3-.8-1.8-1.9-1.4-3.1s-.1-2.1-1.2-2.6c-1.7-.7-1.7-.8.2-1.5 1.7-.7 1.7-.9.3-.9-1-.1-1.8-.5-1.8-1s-.3-1.6-.6-2.4c-.4-1.1.2-1.4 2.3-1.1 1.5.2 2 .1 1.1-.2-2.1-.6-2.3-2-.5-2.8.8-.3.7-.9-.7-2-1-.8-2.3-1.7-2.8-1.8-.6-.2-.6-1.6-.1-3.3l.8-3 .3 2.9c.2 1.6 1.1 3 2.1 3.3m281.8 19.6c-.3 7.4-2.5 7.8-2.5.4 0-2.8.2-6.1.5-7.1 1-3.6 2.2.7 2 6.7m-271.1-4.9c-.4 1.5-.1 2.6.7 2.9.7.2.8.8.3 1.3s-1.1.4-1.3-.4c-.3-.6-1-1.2-1.7-1.2-.9 0-1.2-.9-.8-2.5.2-1.4 1.1-2.5 1.9-2.5 1.1 0 1.3.7.9 2.4m262.8 11.5c-1.2 3.1-2 3.9-2.8 3.1s-.6-1.5.7-2.4c.9-.7 1.7-2.6 1.7-4.2 0-1.9.3-2.5 1.1-1.7.7.7.5 2.3-.7 5.2m13-4.7c-.4.7-1.1 2.8-1.5 4.8l-.7 3.5-.1-4.2c-.1-3.6.5-4.6 2.7-5.2.2-.1 0 .4-.4 1.1m-10.7 9.9c-1.2 2.2-2.5 3.9-2.9 3.9-1.2 0-1-1.8.2-2.2.5-.2 1.5-2.7 2.2-5.6 1.2-4.7 1.4-5 2-2.6.5 1.9.1 3.8-1.5 6.5m-5.4 3.6c.8 1.3-1.9 6.3-3.3 6.3-1.5 0-2.1-5.6-1-8.4.5-1.5 1.1-4.2 1.1-5.9.1-2.7.3-2.4 1.3 1.8.6 2.7 1.5 5.5 1.9 6.2m-246.9-7.5c.3 1.3.6 3.7.6 5.5 0 1.7.4 3.5 1 3.8.5.3 1.4 1.4 1.9 2.3.7 1.4.5 1.8-1 1.8-1.2 0-1.9-.7-1.9-1.9 0-1-.4-1.5-1-1.2-.6.4-1-.8-1.1-2.7 0-1.8-.2-4.8-.3-6.6-.4-3.6.9-4.3 1.8-1m-13.4 2.9c0 .6-.7.6-2-.1-1.1-.6-2-1.5-2-2.1s.7-.6 2 .1c1.1.6 2 1.5 2 2.1m272 3.5c0 3.1-.4 4.3-1.1 3.8-.7-.4-.9-2.1-.6-4 .4-2 .2-3.2-.3-2.9-.6.3-.7-.1-.4-.9 1.1-2.8 2.4-.6 2.4 4m-276-1c0 .9-1 3.4-2.2 5.5-2.1 3.8-2.1 4-.5 7.4 2.3 4.8 2.1 5.7-.3 2s-2.5-5.7-.3-11.8c1.7-4.7 3.3-6.2 3.3-3.1m3 3.4c0 1.6-.4 3-1 3-1.1 0-1.4-4.3-.3-5.3 1.1-1.2 1.3-.8 1.3 2.3m11.5-.9c.6 1.9-.3 4.9-1.6 4.9-.5 0-.4-.9.3-2 .7-1 .8-2.3.4-2.7-.5-.4-1.1-.2-1.3.4-.7 1.8-2.7 1.6-4.6-.5-1.5-1.6-1.4-1.7 2.4-1.7 2.7 0 4.1.4 4.4 1.6m257.7 1.1c.3 2 0 3.8-.8 4.6-1.8 1.7-1.8 2.2.2 3.7 1.3.9 1.5 2 .9 5.1l-.8 3.9-1.2-3c-2.3-5.5-2-17.5.5-17.5.4 0 1 1.4 1.2 3.2m-260.6 5.4c1 1.5 2.3 2.3 3.2 1.9 1.2-.4 1.3.1.9 2.4-.5 2.4-.3 2.9.8 2.4 1.2-.4 1.5.4 1.5 3.2v3.8l-2.4-2.6c-1.3-1.4-2.7-4.1-3.1-5.9-.7-3.2-3.1-6.8-4.5-6.8-.5 0-1.1 1.1-1.4 2.5-.7 2.9-2.6 2.4-2.6-.6 0-5.2 4.3-5.3 7.6-.3M129 131c0 .5-.2 1-.4 1-.3 0-.8-.5-1.1-1-.3-.6-.1-1 .4-1 .6 0 1.1.4 1.1 1m-23 5c0 1.6-.4 3-1 3-.5 0-1-.3-1-.8 0-.4-.3-1.7-.6-3-.5-1.6-.2-2.2 1-2.2 1.1 0 1.6.9 1.6 3m257.7.2c-.3.7-.5.2-.5-1.2s.2-1.9.5-1.3c.2.7.2 1.9 0 2.5m-236.8 5.2c-.7 3.1-.9 5.9-.6 6.2 1.2 1.2 3.5-1.7 4.2-5.2.6-3.3.8-3.5 3.3-2.9 3.7.9 5.2 2.4 5.2 4.9 0 1.2.5 2.7 1.2 3.4 2 2 .1 2.5-2.7.6-1.8-1.2-2.3-2-1.6-2.7 2.3-2.3.3-3.8-2.2-1.7-4.9 4.2-6.2 5-8 5-1.7 0-1.8-.5-1.3-3.6.4-1.9 1-4.2 1.3-5 .4-1 0-1.2-1.1-.8-1.7.6-2.1-.4-.8-2.2.7-1.1 3.4-2.4 4-1.8.2.1-.2 2.8-.9 5.8m-12.9-2.9c0 .8-.7 1.5-1.6 1.5-1.4 0-1.4-.3-.4-1.5.7-.8 1.4-1.5 1.6-1.5s.4.7.4 1.5m-3.1 4c1.7 4.7 6.4 9.5 9.3 9.5 1.3 0 2.9.5 3.6 1.2 1.5 1.5 1.6 5.8.2 5.8-.5 0-1-.4-1-.9s-.8-1.2-1.9-1.6c-4.2-1.3-14.1-12.8-14.1-16.3 0-3.2 2.4-1.7 3.9 2.3m260.4-2.5c-.3 1.1-.7 2-.9 2s-.4-.9-.4-2 .4-2 .9-2 .7.9.4 2m-5.3 2.5c-.9 1-.9 1.5-.1 1.5.6 0 1.1.9 1.1 2 0 2.2-3.2 8.9-4.2 9-1.4 0-.8-4.3.8-6.2 1.6-1.6 1.6-1.8 0-2.4s-2.2-3.5-.9-4.7c.3-.4 1.5-.7 2.6-.7 1.6 0 1.7.3.7 1.5m-250 1.4c0 1.1 1 2.7 2.2 3.5 1.2.9 1.9 1.8 1.6 2.1s-1.7-.4-3.1-1.6c-2.6-2-3.7-5.9-1.7-5.9.6 0 1 .9 1 1.9m257 4.3c0 .4.7.8 1.6.8 1.4 0 1.5.7 1 4.2-.8 4.7-1.3 5.8-2.8 5.8-.6 0-.8-1.3-.4-3.5.8-3.9 0-4.7-1.3-1.3-.8 2.1-1 1.9-1.6-1.7-.5-2.5-.4-4 .2-4.2s.9-1.4.6-2.6c-.4-2.1-.4-2.2 1.1-.3.9 1.1 1.6 2.3 1.6 2.8m-12.3 2c-.3.8-.6.5-.6-.6-.1-1.1.2-1.7.5-1.3.3.3.4 1.2.1 1.9M142 152.7c0 .7-.4 1.3-1 1.3-.5 0-1 .4-1 1 0 .5.7 1 1.5 1s1.5.7 1.5 1.5c0 1.3-.4 1.4-2 .5-1.1-.6-2-1.7-2-2.5 0-.7-.7-2-1.5-2.9-1.4-1.4-1.3-1.5 1.5-1.3 1.6.1 3 .8 3 1.4m-34.3 7.5c-.2 1.3-.4.3-.4-2.2s.2-3.5.4-2.3c.2 1.3.2 3.3 0 4.5m21.7-.1c-1.5 3.1-3.7.8-2.9-3.1.7-3.1.7-3.2 2.2-1 1 1.5 1.2 2.8.7 4.1m237.5-2.9c-.8 1.4-1.4 1.7-2.2.9-.7-.7-.6-1.5.3-2.5 1.7-2.2 3.2-.9 1.9 1.6m-230.4 1.7c-.4 1.7-1.1 3.1-1.6 3.1-1.2 0-1.1-1.2.1-4.6 1.4-3.5 2.4-2.4 1.5 1.5M115 157c0 .5-.2 1-.4 1-.3 0-.8-.5-1.1-1-.3-.6-.1-1 .4-1 .6 0 1.1.4 1.1 1m-4.3 3.7c-.3 1-.5.4-.5-1.2 0-1.7.2-2.4.5-1.8.2.7.2 2.1 0 3m30.3-.2c.7.9 1.9 1.4 2.7 1.1.7-.3 1.3.1 1.3.9s-.6 1.5-1.2 1.5c-.7 0-2.4.3-3.8.6-2 .6-2.3.4-1.3-.6.8-.9.9-1.9.2-3.2-1.2-2.2.3-2.4 2.1-.3m218.5 2.2c-.9 5.2-2.5 6.6-2.5 2.2 0-3 1.4-5.9 2.8-5.9.2 0 .1 1.7-.3 3.7m11.2.4c.1 2.4 0 2.6-.4.9-.3-1.4-1-3.1-1.6-3.9-1-1.1-.9-1.3.3-.9.9.3 1.6 1.8 1.7 3.9m-254.5.5c-.6 3.4-2.2 3-2.2-.6 0-2.1.4-2.8 1.4-2.4.8.3 1.1 1.5.8 3m257.7-2.2c.7.8.8 1.7.3 2-.6.3-1.2-.3-1.5-1.4-.6-2.4-.4-2.5 1.2-.6m-251.6 4.8c-.3 1.6-1.2 2.8-2 2.8-1.1 0-1.3-.5-.8-1.8.4-.9 1-2.8 1.3-4.1.7-3.4 2.2-.4 1.5 3.1m241.9 4.3c-.6 2.7-.7 2.5-1.3-2-.7-6.1.2-9.5 1.2-4.5.4 1.9.5 4.8.1 6.5m-236.6-3c-.3.8-1.2 1.5-2.1 1.5-1.7 0-1.8-.4-.9-3.7.5-2 .8-2.1 2.1-.7.8.8 1.2 2.1.9 2.9m4.4-4.1c0 .3-.4.8-1 1.1-.5.3-1 .1-1-.4 0-.6.5-1.1 1-1.1.6 0 1 .2 1 .4m235.7 2.8c-.3.8-.6.5-.6-.6-.1-1.1.2-1.7.5-1.3.3.3.4 1.2.1 1.9m3.7 7.3c-.4 2.7-1 4.2-1.4 3.5-1.2-1.9-2.3.6-1.2 2.7 1.5 2.8-1.4 11.5-3.6 11.1-1.3-.2-1.7-1.4-1.8-4.8-.1-2.5 0-3.4.3-2 .7 3.7 2.3 4.9 2.3 1.8 0-1.5.5-3 1-3.3.6-.4.8-1.6.4-2.7-.3-1.1.1-3.4.9-5.2.9-1.7 1.8-4 2.2-5 1-3.4 1.7-.9.9 3.9m-4.7-1.3c-.3.7-.5.2-.5-1.2s.2-1.9.5-1.3c.2.7.2 1.9 0 2.5m-288.3 5c1 1.7 1.5 2.9 1 2.6-4.6-2.1-6.4-3.3-6.4-4.3 0-3.5 2.9-2.6 5.4 1.7m68.9-1.4c-1.3.2-3.3.2-4.5-.1-2.3-.4-2.3-.4.2-1.4 1.8-.8 3.1-.7 4.5 0 2 1.1 1.9 1.2-.2 1.5m211.6 2.7v2l-.9-2c-.5-1.1-.9-2.7-.9-3.5-.1-1.3 0-1.3.9 0 .5.8.9 2.4.9 3.5m5.5-1.2c.4 1.9.3 2.6-.4 2.2-.5-.3-1-1.8-1-3.2 0-3.2.5-2.8 1.4 1M82 177.2c0 1.9-.2 2-1 .8-1.3-1.9-1.3-3 0-3 .6 0 1 1 1 2.2m44 .2c0 .3-.4.8-1 1.1-.5.3-1 .1-1-.4 0-.6.5-1.1 1-1.1.6 0 1 .2 1 .4m26.4 2.2c.9.3 1.6 1.2 1.6 1.9 0 .9-1.4 1.2-4.8 1.1-2.6-.1-5.2-.5-5.7-.8-.6-.3-3.4-.2-6.4.3-6.1.9-8.3.3-5.6-1.8 1.9-1.3 17.8-1.9 20.9-.7M127 182c0 .5-.8 1-1.7 1-1.5 0-1.6-.2-.3-1 1.9-1.2 2-1.2 2 0m229 3c0 1.1-.7 2-1.5 2-1.3 0-1.4-.4-.5-2 .6-1.1 1.3-2 1.5-2 .3 0 .5.9.5 2m-4.3 1.2c-.3.8-.6.5-.6-.6-.1-1.1.2-1.7.5-1.3.3.3.4 1.2.1 1.9m-266.9 4.3c.7 2 2.6 5.4 4.2 7.5 1.7 2.1 3 4.2 3 4.6 0 .5 1.8 2.7 4 4.9 2.1 2.2 3.9 4.8 4 5.8 0 1.7-.1 1.7-2.7 0-5.8-3.6-10-8.8-10.7-13.2-.3-2.4-1.3-4.4-2.2-4.8-.9-.3-1.4-1.3-1.1-2.4s.1-1.9-.5-1.9c-.5 0-.6-.5-.3-1 .4-.6.1-1.8-.7-2.7-1.1-1.4-1.1-1.6.2-1.1.8.2 2.1 2.2 2.8 4.3m41.7-2.5c.3.5.1 1-.4 1-.6 0-1.1-.5-1.1-1 0-.6.2-1 .4-1 .3 0 .8.4 1.1 1m234.5 6.7c0 .3-.7 0-1.5-.7s-1.5-2.4-1.5-3.9c.1-2.5.1-2.5 1.5.8.8 1.8 1.5 3.6 1.5 3.8m6-.7c0 .5-.5 1-1.1 1-.5 0-.7-.5-.4-1 .3-.6.8-1 1.1-1 .2 0 .4.4.4 1m-15.4 1.6c-.3.9-.6 1.8-.6 2s-.4.4-.9.4-.7-.9-.4-2 1-2 1.5-2c.6 0 .7.7.4 1.6m7.9 3.4c-.3.5-1.3 1-2.1 1s-1.2-.5-.9-1c.3-.6 1.3-1 2.1-1s1.2.4.9 1m-5.5 2.5c0 .8-.4 1.7-1 2-.6.4-1-.5-1-2s.4-2.4 1-2c.6.3 1 1.2 1 2m5.9 3.6c-2.5 2.2-3.9 2.4-3.9.6 0-1.7 2-4.6 2-3 0 2.2 2.2 1.4 2.8-1 .5-1.9.7-1.9 1-.4.2 1-.6 2.7-1.9 3.8m4 1c-.6 2.4-1.4 3.8-1.6 3.2-.5-1.5 1.7-8.7 2.4-8 .2.3-.1 2.5-.8 4.8m-15.9.6c0 2-.3 2.4-1.1 1.6-.7-.7-.9-1.9-.6-2.7 1-2.4 1.7-1.9 1.7 1.1m-234.9.6c.9.7 2.1 2.2 2.8 3.4.9 1.7 2.1 2.3 4.7 2.3 2 0 4.8.8 6.2 1.9 1.5 1 3.7 2.2 5 2.5 1.2.4 2.2 1 2.2 1.4s.9 2.2 2 4c1.8 2.8 2.2 3.1 3.9 2 2.5-1.5 4.1-.2 1.8 1.5-1.3 1-1.5 1.9-.8 4.9.9 4 .5 4.6-2.1 2.5-2-1.6-6.8-10.2-6.8-12.1 0-.9-1.2-1.9-2.7-2.2-1.6-.4-3.3-1.3-3.8-2.1-.6-.8-3-1.4-5.9-1.5-3.8 0-5-.4-5.3-1.9-.3-1-1.4-2.1-2.4-2.4-1-.4-1.9-1.3-1.9-2.1 0-1.8-1-1.7-3.4.1-1.8 1.4-3.6 1.2-3.6-.4 0-1.1 4.1-3 6.5-3 1.1 0 2.7.5 3.6 1.2m33 1.2c-.1 1.5-2.4 1.2-2.9-.3-.3-.9.2-1.3 1.2-1 1 .1 1.7.7 1.7 1.3m213.9 2.6c0 .5-1 .9-2.1.9-1.8 0-1.9.2-.9 1.5 1.5 1.8.7 3-1.5 2.2-2.2-.9-2-6.4.3-6.9 1.8-.5 4.2.9 4.2 2.3m-210 .4c-1 2.8.5 6.5 2.6 6.5.7 0 1.4.7 1.8 1.5.8 2.1-2.1 1.9-3.3-.2-.9-1.7-1-1.7-2.8 0-2.4 2.1-3.7 2.1-5.3.2-.9-1.1-1.6-1.3-2.4-.5-1.5 1.5-3.6 1.2-3.6-.4 0-2.2 3.6-2.9 6.3-1.1s4.1 1 2.5-1.4c-.8-1.4-.6-2.3 1.3-4.3 3.1-3.3 4.1-3.4 2.9-.3m5 1c0 3.4-1.2 4.6-2.5 2.4-.9-1.4.3-5.9 1.5-5.9.6 0 1 1.6 1 3.5m2.6 6.3c-.4.3-1.1.1-1.7-.5-.8-.8-.7-1.8.3-3.4l1.3-2.4.3 2.8c.2 1.6.1 3.1-.2 3.5m194.4-1.7c0 1.8-1.8.9-2.3-1.2-.4-1.6-.3-1.8.9-.8.8.6 1.4 1.5 1.4 2m9.3.1c-.3 1.6-.9 2.8-1.4 2.8-1.1 0-1.1-.3.1-3.6 1.3-3.3 2-2.9 1.3.8M107 217c0 1.1-.7 2-1.5 2-1.5 0-2.1-2.1-.8-3.3 1.2-1.3 2.3-.7 2.3 1.3m241 2c-2.7 1.6-.2 2.2 2.9.7 3.7-1.8 4.1-.4.9 3-2.8 3-4.1 2.9-5.4-.6-1.3-3.4.1-7 1.9-5.2.9.9.8 1.4-.3 2.1m-267.5 1c-.3.5-1 1-1.6 1-.5 0-.9-.5-.9-1 0-.6.7-1 1.6-1 .8 0 1.2.4.9 1m281.1 2.2c-.9 1.2-1.6 1.7-1.6 1 0-1.4 2.3-4.2 2.9-3.7.1.2-.4 1.4-1.3 2.7M75 222c0 .5-.4 1-1 1-.5 0-1-.5-1-1 0-.6.5-1 1-1 .6 0 1 .4 1 1m82.6 1.4c-.5 1.9 0 2.9 2.2 4.5 2 1.5 2.3 2 1 2.1-3.6 0-4.8-1.2-4.8-5.1 0-2.2.5-3.9 1.1-3.9.7 0 .9.9.5 2.4m4.7 1.8c.6.4.8 1 .4 1.4-1.3 1.3-3.5-1.6-2.9-3.9.6-2.1.6-2.1 1-.2.2 1.1.9 2.3 1.5 2.7M356 228c-1.5 6.2-3.5 6.8-2.5.7.4-2.3 1.2-5.1 1.8-6.2 1.6-3.2 2-.1.7 5.5m-202.5-4c.3.5.1 1-.4 1-.6 0-1.1-.5-1.1-1 0-.6.2-1 .4-1 .3 0 .8.4 1.1 1m-.3 5.7c-1 .4-1 .8-.1 1.9.7.8.9 1.7.5 2.1-1.1 1.1-3.5-3.1-3.4-6l.1-2.8 2.1 2.1c1.5 1.6 1.8 2.4.8 2.7m-5.2-1.1c0 .9-.5 1.4-1.2 1.2-1.8-.6-2.1-2.8-.4-2.8.9 0 1.6.7 1.6 1.6m204.9 5.5c.1.8-8.9 8.3-9.3 7.8-.2-.2-.7-1.5-1.1-2.9-.7-2.1-.6-2.3.7-1.3.8.7 1.8 1 2.1.6 1.2-1.1.8-4.3-.5-4.4q-1.5 0 0-.6c.6-.2 1.2-1.3 1.2-2.3s.5-2.2 1.1-2.6c.8-.5 1 .6.7 3.5-.2 2.9 0 4.1.9 4.1s1.3-1.6 1.4-4.8l.1-4.7 1.3 3.5c.7 1.9 1.4 3.8 1.4 4.1m-333.2-5.5c-.3.3-1.2.4-1.9.1-.8-.3-.5-.6.6-.6 1.1-.1 1.7.2 1.3.5m110.3 1.5c0 1.1-.4 1.7-1 1.4-.5-.3-1-1.3-1-2.1s.5-1.4 1-1.4c.6 0 1 .9 1 2.1m35.9 5.5c.1.7-.5 1.4-1.3 1.7-1 .4-1.3-.3-1.1-2.6.2-1.8.4-3.4.5-3.7.2-.7 1.8 3.2 1.9 4.6m-29.3-.1c2 4.8 1.7 5.7-.5 1.6l-1.8-3.4-.9 5.9-.8 5.9-.6-5c-.3-3.6-.1-5.5 1-6.8 1.9-2.2 1.9-2.3 3.6 1.8m220.7 3c-.8 1.3-1.2 1.3-2.7.2-1.7-1.2-1.7-1.4.6-4l2.3-2.6.3 2.4c.2 1.4-.1 3.1-.5 4M127 234.4c0 .7-.8 2.4-1.8 3.7s-2.4 3.8-3.1 5.6c-.7 1.7-2.1 3.9-3.2 4.9-1.8 1.6-1.9 1.6-1.9-1.5 0-3.6 2.2-8.4 5.3-11.9 2.3-2.5 4.7-2.9 4.7-.8m33.9-.5c1.2.7 1.2 1.3.3 2.4-.7.7-.9 1.7-.5 2 .3.4.1 1.3-.6 2-.8 1.1-.6 1.8 1 3.3 1.7 1.5 2.2 1.6 2.9.4 1.3-2.1 2.4-.5 2.1 3.2-.2 1.8-.3 5.7-.3 8.6 0 3.6-.3 5.2-1.1 4.9-.7-.2-1.2-2.7-1.2-6.1 0-5.4-.2-5.9-3-7.3-4.2-2.2-7.5-5.4-7.5-7.2.1-1.2.5-1.1 1.9.6 2.8 3.4 3.3 2.8 1.4-1.8-1.3-3.5-1.4-4.2-.2-5 1.8-1.1 3-1.1 4.8 0M146 236c0 .5-.7.7-1.5.4-.8-.4-1.5-.8-1.5-1s.7-.4 1.5-.4 1.5.4 1.5 1m2 3c0 .5-.4 1-1 1-.5 0-1-.5-1-1 0-.6.5-1 1-1 .6 0 1 .4 1 1m208.7 9.2c-.3 2-1.3 4.7-2.2 6l-1.7 2.3.6-2.5c1.9-7.8 1.9-7.8.1-4.7-1.6 2.7-1.7 2.8-3 1-1.9-2.4-1.9-3 .7-7.1l2.1-3.5 2 2.4c1.4 1.7 1.8 3.4 1.4 6.1m-215.1-5.7c.4.8 1 1.3 1.4 1s1.1.7 1.4 2.3c.4 1.5.9 3.6 1.3 4.7.8 3-1.1.8-4.1-4.8-1.5-2.6-2.2-4.7-1.6-4.7s1.3.7 1.6 1.5m-2.3 4.4c1.2 1.1 1.7 2.9 1.5 6.6l-.1 5-.4-4.5c-.4-4.2-2.3-8.2-2.3-5-.1.9-.7.4-1.5-1s-1.4-3.4-1.4-4.5c0-1.9 0-1.9 1.2-.1.7 1 2 2.6 3 3.5m14.3 3.8c-.7.7-2.6-.7-2.6-1.9 0-.6.6-.6 1.5.2.9.7 1.3 1.5 1.1 1.7m6.3-.1c2.2 2.8 2.8 5.4 1.2 5.4-1.2 0-5.1-5.4-5.1-6.9 0-1.9 1.8-1.2 3.9 1.5m183.8 3.8c-1.2 1.2-2.3 2.1-2.5 2.1-.1-.1.3-1.6.9-3.4.9-2.4 1.4-2.9 2.4-2.1 1.1.9.9 1.5-.8 3.4m-4-1.2c-.3.8-.6.5-.6-.6-.1-1.1.2-1.7.5-1.3.3.3.4 1.2.1 1.9m-169.1 8.1c-.5 2.6-.2 4.5.9 6 1.6 2.3 2.1 7.7.6 7.7-.5 0-1.1-1.4-1.4-3-.4-1.9-1.3-3-2.3-3s-2.5-.7-3.4-1.5c-1.5-1.3-1.6-1.1-1.7 2.1-.1 3 .1 3.3 1.5 2.2 1.3-1.1 1.4-1 .7 1.7-.4 1.6-.9 4.6-1.2 6.5-.6 5-1.3 5-1.3-.1 0-3.4-.6-5.1-2.7-7.3-2.2-2.4-2.4-3.2-1.5-4.7.7-1 1.2-2.1 1.2-2.4 0-1-2.4-.4-4 1-2 1.8-5 1-5-1.4 0-1.7 3.2-2.3 4.6-.9.3.4 2.1-.2 4-1.2 3.4-1.9 3.4-1.9 5.4.2 1.1 1.2 2 2.7 2 3.2 0 .6.5.4 1-.4 1.3-2 1.3-7.1 0-10.7l-1-2.8 2.1 2.5c1.6 1.9 2 3.3 1.5 6.3m-22-3.8c1.4 3.5 1.4 3.7-1.3 8.4-.4.6-3.3-2-3.3-3 0-.4.9-1.1 2-1.4s2-1.3 2-2.2c0-1.2-.7-1.4-3-.9-3 .6-3 .5-1.4-1.9 2.2-3.4 3.2-3.1 5 1m9.8 1.9c-1 2.7-2.9 1.3-3.2-2.5l-.3-3.4 2.1 2.1c1.3 1.3 1.8 2.7 1.4 3.8m192.6-4.5c0 .6-.4 1.3-1 1.6-.5.3-1-.1-1-.9 0-.9.5-1.6 1-1.6.6 0 1 .4 1 .9m-209.7 8.3c.3 1 .3 1.8-.1 1.8-1.1 0-5.2-5.6-5.2-7.1s4.4 3 5.3 5.3m200.4.6c1.5 5.7 1.5 6.2.5 6.2-.8 0-3.2-7.9-3.2-10.7s1.4-.5 2.7 4.5m3.7-.6c.3 1.5.2 2.9-.3 3.2-1.1.7-2.1-1.7-2.1-5.2 0-3.1 1.5-1.9 2.4 2m5.6-2.2c0 .5-.4 1-1 1-.5 0-1-.5-1-1 0-.6.5-1 1-1 .6 0 1 .4 1 1m-12 6.2c0 .5-.4.8-1 .8-.5 0-1-1-1-2.3 0-1.8.2-1.9 1-.7.5.8 1 1.8 1 2.2m13.2.4c-.3 1.5-.8 2.2-1.4 1.6-.9-.9-.1-4.2 1.2-4.2.4 0 .5 1.2.2 2.6m-206.7.4c.3.5-.1 1-.9 1-.9 0-1.6-.5-1.6-1 0-.6.4-1 .9-1 .6 0 1.3.4 1.6 1m189.2 2.2c-.3.8-.6.5-.6-.6-.1-1.1.2-1.7.5-1.3.3.3.4 1.2.1 1.9m-185 4c-.2 1.3-.4.5-.4-1.7-.1-2.2.1-3.2.4-2.3.2 1 .2 2.8 0 4m198.3-.5c0 3.3-.3 4.3-.9 3.4-.8-1.2-1.2-1-2.2 1.2-.9 2-1.5 2.4-2.1 1.5-1.1-1.8-1-6.8.2-6.8.6 0 .9.4.8.9-.2.5.2 1.1.7 1.2.6.2 1.1-1.1 1.3-2.9.5-5 2.2-3.8 2.2 1.5m-200 3.1c0 2.1-.2 2.4-1 1.2-1.3-2-1.3-5.3 0-4.5.6.3 1 1.8 1 3.3m186.2-.6c-.7.7-1.2.8-1.2.2 0-1.4 1.2-2.6 1.9-1.9.2.3-.1 1.1-.7 1.7M160 276c0 .5-.4 1-.8 1-.5 0-1.4 1-2 2.2-.6 1.3-1.1 1.7-1.1 1-.1-1.9 1.8-5.2 2.9-5.2.6 0 1 .4 1 1m-15.5.9c.3.5.1 1.2-.5 1.6-.5.3-1-.1-1-.9 0-1.8.6-2.1 1.5-.7m9.5 1c0 .6-.4 1.3-1 1.6-.5.3-1-.1-1-.9 0-.9.5-1.6 1-1.6.6 0 1 .4 1 .9m6.1 5.3c-.9 3.1-.9 3.1-1 .6-.1-3 1.1-6.7 1.6-5.1.2.6 0 2.6-.6 4.5m174.7-2.2c-1.4 2.2-2.4 1.9-1.5-.5.4-.8 1.1-1.5 1.7-1.5s.6.7-.2 2m6.6 1.2c.9 1.7 1.6 4.1 1.6 5.4 0 1.2.5 2.4 1.1 2.6.7.2.4 1-.7 1.8-1.6 1.4-1.7 1.3-1.1-.4.6-1.6.3-1.8-1.9-1.3-2.3.4-2.5.2-2-1.9.4-1.4.2-2.4-.4-2.4-.5 0-1 1-1 2.2 0 1.7-.3 1.9-1.2 1-1-1-1-1.7 0-3.2.6-1.1 1.2-2.8 1.2-3.7.1-1.4.4-1.3 1.6.7l1.5 2.5-.4-3.3c-.2-1.7-.2-3.2-.1-3.2s1 1.4 1.8 3.2m-190.4.4c0 .8-.4 1.2-1 .9-.5-.3-1-1-1-1.6 0-.5.5-.9 1-.9.6 0 1 .7 1 1.6m197.6 2.9c-.7 1.8-2.6 2-2.6.2s2.4-4.1 2.8-2.7c.2.6.1 1.7-.2 2.5m-193.6.6c0 1.8-.2 1.9-1.5.9-1.5-1.2-1.2-3 .6-3 .5 0 .9 1 .9 2.1m9 3c0 .5-.4.9-1 .9-.5 0-1-.7-1-1.6 0-.8.5-1.2 1-.9.6.3 1 1 1 1.6m167 1.1c0 .5-.4.8-1 .8-.5 0-1-1-1-2.3 0-1.8.2-1.9 1-.7.5.8 1 1.8 1 2.2M154.5 293c1.8 2 1.5 3.8-.4 2.5-1.5-.9-3.3-4.5-2.3-4.5.5 0 1.7.9 2.7 2m7.5.6c0 .8-.4 1.2-1 .9-.5-.3-1-1.3-1-2.1s.5-1.2 1-.9c.6.3 1 1.3 1 2.1m8 .4c0 1.1-.4 2-1 2-.5 0-1-.9-1-2s.5-2 1-2c.6 0 1 .9 1 2m175.6 1.7c-.8 1.5-1.5 2.2-1.6 1.5 0-1.7 2-5.5 2.7-4.9.2.3-.2 1.8-1.1 3.4m-193 1.9c2 1.9 3.3 3.8 3 4.1-.6.6-7.6-6-7.6-7.2 0-1.1 1.2-.4 4.6 3.1m182.6 1.6c-1 1-1.5 1-2.2-.2-.5-.8-1-2.4-1-3.5 0-1.9.1-1.9 2.2.3 1.8 1.7 2 2.4 1 3.4m12.8-.6c0 1.4-.4 2.3-.9 2s-.7-1.5-.4-2.6c.7-2.8 1.3-2.5 1.3.6m-181-.9c0 .5-.5 1.5-1 2.3-.8 1.2-1 1.1-1-.8 0-1.2.5-2.2 1-2.2.6 0 1 .3 1 .7m14 6.3c.6 0 .9-.4.6-.9-.4-.5-.2-2 .3-3.2.8-2.2.8-2.2 1.3.9.2 1.8.1 3.2-.4 3.2-.4 0-.8.7-.8 1.5 0 2-1.7 1.9-2.9-.3-.9-1.5-1-1.5-1.1.5 0 1.3-.5 2.3-1.1 2.3-.7 0-.9-1-.5-2.5.5-1.8.1-3.2-1.4-4.7-1.1-1.2-2-2.7-2-3.2 0-.6 1.6.6 3.5 2.6 1.8 2.1 3.9 3.8 4.5 3.8m-6.4 1.8c-1.1 1.1-3.6-2.2-3.6-4.7 0-2.6 0-2.6 2.1.8 1.1 1.8 1.8 3.6 1.5 3.9m-11.3-2.2c.5 3-.8 2-1.8-1.5-.4-1.5-.3-2.1.3-1.7.5.3 1.2 1.7 1.5 3.2m178.7.4c.5 0 1.1-.8 1.3-1.8.4-1.6.5-1.6.6.1.1 1-.9 2.1-2.5 2.7s-2.3 1.5-1.8 2.2c.5 1 .4 1-.5.2-.8-.7-.9-2.2-.5-3.9.6-2.3.8-2.5 1.6-1.1.5.9 1.3 1.6 1.8 1.6m-10-.6c0 .8-.4 1.8-1 2.1-.5.3-1-.3-1-1.4 0-1.2.5-2.1 1-2.1.6 0 1 .6 1 1.4M158.2 306c-.2 1.6-.8 2.7-1.3 2.4-1.1-.6-1.2-3.8-.2-4.7 1.4-1.4 1.9-.6 1.5 2.3m12.8.5c2.9 3.1 3.2 10.1.7 15.8-2.2 5.1-4.1 4-3.3-2 .5-3.6.2-5-1.6-7.3-2.4-3.3-2-5 .6-2.5.9.9 1.9 3.4 2.2 5.6.8 4.8 2.4 5.2 2.4.5 0-1.9-1.1-4.9-2.5-7-3.9-5.8-2.9-7.8 1.5-3.1m162.7.7c-.3.8-.6.5-.6-.6-.1-1.1.2-1.7.5-1.3.3.3.4 1.2.1 1.9m10.5 3.8-.6 4.5-.7-3.5c-.5-2.1-.3-4 .3-4.8 1.6-1.8 1.7-1.2 1 3.8m-14.6.8c2.7 2.6 1.4 3-1.5.3-2.3-2-2.7-2.9-1.7-4 .9-1.2 1.2-1.1 1.5.4.2 1 .9 2.5 1.7 3.3m7.4-3.8c0 .5-.4 1-1 1-.5 0-1-.5-1-1 0-.6.5-1 1-1 .6 0 1 .4 1 1m-154.7 2.4c.4.9-.3 1.3-2.3 1.2-2.1-.1-2.6-.4-1.8-1.4 1.4-1.6 3.5-1.5 4.1.2m-21.3 5c0 .9-.6 1.3-1.4 1-1.7-.7-2.8-3.2-2-4.5.7-1.2 3.4 1.5 3.4 3.5m180.7 1.3c-1 12.8-4.2 28.3-5.8 28.3-1.4 0-1.1-2.3.6-4.8 1.2-1.6 1.3-2.7.6-4s-.7-2.2 0-2.9c.6-.6.9-4 .7-7.7-.2-5.1 0-6.7 1.2-7.2 1.3-.4 1.2-.8-.4-2-1.9-1.4-1.9-1.4.5-1.5 1.3 0 1.8-.3 1.2-.6-1.9-.7-1.6-3.3.3-3.3 1.3 0 1.5 1 1.1 5.7m-189-1.5c-.3.8-.6.5-.6-.6-.1-1.1.2-1.7.5-1.3.3.3.4 1.2.1 1.9m173.9 2.9c-1.8 2.6-2.2 1.8-.6-1.2.7-1.3.7-1.9 0-1.9-.5 0-1-.5-1-1.2 0-.8.6-.7 1.6.4 1.5 1.5 1.5 1.8 0 3.9m-159.6-.5c0 .2-.7.4-1.5.4s-1.5-.4-1.5-1c0-.5.7-.7 1.5-.4.8.4 1.5.8 1.5 1m169.2 8.6c.2 3.7 0 6.4-.4 6.2-.4-.3-.7-4-.7-8.2.1-8.7.6-7.9 1.1 2M155 321.1c0 .5-.4.9-1 .9-.5 0-1-.7-1-1.6 0-.8.5-1.2 1-.9.6.3 1 1 1 1.6m4.7.1c-.3.8-.6.5-.6-.6-.1-1.1.2-1.7.5-1.3.3.3.4 1.2.1 1.9M333 323c0 .5-.4 1-1 1-.5 0-1-.5-1-1 0-.6.5-1 1-1 .6 0 1 .4 1 1m-168.5 3.8c-.8.9-2.5-2-1.8-3.1.3-.5 1-.2 1.5.7.6 1 .7 2 .3 2.4m9.5.8c0 .8-.4 1.2-1 .9-.5-.3-1-1.3-1-2.1s.5-1.2 1-.9c.6.3 1 1.3 1 2.1m-.6 7.4c-.4.8-1.2 3.7-1.9 6.5-1 3.8-1.4 4.6-2 3.2-.4-1-.2-2.9.5-4.2s.9-2.9.5-3.5c-.4-.7-.2-1.6.5-2 1-.6.6-1.5-1.3-3.4-3.1-3.1-3.7-3.2-3.7-.7 0 1-.7 2.2-1.6 2.5-1.7.7-1.7.3.8-4.6l1.3-2.7 3.8 3.7c2.4 2.4 3.5 4.2 3.1 5.2m150.1-8c.3.5.1 1-.4 1-.6 0-1.1-.5-1.1-1 0-.6.2-1 .4-1 .3 0 .8.4 1.1 1m9.2 3.2c-.3.7-.5.2-.5-1.2s.2-1.9.5-1.3c.2.7.2 1.9 0 2.5m-141 1c-.3.7-.5.2-.5-1.2s.2-1.9.5-1.3c.2.7.2 1.9 0 2.5m137.8-1.2c.3.5.1 1-.4 1-.6 0-1.1-.5-1.1-1 0-.6.2-1 .4-1 .3 0 .8.4 1.1 1m-140.1 2.3c1.5 2.4-.3 3.5-2 1.3-.8-1.1-1.4-2.4-1.4-2.9 0-1.3 2.2-.3 3.4 1.6m-10.7 1.2c.8.9 1.3 1.9.9 2.2-.7.7-3.6-1.6-3.6-2.8 0-1.3 1-1.1 2.7.6m145 1.7c-.3.8-.6.5-.6-.6-.1-1.1.2-1.7.5-1.3.3.3.4 1.2.1 1.9m3.5 5.2c-1 1.8-2.3-2.7-1.6-5.2.7-2.7.8-2.7 1.4.8.3 1.9.4 3.9.2 4.4m2.9-4.1c-.8.8-1.1.7-1.1-.4 0-2 1.3-3.4 1.8-1.9.3.7-.1 1.7-.7 2.3M193.9 340c.1.9-.4.7-1.4-.7-.9-1.3-1.2-2.9-.8-4 .6-1.6.8-1.5 1.4.7.4 1.4.7 3.2.8 4m-32-.5c0 .5-.4.3-.9-.5s-.9-2.2-.9-3c0-1.6 1.7 1.6 1.8 3.5m15.7-1.3c.4.6.2 1.4-.4 1.6-1.9.6-1.4 2.5.6 2 2-.6 4.2 1.4 4.2 3.8 0 1.3-.4 1.1-1.9-.7-2.2-2.7-2.6-2.5-3.5 1.6-.6 3.1 1.1 7.1 2.1 4.7.2-.6.9-1.2 1.5-1.2s.4.8-.5 1.8c-1 1-1.7 2.6-1.7 3.5s-.5 1.7-1.1 1.7c-.7 0-.9 1-.5 2.4.3 1.4.2 2.7-.3 3-1.4.9-2.2-2.3-1.1-4.4 1.3-2.4 1.3-6 0-6-.5 0-1.4-.9-2-2.1-.9-1.6-.7-3.3.6-7.5 1.7-5.4 2.6-6.4 4-4.2m157.1 1.8c-.6 2.7-3.6 8.4-4.2 7.8-.2-.2 0-1.8.2-3.7.4-2.4.8-2.9 1.5-2 .7 1 .8.6.4-1.2-.6-2.6 0-3.9 1.7-3.9.5 0 .7 1.3.4 3m-167.2-.2c0 1.8-2 1.5-2.3-.4-.3-1 .1-1.5 1-1.2.7.3 1.3 1 1.3 1.6m154.1.8c-.3.9-.6 1.8-.6 2s-.4.4-.9.4-.7-.9-.4-2 1-2 1.5-2c.6 0 .7.7.4 1.6m-133.3 5.2c-.9 2.6-3.4 5.2-5 5.2-1.1 0-1-.6.2-3.1.9-1.7 1.4-3.7 1.1-4.5s.1-1.4.9-1.4 1.5-.6 1.6-1.3c0-.6.4-.2.9 1.1.5 1.2.7 3 .3 4m4-2.9c.5 2.2-.1 3.3-1.4 2.5-1.2-.7-1.2-4.4 0-4.4.5 0 1.1.9 1.4 1.9m2.4 2.3c-.3.7-.5.2-.5-1.2s.2-1.9.5-1.3c.2.7.2 1.9 0 2.5M319 347c0 .5-.2 1-.4 1-.3 0-.8-.5-1.1-1-.3-.6-.1-1 .4-1 .6 0 1.1.4 1.1 1m4.3 4.7c-1.1 1.5-2.3 3.5-2.6 4.3-.5 1.3-.6 1.3-.6-.1-.1-.8.6-2.4 1.4-3.5.8-1 1.5-2.8 1.5-3.9 0-1.4.3-1.6 1.1-.8.9.9.6 1.9-.8 4m-131.7-1.3c.4 1.8 1.1 2.2 2.6 1.8 1.5-.3 1.9-.1 1.6.9-.6 2-4.5 2.3-6.2.6-1.5-1.5-1.1-5.7.5-5.7.5 0 1.1 1.1 1.5 2.4m144.1-1c-.3.8-.9 3.1-1.3 5-.7 4.3-1.7 4.5-3.2 1.1-1.5-3.2-1.5-3.8-.2-3 .5.3 1.5-.5 2.2-1.9 1.2-2.7 3.4-3.7 2.5-1.2m-166 2.8c-.3.7-.5.2-.5-1.2s.2-1.9.5-1.3c.2.7.2 1.9 0 2.5m157.3.1c0 .7-.6 1.9-1.2 2.5-1 1-1 1.4 0 2.1 1 .6 1 1-.1 2-2.2 1.7-3.1-1.5-1.5-5 1.3-3 2.8-3.8 2.8-1.6m-143.5 2.6c-.3.6-1.1.8-1.7.5q-.9-.6.3-1.5c1.6-1 2.3-.4 1.4 1m13.2 4.1c-1.1 2.8-2.6 4-2.8 2.2 0-.4-.2-1.5-.4-2.5-.2-1.3.1-1.7 1.1-1.3.8.3 1.4.1 1.4-.4 0-.6.4-1 .9-1s.4 1.3-.2 3m-13.7 0c0 2.5 1.7 2.6 2.3.2.4-1.3.5-1.1.6.5.1 1.3.7 2.3 1.6 2.3.8 0 1.5.7 1.5 1.5s.4 1.5.9 1.5.7.9.4 2c-.7 2.5-2.3 2.6-2.3.2 0-2-2.9-6.4-3-4.5 0 .7-1.2 1.3-2.6 1.3-2 0-2.5-.4-2-1.6.3-.9.6-2.4.6-3.5 0-1 .5-1.9 1-1.9.6 0 1 .9 1 2m139 1.6c0 .8.5 1.4 1.1 1.4.5 0 .7.5.3 1.2-.5.7-1.1.5-2.1-.7-1.5-2.2-1.8-4.9-.3-4 .6.3 1 1.3 1 2.1m-150 .5c0 .6-.4.7-1 .4-.5-.3-1-1.1-1-1.6 0-.6.5-.7 1-.4.6.3 1 1.1 1 1.6m28.3 4.9c1 2.2 1.7 4.8 1.4 5.7-.3 1.6-.5 1.6-1.1-.2-.4-1.1-1.4-3.2-2.2-4.7-.8-1.4-1.4-3.1-1.4-3.7 0-2.3 1.6-.9 3.3 2.9m-4.1 1c.9 2.3 1.2 4.2.7 4.5-.5.4-.9-.3-.9-1.5 0-1.8-.4-2-2.2-1.4-2 .6-2.1.5-1-.8.7-.9 1-2.3.6-3.2-1.4-3.5 1.2-1.3 2.8 2.4m121.8-2.9c0 .5-.4.7-1 .4-.5-.3-1-.1-1 .6s-.3 1-.6.6c-.8-.7.4-2.7 1.7-2.7.5 0 .9.5.9 1.1M177.2 368c-.6 4.1-1.2 3.8-1.2-.6 0-1.9.4-3.3.8-3 .5.3.7 1.9.4 3.6m152.5-2.6c-.4 1-.1 1.3 1 .9s1.4-.1 1.1 1.3c-.2 1.4-1.2 1.9-3.6 1.9-3.7 0-3.7.1-1.6-3 1.8-2.7 4-3.4 3.1-1.1M181.5 370c-.6.9-.9.9-1.6-.1-1-1.7 0-3.4 1.3-2.1.6.6.7 1.6.3 2.2m5.9 1.9c.4.5 0 1.2-.6 1.4-1 .4-.9.8.2 1.6.8.5 1.2 1.3.9 1.6-1 1-5.3-3.1-4.5-4.3.9-1.4 3.3-1.6 4-.3m-12.7 6.3c-.2 1.3-.4.3-.4-2.2s.2-3.5.4-2.3c.2 1.3.2 3.3 0 4.5m23.5-3.7c2.3-.8 2.3-.8.4 1.4-1.1 1.1-2.6 2.1-3.4 2.1-.9 0-.1 1.4 2.2 3.6 2 2 3.5 3.9 3.2 4.2s-1.6-.7-2.9-2.1c-2.2-2.6-4.7-3.6-4.7-1.8 0 .5-.6 1.1-1.2 1.4-.9.3-1.3-.6-1.4-2.4s.4-2.9 1.2-2.9c.9 0 1.4-1.2 1.4-3.3.1-2.9.2-3.1 1.5-1.4 1 1.4 2 1.7 3.7 1.2m128.6 3.2c-.5 3.1-1.1 6-1.4 6.5-.3.4-.1.8.4.8 1.3 0 1.9-1.7 2.7-7.5.4-2.6 1.1-4.2 1.5-3.5.4.6.4 2.8-.1 4.8-1.1 5.5-3.8 13-3.8 10.9-.1-.9-.8-1.7-1.7-1.7-1.2 0-1.5-.6-1-2.3.3-1.2.8-4.2 1.1-6.7l.5-4.5-1.4 3c-.9 1.6-1.5 3.9-1.6 5 0 1.6-.2 1.7-.9.5-2.1-3.2 1.3-11 4.9-11 1.5 0 1.6.7.8 5.7m-7.8-3.2c0 .8-.4 1.5-1 1.5-.5 0-1-.7-1-1.5s.5-1.5 1-1.5c.6 0 1 .7 1 1.5m-139-.1c0 .3-.4.8-1 1.1-.5.3-1 .1-1-.4 0-.6.5-1.1 1-1.1.6 0 1 .2 1 .4m134 .8c0 .7-.5 2-1 2.8-.8 1.2-1 .9-1-1.3 0-1.5.5-2.7 1-2.7.6 0 1 .6 1 1.2m-111.2 3.2c.6 1.3 1.4 4.4 1.7 7 .6 3.8.5 4.6-.8 4.6-2.1 0-3.2-1.9-1.9-3.2.8-.8.8-1.7.1-3-.5-1-.7-2.3-.4-2.8s.1-1.1-.5-1.5c-1.2-.7-1.3-3.5-.2-3.5.5 0 1.4 1.1 2 2.4m-21.8.5c0 1-.7 2.1-1.5 2.5-1.1.4-1.5-.1-1.5-1.9 0-1.6.6-2.5 1.5-2.5.8 0 1.5.9 1.5 1.9m7.3 1.4c.3.8.1 2-.4 2.8-.7 1.1-.9 1.1-.9-.4 0-.9-.4-1.7-1-1.7-.5 0-1 .5-1 1.2 0 .9-.3.9-1.1.1-.6-.6-.8-1.6-.5-2.2 1-1.5 4.3-1.4 4.9.2m-5.3 7.3c0 2.3-1.8 2.5-3.4.3-1.1-1.7-1.2-2.4-.3-3.5 1-1 1.4-1 2.5.4.6.8 1.2 2.1 1.2 2.8m4-1.6c0 .5-.4 1-1 1-.5 0-1-.5-1-1 0-.6.5-1 1-1 .6 0 1 .4 1 1m6.6 1.1 2.3 2.1-.6-2.1c-.8-3 .8-2.5 3.6 1 2.5 3.2 2.2 5.1-.4 2.9-1.1-.9-1.5-.9-1.5-.1 0 .6.8 1.5 1.8 1.8 2.8 1 4.4 4.3 2.1 4.3-.6 0-3.4-2-6.1-4.5-5.1-4.5-5.1-4.6-6.9-2.6-1.1 1.1-1.9 2.4-1.9 2.8s-.9 1.9-1.9 3.2l-1.9 2.4-.7-3.1c-.8-3.7-.1-5.2 2.4-5.2 1 0 2.6-1.1 3.5-2.5 2-3.1 3.3-3.1 6.2-.4m-16.1.9c.3.5.1 1-.4 1-.6 0-1.1-.5-1.1-1 0-.6.2-1 .4-1 .3 0 .8.4 1.1 1m133.5 1.6c0 1.7 3.1 1.9 4.8.2 1.6-1.6 1.6.2 0 3.7-1.3 2.9-2.8 3.3-2.8.7 0-1.4-.2-1.5-1-.2-1.2 1.9-1.7 1.3-2.5-3.4-.6-2.8-.5-3.7.4-3.2.6.4 1.1 1.4 1.1 2.2m11 9c-1.6 4.7-2.4 4.2-1.8-1.1.6-4.8-.6-6.2-1.6-2-.4 1.4-1.1 2.5-1.6 2.5-.6 0-.4-1.3.5-3 .8-1.6 1.5-3.7 1.5-4.7 0-1.2.7-.7 2 1.5 1.8 2.9 1.9 3.9 1 6.8m-131-5.7c0 .5-.7 1.4-1.5 2.1-1.6 1.4-1.8 1-.9-1.4.6-1.7 2.4-2.2 2.4-.7m14.8 6.2c-.4 3.3-.4 3.4-1.5.9-1.2-2.8-.5-6.6.9-5.2.5.5.8 2.5.6 4.3m-12.6 2.1c.2 2.1 0 3.8-.4 3.8s-.8-2.1-.7-4.8c.1-5.2.6-4.8 1.1 1m-4.1 1.9c2.2 2.2 2.5 4.9.7 4.9-1.6-.1-6.8-4.6-6.8-5.8 0-.6.7-1.2 1.5-1.6.8-.3 1.6-1.3 1.6-2.3.1-1.2.3-1 .6.5.3 1.3 1.3 3.2 2.4 4.3m8.3-5.2c.8 1.3-.5 7.1-1.5 7.1-.5 0-.9-1.8-.9-4 0-3.7 1.1-5.2 2.4-3.1m127.3 2.8c-.3 1-.5.4-.5-1.2 0-1.7.2-2.4.5-1.8.2.7.2 2.1 0 3M201 404.6c0 3.9-.3 4.4-2.2 4.4-1.3 0-1.8-.4-1.3-.8 1-.7 1.1-1 1.4-6.3.2-4.7 2.1-2.4 2.1 2.7m117-2.2c0 1.6-1.8 3.1-2.7 2.2-.8-.8.5-3.6 1.7-3.6.5 0 1 .6 1 1.4m-110.3 1.8c-.3.8-.6.5-.6-.6-.1-1.1.2-1.7.5-1.3.3.3.4 1.2.1 1.9m-25.4 3.1c-.7 1.1-2.3-1.2-2.3-3.3.1-1.2.4-1.1 1.5.4.8 1 1.2 2.3.8 2.9M205 405c0 1.7-1.2 4-2.1 4-.5 0-.9-1.3-.9-3 0-2.2.4-2.8 1.5-2.4.8.4 1.5 1 1.5 1.4m107.4-.4c1.2 3.2.5 6-2.4 8.8-1.7 1.6-3.3 2.6-3.7 2.2s.5-1.7 2.1-2.9c2.2-1.8 2.7-2.9 2.4-5.2l-.4-3-1.8 4c-1.2 2.6-2 3.5-2.4 2.5-.3-.7 0-1.6.7-1.8.6-.2 1.1-1.7 1.1-3.3 0-2.2.5-2.9 1.9-2.9 1 0 2.2.7 2.5 1.6m7.5 3.8c-1.4 1.5-2.2 0-1.3-2.6.7-2.2.7-2.2 1.4-.3.4 1.1.4 2.4-.1 2.9m3.2 2.9c-.6 1.5-1.5 2.7-2.1 2.7-1.4 0-1.3-1.3.5-3.6.8-1 1.5-2.8 1.6-3.9.2-1.9.2-1.9.6.1.2 1.1-.1 3.2-.6 4.7m-128.6-.9c-.8 1.2-1.2 2.5-.9 2.9.8.7 3.7-.3 4.6-1.7.4-.6.8-.1.8 1.1 0 1.3-.6 2.3-1.4 2.3-.7 0-1.7 1-2.1 2.2-.6 2-.8 2-1.2.5-.3-1.2-1.1-1.5-2.9-1.1-3.2.8-3.1-.6.4-5.5 2.8-4 5.3-4.7 2.7-.7m13.5-.4c0 1-.5 2.2-1.1 2.6-.6.3-.9 1.7-.6 3 .5 2.7-.7 3.3-1.7.8-.7-1.8 1.5-9.4 2.6-8.8.4.3.8 1.4.8 2.4m-21.4-.5c1.7 1.6 1.4 1.8-1 .9-.9-.3-1.6-1-1.6-1.5 0-1.3.9-1.1 2.6.6m130.4 1.6c.6 1.1.9 2.5.7 3.2s-1.1-.3-2.1-2.1c-.9-1.7-1.2-3.2-.7-3.2.6 0 1.5.9 2.1 2.1M183.9 416c.1 1.3 0 1.3-.9 0-.5-.8-.9-2.4-.9-3.5v-2l.9 2c.5 1.1.9 2.7.9 3.5m19.1-3c0 1.1-.4 2-1 2-.5 0-1-.9-1-2s.5-2 1-2c.6 0 1 .9 1 2m6.6 1.6c-.4.9 0 2.7.8 3.9 1.1 1.6 1.2 3.2.6 5.8-.4 2.2-.4 3.5.1 3.1.5-.3 1.2.3 1.5 1.3s1.3 3.2 2.2 5 1.3 3.5.9 3.9c-.3.4-1.2-.5-1.8-2-.7-1.4-2-2.6-3.1-2.6-1 0-1.7-.3-1.6-.8 0-.4-.1-1.4-.5-2.2-1.4-3.8-1.4-7.5 0-8.5 1.3-1 1.3-1.5.3-3.2-1.2-1.9-.8-5.3.6-5.3.3 0 .3.7 0 1.6m104.4-.9c0 .5-.7 1.7-1.5 2.7-1.7 2.3-2 5.6-.5 5.6.6 0 1-1 1-2.2 0-1.6.3-1.9 1.1-1.1s.9 2 .1 4.2c-1 2.9 0 4.6 1.1 1.8.3-.6.6.3.6 2 .1 1.8-.3 3.3-.9 3.3-.5 0-1-.7-1-1.5s-.4-1.5-.8-1.5-1.6-1.4-2.6-3.1c-1.8-3.1-1.6-7 .6-9.6 1.1-1.4 2.8-1.7 2.8-.6m7.1 7.7c-.6 1.1-1.2 3.4-1.3 5-.2 1.6-.9 3.1-1.6 3.4-.9.3-1.1-.3-.8-2 .3-1.2.7-4.1.8-6.3.2-2.4.9-4.2 1.8-4.6 1.9-.8 2.5 1.7 1.1 4.5M201 418c0 .5.7 1 1.6 1 1 0 1.4.7 1.2 2.2s-.9 2.2-2.1 2.2c-1.8-.2-2.4 2.1-.7 3.1 1.2.8 1.3 7.5.1 7.5-1.6 0-2.8-2.5-3.5-7.3-.6-3.9-.5-4.7.8-4.7 1.8 0 2.1-1.6.6-2.5-1.2-.7-.4-2.5 1.1-2.5.5 0 .9.4.9 1m-7.1 4.6c-.5.7-1.1 3.4-1.2 6.2-.2 4.5-.4 4.9-2 4-1.5-.7-1.7-1.6-1-4.1.4-1.8.8-4.6.8-6.2 0-2.8.2-3 2.2-2 1.5.7 1.8 1.3 1.2 2.1m-8.7 1.9c-.2 1.9-.6 3.5-.8 3.5s-.4-1.6-.4-3.5.4-3.5.8-3.5.6 1.6.4 3.5m3.8.7c-.1 2.8-.2 3-1.1 1.5-.6-1-.8-2.5-.5-3.3.9-2.4 1.6-1.6 1.6 1.8m51.3-1.5c-.7.2-2.1.2-3 0-1-.3-.4-.5 1.2-.5 1.7 0 2.4.2 1.8.5m74 8.5c2.9 3.2 3.2 4.5 1.6 6.8-.9 1.3-1 1.3-.6-.1.3-.9.2-2.2-.3-2.9-.5-.9-1-.3-1.5 1.9-1 4.8-2.5 2.6-1.8-2.6.7-5.5-.5-5.2-3.1.5-1 2.2-2.8 4.4-4 5-1.9.8-1.6 1.1 3.1 2.8 4.3 1.5 5.4 2.4 5.9 4.7.9 4.3-.3 4.4-2.7.3-2.1-3.6-3.8-4.7-4-2.4 0 .7-.4.3-.9-1-.5-1.2-1.6-2.2-2.5-2.2-.8 0-1.5-.7-1.5-1.5s.6-1.5 1.3-1.5c2.1 0 4.9-8.4 4.2-12.7l-.7-3.8 2.4 2.9c1.2 1.6 3.5 4.2 5.1 5.8m-107.9-4.1c-.3.5-1 .7-1.5.3-.5-.3-.7-1-.3-1.5.3-.5 1-.7 1.5-.3.5.3.7 1 .3 1.5m49.1-.3c10.3 2 27.3 9.5 37.5 16.5 5.7 3.9 15 12.4 15 13.8 0 1.6-3.8-.4-5-2.7-.8-1.3-2-2.4-2.7-2.4-1.8 0 1.2 4.1 4.8 6.6 1.4.9 3.5 3.3 4.5 5.1 1.6 3 2 3.3 3 1.9q2.4-3.45 2.4.9c0 2.1-.5 2.5-3.2 2.5-1.9 0-4.2.9-5.6 2.2l-2.5 2.3 1.2-2.2c.6-1.2 1.9-2.6 2.8-3.2 1.6-.9 1.6-1.1-.1-3-2.1-2.4-4.2-2.7-4.9-.9-.2.8-.8.9-1.3.4s-.4-1.1.4-1.3c1.3-.5 1.7-3.3.4-3.3-.4 0-1.3.5-2 1.2s-1.2.8-1.2.2.5-1.5 1.2-2.2c1.8-1.8 0-2.8-2.4-1.3-1.9 1.2-2 1.1-1.4-.5.4-.9.3-2-.1-2.3-.5-.3-1.7-1.9-2.6-3.4-1.6-2.4-2.3-2.7-5-2.2q-3.3.6-1.8-.3c1.5-1 .7-3.2-1.1-3.2-.7 0-2.1-.8-3.2-1.8-1.2-1-3.6-2.5-5.5-3.2-3.1-1.3-3.5-1.2-5.2 1.1-2 2.6-2.6 1.1-.9-2.2.8-1.5.7-1.9-.4-1.9-.8 0-2.1-.3-3-.6-1.1-.4-1.6-.1-1.6 1 0 .9-.4 1.6-1 1.6-.5 0-1-.9-1-2 0-2.5-2-2.7-2.1-.3-.1 1.7-.2 1.7-.6 0-.5-1.7-2.3-2.4-2.3-.8 0 .5-.9.7-2 .4-1.6-.4-2 0-2 1.8 0 1.2-.3 1.9-.7 1.5-.5-.4-.8-2.2-.8-3.9 0-3-.3-3.2-3.7-3.5-2.2-.2-3.8.1-3.8.7s.7 1.1 1.6 1.1c.8 0 1.3.4.9 1-.3.5-1.2.7-1.9.4-.8-.3-1.7 0-2.1.6-.4.7.2 1.4 1.4 1.7 2.1.5 2.6 1.4 1.5 2.6-.3.3-1.6-.3-2.7-1.4-1.8-1.7-2-2.3-.9-3.9 1.9-3 1.5-3.3-3.3-2.8-2.5.3-4.5.2-4.5-.3 0-1.2-8.7-1.1-9.5.1-.3.5-1.3 1-2.1 1-.9 0-1.2-.5-.8-1.1.5-.9-.4-1-3-.5-3.3.6-3.7.5-3.4-1 .2-1.3 1.9-2.1 6.1-3 8.2-1.6 8.1-2.4 0-1.7-4.9.4-7.2.2-7.8-.6-.9-1.5 32-.9 40 .7m-59.2 2.6c.6 1.6-.2 2.8-1.4 2-1.2-.7-1.1-3.4 0-3.4.5 0 1.1.6 1.4 1.4m108.4 1.8c-.3.8-.6.5-.6-.6-.1-1.1.2-1.7.5-1.3.3.3.4 1.2.1 1.9m-98.3.4c.9.3 1.4 1 1.1 1.4-.3.5-.1 1.1.5 1.5 1.4.9 1.2 3.5-.2 3.5-2.4 0-3.9-1.7-4.2-4.4s.1-3 2.8-2m-5.4 5c0 .6-.6 1.7-1.4 2.4-1.2.9-1.2 1.7-.4 3.5 1.2 2.7 2.8 2.4 2.8-.6 0-2.6 3-3.7 4.2-1.6.5 1 1.5 1.7 2.3 1.7s1.9.9 2.5 2 1.5 1.8 2.1 1.5c1.4-1 1.1.5-.6 2.2-2.1 2-4.8.9-4-1.6.4-1.4 0-2.3-1.5-3.1-1.2-.6-2.3-1-2.4-.8s-.7 1.6-1.4 3.2c-1 2.3-1.5 2.6-2.7 1.6-2.2-1.8-4.8-7.7-4-8.9.4-.7-.6-1.1-2.4-1.1-1.7 0-3.1-.5-3.1-1 0-.6 1.4-1 3-1 1.7 0 3-.5 3-1 0-.6.8-.5 2 .2 1.1.7 2 1.8 2 2.4m28.3-.7c-.7 2.6-4.3 3.5-4.3 1.1 0-1.6 1.1-2.3 4.2-2.9.3 0 .4.8.1 1.8m11.4 1.3c0 1.8-.2 2.5-.4 1.5-.6-2.3-2.3-2.2-2.3.3 0 1.1-.4 2-1 2-2.8 0-.3-4.9 3.6-6.9.1-.1.1 1.4.1 3.1m-18.6 1.5c-.9 1.6-1 1.4-1.1-1.2 0-2.1.3-2.6 1.1-1.8s.8 1.6 0 3m11-1c-.8 1.5-1 1.5-1.1.2 0-1.7 1-3.2 1.8-2.5.2.3-.1 1.3-.7 2.3M252 437c0 .5-.4 1-1 1-.5 0-1-.5-1-1 0-.6.5-1 1-1 .6 0 1 .4 1 1m-38 4.6c0 1.8-1.4 1.8-3-.1s-.3-4 1.6-2.4c.8.6 1.4 1.8 1.4 2.5m79.1-1.9c2.9 1.7 4.6 4.3 2.9 4.3-.6 0-1-.5-1-1 0-.6-.8-1-1.8-1-.9 0-2.3-.9-3-2-1.5-2.4-.9-2.5 2.9-.3M251 441c0 .5-.5 1-1.1 1-.5 0-.7-.5-.4-1 .3-.6.8-1 1.1-1 .2 0 .4.4.4 1m17.2 1.2c-.7.7-1.2.8-1.2.2s.3-1.4.7-1.7c.3-.4.9-.5 1.2-.2.2.3-.1 1.1-.7 1.7m-88.2.8c0 .5-.2 1-.4 1-.3 0-.8-.5-1.1-1-.3-.6-.1-1 .4-1 .6 0 1.1.4 1.1 1m16 2.7c0 1.2-.2 1.2-1.5-.1-.8-.8-1.5-2-1.5-2.7 0-.9.4-.8 1.5.1.8.7 1.5 1.9 1.5 2.7m118.7-1.5c-.3.8-.6.5-.6-.6-.1-1.1.2-1.7.5-1.3.3.3.4 1.2.1 1.9M261 444c0 .5-.2 1-.4 1-.3 0-.8-.5-1.1-1-.3-.6-.1-1 .4-1 .6 0 1.1.4 1.1 1m-26 1c0 .5-.4 1-1 1-.5 0-1-.5-1-1 0-.6.5-1 1-1 .6 0 1 .4 1 1m31.6 2.7c-1 1-1.9-.5-1-1.8.6-1.1.8-1.1 1.2 0 .2.7.1 1.5-.2 1.8m13.9-.6c.4 1.2.2 2.6-.5 3.3-1 .8-1.2.7-.7-.6.8-2.1-.3-3.1-2-1.7-1 .9-1.3.8-1.3-.3 0-3.3 3.5-3.9 4.5-.7m-99.5 1.5c.6 1.6 1.5 2.3 2.2 1.8 1-.5 1-.4.1.6-1.7 1.9-4.3.4-4.3-2.5 0-3.2.8-3.2 2 .1m-9-.6c0 .5-.7 1-1.6 1-.8 0-1.2-.5-.9-1 .3-.6 1-1 1.6-1 .5 0 .9.4.9 1m46.4.6c.4 1 .1 1.4-.6 1.2-1.5-.5-2.3-2.8-1-2.8.5 0 1.3.7 1.6 1.6m53.9-.1c-.3.9-.8 1.4-1 1.1-.3-.3-.2-.9.2-1.5.9-1.6 1.5-1.3.8.4m32.7.1c0 .8-.5 1.2-1 .9-.6-.4-.8-1.1-.5-1.6.9-1.4 1.5-1.1 1.5.7m-73.2 1.4c5.7-.4 10-.2 13.5.7 2.8.7 6.6 1.3 8.4 1.3 1.7 0 3.4.4 3.8.9.3.6 2.7 1.3 5.3 1.7s5.9 1.7 7.5 3 3.3 2.4 3.7 2.4c2.1 0 11.9 8.4 13 11.1.9 2.2 1 5.2.1 12.6-.6 5.4-1.5 16.1-2.1 23.8s-1.5 14.4-2 14.9c-1.4 1.4-1.2 3.6.3 3.6s1.9 5.2.4 6.2c-1.1.6-1.1 3.8-1 45.3 0 11.5.1 22.3 0 23.9 0 2.6-.8 3.2-10.3 7.7-11.2 5.3-26.2 9.2-40 10.4-8.7.7-10.5 0-12.4-5.1-.5-1.3-2-3-3.4-3.9-2.2-1.5-2.7-1.5-5.5-.1-1.7.9-3.5 2.5-4.1 3.7-.8 1.4-1.7 1.8-3.1 1.4-1-.4-1.9-.2-1.9.4 0 .5.9 1.3 2 1.6 2.6.8 2.6 2.5 0 3.2-1.1.3-1.7 1-1.4 1.5s1.2.7 2 .4c1-.4 1.4.4 1.4 3.2 0 2.5-.3 3.3-.9 2.3-.5-.7-1.4-1-2-.7-.6.4-.9 1.2-.6 1.7.4.5 0 .9-.8.9-1 0-1.3-.7-1.1-1.8.5-1.7-3.5-3.7-17.1-8.3-4.2-1.5-5.8-2.6-10.7-7.2-3.4-3.2-3.8-3.3-3.1-.7.7 2.5-.5 2.6-2.4.2-1.3-1.5-1.4-1.4-.8 1.3.6 2.9.6 2.9-1 1-1.1-1.4-1.8-1.6-2.1-.8-.3.7-1.2 1.3-2 1.3-1.6 0-1.9 1.6-.5 2.4.5.4 1.1.1 1.3-.5.2-.7 1.2-.7 3.1.2 2.1 1 3 1 3.9.1 1.1-1.1 4.8-1.7 4.8-.8 0 .2.3 1.2.6 2 .5 1.2.2 1.5-1.1 1-1-.4-2.1-.1-2.6.7-.7 1.1-1.1 1.1-1.7.1-.5-.7-1.6-1-2.5-.6-1 .3-1.7.1-1.7-.6 0-.6-.8-.9-1.8-.6-1 .4-2.6 0-3.6-.7-1.8-1.3-1.7-1.5.8-4 1.5-1.5 3.1-2.7 3.5-2.7.5 0 1.2-.8 1.5-1.7.7-1.8-1.7-4.3-4.2-4.3-.9 0-1.1-.7-.7-1.9.5-1.7 0-2.1-3-2.7-3.6-.6-3.6-.7-1.6-2.5 1.1-1.1 2.5-1.9 3.1-1.9 1.4 0 5.9 5.1 6 6.7 0 1.5 3.1 3.2 4.8 2.6.8-.3 1 .1.5 1.3-.5 1.3-.3 1.6.9 1.1 1.1-.4 1.8.1 2.2 1.5.4 1.8.7 1.9 2 .8 1.4-1 1.6-.9 1.6.6.1 1.6.3 1.5 1.5-.6 1.2-2.2 1.4-2.3 2.1-.7.3 1 1.3 1.6 2 1.3.8-.3 1.4-.1 1.4.5 0 .5.6.9 1.3.8.6-.1 2.5.3 4 .9 1.6.7 4.7 1.4 7 1.7 3.8.5 3.5.3-2.3-1.7-3.6-1.3-7.8-3.2-9.5-4.2-8.6-5.5-11.1-7.4-15.3-12-2.6-2.7-5.7-6-6.9-7.2-5.8-6.2-13.5-21.9-17-34.8-2.4-8.9-2.4-31.7.1-41.1 2.6-10.2 3.8-13.2 7.9-21 5.2-9.7 9-14.8 16.3-21.9 8-7.8 9.2-8.7 13.7-10.9 4.7-2.1 4.7-2.1 4.7.3 0 1.1.5 1.7 1.3 1.5.6-.3 2.2 1 3.5 2.9 1.7 2.5 2.8 3.2 4.3 2.9 2.9-.8 4.1-3.6 2.9-7l-1-2.8 2 2.5c1 1.4 1.7 3.3 1.4 4.3-.9 2.8 2.4 3.2 6.6.8 3.1-1.7 4.3-1.9 5.7-1 1.5.9 2.4.5 5.6-2.4 4.1-3.9 4.7-7 1.8-8.9-1-.6-1.7-1.8-1.4-2.5.3-.8 1-1 1.7-.5.6.5 4.9.6 9.4.2m-63.8 1.5c0 .8-.7 1.5-1.5 1.5s-1.2.6-1 1.2c.3.8-.4 1.3-1.9 1.3-3 0-2.3-2 1.3-4 3.3-1.8 3.1-1.8 3.1 0m29.3-.3c.4 1 .8.9 1.6-.2s1.3-1.2 2.2-.3c1.8 1.8.3 4.6-2.1 3.8-1.6-.5-1.9-.3-1.3 1.1.4 1.1.2 1.5-.4 1.1-1.2-.8-2.3-6.7-1.2-6.7.4 0 1 .6 1.2 1.2m9.4 1.3c-.9 1.9-1.3 2.1-1.5.9-.3-1.3 1.2-3.3 2.5-3.4 0 0-.4 1.1-1 2.5m9.3-.4c0 .5-.4.9-1 .9-.5 0-1-.7-1-1.6 0-.8.5-1.2 1-.9.6.3 1 1 1 1.6m-44.1 3.9c0 2.3-.1 2.3-.9.5-.5-1.1-.9-2.9-.9-4-.1-1.7.1-1.7.9-.5.5.8.9 2.6.9 4m3.8-1.8c-.3.8-.6.5-.6-.6-.1-1.1.2-1.7.5-1.3.3.3.4 1.2.1 1.9m109.8-.2c.3.5.1 1-.4 1-.6 0-1.1-.5-1.1-1 0-.6.2-1 .4-1 .3 0 .8.4 1.1 1m6.5.4c0 .3-.4.8-1 1.1-.5.3-1 .1-1-.4 0-.6.5-1.1 1-1.1.6 0 1 .2 1 .4m-77.3 2.8c-.3.8-.6.5-.6-.6-.1-1.1.2-1.7.5-1.3.3.3.4 1.2.1 1.9m7.3-.8c0 1.4-2.9 3.1-3.7 2.2-.6-.6 1.9-3.5 3-3.6.4 0 .7.6.7 1.4m72 .6c0 .5-.5 1-1.1 1-.5 0-.7-.5-.4-1 .3-.6.8-1 1.1-1 .2 0 .4.4.4 1m-125.5 1c.3.5.1 1-.4 1-.6 0-1.1-.5-1.1-1 0-.6.2-1 .4-1 .3 0 .8.4 1.1 1m-3.7 4.6c-.3 2.7-.4 2.6-.9-.8-.3-2.2-.1-3.4.4-2.9s.7 2.1.5 3.7M194 459c0 .5-.5 1-1.1 1-.5 0-.7-.5-.4-1 .3-.6.8-1 1.1-1 .2 0 .4.4.4 1m14 0c0 .5-.5 1-1.1 1-.5 0-.7-.5-.4-1 .3-.6.8-1 1.1-1 .2 0 .4.4.4 1m-46 .9c0 .5-.6 1.1-1.2 1.4-1 .4-1 .7 0 1.8 1.4 1.5 1.6 2.9.3 2.9-1.1 0-2.4-4.8-1.6-6 .8-1.3 2.5-1.3 2.5-.1m149 .7c0 .8-.4 1.2-1 .9-.5-.3-1-1-1-1.6 0-.5.5-.9 1-.9.6 0 1 .7 1 1.6m-94 1.5c0 .6-.4.7-1 .4-.5-.3-1-1.1-1-1.6 0-.6.5-.7 1-.4.6.3 1 1.1 1 1.6m-10 1.9c0 .5-.4 1-1 1-.5 0-1-.5-1-1 0-.6.5-1 1-1 .6 0 1 .4 1 1m98.7 3.6c-.3.3-1.2.4-1.9.1-.8-.3-.5-.6.6-.6 1.1-.1 1.7.2 1.3.5M154 468.9c0 .6-.4 1.3-1 1.6-.5.3-1-.1-1-.9 0-.9.5-1.6 1-1.6.6 0 1 .4 1 .9m4 .7c0 .8-.4 1.2-1 .9-.5-.3-1-1-1-1.6 0-.5.5-.9 1-.9.6 0 1 .7 1 1.6m158.7 6.9c4.5 8.6 4.5 8.7 3.4 9.8-.8.8-1.1.5-1.1-1.1 0-1.2-.4-2.2-1-2.2-.5 0-1-.7-1-1.5s-.5-1.5-1.1-1.5c-.7 0-.9 1-.5 2.6.9 3.4-.4 2.5-2.8-2-1.9-3.5-1.9-3.7-.1-5 1.7-1.2 1.7-1.3.1-1.9-1-.4-1.4-1.2-1.1-1.7 1.2-1.9 2.6-.6 5.2 4.5m3.3-1.1c0 1.2-.5.7-1.9-2.4-1.1-2.4-1.1-2.4.3-.6.9 1.1 1.6 2.4 1.6 3M146 474c0 .5-.4 1-1 1-.5 0-1-.5-1-1 0-.6.5-1 1-1 .6 0 1 .4 1 1m9 .6c0 .8-.4 1.2-1 .9-.5-.3-1-1-1-1.6 0-.5.5-.9 1-.9.6 0 1 .7 1 1.6m155-.6c0 .5-.4 1-1 1-.5 0-1-.5-1-1 0-.6.5-1 1-1 .6 0 1 .4 1 1m-159.5 1.6c2 1.5 2 1.6-.4 1.2-1.4-.2-2.6-.9-2.9-1.6-.5-1.6.9-1.5 3.3.4m-8 2.6c-.4 1.8-1.1 3.5-1.5 3.8-1.2.9-5.6 9.3-7.3 14l-1.5 4.5-.1-3.7c-.1-2 .3-3.8.7-4 1.4-.6 8.9-15.3 8.5-16.6-.3-.6.1-1.2.7-1.2.8 0 .9 1 .5 3.2m7.5 1.8c0 .5-.4 1-1 1-.5 0-1-.5-1-1 0-.6.5-1 1-1 .6 0 1 .4 1 1m7.3.5c-.3.9-.8 1.4-1 1.1-.3-.3-.2-.9.2-1.5.9-1.6 1.5-1.3.8.4m-12.3.5c0 .5-.5 1-1.1 1-.5 0-.7-.5-.4-1 .3-.6.8-1 1.1-1 .2 0 .4.4.4 1m2.1 4.3c-1.3 1.3-2.6.3-1.6-1.2.3-.6 1.1-.8 1.7-.5.6.4.6 1-.1 1.7m143.4-.4c.3.5.1 1.2-.5 1.6-.5.3-1-.1-1-.9 0-1.8.6-2.1 1.5-.7M141.8 487c-1.4 2.2-2.4 1.9-1.5-.5.4-.8 1.1-1.5 1.7-1.5s.6.7-.2 2m180.4 3.1c-2.3.9-2.7.3-1.2-1.6 1.1-1.3 1.5-1.3 2.1-.3.5.8.2 1.5-.9 1.9m-182.2.8c0 .6-.4 1.3-1 1.6-.5.3-1-.1-1-.9 0-.9.5-1.6 1-1.6.6 0 1 .4 1 .9m2.6 3.8c-1 1-1.9-.5-1-1.8.6-1.1.8-1.1 1.2 0 .2.7.1 1.5-.2 1.8m182.4-2c0 .5-1.1.9-2.5.9-1.4.1-2.2-.2-1.9-.7.6-1.1 4.4-1.2 4.4-.2m1 3.2c0 .5.2 1.6.5 2.3.4.9-.2 1.4-1.4 1.5-1.3.1-1.8-.3-1.4-1.3.3-.8 0-1.4-.7-1.4-.6 0-.8-.5-.5-1 .8-1.3 3.5-1.3 3.5-.1m-185.4 3.7c-.3.9-.6 2-.6 2.5s-.8.9-1.7.8c-1.1 0-1.3-.3-.5-.6.6-.2 1.2-1.3 1.2-2.4 0-1 .5-1.9 1.1-1.9s.8.7.5 1.6m-16.8.1c-.9.2-2 1.8-2.3 3.4-.4 1.7-.9 2.8-1.2 2.5-.3-.2-.2-1.8.2-3.5.5-2.4 1.2-3.1 2.8-3s1.7.3.5.6m210.9 1.5c-.3.8-.6.5-.6-.6-.1-1.1.2-1.7.5-1.3.3.3.4 1.2.1 1.9m-35 1c-.3.8-.6.5-.6-.6-.1-1.1.2-1.7.5-1.3.3.3.4 1.2.1 1.9m-174 1.3c-1 2-1.3 2.2-1.8.7-.4-.9-.1-2 .5-2.4 2-1.4 2.4-.8 1.3 1.7m3.1 1c-1 2.3-1 2.9 0 3.3 1.5.5 1.5 4.8-.1 8.6-1.1 2.6-1.3 2.2-1.2-5 0-4.3.4-8.5.9-9.2 1.4-2.3 1.7-.6.4 2.3m199.2.2c0 .7-1 1.2-2.2 1.2-1.8-.1-1.9-.2-.5-.6 1.3-.3 1.6-1.1 1.2-2.6-.5-1.7-.4-1.9.4-.7.6.8 1.1 2.1 1.1 2.7m-31 .6c0 .5-.4.5-1 .2-.5-.3-1-1.4-1-2.3 0-1.5.2-1.5 1-.2.5.8 1 1.9 1 2.3m15.4 5.4c3.1 13.9 1.1 42.8-3.9 55.8l-1.5 4 .6-4.4c.5-3.8.4-4.3-1-3.8-.9.4-1.6.2-1.6-.2 0-.5.7-1.2 1.5-1.5 1.2-.4 1.4-1.4 1-3.8-1.2-7.1-1.3-16.8-.5-27.8.6-6.3 1.2-15 1.6-19.4.3-4.3.9-7.4 1.4-7 .4.5 1.5 4.1 2.4 8.1m-23.9-3.2c0 2.5-.3 4.5-.7 4.5-.5 0-.8-2-.8-4.5s.3-4.5.8-4.5c.4 0 .7 2 .7 4.5m19-.5c-.5.8-1.1.8-1.7.2s-.7-1.6-.3-2.2c.5-.8 1.1-.8 1.7-.2s.7 1.6.3 2.2m-172.6 1.7c-.1 1.6-.4 4.1-.8 5.6l-.6 2.8-1.1-3.5c-.6-2-.7-3.6-.3-3.6.5 0 .9-.9.9-2s.5-2 1-2c.6 0 .9 1.2.9 2.7m161.1 1.5c0 .4-.7.8-1.5.8-1 0-1.5-1-1.5-2.8.1-2.6.1-2.6 1.5-.8.8 1.1 1.5 2.3 1.5 2.8m3.6-.5c-1.1 1.1-1.7-.4-.9-2.3.7-1.8.8-1.8 1.1-.1.2 1 .1 2.1-.2 2.4M119.1 514c-.6 2.8-1.2 6.5-1.2 8.3-.1 2.1-.3 2.5-.6 1.3-.6-2.2 1.8-17.7 2.5-15.8.2.7-.1 3.5-.7 6.2m5.4-6c-.3.5-1.1 1-1.6 1-.6 0-.7-.5-.4-1 .3-.6 1.1-1 1.6-1 .6 0 .7.4.4 1m179.5.9c0 1.1.7 2.7 1.6 3.6 1.8 1.7 1.1 7.1-.7 5.9-.6-.3-.8-1.2-.5-2 .3-.7 0-1.6-.6-2-.8-.5-.9.4-.5 2.9.3 2.1.2 3.7-.3 3.7-.9 0-1.8-8.4-1.2-11.8.5-2.7 2.2-2.9 2.2-.3m27.7 1.3c-.3.8-.6.5-.6-.6-.1-1.1.2-1.7.5-1.3.3.3.4 1.2.1 1.9m-8 2c-.3.8-.6.5-.6-.6-.1-1.1.2-1.7.5-1.3.3.3.4 1.2.1 1.9m-23.8 2.8c.6 1.7.8 4.5.4 6.3-.4 2.5-.3 2.9.7 2.1.6-.7 2-1 3-.7 1.5.4 1.6.8.6 2.9-1.4 3.1-2.5 2.7-6-2.5-2.3-3.4-2.7-4.9-2.2-7.7.8-4.2 2.1-4.4 3.5-.4m28.1-2c0 .5-.4 1-1 1-.5 0-1-.5-1-1 0-.6.5-1 1-1 .6 0 1 .4 1 1m1.8 3.1c-.1 2.2-.6 4.3-1.2 4.6-.5.4-.7-.7-.3-2.7.4-1.8.7-3.9.7-4.6 0-.8.2-1.4.5-1.4s.5 1.8.3 4.1m-35.4-2.3c.2.4-.2 1.6-1 2.7-1.3 1.8-1.4 1.8-1.4-.8 0-2.5 1.3-3.6 2.4-1.9m38.6 5.4c0 1.9-.2 2-1 .8-1.3-1.9-1.3-3 0-3 .6 0 1 1 1 2.2m-202.4 3.6c-1.1 1-1.5-.4-.8-2.8l.7-2.5.3 2.3c.2 1.3.1 2.6-.2 3m163.3-2.1c0 .5-.4 1.7-.9 2.8-.8 1.8-.9 1.7-.9-.8-.1-1.5.4-2.7.9-2.7.6 0 1 .3.9.7m-167.3 2.7c.3 1.4.4 3.3.1 4.3-.3 1.2-.5.9-.6-1 0-1.5-.5-2.7-1.1-2.7-.5 0-1-.7-1-1.5 0-2.4 1.9-1.7 2.6.9m163.6 1.6c-.2 2.2-.8 4-1.3 4-1 0-1.1-2.5-.3-5.8 1-3.6 2-2.5 1.6 1.8m-169.9 3.2c-.7 7.6-2.3 10.1-2.3 3.5 0-3.8 1.6-9.7 2.6-9.7.1 0 0 2.8-.3 6.2m175.9-2.7c-.2 1.4-.8 2.5-1.3 2.5-1 0-1.1-1.2-.3-3.4 1-2.5 2.2-1.9 1.6.9m29.5.7c-.3.7-.5.2-.5-1.2s.2-1.9.5-1.3c.2.7.2 1.9 0 2.5m4.8-1.2c-.3.5-1 1-1.6 1-.5 0-.9-.5-.9-1 0-.6.7-1 1.6-1 .8 0 1.2.4.9 1m-200.8 4.7c-.3 1-.5.2-.5-1.7s.2-2.7.5-1.8c.2 1 .2 2.6 0 3.5m4.8-2.7c.3.5.1 1-.4 1-.6 0-1.1-.5-1.1-1 0-.6.2-1 .4-1 .3 0 .8.4 1.1 1m166.4 4.7c0-.9.5-1.7.9-1.7s.6 3 .4 6.7c-.5 8.1-2.1 12.2-1.9 4.8.1-2.8-.2-7-.6-9.5-.4-3.2-.4-3.6.2-1.5.5 1.6.9 2.2 1 1.2m-5.8 1.2c.1.9.5.2.9-1.4l.8-3 .1 3.5c0 1.9-.3 4.2-.8 5-1.3 2-.2 3.4 1.5 1.9 1.1-.9 1.4-.8 1.4.8 0 1-.4 2.3-1 2.9s-.5 2.3.2 4.9c1.5 5.2 1.5 5.1 3.8 3 1.1-1 2-1.3 2-.7s-.5 1.4-1 1.7c-.7.4-.9 2.6-.6 5.3.3 2.6.3 3.8 0 2.7s-1-2.5-1.6-3c-.7-.7-.8 1.1-.4 5.5.5 6 .5 6.3-.8 3.5-.7-1.7-1.6-6.6-2-11s-1.4-9.3-2.2-10.9-1.4-4.4-1.4-6.2-.5-4.5-1-6c-.9-2.4-.9-2.5.5-1.4.8.7 1.6 2 1.6 2.9m34.6-1.7c-.3.8-.6.5-.6-.6-.1-1.1.2-1.7.5-1.3.3.3.4 1.2.1 1.9M134 534.5c-.7.9-1.5 1.3-1.8 1-.3-.2.1-1.1.8-2s1.5-1.3 1.8-1c.3.2-.1 1.1-.8 2m-7.5 4.5c0 3.3-.3 6-.7 6-.9 0-1-6.6-.2-9.8.4-1.2.7-2.2.8-2.2s.2 2.7.1 6m159.8-2c-.8 3.1-2.3 2.3-2.3-1.1 0-2.6.3-2.9 1.4-2 .8.7 1.2 2.1.9 3.1m18.7-3c0 .5-.4 1-1 1-.5 0-1-.5-1-1 0-.6.5-1 1-1 .6 0 1 .4 1 1m-13 1.4c0 .8-.4 1.8-1 2.1-.5.3-1-.3-1-1.4 0-1.2.5-2.1 1-2.1.6 0 1 .6 1 1.4m35 .6c0 .5-.5 1-1.1 1-.5 0-.7-.5-.4-1 .3-.6.8-1 1.1-1 .2 0 .4.4.4 1m-197.3 7.7c-.2 1.6-.4.5-.4-2.2 0-2.8.2-4 .4-2.8.2 1.3.2 3.5 0 5m6.3-4c0 2.2-.2 2.5-1 1.3-1.3-2-1.3-4 0-4 .6 0 1 1.2 1 2.7m157.9 4.2c1.2 3.6.7 5.8-.6 2.5-1-2.9-2.6-3.5-4.5-1.7-1.2 1.1-1.6 2.4-1.1 4.1.4 1.9.3 2.3-.7 1.7-.7-.4-1.6-.2-2.1.6-.7 1.1-.9 1-.9-.4 0-.9.5-1.7 1-1.7.7 0 .8-1.3.4-3.7-.6-3.1-.4-3.5 1-3 .9.4 1.6.2 1.6-.4s.7-.9 1.5-.5c1 .3 1.5-.1 1.5-1.1 0-2.4 1.5-.5 2.9 3.6m-161.2-.7c-.3.7-.5.2-.5-1.2s.2-1.9.5-1.3c.2.7.2 1.9 0 2.5m171.9 1.5c-1.1 1.1-1.7-.4-.9-2.3.7-1.8.8-1.8 1.1-.1.2 1 .1 2.1-.2 2.4m-168.3 3.4c.3 1.2 1 1.8 1.6 1.4.6-.3 1.1-.1 1.1.5s-.7 1.3-1.5 1.6c-.8.4-1.5 1.2-1.5 1.9 0 .8-.5 1.7-1.2 2.1-.8.5-.9-.2-.5-2.5.4-2 .3-3-.3-2.6s-1.3-.1-1.7-1c-.3-1 0-2.1.8-2.6 2.1-1.3 2.6-1.1 3.2 1.2m5.4.1c-.3.8-.6.5-.6-.6-.1-1.1.2-1.7.5-1.3.3.3.4 1.2.1 1.9m151.7 2.1c2.7 3.9 3.2 5.7 1.8 5.7-1.7 0-5.2-5.1-5.2-7.7 0-3 0-3 3.4 2m32.3-3.7c-.3.3-1.2.4-1.9.1-.8-.3-.5-.6.6-.6 1.1-.1 1.7.2 1.3.5M128 551.4c0 1.5-.7 2.6-2 2.9-2.3.6-2.7-.8-.5-1.7.8-.3 1.2-1.2.9-2.1-.3-.8-.1-1.5.5-1.5s1.1 1.1 1.1 2.4m3 .6c0 .5-.2 1-.4 1-.3 0-.8-.5-1.1-1-.3-.6-.1-1 .4-1 .6 0 1.1.4 1.1 1m158 1c0 .5-.2 1-.4 1-.3 0-.8-.5-1.1-1-.3-.6-.1-1 .4-1 .6 0 1.1.4 1.1 1m37 0c0 .5-.4 1-1 1-.5 0-1-.5-1-1 0-.6.5-1 1-1 .6 0 1 .4 1 1m-188 2.7c-.1 1.5-2.7 4.3-3.4 3.6-.4-.4-1.1-.1-1.5.6-.6 1-1.4 1.1-2.6.3-1.6-.8-1.3-1.1 1.9-2.2 2-.6 3.6-1.6 3.6-2.1s.5-.9 1-.9c.6 0 1 .3 1 .7m152 1.3c0 .5-.5 1-1.1 1-.5 0-.7-.5-.4-1 .3-.6.8-1 1.1-1 .2 0 .4.4.4 1m30.7 1.2c-.3.8-.6.5-.6-.6-.1-1.1.2-1.7.5-1.3.3.3.4 1.2.1 1.9M289 560c0 .5-.5 1-1.1 1-.5 0-.7-.5-.4-1 .3-.6.8-1 1.1-1 .2 0 .4.4.4 1m2.5 2.4c-.5 2.5-.3 3.5.9 3.9 2.7 1 1.7 10.7-1 10.7-1.1 0-1.2.4-.3 1.8s.7 3.2-1.1 8.1c-2.8 7.6-4.8 7-3.3-1 .6-2.9.7-6.4.3-7.9-.7-2.4-.5-2.7 1.2-2.2 1.9.5 1.9.3.4-3.3-1.7-4-2.1-8.5-.8-8.5.5 0 1.5-1.1 2.2-2.5 1.8-3.4 2.2-3.1 1.5.9M325 560c0 .5-.2 1-.4 1-.3 0-.8-.5-1.1-1-.3-.6-.1-1 .4-1 .6 0 1.1.4 1.1 1m-186 2.5c-.7.9-1.5 1.3-1.8 1-.3-.2.1-1.1.8-2s1.5-1.3 1.8-1c.3.2-.1 1.1-.8 2m7.5 10.5c-.7 1.1 4.2 10.3 6 11.3.8.4 1.5 1.5 1.5 2.4 0 1.8 2.8 5.3 4.2 5.3.4 0 .8-.7.8-1.5 0-1.3.3-1.3 1.8.2 1 1 2.4 2.6 3.2 3.6 1.2 1.7 1.1 1.8-1.6 1.1-4.3-1-7.3-3.2-9.6-7-1.1-1.9-2.5-3.4-3.1-3.4-.5 0-.3.8.6 1.8 2.1 2.3 2.1 2.8.2 3.6-2 .7-4.7-.3-3.9-1.6.3-.5 1.2-.4 2.2.4 1.3 1.1 1.4 1.1 1-.2-.2-.8-1.7-2.1-3.1-2.8-1.5-.7-2.7-1.8-2.6-2.5q0-1.35.6 0c.5 1.4 4.3 1.8 4.3.5-.1-2-2.9-4.2-4.6-3.6-1.6.6-1.7.5-.6-.7 1.7-1.8 1.5-3.9-.4-3.9-1.1 0-1.4-.5-1-1.6.4-.9.1-2.3-.5-3-.9-1.1-.8-1.4.5-1.4 2 0 2.1-1.4.1-3.4-.9-.8-1.2-2.2-.8-3.2.5-1.3 1.2-.4 3 3.6 1.2 2.8 2.1 5.6 1.8 6m153.8-3c1.5 1.2 2.7 2.9 2.7 3.7 0 1.4-.3 1.3-2.1-.3-1.7-1.5-2.2-1.6-2.9-.4-.7 1.1-1 .8-1.4-1.1-.7-3-.9-6-.6-7.9.1-.8.5-.3.9 1.2.3 1.4 1.8 3.6 3.4 4.8m-171.9-3.5c.3.8.1 1.5-.4 1.5-.6 0-1-.7-1-1.5s.2-1.5.4-1.5.6.7 1 1.5m3.6 0c-.7.9-1.5 1.3-1.9 1-.3-.3.1-1 .9-1.5 2.1-1.4 2.4-1.2 1 .5m2.3 8.2c.7.9.5 1.3-.7 1.3-1.1 0-1.6-.8-1.5-2.8 0-1.5.3-2.1.6-1.2.3.8 1 2.1 1.6 2.7m5.6-1.4c.8 1 .7 1.7-.1 2.5-1.8 1.8-2.3 1.5-2.4-1.3-.2-2.8.8-3.2 2.5-1.2m157 4.2c.3 1.7.2 1.7-1.3.3-1.9-2-2.1-3.1-.3-2.6.6.3 1.4 1.3 1.6 2.3m4.1.3c.1 1.5.3 1.4 1.7-.3 1.5-2 1.5-2 .9.2-.3 1.3-.9 3.2-1.2 4.3-.4 1.4-.2 2 .8 2s1.3.8 1 3c-.5 3.4-2.2 3.1-2.2-.5 0-1.2-.7-2.5-1.5-2.9-1.2-.4-1.4 0-.9 1.9.3 1.4.2 2.5-.4 2.5-1.7 0-2.2-4.2-1-8.7 1-4.1 2.8-5 2.8-1.5m-148 1c0 1.5-.2 1.5-1 .2-1.3-2-1.3-3.3 0-2.5.6.3 1 1.4 1 2.3m164-1c0 .4-.9 1.3-2 2-2.3 1.4-2.6.8-.7-1.3 1.3-1.6 2.7-1.9 2.7-.7M135 579c0 .5-.2 1-.4 1-.3 0-.8-.5-1.1-1-.3-.6-.1-1 .4-1 .6 0 1.1.4 1.1 1m7.7-.4c-.3.3-1.2.4-1.9.1-.8-.3-.5-.6.6-.6 1.1-.1 1.7.2 1.3.5M321 580c0 .5-.5 1-1.1 1-.5 0-.7-.5-.4-1 .3-.6.8-1 1.1-1 .2 0 .4.4.4 1m-183 4c0 1.2.7 3.1 1.5 4.4 1.5 2.2 1.4 2.4-.7 2.9-1.3.4-2.6.1-3-.6-1.1-1.7-1-2.7.3-2.7.7 0 .8-1.1.4-3s-.3-3 .4-3c.6 0 1.1.9 1.1 2m189.1.7c-1.2 2-1.4 1.4-.5-1.2.4-.9.9-1.4 1.1-1.1.3.2 0 1.3-.6 2.3M143.5 587c.3.5.1 1-.4 1-.6 0-1.1-.5-1.1-1 0-.6.2-1 .4-1 .3 0 .8.4 1.1 1m154.6 6.3c-.8.8-1.1.7-1.1-.1 0-2.1-1.9-1.3-3.2 1.5-.7 1.4-1.9 2.8-2.5 3.1-1.9.5-1.6-3.5.2-4.2 1-.3 1.5-1.9 1.5-4.3v-3.7l3.1 3.3c2.1 2.4 2.7 3.7 2 4.4m10.2-1c-1 2-1.8 2.7-2.1 1.8-.2-.7.1-1.7.7-2 .6-.4.9-1.5.5-2.4-.5-1.3-.2-1.6 1-1.1 1.4.5 1.4.9-.1 3.7m-162.9-.7c.4 1 .1 1.4-.6 1.2-1.5-.5-2.3-2.8-1-2.8.5 0 1.3.7 1.6 1.6m8.1 2.7c.1 1.5-.2 2.7-.7 2.7-1.1 0-2.6-3.3-2.1-4.8.8-2.2 2.8-.7 2.8 2.1m148.6-.6c.1 1.6.3 4.2.5 5.9.2 2-.2 3.7-1.1 4.4-1.3 1.1-1.5.3-1.5-5.9 0-4.1.4-7.1 1-7.1s1.1 1.2 1.1 2.7M143 593c0 .5-.4 1-1 1-.5 0-1-.5-1-1 0-.6.5-1 1-1 .6 0 1 .4 1 1m-3 2.1c0 .5-.4.9-1 .9-.5 0-1-.7-1-1.6 0-.8.5-1.2 1-.9.6.3 1 1 1 1.6m180.5 2.8c-.8 1.7-2 3.1-2.6 3.1-1 0 .3-3.2 2.4-5.8 1.7-2.2 1.9-.5.2 2.7M150 597c.7 1.3.7 2 .1 2s-1.5-.9-2.1-2c-.7-1.3-.7-2-.1-2s1.5.9 2.1 2m-13 1.5c.7.9.8 1.5.2 1.5-.5 0-1.2-.7-1.6-1.5-.3-.8-.4-1.5-.2-1.5s.9.7 1.6 1.5m32 1c0 .7.6 1.5 1.3 1.8.6.2.1.4-1.3.4-1.9 0-2.5-.5-2.6-2.3-.1-1.5.3-2.1 1.2-1.7.8.3 1.4 1.1 1.4 1.8m128-.3c0 3.9-1.5 5.2-2.7 2.5-.8-1.8-.8-2.8 0-3.6 1.7-1.7 2.7-1.3 2.7 1.1m-149.6.4c.9 2.4.2 2.6-1.2.4-.7-1.1-.8-2-.3-2s1.2.7 1.5 1.6m140.3 2.1c-1 5.8-2.7 6.5-2.7 1 0-3.7.4-4.7 1.6-4.7 1.4 0 1.5.7 1.1 3.7m-136.3.8c-.4.8-.8 1.5-1 1.5s-.4-.7-.4-1.5.4-1.5 1-1.5c.5 0 .7.7.4 1.5m6.6-1c0 .9-4 4.5-5 4.5-1.6 0-1.2-1 1.3-3.1 2.2-1.8 3.7-2.4 3.7-1.4m-12 2.6c0 .6-.4.7-1 .4-.5-.3-1-1.1-1-1.6 0-.6.5-.7 1-.4.6.3 1 1.1 1 1.6m144.8 4.1c-.2 3.5-.8 6.9-1.4 7.5-.9 1-1.1-.2-.7-5 .5-6.6.9-8.7 1.8-8.7.3 0 .4 2.8.3 6.2M142 604.6c0 .8-.4 1.2-1 .9-.5-.3-1-1-1-1.6 0-.5.5-.9 1-.9.6 0 1 .7 1 1.6m33.4 1c.4 1 .1 1.4-.6 1.2-1.5-.5-2.3-2.8-1-2.8.5 0 1.3.7 1.6 1.6m-16 .3c.3.5-.2 1.2-1.1 1.5-1.2.5-1.3 1-.5 1.8s1.5.8 2.6-.1c.9-.7 2.1-1.1 2.8-.8.8.4.7.6-.4.6-.9.1-2.1.7-2.5 1.3-.4.7-1.8 1.9-3.1 2.6-2.1 1.2-2.7 1-6.5-2.9-3.5-3.5-3.8-4.1-1.8-3.4 1.3.4 3.4 1.9 4.7 3.4 1.3 1.4 2.4 2.1 2.4 1.4 0-.6-.5-1.5-1.1-1.8-.7-.5-.4-1.3.8-2.5 2-2.1 2.9-2.4 3.7-1.1m154.6.7c0 .4-1.3 2.2-3 4.1-3.5 3.9-4.1 2.5-.7-1.7 2.1-2.7 3.7-3.7 3.7-2.4m-166.5 4.2c-.6.7-3.5-1.8-3.5-3.1 0-.5.9-.2 2 .8s1.8 2 1.5 2.3m151.4.6c1.6 1 1.1 13.6-.6 17.1-.9 1.6-2 3.3-2.6 3.7-.7.4-.4 2.2.7 5.3 1.6 4 1.6 5.3.6 9.1-.7 2.4-1.7 4.1-2.2 3.8s-.6-1.5-.2-2.6c.4-1.4.2-1.8-.5-1.4-.7.5-1.1-.1-1.1-1.4 0-1.1.6-2.3 1.4-2.6 1-.4 1.2-1.4.4-4.2-2.3-9.4-2.9-17.3-1.7-22.2.5-1.9.9-4 1-4.5 0-.6.6-1.9 1.1-3 1.1-1.9 1.1-1.9 1.9.2.4 1.1 1.2 2.4 1.8 2.7m2.1-2.8c0 .8-.5 1.2-1 .9-.6-.4-.8-1.1-.5-1.6.9-1.4 1.5-1.1 1.5.7m2.1 12.6c-.8 3-.9 2.8-1-2.7-.1-8.2 1.3-13 1.7-5.8.2 2.8-.1 6.6-.7 8.5m-24.9-10c-.7.7-1.2.8-1.2.2s.3-1.4.7-1.7c.3-.4.9-.5 1.2-.2.2.3-.1 1.1-.7 1.7m9.8.2c0 1.5-1.8 3.1-2.6 2.3-.7-.7.7-3.7 1.7-3.7.5 0 .9.6.9 1.4m-70.9 1.8c2.3 2.6 2.4 3.6.2 7.9-1.9 3.6-2.3 11.9-1 19.7.7 4.2.7 4.2-2 3.6-4.1-.9-7.3-3.2-7.2-5.2 0-1.4.3-1.3 1.6.5.8 1.3 2.4 2.3 3.4 2.3 2.6 0 2.4-.7-.8-3.5-2.8-2.4-2.6-4.8.2-2.5 2.1 1.8 1.9.3-.5-2.7-2.1-2.7-2.6-5.3-1.1-5.3.5 0 1.2.7 1.5 1.6.4.9.9 1.4 1.3 1.1.3-.4-.2-1.8-1.1-3.1-2.1-3.3-2-3.9.4-3.1 2.7.9 2.5-.7-.5-3.5-2.8-2.7-3.3-4.2-.9-3.3 1.4.5 1.5.1 1-2.5-.6-2.4-.4-3.1 1.1-3.5 1-.3 2-.5 2.2-.6.2 0 1.2.9 2.2 2.1m56.5-.6c-.3.9-.6 2-.6 2.5s-.9.4-2-.3c-2.2-1.4-2.5-1.2-3.5 2.1-.7 2.3-.6 2.3 2.9 1.7 3-.6 3.5-.4 3 .9-.3.8-1.2 1.5-1.9 1.5s-1.6.6-1.8 1.2c-.4 1-.8 1-1.6-.1-.7-1.1-1-.5-1.3 2.5l-.4 3.9-.8-3.2c-.9-3.4-2.6-3.6-2.6-.2 0 1-.5 1.9-1.1 1.9s-.9-.7-.5-1.5c.3-.9 0-1.5-1-1.5-.9 0-1.4.7-1.2 1.7.2 1.2-.4 1.9-1.9 2.1-1.6.2-2.3-.2-2.3-1.2 0-.9-.4-1.6-1-1.6-1 0-1.4 1.4-1 3.9.1 1.3-.1 1.3-1.4.2-1.1-.9-1.6-1-1.6-.2 0 .6-.5 1.1-1.1 1.1s-.9-.7-.5-1.5c.6-1.6-.3-1.9-2.8-.9-.9.3-1.6 1.2-1.6 2 0 1.9-1 1.8-2.5-.2-.9-1.3-1.6-1.4-3.2-.5-1.2.6-4.4 1-7.1 1-5.9-.2-7.2.5-7.2 3.6 0 1.8-.4 2.2-2 1.8-2.4-.6-2.7-2.3-.3-2.3 1.6 0 1-1.4-.8-1.6-.5-.1-1.3-.2-1.8-.3-1.6-.2-2.1-3.1-.9-5 .9-1.4 2-1.8 4.7-1.4 2 .2 5.6 0 8.1-.5 2.5-.6 3.5-1 2.3-1.1-3.4-.2-3.8-2.1-.4-2.1 1.6 0 3.1.6 3.3 1.2.4 1 1 1 3.2 0 1.5-.7 3.2-1 3.7-.7 1.7 1.1 12.8-1.6 12.3-3-.3-.7.5-1.5 1.8-1.9 3.7-1 4.8-.7 4.1 1-.4 1.2-.1 1.5 1.3 1.2 1.3-.2 1.8-1.1 1.7-2.5-.2-1.8.4-2.3 3.2-2.9 2-.3 3.8-1 4.1-1.5.9-1.6 2.6-1 2 .7M151 613c0 .5-.2 1-.4 1-.3 0-.8-.5-1.1-1-.3-.6-.1-1 .4-1 .6 0 1.1.4 1.1 1m10 9.1c0 .5-.4.9-1 .9-.5 0-1-.7-1-1.6 0-.8.5-1.2 1-.9.6.3 1 1 1 1.6m18-1.1c0 .5-.4 1-1 1-.5 0-1-.5-1-1 0-.6.5-1 1-1 .6 0 1 .4 1 1m111 .4c0 1.6-1.8 3.1-2.7 2.2-.8-.8.5-3.6 1.7-3.6.5 0 1 .6 1 1.4m-117.7 3c-1 1.4-2.2 2.6-2.6 2.6s.2-1.3 1.4-3c1.3-1.6 2.4-2.8 2.7-2.6.2.3-.4 1.6-1.5 3m10.7-1.8c0 .8-.4 1.2-1 .9-.5-.3-1-1-1-1.6 0-.5.5-.9 1-.9.6 0 1 .7 1 1.6m45.5-.7c-1.5 1.4-7.5 2.4-7.5 1.3 0-1.3 1.8-2 5.5-2.1 1.7-.1 2.5.3 2 .8M178 624c0 .5-.5 1-1.1 1-.8 0-.8.5.1 1.5 1 1.2 1 1.5-.3 1.5-2 0-2.7-2.1-1.3-3.7 1.3-1.5 2.6-1.7 2.6-.3m10.8.9c.3.8-.1 1.2-.9.9-.7-.2-1.5-1-1.7-1.7-.3-.8.1-1.2.9-.9.7.2 1.5 1 1.7 1.7m-6.5 3.3c-.2.4-1 .2-1.7-.5-.8-.6-1.2-1.5-.9-1.9.2-.4 1-.2 1.7.5.8.6 1.2 1.5.9 1.9m11.8-.4c-.7.2-1.8-.1-2.3-.6-.8-.8-.4-.9 1.3-.5 1.3.4 1.8.8 1 1.1m-7.1.7c0 .8-.7 1.5-1.5 1.5-.9 0-1.2-.6-.9-1.5.4-.8 1-1.5 1.5-1.5s.9.7.9 1.5m5.4 2.8c.6 2.2.7 2.2 2.1.3 1.6-2.1 2.1-1 .6 1.3-.8 1.2-1.4 1.2-4 .1-1.7-.7-3.1-1.8-3.1-2.5 0-3.2 3.5-2.6 4.4.8M289 630c0 1.1-.7 2-1.5 2-2.7 0-1.8-3 1.3-3.9.1-.1.2.8.2 1.9m13.6-1.2c.7.4.8 2.4.4 5.7-.6 3.8-.8 4.2-.9 1.7 0-1.8-.7-3.5-1.5-3.8s-1.2-1.3-.9-2.5c.6-2 1.2-2.3 2.9-1.1m-34.9 4.4c-.3.7-.5.2-.5-1.2s.2-1.9.5-1.3c.2.7.2 1.9 0 2.5m-37.3-.7c.3.8.1 1.5-.4 1.5-.6 0-1-.7-1-1.5s.2-1.5.4-1.5.6.7 1 1.5m6.6.6c0 1.1-.4 1.8-1 1.4-.5-.3-.7-1.2-.3-2 .7-2.1 1.3-1.9 1.3.6m3.9 3.6c.1.7-.3 1.3-.7 1.3-.5 0-.9-1.7-.9-3.8-.1-3.2 0-3.4.7-1.2.4 1.4.8 3.1.9 3.7m23.1-4.5c0 .7-1.2 1.4-2.6 1.5-1.5 0-3 .7-3.5 1.5-.7 1-.9 1-.9-.3 0-.8 1.2-2 2.8-2.6 3.7-1.5 4.2-1.5 4.2-.1m-36.8 4c-1 2.2-1.1 2.1-1.1-1.2-.1-2.6.2-3.1 1.1-2.2.8.8.8 1.7 0 3.4M184 634c0 .5-.7 1-1.6 1-.8 0-1.2-.5-.9-1 .3-.6 1-1 1.6-1 .5 0 .9.4.9 1m15 0c0 .5.8 1 1.7 1s1.4.3 1 .6c-.8.8-4.7-.5-4.7-1.7 0-.5.5-.9 1-.9.6 0 1 .4 1 1m101 2.2c-.1 2.8-.2 3-1.1 1.5-.6-1-.8-2.5-.5-3.3.9-2.4 1.6-1.6 1.6 1.8m-55.5-.2c.3.5.1 1-.4 1-.6 0-1.1-.5-1.1-1 0-.6.2-1 .4-1 .3 0 .8.4 1.1 1m46.5 1.4c0 .3-.4.8-1 1.1-.5.3-1 .1-1-.4 0-.6.5-1.1 1-1.1.6 0 1 .2 1 .4m2.5 3.6c-.3.5-1.1 1-1.6 1-.6 0-.7-.5-.4-1 .3-.6 1.1-1 1.6-1 .6 0 .7.4.4 1m6.9 7c-.8 2.5-1.4 5.8-1.4 7.5 0 2.7-.1 2.8-1.7 1.3-1.5-1.6-1.5-2 0-5.5.9-2.1 1.9-5.6 2.3-7.8.6-3.1.9-3.6 1.4-2 .4 1.1.1 4-.6 6.5m-10.6-5.8c-.6 1.8-2.8 2.1-2.8.4 0-.9.7-1.6 1.6-1.6s1.4.5 1.2 1.2m-2.2 6.5c-1 1-1.9-.5-1-1.8.6-1.1.8-1.1 1.2 0 .2.7.1 1.5-.2 1.8m16.4-.5c0 1.6-.3 1.9-1.1 1.1-.6-.6-.8-1.6-.5-2.2 1.1-1.7 1.6-1.3 1.6 1.1M200.8 651l3.7.1-2.4 1.9c-3.3 2.8.1 2.7 4.1-.1 3.1-2.3 4.9-1.9 2.9.5-1.5 1.8-.5 4 1.5 3.2 1.7-.7 1.9 2.5.2 4.2-2 2-4 1.4-7.5-2-2.5-2.4-3.6-2.9-4.2-2-1.1 1.8-4.1.4-5.2-2.5s-.3-4.7 1.8-3.9c.8.3 3.1.6 5.1.6m88.2 1.1c0 1.1-.4 1.7-1 1.4-.5-.3-1-1.3-1-2.1s.5-1.4 1-1.4c.6 0 1 .9 1 2.1m2.6 3.5c-.4 1.4-.9 2.4-1.2 2.1-.3-.2-.2-1.7.2-3.1.3-1.5.9-2.5 1.1-2.2.3.3.2 1.7-.1 3.2m11.7 2.6c-.4 2.9-.7 6.8-.6 8.5.1 1.8-.3 3.3-.9 3.3s-.8 1-.4 2.5c.7 2.8-.2 7.5-1.4 7.5-.4 0-1.8-2.1-3-4.8-1.3-2.6-2.5-4.1-2.8-3.4-.2.8.1 1.9.7 2.5s1.1 2 1.1 3.1c0 1.8-.3 1.7-2-.9-2-3.1-2.8-9.5-1.1-9.5.5 0 1.3-.9 1.6-2s1.3-2 2.2-2c1.4 0 1.4.3.1 2.2-1.1 1.7-1.2 2.9-.5 4.5.6 1.3 1.4 2.3 1.8 2.3.9 0 3-7.9 3.6-14.3.3-2.6.9-4.7 1.4-4.7.6 0 .7 2.1.2 5.2m-87.8 3.4c-.9 1.4-1.9 2.3-2.2 2-.4-.3.1-1.4 1-2.4 1-1 1.7-2.5 1.8-3.3 0-1 .2-1.1.6-.1.3.7-.3 2.4-1.2 3.8m72-3.6c.3.5.1 1-.4 1-.6 0-1.1-.5-1.1-1 0-.6.2-1 .4-1 .3 0 .8.4 1.1 1m8.4.4c.9 1.1.9 1.6-.2 2.3-.8.4-1.9 1.7-2.5 2.8-1.1 1.9-1.1 1.9-1.2-.3 0-1.2.5-2.2 1.1-2.2s.8-.9.4-2c-.7-2.3.7-2.7 2.4-.6m-7.2 5.8c-.3.7-.5.2-.5-1.2s.2-1.9.5-1.3c.2.7.2 1.9 0 2.5m-94.7-.7c0 .8-.7 1.5-1.5 1.5-2.6 0-1.8-2 1.3-2.9.1-.1.2.6.2 1.4m93-.1c0 .3-.4.8-1 1.1-.5.3-1 .1-1-.4 0-.6.5-1.1 1-1.1.6 0 1 .2 1 .4m-91.6 4.3c-.9 3.8-1.3 4.1-3 1.8-1.3-1.7-1.2-2 .8-3.2 1.3-.7 2.4-1.2 2.6-1.3.1 0-.1 1.2-.4 2.7m93.6 2.9c0 .8-.4 1.2-1 .9-.5-.3-1-1-1-1.6 0-.5.5-.9 1-.9.6 0 1 .7 1 1.6m-83.7 3.1c.5 2.7.2 4.1-.7 3.2-1.1-1-1.7-5.9-.8-5.9.5 0 1.2 1.2 1.5 2.7m-9.3 5.5v2.8l-3.1-1.8c-1.8-1-3.9-2.8-4.7-4-1.3-2-1.3-2.2.7-2.2 1.1 0 2.1-.5 2.1-1.2 0-.6 1.1-.1 2.5 1.2 1.5 1.4 2.5 3.5 2.5 5.2m93.8-.4c.2 1.2-.1 2.2-.7 2.2-1.3 0-3.2-3.5-2.4-4.4 1.2-1.2 2.8 0 3.1 2.2m6.7 5c-.8.8-3.5-2.7-3.5-4.5 0-1.4.5-1.1 2 1.2 1 1.6 1.7 3.1 1.5 3.3m8-.8c-.9 1.4-2.5-.5-2.5-3 0-1.2.3-1.2 1.6.2.9.9 1.3 2.1.9 2.8M195 685.7c0 1.3-.2 2.3-.5 2.3-1.1 0-6.3-6.5-5.8-7.3.9-1.5 6.3 2.7 6.3 5m9.7-3.5c-.3.8-.6.5-.6-.6-.1-1.1.2-1.7.5-1.3.3.3.4 1.2.1 1.9m-21.3.3c.3.8.1 1.5-.4 1.5-.6 0-1-.7-1-1.5s.2-1.5.4-1.5.6.7 1 1.5M302 685c0 1.1.5 2 1 2 1.6 0 1.3 15.7-.3 16.3-1.9.7-2.1 9.7-.2 9.7 1.2 0 1.5 1.8 1.5 9.5 0 5.2-.4 9.5-.9 9.5-1.6 0-2.1-3.2-1.1-7.1.9-3.1.8-4.5-.6-7.1-1.2-2.2-1.8-6.1-1.9-11.6-.1-4.6-.7-8.8-1.4-9.5-1.8-1.8-1.3-2.9 1-2.2 2 .7 2 .6.5-2.4-2.3-4.4-2.1-9.1.4-9.1 1.3 0 2 .7 2 2m-12.2 1.2c.7.7 1.2 1.9 1.2 2.7-.1 1.4-.3 1.3-1.4-.1-.7-1-1.6-1.5-1.9-1.1-.4.3-.7-.1-.7-1 0-2 1.1-2.2 2.8-.5m4.2-.2c0 .5-.2 1-.4 1-.3 0-.8-.5-1.1-1-.3-.6-.1-1 .4-1 .6 0 1.1.4 1.1 1m-89 6.8c0 1.9-.4 3.1-1 2.7-.5-.3-1-1.5-1-2.6s-.7-2.2-1.5-2.5c-1.1-.5-1.2-.9-.2-2.5 1.1-1.8 1.3-1.8 2.5-.2.6.9 1.2 3.2 1.2 5.1m90.8-1.7c-.2.6-.8 1-1.3 1s-1.1-.4-1.3-1 .4-1.1 1.3-1.1 1.5.5 1.3 1.1m-6.8 1.4c0 .8-.4 1.5-1 1.5-.5 0-1-.7-1-1.5s.5-1.5 1-1.5c.6 0 1 .7 1 1.5m-104.8 1.7c-.7.7-1.2.8-1.2.2s.3-1.4.7-1.7c.3-.4.9-.5 1.2-.2.2.3-.1 1.1-.7 1.7m113.8 6c0 1.7-1.7.7-2.8-1.7-1.7-3.7-1.5-4.1.8-1.5 1.1 1.3 2 2.7 2 3.2m-94.4-2.2c1.5 0 1.8 3.2.5 6.5-.7 1.7-1 1.4-2-2-1.1-4-1.4-8.2-.4-5.8.2.7 1.1 1.3 1.9 1.3m87.4.3c0 1.4-2 3.7-3.2 3.7-1 0-1.1-3.4-.1-4.3 1.1-1.2 3.3-.8 3.3.6m6.3 8.5c.4.2.7 1.1.7 1.9 0 1.1-.6.9-2.5-.8-1.6-1.6-2.4-3.5-2.4-5.4v-3l1.7 3.5c.9 1.9 2 3.6 2.5 3.8m-93.3 4.9c0 2.3-2 1.4-3-1.3-1.8-4.5-1.2-6.2 1-2.9 1.1 1.6 2 3.6 2 4.2m85-5c0 1.4-1.9 3.8-2.5 3.2-.8-.8.5-3.9 1.6-3.9.5 0 .9.3.9.7m1.6 5c-1 1-1.9-.5-1-1.8.6-1.1.8-1.1 1.2 0 .2.7.1 1.5-.2 1.8m3 .9c-.4.9-.9 1.5-1.1 1.2-.3-.3-.3-1.3.1-2.2s.9-1.5 1.1-1.2c.3.3.3 1.3-.1 2.2m-6.5 4.7c-.8.8-1.1.5-1.1-.9 0-2.7 1.4-4.1 1.8-1.9.2.9-.1 2.2-.7 2.8m9.9-3.3c0 .5-.5 1-1.1 1-.5 0-.7-.5-.4-1 .3-.6.8-1 1.1-1 .2 0 .4.4.4 1m-94.4 10.8c.5 4.4.3 6.2-.5 6.2-.6 0-1.2-.7-1.2-1.5-.3-2.8-.4-3.3-1.1-4-.3-.4-.4-2.2-.1-4.1.4-2.2.2-3.4-.6-3.4-.6 0-1.1-.8-1.1-1.7 0-1.6.2-1.5 2 .2 1.3 1.4 2.2 4 2.6 8.3M252 716c0 .5-.7 1-1.6 1-.8 0-1.2-.5-.9-1 .3-.6 1-1 1.6-1 .5 0 .9.4.9 1m-19 1c0 .5-.7 1-1.5 1s-1.5-.5-1.5-1c0-.6.7-1 1.5-1s1.5.4 1.5 1m67.5 2.3c.3 1.2.2 3.4-.4 4.7l-1 2.5-.1-2.5c0-1.4-.3-3.5-.6-4.8-.4-1.3-.2-2.2.5-2.2.6 0 1.3 1 1.6 2.3m-8.1 1.9c1.5 2.9 1.5 3.3.1 4.7-1.3 1.4-1.5 1.3-1.5-1.1 0-1.4-.5-2.8-1.2-3-1-.4-.5-3.8.6-3.8.2 0 1.2 1.4 2 3.2m7.6 10.3c0 1.5-.3 1.5-1.6.5-2.2-1.9-3.6-4.9-2.9-6.1.8-1.2 4.5 3.3 4.5 5.6m-10.6-4.2c.8.7 1.1 2.6.8 4.5-.5 3.6 1 4.2 3.1 1.2 1.3-1.8 1.5-1.7 5.7 2.6 4.1 4.3 4.2 4.5 2.4 5.9s-1.8 1.6-.1 2.9c2.1 1.6 2.2 2.6.2 2.6-.8 0-1.5.9-1.5 2s.7 2 1.5 2 1.5.7 1.5 1.5c0 .9-.6 1.2-1.7.8-1.3-.5-1.5-.2-1.1 1.5.5 1.7.2 2.2-1.3 2.2-1 0-2 .6-2.1 1.2 0 .7-.2 1.7-.3 2.3-.2.5-.3 3.5-.4 6.5-.1 5.2-.2 5.4-1.7 3.2-1.2-1.8-1.3-3.2-.5-7.7.6-3 .8-6.1.5-6.9s-.1-1.7.5-2.1c.6-.3 1.1.1 1.1.9 0 .9.5 1.6 1.1 1.6.5 0 .8-.4.4-.9-.3-.5-.1-1.2.4-1.6.6-.3.7-1.5.2-2.8s-.3-3.6.5-5.9c1-3 1-3.7-.1-4.2-.7-.2-1.6-1.8-2-3.5-1-4.7-2.9-5.1-2.1-.5 1.6 10.3 1.8 13.4.8 13.4-1.3 0-2.6-3.6-1.8-4.9.9-1.4-1.5-6.1-3-6.1-1.7 0-2.8-5.5-1.5-7.9s-.6-4.2-2-2c-.7 1.1-.9 1.1-.9-.2 0-2.9 1.5-3.6 3.4-1.6m-88 9.4c.3 1 .1 3.4-.3 5.3-1 3.8-1.1 3.6-1.7-2.8-.4-4.1 1-5.8 2-2.5m86.3 9.5c-.3.8-.6.5-.6-.6-.1-1.1.2-1.7.5-1.3.3.3.4 1.2.1 1.9m-87.7 5.4c0 2.1-.4 3.3-1 2.9-.5-.3-1-2.2-1-4.1 0-2.1.4-3.3 1-2.9.6.3 1 2.2 1 4.1m92.3-1.3c.3.7.2 2.6-.1 4.3l-.6 2.9-.7-2.5c-1-3.6-1-6 0-6 .5 0 1.1.6 1.4 1.3m-4.9 4.2c-.6 1.6-2.4 2.1-2.4.7 0-1.1 1.1-2.2 2.1-2.2.5 0 .6.7.3 1.5M199 764c0 2.7-.4 5-.9 5-1 0-2.4-7.7-1.6-9.1 1.4-2.2 2.5-.5 2.5 4.1m90-3c0 .5-.4 1-1 1-.5 0-1-.5-1-1 0-.6.5-1 1-1 .6 0 1 .4 1 1m0 3.9c0 2-1.7 3.7-2.7 2.8-.7-.8.7-4.7 1.8-4.7.5 0 .9.9.9 1.9m-1 4.5c0 .2-.7.9-1.5 1.6-1.2 1-1.5 1-1.5-.4 0-.9.7-1.6 1.5-1.6s1.5.2 1.5.4m15.3 13.7c-.4 7.4-.9 12.3-1.1 10.9-.5-3.1.8-25.3 1.4-24.7.3.3.1 6.5-.3 13.8m-104.9-6.8c-1 4.1-2.4 3.2-2.4-1.5 0-3.8.1-4.1 1.6-2.7 1 1.1 1.3 2.4.8 4.2m91 .3c.9.8 1.6 2.3 1.6 3.2 0 1.3-.5 1.1-2-.8-2.9-3.7-2.6-5.5.4-2.4m-2.4 4.9c0 .8-.2 1.5-.4 1.5s-.6-.7-1-1.5c-.3-.8-.1-1.5.4-1.5.6 0 1 .7 1 1.5m13.2 12.2c-.4 3.4-.6 3.6-1.5 1.6-.5-1.2-.6-3.4-.3-4.9 1-3.9 2.3-1.4 1.8 3.3m-12.3-2.5c0 1.3-.4 3.2-.8 4.3-.7 1.7-.8 1.6-1.3-1-.3-1.6-.4-3.5-.1-4.2.8-2.1 2.3-1.5 2.2.9m4.9 2.3c.6 1.4 1 2.5.7 2.5-.7 0-3.5-3.2-3.5-4.1 0-1.8 1.7-.9 2.8 1.6m-3.8 5.1c0 .8-.5 1.2-1 .9-.6-.4-.8-1.1-.5-1.6.9-1.4 1.5-1.1 1.5.7m3.2-.4c.6 1.8-.3 5.8-1.3 5.8-.5 0-.9-1.6-.9-3.5 0-3.4 1.4-4.8 2.2-2.3m2.6 5.8c-.2 1.6.2 2.8.7 2.7.6-.1.9-1.2.7-2.5-.1-1.2.2-2.2.8-2.2.5 0 1 .7 1 1.5s.5 1.5 1 1.5c.6 0 1 1.1 1 2.4 0 2-.4 2.3-3.5 2-3.2-.2-3.5 0-3.5 2.6 0 1.5-.7 3.3-1.5 4-.9.8-1.5.9-1.5.2 0-.6.5-1.4 1-1.7.6-.3 1-2.1 1-3.9 0-3.3 1.8-9.6 2.7-9.6.2 0 .3 1.3.1 3m-99.8 3.7c0 5.1-2.4 3.6-2.8-1.7-.3-3.9-.2-4.2 1.2-3.1.9.8 1.6 2.9 1.6 4.8m95-1.6c0 .5-.7.9-1.5.9-.9 0-1.5-.9-1.5-2.1 0-1.8.2-1.9 1.5-.9.8.7 1.5 1.6 1.5 2.1m-96 12.2c0 3.1-2.1 1.4-3.6-2.8-2-5.7-.8-7.7 1.6-2.9 1.1 2.1 2 4.7 2 5.7m104.5-2.6c-1 7.2-1.6 9.3-2.6 8.8-.4-.3-.6-1.2-.3-1.9.3-.8.1-1.7-.5-2.1-1.2-.7-1.4-5.4-.3-7.1.6-.9 2.4-2 4.1-2.3.2-.1 0 2-.4 4.6m-109.9 29c1.6 2.1 1.8 7.3.4 7.3-.5 0-1-1.1-1-2.4 0-1.4-.4-2.8-1-3.1-1.1-.7-1.4-3.5-.4-3.5.4 0 1.3.8 2 1.7"/>
	<path d="M103.8 101.7c.7.3 1.6.2 1.9-.1.4-.3-.2-.6-1.3-.5-1.1 0-1.4.3-.6.6M101.6 104.9c-.4.7-.5 1.5-.2 1.8.9.9 1.9-.4 1.4-1.8-.4-1.1-.6-1.1-1.2 0M352.5 245c-.3.5-.1 1 .4 1 .6 0 1.1-.5 1.1-1 0-.6-.2-1-.4-1-.3 0-.8.4-1.1 1M160.5 268c-.3.5-.1 1 .4 1 .6 0 1.1-.5 1.1-1 0-.6-.2-1-.4-1-.3 0-.8.4-1.1 1M247 430c0 .5.7 1 1.5 1s1.5-.5 1.5-1c0-.6-.7-1-1.5-1s-1.5.4-1.5 1M253.5 431c.3.5 1.3 1 2.1 1s1.4-.5 1.4-1c0-.6-.9-1-2.1-1-1.1 0-1.7.4-1.4 1M259 432c0 .5.5 1 1 1 .6 0 1-.5 1-1 0-.6-.4-1-1-1-.5 0-1 .4-1 1M267.2 433.9c.2.7.7 1.2 1.1 1.2 1.2-.1.9-1.5-.3-2-.7-.2-1.1.2-.8.8M271 436c0 .5.5 1 1 1 .6 0 1-.5 1-1 0-.6-.4-1-1-1-.5 0-1 .4-1 1M274.5 438c.3.5 1 1 1.6 1 .5 0 .9-.5.9-1 0-.6-.7-1-1.6-1-.8 0-1.2.4-.9 1M282.4 441.5c1.1.8 2.4 1.5 3 1.5.5 0 .1-.7-1-1.5-1-.8-2.3-1.4-2.9-1.4-.5 0-.1.6.9 1.4M287 444c0 .5.7 1 1.6 1 .8 0 1.2-.5.9-1-.3-.6-1-1-1.6-1-.5 0-.9.4-.9 1M290.5 446c-.3.5-.1 1 .4 1 .6 0 1.1-.5 1.1-1 0-.6-.2-1-.4-1-.3 0-.8.4-1.1 1M293 447.8c0 1 3.8 4.2 5 4.2.6 0 1-.5 1-1 0-.6-.6-1-1.4-1s-1.6-.7-2-1.5c-.6-1.5-2.6-2.1-2.6-.7M179 612.9c0 .7 5.3 4.1 6.4 4.1 1.8 0 .1-1.8-2.9-3.2-1.9-.8-3.5-1.3-3.5-.9M186.5 614c.3.5 1.4 1 2.3 1 1.5 0 1.5-.2.2-1-2-1.3-3.3-1.3-2.5 0M191.5 616c.3.5.8 1 1.1 1 .2 0 .4-.5.4-1 0-.6-.5-1-1.1-1-.5 0-.7.4-.4 1M194.9 618.2c-.5 2-.2 2.8 1.2 3.1 2.4.7 4.7-1.9 3.1-3.5-.9-.9-1.2-.9-1.2 0 0 1.9-1.8 1.4-2.2-.6-.3-1.2-.6-.9-.9 1M312.2 478.2c.6 1.8 2.8 2.1 2.8.4 0-.9-.7-1.6-1.6-1.6s-1.4.5-1.2 1.2M289 566.9c0 1.2.5 2.1 1 2.1.6 0 1-.6 1-1.4s-.4-1.8-1-2.1c-.5-.3-1 .3-1 1.4M291.1 573.6c0 1.1.3 1.4.6.6.3-.7.2-1.6-.1-1.9-.3-.4-.6.2-.5 1.3M137 590.1c0 .5.5.7 1 .4.6-.3 1-.8 1-1.1 0-.2-.4-.4-1-.4-.5 0-1 .5-1 1.1M294.3 625c-.1 5.2.9 6.3 2.7 3.1 1.4-2.6 1.3-5.2-.2-4.9-.7.2-1.2-.2-1.3-.9 0-.6-.3-1.4-.6-1.7s-.6 1.7-.6 4.4M257.8 619.7c.7.3 1.6.2 1.9-.1.4-.3-.2-.6-1.3-.5-1.1 0-1.4.3-.6.6M264.5 620c-.3.5-.1 1 .4 1 .6 0 1.1-.5 1.1-1 0-.6-.2-1-.4-1-.3 0-.8.4-1.1 1M189.5 631c.3.5.8 1 1.1 1 .2 0 .4-.5.4-1 0-.6-.5-1-1.1-1-.5 0-.7.4-.4 1M301 691c0 1.1.5 2 1 2 .6 0 1-.9 1-2s-.4-2-1-2c-.5 0-1 .9-1 2M301 697.5c0 .8.5 1.5 1 1.5.6 0 1-.7 1-1.5s-.4-1.5-1-1.5c-.5 0-1 .7-1 1.5M97 59.9c0 1.2.5 2.1 1 2.1.6 0 1-.6 1-1.4s-.4-1.8-1-2.1c-.5-.3-1 .3-1 1.4M108 84c0 .5.5 1 1.1 1 .5 0 .7-.5.4-1-.3-.6-.8-1-1.1-1-.2 0-.4.4-.4 1M381 91.2c0 2.8.3 4.8.8 4.4 1-1.1 1.1-9.6.1-9.6-.5 0-.9 2.3-.9 5.2M112.5 89.9c-.3.6-.1 1.1.4 1.1.6 0 1.1 1.1 1.1 2.4 0 3.4 2 4.4 2.2 1.2 0-1.4.1-3.2.2-3.8.1-1.6-3-2.3-3.9-.9M119.1 92.3c-.7.9-1 2.5-.6 3.4.6 1.7.7 1.7 1.6 0 .6-1 .9-2.5.7-3.4-.3-1.5-.4-1.5-1.7 0M389.6 93.2c-1.1 4.2-.7 5.5.9 3.4 1.6-2.2 2-5.6.6-5.6-.5 0-1.1 1-1.5 2.2M111 93c0 .5.5 1 1 1 .6 0 1-.5 1-1 0-.6-.4-1-1-1-.5 0-1 .4-1 1M123.7 94.7c-.3.4 0 1.9.7 3.2.9 1.5 1.6 2 2 1.2.4-.6.1-2-.7-3.2-.8-1.1-1.7-1.7-2-1.2M375.1 100.6c0 1.1.3 1.4.6.6.3-.7.2-1.6-.1-1.9-.3-.4-.6.2-.5 1.3M374 104.1c0 .5.5.7 1 .4.6-.3 1-.8 1-1.1 0-.2-.4-.4-1-.4-.5 0-1 .5-1 1.1M129 107c0 .5.5 1 1 1 .6 0 1-.5 1-1 0-.6-.4-1-1-1-.5 0-1 .4-1 1M126 107.9c0 .5.7 1.4 1.5 2.1s1.5 2.2 1.6 3.4c0 1.1.3 1.5.6.8.6-1.6-1.6-7.2-2.8-7.2-.5 0-.9.4-.9.9M125.6 115c.9 5.7 1 5.9 1.9 2 .5-2.4.3-3.7-.9-4.9-1.6-1.5-1.6-1.3-1 2.9M133 116.9c0 1.7.2 3.1.4 3.1.8 0 1.3-5.1.5-5.6-.5-.3-.9.9-.9 2.5M135.8 117.6c-.5.4-.8 1.9-.8 3.3 0 1.8.3 2.2 1.1 1.4.6-.6.9-2.1.7-3.3-.1-1.2-.6-1.8-1-1.4M131 123.1c0 1.1.7 4.3 1.6 7 1.2 3.6 2.3 5.1 3.9 5.5 1.5.4 2.9 2 3.9 4.2 1.4 3.5 1.5 3.5 1.5 1 .1-2.7-1.6-5-4.8-6.8-1-.5-2.5-3.5-3.5-7-1.8-6.2-2.6-7.5-2.6-3.9"/>
	<path d="M137.1 125.9c-.7 1.3-1 2.5-.7 2.9.3.3.6 0 .6-.6 0-.7.5-1.2 1-1.2.6 0 1 1.3 1 3 0 1.6.5 3 1 3 1.5 0 1.2-5.3-.4-7.5-1.3-1.8-1.4-1.8-2.5.4M159 200.2c0 1.3.5 3 1 3.8.7 1.1 1 .7 1-1.7 0-1.7-.4-3.5-1-3.8s-1 .4-1 1.7M10 208c-1 .7.6 1 5.5.9 4.8 0 6.4-.3 5-.9-2.7-1.2-8.7-1.2-10.5 0M24.8 209.7c.7.3 1.6.2 1.9-.1.4-.3-.2-.6-1.3-.5-1.1 0-1.4.3-.6.6M2.5 213.3c-.4 1-.5 2.1-.1 2.4 1 1 1.8-.4 1.3-2.4-.4-1.7-.4-1.7-1.2 0M254 424c0 .5.6 1 1.4 1 .7 0 2.9.2 4.7.5 2.5.4 2.9.3 1.4-.3-3.7-1.7-7.5-2.3-7.5-1.2M265 427c.8.5 2.6 1 4 1 2 0 2.2-.2 1-1-.8-.5-2.6-1-4-1-2 0-2.2.2-1 1M168.8 442.7c.7.3 1.6.2 1.9-.1.4-.3-.2-.6-1.3-.5-1.1 0-1.4.3-.6.6M160.5 449c-.3.5-.1 1 .4 1 .6 0 1.1-.5 1.1-1 0-.6-.2-1-.4-1-.3 0-.8.4-1.1 1M144.7 460.6c-.4.4-.7 1.4-.7 2.3 0 1.1.3 1.2 1.1.4.6-.6 1-1.6.7-2.3-.2-.6-.7-.8-1.1-.4M217 704.9c0 .5.6 1.4 1.4 2 1.1.9 1.6.9 2.1 0 .4-.6.1-1.5-.6-2-1.8-1.1-2.9-1.1-2.9 0M226 711.6c0 .8.5 1.2 1 .9.6-.3 1-1 1-1.6 0-.5-.4-.9-1-.9-.5 0-1 .7-1 1.6M302.8 832.2c0 9.5-.2 19.8-.3 22.8 0 3 .2 9.8.5 15l.6 9.5.3-14.5c.9-43.1.9-49 0-49.5-.5-.4-1 6.2-1.1 16.7M298.2 848.2c.1 3.2.5 5.8 1 5.8 1 0 .9-6.9-.2-9.5-.6-1.4-.9-.3-.8 3.7M289 846c0 1.9.3 2.1 1.2 1.2s.9-1.5 0-2.4-1.2-.7-1.2 1.2M296 855.9c0 .6.5 1.3 1 1.6.6.3 1-.1 1-.9 0-.9-.4-1.6-1-1.6-.5 0-1 .4-1 .9M186.7 862.1c.6.6.9 1.7.7 2.3-.3.7-.1 2.3.4 3.6.8 2.3.9 2.2 1.6-1.4.5-2.8.4-4.1-.6-4.7-1.9-1.3-3.4-1.1-2.1.2M295.6 867.8c-.2.4-.1 1.4.5 2.2.7 1.2.9 1 .9-.8 0-2.3-.5-2.8-1.4-1.4M299.6 867.9c-.4.7-.5 1.5-.2 1.8.9.9 1.9-.4 1.4-1.8-.4-1.1-.6-1.1-1.2 0M184 879.4c0 .9.5 1.6 1 1.6.6 0 1-.4 1-.9 0-.6-.4-1.3-1-1.6-.5-.3-1 .1-1 .9M188.3 883c0 3 .2 4.3.4 2.8.2-1.6.2-4 0-5.5-.2-1.6-.4-.3-.4 2.7"/>
</svg>
